o Boiler
v -4.5 2.5 1.5
v -4.5 3.25 1.299
v -4.5 3.799 0.75
v -4.5 4 -0
v -4.5 3.799 -0.75
v -4.5 3.25 -1.299
v -4.5 2.5 -1.5
v -4.5 1.75 -1.299
v -4.5 1.201 -0.75
v -4.5 1 -0
v -4.5 1.201 0.75
v -4.5 1.75 1.299
v -4.25 3.25 1.299
v -4.25 2.5 1.5
v -4.25 3.799 0.75
v -4.25 4 0
v -4.25 3.799 -0.75
v -4.25 3.25 -1.299
v -4.25 2.5 -1.5
v -4.25 1.75 -1.299
v -4.25 1.201 -0.75
v -4.25 1 -0
v -4.25 1.201 0.75
v -4.25 1.75 1.299
v -4.25 2 0.866
v -4.25 1.634 0.5
v -4.25 1.5 -0
v -4.25 1.634 -0.5
v -4.25 2 -0.866
v -4.25 2.5 -1
v -4.25 3 -0.866
v -4.25 3.366 -0.5
v -4.25 3.5 -0
v -4.25 3.366 0.5
v -4.25 3 0.866
v -4.25 2.5 1
v -3.5 2 0.866
v -3.5 1.634 0.5
v -3.5 1.5 -0
v -3.5 1.634 -0.5
v -3.5 2 -0.866
v -3.5 2.5 -1
v -3.5 3 -0.866
v -3.5 3.366 -0.5
v -3.5 3.5 -0
v -3.5 3.366 0.5
v -3.5 3 0.866
v -3.5 2.5 1
v -4.5 2.5 1
v -4.5 3 0.866
v -4.5 3.366 0.5
v -4.5 3.5 -0
v -4.5 3.366 -0.5
v -4.5 3 -0.866
v -4.5 2.5 -1
v -4.5 2 -0.866
v -4.5 1.634 -0.5
v -4.5 1.5 -0
v -4.5 1.634 0.5
v -4.5 2 0.866
v -4.5 2.5 0.75
v -4.5 2.875 0.6495
v -4.5 3.1495 0.375
v -4.5 3.25 -0
v -4.5 3.1495 -0.375
v -4.5 2.875 -0.6495
v -4.5 2.5 -0.75
v -4.5 2.125 -0.6495
v -4.5 1.8505 -0.375
v -4.5 1.75 -0
v -4.5 1.8505 0.375
v -4.5 2.125 0.6495
v -4.375 3 0.866
v -4.375 2.5 1
v -4.375 3.366 0.5
v -4.375 3.5 -0
v -4.375 3.366 -0.5
v -4.375 3 -0.866
v -4.375 2.5 -1
v -4.375 2 -0.866
v -4.375 1.634 -0.5
v -4.375 1.5 -0
v -4.375 1.634 0.5
v -4.375 2 0.866
v -4.375 2.875 0.6495
v -4.375 2.5 0.75
v -4.375 3.1495 0.375
v -4.375 3.25 -0
v -4.375 3.1495 -0.375
v -4.375 2.875 -0.6495
v -4.375 2.5 -0.75
v -4.375 2.125 -0.6495
v -4.375 1.8505 -0.375
v -4.375 1.75 -0
v -4.375 1.8505 0.375
v -4.375 2.125 0.6495
v -4.5 2.5 -0
v -3.5 0 1.5
v 4.5 0 1.5
v -3.5 -0 -1.5
v 4.5 -0 -1.5
v -3.5 0.25 -1.5
v -3.5 0.25 1.5
v 4.5 0.25 1.5
v 4.5 0.25 -1.5
v 3 0.75 -0.75
v 4 0.75 -0.75
v 4 0.75 0.75
v 3 0.75 0.75
v 4 0.25 1.25
v 4 0.25 -1.25
v 4 1.25 -0.75
v 4 1.25 0.75
v -3.5 1.25 0.75
v -3.5 1.75 1.25
v -3.5 3.25 1.25
v -3.5 3.75 0.75
v -3.5 1.75 -1.25
v -3.5 1.25 -0.75
v -3.5 3.75 -0.75
v -3.5 3.25 -1.25
v 4.5 1.75 1.25
v 4.5 1.25 0.75
v 4.5 3.75 0.75
v 4.5 3.25 1.25
v 4.5 1.25 -0.75
v 4.5 1.75 -1.25
v 4.5 3.25 -1.25
v 4.5 3.75 -0.75
v 3 0.25 1.25
v 3 0.25 -1.25
v 3 1.25 0.75
v 3 1.25 -0.75
v -3 1.25 -0.75
v -3 1.25 0.75
v -3 0.25 -1.25
v -3 0.25 1.25
v -2 1.25 0.75
v -2 1.25 -0.75
v -2 0.25 -1.25
v -2 0.25 1.25
v -3 0.75 0.75
v -2 0.75 0.75
v -2 0.75 -0.75
v -3 0.75 -0.75
v -1.5 0.75 -0.75
v 2.5 0.75 -0.75
v 2.5 0.75 0.75
v -1.5 0.75 0.75
v 2.5 0.25 1.25
v 2.5 0.25 -1.25
v 2.5 1.25 -0.75
v 2.5 1.25 0.75
v -1.5 0.25 1.25
v -1.5 0.25 -1.25
v -1.5 1.25 0.75
v -1.5 1.25 -0.75
v -2.75 1.25 0.75
v -2.75 1.75 1.25
v -2.75 3.25 1.25
v -2.75 3.75 0.75
v -2.75 1.75 -1.25
v -2.75 1.25 -0.75
v -2.75 3.75 -0.75
v -2.75 3.25 -1.25
v -2.75 1.75 1.5
v -2.75 3.25 1.5
v -2.75 4 0.75
v -2.75 4 -0.75
v -2.75 1.75 -1.5
v -2.75 3.25 -1.5
v -2.75 1 0.75
v -2.75 1 -0.75
v -2.25 1.75 1.5
v -2.25 3.25 1.5
v -2.25 4 0.75
v -2.25 4 -0.75
v -2.25 1.75 -1.5
v -2.25 3.25 -1.5
v -2.25 1 0.75
v -2.25 1 -0.75
v -2.25 1.25 0.75
v -2.25 1.75 1.25
v -2.25 3.25 1.25
v -2.25 3.75 0.75
v -2.25 1.75 -1.25
v -2.25 1.25 -0.75
v -2.25 3.75 -0.75
v -2.25 3.25 -1.25
v 4 2.75 -1.933
v -3 2.75 -1.933
v 4 2.933 -1.75
v -3 2.933 -1.75
v 4 3 -1.5
v -3 3 -1.5
v 4 2.933 -1.25
v -3 2.933 -1.25
v 4 2.75 -1.067
v -3 2.75 -1.067
v 4 2.5 -1
v -3 2.5 -1
v 4 2.25 -1.067
v -3 2.25 -1.067
v 4 2.067 -1.25
v -3 2.067 -1.25
v 4 2 -1.5
v -3 2 -1.5
v 4 2.067 -1.75
v -3 2.067 -1.75
v 4 2.25 -1.933
v -3 2.25 -1.933
v 4 2.5 -2
v -3 2.5 -2
v -3 2.5 1
v 4 2.5 1
v -3 2.25 1.067
v 4 2.25 1.067
v -3 2.067 1.25
v 4 2.067 1.25
v -3 2 1.5
v 4 2 1.5
v -3 2.067 1.75
v 4 2.067 1.75
v -3 2.25 1.933
v 4 2.25 1.933
v -3 2.5 2
v 4 2.5 2
v -3 2.75 1.933
v 4 2.75 1.933
v -3 2.933 1.75
v 4 2.933 1.75
v -3 3 1.5
v 4 3 1.5
v -3 2.933 1.25
v 4 2.933 1.25
v -3 2.75 1.067
v 4 2.75 1.067
v -1.25 0.25 1.5
v -0.75 0.25 1.5
v -1.25 0.75 1.5
v -0.75 0.75 1.5
v -1.25 0.25 0.75
v -0.75 0.25 0.75
v -1.25 0.75 0.75
v -0.75 0.75 0.75
v -1.1875 0.75 1.4375
v -0.8125 0.75 1.4375
v -1.1875 0.75 1.0625
v -0.8125 0.75 1.0625
v -1.1875 1.75 1.4375
v -0.8125 1.75 1.4375
v -1.1875 1.75 1.0625
v -0.8125 1.75 1.0625
v 1.75 0.25 1.5
v 2.25 0.25 1.5
v 1.75 0.75 1.5
v 2.25 0.75 1.5
v 1.75 0.25 0.75
v 2.25 0.25 0.75
v 1.75 0.75 0.75
v 2.25 0.75 0.75
v 1.8125 0.75 1.4375
v 2.1875 0.75 1.4375
v 1.8125 0.75 1.0625
v 2.1875 0.75 1.0625
v 1.8125 1.75 1.4375
v 2.1875 1.75 1.4375
v 1.8125 1.75 1.0625
v 2.1875 1.75 1.0625
v 2.25 0.25 -1.5
v 1.75 0.25 -1.5
v 2.25 0.75 -1.5
v 1.75 0.75 -1.5
v 2.25 0.25 -0.75
v 1.75 0.25 -0.75
v 2.25 0.75 -0.75
v 1.75 0.75 -0.75
v 2.1875 0.75 -1.4375
v 1.8125 0.75 -1.4375
v 2.1875 0.75 -1.0625
v 1.8125 0.75 -1.0625
v 2.1875 1.75 -1.4375
v 1.8125 1.75 -1.4375
v 2.1875 1.75 -1.0625
v 1.8125 1.75 -1.0625
v -0.75 0.25 -1.5
v -1.25 0.25 -1.5
v -0.75 0.75 -1.5
v -1.25 0.75 -1.5
v -0.75 0.25 -0.75
v -1.25 0.25 -0.75
v -0.75 0.75 -0.75
v -1.25 0.75 -0.75
v -0.8125 0.75 -1.4375
v -1.1875 0.75 -1.4375
v -0.8125 0.75 -1.0625
v -1.1875 0.75 -1.0625
v -0.8125 1.75 -1.4375
v -1.1875 1.75 -1.4375
v -0.8125 1.75 -1.0625
v -1.1875 1.75 -1.0625
v -1.25 1.25 0.75
v -1.25 1.75 1.25
v -1.25 3.25 1.25
v -1.25 3.75 0.75
v -1.25 1.75 -1.25
v -1.25 1.25 -0.75
v -1.25 3.75 -0.75
v -1.25 3.25 -1.25
v -1.25 1.75 1.5
v -1.25 3.25 1.5
v -1.25 4 0.75
v -1.25 4 -0.75
v -1.25 1.75 -1.5
v -1.25 3.25 -1.5
v -1.25 1 0.75
v -1.25 1 -0.75
v -0.75 1.75 1.5
v -0.75 3.25 1.5
v -0.75 4 0.75
v -0.75 4 -0.75
v -0.75 1.75 -1.5
v -0.75 3.25 -1.5
v -0.75 1 0.75
v -0.75 1 -0.75
v -0.75 1.25 0.75
v -0.75 1.75 1.25
v -0.75 3.25 1.25
v -0.75 3.75 0.75
v -0.75 1.75 -1.25
v -0.75 1.25 -0.75
v -0.75 3.75 -0.75
v -0.75 3.25 -1.25
v 1.75 1.25 0.75
v 1.75 1.75 1.25
v 1.75 3.25 1.25
v 1.75 3.75 0.75
v 1.75 1.75 -1.25
v 1.75 1.25 -0.75
v 1.75 3.75 -0.75
v 1.75 3.25 -1.25
v 1.75 1.75 1.5
v 1.75 3.25 1.5
v 1.75 4 0.75
v 1.75 4 -0.75
v 1.75 1.75 -1.5
v 1.75 3.25 -1.5
v 1.75 1 0.75
v 1.75 1 -0.75
v 2.25 1.75 1.5
v 2.25 3.25 1.5
v 2.25 4 0.75
v 2.25 4 -0.75
v 2.25 1.75 -1.5
v 2.25 3.25 -1.5
v 2.25 1 0.75
v 2.25 1 -0.75
v 2.25 1.25 0.75
v 2.25 1.75 1.25
v 2.25 3.25 1.25
v 2.25 3.75 0.75
v 2.25 1.75 -1.25
v 2.25 1.25 -0.75
v 2.25 3.75 -0.75
v 2.25 3.25 -1.25
v 3.25 1.25 0.75
v 3.25 1.75 1.25
v 3.25 3.25 1.25
v 3.25 3.75 0.75
v 3.25 1.75 -1.25
v 3.25 1.25 -0.75
v 3.25 3.75 -0.75
v 3.25 3.25 -1.25
v 3.25 1.75 1.5
v 3.25 3.25 1.5
v 3.25 4 0.75
v 3.25 4 -0.75
v 3.25 1.75 -1.5
v 3.25 3.25 -1.5
v 3.25 1 0.75
v 3.25 1 -0.75
v 3.75 1.75 1.5
v 3.75 3.25 1.5
v 3.75 4 0.75
v 3.75 4 -0.75
v 3.75 1.75 -1.5
v 3.75 3.25 -1.5
v 3.75 1 0.75
v 3.75 1 -0.75
v 3.75 1.25 0.75
v 3.75 1.75 1.25
v 3.75 3.25 1.25
v 3.75 3.75 0.75
v 3.75 1.75 -1.25
v 3.75 1.25 -0.75
v 3.75 3.75 -0.75
v 3.75 3.25 -1.25
v -3.5 0 0
v 0.5 0 1.5
v 0.5 0.25 1.5
v -3.5 0.25 -0
v 4.5 0 0
v 0.5 -0 -1.5
v 4.5 2.5 1.25
v 0.5 1.75 1.25
v 4.5 3.5 0.25
v 4.5 2.25 1
v 4 0.5 0.25
v 4 0.25 -0
v 0.5 3.75 -0.75
v 4.5 3.75 -0
v -3.5 3.5 -0.25
v -3.5 2.25 -1
v -3.5 2.5 -1.25
v 0.5 1.75 -1.25
v 0.5 1.25 -0.75
v 0.5 1.25 0.75
v 0.5 3.75 0.75
v -3.5 1.25 -0
v 3 0.25 -0
v 3 0.5 0.25
v 3 0.75 -0
v 4 0.75 -0
v -2 0.75 -0
v -3 0.75 -0
v -3 0.25 -0
v -3 0.5 0.25
v -2 0.5 0.25
v -2 0.25 -0
v 2.5 0.5 0.25
v 2.5 0.25 -0
v -1.5 0.25 -0
v -1.5 0.5 0.25
v 0.5 0.75 -0.75
v 0.5 1.25 -0.75
v 0.5 0.25 1.25
v 0.5 0.75 0.75
v -1.5 0.75 -0
v 2.5 0.75 -0
v -2.75 2.5 1.25
v -2.75 3.75 -0
v -2.75 2.5 -1.25
v -2.75 4 -0
v -2.75 2.5 -1.5
v -2.75 2.5 1.5
v -2.25 2.5 1.5
v -2.25 4 -0
v -2.25 2.5 -1.5
v -1.25 2.5 1.25
v -1.25 3.75 -0
v -1.25 2.5 -1.25
v -1.25 4 -0
v -1.25 2.5 -1.5
v -1.25 2.5 1.5
v -0.75 2.5 1.5
v -0.75 4 -0
v -0.75 2.5 -1.5
v 1.75 2.5 1.25
v 1.75 3.75 -0
v 1.75 2.5 -1.25
v 1.75 4 -0
v 1.75 2.5 -1.5
v 1.75 2.5 1.5
v 2.25 2.5 1.5
v 2.25 4 -0
v 2.25 2.5 -1.5
v 3.25 2.5 1.25
v 3.25 3.75 -0
v 3.25 2.5 -1.25
v 3.25 4 -0
v 3.25 2.5 -1.5
v 3.25 2.5 1.5
v 3.75 2.5 1.5
v 3.75 4 -0
v 3.75 2.5 -1.5
v 4.5 0.25 -0
v 0.5 0.25 -1.5
v 0.5 3.25 1.25
v -3.5 2.5 1.25
v 4.5 1.5 -0.25
v 4.5 1.25 -0
v 4.5 2.75 -1
v 4.5 2.5 -1.25
v -3.5 3.75 -0
v -3.5 1.5 0.25
v -3.5 2.75 1
v 0.5 3.25 -1.25
v 3 1.25 -0
v 4 1.25 -0
v -2 1.25 -0
v -3 1.25 -0
v 0.5 0.25 -1.25
v 0.5 1.25 0.75
v -1.5 1.25 -0
v 2.5 1.25 -0
v -2.25 2.5 1.25
v -2.25 3.75 -0
v -2.25 2.5 -1.25
v -0.75 2.5 1.25
v -0.75 3.75 -0
v -0.75 2.5 -1.25
v 2.25 2.5 1.25
v 2.25 3.75 -0
v 2.25 2.5 -1.25
v 3.75 2.5 1.25
v 3.75 3.75 -0
v 3.75 2.5 -1.25
v 0.5 2.75 -1.933
v 0.5 2.933 -1.75
v 0.5 3 -1.5
v 0.5 2.933 -1.25
v 0.5 2 -1.5
v 0.5 2.067 -1.75
v 0.5 2.25 -1.933
v 0.5 2.5 -2
v 0.5 2.067 1.25
v 0.5 2 1.5
v 0.5 2.067 1.75
v 0.5 2.25 1.933
v 0.5 2.5 2
v 0.5 2.75 1.933
v 0.5 2.933 1.75
v 0.5 3 1.5
v 0.5 2.067 -1.25
v 0.5 2.933 1.25
v 0.5 2.5 -1.25
v 4.5 2.5 -0
v 0.5 0.25 -0
v 0.5 0 0
v -3.5 2.5 -0
v 0.5 3.75 -0
v 0.5 2.5 1.25
v 0.5 1.25 -0
v -1.5 1.25 0.75
v 1.5 1.25 -0.75
v -3.5 0.25 -0.75
v -1.5 1.25 -0.75
v -1.5 -0 -1.5
v -1.5 3.75 -0.75
v -1.5 3.75 0.75
v 4.5 0 0.75
v -1.5 1.75 -1.25
v -3.5 0 0.75
v 1.5 0.75 0.75
v 1.5 0.25 1.25
v -0.5 0.75 -0.75
v -3.5 -0 -0.75
v 2.5 0 1.5
v 2.5 0.25 1.5
v -3.5 0.25 0.75
v 4.5 -0 -0.75
v 2.5 -0 -1.5
v 0.5 0.25 0.75
v -1.5 0.25 -0
v 2.5 1.75 1.25
v -1.25 2.5 2
v 2.5 3.75 -0.75
v 2.5 1.75 -1.25
v 2.5 1.25 -0.75
v 2.5 1.25 0.75
v 2.5 3.75 0.75
v -1.5 3.25 1.25
v -1.5 3.25 -1.25
v 1.5 0.75 -0.75
v -0.5 1.25 -0.75
v -0.5 0.25 1.25
v -0.5 0.75 0.75
v 2.5 2.5 -1.25
v 2.5 0.25 -0
v -1.25 3 1.5
v -1.25 2.067 1.25
v 2.25 2.067 -1.75
v -1.5 1.75 1.25
v 2.25 2.25 -1.933
v -1.25 2 1.5
v -1.25 2.933 1.75
v -1.5 3.75 -0
v 2.25 2.75 -1.933
v 0.5 -0 -0.75
v 0.5 0 0.75
v 2.5 3.75 -0
v 1.5 1.25 0.75
v 1.5 0.25 -1.25
v 2.5 0 0
v 0.5 0.25 -0.75
v -1.5 2.5 -1.25
v -1.5 0 0
v 4.5 0.25 -0.75
v 2.5 0.25 -1.5
v 2.5 3.25 1.25
v 2.5 3.25 -1.25
v -0.5 0.25 -1.25
v -0.5 1.25 0.75
v -1.5 0 1.5
v -1.5 0.25 1.5
v 2.25 2.067 -1.25
v -1.25 2.25 1.933
v -1.25 2.75 1.933
v -1.25 2.933 1.25
v 2.25 2.5 -2
v -1.25 2.067 1.75
v 2.25 2.933 -1.75
v 2.25 3 -1.5
v 4.5 0.25 0.75
v -1.5 0.25 -1.5
v 2.25 2.933 -1.25
v -1.25 2.75 -1.933
v -1.25 2.933 -1.75
v -1.25 3 -1.5
v -1.25 2.933 -1.25
v -1.25 2 -1.5
v -1.25 2.067 -1.75
v -1.25 2.25 -1.933
v -1.25 2.5 -2
v 2.25 2.067 1.25
v 2.25 2 1.5
v 2.25 2.067 1.75
v 2.25 2.25 1.933
v 2.25 2.5 2
v 2.25 2 -1.5
v 2.25 2.75 1.933
v 2.25 2.933 1.75
v 2.25 3 1.5
v 2.5 2.5 1.25
v -1.25 2.067 -1.25
v 2.25 2.933 1.25
v -1.5 2.5 1.25
v -1.5 1.25 -0
v 2.5 1.25 -0
v -1.5 0 0.75
v -1.5 0.25 -0.75
v -1.5 -0 -0.75
v 2.5 -0 -0.75
v 2.5 0.25 -0.75
v 2.5 0.25 0.75
v -1.5 0.25 0.75
v 2.5 0 0.75
v -0.5 1.25 0.75
v -0.5 1.25 -0.75
v -0.5 -0 -1.5
v -0.5 3.75 -0.75
v -0.5 3.75 0.75
v -0.5 1.75 -1.25
v 3.5 0 1.5
v 3.5 0.25 1.5
v 3.5 -0 -1.5
v -2.5 0.25 -0
v 3.5 1.75 1.25
v -0.375 2.5 2
v 3.5 3.75 -0.75
v 3.5 1.75 -1.25
v 3.5 1.25 -0.75
v 3.5 1.25 0.75
v 3.5 3.75 0.75
v -0.5 3.25 1.25
v -0.5 3.25 -1.25
v 1.5 2.5 -1.25
v 1.5 0.25 -0
v -0.375 3 1.5
v -0.375 2.067 1.25
v 1.375 2.067 -1.75
v -0.5 1.75 1.25
v 1.375 2.25 -1.933
v -0.375 2 1.5
v -0.375 2.933 1.75
v -0.5 3.75 -0
v 1.375 2.75 -1.933
v 3.5 3.75 -0
v 1.5 0 0
v -2.5 2.5 -1.25
v -2.5 0 0
v 3.5 0.25 -1.5
v 3.5 3.25 1.25
v 3.5 3.25 -1.25
v -0.5 0 1.5
v -0.5 0.25 1.5
v 1.375 2.067 -1.25
v -0.375 2.25 1.933
v -0.375 2.75 1.933
v -0.375 2.933 1.25
v 1.375 2.5 -2
v -0.375 2.067 1.75
v 1.375 2.933 -1.75
v 1.375 3 -1.5
v -0.5 0.25 -1.5
v 1.375 2.933 -1.25
v -2.125 2.75 -1.933
v -2.125 2.933 -1.75
v -2.125 3 -1.5
v -2.125 2.933 -1.25
v -2.125 2 -1.5
v -2.125 2.067 -1.75
v -2.125 2.25 -1.933
v -2.125 2.5 -2
v 3.125 2.067 1.25
v 3.125 2 1.5
v 3.125 2.067 1.75
v 3.125 2.25 1.933
v 3.125 2.5 2
v 1.375 2 -1.5
v 3.125 2.75 1.933
v 3.125 2.933 1.75
v 3.125 3 1.5
v 3.5 2.5 1.25
v -2.125 2.067 -1.25
v 3.125 2.933 1.25
v -0.5 2.5 1.25
v -2.5 1.25 -0
v 1.5 1.25 -0
v -2.5 1.25 0.75
v -2.5 1.25 -0.75
v -2.5 -0 -1.5
v -2.5 3.75 -0.75
v -2.5 3.75 0.75
v -2.5 1.75 -1.25
v 1.5 0 1.5
v 1.5 0.25 1.5
v 1.5 -0 -1.5
v -0.5 0.25 -0
v 1.5 1.75 1.25
v -2.125 2.5 2
v 1.5 3.75 -0.75
v 1.5 1.75 -1.25
v 1.5 1.25 -0.75
v 1.5 1.25 0.75
v 1.5 3.75 0.75
v -2.5 3.25 1.25
v -2.5 3.25 -1.25
v 3.5 2.5 -1.25
v 3.5 0.25 -0
v -2.125 3 1.5
v -2.125 2.067 1.25
v 3.125 2.067 -1.75
v -2.5 1.75 1.25
v 3.125 2.25 -1.933
v -2.125 2 1.5
v -2.125 2.933 1.75
v -2.5 3.75 -0
v 3.125 2.75 -1.933
v 1.5 3.75 -0
v 3.5 0 0
v -0.5 2.5 -1.25
v -0.5 0 0
v 1.5 0.25 -1.5
v 1.5 3.25 1.25
v 1.5 3.25 -1.25
v -2.5 0 1.5
v -2.5 0.25 1.5
v 3.125 2.067 -1.25
v -2.125 2.25 1.933
v -2.125 2.75 1.933
v -2.125 2.933 1.25
v 3.125 2.5 -2
v -2.125 2.067 1.75
v 3.125 2.933 -1.75
v 3.125 3 -1.5
v -2.5 0.25 -1.5
v 3.125 2.933 -1.25
v -0.375 2.75 -1.933
v -0.375 2.933 -1.75
v -0.375 3 -1.5
v -0.375 2.933 -1.25
v -0.375 2 -1.5
v -0.375 2.067 -1.75
v -0.375 2.25 -1.933
v -0.375 2.5 -2
v 1.375 2.067 1.25
v 1.375 2 1.5
v 1.375 2.067 1.75
v 1.375 2.25 1.933
v 1.375 2.5 2
v 3.125 2 -1.5
v 1.375 2.75 1.933
v 1.375 2.933 1.75
v 1.375 3 1.5
v 1.5 2.5 1.25
v -0.375 2.067 -1.25
v 1.375 2.933 1.25
v -2.5 2.5 1.25
v -0.5 1.25 -0
v 3.5 1.25 -0
v -2.5 0 0.75
v -0.5 0 0.75
v -2.5 0.25 -0.75
v -0.5 0.25 -0.75
v -2.5 -0 -0.75
v -0.5 -0 -0.75
v 1.5 -0 -0.75
v 3.5 -0 -0.75
v 1.5 0.25 -0.75
v 3.5 0.25 -0.75
v 1.5 0.25 0.75
v 3.5 0.25 0.75
v -2.5 0.25 0.75
v -0.5 0.25 0.75
v 1.5 0 0.75
v 3.5 0 0.75
vt 0.2762 0.3365
vt 0.2952 0.2885
vt 0.2952 0.3462
vt 0.2762 0.1827
vt 0.2952 0.2308
vt 0.2762 0.2212
vt 0.3286 0.125
vt 0.3381 0.1587
vt 0.3286 0.1635
vt 0.3048 0.6923
vt 0.3238 0.6442
vt 0.3238 0.6827
vt 0.8571 0.6102
vt 0.8762 0.5436
vt 0.8762 0.6102
vt 0.3286 0.4135
vt 0.3381 0.4471
vt 0.3286 0.4519
vt 0.3048 0.4038
vt 0.3238 0.4519
vt 0.3048 0.4615
vt 0.3048 0.2885
vt 0.3238 0.3365
vt 0.3048 0.3462
vt 0.2952 0.6346
vt 0.2762 0.5865
vt 0.2952 0.5769
vt 0.2762 0.4712
vt 0.2952 0.5192
vt 0.2762 0.5096
vt 0.3238 0.3558
vt 0.3381 0.0144
vt 0.3286 0.0481
vt 0.3286 0.0096
vt 0.3381 0.3029
vt 0.3286 0.3365
vt 0.3286 0.2981
vt 0.2762 0.4519
vt 0.2952 0.4038
vt 0.2952 0.4615
vt 0.3048 0.1154
vt 0.3238 0.0673
vt 0.3238 0.1058
vt 0.2762 0.0673
vt 0.2952 0.1154
vt 0.2762 0.1058
vt 0.2762 0.2788
vt 0.3048 0.2308
vt 0.3238 0.2788
vt 0.2952 0.6923
vt 0.2762 0.6442
vt 0.2762 0.5673
vt 0.3238 0.4712
vt 0.3048 0.5192
vt 0.2952 0.0577
vt 0.2762 0.0096
vt 0.2952 0
vt 0.3048 0.5769
vt 0.3238 0.5288
vt 0.3238 0.5673
vt 0.3381 0.2452
vt 0.3286 0.2788
vt 0.3286 0.2404
vt 0.3286 0.4712
vt 0.3381 0.5048
vt 0.3286 0.5096
vt 0.3286 0.0673
vt 0.3381 0.101
vt 0.3286 0.1058
vt 0.3238 0.1635
vt 0.3048 0.1731
vt 0.3238 0.1827
vt 0.3238 0.625
vt 0.3048 0.6346
vt 0.3048 0.0577
vt 0.3238 0.0096
vt 0.3238 0.0481
vt 0.8857 0.2019
vt 0.8762 0.2692
vt 0.8762 0.2019
vt 0.3286 0.6442
vt 0.3381 0.6779
vt 0.3286 0.6827
vt 0.2762 0.3942
vt 0.3381 0.3606
vt 0.3286 0.3942
vt 0.3286 0.3558
vt 0.8451 0.5961
vt 0.8121 0.5961
vt 0.8286 0.5385
vt 0.3381 0.1875
vt 0.3286 0.2212
vt 0.3286 0.1827
vt 0.3429 0.4471
vt 0.3429 0.4183
vt 0.3714 0.4327
vt 0.3429 0.3894
vt 0.3429 0.3606
vt 0.3714 0.375
vt 0.3429 0.3317
vt 0.3429 0.3029
vt 0.3714 0.3173
vt 0.3429 0.274
vt 0.3429 0.2452
vt 0.3714 0.2596
vt 0.3429 0.2163
vt 0.3429 0.1875
vt 0.3714 0.2019
vt 0.3429 0.1587
vt 0.3429 0.1298
vt 0.3714 0.1442
vt 0.3429 0.101
vt 0.3429 0.0721
vt 0.3714 0.0865
vt 0.3429 0.0433
vt 0.3429 0.0144
vt 0.3714 0.0288
vt 0.3429 0.6779
vt 0.3429 0.649
vt 0.3714 0.6635
vt 0.3429 0.6202
vt 0.3429 0.5913
vt 0.3714 0.6058
vt 0.3429 0.5625
vt 0.3429 0.5337
vt 0.3714 0.5481
vt 0.3429 0.5048
vt 0.3429 0.476
vt 0.3714 0.4904
vt 0.7905 0.1538
vt 0.7714 0.0769
vt 0.7905 0.0769
vt 1 0.1154
vt 0.9905 0.1731
vt 0.9905 0.1154
vt 0.9905 0.3462
vt 0.9714 0.4038
vt 0.9714 0.3462
vt 0.9905 0.4615
vt 0.9714 0.5192
vt 0.9714 0.4615
vt 0.9905 0.2885
vt 0.9714 0.2885
vt 0.9619 0.3462
vt 0.9619 0.2885
vt 0.7333 0.0192
vt 0.6952 0
vt 0.7429 0
vt 0.9905 0.5192
vt 0.9714 0.5769
vt 0.8476 0.6923
vt 0.8619 0.6154
vt 0.8619 0.6923
vt 0.8762 0.6923
vt 0.8905 0.6154
vt 0.8905 0.6923
vt 0.6762 0.7308
vt 0.6476 0.8077
vt 0.6476 0.7308
vt 0.3238 0.2212
vt 0.9714 0.1154
vt 0.9619 0.1731
vt 0.9619 0.1154
vt 0.7714 0.1923
vt 0.7429 0.2308
vt 0.7333 0.2115
vt 1 0.2885
vt 0.3381 0.2163
vt 0.2476 0.2212
vt 0.3238 0.3942
vt 0.9619 0.5192
vt 0.9619 0.4615
vt 0.8762 0.6154
vt 0.7714 0.8846
vt 0.7429 0.9231
vt 0.7333 0.9038
vt 0.7333 0.7115
vt 0.6952 0.6923
vt 0.7429 0.6923
vt 0.7333 0.25
vt 0.6952 0.2308
vt 0.7714 0.6538
vt 0.7333 0.6731
vt 0.8095 0.8462
vt 0.7905 0.7692
vt 0.8095 0.7692
vt 0.9714 0.1731
vt 0.3238 0.2404
vt 0.9619 0.3558
vt 0.9619 0.3942
vt 0.9619 0.1827
vt 0.9714 0.2308
vt 0.9619 0.2212
vt 0.9619 0.5288
vt 0.9619 0.5673
vt 0.9714 0
vt 0.9619 0.0481
vt 0.9619 0.0096
vt 0.419 0.8077
vt 0.3905 0.7308
vt 0.419 0.7308
vt 0.8095 0.7115
vt 0.7905 0.6538
vt 0.8095 0.6538
vt 0.7143 0.6154
vt 0.6952 0.5385
vt 0.7143 0.5385
vt 0.4667 0.2692
vt 0.4952 0.1923
vt 0.4952 0.2692
vt 0.0952 0.6346
vt 0.1238 0.6538
vt 0.0952 0.6538
vt 1 0.0096
vt 0.9905 0.0577
vt 0.9905 -0
vt 0.8476 0.7115
vt 0.8286 0.6538
vt 0.8476 0.6538
vt 1 0.1827
vt 0.9905 0.2308
vt 0.2476 0.625
vt 0.2762 0.625
vt 1 0.3558
vt 0.9905 0.4038
vt 0.8571 0.4712
vt 0.8476 0.5385
vt 0.8476 0.4712
vt 0.9905 0.5769
vt 1 0.5288
vt 1 0.5673
vt 0.2952 0.1731
vt 0.2762 0.125
vt 0.9238 0.5769
vt 0.9333 0.5436
vt 0.9524 0.5436
vt 0.8476 0.5769
vt 0.8571 0.5436
vt 0.9212 0.5961
vt 0.8883 0.5961
vt 0.9048 0.5385
vt 1 0.4615
vt 0.2476 0.0481
vt 0.2762 0.0481
vt 0.8095 0.6154
vt 0.8286 0.6154
vt 0.2476 0.1058
vt 0.6 0.2692
vt 0.619 0.1923
vt 0.619 0.2692
vt 0.9048 0.6154
vt 0.9048 0.6923
vt 0.3714 0.8077
vt 0.3714 0.7308
vt 0.3381 0.5625
vt 0.5429 0.7308
vt 0.5238 0.8077
vt 0.5238 0.7308
vt 0.8095 0.1538
vt 0.8095 0.0769
vt 0.7143 0.1538
vt 0.6952 0.0769
vt 0.7143 0.0769
vt 0.8286 0.7115
vt 0.6952 0.1538
vt 0.6762 0.0769
vt 0.9333 0.4712
vt 0.9238 0.5385
vt 0.9238 0.4712
vt 0.9714 0.0577
vt 0.7905 0.8462
vt 0.7714 0.7692
vt 0.7429 0.1538
vt 0.7429 0.1923
vt 0.7143 0.7692
vt 0.7429 0.7308
vt 0.7429 0.7692
vt 0.2476 0.3942
vt 0.2762 0.3558
vt 0.9048 0.4712
vt 0.8952 0.5385
vt 0.8952 0.4712
vt 0.3238 0.2981
vt 0.4571 0.8846
vt 0.5048 0.8269
vt 0.4952 0.9038
vt 0.219 0.0192
vt 0.2476 0.0962
vt 0.219 0.0962
vt 0.6952 0.6154
vt 0.6762 0.5385
vt 0.7905 0.6154
vt 0.7714 0.5385
vt 0.7905 0.5385
vt 0.8095 0.5385
vt 0.2476 0.2788
vt 0.2762 0.2404
vt 0.7143 0.3077
vt 0.7429 0.2692
vt 0.7429 0.3077
vt 0.7429 0.6154
vt 0.7429 0.6538
vt 0.3381 0.274
vt 0.1238 0.0962
vt 0.1333 0.0192
vt 0.1333 0.0962
vt 0.0095 0.5577
vt -0 0.6346
vt 0 0.5577
vt 0.2476 0.6827
vt 0.2762 0.6827
vt 0.3048 0
vt 0.0381 0.0192
vt 0.0095 -0
vt 0.0381 0
vt 0.0667 0.5577
vt 0.0381 0.6346
vt 0.0381 0.5577
vt 0.4952 0.0962
vt 0.4476 0.1538
vt 0.4571 0.0769
vt 0.4476 0.0962
vt 1 0.2308
vt 0.9238 0.2019
vt 0.9143 0.2692
vt 0.9143 0.2019
vt 1 0.4038
vt 0.8952 0.2019
vt 0.8857 0.2692
vt 0.7714 0.7308
vt 0.5429 0.8462
vt 0.5429 0.9038
vt 0.5333 0.9231
vt 0.0667 0.25
vt 0.0381 0.3269
vt 0.0381 0.25
vt 0.7143 0.1923
vt 0.5429 0.5
vt 0.5714 0.5769
vt 0.5429 0.5769
vt 0.8476 0.2019
vt 0.8381 0.2692
vt 0.8381 0.2019
vt 0.5048 0.0192
vt 0.4667 -0
vt 0.7714 0.2692
vt 0.7143 0.8846
vt 0.6952 0.9231
vt 0.9429 0.2019
vt 0.9333 0.2692
vt 0.9333 0.2019
vt 0.5429 0.0385
vt 0.1238 0.25
vt 0.0952 0.3269
vt 0.0952 0.25
vt 0.5429 0.1923
vt 0.5714 0.2692
vt 0.5429 0.2692
vt 1 0.0577
vt 0.4667 0.8077
vt 0.4952 0.8077
vt 0.7143 0.6538
vt 0.9619 0.2019
vt 0.9524 0.2692
vt 0.9524 0.2019
vt 0.5238 1
vt 0.4952 1
vt 0.4857 0.9808
vt 0.9429 0.2692
vt 0.7143 0.8462
vt 0.7429 0.8846
vt 0.4476 0.5769
vt 0.4667 0.5
vt 0.4667 0.5769
vt 0.8286 0.2692
vt 0.8286 0.2019
vt 0.4476 0.9615
vt 0.4476 0.9038
vt 0.7429 0.0769
vt 0.7714 0.0385
vt 0.5429 0.0962
vt 0.5333 0.1154
vt 0.5238 0.1923
vt 0.4857 0.1731
vt 0.5714 0.5
vt 0.6 0.5769
vt 0.819 0.2692
vt 0.819 0.2019
vt 0.7429 0.0385
vt 0.419 0.6538
vt 0.3905 0.5769
vt 0.419 0.5769
vt 0.1238 0.0192
vt 0.0952 0
vt 0.1238 -0
vt 0.9238 0.3365
vt 0.9143 0.4038
vt 0.9143 0.3365
vt 0.9524 0.3365
vt 0.9429 0.4038
vt 0.9429 0.3365
vt 0.1333 0.3269
vt 0.1619 0.4038
vt 0.1333 0.4038
vt 0.8762 0.0673
vt 0.8667 0.1346
vt 0.8667 0.0673
vt 0.4667 0.7308
vt 0.4952 0.6538
vt 0.4952 0.7308
vt 0.5238 -0
vt 0.4952 0
vt 0.5429 0.1538
vt 0.4667 0.1923
vt 0.4476 0.0385
vt 0.5238 0.3462
vt 0.5238 0.2692
vt 0.7143 0.0385
vt 0.9048 0.4038
vt 0.9048 0.3365
vt 0.4667 1
vt 0.4476 0.8462
vt 0.5429 0.9615
vt 0.8857 0.0673
vt 0.8762 0.1346
vt 0.4476 0.7308
vt 0.4667 0.6538
vt 0.9619 0.2308
vt 0.8476 0.0673
vt 0.8381 0.1346
vt 0.8381 0.0673
vt 0.0667 0.0192
vt 0.0667 0
vt 0.0381 0.4038
vt 0.0095 0.4808
vt 0.0095 0.4038
vt 0.9429 0.0673
vt 0.9333 0.1346
vt 0.9333 0.0673
vt 0.4476 0.3462
vt 0.419 0.2692
vt 0.4476 0.2692
vt 0.6952 0.4615
vt 0.7143 0.4615
vt 0.4476 0.5
vt 0.419 0.4231
vt 0.4476 0.4231
vt 0.0667 0.3269
vt 0.1619 0.0192
vt 0.1905 0.0962
vt 0.1619 0.0962
vt 0.6952 0.3846
vt 0.7143 0.3846
vt 0.6476 0.4231
vt 0.619 0.5
vt 0.619 0.4231
vt 0.1238 0.4808
vt 0.1333 0.4808
vt 0.3714 0.6538
vt 0.3714 0.5769
vt 0.7143 0.7308
vt 0.7143 0.2692
vt 0.6762 0.4615
vt 0.1905 0.1731
vt 0.219 0.25
vt 0.1905 0.25
vt 0.6 0.4231
vt 0.619 0.3462
vt 0.9238 0.1346
vt 0.6952 0.3077
vt 0.1333 0.1731
vt 0.1619 0.25
vt 0.1333 0.25
vt 0.0952 0.1731
vt 0.0952 0.0962
vt 0.5238 0.6538
vt 0.0952 0.4038
vt 0.0667 0.4808
vt 0.0667 0.4038
vt 0.6476 0.5769
vt 0.619 0.6538
vt 0.619 0.5769
vt 0.8571 0.1346
vt 0.8571 0.0673
vt 0.5714 0.6538
vt 0.6 0.7308
vt 0.5714 0.7308
vt 0.0095 0.1731
vt 0 0.25
vt 0 0.1731
vt 0.8667 0.3365
vt 0.8571 0.4038
vt 0.8571 0.3365
vt 0.9619 0.3365
vt 0.9524 0.4038
vt 0.8286 0.3365
vt 0.819 0.4038
vt 0.819 0.3365
vt 1 0.0481
vt 0.3905 0.2692
vt 0.3714 0.3462
vt 0.3714 0.2692
vt 1 0.2212
vt 0.219 0.4808
vt 0.2476 0.5577
vt 0.219 0.5577
vt 1 0.3942
vt 0.8095 0.3846
vt 0.7905 0.3077
vt 0.8095 0.3077
vt 0.8857 0.5769
vt 0.8883 0.5577
vt 0.8952 0.5436
vt 0.9143 0.5436
vt 0.9212 0.5577
vt 0.9238 0.5769
vt 0.9143 0.6102
vt 0.9048 0.6154
vt 0.8952 0.6102
vt 0.9048 0.2692
vt 0.9048 0.2019
vt 0.9593 0.5577
vt 0.9619 0.5769
vt 0.9593 0.5961
vt 0.9524 0.6102
vt 0.9429 0.6154
vt 0.9333 0.6102
vt 0.9264 0.5961
vt 0.9264 0.5577
vt 0.9429 0.5385
vt 0.3286 0.5288
vt 0.3286 0.5673
vt 0.8095 0.2692
vt 0.8095 0.2019
vt 0.8832 0.5577
vt 0.8857 0.5769
vt 0.8832 0.5961
vt 0.8667 0.6154
vt 0.8502 0.5961
vt 0.8502 0.5577
vt 0.8667 0.5385
vt 0.8667 0.2692
vt 0.8667 0.2019
vt 0.8095 0.5769
vt 0.8121 0.5577
vt 0.8191 0.5436
vt 0.8381 0.5436
vt 0.8451 0.5577
vt 0.8476 0.5769
vt 0.8381 0.6102
vt 0.8286 0.6154
vt 0.8191 0.6102
vt 0.8571 0.2692
vt 0.8571 0.2019
vt 0.0095 0.0962
vt 0 0.0962
vt 0.1905 0.4808
vt 0.1905 0.5577
vt 0.8476 0.1346
vt 0.8476 0.3365
vt 0.8381 0.4038
vt 0.8381 0.3365
vt 0.9048 0.1346
vt 0.8952 0.1346
vt 0.7905 0
vt 0.8286 0.1346
vt 0.8286 0.0673
vt 0.5429 0.3462
vt 0.5714 0.4231
vt 0.5429 0.4231
vt 0.0667 0.0962
vt 0.0381 0.1731
vt 0.0381 0.0962
vt 0.0095 0.6346
vt 0 0.4808
vt 0 0.4038
vt 0.5429 0.6538
vt 0.819 0.1346
vt 0.819 0.0673
vt 0.4952 0.5
vt 0.4952 0.5769
vt 0.5238 0.5
vt 0.5238 0.5769
vt 0.4476 0.8077
vt 0.9619 0.0577
vt 0.219 0.4038
vt 0.2476 0.4808
vt 0.9619 0.4038
vt 0.7905 0.6923
vt 0.7905 0.2308
vt 0.6762 0.3846
vt 0.1619 0.3269
vt 0.1905 0.4038
vt 0.619 0.8077
vt 0.619 0.7308
vt 0.8857 0.4038
vt 0.8762 0.4712
vt 0.8762 0.4038
vt 0.4667 0.4231
vt 0.4952 0.3462
vt 0.4952 0.4231
vt 0.6762 0.5769
vt 0.6476 0.6538
vt 0.9333 0
vt 0.9238 0.0673
vt 0.9238 0
vt 0.8762 0.3365
vt 0.9333 0.3365
vt 0.9238 0.4038
vt 0.8476 0.4038
vt 0.1905 0.0192
vt 0.7714 0.4615
vt 0.7905 0.4615
vt 0.219 0.1731
vt 0.2476 0.25
vt 0.8952 0.4038
vt 0.8952 0.3365
vt 0.0667 0.6346
vt 0.0667 0.6538
vt 0.5238 0.4231
vt 0.9619 0.0673
vt 0.9524 0.1346
vt 0.9524 0.0673
vt 0.0095 0.3269
vt 0.0095 0.25
vt 0.6476 0.2692
vt 0.1619 0.1731
vt 0.9143 0.1346
vt 0.9143 0.0673
vt 0.6762 0.3077
vt 0.4476 0.6538
vt 0.8095 0.1346
vt 0.8095 0.0673
vt 0.1619 0.4808
vt 0.1619 0.5577
vt 0.0952 0.5577
vt 0.1238 0.4038
vt 0.0952 0.4808
vt 0.1333 0.5577
vt 0.9048 0.0673
vt 0.8095 0.4615
vt 0.8667 0.4038
vt 0.9333 0.4038
vt 0.5714 0.3462
vt 0.2476 0.1635
vt 0.2762 0.1635
vt 0.1238 0.5577
vt 0.3286 0.5865
vt 0.3381 0.6202
vt 0.3286 0.625
vt 0.2476 0.3365
vt 0.2762 0.2981
vt 0.2762 0.4135
vt 0.2476 0.4519
vt 0.2476 0.4135
vt 0.6952 0.8462
vt 0.6762 0.7692
vt 0.6952 0.7692
vt 0.8381 0.4712
vt 0.8286 0.5385
vt 0.8286 0.4712
vt 0.5714 0.1923
vt 0.2476 0.5096
vt 0.2476 0.5673
vt 0.2762 0.5288
vt 0.3238 0.4135
vt 0.3381 0.3894
vt 0.3381 0.0433
vt 0.3238 0.125
vt 0.8381 0.5385
vt 0.3238 0.5865
vt 0.3381 0.3317
vt 0.7429 0.8462
vt 0.9619 0.4712
vt 0.9524 0.5385
vt 0.9524 0.4712
vt 0.9429 0.5385
vt 0.9429 0.4712
vt 0.819 0.5385
vt 0.819 0.4712
vt 0.8667 0.4712
vt 0.8571 0.5385
vt 0.9143 0.4712
vt 0.9048 0.5385
vt 0.8857 0.5385
vt 0.8857 0.4712
vt 0.9333 0.5385
vt 0.9143 0.5385
vt 0.3238 0.5096
vt 0.8667 0.5385
vt 0.8095 0.5385
vt 0.8095 0.4712
vt 0.7905 0.3846
vt 0.7714 0.3077
vt 0.8095 0.4038
vt 0.8095 0.3365
vt 0.8857 0.3365
vt 0.0952 0.0192
vt 0.4667 0.3462
vt 0.8952 0.0673
vt 0.0381 0.6538
vt 0.0095 0.6538
vt 0.419 0.3462
vt 0.1905 0.3269
vt 0.6762 0.2692
vt 0.6476 0.3462
vt 0.8286 0.4038
vt 0.7714 0.3846
vt 0.3905 0.3462
vt 0.3714 0.4231
vt 0.6762 0.4231
vt 0.6476 0.5
vt 0.9429 0.1346
vt 0.0667 0.1731
vt 0.419 0.5
vt 0.3905 0.4231
vt 0.8857 0.1346
vt 0.0381 0.4808
vt 0.3714 0.5
vt 0.8476 0.2692
vt 0.8952 0.2692
vt 0.219 0.3269
vt 0.2476 0.4038
vt 0 0.3269
vt 0.9238 0.2692
vt 0.6 0.6538
vt 0.8762 0.5385
vt 0.8952 0
vt 0.8857 0
vt 0.9524 0
vt 0.9429 0
vt 0.6762 0.3462
vt 0.6762 0.1923
vt 0.6476 0.1923
vt 0.1238 0.6346
vt 0.1333 0.6346
vt 0.3905 0.1923
vt 0.419 0.1923
vt 0.9048 0
vt 0.6 0.8077
vt 0.9619 0.4038
vt 0.6 0.3462
vt 0.6 0.5
vt 0.9143 0
vt 0.1619 0.6346
vt 0.1238 0.3269
vt 0.1905 0.6346
vt 0.819 0
vt 0.8095 0
vt 0.9619 0
vt 0.2476 0.3269
vt 0.6762 0.5
vt 0.8286 0
vt 0.5714 0.8077
vt 0.5429 0.8077
vt 0.0095 0.0192
vt 0.8381 0
vt 0.8571 0
vt 0.8476 0
vt 0.219 0.6346
vt -0 0.0192
vt 0.2476 0.6346
vt 0.3714 0.1923
vt 0.9619 0.2692
vt 0.8667 0
vt 0.3905 0.5
vt 0.4476 0.1923
vt 0.8762 0
vt 0.9619 0.1346
vt 0.1238 0.1731
vt 0.2476 0.1731
vt 0.3905 0.6538
vt 0.6762 0.6538
vt 0.3381 0.1298
vt 0.3381 0.4183
vt 0.3381 0.476
vt 0.3381 0.0721
vt 0.3381 0.649
vt 0.7714 0.1538
vt 1 0.1731
vt 0.8476 0.6154
vt 0.6762 0.8077
vt 1 0.3462
vt 0.2476 0.1827
vt 0.7905 0.9231
vt 0.3905 0.8077
vt 0.7905 0.7115
vt 0.2476 0.5865
vt 1 0.5192
vt 0.2476 0.0096
vt 0.2476 0.0673
vt 0.6 0.1923
vt 0.3381 0.5337
vt 0.6762 0.1538
vt 0.7714 0.8462
vt 0.2476 0.3558
vt 0.2476 0.0192
vt 0.6762 0.6154
vt 0.7714 0.6154
vt 0.2476 0.2404
vt 0.2476 0.6442
vt 0.2476 0.125
vt 0.3381 0.5913
vt 0.2476 0.2981
vt 0.6762 0.8462
vt 0.2476 0.4712
vt 0.2476 0.5288
vt 0.9619 0.5385
s 1
f 33/1 17/2 16/3
f 30/4 18/5 31/6
f 80/7 91/8 79/9
f 10/10 59/11 58/12
f 231/13 219/14 235/15
f 75/16 85/17 73/18
f 3/19 50/20 2/21
f 5/22 52/23 4/24
f 23/25 25/26 24/27
f 35/28 14/29 36/30
f 52/31 3/19 4/24
f 94/32 81/33 82/34
f 89/35 76/36 77/37
f 35/38 15/39 13/40
f 8/41 57/42 56/43
f 28/44 20/45 29/46
f 32/47 18/5 17/2
f 6/48 53/49 5/22
f 22/50 26/51 23/25
f 25/52 14/29 24/27
f 50/53 1/54 2/21
f 21/55 27/56 22/57
f 12/58 49/59 60/60
f 90/61 77/62 78/63
f 73/64 86/65 74/66
f 81/67 92/68 80/69
f 8/41 55/70 7/71
f 55/72 6/48 7/71
f 12/58 59/73 11/74
f 9/75 58/76 57/77
f 778/78 523/79 775/80
f 83/81 94/82 82/83
f 34/84 16/3 15/39
f 88/85 75/86 76/87
f 228/88 236/89 220/90
f 91/91 78/92 79/93
f 62/94 63/95 97/96
f 63/97 64/98 97/99
f 64/100 65/101 97/102
f 65/103 66/104 97/105
f 66/106 67/107 97/108
f 67/109 68/110 97/111
f 68/112 69/113 97/114
f 69/115 70/116 97/117
f 70/118 71/119 97/120
f 71/121 72/122 97/123
f 72/124 61/125 97/126
f 61/127 62/128 97/129
f 106/130 112/131 107/132
f 24/27 1/54 12/58
f 505/133 383/134 473/135
f 177/136 171/137 169/138
f 475/139 378/140 471/141
f 447/142 169/138 443/143
f 443/143 164/144 441/145
f 23/25 12/58 11/74
f 408/146 110/147 409/148
f 18/5 7/71 6/48
f 322/149 317/150 314/140
f 252/151 246/152 250/153
f 251/154 249/155 253/156
f 710/157 419/158 708/159
f 79/93 54/160 55/72
f 268/151 262/152 266/153
f 445/161 160/162 440/163
f 106/164 420/165 421/166
f 503/167 353/136 465/142
f 457/139 314/140 453/141
f 90/168 67/107 66/106
f 94/82 71/119 70/118
f 267/154 265/155 269/156
f 43/169 30/4 31/6
f 76/87 51/170 52/31
f 453/141 306/171 451/172
f 282/153 279/173 283/154
f 456/142 313/138 452/143
f 448/139 170/140 444/141
f 500/167 321/136 456/142
f 145/174 426/175 427/176
f 428/177 141/178 429/179
f 430/180 150/181 431/165
f 146/182 432/179 433/183
f 461/143 340/144 459/145
f 462/141 338/171 460/172
f 136/184 144/185 140/186
f 455/135 311/187 454/161
f 353/136 347/137 345/138
f 502/133 351/134 464/135
f 78/63 53/49 54/188
f 470/143 372/144 468/145
f 474/142 377/138 470/143
f 164/189 171/137 165/190
f 160/191 168/192 161/193
f 162/194 173/150 163/195
f 172/196 159/197 158/198
f 383/134 376/192 375/187
f 479/199 734/200 779/201
f 276/202 270/203 272/204
f 156/205 567/206 593/207
f 654/208 411/209 668/210
f 536/211 100/212 547/213
f 178/149 173/150 170/140
f 182/214 174/215 180/216
f 243/217 241/218 239/219
f 184/220 176/221 175/134
f 38/222 25/26 26/223
f 188/224 179/225 177/136
f 751/226 226/227 721/228
f 181/229 186/230 187/231
f 19/232 29/233 20/45
f 200/234 204/235 208/236
f 227/237 223/238 219/14
f 199/239 191/240 207/241
f 498/242 178/149 448/139
f 497/167 177/136 447/142
f 14/29 2/21 1/54
f 446/135 167/187 445/161
f 292/202 286/203 288/204
f 40/243 27/56 28/244
f 175/134 168/192 167/187
f 257/218 254/245 255/246
f 466/139 346/140 462/141
f 41/247 28/44 29/46
f 651/248 126/249 652/250
f 266/153 263/173 267/154
f 354/149 349/150 346/140
f 285/156 280/251 284/252
f 504/242 354/149 466/139
f 273/218 270/245 271/246
f 734/200 114/253 710/254
f 96/255 61/125 72/124
f 728/256 120/257 713/258
f 131/259 107/132 111/260
f 283/154 281/155 285/156
f 132/261 108/262 113/263
f 293/264 288/204 289/218
f 289/218 286/245 287/246
f 109/265 110/266 108/262
f 693/267 213/268 694/269
f 324/216 310/270 316/196
f 145/271 139/272 144/185
f 488/273 106/164 422/274
f 298/153 295/173 299/154
f 452/143 308/144 450/145
f 454/161 304/162 449/163
f 138/275 424/276 490/277
f 46/278 33/279 34/84
f 688/280 195/281 689/282
f 308/189 315/137 309/190
f 304/191 312/192 305/193
f 306/194 317/150 307/195
f 316/196 303/197 302/198
f 82/34 57/77 58/76
f 77/37 52/23 53/283
f 486/284 412/285 530/286
f 465/142 345/138 461/143
f 541/287 644/288 797/289
f 319/134 312/192 311/187
f 250/153 247/173 251/154
f 326/214 318/215 324/216
f 356/216 342/270 348/196
f 328/220 320/221 319/134
f 499/133 319/134 455/135
f 332/224 323/225 321/136
f 149/290 566/291 567/206
f 325/229 330/230 331/231
f 146/292 565/293 546/294
f 473/135 375/187 472/161
f 155/245 546/294 592/295
f 340/189 347/137 341/190
f 336/191 344/192 337/193
f 338/194 349/150 339/195
f 348/196 335/197 334/198
f 463/161 336/162 458/163
f 501/242 322/149 457/139
f 321/136 315/137 313/138
f 44/296 31/297 32/47
f 275/217 273/218 271/219
f 153/298 439/299 495/300
f 386/149 381/150 378/140
f 358/214 350/215 356/216
f 494/301 146/182 438/302
f 360/220 352/221 351/134
f 464/135 343/187 463/161
f 364/224 355/225 353/136
f 89/303 66/104 65/103
f 357/229 362/230 363/231
f 672/304 101/305 646/306
f 472/161 368/162 467/163
f 748/307 98/308 747/309
f 372/189 379/137 373/190
f 368/191 376/192 369/193
f 370/194 381/150 371/195
f 380/196 367/197 366/198
f 180/216 166/270 172/196
f 39/310 26/51 27/311
f 444/141 162/171 442/172
f 388/216 374/270 380/196
f 471/141 370/171 469/172
f 269/156 264/251 268/252
f 351/134 344/192 343/187
f 390/214 382/215 388/216
f 9/75 22/57 10/312
f 392/220 384/221 383/134
f 604/313 99/314 541/315
f 396/224 387/225 385/136
f 22/50 11/74 10/10
f 389/229 394/230 395/231
f 647/316 550/317 794/318
f 527/319 125/320 407/321
f 125/320 404/322 407/321
f 393/323 474/142 384/221
f 681/324 508/325 667/326
f 397/327 475/139 387/225
f 684/328 511/329 686/78
f 144/330 424/276 428/177
f 121/331 414/332 413/333
f 658/334 553/335 792/336
f 109/337 421/166 130/181
f 487/338 742/339 656/340
f 771/341 519/342 770/343
f 480/344 407/321 123/345
f 147/346 439/299 430/180
f 142/347 427/176 137/348
f 661/349 514/350 663/351
f 127/352 527/319 480/344
f 744/353 585/354 790/355
f 128/356 729/357 674/358
f 183/359 446/135 174/215
f 117/360 484/361 412/285
f 149/362 433/183 154/178
f 677/363 512/364 700/365
f 119/366 419/367 485/368
f 700/365 513/369 661/349
f 135/370 425/371 142/347
f 655/372 418/373 642/374
f 770/343 518/375 769/376
f 115/377 479/378 486/284
f 489/379 107/380 112/131
f 127/352 483/381 482/382
f 129/383 411/209 406/384
f 526/385 643/386 742/339
f 769/376 517/387 768/388
f 107/380 423/389 408/146
f 627/390 662/391 707/392
f 105/393 551/394 101/395
f 766/396 607/397 759/398
f 763/399 612/400 764/401
f 403/402 787/403 640/404
f 703/405 622/406 702/407
f 714/408 577/409 738/410
f 126/411 480/344 481/412
f 128/413 482/382 483/381
f 124/414 406/384 411/209
f 122/415 407/321 404/322
f 674/358 557/416 650/417
f 108/418 408/146 423/389
f 759/398 608/419 760/420
f 114/421 485/368 419/367
f 116/422 486/284 479/378
f 120/257 412/285 484/361
f 118/423 413/333 414/332
f 706/424 623/425 703/405
f 727/426 540/427 714/408
f 168/192 441/145 161/428
f 699/429 618/430 698/431
f 476/432 541/315 402/433
f 795/434 595/435 676/436
f 733/437 574/438 735/439
f 421/166 422/274 106/164
f 590/440 704/441 673/442
f 593/207 437/443 493/444
f 478/445 776/446 745/447
f 668/210 129/383 650/417
f 359/359 464/135 350/215
f 528/448 795/434 553/335
f 154/178 433/183 432/179
f 551/449 741/450 789/451
f 493/444 544/452 582/453
f 709/454 416/455 724/456
f 605/457 640/404 538/458
f 662/391 534/459 638/460
f 427/176 425/371 145/174
f 143/461 428/177 424/276
f 148/462 430/180 439/299
f 433/183 438/302 146/182
f 567/206 436/463 437/443
f 584/464 796/465 669/466
f 723/467 559/468 724/456
f 574/438 681/324 600/469
f 582/453 148/470 153/298
f 552/471 788/472 718/473
f 672/304 634/474 791/475
f 738/410 539/476 713/258
f 785/477 554/478 719/479
f 164/189 169/138 171/137
f 160/191 167/187 168/192
f 162/194 170/140 173/150
f 172/196 166/270 159/197
f 780/480 537/481 639/482
f 702/407 621/483 701/484
f 586/485 715/486 670/487
f 549/488 716/489 548/490
f 665/491 598/492 679/493
f 777/494 611/495 763/399
f 682/496 575/497 664/498
f 182/214 183/499 174/215
f 648/500 560/501 653/502
f 184/220 185/503 176/221
f 630/504 747/505 782/506
f 188/224 189/507 179/225
f 583/508 147/509 151/510
f 181/229 178/149 186/230
f 191/240 213/511 211/512
f 211/512 209/513 191/240
f 209/513 207/241 191/240
f 207/241 205/514 199/239
f 205/514 203/515 199/239
f 203/515 201/516 199/239
f 199/239 197/517 195/518
f 195/518 193/519 191/240
f 667/326 509/520 683/521
f 208/236 210/522 212/523
f 212/523 190/524 208/236
f 190/524 192/525 208/236
f 192/525 194/526 196/527
f 196/527 198/528 200/234
f 200/234 202/529 204/235
f 204/235 206/530 208/236
f 74/531 96/255 84/532
f 768/388 516/533 767/534
f 219/14 217/535 215/536
f 215/536 237/537 219/14
f 237/537 235/15 219/14
f 235/15 233/538 231/13
f 231/13 229/539 227/237
f 227/237 225/540 223/238
f 223/238 221/541 219/14
f 196/527 208/236 192/525
f 775/80 522/542 774/543
f 236/89 214/544 216/545
f 216/545 218/546 236/89
f 218/546 220/90 236/89
f 220/90 222/547 228/88
f 222/547 224/548 228/88
f 224/548 226/549 228/88
f 228/88 230/550 232/551
f 232/551 234/552 236/89
f 774/543 521/553 773/554
f 645/555 548/490 644/556
f 587/557 782/506 671/558
f 701/484 619/559 699/429
f 649/560 597/561 678/562
f 602/563 684/328 603/564
f 107/380 409/148 111/565
f 698/431 617/566 697/567
f 790/355 528/448 658/334
f 591/568 657/569 746/570
f 361/323 465/142 352/221
f 176/221 443/143 168/192
f 730/571 635/572 793/573
f 793/573 549/488 645/555
f 376/192 468/145 369/428
f 794/318 103/574 748/307
f 744/353 552/471 718/473
f 676/436 594/575 675/576
f 185/323 447/142 176/221
f 563/577 670/487 728/256
f 697/567 616/578 696/579
f 642/374 531/580 666/581
f 666/581 410/582 641/583
f 115/377 530/286 485/368
f 384/221 470/143 376/192
f 116/584 779/201 727/426
f 485/368 413/333 119/366
f 310/270 449/163 303/585
f 783/586 594/587 630/504
f 318/215 454/161 310/270
f 347/137 460/172 341/588
f 327/359 455/135 318/215
f 144/330 429/179 140/589
f 147/346 431/165 151/590
f 437/443 545/591 544/452
f 579/592 743/593 787/403
f 308/189 313/138 315/137
f 304/191 311/187 312/192
f 306/194 314/140 317/150
f 316/196 310/270 303/197
f 490/277 144/330 139/272
f 708/159 119/594 711/595
f 599/596 731/597 570/598
f 726/599 581/600 740/601
f 638/602 628/603 780/480
f 210/604 753/605 212/606
f 525/329 659/607 523/79
f 326/214 327/499 318/215
f 765/608 614/609 766/396
f 328/220 329/503 320/221
f 656/340 539/476 641/583
f 332/224 333/507 323/225
f 679/493 556/610 649/560
f 325/229 322/149 330/230
f 402/611 797/289 741/450
f 546/294 435/612 434/613
f 637/614 716/615 796/465
f 340/189 345/138 347/137
f 336/191 343/187 344/192
f 338/194 346/140 349/150
f 348/196 342/270 335/197
f 760/420 609/616 761/617
f 401/618 547/213 398/619
f 591/568 722/620 557/416
f 749/621 620/622 772/623
f 792/336 400/624 717/625
f 101/305 789/451 646/306
f 781/626 559/468 652/250
f 358/214 359/499 350/215
f 633/627 669/466 788/472
f 360/220 361/503 352/221
f 740/601 557/416 722/620
f 364/224 365/507 355/225
f 753/605 578/628 739/629
f 357/229 354/149 362/230
f 544/452 150/630 148/470
f 562/631 707/392 655/372
f 696/579 615/632 695/633
f 372/189 377/138 379/137
f 368/191 375/187 376/192
f 370/194 378/140 381/150
f 380/196 374/270 367/197
f 632/634 671/558 786/635
f 784/636 401/618 647/316
f 685/637 631/638 785/477
f 538/458 786/635 712/639
f 739/629 602/563 755/640
f 592/295 434/613 492/641
f 621/483 771/341 619/559
f 390/214 391/499 382/215
f 659/607 576/642 665/491
f 392/220 393/503 384/221
f 765/608 612/400 613/643
f 396/224 397/507 387/225
f 568/644 723/467 657/569
f 389/229 386/149 394/230
f 2/21 15/39 3/19
f 42/645 29/233 30/646
f 3/19 16/3 4/24
f 757/647 536/211 784/636
f 506/167 385/136 474/142
f 4/24 17/2 5/22
f 244/202 238/203 240/204
f 496/133 175/134 446/135
f 84/648 95/649 83/650
f 45/651 32/652 33/1
f 482/382 406/384 527/319
f 19/232 8/41 7/71
f 241/218 238/245 239/246
f 245/264 240/204 241/218
f 8/41 21/55 9/75
f 507/242 386/149 475/139
f 34/653 47/654 46/655
f 385/136 379/137 377/138
f 142/656 141/657 143/658
f 750/659 222/660 754/661
f 259/217 257/218 255/219
f 483/662 651/248 729/357
f 91/8 68/110 67/109
f 261/264 256/204 257/218
f 74/531 60/60 49/59
f 253/156 248/251 252/252
f 95/649 72/122 71/121
f 92/68 69/113 68/112
f 48/663 35/28 36/30
f 37/664 36/665 25/52
f 135/370 143/658 138/275
f 299/154 297/155 301/156
f 75/16 50/20 51/666
f 260/202 254/203 256/204
f 81/67 56/43 57/42
f 83/81 58/12 59/11
f 301/156 296/251 300/252
f 673/442 124/414 654/208
f 277/264 272/204 273/218
f 87/667 64/98 63/97
f 93/668 70/116 69/115
f 80/7 55/70 56/669
f 721/228 224/670 750/659
f 85/17 63/95 62/94
f 86/65 62/128 61/127
f 84/648 59/73 60/671
f 291/217 289/218 287/219
f 284/151 278/152 282/153
f 88/672 65/101 64/100
f 491/673 145/174 425/371
f 300/151 294/152 298/153
f 705/674 207/675 691/676
f 691/676 209/677 692/678
f 754/661 220/679 736/680
f 737/681 228/682 751/226
f 687/683 193/684 688/280
f 689/282 197/685 690/686
f 5/22 18/5 6/48
f 692/678 211/687 693/267
f 694/269 191/688 687/683
f 73/64 49/689 50/53
f 731/597 230/690 737/681
f 736/680 218/691 732/692
f 113/263 423/389 489/379
f 171/137 442/172 165/588
f 564/693 152/694 147/509
f 379/137 469/172 373/588
f 664/498 571/695 660/696
f 761/617 610/596 762/697
f 588/698 402/433 551/394
f 745/447 561/699 726/599
f 715/486 537/481 711/595
f 123/345 481/412 480/344
f 755/640 603/564 756/700
f 103/574 543/701 98/702
f 624/703 648/500 704/441
f 757/647 538/458 712/639
f 529/704 783/586 743/593
f 653/705 629/706 781/626
f 678/562 601/707 682/496
f 434/613 535/708 564/693
f 555/709 725/710 560/501
f 725/711 533/712 709/454
f 382/215 472/161 374/270
f 387/225 471/141 379/137
f 772/623 572/713 733/437
f 323/225 453/141 315/137
f 130/181 421/166 420/165
f 320/221 452/143 312/192
f 791/475 569/714 730/571
f 179/225 444/141 171/137
f 315/137 451/172 309/588
f 166/270 440/163 159/585
f 391/359 473/135 382/215
f 532/715 720/716 776/446
f 344/192 459/145 337/428
f 355/225 462/141 347/137
f 756/700 606/717 758/424
f 643/386 416/455 639/482
f 174/215 445/161 166/270
f 137/348 427/176 426/175
f 719/479 636/718 795/434
f 189/327 448/139 179/225
f 720/716 417/719 725/710
f 773/554 520/720 771/341
f 550/317 398/619 543/701
f 746/570 410/582 722/620
f 365/327 466/139 355/225
f 329/323 456/142 320/221
f 680/697 570/598 659/607
f 312/192 450/145 305/428
f 683/521 510/721 684/328
f 132/261 422/274 109/337
f 352/221 461/143 344/192
f 580/722 675/723 783/586
f 350/215 463/161 342/270
f 685/637 403/402 640/404
f 374/270 467/163 367/585
f 342/270 458/163 335/585
f 530/286 121/331 413/333
f 156/205 438/302 149/362
f 717/625 399/724 716/489
f 492/641 564/693 583/508
f 663/351 515/725 681/324
f 735/439 600/469 753/605
f 333/327 457/139 323/225
f 495/300 147/346 152/694
f 542/726 639/482 537/481
f 752/686 232/727 731/597
f 194/728 758/424 196/729
f 776/446 555/709 624/703
f 588/698 730/571 476/432
f 206/730 733/437 208/731
f 560/732 709/454 629/706
f 519/342 682/496 518/375
f 123/733 781/626 481/734
f 743/593 630/504 587/557
f 102/735 712/639 100/736
f 704/441 122/737 404/738
f 192/739 756/700 194/728
f 118/740 711/595 119/594
f 478/445 726/599 418/373
f 510/721 762/697 511/329
f 517/387 660/696 516/533
f 575/497 732/692 571/695
f 570/598 737/681 576/642
f 614/609 687/683 607/397
f 612/400 693/267 613/643
f 609/616 690/686 610/596
f 607/397 688/280 608/419
f 576/642 751/226 598/492
f 601/707 736/680 575/497
f 611/495 692/678 612/400
f 625/741 691/676 611/495
f 556/610 750/659 597/561
f 590/440 654/208 561/699
f 729/357 558/742 568/644
f 597/561 754/661 601/707
f 605/457 784/636 631/638
f 657/569 415/743 526/385
f 513/369 765/608 514/350
f 523/79 665/491 522/542
f 190/744 755/640 192/739
f 712/639 547/745 100/736
f 477/746 785/477 585/354
f 631/638 647/316 554/478
f 786/635 398/747 547/745
f 221/748 695/633 219/749
f 655/372 532/715 478/445
f 212/606 739/629 190/744
f 531/580 722/620 410/582
f 788/472 529/704 579/592
f 481/734 652/250 126/249
f 646/306 633/627 552/471
f 635/572 717/625 549/488
f 204/750 772/623 206/730
f 509/520 761/617 510/721
f 796/465 399/751 580/722
f 741/450 637/614 584/464
f 521/553 649/560 520/720
f 487/338 641/583 410/582
f 514/350 766/396 515/725
f 417/752 780/480 533/712
f 418/373 740/601 531/580
f 628/603 711/595 537/481
f 787/403 587/557 632/634
f 727/426 627/390 562/631
f 577/409 641/583 539/476
f 540/427 666/581 577/409
f 223/753 696/579 221/748
f 728/256 414/754 121/755
f 400/624 675/576 399/724
f 477/746 718/473 403/402
f 636/718 748/307 595/435
f 604/313 645/555 104/756
f 476/432 793/573 604/313
f 746/570 526/385 487/338
f 634/474 658/334 569/714
f 225/757 697/567 223/753
f 520/720 678/562 519/342
f 229/758 699/429 227/759
f 671/558 543/760 398/747
f 104/756 644/556 99/761
f 622/406 773/554 621/483
f 623/425 774/543 622/406
f 615/632 768/388 767/534
f 578/628 683/521 602/563
f 782/506 98/762 543/760
f 122/737 653/502 123/763
f 518/375 664/498 517/387
f 524/764 763/399 512/364
f 522/542 679/493 521/553
f 670/487 118/740 414/754
f 231/765 701/484 229/758
f 533/712 639/482 416/455
f 585/354 719/479 528/448
f 484/361 713/258 120/257
f 105/393 791/475 588/698
f 718/473 579/592 403/402
f 415/743 724/456 416/455
f 669/466 580/722 529/704
f 405/766 638/460 417/719
f 629/706 724/456 559/468
f 789/451 584/464 633/627
f 581/600 650/417 557/416
f 745/447 624/703 590/440
f 673/442 404/738 125/767
f 208/731 735/439 210/604
f 553/335 676/436 400/624
f 227/759 698/431 225/757
f 116/584 714/408 117/360
f 235/729 703/405 233/768
f 508/325 760/420 509/520
f 128/356 650/417 129/383
f 117/360 738/410 484/361
f 233/768 702/407 231/765
f 640/404 632/634 538/458
f 512/364 764/401 513/369
f 515/725 759/398 508/325
f 707/392 405/766 532/715
f 617/566 768/388 616/578
f 742/339 542/726 586/485
f 618/430 769/376 617/566
f 562/631 642/374 540/427
f 620/622 661/349 572/713
f 596/769 700/365 620/622
f 674/358 568/644 591/568
f 589/770 790/355 634/474
f 574/438 661/349 663/351
f 619/559 770/343 618/430
f 656/340 586/485 563/577
f 569/714 792/336 635/572
f 603/564 686/78 606/717
f 600/469 667/326 578/628
f 554/478 794/318 636/718
f 595/435 747/309 594/575
f 589/770 646/306 552/471
f 797/289 548/771 637/614
f 608/419 689/282 609/616
f 613/643 694/269 614/609
f 563/577 713/258 539/476
f 573/772 710/254 534/459
f 558/742 652/250 559/468
f 598/492 721/228 556/610
f 561/699 668/210 581/600
f 779/201 573/772 627/390
f 534/773 708/159 628/603
f 626/717 775/80 623/425
f 33/1 32/652 17/2
f 30/4 19/232 18/5
f 80/7 92/774 91/8
f 10/10 11/74 59/11
f 231/13 227/237 219/14
f 75/16 87/775 85/17
f 3/19 51/666 50/20
f 5/22 53/283 52/23
f 23/25 26/223 25/26
f 35/28 13/40 14/29
f 52/31 51/170 3/19
f 94/32 93/668 81/33
f 89/35 88/672 76/36
f 35/38 34/653 15/39
f 8/41 9/75 57/42
f 28/44 21/55 20/45
f 32/47 31/297 18/5
f 6/48 54/188 53/49
f 22/50 27/311 26/51
f 25/52 36/665 14/29
f 50/53 49/689 1/54
f 21/55 28/244 27/56
f 12/58 1/54 49/59
f 90/61 89/303 77/62
f 73/64 85/776 86/65
f 81/67 93/777 92/68
f 8/41 56/669 55/70
f 55/72 54/160 6/48
f 12/58 60/671 59/73
f 9/75 10/312 58/76
f 778/78 525/329 523/79
f 83/81 95/778 94/82
f 34/84 33/279 16/3
f 88/85 87/667 75/86
f 228/88 232/551 236/89
f 91/91 90/168 78/92
f 106/130 133/779 112/131
f 24/27 14/29 1/54
f 505/133 392/780 383/134
f 177/136 179/225 171/137
f 475/139 386/149 378/140
f 447/142 177/136 169/138
f 443/143 169/138 164/144
f 23/25 24/27 12/58
f 18/5 19/232 7/71
f 322/149 325/229 317/150
f 252/151 248/781 246/152
f 251/154 247/173 249/155
f 710/157 114/782 419/158
f 79/93 78/92 54/160
f 268/151 264/781 262/152
f 445/161 167/187 160/162
f 106/164 131/590 420/165
f 503/167 364/783 353/136
f 457/139 322/149 314/140
f 90/168 91/91 67/107
f 94/82 95/778 71/119
f 267/154 263/173 265/155
f 43/169 42/784 30/4
f 76/87 75/86 51/170
f 453/141 314/140 306/171
f 282/153 278/152 279/173
f 456/142 321/136 313/138
f 448/139 178/149 170/140
f 500/167 332/783 321/136
f 145/174 136/785 426/175
f 146/182 155/589 432/179
f 461/143 345/138 340/144
f 462/141 346/140 338/171
f 136/184 145/271 144/185
f 455/135 319/134 311/187
f 353/136 355/225 347/137
f 502/133 360/780 351/134
f 78/63 77/62 53/49
f 470/143 377/138 372/144
f 474/142 385/136 377/138
f 383/134 384/221 376/192
f 479/199 115/786 734/200
f 276/202 274/787 270/203
f 156/205 149/290 567/206
f 654/208 124/414 411/209
f 536/211 102/735 100/212
f 178/149 181/229 173/150
f 243/217 245/264 241/218
f 38/222 37/788 25/26
f 751/226 228/682 226/227
f 19/232 30/646 29/233
f 199/239 195/518 191/240
f 498/242 186/789 178/149
f 497/167 188/783 177/136
f 14/29 13/40 2/21
f 446/135 175/134 167/187
f 292/202 290/787 286/203
f 40/243 39/790 27/56
f 175/134 176/221 168/192
f 257/218 256/204 254/245
f 466/139 354/149 346/140
f 41/247 40/791 28/44
f 651/248 127/792 126/249
f 266/153 262/152 263/173
f 354/149 357/229 349/150
f 285/156 281/155 280/251
f 504/242 362/789 354/149
f 273/218 272/204 270/245
f 734/200 115/786 114/253
f 96/255 86/793 61/125
f 728/256 121/755 120/257
f 131/259 106/130 107/132
f 283/154 279/173 281/155
f 132/261 109/265 108/262
f 293/264 292/202 288/204
f 289/218 288/204 286/245
f 109/265 130/794 110/266
f 693/267 211/687 213/268
f 324/216 318/215 310/270
f 145/271 134/795 139/272
f 488/273 133/779 106/164
f 298/153 294/152 295/173
f 452/143 313/138 308/144
f 454/161 311/187 304/162
f 138/275 143/461 424/276
f 46/278 45/796 33/279
f 688/280 193/684 195/281
f 82/34 81/33 57/77
f 77/37 76/36 52/23
f 486/284 117/360 412/285
f 465/142 353/136 345/138
f 541/287 99/797 644/288
f 319/134 320/221 312/192
f 250/153 246/152 247/173
f 356/216 350/215 342/270
f 499/133 328/780 319/134
f 149/290 154/798 566/291
f 146/292 157/799 565/293
f 473/135 383/134 375/187
f 155/245 146/292 546/294
f 463/161 343/187 336/162
f 501/242 330/789 322/149
f 321/136 323/225 315/137
f 44/296 43/800 31/297
f 275/217 277/264 273/218
f 153/298 148/462 439/299
f 386/149 389/229 381/150
f 494/301 157/799 146/182
f 464/135 351/134 343/187
f 89/303 90/61 66/104
f 672/304 105/393 101/305
f 472/161 375/187 368/162
f 748/307 103/574 98/308
f 180/216 174/215 166/270
f 39/310 38/801 26/51
f 444/141 170/140 162/171
f 388/216 382/215 374/270
f 471/141 378/140 370/171
f 269/156 265/155 264/251
f 351/134 352/221 344/192
f 9/75 21/55 22/57
f 604/313 104/756 99/314
f 22/50 23/25 11/74
f 647/316 401/618 550/317
f 527/319 406/384 125/320
f 393/323 506/167 474/142
f 681/324 515/725 508/325
f 397/327 507/242 475/139
f 684/328 510/721 511/329
f 658/334 528/448 553/335
f 109/337 422/274 421/166
f 487/338 526/385 742/339
f 771/341 520/720 519/342
f 480/344 527/319 407/321
f 142/347 425/371 427/176
f 661/349 513/369 514/350
f 127/352 482/382 527/319
f 744/353 477/746 585/354
f 128/356 483/662 729/357
f 183/359 496/133 446/135
f 149/362 438/302 433/183
f 677/363 524/764 512/364
f 700/365 512/364 513/369
f 135/370 491/673 425/371
f 655/372 478/445 418/373
f 770/343 519/342 518/375
f 489/379 423/389 107/380
f 526/385 415/743 643/386
f 769/376 518/375 517/387
f 627/390 573/772 662/391
f 105/393 588/698 551/394
f 766/396 614/609 607/397
f 763/399 611/495 612/400
f 403/402 579/592 787/403
f 703/405 623/425 622/406
f 714/408 540/427 577/409
f 126/411 127/352 480/344
f 128/413 129/383 482/382
f 124/414 125/320 406/384
f 122/415 123/345 407/321
f 674/358 591/568 557/416
f 108/418 110/147 408/146
f 759/398 607/397 608/419
f 114/421 115/377 485/368
f 116/422 117/360 486/284
f 120/257 121/331 412/285
f 118/423 119/366 413/333
f 706/424 626/717 623/425
f 727/426 562/631 540/427
f 168/192 443/143 441/145
f 699/429 619/559 618/430
f 476/432 604/313 541/315
f 795/434 636/718 595/435
f 733/437 572/713 574/438
f 590/440 624/703 704/441
f 593/207 567/206 437/443
f 478/445 532/715 776/446
f 668/210 411/209 129/383
f 359/359 502/133 464/135
f 528/448 719/479 795/434
f 551/449 402/611 741/450
f 493/444 437/443 544/452
f 709/454 533/712 416/455
f 605/457 685/637 640/404
f 662/391 573/772 534/459
f 143/461 141/178 428/177
f 148/462 150/181 430/180
f 567/206 566/291 436/463
f 584/464 637/614 796/465
f 723/467 558/742 559/468
f 574/438 663/351 681/324
f 582/453 544/452 148/470
f 552/471 633/627 788/472
f 672/304 589/770 634/474
f 738/410 577/409 539/476
f 785/477 631/638 554/478
f 780/480 628/603 537/481
f 702/407 622/406 621/483
f 586/485 542/726 715/486
f 549/488 717/625 716/489
f 665/491 576/642 598/492
f 777/494 625/741 611/495
f 682/496 601/707 575/497
f 648/500 555/709 560/501
f 630/504 594/587 747/505
f 583/508 564/693 147/509
f 667/326 508/325 509/520
f 74/531 86/793 96/255
f 768/388 517/387 516/533
f 196/527 200/234 208/236
f 775/80 523/79 522/542
f 774/543 522/542 521/553
f 645/555 549/488 548/490
f 587/557 630/504 782/506
f 701/484 621/483 619/559
f 649/560 556/610 597/561
f 602/563 683/521 684/328
f 107/380 408/146 409/148
f 698/431 618/430 617/566
f 790/355 585/354 528/448
f 591/568 568/644 657/569
f 361/323 503/167 465/142
f 176/221 447/142 443/143
f 730/571 569/714 635/572
f 793/573 635/572 549/488
f 376/192 470/143 468/145
f 794/318 550/317 103/574
f 744/353 589/770 552/471
f 676/436 595/435 594/575
f 185/323 497/167 447/142
f 563/577 586/485 670/487
f 697/567 617/566 616/578
f 642/374 418/373 531/580
f 666/581 531/580 410/582
f 115/377 486/284 530/286
f 384/221 474/142 470/143
f 116/584 479/199 779/201
f 485/368 530/286 413/333
f 310/270 454/161 449/163
f 783/586 675/723 594/587
f 318/215 455/135 454/161
f 347/137 462/141 460/172
f 327/359 499/133 455/135
f 144/330 428/177 429/179
f 147/346 430/180 431/165
f 437/443 436/463 545/591
f 579/592 529/704 743/593
f 490/277 424/276 144/330
f 708/159 419/158 119/594
f 599/596 752/686 731/597
f 726/599 561/699 581/600
f 638/602 534/773 628/603
f 210/604 735/439 753/605
f 525/329 680/697 659/607
f 765/608 613/643 614/609
f 656/340 563/577 539/476
f 679/493 598/492 556/610
f 402/611 541/287 797/289
f 546/294 565/293 435/612
f 637/614 548/771 716/615
f 760/420 608/419 609/616
f 401/618 536/211 547/213
f 591/568 746/570 722/620
f 749/621 596/769 620/622
f 792/336 553/335 400/624
f 101/305 551/449 789/451
f 781/626 629/706 559/468
f 633/627 584/464 669/466
f 740/601 581/600 557/416
f 753/605 600/469 578/628
f 544/452 545/591 150/630
f 562/631 627/390 707/392
f 696/579 616/578 615/632
f 632/634 587/557 671/558
f 784/636 536/211 401/618
f 685/637 605/457 631/638
f 538/458 632/634 786/635
f 739/629 578/628 602/563
f 592/295 546/294 434/613
f 621/483 773/554 771/341
f 659/607 570/598 576/642
f 765/608 764/401 612/400
f 568/644 558/742 723/467
f 2/21 13/40 15/39
f 42/645 41/802 29/233
f 3/19 15/39 16/3
f 757/647 102/735 536/211
f 506/167 396/783 385/136
f 4/24 16/3 17/2
f 244/202 242/787 238/203
f 496/133 184/780 175/134
f 84/648 96/803 95/649
f 45/651 44/804 32/652
f 482/382 129/383 406/384
f 19/232 20/45 8/41
f 241/218 240/204 238/245
f 245/264 244/202 240/204
f 8/41 20/45 21/55
f 507/242 394/789 386/149
f 34/653 35/38 47/654
f 385/136 387/225 379/137
f 142/656 137/805 141/657
f 750/659 224/670 222/660
f 259/217 261/264 257/218
f 483/662 127/792 651/248
f 91/8 92/774 68/110
f 261/264 260/202 256/204
f 74/531 84/532 60/60
f 253/156 249/155 248/251
f 95/649 96/803 72/122
f 92/68 93/777 69/113
f 48/663 47/806 35/28
f 37/664 48/807 36/665
f 135/370 142/656 143/658
f 299/154 295/173 297/155
f 75/16 73/18 50/20
f 260/202 258/787 254/203
f 81/67 80/69 56/43
f 83/81 82/83 58/12
f 301/156 297/155 296/251
f 673/442 125/767 124/414
f 277/264 276/202 272/204
f 87/667 88/85 64/98
f 93/668 94/32 70/116
f 80/7 79/9 55/70
f 721/228 226/227 224/670
f 85/17 87/775 63/95
f 86/65 85/776 62/128
f 84/648 83/650 59/73
f 291/217 293/264 289/218
f 284/151 280/781 278/152
f 88/672 89/35 65/101
f 491/673 134/795 145/174
f 300/151 296/781 294/152
f 705/674 205/808 207/675
f 691/676 207/675 209/677
f 754/661 222/660 220/679
f 737/681 230/690 228/682
f 687/683 191/688 193/684
f 689/282 195/281 197/685
f 5/22 17/2 18/5
f 692/678 209/677 211/687
f 694/269 213/268 191/688
f 73/64 74/66 49/689
f 731/597 232/727 230/690
f 736/680 220/679 218/691
f 113/263 108/418 423/389
f 171/137 444/141 442/172
f 564/693 535/708 152/694
f 379/137 471/141 469/172
f 664/498 575/497 571/695
f 761/617 609/616 610/596
f 588/698 476/432 402/433
f 745/447 590/440 561/699
f 715/486 542/726 537/481
f 755/640 602/563 603/564
f 103/574 550/317 543/701
f 624/703 555/709 648/500
f 757/647 605/457 538/458
f 529/704 580/722 783/586
f 653/705 560/732 629/706
f 678/562 597/561 601/707
f 434/613 435/612 535/708
f 555/709 720/716 725/710
f 725/711 417/752 533/712
f 382/215 473/135 472/161
f 387/225 475/139 471/141
f 772/623 620/622 572/713
f 323/225 457/139 453/141
f 320/221 456/142 452/143
f 791/475 634/474 569/714
f 179/225 448/139 444/141
f 315/137 453/141 451/172
f 166/270 445/161 440/163
f 391/359 505/133 473/135
f 532/715 405/766 720/716
f 344/192 461/143 459/145
f 355/225 466/139 462/141
f 756/700 603/564 606/717
f 643/386 415/743 416/455
f 174/215 446/135 445/161
f 719/479 554/478 636/718
f 189/327 498/242 448/139
f 720/716 405/766 417/719
f 773/554 521/553 520/720
f 550/317 401/618 398/619
f 746/570 487/338 410/582
f 365/327 504/242 466/139
f 329/323 500/167 456/142
f 680/697 599/596 570/598
f 312/192 452/143 450/145
f 683/521 509/520 510/721
f 132/261 488/273 422/274
f 352/221 465/142 461/143
f 580/722 399/751 675/723
f 350/215 464/135 463/161
f 685/637 477/746 403/402
f 374/270 472/161 467/163
f 342/270 463/161 458/163
f 530/286 412/285 121/331
f 156/205 494/301 438/302
f 717/625 400/624 399/724
f 492/641 434/613 564/693
f 663/351 514/350 515/725
f 735/439 574/438 600/469
f 333/327 501/242 457/139
f 495/300 439/299 147/346
f 542/726 643/386 639/482
f 752/686 234/685 232/727
f 194/728 756/700 758/424
f 776/446 720/716 555/709
f 588/698 791/475 730/571
f 206/730 772/623 733/437
f 560/732 725/711 709/454
f 519/342 678/562 682/496
f 123/733 653/705 781/626
f 743/593 783/586 630/504
f 102/735 757/647 712/639
f 704/441 648/500 122/737
f 192/739 755/640 756/700
f 118/740 715/486 711/595
f 478/445 745/447 726/599
f 510/721 761/617 762/697
f 517/387 664/498 660/696
f 575/497 736/680 732/692
f 570/598 731/597 737/681
f 614/609 694/269 687/683
f 612/400 692/678 693/267
f 609/616 689/282 690/686
f 607/397 687/683 688/280
f 576/642 737/681 751/226
f 601/707 754/661 736/680
f 611/495 691/676 692/678
f 625/741 705/674 691/676
f 556/610 721/228 750/659
f 590/440 673/442 654/208
f 729/357 651/248 558/742
f 597/561 750/659 754/661
f 605/457 757/647 784/636
f 657/569 723/467 415/743
f 513/369 764/401 765/608
f 523/79 659/607 665/491
f 190/744 739/629 755/640
f 712/639 786/635 547/745
f 477/746 685/637 785/477
f 631/638 784/636 647/316
f 786/635 671/558 398/747
f 221/748 696/579 695/633
f 655/372 707/392 532/715
f 212/606 753/605 739/629
f 531/580 740/601 722/620
f 788/472 669/466 529/704
f 481/734 781/626 652/250
f 646/306 789/451 633/627
f 635/572 792/336 717/625
f 204/750 749/621 772/623
f 509/520 760/420 761/617
f 796/465 716/615 399/751
f 741/450 797/289 637/614
f 521/553 679/493 649/560
f 487/338 656/340 641/583
f 514/350 765/608 766/396
f 417/752 638/602 780/480
f 418/373 726/599 740/601
f 628/603 708/159 711/595
f 787/403 743/593 587/557
f 727/426 779/201 627/390
f 577/409 666/581 641/583
f 540/427 642/374 666/581
f 223/753 697/567 696/579
f 728/256 670/487 414/754
f 400/624 676/436 675/576
f 477/746 744/353 718/473
f 636/718 794/318 748/307
f 604/313 793/573 645/555
f 476/432 730/571 793/573
f 746/570 657/569 526/385
f 634/474 790/355 658/334
f 225/757 698/431 697/567
f 520/720 649/560 678/562
f 229/758 701/484 699/429
f 671/558 782/506 543/760
f 104/756 645/555 644/556
f 622/406 774/543 773/554
f 623/425 775/80 774/543
f 615/632 616/578 768/388
f 578/628 667/326 683/521
f 782/506 747/505 98/762
f 122/737 648/500 653/502
f 518/375 682/496 664/498
f 524/764 777/494 763/399
f 522/542 665/491 679/493
f 670/487 715/486 118/740
f 231/765 702/407 701/484
f 533/712 780/480 639/482
f 585/354 785/477 719/479
f 484/361 738/410 713/258
f 105/393 672/304 791/475
f 718/473 788/472 579/592
f 415/743 723/467 724/456
f 669/466 796/465 580/722
f 405/766 662/391 638/460
f 629/706 709/454 724/456
f 789/451 741/450 584/464
f 581/600 668/210 650/417
f 745/447 776/446 624/703
f 673/442 704/441 404/738
f 208/731 733/437 735/439
f 553/335 795/434 676/436
f 227/759 699/429 698/431
f 116/584 727/426 714/408
f 235/729 706/424 703/405
f 508/325 759/398 760/420
f 128/356 674/358 650/417
f 117/360 714/408 738/410
f 233/768 703/405 702/407
f 640/404 787/403 632/634
f 512/364 763/399 764/401
f 515/725 766/396 759/398
f 707/392 662/391 405/766
f 617/566 769/376 768/388
f 742/339 643/386 542/726
f 618/430 770/343 769/376
f 562/631 655/372 642/374
f 620/622 700/365 661/349
f 596/769 677/363 700/365
f 674/358 729/357 568/644
f 589/770 744/353 790/355
f 574/438 572/713 661/349
f 619/559 771/341 770/343
f 656/340 742/339 586/485
f 569/714 658/334 792/336
f 603/564 684/328 686/78
f 600/469 681/324 667/326
f 554/478 647/316 794/318
f 595/435 748/307 747/309
f 589/770 672/304 646/306
f 797/289 644/288 548/771
f 608/419 688/280 689/282
f 613/643 693/267 694/269
f 563/577 728/256 713/258
f 573/772 734/200 710/254
f 558/742 651/248 652/250
f 598/492 751/226 721/228
f 561/699 654/208 668/210
f 779/201 734/200 573/772
f 534/773 710/157 708/159
f 626/717 778/78 775/80
