o Coils
v 3.25 1.5 -2.8125
v 3.25 2.2279 -2.7167
v 3.25 2.9062 -2.4357
v 3.25 3.4887 -1.9887
v 3.25 3.9357 -1.4062
v 3.25 4.2167 -0.7279
v 3.25 4.3125 -0
v 3.25 4.2167 0.7279
v 3.25 3.9357 1.4062
v 3.25 3.4887 1.9887
v 3.25 2.9062 2.4357
v 3.25 2.2279 2.7167
v 3.25 1.5 2.8125
v 4.25 1.5 -2.8125
v 4.25 2.2279 -2.7167
v 4.25 2.9062 -2.4357
v 4.25 3.4887 -1.9887
v 4.25 3.9357 -1.4062
v 4.25 4.2167 -0.7279
v 4.25 4.3125 -0
v 4.25 4.2167 0.7279
v 4.25 3.9357 1.4062
v 4.25 3.4887 1.9887
v 4.25 2.9062 2.4357
v 4.25 2.2279 2.7167
v 4.25 1.5 2.8125
vt 0.7931 0.4189
vt 0.7471 0.3784
vt 0.7931 0.3784
vt 0.7471 0.4189
s 1
f 19/1 7/2 20/3
f 21/1 9/2 22/3
f 14/1 2/2 15/3
f 23/1 11/2 24/3
f 16/1 4/2 17/3
f 19/1 6/4 7/2
f 25/1 13/2 26/3
f 18/1 6/2 19/3
f 22/1 10/2 23/3
f 20/1 8/2 21/3
f 15/1 3/2 16/3
f 24/1 12/2 25/3
f 23/1 10/4 11/2
f 15/1 2/4 3/2
f 14/1 1/4 2/2
f 18/1 5/4 6/2
f 20/1 7/4 8/2
f 21/1 8/4 9/2
f 16/1 3/4 4/2
f 24/1 11/4 12/2
f 25/1 12/4 13/2
f 22/1 9/4 10/2
f 17/1 4/4 5/2
f 17/1 5/2 18/3
o Turbine
v -5.875 2.75 2
v -5.6982 2.6768 2
v -5.625 2.5 2
v -5.6982 2.3232 2
v -5.875 2.25 2
v -6.0518 2.3232 2
v -6.125 2.5 2
v -6.0518 2.6768 2
v -5.875 2.75 0.5
v -5.6982 2.6768 0.5
v -5.625 2.5 0.5
v -5.6982 2.3232 0.5
v -5.875 2.25 0.5
v -6.0518 2.3232 0.5
v -6.125 2.5 0.5
v -6.0518 2.6768 0.5
v -5.8018 2.75 2.1768
v -5.6768 2.6768 2.0518
v -5.6768 2.3232 2.0518
v -5.8018 2.25 2.1768
v -5.9268 2.3232 2.3018
v -5.9786 2.5 2.3536
v -5.9268 2.6768 2.3018
v -5.625 2.75 2.25
v -5.625 2.6768 2.0732
v -5.625 2.3232 2.0732
v -5.625 2.25 2.25
v -5.625 2.3232 2.4268
v -5.625 2.5 2.5
v -5.625 2.6768 2.4268
v 2.625 2.5 2
v 2.625 2.75 2.25
v 2.625 2.6768 2.0732
v 2.625 2.3232 2.0732
v 2.625 2.25 2.25
v 2.625 2.3232 2.4268
v 2.625 2.5 2.5
v 2.625 2.6768 2.4268
v -5.875 2.25 -2
v -5.6982 2.3232 -2
v -5.625 2.5 -2
v -5.6982 2.6768 -2
v -5.875 2.75 -2
v -6.0518 2.6768 -2
v -6.125 2.5 -2
v -6.0518 2.3232 -2
v -5.875 2.25 -0.5
v -5.6982 2.3232 -0.5
v -5.625 2.5 -0.5
v -5.6982 2.6768 -0.5
v -5.875 2.75 -0.5
v -6.0518 2.6768 -0.5
v -6.125 2.5 -0.5
v -6.0518 2.3232 -0.5
v -5.8018 2.25 -2.1768
v -5.6768 2.3232 -2.0518
v -5.6768 2.6768 -2.0518
v -5.8018 2.75 -2.1768
v -5.9268 2.6768 -2.3018
v -5.9786 2.5 -2.3536
v -5.9268 2.3232 -2.3018
v -5.625 2.25 -2.25
v -5.625 2.3232 -2.0732
v -5.625 2.6768 -2.0732
v -5.625 2.75 -2.25
v -5.625 2.6768 -2.4268
v -5.625 2.5 -2.5
v -5.625 2.3232 -2.4268
v 2.625 2.5 -2
v 2.625 2.25 -2.25
v 2.625 2.3232 -2.0732
v 2.625 2.6768 -2.0732
v 2.625 2.75 -2.25
v 2.625 2.6768 -2.4268
v 2.625 2.5 -2.5
v 2.625 2.3232 -2.4268
v -6.5 2.5 1.5
v -6.5 3.25 1.299
v -6.5 3.799 0.75
v -6.5 4 -0
v -6.5 3.799 -0.75
v -6.5 3.25 -1.299
v -6.5 2.5 -1.5
v -6.5 1.75 -1.299
v -6.5 1.201 -0.75
v -6.5 1 -0
v -6.5 1.201 0.75
v -6.5 1.75 1.299
v -6.25 3.25 1.299
v -6.25 2.5 1.5
v -6.25 3.799 0.75
v -6.25 4 0
v -6.25 3.799 -0.75
v -6.25 3.25 -1.299
v -6.25 2.5 -1.5
v -6.25 1.75 -1.299
v -6.25 1.201 -0.75
v -6.25 1 -0
v -6.25 1.201 0.75
v -6.25 1.75 1.299
v -6.25 2 0.866
v -6.25 1.634 0.5
v -6.25 1.5 -0
v -6.25 1.634 -0.5
v -6.25 2 -0.866
v -6.25 2.5 -1
v -6.25 3 -0.866
v -6.25 3.366 -0.5
v -6.25 3.5 -0
v -6.25 3.366 0.5
v -6.25 3 0.866
v -6.25 2.5 1
v -5.5 2 0.866
v -5.5 1.634 0.5
v -5.5 1.5 -0
v -5.5 1.634 -0.5
v -5.5 2 -0.866
v -5.5 2.5 -1
v -5.5 3 -0.866
v -5.5 3.366 -0.5
v -5.5 3.5 -0
v -5.5 3.366 0.5
v -5.5 3 0.866
v -5.5 2.5 1
v -6.5 2.5 1
v -6.5 3 0.866
v -6.5 3.366 0.5
v -6.5 3.5 -0
v -6.5 3.366 -0.5
v -6.5 3 -0.866
v -6.5 2.5 -1
v -6.5 2 -0.866
v -6.5 1.634 -0.5
v -6.5 1.5 -0
v -6.5 1.634 0.5
v -6.5 2 0.866
v -6.5 2.5 0.75
v -6.5 2.875 0.6495
v -6.5 3.1495 0.375
v -6.5 3.25 -0
v -6.5 3.1495 -0.375
v -6.5 2.875 -0.6495
v -6.5 2.5 -0.75
v -6.5 2.125 -0.6495
v -6.5 1.8505 -0.375
v -6.5 1.75 -0
v -6.5 1.8505 0.375
v -6.5 2.125 0.6495
v -6.375 3 0.866
v -6.375 2.5 1
v -6.375 3.366 0.5
v -6.375 3.5 -0
v -6.375 3.366 -0.5
v -6.375 3 -0.866
v -6.375 2.5 -1
v -6.375 2 -0.866
v -6.375 1.634 -0.5
v -6.375 1.5 -0
v -6.375 1.634 0.5
v -6.375 2 0.866
v -6.375 2.875 0.6495
v -6.375 2.5 0.75
v -6.375 3.1495 0.375
v -6.375 3.25 -0
v -6.375 3.1495 -0.375
v -6.375 2.875 -0.6495
v -6.375 2.5 -0.75
v -6.375 2.125 -0.6495
v -6.375 1.8505 -0.375
v -6.375 1.75 -0
v -6.375 1.8505 0.375
v -6.375 2.125 0.6495
v -6.5 2.5 -0
v -4.25 2.5 0
v -3.25 3.5 0
v 1.75 3.5 0
v 2.75 4.5 0
v 4.75 4.5 0
v 5.75 3.5 0
v 6.5 3.5 0
v 7.5 2.5 0
v -4.25 1.5 0
v -4.25 2.366 0.5
v -3.25 3.2321 1
v 1.75 3.2321 1
v 2.75 4.0981 1.5
v 4.75 4.0981 1.5
v 5.75 3.2321 1
v 6.5 3.2321 1
v 7.5 2.366 0.5
v -4.25 2 0.866
v -3.25 2.5 1.7321
v 1.75 2.5 1.7321
v 2.75 3 2.5981
v 4.75 3 2.5981
v 5.75 2.5 1.7321
v 6.5 2.5 1.7321
v 7.5 2 0.866
v -4.25 1.5 1
v -3.25 1.5 2
v 1.75 1.5 2
v 2.75 1.5 3
v 4.75 1.5 3
v 5.75 1.5 2
v 6.5 1.5 2
v 7.5 1.5 1
v -4.25 2.366 -0.5
v -3.25 3.2321 -1
v 1.75 3.2321 -1
v 2.75 4.0981 -1.5
v 4.75 4.0981 -1.5
v 5.75 3.2321 -1
v 6.5 3.2321 -1
v 7.5 2.366 -0.5
v -4.25 2 -0.866
v -3.25 2.5 -1.7321
v 1.75 2.5 -1.7321
v 2.75 3 -2.5981
v 4.75 3 -2.5981
v 5.75 2.5 -1.7321
v 6.5 2.5 -1.7321
v 7.5 2 -0.866
v -4.25 1.5 -1
v -3.25 1.5 -2
v 1.75 1.5 -2
v 2.75 1.5 -3
v 4.75 1.5 -3
v 5.75 1.5 -2
v 6.5 1.5 -2
v 7.5 1.5 -1
v -4.25 0 1
v -3.25 0 2
v 1.75 0 2
v 2.75 0 3
v 4.75 0 3
v 5.75 0 2
v 6.5 0 2
v 7.5 0 1
v -4.25 -0 -1
v -3.25 -0 -2
v 1.75 -0 -2
v 2.75 -0 -3
v 4.75 -0 -3
v 5.75 -0 -2
v 6.5 -0 -2
v 7.5 -0 -1
v -5.75 2.5 0
v -5.75 2.366 0.5
v -5.75 2 0.866
v -5.75 1.5 1
v -5.75 2.366 -0.5
v -5.75 2 -0.866
v -5.75 1.5 -1
v -5.75 0 1
v -5.75 -0 -1
v -5.5 2.5 -0.75
v -5.5 2.875 -0.6495
v -5.5 3.1495 -0.375
v -5.5 3.25 -0
v -5.5 3.1495 0.375
v -5.5 2.875 0.6495
v -5.5 2.5 0.75
v -5.5 2.125 0.6495
v -5.5 1.8505 0.375
v -5.5 1.75 0
v -5.5 1.8505 -0.375
v -5.5 2.125 -0.6495
v -3.5 2.5 -0.75
v -3.5 2.875 -0.6495
v -3.5 3.1495 -0.375
v -3.5 3.25 -0
v -3.5 3.1495 0.375
v -3.5 2.875 0.6495
v -3.5 2.5 0.75
v -3.5 2.125 0.6495
v -3.5 1.8505 0.375
v -3.5 1.75 0
v -3.5 1.8505 -0.375
v -3.5 2.125 -0.6495
v -4.875 1.25 2
v -4.6982 1.1768 2
v -4.625 1 2
v -4.6982 0.8232 2
v -4.875 0.75 2
v -5.0518 0.8232 2
v -5.125 1 2
v -5.0518 1.1768 2
v -4.875 1.25 1
v -4.6982 1.1768 1
v -4.625 1 1
v -4.6982 0.8232 1
v -4.875 0.75 1
v -5.0518 0.8232 1
v -5.125 1 1
v -5.0518 1.1768 1
v -4.8018 1.25 2.1768
v -4.6768 1.1768 2.0518
v -4.6768 0.8232 2.0518
v -4.8018 0.75 2.1768
v -4.9268 0.8232 2.3018
v -4.9786 1 2.3536
v -4.9268 1.1768 2.3018
v -4.625 1.25 2.25
v -4.625 1.1768 2.0732
v -4.625 0.8232 2.0732
v -4.625 0.75 2.25
v -4.625 0.8232 2.4268
v -4.625 1 2.5
v -4.625 1.1768 2.4268
v 2.625 1 2
v 2.625 1.25 2.25
v 2.625 1.1768 2.0732
v 2.625 0.8232 2.0732
v 2.625 0.75 2.25
v 2.625 0.8232 2.4268
v 2.625 1 2.5
v 2.625 1.1768 2.4268
v -4.875 0.75 -2
v -4.6982 0.8232 -2
v -4.625 1 -2
v -4.6982 1.1768 -2
v -4.875 1.25 -2
v -5.0518 1.1768 -2
v -5.125 1 -2
v -5.0518 0.8232 -2
v -4.875 0.75 -1
v -4.6982 0.8232 -1
v -4.625 1 -1
v -4.6982 1.1768 -1
v -4.875 1.25 -1
v -5.0518 1.1768 -1
v -5.125 1 -1
v -5.0518 0.8232 -1
v -4.8018 0.75 -2.1768
v -4.6768 0.8232 -2.0518
v -4.6768 1.1768 -2.0518
v -4.8018 1.25 -2.1768
v -4.9268 1.1768 -2.3018
v -4.9786 1 -2.3536
v -4.9268 0.8232 -2.3018
v -4.625 0.75 -2.25
v -4.625 0.8232 -2.0732
v -4.625 1.1768 -2.0732
v -4.625 1.25 -2.25
v -4.625 1.1768 -2.4268
v -4.625 1 -2.5
v -4.625 0.8232 -2.4268
v 2.625 1 -2
v 2.625 0.75 -2.25
v 2.625 0.8232 -2.0732
v 2.625 1.1768 -2.0732
v 2.625 1.25 -2.25
v 2.625 1.1768 -2.4268
v 2.625 1 -2.5
v 2.625 0.8232 -2.4268
v 4.75 2.25 2.799
v 2.75 2.25 2.799
v 4.75 2.25 -2.799
v 2.75 2.25 -2.799
v 3.25 4.5 0
v 3.25 4.0981 1.5
v 3.25 3 2.5981
v 3.25 4.0981 -1.5
v 3.25 3 -2.5981
v 3.25 2.25 2.799
v 3.25 2.25 -2.799
v 4.25 4.5 0
v 4.25 4.0981 1.5
v 4.25 3 2.5981
v 4.25 4.0981 -1.5
v 4.25 3 -2.5981
v 4.25 2.25 2.799
v 4.25 2.25 -2.799
v 3 0 3
v 4.5 0 3
v 3 1.5 3
v 4.5 1.5 3
v 3 1 3.5
v 3 0 3.5
v 4.5 0 3.5
v 4.5 1 3.5
v 3 -0 -3.5
v 4.5 -0 -3.5
v 3 1 -3.5
v 4.5 1 -3.5
v 3 1.5 -3
v 3 -0 -3
v 4.5 -0 -3
v 4.5 1.5 -3
v -3.25 0 0
v -0.75 -0 -2
v -4.25 0 0
v -5 -0 -1
v 4.25 2.25 0
v 3.25 3.174 -2.1495
v 3.25 3.549 -2.049
v 4.25 3.375 -1.3995
v 4.25 3.375 1.3995
v 3.75 0 3.5
v 3 0.75 3
v 3.75 1.5 3
v 3.75 0 3
v 3 0.75 -3
v 3.75 1 -3.5
v 3.75 -0 -3.5
v 7.5 0 0
v 6.625 -0 -1.5
v 3.25 0 2.5
v 3.75 0 3
v 1.75 0 0
v -0.75 0 2
v -3.75 0 0.5
v -5 0 1
v -5.75 0 0
v 7.5 0.75 1
v 7.5 0.75 -1
v 7.5 1.5 0
v -5.75 0.75 -1
v -5.75 0.75 1
v -5.75 1.5 0
v 3.25 2.25 0
v 3.25 4.299 -0.75
v 3.25 3.375 -1.3995
v 3.25 3.375 1.3995
v 3.25 4.299 0.75
v 3.25 3.174 2.1495
v 3.25 3.549 2.049
v 4.25 3.549 2.049
v 4.25 3.174 2.1495
v 4.25 4.299 0.75
v 4.25 4.299 -0.75
v 4.25 3.174 -2.1495
v 4.25 3.549 -2.049
v 4.5 0.75 -3
v 3.75 1 3.5
v 4.5 0.75 3
v 3.75 1.5 -3
v 3.75 -0 -3
v 6.625 0 1.5
v 5.75 0 0
v 3.75 -0 -2
v 4.25 -0 -2.5
v 3.75 -0 -3
v 3.75 0 2
v -5.875 2.25 1.25
v -5.625 2.5 1.25
v -5.875 2.75 1.25
v -6.0518 2.6768 1.25
v -6.0518 2.3232 1.25
v -5.6982 2.3232 1.25
v -5.6982 2.6768 1.25
v -6.125 2.5 1.25
v -1.5 2.6768 2.0732
v -1.5 2.3232 2.0732
v -1.5 2.75 2.25
v -1.5 2.5 2
v -1.5 2.5 2.5
v -1.5 2.25 2.25
v -1.5 2.6768 2.4268
v -1.5 2.3232 2.4268
v -5.875 2.75 -1.25
v -5.625 2.5 -1.25
v -5.875 2.25 -1.25
v -6.0518 2.3232 -1.25
v -6.0518 2.6768 -1.25
v -5.6982 2.6768 -1.25
v -5.6982 2.3232 -1.25
v -6.125 2.5 -1.25
v -1.5 2.3232 -2.0732
v -1.5 2.6768 -2.0732
v -1.5 2.25 -2.25
v -1.5 2.5 -2
v -1.5 2.5 -2.5
v -1.5 2.75 -2.25
v -1.5 2.3232 -2.4268
v -1.5 2.6768 -2.4268
v -0.75 3.5 0
v 4.75 4.299 0.75
v 2.75 3.549 2.049
v -0.75 3.2321 1
v 4.75 3.549 2.049
v 2.75 4.299 0.75
v -0.75 2.5 1.7321
v 2.75 3.549 -2.049
v 4.75 4.299 -0.75
v -0.75 3.2321 -1
v 4.75 3.549 -2.049
v 2.75 4.299 -0.75
v -0.75 2.5 -1.7321
v 5.75 0.75 2
v 2.75 0.75 3
v -3.25 0.75 2
v 6.5 0.75 2
v 3.75 1.5 3
v 4.75 0.75 3
v -0.75 1.5 2
v 1.75 0.75 2
v 3.75 1.5 -3
v 2.75 0.75 -3
v -0.75 1.5 -2
v -3.25 0.75 -2
v 6.5 0.75 -2
v 4.75 0.75 -3
v 1.75 0.75 -2
v -4.25 0.75 -1
v 5.75 0.75 -2
v -5 2 -0.866
v -5 1.5 1
v -5 2.366 0.5
v -5 2.366 -0.5
v -5 1.5 -1
v -5 2.5 0
v -5 2 0.866
v -4.25 0.75 1
v -4.5 2.125 0.6495
v -4.5 3.1495 0.375
v -4.5 2.125 -0.6495
v -4.5 2.875 -0.6495
v -4.5 1.8505 0.375
v -4.5 2.875 0.6495
v -4.5 3.1495 -0.375
v -4.5 1.75 0
v -4.5 2.5 0.75
v -4.5 3.25 -0
v -4.5 1.8505 -0.375
v -4.5 2.5 -0.75
v -1 1.1768 2.0732
v -1 0.8232 2.0732
v -1 1.25 2.25
v -1 1 2
v -1 1 2.5
v -1 0.75 2.25
v -1 1.1768 2.4268
v -1 0.8232 2.4268
v -1 0.8232 -2.0732
v -1 1.1768 -2.0732
v -1 0.75 -2.25
v -1 1 -2
v -1 1 -2.5
v -1 1.25 -2.25
v -1 0.8232 -2.4268
v -1 1.1768 -2.4268
v 3.75 0 0
v 3.75 0.75 3
v 3.75 0.75 -3
v -0.75 0.75 -2
v -5 0.75 1
v -5 0 0
v 7.5 0.75 0
v -0.75 0 0
v -0.75 0.75 2
v -5 0.75 -1
v -5.75 0.75 0
v 6.625 0 0
v -3.5625 2.3232 2.0732
v -3.5625 2.6768 2.0732
v -3.5625 2.3232 -2.4268
v -3.5625 2.25 2.25
v -3.5625 2.5 2.5
v 3.5 -0 -2.75
v -3.5625 2.3232 2.4268
v -3.5625 2.5 2
v -3.5625 2.6768 2.4268
v -3.5625 2.75 2.25
v 2.75 0 2
v -3.5625 2.25 -2.25
v 2.75 -0 -2
v -3.5625 2.3232 -2.0732
v -2 3.5 0
v -3.5625 2.6768 -2.4268
v -3.5625 2.5 -2
v -3.25 -0 -1
v 0.5 -0 -2
v 4.25 2.25 1.3995
v -3.5625 2.5 -2.5
v -3.5625 2.75 -2.25
v 5.75 0 1
v -3.5625 2.6768 -2.0732
v 4.25 2.25 -1.3995
v 4.25 2.8125 -2.0993
v 4.25 2.8125 2.0993
v 4 0 2.75
v 1.75 -0 -1
v 0.5 0 2
v -4 -0 -0.25
v 3.25 2.25 -1.3995
v 3.25 2.8125 -2.0993
v 3.25 2.8125 2.0993
v 5.75 -0 -1
v 4.75 -0 -2
v 5 -0 -2.25
v 4.75 0 2
v -2.8125 0.8232 2.4268
v 3.25 2.8125 -0.6998
v -2.8125 0.8232 -2.0732
v 3.25 2.8125 0.6998
v -2 0 2
v -3.5 0 1.25
v 3.25 2.25 1.3995
v 0.5625 2.6768 2.0732
v 0.5625 2.3232 2.0732
v 0.5625 2.75 2.25
v 0.5625 2.5 2
v 0.5625 2.5 2.5
v -2.8125 1.25 2.25
v 0.5625 2.25 2.25
v 0.5625 2.6768 2.4268
v -2.8125 1 2
v 0.5625 2.3232 2.4268
v -2 0.75 -2
v 3.75 -0 -1
v -2 1.5 -2
v 0.5625 2.3232 -2.0732
v 0.5625 2.6768 -2.0732
v 0.5625 2.25 -2.25
v 0.5625 2.5 -2
v 0.5625 2.5 -2.5
v 0.5625 2.75 -2.25
v 0.5625 2.3232 -2.4268
v 0.5625 2.6768 -2.4268
v 4.75 0 0
v 3.25 3.375 0
v 4.25 3.7365 -1.4498
v -2.8125 1.1768 -2.0732
v -2.8125 1.1768 2.4268
v -0.75 0 1
v 0.5 0.75 2
v 4.25 3.7365 1.4498
v -2.8125 1 -2.5
v -2.8125 1 -2
v 0.5 3.5 0
v 0.5 0.75 -2
v 0.5 3.2321 1
v -2 3.2321 -1
v 0.5 2.5 1.7321
v -2 2.5 1.7321
v -2 1.5 2
v 0.5 3.2321 -1
v -2 3.2321 1
v 0.5 2.5 -1.7321
v 3.75 0 1
v -2 2.5 -1.7321
v 2.75 0 0
v 0.5 1.5 2
v 0.5 1.5 -2
v -2.8125 0.8232 -2.4268
v -2.8125 1.25 -2.25
v -2.8125 0.75 -2.25
v -2.8125 1.1768 -2.4268
v -2.8125 0.75 2.25
v 3.25 3.7365 1.4498
v -2.8125 1 2.5
v 2.5 0 2.25
v 4.25 3.9375 -0.6998
v 4.25 3.9375 0.6998
v 1.75 0 1
v 0.8125 1.1768 2.0732
v 0.8125 0.8232 2.0732
v 0.8125 1.25 2.25
v 0.8125 1 2
v 0.8125 1 2.5
v 0.8125 0.75 2.25
v 0.8125 1.1768 2.4268
v 0.8125 0.8232 2.4268
v -2 0.75 2
v 3.25 3.9375 0.6998
v 3.25 3.9375 -0.6998
v 0.8125 0.8232 -2.0732
v 0.8125 1.1768 -2.0732
v 0.8125 0.75 -2.25
v 0.8125 1 -2
v 0.8125 1 -2.5
v -2.8125 0.8232 2.0732
v -2 0 0
v 0.8125 1.25 -2.25
v -2.8125 1.1768 2.0732
v 0.8125 0.8232 -2.4268
v 0.8125 1.1768 -2.4268
v 0.5 0 0
v -0.75 -0 -1
v 3.25 3.7365 -1.4498
v -3.25 0 1
v -2 -0 -2
v 4.25 3.375 0
v 4.25 2.8125 -0.6998
v 4.25 2.8125 0.6998
v 6.625 0 0.75
v 6.625 -0 -0.75
v 4.75 0 1
v 4.75 -0 -1
v 2.75 -0 -1
v 2.75 0 1
v -2 0 1
v -2 -0 -1
v 0.5 0 1
v 0.5 -0 -1
v -2.5312 2.3232 2.0732
v -2.5312 2.6768 2.0732
v -2.5312 2.3232 -2.4268
v -2.5312 2.25 2.25
v -2.5312 2.5 2.5
v -2.5312 2.3232 2.4268
v -2.5312 2.5 2
v -2.5312 2.6768 2.4268
v -2.5312 2.75 2.25
v -2.5312 2.25 -2.25
v -2.5312 2.3232 -2.0732
v -2.5312 2.6768 -2.4268
v -2.5312 2.5 -2
v -2.5312 2.5 -2.5
v -2.5312 2.75 -2.25
v -2.5312 2.6768 -2.0732
v -1.9062 0.8232 2.4268
v -1.9062 0.8232 -2.0732
v 1.5938 2.6768 2.0732
v 1.5938 2.3232 2.0732
v 1.5938 2.75 2.25
v 1.5938 2.5 2
v 1.5938 2.5 2.5
v -1.9062 1.25 2.25
v 1.5938 2.25 2.25
v 1.5938 2.6768 2.4268
v -1.9062 1 2
v 1.5938 2.3232 2.4268
v 1.5938 2.3232 -2.0732
v 1.5938 2.6768 -2.0732
v 1.5938 2.25 -2.25
v 1.5938 2.5 -2
v 1.5938 2.5 -2.5
v 1.5938 2.75 -2.25
v 1.5938 2.3232 -2.4268
v 1.5938 2.6768 -2.4268
v -1.9062 1.1768 -2.0732
v -1.9062 1.1768 2.4268
v -1.9062 1 -2.5
v -1.9062 1 -2
v -1.9062 0.8232 -2.4268
v -1.9062 1.25 -2.25
v -1.9062 0.75 -2.25
v -1.9062 1.1768 -2.4268
v -1.9062 0.75 2.25
v -1.9062 1 2.5
v 1.7188 1.1768 2.0732
v 1.7188 0.8232 2.0732
v 1.7188 1.25 2.25
v 1.7188 1 2
v 1.7188 1 2.5
v 1.7188 0.75 2.25
v 1.7188 1.1768 2.4268
v 1.7188 0.8232 2.4268
v 1.7188 0.8232 -2.0732
v 1.7188 1.1768 -2.0732
v 1.7188 0.75 -2.25
v 1.7188 1 -2
v 1.7188 1 -2.5
v -1.9062 0.8232 2.0732
v 1.7188 1.25 -2.25
v -1.9062 1.1768 2.0732
v 1.7188 0.8232 -2.4268
v 1.7188 1.1768 -2.4268
v -4.5938 2.3232 2.0732
v -4.5938 2.6768 2.0732
v -4.5938 2.3232 -2.4268
v -4.5938 2.25 2.25
v -4.5938 2.5 2.5
v -4.5938 2.3232 2.4268
v -4.5938 2.5 2
v -4.5938 2.6768 2.4268
v -4.5938 2.75 2.25
v -4.5938 2.25 -2.25
v -4.5938 2.3232 -2.0732
v -4.5938 2.6768 -2.4268
v -4.5938 2.5 -2
v -4.5938 2.5 -2.5
v -4.5938 2.75 -2.25
v -4.5938 2.6768 -2.0732
v -3.7188 0.8232 2.4268
v -3.7188 0.8232 -2.0732
v -0.4688 2.6768 2.0732
v -0.4688 2.3232 2.0732
v -0.4688 2.75 2.25
v -0.4688 2.5 2
v -0.4688 2.5 2.5
v -3.7188 1.25 2.25
v -0.4688 2.25 2.25
v -0.4688 2.6768 2.4268
v -3.7188 1 2
v -0.4688 2.3232 2.4268
v -0.4688 2.3232 -2.0732
v -0.4688 2.6768 -2.0732
v -0.4688 2.25 -2.25
v -0.4688 2.5 -2
v -0.4688 2.5 -2.5
v -0.4688 2.75 -2.25
v -0.4688 2.3232 -2.4268
v -0.4688 2.6768 -2.4268
v -3.7188 1.1768 -2.0732
v -3.7188 1.1768 2.4268
v -3.7188 1 -2.5
v -3.7188 1 -2
v -3.7188 0.8232 -2.4268
v -3.7188 1.25 -2.25
v -3.7188 0.75 -2.25
v -3.7188 1.1768 -2.4268
v -3.7188 0.75 2.25
v -3.7188 1 2.5
v -0.0938 1.1768 2.0732
v -0.0938 0.8232 2.0732
v -0.0938 1.25 2.25
v -0.0938 1 2
v -0.0938 1 2.5
v -0.0938 0.75 2.25
v -0.0938 1.1768 2.4268
v -0.0938 0.8232 2.4268
v -0.0938 0.8232 -2.0732
v -0.0938 1.1768 -2.0732
v -0.0938 0.75 -2.25
v -0.0938 1 -2
v -0.0938 1 -2.5
v -3.7188 0.8232 2.0732
v -0.0938 1.25 -2.25
v -3.7188 1.1768 2.0732
v -0.0938 0.8232 -2.4268
v -0.0938 1.1768 -2.4268
vt 0.8851 0.3176
vt 0.908 0.2838
vt 0.908 0.3243
vt 0.9195 0.1622
vt 0.9425 0.1959
vt 0.9195 0.2027
vt 0.8506 0.1689
vt 0.8391 0.1926
vt 0.8391 0.1723
vt 0.908 0.4865
vt 0.8851 0.4527
vt 0.908 0.4459
vt 0.8506 0.3716
vt 0.8391 0.3953
vt 0.8391 0.375
vt 0.8506 0.0068
vt 0.8391 0.0304
vt 0.8391 0.0101
vt 0.8851 0.1959
vt 0.908 0.1622
vt 0.908 0.2027
vt 0.9195 0.0811
vt 0.9425 0.0473
vt 0.9425 0.0743
vt 0.8851 0.4122
vt 0.908 0.4054
vt 0.9425 0.3311
vt 0.9195 0.3649
vt 0.9195 0.3243
vt 0.9425 0.25
vt 0.9195 0.2838
vt 0.9195 0.2432
vt 0.9598 0.0101
vt 0.9483 0.0338
vt 0.9483 0.0068
vt 0.9598 0.2128
vt 0.9483 0.2365
vt 0.9483 0.2095
vt 0.8851 0.1284
vt 0.8851 0.1554
vt 0.9195 0.4054
vt 0.9425 0.3716
vt 0.9425 0.3986
vt 0.8851 0.0473
vt 0.908 0.0811
vt 0.8851 0.0743
vt 0.908 0.1216
vt 0.8851 0.0878
vt 0.9195 0.4865
vt 0.9425 0.4527
vt 0.9425 0.4797
vt 0.8851 0.2365
vt 0.908 0.2432
vt 0.8851 0.3986
vt 0.908 0.3649
vt 0.8851 0.3311
vt 0.8851 0.3581
vt 0.908 0.0405
vt 0.8851 0.0068
vt 0.908 -0
vt 0.9425 0.2365
vt 0.9598 0.2534
vt 0.9483 0.277
vt 0.9483 0.25
vt 0.8506 0.0878
vt 0.8391 0.1115
vt 0.8391 0.0912
vt 0.9425 0.3176
vt 0.8506 0.1554
vt 0.8391 0.1318
vt 0.8506 0.1284
vt 0.9425 0.1284
vt 0.9195 0.1216
vt 0.9425 0.4392
vt 0.9195 0.4459
vt 0.8391 0.3547
vt 0.8506 0.3311
vt 0.8506 0.3581
vt 0.6667 0.5
vt 0.6207 0.527
vt 0.6207 0.4865
vt 0.9483 0.4527
vt 0.9598 0.4764
vt 0.9483 0.4797
vt 0.8851 0.277
vt 0.8391 0.2331
vt 0.8506 0.2095
vt 0.8506 0.2365
vt 0.9598 0.1723
vt 0.9483 0.1959
vt 0.9483 0.1689
vt 0.9598 0.1318
vt 0.9483 0.1554
vt 0.9483 0.1284
vt 0.9655 0.3142
vt 0.9655 0.2939
vt 1 0.3041
vt 0.9655 0.2736
vt 0.9655 0.2534
vt 1 0.2635
vt 0.9655 0.2331
vt 0.9655 0.2128
vt 1 0.223
vt 0.9655 0.1926
vt 0.9655 0.1723
vt 1 0.1824
vt 0.9655 0.152
vt 0.9655 0.1318
vt 1 0.1419
vt 0.9655 0.1115
vt 0.9655 0.0912
vt 1 0.1014
vt 0.9655 0.0709
vt 0.9655 0.0507
vt 1 0.0608
vt 0.9655 0.0304
vt 0.9655 0.0101
vt 1 0.0203
vt 0.9655 0.4764
vt 0.9655 0.4561
vt 1 0.4662
vt 0.9655 0.4358
vt 0.9655 0.4155
vt 1 0.4257
vt 0.9655 0.3953
vt 0.9655 0.375
vt 1 0.3851
vt 0.9655 0.3547
vt 0.9655 0.3345
vt 1 0.3446
vt 0.4799 0.9291
vt 0.4382 0.9392
vt 0.4382 0.9291
vt 0.5517 0.4459
vt 0.5287 0.4865
vt 0.5287 0.4459
vt 0.069 0.1278
vt 0.046 0.0811
vt 0.092 0.0811
vt 0.7069 0.7703
vt 0.7471 0.7568
vt 0.7471 0.8108
vt 0.8506 0.4122
vt 0.8391 0.4358
vt 0.8391 0.4155
vt 0.9483 0.0878
vt 0.9598 0.1115
vt 0.9483 0.1149
vt 0.9425 0.1149
vt 0.8506 0.277
vt 0.8391 0.2534
vt 0.8506 0.25
vt 0.9483 0.0473
vt 0.9598 0.0709
vt 0.9483 0.0743
vt 0.9483 0.3311
vt 0.9598 0.3547
vt 0.9483 0.3581
vt 0.9483 0.4122
vt 0.9598 0.4358
vt 0.9483 0.4392
vt 0.9483 0.2905
vt 0.9598 0.3142
vt 0.9483 0.3176
vt 0.9195 0.0405
vt 0.9425 0.0068
vt 0.9425 0.0338
vt 0.9483 0.3716
vt 0.9598 0.3953
vt 0.9483 0.3986
vt 0.8391 0.3142
vt 0.8506 0.2905
vt 0.8506 0.3176
vt 0.8506 0.4527
vt 0.8391 0.4764
vt 0.8391 0.4561
vt 0 0.6351
vt 0.0345 0.625
vt 0.0345 0.6351
vt 0.8085 0.7493
vt 0.7915 0.744
vt 0.7667 0.7148
vt 0.8509 0.7838
vt 0.8509 0.7095
vt 0.8763 0.7466
vt 0.3908 0.5676
vt 0.3678 0.5135
vt 0.3908 0.5135
vt 0.4828 0.6554
vt 0.4353 0.6655
vt 0.4353 0.6554
vt 0.3448 0.5676
vt 0.3448 0.5135
vt 0.2759 0.5676
vt 0.2529 0.5541
vt 0.2529 0.5135
vt 0.2069 -0
vt 0.2529 0.0405
vt 0.2069 0.0405
vt 0.3103 0.2973
vt 0.2529 0.2432
vt 0.3103 0.2432
vt 0.4598 0.5676
vt 0.4828 0.5541
vt 0.4828 0.5946
vt 0.9425 0.3581
vt 0.1379 0.1892
vt 0.1724 0.1622
vt 0.1724 0.1892
vt 0.5517 0.1216
vt 0.5287 0.0811
vt 0.5747 0.0811
vt 0.5287 0.973
vt 0.5172 0.9324
vt 0.5517 0.9459
vt 0.8391 0.0811
vt 0.7931 0.0405
vt 0.8391 0.0405
vt 0.7931 0
vt 0.8391 0
vt 0.4253 0.8108
vt 0.3678 0.7568
vt 0.4253 0.7568
vt 0.3678 0.1892
vt 0.3103 0.1892
vt 0.3103 0.4459
vt 0.2529 0.4054
vt 0.3103 0.4054
vt 0.2931 0.6655
vt 0.2457 0.6757
vt 0.2457 0.6655
vt 0.4253 0.4459
vt 0.3678 0.4054
vt 0.4253 0.4054
vt 0.2931 0.6047
vt 0.2457 0.6149
vt 0.2457 0.6047
vt 0.3132 0.9899
vt 0.2716 1
vt 0.2716 0.9899
vt 0.1724 0.2162
vt 0.2069 0.1892
vt 0.2069 0.2162
vt 0.0345 0.6149
vt 0.069 0.6047
vt 0.069 0.6149
vt 0.1724 0.8108
vt 0.2069 0.7568
vt 0.2069 0.8108
vt 0.3103 0.0811
vt 0.3678 0.1351
vt 0.3103 0.1351
vt 0.7471 0
vt 0.2931 0.6453
vt 0.2457 0.6554
vt 0.2457 0.6453
vt 0.0345 0.6047
vt 0.069 0.5946
vt 0.4253 0.4865
vt 0.3678 0.4459
vt 0.0345 0.6554
vt 0.069 0.6453
vt 0.069 0.6554
vt 0.2931 0.6149
vt 0.2457 0.625
vt 0.1724 0.8649
vt 0.2069 0.8649
vt 0.3132 0.9696
vt 0.2716 0.9797
vt 0.2716 0.9696
vt 0.069 0.625
vt 0.1724 0.0405
vt 0.3132 0.9797
vt 0.3678 0.3514
vt 0.4253 0.3514
vt 0.0345 0.6453
vt 0.069 0.6351
vt 0.3103 0.4865
vt 0.3448 0.4865
vt 0.1379 0.8649
vt 0.5747 0.6081
vt 0.5287 0.5676
vt 0.5747 0.5676
vt 0.7931 0.1554
vt 0.8391 0.1351
vt 0.8391 0.1554
vt 0.4253 0.9189
vt 0.3678 0.8649
vt 0.4253 0.8649
vt 0.1379 0.0811
vt 0.1724 0.0811
vt 0.0345 0.6757
vt 0.069 0.6655
vt 0.069 0.6757
vt 0.1882 0.9493
vt 0.2299 0.9595
vt 0.1882 0.9595
vt 0.2184 0.7973
vt 0.2299 0.8378
vt 0.2414 0.8784
vt 0.2529 0.8649
vt 0.2529 0.9189
vt 0.6667 0.8649
vt 0.7069 0.8919
vt 0.6667 0.9189
vt 0.8161 0.1279
vt 0.7931 0.1351
vt 0.8329 0.1081
vt 0.7701 0.1279
vt 0.7533 0.1081
vt 0.7471 0.0811
vt 0.6667 0.0811
vt 0.7011 0.1351
vt 0.6667 0.1351
vt 0.9017 0.6351
vt 0.9017 0.5608
vt 0.9271 0.598
vt 0.2716 0.9493
vt 0.3132 0.9595
vt 0.2716 0.9595
vt 0.115 0.1278
vt 0.092 0.1351
vt 0.1318 0.108
vt 0.0522 0.108
vt 0.4353 0.6047
vt 0.4353 0.5946
vt 0.2529 0
vt 0.3103 0.0405
vt 0.3132 0.9392
vt 0.2716 0.9392
vt 0.6207 0.6486
vt 0.6207 0.6081
vt 0.7931 0.3784
vt 0.8391 0.3581
vt 0.8391 0.3784
vt 0.2069 0.0811
vt 0.3103 0.8108
vt 0.2529 0.7568
vt 0.3103 0.7568
vt 0.7471 0.4459
vt 0.7011 0.4054
vt 0.7471 0.4054
vt 0.3132 0.9189
vt 0.2716 0.9291
vt 0.2716 0.9189
vt 0.0345 0.6655
vt 0.3678 0.2973
vt 0.4253 0.2973
vt 0.6207 0.5676
vt 0.3103 0.5946
vt 0.2759 0.5946
vt 0.2931 0.6554
vt 0.8763 0.6723
vt 0.8509 0.6351
vt 0.8763 0.598
vt 0.7831 0.7121
vt 0.7577 0.5953
vt 0.774 0.598
vt 0.7486 0.6351
vt 0.8502 0.7838
vt 0.8248 0.7466
vt 0.8502 0.7095
vt 0.8163 0.4972
vt 0.8085 0.521
vt 0.7915 0.5263
vt 0.9096 0.5263
vt 0.9344 0.5555
vt 0.8927 0.521
vt 0.9181 0.5581
vt 0.9435 0.675
vt 0.9271 0.6723
vt 0.9526 0.6351
vt 0.8848 0.7731
vt 0.8927 0.7493
vt 0.9096 0.744
vt 0.3678 0.5541
vt 0.3678 0.0405
vt 0.4253 0.0811
vt 0.3678 0.0811
vt 0.2759 0.5135
vt 0.1509 0.625
vt 0.1983 0.6351
vt 0.1509 0.6351
vt 0.8509 0.5608
vt 0.8763 0.5237
vt 0.4598 0.5135
vt 0.4828 0.5135
vt 0.6667 0.7568
vt 0.7069 0.7297
vt 0.7011 0.9189
vt 0.7471 0.8649
vt 0.5977 0.3243
vt 0.6207 0.2838
vt 0.6207 0.3243
vt 0.7011 0.7027
vt 0.6667 0.7027
vt 0.7471 0.1757
vt 0.7931 0.1757
vt 0.6207 0.7027
vt 0.6322 0.6892
vt 0.5977 0.6757
vt 0.4828 0.9189
vt 0.4828 0.8649
vt 0.5287 0.9189
vt 0.8851 0.2905
vt 0.8851 0.2095
vt -0 0.6757
vt 0 0.625
vt -0 0.6453
vt 0.1121 0.9696
vt 0.0661 0.9595
vt 0.1121 0.9595
vt 0.1293 0.9899
vt 0.1379 0.9797
vt 0.1322 0.9899
vt 0.0776 0.6149
vt 0.0862 0.6047
vt 0.0862 0.6149
vt 0.0718 0.625
vt 0.1293 0.9493
vt 0.1466 0.9595
vt 0.1293 0.9595
vt 0.7931 0.0811
vt 0.0862 0.6351
vt 0.0862 0.6453
vt 0.0948 0.6554
vt 0.0862 0.6554
vt 0.0948 0.6149
vt 0.0833 0.6655
vt 0.0776 0.6554
vt 0.1034 0.6351
vt 0.1006 0.6453
vt 0.1293 0.9696
vt 0.1149 0.9696
vt 0.0862 0.6655
vt 0.0862 0.6757
vt 0.0891 0.6655
vt 0.0862 0.598
vt 0.0833 0.6047
vt 0.0891 0.6047
vt 0.7471 0.2365
vt 0.7931 0.2162
vt 0.7931 0.2365
vt 0.4828 0.6149
vt 0.4353 0.625
vt 0.4353 0.6149
vt 0.7471 0.3581
vt 0.7931 0.3378
vt 0.7931 0.3581
vt 0.4382 0.9493
vt 0.4799 0.9595
vt 0.4382 0.9595
vt 0.4828 0.6655
vt 0.4353 0.6757
vt 0.4828 0.6351
vt 0.4353 0.6351
vt 0.4828 0.6047
vt 0.9598 0.1926
vt 0.7471 0.1959
vt 0.7931 0.1959
vt 0.5517 0.2838
vt 0.5287 0.3243
vt 0.5287 0.2838
vt 0.5517 0.25
vt 0.5977 0.1757
vt 0.5977 0.25
vt 0.7011 -0
vt 0.7471 0.0405
vt 0.7011 0.0405
vt 0.1207 0.9392
vt 0.1149 0.9493
vt 0.0862 0.625
vt 0.0718 0.6453
vt 0.1264 0.9291
vt 0.1293 0.9392
vt 0.6667 0.2297
vt 0.6207 0.2432
vt 0.6207 0.2027
vt 0.1437 0.9696
vt 0.1379 0.9392
vt 0.0862 0.5946
vt 0.046 0.0405
vt 0.092 0.0405
vt 0 0.6149
vt 0.6667 0.3514
vt 0.7011 0.3514
vt 0.4828 0.1351
vt 0.4253 0.1892
vt 0.4253 0.1351
vt 0.9598 0.2331
vt 0.4828 0.625
vt 0.4253 0.5946
vt 0.4253 0.5676
vt 0.1379 0.2838
vt 0.1724 0.2432
vt 0.1724 0.2838
vt 0.2529 0.4865
vt 0.2069 0.4459
vt 0.2529 0.4459
vt 0.6207 0
vt 0.6667 0.0405
vt 0.6207 0.0405
vt 0.4253 0
vt 0.4828 0.0405
vt 0.4253 0.0405
vt 0.9425 0.2095
vt -0 0.6655
vt 0.7471 0.1554
vt 0.3103 0.9189
vt 0.3103 0.8649
vt 0.7471 0.3784
vt 0.0661 0.9899
vt 0.1121 0.9797
vt 0.1121 0.9899
vt 0.0661 0.9392
vt 0.1121 0.9291
vt 0.1121 0.9392
vt -0 0.6554
vt 0.8506 0.4797
vt 0.8851 0.4797
vt 0.4799 0.9797
vt 0.4382 0.9899
vt 0.4382 0.9797
vt 0.0661 0.9493
vt 0.1121 0.9493
vt 0.4799 0.9189
vt 0.4382 0.9189
vt 0.5977 0.527
vt 0.8506 0.0743
vt 0.8506 0.1959
vt 0.8851 0.1689
vt 0.0661 1
vt 0.1121 1
vt 0.9425 0.277
vt 0 0.6047
vt 0.0345 0.5946
vt 0.4799 0.9696
vt 0.4382 0.9696
vt 0.4799 0.9899
vt 0.4382 1
vt 0.9425 0.0878
vt 0.9425 0.2905
vt 0.9598 0.0304
vt 0.9425 0.1554
vt 0.4828 0.6453
vt 0.4353 0.6453
vt 0.7471 0.0946
vt 0.7471 0.1216
vt 0.4828 0.1892
vt 0.4253 0.2432
vt 0.9598 0.2736
vt 0.1379 0.2162
vt 0.8506 0.0473
vt 0.8391 0.0709
vt 0.8391 0.0507
vt 0.5287 0.3649
vt 0.4828 0.3919
vt 0.4828 0.3378
vt 0.6667 0.3108
vt 0.2069 0.2568
vt 0.2529 0.2973
vt 0.2069 0.2838
vt 0.5287 0.2027
vt 0.5287 0.2432
vt 0.4828 0.2297
vt 0.4828 0.473
vt 0.4828 0.4189
vt 0.2529 0.3514
vt 0.2069 0.3108
vt 0.2069 0.0946
vt 0.2529 0.1351
vt 0.2069 0.1216
vt 0.6667 0.0946
vt 0.6207 0.1216
vt 0.6207 0.0811
vt 0.7471 0.1486
vt 0.7011 0.1892
vt 0.6667 0.1892
vt 0.7471 0.2568
vt 0.7011 0.2973
vt 0.7011 0.2432
vt 0.3103 0.3514
vt 0.6667 0.2432
vt 0.1379 0.8108
vt 0.1724 0.7568
vt 0.2069 0.1757
vt 0.2069 0.1486
vt 0.2069 0.3919
vt 0.2069 0.3649
vt 0.6667 0.3919
vt 0.6207 0.4054
vt 0.6207 0.3649
vt 0.6667 0.473
vt 0.6207 0.4459
vt 0.7471 0.3108
vt 0.5287 0.1622
vt 0.5287 0.1216
vt 0.1379 0.0405
vt 0.1724 0
vt 0.6667 0.2973
vt 0.7471 0.2297
vt 0.4828 0.3108
vt 0.3103 0.5135
vt 0.2759 0.4865
vt 0.2529 0.1892
vt 0.2069 0.2297
vt 0.2069 0.2027
vt 0.6667 0.5541
vt 0.5287 0.527
vt 0.4828 0.5541
vt 0.7471 0.3919
vt 0.7471 0.3649
vt 0.7471 0.4865
vt 0.7011 0.4459
vt 0.3103 0.4865
vt 0.3103 0.5676
vt 0.3448 0.5946
vt 0.5747 0.6486
vt 0.5287 0.6081
vt 0.1379 0.1351
vt 0.1724 0.1081
vt 0.1724 0.1351
vt 0.5747 0
vt 0.5747 0.0405
vt 0.6667 -0
vt 0.4828 -0
vt 0.5287 0.0405
vt 0.9195 -0
vt 0.4253 0.5135
vt 0.5287 0.6486
vt 0.4828 0.6081
vt 0.4253 0.4865
vt 0.1379 0.1622
vt 0.8851 0.25
vt 0.1379 0.1081
vt 0.1379 0.2432
vt 0.7011 0.4865
vt 0.6667 0.4459
vt 0.6667 0.6486
vt 0.6667 0.6081
vt 0.5517 0.3649
vt 0.5287 0.4054
vt 0.7471 0.2162
vt 0.7471 0.2973
vt 0.7931 0.277
vt 0.7931 0.2973
vt 0.5517 0.2027
vt 0.5287 0.8649
vt 0.7931 0.2568
vt 0.8506 0.4392
vt 0.8851 0.4392
vt 0.7471 0.277
vt 0.7471 0.3378
vt 0.7931 0.3176
vt 0.0661 0.9797
vt 0.7471 0.3176
vt 0.8506 0.1149
vt 0.8851 0.1149
vt 0.1293 0.9291
vt 0.1207 0.9797
vt 0.1264 0.9899
vt 0.1293 0.9797
vt 0.1293 1
vt 0.1293 0.9189
vt 0.1322 0.9291
vt 0.9425 0.1689
vt 0.8506 0.3986
vt 0.8851 0.3716
vt 0.4799 0.9392
vt 0.0661 0.9291
vt 0.1121 0.9189
vt 0.8506 0.0338
vt 0.8851 0.0338
vt 0.9425 0.4122
vt 0.1006 0.625
vt 0.9598 0.152
vt 0.5977 0.2027
vt 0.6207 0.1622
vt 0.0661 0.9696
vt 0.5517 0.4865
vt 0.5977 0.2838
vt 0.5977 0.4459
vt 0.5977 0.3649
vt 0.5977 0.4054
vt 0.3678 0.7027
vt 0.4253 0.7027
vt 0.5747 0.973
vt 0.5862 0.9595
vt 0.6207 0.973
vt 0.7667 0.5555
vt 0.3966 0.9595
vt 0.3549 0.9696
vt 0.3549 0.9595
vt 0.9017 0.7095
vt 0.8848 0.4972
vt 0.8509 0.4865
vt 0.5517 0.1622
vt 0.5977 0.2432
vt 0.8391 0.277
vt 0.8391 0.2973
vt 0.5632 0.6622
vt 0.5747 0.7027
vt 0.5287 0.7027
vt 0.4828 0.5676
vt 0.8391 0.1959
vt 0.8391 0.2162
vt 0.3908 0.4865
vt 0.8391 0.3378
vt 0.2299 0.9899
vt 0.1882 1
vt 0.1882 0.9899
vt 0.3549 0.9493
vt 0.1509 0.5946
vt 0.1983 0.6047
vt 0.1509 0.6047
vt 0.8502 0.5608
vt 0.8248 0.598
vt 0.8248 0.5237
vt 0.7994 0.5608
vt 0.7994 0.7095
vt 0.1983 0.6453
vt 0.1509 0.6453
vt 0.3879 0.6554
vt 0.3405 0.6655
vt 0.3405 0.6554
vt 0.1509 0.6554
vt 0.6207 0.9189
vt 0.6207 0.8649
vt 0.7011 0.0811
vt 0.2069 0.1351
vt 0.2069 0.1622
vt 0.2069 0.1081
vt 0.2457 0.5946
vt 0.8391 0.2568
vt 0.8391 0.3176
vt 0.2457 0.6351
vt 0.5517 0.473
vt 0.5977 0.3986
vt 0.5977 0.473
vt 0.2529 0.0811
vt 0.4828 0.2973
vt 0.4828 0.2432
vt 0.7994 0.6351
vt 0.8502 0.6351
vt 0.3966 0.9291
vt 0.3549 0.9392
vt 0.3549 0.9291
vt 0.8248 0.6723
vt 0.4828 0.7027
vt 0.8163 0.7731
vt 0.9344 0.7148
vt 0.9181 0.7121
vt 0.3132 0.9291
vt 0.6207 0.8108
vt 0.6667 0.8108
vt 0.4828 0.4459
vt 0.4828 0.4054
vt 0.2299 0.9797
vt 0.1882 0.9797
vt 0.2299 0.9696
vt 0.1882 0.9696
vt 0.1983 0.6554
vt 0.1509 0.6655
vt 0.3678 0.8108
vt 0.2529 0.8108
vt 0.3879 0.625
vt 0.3405 0.6351
vt 0.3405 0.625
vt 0.3678 0.9189
vt 0.3678 0
vt 0.2529 0.7027
vt 0.3103 0.7027
vt 0.4828 0.3514
vt 0.1509 0.6149
vt 0.3879 0.6453
vt 0.3405 0.6453
vt 0.4828 0.8108
vt 0.4828 0.7568
vt 0.3879 0.6149
vt 0.3405 0.6149
vt 0.3966 0.9696
vt 0.3549 0.9797
vt 0.5287 0.8108
vt 0.5747 0.8649
vt 0.5747 0.8108
vt 0.3678 0.4865
vt 0.3966 0.9392
vt 0.3966 0.9899
vt 0.3549 1
vt 0.3549 0.9899
vt 0.3879 0.6351
vt 0.5747 0.9189
vt 0.3966 0.9797
vt 0.3966 0.9189
vt 0.3549 0.9189
vt 0.2931 0.625
vt 0.4828 0.0811
vt 0.092 0
vt 0.1379 0
vt 0.2299 0.9291
vt 0.1882 0.9392
vt 0.1882 0.9291
vt 0.1724 0.3243
vt 0.2069 0.2838
vt 0.2069 0.3243
vt 0.8391 0.1757
vt 0.5517 0.2432
vt 0.4598 0.5946
vt 0.6667 0.1486
vt 0.4828 0.1486
vt 0.5287 0
vt 0.1379 0.3243
vt 0.2069 0.2432
vt 0.5287 0.7568
vt 0.5747 0.7568
vt 0.1983 0.5946
vt 0.2069 0.4054
vt 0.046 0
vt 0.5517 0.3986
vt 0.5977 0.3243
vt 0.3103 0
vt 0.2299 0.9189
vt 0.1882 0.9189
vt 0.4828 0.5
vt 0.4828 0.0946
vt 0.774 0.6723
vt 0.6207 0.7568
vt 0.1983 0.6655
vt 0.1509 0.6757
vt 0.2299 0.9392
vt 0.5517 0.4054
vt 0.7069 0.8514
vt 0.3678 0.2432
vt 0.1983 0.6149
vt 0.8502 0.4865
vt 0.4828 0.4865
vt 0.2931 0.5946
vt 0.7069 0.8108
vt 0.7577 0.675
vt 0.9435 0.5953
vt 0.6667 0.5676
vt 0.5517 0.3243
vt 0.8391 0.2365
vt 0.3879 0.6655
vt 0.3405 0.6757
vt 0.3879 0.6047
vt 0.3405 0.6047
vt 0.3879 0.5946
vt 0.3405 0.5946
vt 0.5517 0.3243
vt 0.3132 1
vt 0.6667 0.4054
vt 0.2931 0.6351
vt 0.7831 0.5581
vt 0.2931 0.6757
vt 0.5977 0.1216
vt 0.5517 0.527
vt 0.5977 0.4865
vt 0.5977 0.1622
vt 0.1983 0.625
vt 0.2299 1
vt 0.2299 0.9493
vt 0.1983 0.6757
vt 0.1466 0.9493
vt 0.1466 0.9392
vt 0.1466 0.9291
vt 0.1466 0.9189
vt 0.1034 0.625
vt 0.1034 0.6149
vt 0.1034 0.6554
vt 0.1034 0.6453
vt 0.1466 0.9899
vt 0.1466 0.9797
vt 0.1034 0.6757
vt 0.1034 0.6655
vt 0.1466 0.9696
vt 0.1466 1
vt 0.1034 0.6047
vt 0.1034 0.5946
vt 0.3132 0.9493
vt 0.3966 0.9493
vt 0.3966 1
vt 0.3879 0.6757
vt 0.8391 0.152
vt 0.8391 0.3345
vt 0.9598 0.4561
vt 0.8391 0.2128
vt 0.9598 0.0912
vt 0.8391 0.2736
vt 0.9598 0.0507
vt 0.9598 0.3345
vt 0.9598 0.4155
vt 0.9598 0.2939
vt 0.9598 0.375
vt 0.8391 0.2939
vt 0.2529 0.5946
vt 0.3678 0.5946
vt 0.1437 0.9493
vt 0.4799 0.9493
vt 0.4828 0.6757
vt 0.5517 0.1757
vt 0.6667 0.1757
vt 0.3908 0.5946
vt 0.2069 0.4865
vt 0.7471 0.1351
vt 0 0.5946
vt 0.4799 1
vt 0.6667 0.2568
vt 0.4828 0.1757
vt 0.2069 0.3378
vt 0.7471 0.2838
vt 0.1379 0.7568
vt 0.6667 0.3378
vt 0.6667 0.4189
vt 0.7471 0.2027
vt 0.4828 0.2568
vt 0.4828 0.6486
vt 0.4598 0.4865
vt 0.6667 0.4865
vt 0.0661 0.9189
s 1
f 137/5 117/6 115/7
f 108/8 155/9 107/10
f 145/11 284/12 283/13
f 124/14 128/15 125/16
f 150/17 289/18 288/19
f 141/20 292/21 291/22
f 134/23 120/24 119/25
f 110/26 159/27 158/28
f 125/16 127/29 126/30
f 152/31 103/32 104/33
f 154/34 105/35 106/36
f 196/37 183/38 184/39
f 191/40 178/41 179/42
f 132/43 120/24 133/44
f 114/45 151/46 162/47
f 130/48 122/49 131/50
f 121/51 131/52 122/49
f 112/53 161/54 160/55
f 135/56 119/25 118/57
f 127/58 116/59 126/30
f 137/60 116/59 138/61
f 123/62 129/63 124/64
f 107/10 154/65 106/36
f 190/66 177/67 178/68
f 143/69 282/70 293/71
f 105/35 152/72 104/33
f 145/73 282/74 144/75
f 157/76 108/8 109/77
f 114/45 161/78 113/79
f 288/80 149/81 150/82
f 246/83 384/84 245/85
f 185/86 196/87 184/88
f 136/89 118/57 117/6
f 285/90 146/91 147/92
f 192/93 179/94 180/95
f 193/96 180/97 181/98
f 164/99 165/100 199/101
f 165/102 166/103 199/104
f 166/105 167/106 199/107
f 167/108 168/109 199/110
f 168/111 169/112 199/113
f 169/114 170/115 199/116
f 170/117 171/118 199/119
f 171/120 172/121 199/122
f 172/123 173/124 199/125
f 173/126 174/127 199/128
f 174/129 163/130 199/131
f 163/132 164/133 199/134
f 339/135 774/136 770/137
f 422/138 244/139 510/140
f 277/141 279/142 446/143
f 714/144 272/145 432/146
f 139/147 290/148 289/149
f 182/150 193/151 181/152
f 110/26 157/153 109/77
f 148/154 285/155 147/156
f 183/157 194/158 182/159
f 175/160 188/161 176/162
f 186/163 197/164 185/165
f 177/166 187/167 175/168
f 111/169 160/170 159/171
f 176/172 198/173 186/174
f 287/175 148/176 149/177
f 140/178 291/179 290/180
f 79/181 491/182 494/183
f 421/184 422/185 389/186
f 399/187 605/188 606/189
f 411/190 414/191 409/192
f 96/193 751/194 753/195
f 401/191 407/196 406/197
f 404/198 426/199 400/200
f 257/201 518/202 540/203
f 660/204 201/205 595/206
f 410/207 429/208 412/209
f 175/160 151/210 152/31
f 126/30 103/32 114/45
f 277/211 538/212 536/213
f 391/214 228/215 520/216
f 260/217 679/218 434/219
f 256/220 575/221 442/222
f 442/222 432/223 272/224
f 705/225 706/226 722/227
f 506/228 595/206 665/229
f 636/230 250/231 638/232
f 495/233 735/234 733/235
f 658/236 526/237 671/238
f 496/239 737/240 738/241
f 561/242 762/243 740/244
f 533/245 233/246 241/247
f 471/248 30/249 31/250
f 574/251 265/252 418/253
f 663/254 509/255 662/256
f 575/221 264/257 432/223
f 485/258 731/259 730/260
f 492/261 67/262 68/249
f 599/263 572/264 658/236
f 489/265 72/266 65/267
f 500/268 734/269 737/240
f 439/270 418/253 257/271
f 501/258 732/259 725/260
f 567/272 765/273 763/274
f 491/182 69/250 70/275
f 573/276 257/201 540/203
f 555/277 784/244 746/273
f 671/238 515/278 666/279
f 490/280 71/281 72/266
f 406/197 428/282 401/283
f 280/284 574/251 439/270
f 563/277 740/244 765/273
f 571/285 252/286 524/287
f 551/288 291/289 292/290
f 610/291 652/292 721/293
f 276/294 573/276 534/295
f 488/296 66/297 67/298
f 473/265 34/266 27/267
f 803/299 678/300 832/301
f 418/253 611/302 438/303
f 624/304 708/305 258/306
f 603/307 465/308 262/309
f 240/310 207/311 248/312
f 207/311 216/313 248/312
f 216/313 224/314 232/315
f 230/316 223/317 222/318
f 710/319 424/320 681/321
f 739/322 557/323 768/324
f 274/325 273/326 275/327
f 273/326 277/141 275/327
f 277/141 278/328 279/142
f 95/209 752/329 754/330
f 258/331 691/332 518/202
f 566/333 766/322 764/334
f 269/335 571/285 529/336
f 548/337 290/338 291/339
f 534/295 540/203 225/340
f 700/341 598/342 720/343
f 442/344 255/345 256/346
f 556/347 782/348 749/349
f 477/350 27/267 28/297
f 666/279 512/351 664/352
f 476/261 29/262 30/249
f 529/336 524/287 253/353
f 404/198 427/354 402/355
f 481/356 724/235 731/259
f 711/357 420/358 712/359
f 389/186 707/360 421/184
f 451/361 692/362 386/363
f 392/364 613/365 612/366
f 388/367 452/368 453/369
f 454/370 394/371 455/372
f 394/371 654/373 455/372
f 457/374 680/375 393/376
f 397/377 458/378 459/379
f 411/190 460/380 414/191
f 577/381 670/382 522/383
f 462/380 407/196 401/191
f 400/200 405/384 404/198
f 792/385 585/386 791/387
f 712/359 600/388 607/389
f 410/207 408/390 413/391
f 830/299 655/300 825/301
f 494/183 70/275 71/281
f 615/392 433/393 714/144
f 263/394 465/308 264/395
f 393/396 504/397 204/398
f 271/399 433/393 270/400
f 305/401 551/288 543/402
f 616/403 617/404 270/400
f 269/335 617/404 468/405
f 259/406 721/293 682/407
f 591/408 679/218 259/406
f 137/5 148/176 136/409
f 147/92 134/410 135/56
f 37/411 477/350 472/296
f 40/412 471/248 475/182
f 42/413 478/183 474/280
f 187/167 165/100 164/99
f 193/151 170/115 169/114
f 313/414 320/415 312/416
f 323/417 329/418 330/419
f 31/420 45/421 46/422
f 46/422 32/423 31/420
f 326/424 334/425 327/426
f 216/313 232/315 443/427
f 32/423 48/428 33/281
f 49/429 50/430 43/431
f 45/421 53/432 46/422
f 81/431 66/433 65/434
f 49/429 55/435 56/436
f 27/434 49/429 43/431
f 350/416 366/437 351/438
f 28/433 44/439 29/440
f 44/439 51/441 29/440
f 29/442 45/421 30/443
f 45/421 29/442 52/444
f 296/445 544/446 547/447
f 183/157 158/28 159/27
f 61/448 750/449 747/450
f 302/451 541/452 545/453
f 786/454 380/455 781/456
f 59/457 744/458 741/194
f 750/449 63/459 745/460
f 60/461 747/450 742/329
f 744/330 60/461 742/329
f 191/462 168/109 167/108
f 294/463 543/402 552/464
f 124/14 113/79 112/53
f 451/465 203/466 508/467
f 625/468 398/469 600/470
f 263/471 441/472 519/473
f 120/24 109/77 108/8
f 348/474 364/424 349/475
f 68/443 84/422 69/420
f 69/420 85/476 70/423
f 71/281 87/429 72/477
f 347/478 363/479 348/474
f 214/480 213/481 507/482
f 87/429 88/430 81/431
f 90/444 84/422 83/421
f 81/431 89/441 82/439
f 366/437 372/425 373/483
f 370/484 364/424 363/479
f 85/476 93/435 86/428
f 66/433 82/439 67/440
f 82/439 89/441 67/440
f 67/485 83/421 68/443
f 83/421 67/485 90/444
f 446/143 444/486 579/487
f 77/488 492/261 487/248
f 255/345 246/489 247/490
f 219/491 659/492 661/493
f 41/181 475/182 478/183
f 190/494 167/106 166/105
f 100/495 755/460 758/449
f 463/496 411/190 430/497
f 104/33 117/6 105/35
f 444/498 537/499 578/500
f 106/36 119/25 107/10
f 266/501 531/502 527/503
f 261/504 516/505 521/506
f 313/438 327/426 328/437
f 610/507 523/508 653/509
f 179/42 154/65 155/510
f 105/35 118/57 106/36
f 36/511 473/265 477/350
f 304/512 548/311 551/288
f 623/513 708/305 719/514
f 116/59 104/33 103/32
f 303/515 545/453 548/337
f 315/516 306/517 307/518
f 318/519 309/520 310/521
f 35/522 474/280 473/265
f 141/523 128/15 129/524
f 337/525 769/526 771/527
f 319/528 310/521 311/529
f 336/530 770/137 772/531
f 150/82 137/60 138/61
f 399/532 245/85 384/84
f 143/533 130/48 131/50
f 146/534 133/535 134/23
f 316/536 307/518 308/537
f 145/73 132/43 133/44
f 375/525 777/526 779/527
f 58/193 741/194 743/195
f 185/86 160/55 161/54
f 178/68 153/538 154/34
f 38/539 472/540 476/261
f 381/541 779/527 785/542
f 376/543 780/544 777/526
f 182/150 157/153 158/545
f 177/166 152/72 153/546
f 196/87 173/124 172/123
f 39/488 476/261 471/248
f 184/39 159/171 160/170
f 195/547 172/121 171/120
f 181/98 156/548 157/76
f 198/173 163/130 174/129
f 76/539 488/540 492/261
f 98/461 756/450 752/329
f 78/412 487/248 491/182
f 64/549 743/195 748/550
f 99/448 758/449 756/450
f 197/164 174/127 173/126
f 223/317 232/551 224/552
f 211/553 657/554 659/492
f 189/555 166/103 165/102
f 278/556 536/213 533/245
f 142/557 293/558 292/559
f 514/560 235/561 202/562
f 205/563 204/398 504/397
f 125/16 114/45 113/79
f 73/522 490/280 489/265
f 200/564 234/565 233/566
f 505/567 212/568 211/569
f 510/140 243/570 235/571
f 242/572 233/573 234/565
f 102/549 753/195 757/550
f 225/574 218/575 217/576
f 87/429 65/434 72/477
f 230/577 382/578 229/579
f 224/580 215/581 223/317
f 223/317 214/582 222/318
f 443/427 441/472 575/221
f 97/457 754/458 751/194
f 207/583 239/584 206/585
f 668/586 234/565 660/204
f 239/584 205/587 206/585
f 440/588 419/589 574/251
f 218/575 209/590 217/591
f 242/572 249/592 241/593
f 238/594 237/595 511/596
f 246/597 245/85 513/598
f 240/599 247/490 239/584
f 391/214 220/600 383/601
f 445/602 439/603 573/276
f 247/490 238/604 239/584
f 215/581 207/605 206/585
f 508/467 203/466 202/606
f 425/607 400/608 428/282
f 670/382 219/491 661/493
f 80/413 494/183 490/280
f 210/609 200/610 209/611
f 254/612 253/353 384/84
f 385/613 252/286 251/614
f 256/615 247/490 248/616
f 272/617 528/618 442/344
f 75/411 493/350 488/296
f 638/232 242/572 668/586
f 709/619 527/503 636/230
f 461/620 403/621 427/354
f 469/622 525/623 571/285
f 461/620 405/384 425/607
f 274/624 539/625 535/626
f 435/627 521/506 570/628
f 262/629 519/473 516/505
f 259/630 517/631 523/508
f 111/169 124/64 112/632
f 431/633 410/207 430/497
f 268/634 530/635 525/623
f 464/636 408/390 431/633
f 273/637 535/626 538/212
f 215/581 205/587 214/582
f 148/154 135/638 136/89
f 275/639 534/295 539/625
f 279/640 533/245 537/499
f 271/641 532/642 528/618
f 270/643 529/336 532/644
f 448/645 236/646 514/560
f 121/51 110/26 109/77
f 295/647 552/464 544/446
f 74/511 489/265 493/350
f 299/648 542/649 546/650
f 453/651 212/568 505/567
f 591/408 682/407 718/652
f 297/583 547/447 550/653
f 140/654 127/29 128/655
f 110/26 123/62 111/169
f 298/656 550/653 542/649
f 301/657 549/658 541/452
f 314/659 313/414 306/517
f 300/660 546/650 549/658
f 352/659 351/414 344/517
f 745/460 64/549 748/550
f 107/10 120/24 108/8
f 144/661 131/52 132/662
f 151/46 186/174 162/47
f 320/415 311/529 312/416
f 324/663 332/484 325/479
f 27/434 44/439 28/433
f 310/474 326/424 311/475
f 34/477 48/428 49/429
f 306/664 323/417 307/665
f 311/475 327/426 312/416
f 328/437 329/418 322/666
f 306/664 328/437 322/666
f 44/439 50/430 51/441
f 334/425 328/437 327/426
f 91/432 85/476 84/422
f 87/429 93/435 94/436
f 307/665 323/417 308/667
f 323/417 330/419 308/667
f 308/668 324/663 309/478
f 324/663 308/668 331/669
f 180/95 155/9 156/670
f 357/528 348/521 349/529
f 139/671 138/672 127/58
f 340/673 776/454 774/136
f 342/455 775/542 773/456
f 350/416 357/528 349/529
f 101/459 757/550 755/460
f 353/516 344/517 345/518
f 338/543 772/544 769/526
f 343/541 771/527 775/542
f 194/158 171/118 170/117
f 355/674 346/675 347/520
f 142/676 129/63 130/677
f 317/674 308/675 309/520
f 186/163 161/78 162/678
f 374/530 778/137 780/531
f 366/437 344/664 351/438
f 332/484 326/424 325/479
f 53/432 47/476 46/422
f 85/476 71/281 70/423
f 360/666 345/665 344/664
f 350/416 364/424 365/426
f 366/437 367/418 360/666
f 310/474 324/663 325/479
f 369/669 363/479 362/663
f 54/679 48/428 47/476
f 360/666 368/419 361/417
f 364/424 372/425 365/426
f 345/665 361/417 346/667
f 361/417 368/419 346/667
f 346/668 362/663 347/478
f 362/663 346/668 369/669
f 192/680 169/112 168/111
f 454/681 221/682 507/482
f 359/683 350/416 351/414
f 354/536 345/518 346/537
f 380/455 785/542 781/456
f 390/684 385/613 244/139
f 776/454 342/455 773/456
f 188/161 164/133 163/132
f 378/673 786/454 783/136
f 456/685 213/481 504/397
f 377/135 783/136 778/137
f 459/686 237/595 513/598
f 356/519 347/520 348/521
f 457/687 204/398 511/596
f 391/214 383/601 228/215
f 396/688 511/596 237/595
f 257/271 438/303 624/304
f 722/227 417/689 599/690
f 606/189 605/188 711/357
f 435/691 608/692 261/693
f 387/694 453/369 452/368
f 687/695 839/696 837/697
f 606/189 711/357 423/698
f 395/699 455/372 398/700
f 388/701 505/567 220/600
f 394/702 507/482 213/481
f 546/650 286/703 287/704
f 469/622 586/705 268/634
f 565/323 763/274 761/324
f 586/705 467/706 593/707
f 525/623 251/708 252/286
f 544/446 282/709 283/710
f 414/711 431/633 409/192
f 545/453 289/712 290/338
f 493/350 65/267 66/297
f 766/322 565/323 761/324
f 621/713 826/714 804/715
f 840/716 687/695 837/697
f 793/717 581/718 787/719
f 625/720 622/721 614/722
f 421/184 613/365 392/364
f 622/721 450/723 614/722
f 707/360 449/724 421/184
f 791/387 589/725 794/726
f 698/695 849/696 845/697
f 628/727 805/728 807/729
f 589/725 795/730 794/726
f 265/252 598/342 611/302
f 710/319 711/357 712/359
f 662/256 210/609 218/575
f 261/693 618/731 262/309
f 262/309 715/732 603/307
f 516/505 231/733 230/316
f 538/212 209/734 200/735
f 570/628 229/579 520/216
f 480/239 726/240 723/241
f 539/625 225/340 217/736
f 729/737 480/239 723/241
f 542/649 285/738 286/703
f 549/658 287/704 288/739
f 541/452 288/739 289/712
f 474/280 33/281 34/266
f 727/740 485/258 730/260
f 32/275 471/248 31/250
f 392/741 605/742 399/743
f 518/202 663/254 226/744
f 235/745 657/554 202/746
f 622/721 648/747 450/723
f 447/748 622/721 625/720
f 695/749 847/750 842/751
f 447/748 620/752 622/721
f 268/634 593/707 267/753
f 455/372 607/389 398/700
f 390/754 421/184 392/364
f 396/755 649/756 457/374
f 554/757 767/334 782/348
f 603/307 647/758 466/759
f 458/378 606/189 423/698
f 798/385 601/386 800/387
f 530/760 671/238 251/761
f 423/698 649/756 458/378
f 605/188 420/358 711/357
f 631/762 848/715 810/763
f 438/303 708/305 624/304
f 672/764 829/763 827/765
f 665/229 201/205 210/609
f 612/366 620/752 447/748
f 613/365 449/724 620/752
f 536/213 200/735 233/246
f 590/766 788/767 795/730
f 576/768 720/343 706/226
f 611/302 416/769 438/303
f 850/716 698/695 845/697
f 646/770 819/771 822/772
f 437/773 719/514 652/292
f 437/774 653/509 577/381
f 661/493 506/228 509/255
f 720/343 266/775 709/776
f 243/777 664/352 235/745
f 641/727 815/728 817/729
f 604/718 801/778 802/719
f 633/779 807/729 812/780
f 436/781 722/227 609/782
f 609/782 599/690 267/753
f 644/783 822/772 820/784
f 703/785 843/786 849/696
f 718/652 436/781 669/787
f 667/788 669/787 569/789
f 417/790 636/230 572/264
f 688/791 840/716 838/750
f 683/792 836/793 833/794
f 643/795 821/780 819/771
f 809/771 633/779 812/780
f 470/796 718/652 667/788
f 696/797 841/794 843/786
f 701/791 850/716 847/750
f 697/798 842/751 844/799
f 581/718 790/778 787/719
f 825/301 672/764 827/765
f 689/785 835/786 839/696
f 502/800 736/740 734/269
f 497/356 733/235 732/259
f 686/798 834/751 836/799
f 540/203 226/744 225/340
f 653/509 227/801 670/382
f 445/602 440/802 280/803
f 276/294 579/487 445/602
f 684/749 838/750 834/751
f 699/804 831/805 846/806
f 419/807 531/808 265/809
f 552/464 293/810 282/709
f 387/811 508/467 212/568
f 521/506 230/316 229/579
f 680/375 681/321 393/376
f 412/812 430/497 410/207
f 517/631 520/216 228/215
f 222/813 221/682 382/578
f 383/601 220/600 219/814
f 260/815 570/628 517/631
f 281/816 578/500 419/807
f 680/375 710/319 681/321
f 710/319 712/359 424/320
f 622/721 620/752 648/747
f 578/500 249/817 531/808
f 569/789 717/818 637/819
f 597/820 802/719 799/717
f 712/359 607/389 424/320
f 527/503 249/821 250/231
f 487/248 68/249 69/250
f 579/487 281/822 440/802
f 612/823 420/824 605/742
f 623/825 577/381 691/332
f 717/818 267/753 593/707
f 656/826 823/806 826/827
f 637/819 593/707 467/706
f 691/332 522/383 663/254
f 519/473 232/315 231/733
f 600/388 398/700 607/389
f 620/752 449/724 648/747
f 651/764 810/763 824/765
f 478/183 32/275 33/281
f 243/828 385/613 251/614
f 407/196 425/607 406/197
f 227/829 383/601 219/814
f 535/626 217/736 209/734
f 509/255 665/229 662/256
f 693/830 386/363 692/362
f 715/732 569/789 647/758
f 716/831 467/706 616/403
f 582/832 793/833 788/767
f 648/747 692/362 450/723
f 702/713 813/714 848/715
f 592/766 797/767 796/730
f 832/301 651/764 824/765
f 676/834 803/299 831/805
f 648/747 693/830 692/362
f 615/392 616/403 270/400
f 650/804 828/805 823/806
f 389/835 510/140 236/646
f 601/386 789/726 800/387
f 713/836 432/146 264/395
f 423/698 711/357 710/319
f 423/698 710/319 680/375
f 664/352 503/837 657/554
f 420/358 600/388 712/359
f 466/759 713/836 603/307
f 584/838 792/385 790/778
f 466/759 716/831 615/392
f 625/720 614/722 391/839
f 594/832 799/833 797/767
f 267/840 658/236 530/760
f 226/744 662/256 218/575
f 572/264 638/232 526/237
f 759/348 673/834 650/804
f 674/762 804/715 829/763
f 251/761 666/279 243/777
f 583/725 796/730 789/726
f 721/293 576/768 705/225
f 682/407 705/225 436/781
f 602/838 798/385 801/778
f 498/841 738/241 735/737
f 835/786 553/242 555/277
f 466/759 714/144 580/842
f 448/843 693/830 449/724
f 654/373 424/320 455/372
f 612/366 613/365 620/752
f 634/826 846/806 813/827
f 456/844 681/321 424/320
f 669/787 609/782 717/818
f 564/347 759/348 762/349
f 647/758 637/819 716/831
f 543/402 292/290 293/810
f 559/272 746/273 760/274
f 396/755 459/379 458/378
f 532/644 253/353 254/845
f 618/731 667/788 715/732
f 386/846 514/560 203/466
f 608/692 470/796 618/731
f 550/653 284/847 285/738
f 472/296 28/297 29/298
f 706/226 709/776 417/689
f 626/848 808/849 805/728
f 632/783 814/772 811/784
f 627/850 811/784 806/851
f 452/368 614/722 450/723
f 642/852 816/851 818/853
f 449/724 693/830 648/747
f 808/853 627/850 806/851
f 814/772 630/795 809/771
f 434/219 591/408 470/796
f 447/854 600/470 420/824
f 468/405 616/403 467/706
f 673/834 830/299 828/805
f 841/794 564/855 561/242
f 640/850 820/784 816/851
f 645/779 817/729 821/780
f 523/508 228/215 227/801
f 528/618 254/856 255/345
f 409/192 430/497 411/190
f 728/269 483/857 727/740
f 537/499 241/247 249/817
f 479/233 729/234 724/235
f 558/333 739/322 767/334
f 553/242 749/243 784/244
f 557/323 760/274 768/324
f 484/268 728/269 726/240
f 499/857 725/260 736/740
f 547/447 283/710 284/847
f 512/351 595/206 503/837
f 639/848 818/849 815/728
f 659/492 503/837 506/228
f 694/792 844/793 841/794
f 387/694 677/858 451/361
f 685/797 833/794 835/786
f 450/723 677/858 452/368
f 526/237 668/586 515/278
f 522/383 661/493 509/255
f 515/278 660/204 512/351
f 719/514 416/769 700/341
f 652/292 700/341 576/768
f 815/728 498/859 495/233
f 736/740 583/725 601/386
f 399/532 253/353 524/287
f 229/579 382/578 398/860
f 562/757 764/334 759/348
f 252/286 385/613 392/861
f 399/532 384/84 253/353
f 397/862 513/598 245/85
f 395/863 382/578 221/682
f 726/240 587/864 584/838
f 768/324 651/764 678/300
f 784/244 634/865 702/713
f 767/334 619/866 676/834
f 724/235 588/867 582/832
f 587/864 727/740 585/386
f 821/780 497/356 501/258
f 816/851 500/268 496/239
f 828/805 371/868 370/869
f 486/800 809/771 483/857
f 482/841 806/851 480/239
f 818/853 496/239 498/841
f 806/851 484/268 480/239
f 811/784 486/800 484/268
f 805/728 482/859 479/233
f 760/274 631/762 651/764
f 762/349 650/804 656/826
f 813/827 331/870 308/871
f 735/737 604/718 597/820
f 801/778 92/872 91/873
f 789/726 88/874 94/875
f 829/763 368/876 367/877
f 797/767 67/878 89/879
f 790/778 54/872 53/873
f 800/387 94/875 93/435
f 823/806 370/869 369/870
f 831/805 333/868 332/869
f 832/301 335/880 334/425
f 796/730 89/879 88/874
f 848/715 308/881 330/876
f 788/767 29/878 51/879
f 824/765 329/877 335/880
f 826/827 369/870 346/871
f 799/717 90/882 67/883
f 846/806 332/869 331/870
f 834/751 558/333 554/757
f 836/799 554/757 556/347
f 732/259 594/832 592/766
f 734/269 601/386 596/864
f 839/696 555/277 559/272
f 825/301 373/880 372/425
f 787/719 53/873 52/882
f 844/799 562/757 564/347
f 847/750 568/884 566/333
f 843/786 561/242 563/277
f 483/857 812/780 485/258
f 819/771 501/258 499/857
f 833/794 556/855 553/242
f 838/750 560/884 558/333
f 849/696 563/277 567/272
f 820/784 502/800 500/268
f 812/780 481/356 485/258
f 802/719 91/873 90/882
f 817/729 495/233 497/356
f 822/772 499/857 502/800
f 568/884 845/697 565/323
f 795/730 51/879 50/874
f 827/765 367/877 373/880
f 810/763 330/876 329/877
f 798/385 93/435 92/872
f 782/348 676/834 699/804
f 842/751 566/333 562/757
f 585/386 730/260 589/725
f 588/820 723/241 581/718
f 723/241 584/838 581/718
f 794/726 50/874 56/875
f 807/729 479/233 481/356
f 845/697 567/272 565/323
f 55/435 794/726 56/875
f 29/883 787/719 52/882
f 560/884 837/697 557/323
f 804/715 346/881 368/876
f 675/866 761/324 655/300
f 761/324 672/764 655/300
f 837/697 559/272 557/323
f 778/137 701/791 695/749
f 783/136 704/885 701/791
f 690/885 773/456 687/695
f 781/456 703/785 698/695
f 780/531 695/749 697/798
f 775/542 685/797 689/785
f 769/526 686/886 683/792
f 755/460 645/779 643/795
f 773/456 689/785 687/695
f 774/136 690/885 688/791
f 633/779 745/460 748/550
f 751/194 642/887 639/848
f 757/550 641/727 645/779
f 756/450 646/770 644/783
f 748/550 628/727 633/779
f 752/329 644/783 640/850
f 777/526 697/886 694/792
f 785/542 696/797 703/785
f 743/195 626/848 628/727
f 779/527 694/792 696/797
f 772/531 684/749 686/798
f 771/527 683/792 685/797
f 758/449 643/795 646/770
f 629/852 742/329 627/850
f 742/329 632/783 627/850
f 635/770 745/460 630/795
f 741/194 629/887 626/848
f 704/885 781/456 698/695
f 747/450 635/770 632/783
f 371/868 825/301 372/425
f 54/872 791/387 55/435
f 731/259 582/832 590/766
f 749/349 699/804 634/826
f 764/334 675/866 673/834
f 754/330 640/850 642/852
f 619/866 768/324 678/300
f 333/868 832/301 334/425
f 765/273 621/713 674/762
f 746/273 702/713 631/762
f 763/274 674/762 672/764
f 725/260 592/766 583/725
f 737/240 596/864 602/838
f 730/260 590/766 589/725
f 740/244 656/865 621/713
f 738/241 602/838 604/718
f 733/235 597/867 594/832
f 753/195 639/848 641/727
f 770/137 688/791 684/749
f 137/5 136/409 117/6
f 108/8 156/670 155/9
f 145/11 146/534 284/12
f 124/14 129/524 128/15
f 150/17 139/671 289/18
f 141/20 142/676 292/21
f 134/23 133/535 120/24
f 110/26 111/169 159/27
f 125/16 128/655 127/29
f 152/31 151/210 103/32
f 154/34 153/538 105/35
f 196/37 195/547 183/38
f 191/40 190/494 178/41
f 132/43 121/51 120/24
f 114/45 103/32 151/46
f 130/48 123/62 122/49
f 121/51 132/662 131/52
f 112/53 113/79 161/54
f 135/56 134/410 119/25
f 127/58 138/672 116/59
f 137/60 115/7 116/59
f 123/62 130/677 129/63
f 107/10 155/510 154/65
f 190/66 189/555 177/67
f 143/69 144/661 282/70
f 105/35 153/546 152/72
f 145/73 283/888 282/74
f 157/76 156/548 108/8
f 114/45 162/678 161/78
f 288/80 287/889 149/81
f 246/83 254/612 384/84
f 185/86 197/890 196/87
f 136/89 135/638 118/57
f 285/90 284/891 146/91
f 192/93 191/462 179/94
f 193/96 192/680 180/97
f 339/135 340/673 774/136
f 422/138 390/684 244/139
f 446/143 276/294 275/327
f 275/327 277/141 446/143
f 432/146 580/842 714/144
f 714/144 433/393 272/145
f 139/147 140/654 290/148
f 182/150 194/892 193/151
f 110/26 158/545 157/153
f 148/154 286/893 285/155
f 183/157 195/894 194/158
f 175/160 187/895 188/161
f 186/163 198/896 197/164
f 177/166 189/897 187/167
f 111/169 112/632 160/170
f 176/172 188/898 198/173
f 287/175 286/899 148/176
f 140/178 141/523 291/179
f 79/181 78/412 491/182
f 96/193 97/457 751/194
f 404/198 402/900 426/199
f 257/201 258/331 518/202
f 660/204 234/565 201/205
f 410/207 413/391 429/208
f 175/160 176/162 151/210
f 126/30 116/59 103/32
f 277/211 273/637 538/212
f 229/579 398/860 520/216
f 398/860 391/214 520/216
f 434/219 435/691 260/217
f 260/217 259/406 679/218
f 256/220 443/427 575/221
f 442/222 575/221 432/223
f 705/225 576/768 706/226
f 506/228 503/837 595/206
f 636/230 527/503 250/231
f 495/233 498/859 735/234
f 658/236 572/264 526/237
f 496/239 500/268 737/240
f 561/242 564/855 762/243
f 533/245 536/213 233/246
f 471/248 476/261 30/249
f 574/251 419/589 265/252
f 663/254 522/383 509/255
f 575/221 441/472 264/257
f 485/258 481/356 731/259
f 492/261 488/540 67/262
f 599/263 417/790 572/264
f 489/265 490/280 72/266
f 500/268 502/800 734/269
f 439/270 574/251 418/253
f 501/258 497/356 732/259
f 567/272 563/277 765/273
f 491/182 487/248 69/250
f 573/276 439/603 257/201
f 555/277 553/242 784/244
f 671/238 526/237 515/278
f 490/280 494/183 71/281
f 406/197 425/607 428/282
f 280/284 440/588 574/251
f 563/277 561/242 740/244
f 571/285 525/623 252/286
f 551/288 548/311 291/289
f 610/291 437/773 652/292
f 276/294 445/602 573/276
f 488/296 493/350 66/297
f 473/265 474/280 34/266
f 803/299 619/866 678/300
f 418/253 265/252 611/302
f 603/307 713/836 465/308
f 230/316 231/733 223/317
f 739/322 560/884 557/323
f 95/209 98/461 752/329
f 258/331 623/825 691/332
f 566/333 568/884 766/322
f 269/335 469/622 571/285
f 548/337 545/453 290/338
f 534/295 573/276 540/203
f 700/341 416/769 598/342
f 442/344 528/618 255/345
f 556/347 554/757 782/348
f 477/350 473/265 27/267
f 666/279 515/278 512/351
f 476/261 472/540 29/262
f 529/336 571/285 524/287
f 404/198 461/620 427/354
f 481/356 479/233 724/235
f 389/186 448/843 707/360
f 451/361 450/723 692/362
f 388/367 391/839 452/368
f 394/371 456/844 654/373
f 457/374 423/698 680/375
f 397/377 399/187 458/378
f 411/190 415/901 460/380
f 577/381 653/509 670/382
f 462/380 403/901 407/196
f 792/385 587/864 585/386
f 830/299 675/866 655/300
f 494/183 491/182 70/275
f 615/392 270/400 433/393
f 263/394 262/309 465/308
f 393/396 456/685 504/397
f 271/399 272/145 433/393
f 305/401 304/512 551/288
f 468/405 469/622 269/335
f 269/335 270/400 617/404
f 259/406 610/291 721/293
f 137/5 149/177 148/176
f 147/92 146/91 134/410
f 37/411 36/511 477/350
f 40/412 39/488 471/248
f 42/413 41/181 478/183
f 187/167 189/897 165/100
f 193/151 194/892 170/115
f 313/414 321/683 320/415
f 323/417 322/666 329/418
f 31/420 30/443 45/421
f 46/422 47/476 32/423
f 326/424 333/902 334/425
f 443/427 256/220 248/312
f 248/312 216/313 443/427
f 32/423 47/476 48/428
f 49/429 56/436 50/430
f 45/421 52/444 53/432
f 81/431 82/439 66/433
f 49/429 48/428 55/435
f 27/434 34/477 49/429
f 350/416 365/426 366/437
f 296/445 295/647 544/446
f 183/157 182/159 158/28
f 61/448 62/495 750/449
f 302/451 301/657 541/452
f 786/454 379/903 380/455
f 59/457 57/904 744/458
f 750/449 62/495 63/459
f 60/461 61/448 747/450
f 744/330 57/209 60/461
f 191/462 192/93 168/109
f 294/463 305/401 543/402
f 124/14 125/16 113/79
f 451/465 386/846 203/466
f 625/468 391/905 398/469
f 263/471 264/257 441/472
f 120/24 121/51 109/77
f 348/474 363/479 364/424
f 68/443 83/421 84/422
f 69/420 84/422 85/476
f 71/281 86/428 87/429
f 347/478 362/663 363/479
f 507/482 221/682 222/906
f 222/906 214/480 507/482
f 87/429 94/436 88/430
f 90/444 91/432 84/422
f 81/431 88/430 89/441
f 366/437 365/426 372/425
f 370/484 371/902 364/424
f 85/476 92/679 93/435
f 446/143 279/142 444/486
f 77/488 76/539 492/261
f 255/345 254/856 246/489
f 219/491 211/553 659/492
f 41/181 40/412 475/182
f 190/494 191/40 167/106
f 100/495 101/459 755/460
f 463/496 415/907 411/190
f 104/33 115/7 117/6
f 444/498 279/640 537/499
f 106/36 118/57 119/25
f 266/501 265/908 531/502
f 261/504 262/629 516/505
f 313/438 312/416 327/426
f 610/507 259/630 523/508
f 179/42 178/41 154/65
f 105/35 117/6 118/57
f 36/511 35/522 473/265
f 304/512 303/909 548/311
f 623/513 258/306 708/305
f 116/59 115/7 104/33
f 303/515 302/451 545/453
f 315/516 314/659 306/517
f 318/519 317/674 309/520
f 35/522 42/413 474/280
f 141/523 140/178 128/15
f 337/525 338/543 769/526
f 319/528 318/519 310/521
f 336/530 339/135 770/137
f 150/82 149/81 137/60
f 399/532 397/862 245/85
f 143/533 142/557 130/48
f 146/534 145/11 133/535
f 316/536 315/516 307/518
f 145/73 144/75 132/43
f 375/525 376/543 777/526
f 58/193 59/457 741/194
f 185/86 184/88 160/55
f 178/68 177/67 153/538
f 38/539 37/910 472/540
f 381/541 375/525 779/527
f 376/543 374/911 780/544
f 182/150 181/152 157/153
f 177/166 175/168 152/72
f 196/87 197/890 173/124
f 39/488 38/539 476/261
f 184/39 183/38 159/171
f 195/547 196/37 172/121
f 181/98 180/97 156/548
f 198/173 188/898 163/130
f 76/539 75/910 488/540
f 98/461 99/448 756/450
f 78/412 77/488 487/248
f 64/549 58/193 743/195
f 99/448 100/495 758/449
f 197/164 198/896 174/127
f 223/317 231/733 232/551
f 211/553 202/746 657/554
f 189/555 190/66 166/103
f 278/556 277/211 536/213
f 142/557 143/533 293/558
f 202/562 203/466 514/560
f 514/560 236/646 235/561
f 504/397 213/481 214/912
f 214/912 205/563 504/397
f 125/16 126/30 114/45
f 73/522 80/413 490/280
f 200/564 201/205 234/565
f 211/569 219/913 505/567
f 219/913 220/600 505/567
f 235/571 236/646 510/140
f 510/140 244/139 243/570
f 242/572 241/914 233/573
f 102/549 96/193 753/195
f 225/574 226/744 218/575
f 87/429 81/431 65/434
f 230/577 222/813 382/578
f 224/580 216/401 215/581
f 223/317 215/581 214/582
f 443/427 232/315 441/472
f 97/457 95/904 754/458
f 207/583 240/915 239/584
f 668/586 242/572 234/565
f 239/584 238/604 205/587
f 440/588 281/916 419/589
f 218/575 210/609 209/590
f 242/572 250/231 249/592
f 204/398 205/917 511/596
f 205/917 238/594 511/596
f 237/595 238/918 513/598
f 238/918 246/597 513/598
f 240/599 248/657 247/490
f 391/214 388/701 220/600
f 445/602 280/803 439/603
f 247/490 246/489 238/604
f 215/581 216/919 207/605
f 202/606 211/920 508/467
f 211/920 212/568 508/467
f 425/607 405/384 400/608
f 670/382 227/801 219/491
f 80/413 79/181 494/183
f 210/609 201/205 200/610
f 256/615 255/345 247/490
f 272/617 271/641 528/618
f 75/411 74/511 493/350
f 638/232 250/231 242/572
f 709/619 266/501 527/503
f 461/620 407/196 403/621
f 469/622 268/634 525/623
f 461/620 404/198 405/384
f 274/624 275/639 539/625
f 435/627 261/504 521/506
f 262/629 263/471 519/473
f 259/630 260/815 517/631
f 111/169 123/62 124/64
f 431/633 408/390 410/207
f 268/634 267/921 530/635
f 464/636 413/922 408/390
f 273/637 274/624 535/626
f 215/581 206/585 205/587
f 148/154 147/156 135/638
f 275/639 276/294 534/295
f 279/640 278/556 533/245
f 271/641 270/923 532/642
f 270/643 269/335 529/336
f 448/645 389/835 236/646
f 121/51 122/49 110/26
f 295/647 294/463 552/464
f 74/511 73/522 489/265
f 299/648 298/656 542/649
f 453/651 387/811 212/568
f 591/408 259/406 682/407
f 297/583 296/445 547/447
f 140/654 139/147 127/29
f 110/26 122/49 123/62
f 298/656 297/583 550/653
f 301/657 300/660 549/658
f 314/659 321/683 313/414
f 300/660 299/648 546/650
f 352/659 359/683 351/414
f 745/460 63/459 64/549
f 107/10 119/25 120/24
f 144/661 143/69 131/52
f 151/46 176/172 186/174
f 320/415 319/528 311/529
f 324/663 331/669 332/484
f 27/434 43/431 44/439
f 310/474 325/479 326/424
f 34/477 33/281 48/428
f 306/664 322/666 323/417
f 311/475 326/424 327/426
f 328/437 335/483 329/418
f 306/664 313/438 328/437
f 44/439 43/431 50/430
f 334/425 335/483 328/437
f 91/432 92/679 85/476
f 87/429 86/428 93/435
f 180/95 179/94 155/9
f 357/528 356/519 348/521
f 139/671 150/17 138/672
f 340/673 341/903 776/454
f 342/455 343/541 775/542
f 350/416 358/415 357/528
f 101/459 102/549 757/550
f 353/516 352/659 344/517
f 338/543 336/911 772/544
f 343/541 337/525 771/527
f 194/158 195/894 171/118
f 355/674 354/924 346/675
f 142/676 141/20 129/63
f 317/674 316/924 308/675
f 186/163 185/165 161/78
f 374/530 377/135 778/137
f 366/437 360/666 344/664
f 332/484 333/902 326/424
f 53/432 54/679 47/476
f 85/476 86/428 71/281
f 360/666 361/417 345/665
f 350/416 349/475 364/424
f 366/437 373/483 367/418
f 310/474 309/478 324/663
f 369/669 370/484 363/479
f 54/679 55/435 48/428
f 360/666 367/418 368/419
f 364/424 371/902 372/425
f 192/680 193/96 169/112
f 454/681 395/863 221/682
f 359/683 358/415 350/416
f 354/536 353/516 345/518
f 380/455 381/541 785/542
f 390/684 392/861 385/613
f 776/454 341/903 342/455
f 188/161 187/895 164/133
f 378/673 379/903 786/454
f 456/685 394/702 213/481
f 377/135 378/673 783/136
f 459/686 396/688 237/595
f 356/519 355/674 347/520
f 457/687 393/396 204/398
f 396/688 457/687 511/596
f 624/304 258/306 257/271
f 257/271 418/253 438/303
f 722/227 706/226 417/689
f 435/691 434/219 608/692
f 687/695 689/785 839/696
f 395/699 454/370 455/372
f 388/701 453/651 505/567
f 394/702 454/681 507/482
f 546/650 542/649 286/703
f 469/622 468/405 586/705
f 565/323 567/272 763/274
f 586/705 468/405 467/706
f 525/623 530/635 251/708
f 544/446 552/464 282/709
f 414/711 464/636 431/633
f 545/453 541/452 289/712
f 493/350 489/265 65/267
f 766/322 568/884 565/323
f 621/713 656/865 826/714
f 840/716 690/885 687/695
f 793/717 588/820 581/718
f 421/184 449/724 613/365
f 707/360 448/843 449/724
f 791/387 585/386 589/725
f 698/695 703/785 849/696
f 628/727 626/848 805/728
f 589/725 590/766 795/730
f 265/252 266/775 598/342
f 662/256 665/229 210/609
f 261/693 608/692 618/731
f 262/309 618/731 715/732
f 516/505 519/473 231/733
f 538/212 535/626 209/734
f 570/628 521/506 229/579
f 480/239 484/268 726/240
f 539/625 534/295 225/340
f 729/737 482/841 480/239
f 542/649 550/653 285/738
f 549/658 546/650 287/704
f 541/452 549/658 288/739
f 474/280 478/183 33/281
f 727/740 483/857 485/258
f 32/275 475/182 471/248
f 392/741 612/823 605/742
f 518/202 691/332 663/254
f 235/745 664/352 657/554
f 695/749 701/791 847/750
f 268/634 586/705 593/707
f 455/372 424/320 607/389
f 390/754 422/185 421/184
f 396/755 458/378 649/756
f 554/757 558/333 767/334
f 603/307 715/732 647/758
f 458/378 399/187 606/189
f 798/385 596/864 601/386
f 530/760 658/236 671/238
f 423/698 457/374 649/756
f 631/762 702/713 848/715
f 438/303 416/769 708/305
f 672/764 674/762 829/763
f 665/229 595/206 201/205
f 536/213 538/212 200/735
f 590/766 582/832 788/767
f 576/768 700/341 720/343
f 611/302 598/342 416/769
f 850/716 704/885 698/695
f 646/770 643/795 819/771
f 437/773 623/513 719/514
f 437/774 610/507 653/509
f 661/493 659/492 506/228
f 720/343 598/342 266/775
f 243/777 666/279 664/352
f 641/727 639/848 815/728
f 604/718 602/838 801/778
f 633/779 628/727 807/729
f 436/781 705/225 722/227
f 609/782 722/227 599/690
f 644/783 646/770 822/772
f 703/785 696/797 843/786
f 718/652 682/407 436/781
f 667/788 718/652 669/787
f 417/790 709/619 636/230
f 688/791 690/885 840/716
f 683/792 686/886 836/793
f 643/795 645/779 821/780
f 809/771 630/795 633/779
f 470/796 591/408 718/652
f 696/797 694/792 841/794
f 701/791 704/885 850/716
f 697/798 695/749 842/751
f 581/718 584/838 790/778
f 825/301 655/300 672/764
f 689/785 685/797 835/786
f 502/800 499/857 736/740
f 497/356 495/233 733/235
f 686/798 684/749 834/751
f 540/203 518/202 226/744
f 653/509 523/508 227/801
f 445/602 579/487 440/802
f 276/294 446/143 579/487
f 684/749 688/791 838/750
f 699/804 676/834 831/805
f 419/807 578/500 531/808
f 552/464 543/402 293/810
f 387/811 451/465 508/467
f 521/506 516/505 230/316
f 412/812 463/496 430/497
f 517/631 570/628 520/216
f 260/815 435/627 570/628
f 281/816 444/498 578/500
f 578/500 537/499 249/817
f 569/789 669/787 717/818
f 597/820 604/718 802/719
f 527/503 531/502 249/821
f 487/248 492/261 68/249
f 579/487 444/486 281/822
f 612/823 447/854 420/824
f 623/825 437/774 577/381
f 717/818 609/782 267/753
f 656/826 650/804 823/806
f 637/819 717/818 593/707
f 691/332 577/381 522/383
f 519/473 441/472 232/315
f 651/764 631/762 810/763
f 478/183 475/182 32/275
f 243/828 244/139 385/613
f 407/196 461/620 425/607
f 227/829 228/215 383/601
f 535/626 539/625 217/736
f 509/255 506/228 665/229
f 715/732 667/788 569/789
f 716/831 637/819 467/706
f 582/832 588/867 793/833
f 702/713 634/865 813/714
f 592/766 594/832 797/767
f 832/301 678/300 651/764
f 676/834 619/866 803/299
f 615/392 716/831 616/403
f 650/804 673/834 828/805
f 389/835 422/138 510/140
f 601/386 583/725 789/726
f 264/395 465/308 713/836
f 713/836 580/842 432/146
f 664/352 512/351 503/837
f 466/759 580/842 713/836
f 584/838 587/864 792/385
f 466/759 647/758 716/831
f 594/832 597/867 799/833
f 267/840 599/263 658/236
f 226/744 663/254 662/256
f 572/264 636/230 638/232
f 759/348 764/334 673/834
f 674/762 621/713 804/715
f 251/761 671/238 666/279
f 583/725 592/766 796/730
f 721/293 652/292 576/768
f 682/407 721/293 705/225
f 602/838 596/864 798/385
f 498/841 496/239 738/241
f 835/786 833/794 553/242
f 466/759 615/392 714/144
f 448/843 386/363 693/830
f 654/373 456/844 424/320
f 634/826 699/804 846/806
f 456/844 393/376 681/321
f 669/787 436/781 609/782
f 564/347 562/757 759/348
f 647/758 569/789 637/819
f 543/402 551/288 292/290
f 559/272 555/277 746/273
f 532/644 529/336 253/353
f 618/731 470/796 667/788
f 386/846 448/645 514/560
f 608/692 434/219 470/796
f 550/653 547/447 284/847
f 472/296 477/350 28/297
f 706/226 720/343 709/776
f 626/848 629/887 808/849
f 632/783 635/770 814/772
f 627/850 632/783 811/784
f 452/368 391/839 614/722
f 642/852 640/850 816/851
f 808/853 629/852 627/850
f 814/772 635/770 630/795
f 434/219 679/218 591/408
f 447/854 625/468 600/470
f 468/405 617/404 616/403
f 673/834 675/866 830/299
f 841/794 844/793 564/855
f 640/850 644/783 820/784
f 645/779 641/727 817/729
f 523/508 517/631 228/215
f 528/618 532/642 254/856
f 409/192 431/633 430/497
f 728/269 486/800 483/857
f 537/499 533/245 241/247
f 479/233 482/859 729/234
f 558/333 560/884 739/322
f 553/242 556/855 749/243
f 557/323 559/272 760/274
f 484/268 486/800 728/269
f 499/857 501/258 725/260
f 547/447 544/446 283/710
f 512/351 660/204 595/206
f 639/848 642/887 818/849
f 659/492 657/554 503/837
f 694/792 697/886 844/793
f 387/694 452/368 677/858
f 685/797 683/792 833/794
f 450/723 451/361 677/858
f 526/237 638/232 668/586
f 522/383 670/382 661/493
f 515/278 668/586 660/204
f 719/514 708/305 416/769
f 652/292 719/514 700/341
f 815/728 818/849 498/859
f 736/740 725/260 583/725
f 524/287 252/286 392/861
f 392/861 399/532 524/287
f 562/757 566/333 764/334
f 397/862 459/686 513/598
f 395/863 398/860 382/578
f 726/240 728/269 587/864
f 768/324 760/274 651/764
f 784/244 749/243 634/865
f 767/334 739/322 619/866
f 724/235 729/234 588/867
f 587/864 728/269 727/740
f 821/780 817/729 497/356
f 816/851 820/784 500/268
f 828/805 830/299 371/868
f 486/800 814/772 809/771
f 482/841 808/853 806/851
f 818/853 816/851 496/239
f 806/851 811/784 484/268
f 811/784 814/772 486/800
f 805/728 808/849 482/859
f 760/274 746/273 631/762
f 762/349 759/348 650/804
f 813/827 846/806 331/870
f 735/737 738/241 604/718
f 801/778 798/385 92/872
f 789/726 796/730 88/874
f 829/763 804/715 368/876
f 797/767 799/833 67/878
f 790/778 792/385 54/872
f 800/387 789/726 94/875
f 823/806 828/805 370/869
f 831/805 803/299 333/868
f 832/301 824/765 335/880
f 796/730 797/767 89/879
f 848/715 813/714 308/881
f 788/767 793/833 29/878
f 824/765 810/763 329/877
f 826/827 823/806 369/870
f 799/717 802/719 90/882
f 846/806 831/805 332/869
f 834/751 838/750 558/333
f 836/799 834/751 554/757
f 732/259 733/235 594/832
f 734/269 736/740 601/386
f 839/696 835/786 555/277
f 825/301 827/765 373/880
f 787/719 790/778 53/873
f 844/799 842/751 562/757
f 847/750 850/716 568/884
f 843/786 841/794 561/242
f 483/857 809/771 812/780
f 819/771 821/780 501/258
f 833/794 836/793 556/855
f 838/750 840/716 560/884
f 849/696 843/786 563/277
f 820/784 822/772 502/800
f 812/780 807/729 481/356
f 802/719 801/778 91/873
f 817/729 815/728 495/233
f 822/772 819/771 499/857
f 568/884 850/716 845/697
f 795/730 788/767 51/879
f 827/765 829/763 367/877
f 810/763 848/715 330/876
f 798/385 800/387 93/435
f 782/348 767/334 676/834
f 842/751 847/750 566/333
f 585/386 727/740 730/260
f 588/820 729/737 723/241
f 723/241 726/240 584/838
f 794/726 795/730 50/874
f 807/729 805/728 479/233
f 845/697 849/696 567/272
f 55/435 791/387 794/726
f 29/883 793/717 787/719
f 560/884 840/716 837/697
f 804/715 826/714 346/881
f 675/866 766/322 761/324
f 761/324 763/274 672/764
f 837/697 839/696 559/272
f 778/137 783/136 701/791
f 783/136 786/454 704/885
f 690/885 776/454 773/456
f 781/456 785/542 703/785
f 780/531 778/137 695/749
f 775/542 771/527 685/797
f 769/526 772/544 686/886
f 755/460 757/550 645/779
f 773/456 775/542 689/785
f 774/136 776/454 690/885
f 633/779 630/795 745/460
f 751/194 754/458 642/887
f 757/550 753/195 641/727
f 756/450 758/449 646/770
f 748/550 743/195 628/727
f 752/329 756/450 644/783
f 777/526 780/544 697/886
f 785/542 779/527 696/797
f 743/195 741/194 626/848
f 779/527 777/526 694/792
f 772/531 770/137 684/749
f 771/527 769/526 683/792
f 758/449 755/460 643/795
f 629/852 744/330 742/329
f 742/329 747/450 632/783
f 635/770 750/449 745/460
f 741/194 744/458 629/887
f 704/885 786/454 781/456
f 747/450 750/449 635/770
f 371/868 830/299 825/301
f 54/872 792/385 791/387
f 731/259 724/235 582/832
f 749/349 782/348 699/804
f 764/334 766/322 675/866
f 754/330 752/329 640/850
f 619/866 739/322 768/324
f 333/868 803/299 832/301
f 765/273 740/244 621/713
f 746/273 784/244 702/713
f 763/274 765/273 674/762
f 725/260 732/259 592/766
f 737/240 734/269 596/864
f 730/260 731/259 590/766
f 740/244 762/243 656/865
f 738/241 737/240 602/838
f 733/235 735/234 597/867
f 753/195 751/194 639/848
f 770/137 774/136 688/791
l 208 200
