o Body
v -1.5 0 1.5
v 1.5 0 1.5
v -1.5 -0 -1.5
v 1.5 -0 -1.5
v -1.5 1 1.5
v 1.5 1 1.5
v -1.5 1 -1.5
v 1.5 1 -1.5
v -1.25 1 0.5
v 1.25 1 0.5
v -1.25 1 -0.5
v 1.25 1 -0.5
v 0.5 1 1.25
v 0.5 1 -1.25
v -0.5 1 1.25
v -0.5 1 -1.25
v -1.25 1.875 0.5
v 1.25 1.875 0.5
v -1.25 1.875 -0.5
v 1.25 1.875 -0.5
v 0.5 1.875 1.25
v 0.5 1.875 -1.25
v -0.5 1.875 1.25
v -0.5 1.875 -1.25
v -1.3125 1.875 0.5
v 1.3125 1.875 0.5
v -1.3125 1.875 -0.5
v 1.3125 1.875 -0.5
v 0.5 1.875 1.3125
v 0.5 1.875 -1.3125
v -0.5 1.875 1.3125
v -0.5 1.875 -1.3125
v -1.3125 2.125 0.5
v 1.3125 2.125 0.5
v -1.3125 2.125 -0.5
v 1.3125 2.125 -0.5
v 0.5 2.125 1.3125
v 0.5 2.125 -1.3125
v -0.5 2.125 1.3125
v -0.5 2.125 -1.3125
v -1.25 2.125 0.5
v 1.25 2.125 0.5
v -1.25 2.125 -0.5
v 1.25 2.125 -0.5
v 0.5 2.125 1.25
v 0.5 2.125 -1.25
v -0.5 2.125 1.25
v -0.5 2.125 -1.25
v -1.25 6 0.5
v 1.25 6 0.5
v -1.25 6 -0.5
v 1.25 6 -0.5
v 0.5 6 1.25
v 0.5 6 -1.25
v -0.5 6 1.25
v -0.5 6 -1.25
v -1.25 4.875 0.5
v 1.25 4.875 0.5
v -1.25 4.875 -0.5
v 1.25 4.875 -0.5
v 0.5 4.875 1.25
v 0.5 4.875 -1.25
v -0.5 4.875 1.25
v -0.5 4.875 -1.25
v -1.3125 4.875 0.5
v 1.3125 4.875 0.5
v -1.3125 4.875 -0.5
v 1.3125 4.875 -0.5
v 0.5 4.875 1.3125
v 0.5 4.875 -1.3125
v -0.5 4.875 1.3125
v -0.5 4.875 -1.3125
v -1.3125 5.125 0.5
v 1.3125 5.125 0.5
v -1.3125 5.125 -0.5
v 1.3125 5.125 -0.5
v 0.5 5.125 1.3125
v 0.5 5.125 -1.3125
v -0.5 5.125 1.3125
v -0.5 5.125 -1.3125
v -1.25 5.125 0.5
v 1.25 5.125 0.5
v -1.25 5.125 -0.5
v 1.25 5.125 -0.5
v 0.5 5.125 1.25
v 0.5 5.125 -1.25
v -0.5 5.125 1.25
v -0.5 5.125 -1.25
v -0.3125 6 0.75
v 0.3125 6 0.75
v -0.3125 6 -0.75
v 0.3125 6 -0.75
v 0.75 6 0.3125
v 0.75 6 -0.3125
v -0.75 6 0.3125
v -0.75 6 -0.3125
v -0.3125 6.5 0.75
v 0.3125 6.5 0.75
v 0.3125 6.5 -0.75
v -0.3125 6.5 -0.75
v 0.75 6.5 0.3125
v 0.75 6.5 -0.3125
v -0.75 6.5 -0.3125
v -0.75 6.5 0.3125
v -0.25 6.5 0.625
v 0.25 6.5 0.625
v -0.25 6.5 -0.625
v 0.25 6.5 -0.625
v 0.625 6.5 0.25
v 0.625 6.5 -0.25
v -0.625 6.5 0.25
v -0.625 6.5 -0.25
v -0.25 6.25 0.625
v 0.25 6.25 0.625
v 0.25 6.25 -0.625
v -0.25 6.25 -0.625
v 0.625 6.25 0.25
v 0.625 6.25 -0.25
v -0.625 6.25 -0.25
v -0.625 6.25 0.25
v -0.375 2.375 1.25
v 0.375 2.375 1.25
v -0.375 4.625 1.25
v 0.375 4.625 1.25
v 0.375 2.375 -1.25
v -0.375 2.375 -1.25
v 0.375 4.625 -1.25
v -0.375 4.625 -1.25
v 1.25 2.375 0.375
v 1.25 2.375 -0.375
v 1.25 4.625 0.375
v 1.25 4.625 -0.375
v -1.25 2.375 -0.375
v -1.25 2.375 0.375
v -1.25 4.625 -0.375
v -1.25 4.625 0.375
v -0.375 2.375 0.9375
v 0.375 2.375 0.9375
v -0.375 2.375 -0.9375
v 0.375 2.375 -0.9375
v -0.375 4.625 0.9375
v 0.375 4.625 0.9375
v -0.375 4.625 -0.9375
v 0.375 4.625 -0.9375
v -0.9375 2.375 -0.375
v -0.9375 2.375 0.375
v -0.9375 4.625 -0.375
v -0.9375 4.625 0.375
v 0.9375 2.375 0.375
v 0.9375 2.375 -0.375
v 0.9375 4.625 0.375
v 0.9375 4.625 -0.375
v -0.375 1.875 0.9375
v 0.375 1.875 0.9375
v -0.375 1.875 -0.9375
v 0.375 1.875 -0.9375
v -0.9375 1.875 -0.375
v -0.9375 1.875 0.375
v 0.9375 1.875 0.375
v 0.9375 1.875 -0.375
v -0.375 5.125 0.9375
v 0.375 5.125 0.9375
v -0.375 5.125 -0.9375
v 0.375 5.125 -0.9375
v -0.9375 5.125 -0.375
v -0.9375 5.125 0.375
v 0.9375 5.125 0.375
v 0.9375 5.125 -0.375
v 1.2816 1 0.8397
v 1.1932 1 0.8031
v 1.1049 1 0.8397
v 1.0682 1 0.9281
v 1.1049 1 1.0165
v 1.1932 1 1.0531
v 1.2816 1 1.0165
v 1.3182 1 0.9281
v 1.2816 6 0.8397
v 1.1932 6 0.8031
v 1.1049 6 0.8397
v 1.0682 6 0.9281
v 1.1049 6 1.0165
v 1.1932 6 1.0531
v 1.2816 6 1.0165
v 1.3182 6 0.9281
v 1.2557 6.0884 0.8138
v 1.1857 6.0259 0.7955
v 1.0607 6.0259 0.9205
v 1.079 6.0884 0.9906
v 1.149 6.1509 1.0089
v 1.2299 6.1768 0.9647
v 1.274 6.1509 0.8839
v 1.1932 6.125 0.7513
v 1.1674 6.0366 0.7772
v 1.0424 6.0366 0.9022
v 1.0165 6.125 0.9281
v 1.0424 6.2134 0.9022
v 1.1049 6.25 0.8397
v 1.1674 6.2134 0.7772
v 0.6629 6 0.3977
v 0.7513 6.125 0.3094
v 0.7254 6.0366 0.3352
v 0.6004 6.0366 0.4602
v 0.5745 6.125 0.4861
v 0.6004 6.2134 0.4602
v 0.6629 6.25 0.3977
v 0.7254 6.2134 0.3352
v 1.0165 1 1.1049
v 0.9281 1 1.0682
v 0.8397 1 1.1049
v 0.8031 1 1.1932
v 0.8397 1 1.2816
v 0.9281 1 1.3182
v 1.0165 1 1.2816
v 1.0531 1 1.1932
v 1.0165 6 1.1049
v 0.9281 6 1.0682
v 0.8397 6 1.1049
v 0.8031 6 1.1932
v 0.8397 6 1.2816
v 0.9281 6 1.3182
v 1.0165 6 1.2816
v 1.0531 6 1.1932
v 0.9906 6.0884 1.079
v 0.9205 6.0259 1.0607
v 0.7955 6.0259 1.1857
v 0.8138 6.0884 1.2557
v 0.8839 6.1509 1.274
v 0.9647 6.1768 1.2299
v 1.0089 6.1509 1.149
v 0.9281 6.125 1.0165
v 0.9022 6.0366 1.0424
v 0.7772 6.0366 1.1674
v 0.7513 6.125 1.1932
v 0.7772 6.2134 1.1674
v 0.8397 6.25 1.1049
v 0.9022 6.2134 1.0424
v 0.3977 6 0.6629
v 0.4861 6.125 0.5745
v 0.4602 6.0366 0.6004
v 0.3352 6.0366 0.7254
v 0.3094 6.125 0.7513
v 0.3352 6.2134 0.7254
v 0.3977 6.25 0.6629
v 0.4602 6.2134 0.6004
v 1.125 1 0.75
v 0.9375 1 0.8002
v 0.8002 1 0.9375
v 0.75 1 1.125
v 0.8002 1 1.3125
v 0.9375 1 1.4498
v 1.125 1 1.5
v 1.3125 1 1.4498
v 1.4498 1 1.3125
v 1.5 1 1.125
v 1.4498 1 0.9375
v 1.3125 1 0.8002
v 1.125 2.375 0.75
v 0.9375 2.375 0.8002
v 0.8002 2.375 0.9375
v 0.75 2.375 1.125
v 0.8002 2.375 1.3125
v 0.9375 2.375 1.4498
v 1.125 2.375 1.5
v 1.3125 2.375 1.4498
v 1.4498 2.375 1.3125
v 1.5 2.375 1.125
v 1.4498 2.375 0.9375
v 1.3125 2.375 0.8002
v 1.125 2.6998 0.9375
v 1.125 2.5625 0.8002
v 1.2188 2.6998 0.9626
v 1.2874 2.5625 0.8438
v 1.125 2.75 1.125
v 1.2874 2.6998 1.0312
v 1.4062 2.5625 0.9626
v 1.3125 2.6998 1.125
v 1.4498 2.5625 1.125
v 1.2874 2.6998 1.2188
v 1.4062 2.5625 1.2874
v 1.2188 2.6998 1.2874
v 1.2874 2.5625 1.4062
v 1.125 2.6998 1.3125
v 1.125 2.5625 1.4498
v 1.0312 2.6998 1.2874
v 0.9626 2.5625 1.4062
v 0.9626 2.6998 1.2188
v 0.8438 2.5625 1.2874
v 0.9375 2.6998 1.125
v 0.8002 2.5625 1.125
v 0.9626 2.6998 1.0312
v 0.8438 2.5625 0.9626
v 1.0312 2.6998 0.9626
v 0.9626 2.5625 0.8438
v 1.4584 4.375 0.9281
v 0.9281 4.375 1.4584
v 1.4584 3.625 0.9281
v 0.9281 3.625 1.4584
v 1.1049 4.375 0.5745
v 0.5745 4.375 1.1049
v 1.1049 3.625 0.5745
v 0.5745 3.625 1.1049
v -1.125 2.375 -0.375
v -1.125 2.375 0.375
v -1.125 4.625 -0.375
v -1.125 4.625 0.375
v 1.125 2.375 0.375
v 1.125 2.375 -0.375
v 1.125 4.625 0.375
v 1.125 4.625 -0.375
v -0.375 2.375 1.125
v 0.375 2.375 1.125
v -0.375 4.625 1.125
v 0.375 4.625 1.125
v 0.375 2.375 -1.125
v -0.375 2.375 -1.125
v 0.375 4.625 -1.125
v -0.375 4.625 -1.125
v 0.3125 1 1.5
v 0.4375 1 1.5
v 0.3125 1 1.375
v 0.4375 1 1.375
v 0.3125 6.125 1.375
v 0.3125 6.125 1.5
v 0.4375 6.125 1.5
v 0.4375 6.125 1.375
v 0.3125 6.25 1.375
v 0.4375 6.25 1.375
v 0.4375 6.125 1
v 0.3125 6.125 1
v 0.4375 6.25 1
v 0.3125 6.25 1
v 0.4375 6.125 0.875
v 0.3125 6.125 0.875
v 0.4375 6 1
v 0.3125 6 1
v 0.4375 6 0.875
v 0.3125 6 0.875
v -0.3125 1.3125 1.4688
v 0.3125 1.3125 1.4688
v -0.3125 1.3125 1.4062
v 0.3125 1.3125 1.4062
v -0.3125 1.4375 1.4062
v -0.3125 1.4375 1.4688
v 0.3125 1.4375 1.4688
v 0.3125 1.4375 1.4062
v -0.4375 1 1.5
v -0.3125 1 1.5
v -0.4375 1 1.375
v -0.3125 1 1.375
v -0.4375 6.125 1.375
v -0.4375 6.125 1.5
v -0.3125 6.125 1.5
v -0.3125 6.125 1.375
v -0.4375 6.25 1.375
v -0.3125 6.25 1.375
v -0.3125 6.125 1
v -0.4375 6.125 1
v -0.3125 6.25 1
v -0.4375 6.25 1
v -0.3125 6.125 0.875
v -0.4375 6.125 0.875
v -0.3125 6 1
v -0.4375 6 1
v -0.3125 6 0.875
v -0.4375 6 0.875
v -0.3125 1.8125 1.4688
v 0.3125 1.8125 1.4688
v -0.3125 1.8125 1.4062
v 0.3125 1.8125 1.4062
v -0.3125 1.9375 1.4062
v -0.3125 1.9375 1.4688
v 0.3125 1.9375 1.4688
v 0.3125 1.9375 1.4062
v -0.3125 2.3125 1.4688
v 0.3125 2.3125 1.4688
v -0.3125 2.3125 1.4062
v 0.3125 2.3125 1.4062
v -0.3125 2.4375 1.4062
v -0.3125 2.4375 1.4688
v 0.3125 2.4375 1.4688
v 0.3125 2.4375 1.4062
v -0.3125 2.8125 1.4688
v 0.3125 2.8125 1.4688
v -0.3125 2.8125 1.4062
v 0.3125 2.8125 1.4062
v -0.3125 2.9375 1.4062
v -0.3125 2.9375 1.4688
v 0.3125 2.9375 1.4688
v 0.3125 2.9375 1.4062
v -0.3125 3.3125 1.4688
v 0.3125 3.3125 1.4688
v -0.3125 3.3125 1.4062
v 0.3125 3.3125 1.4062
v -0.3125 3.4375 1.4062
v -0.3125 3.4375 1.4688
v 0.3125 3.4375 1.4688
v 0.3125 3.4375 1.4062
v -0.3125 3.8125 1.4688
v 0.3125 3.8125 1.4688
v -0.3125 3.8125 1.4062
v 0.3125 3.8125 1.4062
v -0.3125 3.9375 1.4062
v -0.3125 3.9375 1.4688
v 0.3125 3.9375 1.4688
v 0.3125 3.9375 1.4062
v -0.3125 4.3125 1.4688
v 0.3125 4.3125 1.4688
v -0.3125 4.3125 1.4062
v 0.3125 4.3125 1.4062
v -0.3125 4.4375 1.4062
v -0.3125 4.4375 1.4688
v 0.3125 4.4375 1.4688
v 0.3125 4.4375 1.4062
v -0.3125 4.8125 1.4688
v 0.3125 4.8125 1.4688
v -0.3125 4.8125 1.4062
v 0.3125 4.8125 1.4062
v -0.3125 4.9375 1.4062
v -0.3125 4.9375 1.4688
v 0.3125 4.9375 1.4688
v 0.3125 4.9375 1.4062
v -0.3125 5.3125 1.4688
v 0.3125 5.3125 1.4688
v -0.3125 5.3125 1.4062
v 0.3125 5.3125 1.4062
v -0.3125 5.4375 1.4062
v -0.3125 5.4375 1.4688
v 0.3125 5.4375 1.4688
v 0.3125 5.4375 1.4062
v -0.3125 5.8125 1.4688
v 0.3125 5.8125 1.4688
v -0.3125 5.8125 1.4062
v 0.3125 5.8125 1.4062
v -0.3125 5.9375 1.4062
v -0.3125 5.9375 1.4688
v 0.3125 5.9375 1.4688
v 0.3125 5.9375 1.4062
v 1.125 1 -1.5
v 0.9375 1 -1.4498
v 0.8002 1 -1.3125
v 0.75 1 -1.125
v 0.8002 1 -0.9375
v 0.9375 1 -0.8002
v 1.125 1 -0.75
v 1.3125 1 -0.8002
v 1.4498 1 -0.9375
v 1.5 1 -1.125
v 1.4498 1 -1.3125
v 1.3125 1 -1.4498
v 1.125 2.375 -1.5
v 0.9375 2.375 -1.4498
v 0.8002 2.375 -1.3125
v 0.75 2.375 -1.125
v 0.8002 2.375 -0.9375
v 0.9375 2.375 -0.8002
v 1.125 2.375 -0.75
v 1.3125 2.375 -0.8002
v 1.4498 2.375 -0.9375
v 1.5 2.375 -1.125
v 1.4498 2.375 -1.3125
v 1.3125 2.375 -1.4498
v 1.125 2.6998 -1.3125
v 1.125 2.5625 -1.4498
v 1.2188 2.6998 -1.2874
v 1.2874 2.5625 -1.4062
v 1.125 2.75 -1.125
v 1.2874 2.6998 -1.2188
v 1.4062 2.5625 -1.2874
v 1.3125 2.6998 -1.125
v 1.4498 2.5625 -1.125
v 1.2874 2.6998 -1.0312
v 1.4062 2.5625 -0.9626
v 1.2188 2.6998 -0.9626
v 1.2874 2.5625 -0.8438
v 1.125 2.6998 -0.9375
v 1.125 2.5625 -0.8002
v 1.0312 2.6998 -0.9626
v 0.9626 2.5625 -0.8438
v 0.9626 2.6998 -1.0312
v 0.8438 2.5625 -0.9626
v 0.9375 2.6998 -1.125
v 0.8002 2.5625 -1.125
v 0.9626 2.6998 -1.2188
v 0.8438 2.5625 -1.2874
v 1.0312 2.6998 -1.2874
v 0.9626 2.5625 -1.4062
v -1.125 1 0.75
v -1.3125 1 0.8002
v -1.4498 1 0.9375
v -1.5 1 1.125
v -1.4498 1 1.3125
v -1.3125 1 1.4498
v -1.125 1 1.5
v -0.9375 1 1.4498
v -0.8002 1 1.3125
v -0.75 1 1.125
v -0.8002 1 0.9375
v -0.9375 1 0.8002
v -1.125 2.375 0.75
v -1.3125 2.375 0.8002
v -1.4498 2.375 0.9375
v -1.5 2.375 1.125
v -1.4498 2.375 1.3125
v -1.3125 2.375 1.4498
v -1.125 2.375 1.5
v -0.9375 2.375 1.4498
v -0.8002 2.375 1.3125
v -0.75 2.375 1.125
v -0.8002 2.375 0.9375
v -0.9375 2.375 0.8002
v -1.125 2.6998 0.9375
v -1.125 2.5625 0.8002
v -1.0312 2.6998 0.9626
v -0.9626 2.5625 0.8438
v -1.125 2.75 1.125
v -0.9626 2.6998 1.0312
v -0.8438 2.5625 0.9626
v -0.9375 2.6998 1.125
v -0.8002 2.5625 1.125
v -0.9626 2.6998 1.2188
v -0.8438 2.5625 1.2874
v -1.0312 2.6998 1.2874
v -0.9626 2.5625 1.4062
v -1.125 2.6998 1.3125
v -1.125 2.5625 1.4498
v -1.2188 2.6998 1.2874
v -1.2874 2.5625 1.4062
v -1.2874 2.6998 1.2188
v -1.4062 2.5625 1.2874
v -1.3125 2.6998 1.125
v -1.4498 2.5625 1.125
v -1.2874 2.6998 1.0312
v -1.4062 2.5625 0.9626
v -1.2188 2.6998 0.9626
v -1.2874 2.5625 0.8438
v -1.125 1 -1.5
v -1.3125 1 -1.4498
v -1.4498 1 -1.3125
v -1.5 1 -1.125
v -1.4498 1 -0.9375
v -1.3125 1 -0.8002
v -1.125 1 -0.75
v -0.9375 1 -0.8002
v -0.8002 1 -0.9375
v -0.75 1 -1.125
v -0.8002 1 -1.3125
v -0.9375 1 -1.4498
v -1.125 2.375 -1.5
v -1.3125 2.375 -1.4498
v -1.4498 2.375 -1.3125
v -1.5 2.375 -1.125
v -1.4498 2.375 -0.9375
v -1.3125 2.375 -0.8002
v -1.125 2.375 -0.75
v -0.9375 2.375 -0.8002
v -0.8002 2.375 -0.9375
v -0.75 2.375 -1.125
v -0.8002 2.375 -1.3125
v -0.9375 2.375 -1.4498
v -1.125 2.6998 -1.3125
v -1.125 2.5625 -1.4498
v -1.0312 2.6998 -1.2874
v -0.9626 2.5625 -1.4062
v -1.125 2.75 -1.125
v -0.9626 2.6998 -1.2188
v -0.8438 2.5625 -1.2874
v -0.9375 2.6998 -1.125
v -0.8002 2.5625 -1.125
v -0.9626 2.6998 -1.0312
v -0.8438 2.5625 -0.9626
v -1.0312 2.6998 -0.9626
v -0.9626 2.5625 -0.8438
v -1.125 2.6998 -0.9375
v -1.125 2.5625 -0.8002
v -1.2188 2.6998 -0.9626
v -1.2874 2.5625 -0.8438
v -1.2874 2.6998 -1.0312
v -1.4062 2.5625 -0.9626
v -1.3125 2.6998 -1.125
v -1.4498 2.5625 -1.125
v -1.2874 2.6998 -1.2188
v -1.4062 2.5625 -1.2874
v -1.2188 2.6998 -1.2874
v -1.2874 2.5625 -1.4062
v -1.2816 1 -0.8397
v -1.1932 1 -0.8031
v -1.1049 1 -0.8397
v -1.0682 1 -0.9281
v -1.1049 1 -1.0165
v -1.1932 1 -1.0531
v -1.2816 1 -1.0165
v -1.3182 1 -0.9281
v -1.2816 6 -0.8397
v -1.1932 6 -0.8031
v -1.1049 6 -0.8397
v -1.0682 6 -0.9281
v -1.1049 6 -1.0165
v -1.1932 6 -1.0531
v -1.2816 6 -1.0165
v -1.3182 6 -0.9281
v -1.2557 6.0884 -0.8138
v -1.1857 6.0259 -0.7955
v -1.0607 6.0259 -0.9205
v -1.079 6.0884 -0.9906
v -1.149 6.1509 -1.0089
v -1.2299 6.1768 -0.9647
v -1.274 6.1509 -0.8839
v -1.1932 6.125 -0.7513
v -1.1674 6.0366 -0.7772
v -1.0424 6.0366 -0.9022
v -1.0165 6.125 -0.9281
v -1.0424 6.2134 -0.9022
v -1.1049 6.25 -0.8397
v -1.1674 6.2134 -0.7772
v -0.6629 6 -0.3977
v -0.7513 6.125 -0.3094
v -0.7254 6.0366 -0.3352
v -0.6004 6.0366 -0.4602
v -0.5745 6.125 -0.4861
v -0.6004 6.2134 -0.4602
v -0.6629 6.25 -0.3977
v -0.7254 6.2134 -0.3352
v -1.0165 1 -1.1049
v -0.9281 1 -1.0682
v -0.8397 1 -1.1049
v -0.8031 1 -1.1932
v -0.8397 1 -1.2816
v -0.9281 1 -1.3182
v -1.0165 1 -1.2816
v -1.0531 1 -1.1932
v -1.0165 6 -1.1049
v -0.9281 6 -1.0682
v -0.8397 6 -1.1049
v -0.8031 6 -1.1932
v -0.8397 6 -1.2816
v -0.9281 6 -1.3182
v -1.0165 6 -1.2816
v -1.0531 6 -1.1932
v -0.9906 6.0884 -1.079
v -0.9205 6.0259 -1.0607
v -0.7955 6.0259 -1.1857
v -0.8138 6.0884 -1.2557
v -0.8839 6.1509 -1.274
v -0.9647 6.1768 -1.2299
v -1.0089 6.1509 -1.149
v -0.9281 6.125 -1.0165
v -0.9022 6.0366 -1.0424
v -0.7772 6.0366 -1.1674
v -0.7513 6.125 -1.1932
v -0.7772 6.2134 -1.1674
v -0.8397 6.25 -1.1049
v -0.9022 6.2134 -1.0424
v -0.3977 6 -0.6629
v -0.4861 6.125 -0.5745
v -0.4602 6.0366 -0.6004
v -0.3352 6.0366 -0.7254
v -0.3094 6.125 -0.7513
v -0.3352 6.2134 -0.7254
v -0.3977 6.25 -0.6629
v -0.4602 6.2134 -0.6004
v -1.4584 4.375 -0.9281
v -0.9281 4.375 -1.4584
v -1.4584 3.625 -0.9281
v -0.9281 3.625 -1.4584
v -1.1049 4.375 -0.5745
v -0.5745 4.375 -1.1049
v -1.1049 3.625 -0.5745
v -0.5745 3.625 -1.1049
v 0.8397 1 -1.2816
v 0.8031 1 -1.1932
v 0.8397 1 -1.1049
v 0.9281 1 -1.0682
v 1.0165 1 -1.1049
v 1.0531 1 -1.1932
v 1.0165 1 -1.2816
v 0.9281 1 -1.3182
v 0.8397 6 -1.2816
v 0.8031 6 -1.1932
v 0.8397 6 -1.1049
v 0.9281 6 -1.0682
v 1.0165 6 -1.1049
v 1.0531 6 -1.1932
v 1.0165 6 -1.2816
v 0.9281 6 -1.3182
v 0.8138 6.0884 -1.2557
v 0.7955 6.0259 -1.1857
v 0.9205 6.0259 -1.0607
v 0.9906 6.0884 -1.079
v 1.0089 6.1509 -1.149
v 0.9647 6.1768 -1.2299
v 0.8839 6.1509 -1.274
v 0.7513 6.125 -1.1932
v 0.7772 6.0366 -1.1674
v 0.9022 6.0366 -1.0424
v 0.9281 6.125 -1.0165
v 0.9022 6.2134 -1.0424
v 0.8397 6.25 -1.1049
v 0.7772 6.2134 -1.1674
v 0.3977 6 -0.6629
v 0.3094 6.125 -0.7513
v 0.3352 6.0366 -0.7254
v 0.4602 6.0366 -0.6004
v 0.4861 6.125 -0.5745
v 0.4602 6.2134 -0.6004
v 0.3977 6.25 -0.6629
v 0.3352 6.2134 -0.7254
v 1.1049 1 -1.0165
v 1.0682 1 -0.9281
v 1.1049 1 -0.8397
v 1.1932 1 -0.8031
v 1.2816 1 -0.8397
v 1.3182 1 -0.9281
v 1.2816 1 -1.0165
v 1.1932 1 -1.0531
v 1.1049 6 -1.0165
v 1.0682 6 -0.9281
v 1.1049 6 -0.8397
v 1.1932 6 -0.8031
v 1.2816 6 -0.8397
v 1.3182 6 -0.9281
v 1.2816 6 -1.0165
v 1.1932 6 -1.0531
v 1.079 6.0884 -0.9906
v 1.0607 6.0259 -0.9205
v 1.1857 6.0259 -0.7955
v 1.2557 6.0884 -0.8138
v 1.274 6.1509 -0.8839
v 1.2299 6.1768 -0.9647
v 1.149 6.1509 -1.0089
v 1.0165 6.125 -0.9281
v 1.0424 6.0366 -0.9022
v 1.1674 6.0366 -0.7772
v 1.1932 6.125 -0.7513
v 1.1674 6.2134 -0.7772
v 1.1049 6.25 -0.8397
v 1.0424 6.2134 -0.9022
v 0.6629 6 -0.3977
v 0.5745 6.125 -0.4861
v 0.6004 6.0366 -0.4602
v 0.7254 6.0366 -0.3352
v 0.7513 6.125 -0.3094
v 0.7254 6.2134 -0.3352
v 0.6629 6.25 -0.3977
v 0.6004 6.2134 -0.4602
v 0.9281 4.375 -1.4584
v 1.4584 4.375 -0.9281
v 0.9281 3.625 -1.4584
v 1.4584 3.625 -0.9281
v 0.5745 4.375 -1.1049
v 1.1049 4.375 -0.5745
v 0.5745 3.625 -1.1049
v 1.1049 3.625 -0.5745
v -0.8397 1 1.2816
v -0.8031 1 1.1932
v -0.8397 1 1.1049
v -0.9281 1 1.0682
v -1.0165 1 1.1049
v -1.0531 1 1.1932
v -1.0165 1 1.2816
v -0.9281 1 1.3182
v -0.8397 6 1.2816
v -0.8031 6 1.1932
v -0.8397 6 1.1049
v -0.9281 6 1.0682
v -1.0165 6 1.1049
v -1.0531 6 1.1932
v -1.0165 6 1.2816
v -0.9281 6 1.3182
v -0.8138 6.0884 1.2557
v -0.7955 6.0259 1.1857
v -0.9205 6.0259 1.0607
v -0.9906 6.0884 1.079
v -1.0089 6.1509 1.149
v -0.9647 6.1768 1.2299
v -0.8839 6.1509 1.274
v -0.7513 6.125 1.1932
v -0.7772 6.0366 1.1674
v -0.9022 6.0366 1.0424
v -0.9281 6.125 1.0165
v -0.9022 6.2134 1.0424
v -0.8397 6.25 1.1049
v -0.7772 6.2134 1.1674
v -0.3977 6 0.6629
v -0.3094 6.125 0.7513
v -0.3352 6.0366 0.7254
v -0.4602 6.0366 0.6004
v -0.4861 6.125 0.5745
v -0.4602 6.2134 0.6004
v -0.3977 6.25 0.6629
v -0.3352 6.2134 0.7254
v -1.1049 1 1.0165
v -1.0682 1 0.9281
v -1.1049 1 0.8397
v -1.1932 1 0.8031
v -1.2816 1 0.8397
v -1.3182 1 0.9281
v -1.2816 1 1.0165
v -1.1932 1 1.0531
v -1.1049 6 1.0165
v -1.0682 6 0.9281
v -1.1049 6 0.8397
v -1.1932 6 0.8031
v -1.2816 6 0.8397
v -1.3182 6 0.9281
v -1.2816 6 1.0165
v -1.1932 6 1.0531
v -1.079 6.0884 0.9906
v -1.0607 6.0259 0.9205
v -1.1857 6.0259 0.7955
v -1.2557 6.0884 0.8138
v -1.274 6.1509 0.8839
v -1.2299 6.1768 0.9647
v -1.149 6.1509 1.0089
v -1.0165 6.125 0.9281
v -1.0424 6.0366 0.9022
v -1.1674 6.0366 0.7772
v -1.1932 6.125 0.7513
v -1.1674 6.2134 0.7772
v -1.1049 6.25 0.8397
v -1.0424 6.2134 0.9022
v -0.6629 6 0.3977
v -0.5745 6.125 0.4861
v -0.6004 6.0366 0.4602
v -0.7254 6.0366 0.3352
v -0.7513 6.125 0.3094
v -0.7254 6.2134 0.3352
v -0.6629 6.25 0.3977
v -0.6004 6.2134 0.4602
v -0.9281 4.375 1.4584
v -1.4584 4.375 0.9281
v -0.9281 3.625 1.4584
v -1.4584 3.625 0.9281
v -0.5745 4.375 1.1049
v -1.1049 4.375 0.5745
v -0.5745 3.625 1.1049
v -1.1049 3.625 0.5745
v -1.5 0 0
v 0 0 1.5
v -1.25 3.375 0.4375
v -1.25 3.5 0.5
v -0.375 3.5 1.25
v 1.25 3.5 0.375
v -0.375 3.5 0.9375
v 0.4375 3.5625 1.375
v -0.9375 3.5 -0.375
v 1.2816 3.5 0.8397
v 0.8397 3.5 1.1049
v -1.2816 3.5 -0.8397
v -0.8397 3.5 -1.1049
v 1.0165 3.5 -1.1049
v 1.2816 3.5 -1.0165
v -0.8397 3.5 1.2816
v -1.1049 3.5 0.8397
v 1.5 0 0
v 1.25 3.5 0.5
v 1.25 3.375 0.4375
v 0.375 3.5 1.25
v 1.25 3.5 -0.375
v 0.375 3.5 0.9375
v -0.4375 3.5625 1.5
v -0.9375 3.5 0.375
v 1.125 3.5 0.375
v 0.375 3.5 -1.125
v 1.1932 3.5 0.8031
v 0.8031 3.5 1.1932
v -1.1932 3.5 -0.8031
v -0.8031 3.5 -1.1932
v 1.0531 3.5 -1.1932
v 1.1932 3.5 -1.0531
v -0.8031 3.5 1.1932
v -1.1932 3.5 0.8031
v 0 -0 -1.5
v -1.25 3.5 -0.5
v -1.25 3.375 -0.4375
v -0.375 3.5 -0.9375
v 1.125 3.5 -0.375
v -0.375 3.5 -1.125
v -0.3125 3.5625 1.5
v 1.1049 3.5 0.8397
v 0.8397 3.5 1.2816
v -1.1049 3.5 -0.8397
v -0.8397 3.5 -1.2816
v 1.0165 3.5 -1.2816
v 1.1049 3.5 -1.0165
v -0.8397 3.5 1.1049
v -1.2816 3.5 0.8397
v 1.25 3.375 -0.4375
v 1.25 3.5 -0.5
v 0.375 3.5 -0.9375
v -0.4375 3.5625 1.375
v 1.0682 3.5 0.9281
v 0.9281 3.5 1.3182
v -1.0682 3.5 -0.9281
v -0.9281 3.5 -1.3182
v 0.9281 3.5 -1.3182
v 1.0682 3.5 -0.9281
v -0.9281 3.5 1.0682
v -1.3182 3.5 0.9281
v 0 1 1.5
v -1.5 1 -0
v 0.5 3.5 1.25
v 0.4375 3.625 1.25
v 0.375 3.5 -1.25
v -1.25 3.5 -0.375
v -0.3125 3.5625 1.375
v 0.9375 3.5 0.375
v 1.1049 3.5 1.0165
v 1.0165 3.5 1.2816
v -1.1049 3.5 -1.0165
v -1.0165 3.5 -1.2816
v 0.8397 3.5 -1.2816
v 1.1049 3.5 -0.8397
v -1.0165 3.5 1.1049
v -1.2816 3.5 1.0165
v 0.5 3.5 -1.25
v 0.4375 3.375 -1.25
v -0.375 3.5 -1.25
v -1.25 3.5 0.375
v 0.3125 3.5625 1.5
v 1.5 1 -0
v 0.9375 3.5 -0.375
v -1.125 3.5 -0.375
v -0.375 3.5 1.125
v 1.1932 3.5 1.0531
v 1.0531 3.5 1.1932
v -1.1932 3.5 -1.0531
v -1.0531 3.5 -1.1932
v 0.8031 3.5 -1.1932
v 1.1932 3.5 -0.8031
v -1.0531 3.5 1.1932
v -1.1932 3.5 1.0531
v -0.5 3.5 1.25
v -0.4375 3.375 1.25
v -1.125 3.5 0.375
v 0.375 3.5 1.125
v 0.4375 3.5625 1.5
v 0 1 -1.5
v 1.2816 3.5 1.0165
v 1.0165 3.5 1.1049
v -1.2816 3.5 -1.0165
v -1.0165 3.5 -1.1049
v 0.8397 3.5 -1.1049
v 1.2816 3.5 -0.8397
v -1.0165 3.5 1.2816
v -1.1049 3.5 1.0165
v -0.5 3.5 -1.25
v -0.4375 3.375 -1.25
v 0.3125 3.5625 1.375
v 1.3182 3.5 0.9281
v 0.9281 3.5 1.0682
v -1.3182 3.5 -0.9281
v -0.9281 3.5 -1.0682
v 0.9281 3.5 -1.0682
v 1.3182 3.5 -0.9281
v -0.9281 3.5 1.3182
v -1.0682 3.5 0.9281
v 0 0 0
v 0 1 -0
v -1.5 -0 -0.75
v 0.75 0 1.5
v -0.8397 2.25 -1.1049
v 0.4375 4.8438 1.375
v 1.2816 4.75 0.8397
v 1.0682 2.25 -0.9281
v 0.8031 2.25 1.1932
v 0.8397 4.75 1.1049
v 0 0 0.75
v -1.1932 2.25 1.0531
v -1.3182 2.25 -0.9281
v -1.0165 2.25 -1.1049
v -1.2816 4.75 -0.8397
v -0.9281 2.25 1.0682
v -0.8397 4.75 -1.1049
v 1.0165 4.75 -1.1049
v 1.2816 4.75 -1.0165
v -0.8397 4.75 1.2816
v -0.75 -0 -1.5
v 1.1049 2.25 -0.8397
v -1.1049 4.75 0.8397
v 1.5 -0 -0.75
v 0.3125 2.2812 1.5
v -1.2816 2.25 -0.8397
v -0.4375 4.8438 1.5
v 1.1932 4.75 0.8031
v -0.3125 2.2812 1.5
v 0.8031 4.75 1.1932
v 0.75 1 -0
v 0.8031 2.25 -1.1932
v 1.3182 2.25 0.9281
v -1.1932 4.75 -0.8031
v 0.8397 2.25 1.2816
v -0.8031 4.75 -1.1932
v 0 1 0.75
v 1.0531 4.75 -1.1932
v 1.1049 2.25 1.0165
v 1.1932 4.75 -1.0531
v -0.8031 4.75 1.1932
v -0.8397 2.25 -1.2816
v -1.1932 4.75 0.8031
v 0.75 -0 -1.5
v 1.5 1 0.75
v -0.3125 4.8438 1.5
v 1.1049 4.75 0.8397
v 0.8397 4.75 1.2816
v 1.0165 2.25 -1.2816
v 0.8397 2.25 -1.2816
v -1.1932 2.25 0.8031
v -0.9281 2.25 1.3182
v -0.75 0 0
v 1.0531 2.25 1.1932
v 1.2816 2.25 -0.8397
v -1.1049 4.75 -0.8397
v -0.8397 4.75 -1.2816
v -0.3125 2.2812 1.375
v 1.1932 2.25 -1.0531
v 1.0165 4.75 -1.2816
v 1.1049 4.75 -1.0165
v -0.75 1 1.5
v 1.1049 2.25 -1.0165
v -0.8397 4.75 1.1049
v -1.2816 4.75 0.8397
v 1.0531 2.25 -1.1932
v 1.0165 2.25 -1.1049
v -0.4375 4.8438 1.375
v 1.0682 4.75 0.9281
v 0.9281 4.75 1.3182
v 0.9281 2.25 1.0682
v 1.0165 2.25 1.1049
v -1.0531 2.25 -1.1932
v -1.0682 4.75 -0.9281
v -0.9281 4.75 -1.3182
v 0.9281 4.75 -1.3182
v -0.9281 2.25 -1.3182
v 1.0682 4.75 -0.9281
v -1.3182 2.25 0.9281
v -0.75 1 -0
v -0.9281 4.75 1.0682
v -1.2816 2.25 1.0165
v -1.1049 2.25 0.8397
v -1.3182 4.75 0.9281
v 0.75 1 1.5
v -1.5 1 -0.75
v 0.8397 2.25 1.1049
v -0.8397 2.25 1.2816
v -0.75 0 1.5
v -0.3125 4.8438 1.375
v 1.1049 4.75 1.0165
v 1.0165 4.75 1.2816
v -1.1932 2.25 -1.0531
v 1.3182 2.25 -0.9281
v -1.1049 2.25 1.0165
v 0.3125 2.2812 1.375
v -1.0531 2.25 1.1932
v 0.75 0 0
v -1.1049 4.75 -1.0165
v -1.0165 4.75 -1.2816
v -1.2816 2.25 0.8397
v 0.8397 4.75 -1.2816
v -1.1932 2.25 -0.8031
v 1.1049 4.75 -0.8397
v -0.4375 2.2812 1.375
v -1.0165 4.75 1.1049
v -1.2816 4.75 1.0165
v 0.3125 4.8438 1.5
v 1.5 1 -0.75
v 1.1932 4.75 1.0531
v 1.0165 2.25 1.2816
v 1.0531 4.75 1.1932
v 0.8397 2.25 -1.1049
v 1.1932 2.25 -0.8031
v -1.0165 2.25 1.2816
v 0 -0 -0.75
v -1.1932 4.75 -1.0531
v -1.1049 2.25 -1.0165
v -1.0531 4.75 -1.1932
v 0.8031 4.75 -1.1932
v -1.1049 2.25 -0.8397
v 1.0682 2.25 0.9281
v 1.1932 4.75 -0.8031
v -1.0531 4.75 1.1932
v -1.1932 4.75 1.0531
v 0.4375 2.2812 1.375
v 0.4375 4.8438 1.5
v 0.75 1 -1.5
v 1.2816 4.75 1.0165
v 1.0165 4.75 1.1049
v -1.5 1 0.75
v 1.2816 2.25 1.0165
v -1.2816 4.75 -1.0165
v -1.0165 4.75 -1.1049
v 1.1932 2.25 0.8031
v 0.8397 4.75 -1.1049
v 1.2816 4.75 -0.8397
v 1.1049 2.25 0.8397
v -0.8031 2.25 1.1932
v -1.0165 4.75 1.2816
v -1.1049 4.75 1.0165
v -0.8397 2.25 1.1049
v 1.2816 2.25 -1.0165
v 1.1932 2.25 1.0531
v 1.2816 2.25 0.8397
v -1.5 0 0.75
v 0.3125 4.8438 1.375
v 1.3182 4.75 0.9281
v 0 1 -0.75
v 0.9281 4.75 1.0682
v -1.0682 2.25 -0.9281
v -0.75 1 -1.5
v 0.9281 2.25 -1.0682
v -1.2816 2.25 -1.0165
v -0.9281 2.25 -1.0682
v 0.4375 2.2812 1.5
v -1.0682 2.25 0.9281
v -1.3182 4.75 -0.9281
v 0.9281 2.25 -1.3182
v -0.9281 4.75 -1.0682
v 0.9281 2.25 1.3182
v 0.9281 4.75 -1.0682
v -1.0165 2.25 1.1049
v 1.5 0 0.75
v 1.3182 4.75 -0.9281
v -1.0165 2.25 -1.2816
v -0.9281 4.75 1.3182
v -0.8031 2.25 -1.1932
v -1.0682 4.75 0.9281
v -0.4375 2.2812 1.5
v -0.75 0 0.75
v 0.75 -0 -0.75
v -0.75 1 0.75
v 0.75 1 0.75
v 0.75 1 -0.75
v -0.75 -0 -0.75
v 0.75 0 0.75
v -0.75 1 -0.75
vt 0.56 0.0787
vt 0.64 0
vt 0.64 0.0787
vt 0.97 0.5056
vt 0.96 0.4719
vt 0.97 0.4719
vt 0.91 0.4494
vt 0.9 0.3371
vt 0.91 0.3371
vt 0.98 0.4719
vt 0.97 0.4607
vt 0.98 0.4607
vt 0.48 0
vt 0.56 -0
vt 0.91 0.5618
vt 0.96 0.573
vt 0.91 0.573
vt 0.445 0.1348
vt 0.47 0.236
vt 0.445 0.236
vt 0.18 0.9494
vt 0.195 0.8202
vt 0.195 0.9494
vt 0.8 0.1067
vt 0.72 0.0843
vt 0.8 0.0843
vt 0.275 0.236
vt 0.25 0.3371
vt 0.25 0.236
vt 0.24 0.2921
vt 0.18 0.3596
vt 0.18 0.2921
vt 0.24 0.8202
vt 0.18 0.7753
vt 0.24 0.7753
vt 0.96 0.4494
vt 0.95 0.3371
vt 0.96 0.3371
vt 0.4 0.0787
vt 0.32 0.0843
vt 0.32 0.0787
vt 0.88 0.0787
vt 0.8 0.0787
vt 0.98 0.5281
vt 0.97 0.5169
vt 0.98 0.5169
vt 0.89 0.4494
vt 0.88 0.3371
vt 0.89 0.3371
vt 0.21 0.8202
vt 0.21 0.9494
vt 0.56 0.3933
vt 0.64 0.4719
vt 0.56 0.4719
vt 0.72 0.0787
vt 0.64 0.0843
vt 0.48 0.0843
vt 0.48 0.0787
vt 0.72 0.3876
vt 0.64 0.3652
vt 0.72 0.3652
vt 0.88 0.3876
vt 0.8 0.3652
vt 0.88 0.3652
vt 0.12 0.573
vt 0.18 0.5281
vt 0.18 0.573
vt 0.56 0.3876
vt 0.48 0.3652
vt 0.56 0.3652
vt 0.96 0.5393
vt 0.91 0.5449
vt 0.91 0.5393
vt 0.36 0.8202
vt 0.3 0.7753
vt 0.36 0.7753
vt 0.4 0.1067
vt 0.32 0.1124
vt 0.32 0.1067
vt 0.94 0.4494
vt 0.93 0.3371
vt 0.94 0.3371
vt 0.56 0.1067
vt 0.48 0.1124
vt 0.48 0.1067
vt 0.97 0.5281
vt 0.96 0.5169
vt 0.72 0.1067
vt 0.64 0.1124
vt 0.64 0.1067
vt 0.92 0.4494
vt 0.92 0.3371
vt 0.88 0.1067
vt 0.8 0.1124
vt 0.4 0.3596
vt 0.32 0.3652
vt 0.32 0.3596
vt 0.88 0.3596
vt 0.8 0.3596
vt 0.06 0.0899
vt 0 -0
vt 0.06 0
vt 0.99 0.5281
vt 0.99 0.5169
vt 0.725 0.8876
vt 0.685 0.8652
vt 0.725 0.8652
vt 0.765 0.1348
vt 0.79 0.236
vt 0.765 0.236
vt 0.72 0.3596
vt 0.64 0.3596
vt 0.56 0.3596
vt 0.48 0.3596
vt 0.4 0.3876
vt 0.4 0.3652
vt 0 0.5281
vt 0.06 0.573
vt -0 0.573
vt 0.4 0.0843
vt 0.24 0.5281
vt 0.3 0.573
vt 0.24 0.573
vt 0.3 0.5281
vt 0.36 0.573
vt 0.605 0.236
vt 0.63 0.1348
vt 0.63 0.236
vt 1 0.5056
vt 0.99 0.4719
vt 1 0.4719
vt 0.24 0.0787
vt 0.32 0.3933
vt 0.32 0.3876
vt 0.96 0.5618
vt 0.91 0.5562
vt 0.96 0.5562
vt 0.48 0.3933
vt 0.48 0.3876
vt 0.48 0.4719
vt 0.64 0.3933
vt 0.64 0.3876
vt 0.9 0.4494
vt 0.8 0.3933
vt 0.8 0.3876
vt 0.4 0.4719
vt 0.32 0.4719
vt 0.485 0.9326
vt 0.445 0.8652
vt 0.485 0.8652
vt 0.595 0.236
vt 0.57 0.3371
vt 0.57 0.236
vt 0.925 0.8876
vt 0.885 0.8652
vt 0.925 0.8652
vt 0.79 0.3371
vt 0.24 0.3596
vt 0.06 0.5281
vt 0.47 0.1348
vt 0.48 0.236
vt 0.475 0.2472
vt 0.88 0.3933
vt 0.8 0.4719
vt 0.24 0.1124
vt 0.575 0.5169
vt 0.625 0.5169
vt 0.57 0.1348
vt 0.735 0.5169
vt 0.785 0.5169
vt 0.815 0.5169
vt 0.88 0.4719
vt 0.865 0.5169
vt 0.415 0.5169
vt 0.465 0.5169
vt 0.335 0.5169
vt 0.91 0.4663
vt 0.9 0.4775
vt 0.9 0.4663
vt 0.72 0.4719
vt 0.655 0.5169
vt 0.73 0.8539
vt 0.96 0.3455
vt 0.97 0.3455
vt 0.285 0.9494
vt 0.3 0.8202
vt 0.3 0.9494
vt 0.96 0.5449
vt 0.12 0.3596
vt 0.015 0.4101
vt 0.12 0.7753
vt 0.06 0.7472
vt 0.12 0.7472
vt 0.79 0.1348
vt 0.72 0.1124
vt 0.585 0.8652
vt 0.63 0.8539
vt 0.625 0.8652
vt 0.935 0.8652
vt 0.98 0.8539
vt 0.975 0.8652
vt 0.775 0.8652
vt 0.78 0.8539
vt 0.255 0.5169
vt 0.305 0.5169
vt 0.875 0.8652
vt 0.83 0.8539
vt 0.88 0.8539
vt 0.625 0.8876
vt 0.585 1
vt 0.585 0.8876
vt 0.93 0.809
vt 0.98 0.809
vt 0.56 0.1124
vt 0.165 0.9494
vt 0.18 0.8202
vt 0.255 0.9494
vt 0.27 0.8202
vt 0.27 0.9494
vt 0.72 -0
vt 0.41 0.3371
vt 0.4 0.236
vt 0.405 0.2247
vt 0.56 0.236
vt 0.565 0.2247
vt 0.635 0.2247
vt 0.64 0.236
vt 0.4 0.1124
vt 0.73 0.3371
vt 0.72 0.236
vt 0.725 0.2247
vt 0.93 0.8539
vt 0.795 0.2247
vt 0.8 0.236
vt 0.95 0.2247
vt 0.94 0.1124
vt 0.95 0.1124
vt 0.24 0.236
vt 0.245 0.2247
vt 0.25 0.1348
vt 0.31 0.1348
vt 0.315 0.2247
vt 0.32 0.236
vt 0.785 0.8652
vt 0.825 0.8652
vt 0.8 0
vt 0.88 -0
vt 0.42 0.5281
vt 0.48 0.573
vt 0.42 0.573
vt 0.225 0.8202
vt 0.225 0.9494
vt 0.99 0.5056
vt 0.78 0.809
vt 0.83 0.809
vt 0.58 0.809
vt 0.63 0.809
vt 0.755 0.236
vt 0.73 0.236
vt 0.99 0.4607
vt 0.98 0.3455
vt 0.99 0.3455
vt 0.88 0.0843
vt 0.3 0.6742
vt 0.24 0.6742
vt 0.9 0.5393
vt 0.89 0.4831
vt 0.9 0.4831
vt 0.85 0.6404
vt 0.91 0.6404
vt 0.12 0.8202
vt 1 0.5281
vt 1 0.5169
vt 0.42 0.7753
vt 0.56 0.0843
vt 0.06 0.6011
vt 0.12 0.6011
vt 0.18 0.6742
vt 0.12 0.6742
vt 0.06 0.6742
vt 0 0.6742
vt 0.4 0.3933
vt 0.445 0.9775
vt 0.385 0.9326
vt 0.445 0.9326
vt 0.445 0.8202
vt 0.385 0.8652
vt 0.385 0.8202
vt 0.24 0.9494
vt 0.98 0.5056
vt 0.95 0.4494
vt 0.3 0.7472
vt 0.36 0.7472
vt 0.96 0.4607
vt 0.775 0.8876
vt 0.735 0.8652
vt 0.48 0.6011
vt 0.42 0.6011
vt 1 0.4607
vt 1 0.3455
vt 0.96 0.5056
vt 0.68 0.809
vt 0.73 0.809
vt 0.72 0.3933
vt 0.93 0.4494
vt 0.06 0.3596
vt 0 0.2921
vt 0.06 0.2921
vt 0.48 0.8202
vt 0.48 0.7753
vt 0.88 0.809
vt 0.06 0.7753
vt 0.24 0.3933
vt 0.825 0.8876
vt 0.285 0.236
vt 0.31 0.236
vt 0.88 0.236
vt 0.24 0.3652
vt 0.675 0.8876
vt 0.635 0.8652
vt 0.675 0.8652
vt 0.255 0.8202
vt 0.33 0.9494
vt 0.345 0.8202
vt 0.345 0.9494
vt 0.345 0.8652
vt 0.345 0.9326
vt 0.315 0.8202
vt 0.315 0.9494
vt 0.435 0.236
vt 0.41 0.236
vt 0.24 0.0843
vt 0.875 0.8876
vt 0.835 0.8652
vt 0.24 0.4719
vt 0.88 0.5393
vt 0.88 0.4831
vt 0.385 0.9775
vt 0.89 0.2247
vt 0.94 0.2247
vt 0.93 0.2247
vt 0.93 0.1124
vt 0.93 0.4663
vt 0.18 0.2247
vt 0.12 0.2921
vt 0.88 0.4494
vt 0.24 0.2247
vt 0.9 0.2247
vt 0.91 0.2247
vt 0.92 0.2247
vt 0.92 0.1124
vt 0.88 0.2247
vt 0.88 0.1124
vt 0.885 0.8876
vt 0.635 0.8876
vt 0.88 0.1124
vt 0.92 0.5393
vt 0.91 0.4831
vt 0.12 0.0899
vt 0.06 0.8202
vt 0.42 0.8202
vt 0.85 0.5393
vt 0.285 0.1348
vt 0.96 0.2247
vt 0.96 0.1124
vt 0.94 0.4551
vt 0.94 0.4663
vt 0.89 0.1124
vt 0.9 0.1124
vt 0.91 0.1124
vt 0.99 0.2303
vt 0.98 0.1152
vt 0.99 0.1152
vt 0.755 0.1348
vt 0.73 0.1348
vt 0.47 0.3371
vt 0.31 0.3371
vt 0.555 0.9663
vt 0.555 0.9213
vt 0.655 0.9213
vt 0.655 0.9663
vt 0.625 1
vt 0.85 0.7416
vt 0.24 0.3876
vt 0.12 0.5281
vt 0.91 0.7416
vt 0.89 0.5393
vt 0.785 0.8876
vt 0.735 0.8876
vt 0.96 0.5281
vt 0.165 0.4101
vt 0.165 0.4775
vt 0.015 0.4775
vt 0.275 0.3371
vt -0 0.0899
vt 0.12 0.2247
vt 0.12 0.9888
vt 0.06 0.9888
vt 0.015 0.9382
vt 0.015 0.8708
vt 0.165 0.8708
vt 0.165 0.9382
vt 0.48 0.5281
vt 0.385 0.5169
vt 0.36 0.5281
vt 0.33 0.8202
vt 0.92 0.4663
vt 0.95 0.4831
vt 0.95 0.5393
vt 0.94 0.5393
vt 0.58 0.8539
vt 0.89 0.4719
vt 0.605 0.1348
vt 0.685 0.8876
vt 0.705 0.5169
vt 0.63 0.3371
vt 0.97 0.2303
vt 0.98 0.2303
vt 0.12 0
vt 0.285 0.8202
vt 0.975 0.8876
vt 0.89 0.4663
vt 0.93 0.4831
vt 0.89 0.4607
vt 0.9 0.4551
vt 0.95 0.4607
vt 0.96 0.4663
vt 0.95 0.4663
vt 0.95 0.4719
vt 0.88 0.4663
vt 0.92 0.4831
vt 0.94 0.4831
vt 0.3 0.6011
vt 0.94 0.4775
vt 0.93 0.5393
vt 0.68 0.8539
vt 0 0.7753
vt 0.24 0.6011
vt 0.18 0.6011
vt 0.295 0.9831
vt 0.29 1
vt 0.285 0.9831
vt 0.31 0.9831
vt 0.3 0.9663
vt 0.315 0.9663
vt 0.28 0.9831
vt 0.275 1
vt 0.27 0.9831
vt 0.315 0.9831
vt 0.33 0.9663
vt 0.325 0.9831
vt 0.265 0.9831
vt 0.26 1
vt 0.255 0.9831
vt 0.24 0.9831
vt 0.255 0.9663
vt 0.25 0.9831
vt 0.33 0.9831
vt 0.345 0.9663
vt 0.34 0.9831
vt 0.245 1
vt 0.18 0.9831
vt 0.195 0.9663
vt 0.19 0.9831
vt 0.235 0.9831
vt 0.23 1
vt 0.225 0.9831
vt 0.22 0.9831
vt 0.215 1
vt 0.21 0.9831
vt 0.21 0.9663
vt 0.225 0.9663
vt 0.205 0.9831
vt 0.2 1
vt 0.195 0.9831
vt 0.18 0.9663
vt 0.185 1
vt 0.175 0.9831
vt 0.17 1
vt 0.165 0.9831
vt 0.165 0.9663
vt 0.335 1
vt 0.27 0.9663
vt 0.32 1
vt 0.305 1
vt 0.3 0.9831
vt 0.18 0.7472
vt 0.24 0.7472
vt 0.42 0.6742
vt 0.36 0.6742
vt 0.32 -0
vt 0.24 0.9663
vt 0.285 0.9663
vt 0.4 0
vt 0.42 0.7472
vt 0.48 0.7472
vt 0.96 0.4831
vt 0.495 0.5169
vt 0.545 0.5169
vt 0.97 0.1152
vt 0.06 0.1573
vt 0 0.2247
vt 0 0.1573
vt 0.91 -0
vt 0.92 -0
vt 0.89 0
vt 0.9 -0
vt 0.06 0.2247
vt 0.93 -0
vt 0.12 0.1573
vt 0.18 0.1573
vt 0.24 0.0899
vt 0.18 0
vt 0.24 0
vt 0.18 0.0899
vt 0.95 -0
vt 0.96 -0
vt 1 0.2303
vt 1 0.1152
vt 0.98 0
vt 0.99 0
vt 0.165 0.8202
vt 0.41 0.1348
vt 0.96 0.1152
vt 0.24 0.1573
vt 1 0
vt 0.97 0
vt 0.94 0
vt 0.605 0.3371
vt 0.275 0.1348
vt 0.445 0.3371
vt 0.435 0.3371
vt 0.835 0.8876
vt 0.595 0.1348
vt 0.765 0.3371
vt 0.285 0.3371
vt 0.96 0.2303
vt 0.935 0.8876
vt 0 0.3596
vt 0.435 0.1348
vt 0.24 0.1067
vt 0.595 0.3371
vt 0.36 0.6011
vt 0.755 0.3371
vt 0 0.8202
s 1
f 18/1 12/2 20/3
f 331/4 322/5 326/6
f 682/7 974/8 994/9
f 327/10 323/11 324/12
f 18/1 13/13 10/14
f 402/15 401/16 400/17
f 138/18 857/19 859/20
f 261/21 250/22 262/23
f 40/24 30/25 32/26
f 359/4 350/5 354/6
f 845/27 135/28 904/29
f 1108/30 1042/31 1134/32
f 167/33 152/34 151/35
f 717/36 1034/37 1060/38
f 23/39 25/40 17/41
f 19/42 32/26 24/43
f 364/44 361/45 360/46
f 802/47 979/48 999/49
f 553/23 542/50 554/51
f 82/52 52/53 50/54
f 22/55 28/56 20/3
f 18/1 29/57 21/58
f 78/59 68/60 70/61
f 75/62 72/63 67/64
f 140/65 160/66 150/67
f 74/68 69/69 66/70
f 32/26 22/55 24/43
f 801/36 1125/37 979/38
f 393/71 390/72 392/73
f 418/15 417/16 416/17
f 161/74 142/75 141/76
f 39/77 41/78 33/79
f 715/80 996/81 1017/82
f 34/83 45/84 37/85
f 337/86 329/87 333/45
f 38/88 44/89 36/90
f 805/91 1040/9 1063/92
f 35/93 48/94 40/24
f 63/95 65/96 57/97
f 59/98 72/63 64/99
f 1042/100 3/101 959/102
f 362/103 360/46 356/104
f 114/105 105/106 106/107
f 139/108 917/109 875/110
f 62/111 68/60 60/112
f 58/113 69/69 61/114
f 79/115 65/96 71/116
f 157/117 139/118 145/119
f 39/77 25/40 31/120
f 159/121 138/122 149/123
f 220/7 1004/8 1026/9
f 154/124 137/125 138/122
f 921/126 130/127 858/128
f 357/129 353/130 350/131
f 25/40 19/132 17/41
f 79/115 81/133 73/134
f 437/135 435/136 436/137
f 74/68 85/138 77/139
f 82/52 53/140 85/138
f 78/59 84/141 76/142
f 765/143 1037/49 1062/8
f 75/62 88/144 80/145
f 81/133 55/146 49/147
f 637/91 1031/9 1056/92
f 665/148 663/149 667/150
f 683/91 994/9 1016/92
f 906/151 131/152 842/153
f 116/154 108/155 107/156
f 433/71 430/72 432/73
f 342/15 341/16 340/17
f 62/111 128/157 64/99
f 378/15 377/16 376/17
f 135/28 57/97 59/158
f 155/159 140/65 139/118
f 341/71 338/72 340/73
f 122/160 901/161 902/162
f 83/163 56/164 88/144
f 43/165 33/79 41/78
f 93/166 52/53 94/167
f 129/168 44/89 130/127
f 92/169 56/164 91/170
f 91/171 51/172 96/173
f 89/174 53/140 90/175
f 55/146 95/176 49/147
f 605/177 611/178 604/179
f 54/180 94/181 52/53
f 105/106 98/182 106/107
f 355/10 351/11 352/12
f 351/11 1024/183 983/184
f 461/185 438/186 450/187
f 428/137 422/72 423/188
f 154/189 155/159 158/190
f 144/191 128/192 127/193
f 82/52 76/142 84/141
f 126/194 46/195 48/94
f 112/196 104/197 111/198
f 131/152 60/112 58/113
f 107/199 103/200 112/201
f 109/202 98/182 101/203
f 96/204 49/147 95/205
f 108/206 102/207 99/208
f 177/80 1104/81 963/82
f 323/11 1103/183 1064/184
f 118/209 120/210 117/211
f 103/200 91/212 96/213
f 42/214 36/90 44/89
f 453/215 442/216 454/21
f 557/217 546/218 558/219
f 20/3 14/220 22/55
f 84/141 54/180 52/53
f 123/221 932/222 933/223
f 215/80 1068/81 1086/82
f 131/152 855/224 856/225
f 123/221 61/114 63/95
f 887/226 44/89 888/227
f 122/160 47/228 45/84
f 127/229 915/230 916/231
f 108/155 100/232 107/156
f 947/233 48/94 946/234
f 956/235 1051/236 1113/237
f 135/28 873/238 874/239
f 133/240 41/78 134/241
f 839/242 41/78 840/243
f 109/244 102/207 110/245
f 593/80 1114/81 971/82
f 19/42 16/246 11/247
f 158/248 145/249 146/250
f 372/137 366/72 367/188
f 263/51 252/251 264/252
f 356/253 355/10 353/130
f 181/143 1025/49 1047/8
f 102/207 93/254 94/255
f 180/47 1003/48 1025/49
f 104/197 96/256 95/257
f 889/258 127/229 903/259
f 833/148 831/149 835/150
f 344/137 338/72 339/188
f 749/148 747/149 751/150
f 325/260 1083/261 962/262
f 137/125 158/248 146/250
f 35/93 32/26 27/263
f 149/123 859/264 906/265
f 703/266 694/267 695/268
f 923/269 311/73 935/270
f 162/186 151/35 142/75
f 352/12 983/184 1002/261
f 152/34 164/271 144/191
f 597/143 1030/49 1055/8
f 38/88 28/56 30/25
f 335/272 328/104 329/273
f 148/274 161/74 141/76
f 160/66 149/123 150/67
f 34/83 29/57 26/275
f 126/276 140/65 125/277
f 58/113 901/161 855/224
f 921/278 144/191 889/279
f 145/119 875/280 845/281
f 266/217 255/218 267/219
f 454/21 443/22 455/23
f 87/282 53/140 55/146
f 456/51 445/251 457/252
f 28/56 18/1 20/3
f 665/283 662/284 661/285
f 87/282 77/139 85/138
f 262/23 251/50 263/51
f 751/286 748/287 752/288
f 506/252 495/33 507/289
f 217/36 1106/37 966/38
f 332/46 331/4 330/290
f 219/143 986/49 1004/8
f 922/269 303/73 934/270
f 632/291 1090/82 1116/37
f 766/7 1062/8 1080/9
f 141/76 124/292 123/293
f 298/148 296/149 300/150
f 323/11 326/5 322/294
f 380/137 374/72 375/188
f 325/260 327/130 324/12
f 117/295 106/296 109/202
f 146/250 133/297 134/298
f 1001/100 2/101 1120/102
f 77/139 71/116 69/69
f 328/253 332/104 330/290
f 218/47 966/48 986/49
f 358/290 354/6 355/10
f 322/299 962/262 1103/300
f 329/129 325/130 322/131
f 331/4 333/87 329/301
f 98/182 89/302 90/303
f 86/304 56/164 54/180
f 806/305 1063/92 1081/81
f 404/137 398/72 399/188
f 551/215 540/216 552/21
f 1120/306 960/307 1133/308
f 165/309 148/274 147/310
f 100/232 92/311 91/212
f 863/269 315/73 877/270
f 351/11 354/5 350/294
f 164/271 143/312 144/191
f 353/260 355/130 352/12
f 394/15 393/16 392/17
f 46/195 40/24 48/94
f 83/313 73/134 81/133
f 118/314 109/244 110/245
f 356/253 360/104 358/290
f 861/315 134/241 918/316
f 59/98 946/234 873/317
f 681/143 1118/49 974/8
f 455/23 444/50 456/51
f 359/4 361/87 357/301
f 377/71 374/72 376/73
f 421/135 419/136 420/137
f 80/145 70/61 72/63
f 178/291 963/82 984/37
f 417/71 414/72 416/73
f 661/285 664/287 663/149
f 799/80 1081/81 1097/82
f 369/71 366/72 368/73
f 330/290 326/6 327/10
f 73/134 67/318 65/96
f 555/252 544/33 556/289
f 113/319 111/320 105/321
f 412/137 406/72 407/188
f 458/289 447/322 459/217
f 434/15 433/16 432/17
f 36/90 26/275 28/56
f 409/71 406/72 408/73
f 259/323 248/324 260/325
f 365/86 357/87 361/45
f 301/326 295/284 299/327
f 183/91 1066/9 1085/92
f 397/135 395/136 396/137
f 37/85 31/120 29/57
f 401/71 398/72 400/73
f 396/137 390/72 391/188
f 450/187 439/328 451/329
f 268/185 245/186 257/187
f 385/71 382/72 384/73
f 76/142 66/70 68/60
f 843/330 123/221 841/331
f 33/79 27/332 25/40
f 459/217 448/218 460/219
f 99/208 94/255 92/311
f 47/228 37/85 45/84
f 634/47 973/48 992/49
f 115/333 110/334 108/206
f 410/15 409/16 408/17
f 833/283 830/284 829/285
f 373/135 371/136 372/137
f 83/313 49/147 51/335
f 297/287 300/286 296/149
f 501/323 490/324 502/325
f 835/286 832/287 836/288
f 678/291 1058/82 1076/37
f 436/137 430/72 431/188
f 298/283 295/284 294/285
f 600/305 1089/92 1114/81
f 749/283 746/284 745/285
f 381/135 379/136 380/137
f 363/272 356/104 357/273
f 232/267 237/336 217/337
f 682/7 689/177 688/179
f 102/207 101/203 93/254
f 833/283 834/338 830/284
f 220/7 219/143 1004/8
f 1004/8 986/49 865/339
f 911/340 895/341 1115/342
f 751/286 747/149 748/287
f 721/91 722/305 729/343
f 1105/344 1134/32 1036/345
f 749/148 745/285 747/149
f 178/291 177/80 963/82
f 180/47 179/346 1003/48
f 683/91 682/7 994/9
f 221/91 222/305 229/343
f 23/39 31/120 25/40
f 19/42 27/263 32/26
f 937/347 1108/30 1134/32
f 297/287 301/288 300/286
f 219/143 218/47 986/49
f 434/15 437/135 433/16
f 22/55 30/25 28/56
f 18/1 26/275 29/57
f 682/7 681/143 974/8
f 359/4 357/301 350/5
f 994/9 850/348 868/349
f 717/36 716/291 1034/37
f 1060/38 1034/37 896/235
f 895/341 883/350 1005/351
f 362/103 364/44 360/46
f 891/339 879/352 1094/353
f 799/80 806/305 1081/81
f 39/77 47/228 41/78
f 116/154 115/354 108/155
f 34/83 42/214 45/84
f 113/319 120/355 111/320
f 38/88 46/195 44/89
f 833/148 829/285 831/149
f 35/93 43/356 48/94
f 63/95 71/116 65/96
f 59/98 67/64 72/63
f 1055/8 1030/49 893/339
f 659/357 658/73 650/358
f 87/282 85/138 53/140
f 593/80 600/305 1114/81
f 62/111 70/61 68/60
f 58/113 66/70 69/69
f 331/4 329/301 322/5
f 167/33 168/216 152/34
f 18/1 10/14 12/2
f 40/24 38/88 30/25
f 920/359 1001/100 1120/102
f 301/326 297/287 295/284
f 393/71 391/188 390/72
f 177/80 184/305 1104/81
f 36/90 34/83 26/275
f 79/115 87/282 81/133
f 342/15 345/135 341/16
f 74/68 82/52 85/138
f 59/98 64/99 946/234
f 78/59 86/304 84/141
f 35/93 40/24 32/26
f 75/62 83/163 88/144
f 164/271 163/360 143/312
f 165/309 166/361 148/274
f 863/269 314/362 315/73
f 637/91 636/7 1031/9
f 861/315 146/363 134/241
f 458/289 446/33 447/322
f 75/62 80/145 72/63
f 335/272 334/103 328/104
f 942/364 988/237 1069/365
f 600/305 593/366 601/367
f 929/339 978/353 1070/368
f 146/250 145/249 133/297
f 404/137 403/136 398/72
f 902/162 857/19 122/160
f 394/15 397/135 393/16
f 369/71 367/188 366/72
f 891/339 1094/353 1078/368
f 954/349 1011/369 1050/370
f 844/371 1112/372 1082/373
f 879/364 1091/237 1094/365
f 140/374 903/259 125/375
f 926/349 1074/369 1049/370
f 906/265 142/75 151/35
f 911/340 1115/342 1006/236
f 950/235 1028/236 1027/237
f 893/339 881/352 1077/353
f 263/51 251/50 252/251
f 86/304 88/144 56/164
f 82/52 84/141 52/53
f 123/221 124/376 61/114
f 82/52 50/54 53/140
f 681/143 680/47 1118/49
f 955/341 1071/351 1008/342
f 895/341 1005/351 1115/342
f 941/340 1029/342 970/236
f 848/340 969/342 982/236
f 136/377 840/243 57/97
f 907/348 1078/368 995/369
f 43/165 874/239 873/238
f 921/278 152/34 144/191
f 120/210 113/378 114/379
f 114/379 117/211 120/210
f 956/235 945/340 1051/236
f 118/209 115/380 116/381
f 116/381 119/382 118/209
f 135/28 59/158 873/238
f 308/383 862/269 876/270
f 412/137 411/136 406/72
f 73/134 75/384 67/318
f 454/21 442/216 443/22
f 506/252 494/251 495/33
f 140/65 156/385 160/66
f 933/223 841/331 123/221
f 437/135 434/15 435/136
f 856/225 842/153 131/152
f 849/364 1111/237 961/365
f 130/127 887/226 858/128
f 949/341 1088/351 989/342
f 916/231 903/259 127/229
f 953/339 1069/353 1109/368
f 126/194 947/233 917/109
f 893/339 1077/353 1107/368
f 874/239 904/29 135/28
f 308/383 876/270 309/386
f 134/241 839/242 918/316
f 870/235 1044/236 1095/237
f 129/168 42/214 44/89
f 417/71 415/188 414/72
f 358/290 359/4 354/6
f 262/23 250/22 251/50
f 703/266 702/387 694/267
f 109/244 101/203 102/207
f 421/135 418/15 419/136
f 356/253 358/290 355/10
f 870/235 852/340 1044/236
f 765/143 764/47 1037/49
f 80/145 78/59 70/61
f 118/314 117/388 109/244
f 141/76 142/75 124/292
f 801/36 800/291 1125/37
f 329/129 328/253 325/130
f 18/1 21/58 13/13
f 364/44 365/86 361/45
f 402/15 405/135 401/16
f 999/49 853/352 871/339
f 215/80 222/305 1068/81
f 937/347 1134/32 1105/344
f 218/47 217/346 966/48
f 1108/30 7/158 1042/31
f 117/295 114/389 106/296
f 327/10 326/6 323/11
f 365/86 363/390 357/87
f 261/21 249/216 250/22
f 158/190 153/306 154/189
f 154/189 159/391 160/392
f 160/392 156/385 155/159
f 155/159 157/393 158/190
f 131/152 58/113 855/224
f 845/27 147/394 135/28
f 661/285 662/284 664/287
f 1001/100 6/395 2/101
f 1060/38 896/235 912/364
f 138/18 122/160 857/19
f 1105/344 1036/345 958/396
f 953/339 942/352 1069/353
f 665/148 661/285 663/149
f 162/397 161/398 166/399
f 166/399 165/400 163/360
f 163/360 164/271 168/401
f 168/401 167/402 162/397
f 732/267 740/387 737/336
f 922/269 302/362 303/73
f 1004/8 865/339 880/348
f 62/111 127/229 128/157
f 127/229 62/111 915/230
f 1055/8 893/339 909/348
f 557/217 545/322 546/218
f 152/34 168/216 164/271
f 123/221 63/95 932/222
f 158/248 157/403 145/249
f 20/3 12/2 14/220
f 849/364 952/235 1111/237
f 55/146 89/404 95/176
f 322/299 325/260 962/262
f 108/155 99/208 100/232
f 159/121 154/124 138/122
f 555/252 543/251 544/33
f 181/143 180/47 1025/49
f 154/124 153/405 137/125
f 183/91 182/7 1066/9
f 91/171 56/164 51/172
f 259/323 247/406 248/324
f 130/127 44/89 887/226
f 84/141 86/304 54/180
f 806/305 805/91 1063/92
f 148/274 166/361 161/74
f 38/88 36/90 28/56
f 766/7 765/143 1062/8
f 108/206 110/334 102/207
f 805/91 812/407 811/177
f 77/139 79/115 71/116
f 455/23 443/22 444/50
f 372/137 371/136 366/72
f 126/194 48/94 947/233
f 926/349 909/348 1074/369
f 344/137 343/136 338/72
f 409/71 407/188 406/72
f 133/240 43/165 41/78
f 999/49 979/48 853/352
f 46/195 38/88 40/24
f 777/408 785/409 784/410
f 103/200 100/232 91/212
f 157/117 155/159 139/118
f 112/196 103/411 104/197
f 966/38 1106/37 950/235
f 87/282 79/115 77/139
f 79/115 73/134 65/96
f 107/199 100/232 103/200
f 810/179 817/178 816/412
f 39/77 33/79 25/40
f 921/126 150/413 130/127
f 323/11 322/294 1103/183
f 195/268 203/266 202/387
f 217/36 216/291 1106/37
f 1042/100 7/395 3/101
f 428/137 427/136 422/72
f 140/374 889/258 903/259
f 114/105 113/414 105/106
f 337/86 335/390 329/87
f 54/180 92/415 94/181
f 906/265 859/264 142/75
f 632/291 631/80 1090/82
f 715/80 722/305 996/81
f 154/189 160/392 155/159
f 941/340 927/341 1029/342
f 805/91 804/7 1040/9
f 139/108 126/194 917/109
f 126/194 125/375 46/195
f 929/339 912/352 978/353
f 357/129 356/253 353/130
f 418/15 421/135 417/16
f 923/269 310/362 311/73
f 954/349 943/348 1011/369
f 553/23 541/22 542/50
f 78/59 76/142 68/60
f 433/71 431/188 430/72
f 879/364 864/235 1091/237
f 74/68 77/139 69/69
f 848/340 951/341 969/342
f 1116/37 941/340 952/235
f 131/152 132/416 60/112
f 100/232 99/208 92/311
f 1002/261 860/417 878/418
f 425/71 423/188 422/72
f 920/359 1120/102 854/419
f 341/71 339/188 338/72
f 32/26 30/25 22/55
f 966/38 950/235 847/364
f 678/291 677/80 1058/82
f 1080/9 913/348 930/349
f 109/202 106/296 98/182
f 83/313 75/384 73/134
f 986/49 847/352 865/339
f 558/219 547/420 559/185
f 360/46 359/4 358/290
f 119/421 107/199 112/201
f 803/143 999/49 1021/8
f 635/143 992/49 1013/8
f 425/71 422/72 424/73
f 353/260 1002/261 1046/262
f 550/323 539/324 551/325
f 810/179 816/412 809/422
f 600/305 601/367 607/343
f 198/423 190/407 191/343
f 764/424 772/179 771/422
f 221/91 229/343 228/407
f 682/7 688/179 681/425
f 805/91 811/177 804/7
f 772/179 780/358 779/178
f 632/426 639/367 631/366
f 631/366 645/343 638/305
f 721/91 729/343 728/407
f 611/178 603/422 604/179
f 178/426 179/427 186/428
f 186/428 179/427 193/429
f 180/424 187/422 179/430
f 187/422 194/412 179/430
f 732/267 737/336 717/337
f 650/358 657/266 649/268
f 613/431 620/73 612/358
f 731/408 737/71 739/409
f 777/408 784/410 776/432
f 659/357 650/358 651/431
f 818/358 825/266 817/268
f 195/268 202/387 194/267
f 503/21 492/22 504/23
f 510/185 487/186 499/187
f 137/125 122/433 138/122
f 504/23 493/50 505/51
f 420/137 414/72 415/188
f 328/253 327/10 325/130
f 65/96 59/158 57/97
f 595/36 990/37 1012/38
f 716/426 723/367 715/366
f 715/366 729/343 722/305
f 600/305 606/407 599/91
f 762/426 769/367 761/366
f 812/407 818/358 811/177
f 727/177 719/425 720/7
f 651/431 643/177 644/407
f 727/177 733/178 726/179
f 640/428 646/434 639/367
f 645/343 646/434 652/423
f 637/91 645/343 644/407
f 193/429 185/367 186/428
f 216/426 217/427 224/428
f 224/428 217/427 231/429
f 218/424 225/422 217/430
f 225/422 232/412 217/430
f 179/337 202/387 199/336
f 652/423 654/410 660/435
f 197/431 204/73 196/358
f 664/287 667/286 663/149
f 236/423 238/410 244/435
f 736/423 743/357 735/431
f 732/267 741/266 740/387
f 820/423 822/410 828/435
f 499/187 488/328 500/329
f 552/21 541/22 553/23
f 405/135 403/136 404/137
f 888/227 46/195 915/230
f 97/436 95/257 89/302
f 324/12 1064/184 1083/261
f 163/360 147/437 143/312
f 86/304 80/145 88/144
f 668/326 662/284 666/327
f 554/51 543/251 555/252
f 150/67 129/438 130/439
f 752/326 746/284 750/327
f 269/440 273/441 271/442
f 583/443 561/444 584/445
f 271/446 273/447 274/448
f 292/449 291/450 290/451
f 274/452 273/453 276/454
f 471/455 470/456 469/457
f 532/458 531/459 530/460
f 276/457 273/461 278/455
f 528/462 527/463 526/464
f 278/465 273/466 280/467
f 534/443 512/444 535/445
f 280/468 273/469 282/470
f 571/468 574/471 572/472
f 282/473 273/474 284/475
f 477/464 480/476 478/463
f 284/464 273/477 286/462
f 286/478 273/479 288/480
f 577/478 580/481 578/476
f 287/476 262/23 285/463
f 476/471 455/23 456/51
f 288/460 273/482 290/458
f 549/329 561/444 548/187
f 501/323 535/445 500/329
f 467/452 470/456 468/483
f 277/456 265/289 266/217
f 261/21 289/481 260/215
f 290/451 273/484 292/449
f 519/456 509/219 517/483
f 457/252 476/471 456/51
f 286/462 285/463 284/464
f 463/444 461/185 450/187
f 461/185 468/483 460/219
f 292/443 273/485 269/486
f 470/456 460/219 468/483
f 519/456 507/289 508/217
f 522/468 525/471 523/472
f 334/103 332/46 328/104
f 151/35 132/487 131/488
f 350/299 1046/262 1024/300
f 222/305 1048/92 1068/81
f 389/135 387/136 388/137
f 1018/100 1/101 1045/102
f 861/489 141/76 843/490
f 19/132 9/491 17/41
f 101/203 90/303 93/254
f 29/57 23/39 21/58
f 559/185 536/186 548/187
f 120/209 112/196 111/198
f 462/440 466/441 464/442
f 284/475 283/471 282/473
f 464/446 466/447 467/448
f 473/467 472/492 471/465
f 467/452 466/453 469/454
f 516/452 519/456 517/483
f 479/478 482/481 480/476
f 469/457 466/461 471/455
f 271/446 275/483 272/493
f 471/465 466/466 473/467
f 575/475 574/471 573/473
f 473/468 466/469 475/470
f 485/443 463/444 486/445
f 475/473 466/474 477/475
f 565/448 563/493 562/446
f 477/464 466/477 479/462
f 479/478 466/479 481/480
f 528/478 531/481 529/476
f 550/323 584/445 549/329
f 574/471 553/23 554/51
f 481/460 466/482 483/458
f 525/471 504/23 505/51
f 259/323 293/445 258/329
f 278/455 277/456 276/457
f 482/459 452/323 453/325
f 568/456 556/289 557/217
f 483/451 466/484 485/449
f 576/463 552/21 553/23
f 728/407 734/358 727/177
f 278/465 281/472 279/492
f 283/471 262/23 263/51
f 559/185 566/483 558/219
f 485/443 466/485 462/486
f 268/185 275/483 267/219
f 531/459 501/323 502/325
f 280/468 283/471 281/472
f 258/329 247/406 259/323
f 72/63 62/111 64/99
f 636/7 1013/8 1031/9
f 840/243 47/228 932/222
f 721/91 1121/9 975/92
f 767/91 1080/9 1096/92
f 716/291 1017/82 1034/37
f 68/60 58/113 60/112
f 719/143 1079/49 1093/8
f 22/55 16/246 24/43
f 451/329 440/406 452/323
f 182/7 1047/8 1066/9
f 511/440 515/441 513/442
f 476/471 477/475 478/463
f 513/446 515/447 516/448
f 581/451 584/445 582/450
f 516/452 515/453 518/454
f 520/455 519/456 518/457
f 581/458 580/459 579/460
f 518/457 515/461 520/455
f 483/451 486/445 484/450
f 520/465 515/466 522/467
f 111/320 97/436 105/321
f 522/468 515/469 524/470
f 271/442 270/444 269/440
f 524/473 515/474 526/475
f 571/467 570/492 569/465
f 526/464 515/477 528/462
f 528/478 515/479 530/480
f 483/458 482/459 481/460
f 452/323 486/445 451/329
f 500/329 512/444 499/187
f 530/460 515/482 532/458
f 270/444 268/185 257/187
f 523/472 507/289 521/492
f 565/452 568/456 566/483
f 552/21 580/481 551/215
f 258/329 270/444 257/187
f 532/451 515/484 534/449
f 458/289 474/472 457/252
f 512/444 510/185 499/187
f 467/448 465/493 464/446
f 555/252 574/471 554/51
f 503/21 531/481 502/215
f 534/443 515/485 511/486
f 568/456 558/219 566/483
f 454/21 482/481 453/215
f 562/442 561/444 560/440
f 594/291 971/82 990/37
f 413/135 411/136 412/137
f 638/305 1056/92 1075/81
f 764/47 1020/48 1037/49
f 388/137 382/72 383/188
f 166/399 168/401 162/397
f 457/252 446/33 458/289
f 345/135 343/136 344/137
f 829/285 832/287 831/149
f 836/326 830/284 834/327
f 500/329 489/406 501/323
f 69/69 63/95 61/114
f 560/440 564/441 562/442
f 526/475 525/471 524/473
f 562/446 564/447 565/448
f 520/465 523/472 521/492
f 565/452 564/453 567/454
f 290/458 289/459 288/460
f 274/452 277/456 275/483
f 567/457 564/461 569/455
f 513/446 517/483 514/493
f 569/465 564/466 571/467
f 292/443 270/444 293/445
f 571/468 564/469 573/470
f 464/442 463/444 462/440
f 573/473 564/474 575/475
f 534/449 533/450 532/451
f 575/464 564/477 577/462
f 577/478 564/479 579/480
f 512/444 513/442 514/493
f 478/463 454/21 455/23
f 451/329 463/444 450/187
f 579/460 564/482 581/458
f 561/444 559/185 548/187
f 281/472 265/289 279/492
f 286/478 289/481 287/476
f 580/459 550/323 551/325
f 289/459 259/323 260/325
f 581/451 564/484 583/449
f 572/472 556/289 570/492
f 525/471 506/252 523/472
f 568/456 569/455 570/492
f 264/252 283/471 263/51
f 510/185 517/483 509/219
f 583/443 564/485 560/486
f 277/456 267/219 275/483
f 470/456 458/289 459/217
f 473/468 476/471 474/472
f 460/219 449/420 461/185
f 745/285 748/287 747/149
f 1084/100 4/101 1000/102
f 761/80 1123/81 976/82
f 763/36 997/37 1020/38
f 502/215 491/216 503/21
f 257/187 246/328 258/329
f 429/135 427/136 428/137
f 726/179 718/424 719/425
f 684/305 685/367 691/343
f 190/407 182/7 183/91
f 680/424 688/179 687/422
f 184/305 190/407 183/91
f 189/177 181/425 182/7
f 599/91 605/177 598/7
f 189/177 195/178 188/179
f 810/179 802/424 803/425
f 185/367 184/305 177/366
f 690/407 696/358 689/177
f 602/428 608/434 601/367
f 594/426 595/427 602/428
f 602/428 595/427 609/429
f 596/424 603/422 595/430
f 603/422 610/412 595/430
f 679/337 702/387 699/336
f 200/410 198/423 192/432
f 527/463 503/21 504/23
f 781/431 788/73 780/358
f 611/268 620/73 619/266
f 781/431 790/435 789/357
f 236/423 243/357 235/431
f 647/408 654/410 646/432
f 294/285 297/287 296/149
f 804/7 1021/8 1040/9
f 426/15 425/16 424/17
f 260/215 249/216 261/21
f 599/91 1073/9 1089/92
f 265/289 254/322 266/217
f 267/219 256/420 268/185
f 17/41 15/494 23/39
f 216/426 223/367 215/366
f 215/366 229/343 222/305
f 228/407 220/7 221/91
f 641/422 649/178 648/412
f 614/423 606/407 607/343
f 229/343 230/434 236/423
f 190/407 196/358 189/177
f 811/177 817/178 810/179
f 693/429 685/367 686/428
f 814/434 813/343 807/367
f 645/343 651/431 644/407
f 225/422 233/178 232/412
f 632/426 633/427 640/428
f 640/428 633/427 647/429
f 634/424 641/422 633/430
f 641/422 648/412 633/430
f 693/408 700/410 692/432
f 195/268 204/73 203/266
f 815/408 821/71 823/409
f 735/431 742/73 734/358
f 232/267 241/266 240/387
f 820/423 827/357 819/431
f 234/358 241/266 233/268
f 231/408 238/410 230/432
f 722/305 975/92 996/81
f 548/187 537/328 549/329
f 386/15 385/16 384/17
f 549/329 538/406 550/323
f 221/91 1026/9 1048/92
f 147/310 136/495 135/496
f 179/36 984/37 1003/38
f 370/15 369/16 368/17
f 594/426 601/367 593/366
f 224/428 230/434 223/367
f 767/91 773/177 766/7
f 180/424 188/179 187/422
f 775/343 781/431 774/407
f 766/7 772/179 765/425
f 774/407 780/358 773/177
f 776/434 775/343 769/367
f 726/179 732/412 725/422
f 192/434 191/343 185/367
f 228/407 234/358 227/177
f 772/179 778/412 771/422
f 678/426 679/427 686/428
f 686/428 679/427 693/429
f 680/424 687/422 679/430
f 687/422 694/412 679/430
f 763/337 786/387 783/336
f 647/408 653/71 655/409
f 231/408 237/71 239/409
f 648/267 653/336 633/337
f 787/266 778/267 779/268
f 556/289 545/322 557/217
f 619/266 610/267 611/268
f 700/410 698/423 692/432
f 508/217 497/218 509/219
f 677/80 1032/81 1058/82
f 598/7 1055/8 1073/9
f 720/7 1093/8 1121/9
f 23/39 13/13 21/58
f 184/305 1085/92 1104/81
f 679/36 1076/37 1092/38
f 507/289 496/322 508/217
f 731/429 723/367 724/428
f 799/366 813/343 806/305
f 229/343 235/431 228/407
f 178/426 185/367 177/366
f 767/91 775/343 774/407
f 605/177 597/425 598/7
f 684/305 690/407 683/91
f 643/177 649/178 642/179
f 601/367 614/423 607/343
f 226/179 218/424 219/425
f 690/407 698/423 697/431
f 811/177 803/425 804/7
f 716/426 717/427 724/428
f 724/428 717/427 731/429
f 718/424 725/422 717/430
f 725/422 732/412 717/430
f 199/71 193/408 179/497
f 815/408 822/410 814/432
f 784/410 782/423 776/432
f 234/358 243/357 242/73
f 816/267 825/266 824/387
f 652/423 659/357 651/431
f 816/267 821/336 801/337
f 193/408 200/410 192/432
f 680/47 1092/48 1118/49
f 336/44 333/45 332/46
f 684/305 1016/92 1032/81
f 698/423 705/357 697/431
f 216/291 1086/82 1106/37
f 631/80 1075/81 1090/82
f 633/36 1116/37 973/38
f 718/47 1060/48 1079/49
f 678/426 685/367 677/366
f 692/434 691/343 685/367
f 813/343 819/431 812/407
f 769/367 777/429 776/434
f 683/91 689/177 682/7
f 642/179 634/424 635/425
f 606/407 612/358 605/177
f 688/179 696/358 695/178
f 227/177 233/178 226/179
f 219/425 227/177 226/179
f 644/407 636/7 637/91
f 90/498 50/54 93/499
f 762/426 763/427 770/428
f 770/428 763/427 777/429
f 764/424 771/422 763/430
f 771/422 778/412 763/430
f 699/71 693/408 679/497
f 609/408 616/410 608/432
f 615/71 609/408 595/497
f 595/337 618/387 615/336
f 788/73 779/268 780/358
f 819/431 826/73 818/358
f 696/358 703/266 695/268
f 616/410 614/423 608/432
f 862/269 307/73 876/270
f 762/291 976/82 997/37
f 452/323 441/324 453/325
f 768/305 1096/92 1123/81
f 264/252 253/33 265/289
f 509/219 498/420 510/185
f 505/51 494/251 506/252
f 596/47 1012/48 1030/49
f 195/178 187/422 188/179
f 808/428 814/434 807/367
f 721/91 727/177 720/7
f 688/179 694/412 687/422
f 575/464 578/476 576/463
f 643/177 635/425 636/7
f 805/91 813/343 812/407
f 768/305 769/367 775/343
f 800/426 807/367 799/366
f 730/434 729/343 723/367
f 729/343 735/431 728/407
f 604/179 596/424 597/425
f 800/426 801/427 808/428
f 808/428 801/427 815/429
f 802/424 809/422 801/430
f 809/422 816/412 801/430
f 697/431 704/73 696/358
f 736/423 738/410 744/435
f 783/71 777/408 763/497
f 206/435 197/431 198/423
f 657/266 648/267 649/268
f 613/431 622/435 621/357
f 734/358 741/266 733/268
f 731/408 738/410 730/432
f 298/283 299/338 295/284
f 42/214 34/83 36/90
f 134/241 41/78 839/242
f 665/283 666/338 662/284
f 58/113 61/114 901/161
f 161/74 162/186 142/75
f 377/71 375/188 374/72
f 613/431 621/357 620/73
f 882/348 1124/368 998/369
f 873/317 48/94 43/356
f 4/158 1128/32 1000/30
f 936/418 981/500 1112/372
f 1130/501 899/502 1041/503
f 304/383 934/270 305/386
f 1000/30 1072/344 872/347
f 878/418 1126/500 985/372
f 931/341 1038/351 968/342
f 896/235 1019/236 964/237
f 1088/351 174/504 175/505
f 852/340 1008/342 1044/236
f 1081/81 914/350 931/341
f 995/369 172/506 173/507
f 1054/345 967/508 957/396
f 1114/81 940/350 951/341
f 1115/342 675/505 676/509
f 971/82 951/341 848/340
f 1012/38 866/235 881/364
f 1008/342 759/505 760/509
f 351/11 350/294 1024/183
f 1002/261 983/184 860/417
f 92/169 54/180 56/164
f 381/135 378/15 379/136
f 25/40 27/332 19/132
f 397/135 394/15 395/136
f 19/42 24/43 16/246
f 352/12 351/11 983/184
f 1072/344 1009/510 1132/511
f 924/349 995/369 1100/370
f 920/359 1130/501 1001/100
f 125/375 916/231 46/195
f 1005/351 674/504 675/505
f 845/281 143/312 147/437
f 8/512 980/513 4/514
f 1041/515 838/419 960/513
f 945/340 968/342 1051/236
f 124/376 902/162 61/114
f 1077/365 586/516 587/517
f 948/518 1082/373 1052/519
f 1103/300 844/371 948/518
f 1013/8 867/339 882/348
f 1076/37 911/340 928/235
f 962/262 936/418 844/371
f 1021/8 871/339 886/348
f 1056/92 894/349 910/350
f 989/342 175/505 176/509
f 1082/373 319/520 321/521
f 631/366 639/367 645/343
f 942/364 928/235 988/237
f 105/106 97/436 98/182
f 551/215 539/522 540/216
f 122/160 121/523 47/228
f 605/177 612/358 611/178
f 1134/32 900/189 1036/345
f 149/123 138/122 859/264
f 136/377 839/242 840/243
f 34/83 37/85 29/57
f 298/148 294/285 296/149
f 353/260 352/12 1002/261
f 860/417 1061/524 1126/500
f 1043/365 208/516 209/517
f 1014/373 347/520 349/521
f 1084/525 1105/344 1131/511
f 1067/351 212/504 213/505
f 910/350 1033/370 1122/351
f 42/214 856/225 855/224
f 1099/351 712/504 713/505
f 1087/515 837/419 1102/513
f 1020/38 870/235 885/364
f 1052/519 321/521 320/526
f 1122/351 628/504 629/505
f 1040/9 886/348 898/349
f 912/364 964/237 978/365
f 998/369 626/506 627/507
f 1030/49 881/352 893/339
f 1073/9 909/348 926/349
f 1132/511 837/359 959/515
f 1124/368 625/247 626/506
f 1065/515 987/510 920/359
f 1032/81 883/350 895/341
f 1092/38 928/235 942/364
f 1112/372 318/527 319/520
f 46/195 916/231 915/230
f 949/341 938/350 1088/351
f 98/182 97/436 89/302
f 772/179 773/177 780/358
f 461/185 449/420 438/186
f 118/209 119/382 120/210
f 373/135 370/15 371/136
f 802/47 801/346 979/48
f 611/178 610/412 603/422
f 330/290 331/4 326/6
f 501/323 489/406 490/324
f 82/52 74/68 76/142
f 145/119 139/118 875/280
f 939/340 1010/342 1028/236
f 1059/237 585/528 586/516
f 871/339 1039/353 1007/368
f 1125/37 945/340 956/235
f 1057/369 794/506 795/507
f 919/417 1052/524 981/500
f 152/529 858/128 132/416
f 1061/519 349/521 348/526
f 868/349 1023/369 1022/370
f 996/81 851/350 869/341
f 1100/370 173/507 174/504
f 1126/500 348/517 346/527
f 1058/82 895/341 911/340
f 145/530 904/29 133/240
f 968/342 797/505 798/509
f 964/237 707/528 708/516
f 937/359 1000/102 872/419
f 1022/370 673/507 674/504
f 1010/342 213/505 214/509
f 1131/511 958/396 987/510
f 1106/37 939/340 950/235
f 1118/49 942/352 953/339
f 872/347 1132/511 977/525
f 913/348 972/368 1119/369
f 355/10 354/6 351/11
f 1116/37 1090/82 941/340
f 634/47 633/346 973/48
f 198/423 197/431 190/407
f 749/283 750/338 746/284
f 635/143 634/47 992/49
f 450/187 438/186 439/328
f 456/51 444/50 445/251
f 558/219 546/218 547/420
f 104/197 103/411 96/256
f 632/426 640/428 639/367
f 453/215 441/522 442/216
f 892/349 991/369 1117/370
f 1110/351 590/504 591/505
f 853/364 1113/237 1039/365
f 884/340 1015/342 1019/236
f 1074/369 588/506 589/507
f 128/157 946/234 64/99
f 61/114 902/162 901/161
f 7/512 977/513 3/514
f 859/20 124/376 142/531
f 1037/49 885/352 897/339
f 978/365 708/516 709/517
f 8/512 1131/511 1065/515
f 1075/81 910/350 927/341
f 987/510 993/508 1130/501
f 1079/49 912/352 929/339
f 977/525 959/515 3/512
f 1089/92 926/349 940/350
f 1028/236 214/509 207/528
f 1127/501 1/395 1102/100
f 1007/368 793/247 794/506
f 973/38 952/235 849/364
f 1121/9 943/348 954/349
f 985/372 346/527 347/520
f 883/350 1022/370 1005/351
f 994/9 974/8 850/348
f 144/191 143/312 128/192
f 135/28 136/377 57/97
f 843/330 141/532 123/221
f 332/46 333/45 331/4
f 650/358 658/73 657/266
f 266/217 254/322 255/218
f 160/66 159/121 149/123
f 96/204 51/335 49/147
f 436/137 435/136 430/72
f 115/333 118/533 110/334
f 818/358 826/73 825/266
f 149/534 842/153 129/168
f 1053/370 757/507 758/504
f 1036/345 1087/306 1129/308
f 972/368 755/247 756/506
f 1029/342 629/505 630/509
f 132/416 888/227 60/112
f 47/228 933/223 932/222
f 1009/510 1102/100 837/359
f 875/110 128/157 143/535
f 1003/38 864/235 879/364
f 981/500 320/517 318/527
f 6/512 960/513 2/514
f 976/82 955/341 852/340
f 914/350 1035/370 1038/351
f 997/37 852/340 870/235
f 1123/81 944/350 955/341
f 1048/92 892/349 908/350
f 5/512 1102/513 1/514
f 988/237 669/528 670/516
f 1051/236 798/509 791/528
f 1090/82 927/341 941/340
f 1104/81 938/350 949/341
f 1044/236 760/509 753/528
f 846/340 989/342 1101/236
f 835/286 831/149 832/287
f 122/160 45/84 901/161
f 950/235 939/340 1028/236
f 232/267 240/387 237/336
f 93/166 50/54 52/53
f 360/46 361/45 359/4
f 380/137 379/136 374/72
f 162/186 167/33 151/35
f 136/377 918/316 839/242
f 850/348 1109/368 1023/369
f 1098/365 754/516 755/517
f 881/364 1059/237 1077/365
f 1001/100 1041/503 6/395
f 880/348 965/368 991/369
f 1035/370 795/507 796/504
f 312/383 935/270 313/386
f 898/349 1057/369 1035/370
f 148/536 918/316 136/377
f 1101/236 176/509 169/528
f 885/364 1095/237 1098/365
f 984/37 846/340 864/235
f 982/236 592/509 585/528
f 990/37 848/340 866/235
f 1133/308 838/502 967/508
f 1026/9 880/348 892/349
f 1064/184 948/537 919/417
f 1062/8 897/339 913/348
f 1078/368 171/247 172/506
f 378/15 381/135 377/16
f 47/228 39/77 37/85
f 844/371 936/418 1112/372
f 907/348 891/339 1078/368
f 119/421 116/538 107/199
f 1120/306 2/539 960/307
f 126/276 139/118 140/65
f 325/260 324/12 1083/261
f 980/31 1054/345 1128/32
f 943/348 1070/368 1011/369
f 1019/236 714/509 707/528
f 1065/515 854/419 980/513
f 991/369 210/506 211/507
f 951/341 1110/351 969/342
f 1033/370 627/507 628/504
f 894/349 998/369 1033/370
f 938/350 1100/370 1088/351
f 121/523 933/223 47/228
f 969/342 591/505 592/509
f 865/339 1043/353 965/368
f 1031/9 882/348 894/349
f 1046/262 878/418 905/371
f 1034/37 884/340 896/235
f 1047/8 891/339 907/348
f 1095/237 753/528 754/516
f 983/184 890/537 860/417
f 961/365 624/516 625/517
f 1050/370 711/507 712/504
f 385/71 383/188 382/72
f 410/15 413/135 409/16
f 503/21 491/216 492/22
f 155/159 156/385 140/65
f 37/85 39/77 31/120
f 81/133 87/282 55/146
f 731/408 717/497 737/71
f 1080/9 1062/8 913/348
f 133/240 874/239 43/165
f 864/235 1101/236 1091/237
f 1111/237 623/528 624/516
f 60/112 915/230 62/111
f 1129/308 5/539 1018/307
f 952/235 970/236 1111/237
f 1117/370 211/507 212/504
f 855/224 45/84 42/214
f 137/540 841/331 121/523
f 944/350 1053/370 1071/351
f 1023/369 672/506 673/507
f 869/341 1099/351 1015/342
f 1097/82 931/341 945/340
f 1096/92 930/349 944/350
f 992/49 849/352 867/339
f 899/359 1045/102 838/419
f 979/38 956/235 853/364
f 33/79 35/541 27/332
f 900/359 959/102 837/419
f 975/92 954/349 851/350
f 268/185 256/420 245/186
f 401/71 399/188 398/72
f 83/163 51/172 56/164
f 396/137 395/136 390/72
f 906/151 151/542 131/152
f 600/305 599/91 1089/92
f 986/49 966/48 847/352
f 764/424 765/425 772/179
f 967/508 1045/503 1127/501
f 866/235 982/236 1059/237
f 1011/369 710/506 711/507
f 886/348 1007/368 1057/369
f 965/368 209/247 210/506
f 847/364 1027/237 1043/365
f 993/508 1018/307 899/502
f 146/250 843/490 137/125
f 316/383 877/270 317/386
f 132/416 858/128 887/226
f 1119/369 756/506 757/507
f 867/339 961/353 1124/368
f 854/189 1133/308 1054/345
f 1049/370 589/507 590/504
f 1069/365 670/516 671/517
f 1025/49 879/352 891/339
f 1109/368 671/247 672/506
f 1016/92 868/349 883/350
f 1024/300 905/371 890/518
f 1027/237 207/528 208/516
f 510/185 498/420 487/186
f 89/174 55/146 53/140
f 76/142 74/68 66/70
f 459/217 447/322 448/218
f 363/272 362/103 356/104
f 803/143 802/47 999/49
f 137/125 153/405 158/248
f 43/165 35/541 33/79
f 128/157 917/109 947/233
f 851/350 1050/370 1099/351
f 1071/351 758/504 759/505
f 890/518 1014/373 1061/519
f 1091/237 169/528 170/516
f 930/349 1119/369 1053/370
f 1038/351 796/504 797/505
f 909/348 1107/368 1074/369
f 925/341 1067/351 1010/342
f 150/67 889/279 140/65
f 1039/365 792/516 793/517
f 908/350 1117/370 1067/351
f 1085/92 924/349 938/350
f 1070/368 709/247 710/506
f 1066/9 907/348 924/349
f 974/8 953/339 850/348
f 1017/82 869/341 884/340
f 1086/82 925/341 939/340
f 1063/92 898/349 914/350
f 970/236 630/509 623/528
f 597/143 596/47 1030/49
f 99/208 102/207 94/255
f 83/313 81/133 49/147
f 137/125 121/543 122/433
f 550/323 538/406 539/324
f 889/258 144/544 127/229
f 28/56 26/275 18/1
f 955/341 944/350 1071/351
f 1108/515 872/419 977/513
f 927/341 1122/351 1029/342
f 1128/32 957/396 1072/344
f 940/350 1049/370 1110/351
f 957/396 1127/501 1009/510
f 928/235 1006/236 988/237
f 1015/342 713/505 714/509
f 57/97 932/222 63/95
f 897/339 1098/353 972/368
f 129/168 856/225 42/214
f 958/396 1129/308 993/508
f 905/371 985/372 1014/373
f 1068/81 908/350 925/341
f 1094/365 170/516 171/517
f 1093/8 929/339 943/348
f 1113/237 791/528 792/516
f 1107/368 587/247 588/506
f 963/82 949/341 846/340
f 1083/261 919/417 936/418
f 1006/236 676/509 669/528
f 800/291 1097/82 1125/37
f 504/23 492/22 493/50
f 420/137 419/136 414/72
f 328/253 330/290 327/10
f 65/96 67/318 59/158
f 595/36 594/291 990/37
f 716/426 724/428 723/367
f 715/366 723/367 729/343
f 600/305 607/343 606/407
f 762/426 770/428 769/367
f 812/407 819/431 818/358
f 727/177 726/179 719/425
f 651/431 650/358 643/177
f 727/177 734/358 733/178
f 640/428 647/429 646/434
f 645/343 639/367 646/434
f 637/91 638/305 645/343
f 193/429 192/434 185/367
f 179/337 194/267 202/387
f 652/423 646/432 654/410
f 197/431 205/357 204/73
f 664/287 668/288 667/286
f 236/423 230/432 238/410
f 736/423 744/435 743/357
f 732/267 733/268 741/266
f 820/423 814/432 822/410
f 499/187 487/186 488/328
f 552/21 540/216 541/22
f 405/135 402/15 403/136
f 888/227 44/89 46/195
f 97/436 104/197 95/257
f 324/12 323/11 1064/184
f 163/360 165/545 147/437
f 86/304 78/59 80/145
f 668/326 664/287 662/284
f 554/51 542/50 543/251
f 150/67 149/123 129/438
f 752/326 748/287 746/284
f 583/443 560/486 561/444
f 292/449 293/445 291/450
f 471/455 472/492 470/456
f 532/458 533/450 531/459
f 528/462 529/476 527/463
f 534/443 511/486 512/444
f 571/468 573/470 574/471
f 477/464 479/462 480/476
f 577/478 579/480 580/481
f 287/476 261/21 262/23
f 476/471 478/463 455/23
f 549/329 584/445 561/444
f 501/323 533/450 535/445
f 467/452 469/454 470/456
f 277/456 279/492 265/289
f 261/21 287/476 289/481
f 519/456 508/217 509/219
f 457/252 474/472 476/471
f 286/462 287/476 285/463
f 463/444 465/493 461/185
f 461/185 465/493 468/483
f 470/456 459/217 460/219
f 519/456 521/492 507/289
f 522/468 524/470 525/471
f 334/103 336/44 332/46
f 151/35 152/34 132/487
f 350/299 353/260 1046/262
f 222/305 221/91 1048/92
f 389/135 386/15 387/136
f 1018/100 5/395 1/101
f 861/489 148/274 141/76
f 19/132 11/514 9/491
f 101/203 98/182 90/303
f 29/57 31/120 23/39
f 559/185 547/420 536/186
f 120/209 119/211 112/196
f 284/475 285/463 283/471
f 473/467 474/472 472/492
f 516/452 518/454 519/456
f 479/478 481/480 482/481
f 271/446 274/448 275/483
f 575/475 576/463 574/471
f 485/443 462/486 463/444
f 565/448 566/483 563/493
f 528/478 530/480 531/481
f 550/323 582/450 584/445
f 574/471 576/463 553/23
f 525/471 527/463 504/23
f 259/323 291/450 293/445
f 278/455 279/492 277/456
f 482/459 484/450 452/323
f 568/456 570/492 556/289
f 576/463 578/476 552/21
f 728/407 735/431 734/358
f 278/465 280/467 281/472
f 283/471 285/463 262/23
f 559/185 563/493 566/483
f 268/185 272/493 275/483
f 531/459 533/450 501/323
f 280/468 282/470 283/471
f 258/329 246/328 247/406
f 72/63 70/61 62/111
f 636/7 635/143 1013/8
f 840/243 41/78 47/228
f 721/91 720/7 1121/9
f 767/91 766/7 1080/9
f 716/291 715/80 1017/82
f 68/60 66/70 58/113
f 719/143 718/47 1079/49
f 22/55 14/220 16/246
f 451/329 439/328 440/406
f 182/7 181/143 1047/8
f 476/471 475/473 477/475
f 581/451 583/449 584/445
f 520/455 521/492 519/456
f 581/458 582/450 580/459
f 483/451 485/449 486/445
f 111/320 104/197 97/436
f 271/442 272/493 270/444
f 571/467 572/472 570/492
f 483/458 484/450 482/459
f 452/323 484/450 486/445
f 500/329 535/445 512/444
f 270/444 272/493 268/185
f 523/472 506/252 507/289
f 565/452 567/454 568/456
f 552/21 578/476 580/481
f 258/329 293/445 270/444
f 458/289 472/492 474/472
f 512/444 514/493 510/185
f 467/448 468/483 465/493
f 555/252 572/472 574/471
f 503/21 529/476 531/481
f 568/456 557/217 558/219
f 454/21 480/476 482/481
f 562/442 563/493 561/444
f 594/291 593/80 971/82
f 413/135 410/15 411/136
f 638/305 637/91 1056/92
f 764/47 763/346 1020/48
f 388/137 387/136 382/72
f 166/399 163/360 168/401
f 457/252 445/251 446/33
f 345/135 342/15 343/136
f 829/285 830/284 832/287
f 836/326 832/287 830/284
f 500/329 488/328 489/406
f 69/69 71/116 63/95
f 526/475 527/463 525/471
f 520/465 522/467 523/472
f 290/458 291/450 289/459
f 274/452 276/454 277/456
f 513/446 516/448 517/483
f 292/443 269/486 270/444
f 464/442 465/493 463/444
f 534/449 535/445 533/450
f 512/444 511/440 513/442
f 478/463 480/476 454/21
f 451/329 486/445 463/444
f 561/444 563/493 559/185
f 281/472 264/252 265/289
f 286/478 288/480 289/481
f 580/459 582/450 550/323
f 289/459 291/450 259/323
f 572/472 555/252 556/289
f 525/471 505/51 506/252
f 568/456 567/457 569/455
f 264/252 281/472 283/471
f 510/185 514/493 517/483
f 277/456 266/217 267/219
f 470/456 472/492 458/289
f 473/468 475/470 476/471
f 460/219 448/218 449/420
f 745/285 746/284 748/287
f 1084/100 8/395 4/101
f 761/80 768/305 1123/81
f 763/36 762/291 997/37
f 502/215 490/522 491/216
f 257/187 245/186 246/328
f 429/135 426/15 427/136
f 726/179 725/422 718/424
f 684/305 677/366 685/367
f 190/407 189/177 182/7
f 680/424 681/425 688/179
f 184/305 191/343 190/407
f 189/177 188/179 181/425
f 599/91 606/407 605/177
f 189/177 196/358 195/178
f 810/179 809/422 802/424
f 185/367 191/343 184/305
f 690/407 697/431 696/358
f 602/428 609/429 608/434
f 679/337 694/267 702/387
f 200/410 206/435 198/423
f 527/463 529/476 503/21
f 781/431 789/357 788/73
f 611/268 612/358 620/73
f 781/431 782/423 790/435
f 236/423 244/435 243/357
f 647/408 655/409 654/410
f 294/285 295/284 297/287
f 804/7 803/143 1021/8
f 426/15 429/135 425/16
f 260/215 248/522 249/216
f 599/91 598/7 1073/9
f 265/289 253/33 254/322
f 267/219 255/218 256/420
f 17/41 9/491 15/494
f 216/426 224/428 223/367
f 215/366 223/367 229/343
f 228/407 227/177 220/7
f 641/422 642/179 649/178
f 614/423 613/431 606/407
f 229/343 223/367 230/434
f 190/407 197/431 196/358
f 811/177 818/358 817/178
f 693/429 692/434 685/367
f 814/434 820/423 813/343
f 645/343 652/423 651/431
f 225/422 226/179 233/178
f 693/408 701/409 700/410
f 195/268 196/358 204/73
f 815/408 801/497 821/71
f 735/431 743/357 742/73
f 232/267 233/268 241/266
f 820/423 828/435 827/357
f 234/358 242/73 241/266
f 231/408 239/409 238/410
f 722/305 721/91 975/92
f 548/187 536/186 537/328
f 386/15 389/135 385/16
f 549/329 537/328 538/406
f 221/91 220/7 1026/9
f 147/310 148/274 136/495
f 179/36 178/291 984/37
f 370/15 373/135 369/16
f 594/426 602/428 601/367
f 224/428 231/429 230/434
f 767/91 774/407 773/177
f 180/424 181/425 188/179
f 775/343 782/423 781/431
f 766/7 773/177 772/179
f 774/407 781/431 780/358
f 776/434 782/423 775/343
f 726/179 733/178 732/412
f 192/434 198/423 191/343
f 228/407 235/431 234/358
f 772/179 779/178 778/412
f 763/337 778/267 786/387
f 647/408 633/497 653/71
f 231/408 217/497 237/71
f 648/267 656/387 653/336
f 787/266 786/387 778/267
f 556/289 544/33 545/322
f 619/266 618/387 610/267
f 700/410 706/435 698/423
f 508/217 496/322 497/218
f 677/80 684/305 1032/81
f 598/7 597/143 1055/8
f 720/7 719/143 1093/8
f 23/39 15/494 13/13
f 184/305 183/91 1085/92
f 679/36 678/291 1076/37
f 507/289 495/33 496/322
f 731/429 730/434 723/367
f 799/366 807/367 813/343
f 229/343 236/423 235/431
f 178/426 186/428 185/367
f 767/91 768/305 775/343
f 605/177 604/179 597/425
f 684/305 691/343 690/407
f 643/177 650/358 649/178
f 601/367 608/434 614/423
f 226/179 225/422 218/424
f 690/407 691/343 698/423
f 811/177 810/179 803/425
f 199/71 201/409 193/408
f 815/408 823/409 822/410
f 784/410 790/435 782/423
f 234/358 235/431 243/357
f 816/267 817/268 825/266
f 652/423 660/435 659/357
f 816/267 824/387 821/336
f 193/408 201/409 200/410
f 680/47 679/346 1092/48
f 336/44 337/86 333/45
f 684/305 683/91 1016/92
f 698/423 706/435 705/357
f 216/291 215/80 1086/82
f 631/80 638/305 1075/81
f 633/36 632/291 1116/37
f 718/47 717/346 1060/48
f 678/426 686/428 685/367
f 692/434 698/423 691/343
f 813/343 820/423 819/431
f 769/367 770/428 777/429
f 683/91 690/407 689/177
f 642/179 641/422 634/424
f 606/407 613/431 612/358
f 688/179 689/177 696/358
f 227/177 234/358 233/178
f 219/425 220/7 227/177
f 644/407 643/177 636/7
f 90/498 53/140 50/54
f 699/71 701/409 693/408
f 609/408 617/409 616/410
f 615/71 617/409 609/408
f 595/337 610/267 618/387
f 788/73 787/266 779/268
f 819/431 827/357 826/73
f 696/358 704/73 703/266
f 616/410 622/435 614/423
f 862/269 306/362 307/73
f 762/291 761/80 976/82
f 452/323 440/406 441/324
f 768/305 767/91 1096/92
f 264/252 252/251 253/33
f 509/219 497/218 498/420
f 505/51 493/50 494/251
f 596/47 595/346 1012/48
f 195/178 194/412 187/422
f 808/428 815/429 814/434
f 721/91 728/407 727/177
f 688/179 695/178 694/412
f 575/464 577/462 578/476
f 643/177 642/179 635/425
f 805/91 806/305 813/343
f 768/305 761/366 769/367
f 800/426 808/428 807/367
f 730/434 736/423 729/343
f 729/343 736/423 735/431
f 604/179 603/422 596/424
f 697/431 705/357 704/73
f 736/423 730/432 738/410
f 783/71 785/409 777/408
f 206/435 205/357 197/431
f 657/266 656/387 648/267
f 613/431 614/423 622/435
f 734/358 742/73 741/266
f 731/408 739/409 738/410
f 882/348 867/339 1124/368
f 873/317 946/234 48/94
f 4/158 980/31 1128/32
f 936/418 919/417 981/500
f 1130/501 993/508 899/502
f 304/383 922/269 934/270
f 1000/30 1128/32 1072/344
f 878/418 860/417 1126/500
f 931/341 914/350 1038/351
f 896/235 884/340 1019/236
f 1088/351 1100/370 174/504
f 852/340 955/341 1008/342
f 1081/81 1063/92 914/350
f 995/369 1078/368 172/506
f 1054/345 1133/308 967/508
f 1114/81 1089/92 940/350
f 1115/342 1005/351 675/505
f 971/82 1114/81 951/341
f 1012/38 990/37 866/235
f 1008/342 1071/351 759/505
f 1072/344 957/396 1009/510
f 924/349 907/348 995/369
f 920/359 987/510 1130/501
f 125/375 903/259 916/231
f 1005/351 1022/370 674/504
f 845/281 875/280 143/312
f 8/512 1065/515 980/513
f 1041/515 899/359 838/419
f 945/340 931/341 968/342
f 124/376 857/19 902/162
f 1077/365 1059/237 586/516
f 948/518 844/371 1082/373
f 1103/300 962/262 844/371
f 1013/8 992/49 867/339
f 1076/37 1058/82 911/340
f 962/262 1083/261 936/418
f 1021/8 999/49 871/339
f 1056/92 1031/9 894/349
f 989/342 1088/351 175/505
f 1082/373 1112/372 319/520
f 1134/32 1042/31 900/189
f 860/417 890/537 1061/524
f 1043/365 1027/237 208/516
f 1014/373 985/372 347/520
f 1084/525 937/347 1105/344
f 1067/351 1117/370 212/504
f 910/350 894/349 1033/370
f 1099/351 1050/370 712/504
f 1087/515 900/359 837/419
f 1020/38 997/37 870/235
f 1052/519 1082/373 321/521
f 1122/351 1033/370 628/504
f 1040/9 1021/8 886/348
f 912/364 896/235 964/237
f 998/369 1124/368 626/506
f 1030/49 1012/48 881/352
f 1073/9 1055/8 909/348
f 1132/511 1009/510 837/359
f 1124/368 961/353 625/247
f 1065/515 1131/511 987/510
f 1032/81 1016/92 883/350
f 1092/38 1076/37 928/235
f 1112/372 981/500 318/527
f 939/340 925/341 1010/342
f 1059/237 982/236 585/528
f 871/339 853/352 1039/353
f 1125/37 1097/82 945/340
f 1057/369 1007/368 794/506
f 919/417 948/537 1052/524
f 152/529 921/126 858/128
f 1061/519 1014/373 349/521
f 868/349 850/348 1023/369
f 996/81 975/92 851/350
f 1100/370 995/369 173/507
f 1126/500 1061/524 348/517
f 1058/82 1032/81 895/341
f 145/530 845/27 904/29
f 968/342 1038/351 797/505
f 964/237 1019/236 707/528
f 937/359 1084/100 1000/102
f 1022/370 1023/369 673/507
f 1010/342 1067/351 213/505
f 1131/511 1105/344 958/396
f 1106/37 1086/82 939/340
f 1118/49 1092/48 942/352
f 872/347 1072/344 1132/511
f 913/348 897/339 972/368
f 892/349 880/348 991/369
f 1110/351 1049/370 590/504
f 853/364 956/235 1113/237
f 884/340 869/341 1015/342
f 1074/369 1107/368 588/506
f 128/157 947/233 946/234
f 7/512 1108/515 977/513
f 859/20 857/19 124/376
f 1037/49 1020/48 885/352
f 978/365 964/237 708/516
f 8/512 1084/525 1131/511
f 1075/81 1056/92 910/350
f 987/510 958/396 993/508
f 1079/49 1060/48 912/352
f 977/525 1132/511 959/515
f 1089/92 1073/9 926/349
f 1028/236 1010/342 214/509
f 1127/501 1045/503 1/395
f 1007/368 1039/353 793/247
f 973/38 1116/37 952/235
f 1121/9 1093/8 943/348
f 985/372 1126/500 346/527
f 883/350 868/349 1022/370
f 149/534 906/151 842/153
f 1053/370 1119/369 757/507
f 1036/345 900/189 1087/306
f 972/368 1098/353 755/247
f 1029/342 1122/351 629/505
f 132/416 887/226 888/227
f 1009/510 1127/501 1102/100
f 875/110 917/109 128/157
f 1003/38 984/37 864/235
f 981/500 1052/524 320/517
f 6/512 1041/515 960/513
f 976/82 1123/81 955/341
f 914/350 898/349 1035/370
f 997/37 976/82 852/340
f 1123/81 1096/92 944/350
f 1048/92 1026/9 892/349
f 5/512 1087/515 1102/513
f 988/237 1006/236 669/528
f 1051/236 968/342 798/509
f 1090/82 1075/81 927/341
f 1104/81 1085/92 938/350
f 1044/236 1008/342 760/509
f 846/340 949/341 989/342
f 850/348 953/339 1109/368
f 1098/365 1095/237 754/516
f 881/364 866/235 1059/237
f 1001/100 1130/501 1041/503
f 880/348 865/339 965/368
f 1035/370 1057/369 795/507
f 312/383 923/269 935/270
f 898/349 886/348 1057/369
f 148/536 861/315 918/316
f 1101/236 989/342 176/509
f 885/364 870/235 1095/237
f 984/37 963/82 846/340
f 982/236 969/342 592/509
f 990/37 971/82 848/340
f 1133/308 960/307 838/502
f 1026/9 1004/8 880/348
f 1064/184 1103/183 948/537
f 1062/8 1037/49 897/339
f 1078/368 1094/353 171/247
f 980/31 854/189 1054/345
f 943/348 929/339 1070/368
f 1019/236 1015/342 714/509
f 1065/515 920/359 854/419
f 991/369 965/368 210/506
f 951/341 940/350 1110/351
f 1033/370 998/369 627/507
f 894/349 882/348 998/369
f 938/350 924/349 1100/370
f 121/523 841/331 933/223
f 969/342 1110/351 591/505
f 865/339 847/352 1043/353
f 1031/9 1013/8 882/348
f 1046/262 1002/261 878/418
f 1034/37 1017/82 884/340
f 1047/8 1025/49 891/339
f 1095/237 1044/236 753/528
f 983/184 1024/183 890/537
f 961/365 1111/237 624/516
f 1050/370 1011/369 711/507
f 133/240 904/29 874/239
f 864/235 846/340 1101/236
f 1111/237 970/236 623/528
f 60/112 888/227 915/230
f 1129/308 1087/306 5/539
f 952/235 941/340 970/236
f 1117/370 991/369 211/507
f 855/224 901/161 45/84
f 137/540 843/330 841/331
f 944/350 930/349 1053/370
f 1023/369 1109/368 672/506
f 869/341 851/350 1099/351
f 1097/82 1081/81 931/341
f 1096/92 1080/9 930/349
f 992/49 973/48 849/352
f 899/359 1018/100 1045/102
f 979/38 1125/37 956/235
f 900/359 1042/100 959/102
f 975/92 1121/9 954/349
f 967/508 838/502 1045/503
f 866/235 848/340 982/236
f 1011/369 1070/368 710/506
f 886/348 871/339 1007/368
f 965/368 1043/353 209/247
f 847/364 950/235 1027/237
f 993/508 1129/308 1018/307
f 146/250 861/489 843/490
f 316/383 863/269 877/270
f 1119/369 972/368 756/506
f 867/339 849/352 961/353
f 854/189 1120/306 1133/308
f 1049/370 1074/369 589/507
f 1069/365 988/237 670/516
f 1025/49 1003/48 879/352
f 1109/368 1069/353 671/247
f 1016/92 994/9 868/349
f 1024/300 1046/262 905/371
f 1027/237 1028/236 207/528
f 851/350 954/349 1050/370
f 1071/351 1053/370 758/504
f 890/518 905/371 1014/373
f 1091/237 1101/236 169/528
f 930/349 913/348 1119/369
f 1038/351 1035/370 796/504
f 909/348 893/339 1107/368
f 925/341 908/350 1067/351
f 150/67 921/278 889/279
f 1039/365 1113/237 792/516
f 908/350 892/349 1117/370
f 1085/92 1066/9 924/349
f 1070/368 978/353 709/247
f 1066/9 1047/8 907/348
f 974/8 1118/49 953/339
f 1017/82 996/81 869/341
f 1086/82 1068/81 925/341
f 1063/92 1040/9 898/349
f 970/236 1029/342 630/509
f 1108/515 937/359 872/419
f 927/341 910/350 1122/351
f 1128/32 1054/345 957/396
f 940/350 926/349 1049/370
f 957/396 967/508 1127/501
f 928/235 911/340 1006/236
f 1015/342 1099/351 713/505
f 57/97 840/243 932/222
f 897/339 885/352 1098/353
f 129/168 842/153 856/225
f 958/396 1036/345 1129/308
f 905/371 878/418 985/372
f 1068/81 1048/92 908/350
f 1094/365 1091/237 170/516
f 1093/8 1079/49 929/339
f 1113/237 1051/236 791/528
f 1107/368 1077/353 587/247
f 963/82 1104/81 949/341
f 1083/261 1064/184 919/417
f 1006/236 1115/342 676/509
f 800/291 799/80 1097/82
o Fluid
v 1.0625 2.375 0.375
v 1.0625 2.375 -0.375
v 1.0625 4.625 0.375
v 1.0625 4.625 -0.375
v -1.0625 2.375 -0.375
v -1.0625 2.375 0.375
v -1.0625 4.625 -0.375
v -1.0625 4.625 0.375
v 0.375 2.375 -1.0625
v -0.375 2.375 -1.0625
v 0.375 4.625 -1.0625
v -0.375 4.625 -1.0625
v -0.375 2.375 1.0625
v 0.375 2.375 1.0625
v -0.375 4.625 1.0625
v 0.375 4.625 1.0625
v 1.0625 3.5 -0.375
v -1.0625 3.5 0.375
v -0.375 3.5 -1.0625
v 0.375 3.5 1.0625
v 1.0625 3.5 0.375
v -1.0625 3.5 -0.375
v 0.375 3.5 -1.0625
v -0.375 3.5 1.0625
vt 0.125 0.5
vt 0.875 -1
vt 0.875 0.5
vt 0.125 2
vt 0.875 2
vt 0.125 -1
s 1
f 1156/546 1140/547 1152/548
f 1157/546 1144/547 1153/548
f 1149/549 1154/548 1150/550
f 1155/546 1136/547 1151/548
f 1141/549 1152/548 1142/550
f 1145/549 1153/548 1146/550
f 1137/549 1151/548 1138/550
f 1156/546 1139/551 1140/547
f 1158/546 1148/547 1154/548
f 1157/546 1143/551 1144/547
f 1149/549 1158/546 1154/548
f 1155/546 1135/551 1136/547
f 1141/549 1156/546 1152/548
f 1145/549 1157/546 1153/548
f 1137/549 1155/546 1151/548
f 1158/546 1147/551 1148/547
o Spinner
v 0 6.25 -0.25
v -0.1768 6.25 -0.1768
v -0.25 6.25 -0
v -0.1768 6.25 0.1768
v 0 6.25 0.25
v 0.1768 6.25 0.1768
v 0.25 6.25 -0
v 0.1768 6.25 -0.1768
v 0 6.625 -0.25
v -0.1768 6.625 -0.1768
v -0.25 6.625 -0
v -0.1768 6.625 0.1768
v 0 6.625 0.25
v 0.1768 6.625 0.1768
v 0.25 6.625 -0
v 0.1768 6.625 -0.1768
v -0.0625 6.25 0.5625
v 0.0625 6.25 0.5625
v -0.0625 6.25 -0.5625
v 0.0625 6.25 -0.5625
v -0.0625 6.5 -0.5625
v -0.0625 6.5 0.5625
v 0.0625 6.5 0.5625
v 0.0625 6.5 -0.5625
v 0 1.875 -0.5
v -0.3536 1.875 -0.3536
v -0.5 1.875 -0
v -0.3536 1.875 0.3536
v 0 1.875 0.5
v 0.3536 1.875 0.3536
v 0.5 1.875 -0
v 0.3536 1.875 -0.3536
v 0 5.125 -0.5
v -0.3536 5.125 -0.3536
v -0.5 5.125 -0
v -0.3536 5.125 0.3536
v 0 5.125 0.5
v 0.3536 5.125 0.3536
v 0.5 5.125 -0
v 0.3536 5.125 -0.3536
v -0.0625 1.875 0.75
v 0.0625 1.875 0.75
v -0.0625 1.875 -0.75
v 0.0625 1.875 -0.75
v -0.0625 5.125 0.75
v 0.0625 5.125 0.75
v -0.0625 5.125 -0.75
v 0.0625 5.125 -0.75
v -0.0625 3.5 -0.75
v 0.0625 3.5 0.75
v 0.0625 3.5 -0.75
v 0.0625 1.875 -0
v -0.0625 3.5 0.75
v -0.0625 1.875 -0
v 0.0625 5.125 -0
v -0.0625 5.125 -0
v 0 3.5 -0.5
v 0.3536 3.5 -0.3536
v 0.3536 3.5 0.3536
v -0.3536 3.5 0.3536
v -0.3536 3.5 -0.3536
v 0.5 3.5 -0
v 0 3.5 0.5
v -0.5 3.5 -0
v -0.0625 3.5 -0
v 0.0625 3.5 -0
v 0 2.6875 0.5
v -0.0625 4.3125 -0
v -0.3536 2.6875 -0.3536
v -0.0625 4.3125 -0.75
v -0.5 2.6875 -0
v 0.0625 4.3125 0.75
v 0.0625 4.3125 -0.75
v -0.0625 4.3125 0.75
v 0.5 2.6875 -0
v 0.3536 2.6875 0.3536
v 0.0625 2.6875 -0.75
v 0 2.6875 -0.5
v -0.0625 2.6875 -0
v 0 4.3125 -0.5
v 0.3536 2.6875 -0.3536
v 0.3536 4.3125 -0.3536
v 0.3536 4.3125 0.3536
v -0.0625 2.6875 -0.75
v -0.3536 4.3125 0.3536
v -0.3536 2.6875 0.3536
v -0.3536 4.3125 -0.3536
v -0.0625 2.6875 0.75
v 0.5 4.3125 -0
v 0.0625 2.6875 0.75
v 0 4.3125 0.5
v -0.5 4.3125 -0
v 0.0625 2.6875 -0
v 0.0625 4.3125 -0
vt 0.7 0.9213
vt 0.685 0.8876
vt 0.7 0.8876
vt 0.64 0.809
vt 0.61 0.736
vt 0.64 0.736
vt 0.745 0.9213
vt 0.73 0.8876
vt 0.745 0.8876
vt 0.6 0.5899
vt 0.61 0.5169
vt 0.61 0.5899
vt 0.67 0.809
vt 0.67 0.736
vt 0.73 0.9213
vt 0.715 0.8876
vt 0.505 0.9213
vt 0.505 0.8765
vt 0.5249 0.8989
vt 0.48 0.5899
vt 0.54 0.5169
vt 0.54 0.5899
vt 0.57 0.8315
vt 0.48 0.809
vt 0.57 0.809
vt 0.67 0.9213
vt 0.655 0.8876
vt 0.67 0.8876
vt 0.5191 0.9147
vt 0.4909 0.9147
vt 0.4851 0.8989
vt 0.4909 0.883
vt 0.5191 0.883
vt 0.64 0.6629
vt 0.64 0.5899
vt 0.82 0.5899
vt 0.79 0.5169
vt 0.82 0.5169
vt 0.54 0.736
vt 0.54 0.809
vt 0.79 0.5899
vt 0.76 0.5169
vt 0.67 0.6629
vt 0.67 0.5899
vt 0.85 0.5899
vt 0.85 0.5169
vt 0.7 0.736
vt 0.7 0.6629
vt 0.76 0.5899
vt 0.73 0.5169
vt 0.73 0.5899
vt 0.7 0.5169
vt 0.48 0.736
vt 0.54 0.6629
vt 0.48 0.8427
vt 0.48 0.8315
vt 0.58 0.8315
vt 0.58 0.809
vt 0.82 0.809
vt 0.79 0.736
vt 0.82 0.736
vt 0.85 0.809
vt 0.85 0.736
vt 0.76 0.809
vt 0.73 0.736
vt 0.76 0.736
vt 0.715 0.9213
vt 0.775 0.9213
vt 0.76 0.8876
vt 0.775 0.8876
vt 0.685 0.9213
vt 0.7 0.5899
vt 0.76 0.9213
vt 0.79 0.809
vt 0.73 0.809
vt 0.6 0.809
vt 0.61 0.809
vt 0.6 0.736
vt 0.61 0.6629
vt 0.6 0.6629
vt 0.85 0.6629
vt 0.82 0.6629
vt 0.6 0.5169
vt 0.76 0.6629
vt 0.73 0.6629
vt 0.79 0.6629
vt 0.7 0.809
vt 0.67 0.5169
vt 0.48 0.6629
vt 0.64 0.5169
vt 0.48 0.5169
vt 0.655 0.9213
vt 0.57 0.8427
s 1
f 1172/552 1163/553 1164/554
f 1192/555 1238/556 1245/557
f 1167/558 1166/559 1159/560
f 1235/561 1201/562 1242/563
f 1193/564 1245/557 1250/565
f 1174/566 1165/567 1166/559
f 1169/568 1173/569 1167/570
f 1248/571 1210/572 1251/573
f 1182/574 1176/575 1178/576
f 1170/577 1161/578 1162/579
f 1167/570 1168/580 1169/568
f 1169/568 1170/581 1171/582
f 1171/582 1172/583 1173/569
f 1173/569 1174/584 1167/570
f 1219/585 1236/563 1227/586
f 1239/587 1189/588 1190/589
f 1204/575 1252/590 1213/591
f 1233/592 1188/593 1189/588
f 1222/594 1227/586 1229/595
f 1236/596 1190/589 1183/597
f 1243/598 1222/594 1218/599
f 1234/600 1187/601 1188/593
f 1225/602 1186/603 1187/601
f 1228/604 1223/605 1226/590
f 1182/574 1180/606 1181/607
f 1179/608 1178/576 1177/609
f 1198/610 1247/611 1240/612
f 1191/613 1240/612 1238/614
f 1180/574 1177/575 1175/576
f 1242/571 1212/572 1237/573
f 1196/615 1249/616 1241/617
f 1173/618 1164/554 1165/567
f 1246/561 1200/562 1248/563
f 1169/619 1160/620 1161/621
f 1171/622 1162/579 1163/553
f 1218/599 1229/595 1244/623
f 1168/624 1159/560 1160/620
f 1197/625 1241/617 1247/611
f 1195/626 1243/598 1249/616
f 1181/608 1175/576 1176/609
f 1203/627 1230/556 1204/628
f 1231/629 1207/630 1228/556
f 1226/590 1211/631 1232/629
f 1252/590 1209/631 1231/629
f 1223/605 1246/561 1211/631
f 1215/632 1239/587 1236/596
f 1232/629 1208/630 1230/556
f 1216/633 1233/592 1239/587
f 1224/605 1235/561 1209/631
f 1251/573 1202/634 1235/561
f 1217/635 1225/602 1234/600
f 1221/636 1244/623 1225/602
f 1230/604 1224/605 1252/590
f 1237/573 1199/634 1246/561
f 1220/637 1234/600 1233/592
f 1213/591 1231/629 1206/627
f 1194/638 1250/565 1243/598
f 1214/591 1232/629 1203/627
f 1206/627 1228/556 1205/628
f 1249/616 1218/599 1221/636
f 1247/611 1217/635 1220/637
f 1244/623 1185/639 1186/603
f 1211/631 1248/563 1208/630
f 1241/617 1221/636 1217/635
f 1207/640 1237/573 1223/605
f 1238/614 1216/633 1215/632
f 1240/612 1220/637 1216/633
f 1205/575 1226/590 1214/591
f 1229/595 1184/641 1185/639
f 1227/586 1183/562 1184/641
f 1208/640 1251/573 1224/605
f 1250/565 1219/585 1222/594
f 1209/631 1242/563 1207/630
f 1245/557 1215/630 1219/585
f 1172/552 1171/622 1163/553
f 1192/555 1191/628 1238/556
f 1167/558 1174/566 1166/559
f 1235/561 1202/634 1201/562
f 1193/564 1192/555 1245/557
f 1174/566 1173/618 1165/567
f 1169/568 1171/582 1173/569
f 1248/571 1200/642 1210/572
f 1182/574 1181/607 1176/575
f 1170/577 1169/643 1161/578
f 1219/585 1215/630 1236/563
f 1239/587 1233/592 1189/588
f 1204/575 1230/604 1252/590
f 1233/592 1234/600 1188/593
f 1222/594 1219/585 1227/586
f 1236/596 1239/587 1190/589
f 1243/598 1250/565 1222/594
f 1234/600 1225/602 1187/601
f 1225/602 1244/623 1186/603
f 1228/604 1207/640 1223/605
f 1182/574 1179/644 1180/606
f 1179/608 1182/574 1178/576
f 1198/610 1197/625 1247/611
f 1191/613 1198/610 1240/612
f 1180/574 1179/607 1177/575
f 1242/571 1201/642 1212/572
f 1196/615 1195/626 1249/616
f 1173/618 1172/552 1164/554
f 1246/561 1199/634 1200/562
f 1169/619 1168/624 1160/620
f 1171/622 1170/577 1162/579
f 1218/599 1222/594 1229/595
f 1168/624 1167/558 1159/560
f 1197/625 1196/615 1241/617
f 1195/626 1194/638 1243/598
f 1181/608 1180/574 1175/576
f 1203/627 1232/629 1230/556
f 1231/629 1209/631 1207/630
f 1226/590 1223/605 1211/631
f 1252/590 1224/605 1209/631
f 1223/605 1237/573 1246/561
f 1215/632 1216/633 1239/587
f 1232/629 1211/631 1208/630
f 1216/633 1220/637 1233/592
f 1224/605 1251/573 1235/561
f 1251/573 1210/572 1202/634
f 1217/635 1221/636 1225/602
f 1221/636 1218/599 1244/623
f 1230/604 1208/640 1224/605
f 1237/573 1212/572 1199/634
f 1220/637 1217/635 1234/600
f 1213/591 1252/590 1231/629
f 1194/638 1193/564 1250/565
f 1214/591 1226/590 1232/629
f 1206/627 1231/629 1228/556
f 1249/616 1243/598 1218/599
f 1247/611 1241/617 1217/635
f 1244/623 1229/595 1185/639
f 1211/631 1246/561 1248/563
f 1241/617 1249/616 1221/636
f 1207/640 1242/571 1237/573
f 1238/614 1240/612 1216/633
f 1240/612 1247/611 1220/637
f 1205/575 1228/604 1226/590
f 1229/595 1227/586 1184/641
f 1227/586 1236/563 1183/562
f 1208/640 1248/571 1251/573
f 1250/565 1245/557 1219/585
f 1209/631 1235/561 1242/563
f 1245/557 1238/556 1215/630
