o Cylinder
v 0 1 0.04
v 0.3674 1 0.1131
v 0.6788 1 0.3212
v 0.8869 1 0.6326
v 0.96 1 1
v 0.8869 1 1.3674
v 0.6788 1 1.6788
v 0.3674 1 1.8869
v 0 1 1.96
v -0.3674 1 1.8869
v -0.6788 1 1.6788
v -0.8869 1 1.3674
v -0.96 1 1
v -0.8869 1 0.6326
v -0.6788 1 0.3212
v -0.3674 1 0.1131
v 0 3.6875 0.04
v 0.3674 3.6875 0.1131
v 0.6788 3.6875 0.3212
v 0.8869 3.6875 0.6326
v 0.96 3.6875 1
v 0.8869 3.6875 1.3674
v 0.6788 3.6875 1.6788
v 0.3674 3.6875 1.8869
v 0 3.6875 1.96
v -0.3674 3.6875 1.8869
v -0.6788 3.6875 1.6788
v -0.8869 3.6875 1.3674
v -0.96 3.6875 1
v -0.8869 3.6875 0.6326
v -0.6788 3.6875 0.3212
v -0.3674 3.6875 0.1131
v 0 4 0.5101
v 0 3.909 0.2526
v 0.1875 4 0.5473
v 0.286 3.909 0.3095
v 0.3464 4 0.6536
v 0.5285 3.909 0.4715
v 0.4527 4 0.8125
v 0.6905 3.909 0.714
v 0.4899 4 1
v 0.7474 3.909 1
v 0.4527 4 1.1875
v 0.6905 3.909 1.286
v 0.3464 4 1.3464
v 0.5285 3.909 1.5285
v 0.1875 4 1.4527
v 0.286 3.909 1.6905
v 0 4 1.4899
v 0 3.909 1.7474
v -0.1875 4 1.4527
v -0.286 3.909 1.6905
v -0.3464 4 1.3464
v -0.5285 3.909 1.5285
v -0.4527 4 1.1875
v -0.6905 3.909 1.286
v -0.4899 4 1
v -0.7474 3.909 1
v -0.4527 4 0.8125
v -0.6905 3.909 0.714
v -0.3464 4 0.6536
v -0.5285 3.909 0.4715
v -0.1875 4 0.5473
v -0.286 3.909 0.3095
v -1.5 0 2.5
v -1.5 1 2.5
v -1.5 -0 -2.5
v -1.5 1 -2.5
v 1.5 0 2.5
v 1.5 1 2.5
v 1.5 -0 -2.5
v 1.5 1 -2.5
v -1.5 1 1.25
v 1.5 1 1.25
v 1.5 2 1.25
v 1.5 2 2.5
v -1.5 2 2.5
v -1.5 2 1.25
v -1.5 0 2.5
v -1.5 1 2.5
v -1.5 -0 -2.5
v -1.5 1 -2.5
v 1.5 0 2.5
v 1.5 1 2.5
v 1.5 -0 -2.5
v 1.5 1 -2.5
v -1.4375 0.9375 2.5
v -1.4375 0.0625 2.5
v -1.4375 0.0625 -2.5
v -1.4375 0.9375 -2.5
v 1.4375 0.0625 2.5
v 1.4375 0.0625 -2.5
v 1.4375 0.9375 -2.5
v 1.4375 0.9375 2.5
v -1.5 0.0625 2.4375
v -1.5 0.9375 2.4375
v -1.5 0.9375 -2.4375
v -1.5 0.0625 -2.4375
v 1.5 0.9375 -2.4375
v 1.5 0.0625 -2.4375
v 1.5 0.9375 2.4375
v 1.5 0.0625 2.4375
v -1.4375 0.0625 -2.4375
v -1.4375 0.9375 -2.4375
v 1.4375 0.9375 -2.4375
v 1.4375 0.0625 -2.4375
v 1.4375 0.0625 2.4375
v 1.4375 0.9375 2.4375
v -1.4375 0.9375 2.4375
v -1.4375 0.0625 2.4375
v -1.4375 0.0625 2.4375
v -1.4375 0.9375 2.4375
v -1.4375 0.9375 -2.4375
v -1.4375 0.0625 -2.4375
v 1.4375 0.0625 -2.4375
v 1.4375 0.9375 -2.4375
v 1.4375 0.9375 2.4375
v 1.4375 0.0625 2.4375
v -1.5 0 2.5
v -1.5 -0 -2.5
v 1.5 0 2.5
v 1.5 -0 -2.5
v 0 3.6875 0.04
v 0 4 0.04
v 0.3674 3.6875 0.1131
v 0.3674 4 0.1131
v 0.6788 3.6875 0.3212
v 0.6788 4 0.3212
v 0.8869 3.6875 0.6326
v 0.8869 4 0.6326
v 0.96 3.6875 1
v 0.96 4 1
v 0.8869 3.6875 1.3674
v 0.8869 4 1.3674
v 0.6788 3.6875 1.6788
v 0.6788 4 1.6788
v 0.3674 3.6875 1.8869
v 0.3674 4 1.8869
v 0 3.6875 1.96
v 0 4 1.96
v -0.3674 3.6875 1.8869
v -0.3674 4 1.8869
v -0.6788 3.6875 1.6788
v -0.6788 4 1.6788
v -0.8869 3.6875 1.3674
v -0.8869 4 1.3674
v -0.96 3.6875 1
v -0.96 4 1
v -0.8869 3.6875 0.6326
v -0.8869 4 0.6326
v -0.6788 3.6875 0.3212
v -0.6788 4 0.3212
v -0.3674 3.6875 0.1131
v -0.3674 4 0.1131
v -0.75 1 -0.625
v -0.75 1.75 -0.625
v -0.75 1 -2.125
v -0.75 1.75 -2.125
v 0.75 1 -0.625
v 0.75 1.75 -0.625
v 0.75 1 -2.125
v 0.75 1.75 -2.125
v -0.75 1.125 -0.75
v -0.75 1.625 -0.75
v -0.75 1.625 -2
v -0.75 1.125 -2
v -0.625 1.125 -2.125
v -0.625 1.625 -2.125
v 0.625 1.625 -2.125
v 0.625 1.125 -2.125
v 0.75 1.125 -2
v 0.75 1.625 -2
v 0.75 1.625 -0.75
v 0.75 1.125 -0.75
v 0.625 1.125 -0.625
v 0.625 1.625 -0.625
v -0.625 1.625 -0.625
v -0.625 1.125 -0.625
v -0.625 1 -2
v 0.625 1 -2
v 0.625 1 -0.75
v -0.625 1 -0.75
v 0.625 1.75 -2
v -0.625 1.75 -2
v -0.625 1.75 -0.75
v 0.625 1.75 -0.75
v -0.625 1.125 -2
v 0.625 1.125 -2
v 0.625 1.125 -0.75
v -0.625 1.125 -0.75
v 0.625 1.625 -2
v -0.625 1.625 -2
v -0.625 1.625 -0.75
v 0.625 1.625 -0.75
v 0 1.8125 -1.9787
v 0 3.3125 -1.914
v 0.3019 1.8125 -1.8978
v 0.2695 3.3125 -1.8418
v 0.5228 1.8125 -1.6768
v 0.4668 3.3125 -1.6445
v 0.6037 1.8125 -1.375
v 0.539 3.3125 -1.375
v 0.5228 1.8125 -1.0732
v 0.4668 3.3125 -1.1055
v 0.3019 1.8125 -0.8522
v 0.2695 3.3125 -0.9082
v 0 1.8125 -0.7713
v 0 3.3125 -0.836
v -0.3019 1.8125 -0.8522
v -0.2695 3.3125 -0.9082
v -0.5228 1.8125 -1.0732
v -0.4668 3.3125 -1.1055
v -0.6037 1.8125 -1.375
v -0.539 3.3125 -1.375
v -0.5228 1.8125 -1.6768
v -0.4668 3.3125 -1.6445
v -0.3019 1.8125 -1.8978
v -0.2695 3.3125 -1.8418
v 0.3019 3.3125 -1.8978
v 0 3.3125 -1.9787
v 0.5228 3.3125 -1.6768
v 0.6037 3.3125 -1.375
v 0.5228 3.3125 -1.0732
v 0.3019 3.3125 -0.8522
v 0 3.3125 -0.7713
v -0.3019 3.3125 -0.8522
v -0.5228 3.3125 -1.0732
v -0.6037 3.3125 -1.375
v -0.5228 3.3125 -1.6768
v -0.3019 3.3125 -1.8978
v 0.2371 3.1875 -1.7857
v 0 3.1875 -1.8493
v 0.4107 3.1875 -1.6121
v 0.4743 3.1875 -1.375
v 0.4107 3.1875 -1.1379
v 0.2371 3.1875 -0.9643
v 0 3.1875 -0.9007
v -0.2371 3.1875 -0.9643
v -0.4107 3.1875 -1.1379
v -0.4743 3.1875 -1.375
v -0.4107 3.1875 -1.6121
v -0.2371 3.1875 -1.7857
v 0.2695 3.1875 -1.8418
v 0 3.1875 -1.914
v 0.4668 3.1875 -1.6445
v 0.539 3.1875 -1.375
v 0.4668 3.1875 -1.1055
v 0.2695 3.1875 -0.9082
v 0 3.1875 -0.836
v -0.2695 3.1875 -0.9082
v -0.4668 3.1875 -1.1055
v -0.539 3.1875 -1.375
v -0.4668 3.1875 -1.6445
v -0.2695 3.1875 -1.8418
v 0.2371 3.5 -1.7857
v 0 3.5 -1.8493
v 0.4107 3.5 -1.6121
v 0.4743 3.5 -1.375
v 0.4107 3.5 -1.1379
v 0.2371 3.5 -0.9643
v 0 3.5 -0.9007
v -0.2371 3.5 -0.9643
v -0.4107 3.5 -1.1379
v -0.4743 3.5 -1.375
v -0.4107 3.5 -1.6121
v -0.2371 3.5 -1.7857
v 0.1186 3.7969 -1.5804
v 0 3.7969 -1.6121
v 0.2054 3.7969 -1.4936
v 0.2371 3.7969 -1.375
v 0.2054 3.7969 -1.2564
v 0.1186 3.7969 -1.1696
v 0 3.7969 -1.1379
v -0.1186 3.7969 -1.1696
v -0.2054 3.7969 -1.2564
v -0.2371 3.7969 -1.375
v -0.2054 3.7969 -1.4936
v -0.1186 3.7969 -1.5804
v 0 3 -0.8657
v 0 3 0.1343
v 0.0884 2.9634 -0.8657
v 0.0884 2.9634 0.1343
v 0.125 2.875 -0.8657
v 0.125 2.875 0.1343
v 0.0884 2.7866 -0.8657
v 0.0884 2.7866 0.1343
v 0 2.75 -0.8657
v 0 2.75 0.1343
v -0.0884 2.7866 -0.8657
v -0.0884 2.7866 0.1343
v -0.125 2.875 -0.8657
v -0.125 2.875 0.1343
v -0.0884 2.9634 -0.8657
v -0.0884 2.9634 0.1343
v -0.8125 1.75 -0.5625
v -0.8125 1.8125 -0.5625
v -0.8125 1.75 -2.1875
v -0.8125 1.8125 -2.1875
v 0.8125 1.75 -0.5625
v 0.8125 1.8125 -0.5625
v 0.8125 1.75 -2.1875
v 0.8125 1.8125 -2.1875
v 1 1.3125 -1.875
v 1.0884 1.2759 -1.875
v 1.125 1.1875 -1.875
v 1.0884 1.0991 -1.875
v 1 1.0625 -1.875
v 0.9116 1.0991 -1.875
v 0.875 1.1875 -1.875
v 0.9116 1.2759 -1.875
v 1 1.3125 -0.875
v 1.0884 1.2759 -0.875
v 1.125 1.1875 -0.875
v 1.0884 1.0991 -0.875
v 1 1.0625 -0.875
v 0.9116 1.0991 -0.875
v 0.875 1.1875 -0.875
v 0.9116 1.2759 -0.875
v 1 1.0625 -2.125
v 1.0884 1.0625 -2.0884
v 1.125 1.0625 -2
v 1.0884 1.0625 -1.9116
v 1 1.0625 -1.875
v 0.9116 1.0625 -1.9116
v 0.875 1.0625 -2
v 0.9116 1.0625 -2.0884
v 1 1.2576 -2.0701
v 0.9116 1.2317 -2.0442
v 0.875 1.1692 -1.9817
v 0.9116 1.1067 -1.9192
v 1 1.0808 -1.8933
v 1.0884 1.1067 -1.9192
v 1.125 1.1692 -1.9817
v 1.0884 1.2317 -2.0442
v 1 1 -2.125
v 1.0884 1 -2.0884
v 1.125 1 -2
v 1.0884 1 -1.9116
v 1 1 -1.875
v 0.9116 1 -1.9116
v 0.875 1 -2
v 0.9116 1 -2.0884
v 1 1.0625 -0.625
v 1.0884 1.0625 -0.6616
v 1.125 1.0625 -0.75
v 1.0884 1.0625 -0.8384
v 1 1.0625 -0.875
v 0.9116 1.0625 -0.8384
v 0.875 1.0625 -0.75
v 0.9116 1.0625 -0.6616
v 1 1.2576 -0.6799
v 0.9116 1.2317 -0.7058
v 0.875 1.1692 -0.7683
v 0.9116 1.1067 -0.8308
v 1 1.0808 -0.8567
v 1.0884 1.1067 -0.8308
v 1.125 1.1692 -0.7683
v 1.0884 1.2317 -0.7058
v 1 1 -0.625
v 1.0884 1 -0.6616
v 1.125 1 -0.75
v 1.0884 1 -0.8384
v 1 1 -0.875
v 0.9116 1 -0.8384
v 0.875 1 -0.75
v 0.9116 1 -0.6616
v 1 1.3074 -1.875
v 1 1.375 -1.8125
v 1 1.3074 -0.875
v 1 1.375 -0.9375
v 1.0847 1.2722 -1.875
v 1.1326 1.3201 -1.8125
v 1.0847 1.2722 -0.875
v 1.1326 1.3201 -0.9375
v 1.1199 1.1875 -1.875
v 1.1875 1.1875 -1.8125
v 1.1199 1.1875 -0.875
v 1.1875 1.1875 -0.9375
v 1.0847 1.1028 -1.875
v 1.1326 1.0549 -1.8125
v 1.0847 1.1028 -0.875
v 1.1326 1.0549 -0.9375
v 1 1.0676 -1.875
v 1 1 -1.8125
v 1 1.0676 -0.875
v 1 1 -0.9375
v 0.9153 1.1028 -1.875
v 0.8674 1.0549 -1.8125
v 0.9153 1.1028 -0.875
v 0.8674 1.0549 -0.9375
v 0.8801 1.1875 -1.875
v 0.8125 1.1875 -1.8125
v 0.8801 1.1875 -0.875
v 0.8125 1.1875 -0.9375
v 0.9153 1.2722 -1.875
v 0.8674 1.3201 -1.8125
v 0.9153 1.2722 -0.875
v 0.8674 1.3201 -0.9375
v 1.0662 2 1.519
v 1.0662 2.25 1.519
v 1.1218 2 1.5969
v 1.1218 2.25 1.5969
v 1.106 2 1.6912
v 1.106 2.25 1.6912
v 1.0281 2 1.7468
v 1.0281 2.25 1.7468
v 0.9337 2 1.731
v 0.9337 2.25 1.731
v 0.8782 2 1.6531
v 0.8782 2.25 1.6531
v 0.894 2 1.5588
v 0.894 2.25 1.5588
v 0.9719 2 1.5032
v 0.9719 2.25 1.5032
v 0.9603 2.375 1.4527
v 0.9408 2.2866 1.4838
v 0.894 2.25 1.5588
v 0.8472 2.2866 1.6337
v 0.8277 2.375 1.6647
v 0.8472 2.4634 1.6337
v 0.894 2.5 1.5588
v 0.9408 2.4634 1.4838
v 1.0507 2.3567 1.5093
v 0.9783 2.2942 1.5072
v 0.9095 2.2683 1.5685
v 0.8846 2.2942 1.6571
v 0.9182 2.3567 1.7213
v 0.9906 2.4192 1.7234
v 1.0594 2.4451 1.6621
v 1.0843 2.4192 1.5735
v 0.7482 2.375 1.3203
v 0.7288 2.2866 1.3513
v 0.682 2.25 1.4263
v 0.6352 2.2866 1.5012
v 0.6158 2.375 1.5322
v 0.6352 2.4634 1.5012
v 0.682 2.5 1.4263
v 0.7288 2.4634 1.3513
v -1.4375 2 2.0625
v -1.4375 3 2.0625
v -1.4375 2 1.3125
v -1.4375 3 1.3125
v 0.0625 2 2.0625
v 0.0625 3 2.0625
v 0.0625 2 1.3125
v 0.0625 3 1.3125
v 1.1652 1 0.7513
v 1.2119 1 0.7617
v 1.1652 2.1875 0.7513
v 1.1248 1 0.777
v 1.1145 1 0.8237
v 1.1248 2.1875 0.777
v 1.1145 2.1875 0.8237
v 1.1286 2.2096 0.7763
v 1.1068 2.2058 0.7802
v 1.1562 2.2408 0.7529
v 1.1235 2.1967 0.8221
v 1.1145 2.1875 0.8237
v 1.1439 2.2096 0.8634
v 1.1222 2.2058 0.8672
v 1.1402 2.1875 0.864
v 1.1779 2.2408 0.876
v 1.1253 2.25 0.8853
v 1.1869 2.1875 0.8744
v 1.2055 2.2721 0.8525
v 1.1222 2.2942 0.8672
v 1.2272 2.1875 0.8487
v 1.2106 2.285 0.8068
v 1.1145 2.3125 0.8237
v 1.2376 2.1875 0.802
v 1.1901 2.2721 0.7655
v 1.2119 2.1875 0.7617
v 1.1068 2.2942 0.7802
v 1.1036 2.25 0.7622
v 0.8606 2.2942 0.8236
v 0.8683 2.3125 0.8671
v 0.8574 2.25 0.8056
v 0.8606 2.2058 0.8236
v 0.8683 2.1875 0.8671
v 0.876 2.2058 0.9106
v 0.8791 2.25 0.9287
v 0.876 2.2942 0.9106
v 1.2376 1 0.802
v 1.2272 1 0.8487
v 1.1869 1 0.8744
v 1.1402 1 0.864
v 1.25 1 0.9468
v 1.25 2.25 0.9468
v 1.3384 1 0.9835
v 1.3384 2.25 0.9835
v 1.375 1 1.0718
v 1.375 2.25 1.0718
v 1.3384 1 1.1602
v 1.3384 2.25 1.1602
v 1.25 1 1.1968
v 1.25 2.25 1.1968
v 1.1616 1 1.1602
v 1.1616 2.25 1.1602
v 1.125 1 1.0718
v 1.125 2.25 1.0718
v 1.1616 1 0.9835
v 1.1616 2.25 0.9835
v 1.125 2.375 0.9468
v 1.125 2.2866 0.9835
v 1.125 2.25 1.0718
v 1.125 2.2866 1.1602
v 1.125 2.375 1.1968
v 1.125 2.4634 1.1602
v 1.125 2.5 1.0718
v 1.125 2.4634 0.9835
v 1.2317 2.3567 0.9468
v 1.1692 2.2942 0.9835
v 1.1433 2.2683 1.0718
v 1.1692 2.2942 1.1602
v 1.2317 2.3567 1.1968
v 1.2942 2.4192 1.1602
v 1.3201 2.4451 1.0718
v 1.2942 2.4192 0.9835
v 0.875 2.375 0.9468
v 0.875 2.2866 0.9835
v 0.875 2.25 1.0718
v 0.875 2.2866 1.1602
v 0.875 2.375 1.1968
v 0.875 2.4634 1.1602
v 0.875 2.5 1.0718
v 0.875 2.4634 0.9835
v -0.25 1.375 0.1427
v -0.25 1.375 -1.2323
v -0.2134 1.2866 0.1427
v -0.2134 1.2866 -1.2323
v -0.125 1.25 0.1427
v -0.125 1.25 -1.2323
v -0.0366 1.2866 0.1427
v -0.0366 1.2866 -1.2323
v 0 1.375 0.1427
v 0 1.375 -1.2323
v -0.0366 1.4634 0.1427
v -0.0366 1.4634 -1.2323
v -0.125 1.5 0.1427
v -0.125 1.5 -1.2323
v -0.2134 1.4634 0.1427
v -0.2134 1.4634 -1.2323
v -0.25 1.5 -1.3573
v -0.2134 1.5 -1.2689
v -0.125 1.5 -1.2323
v -0.0366 1.5 -1.2689
v 0 1.5 -1.3573
v -0.0366 1.5 -1.4457
v -0.125 1.5 -1.4823
v -0.2134 1.5 -1.4457
v -0.25 1.3933 -1.339
v -0.2134 1.4558 -1.2765
v -0.125 1.4817 -1.2506
v -0.0366 1.4558 -1.2765
v 0 1.3933 -1.339
v -0.0366 1.3308 -1.4015
v -0.125 1.3049 -1.4274
v -0.2134 1.3308 -1.4015
v -0.25 1.75 -1.3573
v -0.2134 1.75 -1.2689
v -0.125 1.75 -1.2323
v -0.0366 1.75 -1.2689
v 0 1.75 -1.3573
v -0.0366 1.75 -1.4457
v -0.125 1.75 -1.4823
v -0.2134 1.75 -1.4457
v 0.5 2.1875 -1.0938
v 0.5 2.9375 -1.0938
v 0.5 2.1875 -1.6562
v 0.5 2.9375 -1.6562
v 0.75 2.1875 -1.0938
v 0.75 2.9375 -1.0938
v 0.75 2.1875 -1.6562
v 0.75 2.9375 -1.6562
v 0 2.75 -0.8657
v 0 2.75 0.1343
v 0.0884 2.7134 -0.8657
v 0.0884 2.7134 0.1343
v 0.125 2.625 -0.8657
v 0.125 2.625 0.1343
v 0.0884 2.5366 -0.8657
v 0.0884 2.5366 0.1343
v 0 2.5 -0.8657
v 0 2.5 0.1343
v -0.0884 2.5366 -0.8657
v -0.0884 2.5366 0.1343
v -0.125 2.625 -0.8657
v -0.125 2.625 0.1343
v -0.0884 2.7134 -0.8657
v -0.0884 2.7134 0.1343
v 0 2.5 -0.8657
v 0 2.5 0.1343
v 0.0884 2.4634 -0.8657
v 0.0884 2.4634 0.1343
v 0.125 2.375 -0.8657
v 0.125 2.375 0.1343
v 0.0884 2.2866 -0.8657
v 0.0884 2.2866 0.1343
v 0 2.25 -0.8657
v 0 2.25 0.1343
v -0.0884 2.2866 -0.8657
v -0.0884 2.2866 0.1343
v -0.125 2.375 -0.8657
v -0.125 2.375 0.1343
v -0.0884 2.4634 -0.8657
v -0.0884 2.4634 0.1343
v 0 1.375 0.1427
v 0 1.375 -1.2323
v 0.0366 1.2866 0.1427
v 0.0366 1.2866 -1.2323
v 0.125 1.25 0.1427
v 0.125 1.25 -1.2323
v 0.2134 1.2866 0.1427
v 0.2134 1.2866 -1.2323
v 0.25 1.375 0.1427
v 0.25 1.375 -1.2323
v 0.2134 1.4634 0.1427
v 0.2134 1.4634 -1.2323
v 0.125 1.5 0.1427
v 0.125 1.5 -1.2323
v 0.0366 1.4634 0.1427
v 0.0366 1.4634 -1.2323
v 0 1.5 -1.3573
v 0.0366 1.5 -1.2689
v 0.125 1.5 -1.2323
v 0.2134 1.5 -1.2689
v 0.25 1.5 -1.3573
v 0.2134 1.5 -1.4457
v 0.125 1.5 -1.4823
v 0.0366 1.5 -1.4457
v 0 1.3933 -1.339
v 0.0366 1.4558 -1.2765
v 0.125 1.4817 -1.2506
v 0.2134 1.4558 -1.2765
v 0.25 1.3933 -1.339
v 0.2134 1.3308 -1.4015
v 0.125 1.3049 -1.4274
v 0.0366 1.3308 -1.4015
v 0 1.75 -1.3573
v 0.0366 1.75 -1.2689
v 0.125 1.75 -1.2323
v 0.2134 1.75 -1.2689
v 0.25 1.75 -1.3573
v 0.2134 1.75 -1.4457
v 0.125 1.75 -1.4823
v 0.0366 1.75 -1.4457
v -1.1875 0.6875 2.4375
v -0.8125 0.6875 2.4375
v -1.1875 0.6875 2.5
v -1.1875 0.3125 2.4375
v -0.8125 0.3125 2.4375
v -1.1875 0.3125 2.5
v -0.8125 0.3125 2.5
v -0.8125 0.6875 2.5
v 0.8125 0.6875 2.4375
v 0.8125 0.6875 2.5
v 1.1875 0.6875 2.4375
v 1.1875 0.6875 2.5
v 0.8125 0.3125 2.4375
v 0.8125 0.3125 2.5
v 1.1875 0.3125 2.4375
v 1.1875 0.3125 2.5
v 1.1875 0.6875 -2.4375
v 1.1875 0.6875 -2.5
v 0.8125 0.6875 -2.4375
v 0.8125 0.6875 -2.5
v 1.1875 0.3125 -2.4375
v 1.1875 0.3125 -2.5
v 0.8125 0.3125 -2.4375
v 0.8125 0.3125 -2.5
v -0.8125 0.6875 -2.4375
v -0.8125 0.6875 -2.5
v -1.1875 0.6875 -2.4375
v -1.1875 0.6875 -2.5
v -0.8125 0.3125 -2.4375
v -0.8125 0.3125 -2.5
v -1.1875 0.3125 -2.4375
v -1.1875 0.3125 -2.5
v -1.4375 0.6875 1.8125
v -1.5 0.6875 1.8125
v -1.4375 0.6875 2.1875
v -1.5 0.6875 2.1875
v -1.4375 0.3125 1.8125
v -1.5 0.3125 1.8125
v -1.4375 0.3125 2.1875
v -1.5 0.3125 2.1875
v -1.4375 0.6875 -2.1875
v -1.5 0.6875 -2.1875
v -1.4375 0.6875 -1.8125
v -1.5 0.6875 -1.8125
v -1.4375 0.3125 -2.1875
v -1.5 0.3125 -2.1875
v -1.4375 0.3125 -1.8125
v -1.5 0.3125 -1.8125
v -1.4375 0.6875 -0.1875
v -1.5 0.6875 -0.1875
v -1.4375 0.6875 0.1875
v -1.5 0.6875 0.1875
v -1.4375 0.3125 -0.1875
v -1.5 0.3125 -0.1875
v -1.4375 0.3125 0.1875
v -1.5 0.3125 0.1875
v 1.4375 0.6875 -1.8125
v 1.5 0.6875 -1.8125
v 1.4375 0.6875 -2.1875
v 1.5 0.6875 -2.1875
v 1.4375 0.3125 -1.8125
v 1.5 0.3125 -1.8125
v 1.4375 0.3125 -2.1875
v 1.5 0.3125 -2.1875
v 1.4375 0.6875 2.1875
v 1.5 0.6875 2.1875
v 1.4375 0.6875 1.8125
v 1.5 0.6875 1.8125
v 1.4375 0.3125 2.1875
v 1.5 0.3125 2.1875
v 1.4375 0.3125 1.8125
v 1.5 0.3125 1.8125
v 1.4375 0.6875 0.1875
v 1.5 0.6875 0.1875
v 1.4375 0.6875 -0.1875
v 1.5 0.6875 -0.1875
v 1.4375 0.3125 0.1875
v 1.5 0.3125 0.1875
v 1.4375 0.3125 -0.1875
v 1.5 0.3125 -0.1875
v -1 1.3125 -1.875
v -0.9116 1.2759 -1.875
v -0.875 1.1875 -1.875
v -0.9116 1.0991 -1.875
v -1 1.0625 -1.875
v -1.0884 1.0991 -1.875
v -1.125 1.1875 -1.875
v -1.0884 1.2759 -1.875
v -1 1.3125 -0.875
v -0.9116 1.2759 -0.875
v -0.875 1.1875 -0.875
v -0.9116 1.0991 -0.875
v -1 1.0625 -0.875
v -1.0884 1.0991 -0.875
v -1.125 1.1875 -0.875
v -1.0884 1.2759 -0.875
v -1 1.0625 -2.125
v -0.9116 1.0625 -2.0884
v -0.875 1.0625 -2
v -0.9116 1.0625 -1.9116
v -1 1.0625 -1.875
v -1.0884 1.0625 -1.9116
v -1.125 1.0625 -2
v -1.0884 1.0625 -2.0884
v -1 1.2576 -2.0701
v -1.0884 1.2317 -2.0442
v -1.125 1.1692 -1.9817
v -1.0884 1.1067 -1.9192
v -1 1.0808 -1.8933
v -0.9116 1.1067 -1.9192
v -0.875 1.1692 -1.9817
v -0.9116 1.2317 -2.0442
v -1 1 -2.125
v -0.9116 1 -2.0884
v -0.875 1 -2
v -0.9116 1 -1.9116
v -1 1 -1.875
v -1.0884 1 -1.9116
v -1.125 1 -2
v -1.0884 1 -2.0884
v -1 1.0625 -0.625
v -0.9116 1.0625 -0.6616
v -0.875 1.0625 -0.75
v -0.9116 1.0625 -0.8384
v -1 1.0625 -0.875
v -1.0884 1.0625 -0.8384
v -1.125 1.0625 -0.75
v -1.0884 1.0625 -0.6616
v -1 1.2576 -0.6799
v -1.0884 1.2317 -0.7058
v -1.125 1.1692 -0.7683
v -1.0884 1.1067 -0.8308
v -1 1.0808 -0.8567
v -0.9116 1.1067 -0.8308
v -0.875 1.1692 -0.7683
v -0.9116 1.2317 -0.7058
v -1 1 -0.625
v -0.9116 1 -0.6616
v -0.875 1 -0.75
v -0.9116 1 -0.8384
v -1 1 -0.875
v -1.0884 1 -0.8384
v -1.125 1 -0.75
v -1.0884 1 -0.6616
v -1 1.3074 -1.875
v -1 1.375 -1.8125
v -1 1.3074 -0.875
v -1 1.375 -0.9375
v -0.9153 1.2722 -1.875
v -0.8674 1.3201 -1.8125
v -0.9153 1.2722 -0.875
v -0.8674 1.3201 -0.9375
v -0.8801 1.1875 -1.875
v -0.8125 1.1875 -1.8125
v -0.8801 1.1875 -0.875
v -0.8125 1.1875 -0.9375
v -0.9153 1.1028 -1.875
v -0.8674 1.0549 -1.8125
v -0.9153 1.1028 -0.875
v -0.8674 1.0549 -0.9375
v -1 1.0676 -1.875
v -1 1 -1.8125
v -1 1.0676 -0.875
v -1 1 -0.9375
v -1.0847 1.1028 -1.875
v -1.1326 1.0549 -1.8125
v -1.0847 1.1028 -0.875
v -1.1326 1.0549 -0.9375
v -1.1199 1.1875 -1.875
v -1.1875 1.1875 -1.8125
v -1.1199 1.1875 -0.875
v -1.1875 1.1875 -0.9375
v -1.0847 1.2722 -1.875
v -1.1326 1.3201 -1.8125
v -1.0847 1.2722 -0.875
v -1.1326 1.3201 -0.9375
v 0.7883 2 1.8636
v 0.7883 2.25 1.8636
v 0.811 2 1.9565
v 0.811 2.25 1.9565
v 0.7614 2 2.0383
v 0.7614 2.25 2.0383
v 0.6685 2 2.061
v 0.6685 2.25 2.061
v 0.5867 2 2.0114
v 0.5867 2.25 2.0114
v 0.564 2 1.9185
v 0.564 2.25 1.9185
v 0.6136 2 1.8367
v 0.6136 2.25 1.8367
v 0.7065 2 1.814
v 0.7065 2.25 1.814
v 0.7144 2.375 1.7628
v 0.6849 2.2866 1.7844
v 0.6136 2.25 1.8367
v 0.5423 2.2866 1.889
v 0.5128 2.375 1.9106
v 0.5423 2.4634 1.889
v 0.6136 2.5 1.8367
v 0.6849 2.4634 1.7844
v 0.7775 2.3567 1.8488
v 0.711 2.2942 1.8201
v 0.6244 2.2683 1.8515
v 0.5684 2.2942 1.9246
v 0.5759 2.3567 1.9967
v 0.6424 2.4192 2.0254
v 0.7289 2.4451 1.994
v 0.7849 2.4192 1.9209
v 0.5665 2.375 1.5612
v 0.537 2.2866 1.5828
v 0.4657 2.25 1.6351
v 0.3945 2.2866 1.6874
v 0.3649 2.375 1.709
v 0.3945 2.4634 1.6874
v 0.4657 2.5 1.6351
v 0.537 2.4634 1.5828
v -1.1652 1 0.7513
v -1.2119 1 0.7617
v -1.1652 2.1875 0.7513
v -1.1248 1 0.777
v -1.1145 1 0.8237
v -1.1248 2.1875 0.777
v -1.1145 2.1875 0.8237
v -1.1286 2.2096 0.7763
v -1.1068 2.2058 0.7802
v -1.1562 2.2408 0.7529
v -1.1235 2.1967 0.8221
v -1.1145 2.1875 0.8237
v -1.1439 2.2096 0.8634
v -1.1222 2.2058 0.8672
v -1.1402 2.1875 0.864
v -1.1779 2.2408 0.876
v -1.1253 2.25 0.8853
v -1.1869 2.1875 0.8744
v -1.2055 2.2721 0.8525
v -1.1222 2.2942 0.8672
v -1.2272 2.1875 0.8487
v -1.2106 2.285 0.8068
v -1.1145 2.3125 0.8237
v -1.2376 2.1875 0.802
v -1.1901 2.2721 0.7655
v -1.2119 2.1875 0.7617
v -1.1068 2.2942 0.7802
v -1.1036 2.25 0.7622
v -0.8606 2.2942 0.8236
v -0.8683 2.3125 0.8671
v -0.8574 2.25 0.8056
v -0.8606 2.2058 0.8236
v -0.8683 2.1875 0.8671
v -0.876 2.2058 0.9106
v -0.8791 2.25 0.9287
v -0.876 2.2942 0.9106
v -1.2376 1 0.802
v -1.2272 1 0.8487
v -1.1869 1 0.8744
v -1.1402 1 0.864
v -1.25 1 0.9468
v -1.25 2.25 0.9468
v -1.3384 1 0.9835
v -1.3384 2.25 0.9835
v -1.375 1 1.0718
v -1.375 2.25 1.0718
v -1.3384 1 1.1602
v -1.3384 2.25 1.1602
v -1.25 1 1.1968
v -1.25 2.25 1.1968
v -1.1616 1 1.1602
v -1.1616 2.25 1.1602
v -1.125 1 1.0718
v -1.125 2.25 1.0718
v -1.1616 1 0.9835
v -1.1616 2.25 0.9835
v -1.125 2.375 0.9468
v -1.125 2.2866 0.9835
v -1.125 2.25 1.0718
v -1.125 2.2866 1.1602
v -1.125 2.375 1.1968
v -1.125 2.4634 1.1602
v -1.125 2.5 1.0718
v -1.125 2.4634 0.9835
v -1.2317 2.3567 0.9468
v -1.1692 2.2942 0.9835
v -1.1433 2.2683 1.0718
v -1.1692 2.2942 1.1602
v -1.2317 2.3567 1.1968
v -1.2942 2.4192 1.1602
v -1.3201 2.4451 1.0718
v -1.2942 2.4192 0.9835
v -0.875 2.375 0.9468
v -0.875 2.2866 0.9835
v -0.875 2.25 1.0718
v -0.875 2.2866 1.1602
v -0.875 2.375 1.1968
v -0.875 2.4634 1.1602
v -0.875 2.5 1.0718
v -0.875 2.4634 0.9835
v 0 3.6875 0.04
v 0 4 0.04
v 0.3674 3.6875 0.1131
v 0.3674 4 0.1131
v 0.6788 3.6875 0.3212
v 0.6788 4 0.3212
v 0.8869 3.6875 0.6326
v 0.8869 4 0.6326
v 0.96 3.6875 1
v 0.96 4 1
v 0.8869 3.6875 1.3674
v 0.8869 4 1.3674
v 0.6788 3.6875 1.6788
v 0.6788 4 1.6788
v 0.3674 3.6875 1.8869
v 0.3674 4 1.8869
v 0 3.6875 1.96
v 0 4 1.96
v -0.3674 3.6875 1.8869
v -0.3674 4 1.8869
v -0.6788 3.6875 1.6788
v -0.6788 4 1.6788
v -0.8869 3.6875 1.3674
v -0.8869 4 1.3674
v -0.96 3.6875 1
v -0.96 4 1
v -0.8869 3.6875 0.6326
v -0.8869 4 0.6326
v -0.6788 3.6875 0.3212
v -0.6788 4 0.3212
v -0.3674 3.6875 0.1131
v -0.3674 4 0.1131
v 0 2.3438 1.96
v 0 2.3438 0.04
v 0 1 1.25
v 0 0.0625 -2.5
v 1.5 0 0
v 0.6037 2.5625 -1.375
v -0.3019 2.5625 -0.8522
v -0.3019 2.5625 -1.8978
v 0 1.75 -2.1875
v -0.6875 2 1.3125
v 0 0 2.5
v -0.3674 2.3438 1.8869
v 0.3674 2.3438 0.1131
v 0 1 2.5
v 0 0.9375 -2.5
v -0.0312 0.9688 2.5
v -1.5 0.9688 -0.0312
v 0 1.8125 -2.1875
v -0.6875 3 1.3125
v 0.6788 2.3438 0.3212
v -0.6788 2.3438 1.6788
v 0 2 1.25
v -0.0312 0.0312 -2.5
v 1.5 0.9375 -0
v 0 0.0625 2.4375
v 1.4375 0.0625 -0
v -0.75 1 -1.375
v 0 1 -0.625
v 0 2.5625 -1.9787
v 0.5228 2.5625 -1.0732
v -0.5228 2.5625 -1.0732
v 0.8125 1.75 -1.375
v 0 -0 -2.5
v 1.5 0 0
v 0.8869 2.3438 0.6326
v -0.8869 2.3438 1.3674
v 0 1 -2.5
v 1.5 0.0625 -0
v 1.5 0.9688 0.0312
v -0.75 1.75 -1.375
v 0 1.75 -0.625
v 0.8125 1.8125 -1.375
v -1.5 1 -0.625
v 0 2 2.5
v 1.5 1 -0
v 0 0.9375 2.4375
v 1.4375 0.9375 -0
v 0.96 2.3438 1
v -0.96 2.3438 1
v 0.0312 0.0312 2.5
v 1.5 0.0312 -0.0312
v 0 1 -2.125
v 0.3019 2.5625 -1.8978
v 0.3019 2.5625 -0.8522
v -0.6037 2.5625 -1.375
v 0.8869 2.3438 1.3674
v -0.8869 2.3438 0.6326
v 0 1.75 -2.125
v 0.6788 2.3438 1.6788
v -0.6788 2.3438 0.3212
v 0 0.9375 2.5
v -1.5 0.0625 -0
v -1.5 0.0312 0.0312
v 0 0.0625 -2.4375
v -1.4375 0.0625 -0
v 0.75 1 -1.375
v 0.5228 2.5625 -1.6768
v 0 2.5625 -0.7713
v -0.5228 2.5625 -1.6768
v -0.8125 1.75 -1.375
v 0 1.75 -0.5625
v -0.6875 2 2.0625
v -1.5 0 0
v 0 0 2.5
v -1.5 0 0
v -0.3674 2.3438 0.1131
v 0.3674 2.3438 1.8869
v 1.5 1 -0.625
v 0.0312 0.9688 -2.5
v 0 0.0625 2.5
v -1.5 0.9375 -0
v 0 -0 -2.5
v 0.75 1.75 -1.375
v -1.5 1 -0
v 0 0.9375 -2.4375
v -1.4375 0.9375 -0
v -0.8125 1.8125 -1.375
v 0 1.8125 -0.5625
v -0.6875 3 2.0625
v 0 1 -0.625
v 0 0 0
v 0 1.75 -1.375
v 0 1.8125 -1.375
v 0.75 1 1.25
v 1.5 -0 -1.25
v -1.5 0.9844 -1.2656
v 0.75 0 2.5
v 0.75 1 2.5
v -1.5 0.9531 1.2031
v -1.5 1 -1.5625
v -1.4375 0.0625 1.2188
v -1.5 0 1.25
v 0.75 2 1.25
v 1.5 0 1.25
v 1.5 0.0625 -1.2188
v 0.75 1 -0.625
v 1.5 0.9844 1.2656
v -1.5 0.0625 1.2188
v -0.75 1 1.25
v -1.5 0.0156 1.2656
v -0.75 2 1.25
v 1.5 0.9375 1.2188
v 1.4375 0.0625 1.2188
v 1.5 0.9375 -1.2188
v 0.75 -0 -2.5
v 1.5 -0 -1.25
v 0.75 1 -2.5
v 1.5 0.0625 1.2188
v 1.5 0.9531 -1.2031
v 0.75 2 2.5
v -1.5 0.9375 1.2188
v 1.5 1 -1.5625
v 1.5 1 1.25
v 0 1 0.3125
v -1.5 1 0.3125
v -0.75 2 2.5
v 1.5 1 -1.25
v 1.4375 0.9375 1.2188
v 1.5 0.0469 1.2031
v 0 -0 -1.25
v 0 0 1.25
v -1.5 0 1.25
v -0.75 1 -2.5
v -1.5 1 1.25
v -0.75 1 -0.625
v -0.75 -0 -2.5
v -0.75 0 2.5
v 1.4375 0.9375 -1.2188
v -1.5 0.0625 -1.2188
v -1.5 0.0469 -1.2031
v -1.4375 0.0625 -1.2188
v 1.4375 0.0625 -1.2188
v -1.5 -0 -1.25
v 0.75 0 2.5
v -1.5 -0 -1.25
v -0.75 1 2.5
v -0.75 0 2.5
v 1.5 0 1.25
v 1.5 1 0.3125
v -1.5 0.9375 -1.2188
v 0.75 -0 -2.5
v 0 1 -1.5625
v 0.75 0 0
v 1.5 0.0156 -1.2656
v -0.75 -0 -2.5
v -1.4375 0.9375 1.2188
v -0.75 0 0
v -1.5 1 -1.25
v -1.4375 0.9375 -1.2188
v 0.75 0 1.25
v 0.75 1 -1.5625
v -0.75 0 1.25
v -0.75 1 -1.5625
v 0.75 -0 -1.25
v -0.75 1 0.3125
v 0.75 1 0.3125
v -0.75 -0 -1.25
vt 0.22 0.6319
vt 0.24 0.5972
vt 0.22 0.5972
vt 0.12 0.7882
vt 0.14 0.6389
vt 0.14 0.7882
vt 0.6767 0.8958
vt 0.6333 0.9861
vt 0.6333 0.8958
vt 0.23 0.5139
vt 0.2333 0.5
vt 0.2333 0.5139
vt 0.3733 0.8056
vt 0.38 0.7778
vt 0.38 0.8056
vt 0.3633 0.8056
vt 0.37 0.7778
vt 0.37 0.8056
vt 0.01 0.4583
vt 0.075 0.3611
vt 0.075 0.4583
vt 0.3767 0.6944
vt 0.4067 0.6111
vt 0.4067 0.6944
vt 0.6567 0.5972
vt 0.59 0.5833
vt 0.6567 0.5833
vt 0.4633 0.5694
vt 0.46 0.5278
vt 0.4633 0.5278
vt 0 0.5903
vt 0.0033 0.4792
vt 0.0033 0.5903
vt 0.04 0.6319
vt 0.06 0.5972
vt 0.04 0.5972
vt 0.5 0.9583
vt 0.4833 0.9236
vt 0.5 0.9236
vt 0.4933 0.5694
vt 0.49 0.5278
vt 0.4933 0.5278
vt 0.16 0.6389
vt 0.16 0.7882
vt 0.1967 0.5069
vt 0.15 0.4931
vt 0.1967 0.4931
vt 0.04 0.9375
vt 0.0584 0.9722
vt 0.0416 0.9722
vt 0.16 0.9375
vt 0.1416 0.9722
vt 0.14 0.9375
vt -0 0.9375
vt 0.0184 0.9722
vt 0.0016 0.9722
vt 0.18 0.9375
vt 0.1984 0.9722
vt 0.1816 0.9722
vt 0.2184 0.9722
vt 0.2 0.9375
vt 0.22 0.9375
vt 0.08 0.9375
vt 0.0984 0.9722
vt 0.0816 0.9722
vt 0.0616 0.9722
vt 0.06 0.9375
vt 0.1616 0.9722
vt 0.4467 1
vt 0.4333 0.9583
vt 0.45 0.9583
vt 0.32 0.9375
vt 0.3016 0.9722
vt 0.3 0.9375
vt 0.2584 0.9722
vt 0.24 0.9375
vt 0.26 0.9375
vt 0.0216 0.9722
vt 0.02 0.9375
vt 0.28 0.9375
vt 0.2616 0.9722
vt 0.2816 0.9722
vt 0.12 0.9375
vt 0.1016 0.9722
vt 0.1 0.9375
vt 0.2352 1
vt 0.2216 0.9722
vt 0.2384 0.9722
vt 0.1848 1
vt 0.1952 1
vt 0.1352 1
vt 0.1216 0.9722
vt 0.1384 0.9722
vt 0.1552 1
vt 0.1448 1
vt 0.0952 1
vt 0.0848 1
vt 0.2648 1
vt 0.2784 0.9722
vt 0.2752 1
vt 0.0552 1
vt 0.0448 1
vt 0.0752 1
vt 0.0648 1
vt 0.3048 1
vt 0.3184 0.9722
vt 0.3152 1
vt 0.4 0.9167
vt 0.4167 0.9236
vt 0.4 0.9236
vt 0.0248 1
vt 0.0384 0.9722
vt 0.0352 1
vt 0.0048 1
vt 0.0152 1
vt 0.2448 1
vt 0.2552 1
vt 0.2016 0.9722
vt 0.2152 1
vt 0.2048 1
vt 0.2848 1
vt 0.2984 0.9722
vt 0.2952 1
vt 0.1152 1
vt 0.1184 0.9722
vt 0.34 0.8194
vt 0.3333 0.7917
vt 0.3333 0.8194
vt 0.72 0.4583
vt 0.7167 0.3611
vt 0.72 0.3611
vt 0.8367 0.9931
vt 0.77 0.8819
vt 0.8367 0.8819
vt 0.3133 0.5417
vt 0.3 0.5556
vt 0.3 0.5417
vt 0.44 0.5694
vt 0.4367 0.5278
vt 0.44 0.5278
vt 0.7233 0.4583
vt 0.72 0.3542
vt 0.7233 0.3611
vt 0.4367 0.3611
vt 0.44 0.4653
vt 0.4367 0.4583
vt 0.3617 0.3576
vt 0.36 0.3611
vt 0.3583 0.4618
vt 0.2833 0.4583
vt 0.36 0.4583
vt 0.28 0.3542
vt 0.2833 0.3611
vt 0.8767 0.3611
vt 0.88 0.4653
vt 0.8767 0.4583
vt 0.8017 0.3576
vt 0.8 0.3611
vt 0.7983 0.4618
vt 0.8 0.4583
vt 0.71 0.3611
vt 0.7133 0.4653
vt 0.71 0.4583
vt 0.45 0.4583
vt 0.4467 0.3542
vt 0.45 0.3611
vt 0.27 0.3611
vt 0.2733 0.4653
vt 0.27 0.4583
vt 0.0067 0.3542
vt 0.01 0.3611
vt 0.6475 0.3559
vt 0.645 0.3611
vt 0.5125 0.4635
vt 0.515 0.4583
vt 0.2075 0.3559
vt 0.205 0.3611
vt 0.0725 0.4635
vt 0.2767 0.5764
vt 0.2033 0.5625
vt 0.2767 0.5625
vt 0.45 0.3542
vt 0.515 0.3472
vt 0.515 0.3542
vt 0.2033 0.5347
vt 0.2067 0.5208
vt 0.2067 0.5347
vt 0.0133 0.5903
vt 0.0167 0.4792
vt 0.0167 0.5903
vt 0.03 0.5903
vt 0.0333 0.4792
vt 0.0333 0.5903
vt 0.5833 0.5694
vt 0.58 0.5278
vt 0.5833 0.5278
vt 0.01 0.4722
vt 0.075 0.4653
vt 0.075 0.4722
vt 0.23 0.5347
vt 0.2333 0.5208
vt 0.2333 0.5347
vt 0.6133 0.5694
vt 0.61 0.5278
vt 0.6133 0.5278
vt 0.515 0.3611
vt 0.5767 0.7222
vt 0.51 0.7083
vt 0.5767 0.7083
vt 0.28 0.7882
vt 0.3 0.6389
vt 0.3 0.7882
vt 0.7233 0.3542
vt 0.8 0.3472
vt 0.8 0.3542
vt 0.2033 0.5139
vt 0.2067 0.5
vt 0.2067 0.5139
vt 0.33 0.8194
vt 0.3233 0.7917
vt 0.33 0.7917
vt 0.3233 0.7431
vt 0.33 0.6042
vt 0.33 0.7431
vt 0.3533 0.7361
vt 0.36 0.6042
vt 0.3533 0.6042
vt 0.371 0.9813
vt 0.3357 0.9076
vt 0.3357 0.9813
vt 0.28 0.6319
vt 0.3 0.5972
vt 0.3 0.6319
vt 0.7367 0.7222
vt 0.67 0.7083
vt 0.7367 0.7083
vt 0.2 0.6319
vt 0.2 0.5972
vt 0.02 0.6319
vt 0.02 0.5972
vt 0.2767 0.4583
vt 0.2733 0.3611
vt 0.2767 0.3611
vt 0.59 0.6111
vt 0.6567 0.6111
vt 0.1 0.6319
vt 0.12 0.5972
vt 0.12 0.6319
vt 0.53 0.5694
vt 0.55 0.5278
vt 0.55 0.5694
vt 0.24 0.7882
vt 0.26 0.6389
vt 0.26 0.7882
vt 0.01 0.3542
vt 0.075 0.3472
vt 0.075 0.3542
vt 0.7667 0.8958
vt 0.7233 0.9861
vt 0.7233 0.8958
vt 0.38 0.8819
vt 0.3733 0.8542
vt 0.38 0.8542
vt 0.6633 0.6944
vt 0.6567 0.625
vt 0.6633 0.6111
vt 0.6567 0.6806
vt 0.6233 0.6944
vt 0.5833 0.6944
vt 0.5833 0.6111
vt 0.59 0.6806
vt 0.59 0.625
vt 0.6233 0.6111
vt 0.5767 0.625
vt 0.5767 0.6806
vt 0.5433 0.6944
vt 0.5033 0.6944
vt 0.5033 0.6111
vt 0.51 0.6806
vt 0.51 0.625
vt 0.5433 0.6111
vt 0.4967 0.625
vt 0.4967 0.6806
vt 0.4633 0.6944
vt 0.4233 0.6944
vt 0.4233 0.6111
vt 0.43 0.6806
vt 0.43 0.625
vt 0.4633 0.6111
vt 0.7433 0.6944
vt 0.7367 0.625
vt 0.7433 0.6111
vt 0.7367 0.6806
vt 0.7033 0.6944
vt 0.67 0.6806
vt 0.67 0.625
vt 0.7033 0.6111
vt 0.04 0.7882
vt 0.06 0.6389
vt 0.06 0.7882
vt 0.18 0.6389
vt 0.18 0.7882
vt 0.7233 0.4722
vt 0.8 0.4653
vt 0.8 0.4722
vt 0.18 0.6319
vt 0.3767 0.6111
vt 0.4067 0.5833
vt 0.2 0.6389
vt 0.2 0.7882
vt 0.8833 0.4583
vt 0.88 0.3611
vt 0.8833 0.3611
vt 0.24 0.6319
vt 0.26 0.5972
vt 0.43 0.6111
vt 0.4967 0.5972
vt 0.4967 0.6111
vt 0.2767 0.5556
vt 0.2033 0.5417
vt 0.2767 0.5417
vt 0.35 0.5694
vt 0.37 0.5278
vt 0.37 0.5694
vt 0.27 0.3403
vt 0.2033 0.2569
vt 0.27 0.2569
vt 0.1 0.7882
vt 0.12 0.6389
vt 0.3133 0.5625
vt 0.3 0.5764
vt 0.3 0.5625
vt 0.7367 0.5972
vt 0.67 0.5833
vt 0.7367 0.5833
vt 0.3833 0.9028
vt 0.4 0.9028
vt 0.4433 0.4583
vt 0.44 0.3611
vt 0.4433 0.3611
vt 0.8767 0.875
vt 0.8367 0.7639
vt 0.8767 0.7639
vt 0.32 0.5694
vt 0.34 0.5278
vt 0.34 0.5694
vt 0.5167 0.9583
vt 0.5167 0.9236
vt 0.7167 0.4583
vt 0.7133 0.3611
vt 0.3333 0.7431
vt 0.34 0.6042
vt 0.3333 0.6042
vt 0.18 0.5972
vt 0.02 0.5903
vt 0.0233 0.4792
vt 0.0233 0.5903
vt 0.5233 0.5694
vt 0.52 0.5278
vt 0.5233 0.5278
vt 0.56 0.5208
vt 0.58 0.5208
vt 0.0533 0.5903
vt 0.0567 0.4792
vt 0.0567 0.5903
vt 0.6767 0.6806
vt 0.6767 0.625
vt 0.06 0.6319
vt 0.08 0.5972
vt 0.08 0.6319
vt 0.3433 0.7361
vt 0.35 0.6042
vt 0.35 0.7361
vt 0.5333 0.9028
vt 0.55 0.8958
vt 0.55 0.9028
vt 0.14 0.5486
vt 0.1433 0.559
vt 0.1433 0.5521
vt 0.5667 0.8958
vt 0.5833 0.9028
vt 0.5667 0.9028
vt 0.4667 0.8958
vt 0.4833 0.9028
vt 0.4667 0.9028
vt 0.5 0.9028
vt 0.5167 0.8958
vt 0.5167 0.9028
vt 0.3366 0.8311
vt 0.3271 0.8656
vt 0.3463 0.8657
vt 0.4167 0.9028
vt 0.4 0.8958
vt 0.4167 0.8958
vt 0.4333 0.9028
vt 0.45 0.8958
vt 0.45 0.9028
vt 0.5 0.8958
vt 0.4833 0.9583
vt 0.4667 0.9236
vt 0.5 0.8125
vt 0.5167 0.7292
vt 0.5167 0.8125
vt 0.0667 0.5903
vt 0.07 0.4792
vt 0.07 0.5903
vt 0.0633 0.5903
vt 0.0667 0.4792
vt 0.1967 0.5625
vt 0.15 0.5486
vt 0.1967 0.5486
vt 0.67 0.6111
vt 0.7367 0.6111
vt 0.45 0.9236
vt 0.4333 0.9167
vt 0.45 0.9167
vt 0.5667 0.9167
vt 0.55 0.9236
vt 0.55 0.9167
vt 0.4833 0.9167
vt 0.4667 0.9167
vt 0.5333 0.9167
vt 0.5167 0.9167
vt 0.3833 0.9167
vt 0.3833 0.9236
vt 0.5833 0.9167
vt 0.5667 0.9236
vt 0.5 0.9167
vt 0.5033 1
vt 0.4 0.9583
vt 0.1 0.5972
vt 0.32 0.5972
vt 0.32 0.6319
vt 0.5833 0.9583
vt 0.5833 0.9236
vt 0.47 0.5694
vt 0.4667 0.5278
vt 0.47 0.5278
vt 0.4167 0.9167
vt 0.3833 0.9583
vt 0.3967 1
vt 0.3867 1
vt 0.55 0.9583
vt 0.5633 1
vt 0.5533 1
vt 0.47 1
vt 0.4667 0.9583
vt 0.42 1
vt 0.4167 0.9583
vt 0.4967 1
vt 0.4867 1
vt 0.57 1
vt 0.5667 0.9583
vt 0.4633 1
vt 0.4533 1
vt 0.5333 0.9583
vt 0.5467 1
vt 0.5367 1
vt 0.4033 1
vt 0.52 1
vt 0.3433 0.7639
vt 0.35 0.7778
vt 0.3433 0.7778
vt 0.55 0.8125
vt 0.5667 0.7292
vt 0.5667 0.8125
vt 0 0.7882
vt 0.02 0.6389
vt 0.02 0.7882
vt 0.5333 0.9236
vt 0.4367 0.6806
vt 0.4367 0.625
vt 0.0733 0.4792
vt 0.0733 0.5903
vt 0.68 0.9861
vt 0.68 0.8958
vt 0.57 0.6806
vt 0.57 0.625
vt 0.5333 0.8125
vt 0.55 0.7292
vt 0.3633 0.6944
vt 0.59 0.9861
vt 0.5867 0.8958
vt 0.59 0.8958
vt 0.56 0.5694
vt 0.58 0.5694
vt 0.5833 0.7292
vt 0.5833 0.8125
vt 0.4333 0.8125
vt 0.45 0.7292
vt 0.45 0.8125
vt 0.21 0.5139
vt 0.2167 0.5
vt 0.2167 0.5139
vt 0.2533 0.5
vt 0.2467 0.5139
vt 0.2467 0.5
vt 0.2267 0.5208
vt 0.2167 0.5208
vt 0.21 0.5347
vt 0.22 0.5347
vt 0.22 0.5208
vt 0.2433 0.5139
vt 0.2367 0.5
vt 0.2433 0.5
vt 0.2533 0.5139
vt 0.21 0.5
vt 0.34 0.7708
vt 0.3333 0.7847
vt 0.34 0.7847
vt 0.22 0.5
vt 0.2267 0.5139
vt 0.22 0.5139
vt 0.2467 0.5208
vt 0.2533 0.5347
vt 0.2467 0.5347
vt 0.02 0.4792
vt 0.16 0.6319
vt 0.2833 0.4722
vt 0.36 0.4653
vt 0.36 0.4722
vt 0.3133 0.5764
vt 0.14 0.4931
vt 0.0933 0.4792
vt 0.14 0.4792
vt 0.5967 0.6806
vt 0.5967 0.625
vt 0.2433 0.5347
vt 0.2367 0.5208
vt 0.2433 0.5208
vt 0.3333 0.7639
vt 0.34 0.75
vt 0.3333 0.75
vt 0.2367 0.5347
vt 0.2167 0.5347
vt 0.38 0.8125
vt 0.3733 0.8264
vt 0.3733 0.8125
vt 0.28 0.5625
vt 0.2867 0.5764
vt 0.28 0.5764
vt 0.33 0.7847
vt 0.3233 0.7708
vt 0.33 0.7708
vt 0.34 0.7639
vt 0.2267 0.5347
vt 0.3233 0.7847
vt 0.2367 0.5139
vt 0.32 0.3542
vt 0.36 0.3542
vt 0.37 0.8333
vt 0.3633 0.8472
vt 0.3633 0.8333
vt 0.2533 0.5208
vt 0.6567 0.7222
vt 0.59 0.7083
vt 0.6567 0.7083
vt 0.59 0.8056
vt 0.6333 0.7986
vt 0.6333 0.8056
vt 0.73 0.6806
vt 0.73 0.625
vt 0.4467 0.4583
vt 0.4467 0.3611
vt 0.1433 0.4826
vt 0.15 0.5347
vt 0.1467 0.5451
vt 0.1467 0.5382
vt 0.0933 0.5069
vt 0.09 0.4965
vt 0.0933 0.4931
vt 0.0933 0.5625
vt 0.09 0.5729
vt 0.09 0.566
vt 0.15 0.5625
vt 0.1467 0.5521
vt 0.2 0.559
vt 0.09 0.4896
vt 0.3433 0.7431
vt 0.35 0.7569
vt 0.3433 0.7569
vt 0.2 0.4965
vt 0.2 0.4826
vt 0.1967 0.4792
vt 0.1967 0.5764
vt 0.2 0.5868
vt 0.2 0.5799
vt 0.1967 0.5208
vt 0.2 0.5104
vt 0.15 0.4792
vt 0.1467 0.4896
vt 0.1467 0.4826
vt 0.1433 0.5382
vt 0.14 0.5347
vt 0.09 0.5521
vt 0.0933 0.5486
vt 0.1467 0.5035
vt 0.15 0.5069
vt 0.14 0.5972
vt 0.14 0.6319
vt 0.0767 0.4792
vt 0.0767 0.5903
vt 0.5933 0.3403
vt 0.6333 0.2292
vt 0.6333 0.3403
vt 0.28 0.6389
vt 0.3733 0.8333
vt 0.38 0.8472
vt 0.3733 0.8472
vt 0.36 0.7569
vt 0.3533 0.7431
vt 0.3533 0.7569
vt 0.29 0.5417
vt 0.2967 0.5556
vt 0.29 0.5556
vt 0.38 0.8333
vt 0.35 0.7639
vt 0.3633 0.8125
vt 0.37 0.8264
vt 0.3633 0.8264
vt 0.37 0.8125
vt 0.38 0.8264
vt 0.5158 0.3594
vt 0.58 0.3542
vt 0.5817 0.3576
vt 0.36 0.7778
vt 0.3533 0.7639
vt 0.3533 0.7778
vt 0.37 0.8542
vt 0.3633 0.8819
vt 0.3633 0.8542
vt 0.3733 0.8819
vt 0.37 0.8819
vt 0.43 0.7083
vt 0.4967 0.6944
vt 0.4967 0.7083
vt 0.36 0.7639
vt 0.36 0.7431
vt 0.33 0.75
vt 0.6333 0.9931
vt 0.6767 0.9861
vt 0.6767 0.9931
vt 0.35 0.7431
vt 0.37 0.8472
vt 0.36 0.7847
vt 0.3533 0.8125
vt 0.36 0.8125
vt 0.3533 0.7847
vt 0.35 0.7847
vt 0.3433 0.8125
vt 0.3433 0.7847
vt 0.0933 0.5347
vt 0.43 0.5833
vt 0.4967 0.5833
vt 0.0067 0.4792
vt 0.0067 0.5903
vt 0.4733 0.3403
vt 0.5133 0.2292
vt 0.5133 0.3403
vt 0.46 0.5694
vt 0.4667 0.8125
vt 0.4833 0.7292
vt 0.4833 0.8125
vt 0.3733 0.5694
vt 0.3733 0.5278
vt 0.3333 0.7708
vt 0.3233 0.7639
vt 0.3233 0.75
vt 0.2267 0.5
vt 0.33 0.7639
vt 0.9567 0.9931
vt 0.9167 0.8819
vt 0.9567 0.8819
vt 0.21 0.5208
vt 0.26 0.6319
vt 0.4967 0.7222
vt 0.28 0.5972
vt 0.08 0.5903
vt 0.0833 0.4792
vt 0.0833 0.5903
vt 0.51 0.6111
vt 0.5767 0.5972
vt 0.5767 0.6111
vt 0.45 0.4722
vt 0.515 0.4653
vt 0.515 0.4722
vt 0.51 0.5833
vt 0.5767 0.5833
vt 0.2967 0.5417
vt 0.2867 0.5417
vt 0.2967 0.5625
vt 0.29 0.5764
vt 0.29 0.5625
vt 0.2967 0.5764
vt 0.28 0.5556
vt 0.28 0.5417
vt 0.4833 0.8958
vt 0.2867 0.5556
vt 0.6733 0.2292
vt 0.6733 0.3403
vt 0.16 0.5972
vt 0.5533 0.5694
vt 0.5533 0.5278
vt 0.0933 0.5208
vt 0.14 0.5208
vt 0.3833 0.8125
vt 0.4 0.7292
vt 0.4 0.8125
vt 0.1967 0.5903
vt 0.15 0.5764
vt 0.0267 0.4792
vt 0.0267 0.5903
vt 0.2833 0.3542
vt 0.36 0.3472
vt 0.01 0.4792
vt 0.01 0.5903
vt 0.5167 0.6806
vt 0.5167 0.625
vt 0.37 0.5764
vt 0.41 0.5694
vt 0.43 0.5278
vt 0.43 0.5694
vt 0.47 0.5764
vt 0.49 0.5694
vt 0.49 0.5764
vt 0.4167 0.7292
vt 0.4167 0.8125
vt 0.5 0.5694
vt 0.52 0.5694
vt 0.3767 0.7222
vt 0.4067 0.7222
vt 0.05 0.5903
vt 0.0533 0.4792
vt 0.0467 0.5903
vt 0.05 0.4792
vt 0.6567 0.6944
vt 0.59 0.5694
vt 0.5867 0.5278
vt 0.59 0.5278
vt 0.2867 0.5625
vt 0.14 0.5069
vt 0.8367 0.875
vt 0.77 0.7639
vt 0.42 0.6111
vt 0.42 0.6944
vt 0.44 0.5764
vt 0.46 0.5764
vt 0.5333 0.7292
vt 0.04 0.6389
vt 0.4333 0.9236
vt 0.41 0.5764
vt 0.43 0.5764
vt 0.4 0.5208
vt 0.38 0.5278
vt 0.38 0.5208
vt 0.32 0.5208
vt 0.34 0.5208
vt 0.0133 0.4792
vt 0.3167 0.5278
vt 0.32 0.5278
vt 0.06 0.5903
vt 0.0633 0.4792
vt 0.4033 0.5278
vt 0.4 0.5694
vt 0.4 0.5278
vt 0.38 0.5694
vt 0.4067 0.5278
vt 0.41 0.5278
vt 0.55 0.5764
vt 0.55 0.5208
vt 0.53 0.5278
vt 0.53 0.5208
vt 0.3467 0.5278
vt 0.35 0.5278
vt 0.61 0.5208
vt 0.59 0.5208
vt 0.32 0.5764
vt 0.3767 0.5278
vt 0.0433 0.5903
vt 0.0467 0.4792
vt 0.59 0.9931
vt 0.47 0.5208
vt 0.49 0.5208
vt 0.61 0.5694
vt 0.38 0.5764
vt 0.4 0.5764
vt 0.8767 0.9931
vt 0.8767 0.8819
vt 0.08 0.4792
vt 0.5 0.5764
vt 0.52 0.5764
vt 0.0033 0.0903
vt 0.0533 0.0069
vt 0.0533 0.0903
vt 0 0.6319
vt 0.5767 0.6944
vt 0.56 0.5764
vt 0.58 0.5764
vt 0.08 0.6389
vt 0.08 0.7882
vt 0.4967 0.5278
vt 0.5 0.5278
vt 0.0367 0.4792
vt 0.0367 0.5903
vt 0.37 0.5208
vt 0.4333 0.5694
vt 0.4333 0.5278
vt 0.41 0.5208
vt 0.43 0.5208
vt 0.28 0.4583
vt 0.28 0.3611
vt 0.1752 1
vt 0.1648 1
vt 0.4 0.4653
vt 0.5567 0.5278
vt 0.56 0.5278
vt 0.22 0.7882
vt 0.24 0.6389
vt 0.81 0.7569
vt 0.77 0.6181
vt 0.81 0.6181
vt 0.1967 0.5347
vt 0.5 0.5208
vt 0.52 0.5208
vt 0.0067 0.4583
vt 0.0033 0.3611
vt 0.0067 0.3611
vt 0.49 0.6806
vt 0.49 0.625
vt 0.14 0.5764
vt 0.14 0.5625
vt 0.5267 0.5278
vt 0.4333 0.7292
vt 0.1467 0.5729
vt 0.1467 0.566
vt 0.2 0.566
vt 0.15 0.5903
vt 0.1467 0.5799
vt 0.09 0.5451
vt 0.09 0.5382
vt 0.1433 0.5312
vt 0.1433 0.5243
vt 0.09 0.5243
vt 0.1433 0.5174
vt 0.1433 0.5104
vt 0.09 0.5104
vt 0.1433 0.5868
vt 0.1433 0.5799
vt 0.2 0.5382
vt 0.1467 0.5243
vt 0.15 0.5208
vt 0.1433 0.566
vt 0.0933 0.5903
vt 0.09 0.5799
vt 0.0933 0.5764
vt 0.1467 0.5174
vt 0.1467 0.5104
vt 0.2 0.5312
vt 0.2 0.5243
vt 0.1433 0.4965
vt 0.0867 0.4792
vt 0.0867 0.5903
vt 0.5533 0.2292
vt 0.5533 0.3403
vt 0.4667 0.7292
vt 0.3433 0.5694
vt 0.3433 0.5278
vt 0.2042 0.4601
vt 0.14 0.4653
vt 0.1383 0.4618
vt 0.61 0.5764
vt 0.65 0.6806
vt 0.65 0.625
vt 0.35 0.8125
vt 0.14 0.5903
vt 0.0033 0.2569
vt 0.0533 0.1736
vt 0.0533 0.2569
vt 0.5 0.7292
vt 0.5133 0.2222
vt 0.4733 0.1389
vt 0.5133 0.1389
vt 0.7367 0.6944
vt 0.04 0.4792
vt 0.04 0.5903
vt 0.34 0.7917
vt 0.4967 0.5694
vt 0 0.6389
vt 0.3233 0.6042
vt 0.3438 0.9926
vt 0.3533 0.9965
vt 0.3629 0.9926
vt 0.3764 0.9644
vt 0.3783 0.9444
vt 0.3764 0.9245
vt 0.371 0.9076
vt 0.3629 0.8963
vt 0.3533 0.8924
vt 0.3438 0.8963
vt 0.3302 0.9245
vt 0.3283 0.9444
vt 0.3302 0.9644
vt 0.34 0.7431
vt 0.44 0.4583
vt 0.2033 0.5556
vt 0.2033 0.3403
vt 0.36 0.7361
vt 0.43 0.5972
vt 0.67 0.5972
vt 0.7133 0.4583
vt 0.3133 0.5556
vt 0.2416 0.9722
vt 0.28 0.4653
vt 0.1048 1
vt 0.4367 0.5694
vt 0.77 0.9931
vt 0.88 0.3542
vt 0.44 0.3542
vt 0.23 0.5
vt 0.1 0.6389
vt 0.0433 0.4792
vt 0.4667 0.5694
vt 0.2033 0.5764
vt 0.72 0.4653
vt 0.4 0.3542
vt 0.32 0.4653
vt 0.84 0.3542
vt 0.76 0.4653
vt 0.7133 0.3542
vt 0.4467 0.4653
vt 0.2733 0.3542
vt 0.0067 0.4653
vt 0.6467 0.3542
vt 0.5133 0.4653
vt 0.2067 0.3542
vt 0.0733 0.4653
vt 0.2 0.5521
vt 0.53 0.5764
vt 0.23 0.5208
vt 0.51 0.5972
vt 0.3633 0.6111
vt 0.1467 0.559
vt 0.06 0.4792
vt 0.2033 0.5
vt 0.3167 0.5694
vt 0.3433 0.6042
vt 0.3467 0.5694
vt 0.34 0.5764
vt 0.2833 0.4653
vt 0.45 0.4653
vt 0.09 0.4826
vt 0.2248 1
vt 0.1584 0.9722
vt 0.1248 1
vt 0.5133 1
vt 0.0033 0.0069
vt 0.1784 0.9722
vt 0.0784 0.9722
vt 0.4367 1
vt 0.59 0.7222
vt 0.3633 0.7778
vt 0.4033 0.5694
vt 0.3311 0.8742
vt 0.3367 0.8772
vt 0.3422 0.8741
vt 0.3477 0.8541
vt 0.3463 0.8427
vt 0.3422 0.8341
vt 0.3312 0.8342
vt 0.3271 0.8426
vt 0.3256 0.8542
vt 0.88 0.4583
vt 0.3233 0.8194
vt 0.3767 0.5833
vt 0.7233 0.4653
vt 0.1467 0.4965
vt 0.09 0.559
vt 0.77 0.875
vt 0.9167 0.9931
vt 0.0758 0.3594
vt 0.9567 0.875
vt 0.9167 0.7639
vt 0.9567 0.7639
vt 0.1033 0.1736
vt 0.1033 0.2569
vt 0.6442 0.4601
vt 0.645 0.4583
vt 0.8767 0.4653
vt 0.8767 0.4722
vt 0.27 0.1736
vt 0.2033 0.0903
vt 0.27 0.0903
vt 0.84 0.4653
vt 0.1033 0.3403
vt 0.1533 0.2569
vt 0.1533 0.3403
vt 0.59 0.6944
vt 0.6467 0.4653
vt 0.8767 0.3472
vt 0.8767 0.3542
vt 0.58 0.4583
vt 0.1533 0.0903
vt 0.1533 0.1736
vt 0.59 0.5972
vt 0.67 0.7222
vt 0.2033 0.5208
vt 0.93 0.7569
vt 0.89 0.6181
vt 0.93 0.6181
vt 0.89 0.7569
vt 0.85 0.6181
vt 0.2033 0.1736
vt 0.4733 0.2292
vt 0.1433 0.4896
vt 0.5867 0.9861
vt 0.14 0.3472
vt 0.14 0.3542
vt 0.3367 0.2569
vt 0.3367 0.1736
vt 0.3367 0.3403
vt 0.5133 0.3542
vt 0.1417 0.3576
vt 0.14 0.3611
vt 0.58 0.3611
vt 0.9167 0.875
vt 0.9967 0.9931
vt 0.9967 0.8819
vt 0 0.4792
vt 0.3733 0.7778
vt 0.3833 0.8958
vt 0.03 0.4792
vt 0.2033 0.0069
vt 0.4367 0.3472
vt 0.4367 0.3542
vt 0.47 0.3403
vt 0.4033 0.2569
vt 0.47 0.2569
vt 0.6767 0.8056
vt 0.4333 0.8958
vt 0.5333 0.8958
vt 0.53 1
vt 0.2 0.5035
vt 0.32 0.7882
vt 0.14 0.4583
vt 0.205 0.4583
vt 0.2067 0.4653
vt 0.45 0.3472
vt 0.58 0.4653
vt 0.58 0.4722
vt 0.1033 0.0903
vt 0.51 0.7222
vt 0.7233 0.3472
vt 0.4033 0.1736
vt 0.47 0.1736
vt 0.4033 0.3403
vt 0.205 0.3472
vt 0.205 0.3542
vt 0.27 0.3472
vt 0.27 0.3542
vt 0.9967 0.875
vt 0.9967 0.7639
vt 0.5867 0.5694
vt 0.43 1
vt 0.58 1
vt 0.4033 0.0903
vt 0.3367 0.0069
vt 0.4033 0.0069
vt 0.4367 0.4653
vt 0.4367 0.4722
vt 0.6767 0.7986
vt 0.47 0.0903
vt 0.47 0.0069
vt 0.5933 0.2292
vt 0.5867 0.8056
vt 0.27 0.0069
vt 0.645 0.3542
vt 0.71 0.3472
vt 0.71 0.3542
vt 0.09 0.5035
vt 0.2 0.5174
vt 0.35 0.5764
vt 0.4133 1
vt 0.2833 0.3472
vt 0.5533 0.2222
vt 0.5533 0.1389
vt 0.5833 0.8958
vt 0.5783 0.4618
vt 0.3833 0.7292
vt 0.51 0.6944
vt 0.4067 0.5694
vt 0.3767 0.5694
vt 0 0.5972
vt 0.7233 0.8056
vt 0.68 0.8056
vt 0.3367 0.0903
vt 0.01 0.3472
vt 0.7667 0.9861
vt 0.14 0.4722
vt 0.205 0.4653
vt 0.205 0.4722
vt 0.645 0.4722
vt 0.71 0.4653
vt 0.71 0.4722
vt 0.2733 0.4583
vt 0.76 0.3542
vt 0.48 1
vt 0.58 0.3472
vt 0.0533 0.3403
vt 0.7133 0.2292
vt 0.7133 0.3403
vt 0.645 0.4653
vt 0.0033 0.3403
vt 0.645 0.3472
vt 0.0033 0.1736
vt 0.85 0.7569
vt 0.01 0.4653
vt 0.1033 0.0069
vt 0.1433 0.5451
vt 0.7667 0.8056
vt 0.1533 0.0069
vt 0.27 0.4653
vt 0.27 0.4722
vt 0.0733 0.3542
vt 0.35 0.5208
vt 0.2 0.4896
vt 0.43 0.6944
vt 0.59 0.7986
vt 0.32 0.6389
vt 0.44 0.5208
vt 0.46 0.5208
vt 0.22 0.6389
vt 0.43 0.7222
vt 0.5567 0.5694
vt 0.77 0.7569
vt 0.0033 0.4583
vt 0.5267 0.5694
vt 0.2 0.5729
vt 0.1467 0.5868
vt 0.09 0.5312
vt 0.09 0.5174
vt 0.2 0.5451
vt 0.1467 0.5312
vt 0.1433 0.5729
vt 0.09 0.5868
vt 0.1433 0.5035
vt 0.59 0.5764
vt 0.4733 0.2222
vt 0.67 0.6944
s 1
f 962/1 959/2 961/3
f 1034/4 14/5 1031/6
f 1062/7 1016/8 1067/9
f 765/10 748/11 749/12
f 836/13 833/14 834/15
f 406/16 403/17 404/18
f 117/19 1087/20 1102/21
f 572/22 573/23 574/24
f 187/25 182/26 179/27
f 718/28 713/29 714/30
f 284/31 281/32 282/33
f 948/34 945/35 947/36
f 263/37 240/38 239/39
f 824/13 837/14 838/15
f 726/40 721/41 722/42
f 1031/6 13/43 1023/44
f 798/45 792/46 794/47
f 19/48 36/49 38/50
f 29/51 60/52 30/53
f 21/54 40/55 42/56
f 28/57 54/58 56/59
f 52/60 27/61 26/62
f 17/63 64/64 34/65
f 17/63 36/66 18/67
f 28/57 58/68 29/51
f 278/69 256/70 266/71
f 21/72 44/73 22/74
f 48/75 25/76 24/77
f 19/48 40/78 20/79
f 23/80 48/81 24/77
f 22/74 46/82 23/80
f 31/83 64/84 32/85
f 49/86 52/87 50/88
f 55/89 54/58 53/90
f 59/91 62/92 60/93
f 60/52 57/94 59/95
f 34/65 63/96 33/97
f 47/98 46/99 45/100
f 38/50 35/101 37/102
f 36/66 33/103 35/104
f 43/105 42/106 41/107
f 231/108 245/109 243/110
f 39/111 38/112 37/113
f 41/114 40/55 39/115
f 49/116 48/75 47/117
f 54/118 51/119 53/120
f 45/121 44/122 43/123
f 61/124 64/84 62/125
f 50/88 26/62 25/76
f 766/10 749/11 750/12
f 939/126 922/127 938/128
f 109/129 88/130 110/131
f 75/132 70/133 74/134
f 645/135 628/136 629/137
f 712/138 715/139 716/140
f 87/141 65/142 88/143
f 89/144 68/145 90/146
f 997/147 89/144 978/148
f 1053/149 93/150 989/151
f 93/150 71/152 92/153
f 91/154 70/155 94/156
f 1024/157 91/154 1054/158
f 990/159 87/141 1035/160
f 95/161 80/162 96/163
f 97/164 81/165 98/166
f 100/167 86/168 99/169
f 101/19 83/170 102/171
f 1084/172 95/161 1082/173
f 1070/174 97/164 1124/175
f 1128/176 100/167 1079/177
f 1081/178 101/19 1086/21
f 542/179 539/180 540/181
f 114/182 1113/183 1115/184
f 362/185 347/186 346/187
f 292/188 289/189 290/190
f 580/191 577/192 578/193
f 702/194 697/195 698/196
f 116/197 1088/198 1112/199
f 785/200 770/201 769/202
f 686/203 681/204 682/205
f 113/164 1115/206 1133/175
f 192/207 183/208 184/209
f 1033/210 6/211 1030/212
f 110/213 1054/214 999/215
f 366/185 343/186 350/187
f 337/216 320/217 321/218
f 522/219 505/220 506/221
f 500/222 497/223 498/224
f 883/225 899/226 900/227
f 61/228 45/229 37/230
f 136/231 133/232 134/233
f 105/150 1038/148 1059/151
f 194/234 185/235 186/236
f 964/237 961/3 963/238
f 950/239 947/36 949/240
f 942/126 925/127 941/128
f 115/241 99/242 116/243
f 187/244 163/25 190/245
f 154/246 151/247 152/248
f 688/249 694/250 690/251
f 975/252 8/253 1051/254
f 118/255 1092/256 1087/257
f 534/179 531/180 532/181
f 1045/258 1044/259 1066/260
f 532/179 529/180 530/181
f 861/261 844/262 845/263
f 524/219 507/220 508/221
f 144/237 141/3 142/1
f 156/264 163/265 155/266
f 164/267 1014/268 158/269
f 157/270 165/271 158/269
f 166/272 1001/273 155/266
f 158/269 167/274 157/270
f 168/275 1032/276 162/277
f 161/278 169/279 162/277
f 170/280 1026/281 157/270
f 162/277 171/282 161/278
f 172/283 1057/284 160/285
f 159/286 173/287 160/285
f 174/288 1040/289 161/278
f 160/290 175/291 159/292
f 176/293 1015/294 156/264
f 155/266 177/295 156/264
f 178/296 1002/297 159/292
f 994/298 2/299 987/300
f 1023/44 12/301 1010/302
f 519/219 510/220 503/221
f 108/303 1035/304 1020/305
f 146/306 143/238 144/237
f 571/307 569/308 573/23
f 1010/302 11/309 995/310
f 341/216 324/217 325/218
f 107/311 94/312 108/313
f 960/314 957/315 959/2
f 189/316 171/317 188/318
f 620/319 617/320 618/321
f 664/322 670/323 666/324
f 1119/325 1110/326 1141/327
f 1050/328 15/329 1034/4
f 562/330 545/331 546/332
f 190/333 181/334 182/335
f 245/108 202/336 200/337
f 103/338 90/339 104/340
f 1100/341 66/342 1120/343
f 869/225 902/226 867/227
f 672/344 678/345 674/346
f 262/347 239/39 238/348
f 111/349 96/350 112/130
f 906/351 903/352 905/353
f 966/306 963/238 965/354
f 639/135 630/136 623/137
f 288/355 285/356 286/357
f 710/358 705/359 706/360
f 702/195 699/361 701/362
f 582/363 579/364 580/365
f 787/200 772/201 771/202
f 189/366 176/296 194/367
f 126/368 123/369 124/370
f 565/330 548/331 549/332
f 453/371 486/372 461/373
f 832/13 829/14 830/15
f 208/374 224/375 206/376
f 384/377 387/378 383/379
f 223/380 202/381 204/382
f 229/383 214/384 216/385
f 212/386 226/387 210/388
f 226/387 208/374 210/388
f 273/389 269/390 277/391
f 198/392 221/393 219/394
f 196/395 230/396 218/397
f 214/384 227/398 212/386
f 224/375 204/382 206/376
f 219/394 196/395 198/392
f 264/399 241/400 240/38
f 783/200 768/201 767/202
f 1005/401 209/402 981/403
f 592/404 605/405 606/406
f 594/407 591/408 592/404
f 814/409 808/410 810/411
f 641/135 624/136 625/137
f 464/371 484/372 467/373
f 109/141 999/158 1020/160
f 918/351 915/352 917/353
f 412/16 409/17 410/18
f 190/412 175/333 189/413
f 244/414 242/415 232/416
f 236/417 247/418 235/419
f 241/420 252/400 240/421
f 230/396 216/385 218/397
f 242/421 253/414 241/416
f 238/422 249/348 237/423
f 239/420 252/39 251/38
f 202/336 221/393 200/337
f 233/424 246/110 245/425
f 235/426 246/427 234/417
f 238/428 251/348 250/39
f 249/418 236/422 237/419
f 262/347 275/429 263/37
f 130/239 127/36 128/34
f 908/351 905/352 907/353
f 257/430 234/425 233/110
f 937/126 920/127 936/128
f 828/13 825/14 826/15
f 408/16 405/17 406/18
f 974/246 971/247 973/431
f 784/200 769/201 768/202
f 134/233 131/432 132/433
f 258/434 235/427 234/435
f 720/436 723/437 724/438
f 231/415 244/109 232/439
f 258/440 269/441 270/442
f 260/443 271/444 272/445
f 264/399 277/446 265/447
f 256/70 267/448 255/449
f 264/399 275/450 276/451
f 258/434 271/452 259/453
f 266/71 277/454 278/455
f 261/456 272/457 273/458
f 255/449 269/459 257/430
f 261/456 274/460 262/347
f 469/461 465/462 468/463
f 1028/464 203/465 1004/466
f 1022/467 4/468 1009/469
f 260/443 237/470 236/418
f 188/471 172/288 191/472
f 606/406 603/473 604/474
f 302/475 983/7 992/476
f 188/274 169/477 170/478
f 1042/479 205/480 1028/464
f 470/371 448/372 472/373
f 912/351 909/352 911/353
f 342/216 325/217 326/218
f 568/481 571/307 572/22
f 296/482 1045/483 1062/484
f 259/453 236/418 235/427
f 696/485 702/195 698/486
f 838/13 835/14 836/15
f 1004/466 201/487 980/488
f 253/421 218/397 216/385
f 243/439 200/337 198/392
f 251/428 214/384 212/386
f 1003/489 217/490 982/491
f 128/34 125/35 126/368
f 319/492 334/493 320/494
f 753/495 734/496 752/497
f 353/498 354/499 349/500
f 322/492 331/493 323/494
f 355/498 314/501 356/502
f 321/492 332/493 322/494
f 750/503 753/504 752/505
f 743/503 752/504 751/505
f 758/497 727/506 728/496
f 326/494 329/507 328/493
f 26/62 975/252 25/76
f 929/508 920/509 921/510
f 755/495 732/496 754/497
f 332/511 305/512 306/513
f 777/514 742/515 741/516
f 752/495 727/496 751/497
f 290/190 287/517 288/355
f 148/518 145/354 146/306
f 261/456 238/348 237/470
f 104/519 989/520 1059/521
f 550/332 565/522 549/331
f 378/523 372/524 374/525
f 364/185 349/186 348/187
f 190/526 164/272 193/527
f 768/528 781/529 782/530
f 754/495 753/505 749/503
f 914/531 929/532 930/533
f 772/534 779/530 771/528
f 349/500 354/499 348/535
f 851/536 830/537 852/538
f 767/528 782/529 775/530
f 558/539 532/540 530/541
f 509/542 516/543 517/544
f 906/545 927/533 904/531
f 354/502 317/546 316/501
f 504/547 513/544 505/542
f 746/548 755/505 747/503
f 1089/549 1007/550 997/147
f 422/551 423/552 415/553
f 782/554 735/516 775/514
f 472/371 447/372 449/373
f 193/555 184/556 185/557
f 916/351 913/352 915/353
f 540/179 537/180 538/181
f 244/415 198/392 196/395
f 300/558 1006/559 1016/560
f 190/291 177/561 178/562
f 113/563 98/340 114/564
f 376/523 371/565 372/525
f 818/566 813/567 817/568
f 370/569 373/570 374/571
f 386/572 381/573 385/574
f 810/575 813/576 814/410
f 811/577 808/411 812/409
f 373/578 378/524 374/571
f 456/579 472/580 449/581
f 796/45 791/582 792/47
f 800/47 795/583 796/584
f 800/585 803/586 799/587
f 792/588 819/589 820/45
f 802/590 797/591 801/592
f 392/377 387/593 388/594
f 386/572 389/595 390/596
f 793/597 798/46 794/598
f 622/319 619/320 620/321
f 152/248 149/599 150/600
f 604/474 601/601 602/602
f 339/216 322/217 323/218
f 442/603 439/604 440/605
f 252/420 216/385 214/384
f 1051/254 7/606 1033/210
f 642/135 625/136 626/137
f 845/607 852/608 853/609
f 886/610 887/611 888/612
f 628/613 635/614 636/615
f 847/536 848/609 839/616
f 416/551 425/552 417/553
f 455/617 457/463 458/461
f 415/551 424/552 416/553
f 508/542 515/543 516/544
f 424/618 400/619 414/620
f 425/621 410/620 426/618
f 849/538 838/622 836/537
f 1114/623 1047/624 1037/625
f 423/618 402/619 400/620
f 421/551 430/552 422/553
f 908/531 932/532 933/533
f 878/626 882/627 881/628
f 422/629 437/630 421/631
f 840/262 857/261 856/632
f 431/633 422/631 415/629
f 846/263 861/632 845/262
f 843/263 858/632 842/262
f 840/263 855/632 839/262
f 418/629 433/630 417/631
f 855/261 846/262 839/263
f 794/588 820/598 822/45
f 877/225 901/226 902/227
f 616/319 613/320 614/321
f 400/16 413/17 414/18
f 254/416 196/395 218/397
f 410/16 407/17 408/18
f 191/634 173/635 194/636
f 338/216 321/217 322/218
f 868/610 873/611 869/612
f 454/579 449/580 452/581
f 474/617 454/463 455/461
f 873/628 871/637 874/627
f 457/579 452/580 453/581
f 877/612 873/638 875/611
f 514/639 515/544 507/542
f 1061/640 295/641 296/642
f 457/643 461/581 459/579
f 846/616 847/609 839/607
f 881/626 885/627 884/628
f 886/612 881/638 884/611
f 887/628 885/637 889/627
f 421/553 428/644 429/552
f 888/610 872/611 865/612
f 872/628 889/637 890/627
f 889/645 892/646 891/647
f 421/629 436/630 420/631
f 891/646 890/645 889/648
f 895/647 871/648 894/646
f 469/649 482/650 466/651
f 896/646 879/645 876/648
f 898/647 879/648 897/646
f 885/645 898/646 892/647
f 402/16 399/17 400/18
f 394/377 388/652 390/594
f 189/317 180/653 181/654
f 336/216 319/217 320/218
f 940/126 923/127 939/128
f 282/33 279/655 280/656
f 868/225 867/226 866/227
f 361/185 346/186 345/187
f 444/657 445/658 446/659
f 712/138 718/29 714/660
f 1043/661 213/662 1029/663
f 954/233 951/432 953/232
f 670/664 665/323 666/665
f 934/508 925/509 926/510
f 932/666 925/510 933/508
f 931/666 924/510 932/508
f 931/533 930/666 923/510
f 513/639 498/667 514/668
f 331/669 308/513 330/511
f 503/547 512/544 504/542
f 353/502 318/546 317/501
f 512/668 488/670 502/667
f 918/545 929/533 916/531
f 929/666 922/510 930/508
f 1085/671 977/672 1083/673
f 910/531 931/532 932/533
f 343/500 352/499 350/535
f 343/535 358/674 351/499
f 927/508 926/509 919/510
f 763/10 746/11 747/12
f 502/222 499/223 500/224
f 140/314 137/315 138/675
f 530/179 527/180 528/181
f 904/351 917/352 903/353
f 363/185 348/186 347/187
f 790/200 767/201 774/202
f 191/676 186/634 183/636
f 618/319 615/320 616/321
f 335/216 326/217 319/218
f 138/675 135/677 136/231
f 600/678 597/679 598/680
f 520/219 503/220 504/221
f 188/681 167/682 187/683
f 112/684 1095/685 1130/686
f 188/682 179/687 180/688
f 629/689 638/615 630/613
f 629/613 636/614 637/615
f 630/689 631/615 623/613
f 631/690 632/615 623/689
f 544/691 553/692 545/693
f 624/689 633/615 625/613
f 543/691 552/692 544/693
f 548/693 555/694 556/692
f 552/539 528/540 542/541
f 633/690 618/695 634/696
f 553/539 542/540 540/541
f 228/697 1005/401 227/398
f 510/547 511/544 503/542
f 638/696 612/698 610/695
f 636/690 612/695 637/696
f 635/690 614/695 636/696
f 525/219 508/220 509/221
f 414/16 411/17 412/18
f 440/605 1046/699 1063/700
f 498/222 495/223 496/224
f 488/222 501/223 502/224
f 880/225 900/226 901/227
f 536/179 533/180 534/181
f 449/371 450/372 452/373
f 150/600 147/701 148/518
f 496/222 493/223 494/224
f 561/330 544/331 545/332
f 359/185 344/186 343/187
f 694/702 689/250 690/703
f 610/319 607/320 608/321
f 398/594 392/704 394/705
f 980/706 199/707 1041/708
f 563/330 546/331 547/332
f 806/709 800/710 802/585
f 286/357 283/711 284/712
f 106/713 978/714 1038/550
f 280/656 293/715 294/716
f 187/717 168/280 192/718
f 664/719 665/322 663/324
f 649/720 653/721 654/722
f 523/219 506/220 507/221
f 722/723 719/724 720/725
f 944/370 973/431 943/369
f 644/135 627/136 628/137
f 1041/708 197/726 1027/727
f 704/728 710/359 706/729
f 564/330 547/331 548/332
f 568/730 574/24 570/731
f 584/732 581/733 582/363
f 586/734 583/735 584/732
f 193/556 165/736 192/557
f 360/185 345/186 344/187
f 680/737 683/738 684/739
f 549/693 556/694 557/692
f 852/536 828/537 853/538
f 550/691 551/692 543/693
f 554/740 555/692 547/693
f 840/616 849/609 841/607
f 626/613 633/614 634/615
f 623/689 632/615 624/613
f 427/621 406/620 428/618
f 632/696 608/698 622/695
f 546/693 553/694 554/692
f 633/696 622/698 620/695
f 230/396 1043/661 229/383
f 350/500 353/499 349/535
f 556/740 532/541 557/539
f 776/514 735/515 742/516
f 757/497 728/506 729/496
f 526/219 509/220 510/221
f 370/705 396/569 398/741
f 559/330 550/331 543/332
f 560/330 543/331 544/332
f 608/319 621/320 622/321
f 956/231 953/232 955/677
f 77/742 73/743 66/342
f 574/24 569/744 570/745
f 714/746 711/660 712/747
f 981/403 207/748 1042/479
f 1009/469 3/749 994/298
f 256/70 231/109 232/750
f 802/47 796/590 798/584
f 654/751 647/722 649/752
f 661/753 660/754 659/755
f 678/345 675/756 677/757
f 294/716 291/758 292/188
f 894/647 890/648 893/646
f 672/344 675/759 676/760
f 494/222 491/223 492/224
f 643/135 626/136 627/137
f 596/761 593/762 594/407
f 528/179 541/180 542/181
f 658/763 661/764 657/765
f 612/319 609/320 610/321
f 656/766 662/765 658/764
f 759/10 750/11 743/12
f 649/720 650/767 652/768
f 688/769 689/249 687/251
f 720/436 726/41 722/724
f 693/770 692/771 691/772
f 664/322 667/773 668/774
f 830/13 827/14 828/15
f 685/775 684/739 683/776
f 255/449 233/110 231/109
f 671/346 674/777 673/344
f 656/766 659/778 660/754
f 247/417 206/376 204/382
f 764/10 747/11 748/12
f 614/319 611/320 612/321
f 142/1 139/2 140/314
f 588/779 585/780 586/734
f 298/781 1044/8 1061/640
f 726/41 723/782 725/783
f 680/737 686/204 682/784
f 658/785 655/764 656/786
f 1077/787 74/134 1068/788
f 602/602 599/789 600/678
f 706/790 703/729 704/791
f 1068/792 1123/793 1140/794
f 132/795 129/240 130/239
f 192/208 169/796 191/209
f 788/200 773/201 772/202
f 698/797 695/486 696/798
f 946/368 943/369 945/35
f 987/300 1/799 976/800
f 704/728 707/801 708/802
f 246/426 204/382 202/381
f 640/135 623/136 624/137
f 578/193 575/803 576/804
f 668/774 669/805 670/323
f 461/371 485/372 464/373
f 653/806 648/721 654/807
f 249/422 210/388 208/374
f 653/721 650/808 651/809
f 105/810 92/243 106/811
f 58/68 55/812 57/813
f 631/696 610/698 608/695
f 777/554 778/530 773/534
f 779/554 738/516 780/514
f 779/514 740/515 739/516
f 745/548 756/505 746/503
f 555/740 534/541 556/539
f 319/494 328/507 327/493
f 430/618 404/619 402/620
f 333/511 304/512 305/513
f 1107/814 1011/520 1053/149
f 324/494 331/507 330/493
f 553/740 538/541 554/539
f 756/497 729/506 730/496
f 781/554 736/516 782/514
f 334/511 303/512 304/513
f 490/222 487/223 488/224
f 696/485 699/815 700/816
f 941/126 924/127 940/128
f 986/817 9/818 975/252
f 1094/819 75/820 1077/821
f 818/411 812/566 814/822
f 710/359 707/823 709/824
f 117/825 102/826 118/827
f 551/539 530/540 528/541
f 330/669 329/493 325/494
f 348/500 355/499 347/535
f 346/535 355/674 356/499
f 773/534 778/530 772/528
f 344/535 357/674 358/499
f 518/668 492/670 490/667
f 908/545 934/533 906/531
f 358/498 311/501 351/502
f 357/498 312/501 358/502
f 778/514 741/515 740/516
f 755/497 730/506 731/496
f 355/502 316/546 315/501
f 18/67 976/800 17/63
f 511/668 490/670 488/667
f 352/502 311/546 318/501
f 786/200 771/201 770/202
f 189/282 173/828 174/829
f 386/830 380/572 382/831
f 124/370 153/431 154/246
f 688/249 691/832 692/771
f 810/585 804/575 806/409
f 538/179 535/180 536/181
f 1027/727 195/833 1003/489
f 810/575 805/834 809/835
f 808/585 803/836 804/409
f 802/837 805/838 806/710
f 394/652 389/839 393/840
f 392/705 395/841 391/842
f 394/652 397/843 398/704
f 396/741 367/844 395/845
f 398/704 369/846 370/569
f 376/830 379/847 375/848
f 816/411 811/849 812/822
f 818/566 821/850 822/851
f 384/830 379/852 380/831
f 378/853 381/854 382/855
f 794/598 821/856 793/857
f 816/588 819/858 815/859
f 372/741 367/860 368/523
f 266/71 232/750 242/414
f 390/831 384/596 386/377
f 598/680 595/861 596/862
f 646/135 629/136 630/137
f 446/659 984/863 993/864
f 761/10 744/11 745/12
f 982/491 215/865 1043/661
f 678/866 673/345 674/867
f 743/548 758/505 744/503
f 854/538 828/622 826/537
f 320/492 333/493 321/494
f 456/643 454/463 474/617
f 418/553 425/644 426/552
f 842/607 849/608 850/609
f 839/616 848/609 840/607
f 844/607 851/608 852/609
f 848/538 824/622 838/537
f 849/536 834/537 850/538
f 770/528 779/529 780/530
f 1093/868 1019/869 1013/870
f 420/553 427/644 428/552
f 328/669 303/513 327/511
f 465/643 470/581 468/579
f 473/617 456/463 474/461
f 436/633 419/631 420/629
f 433/633 416/631 417/629
f 473/649 476/650 469/651
f 680/871 681/737 679/784
f 418/631 435/633 434/630
f 416/629 431/630 415/631
f 858/261 841/262 842/263
f 843/262 860/261 859/632
f 834/13 831/14 832/15
f 935/126 926/127 942/128
f 187/265 165/872 166/873
f 425/618 414/619 412/620
f 870/611 868/612 865/610
f 890/637 871/627 870/628
f 878/611 875/626 879/627
f 460/461 457/462 459/463
f 873/626 876/627 875/628
f 459/643 462/463 463/461
f 20/79 994/298 19/48
f 466/461 462/462 465/463
f 462/643 467/581 465/579
f 469/617 471/463 473/461
f 845/616 854/609 846/607
f 549/691 558/692 550/693
f 428/621 404/620 429/618
f 847/538 826/622 824/537
f 883/612 878/638 881/611
f 479/874 455/651 458/649
f 474/649 475/650 473/651
f 474/651 478/874 477/650
f 896/647 874/648 895/646
f 458/651 480/874 479/650
f 482/874 463/651 466/649
f 60/93 31/83 30/53
f 463/649 480/650 460/651
f 958/675 955/677 957/315
f 467/371 483/372 470/373
f 938/126 921/127 937/128
f 886/225 864/226 899/227
f 521/219 504/220 505/221
f 888/225 863/226 864/227
f 492/222 489/223 490/224
f 382/875 376/855 378/830
f 248/419 208/374 206/376
f 826/13 823/14 824/15
f 265/447 242/414 241/400
f 250/423 212/386 210/388
f 340/216 323/217 324/218
f 471/579 470/580 472/581
f 509/547 518/544 510/542
f 515/639 494/667 516/668
f 511/639 512/544 503/547
f 748/503 755/504 754/505
f 513/668 502/670 500/667
f 919/509 920/510 928/508
f 744/548 757/505 745/503
f 928/533 918/531 904/545
f 331/511 306/512 307/513
f 506/542 513/543 514/544
f 1083/876 1098/877 1139/878
f 774/534 777/530 773/528
f 516/639 492/667 517/668
f 767/534 776/530 774/528
f 329/669 310/513 328/511
f 1029/663 211/879 1005/401
f 1063/880 446/881 993/882
f 452/371 451/372 453/373
f 914/351 911/352 913/353
f 194/235 177/883 193/236
f 789/200 774/201 773/202
f 576/804 589/884 590/885
f 365/185 350/186 349/187
f 553/740 540/540 538/541
f 937/126 921/886 920/127
f 845/607 844/616 852/608
f 768/528 769/534 781/529
f 704/728 703/887 707/801
f 638/696 637/690 612/698
f 255/449 257/430 233/110
f 1022/467 5/888 4/468
f 767/528 768/534 782/529
f 726/41 724/438 723/782
f 628/613 627/689 635/614
f 914/531 916/545 929/532
f 257/430 258/440 234/425
f 498/222 497/889 495/223
f 873/628 870/626 871/637
f 772/534 778/529 779/530
f 37/230 35/890 33/891
f 33/891 63/892 61/228
f 61/228 59/893 57/894
f 57/894 55/895 53/896
f 53/896 51/897 49/898
f 49/898 47/899 45/229
f 45/229 43/900 41/901
f 41/901 39/902 37/230
f 37/230 33/891 61/228
f 61/228 57/894 53/896
f 53/896 49/898 45/229
f 45/229 41/901 37/230
f 604/474 603/473 601/601
f 906/351 904/903 903/352
f 245/108 246/424 202/336
f 103/338 89/904 90/339
f 620/319 619/905 617/320
f 672/344 676/760 678/345
f 562/330 561/522 545/331
f 1119/325 120/906 1110/326
f 869/225 877/907 902/226
f 189/316 174/908 171/317
f 1100/341 77/742 66/342
f 190/333 189/909 181/334
f 966/306 964/237 963/238
f 262/347 263/37 239/39
f 664/322 668/774 670/323
f 111/349 95/910 96/350
f 645/135 644/911 628/136
f 45/121 46/82 44/122
f 49/116 50/912 48/75
f 1053/149 72/913 93/150
f 109/129 87/349 88/130
f 50/88 52/87 26/62
f 61/124 63/914 64/84
f 712/138 711/915 715/139
f 75/132 76/916 70/133
f 39/111 40/78 38/112
f 54/118 52/60 51/119
f 1024/157 69/917 91/154
f 997/147 67/918 89/144
f 41/114 42/56 40/55
f 766/10 765/919 749/11
f 939/126 923/886 922/127
f 1050/328 16/920 15/329
f 258/434 259/453 235/427
f 588/779 587/921 585/780
f 698/797 697/485 695/486
f 720/436 719/922 723/437
f 997/147 92/153 1089/549
f 536/179 535/923 533/180
f 87/141 66/924 65/142
f 89/144 67/918 68/145
f 997/147 1129/925 67/918
f 1053/149 1091/926 72/913
f 93/150 72/913 71/152
f 91/154 69/917 70/155
f 1024/157 1071/927 69/917
f 990/159 1120/928 66/924
f 95/161 79/929 80/162
f 97/164 82/930 81/165
f 100/167 85/931 86/168
f 101/19 84/932 83/170
f 1084/172 1106/933 79/929
f 1070/174 1132/934 82/930
f 1128/176 1090/935 85/931
f 1081/178 1097/936 84/932
f 631/690 608/698 632/615
f 811/577 807/937 808/411
f 259/453 260/443 236/418
f 622/319 621/905 619/320
f 779/554 739/515 738/516
f 688/769 690/938 689/249
f 326/494 325/492 329/507
f 261/456 262/347 238/348
f 788/200 789/939 773/201
f 629/689 637/614 638/615
f 188/682 187/940 179/687
f 246/426 247/417 204/382
f 629/613 628/689 636/614
f 568/481 567/941 571/307
f 810/575 809/942 813/576
f 685/775 686/204 684/739
f 596/761 595/943 593/762
f 758/497 751/495 727/506
f 339/216 338/944 322/217
f 777/514 776/554 742/515
f 544/691 552/694 553/692
f 672/344 671/945 675/759
f 509/542 508/547 516/543
f 238/428 239/423 251/348
f 461/371 486/946 485/372
f 528/179 527/923 541/180
f 755/495 731/506 732/496
f 600/678 599/789 597/679
f 664/322 663/947 667/773
f 671/346 672/948 674/777
f 752/495 734/506 727/496
f 188/681 170/940 167/682
f 714/746 713/138 711/660
f 256/70 255/449 231/109
f 239/420 240/428 252/39
f 138/675 137/315 135/677
f 290/190 289/189 287/517
f 156/264 164/267 163/265
f 158/269 165/271 164/267
f 157/270 166/272 165/271
f 155/266 163/265 166/272
f 158/269 168/275 167/274
f 162/277 169/279 168/275
f 161/278 170/280 169/279
f 157/270 167/274 170/280
f 162/277 172/283 171/282
f 160/285 173/287 172/283
f 159/286 174/288 173/287
f 161/278 171/282 174/288
f 160/290 176/293 175/291
f 156/264 177/295 176/293
f 155/266 178/296 177/295
f 159/292 175/291 178/296
f 851/536 832/622 830/537
f 847/536 824/622 848/609
f 549/693 548/691 556/694
f 104/519 90/949 989/520
f 112/684 96/950 1095/685
f 894/647 871/645 890/648
f 680/737 684/739 686/204
f 540/179 539/923 537/180
f 26/62 986/817 975/252
f 105/810 93/241 92/243
f 929/508 928/666 920/509
f 626/613 625/689 633/614
f 554/740 536/541 555/692
f 624/689 632/614 633/615
f 488/222 487/889 501/223
f 559/330 566/522 550/331
f 550/332 566/330 565/522
f 584/732 583/735 581/733
f 373/578 377/951 378/524
f 92/153 71/152 1089/549
f 602/602 601/601 599/789
f 944/370 974/246 973/431
f 253/421 254/416 218/397
f 640/135 639/911 623/136
f 794/588 792/851 820/598
f 430/618 429/621 404/619
f 187/717 167/279 168/280
f 251/428 252/420 214/384
f 530/179 529/923 527/180
f 247/417 248/419 206/376
f 649/720 652/768 653/721
f 319/492 327/507 334/493
f 578/193 577/192 575/803
f 494/222 493/889 491/223
f 802/590 798/46 797/591
f 421/551 429/644 430/552
f 188/274 191/275 169/477
f 49/86 51/952 52/87
f 19/48 18/67 36/49
f 47/98 48/81 46/99
f 34/65 64/64 63/96
f 21/54 20/79 40/55
f 31/83 62/125 64/84
f 22/74 44/122 46/82
f 29/51 58/953 60/52
f 59/91 61/954 62/92
f 60/52 58/953 57/94
f 28/57 27/61 54/58
f 55/89 56/59 54/58
f 262/347 274/955 275/429
f 568/730 572/22 574/24
f 753/495 733/506 734/496
f 1053/149 90/146 1107/814
f 1068/792 74/956 1123/793
f 929/666 921/509 922/510
f 661/753 662/765 660/754
f 455/617 454/462 457/463
f 720/436 724/438 726/41
f 425/621 412/619 410/620
f 322/492 332/507 331/493
f 58/68 56/957 55/812
f 19/48 38/112 40/78
f 231/108 233/439 245/109
f 17/63 34/958 36/66
f 52/60 54/118 27/61
f 43/105 44/73 42/106
f 21/72 42/106 44/73
f 278/69 268/959 256/70
f 38/50 36/49 35/101
f 28/57 56/957 58/68
f 17/63 32/85 64/64
f 36/66 34/958 33/103
f 48/75 50/912 25/76
f 178/296 155/266 1002/297
f 249/418 248/470 236/422
f 193/555 192/960 184/556
f 130/239 129/240 127/36
f 190/291 193/293 177/561
f 343/500 351/674 352/499
f 1004/466 203/465 201/487
f 1051/254 8/253 7/606
f 400/16 399/961 413/17
f 658/763 662/962 661/764
f 908/351 906/903 905/352
f 496/222 495/889 493/223
f 269/390 267/963 268/964
f 268/964 278/965 277/391
f 277/391 276/966 275/967
f 275/967 274/968 273/389
f 273/389 272/969 271/970
f 271/970 270/971 269/390
f 269/390 268/964 277/391
f 277/391 275/967 273/389
f 23/80 46/99 48/81
f 960/314 958/675 957/315
f 994/298 3/749 2/299
f 341/216 340/944 324/217
f 146/306 145/354 143/238
f 107/311 91/972 94/312
f 1010/302 12/301 11/309
f 519/219 526/973 510/220
f 571/307 567/974 569/308
f 1023/44 13/43 12/301
f 108/303 94/975 1035/304
f 176/293 160/290 1015/294
f 904/351 918/903 917/352
f 886/610 884/638 887/611
f 561/330 560/522 544/331
f 243/439 245/108 200/337
f 513/639 500/670 498/667
f 793/597 797/976 798/46
f 644/135 643/911 627/136
f 764/10 763/919 747/11
f 670/664 669/324 665/323
f 386/572 385/977 389/595
f 912/351 910/903 909/352
f 77/742 78/978 73/743
f 574/24 573/23 569/744
f 642/135 641/911 625/136
f 932/666 924/509 925/510
f 878/626 879/637 882/627
f 1003/489 195/833 217/490
f 1085/671 996/979 977/672
f 355/498 315/546 314/501
f 631/696 638/690 610/698
f 1042/479 207/748 205/480
f 906/545 934/532 927/533
f 1070/174 82/930 97/164
f 102/171 1103/980 1092/20
f 325/494 324/492 330/507
f 1094/981 988/982 1072/983
f 227/398 981/403 226/387
f 426/621 427/552 419/553
f 1139/878 1064/984 1109/985
f 1084/172 79/929 95/161
f 532/179 531/923 529/180
f 96/163 1073/986 1095/987
f 330/669 308/512 309/513
f 1020/305 87/988 109/989
f 1104/990 1125/991 1138/992
f 1072/993 988/304 990/159
f 1017/994 1137/995 1074/996
f 534/179 533/923 531/180
f 331/669 307/512 308/513
f 981/403 209/402 207/748
f 916/351 914/903 913/352
f 696/485 700/816 702/195
f 386/572 382/855 381/573
f 470/371 483/946 448/372
f 193/556 164/997 165/736
f 456/579 471/643 472/580
f 96/163 1108/998 1073/986
f 345/535 346/500 356/674
f 999/215 91/999 107/1000
f 1060/1001 1075/173 1130/987
f 757/495 756/505 745/548
f 1064/984 1135/1002 1126/1003
f 187/244 166/1004 163/25
f 194/234 193/1005 185/235
f 366/185 359/1006 343/186
f 77/1007 1085/1008 78/1009
f 1100/1010 996/1011 1085/1008
f 19/48 987/300 18/67
f 1020/160 107/154 108/156
f 356/498 314/546 313/501
f 1137/995 1011/1012 1107/326
f 522/219 521/973 505/220
f 444/657 443/1013 445/658
f 244/415 243/439 198/392
f 376/523 375/1014 371/565
f 546/693 545/691 553/694
f 678/345 676/760 675/756
f 342/216 341/944 325/217
f 586/734 585/780 583/735
f 296/482 295/1015 1045/483
f 1087/257 1012/1016 1000/1017
f 1131/1018 1104/990 1065/1019
f 1049/1020 1141/327 1131/1018
f 98/166 1117/1021 1114/623
f 1025/1022 1079/177 1012/1023
f 1037/625 1082/173 1036/1024
f 1018/1025 1120/343 988/982
f 78/1026 1083/673 73/1027
f 798/45 796/598 792/46
f 718/28 717/660 713/29
f 406/16 405/961 403/17
f 1034/4 15/329 14/5
f 765/10 764/919 748/11
f 117/19 118/171 1087/20
f 284/31 283/1028 281/32
f 824/13 823/1029 837/14
f 1043/661 215/865 213/662
f 202/336 222/1030 221/393
f 510/547 518/543 511/544
f 838/13 837/1029 835/14
f 868/225 869/907 867/226
f 353/498 317/546 354/499
f 636/690 614/698 612/695
f 757/497 758/495 728/506
f 580/191 579/1031 577/192
f 785/200 786/939 770/201
f 1135/1002 72/1032 1091/991
f 419/553 418/551 426/644
f 222/1030 1041/708 221/393
f 1038/550 89/1033 103/1034
f 850/536 851/609 843/607
f 119/1035 1136/1036 1111/1037
f 1103/980 1008/1017 1025/1022
f 1073/986 1055/1001 1095/987
f 1103/980 1012/1023 1092/20
f 426/621 410/619 408/620
f 296/1038 1067/9 1061/560
f 702/194 701/486 697/195
f 975/252 9/818 8/253
f 1061/560 992/484 298/558
f 219/394 220/1039 196/395
f 224/375 223/380 204/382
f 196/395 220/1039 230/396
f 783/200 784/939 768/201
f 229/383 228/697 214/384
f 198/392 200/337 221/393
f 1005/401 211/879 209/402
f 226/387 225/1040 208/374
f 282/33 281/32 279/655
f 843/263 859/261 858/632
f 261/456 273/1041 274/460
f 526/219 525/973 509/220
f 849/538 848/536 838/622
f 361/185 362/1006 346/186
f 560/330 559/522 543/331
f 796/45 795/1042 791/582
f 94/156 990/159 1035/160
f 870/611 872/626 890/637
f 22/74 1022/1043 21/72
f 221/393 1027/727 219/394
f 88/143 1024/157 1054/158
f 30/53 1023/44 29/51
f 463/461 460/617 459/462
f 459/643 461/580 464/581
f 1021/1044 1116/177 1112/1045
f 99/169 1101/1046 1093/868
f 174/288 159/286 1040/289
f 114/182 98/1047 1113/183
f 170/280 161/278 1026/281
f 686/203 685/784 681/204
f 1130/686 1055/1048 1060/1049
f 1098/877 1080/1050 1064/984
f 208/374 225/1040 224/375
f 592/404 591/408 605/405
f 814/409 812/575 808/410
f 453/371 451/946 486/372
f 189/366 175/295 176/296
f 702/195 700/816 699/361
f 288/355 287/517 285/356
f 787/200 788/939 772/201
f 954/233 952/433 951/432
f 750/503 749/548 753/504
f 416/551 424/644 425/552
f 353/502 352/498 318/546
f 423/618 430/621 402/619
f 363/185 364/1006 348/186
f 782/554 736/515 735/516
f 633/696 632/690 622/698
f 469/461 466/617 465/462
f 394/377 392/596 388/652
f 643/135 642/911 626/136
f 618/319 617/905 615/320
f 350/500 352/674 353/499
f 192/207 191/1051 183/208
f 110/213 88/1052 1054/214
f 1111/1037 1105/1053 1048/1054
f 507/542 506/547 514/543
f 25/76 1051/254 24/77
f 29/51 1010/302 28/57
f 928/533 927/666 919/509
f 1130/987 111/161 112/163
f 1109/985 1126/1003 1137/995
f 1076/1055 1131/1018 1136/1036
f 1000/1017 1079/1056 1116/1057
f 514/639 498/670 496/667
f 1116/1057 100/1058 115/1059
f 154/246 153/431 151/247
f 964/237 962/1 961/3
f 76/1060 1072/983 70/1061
f 188/471 171/287 172/288
f 335/216 342/944 326/217
f 830/13 829/1029 827/14
f 896/646 897/647 879/645
f 680/737 679/1062 683/738
f 818/566 814/410 813/567
f 256/70 268/1063 267/448
f 658/785 657/766 655/764
f 469/649 476/874 482/650
f 1009/469 4/468 3/749
f 520/219 519/973 503/220
f 258/434 270/1064 271/452
f 898/647 882/645 879/648
f 427/621 408/619 406/620
f 630/689 638/614 631/615
f 852/536 830/622 828/537
f 166/272 157/270 1001/273
f 144/237 143/238 141/3
f 1134/1065 979/1066 1122/1067
f 547/693 546/691 554/694
f 1059/521 93/1068 105/1069
f 1016/560 301/1070 302/1038
f 634/690 635/615 627/613
f 1118/1071 1122/1067 121/1072
f 993/864 441/1073 442/603
f 1062/484 299/1074 300/558
f 225/1040 1028/464 224/375
f 554/740 538/540 536/541
f 1138/992 122/1032 1069/1075
f 61/228 53/896 45/229
f 105/150 106/153 1038/148
f 1075/1076 95/1077 111/1078
f 370/569 369/1079 373/570
f 635/690 616/698 614/695
f 370/705 368/704 396/569
f 189/317 188/908 180/653
f 556/740 534/540 532/541
f 792/588 791/1080 819/589
f 266/71 265/447 277/454
f 608/319 607/905 621/320
f 802/47 800/46 796/590
f 1028/464 205/480 203/465
f 956/231 954/233 953/232
f 294/716 293/715 291/758
f 656/766 660/754 662/765
f 889/645 885/648 892/646
f 777/554 741/515 778/530
f 664/719 666/1081 665/322
f 261/456 260/443 272/457
f 891/646 893/647 890/645
f 359/185 360/1006 344/186
f 779/514 778/554 740/515
f 614/319 613/905 611/320
f 706/790 705/728 703/729
f 563/330 562/522 546/331
f 927/508 934/666 926/509
f 264/399 263/37 275/450
f 421/553 420/551 428/644
f 228/697 1029/663 1005/401
f 931/533 912/531 930/666
f 333/511 334/669 304/512
f 872/628 887/626 889/637
f 525/219 524/973 508/220
f 759/10 766/919 750/11
f 255/449 267/1082 269/459
f 895/647 874/645 871/648
f 840/616 848/608 849/609
f 712/138 716/140 718/29
f 106/713 92/1083 978/714
f 164/267 156/264 1014/268
f 524/219 523/973 507/220
f 1048/1054 1134/1065 1118/1071
f 627/613 626/689 634/614
f 229/383 1029/663 228/697
f 24/77 1033/210 23/80
f 356/498 357/499 345/535
f 31/83 1031/6 30/53
f 440/1084 993/882 442/1085
f 220/1039 982/491 230/396
f 223/380 980/488 222/1086
f 634/690 618/698 616/695
f 98/166 1114/623 1113/206
f 136/231 135/677 133/232
f 883/225 886/907 899/226
f 991/1087 1132/934 1070/174
f 606/406 605/405 603/473
f 931/666 923/509 924/510
f 776/514 775/554 735/515
f 336/216 335/944 319/217
f 280/656 279/655 293/715
f 746/548 756/504 755/505
f 231/415 243/750 244/109
f 654/751 648/720 647/722
f 1061/640 1044/8 295/641
f 523/219 522/973 506/220
f 828/13 827/1029 825/14
f 343/535 344/500 358/674
f 974/246 972/248 971/247
f 457/643 453/580 461/581
f 412/16 411/961 409/17
f 918/351 916/903 915/352
f 1041/708 199/707 197/726
f 464/371 485/946 484/372
f 980/706 201/1088 199/707
f 230/396 982/491 1043/661
f 258/440 257/430 269/441
f 806/709 804/837 800/710
f 550/691 558/694 551/692
f 190/412 178/909 175/333
f 414/16 413/961 411/17
f 109/141 110/143 999/158
f 398/594 396/652 392/704
f 722/723 721/436 719/724
f 230/396 229/383 216/385
f 192/208 168/1089 169/796
f 236/417 248/427 247/418
f 286/357 285/356 283/711
f 502/222 501/889 499/223
f 241/420 253/38 252/400
f 612/319 611/905 609/320
f 244/414 254/750 242/415
f 704/728 708/802 710/359
f 693/770 694/250 692/771
f 886/612 883/610 881/638
f 649/720 647/1090 650/767
f 656/766 655/1091 659/778
f 694/702 693/251 689/250
f 934/508 933/666 925/509
f 877/612 869/610 873/638
f 140/314 139/2 137/315
f 846/616 854/608 847/609
f 449/371 447/946 450/372
f 888/610 887/638 872/611
f 514/639 496/667 515/544
f 298/781 297/482 1044/8
f 653/806 651/722 648/721
f 880/225 883/907 900/226
f 402/16 401/961 399/17
f 887/628 884/626 885/637
f 868/610 870/638 873/611
f 457/579 454/643 452/580
f 150/600 149/599 147/701
f 132/795 131/1092 129/240
f 940/126 924/886 923/127
f 421/629 437/633 436/630
f 260/443 259/453 271/444
f 918/545 928/532 929/533
f 784/200 785/939 769/201
f 90/146 68/145 1107/814
f 408/16 407/961 405/17
f 152/248 151/247 149/599
f 990/159 66/924 87/141
f 1037/625 1106/933 1084/172
f 749/503 748/548 754/504
f 1006/1093 983/476 301/1094
f 224/375 1004/466 223/380
f 551/740 552/692 543/691
f 1127/1095 1069/1075 979/1066
f 1128/176 85/931 100/167
f 118/255 102/1096 1092/256
f 1112/1045 115/167 116/169
f 754/495 732/506 733/496
f 32/85 1034/4 31/83
f 992/476 297/1038 298/1094
f 219/394 1003/489 220/1039
f 1025/1022 1090/935 1128/176
f 1045/258 295/1097 1044/259
f 790/200 783/939 767/201
f 610/319 609/905 607/320
f 190/526 163/271 164/272
f 260/443 261/456 237/470
f 946/368 944/370 943/369
f 134/233 133/232 131/432
f 881/626 882/637 885/627
f 442/603 441/1073 439/604
f 99/169 1093/868 1088/1045
f 769/528 770/534 780/529
f 1021/1098 1086/1099 1102/1100
f 23/80 1030/212 22/74
f 333/669 332/493 321/492
f 1133/1101 97/1102 113/1103
f 950/239 948/34 947/36
f 115/241 100/1104 99/242
f 500/222 499/889 497/223
f 1074/996 1107/326 68/906
f 1121/1105 985/215 1024/157
f 21/54 1009/469 20/79
f 1066/260 297/475 983/476
f 780/554 738/515 737/516
f 1013/870 1097/936 1081/178
f 337/216 336/944 320/217
f 616/319 615/905 613/320
f 378/523 376/571 372/524
f 128/34 127/36 125/35
f 148/518 147/701 145/354
f 564/330 563/522 547/331
f 264/399 276/1106 277/446
f 885/645 882/648 898/646
f 877/225 880/907 901/226
f 1031/6 14/5 13/43
f 263/37 264/399 240/38
f 187/25 190/1004 182/26
f 1062/7 300/641 1016/8
f 836/13 835/1029 833/14
f 572/22 571/307 573/23
f 948/34 946/368 945/35
f 726/40 725/724 721/41
f 991/1087 1124/175 1055/1001
f 1013/870 1086/21 998/1044
f 1115/184 1036/1107 1039/624
f 1141/327 1056/1012 1104/990
f 1102/21 1000/1023 1021/1044
f 1112/199 998/869 1021/1098
f 962/1 960/314 959/2
f 1133/175 1039/1024 1060/1001
f 254/416 244/415 196/395
f 910/531 912/545 931/532
f 763/10 762/919 746/11
f 302/475 301/641 983/7
f 840/263 856/261 855/632
f 987/300 2/299 1/799
f 908/531 910/545 932/532
f 440/605 439/604 1046/699
f 1081/178 84/932 101/19
f 292/188 291/758 289/189
f 1099/1108 1109/985 1017/994
f 843/607 842/616 850/608
f 1063/700 443/1109 444/1110
f 1060/1049 1124/1111 1133/1101
f 423/621 424/552 415/551
f 73/1112 1139/878 1099/1108
f 1073/986 1058/1048 991/1087
f 1093/868 998/1044 1088/1045
f 1039/624 1082/1113 1075/1076
f 850/536 834/622 832/537
f 1126/1003 1091/991 1011/1012
f 861/261 860/632 844/262
f 362/185 363/1006 347/186
f 977/1114 1140/794 1098/877
f 214/384 228/697 227/398
f 264/399 265/447 241/400
f 384/377 388/831 387/378
f 242/421 254/400 253/414
f 273/389 271/970 269/390
f 212/386 227/398 226/387
f 238/422 250/470 249/348
f 223/380 222/1086 202/381
f 418/629 434/633 433/630
f 633/690 620/698 618/695
f 422/551 430/644 423/552
f 1114/623 1036/1024 1113/206
f 17/63 1050/328 32/85
f 27/61 986/817 26/62
f 226/387 1042/479 225/1040
f 90/146 1053/149 989/151
f 92/153 997/147 978/148
f 879/627 875/626 876/637
f 875/638 880/612 877/610
f 1067/9 302/482 992/484
f 1018/1115 1077/821 996/1011
f 172/283 162/277 1057/284
f 542/179 541/923 539/180
f 168/275 158/269 1032/276
f 116/197 99/1116 1088/198
f 996/979 1068/788 977/672
f 1140/794 1052/1117 1080/1050
f 832/13 831/1029 829/14
f 594/407 593/762 591/408
f 641/135 640/911 624/136
f 565/330 564/522 548/331
f 126/368 125/35 123/369
f 710/358 709/729 705/359
f 639/135 646/911 630/136
f 582/363 581/733 579/364
f 431/633 438/630 422/631
f 743/503 750/548 752/504
f 800/585 804/709 803/586
f 846/263 862/261 861/632
f 1077/787 75/132 74/134
f 855/261 862/632 846/262
f 472/371 448/946 447/372
f 422/629 438/633 437/630
f 392/377 391/1118 387/593
f 410/16 409/961 407/17
f 113/563 97/338 98/340
f 508/542 507/547 515/543
f 360/185 361/1006 345/186
f 113/164 114/166 1115/206
f 1033/210 7/606 6/211
f 1136/1036 1065/1019 1105/1053
f 923/510 930/666 922/509
f 299/1119 1066/260 1006/1093
f 28/57 995/310 27/61
f 780/554 781/530 769/528
f 1065/1019 1138/992 1127/1095
f 1080/1050 1096/1120 1135/1002
f 1105/1053 1127/1095 1134/1065
f 1059/151 103/144 104/146
f 930/532 912/531 914/545
f 1102/1100 101/1121 117/1122
f 688/249 692/771 694/250
f 942/126 926/886 925/127
f 102/171 1078/1123 1103/980
f 668/774 667/1124 669/805
f 1114/623 1117/1021 1047/624
f 800/47 799/1125 795/583
f 191/634 172/1126 173/635
f 548/693 547/691 555/694
f 364/185 365/1006 349/186
f 142/1 141/3 139/2
f 300/558 299/1127 1006/559
f 936/126 919/127 935/128
f 1030/212 5/1128 1022/1043
f 972/248 969/599 971/247
f 718/29 715/1129 717/1130
f 760/10 743/11 744/12
f 374/741 368/571 370/523
f 910/351 907/352 909/353
f 952/795 949/240 951/1092
f 822/822 816/851 818/588
f 995/310 10/1131 986/817
f 968/518 965/354 967/701
f 590/885 587/921 588/779
f 976/800 16/920 1050/328
f 404/16 401/17 402/18
f 762/10 745/11 746/12
f 865/225 866/226 863/227
f 338/216 337/944 321/217
f 754/495 733/496 753/505
f 235/426 247/435 246/427
f 249/422 250/423 210/388
f 191/676 194/1132 186/634
f 504/547 512/543 513/544
f 840/262 841/263 857/261
f 653/721 652/768 650/808
f 324/494 323/492 331/507
f 558/539 557/740 532/540
f 319/494 326/492 328/507
f 555/740 536/540 534/541
f 781/554 737/515 736/516
f 233/424 234/108 246/110
f 252/420 253/421 216/385
f 553/539 552/740 542/540
f 970/600 967/701 969/599
f 334/511 327/669 303/512
f 490/222 489/889 487/223
f 696/485 695/1133 699/815
f 941/126 925/886 924/127
f 986/817 10/1131 9/818
f 1094/819 76/1134 75/820
f 818/411 816/410 812/566
f 710/359 708/802 707/823
f 117/825 101/1135 102/826
f 551/539 558/740 530/540
f 330/669 309/513 329/493
f 348/500 354/674 355/499
f 346/535 347/500 355/674
f 344/535 345/500 357/674
f 518/668 517/639 492/670
f 908/545 933/532 934/533
f 358/498 312/546 311/501
f 357/498 313/546 312/501
f 755/497 756/495 730/506
f 355/502 354/498 316/546
f 18/67 987/300 976/800
f 511/668 518/639 490/670
f 352/502 351/498 311/546
f 786/200 787/939 771/201
f 189/282 194/283 173/828
f 386/830 384/855 380/572
f 124/370 123/369 153/431
f 688/249 687/1136 691/832
f 810/585 808/710 804/575
f 538/179 537/923 535/180
f 1027/727 197/726 195/833
f 810/575 806/710 805/834
f 808/585 807/1137 803/836
f 802/837 801/1138 805/838
f 394/652 390/596 389/839
f 392/705 396/594 395/841
f 394/652 393/1139 397/843
f 396/741 368/705 367/844
f 398/704 397/1140 369/846
f 376/830 380/875 379/847
f 816/411 815/1141 811/849
f 818/566 817/1142 821/850
f 384/830 383/1143 379/852
f 378/853 377/1144 381/854
f 794/598 822/851 821/856
f 816/588 820/822 819/858
f 372/741 371/1145 367/860
f 266/71 256/70 232/750
f 390/831 388/572 384/596
f 598/680 597/679 595/861
f 646/135 645/911 629/136
f 446/659 445/658 984/863
f 761/10 760/919 744/11
f 982/491 217/490 215/865
f 678/866 677/346 673/345
f 743/548 751/504 758/505
f 854/538 853/536 828/622
f 320/492 334/507 333/493
f 456/643 449/580 454/463
f 418/553 417/551 425/644
f 842/607 841/616 849/608
f 844/607 843/616 851/608
f 849/536 836/622 834/537
f 770/528 771/534 779/529
f 1093/868 1101/1046 1019/869
f 420/553 419/551 427/644
f 328/669 310/512 303/513
f 465/643 467/580 470/581
f 473/617 471/462 456/463
f 436/633 435/630 419/631
f 433/633 432/630 416/631
f 473/649 475/874 476/650
f 680/871 682/1146 681/737
f 418/631 419/629 435/633
f 416/629 432/633 431/630
f 858/261 857/632 841/262
f 843/262 844/263 860/261
f 834/13 833/1029 831/14
f 935/126 919/886 926/127
f 187/265 192/267 165/872
f 425/618 424/621 414/619
f 878/611 880/612 875/626
f 460/461 458/617 457/462
f 873/626 874/637 876/627
f 459/643 464/581 462/463
f 20/79 1009/469 994/298
f 466/461 463/617 462/462
f 462/643 464/580 467/581
f 469/617 468/462 471/463
f 845/616 853/608 854/609
f 549/691 557/694 558/692
f 428/621 406/619 404/620
f 847/538 854/536 826/622
f 883/612 880/610 878/638
f 479/874 478/650 455/651
f 474/649 477/874 475/650
f 474/651 455/649 478/874
f 896/647 876/645 874/648
f 458/651 460/649 480/874
f 482/874 481/650 463/651
f 60/93 62/92 31/83
f 463/649 481/874 480/650
f 958/675 956/231 955/677
f 467/371 484/946 483/372
f 938/126 922/886 921/127
f 886/225 888/907 864/226
f 521/219 520/973 504/220
f 888/225 865/907 863/226
f 492/222 491/889 489/223
f 382/875 380/853 376/855
f 248/419 249/422 208/374
f 826/13 825/1029 823/14
f 265/447 266/71 242/414
f 250/423 251/428 212/386
f 340/216 339/944 323/217
f 471/579 468/643 470/580
f 509/547 517/543 518/544
f 515/639 496/670 494/667
f 511/639 488/670 512/544
f 748/503 747/548 755/504
f 513/668 512/639 502/670
f 744/548 758/504 757/505
f 331/511 332/669 306/512
f 506/542 505/547 513/543
f 1083/876 977/1114 1098/877
f 774/534 776/529 777/530
f 516/639 494/670 492/667
f 767/534 775/529 776/530
f 329/669 309/512 310/513
f 1029/663 213/662 211/879
f 1063/880 444/1147 446/881
f 452/371 450/946 451/372
f 914/351 912/903 911/352
f 194/235 176/1148 177/883
f 789/200 790/939 774/201
f 576/804 575/803 589/884
f 365/185 366/1006 350/186
f 997/147 1007/550 1129/925
f 1053/149 1011/520 1091/926
f 1024/157 985/215 1071/927
f 990/159 988/304 1120/928
f 1094/981 1018/1025 988/982
f 227/398 1005/401 981/403
f 426/621 408/620 427/552
f 1139/878 1098/877 1064/984
f 1020/305 1035/304 87/988
f 1104/990 1056/1012 1125/991
f 990/159 94/156 1072/993
f 94/156 70/155 1072/993
f 1017/994 1109/985 1137/995
f 96/163 80/162 1108/998
f 999/215 1054/214 91/999
f 1060/1001 1039/1024 1075/173
f 757/495 729/506 756/505
f 1064/984 1080/1050 1135/1002
f 77/1007 1100/1010 1085/1008
f 1100/1010 1018/1115 996/1011
f 19/48 994/298 987/300
f 1020/160 999/158 107/154
f 1137/995 1126/1003 1011/1012
f 1087/257 1092/256 1012/1016
f 1131/1018 1141/327 1104/990
f 1049/1020 1119/325 1141/327
f 98/166 81/165 1117/1021
f 1025/1022 1128/176 1079/177
f 1037/625 1084/172 1082/173
f 1018/1025 1100/341 1120/343
f 78/1026 1085/671 1083/673
f 1135/1002 1096/1120 72/1032
f 222/1030 980/706 1041/708
f 1038/550 978/714 89/1033
f 850/536 832/537 851/609
f 119/1035 1076/1055 1136/1036
f 1103/980 1078/1123 1008/1017
f 1073/986 991/1087 1055/1001
f 1103/980 1025/1022 1012/1023
f 296/1038 1062/7 1067/9
f 1061/560 1067/9 992/484
f 870/611 865/610 872/626
f 22/74 1030/212 1022/1043
f 221/393 1041/708 1027/727
f 30/53 1031/6 1023/44
f 1021/1044 1000/1023 1116/177
f 99/169 86/168 1101/1046
f 1130/686 1095/685 1055/1048
f 1098/877 1140/794 1080/1050
f 1111/1037 1136/1036 1105/1053
f 25/76 975/252 1051/254
f 29/51 1023/44 1010/302
f 928/533 904/545 927/666
f 1130/987 1075/173 111/161
f 1109/985 1064/984 1126/1003
f 1076/1055 1049/1020 1131/1018
f 1000/1017 1012/1016 1079/1056
f 1116/1057 1079/1056 100/1058
f 76/1060 1094/981 1072/983
f 1134/1065 1127/1095 979/1066
f 1059/521 989/520 93/1068
f 1016/560 1006/559 301/1070
f 634/690 616/695 635/615
f 1118/1071 1134/1065 1122/1067
f 993/864 984/863 441/1073
f 1062/484 1045/483 299/1074
f 225/1040 1042/479 1028/464
f 1138/992 1125/991 122/1032
f 1075/1076 1082/1113 95/1077
f 1048/1054 1105/1053 1134/1065
f 229/383 1043/661 1029/663
f 24/77 1051/254 1033/210
f 356/498 313/501 357/499
f 31/83 1034/4 1031/6
f 440/1084 1063/880 993/882
f 220/1039 1003/489 982/491
f 223/380 1004/466 980/488
f 991/1087 1058/1048 1132/934
f 1037/625 1047/624 1106/933
f 1006/1093 1066/260 983/476
f 224/375 1028/464 1004/466
f 551/740 528/540 552/692
f 1127/1095 1138/992 1069/1075
f 1112/1045 1116/177 115/167
f 32/85 1050/328 1034/4
f 992/476 983/7 297/1038
f 219/394 1027/727 1003/489
f 1025/1022 1008/1017 1090/935
f 1021/1098 998/869 1086/1099
f 23/80 1033/210 1030/212
f 333/669 305/512 332/493
f 1133/1101 1124/1111 97/1102
f 1074/996 1137/995 1107/326
f 1024/157 88/143 1121/1105
f 88/143 65/142 1121/1105
f 21/54 1022/467 1009/469
f 1066/260 1044/259 297/475
f 1013/870 1019/869 1097/936
f 991/1087 1070/174 1124/175
f 1013/870 1081/178 1086/21
f 1115/184 1113/183 1036/1107
f 1141/327 1110/326 1056/1012
f 1102/21 1087/20 1000/1023
f 1112/199 1088/198 998/869
f 1133/175 1115/206 1039/1024
f 1099/1108 1139/878 1109/985
f 1063/700 1046/699 443/1109
f 1060/1049 1055/1048 1124/1111
f 423/621 400/619 424/552
f 73/1112 1083/876 1139/878
f 1073/986 1108/998 1058/1048
f 1093/868 1013/870 998/1044
f 1039/624 1036/1107 1082/1113
f 1126/1003 1135/1002 1091/991
f 977/1114 1068/792 1140/794
f 1114/623 1037/625 1036/1024
f 17/63 976/800 1050/328
f 27/61 995/310 986/817
f 226/387 981/403 1042/479
f 1067/9 1016/8 302/482
f 1018/1115 1094/819 1077/821
f 996/979 1077/787 1068/788
f 1140/794 1123/793 1052/1117
f 1136/1036 1131/1018 1065/1019
f 299/1119 1045/258 1066/260
f 28/57 1010/302 995/310
f 780/554 737/516 781/530
f 1065/1019 1104/990 1138/992
f 1080/1050 1052/1117 1096/1120
f 1105/1053 1065/1019 1127/1095
f 1059/151 1038/148 103/144
f 1102/1100 1086/1099 101/1121
f 102/171 83/170 1078/1123
f 936/126 920/886 919/127
f 1030/212 6/211 5/1128
f 972/248 970/600 969/599
f 718/29 716/140 715/1129
f 760/10 759/919 743/11
f 374/741 372/569 368/571
f 910/351 908/903 907/352
f 952/795 950/239 949/240
f 822/822 820/566 816/851
f 995/310 11/309 10/1131
f 968/518 966/306 965/354
f 590/885 589/884 587/921
f 976/800 1/799 16/920
f 404/16 403/961 401/17
f 762/10 761/919 745/11
f 865/225 868/907 866/226
f 970/600 968/518 967/701
