o Body_Cylinder
v -0.1875 4.1875 -0.4672
v -0.1875 4.3125 -0.4672
v 0.1168 4.1875 -0.3922
v 0.1168 4.3125 -0.3922
v 0.3513 4.1875 -0.1844
v 0.3513 4.3125 -0.1844
v 0.4625 4.1875 0.1086
v 0.4625 4.3125 0.1086
v 0.4247 4.1875 0.4197
v 0.4247 4.3125 0.4197
v 0.2467 4.1875 0.6776
v 0.2467 4.3125 0.6776
v -0.0308 4.1875 0.8232
v -0.0308 4.3125 0.8232
v -0.3442 4.1875 0.8232
v -0.3442 4.3125 0.8232
v -0.6217 4.1875 0.6776
v -0.6217 4.3125 0.6776
v -0.7997 4.1875 0.4197
v -0.7997 4.3125 0.4197
v -0.8375 4.1875 0.1086
v -0.8375 4.3125 0.1086
v -0.7263 4.1875 -0.1844
v -0.7263 4.3125 -0.1844
v -0.4918 4.1875 -0.3922
v -0.4918 4.3125 -0.3922
v -0.1875 4.1875 -0.596
v 0.1766 4.1875 -0.5062
v 0.1766 4.3125 -0.5062
v -0.1875 4.3125 -0.596
v 0.4573 4.1875 -0.2576
v 0.4573 4.3125 -0.2576
v 0.5903 4.1875 0.0931
v 0.5903 4.3125 0.0931
v 0.5451 4.1875 0.4653
v 0.5451 4.3125 0.4653
v 0.332 4.1875 0.7739
v 0.332 4.3125 0.7739
v 0 4.1875 0.9482
v 0 4.3125 0.9482
v -0.375 4.1875 0.9482
v -0.375 4.3125 0.9482
v -0.707 4.1875 0.7739
v -0.707 4.3125 0.7739
v -0.9201 4.1875 0.4653
v -0.9201 4.3125 0.4653
v -0.9653 4.1875 0.0931
v -0.9653 4.3125 0.0931
v -0.8323 4.1875 -0.2576
v -0.8323 4.3125 -0.2576
v -0.5516 4.1875 -0.5062
v -0.5516 4.3125 -0.5062
v -0.1875 3.1875 -0.4672
v -0.1875 3.3125 -0.4672
v 0.1168 3.1875 -0.3922
v 0.1168 3.3125 -0.3922
v 0.3513 3.1875 -0.1844
v 0.3513 3.3125 -0.1844
v 0.4625 3.1875 0.1086
v 0.4625 3.3125 0.1086
v 0.4247 3.1875 0.4197
v 0.4247 3.3125 0.4197
v 0.2467 3.1875 0.6776
v 0.2467 3.3125 0.6776
v -0.0308 3.1875 0.8232
v -0.0308 3.3125 0.8232
v -0.3442 3.1875 0.8232
v -0.3442 3.3125 0.8232
v -0.6217 3.1875 0.6776
v -0.6217 3.3125 0.6776
v -0.7997 3.1875 0.4197
v -0.7997 3.3125 0.4197
v -0.8375 3.1875 0.1086
v -0.8375 3.3125 0.1086
v -0.7263 3.1875 -0.1844
v -0.7263 3.3125 -0.1844
v -0.4918 3.1875 -0.3922
v -0.4918 3.3125 -0.3922
v -0.1875 3.1875 -0.596
v 0.1766 3.1875 -0.5062
v 0.1766 3.3125 -0.5062
v -0.1875 3.3125 -0.596
v 0.4573 3.1875 -0.2576
v 0.4573 3.3125 -0.2576
v 0.5903 3.1875 0.0931
v 0.5903 3.3125 0.0931
v 0.5451 3.1875 0.4653
v 0.5451 3.3125 0.4653
v 0.332 3.1875 0.7739
v 0.332 3.3125 0.7739
v 0 3.1875 0.9482
v 0 3.3125 0.9482
v -0.375 3.1875 0.9482
v -0.375 3.3125 0.9482
v -0.707 3.1875 0.7739
v -0.707 3.3125 0.7739
v -0.9201 3.1875 0.4653
v -0.9201 3.3125 0.4653
v -0.9653 3.1875 0.0931
v -0.9653 3.3125 0.0931
v -0.8323 3.1875 -0.2576
v -0.8323 3.3125 -0.2576
v -0.5516 3.1875 -0.5062
v -0.5516 3.3125 -0.5062
v -0.1875 2.1875 -0.4672
v -0.1875 2.3125 -0.4672
v 0.1168 2.1875 -0.3922
v 0.1168 2.3125 -0.3922
v 0.3513 2.1875 -0.1844
v 0.3513 2.3125 -0.1844
v 0.4625 2.1875 0.1086
v 0.4625 2.3125 0.1086
v 0.4247 2.1875 0.4197
v 0.4247 2.3125 0.4197
v 0.2467 2.1875 0.6776
v 0.2467 2.3125 0.6776
v -0.0308 2.1875 0.8232
v -0.0308 2.3125 0.8232
v -0.3442 2.1875 0.8232
v -0.3442 2.3125 0.8232
v -0.6217 2.1875 0.6776
v -0.6217 2.3125 0.6776
v -0.7997 2.1875 0.4197
v -0.7997 2.3125 0.4197
v -0.8375 2.1875 0.1086
v -0.8375 2.3125 0.1086
v -0.7263 2.1875 -0.1844
v -0.7263 2.3125 -0.1844
v -0.4918 2.1875 -0.3922
v -0.4918 2.3125 -0.3922
v -0.1875 2.1875 -0.596
v 0.1766 2.1875 -0.5062
v 0.1766 2.3125 -0.5062
v -0.1875 2.3125 -0.596
v 0.4573 2.1875 -0.2576
v 0.4573 2.3125 -0.2576
v 0.5903 2.1875 0.0931
v 0.5903 2.3125 0.0931
v 0.5451 2.1875 0.4653
v 0.5451 2.3125 0.4653
v 0.332 2.1875 0.7739
v 0.332 2.3125 0.7739
v 0 2.1875 0.9482
v 0 2.3125 0.9482
v -0.375 2.1875 0.9482
v -0.375 2.3125 0.9482
v -0.707 2.1875 0.7739
v -0.707 2.3125 0.7739
v -0.9201 2.1875 0.4653
v -0.9201 2.3125 0.4653
v -0.9653 2.1875 0.0931
v -0.9653 2.3125 0.0931
v -0.8323 2.1875 -0.2576
v -0.8323 2.3125 -0.2576
v -0.5516 2.1875 -0.5062
v -0.5516 2.3125 -0.5062
v -0.1875 1.1875 -0.4672
v -0.1875 1.3125 -0.4672
v 0.1168 1.1875 -0.3922
v 0.1168 1.3125 -0.3922
v 0.3513 1.1875 -0.1844
v 0.3513 1.3125 -0.1844
v 0.4625 1.1875 0.1086
v 0.4625 1.3125 0.1086
v 0.4247 1.1875 0.4197
v 0.4247 1.3125 0.4197
v 0.2467 1.1875 0.6776
v 0.2467 1.3125 0.6776
v -0.0308 1.1875 0.8232
v -0.0308 1.3125 0.8232
v -0.3442 1.1875 0.8232
v -0.3442 1.3125 0.8232
v -0.6217 1.1875 0.6776
v -0.6217 1.3125 0.6776
v -0.7997 1.1875 0.4197
v -0.7997 1.3125 0.4197
v -0.8375 1.1875 0.1086
v -0.8375 1.3125 0.1086
v -0.7263 1.1875 -0.1844
v -0.7263 1.3125 -0.1844
v -0.4918 1.1875 -0.3922
v -0.4918 1.3125 -0.3922
v -0.1875 1.1875 -0.596
v 0.1766 1.1875 -0.5062
v 0.1766 1.3125 -0.5062
v -0.1875 1.3125 -0.596
v 0.4573 1.1875 -0.2576
v 0.4573 1.3125 -0.2576
v 0.5903 1.1875 0.0931
v 0.5903 1.3125 0.0931
v 0.5451 1.1875 0.4653
v 0.5451 1.3125 0.4653
v 0.332 1.1875 0.7739
v 0.332 1.3125 0.7739
v 0 1.1875 0.9482
v 0 1.3125 0.9482
v -0.375 1.1875 0.9482
v -0.375 1.3125 0.9482
v -0.707 1.1875 0.7739
v -0.707 1.3125 0.7739
v -0.9201 1.1875 0.4653
v -0.9201 1.3125 0.4653
v -0.9653 1.1875 0.0931
v -0.9653 1.3125 0.0931
v -0.8323 1.1875 -0.2576
v -0.8323 1.3125 -0.2576
v -0.5516 1.1875 -0.5062
v -0.5516 1.3125 -0.5062
v -0.7548 1 0.7548
v -0.7548 3.5 0.7548
v -0.7308 1 0.8125
v -0.7308 3.5 0.8125
v -0.7548 1 0.8702
v -0.7548 3.5 0.8702
v -0.8125 1 0.8942
v -0.8125 3.5 0.8942
v -0.8702 1 0.8702
v -0.8702 3.5 0.8702
v -0.8942 1 0.8125
v -0.8942 3.5 0.8125
v -0.8702 1 0.7548
v -0.8702 3.5 0.7548
v -0.8125 1 0.7308
v -0.8125 3.5 0.7308
v -0.7259 3.5169 0.8075
v -0.7378 3.5577 0.8533
v -0.7836 3.5986 0.8653
v -0.8364 3.6155 0.8364
v -0.8653 3.5986 0.7836
v -0.8533 3.5577 0.7378
v -0.8075 3.5169 0.7259
v -0.7139 3.5239 0.7956
v -0.697 3.5817 0.8125
v -0.7139 3.6394 0.7956
v -0.7548 3.6633 0.7548
v -0.7956 3.6394 0.7139
v -0.8125 3.5817 0.697
v -0.7956 3.5239 0.7139
v -0.5372 3.5239 0.6188
v -0.578 3.5 0.578
v -0.5202 3.5817 0.6357
v -0.5372 3.6394 0.6188
v -0.578 3.6633 0.578
v -0.6188 3.6394 0.5372
v -0.6357 3.5817 0.5202
v -0.6188 3.5239 0.5372
v -0.25 4.625 0.25
v -0.25 4.75 0.25
v -0.25 4.625 0.125
v -0.25 4.75 0.125
v -0.125 4.625 0.25
v -0.125 4.75 0.25
v -0.125 4.625 0.125
v -0.125 4.75 0.125
v 0.5625 2 0.875
v 0.5625 2 0.8125
v 0.9375 2 0.875
v 0.9375 2 0.8125
v 0.625 2.375 0.875
v 0.5625 2.3125 0.875
v 0.5625 2.3125 0.8125
v 0.625 2.375 0.8125
v 0.9375 2.3125 0.875
v 0.875 2.375 0.875
v 0.875 2.375 0.8125
v 0.9375 2.3125 0.8125
v 0.75 2.3508 -0
v 0.8655 2.303 -0
v 0.9133 2.1875 -0
v 0.8655 2.072 -0
v 0.75 2.0242 -0
v 0.6345 2.072 -0
v 0.5867 2.1875 -0
v 0.6345 2.303 -0
v 0.75 2.2832 1
v 0.75 2.3508 0.9375
v 0.8176 2.2551 1
v 0.8655 2.303 0.9375
v 0.8457 2.1875 1
v 0.9133 2.1875 0.9375
v 0.8176 2.1199 1
v 0.8655 2.072 0.9375
v 0.75 2.0918 1
v 0.75 2.0242 0.9375
v 0.6824 2.1199 1
v 0.6345 2.072 0.9375
v 0.6543 2.1875 1
v 0.5867 2.1875 0.9375
v 0.6824 2.2551 1
v 0.6345 2.303 0.9375
v -1 0 1
v -1 1 1
v -1 -0 -1
v -1 1 -1
v 1 0 1
v 1 1 1
v 1 -0 -1
v 1 1 -1
v -1 0 0
v -1 1 -0
v 1 0 0
v 1 1 -0
v 0 -0 -1
v 0 1 -1
v 0 0 1
v 0 1 1
v 0 1 -0
v 0 0 0
v -1 2.125 -0.125
v -1 2.125 -0.875
v 0 2 -1
v 1 2 -1
v 1 2 -0
v 1 2 1
v 0 2 -0
v 0 2 1
v -1 3.875 -0.125
v -1 3.875 -0.875
v 0 4 -1
v 0 4 -0
v 0.625 4 -1
v 1 3.625 -1
v 1 3.625 -0
v 0.625 4 -0
v -1 0.25 -0.25
v -1 0.75 -0.25
v -1 0.75 -0.75
v -1 0.25 -0.75
v 0.25 0.25 -1
v 0.25 0.75 -1
v 0.75 0.75 -1
v 0.75 0.25 -1
v 1 0.25 0.25
v 1 0.75 0.25
v 1 0.75 0.75
v 1 0.25 0.75
v -0.25 0.25 1
v -0.25 0.75 1
v -0.75 0.75 1
v -0.75 0.25 1
v 1 0.25 -0.75
v 1 0.75 -0.75
v 1 0.75 -0.25
v 1 0.25 -0.25
v -1 0.25 0.75
v -1 0.75 0.75
v -1 0.75 0.25
v -1 0.25 0.25
v 0.75 0.25 1
v 0.75 0.75 1
v 0.25 0.75 1
v 0.25 0.25 1
v -0.75 0.25 -1
v -0.75 0.75 -1
v -0.25 0.75 -1
v -0.25 0.25 -1
v -0.9375 0.3125 -0.3125
v -0.9375 0.6875 -0.3125
v -0.9375 0.6875 -0.6875
v -0.9375 0.3125 -0.6875
v 0.3125 0.3125 -0.9375
v 0.3125 0.6875 -0.9375
v 0.6875 0.6875 -0.9375
v 0.6875 0.3125 -0.9375
v 0.9375 0.3125 0.3125
v 0.9375 0.6875 0.3125
v 0.9375 0.6875 0.6875
v 0.9375 0.3125 0.6875
v -0.3125 0.3125 0.9375
v -0.3125 0.6875 0.9375
v -0.6875 0.6875 0.9375
v -0.6875 0.3125 0.9375
v 0.9375 0.3125 -0.6875
v 0.9375 0.6875 -0.6875
v 0.9375 0.6875 -0.3125
v 0.9375 0.3125 -0.3125
v -0.9375 0.3125 0.6875
v -0.9375 0.6875 0.6875
v -0.9375 0.6875 0.3125
v -0.9375 0.3125 0.3125
v 0.6875 0.3125 0.9375
v 0.6875 0.6875 0.9375
v 0.3125 0.6875 0.9375
v 0.3125 0.3125 0.9375
v -0.6875 0.3125 -0.9375
v -0.6875 0.6875 -0.9375
v -0.3125 0.6875 -0.9375
v -0.3125 0.3125 -0.9375
v -0.9375 0.75 -0.25
v -0.9375 0.25 -0.25
v -0.9375 0.75 -0.75
v -0.9375 0.25 -0.75
v 0.25 0.75 -0.9375
v 0.25 0.25 -0.9375
v 0.75 0.75 -0.9375
v 0.75 0.25 -0.9375
v 0.9375 0.75 0.25
v 0.9375 0.25 0.25
v 0.9375 0.75 0.75
v 0.9375 0.25 0.75
v -0.25 0.75 0.9375
v -0.25 0.25 0.9375
v -0.75 0.75 0.9375
v -0.75 0.25 0.9375
v 0.9375 0.75 -0.75
v 0.9375 0.25 -0.75
v 0.9375 0.75 -0.25
v 0.9375 0.25 -0.25
v -0.9375 0.75 0.75
v -0.9375 0.25 0.75
v -0.9375 0.75 0.25
v -0.9375 0.25 0.25
v 0.75 0.75 0.9375
v 0.75 0.25 0.9375
v 0.25 0.75 0.9375
v 0.25 0.25 0.9375
v -0.75 0.75 -0.9375
v -0.75 0.25 -0.9375
v -0.25 0.75 -0.9375
v -0.25 0.25 -0.9375
v -1 0.3125 -0.3125
v -1 0.6875 -0.3125
v -1 0.6875 -0.6875
v -1 0.3125 -0.6875
v 0.3125 0.3125 -1
v 0.3125 0.6875 -1
v 0.6875 0.6875 -1
v 0.6875 0.3125 -1
v 1 0.3125 0.3125
v 1 0.6875 0.3125
v 1 0.6875 0.6875
v 1 0.3125 0.6875
v -0.3125 0.3125 1
v -0.3125 0.6875 1
v -0.6875 0.6875 1
v -0.6875 0.3125 1
v 1 0.3125 -0.6875
v 1 0.6875 -0.6875
v 1 0.6875 -0.3125
v 1 0.3125 -0.3125
v -1 0.3125 0.6875
v -1 0.6875 0.6875
v -1 0.6875 0.3125
v -1 0.3125 0.3125
v 0.6875 0.3125 1
v 0.6875 0.6875 1
v 0.3125 0.6875 1
v 0.3125 0.3125 1
v -0.6875 0.3125 -1
v -0.6875 0.6875 -1
v -0.3125 0.6875 -1
v -0.3125 0.3125 -1
v -1 2 -0
v -1 2 -1
v -1 4 -0
v -1 4 -1
v -0.875 2.125 -0.125
v -0.875 2.125 -0.875
v -0.875 3.875 -0.125
v -0.875 3.875 -0.875
v -0.1875 1 -0.5369
v -0.1875 4.5 -0.5369
v 0.1747 1 -0.4399
v 0.1747 4.5 -0.4399
v 0.4399 1 -0.1747
v 0.4399 4.5 -0.1747
v 0.5369 1 0.1875
v 0.5369 4.5 0.1875
v 0.4399 1 0.5497
v 0.4399 4.5 0.5497
v 0.1747 1 0.8149
v 0.1747 4.5 0.8149
v -0.1875 1 0.9119
v -0.1875 4.5 0.9119
v -0.5497 1 0.8149
v -0.5497 4.5 0.8149
v -0.8149 1 0.5497
v -0.8149 4.5 0.5497
v -0.9119 1 0.1875
v -0.9119 4.5 0.1875
v -0.8149 1 -0.1747
v -0.8149 4.5 -0.1747
v -0.5497 1 -0.4399
v -0.5497 4.5 -0.4399
v -0.0107 4.75 -0.1187
v -0.1875 4.75 -0.1661
v 0.1187 4.75 0.0107
v 0.1661 4.75 0.1875
v 0.1187 4.75 0.3643
v -0.0107 4.75 0.4937
v -0.1875 4.75 0.5411
v -0.3643 4.75 0.4937
v -0.4937 4.75 0.3643
v -0.5411 4.75 0.1875
v -0.4937 4.75 0.0107
v -0.3643 4.75 -0.1187
v 0.054 4.75 -0.2308
v -0.1875 4.75 -0.2955
v 0.2308 4.75 -0.054
v 0.2955 4.75 0.1875
v 0.2308 4.75 0.429
v 0.054 4.75 0.6058
v -0.1875 4.75 0.6705
v -0.429 4.75 0.6058
v -0.6058 4.75 0.429
v -0.6705 4.75 0.1875
v -0.6058 4.75 -0.054
v -0.429 4.75 -0.2308
v -0.0107 4.625 -0.1187
v -0.1875 4.625 -0.1661
v 0.1187 4.625 0.0107
v 0.1661 4.625 0.1875
v 0.1187 4.625 0.3643
v -0.0107 4.625 0.4937
v -0.1875 4.625 0.5411
v -0.3643 4.625 0.4937
v -0.4937 4.625 0.3643
v -0.5411 4.625 0.1875
v -0.4937 4.625 0.0107
v -0.3643 4.625 -0.1187
v -1 3 -0
v 0 3 -1
v 1 2.8125 -0
v -1 3 -0.125
v -1 3.0625 -0.0625
v -1 3 -0.875
v -1 2.9375 -0.9375
v -0.875 3 -0.875
v 1 2.8125 -1
v 0 3 -0
v -1 3 -1
v -0.875 3 -0.125
v -0.7548 2.25 0.7548
v -0.7308 2.25 0.8125
v -0.7548 2.25 0.8702
v -0.8125 2.25 0.8942
v -0.8702 2.25 0.8702
v -0.8942 2.25 0.8125
v -0.8702 2.25 0.7548
v -0.8125 2.25 0.7308
v -0.1875 2.75 -0.5369
v 0.1747 2.75 -0.4399
v 0.4399 2.75 -0.1747
v 0.5369 2.75 0.1875
v 0.4399 2.75 0.5497
v 0.1747 2.75 0.8149
v -0.1875 2.75 0.9119
v -0.5497 2.75 0.8149
v -0.8149 2.75 0.5497
v -0.9119 2.75 0.1875
v -0.8149 2.75 -0.1747
v -0.5497 2.75 -0.4399
v 0.4399 1.875 -0.1747
v 0.5369 1.875 0.1875
v 0.1747 1.875 0.8149
v 0.1747 1.875 -0.4399
v -0.5497 1.875 -0.4399
v 0.4399 1.875 0.5497
v -0.9119 1.875 0.1875
v -0.1875 1.875 0.9119
v -0.8149 1.875 0.5497
v -0.8149 1.875 -0.1747
v -0.5497 1.875 0.8149
v -0.1875 1.875 -0.5369
v -0.1875 3.625 -0.5369
v 0.1747 3.625 -0.4399
v 0.4399 3.625 -0.1747
v 0.5369 3.625 0.1875
v 0.4399 3.625 0.5497
v 0.1747 3.625 0.8149
v -0.1875 3.625 0.9119
v -0.5497 3.625 0.8149
v -0.8149 3.625 0.5497
v -0.9119 3.625 0.1875
v -0.8149 3.625 -0.1747
v -0.5497 3.625 -0.4399
vt 0.3311 0.1037
vt 0.3246 0.0366
vt 0.3311 0.0427
vt 0.2557 0.5488
vt 0.2623 0.4817
vt 0.2623 0.5427
vt 0.318 0.1098
vt 0.3115 0.1768
vt 0.3115 0.1159
vt 0.3082 0.1768
vt 0.3016 0.1098
vt 0.3082 0.1159
vt 0.3311 0.25
vt 0.3246 0.1829
vt 0.3311 0.189
vt 0.2426 0.25
vt 0.2492 0.1829
vt 0.2492 0.2561
vt 0.2951 0.2561
vt 0.2885 0.3232
vt 0.2885 0.2622
vt 0.3082 0.3232
vt 0.3016 0.2561
vt 0.3082 0.2622
vt 0.318 0.3293
vt 0.3115 0.3963
vt 0.3115 0.3354
vt 0.2951 0.3293
vt 0.2885 0.3963
vt 0.2885 0.3354
vt 0.3115 0.4695
vt 0.318 0.4024
vt 0.318 0.4756
vt 0.2852 0.25
vt 0.2787 0.1829
vt 0.2852 0.189
vt 0.2852 0.3232
vt 0.2787 0.2561
vt 0.2852 0.2622
vt 0.2721 0.4756
vt 0.2656 0.5427
vt 0.2656 0.4817
vt 0.3115 0.5549
vt 0.318 0.622
vt 0.3115 0.6159
vt 0.3016 0.622
vt 0.3082 0.5549
vt 0.3082 0.6159
vt 0.2885 0.628
vt 0.2951 0.6951
vt 0.2885 0.689
vt 0.3016 0.6951
vt 0.3082 0.628
vt 0.3082 0.689
vt 0.3311 0.7622
vt 0.3246 0.6951
vt 0.3311 0.7012
vt 0.2885 0.7622
vt 0.2951 0.7683
vt 0.3115 0.8354
vt 0.318 0.7683
vt 0.318 0.8415
vt 0.2623 0.8354
vt 0.2557 0.7683
vt 0.2623 0.7744
vt 0.3082 0.9085
vt 0.3016 0.8415
vt 0.3082 0.8476
vt 0.2623 0.9085
vt 0.2557 0.8415
vt 0.2623 0.8476
vt 0.2885 0.9817
vt 0.2951 0.9146
vt 0.2951 0.9878
vt 0.2623 0.9817
vt 0.2557 0.9146
vt 0.2623 0.9207
vt 0.318 0.0366
vt 0.3115 0.1037
vt 0.3115 0.0427
vt 0.2852 0.1037
vt 0.2787 0.0366
vt 0.2852 0.0427
vt 0.2492 0.0366
vt 0.2426 0.1037
vt 0.2426 0.0427
vt 0.2623 0.1768
vt 0.2557 0.1098
vt 0.2623 0.1159
vt 0.3082 0.25
vt 0.3016 0.1829
vt 0.3082 0.189
vt 0.3311 0.9817
vt 0.3246 0.9146
vt 0.3311 0.9207
vt 0.3311 0.3232
vt 0.3246 0.2561
vt 0.3311 0.2622
vt 0.2426 0.3232
vt 0.2426 0.2622
vt 0.3311 0.3963
vt 0.3246 0.3293
vt 0.3311 0.3354
vt 0.2656 0.628
vt 0.2721 0.6951
vt 0.2656 0.689
vt 0.3082 0.4695
vt 0.3016 0.4024
vt 0.3082 0.4085
vt 0.2656 0.4695
vt 0.2721 0.4024
vt 0.2787 0.5488
vt 0.2852 0.4817
vt 0.2852 0.5427
vt 0.3115 0.5427
vt 0.3115 0.4817
vt 0.2557 0.622
vt 0.2623 0.5549
vt 0.2623 0.6159
vt 0.2885 0.5549
vt 0.2951 0.622
vt 0.2885 0.6159
vt 0.3115 0.628
vt 0.318 0.6951
vt 0.3115 0.689
vt 0.2557 0.6951
vt 0.2623 0.628
vt 0.2623 0.689
vt 0.3115 0.7622
vt 0.2344 0.9634
vt 0.223 0.939
vt 0.2361 0.939
vt 0.2656 0.8354
vt 0.2721 0.7683
vt 0.2721 0.8415
vt 0.2426 0.8354
vt 0.2492 0.7683
vt 0.2492 0.8415
vt 0.2426 0.9085
vt 0.2492 0.9146
vt 0.2885 0.9085
vt 0.2951 0.8415
vt 0.2426 0.9817
vt 0.2492 0.9878
vt 0.2852 0.9817
vt 0.2787 0.9146
vt 0.2852 0.9207
vt 0.3082 0.1037
vt 0.3016 0.0366
vt 0.3082 0.0427
vt 0.2951 0.0366
vt 0.2885 0.1037
vt 0.2885 0.0427
vt 0.2951 0.1098
vt 0.2885 0.1768
vt 0.2885 0.1159
vt 0.2492 0.1098
vt 0.2426 0.1768
vt 0.2426 0.1159
vt 0.2885 0.25
vt 0.2951 0.1829
vt 0.3115 0.25
vt 0.318 0.1829
vt 0.318 0.2561
vt 0.2852 0.7622
vt 0.2787 0.6951
vt 0.2852 0.7012
vt 0.3115 0.3232
vt 0.3115 0.2622
vt 0.2623 0.3963
vt 0.2557 0.3293
vt 0.2623 0.3354
vt 0.2721 0.3293
vt 0.2656 0.3963
vt 0.2656 0.3354
vt 0.2852 0.4695
vt 0.2787 0.4024
vt 0.2852 0.4085
vt 0.2623 0.4695
vt 0.2557 0.4024
vt 0.2623 0.4085
vt 0.2951 0.4756
vt 0.2885 0.5427
vt 0.2885 0.4817
vt 0.2492 0.4756
vt 0.2426 0.5427
vt 0.2426 0.4817
vt 0.3311 0.4695
vt 0.3246 0.4024
vt 0.3311 0.4085
vt 0.2787 0.622
vt 0.2852 0.5549
vt 0.2852 0.6159
vt 0.2426 0.628
vt 0.2492 0.6951
vt 0.2426 0.689
vt 0.2852 0.628
vt 0.2852 0.689
vt 0.2656 0.7622
vt 0.2623 0.7622
vt 0.2623 0.7012
vt 0.3311 0.8354
vt 0.3246 0.7683
vt 0.3311 0.7744
vt 0.2852 0.8354
vt 0.2787 0.7683
vt 0.2852 0.7744
vt 0.3311 0.9085
vt 0.3246 0.8415
vt 0.3311 0.8476
vt 0.2656 0.9085
vt 0.2721 0.9146
vt 0.2656 0.9817
vt 0.2721 0.9878
vt 0.3115 0.9817
vt 0.318 0.9146
vt 0.318 0.9878
vt 0.2623 0.1037
vt 0.2557 0.0366
vt 0.2623 0.0427
vt 0.2721 0.0366
vt 0.2656 0.1037
vt 0.2656 0.0427
vt 0.2721 0.1098
vt 0.2656 0.1768
vt 0.2656 0.1159
vt 0.3311 0.1768
vt 0.3246 0.1098
vt 0.3311 0.1159
vt 0.2623 0.25
vt 0.2557 0.1829
vt 0.2623 0.189
vt 0.2656 0.25
vt 0.2721 0.1829
vt 0.2721 0.2561
vt 0.2623 0.3232
vt 0.2557 0.2561
vt 0.2623 0.2622
vt 0.2656 0.3232
vt 0.2656 0.2622
vt 0.2852 0.3963
vt 0.2787 0.3293
vt 0.2852 0.3354
vt 0.3082 0.3963
vt 0.3016 0.3293
vt 0.3082 0.3354
vt 0.2885 0.4695
vt 0.2951 0.4024
vt 0.2426 0.4695
vt 0.2492 0.4024
vt 0.3016 0.5488
vt 0.3082 0.4817
vt 0.3082 0.5427
vt 0.3246 0.5488
vt 0.3311 0.4817
vt 0.3311 0.5427
vt 0.3246 0.622
vt 0.3311 0.5549
vt 0.3311 0.6159
vt 0.2656 0.5549
vt 0.2721 0.622
vt 0.2656 0.6159
vt 0.3311 0.628
vt 0.3311 0.689
vt 0.2885 0.8354
vt 0.3082 0.7622
vt 0.3082 0.7012
vt 0.2426 0.7622
vt 0.3115 0.9085
vt 0.3082 0.8354
vt 0.3016 0.7683
vt 0.3082 0.7744
vt 0.2852 0.9085
vt 0.2787 0.8415
vt 0.2852 0.8476
vt 0.2426 0.5549
vt 0.2492 0.622
vt 0.2426 0.6159
vt 0.3082 0.9817
vt 0.3016 0.9146
vt 0.3082 0.9207
vt 0.2852 0.1768
vt 0.2787 0.1098
vt 0.2852 0.1159
vt 0.3344 0.9024
vt 0.3377 0.8994
vt 0.3377 0.9055
vt 0.3574 0.8994
vt 0.3607 0.9024
vt 0.3574 0.9055
vt 0.3574 0.9238
vt 0.3607 0.9268
vt 0.3574 0.9299
vt 0.3344 0.9268
vt 0.3377 0.9238
vt 0.3377 0.9299
vt 0.377 0.939
vt 0.3836 0.9634
vt 0.377 0.9634
vt 0.4557 0.7195
vt 0.4525 0.6463
vt 0.4557 0.6463
vt 0.4754 0.7195
vt 0.4557 0.7317
vt 0.4098 0.6341
vt 0.4131 0.6463
vt 0.4098 0.6463
vt 0.3672 0.2073
vt 0.3607 0.378
vt 0.3607 0.2073
vt 0.3934 0.6463
vt 0.4066 0.6585
vt 0.3934 0.6585
vt 0.3902 0.7195
vt 0.4098 0.6707
vt 0.4098 0.7195
vt 0.541 0.878
vt 0.5377 0.8049
vt 0.541 0.8049
vt 0.7829 0.1998
vt 0.7319 0.1035
vt 0.7829 0.1035
vt 0.3869 0.6341
vt 0.3902 0.5732
vt 0.3902 0.6341
vt 0.3574 0.939
vt 0.3607 0.9878
vt 0.3574 0.9878
vt 0.4066 0.2073
vt 0.4131 0.0366
vt 0.4131 0.2073
vt 0.1967 0.9878
vt 0.1869 0.9634
vt 0.1967 0.9634
vt 0.118 0.9878
vt 0.1082 0.9634
vt 0.118 0.9634
vt 0.7319 0.0071
vt 0.7829 0.0071
vt 0.4754 0.878
vt 0.4557 0.8902
vt 0.4557 0.878
vt 0.4984 0.878
vt 0.518 0.8049
vt 0.518 0.878
vt 0.8393 0.0122
vt 0.8918 0.2073
vt 0.8393 0.2073
vt 0.3705 0.939
vt 0.6787 0.9878
vt 0.6459 0.9878
vt 0.6262 0.9146
vt 0.9443 0.0122
vt 0.9967 0.2073
vt 0.9443 0.2073
vt 0.3016 0.4756
vt 0.9443 0.7195
vt 0.9246 0.7927
vt 0.8918 0.7927
vt 0.8262 0.439
vt 0.8295 0.5366
vt 0.8262 0.5366
vt 0.8918 0.0122
vt 0.5672 0.7927
vt 0.5705 0.8902
vt 0.5672 0.8902
vt 0.2492 0.3293
vt 0.0033 0.7073
vt 0.023 0.5366
vt 0.023 0.7073
vt 0.7311 0.4024
vt 0.7705 0.3537
vt 0.7836 0.4024
vt 0.7311 0.2073
vt 0.7443 0.3537
vt 0.7836 0.2073
vt 0.7443 0.2561
vt 0.5869 0.3537
vt 0.5607 0.2561
vt 0.5738 0.2073
vt 0.6262 0.4024
vt 0.6656 0.3537
vt 0.6787 0.4024
vt 0.6262 0.2073
vt 0.6393 0.3537
vt 0.6787 0.2073
vt 0.6393 0.2561
vt 0.482 0.3537
vt 0.4557 0.2561
vt 0.4689 0.2073
vt 0.5213 0.4024
vt 0.5607 0.3537
vt 0.5738 0.4024
vt 0.5213 0.2073
vt 0.5344 0.3537
vt 0.5344 0.2561
vt 0.7967 0.3537
vt 0.7705 0.2561
vt 0.4164 0.4024
vt 0.4557 0.3537
vt 0.4689 0.4024
vt 0.4164 0.2073
vt 0.4295 0.3537
vt 0.4295 0.2561
vt 0.6131 0.2561
vt 0.6131 0.3537
vt 0.3377 0.8902
vt 0.341 0.6463
vt 0.341 0.8902
vt 0.5869 0.2561
vt 0.8361 0.4024
vt 0.823 0.2561
vt 0.8361 0.2073
vt 0.823 0.3537
vt 0.0426 0.7073
vt 0.0623 0.5366
vt 0.0623 0.7073
vt 0.7967 0.2561
vt 0.5082 0.2561
vt 0.5082 0.3537
vt 0.2 0.7073
vt 0.2197 0.5366
vt 0.2197 0.7073
vt 0.482 0.2561
vt 0.718 0.2561
vt 0.718 0.3537
vt 0.1607 0.7073
vt 0.1803 0.5366
vt 0.1803 0.7073
vt 0.6918 0.2561
vt 0.4951 0.622
vt 0.5213 0.6098
vt 0.5213 0.622
vt 0.5738 0.7561
vt 0.6262 0.7561
vt 0.3475 0.6463
vt 0.3508 0.4024
vt 0.3508 0.6463
vt 0.2492 0.5488
vt 0.4951 0.7805
vt 0.5213 0.7683
vt 0.5213 0.7805
vt 0.4918 0.8902
vt 0.4885 0.7927
vt 0.4918 0.7927
vt 0.0623 0.3659
vt 0.082 0.1951
vt 0.082 0.3659
vt 0.5246 0.7927
vt 0.5279 0.8902
vt 0.5246 0.8902
vt 0.5213 0.9024
vt 0.4951 0.9146
vt 0.4951 0.9024
vt 0.3541 0.6463
vt 0.3574 0.4024
vt 0.3574 0.6463
vt 0.4787 0.9024
vt 0.4525 0.9146
vt 0.4525 0.9024
vt 0.8393 0.5976
vt 0.8918 0.5976
vt 0.3934 0.9756
vt 0.4 0.7805
vt 0.4 0.9756
vt 0.4787 0.7439
vt 0.4525 0.7561
vt 0.4525 0.7439
vt 0.5639 0.7439
vt 0.5377 0.7561
vt 0.5377 0.7439
vt 0.5344 0.8902
vt 0.5311 0.7927
vt 0.5344 0.7927
vt 0.4262 0.9756
vt 0.4328 0.7805
vt 0.4328 0.9756
vt 0.4295 0.5732
vt 0.4262 0.4756
vt 0.4295 0.4756
vt 0.4328 0.4634
vt 0.459 0.4512
vt 0.459 0.4634
vt 0.4393 0.7805
vt 0.4393 0.9756
vt 0.1016 0.3659
vt 0.1213 0.1951
vt 0.1213 0.3659
vt 0.459 0.5854
vt 0.4328 0.5976
vt 0.4328 0.5854
vt 0.4623 0.4756
vt 0.4656 0.5732
vt 0.4623 0.5732
vt 0.4131 0.9756
vt 0.4197 0.7805
vt 0.4197 0.9756
vt 0.4754 0.8049
vt 0.4787 0.878
vt 0.4984 0.8902
vt 0.2197 0.3659
vt 0.2393 0.1951
vt 0.2393 0.3659
vt 0.4525 0.8049
vt 0.4492 0.8902
vt 0.4492 0.7927
vt 0.4557 0.7927
vt 0.4787 0.7805
vt 0.4754 0.7927
vt 0.4787 0.8049
vt 0.482 0.8902
vt 0.4951 0.6463
vt 0.4918 0.7317
vt 0.4918 0.6341
vt 0.518 0.6341
vt 0.5213 0.6463
vt 0.5246 0.7317
vt 0.5213 0.7195
vt 0.518 0.7317
vt 0.4951 0.7439
vt 0.4984 0.7317
vt 0.5213 0.878
vt 0.518 0.8902
vt 0.4951 0.878
vt 0.4951 0.8049
vt 0.518 0.7927
vt 0.5639 0.878
vt 0.541 0.8902
vt 0.5639 0.9024
vt 0.5377 0.9024
vt 0.5377 0.878
vt 0.541 0.7927
vt 0.5639 0.7805
vt 0.5607 0.7927
vt 0.5639 0.7195
vt 0.5672 0.6341
vt 0.5672 0.7317
vt 0.5607 0.7317
vt 0.541 0.7317
vt 0.5377 0.7195
vt 0.5344 0.6341
vt 0.5377 0.6463
vt 0.5607 0.6341
vt 0.5377 0.622
vt 0.5639 0.622
vt 0.4328 0.4878
vt 0.4361 0.4756
vt 0.4557 0.4756
vt 0.459 0.4878
vt 0.459 0.561
vt 0.4361 0.5732
vt 0.823 0.5244
vt 0.8197 0.5366
vt 0.7967 0.5488
vt 0.8 0.5366
vt 0.7967 0.5244
vt 0.7934 0.439
vt 0.7967 0.4512
vt 0.8197 0.439
vt 0.7967 0.4268
vt 0.823 0.4268
vt 0.4525 0.7195
vt 0.4492 0.6341
vt 0.4557 0.6341
vt 0.4787 0.622
vt 0.4754 0.6341
vt 0.4787 0.7195
vt 0.482 0.6341
vt 0.482 0.7317
vt 0.141 0.1951
vt 0.141 0.3659
vt 0.4557 0.8049
vt 0.4852 0.7317
vt 0.1803 0.3659
vt 0.2 0.1951
vt 0.2 0.3659
vt 0.7836 0.5976
vt 0.1574 0.9878
vt 0.1475 0.9634
vt 0.1574 0.9634
vt 0.518 0.6463
vt 0.4984 0.7195
vt 0.4984 0.6463
vt 0.518 0.7195
vt 0.2787 0.4756
vt 0.4492 0.7317
vt 0.4459 0.6341
vt 0.5377 0.7805
vt 0.5639 0.7683
vt 0.2721 0.5488
vt 0.5607 0.878
vt 0.4361 0.4878
vt 0.4557 0.4878
vt 0.5607 0.8049
vt 0.9246 0.9878
vt 0.8918 0.9878
vt 0.4361 0.561
vt 0.541 0.7195
vt 0.5607 0.6463
vt 0.5607 0.7195
vt 0.4066 0.378
vt 0.541 0.6463
vt 0.3705 0.9878
vt 0.3705 0.9634
vt 0.4557 0.561
vt 0.8 0.5244
vt 0.8 0.4512
vt 0.4754 0.6463
vt 0.8197 0.5244
vt 0.8197 0.4512
vt 0.377 0.9146
vt 0.3639 0.939
vt 0.7377 0.622
vt 0.777 0.622
vt 0.777 0.9634
vt 0.7311 0.9878
vt 0.7377 0.9634
vt 0.7803 0.8049
vt 0.777 0.7927
vt 0.7344 0.7805
vt 0.7377 0.7927
vt 0.3902 0.6463
vt 0.3869 0.6463
vt 0.4066 0.0366
vt 0.3672 0.0122
vt 0.4066 0.0122
vt 0.177 0.9878
vt 0.1672 0.9634
vt 0.177 0.9634
vt 0.1262 0.9634
vt 0.1377 0.939
vt 0.1361 0.9634
vt 0.1459 0.9634
vt 0.1574 0.939
vt 0.1557 0.9634
vt 0.2033 0.939
vt 0.2148 0.9634
vt 0.2049 0.9634
vt 0.1066 0.9634
vt 0.118 0.939
vt 0.1164 0.9634
vt 0.4328 0.9878
vt 0.0279 0.9634
vt 0.0393 0.939
vt 0.0377 0.9634
vt 0.1852 0.9634
vt 0.1967 0.939
vt 0.1951 0.9634
vt 0.0459 0.939
vt 0.0574 0.9634
vt 0.0475 0.9634
vt 0.1656 0.9634
vt 0.177 0.939
vt 0.1754 0.9634
vt 0.0066 0.939
vt 0.018 0.9634
vt 0.0082 0.9634
vt 0.0869 0.9634
vt 0.0984 0.939
vt 0.0967 0.9634
vt 0.0656 0.939
vt 0.077 0.9634
vt 0.0672 0.9634
vt 0.6918 0.3537
vt 0.6656 0.2561
vt 0.4131 0.5732
vt 0.4131 0.6341
vt 0.4098 0.5732
vt 0.1377 0.9878
vt 0.1279 0.9634
vt 0.1377 0.9634
vt 0.8918 0.4024
vt 0.3872 0.7502
vt 0.3964 0.7502
vt 0.3886 0.7623
vt 0.6787 0.5976
vt 0.2164 0.9634
vt 0.2066 0.9878
vt 0.2066 0.9634
vt 0.8339 0.1035
vt 0.8339 0.0071
vt 0.2361 0.9878
vt 0.2262 0.9634
vt 0.2361 0.9634
vt 0.1016 0.878
vt 0.1213 0.7073
vt 0.1213 0.878
vt 0.2393 0.5366
vt 0.3115 0.9207
vt 0.1016 0.5366
vt 0.1213 0.5366
vt 0.082 0.5366
vt 0.2426 0.7744
vt 0.1607 0.5366
vt 0.0426 0.3659
vt 0.0426 0.5366
vt 0.2951 0.5488
vt 0.2787 0.9878
vt 0.2885 0.7012
vt 0.2426 0.189
vt 0.3115 0.4085
vt 0.141 0.7073
vt 0.141 0.878
vt 0.141 0.5366
vt 0.2656 0.4085
vt 0.1607 0.878
vt 0.1803 0.878
vt 0.0426 0.878
vt 0.0623 0.878
vt 0.2246 0.9634
vt 0.2656 0.7744
vt 0.1607 0.3659
vt 0.2 0.878
vt 0.3115 0.7744
vt 0.318 0.5488
vt 0.082 0.878
vt 0.1016 0.7073
vt 0.082 0.7073
vt 0.2656 0.9207
vt 0.2197 0.878
vt 0.2426 0.8476
vt 0.2 0.5366
vt 0.2557 0.4756
vt 0.3115 0.189
vt 0.2885 0.189
vt 0.2885 0.9207
vt 0.2557 0.9878
vt 0.3246 0.9878
vt 0.2393 0.7073
vt 0.2393 0.878
vt 0.2656 0.8476
vt 0.0033 0.878
vt 0.023 0.878
vt 0.2885 0.8476
vt 0.3115 0.7012
vt 0.2656 0.7012
vt 0.3246 0.4756
vt 0.2426 0.9207
vt 0.0033 0.5366
vt 0.5738 0.9146
vt 0.4328 0.4512
vt 0.8295 0.439
vt 0.4262 0.7805
vt 0.5311 0.8902
vt 0.3902 0.6707
vt 0.4262 0.5732
vt 0.4984 0.8049
vt 0.4066 0.6463
vt 0.3951 0.7623
vt 0.3918 0.7673
vt 0.3886 0.738
vt 0.3918 0.733
vt 0.3951 0.738
vt 0.4656 0.4756
vt 0.1082 0.9878
vt 0.7311 0.5976
vt 0.1803 0.1951
vt 0.9967 0.0122
vt 0.2885 0.7744
vt 0.023 0.3659
vt 0.023 0.1951
vt 0.0426 0.1951
vt 0.0393 0.9878
vt 0.0295 0.9878
vt 0.0295 0.9634
vt 0.4984 0.7927
vt 0.5213 0.5976
vt 0.4689 0.5976
vt 0.2164 0.939
vt 0.8393 0.4024
vt 0.2164 0.9878
vt 0.1279 0.9878
vt 0.1049 0.939
vt 0.059 0.939
vt 0.1443 0.939
vt 0.3672 0.0366
vt 0.1672 0.9878
vt 0.1246 0.939
vt 0.1836 0.939
vt 0.7836 0.9878
vt 0.3705 0.9146
vt 0.377 0.9878
vt 0.4557 0.5732
vt 0.541 0.6341
vt 0.0033 0.3659
vt 0.8 0.439
vt 0.5639 0.8049
vt 0.5377 0.7683
vt 0.4525 0.878
vt 0.4525 0.7805
vt 0.482 0.7927
vt 0.4754 0.8902
vt 0.4951 0.7195
vt 0.4984 0.6341
vt 0.5246 0.6341
vt 0.5213 0.7439
vt 0.5213 0.8049
vt 0.5607 0.8902
vt 0.5639 0.6463
vt 0.5344 0.7317
vt 0.4328 0.561
vt 0.823 0.4512
vt 0.823 0.5488
vt 0.7934 0.5366
vt 0.4754 0.7317
vt 0.4525 0.622
vt 0.4787 0.6463
vt 0.4852 0.6341
vt 0.2197 0.1951
vt 0.3639 0.9634
vt 0.4787 0.7561
vt 0.5639 0.7561
vt 0.3541 0.4024
vt 0.4787 0.9146
vt 0.8393 0.7927
vt 0.5279 0.7927
vt 0.4885 0.8902
vt 0.0623 0.1951
vt 0.5213 0.9146
vt 0.3934 0.7805
vt 0.1016 0.1951
vt 0.3475 0.4024
vt 0.4951 0.6098
vt 0.3377 0.6463
vt 0.7836 0.7927
vt 0.7311 0.7927
vt 0.4951 0.7683
vt 0.459 0.5976
vt 0.3541 0.8902
vt 0.3574 0.8902
vt 0.4131 0.378
vt 0.5738 0.5976
vt 0.6262 0.5976
vt 0.3607 0.0366
vt 0.3475 0.8902
vt 0.3508 0.8902
vt 0.0301 0.1744
vt 0.0211 0.1834
vt 0.0056 0.15
vt 0.0121 0.1744
vt 0.0032 0.1166
vt 0.0056 0.0832
vt 0.0121 0.0588
vt 0.0211 0.0499
vt 0.0301 0.0588
vt 0.0366 0.15
vt 0.0366 0.0832
vt 0.039 0.1166
vt 0.1869 0.9878
vt 0.3672 0.378
vt 0.3607 0.939
vt 0.1475 0.9878
vt 0.0984 0.9878
vt 0.0885 0.9634
vt 0.0984 0.9634
vt 0.0393 0.9634
vt 0.059 0.9878
vt 0.0492 0.9634
vt 0.059 0.9634
vt 0.0787 0.9878
vt 0.0689 0.9634
vt 0.0787 0.9634
vt 0.8339 0.1998
vt 0.5377 0.9146
vt 0.4066 0.4024
vt 0.3672 0.4024
vt 0.8393 0.9878
vt 0.3443 0.4024
vt 0.3443 0.6463
vt 0.3016 0.9878
vt 0.9508 0.7927
vt 0.6787 0.7927
vt 0.4852 0.8902
vt 0.4787 0.7683
vt 0.4459 0.7927
vt 0.5311 0.6341
vt 0.5279 0.7317
vt 0.4885 0.6341
vt 0.3607 0.4024
vt 0.3607 0.6463
vt 0.4951 0.7561
vt 0.3508 0.939
vt 0.3475 0.9878
vt 0.3475 0.939
vt 0.341 0.8963
vt 0.3443 0.9146
vt 0.341 0.9085
vt 0.3443 0.9878
vt 0.3443 0.939
vt 0.3541 0.9207
vt 0.3443 0.8902
vt 0.3475 0.9146
vt 0.3541 0.9085
vt 0.3541 0.8963
vt 0.5705 0.7317
vt 0.3508 0.9146
vt 0.341 0.9207
vt 0.341 0.9329
vt 0.341 0.939
vt 0.3541 0.939
vt 0.3377 0.939
vt 0.3344 0.9878
vt 0.3344 0.939
vt 0.3377 0.9878
vt 0.3508 0.9878
vt 0.3344 0.6463
vt 0.3377 0.4024
vt 0.5639 0.6098
vt 0.7967 0.561
vt 0.7902 0.439
vt 0.823 0.4146
vt 0.3869 0.9756
vt 0.4787 0.6098
vt 0.4262 0.9878
vt 0.3934 0.9878
vt 0.4197 0.9878
vt 0.4066 0.9878
vt 0.4066 0.9756
vt 0.4 0.9878
vt 0.1607 0.1951
vt 0.4066 0.7805
vt 0.0197 0.9878
vt 0.0098 0.9634
vt 0.0197 0.9634
vt 0.4131 0.7805
vt 0.341 0.4024
vt 0.0262 0.939
vt 0.0852 0.939
vt 0.2426 0.3963
vt 0.2426 0.3354
vt 0.1639 0.939
vt 0.5705 0.7927
vt 0.5639 0.9146
vt 0.0492 0.9878
vt 0.0885 0.9878
vt 0.0689 0.9878
vt 0.9443 0.561
vt 0.0787 0.939
vt 0.2262 0.9878
vt 0.4393 0.9878
vt 0.0197 0.939
vt 0.3607 0.8902
vt 0.3344 0.8902
vt 0.3115 0.8476
vt 0.2426 0.7012
vt 0.3836 0.939
vt 0.4459 0.7317
vt 0.7319 0.1998
vt 0.2885 0.4085
vt 0.3869 0.5732
vt 0.2656 0.189
vt 0.2426 0.4085
vt 0.9508 0.9878
vt 0.4852 0.7927
vt 0.4525 0.7683
vt 0.4459 0.8902
vt 0.5311 0.7317
vt 0.5279 0.6341
vt 0.4885 0.7317
vt 0.5213 0.7561
vt 0.3541 0.9329
vt 0.5705 0.6341
vt 0.341 0.9878
vt 0.3541 0.9878
vt 0.3344 0.4024
vt 0.5377 0.6098
vt 0.823 0.561
vt 0.7902 0.5366
vt 0.7967 0.4146
vt 0.3869 0.7805
vt 0.4525 0.6098
vt 0.4131 0.9878
vt 0.3869 0.9878
vt 0.0098 0.9878
vt 0.9443 0.4024
vt 0.0033 0.1951
s 1
f 108/1 134/2 106/3
f 198/4 170/5 172/6
f 132/7 109/8 107/9
f 58/10 81/11 56/12
f 112/13 136/14 110/15
f 163/16 187/17 189/18
f 85/19 61/20 59/21
f 62/22 86/23 60/24
f 139/25 115/26 113/27
f 87/28 63/29 61/30
f 117/31 141/32 143/33
f 8/34 32/35 6/36
f 10/37 34/38 8/39
f 39/40 15/41 13/42
f 119/43 147/44 121/45
f 96/46 68/47 70/48
f 69/49 97/50 71/51
f 98/52 70/53 72/54
f 126/55 150/56 124/57
f 73/58 97/50 99/59
f 127/60 151/61 153/62
f 180/63 204/64 178/65
f 78/66 102/67 76/68
f 182/69 206/70 180/71
f 53/72 103/73 79/74
f 158/75 208/76 182/77
f 131/78 107/79 105/80
f 4/81 30/82 2/83
f 183/84 159/85 157/86
f 162/87 185/88 160/89
f 60/90 84/91 58/92
f 106/93 156/94 130/95
f 114/96 138/97 112/98
f 189/18 165/99 163/100
f 116/101 140/102 114/103
f 17/104 45/105 19/106
f 66/107 90/108 64/109
f 13/110 37/111 39/40
f 42/112 14/113 16/114
f 143/33 119/115 117/116
f 200/117 172/118 174/119
f 67/120 95/121 69/122
f 121/123 149/124 123/125
f 202/126 174/127 176/128
f 125/129 149/124 151/61
f 486/130 497/131 498/132
f 23/133 47/134 49/135
f 179/136 203/137 205/138
f 181/139 205/138 207/140
f 77/141 101/142 103/73
f 157/143 207/140 183/144
f 2/145 52/146 26/147
f 56/148 82/149 54/150
f 79/151 55/152 53/153
f 80/154 57/155 55/156
f 184/157 161/158 159/159
f 59/160 83/161 85/19
f 111/162 135/163 137/164
f 22/165 46/166 20/167
f 137/164 113/168 111/169
f 168/170 192/171 166/172
f 35/173 11/174 9/175
f 14/176 38/177 12/178
f 170/179 194/180 168/181
f 91/182 67/183 65/184
f 195/185 171/186 169/187
f 118/188 142/189 116/190
f 44/191 16/192 18/193
f 173/194 201/195 175/196
f 46/166 18/197 20/198
f 21/199 45/105 47/134
f 178/200 202/126 176/201
f 128/202 152/203 126/204
f 24/205 48/206 22/207
f 130/208 154/209 128/210
f 25/211 49/135 51/212
f 1/213 51/212 27/214
f 105/215 155/216 131/217
f 160/218 186/219 158/220
f 27/221 3/222 1/223
f 28/224 5/225 3/226
f 110/227 133/228 108/229
f 164/230 188/231 162/232
f 7/233 31/234 33/235
f 166/236 190/237 164/238
f 33/235 9/239 7/240
f 12/241 36/242 10/243
f 64/244 88/245 62/246
f 65/247 89/248 91/182
f 169/249 193/250 195/185
f 94/251 66/252 68/253
f 146/254 118/255 120/256
f 148/257 120/258 122/259
f 15/260 43/261 17/262
f 150/56 122/263 124/264
f 75/265 99/59 101/142
f 74/266 98/52 72/267
f 177/268 201/195 203/137
f 129/269 153/62 155/216
f 76/270 100/271 74/272
f 26/273 50/274 24/275
f 171/276 199/277 173/278
f 54/279 104/280 78/281
f 6/282 29/283 4/284
f 210/285 224/286 231/287
f 212/288 210/289 225/290
f 225/291 210/292 232/293
f 210/294 231/295 238/296
f 38/177 35/173 36/242
f 250/297 247/298 248/299
f 450/300 387/301 451/302
f 449/303 386/304 450/300
f 263/305 265/306 264/307
f 528/308 318/309 526/310
f 259/311 265/312 262/313
f 256/314 266/315 258/316
f 435/317 372/318 436/319
f 305/320 299/321 308/322
f 261/323 255/324 260/325
f 34/38 31/234 32/35
f 232/326 240/327 239/328
f 532/329 309/330 524/331
f 511/332 488/333 487/334
f 515/335 492/336 491/337
f 308/322 293/338 303/339
f 424/340 357/341 421/342
f 431/343 429/344 430/345
f 292/346 307/347 300/348
f 36/242 33/235 34/38
f 248/299 254/349 250/297
f 319/350 321/351 322/352
f 52/146 49/135 50/274
f 84/91 80/154 81/11
f 86/23 83/161 84/91
f 316/353 313/354 315/355
f 46/166 43/261 44/191
f 102/67 99/59 100/271
f 94/251 91/182 92/356
f 323/357 324/358 320/359
f 414/360 350/361 413/362
f 316/353 307/347 306/363
f 185/88 183/84 186/219
f 402/364 338/365 401/366
f 194/180 191/367 192/171
f 565/368 552/369 576/370
f 294/371 326/372 300/373
f 293/374 327/375 294/371
f 299/376 328/377 293/374
f 343/378 333/379 301/380
f 298/381 330/382 304/383
f 297/384 331/385 298/381
f 303/386 332/387 297/384
f 351/388 337/389 305/390
f 296/391 334/392 302/393
f 295/394 335/395 296/391
f 301/380 336/396 295/394
f 347/397 325/398 299/376
f 292/399 338/400 306/401
f 291/402 339/403 292/399
f 305/390 340/404 291/402
f 298/381 341/405 297/384
f 302/393 342/406 298/381
f 224/407 539/408 222/409
f 297/384 344/410 301/380
f 292/411 345/412 291/413
f 300/373 346/414 292/411
f 575/415 550/416 574/417
f 291/413 348/418 299/376
f 296/391 349/419 295/394
f 306/401 350/420 296/391
f 567/421 542/422 566/423
f 295/394 352/424 305/390
f 294/371 353/425 293/374
f 304/383 354/426 294/371
f 569/427 544/428 568/429
f 293/374 356/430 303/386
f 393/431 331/432 395/433
f 202/126 199/277 200/117
f 322/352 523/434 529/435
f 188/231 184/157 185/88
f 537/436 215/437 536/438
f 200/117 197/439 198/4
f 400/440 333/441 398/442
f 399/443 336/444 400/445
f 559/446 477/447 561/448
f 398/449 334/450 397/451
f 397/452 335/453 399/454
f 535/455 211/456 534/457
f 392/458 325/459 390/460
f 320/359 521/461 530/462
f 282/463 269/464 280/465
f 418/466 354/467 417/468
f 405/469 343/470 407/471
f 208/76 205/138 206/70
f 190/237 187/17 188/231
f 403/472 340/473 404/474
f 288/475 272/476 286/477
f 410/478 346/479 409/480
f 409/481 347/482 411/483
f 286/477 271/484 284/485
f 104/280 101/142 102/67
f 563/486 473/487 560/488
f 412/489 345/490 410/491
f 411/492 348/493 412/494
f 276/495 274/496 290/497
f 423/498 360/499 424/340
f 430/345 367/500 431/343
f 556/501 461/502 564/503
f 358/504 390/505 389/506
f 358/507 391/508 359/509
f 359/510 392/511 360/499
f 357/341 392/458 390/460
f 362/512 394/513 393/514
f 363/515 393/431 395/433
f 363/516 396/517 364/518
f 364/519 394/520 361/521
f 366/522 398/449 397/451
f 366/523 399/454 367/500
f 367/524 400/445 368/525
f 365/526 400/440 398/442
f 370/527 402/364 401/366
f 371/528 401/529 403/530
f 371/531 404/474 372/318
f 372/532 402/533 369/534
f 374/535 406/536 405/537
f 374/538 407/471 375/539
f 375/540 408/541 376/542
f 373/543 408/544 406/545
f 378/546 410/478 409/480
f 378/547 411/483 379/548
f 379/549 412/494 380/550
f 377/551 412/489 410/491
f 382/552 414/360 413/362
f 382/553 415/554 383/555
f 383/556 416/557 384/558
f 381/559 416/560 414/561
f 386/304 418/466 417/468
f 386/562 419/563 387/301
f 387/564 420/565 388/566
f 385/567 420/568 418/569
f 560/488 471/570 555/571
f 423/498 421/342 422/572
f 420/568 353/573 418/569
f 554/574 465/575 553/576
f 453/577 294/371 300/373
f 513/578 490/579 489/580
f 427/581 425/582 426/583
f 428/584 361/521 425/582
f 40/585 37/111 38/177
f 427/581 364/518 428/584
f 426/583 363/515 427/581
f 425/582 362/512 426/583
f 417/586 355/587 419/563
f 404/588 337/589 402/533
f 44/191 41/590 42/112
f 434/591 371/528 435/317
f 442/592 379/548 443/593
f 433/594 370/527 434/591
f 435/317 433/594 434/591
f 320/359 321/595 319/596
f 441/597 378/546 442/592
f 439/598 437/599 438/600
f 437/599 374/535 438/600
f 443/593 441/597 442/592
f 459/601 528/308 532/329
f 440/602 373/543 437/599
f 439/598 376/542 440/602
f 438/600 375/539 439/598
f 436/319 369/534 433/594
f 248/299 251/603 252/604
f 444/605 377/551 441/597
f 447/606 384/558 448/607
f 452/608 385/567 449/303
f 446/609 383/555 447/606
f 445/610 382/552 446/609
f 447/606 445/610 446/609
f 448/607 381/559 445/610
f 254/349 249/611 250/297
f 252/604 253/612 254/349
f 451/302 388/566 452/608
f 310/613 453/577 309/614
f 317/615 456/616 318/617
f 525/618 317/615 524/619
f 527/620 310/613 526/621
f 451/302 449/303 450/300
f 443/593 380/550 444/605
f 261/323 259/622 262/623
f 457/624 310/625 309/626
f 512/627 489/628 488/629
f 491/630 502/631 490/632
f 490/633 501/634 489/635
f 499/636 485/637 487/638
f 492/639 503/640 491/641
f 284/485 285/642 286/477
f 496/643 507/644 495/645
f 488/646 499/647 487/648
f 507/649 494/650 495/651
f 489/652 500/653 488/654
f 498/655 496/656 486/657
f 493/658 504/659 492/660
f 506/661 493/662 494/663
f 355/664 329/665 303/386
f 263/305 258/666 266/667
f 257/668 260/325 255/324
f 514/669 491/670 490/671
f 315/672 300/348 307/347
f 32/35 28/224 29/283
f 287/673 279/674 289/675
f 311/676 298/381 304/383
f 485/677 511/678 487/679
f 29/283 27/221 30/82
f 301/680 303/339 297/681
f 510/682 485/683 486/684
f 62/22 88/245 86/23
f 132/7 135/163 109/8
f 10/37 36/242 34/38
f 98/52 96/46 70/53
f 60/90 86/23 84/91
f 189/18 191/367 165/99
f 476/685 571/686 474/687
f 542/422 564/503 541/688
f 105/215 129/689 155/216
f 28/224 31/234 5/225
f 66/107 92/356 90/108
f 116/101 142/189 140/102
f 548/690 560/488 547/691
f 550/416 561/448 549/692
f 202/126 200/117 174/127
f 179/136 177/693 203/137
f 24/205 50/274 48/206
f 173/194 199/277 201/195
f 545/694 554/574 544/428
f 552/369 562/695 551/696
f 91/182 93/697 67/183
f 35/173 37/111 11/174
f 184/157 187/17 161/158
f 2/145 30/698 52/146
f 182/69 208/76 206/70
f 73/58 71/699 97/50
f 163/16 161/700 187/17
f 58/10 84/91 81/11
f 117/31 115/701 141/32
f 69/49 95/121 97/50
f 4/81 29/283 30/82
f 131/78 132/7 107/79
f 474/687 570/702 472/703
f 547/691 555/571 546/704
f 27/221 28/224 3/222
f 130/208 156/94 154/209
f 42/112 40/585 14/113
f 13/110 11/705 37/111
f 470/706 568/429 468/707
f 482/708 574/417 480/709
f 486/130 485/710 497/131
f 23/133 21/711 47/134
f 128/202 154/209 152/203
f 44/191 42/112 16/192
f 546/704 558/712 545/694
f 468/707 567/421 466/713
f 195/185 197/439 171/186
f 137/164 139/25 113/168
f 79/151 80/154 55/152
f 80/154 83/161 57/155
f 78/66 104/280 102/67
f 127/60 125/714 151/61
f 112/13 138/97 136/14
f 85/19 87/28 61/20
f 8/34 34/38 32/35
f 119/43 145/715 147/44
f 183/84 184/157 159/85
f 162/87 188/231 185/88
f 478/716 572/717 476/685
f 480/709 573/718 478/716
f 1/213 25/719 51/212
f 160/218 185/88 186/219
f 17/104 43/261 45/105
f 67/120 93/697 95/121
f 466/713 566/423 464/720
f 108/1 133/228 134/2
f 121/123 147/44 149/124
f 181/139 179/721 205/138
f 178/200 204/64 202/126
f 46/166 44/191 18/197
f 549/692 563/486 548/690
f 543/722 556/501 542/422
f 170/179 196/723 194/180
f 14/176 40/585 38/177
f 111/162 109/724 135/163
f 59/160 57/725 83/161
f 53/72 77/726 103/73
f 158/75 186/727 208/76
f 87/28 89/248 63/29
f 139/25 141/32 115/26
f 39/40 41/590 15/41
f 96/46 94/251 68/47
f 114/96 140/102 138/97
f 106/93 134/728 156/94
f 544/428 553/576 543/722
f 464/720 565/729 462/730
f 110/227 136/14 133/228
f 25/211 23/731 49/135
f 143/33 145/715 119/115
f 200/117 198/4 172/118
f 462/732 576/370 484/733
f 198/4 196/723 170/5
f 77/141 75/734 101/142
f 125/129 123/735 149/124
f 21/199 19/736 45/105
f 118/188 144/737 142/189
f 472/703 569/427 470/706
f 551/696 559/446 550/416
f 22/165 48/206 46/166
f 168/170 194/180 192/171
f 56/148 81/11 82/149
f 157/143 181/738 207/140
f 180/63 206/70 204/64
f 126/55 152/203 150/56
f 194/180 193/250 191/367
f 565/368 541/739 552/369
f 351/388 306/401 337/389
f 322/352 323/740 523/434
f 409/481 346/741 347/482
f 414/360 349/742 350/361
f 316/353 315/355 307/347
f 288/475 273/743 272/476
f 403/472 339/744 340/473
f 261/745 262/313 265/312
f 265/312 266/315 261/745
f 46/166 45/105 43/261
f 410/478 345/746 346/479
f 431/343 432/747 429/344
f 263/305 264/748 259/311
f 259/311 260/325 263/305
f 279/674 277/749 275/750
f 275/750 289/675 279/674
f 450/300 386/562 387/301
f 287/673 285/751 283/752
f 283/752 281/753 287/673
f 411/492 347/754 348/493
f 248/299 252/604 254/349
f 515/335 516/755 492/336
f 453/577 454/756 294/371
f 554/574 467/757 465/575
f 423/498 424/340 421/342
f 52/146 51/212 49/135
f 316/353 314/758 313/354
f 286/477 272/476 271/484
f 530/462 323/357 320/359
f 75/265 73/759 99/59
f 42/112 41/590 39/40
f 557/760 483/761 481/762
f 519/763 520/764 496/765
f 432/747 368/766 365/526
f 314/767 316/768 306/401
f 572/717 548/690 547/691
f 574/417 550/416 549/692
f 497/769 466/713 464/720
f 150/56 148/257 122/263
f 530/462 521/461 453/770
f 81/11 80/154 79/151
f 548/690 563/486 560/488
f 547/691 560/488 555/571
f 485/677 509/771 511/678
f 300/373 326/372 325/398
f 294/371 327/375 326/372
f 293/374 328/377 327/375
f 299/376 325/398 328/377
f 304/383 330/382 329/665
f 298/381 331/385 330/382
f 297/384 332/387 331/385
f 303/386 329/665 332/387
f 302/393 334/392 333/379
f 296/391 335/395 334/392
f 295/394 336/396 335/395
f 301/380 333/379 336/396
f 306/401 338/400 337/389
f 292/399 339/403 338/400
f 291/402 340/404 339/403
f 305/390 337/389 340/404
f 298/381 342/406 341/405
f 302/393 343/378 342/406
f 301/380 344/410 343/378
f 297/384 341/405 344/410
f 292/411 346/414 345/412
f 300/373 347/397 346/414
f 299/376 348/418 347/397
f 291/413 345/412 348/418
f 296/391 350/420 349/419
f 306/401 351/388 350/420
f 305/390 352/424 351/388
f 295/394 349/419 352/424
f 294/371 354/426 353/425
f 304/383 355/664 354/426
f 303/386 356/430 355/664
f 293/374 353/425 356/430
f 263/305 257/668 258/666
f 514/669 515/772 491/670
f 29/283 28/224 27/221
f 552/369 557/760 562/695
f 492/639 504/773 503/640
f 355/664 304/383 329/665
f 507/649 506/774 494/650
f 490/633 502/775 501/634
f 457/624 458/776 310/625
f 512/627 513/777 489/628
f 491/630 503/778 502/631
f 488/646 500/779 499/647
f 474/687 571/686 570/702
f 30/698 27/214 51/212
f 525/618 455/780 317/615
f 254/349 253/781 249/611
f 480/709 574/417 573/718
f 478/716 573/718 572/717
f 546/704 555/571 558/712
f 527/620 454/756 310/613
f 436/319 372/532 369/534
f 248/299 247/782 251/603
f 444/605 380/783 377/551
f 440/602 376/784 373/543
f 541/739 564/785 557/760
f 443/593 444/605 441/597
f 439/598 375/540 376/542
f 447/606 383/556 384/558
f 448/607 384/786 381/559
f 433/594 369/787 370/527
f 320/359 324/358 321/595
f 404/588 340/788 337/589
f 358/504 357/789 390/505
f 358/507 389/790 391/508
f 359/510 391/791 392/511
f 357/341 360/792 392/458
f 362/512 361/793 394/513
f 363/515 362/794 393/431
f 363/516 395/795 396/517
f 364/519 396/796 394/520
f 366/522 365/797 398/449
f 366/523 397/452 399/454
f 367/524 399/443 400/445
f 365/526 368/766 400/440
f 370/527 369/787 402/364
f 371/528 370/798 401/529
f 371/531 403/472 404/474
f 372/532 404/588 402/533
f 374/535 373/799 406/536
f 374/538 405/469 407/471
f 375/540 407/800 408/541
f 373/543 376/784 408/544
f 378/546 377/801 410/478
f 378/547 409/481 411/483
f 379/549 411/492 412/494
f 377/551 380/783 412/489
f 382/552 381/802 414/360
f 382/553 413/803 415/554
f 383/556 415/804 416/557
f 381/559 384/786 416/560
f 386/304 385/805 418/466
f 386/562 417/586 419/563
f 387/564 419/806 420/565
f 385/567 388/807 420/568
f 426/583 362/794 363/515
f 425/582 361/793 362/512
f 44/191 43/261 41/590
f 442/592 378/547 379/548
f 420/568 356/808 353/573
f 427/581 428/584 425/582
f 428/584 364/519 361/521
f 556/501 463/809 461/502
f 423/498 359/510 360/499
f 430/345 366/523 367/500
f 560/488 473/487 471/570
f 40/585 39/40 37/111
f 435/317 436/319 433/594
f 252/604 251/810 253/612
f 454/756 311/676 304/383
f 208/76 207/140 205/138
f 418/466 353/811 354/467
f 405/469 342/812 343/470
f 190/237 189/18 187/17
f 104/280 103/73 101/142
f 535/455 213/813 211/456
f 392/458 328/814 325/459
f 320/359 455/815 521/461
f 398/449 333/816 334/450
f 399/443 335/817 336/444
f 559/446 479/818 477/447
f 397/452 334/819 335/453
f 282/463 270/820 269/464
f 563/486 475/821 473/487
f 188/231 187/17 184/157
f 537/436 217/822 215/437
f 569/427 545/694 544/428
f 575/415 551/696 550/416
f 567/421 543/722 542/422
f 393/431 330/823 331/432
f 200/117 199/277 197/439
f 202/126 201/195 199/277
f 343/378 302/393 333/379
f 347/397 300/373 325/398
f 224/407 540/824 539/408
f 310/613 454/756 453/577
f 317/615 455/780 456/616
f 525/618 521/825 455/780
f 527/620 531/826 454/756
f 400/440 336/827 333/441
f 412/489 348/828 345/490
f 102/67 101/142 99/59
f 94/251 93/697 91/182
f 263/305 266/667 265/306
f 484/733 575/415 482/708
f 566/423 541/688 565/729
f 572/717 547/691 571/686
f 214/829 534/457 212/830
f 571/686 546/704 570/702
f 541/739 557/760 552/369
f 530/462 453/770 315/672
f 459/601 524/331 317/831
f 574/417 549/692 573/718
f 529/435 313/832 312/833
f 458/776 526/310 310/834
f 218/835 536/438 216/836
f 573/718 548/690 572/717
f 509/837 510/838 519/839
f 510/838 520/840 519/839
f 519/839 518/841 517/842
f 517/842 516/843 519/839
f 516/843 515/844 519/839
f 515/844 514/845 511/846
f 514/845 513/847 511/846
f 513/847 512/848 511/846
f 185/88 184/157 183/84
f 292/346 306/363 307/347
f 36/242 35/173 33/235
f 84/91 83/161 80/154
f 511/332 512/849 488/333
f 449/303 385/805 386/304
f 308/322 299/321 293/338
f 528/308 460/850 318/309
f 232/326 210/851 240/327
f 513/578 514/852 490/579
f 259/311 264/748 265/312
f 557/760 481/762 562/695
f 516/853 493/854 492/855
f 519/763 496/765 495/856
f 518/857 495/858 494/859
f 517/860 494/861 493/862
f 295/863 308/322 301/680
f 90/108 87/28 88/245
f 42/112 39/40 40/585
f 432/747 365/526 429/344
f 401/529 339/864 403/530
f 88/245 85/19 86/23
f 50/274 47/134 48/206
f 313/832 296/391 302/393
f 454/756 304/383 294/371
f 150/56 147/44 148/257
f 314/767 306/401 296/391
f 81/11 79/151 82/149
f 30/698 51/212 52/146
f 48/206 45/105 46/166
f 460/850 317/865 318/866
f 455/815 319/596 456/867
f 312/833 302/393 298/381
f 148/257 145/715 146/254
f 100/271 97/50 98/52
f 98/52 95/121 96/46
f 96/46 93/697 94/251
f 146/254 143/33 144/737
f 133/228 131/78 134/2
f 136/14 132/7 133/228
f 144/737 141/32 142/189
f 539/408 219/868 538/869
f 142/189 139/25 140/102
f 140/102 137/164 138/97
f 138/97 135/163 136/14
f 82/870 103/73 104/280
f 92/356 89/248 90/108
f 323/871 321/595 324/358
f 456/616 522/872 531/826
f 206/70 203/137 204/64
f 134/728 155/216 156/94
f 156/94 153/62 154/209
f 154/209 151/61 152/203
f 204/64 201/195 202/126
f 192/171 189/18 190/237
f 391/791 328/873 392/511
f 389/790 327/874 391/508
f 538/869 217/822 537/436
f 390/505 326/875 389/506
f 198/4 195/185 196/723
f 196/723 193/250 194/180
f 407/800 344/876 408/541
f 395/795 332/877 396/517
f 394/513 330/878 393/514
f 534/457 209/879 533/880
f 186/727 207/140 208/76
f 396/796 329/881 394/520
f 536/438 213/813 535/455
f 234/882 243/883 235/884
f 222/885 229/886 230/887
f 152/203 149/124 150/56
f 235/884 244/888 236/889
f 224/286 230/887 231/287
f 232/293 226/890 225/291
f 220/891 228/892 229/886
f 212/288 226/893 214/894
f 511/846 519/839 515/844
f 235/884 229/886 228/892
f 406/536 342/895 405/537
f 227/896 235/884 228/892
f 230/897 236/889 237/898
f 214/894 227/896 216/836
f 522/872 322/352 529/435
f 230/897 238/296 231/295
f 244/888 237/899 236/889
f 239/328 233/900 232/326
f 290/497 273/743 288/475
f 216/836 228/892 218/835
f 238/901 240/902 210/903
f 237/899 246/904 238/901
f 233/900 242/905 234/882
f 533/906 223/907 540/824
f 431/343 368/525 432/747
f 408/544 341/908 406/545
f 413/803 351/909 415/554
f 415/804 352/910 416/557
f 416/560 349/911 414/561
f 284/912 270/820 282/463
f 419/806 356/913 420/565
f 288/475 285/642 287/914
f 280/465 281/915 282/463
f 288/475 289/916 290/497
f 276/495 277/917 278/918
f 289/916 276/495 290/497
f 280/465 277/917 279/919
f 226/890 234/882 227/896
f 281/915 284/912 282/463
f 421/342 358/504 422/572
f 555/571 469/920 558/712
f 422/572 359/509 423/498
f 280/465 268/921 278/918
f 561/448 475/821 563/486
f 429/344 366/522 430/345
f 558/712 467/757 554/574
f 520/922 486/923 496/924
f 278/918 267/925 276/495
f 540/824 221/926 539/408
f 503/640 476/685 474/687
f 553/576 463/809 556/501
f 562/695 479/818 559/446
f 482/708 508/927 484/733
f 478/716 506/661 480/709
f 506/774 482/708 480/709
f 499/647 468/707 466/713
f 476/685 505/928 478/716
f 191/367 167/929 165/930
f 470/706 500/653 501/931
f 472/703 503/778 474/687
f 484/733 498/655 462/732
f 501/634 472/703 470/706
f 462/730 497/131 464/720
f 34/38 33/235 31/234
f 532/329 457/624 309/330
f 424/340 360/792 357/341
f 86/23 85/19 83/161
f 402/364 337/932 338/365
f 276/495 267/925 274/496
f 50/274 49/135 47/134
f 313/832 314/767 296/391
f 150/56 149/124 147/44
f 48/206 47/134 45/105
f 295/863 305/320 308/322
f 90/108 89/248 87/28
f 401/529 338/933 339/864
f 518/857 519/934 495/858
f 573/718 549/692 548/690
f 516/853 517/935 493/854
f 517/860 518/936 494/861
f 88/245 87/28 85/19
f 460/850 459/601 317/865
f 459/601 532/329 524/331
f 529/435 523/434 313/832
f 214/829 535/455 534/457
f 484/733 576/370 575/415
f 566/423 542/422 541/688
f 571/686 547/691 546/704
f 458/776 528/308 526/310
f 472/703 570/702 569/427
f 551/696 562/695 559/446
f 530/462 523/937 323/357
f 464/720 566/423 565/729
f 543/722 553/576 556/501
f 544/428 554/574 553/576
f 462/732 565/368 576/370
f 497/769 499/636 466/713
f 218/835 537/436 536/438
f 455/815 320/359 319/596
f 470/706 569/427 568/429
f 550/416 559/446 561/448
f 476/685 572/717 571/686
f 542/422 556/501 564/503
f 545/694 558/712 554/574
f 482/708 575/415 574/417
f 287/673 281/753 279/674
f 311/676 312/833 298/381
f 301/680 308/322 303/339
f 315/672 453/770 300/348
f 506/661 505/938 493/662
f 257/668 263/305 260/325
f 32/35 31/234 28/224
f 510/682 509/939 485/683
f 468/707 568/429 567/421
f 489/652 501/931 500/653
f 284/485 283/940 285/642
f 496/643 508/927 507/644
f 498/655 508/941 496/656
f 499/636 497/769 485/637
f 493/658 505/928 504/659
f 549/692 561/448 563/486
f 220/891 537/436 218/835
f 312/833 313/832 302/393
f 445/610 381/802 382/552
f 311/676 529/435 312/833
f 212/830 533/880 210/942
f 76/270 102/67 100/271
f 210/943 540/824 224/407
f 570/702 545/694 569/427
f 129/269 127/944 153/62
f 466/713 567/421 566/423
f 177/268 175/945 201/195
f 222/409 538/869 220/891
f 531/826 311/676 454/756
f 74/266 100/271 98/52
f 216/836 535/455 214/829
f 54/279 82/870 104/280
f 6/282 32/35 29/283
f 446/609 382/553 383/555
f 26/273 52/146 50/274
f 250/297 249/946 247/298
f 38/177 37/111 35/173
f 171/276 197/439 199/277
f 447/606 448/607 445/610
f 451/302 387/564 388/566
f 451/302 452/608 449/303
f 459/601 460/850 528/308
f 438/600 374/538 375/539
f 452/608 388/807 385/567
f 443/593 379/549 380/550
f 441/597 377/801 378/546
f 318/617 527/620 526/621
f 309/614 521/825 525/618
f 318/617 531/826 527/620
f 309/614 525/618 524/619
f 568/429 543/722 567/421
f 315/672 523/937 530/462
f 576/370 551/696 575/415
f 532/329 458/776 457/624
f 417/586 354/947 355/587
f 305/320 291/948 299/321
f 434/591 370/798 371/528
f 439/598 440/602 437/599
f 435/317 371/531 372/318
f 427/581 363/516 364/518
f 437/599 373/799 374/535
f 256/314 261/745 266/315
f 261/323 260/325 259/622
f 148/257 147/44 145/715
f 65/247 63/949 89/248
f 261/323 256/950 255/324
f 100/271 99/59 97/50
f 7/233 5/951 31/234
f 148/257 146/254 120/258
f 94/251 92/356 66/252
f 12/241 38/177 36/242
f 33/235 35/173 9/239
f 164/230 190/237 188/231
f 15/260 41/590 43/261
f 169/249 167/952 193/250
f 146/254 144/737 118/255
f 166/236 192/171 190/237
f 64/244 90/108 88/245
f 564/785 483/761 557/760
f 98/52 97/50 95/121
f 96/46 95/121 93/697
f 146/254 145/715 143/33
f 133/228 132/7 131/78
f 136/14 135/163 132/7
f 144/737 143/33 141/32
f 539/408 221/926 219/868
f 142/189 141/32 139/25
f 140/102 139/25 137/164
f 138/97 137/164 135/163
f 82/870 79/74 103/73
f 92/356 91/182 89/248
f 323/871 322/953 321/595
f 456/616 319/350 522/872
f 206/70 205/138 203/137
f 134/728 131/217 155/216
f 156/94 155/216 153/62
f 154/209 153/62 151/61
f 204/64 203/137 201/195
f 192/171 191/367 189/18
f 391/791 327/954 328/873
f 389/790 326/955 327/874
f 538/869 219/868 217/822
f 390/505 325/956 326/875
f 198/4 197/439 195/185
f 196/723 195/185 193/250
f 407/800 343/957 344/876
f 395/795 331/958 332/877
f 394/513 329/959 330/878
f 534/457 211/456 209/879
f 186/727 183/144 207/140
f 396/796 332/960 329/881
f 536/438 215/437 213/813
f 234/882 242/905 243/883
f 222/885 220/891 229/886
f 152/203 151/61 149/124
f 235/884 243/883 244/888
f 224/286 222/885 230/887
f 232/293 233/961 226/890
f 220/891 218/835 228/892
f 212/288 225/290 226/893
f 511/846 509/837 519/839
f 235/884 236/889 229/886
f 406/536 341/962 342/895
f 227/896 234/882 235/884
f 230/897 229/886 236/889
f 214/894 226/893 227/896
f 522/872 319/350 322/352
f 230/897 237/898 238/296
f 244/888 245/963 237/899
f 239/328 241/964 233/900
f 290/497 274/496 273/743
f 216/836 227/896 228/892
f 238/901 246/904 240/902
f 237/899 245/963 246/904
f 233/900 241/964 242/905
f 533/906 209/965 223/907
f 431/343 367/524 368/525
f 408/544 344/966 341/908
f 413/803 350/967 351/909
f 415/804 351/968 352/910
f 416/560 352/969 349/911
f 284/912 271/970 270/820
f 419/806 355/971 356/913
f 288/475 286/477 285/642
f 280/465 279/919 281/915
f 288/475 287/914 289/916
f 276/495 275/972 277/917
f 289/916 275/972 276/495
f 280/465 278/918 277/917
f 226/890 233/961 234/882
f 281/915 283/973 284/912
f 421/342 357/789 358/504
f 555/571 471/570 469/920
f 422/572 358/507 359/509
f 280/465 269/464 268/921
f 561/448 477/447 475/821
f 429/344 365/797 366/522
f 558/712 469/920 467/757
f 520/922 510/974 486/923
f 278/918 268/921 267/925
f 540/824 223/907 221/926
f 503/640 504/773 476/685
f 553/576 465/575 463/809
f 562/695 481/762 479/818
f 482/708 507/644 508/927
f 478/716 505/938 506/661
f 506/774 507/649 482/708
f 499/647 500/779 468/707
f 476/685 504/659 505/928
f 191/367 193/250 167/929
f 470/706 468/707 500/653
f 472/703 502/631 503/778
f 484/733 508/941 498/655
f 501/634 502/775 472/703
f 462/730 498/132 497/131
f 220/891 538/869 537/436
f 311/676 522/872 529/435
f 212/830 534/457 533/880
f 210/943 533/906 540/824
f 570/702 546/704 545/694
f 222/409 539/408 538/869
f 531/826 522/872 311/676
f 216/836 536/438 535/455
f 309/614 453/577 521/825
f 318/617 456/616 531/826
f 568/429 544/428 543/722
f 315/672 313/975 523/937
f 576/370 552/369 551/696
f 532/329 528/308 458/776
f 564/785 461/976 483/761
o Fan_Cylinder.001
v -0.2479 4.6713 0.125
v -0.1271 4.7037 0.125
v -0.3082 4.6551 -0.125
v -0.0668 4.7199 -0.125
v -0.1467 4.6713 0.1108
v -0.1094 4.7037 0.2256
v 0.0724 4.6551 -0.0239
v 0.147 4.7199 0.2058
v -0.1019 4.6713 0.2026
v -0.1996 4.7037 0.2735
v 0.0939 4.6551 0.3693
v -0.1015 4.7199 0.5113
v -0.1754 4.6713 0.2735
v -0.2731 4.7037 0.2026
v -0.2735 4.6551 0.5113
v -0.4689 4.7199 0.3693
v -0.2656 4.6713 0.2256
v -0.2283 4.7037 0.1108
v -0.522 4.6551 0.2058
v -0.4474 4.7199 -0.0239
vt 0.3738 0.6707
vt 0.377 0.7195
vt 0.3639 0.7195
vt 0.3672 0.6707
vt 0.3738 0.7927
vt 0.3639 0.8415
vt 0.3672 0.7927
vt 0.3738 0.7317
vt 0.3639 0.7805
vt 0.3672 0.7317
vt 0.3672 0.6098
vt 0.377 0.6585
vt 0.3639 0.6585
vt 0.377 0.8415
vt 0.377 0.7805
vt 0.3738 0.8537
vt 0.377 0.9024
vt 0.3639 0.9024
vt 0.3738 0.6098
vt 0.3672 0.8537
s 1
f 578/977 580/978 579/979
f 578/977 579/979 577/980
f 590/981 591/982 589/983
f 582/984 583/985 581/986
f 585/987 588/988 587/989
f 590/981 592/990 591/982
f 582/984 584/991 583/985
f 594/992 596/993 595/994
f 585/987 586/995 588/988
f 594/992 595/994 593/996
