o Blades
v 0.2492 2.52 3.75
v 0.2492 2.52 5.25
v 0.1903 2.3379 3.75
v 0.1903 2.3379 5.25
v 0.02 2.2508 3.75
v 0.02 2.2508 5.25
v -0.1621 2.3097 3.75
v -0.1621 2.3097 5.25
v -0.2492 2.48 3.75
v -0.2492 2.48 5.25
v -0.1903 2.6621 3.75
v -0.1903 2.6621 5.25
v -0.02 2.7492 3.75
v -0.02 2.7492 5.25
v 0.1621 2.6903 3.75
v 0.1621 2.6903 5.25
v -0.2158 2.4827 4.875
v 0.2158 2.5173 5.125
v 0.3954 0.2745 5.125
v -0.0362 0.2399 4.875
v 0.4765 4.7096 3.875
v 0.2158 2.5173 4.875
v -0.2158 2.4827 5.125
v -0.3954 4.7255 5.125
v 0.0362 4.7601 4.875
v 0.1648 2.3596 4.125
v -0.1648 2.6404 3.875
v -1.2941 0.6467 4.125
v -1.6238 0.9275 3.875
v -0.1648 2.6404 4.875
v 0.1648 2.3596 5.125
v -1.2941 0.6467 5.125
v -1.6238 0.9275 4.875
v 0.206 2.4334 4.125
v -0.206 2.5666 3.875
v -0.4864 0.2926 4.125
v -0.8984 0.4258 3.875
v -0.206 2.5666 4.625
v 0.206 2.4334 4.875
v -0.3325 0.7683 4.875
v -0.7445 0.9015 4.625
v -0.1928 2.4014 4.875
v 0.1928 2.5986 5.125
v 1.217 0.5952 5.125
v 0.8314 0.3981 4.875
v 0.1928 2.5986 4.625
v -0.1928 2.4014 4.875
v -0.6038 4.1567 4.625
v 0.0986 2.3072 4.125
v -0.0986 2.6928 3.875
v -1.9048 1.283 4.125
v -2.1019 1.6686 3.875
v 0.0252 2.715 4.625
v -0.0252 2.285 4.875
v -1.7633 2.4883 4.875
v -1.713 2.9184 4.625
v -0.215 2.5252 4.875
v 0.215 2.4748 5.125
v -0.0464 0.2401 5.125
v -0.4765 0.2904 4.875
v -0.215 2.5252 4.125
v 0.215 2.4748 3.875
v 0.0464 4.7599 4.125
v 0.4765 4.7096 3.875
v 0.215 2.4748 4.625
v -0.215 2.5252 4.875
v -0.0117 4.2633 4.875
v 0.4184 4.213 4.625
v -0.1698 2.3657 4.875
v 0.1698 2.6343 5.125
v 1.5652 0.8692 5.125
v 1.2255 0.6007 4.875
v -0.1343 2.6698 4.625
v 0.1343 2.3302 4.875
v -1.2386 1.2449 4.875
v -1.5071 1.5846 4.625
v -0.1343 2.6698 4.875
v 0.1343 2.3302 5.125
v -1.6308 0.9348 5.125
v -1.8993 1.2745 4.875
v 0.2083 2.5591 4.625
v -0.2083 2.4409 4.875
v -0.6856 4.1246 4.875
v -0.269 4.2427 4.625
v 0.2083 2.5591 4.875
v -0.2083 2.4409 5.125
v -0.822 4.6056 5.125
v -0.4054 4.7237 4.875
v -0.059 2.7083 4.625
v 0.059 2.2917 4.875
v -1.6246 1.8144 4.875
v -1.7427 2.231 4.625
v -0.059 2.7083 4.875
v 0.059 2.2917 5.125
v -2.1056 1.678 5.125
v -2.2237 2.0946 4.875
v -0.2158 2.4827 4.875
v 0.2158 2.5173 5.125
v 0.3954 0.2745 5.125
v -0.0362 0.2399 4.875
v 0.2158 2.5173 4.875
v -0.2158 2.4827 5.125
v -0.3954 4.7255 5.125
v 0.0362 4.7601 4.875
v 0.1648 2.3596 4.125
v -0.1648 2.6404 3.875
v -1.2941 0.6467 4.125
v -1.6238 0.9275 3.875
v -0.1648 2.6404 4.875
v 0.1648 2.3596 5.125
v -1.2941 0.6467 5.125
v -1.6238 0.9275 4.875
v 0.206 2.4334 4.125
v -0.206 2.5666 3.875
v -0.4864 0.2926 4.125
v -0.8984 0.4258 3.875
v -0.206 2.5666 4.625
v 0.206 2.4334 4.875
v -0.3325 0.7683 4.875
v -0.7445 0.9015 4.625
v -0.1928 2.4014 4.875
v 0.1928 2.5986 5.125
v 1.217 0.5952 5.125
v 0.8314 0.3981 4.875
v 0.0986 2.3072 4.125
v -0.0986 2.6928 3.875
v -1.9048 1.283 4.125
v -2.1019 1.6686 3.875
v 0.0252 2.715 4.625
v -0.0252 2.285 4.875
v -1.7633 2.4883 4.875
v -1.713 2.9184 4.625
v -0.215 2.5252 4.875
v 0.215 2.4748 5.125
v -0.0464 0.2401 5.125
v -0.4765 0.2904 4.875
v 0.0464 4.7599 4.125
v 0.215 2.4748 3.875
v -0.215 2.5252 4.125
v 0.215 2.4748 4.625
v -0.215 2.5252 4.875
v -0.0117 4.2633 4.875
v 0.4184 4.213 4.625
v -0.1698 2.3657 4.875
v 0.1698 2.6343 5.125
v 1.5652 0.8692 5.125
v 1.2255 0.6007 4.875
v -0.1343 2.6698 4.625
v 0.1343 2.3302 4.875
v -1.2386 1.2449 4.875
v -1.5071 1.5846 4.625
v -0.1343 2.6698 4.875
v 0.1343 2.3302 5.125
v -1.6308 0.9348 5.125
v -1.8993 1.2745 4.875
v 0.2083 2.5591 4.625
v -0.2083 2.4409 4.875
v -0.6856 4.1246 4.875
v -0.269 4.2427 4.625
v 0.2083 2.5591 4.875
v -0.2083 2.4409 5.125
v -0.822 4.6056 5.125
v -0.4054 4.7237 4.875
v -0.059 2.7083 4.625
v 0.059 2.2917 4.875
v -1.6246 1.8144 4.875
v -1.7427 2.231 4.625
v -0.059 2.7083 4.875
v 0.059 2.2917 5.125
v -2.1056 1.678 5.125
v -2.2237 2.0946 4.875
v -0.2158 2.4827 4.125
v 0.2158 2.5173 4.375
v 0.3555 0.7729 4.375
v -0.0762 0.7383 4.125
v 0.2158 2.5173 4.125
v -0.2158 2.4827 4.375
v -0.3555 4.2271 4.375
v 0.0762 4.2617 4.125
v -0.1648 2.6404 4.125
v 0.1648 2.3596 4.375
v -0.9699 1.0274 4.375
v -1.2996 1.3081 4.125
v -0.206 2.5666 4.125
v 0.206 2.4334 4.375
v -0.3325 0.7683 4.375
v -0.7445 0.9015 4.125
v -0.0986 2.6928 4.125
v 0.0986 2.3072 4.375
v -1.4596 1.5106 4.375
v -1.6567 1.8962 4.125
v -0.1698 2.3657 4.125
v 0.1698 2.6343 4.375
v 1.2551 1.2614 4.375
v 0.9154 0.9929 4.125
v -0.2158 2.4827 4.125
v 0.2158 2.5173 4.375
v 0.3555 0.7729 4.375
v -0.0762 0.7383 4.125
v 0.2158 2.5173 4.125
v -0.2158 2.4827 4.375
v -0.3555 4.2271 4.375
v 0.0762 4.2617 4.125
v -0.1648 2.6404 4.125
v 0.1648 2.3596 4.375
v -0.9699 1.0274 4.375
v -1.2996 1.3081 4.125
v -0.206 2.5666 4.125
v 0.206 2.4334 4.375
v -0.3325 0.7683 4.375
v -0.7445 0.9015 4.125
v -0.0986 2.6928 4.125
v 0.0986 2.3072 4.375
v -1.4596 1.5106 4.375
v -1.6567 1.8962 4.125
v -0.1698 2.3657 4.125
v 0.1698 2.6343 4.375
v 1.2551 1.2614 4.375
v 0.9154 0.9929 4.125
v 0.0173 2.2842 4.625
v -0.0173 2.7158 4.375
v -2.2255 2.1046 4.625
v -2.2601 2.5362 4.375
v 0.1928 2.5986 4.625
v -0.1928 2.4014 4.375
v 1.217 0.5952 4.625
v 0.8314 0.3981 4.375
v 0.215 2.4748 4.625
v -0.215 2.5252 4.375
v -0.0464 0.2401 4.625
v -0.4765 0.2904 4.375
v 0.1343 2.3302 4.625
v -0.1343 2.6698 4.375
v -1.6308 0.9348 4.625
v -1.8993 1.2745 4.375
v 0.2083 2.5591 4.625
v -0.2083 2.4409 4.375
v 0.822 0.3944 4.625
v 0.4054 0.2763 4.375
v -0.2083 2.4409 4.625
v 0.2083 2.5591 4.375
v -0.822 4.6056 4.625
v -0.4054 4.7237 4.375
v 0.0173 2.2842 4.625
v -0.0173 2.7158 4.375
v -2.2255 2.1046 4.625
v -2.2601 2.5362 4.375
v 0.1928 2.5986 4.625
v -0.1928 2.4014 4.375
v 1.217 0.5952 4.625
v 0.8314 0.3981 4.375
v 0.215 2.4748 4.625
v -0.215 2.5252 4.375
v -0.0464 0.2401 4.625
v -0.4765 0.2904 4.375
v 0.1343 2.3302 4.625
v -0.1343 2.6698 4.375
v -1.6308 0.9348 4.625
v -1.8993 1.2745 4.375
v 0.2083 2.5591 4.625
v -0.2083 2.4409 4.375
v 0.822 0.3944 4.625
v 0.4054 0.2763 4.375
v -0.2083 2.4409 4.625
v 0.2083 2.5591 4.375
v -0.822 4.6056 4.625
v -0.4054 4.7237 4.375
v 0.2492 2.52 3.5
v 0.1903 2.3379 3.5
v 0.02 2.2508 3.5
v -0.1621 2.3097 3.5
v -0.2492 2.48 3.5
v -0.1903 2.6621 3.5
v -0.02 2.7492 3.5
v 0.1621 2.6903 3.5
v 0.2492 2.52 5.5
v 0.1903 2.3379 5.5
v 0.02 2.2508 5.5
v -0.1621 2.3097 5.5
v -0.2492 2.48 5.5
v -0.1903 2.6621 5.5
v -0.02 2.7492 5.5
v 0.1621 2.6903 5.5
v -0.5646 1.5032 4.125
v -0.3056 3.6041 5.125
v 0.3056 1.3959 5.125
v -0.5646 1.5032 5.125
v -0.9031 1.7951 4.125
v -0.0633 1.6008 4.875
v -0.1402 1.363 4.125
v 0.7049 1.5969 5.125
v -0.1134 3.3942 4.875
v -0.5522 1.7875 4.875
v 0.0843 1.3575 5.125
v -0.8942 2.3866 4.875
v -0.0843 3.6425 4.125
v -0.7483 1.6325 5.125
v 0.8675 1.7517 5.125
v -0.5151 3.5233 5.125
v -0.7828 2.0531 4.875
v -1.0233 1.9849 5.125
v -0.4469 3.2828 4.875
v -0.8943 1.7839 3.875
v -0.3056 3.6041 5.125
v 0.3056 1.3959 5.125
v -0.5646 1.5032 5.125
v -0.9031 1.7951 4.125
v -0.0633 1.6008 4.875
v -0.1402 1.363 4.125
v 0.7049 1.5969 5.125
v -0.1134 3.3942 4.875
v -0.8207 2.1272 4.625
v 0.0843 1.3575 5.125
v -0.8439 2.8167 4.625
v -0.0843 3.6425 4.125
v -1.0168 1.9722 4.875
v 0.5278 1.4832 4.875
v -0.5151 3.5233 5.125
v -0.7828 2.0531 4.875
v -1.1414 2.4015 4.875
v -0.4469 3.2828 4.875
v 0.2856 1.6451 4.375
v -0.2856 3.3549 4.375
v -0.4025 1.6935 4.375
v -0.0633 1.6008 4.375
v -0.6805 1.9089 4.375
v 0.7125 1.9478 4.375
v 0.2856 1.6451 4.375
v -0.2856 3.3549 4.375
v -0.7322 1.9743 4.125
v -0.0633 1.6008 4.375
v -0.6805 1.9089 4.375
v 0.3728 1.6793 4.125
v -1.1041 2.1944 4.625
v 0.7049 1.5969 4.625
v -0.7483 1.6325 4.625
v 0.0843 1.3575 4.625
v 0.5151 1.4767 4.625
v -0.5151 3.5233 4.625
v -1.1041 2.1944 4.625
v 0.3193 1.3998 4.375
v -1.0168 1.9722 4.375
v 0.0843 1.3575 4.625
v 0.5151 1.4767 4.625
v -0.5151 3.5233 4.625
v -0.8943 1.7839 3.875
v 0.126 3.6387 4.875
v -0.126 1.3613 4.875
v 0.3458 3.5922 3.875
v -0.8943 1.7839 4.875
v -1.1002 2.1807 3.875
v -0.4753 1.7341 4.625
v -0.5522 1.4962 3.875
v -0.3983 3.2791 4.75
v -0.2055 3.3776 4.625
v 0.3193 1.3998 4.875
v 0.3167 3.3439 4.625
v -0.8207 2.1272 4.625
v -0.3458 1.4078 4.875
v -0.8439 2.8167 4.625
v 0.3458 3.5922 3.875
v -1.0168 1.9722 4.875
v 0.5278 1.4832 4.875
v -0.0985 3.6414 4.875
v -0.9009 2.4696 4.625
v -1.1414 2.4015 4.875
v -0.0304 3.4009 4.625
v -0.5646 1.5032 4.125
v 0.126 3.6387 4.875
v -0.126 1.3613 4.875
v -0.8943 1.7839 4.875
v -1.1002 2.1807 3.875
v -0.4753 1.7341 4.625
v -0.5522 1.4962 3.875
v 0.3193 1.3998 4.875
v 0.3167 3.3439 4.625
v -0.5522 1.7875 4.875
v -0.3458 1.4078 4.875
v -0.8942 2.3866 4.875
v -0.7483 1.6325 5.125
v 0.8675 1.7517 5.125
v -0.0985 3.6414 4.875
v -0.9009 2.4696 4.625
v -1.0233 1.9849 5.125
v -0.0304 3.4009 4.625
v -0.146 1.6105 4.125
v 0.146 3.3895 4.125
v -0.7322 1.9743 4.125
v -0.4753 1.7341 4.125
v -0.8776 2.2945 4.125
v 0.3728 1.6793 4.125
v -0.146 1.6105 4.125
v 0.146 3.3895 4.125
v -0.4025 1.6935 4.375
v -0.4753 1.7341 4.125
v -0.8776 2.2945 4.125
v 0.7125 1.9478 4.375
v -1.1387 2.626 4.375
v 0.3193 1.3998 4.375
v -1.0168 1.9722 4.375
v -0.3458 1.4078 4.375
v 0.0985 1.3586 4.375
v -0.0985 3.6414 4.375
v -1.1387 2.626 4.375
v 0.7049 1.5969 4.625
v -0.7483 1.6325 4.625
v -0.3458 1.4078 4.375
v 0.0985 1.3586 4.375
v -0.0985 3.6414 4.375
v 0.2492 2.52 4.5
v 0.1903 2.3379 4.5
v 0.02 2.2508 4.5
v -0.1621 2.3097 4.5
v -0.2492 2.48 4.5
v -0.1903 2.6621 4.5
v -0.02 2.7492 4.5
v 0.1621 2.6903 4.5
vt 0.7277 0.5417
vt 0.7106 0.4792
vt 0.7277 0.4792
vt 0.7106 0.5139
vt 0.6936 0.4653
vt 0.7106 0.4653
vt 0.7106 0.5417
vt 0.6936 0.4167
vt 0.7106 0.4167
vt 0.6936 0.5139
vt 0.7277 0.4167
vt 0.7277 0.8056
vt 0.7532 0.816
vt 0.7277 0.816
vt 0.7021 0.4653
vt 0.7277 0.8785
vt 0.7532 0.8889
vt 0.7277 0.8889
vt 0.7532 0.8264
vt 0.7277 0.8264
vt 0.7532 0.8368
vt 0.7277 0.8368
vt 0.7277 0.8681
vt 0.7532 0.8785
vt 0.7277 0.8472
vt 0.7532 0.8576
vt 0.7277 0.8576
vt 0.7532 0.8681
vt 0.7532 0.8472
vt 0.7787 0.8889
vt 0.7532 0.8056
vt 0.7787 0.816
vt 0.7787 0.8264
vt 0.7787 0.8368
vt 0.7787 0.8472
vt 0.7787 0.8576
vt 0.7787 0.8681
vt 0.7787 0.8785
vt 0.7787 0.8056
s 1
f 33/1 287/2 350/3
f 179/4 323/5 387/6
f 336/2 235/1 234/7
f 385/6 157/8 321/5
f 372/3 125/9 307/2
f 331/5 208/9 209/8
f 92/4 300/5 365/6
f 375/3 122/9 310/2
f 351/3 51/7 288/2
f 380/2 155/1 316/3
f 68/4 292/5 357/6
f 379/5 132/4 314/6
f 311/5 140/9 141/8
f 398/3 222/7 334/2
f 381/2 147/1 317/3
f 382/3 161/9 318/2
f 383/6 165/8 319/5
f 384/2 171/1 320/3
f 371/3 110/9 306/2
f 84/4 302/5 367/6
f 386/6 174/10 322/5
f 348/3 19/7 286/2
f 324/5 183/4 182/10
f 401/3 230/7 337/2
f 243/1 339/2 403/3
f 353/3 36/7 290/2
f 335/2 227/1 226/7
f 301/2 96/1 95/7
f 358/6 75/10 293/5
f 359/3 59/7 294/2
f 116/1 309/2 115/7
f 296/2 64/1 63/7
f 406/2 259/1 342/3
f 150/10 312/6 377/5
f 409/3 264/9 345/2
f 29/1 284/2 346/3
f 343/2 253/11 252/9
f 107/7 303/3 368/2
f 328/5 196/9 197/8
f 329/5 200/9 201/8
f 394/5 207/4 330/6
f 352/6 40/10 289/5
f 295/5 56/4 55/10
f 218/10 333/6 397/5
f 298/2 72/1 71/7
f 305/2 97/11 98/9
f 347/3 24/7 285/2
f 308/5 117/9 118/8
f 191/4 326/5 390/6
f 304/2 101/11 102/9
f 340/2 245/11 244/9
f 405/2 251/1 341/3
f 80/1 297/2 362/3
f 396/6 213/8 332/5
f 45/1 291/2 356/3
f 88/1 299/2 364/3
f 391/6 194/10 327/5
f 389/6 186/10 325/5
f 239/1 338/2 402/3
f 313/2 133/11 134/9
f 138/11 315/2 349/3
f 408/3 260/9 344/2
f 143/4 311/5 142/10
f 172/9 322/5 173/8
f 403/3 240/9 241/11
f 364/3 86/9 85/11
f 221/11 334/2 220/9
f 10/12 413/13 8/14
f 119/10 373/6 308/5
f 380/2 152/11 153/9
f 354/15 355/6 48/4
f 53/9 295/5 54/8
f 12/16 414/17 10/18
f 198/10 392/6 328/5
f 46/9 354/15 47/8
f 8/14 412/19 6/20
f 193/8 391/6 327/5
f 224/9 399/3 335/2
f 346/3 26/9 27/11
f 248/9 341/3 249/11
f 65/9 292/5 66/8
f 402/3 236/9 237/11
f 167/4 319/5 166/10
f 163/1 318/2 162/7
f 406/2 257/11 256/9
f 229/11 337/2 228/9
f 169/9 320/3 168/11
f 6/20 411/21 4/22
f 104/1 304/2 103/7
f 49/9 351/3 288/2
f 217/8 333/6 216/9
f 184/9 325/5 185/8
f 105/9 303/3 106/11
f 263/1 344/2 262/7
f 14/23 415/24 12/16
f 203/4 329/5 202/10
f 254/7 407/3 343/2
f 362/3 78/9 77/11
f 379/5 129/9 130/8
f 135/7 378/3 313/2
f 145/9 317/3 144/11
f 149/8 312/6 148/9
f 17/11 286/2 18/9
f 112/1 306/2 111/7
f 22/11 285/2 23/9
f 2/25 417/26 16/27
f 57/11 294/2 58/9
f 267/1 345/2 266/7
f 181/8 388/6 324/5
f 367/6 82/8 81/9
f 390/6 189/8 188/9
f 16/27 416/28 14/23
f 62/11 296/2 61/9
f 94/9 366/3 301/2
f 70/9 363/3 298/2
f 35/11 290/2 34/9
f 4/22 410/29 2/25
f 38/9 289/5 39/8
f 246/7 404/3 340/2
f 74/8 358/6 293/5
f 99/7 370/3 305/2
f 205/8 330/6 204/9
f 21/1 315/2 137/7
f 356/3 43/9 42/11
f 215/4 332/5 214/10
f 415/24 9/30 414/17
f 414/31 7/32 413/13
f 271/32 5/33 7/32
f 270/33 3/34 5/33
f 412/19 3/34 411/21
f 411/21 1/35 410/29
f 268/35 15/36 1/35
f 417/26 13/37 416/28
f 379/5 131/10 132/4
f 380/2 154/7 155/1
f 92/4 91/10 300/5
f 351/3 52/1 51/7
f 68/4 67/10 292/5
f 311/5 376/6 140/9
f 336/2 400/3 235/1
f 385/6 156/9 157/8
f 410/29 15/36 417/26
f 273/38 9/30 11/38
f 413/13 5/33 412/19
f 280/18 12/16 10/18
f 275/36 13/37 15/36
f 272/39 7/32 9/39
f 416/28 11/38 415/24
f 277/22 6/20 4/22
f 269/34 1/35 3/34
f 279/14 10/12 8/14
f 309/2 114/11 113/9
f 281/16 14/23 12/16
f 283/27 2/25 16/27
f 282/23 16/27 14/23
f 274/37 11/38 13/37
f 278/20 8/14 6/20
f 372/3 126/11 125/9
f 33/1 32/7 287/2
f 375/3 121/11 122/9
f 350/3 31/9 30/11
f 179/4 178/10 323/5
f 331/5 395/6 208/9
f 398/3 223/1 222/7
f 128/1 307/2 127/7
f 159/4 321/5 158/10
f 365/6 90/8 89/9
f 124/1 310/2 123/7
f 210/10 395/6 331/5
f 232/9 400/3 336/2
f 176/9 323/5 177/8
f 381/2 146/7 147/1
f 382/3 160/11 161/9
f 276/25 4/22 2/25
f 383/6 164/9 165/8
f 384/2 170/7 171/1
f 371/3 109/11 110/9
f 84/4 83/10 302/5
f 386/6 175/4 174/10
f 348/3 20/1 19/7
f 324/5 388/6 183/4
f 401/3 231/1 230/7
f 243/1 242/7 339/2
f 353/3 37/1 36/7
f 335/2 399/3 227/1
f 301/2 366/3 96/1
f 358/6 76/4 75/10
f 359/3 60/1 59/7
f 116/1 374/3 309/2
f 296/2 361/3 64/1
f 406/2 258/7 259/1
f 150/10 151/4 312/6
f 409/3 265/11 264/9
f 29/1 28/7 284/2
f 343/2 407/3 253/11
f 107/7 108/1 303/3
f 328/5 392/6 196/9
f 329/5 393/6 200/9
f 394/5 206/10 207/4
f 352/6 41/4 40/10
f 295/5 360/6 56/4
f 218/10 219/4 333/6
f 298/2 363/3 72/1
f 305/2 370/3 97/11
f 347/3 25/1 24/7
f 308/5 373/6 117/9
f 191/4 190/10 326/5
f 304/2 369/3 101/11
f 340/2 404/3 245/11
f 405/2 250/7 251/1
f 80/1 79/7 297/2
f 396/6 212/9 213/8
f 45/1 44/7 291/2
f 88/1 87/7 299/2
f 391/6 195/4 194/10
f 389/6 187/4 186/10
f 239/1 238/7 338/2
f 313/2 378/3 133/11
f 138/11 139/9 315/2
f 408/3 261/11 260/9
f 143/4 376/6 311/5
f 172/9 386/6 322/5
f 403/3 339/2 240/9
f 364/3 299/2 86/9
f 221/11 398/3 334/2
f 10/12 414/31 413/13
f 119/10 120/4 373/6
f 380/2 316/3 152/11
f 53/9 360/6 295/5
f 12/16 415/24 414/17
f 198/10 199/4 392/6
f 46/9 355/6 354/15
f 8/14 413/13 412/19
f 193/8 192/9 391/6
f 224/9 225/11 399/3
f 346/3 284/2 26/9
f 248/9 405/2 341/3
f 65/9 357/6 292/5
f 402/3 338/2 236/9
f 167/4 383/6 319/5
f 163/1 382/3 318/2
f 406/2 342/3 257/11
f 229/11 401/3 337/2
f 169/9 384/2 320/3
f 6/20 412/19 411/21
f 104/1 369/3 304/2
f 49/9 50/11 351/3
f 217/8 397/5 333/6
f 184/9 389/6 325/5
f 105/9 368/2 303/3
f 263/1 408/3 344/2
f 14/23 416/28 415/24
f 203/4 393/6 329/5
f 254/7 255/1 407/3
f 362/3 297/2 78/9
f 379/5 314/6 129/9
f 135/7 136/1 378/3
f 145/9 381/2 317/3
f 149/8 377/5 312/6
f 17/11 348/3 286/2
f 112/1 371/3 306/2
f 22/11 347/3 285/2
f 2/25 410/29 417/26
f 57/11 359/3 294/2
f 267/1 409/3 345/2
f 181/8 180/9 388/6
f 367/6 302/5 82/8
f 390/6 326/5 189/8
f 16/27 417/26 416/28
f 62/11 361/3 296/2
f 94/9 93/11 366/3
f 70/9 69/11 363/3
f 35/11 353/3 290/2
f 4/22 411/21 410/29
f 38/9 352/6 289/5
f 246/7 247/1 404/3
f 74/8 73/9 358/6
f 99/7 100/1 370/3
f 205/8 394/5 330/6
f 21/1 349/3 315/2
f 356/3 291/2 43/9
f 215/4 396/6 332/5
f 415/24 11/38 9/30
f 414/31 9/39 7/32
f 271/32 270/33 5/33
f 270/33 269/34 3/34
f 412/19 5/33 3/34
f 411/21 3/34 1/35
f 268/35 275/36 15/36
f 417/26 15/36 13/37
f 410/29 1/35 15/36
f 273/38 272/30 9/30
f 413/13 7/32 5/33
f 280/18 281/16 12/16
f 275/36 274/37 13/37
f 272/39 271/32 7/32
f 416/28 13/37 11/38
f 277/22 278/20 6/20
f 269/34 268/35 1/35
f 279/14 280/12 10/12
f 309/2 374/3 114/11
f 281/16 282/23 14/23
f 283/27 276/25 2/25
f 282/23 283/27 16/27
f 274/37 273/38 11/38
f 278/20 279/14 8/14
f 350/3 287/2 31/9
f 128/1 372/3 307/2
f 159/4 385/6 321/5
f 365/6 300/5 90/8
f 124/1 375/3 310/2
f 210/10 211/4 395/6
f 232/9 233/11 400/3
f 176/9 387/6 323/5
f 276/25 277/22 4/22
o Body
v -2.5 0 5.5
v 2.5 0 5.5
v -2.5 0 3.5
v 2.5 0 3.5
v -1.5 0 6.5
v 1.5 0 6.5
v -0.0771 5.1367 2.7878
v -1.0424 4.882 3.0044
v -1.9184 4.2534 3.1541
v -2.3725 3.449 3.3624
v -2.5 2.5 3.5
v 2.5 2.5 3.5
v 2.3097 3.4567 3.5
v 1.7655 4.2717 3.4794
v 0.913 4.8872 3.0964
v 2.25 2.5 3.75
v 2.0787 1.639 3.75
v 1.591 0.909 3.75
v 0.861 0.4213 3.75
v 0 0.25 3.75
v -0.861 0.4213 3.75
v -1.591 0.909 3.75
v -2.0787 1.639 3.75
v -2.25 2.5 3.75
v 0.121 3.9761 6.7577
v -0.607 3.8452 6.7351
v -1.254 3.5081 6.6953
v -1.5029 3.0439 6.6076
v -1.5101 2.4974 6.5093
v 1.5 2.5 6.5
v 1.3858 3.074 6.5
v 1.067 3.5594 6.5124
v 0.6454 3.8719 6.6403
v -0.0743 4.8818 2.8137
v -0.951 4.6522 2.9887
v -1.7348 4.0811 3.1557
v -2.1435 3.353 3.358
v -2.25 2.5 3.5
v -2.25 2.5 2.5
v -2.085 3.3603 2.4863
v -1.6235 4.087 2.4288
v -0.8768 4.6032 2.3674
v -0.0288 4.8011 2.2338
v 2.25 0 3.5
v -2.25 0 3.5
v 2.25 2.5 3.5
v 2.0787 3.361 3.5
v 1.5869 4.0983 3.462
v 0.8164 4.6578 3.088
v 2.25 0 2.5
v -2.25 0 2.5
v 2.25 2.5 2.5
v 2.0787 3.361 2.5
v 1.591 4.091 2.5
v 0.8471 4.6034 2.3715
v -1.5 0 2.5
v 1.5 0 2.5
v -0.0128 4.0227 2.3817
v -0.5805 3.8973 2.4404
v -1.0655 3.5601 2.4894
v -1.3859 3.074 2.4999
v -1.5 2.5 2.5
v 1.5 2.5 2.5
v 1.3858 3.074 2.5
v 1.0607 3.5607 2.5
v 0.5676 3.8973 2.4404
v -1.5 -0 -3.5
v 1.5 -0 -3.5
v -0.574 3.8858 -3.5
v 0 4 -3.5
v -1.0607 3.5607 -3.5
v -1.3858 3.074 -3.5
v -1.5 2.5 -3.5
v 1.5 2.5 -3.5
v 1.3858 3.074 -3.5
v 1.0607 3.5607 -3.5
v 0.574 3.8858 -3.5
v -1.5 -0 -3.75
v 1.5 -0 -3.75
v -1.5 -0 -7.25
v 1.5 -0 -7.25
v -1.5 2.25 -3.75
v 1.5 2.25 -3.75
v -1.5 2.25 -7.25
v 1.5 2.25 -7.25
v -1.25 2.5 -3.75
v 1.25 2.5 -3.75
v -1.25 2.5 -7.25
v 1.25 2.5 -7.25
v 1 -0 -3.75
v 1 2.25 -3.75
v -1 -0 -3.75
v -1 2.25 -3.75
v 1 2.25 -3.25
v 1 -0 -3.25
v -1 -0 -3.25
v -1 2.25 -3.25
v -0.1875 0.3125 -7.25
v 0.1875 0.3125 -7.25
v -0.1875 0.6875 -7.25
v 0.1875 0.6875 -7.25
v -0.1875 0.6875 -7.5
v -0.1875 0.3125 -7.5
v 0.1875 0.3125 -7.5
v 0.1875 0.6875 -7.5
v 0 3.75 -3.5
v -0.4784 3.6549 -3.5
v -0.8839 3.3839 -3.5
v -1.1548 2.9784 -3.5
v -1.25 2.5 -3.5
v 1.25 -0 -3.5
v -1.25 -0 -3.5
v 1.25 2.5 -3.5
v 1.1548 2.9784 -3.5
v 0.8839 3.3839 -3.5
v 0.4784 3.6549 -3.5
v -1.25 -0 -3.25
v -1.25 2.5 -3.25
v -0.4784 3.6549 -3.25
v 0 3.75 -3.25
v -0.8839 3.3839 -3.25
v -1.1548 2.9784 -3.25
v 1.25 2.5 -3.25
v 1.25 -0 -3.25
v 1.1548 2.9784 -3.25
v 0.8839 3.3839 -3.25
v 0.4784 3.6549 -3.25
v 0.0087 2.9982 7.0178
v -0.1942 2.9587 7.0184
v -0.3681 2.8497 7.0142
v -0.4711 2.689 7.0084
v -0.5005 2.4999 7.0005
v -0.4619 2.3087 7
v -0.3536 2.1464 7
v -0.1913 2.0381 7
v 0 2 7
v 0.1913 2.0381 7
v 0.3536 2.1464 7
v 0.4619 2.3087 7
v 0.5 2.5 7
v 0.4619 2.6913 7
v 0.3539 2.8535 7.0006
v 0.1968 2.9609 7.0108
v -0.1916 2.9617 7.2515
v 0.0017 2.9997 7.2533
v -0.3563 2.8528 7.2525
v -0.4627 2.6912 7.2507
v -0.5 2.5 7.25
v -0.4619 2.3087 7.25
v -0.3536 2.1464 7.25
v -0.1913 2.0381 7.25
v 0 2 7.25
v 0.1913 2.0381 7.25
v 0.3536 2.1464 7.25
v 0.4619 2.3087 7.25
v 0.5 2.5 7.25
v 0.4619 2.6913 7.25
v 0.3536 2.8536 7.25
v 0.1918 2.9619 7.2509
v -0.1443 2.8458 6.9979
v 0.0023 2.8745 6.9986
v -0.2692 2.7641 6.9977
v -0.3484 2.643 6.9958
v -0.375 2.5 6.994
v -0.3465 2.3565 6.994
v -0.2652 2.2348 6.994
v -0.1435 2.1535 6.994
v 0 2.125 6.994
v 0.1435 2.1535 6.994
v 0.2652 2.2348 6.994
v 0.3465 2.3565 6.994
v 0.375 2.5 6.994
v 0.3465 2.6435 6.994
v 0.2652 2.7652 6.994
v 0.1446 2.8462 6.9962
v -0.1875 2.3125 6.994
v 0.1875 2.3125 6.994
v -0.1875 2.6875 6.994
v 0.1875 2.6875 6.994
v -0.1875 2.6875 7.494
v -0.1875 2.3125 7.494
v 0.1875 2.3125 7.494
v 0.1875 2.6875 7.494
v 0.0702 3.4837 6.9043
v -0.3983 3.3965 6.9133
v -0.8183 3.1737 6.8828
v -1.0093 2.8607 6.8285
v -1.0176 2.4955 6.7662
v -0.9239 2.1173 6.75
v -0.7071 1.7929 6.75
v -0.3827 1.5761 6.75
v 0 1.5 6.75
v 0.3827 1.5761 6.75
v 0.7071 1.7929 6.75
v 0.9239 2.1173 6.75
v 1 2.5 6.75
v 0.9239 2.8827 6.75
v 0.7179 3.205 6.7711
v 0.4345 3.4138 6.8519
v 0.0722 3.4813 6.6713
v -0.4069 3.392 6.6858
v -0.8294 3.1699 6.6489
v -1.0182 2.8584 6.5867
v -1.0213 2.4945 6.5196
v -0.9239 2.1173 6.5
v -0.7071 1.7929 6.5
v -0.3827 1.5761 6.5
v 0 1.5 6.5
v 0.3827 1.5761 6.5
v 0.7071 1.7929 6.5
v 0.9239 2.1173 6.5
v 1 2.5 6.5
v 0.9239 2.8827 6.5
v 0.7199 3.2046 6.5252
v 0.4396 3.4128 6.6119
v 2.25 0.6875 3.1875
v 2.25 0.3125 3.1875
v 2.25 0.6875 2.8125
v 2.25 0.3125 2.8125
v 2.5 0.6875 2.8125
v 2.5 0.6875 3.1875
v 2.5 0.3125 3.1875
v 2.5 0.3125 2.8125
v -2.25 0.6875 3.1875
v -2.25 0.3125 3.1875
v -2.25 0.6875 2.8125
v -2.25 0.3125 2.8125
v -2.5 0.6875 2.8125
v -2.5 0.6875 3.1875
v -2.5 0.3125 3.1875
v -2.5 0.3125 2.8125
v -0.0801 5.1421 3.0099
v -1.0574 4.8835 3.2092
v -1.927 4.253 3.3828
v -2.3758 3.4486 3.6051
v -2.5 2.5 3.75
v 2.5 2.5 3.75
v 2.3097 3.4567 3.75
v 1.7652 4.2723 3.7262
v 0.9113 4.8903 3.3302
v -0.0589 4.9145 6.3712
v -1.197 4.6217 6.0815
v -1.8459 4.2551 5.6787
v -2.3179 3.4614 5.315
v -2.5 2.5 5.25
v 2.5 2.5 5.25
v 2.3097 3.4567 5.25
v 1.7715 4.2647 5.3135
v 0.9674 4.784 5.7403
v -2.25 2.5 3.75
v -2.0787 1.639 3.75
v -1.591 0.909 3.75
v -0.861 0.4213 3.75
v 0 0.25 3.75
v 0.861 0.4213 3.75
v 1.591 0.909 3.75
v 2.0787 1.639 3.75
v 2.25 2.5 3.75
v -2.25 2.5 5.25
v -2.0787 1.639 5.25
v -1.591 0.909 5.25
v -0.861 0.4213 5.25
v 0 0.25 5.25
v 0.861 0.4213 5.25
v 1.591 0.909 5.25
v 2.0787 1.639 5.25
v 2.25 2.5 5.25
v 2.5 0 5
v 2.5 0 4
v 2.75 0 5
v 2.75 0 4
v 2.5 0.125 5
v 2.5 0.125 4
v 2.75 0.125 5
v 2.75 0.125 4
v 2.5 0.25 4.75
v 2.5 0.25 4.25
v 2.75 0.25 4.75
v 2.75 0.25 4.25
v 2.52 1 5
v 2.52 1 4
v 2.52 2 5
v 2.52 2 4
v -1.5 0 2.5
v 1.5 0 2.5
v -0.0128 4.0227 2.3817
v -0.5805 3.8973 2.4404
v -1.0655 3.5601 2.4894
v -1.3859 3.074 2.4999
v -1.5 2.5 2.5
v 1.5 2.5 2.5
v 1.3858 3.074 2.5
v 1.0607 3.5607 2.5
v 0.5676 3.8973 2.4404
v -1.5 -0 -3.5
v 1.5 -0 -3.5
v -0.574 3.8858 -3.5
v 0 4 -3.5
v -1.0607 3.5607 -3.5
v -1.3858 3.074 -3.5
v -1.5 2.5 -3.5
v 1.5 2.5 -3.5
v 1.3858 3.074 -3.5
v 1.0607 3.5607 -3.5
v 0.574 3.8858 -3.5
v 0 3.75 -3.5
v -0.4784 3.6549 -3.5
v -0.8839 3.3839 -3.5
v -1.1548 2.9784 -3.5
v -1.25 2.5 -3.5
v 1.25 -0 -3.5
v -1.25 -0 -3.5
v 1.25 2.5 -3.5
v 1.1548 2.9784 -3.5
v 0.8839 3.3839 -3.5
v 0.4784 3.6549 -3.5
v -1.25 -0 -3.25
v -1.25 2.5 -3.25
v -0.4784 3.6549 -3.25
v 0 3.75 -3.25
v -0.8839 3.3839 -3.25
v -1.1548 2.9784 -3.25
v 1.25 2.5 -3.25
v 1.25 -0 -3.25
v 1.1548 2.9784 -3.25
v 0.8839 3.3839 -3.25
v 0.4784 3.6549 -3.25
v -0.0743 4.8818 2.8137
v -0.951 4.6522 2.9887
v -1.7348 4.0811 3.1557
v -2.1435 3.353 3.358
v -2.25 2.5 3.5
v -2.25 2.5 2.5
v -2.085 3.3603 2.4863
v -1.6235 4.087 2.4288
v -0.8768 4.6032 2.3674
v -0.0288 4.8011 2.2338
v 2.25 0 3.5
v -2.25 0 3.5
v 2.25 2.5 3.5
v 2.0787 3.361 3.5
v 1.5869 4.0983 3.462
v 0.8164 4.6578 3.088
v 2.25 0 2.5
v -2.25 0 2.5
v 2.25 2.5 2.5
v 2.0787 3.361 2.5
v 1.591 4.091 2.5
v 0.8471 4.6034 2.3715
v -2.5 0 5.5
v 2.5 0 5.5
v -1.5 0 6.5
v 1.5 0 6.5
v -0.0358 4.9337 6.5033
v -1.1764 4.635 6.2278
v -1.8438 4.2547 5.8972
v -2.3179 3.4614 5.565
v -2.5 2.5 5.5
v 2.5 2.5 5.5
v 2.3097 3.4567 5.5
v 1.7712 4.265 5.5586
v 0.9677 4.7866 5.9457
v 0.121 3.9761 6.7577
v -0.607 3.8452 6.7351
v -1.254 3.5081 6.6953
v -1.5029 3.0439 6.6076
v -1.5101 2.4974 6.5093
v 1.5 2.5 6.5
v 1.3858 3.074 6.5
v 1.067 3.5594 6.5124
v 0.6454 3.8719 6.6403
v -2.5 0 5.5
v 2.5 0 5.5
v -2.5 0 3.5
v 2.5 0 3.5
v -0.0771 5.1367 2.7878
v -1.0424 4.882 3.0044
v -1.9184 4.2534 3.1541
v -2.3725 3.449 3.3624
v -2.5 2.5 3.5
v 2.5 2.5 3.5
v 2.3097 3.4567 3.5
v 1.7655 4.2717 3.4794
v 0.913 4.8872 3.0964
v -0.0358 4.9337 6.5033
v -1.1764 4.635 6.2278
v -1.8438 4.2547 5.8972
v -2.3179 3.4614 5.565
v -2.5 2.5 5.5
v 2.5 2.5 5.5
v 2.3097 3.4567 5.5
v 1.7712 4.265 5.5586
v 0.9677 4.7866 5.9457
v -0.0801 5.1421 3.0099
v -1.0574 4.8835 3.2092
v -1.927 4.253 3.3828
v -2.3758 3.4486 3.6051
v -2.5 2.5 3.75
v 2.5 2.5 3.75
v 2.3097 3.4567 3.75
v 1.7652 4.2723 3.7262
v 0.9113 4.8903 3.3302
v -0.0589 4.9145 6.3712
v -1.197 4.6217 6.0815
v -1.8459 4.2551 5.6787
v -2.3179 3.4614 5.315
v -2.5 2.5 5.25
v 2.5 2.5 5.25
v 2.3097 3.4567 5.25
v 1.7715 4.2647 5.3135
v 0.9674 4.784 5.7403
v -2.25 2.5 5.25
v -2.0787 1.639 5.25
v -1.591 0.909 5.25
v -0.861 0.4213 5.25
v 0 0.25 5.25
v 0.861 0.4213 5.25
v 1.591 0.909 5.25
v 2.0787 1.639 5.25
v 2.25 2.5 5.25
v -0.1916 2.9617 7.2515
v 0.0017 2.9997 7.2533
v -0.3563 2.8528 7.2525
v -0.4627 2.6912 7.2507
v -0.5 2.5 7.25
v -0.4619 2.3087 7.25
v -0.3536 2.1464 7.25
v -0.1913 2.0381 7.25
v 0 2 7.25
v 0.1913 2.0381 7.25
v 0.3536 2.1464 7.25
v 0.4619 2.3087 7.25
v 0.5 2.5 7.25
v 0.4619 2.6913 7.25
v 0.3536 2.8536 7.25
v 0.1918 2.9619 7.2509
v -0.1435 2.8465 7.25
v 0 2.875 7.25
v -0.2652 2.7652 7.25
v -0.3465 2.6435 7.25
v -0.375 2.5 7.25
v -0.3465 2.3565 7.25
v -0.2652 2.2348 7.25
v -0.1435 2.1535 7.25
v 0 2.125 7.25
v 0.1435 2.1535 7.25
v 0.2652 2.2348 7.25
v 0.3465 2.3565 7.25
v 0.375 2.5 7.25
v 0.3465 2.6435 7.25
v 0.2652 2.7652 7.25
v 0.1435 2.8465 7.25
v 0.0087 2.9982 7.0178
v -0.1942 2.9587 7.0184
v -0.3681 2.8497 7.0142
v -0.4711 2.689 7.0084
v -0.5005 2.4999 7.0005
v -0.4619 2.3087 7
v -0.3536 2.1464 7
v -0.1913 2.0381 7
v 0 2 7
v 0.1913 2.0381 7
v 0.3536 2.1464 7
v 0.4619 2.3087 7
v 0.5 2.5 7
v 0.4619 2.6913 7
v 0.3539 2.8535 7.0006
v 0.1968 2.9609 7.0108
v 0.0702 3.4837 6.9043
v -0.3983 3.3965 6.9133
v -0.8183 3.1737 6.8828
v -1.0093 2.8607 6.8285
v -1.0176 2.4955 6.7662
v -0.9239 2.1173 6.75
v -0.7071 1.7929 6.75
v -0.3827 1.5761 6.75
v 0 1.5 6.75
v 0.3827 1.5761 6.75
v 0.7071 1.7929 6.75
v 0.9239 2.1173 6.75
v 1 2.5 6.75
v 0.9239 2.8827 6.75
v 0.7179 3.205 6.7711
v 0.4345 3.4138 6.8519
v -0.1435 2.8465 7.25
v 0 2.875 7.25
v -0.2652 2.7652 7.25
v -0.3465 2.6435 7.25
v -0.375 2.5 7.25
v -0.3465 2.3565 7.25
v -0.2652 2.2348 7.25
v -0.1435 2.1535 7.25
v 0 2.125 7.25
v 0.1435 2.1535 7.25
v 0.2652 2.2348 7.25
v 0.3465 2.3565 7.25
v 0.375 2.5 7.25
v 0.3465 2.6435 7.25
v 0.2652 2.7652 7.25
v 0.1435 2.8465 7.25
v -0.1443 2.8458 6.9979
v 0.0023 2.8745 6.9986
v -0.2692 2.7641 6.9977
v -0.3484 2.643 6.9958
v -0.375 2.5 6.994
v -0.3465 2.3565 6.994
v -0.2652 2.2348 6.994
v -0.1435 2.1535 6.994
v 0 2.125 6.994
v 0.1435 2.1535 6.994
v 0.2652 2.2348 6.994
v 0.3465 2.3565 6.994
v 0.375 2.5 6.994
v 0.3465 2.6435 6.994
v 0.2652 2.7652 6.994
v 0.1446 2.8462 6.9962
v 1.0533 2.0123 4.7317
v 0.8752 1.6975 4.3865
v 3.0403 0.9586 4.6677
v 2.8622 0.6438 4.3225
v 1.0533 2.0123 4.7317
v 0.8752 1.6975 4.3865
v 3.0403 0.9586 4.6677
v 2.8622 0.6438 4.3225
v 0.8687 2.2751 4.5294
v 0.8609 1.9091 4.1387
v 2.8461 1.495 4.2237
v 2.6818 1.2344 3.8299
v 0.8687 2.2751 4.5294
v 0.8609 1.9091 4.1387
v 2.8461 1.495 4.2237
v 2.6818 1.2344 3.8299
v 0.8472 2.4917 4.8233
v 0.4931 2.1745 4.6359
v 2.7231 2.1745 5.2185
v 2.6693 1.7303 4.9953
v 0.8472 2.4917 4.8233
v 0.4931 2.1745 4.6359
v 2.7231 2.1745 5.2185
v 2.6693 1.7303 4.9953
v -0.7157 1.9783 4.6814
v -0.9209 2.3759 4.4582
v -2.7652 1.1223 5.0409
v -2.9704 1.5199 4.8177
v -0.7157 1.9783 4.6814
v -0.9209 2.3759 4.4582
v -2.7652 1.1223 5.0409
v -2.9704 1.5199 4.8177
v 2.25 1.25 3.5
v -0.5 0 6
v 0 0 5.5
v 0.123 3.0041 6.5976
v -0.0051 2.4987 6.5047
v -2.25 1.25 3.5
v 1.5 1.25 2.5
v -2.25 1.25 2.5
v 1.5 1.25 -3.5
v 0 0 2.5
v 2.375 0 4.5
v 0 -0 -3.75
v 1.5 -0 -5.5
v -1.5 2.25 -5.5
v -1.5 -0 -5.5
v -1.5 1.125 -7.25
v -1.375 1.25 -3.75
v 1.5 1.125 -3.75
v 1.25 2.5 -5.5
v 0 2.5 -3.75
v 1.5 2.25 -5.5
v 1 1.125 -3.75
v 0 -0 -3.75
v -1 1.125 -3.75
v 0 2.25 -3.75
v -1.25 1.25 -3.5
v 0 2.5 -3.25
v -0.625 3.125 -3.25
v 0.625 3.125 -3.25
v -1.375 -0 -0.375
v 0 -0 -3.25
v 2.5 2.5 4.5
v -2.5 2.5 4.5
v 0 0.909 3.75
v 1.9205 1.7045 3.75
v -0.365 0.6651 5.25
v -1.9205 1.7045 5.25
v -0.6945 1.4606 5.25
v 2.0076 3.3862 3.7381
v -2.048 3.3775 5.4644
v -1.7235 3.5608 5.6657
v 0 -0 -7.25
v 1.375 1.25 -7.25
v 2.5 1.25 3.5
v 0 0 6.5
v 1.5 1.25 6.5
v 1.0727 3.1859 6.5702
v 0.8105 3.238 6.6288
v -1.5051 1.2487 6.5047
v -2.5 1.25 3.5
v 2.25 1.25 2.5
v -1.5 1.25 2.5
v 1.25 1.25 -3.5
v 0 0 3.5
v -2.375 0 4.5
v -2.5 0 4.5
v 2.5 0 4.5
v -1.25 2.5 -5.5
v -1.5 1.125 -3.75
v 1.375 1.25 -3.75
v 1.5 1.125 -7.25
v 0 2.5 -7.25
v 1 1.125 -3.25
v 0 -0 -3.25
v -1 1.125 -3.25
v 0 2.25 -3.25
v -1.5 1.25 -3.5
v -1.25 1.25 -3.25
v 1.25 1.25 -3.25
v 1.5 -0 -0.5
v 1.375 -0 -0.375
v -1.5 -0 -0.5
v 2.25 2.5 4.5
v -2.25 2.5 4.5
v 0.0856 2.0695 3.75
v -0.7955 0.5795 3.75
v -0.365 0.6651 3.75
v -0.0856 2.0695 5.25
v -0.3295 1.7045 5.25
v -0 0.4213 5.25
v 1.5806 3.6951 3.5401
v 1.0849 3.821 3.38
v -1.1651 3.821 3.38
v -1.6537 3.6917 3.4796
v -2.0885 3.3765 3.5664
v -1.1544 3.7073 5.8106
v 1.0956 3.7073 5.8106
v 1.6087 3.642 5.4951
v 2.0107 3.3824 5.2817
v -1.375 1.25 -7.25
v -2.5 1.25 5.5
v 1.5 1.25 6.5
v -1.25 1.25 -3.5
v 1.25 1.25 -3.5
v -2.25 1.25 3.5
v 2.25 1.25 3.5
v -2.25 2.5 4.5
v -2.0787 1.639 4.5
v -1.591 0.909 4.5
v -0.861 0.4213 4.5
v 0 0.25 4.5
v 0.861 0.4213 4.5
v 1.591 0.909 4.5
v 2.0787 1.639 4.5
v 0.5708 3.8915 -0.5298
v -1.5 1.25 2.5
v -1.5 -0 -0.5
v -1.3858 3.074 -0.5
v -0.0064 4.0114 -0.5592
v 1.3858 3.074 -0.5
v -1.5 2.5 -0.5
v -0.5772 3.8915 -0.5298
v 1.0607 3.5607 -0.5
v 1.5 1.25 2.5
v 1.5 2.5 -0.5
v -1.0631 3.5604 -0.5053
v 2.5 1.25 3.625
v 2.5 2.5 4.5
v -2.5 1.25 3.625
v -2.5 1.25 3.5
v -1.5051 1.2487 6.5047
v 2.5 1.25 5.5
v -1.25 1.25 -3.25
v 1.25 1.25 -3.25
v -2.25 1.25 2.5
v 2.25 1.25 2.5
v 2.25 2.5 4.5
v -1.5 1.25 -3.5
v 1.5 -0 -0.5
v 1.5 1.25 -3.5
v 2.5 1.25 5.5
v 2.5 1.25 5.375
v 2.5 0 4.5
v 2.5 1.25 3.5
v -2.5 0 4.5
v -2.5 1.25 5.375
v -2.5 1.25 5.5
v -2.5 2.5 4.5
v 2.0468 1.4855 4.6997
v 1.8687 1.1706 4.3545
v 1.8687 1.1706 4.3545
v 2.0468 1.4855 4.6997
v 1.8574 1.885 4.3766
v 1.7713 1.5718 3.9843
v 1.7713 1.5718 3.9843
v 1.8574 1.885 4.3766
v 1.7851 2.3331 5.0209
v 1.5812 1.9524 4.8156
v 1.5812 1.9524 4.8156
v 1.7851 2.3331 5.0209
v -1.7405 1.5503 4.8611
v -1.9457 1.9479 4.6379
v -1.9457 1.9479 4.6379
v -1.7405 1.5503 4.8611
v 0 1.25 -3.75
v 1.5 1.25 -0.5
v 0 0 4.5
v 0 -0 -0.375
v 0 1.25 -7.25
v -0.0025 1.2493 6.5023
v 0 -0 -5.5
v -1.5 1.125 -5.5
v -2.5 1.25 4.5
v 0 1.25 -3.25
v -1.5 1.25 -0.5
v 0 2.5 -5.5
v 2.5 1.25 4.5
v 1.5 1.125 -5.5
v 1.0031 1.887 3.75
v 0.5 0 6.25
v 1.25 0 5.5
v 0.7475 2.4993 6.5023
v -1.5 0 1
v 0.7487 1.2497 6.5012
v 0.9602 1.3068 3.75
v -0.75 0 6.5
v 0.75 0 2.5
v 0.75 -0 -3.75
v 1.5 -0 -6.375
v -1.5 2.25 -6.375
v 0 -0 -6.375
v -1.5 -0 -6.375
v 1.25 2.5 -6.375
v 1.5 2.25 -6.375
v -0.7538 1.249 6.5035
v -1.25 2.5 -4.625
v -0.9965 1.8542 3.75
v 1.4375 0 1.0625
v 1.5 0 1
v 1.0607 3.5607 1
v -1.3125 -0 -1.8125
v 1.5 0 1
v -1.5 1.125 -6.375
v -1.5 1.125 -4.625
v 0 -0 -4.625
v 0 0 1.0625
v 1.125 0 3.5
v 0.7955 0.909 3.75
v 0.0833 0.941 5.25
v 1.1875 0 4.5
v -1.1875 0 4.5
v 0.75 -0 -7.25
v 0.75 0 6.5
v -1.125 0 3.5
v -1.25 2.5 -6.375
v 1.5 -0 -2
v 1.3125 -0 -1.8125
v -1.5 -0 -2
v -0.7576 2.498 6.507
v 1.1678 2.2847 3.75
v 0.9965 1.8542 5.25
v -1.5 0 5.75
v 0.6307 1.3068 5.25
v 1.6675 3.1605 3.565
v -1.7075 3.1605 3.565
v -1.7022 3.1036 5.5303
v 1.6728 3.1036 5.5303
v -1.4375 0 1.0625
v -1.5 2.25 -4.625
v -1.5 -0 -4.625
v 1.5 -0 -4.625
v -0.75 -0 -7.25
v 1.5 2.25 -4.625
v -0.62 2.8884 5.5303
v -0.7955 0.909 3.75
v 1.25 2.5 -4.625
v -1.0643 3.5602 0.9921
v 0.5183 4.3109 6.0909
v -1.5 2.5 1
v 0.75 -0 -5.5
v -0.75 -0 -5.5
v -1.5 0 1
v -0.5789 3.8944 0.9553
v 1.5 2.5 1
v 0.5024 4.4816 3.1949
v -0.6226 4.4816 3.1949
v -0.6067 4.3109 6.0909
v -1.2898 2.1023 5.25
v 0 -0 -1.8125
v -1.1678 2.2847 5.25
v -1.3858 3.074 0.9999
v -0.0294 3.7073 5.8106
v 1.5 1.25 -2
v 1.5 1.25 1
v 0.505 2.8884 5.5303
v -0.0096 4.017 0.9113
v 0.5724 3.8887 -2.0149
v -1.5 -0 -2
v -1.3858 3.074 -2
v 0.5692 3.8944 0.9553
v -0.0032 4.0057 -2.0296
v 1.3858 3.074 -2
v -1.5 2.5 -2
v -0.5756 3.8887 -2.0149
v 1.0607 3.5607 -2
v 1.5 2.5 -2
v 1.3858 3.074 1
v -1.0619 3.5605 -2.0026
v -0.75 -0 -3.75
v -1.25 0 5.5
v 1.5 -0 -2
v -1.4722 1.9803 5.25
v -0.75 0 2.5
v -1.1427 1.1848 5.25
v 0.5853 2.9453 3.565
v -0.0401 3.821 3.38
v -0.5397 2.9453 3.565
v -1.5 1.25 1
v -1.5 1.25 -2
v 0 2.5 -4.625
v 0 2.5 -6.375
v 1.5 1.125 -4.625
v 1.5 1.125 -6.375
v -0.75 -0 -4.625
v 0.75 -0 -6.375
v -0.75 -0 -6.375
v 0.75 -0 -4.625
v -1.5 0 0.25
v 1.5 0 0.25
v 1.0607 3.5607 0.25
v 1.5 0 0.25
v 1.5 -0 -2.75
v -1.5 -0 -2.75
v -1.5 2.5 0.25
v -1.5 0 0.25
v 1.5 2.5 0.25
v 1.5 1.25 -1.25
v 1.5 1.25 1.75
v -1.5 -0 -2.75
v 1.3858 3.074 -2.75
v -1.5 2.5 -2.75
v 1.0607 3.5607 -2.75
v 1.5 2.5 -2.75
v 1.3858 3.074 0.25
v 1.5 -0 -2.75
v -1.5 1.25 1.75
v -1.5 1.25 -1.25
v -1.5 0 1.75
v 1.5 0 1.75
v 1.0607 3.5607 1.75
v 1.5 0 1.75
v 1.5 -0 -1.25
v -1.5 -0 -1.25
v -1.5 2.5 1.75
v -1.5 0 1.75
v 1.5 2.5 1.75
v 1.5 1.25 -2.75
v 1.5 1.25 0.25
v -1.5 -0 -1.25
v 1.3858 3.074 -1.25
v -1.5 2.5 -1.25
v 1.0607 3.5607 -1.25
v 1.5 2.5 -1.25
v 1.3858 3.074 1.75
v 1.5 -0 -1.25
v -1.5 1.25 0.25
v -1.5 1.25 -2.75
v 1.0938 0 1.7812
v 0.375 0 1.7812
v -0.375 0 1.7812
v -1.0938 0 1.7812
vt 0.3277 0.2778
vt 0.3532 0.3472
vt 0.3277 0.3472
vt 0.2085 0.0556
vt 0.217 -0
vt 0.217 0.0694
vt 0.1266 0.4462
vt 0.1447 0.4167
vt 0.1702 0.4167
vt 0.6234 0.5625
vt 0.6191 0.5521
vt 0.6234 0.5521
vt 0.5574 0.4479
vt 0.566 0.4757
vt 0.5575 0.4786
vt 0.6234 0.4896
vt 0.6191 0.5
vt 0.6191 0.4896
vt 0.5574 0.4167
vt 0.566 0.4444
vt 0.5575 0.5106
vt 0.566 0.5382
vt 0.5574 0.5417
vt 0.6191 0.75
vt 0.6234 0.7396
vt 0.6234 0.75
vt 0.6234 0.625
vt 0.6191 0.6146
vt 0.6234 0.6146
vt 0.6191 0.7083
vt 0.6234 0.6979
vt 0.6234 0.7083
vt 0.5574 0.6354
vt 0.566 0.6632
vt 0.5574 0.6667
vt 0.6319 0.6354
vt 0.6511 0.6528
vt 0.6319 0.6458
vt 0.6511 0.6111
vt 0.6596 0.6319
vt 0.6511 0.6319
vt 0.3532 0.6493
vt 0.3277 0.691
vt 0.3277 0.6424
vt 0.6319 0.7188
vt 0.6511 0.7361
vt 0.6319 0.7292
vt 0.6319 0.6562
vt 0.6511 0.6736
vt 0.6319 0.6667
vt 0.6191 0.6875
vt 0.6234 0.6771
vt 0.6234 0.6875
vt 0.3277 0.5312
vt 0.2936 0.5799
vt 0.2936 0.5312
vt 0.0383 0.1944
vt 0.0255 0.1806
vt 0.0383 0.1806
vt 0.0255 0.2153
vt 0.0383 0.2292
vt 0.0255 0.2292
vt 0.532 0.4787
vt 0.5319 0.4479
vt 0.2851 0.75
vt 0.2766 0.6944
vt 0.2851 0.6944
vt 0.3532 0.7049
vt 0.3277 0.7465
vt 0.3277 0.6979
vt 0.6511 0.6944
vt 0.6319 0.7083
vt 0.6319 0.6979
vt 0.7106 0.5417
vt 0.7277 0.4792
vt 0.7106 0.4792
vt 0.3532 0.5694
vt 0.3532 0.5382
vt 0.2936 0.6979
vt 0.2936 0.7465
vt 0.566 0.5069
vt 0.566 0.4792
vt 0.2936 0.4201
vt 0.2851 0.4722
vt 0.2851 0.4167
vt 0.6596 0.7569
vt 0.6511 0.7778
vt 0.6511 0.7569
vt 0.7277 0.4167
vt 0.7106 0.4167
vt 0.1702 0.4271
vt 0.217 0.4722
vt 0.1702 0.4583
vt 0.6234 0.5208
vt 0.6319 0.5104
vt 0.6319 0.5208
vt 0.0255 0.2431
vt 0.017 0.2639
vt 0.017 0.2431
vt 0.8085 0.4028
vt 0.7787 0.3403
vt 0.8085 0.3403
vt 0.2511 0.3472
vt 0.2766 0.4167
vt 0.2511 0.4167
vt 0.6596 0.5486
vt 0.6511 0.5694
vt 0.6511 0.5486
vt 0.1489 0.2778
vt 0.183 0.2222
vt 0.183 0.2778
vt 0.0255 0.2639
vt 0.0383 0.2778
vt 0.0255 0.2778
vt 0.2511 0.4306
vt 0.2255 0.4167
vt 0.2766 0.8472
vt 0.2511 0.8611
vt 0.2511 0.8472
vt 0.0851 0.2778
vt 0.0894 0.2639
vt 0.0894 0.2778
vt 0.6234 0.7708
vt 0.6319 0.7604
vt 0.6319 0.7708
vt 0.6234 0.7917
vt 0.6319 0.7812
vt 0.6319 0.7917
vt 0.6596 0.5764
vt 0.6766 0.5139
vt 0.6766 0.5764
vt 0.2851 0.8611
vt 0.2936 0.9306
vt 0.2851 0.9306
vt 0.8085 0.5556
vt 0.7787 0.4861
vt 0.8085 0.4861
vt 0.6596 0.6944
vt 0.6766 0.6389
vt 0.6766 0.6944
vt 0.6191 0.5417
vt 0.6234 0.5312
vt 0.6234 0.5417
vt 0.6234 0.7812
vt 0.6191 0.7917
vt 0.6191 0.7812
vt 0.566 0.5694
vt 0.5574 0.5729
vt 0.566 0.5729
vt 0.5574 0.6042
vt 0.6191 0.7604
vt 0.6234 0.7604
vt 0.566 0.6042
vt 0.3532 0.4271
vt 0.3277 0.4688
vt 0.3277 0.4201
vt 0.3532 0.4826
vt 0.3277 0.5243
vt 0.3277 0.4757
vt 0.6106 0.5833
vt 0.6191 0.5729
vt 0.6191 0.5833
vt 0.6596 0.4167
vt 0.6383 0.4514
vt 0.617 0.4167
vt 0.6319 0.625
vt 0.6319 0.6146
vt 0.6069 0.5216
vt 0.5979 0.5277
vt 0.5979 0.4862
vt 0.5745 0.5104
vt 0.566 0.5104
vt 0.5319 0.6667
vt 0.5574 0.7361
vt 0.5319 0.8056
vt 0.5319 0.7361
vt 0.7532 0.7083
vt 0.7787 0.7569
vt 0.7532 0.7569
vt 0.6319 0.6042
vt 0.6234 0.5938
vt 0.6319 0.5938
vt 0.3277 0.9306
vt 0.2936 1
vt 0.0383 0.2639
vt 0.0468 0.2431
vt 0.0468 0.2639
vt 0.6319 0.5521
vt 0.6319 0.5625
vt 0.0383 0.2431
vt 0.6319 0.5312
vt 0.6319 0.5417
vt 0.617 0.2778
vt 0.6596 0.3472
vt 0.617 0.3472
vt 0.6596 0.5278
vt 0.6511 0.5278
vt 0.6234 0.7188
vt 0.6191 0.7292
vt 0.6191 0.7188
vt 0.6234 0.6042
vt 0.6191 0.5938
vt 0.6234 0.6667
vt 0.6191 0.6562
vt 0.6234 0.6562
vt 0.6234 0.8125
vt 0.6191 0.8021
vt 0.6234 0.8021
vt 0.6319 0.7396
vt 0.6319 0.75
vt 0.3532 0.7604
vt 0.3277 0.8021
vt 0.3277 0.7535
vt 0.6234 0.5729
vt 0.8085 0.4167
vt 0.7787 0.4028
vt 0.1617 0.8611
vt 0.1426 0.8958
vt 0.125 0.849
vt 0.1383 0.7743
vt 0.1234 0.7899
vt 0.0968 0.7622
vt 0.1638 0.9167
vt 0.1532 0.9115
vt 0.1404 0.9253
vt 0.0383 0.2153
vt 0.0468 0.1944
vt 0.0468 0.2153
vt 0.6319 0.8021
vt 0.6319 0.8125
vt 0.0766 0.2778
vt 0.0851 0.2639
vt 0.0596 0.2639
vt 0.0511 0.2569
vt 0.0511 0.25
vt 0.0255 0.1944
vt 0.017 0.2153
vt 0.017 0.1944
vt 0.0851 0.25
vt 0.0511 0.2361
vt 0.0851 0.2361
vt 0.2809 0.9306
vt 0.2511 1
vt 0.2511 0.9306
vt 0.217 0.1389
vt 0.2511 0.2049
vt 0.217 0.2083
vt 0.183 0.0556
vt 0.183 0.0972
vt 0.1702 0.8611
vt 0.217 0.9306
vt 0.1702 0.9306
vt 0.166 0.4479
vt 0.1553 0.4757
vt 0.1543 0.4549
vt 0.1447 0.4583
vt 0.1191 0.5
vt 0.1 0.4931
vt 0.083 0.4757
vt 0.0723 0.4479
vt 0.0681 0.4167
vt 0.8681 0.4028
vt 0.8383 0.3403
vt 0.8681 0.3403
vt 0.0819 0.7778
vt 0.0957 0.8177
vt 0.0628 0.796
vt 0.2851 0.1389
vt 0.3191 0.1806
vt 0.2851 0.2014
vt 0.0516 0.8247
vt 0.084 0.7743
vt 0.0883 0.8368
vt 0.3532 0.9306
vt 0.3277 0.8611
vt 0.3532 0.8611
vt 0.1447 0.9618
vt 0.1149 0.75
vt 0.0851 0.75
vt 0.8085 0.5694
vt 0.8383 0.6319
vt 0.8085 0.6319
vt 0.5574 0.8056
vt 0.566 0.7361
vt 0.566 0.8056
vt 0.0511 0.9896
vt 0.0468 0.9306
vt 0.066 0.9653
vt 0.9915 0.4167
vt 0.9489 0.3472
vt 0.9957 0.3472
vt 0.7277 0.5625
vt 0.7532 0.6111
vt 0.7277 0.6111
vt 0.1702 0.3472
vt 0.2511 0.2708
vt 0.217 0.2778
vt 0.1059 0.8837
vt 0.0676 0.8837
vt 0.8383 0.8194
vt 0.8085 0.8611
vt 0.8085 0.8194
vt 0.3191 0.1389
vt 0.3436 0.1181
vt 0.3681 0.1389
vt 0.7787 0.5556
vt 0.7787 0.5694
vt 0.1234 0.9306
vt 0.0851 0.9306
vt 0.0277 0.8958
vt 0.8979 0.7361
vt 0.8681 0.7778
vt 0.8681 0.7361
vt 0.4043 0.5417
vt 0.4553 0.5729
vt 0.4043 0.5729
vt 0.2936 0.3472
vt 0.2936 0.2778
vt 0.6596 0.5139
vt 0.6766 0.4583
vt 0.466 0.1389
vt 0.5149 0.2083
vt 0.466 0.2118
vt 0.7277 0.7569
vt 0.7532 0.8056
vt 0.7277 0.8056
vt 1 0.2778
vt 1 0.3403
vt 0.1043 0.9653
vt 0.1191 0.9896
vt 0.0298 0.7743
vt 0.0149 0.8125
vt 0.3191 0.2222
vt 0.3191 0.2639
vt 0.2851 0.2639
vt 0.2851 0.0139
vt 0.3191 0.0139
vt 0.3191 0.0556
vt 0.2851 0
vt 0.2511 0.0069
vt 0.2511 0
vt 0.2511 0.2778
vt 0.0553 0.75
vt 0.8383 0.7778
vt 0.8383 0.7361
vt 0.8383 0.4861
vt 0.8383 0.4167
vt 0.7745 0.3472
vt 0.6809 0.3472
vt 0.6766 0.3403
vt 0.6766 0.2778
vt 0.4043 0.6354
vt 0.4043 0.6667
vt 0.3787 0.6667
vt 0.0085 0.8611
vt 0.7787 0.6944
vt 0.8085 0.6944
vt 0.8979 0.7778
vt 0.8681 0.8194
vt 0.417 0.1389
vt 0.466 0.066
vt 0.1191 0.2778
vt 0.1447 0.3472
vt 0.1191 0.3472
vt 0.5064 0.6042
vt 0.4553 0.6042
vt 0.1191 0.8273
vt 0.117 0.796
vt 0.5745 0.6667
vt 0.566 0.6667
vt 0.8979 0.4028
vt 0.9021 0.3472
vt 0.9064 0.4167
vt 0.7532 0.4653
vt 0.7277 0.4653
vt 0.0234 0.9618
vt 0.0298 0.9253
vt 0.3787 0.4791
vt 0.4043 0.5105
vt 0.3532 0.5104
vt 0.6596 0.3403
vt 0.6553 0.4444
vt 0.6468 0.4653
vt 0.617 0.4861
vt 0.634 0.4792
vt 0.6 0.4792
vt 0.5872 0.4653
vt 0.5787 0.4444
vt 0.5957 0.4514
vt 0.1085 0.8056
vt 0.1287 0.8394
vt 0.3447 0.2222
vt 0.3681 0.2188
vt 0.3702 0.2222
vt 0.6596 0.75
vt 0.6766 0.75
vt 0.4979 0.0556
vt 0.5149 0.0694
vt 0.5234 0.0556
vt 0.5234 0.0694
vt 0.5234 0.2083
vt 0.5234 0.2222
vt 0.593 0.5261
vt 0.5889 0.5216
vt 0.5861 0.5149
vt 0.5852 0.5069
vt 0.5861 0.499
vt 0.5889 0.4923
vt 0.593 0.4878
vt 0.6027 0.4878
vt 0.6106 0.5069
vt 0.6069 0.4923
vt 0.6096 0.499
vt 0.6096 0.5149
vt 0.6027 0.5261
vt 0.4043 0.7361
vt 0.3787 0.8056
vt 0.3787 0.7361
vt 0.3532 0.4167
vt 0.3277 0.4167
vt 0.417 0.2153
vt 0.5064 0.6354
vt 0.4553 0.6354
vt 0.0936 0.4167
vt 0.1191 0.4167
vt 0.7787 0.6319
vt 0.7787 0.8611
vt 0.7787 0.8194
vt 0.3191 0.0972
vt 0.3436 0.0781
vt 0.8085 0.7778
vt 0.7787 0.7778
vt 0.3532 0.5417
vt 0.3532 0.5729
vt 0.417 0.0625
vt 0.15 0.8177
vt 0.2936 0.4167
vt 0.1112 0.7743
vt 0.4553 0.5105
vt 0.8383 0.5694
vt 0.566 0.3472
vt 0.5574 0.2778
vt 0.566 0.2778
vt 0.8383 0.6944
vt 0.217 0.5833
vt 0.2255 0.6389
vt 0.217 0.6389
vt 0.7277 0.3472
vt 0.7277 0.2778
vt 0.7532 0.2778
vt 0.0574 0.7552
vt 0.0723 0.7622
vt 0.0569 0.7743
vt 0.1553 0.8125
vt 0.2851 0.0764
vt 0.1351 0.8333
vt 0.0851 0.7361
vt 0.016 0.9115
vt 0.0064 0.9167
vt -0 0.8611
vt 0.217 1
vt 0.2213 0.9306
vt 0.8383 0.8611
vt 0.0851 0.2569
vt 0.0766 0.2639
vt 0.4553 0.5417
vt 0.5064 0.5729
vt 0.8383 0.5556
vt 0.8681 0.5694
vt 0.4468 0.0556
vt 1 0.4028
vt 0.8979 0.3403
vt 0.8979 0.2778
vt 0.7532 0.4167
vt 0.7787 0.4653
vt 0.2936 0.7535
vt 0.2851 0.8056
vt 0.2766 0.5833
vt 0.2851 0.5278
vt 0.2851 0.5833
vt 0.2936 0.5243
vt 0.2936 0.4757
vt 0.6319 0.6875
vt 0.6319 0.6771
vt 0.2936 0.6424
vt 0.2851 0.6389
vt 0.2255 0.8056
vt 0.217 0.8611
vt 0.217 0.8056
vt 0.1702 0.6806
vt 0.217 0.6944
vt 0.3277 0.5868
vt 0.2936 0.6354
vt 0.2936 0.5868
vt 0.2255 0.75
vt 0.217 0.75
vt 0.2936 0.809
vt 0.3277 0.8576
vt 0.2936 0.8576
vt 0.2766 0.8056
vt 0.217 0.5278
vt 0.2255 0.5833
vt 0.2936 0.8021
vt 0.6106 0.6667
vt 0.6191 0.6667
vt 0.1191 0.2292
vt 0.1064 0.2014
vt 0.1191 0.2014
vt 0.3532 1
vt 0.6106 0.7708
vt 0.6191 0.7708
vt 0.5745 0.7361
vt 0.217 0.4167
vt 0.2936 0.4688
vt 0.5745 0.5417
vt 0.566 0.5417
vt 0.1191 0.25
vt 0.1064 0.2292
vt 0.5745 0.5729
vt 0.566 0.6007
vt 0.1362 0.2292
vt 0.1362 0.25
vt 0.2936 0.691
vt 0.2851 0.3472
vt 0.8979 0.6319
vt 0.8681 0.6319
vt 0.6596 0.6528
vt 0.8681 0.5556
vt 0.8979 0.5694
vt 0.2766 0.6389
vt 0.3532 0.625
vt 0.3532 0.5938
vt 0.1702 0.4826
vt 0.6511 0.4861
vt 0.6319 0.5
vt 0.6319 0.4896
vt 0.8979 0.8194
vt 0.8681 0.8611
vt 0.5064 0.5417
vt 0.5064 0.5106
vt 0.566 0.4167
vt 0.5574 0.3472
vt 0.6234 0.5
vt 0.1447 0.2778
vt 0.6106 0.8125
vt 0.6191 0.8125
vt 0.6596 0.4583
vt 0.6766 0.4028
vt 0.6234 0.6354
vt 0.0511 0.2639
vt 0.0468 0.2778
vt 0.6596 0.6736
vt 0.2766 0.75
vt 0.6596 0.6944
vt 0.6511 0.7153
vt 0.6234 0.6458
vt 0.6191 0.6354
vt 0.6319 0.5833
vt 0.6319 0.5729
vt 0.3532 0.816
vt 0.3277 0.809
vt 0.6511 0.5069
vt 0.1702 0.5382
vt 0.1702 0.5694
vt 0.1702 0.7917
vt 0.6511 0.7986
vt 0.1702 0.8472
vt 0.6596 0.7153
vt 0.0596 0.2778
vt 0.6191 0.5104
vt 0.6234 0.5104
vt 0.6596 0.5694
vt 0.6511 0.5903
vt 0.6234 0.7292
vt 0.5319 0.4167
vt 0.0511 0.2778
vt 0.9234 0.2778
vt 0.6234 0.5833
vt 0.5745 0.4479
vt 0.566 0.4479
vt 0.5149 0.1389
vt 0.6511 0.8194
vt 0.7787 0.8056
vt 0.7532 0.5139
vt 0.7787 0.5625
vt 0.7532 0.5625
vt 0.6596 0.5069
vt 0.6596 0.4861
vt 0.6596 0.7986
vt 0.6106 0.7812
vt 0.7787 0.6597
vt 0.7532 0.6597
vt 0.7787 0.6111
vt 0.7787 0.7083
vt 0.6106 0.6042
vt 0.6191 0.6042
vt 0.6596 0.7361
vt 0.2766 0.4722
vt 0.6106 0.7188
vt 0.7277 0.5417
vt 0.0894 0.25
vt 0.0894 0.2292
vt 0.2255 0.5278
vt 0.217 0.3472
vt 0.5745 0.6042
vt 0.566 0.6319
vt 0.1702 0.7361
vt 0.6596 0.6111
vt 0.5745 0.4167
vt 0.2255 0.6944
vt 0.2851 1
vt 0.5745 0.4792
vt 0.5745 0.3472
vt 0.5745 0.6354
vt 0.566 0.6354
vt 0.6106 0.75
vt 0.6191 0.7396
vt 0.5319 0.3472
vt 0.7787 0.5139
vt 0.6106 0.625
vt 0.6191 0.625
vt 0.6106 0.6771
vt 0.6191 0.6771
vt 0.6596 0.7778
vt 0.6106 0.6979
vt 0.6191 0.6979
vt 0.6106 0.4896
vt 0.2766 0.5278
vt 0.6106 0.5208
vt 0.6191 0.5208
vt 0.6106 0.6458
vt 0.6191 0.6458
vt 0.6106 0.5417
vt 0.6191 0.5312
vt 0.3436 0.1997
vt 0.3436 0.1597
vt 0.8085 0.7361
vt 0.5745 0.2778
vt 0.1702 0.2778
vt 0.2511 0.0729
vt 0.4553 0.2778
vt 0.4298 0.3472
vt 0.4298 0.2778
vt 0.5319 0.2778
vt 0.2255 0.8611
vt 0.7277 0.6597
vt 0.2851 0.2778
vt 0.2809 0.3472
vt 0.4553 0.3472
vt 0.4298 0.4167
vt 0.7702 0.4167
vt 0.0936 0.3472
vt 0.8383 0.2778
vt 0.8681 0.2778
vt 0.4979 0.2222
vt 0.8979 0.4861
vt 0.8681 0.4167
vt 0.8979 0.4167
vt 0.0681 0.2778
vt 0.0681 0.3472
vt 0.5064 0.6667
vt 0.4809 0.7361
vt 0.4809 0.6667
vt 0.4043 0.6042
vt 0.3532 0.6042
vt 0.8979 0.5556
vt 0.8681 0.4861
vt 0.5064 0.3472
vt 0.4809 0.4167
vt 0.4809 0.3472
vt 0.183 0.1389
vt 0.1915 0.1667
vt 0.183 0.1806
vt 0.8681 0.6944
vt 0.2511 0.1389
vt 0.2766 0.8611
vt 0.1383 0.4931
vt 0.4553 0.7361
vt 0.4298 0.8056
vt 0.4298 0.7361
vt 0.2936 0.8611
vt 0.4553 0.6667
vt 0.4298 0.6667
vt 0.8979 0.6944
vt 0.4553 0.4479
vt 0.4298 0.479
vt 0.4298 0.4479
vt 0.5064 0.4167
vt 0.4809 0.4479
vt 0.4468 0.2222
vt 0.6851 0.4167
vt 0.7277 0.5139
vt 0.7787 0.2778
vt 0.0936 0.2778
vt 0.6596 0.4028
vt 0.9489 0.2778
vt 0.9745 0.2778
vt 0.3957 0.0556
vt 0.3681 0.059
vt 0.3532 0.6354
vt 0.3957 0.2222
vt 0.8383 0.4028
vt 0.7277 0.7083
vt 0.7787 0.4167
vt 0.1702 1
vt 0.7787 0.7361
vt 0.4043 0.3472
vt 0.3787 0.4167
vt 0.3787 0.3472
vt 0.5064 0.2778
vt 0.4809 0.2778
vt 0.4043 0.2778
vt 0.3787 0.2778
vt 0.0851 1
vt 0.2213 0.3472
vt 0.7277 0.4167
vt 0.4043 0.4479
vt 0.3787 0.4479
vt 0.7021 0.2778
vt 0.3447 0.0556
vt 0.4809 0.4788
vt 0.8085 0.2778
vt 0.2766 0.4306
vt 0.2255 0.8472
vt 0.2 0.1111
vt 0.6596 0.6389
vt 0.9489 0.4167
vt 0.4553 0.4167
vt 0.1702 0.5938
vt 0.1702 0.625
vt 0.1064 0.2778
vt 0.4043 0.4167
vt 0.6106 0.5625
vt 0.6191 0.5625
vt 0.5064 0.7361
vt 0.4809 0.8056
vt 0.5064 0.4479
vt 0.4553 0.4789
vt 0.4553 0.8056
vt 0.3532 0.4479
vt 0.3532 0.4792
vt 0.3532 0.2778
vt 0.4043 0.479
vt 0.4043 0.8056
vt 0.3532 0.7361
vt 0.3532 0.6667
vt 0.3532 0.8056
vt 0.5064 0.8056
vt 0.5064 0.4788
vt 0.3532 0.6806
vt 0.3277 0.5799
vt 0.3532 0.7361
vt 0.1489 0.2222
vt 0.2255 0.4306
vt 0.3532 0.4583
vt 0.3532 0.5139
vt 0.6106 0.5729
vt 0.5745 0.5382
vt 0.3277 1
vt 0.6596 0.2778
vt 0.3532 0.7917
vt 0.4723 0.0556
vt 0.4213 0.0556
vt 0.1702 0.6493
vt 0.3277 0.6354
vt 0.6106 0.6562
vt 0.6106 0.7604
vt 0.5745 0.8056
vt 0.2255 0.4722
vt 0.5745 0.5694
vt 0.1064 0.25
vt 0.5745 0.6007
vt 0.1702 0.5139
vt 0.8979 0.8611
vt 0.6106 0.8021
vt 0.3532 0.8472
vt 0.1702 0.7604
vt 0.1702 0.816
vt 0.6596 0.5903
vt 0.5745 0.4757
vt 0.6596 0.8194
vt 0.6106 0.7917
vt 0.6106 0.5938
vt 0.6106 0.7292
vt 0.5745 0.6319
vt 0.1702 0.7049
vt 0.5745 0.4444
vt 0.5745 0.5069
vt 0.5745 0.6632
vt 0.6106 0.7396
vt 0.6106 0.6146
vt 0.6106 0.6875
vt 0.6106 0.7083
vt 0.6106 0.5
vt 0.6106 0.5104
vt 0.6106 0.6354
vt 0.6106 0.5312
vt 0.4723 0.2222
vt 0.4213 0.2222
vt 0.3702 0.0556
vt 0.6106 0.5521
s 1
f 467/40 972/41 1016/42
f 1177/43 418/44 1225/45
f 969/46 1137/47 447/48
f 850/49 865/50 849/51
f 492/52 532/53 493/54
f 846/55 863/56 862/57
f 491/58 531/59 492/52
f 494/60 523/61 487/62
f 859/63 842/64 843/65
f 853/66 868/67 852/68
f 857/69 840/70 841/71
f 489/72 527/73 490/74
f 885/75 886/76 870/77
f 615/78 632/79 616/80
f 475/81 459/82 460/83
f 873/84 890/85 874/86
f 870/87 887/88 871/89
f 856/90 838/91 840/92
f 765/93 760/94 759/95
f 520/96 516/97 515/98
f 522/99 517/100 518/101
f 720/52 1257/102 1255/103
f 795/104 812/105 794/106
f 476/107 458/108 459/109
f 888/110 873/111 872/112
f 948/113 1109/114 1111/115
f 483/116 471/93 482/117
f 746/118 752/108 747/119
f 533/120 493/54 532/121
f 463/122 430/123 429/124
f 622/125 607/126 606/127
f 959/128 1116/115 958/129
f 785/130 777/131 786/132
f 571/133 554/134 555/135
f 648/136 643/137 644/138
f 1188/139 983/140 1237/141
f 1132/142 816/143 1083/144
f 628/145 613/146 612/147
f 699/148 698/149 700/150
f 645/151 641/152 643/153
f 1038/154 663/155 997/144
f 667/156 998/157 1039/158
f 690/159 688/160 686/161
f 567/162 550/163 551/164
f 568/165 551/166 552/167
f 1030/168 510/169 989/170
f 428/171 971/172 1015/173
f 1151/174 985/175 1235/176
f 1029/177 509/178 988/179
f 865/180 848/181 849/182
f 844/183 861/184 860/185
f 487/62 524/186 486/187
f 524/188 488/189 486/187
f 844/162 859/190 843/191
f 525/192 489/72 488/189
f 480/193 470/194 469/195
f 481/196 471/197 470/198
f 931/199 914/200 915/201
f 535/202 993/203 992/204
f 560/205 575/68 559/206
f 591/207 578/208 585/209
f 744/210 723/61 733/211
f 717/72 718/74 1256/212
f 1093/213 1254/214 1282/215
f 1064/216 440/217 1063/218
f 559/219 574/220 558/221
f 1090/222 756/223 1060/172
f 646/224 642/225 641/226
f 573/49 556/227 557/228
f 640/229 634/101 636/100
f 640/229 638/151 639/136
f 648/136 646/224 645/151
f 572/182 555/230 556/231
f 638/151 635/152 633/153
f 996/232 1033/233 1129/234
f 627/235 612/147 611/236
f 841/237 858/238 857/239
f 852/240 867/241 851/220
f 838/242 855/243 839/244
f 846/245 861/246 845/247
f 874/248 891/127 875/249
f 477/250 457/251 458/252
f 850/253 867/201 866/200
f 883/221 900/78 884/219
f 1191/254 500/255 1188/139
f 647/229 644/101 642/100
f 675/256 1179/257 1175/258
f 678/259 1229/260 1001/261
f 655/262 1004/263 675/256
f 1005/263 1006/264 676/256
f 519/265 515/266 517/267
f 569/245 552/268 553/269
f 694/270 692/271 690/159
f 695/272 691/273 687/274
f 522/99 520/96 519/265
f 521/275 518/276 516/277
f 688/278 685/279 686/280
f 637/224 636/225 635/226
f 1084/281 1100/282 1128/283
f 968/284 1165/285 1136/286
f 422/287 1177/43 1141/288
f 784/289 1056/290 1086/291
f 447/48 448/292 449/293
f 449/293 1012/294 447/48
f 1012/294 1013/295 447/48
f 442/296 443/297 444/298
f 444/298 445/299 446/300
f 1149/301 1133/302 1238/303
f 1013/295 969/46 447/48
f 1164/304 1044/305 1178/306
f 1019/307 1142/308 1162/309
f 1152/310 999/311 1040/312
f 1017/313 456/314 479/315
f 656/316 1046/264 1004/263
f 679/317 1001/261 1045/318
f 1184/319 1127/320 1159/321
f 484/322 991/323 529/324
f 666/325 1052/326 1193/327
f 505/328 1124/329 1055/330
f 834/331 1066/332 833/333
f 1137/47 1011/334 447/48
f 1136/286 976/335 419/336
f 1043/312 1189/337 1210/338
f 1195/339 1186/340 1242/341
f 975/342 1285/343 1161/344
f 503/345 1184/319 499/346
f 1189/337 1051/347 1207/348
f 1176/310 1210/338 1182/349
f 1187/350 1146/351 1241/352
f 1211/353 1077/354 1198/355
f 761/40 1061/356 755/357
f 514/358 990/359 510/169
f 1204/360 541/361 1172/362
f 830/363 1062/364 829/365
f 497/366 981/367 1055/330
f 1202/368 1051/347 659/369
f 682/370 1176/310 683/371
f 474/372 467/373 461/374
f 1114/114 950/129 951/128
f 462/375 468/376 473/377
f 420/378 1020/379 1021/380
f 976/335 1022/381 419/336
f 1001/261 1164/304 681/382
f 1232/338 1230/337 1231/348
f 1241/352 1126/383 1196/384
f 1131/385 1191/254 984/386
f 500/255 1025/387 983/140
f 1040/312 1230/337 1232/338
f 982/388 1024/389 495/390
f 1206/391 1194/392 1269/393
f 1210/338 1207/348 1052/326
f 1152/310 1232/338 1180/349
f 1152/310 667/394 668/371
f 495/395 1159/321 1185/396
f 1007/397 1240/398 1146/351
f 1123/399 1156/400 1204/360
f 1010/401 1139/402 1125/403
f 1077/354 1223/404 1081/405
f 1040/312 1134/406 1175/258
f 1210/338 1189/337 1207/348
f 1040/312 1140/407 1134/406
f 735/408 1058/323 727/409
f 1178/306 1043/312 1176/310
f 502/410 1008/411 506/412
f 1047/347 657/369 1200/368
f 837/128 1069/413 836/414
f 650/325 1048/326 1201/327
f 651/415 1049/416 650/325
f 665/415 1053/416 666/325
f 1265/417 1215/418 711/419
f 1028/420 507/390 987/389
f 539/421 993/203 535/202
f 539/421 538/422 537/423
f 538/422 536/424 537/423
f 537/423 544/425 543/426
f 543/426 542/427 537/423
f 542/427 994/428 537/423
f 1003/429 1203/430 1044/305
f 1264/431 1153/432 1154/433
f 512/434 988/179 507/435
f 1248/436 534/437 1156/400
f 484/438 529/439 534/437
f 541/361 528/440 485/441
f 578/208 577/442 579/443
f 579/443 580/444 581/445
f 581/445 582/446 583/447
f 583/447 584/448 585/209
f 585/209 586/449 589/450
f 586/449 587/451 589/450
f 587/451 588/452 589/450
f 589/450 590/453 591/207
f 591/207 592/454 578/208
f 578/208 579/443 585/209
f 579/443 581/445 585/209
f 581/445 583/447 585/209
f 589/450 591/207 585/209
f 1233/455 1270/456 1261/457
f 1016/42 480/458 469/459
f 1036/460 1161/344 1123/399
f 1081/405 1214/461 1073/462
f 1174/463 970/464 969/46
f 499/346 1159/321 1024/465
f 1242/341 496/466 1143/467
f 1285/343 1228/468 1286/469
f 473/377 1286/469 1228/468
f 1160/470 1143/467 977/471
f 669/370 1152/310 668/371
f 703/472 1198/355 704/473
f 1161/344 995/474 1123/399
f 1044/305 1205/258 1043/312
f 1140/407 673/259 1000/475
f 429/124 966/356 463/476
f 1163/477 999/311 672/317
f 1070/478 1211/353 1215/418
f 1000/475 1175/258 1134/406
f 1151/174 979/479 1184/319
f 1018/480 485/481 528/482
f 1134/406 1140/407 1000/475
f 1185/396 1127/320 980/483
f 1180/349 1232/338 1048/326
f 1019/307 1228/468 975/342
f 810/484 820/485 802/486
f 1120/487 977/488 1143/489
f 670/382 1041/490 669/370
f 1041/490 1042/491 669/370
f 1042/491 1190/492 669/370
f 674/493 1000/475 673/259
f 677/493 1002/475 678/259
f 1169/494 473/377 1228/468
f 1205/258 1203/430 676/256
f 1203/430 1227/495 676/256
f 680/496 1045/318 681/382
f 1045/318 1001/261 681/382
f 1004/263 1046/264 675/256
f 1046/264 1179/257 675/256
f 1049/416 1180/349 1048/326
f 1049/416 1050/497 667/394
f 652/498 1050/497 651/415
f 652/498 653/499 667/394
f 789/500 1102/290 1101/501
f 675/256 654/289 655/262
f 1006/264 1181/257 676/256
f 1053/416 1182/349 1052/326
f 1053/416 1054/497 684/394
f 664/498 1054/497 665/415
f 664/498 663/499 684/394
f 676/256 662/289 661/262
f 943/128 1108/115 942/129
f 661/262 1005/263 676/256
f 1215/418 703/472 711/419
f 1240/398 978/502 1195/339
f 1146/351 1195/339 1126/383
f 687/274 688/278 695/272
f 688/278 692/503 696/504
f 695/272 688/278 696/504
f 1074/505 1219/506 1077/354
f 1023/507 1145/508 979/479
f 1268/509 1156/400 995/474
f 1126/383 1242/341 1160/470
f 501/510 1055/330 981/367
f 1152/310 1040/312 1232/338
f 1008/411 1026/511 498/512
f 1092/513 434/514 1069/413
f 453/515 427/516 426/104
f 819/517 800/518 801/519
f 764/198 759/520 758/521
f 887/88 872/522 871/523
f 451/524 425/106 424/525
f 823/526 806/527 805/528
f 781/529 771/486 772/530
f 766/531 745/532 760/533
f 822/534 805/528 804/535
f 748/536 750/537 749/538
f 797/171 814/539 796/516
f 466/94 431/518 465/95
f 820/485 803/530 802/486
f 809/540 828/541 810/484
f 1140/407 999/311 1163/477
f 451/532 432/519 466/533
f 747/515 751/251 748/542
f 918/543 903/243 902/544
f 599/545 593/546 594/547
f 473/548 973/222 1017/313
f 924/549 907/190 908/550
f 1088/551 729/324 1058/323
f 825/155 808/131 807/552
f 1032/213 527/409 991/323
f 763/195 758/553 757/122
f 737/554 724/186 723/555
f 600/556 598/557 599/545
f 736/558 725/559 724/188
f 600/556 594/560 596/561
f 745/524 753/82 746/562
f 1009/563 461/357 966/356
f 1145/508 981/564 1158/565
f 616/80 617/566 601/76
f 1170/567 501/568 1145/508
f 794/106 811/569 793/525
f 475/570 472/531 483/571
f 452/118 426/104 425/106
f 778/540 786/572 777/131
f 546/89 562/244 545/87
f 894/573 879/574 878/575
f 1219/506 716/189 1223/404
f 1167/576 1144/577 1240/398
f 722/60 1216/578 1212/579
f 530/580 974/581 1018/480
f 1216/578 714/187 1219/506
f 570/582 553/575 554/574
f 563/92 546/523 547/522
f 1091/42 757/476 1061/356
f 1168/583 1011/334 1139/402
f 639/136 633/137 634/138
f 926/584 909/246 910/585
f 566/65 549/248 550/249
f 1031/586 508/587 990/359
f 545/77 576/588 560/75
f 691/589 685/590 687/226
f 601/76 618/591 602/88
f 796/516 813/592 795/104
f 619/593 604/594 603/110
f 839/595 869/596 853/588
f 898/146 883/597 882/598
f 880/230 897/147 881/231
f 478/599 456/537 457/600
f 895/601 880/135 879/134
f 787/602 779/484 788/603
f 881/227 898/146 882/228
f 783/604 773/535 774/528
f 877/167 892/126 893/605
f 784/606 774/528 775/527
f 875/163 892/126 876/164
f 428/171 454/536 455/538
f 811/569 801/519 793/525
f 620/607 605/85 604/594
f 696/504 693/608 695/272
f 848/133 863/609 847/610
f 629/611 614/612 613/146
f 565/613 548/84 549/86
f 719/58 1255/103 1258/614
f 695/272 689/615 691/589
f 1008/411 498/512 1167/616
f 574/617 557/598 558/597
f 884/206 901/80 885/205
f 742/618 732/53 731/619
f 1204/360 534/437 996/620
f 877/268 894/621 878/269
f 1063/218 441/622 1062/364
f 1165/285 461/374 976/335
f 1068/623 436/624 1067/625
f 626/626 611/236 610/601
f 625/627 610/601 609/573
f 624/628 609/621 608/605
f 909/184 924/629 908/185
f 1066/332 438/630 1065/631
f 1067/625 437/632 1066/332
f 1065/631 439/633 1064/216
f 932/634 915/241 916/635
f 621/636 606/127 605/85
f 817/637 798/124 799/123
f 906/238 921/638 905/239
f 564/71 547/112 548/111
f 937/639 1104/115 1106/114
f 598/557 595/640 593/641
f 808/131 827/642 809/540
f 776/552 1057/334 1087/643
f 738/644 726/645 725/192
f 1257/102 722/60 1212/579
f 782/646 772/530 773/535
f 1115/115 957/639 1113/114
f 614/612 631/647 615/78
f 740/648 731/59 730/580
f 676/256 1181/257 1205/258
f 821/649 804/535 803/530
f 618/591 603/110 602/88
f 1084/281 1085/173 791/650
f 743/651 733/120 732/121
f 1089/652 730/580 1059/480
f 739/653 727/73 726/654
f 923/655 906/656 907/63
f 1095/581 1258/614 1272/657
f 1223/404 717/72 1214/461
f 1069/413 435/658 1068/623
f 933/659 916/67 917/660
f 904/90 918/661 902/662
f 623/663 608/605 607/126
f 905/69 920/664 904/665
f 911/56 926/666 910/57
f 818/667 799/123 800/518
f 928/668 911/609 912/669
f 919/670 917/596 903/671
f 929/672 912/673 913/180
f 1283/674 1142/308 1284/675
f 1196/384 1160/470 1239/676
f 741/677 1059/480 728/482
f 1015/173 462/223 420/650
f 1087/643 770/678 768/336
f 1166/679 968/284 1225/45
f 1034/652 992/204 540/648
f 1094/680 1273/681 1246/682
f 1101/501 1100/282 789/500
f 713/481 1272/657 1260/683
f 660/316 1006/264 1005/263
f 824/684 1128/283 1101/501
f 833/333 1065/631 832/685
f 792/686 1099/563 1082/687
f 1121/688 1251/689 1273/681
f 504/690 1120/487 1025/387
f 1150/691 970/464 1174/463
f 954/129 1113/114 955/128
f 1238/303 978/692 1144/693
f 462/375 1166/679 1020/379
f 1182/349 1210/338 1052/326
f 1247/694 1172/362 541/361
f 1027/695 1148/696 506/697
f 1194/392 1261/457 1269/393
f 422/698 1150/691 1014/699
f 1218/700 1262/701 1276/702
f 704/473 1192/703 705/704
f 505/705 1236/706 1027/695
f 1176/310 684/394 683/371
f 1208/707 1278/708 1252/709
f 1176/310 1043/312 1210/338
f 1125/403 1137/47 970/464
f 506/697 1149/301 502/410
f 1010/710 1135/711 1168/712
f 1147/713 1196/384 980/483
f 1169/494 1122/714 1166/679
f 474/372 1283/674 1153/432
f 1051/347 1202/368 1207/348
f 815/715 1128/283 1103/157
f 1170/567 1131/385 1236/706
f 450/716 1013/295 1012/294
f 992/204 993/203 994/428
f 1230/337 1047/347 1231/348
f 1130/717 1250/718 1281/719
f 1232/338 1231/348 1048/326
f 750/314 1060/172 749/720
f 1123/399 1172/362 1036/460
f 1076/721 1281/719 1249/722
f 497/723 1241/352 1147/713
f 1111/115 947/128 946/129
f 1162/309 474/372 461/374
f 1122/714 1162/309 1165/285
f 1075/724 1245/725 1259/726
f 1221/727 1275/728 1278/708
f 993/203 537/423 994/428
f 1212/579 1074/505 1070/478
f 1236/706 984/386 1148/696
f 1106/114 934/129 935/128
f 1267/729 1036/460 1172/362
f 1147/713 981/564 497/723
f 418/44 1021/380 1020/379
f 421/686 976/335 461/374
f 1198/355 1081/405 1192/703
f 499/587 982/388 503/730
f 835/731 1067/625 834/331
f 496/732 983/140 1025/387
f 1141/733 1125/403 1150/691
f 511/734 987/389 508/587
f 1245/725 1070/478 1215/418
f 442/296 969/46 1013/295
f 1124/329 1007/735 1187/736
f 797/171 1084/281 815/715
f 1243/737 995/474 1183/738
f 1127/320 1145/508 1158/565
f 671/496 1042/491 1041/490
f 423/149 1136/286 419/336
f 718/74 1282/215 1256/212
f 705/704 1206/391 706/739
f 1244/740 1153/432 1036/460
f 1148/696 986/741 1149/301
f 681/382 1178/306 682/370
f 832/685 1064/216 831/742
f 1205/258 1189/337 1043/312
f 1235/176 504/743 1191/254
f 1086/291 767/500 769/744
f 1185/396 1224/745 495/395
f 1229/260 1003/429 1001/261
f 1020/379 1225/45 418/44
f 1239/676 977/471 1224/745
f 980/483 1239/676 1185/396
f 1205/258 1181/257 1189/337
f 1209/746 1271/747 1253/748
f 1226/749 1252/709 1280/750
f 1157/751 1253/748 1266/752
f 1181/257 1051/347 1189/337
f 1202/368 658/753 1193/327
f 1073/462 1076/721 1249/722
f 975/342 1284/675 1142/308
f 1098/381 1097/754 790/336
f 831/742 1063/218 830/363
f 1200/368 649/753 1201/327
f 1135/711 968/284 1136/286
f 541/677 1129/234 1034/652
f 423/149 1168/712 1135/711
f 1026/511 1144/693 498/512
f 992/204 994/428 540/648
f 503/730 1120/487 985/755
f 1192/703 1073/462 1206/391
f 1129/234 535/202 992/204
f 1222/756 1265/417 1279/757
f 1119/115 963/128 962/129
f 938/129 1105/114 939/128
f 1096/643 790/336 1097/754
f 1002/475 1227/495 1003/429
f 798/124 1082/687 1099/563
f 982/388 495/390 1224/758
f 806/527 1101/501 1102/290
f 1047/347 1200/368 1231/348
f 1207/348 1193/327 1052/326
f 1263/759 1183/738 473/377
f 980/483 1158/565 1147/713
f 1207/348 1202/368 1193/327
f 1014/699 1174/463 446/300
f 1098/381 1082/687 1132/142
f 1277/760 1212/579 1070/478
f 1237/141 496/732 1186/761
f 675/762 997/144 654/143
f 502/410 1238/303 1026/511
f 1039/158 662/684 676/763
f 1141/288 967/764 1010/710
f 513/765 989/170 509/178
f 1175/258 1230/337 1040/312
f 1132/142 825/155 1097/754
f 1175/258 1179/257 1230/337
f 1107/115 941/639 1105/114
f 964/113 1117/114 1119/115
f 1231/348 1200/368 1201/327
f 1231/348 1201/327 1048/326
f 464/521 431/518 430/123
f 1110/114 944/113 1108/115
f 506/412 1124/329 1027/766
f 1080/767 1259/726 1251/689
f 788/768 771/486 780/769
f 953/639 1112/115 1114/114
f 807/552 1097/754 825/155
f 836/414 1068/623 835/731
f 595/770 600/556 596/401
f 1118/114 960/113 1116/115
f 1199/771 1279/757 1271/747
f 1133/302 1186/761 978/692
f 930/772 913/50 914/773
f 1179/257 1047/347 1230/337
f 984/386 1188/139 986/741
f 1234/774 1274/775 1262/701
f 1214/461 1218/700 1276/702
f 1023/507 1235/176 1131/385
f 986/741 1237/141 1133/302
f 1217/776 1277/760 1275/728
f 967/764 1225/45 968/284
f 1275/728 1078/777 1075/724
f 1262/701 1072/778 1130/717
f 1271/747 709/779 708/458
f 1251/689 1222/756 1199/771
f 1279/757 710/780 709/779
f 1266/752 1079/41 702/781
f 1280/750 1121/688 1094/680
f 1253/748 708/458 1079/41
f 1256/212 1234/774 1218/700
f 1278/708 1075/724 1080/767
f 1259/726 1155/782 1222/756
f 1249/722 1233/455 1194/392
f 1281/719 1197/783 1233/455
f 1252/709 1080/767 1121/688
f 1276/702 1130/717 1076/721
f 1269/393 1071/784 707/785
f 1273/681 1199/771 1209/746
f 1260/683 1208/707 1226/749
f 1246/682 1209/746 1157/751
f 1153/432 1284/675 1161/344
f 1272/657 1221/727 1208/707
f 1258/614 1217/776 1221/727
f 1285/343 1183/738 1161/344
f 1261/457 701/786 1071/784
f 1282/215 1213/787 1234/774
f 1255/103 1220/788 1217/776
f 467/40 474/781 972/41
f 969/46 970/464 1137/47
f 850/49 866/773 865/50
f 492/52 531/619 532/53
f 846/55 847/582 863/56
f 491/58 530/580 531/59
f 494/60 533/211 523/61
f 859/63 858/656 842/64
f 853/66 869/660 868/67
f 857/69 856/665 840/70
f 489/72 526/654 527/73
f 885/75 901/80 886/76
f 615/78 631/647 632/79
f 475/81 476/789 459/82
f 873/84 889/594 890/85
f 870/87 886/76 887/88
f 856/90 854/662 838/91
f 765/93 766/790 760/94
f 520/96 521/275 516/97
f 522/99 519/265 517/100
f 720/52 721/54 1257/102
f 795/104 813/592 812/105
f 476/107 477/791 458/108
f 888/110 889/594 873/111
f 948/113 949/639 1109/114
f 483/116 472/790 471/93
f 746/118 753/109 752/108
f 533/120 494/60 493/54
f 463/122 464/553 430/123
f 622/125 623/663 607/126
f 959/128 1118/114 1116/115
f 785/130 776/552 777/131
f 571/133 570/610 554/134
f 648/136 645/151 643/137
f 1188/139 500/255 983/140
f 1132/142 1082/687 816/143
f 628/145 629/611 613/146
f 699/148 697/792 698/149
f 645/151 646/224 641/152
f 1038/154 684/793 663/155
f 667/156 653/715 998/157
f 690/159 692/271 688/160
f 567/162 566/191 550/163
f 568/165 567/183 551/166
f 1030/168 514/358 510/169
f 428/171 455/720 971/172
f 1151/174 503/345 985/175
f 1029/177 513/765 509/178
f 865/180 864/673 848/181
f 844/183 845/165 861/184
f 487/62 523/555 524/186
f 524/188 525/559 488/189
f 844/162 860/550 859/190
f 525/192 526/645 489/72
f 480/193 481/794 470/194
f 481/196 482/795 471/197
f 931/199 930/796 914/200
f 560/205 576/66 575/68
f 744/210 737/797 723/61
f 1218/700 1214/461 1256/212
f 1214/461 717/72 1256/212
f 1093/213 712/322 1254/214
f 1064/216 439/633 440/217
f 559/219 575/240 574/220
f 1090/222 762/798 756/223
f 646/224 647/229 642/225
f 573/49 572/51 556/227
f 640/229 639/136 634/101
f 640/229 637/224 638/151
f 648/136 647/229 646/224
f 572/182 571/181 555/230
f 638/151 637/224 635/152
f 996/232 534/799 1033/233
f 627/235 628/145 612/147
f 841/237 842/613 858/238
f 852/240 868/635 867/241
f 838/242 854/544 855/243
f 846/245 862/585 861/246
f 874/248 890/85 891/127
f 477/250 478/800 457/251
f 850/253 851/617 867/201
f 883/221 899/612 900/78
f 1191/254 504/743 500/255
f 647/229 648/136 644/101
f 678/259 1002/475 1229/260
f 655/262 656/316 1004/263
f 519/265 520/96 515/266
f 569/245 568/247 552/268
f 694/270 696/504 692/271
f 522/99 521/275 520/96
f 521/275 522/99 518/276
f 688/278 687/274 685/279
f 637/224 640/229 636/225
f 1084/281 791/650 1100/282
f 968/284 1122/714 1165/285
f 422/287 418/44 1177/43
f 784/289 775/527 1056/290
f 449/293 450/716 1012/294
f 1149/301 986/741 1133/302
f 1164/304 1003/429 1044/305
f 1019/307 975/342 1142/308
f 1152/310 1190/492 999/311
f 1017/313 973/222 456/314
f 656/316 657/369 1046/264
f 679/317 678/259 1001/261
f 1184/319 979/479 1127/320
f 484/322 1032/213 991/323
f 1193/327 658/753 666/325
f 666/325 1053/416 1052/326
f 505/328 1027/766 1124/329
f 834/331 1067/625 1066/332
f 1137/47 1139/402 1011/334
f 1136/286 1165/285 976/335
f 1195/339 978/502 1186/340
f 975/342 1228/468 1285/343
f 503/345 1151/174 1184/319
f 1187/350 1007/397 1146/351
f 1211/353 1074/505 1077/354
f 761/40 1091/42 1061/356
f 514/358 1031/586 990/359
f 1204/360 996/620 541/361
f 830/363 1063/218 1062/364
f 1006/264 659/369 1051/347
f 659/369 658/753 1202/368
f 682/370 1178/306 1176/310
f 1114/114 1112/115 950/129
f 420/378 462/375 1020/379
f 1001/261 1003/429 1164/304
f 1241/352 1146/351 1126/383
f 1131/385 1235/176 1191/254
f 500/255 504/690 1025/387
f 707/785 706/739 1269/393
f 706/739 1206/391 1269/393
f 1152/310 1180/349 667/394
f 495/395 1024/465 1159/321
f 1007/397 1167/576 1240/398
f 1123/399 995/474 1156/400
f 1010/401 1168/583 1139/402
f 1077/354 1219/506 1223/404
f 1040/312 999/311 1140/407
f 735/408 1088/551 1058/323
f 1178/306 1044/305 1043/312
f 502/410 1026/511 1008/411
f 1046/264 657/369 1047/347
f 657/369 649/753 1200/368
f 837/128 1092/513 1069/413
f 1201/327 649/753 650/325
f 650/325 1049/416 1048/326
f 651/415 1050/497 1049/416
f 665/415 1054/497 1053/416
f 711/419 710/780 1265/417
f 1265/417 1155/782 1215/418
f 1028/420 512/799 507/390
f 539/421 537/423 993/203
f 542/427 540/648 994/428
f 1003/429 1227/495 1203/430
f 1264/431 474/372 1153/432
f 512/434 1029/177 988/179
f 1156/400 1173/801 1248/436
f 1248/436 484/438 534/437
f 1233/455 1197/783 1270/456
f 1016/42 972/41 480/458
f 1036/460 1153/432 1161/344
f 1081/405 1223/404 1214/461
f 969/46 444/298 1174/463
f 444/298 446/300 1174/463
f 499/346 1184/319 1159/321
f 1242/341 1186/340 496/466
f 473/377 1183/738 1286/469
f 1160/470 1242/341 1143/467
f 669/370 1190/492 1152/310
f 703/472 1211/353 1198/355
f 1161/344 1183/738 995/474
f 1044/305 1203/430 1205/258
f 1140/407 1163/477 673/259
f 429/124 1009/563 966/356
f 1042/491 672/317 999/311
f 672/317 673/259 1163/477
f 1070/478 1074/505 1211/353
f 1000/475 675/256 1175/258
f 1151/174 1023/507 979/479
f 1018/480 974/581 485/481
f 1185/396 1159/321 1127/320
f 1019/307 1169/494 1228/468
f 810/484 828/541 820/485
f 496/732 1025/387 1143/489
f 1025/387 1120/487 1143/489
f 670/382 671/496 1041/490
f 1042/491 999/311 1190/492
f 674/493 675/256 1000/475
f 677/493 676/256 1002/475
f 1169/494 462/375 473/377
f 680/496 679/317 1045/318
f 1046/264 1047/347 1179/257
f 1049/416 667/394 1180/349
f 652/498 667/394 1050/497
f 1006/264 1051/347 1181/257
f 1053/416 684/394 1182/349
f 664/498 684/394 1054/497
f 943/128 1110/114 1108/115
f 661/262 660/316 1005/263
f 1215/418 1211/353 703/472
f 1240/398 1144/577 978/502
f 1146/351 1240/398 1195/339
f 1074/505 1216/578 1219/506
f 1023/507 1170/567 1145/508
f 995/474 1037/802 1268/509
f 1268/509 1173/801 1156/400
f 1126/383 1195/339 1242/341
f 501/510 505/328 1055/330
f 1092/513 433/743 434/514
f 453/515 454/542 427/516
f 819/517 818/667 800/518
f 764/198 765/197 759/520
f 887/88 888/110 872/522
f 451/524 452/562 425/106
f 823/526 824/684 806/527
f 781/529 780/803 771/486
f 766/531 754/804 745/532
f 822/534 823/526 805/528
f 748/536 751/600 750/537
f 797/171 815/715 814/539
f 466/94 432/519 431/518
f 820/485 821/649 803/530
f 809/540 827/642 828/541
f 451/532 424/525 432/519
f 747/515 752/252 751/251
f 918/543 919/805 903/243
f 599/545 598/557 593/546
f 473/548 468/798 973/222
f 924/549 923/806 907/190
f 1088/551 734/807 729/324
f 825/155 826/808 808/131
f 1032/213 490/74 527/409
f 763/195 764/194 758/553
f 737/554 736/809 724/186
f 600/556 597/810 598/557
f 736/558 738/811 725/559
f 600/556 599/545 594/560
f 745/524 754/83 753/82
f 1009/563 421/686 461/357
f 1145/508 501/568 981/564
f 616/80 632/79 617/566
f 1170/567 505/705 501/568
f 794/106 812/105 811/569
f 475/570 460/804 472/531
f 452/118 453/119 426/104
f 778/540 787/812 786/572
f 546/89 561/242 562/244
f 894/573 895/601 879/574
f 1219/506 714/187 716/189
f 1167/576 498/813 1144/577
f 722/60 715/62 1216/578
f 530/580 491/58 974/581
f 1216/578 715/62 714/187
f 570/582 569/55 553/575
f 563/92 561/91 546/523
f 1091/42 763/459 757/476
f 1168/583 423/678 1011/334
f 639/136 638/151 633/137
f 926/584 925/814 909/246
f 566/65 565/64 549/248
f 1031/586 511/734 508/587
f 545/77 562/595 576/588
f 691/589 689/615 685/590
f 601/76 617/566 618/591
f 796/516 814/539 813/592
f 619/593 620/607 604/594
f 839/595 855/671 869/596
f 898/146 899/612 883/597
f 880/230 896/236 897/147
f 478/599 479/815 456/537
f 895/601 896/236 880/135
f 787/602 778/540 779/484
f 881/227 897/147 898/146
f 783/604 782/816 773/535
f 877/167 876/166 892/126
f 784/606 783/817 774/528
f 875/163 891/127 892/126
f 428/171 427/516 454/536
f 811/569 819/517 801/519
f 620/607 621/636 605/85
f 696/504 694/270 693/608
f 848/133 864/669 863/609
f 629/611 630/818 614/612
f 565/613 564/237 548/84
f 719/58 720/52 1255/103
f 695/272 693/608 689/615
f 1007/735 1124/329 1167/616
f 1124/329 1008/411 1167/616
f 574/617 573/253 557/598
f 884/206 900/78 901/80
f 742/618 743/819 732/53
f 1204/360 1156/400 534/437
f 877/268 893/605 894/621
f 1063/218 440/217 441/622
f 1165/285 1162/309 461/374
f 1068/623 435/658 436/624
f 626/626 627/235 611/236
f 625/627 626/626 610/601
f 624/628 625/820 609/621
f 909/184 925/821 924/629
f 1066/332 437/632 438/630
f 1067/625 436/624 437/632
f 1065/631 438/630 439/633
f 932/634 931/822 915/241
f 621/636 622/125 606/127
f 817/637 816/143 798/124
f 906/238 922/823 921/638
f 564/71 563/70 547/112
f 937/639 936/113 1104/115
f 598/557 597/810 595/640
f 808/131 826/808 827/642
f 776/552 785/48 1057/334
f 738/644 739/824 726/645
f 1212/579 1220/788 1257/102
f 1257/102 721/54 722/60
f 782/646 781/825 772/530
f 1115/115 956/113 957/639
f 614/612 630/818 631/647
f 740/648 742/826 731/59
f 821/649 822/534 804/535
f 618/591 619/593 603/110
f 743/651 744/827 733/120
f 1089/652 740/648 730/580
f 739/653 735/828 727/73
f 923/655 922/829 906/656
f 1095/581 719/58 1258/614
f 1223/404 716/189 717/72
f 1069/413 434/514 435/658
f 933/659 932/830 916/67
f 904/90 920/831 918/661
f 623/663 624/628 608/605
f 905/69 921/832 920/664
f 911/56 927/833 926/666
f 818/667 817/637 799/123
f 928/668 927/834 911/609
f 919/670 933/835 917/596
f 929/672 928/836 912/673
f 1196/384 1126/383 1160/470
f 741/677 1089/652 1059/480
f 1015/173 971/172 462/223
f 1087/643 1057/334 770/678
f 1166/679 1122/714 968/284
f 1034/652 1129/234 992/204
f 1094/680 1121/688 1273/681
f 1101/501 1128/283 1100/282
f 713/481 1095/581 1272/657
f 660/316 659/369 1006/264
f 824/684 1103/157 1128/283
f 833/333 1066/332 1065/631
f 1121/688 1080/767 1251/689
f 504/690 985/755 1120/487
f 1150/691 1125/403 970/464
f 954/129 1115/115 1113/114
f 1238/303 1133/302 978/692
f 462/375 1169/494 1166/679
f 541/361 485/441 1247/694
f 1247/694 1171/837 1172/362
f 1027/695 1236/706 1148/696
f 1194/392 1233/455 1261/457
f 422/698 1141/733 1150/691
f 1218/700 1234/774 1262/701
f 704/473 1198/355 1192/703
f 505/705 1170/567 1236/706
f 1176/310 1182/349 684/394
f 1208/707 1221/727 1278/708
f 1125/403 1139/402 1137/47
f 506/697 1148/696 1149/301
f 1010/710 967/764 1135/711
f 1147/713 1241/352 1196/384
f 1169/494 1019/307 1122/714
f 474/372 1142/308 1283/674
f 815/715 1084/281 1128/283
f 1170/567 1023/507 1131/385
f 450/716 442/296 1013/295
f 1130/717 1072/778 1250/718
f 750/314 1090/222 1060/172
f 1123/399 1204/360 1172/362
f 1076/721 1130/717 1281/719
f 497/723 1187/350 1241/352
f 1111/115 1109/114 947/128
f 1162/309 1142/308 474/372
f 1122/714 1019/307 1162/309
f 1075/724 1078/777 1245/725
f 1221/727 1217/776 1275/728
f 1212/579 1216/578 1074/505
f 1236/706 1131/385 984/386
f 1106/114 1104/115 934/129
f 1172/362 1171/837 1267/729
f 1267/729 1035/838 1036/460
f 1147/713 1158/565 981/564
f 421/686 1022/381 976/335
f 1198/355 1077/354 1081/405
f 499/587 1024/389 982/388
f 835/731 1068/623 1067/625
f 1141/733 1010/401 1125/403
f 511/734 1028/420 987/389
f 1215/418 1155/782 1245/725
f 1245/725 1078/777 1070/478
f 442/296 444/298 969/46
f 497/366 1055/330 1187/736
f 1055/330 1124/329 1187/736
f 797/171 1085/173 1084/281
f 1183/738 1138/839 1243/737
f 1243/737 1037/802 995/474
f 1127/320 979/479 1145/508
f 671/496 672/317 1042/491
f 423/149 1135/711 1136/286
f 718/74 1093/213 1282/215
f 705/704 1192/703 1206/391
f 1036/460 1035/838 1244/740
f 1244/740 1154/433 1153/432
f 1148/696 984/386 986/741
f 681/382 1164/304 1178/306
f 832/685 1065/631 1064/216
f 1235/176 985/175 504/743
f 1086/291 1056/290 767/500
f 1185/396 1239/676 1224/745
f 1229/260 1002/475 1003/429
f 1020/379 1166/679 1225/45
f 1239/676 1160/470 977/471
f 980/483 1196/384 1239/676
f 1209/746 1199/771 1271/747
f 1226/749 1208/707 1252/709
f 1157/751 1209/746 1253/748
f 1194/392 1206/391 1249/722
f 1206/391 1073/462 1249/722
f 975/342 1161/344 1284/675
f 1098/381 1132/142 1097/754
f 831/742 1064/216 1063/218
f 1135/711 967/764 968/284
f 541/677 996/232 1129/234
f 1026/511 1238/303 1144/693
f 503/730 982/388 1120/487
f 1192/703 1081/405 1073/462
f 1129/234 1033/233 535/202
f 1222/756 1155/782 1265/417
f 1119/115 1117/114 963/128
f 938/129 1107/115 1105/114
f 1002/475 676/256 1227/495
f 798/124 816/143 1082/687
f 977/488 1120/487 1224/758
f 1120/487 982/388 1224/758
f 806/527 824/684 1101/501
f 1263/759 1138/839 1183/738
f 980/483 1127/320 1158/565
f 1014/699 1150/691 1174/463
f 1098/381 792/686 1082/687
f 1070/478 1078/777 1277/760
f 1277/760 1220/788 1212/579
f 1237/141 983/140 496/732
f 675/762 1038/154 997/144
f 502/410 1149/301 1238/303
f 1039/158 998/157 662/684
f 1141/288 1177/43 967/764
f 513/765 1030/168 989/170
f 1132/142 1083/144 825/155
f 1107/115 940/113 941/639
f 964/113 965/639 1117/114
f 464/521 465/520 431/518
f 1110/114 945/639 944/113
f 506/412 1008/411 1124/329
f 1080/767 1075/724 1259/726
f 788/768 779/484 771/486
f 953/639 952/113 1112/115
f 807/552 1096/643 1097/754
f 836/414 1069/413 1068/623
f 595/770 597/810 600/556
f 1118/114 961/639 960/113
f 1199/771 1222/756 1279/757
f 1133/302 1237/141 1186/761
f 930/772 929/840 913/50
f 984/386 1191/254 1188/139
f 1234/774 1213/787 1274/775
f 1076/721 1073/462 1276/702
f 1073/462 1214/461 1276/702
f 1023/507 1151/174 1235/176
f 986/741 1188/139 1237/141
f 1217/776 1220/788 1277/760
f 967/764 1177/43 1225/45
f 1275/728 1277/760 1078/777
f 1262/701 1274/775 1072/778
f 1271/747 1279/757 709/779
f 1251/689 1259/726 1222/756
f 1279/757 1265/417 710/780
f 1266/752 1253/748 1079/41
f 1280/750 1252/709 1121/688
f 1253/748 1271/747 708/458
f 1256/212 1282/215 1234/774
f 1278/708 1275/728 1075/724
f 1259/726 1245/725 1155/782
f 1249/722 1281/719 1233/455
f 1281/719 1250/718 1197/783
f 1252/709 1278/708 1080/767
f 1276/702 1262/701 1130/717
f 1269/393 1261/457 1071/784
f 1273/681 1251/689 1199/771
f 1260/683 1272/657 1208/707
f 1246/682 1273/681 1209/746
f 1153/432 1283/674 1284/675
f 1272/657 1258/614 1221/727
f 1258/614 1255/103 1217/776
f 1285/343 1286/469 1183/738
f 1261/457 1270/456 701/786
f 1282/215 1254/214 1213/787
f 1255/103 1257/102 1220/788
o Lever
v 2.625 0.125 4.4375
v 2.5808 0.125 4.4558
v 2.5625 0.125 4.5
v 2.5808 0.125 4.5442
v 2.625 0.125 4.5625
v 2.6692 0.125 4.5442
v 2.6875 0.125 4.5
v 2.6692 0.125 4.4558
v 2.5808 0.3213 4.0959
v 2.625 0.305 4.1041
v 2.5625 0.3608 4.076
v 2.5808 0.4003 4.0562
v 2.625 0.4167 4.048
v 2.6692 0.4003 4.0562
v 2.6875 0.3608 4.076
v 2.6692 0.3213 4.0959
v 2.5587 0.3016 4.1058
v 2.625 0.277 4.1181
v 2.5312 0.3608 4.076
v 2.5587 0.4201 4.0463
v 2.625 0.4446 4.034
v 2.6913 0.4201 4.0463
v 2.7188 0.3608 4.076
v 2.6913 0.3016 4.1058
v 2.5587 0.0773 3.6589
v 2.625 0.0528 3.6712
v 2.5312 0.1365 3.6292
v 2.5587 0.1958 3.5994
v 2.625 0.2203 3.5871
v 2.6913 0.1958 3.5994
v 2.7188 0.1365 3.6292
v 2.6913 0.0773 3.6589
v 2.5919 0.4136 4.2593
v 2.6581 0.4136 4.2593
v 2.5919 0.2178 4.1478
v 2.6581 0.2178 4.1478
v 2.5919 -0.0065 3.7009
v 2.6581 -0.0065 3.7009
v 2.5919 -0.0067 3.5612
v 2.6581 -0.0067 3.5612
v 2.5919 0.4415 4.2453
v 2.6581 0.4415 4.2453
v 2.5919 0.2457 4.1338
v 2.6581 0.2457 4.1338
v 2.5919 0.0214 3.6869
v 2.6581 0.0214 3.6869
v 2.5919 0.0212 3.5472
v 2.6581 0.0212 3.5472
v 2.5587 0.3016 4.1058
v 2.625 0.277 4.1181
v 2.5312 0.3608 4.076
v 2.5587 0.4201 4.0463
v 2.625 0.4446 4.034
v 2.6913 0.4201 4.0463
v 2.7188 0.3608 4.076
v 2.6913 0.3016 4.1058
v 2.5587 0.0773 3.6589
v 2.625 0.0528 3.6712
v 2.5312 0.1365 3.6292
v 2.5587 0.1958 3.5994
v 2.625 0.2203 3.5871
v 2.6913 0.1958 3.5994
v 2.7188 0.1365 3.6292
v 2.6913 0.0773 3.6589
v 2.5919 0.4136 4.2593
v 2.6581 0.4136 4.2593
v 2.5919 0.2178 4.1478
v 2.6581 0.2178 4.1478
v 2.5919 -0.0065 3.7009
v 2.6581 -0.0065 3.7009
v 2.5919 -0.0067 3.5612
v 2.6581 -0.0067 3.5612
v 2.5919 0.4415 4.2453
v 2.6581 0.4415 4.2453
v 2.5919 0.2457 4.1338
v 2.6581 0.2457 4.1338
v 2.5919 0.0214 3.6869
v 2.6581 0.0214 3.6869
v 2.5919 0.0212 3.5472
v 2.6581 0.0212 3.5472
v 2.6875 0.9328 4.5
v 2.625 1.0396 4.5625
v 2.5625 0.9966 4.5
v 2.625 0.8798 4.4375
v 2.6692 0.8798 4.4558
v 2.6692 0.9958 4.5442
v 2.5808 1.0357 4.5442
v 2.5808 0.8798 4.4558
v 2.6692 0.4762 4.4044
v 2.6875 0.5157 4.3846
v 2.5625 0.5157 4.3846
v 2.5808 0.4762 4.4044
v 2.625 0.5715 4.3565
v 2.5808 0.5552 4.3647
v 2.6692 0.5552 4.3647
v 2.625 0.4598 4.4126
vt 0.1766 0.1771
vt 0.1745 0.1771
vt 0.1745 0.1701
vt 0.1766 0.1701
vt 0.183 0.1701
vt 0.1809 0.1424
vt 0.183 0.1424
vt 0.1787 0.1701
vt 0.1787 0.1424
vt 0.1766 0.1285
vt 0.1745 0.1424
vt 0.1745 0.1285
vt 0.1787 0.1285
vt 0.1617 0.1285
vt 0.1596 0.1642
vt 0.1596 0.1285
vt 0.1596 0.1875
vt 0.1574 0.2153
vt 0.1574 0.1875
vt 0.166 0.2153
vt 0.1638 0.1875
vt 0.166 0.1875
vt 0.1809 0.1701
vt 0.1809 0.1285
vt 0.1574 0.1642
vt 0.1745 0.1806
vt 0.1766 0.1424
vt 0.1638 0.2153
vt 0.1574 0.184
vt 0.1574 0.1806
vt 0.1596 0.1806
vt 0.1617 0.1806
vt 0.1617 0.184
vt 0.1617 0.1875
vt 0.1617 0.2153
vt 0.1596 0.2153
vt 0.1574 0.2222
vt 0.1574 0.2188
vt 0.1617 0.2188
vt 0.1617 0.2222
vt 0.1596 0.2222
vt 0.1702 0.2153
vt 0.1681 0.2153
vt 0.1681 0.1875
vt 0.1766 0.1806
vt 0.1617 0.1642
vt 0.1638 0.1806
vt 0.166 0.1642
vt 0.166 0.1806
vt 0.1702 0.1642
vt 0.1681 0.1806
vt 0.1681 0.1642
vt 0.1723 0.1642
vt 0.1745 0.1642
vt 0.1787 0.1771
vt 0.1723 0.1806
vt 0.1702 0.1875
vt 0.1723 0.2153
vt 0.1723 0.1875
vt 0.1745 0.1875
vt 0.183 0.1285
vt 0.183 0.1771
vt 0.1809 0.1771
vt 0.1681 0.1285
vt 0.1702 0.1285
vt 0.1702 0.1806
vt 0.1745 0.2153
vt 0.1638 0.1642
vt 0.166 0.1285
vt 0.1723 0.1285
vt 0.1574 0.1285
vt 0.1638 0.1285
s 1
f 1326/841 1334/842 1332/843
f 1326/841 1332/843 1324/844
f 1364/845 1361/846 1362/847
f 1329/846 1323/848 1321/849
f 1320/850 1330/851 1328/852
f 1319/853 1329/846 1321/849
f 1291/854 1373/855 1290/856
f 1306/857 1313/858 1305/859
f 1317/860 1308/861 1309/862
f 1364/845 1363/863 1361/846
f 1319/853 1327/864 1329/846
f 1290/856 1373/855 1369/865
f 1333/866 1334/842 1326/841
f 1329/846 1331/863 1323/848
f 1320/850 1322/867 1330/851
f 1317/860 1316/868 1308/861
f 1337/859 1335/869 1336/870
f 1336/870 1342/871 1341/872
f 1341/872 1340/873 1339/874
f 1339/874 1338/857 1337/859
f 1315/875 1314/876 1306/857
f 1344/877 1343/878 1345/858
f 1345/858 1346/876 1347/875
f 1347/875 1348/879 1349/880
f 1349/880 1350/881 1344/877
f 1312/882 1318/883 1310/884
f 1333/866 1326/841 1325/885
f 1298/871 1379/886 1299/872
f 1300/887 1376/888 1301/889
f 1382/890 1302/891 1375/892
f 1298/871 1377/865 1380/855
f 1297/866 1378/893 1377/894
f 1324/844 1330/851 1322/867
f 1375/892 1301/889 1376/888
f 1356/844 1353/849 1355/848
f 1358/841 1355/848 1357/895
f 1315/875 1306/857 1307/874
f 1295/896 1382/890 1378/893
f 1312/882 1310/884 1304/897
f 1345/858 1349/880 1344/877
f 1336/870 1339/874 1337/859
f 1311/898 1304/897 1303/899
f 1316/868 1307/874 1308/861
f 1305/900 1311/898 1303/899
f 1318/883 1309/862 1310/884
f 1362/847 1359/864 1360/901
f 1354/867 1351/853 1353/849
f 1366/902 1365/903 1363/863
f 1371/892 1294/904 1287/905
f 1362/847 1361/846 1359/864
f 1316/868 1315/875 1307/874
f 1358/841 1356/844 1355/848
f 1336/870 1341/872 1339/874
f 1345/858 1347/875 1349/880
f 1295/896 1296/906 1382/890
f 1311/898 1312/882 1304/897
f 1305/900 1313/907 1311/898
f 1318/883 1317/860 1309/862
f 1354/867 1352/850 1351/853
f 1300/887 1299/872 1379/886
f 1325/895 1323/848 1331/863
f 1300/887 1379/886 1381/908
f 1371/892 1293/909 1294/904
f 1289/852 1374/893 1288/910
f 1290/856 1369/865 1289/911
f 1367/888 1292/912 1293/909
f 1366/902 1363/863 1364/845
f 1371/892 1287/905 1370/890
f 1325/895 1331/863 1333/903
f 1372/908 1291/854 1292/912
f 1300/887 1381/908 1376/888
f 1324/844 1332/843 1330/851
f 1356/844 1354/867 1353/849
f 1375/892 1302/891 1301/889
f 1297/866 1295/896 1378/893
f 1298/871 1380/855 1379/886
f 1298/871 1297/870 1377/865
f 1382/890 1296/906 1302/891
f 1371/892 1367/888 1293/909
f 1289/852 1369/894 1374/893
f 1306/857 1314/876 1313/858
f 1367/888 1372/908 1292/912
f 1370/890 1287/905 1288/910
f 1291/854 1368/886 1373/855
f 1372/908 1368/886 1291/854
f 1370/890 1288/910 1374/893
