o Body
v 0 2 -1.25
v 0 6 -1.25
v 0.4784 2 -1.1548
v 0.4784 6 -1.1548
v 0.8839 2 -0.8839
v 0.8839 6 -0.8839
v 1.1548 2 -0.4784
v 1.1548 6 -0.4784
v 1.25 2 -0
v 1.25 6 -0
v 1.1548 2 0.4784
v 1.1548 6 0.4784
v 0.8839 2 0.8839
v 0.8839 6 0.8839
v 0.4784 2 1.1548
v 0.4784 6 1.1548
v 0 2 1.25
v 0 6 1.25
v -0.4784 2 1.1548
v -0.4784 6 1.1548
v -0.8839 2 0.8839
v -0.8839 6 0.8839
v -1.1548 2 0.4784
v -1.1548 6 0.4784
v -1.25 2 -0
v -1.25 6 -0
v -1.1548 2 -0.4784
v -1.1548 6 -0.4784
v -0.8839 2 -0.8839
v -0.8839 6 -0.8839
v -0.4784 2 -1.1548
v -0.4784 6 -1.1548
v -0.1768 5.6768 1.5
v -0.25 5.5 1.5
v -0.1768 5.3232 1.5
v 0 5.25 1.5
v 0.1768 5.3232 1.5
v 0.25 5.5 1.5
v 0.1768 5.6768 1.5
v 0 5.75 1.5
v 0.1326 0.25 -0.1326
v 0.1875 0.25 -0
v 0.1326 0.25 0.1326
v 0 0.25 0.1875
v -0.1326 0.25 0.1326
v -0.1875 0.25 -0
v 0 0.25 -0.1875
v -0.1326 0.25 -0.1326
v -0.25 6.25 0.25
v -0.25 6.5 0.25
v -0.25 6.25 -0.25
v -0.25 6.5 -0.25
v 0.25 6.25 0.25
v 0.25 6.5 0.25
v 0.25 6.25 -0.25
v 0.25 6.5 -0.25
v -0.375 6.5 -0.375
v -0.375 6.5 0.375
v 0 6 -0.125
v 0 6.25 -0.125
v 0.0884 6 -0.0884
v 0.0884 6.25 -0.0884
v 0.125 6 -0
v 0.125 6.25 -0
v 0.0884 6 0.0884
v 0.0884 6.25 0.0884
v 0 6 0.125
v 0 6.25 0.125
v -0.0884 6 0.0884
v -0.0884 6.25 0.0884
v -0.125 6 -0
v -0.125 6.25 -0
v -0.0884 6 -0.0884
v -0.0884 6.25 -0.0884
v 0.375 6.5 -0.375
v 0.375 6.5 0.375
v 0.375 6.75 0.375
v -0.375 6.75 0.375
v 0.375 6.75 -0.375
v -0.375 6.75 -0.375
v -0.0663 7.125 -0.0663
v 0 7 -0.1875
v -0.0938 7.125 -0
v 0.1326 7 -0.1326
v -0.0663 7.125 0.0663
v 0.1875 7 -0
v 0 7.125 0.0937
v 0.1326 7 0.1326
v 0.0663 7.125 0.0663
v 0 7 0.1875
v 0.0938 7.125 -0
v -0.1326 7 0.1326
v 0 7.125 -0.0938
v -0.1875 7 -0
v 0.0663 7.125 -0.0663
v -0.1326 7 -0.1326
v 0.0663 7.125 -0.0663
v 0 7.125 -0.0938
v 0.0938 7.125 -0
v 0.0663 7.125 0.0663
v 0 7.125 0.0937
v -0.0663 7.125 0.0663
v -0.0938 7.125 -0
v -0.0663 7.125 -0.0663
v 1.25 0 1.5
v 1.25 7 1.5
v 1.25 0 1.25
v 1.25 7 1.25
v 1.5 0 1.5
v 1.5 7 1.5
v 1.5 0 1.25
v 1.5 7 1.25
v 1.25 -0 -1.25
v 1.25 7 -1.25
v 1.25 -0 -1.5
v 1.25 7 -1.5
v 1.5 -0 -1.25
v 1.5 7 -1.25
v 1.5 -0 -1.5
v 1.5 7 -1.5
v -1.5 0 1.5
v -1.5 7 1.5
v -1.5 0 1.25
v -1.5 7 1.25
v -1.25 0 1.5
v -1.25 7 1.5
v -1.25 0 1.25
v -1.25 7 1.25
v -1.5 -0 -1.25
v -1.5 7 -1.25
v -1.5 -0 -1.5
v -1.5 7 -1.5
v -1.25 -0 -1.25
v -1.25 7 -1.25
v -1.25 -0 -1.5
v -1.25 7 -1.5
v 0 0.5 -0.25
v -0.1768 0.5 -0.1768
v -0.25 0.5 -0
v -0.1768 0.5 0.1768
v 0 0.5 0.25
v 0.1768 0.5 0.1768
v 0.25 0.5 -0
v 0.1768 0.5 -0.1768
v -0.1326 0.25 -0.1326
v 0 0.25 -0.1875
v -0.1875 0.25 -0
v -0.1326 0.25 0.1326
v 0 0.25 0.1875
v 0.1326 0.25 0.1326
v 0.1875 0.25 -0
v 0.1326 0.25 -0.1326
v 1.5 0 0.25
v 1.5 0.5 0.25
v 1 0 0.25
v 1 0.5 0.25
v 1.5 -0 -0.25
v 1.5 0.5 -0.25
v 1 -0 -0.25
v 1 0.5 -0.25
v 1.5 0.75 0.125
v 1 0.75 0.125
v 1 0.75 -0.125
v 1.5 0.75 -0.125
v 1 0.4192 0.0442
v -1 0.4192 0.0442
v 0 0.4375 -1
v 0 0.4375 1
v 0.0442 0.4192 -1
v 0.0442 0.4192 1
v 0.0625 0.375 -1
v 0.0625 0.375 1
v 0.0442 0.3308 -1
v 0.0442 0.3308 1
v 0 0.3125 -1
v 0 0.3125 1
v -0.0442 0.3308 -1
v -0.0442 0.3308 1
v -0.0625 0.375 -1
v -0.0625 0.375 1
v -0.0442 0.4192 -1
v -0.0442 0.4192 1
v 1 0.375 0.0625
v -1 0.375 0.0625
v 1 0.3308 0.0442
v -1 0.3308 0.0442
v 1 0.3125 -0
v -1 0.3125 -0
v 1 0.3308 -0.0442
v -1 0.3308 -0.0442
v 1 0.375 -0.0625
v -1 0.375 -0.0625
v 1 0.4192 -0.0442
v -1 0.4192 -0.0442
v 1 0.4375 -0
v -1 0.4375 -0
v -0.375 6 -0.5
v -0.375 7 -0.5
v 0.375 6 -0.5
v 0.375 7 -0.5
v 0.4634 6 -0.4634
v 0.4634 7 -0.4634
v 0.5 6 -0.375
v 0.5 7 -0.375
v 0.4634 6 -0.2866
v 0.4634 7 -0.2866
v 0.375 6 -0.25
v 0.375 7 -0.25
v 0.2866 6 -0.2866
v 0.2866 7 -0.2866
v 0.25 6 -0.375
v 0.25 7 -0.375
v 0.2866 6 -0.4634
v 0.2866 7 -0.4634
v -0.2866 6 -0.4634
v -0.2866 7 -0.4634
v -0.25 6 -0.375
v -0.25 7 -0.375
v -0.2866 6 -0.2866
v -0.2866 7 -0.2866
v -0.375 6 -0.25
v -0.375 7 -0.25
v -0.4634 6 -0.2866
v -0.4634 7 -0.2866
v -0.5 6 -0.375
v -0.5 7 -0.375
v -0.4634 6 -0.4634
v -0.4634 7 -0.4634
v -0.375 6 0.25
v -0.375 7 0.25
v 0.375 6 0.25
v 0.375 7 0.25
v 0.4634 6 0.2866
v 0.4634 7 0.2866
v 0.5 6 0.375
v 0.5 7 0.375
v 0.4634 6 0.4634
v 0.4634 7 0.4634
v 0.375 6 0.5
v 0.375 7 0.5
v 0.2866 6 0.4634
v 0.2866 7 0.4634
v 0.25 6 0.375
v 0.25 7 0.375
v 0.2866 6 0.2866
v 0.2866 7 0.2866
v -0.2866 6 0.2866
v -0.2866 7 0.2866
v -0.25 6 0.375
v -0.25 7 0.375
v -0.2866 6 0.4634
v -0.2866 7 0.4634
v -0.375 6 0.5
v -0.375 7 0.5
v -0.4634 6 0.4634
v -0.4634 7 0.4634
v -0.5 6 0.375
v -0.5 7 0.375
v -0.4634 6 0.2866
v -0.4634 7 0.2866
v 1.25 2.5 1.25
v 1.375 2.5 1.25
v 1.25 2.5 -1.25
v 1.375 2.5 -1.25
v 1.375 2.25 1.25
v 1.25 2.25 1.25
v 1.25 2.25 -1.25
v 1.375 2.25 -1.25
v 1.25 5.75 1.25
v 1.375 5.75 1.25
v 1.25 5.75 -1.25
v 1.375 5.75 -1.25
v 1.375 5.5 1.25
v 1.25 5.5 1.25
v 1.25 5.5 -1.25
v 1.375 5.5 -1.25
v 1.25 7 1.25
v 1.375 7 1.25
v 1.25 7 -1.25
v 1.375 7 -1.25
v 1.375 6.75 1.25
v 1.25 6.75 1.25
v 1.25 6.75 -1.25
v 1.375 6.75 -1.25
v -1.25 2.5 -1.25
v -1.375 2.5 -1.25
v -1.25 2.5 1.25
v -1.375 2.5 1.25
v -1.375 2.25 -1.25
v -1.25 2.25 -1.25
v -1.25 2.25 1.25
v -1.375 2.25 1.25
v -1.25 5.75 -1.25
v -1.375 5.75 -1.25
v -1.25 5.75 1.25
v -1.375 5.75 1.25
v -1.375 5.5 -1.25
v -1.25 5.5 -1.25
v -1.25 5.5 1.25
v -1.375 5.5 1.25
v -1.25 7 -1.25
v -1.375 7 -1.25
v -1.25 7 1.25
v -1.375 7 1.25
v -1.375 6.75 -1.25
v -1.25 6.75 -1.25
v -1.25 6.75 1.25
v -1.375 6.75 1.25
v 1.25 2.5 -1.25
v 1.25 2.5 -1.375
v -1.25 2.5 -1.25
v -1.25 2.5 -1.375
v 1.25 2.25 -1.375
v 1.25 2.25 -1.25
v -1.25 2.25 -1.25
v -1.25 2.25 -1.375
v 1.25 5.75 -1.25
v 1.25 5.75 -1.375
v -1.25 5.75 -1.25
v -1.25 5.75 -1.375
v 1.25 5.5 -1.375
v 1.25 5.5 -1.25
v -1.25 5.5 -1.25
v -1.25 5.5 -1.375
v 1.25 7 -1.25
v 1.25 7 -1.375
v -1.25 7 -1.25
v -1.25 7 -1.375
v 1.25 6.75 -1.375
v 1.25 6.75 -1.25
v -1.25 6.75 -1.25
v -1.25 6.75 -1.375
v -1.25 2.5 1.25
v -1.25 2.5 1.375
v 1.25 2.5 1.25
v 1.25 2.5 1.375
v -1.25 2.25 1.375
v -1.25 2.25 1.25
v 1.25 2.25 1.25
v 1.25 2.25 1.375
v -1.25 5.75 1.25
v -1.25 5.75 1.375
v 1.25 5.75 1.25
v 1.25 5.75 1.375
v -1.25 5.5 1.375
v -1.25 5.5 1.25
v 1.25 5.5 1.25
v 1.25 5.5 1.375
v -1.25 7 1.25
v -1.25 7 1.375
v 1.25 7 1.25
v 1.25 7 1.375
v -1.25 6.75 1.375
v -1.25 6.75 1.25
v 1.25 6.75 1.25
v 1.25 6.75 1.375
v 0 6.5 0.5
v 0.1768 6.5 0.5732
v 0 6 0.625
v 0 6.25 0.625
v 0.0884 6 0.6616
v 0.0884 6.25 0.6616
v 0.125 6 0.75
v 0.125 6.25 0.75
v 0.0884 6 0.8384
v 0.0884 6.25 0.8384
v 0 6 0.875
v 0 6.25 0.875
v -0.0884 6 0.8384
v -0.0884 6.25 0.8384
v -0.125 6 0.75
v -0.125 6.25 0.75
v -0.0884 6 0.6616
v -0.0884 6.25 0.6616
v 0.25 6.5 0.75
v 0.1768 6.5 0.9268
v 0 6.5 1
v -0.1768 6.5 0.9268
v -0.25 6.5 0.75
v -0.1768 6.5 0.5732
v 0 7 0.5
v -0.1768 7 0.5732
v -0.25 7 0.75
v -0.1768 7 0.9268
v 0 7 1
v 0.1768 7 0.9268
v 0.25 7 0.75
v 0.1768 7 0.5732
v 0 6.5 -1
v 0.1768 6.5 -0.9268
v 0 6 -0.875
v 0 6.25 -0.875
v 0.0884 6 -0.8384
v 0.0884 6.25 -0.8384
v 0.125 6 -0.75
v 0.125 6.25 -0.75
v 0.0884 6 -0.6616
v 0.0884 6.25 -0.6616
v 0 6 -0.625
v 0 6.25 -0.625
v -0.0884 6 -0.6616
v -0.0884 6.25 -0.6616
v -0.125 6 -0.75
v -0.125 6.25 -0.75
v -0.0884 6 -0.8384
v -0.0884 6.25 -0.8384
v 0.25 6.5 -0.75
v 0.1768 6.5 -0.5732
v 0 6.5 -0.5
v -0.1768 6.5 -0.5732
v -0.25 6.5 -0.75
v -0.1768 6.5 -0.9268
v 0 7 -1
v -0.1768 7 -0.9268
v -0.25 7 -0.75
v -0.1768 7 -0.5732
v 0 7 -0.5
v 0.1768 7 -0.5732
v 0.25 7 -0.75
v 0.1768 7 -0.9268
v 1 0 1.375
v 1 7 1.375
v 0.9375 0 1.375
v 0.9375 7 1.375
v 1 0 1.5
v 1 7 1.5
v 0.9375 0 1.5
v 0.9375 7 1.5
v 0.4375 0 1.375
v 0.4375 7 1.375
v 0.375 0 1.375
v 0.375 7 1.375
v 0.4375 0 1.5
v 0.4375 7 1.5
v 0.375 0 1.5
v 0.375 7 1.5
v 0.9375 0.3125 1.375
v 0.9375 0.3125 1.4375
v 0.4375 0.3125 1.375
v 0.4375 0.3125 1.4375
v 0.9375 0.1875 1.375
v 0.9375 0.1875 1.4375
v 0.4375 0.1875 1.4375
v 0.4375 0.1875 1.375
v 0.9375 0.8125 1.375
v 0.9375 0.8125 1.4375
v 0.4375 0.8125 1.375
v 0.4375 0.8125 1.4375
v 0.9375 0.6875 1.375
v 0.9375 0.6875 1.4375
v 0.4375 0.6875 1.4375
v 0.4375 0.6875 1.375
v 0.9375 1.3125 1.375
v 0.9375 1.3125 1.4375
v 0.4375 1.3125 1.375
v 0.4375 1.3125 1.4375
v 0.9375 1.1875 1.375
v 0.9375 1.1875 1.4375
v 0.4375 1.1875 1.4375
v 0.4375 1.1875 1.375
v 0.9375 1.8125 1.375
v 0.9375 1.8125 1.4375
v 0.4375 1.8125 1.375
v 0.4375 1.8125 1.4375
v 0.9375 1.6875 1.375
v 0.9375 1.6875 1.4375
v 0.4375 1.6875 1.4375
v 0.4375 1.6875 1.375
v 0.9375 2.3125 1.375
v 0.9375 2.3125 1.4375
v 0.4375 2.3125 1.375
v 0.4375 2.3125 1.4375
v 0.9375 2.1875 1.375
v 0.9375 2.1875 1.4375
v 0.4375 2.1875 1.4375
v 0.4375 2.1875 1.375
v 0.9375 2.8125 1.375
v 0.9375 2.8125 1.4375
v 0.4375 2.8125 1.375
v 0.4375 2.8125 1.4375
v 0.9375 2.6875 1.375
v 0.9375 2.6875 1.4375
v 0.4375 2.6875 1.4375
v 0.4375 2.6875 1.375
v 0.9375 3.3125 1.375
v 0.9375 3.3125 1.4375
v 0.4375 3.3125 1.375
v 0.4375 3.3125 1.4375
v 0.9375 3.1875 1.375
v 0.9375 3.1875 1.4375
v 0.4375 3.1875 1.4375
v 0.4375 3.1875 1.375
v 0.9375 3.8125 1.375
v 0.9375 3.8125 1.4375
v 0.4375 3.8125 1.375
v 0.4375 3.8125 1.4375
v 0.9375 3.6875 1.375
v 0.9375 3.6875 1.4375
v 0.4375 3.6875 1.4375
v 0.4375 3.6875 1.375
v 0.9375 4.3125 1.375
v 0.9375 4.3125 1.4375
v 0.4375 4.3125 1.375
v 0.4375 4.3125 1.4375
v 0.9375 4.1875 1.375
v 0.9375 4.1875 1.4375
v 0.4375 4.1875 1.4375
v 0.4375 4.1875 1.375
v 0.9375 4.8125 1.375
v 0.9375 4.8125 1.4375
v 0.4375 4.8125 1.375
v 0.4375 4.8125 1.4375
v 0.9375 4.6875 1.375
v 0.9375 4.6875 1.4375
v 0.4375 4.6875 1.4375
v 0.4375 4.6875 1.375
v 0.9375 5.3125 1.375
v 0.9375 5.3125 1.4375
v 0.4375 5.3125 1.375
v 0.4375 5.3125 1.4375
v 0.9375 5.1875 1.375
v 0.9375 5.1875 1.4375
v 0.4375 5.1875 1.4375
v 0.4375 5.1875 1.375
v 0.9375 5.8125 1.375
v 0.9375 5.8125 1.4375
v 0.4375 5.8125 1.375
v 0.4375 5.8125 1.4375
v 0.9375 5.6875 1.375
v 0.9375 5.6875 1.4375
v 0.4375 5.6875 1.4375
v 0.4375 5.6875 1.375
v 0.9375 6.3125 1.375
v 0.9375 6.3125 1.4375
v 0.4375 6.3125 1.375
v 0.4375 6.3125 1.4375
v 0.9375 6.1875 1.375
v 0.9375 6.1875 1.4375
v 0.4375 6.1875 1.4375
v 0.4375 6.1875 1.375
v 0.9375 6.8125 1.375
v 0.9375 6.8125 1.4375
v 0.4375 6.8125 1.375
v 0.4375 6.8125 1.4375
v 0.9375 6.6875 1.375
v 0.9375 6.6875 1.4375
v 0.4375 6.6875 1.4375
v 0.4375 6.6875 1.375
v 0 2.25 -1.125
v 0 5.75 -1.125
v 0.4305 2.25 -1.0394
v 0.4305 5.75 -1.0394
v 0.7955 2.25 -0.7955
v 0.7955 5.75 -0.7955
v 1.0394 2.25 -0.4305
v 1.0394 5.75 -0.4305
v 1.125 2.25 -0
v 1.125 5.75 -0
v 1.0394 2.25 0.4305
v 1.0394 5.75 0.4305
v 0.7955 2.25 0.7955
v 0.7955 5.75 0.7955
v 0.4305 2.25 1.0394
v 0.4305 5.75 1.0394
v 0 2.25 1.125
v 0 5.75 1.125
v -0.4305 2.25 1.0394
v -0.4305 5.75 1.0394
v -0.7955 2.25 0.7955
v -0.7955 5.75 0.7955
v -1.0394 2.25 0.4305
v -1.0394 5.75 0.4305
v -1.125 2.25 -0
v -1.125 5.75 -0
v -1.0394 2.25 -0.4305
v -1.0394 5.75 -0.4305
v -0.7955 2.25 -0.7955
v -0.7955 5.75 -0.7955
v -0.4305 2.25 -1.0394
v -0.4305 5.75 -1.0394
v -1.2003 3.25 -0.25
v 1.2003 3.25 -0.25
v -1.0753 3.25 -0.25
v 1.0753 3.25 -0.25
v -1.2003 4.5 -0.25
v 1.2003 4.5 -0.25
v 1.25 4.5 -0
v 1.125 4.5 -0
v 1.0753 4.5 -0.25
v -1.0753 4.5 -0.25
v -1.2003 2.5 -0.25
v 1.2003 2.5 -0.25
v -1.0753 2.5 -0.25
v 1.0753 2.5 -0.25
v -1.2003 4.5 0.25
v 1.2003 4.5 0.25
v 1.0753 4.5 0.25
v -1.0753 4.5 0.25
v -1.2003 5.25 -0.25
v 1.2003 5.25 -0.25
v 1.0753 5.25 -0.25
v -1.0753 5.25 -0.25
v -1.25 5.25 -0
v -1.125 5.25 -0
v -1.2003 5.25 0.25
v 1.25 5.25 -0
v 1.2003 5.25 0.25
v 1.0753 5.25 0.25
v 1.125 5.25 -0
v -1.0753 5.25 0.25
v -1.25 3.25 -0
v -1.125 3.25 -0
v -1.25 2.5 -0
v -1.2003 2.5 0.25
v 1.2003 2.5 0.25
v -1.0753 2.5 0.25
v -1.125 2.5 -0
v 1.0753 2.5 0.25
v 1.25 2.5 -0
v 1.125 2.5 -0
v -1.2003 3.25 0.25
v 1.2003 3.25 0.25
v -1.0753 3.25 0.25
v 1.0753 3.25 0.25
v 1.25 3.25 -0
v 1.125 3.25 -0
v -1.25 4.5 -0
v -1.125 4.5 -0
v -0.0541 7.5312 -0.25
v -0.0541 7.4688 -0.25
v 0 7.4375 -0.25
v 0.0541 7.4688 -0.25
v 0.0541 7.5312 -0.25
v 0 7.5625 -0.25
v -0.0541 7.4908 -0.4533
v -0.0541 7.4331 -0.4294
v 0 7.4042 -0.4174
v 0.0541 7.4331 -0.4294
v 0.0541 7.4908 -0.4533
v 0 7.5197 -0.4653
v -0.0541 7.125 0.0312
v -0.0541 7.125 -0.0313
v 0 7.125 -0.0625
v 0.0541 7.125 -0.0313
v 0.0541 7.125 0.0312
v 0 7.125 0.0625
v 0 7.5625 0.25
v 0.0541 7.5312 0.25
v 0.0541 7.4688 0.25
v 0 7.4375 0.25
v -0.0541 7.4688 0.25
v -0.0541 7.5312 0.25
v 0 7.5197 0.4653
v 0.0541 7.4908 0.4533
v 0.0541 7.4331 0.4294
v 0 7.4042 0.4174
v -0.0541 7.4331 0.4294
v -0.0541 7.4908 0.4533
v 0 7.3977 0.6477
v 0.0541 7.3757 0.6256
v 0.0541 7.3315 0.5815
v 0 7.3094 0.5594
v -0.0541 7.3315 0.5815
v -0.0541 7.3757 0.6256
v 0 7.2153 0.7697
v 0.0541 7.2033 0.7408
v 0.0541 7.1794 0.6831
v 0 7.1674 0.6542
v -0.0541 7.1794 0.6831
v -0.0541 7.2033 0.7408
v 0 7 0.8125
v 0.0541 7 0.7812
v 0.0541 7 0.7187
v 0 7 0.6875
v -0.0541 7 0.7187
v -0.0541 7 0.7812
v -0.0541 7.3757 -0.6257
v -0.0541 7.3315 -0.5815
v 0 7.3094 -0.5594
v 0.0541 7.3315 -0.5815
v 0.0541 7.3757 -0.6257
v 0 7.3977 -0.6477
v -0.0541 7.2033 -0.7408
v -0.0541 7.1794 -0.6831
v 0 7.1674 -0.6542
v 0.0541 7.1794 -0.6831
v 0.0541 7.2033 -0.7408
v 0 7.2153 -0.7697
v -0.0541 7 -0.7813
v -0.0541 7 -0.7188
v 0 7 -0.6875
v 0.0541 7 -0.7188
v 0.0541 7 -0.7813
v 0 7 -0.8125
v -0.0541 7.47 -0.0313
v -0.0541 7.47 0.0312
v 0 7.47 0.0625
v 0.0541 7.47 0.0312
v 0.0541 7.47 -0.0313
v 0 7.47 -0.0625
v 0 5.75 1.125
v 0 5.75 1.5
v 0.1768 5.6768 1.125
v 0.1768 5.6768 1.5
v 0.25 5.5 1.125
v 0.25 5.5 1.5
v 0.1768 5.3232 1.125
v 0.1768 5.3232 1.5
v 0 5.25 1.125
v 0 5.25 1.5
v -0.1768 5.3232 1.125
v -0.1768 5.3232 1.5
v -0.25 5.5 1.125
v -0.25 5.5 1.5
v -0.1768 5.6768 1.125
v -0.1768 5.6768 1.5
v 0 5.75 -1.125
v 0 5.75 -1.5
v -0.1768 5.6768 -1.125
v -0.1768 5.6768 -1.5
v -0.25 5.5 -1.125
v -0.25 5.5 -1.5
v -0.1768 5.3232 -1.125
v -0.1768 5.3232 -1.5
v 0 5.25 -1.125
v 0 5.25 -1.5
v 0.1768 5.3232 -1.125
v 0.1768 5.3232 -1.5
v 0.25 5.5 -1.125
v 0.25 5.5 -1.5
v 0.1768 5.6768 -1.125
v 0.1768 5.6768 -1.5
v -1.5 -0 -0.25
v -1.5 0.5 -0.25
v -1 -0 -0.25
v -1 0.5 -0.25
v -1.5 0 0.25
v -1.5 0.5 0.25
v -1 0 0.25
v -1 0.5 0.25
v -1.5 0.75 -0.125
v -1 0.75 -0.125
v -1 0.75 0.125
v -1.5 0.75 0.125
v 0.25 -0 -1.5
v 0.25 0.5 -1.5
v 0.25 -0 -1
v 0.25 0.5 -1
v -0.25 -0 -1.5
v -0.25 0.5 -1.5
v -0.25 -0 -1
v -0.25 0.5 -1
v 0.125 0.75 -1.5
v 0.125 0.75 -1
v -0.125 0.75 -1
v -0.125 0.75 -1.5
v -0.25 0 1.5
v -0.25 0.5 1.5
v -0.25 0 1
v -0.25 0.5 1
v 0.25 0 1.5
v 0.25 0.5 1.5
v 0.25 0 1
v 0.25 0.5 1
v -0.125 0.75 1.5
v -0.125 0.75 1
v 0.125 0.75 1
v 0.125 0.75 1.5
v 0 2 -1.25
v 0.4784 2 -1.1548
v 0.8839 2 -0.8839
v 1.1548 2 -0.4784
v 1.25 2 -0
v 1.1548 2 0.4784
v 0.8839 2 0.8839
v 0.4784 2 1.1548
v 0 2 1.25
v -0.4784 2 1.1548
v -0.8839 2 0.8839
v -1.1548 2 0.4784
v -1.25 2 -0
v -1.1548 2 -0.4784
v -0.8839 2 -0.8839
v -0.4784 2 -1.1548
v 0 0.5 -0.4375
v 0.1674 0.5 -0.4042
v 0.3094 0.5 -0.3094
v 0.4042 0.5 -0.1674
v 0.4375 0.5 -0
v 0.4042 0.5 0.1674
v 0.3094 0.5 0.3094
v 0.1674 0.5 0.4042
v 0 0.5 0.4375
v -0.1674 0.5 0.4042
v -0.3094 0.5 0.3094
v -0.4042 0.5 0.1674
v -0.4375 0.5 -0
v -0.4042 0.5 -0.1674
v -0.3094 0.5 -0.3094
v -0.1674 0.5 -0.4042
v 0 5.75 -1.5
v -0.1768 5.6768 -1.5
v -0.25 5.5 -1.5
v -0.1768 5.3232 -1.5
v 0 5.25 -1.5
v 0.1768 5.3232 -1.5
v 0.25 5.5 -1.5
v 0.1768 5.6768 -1.5
v -0.375 7 -0.5
v 0.375 7 -0.5
v 0.4634 7 -0.4634
v 0.5 7 -0.375
v 0.4634 7 -0.2866
v 0.375 7 -0.25
v 0.2866 7 -0.2866
v 0.25 7 -0.375
v 0.2866 7 -0.4634
v -0.2866 7 -0.4634
v -0.25 7 -0.375
v -0.2866 7 -0.2866
v -0.375 7 -0.25
v -0.4634 7 -0.2866
v -0.5 7 -0.375
v -0.4634 7 -0.4634
v -0.375 7 0.25
v 0.375 7 0.25
v 0.4634 7 0.2866
v 0.5 7 0.375
v 0.4634 7 0.4634
v 0.375 7 0.5
v 0.2866 7 0.4634
v 0.25 7 0.375
v 0.2866 7 0.2866
v -0.2866 7 0.2866
v -0.25 7 0.375
v -0.2866 7 0.4634
v -0.375 7 0.5
v -0.4634 7 0.4634
v -0.5 7 0.375
v -0.4634 7 0.2866
v 0 6.75 -0.1875
v 0 7 -0.1875
v 0.1326 6.75 -0.1326
v 0.1326 7 -0.1326
v 0.1875 6.75 -0
v 0.1875 7 -0
v 0.1326 6.75 0.1326
v 0.1326 7 0.1326
v 0 6.75 0.1875
v 0 7 0.1875
v -0.1326 6.75 0.1326
v -0.1326 7 0.1326
v -0.1875 6.75 -0
v -0.1875 7 -0
v -0.1326 6.75 -0.1326
v -0.1326 7 -0.1326
v 0 6.5 -1
v 0.1768 6.5 -0.9268
v 0 6.25 -0.875
v 0.0884 6.25 -0.8384
v 0.125 6.25 -0.75
v 0.0884 6.25 -0.6616
v 0 6.25 -0.625
v -0.0884 6.25 -0.6616
v -0.125 6.25 -0.75
v -0.0884 6.25 -0.8384
v 0.25 6.5 -0.75
v 0.1768 6.5 -0.5732
v 0 6.5 -0.5
v -0.1768 6.5 -0.5732
v -0.25 6.5 -0.75
v -0.1768 6.5 -0.9268
v 0 7 0.5
v -0.1768 7 0.5732
v -0.25 7 0.75
v -0.1768 7 0.9268
v 0 7 1
v 0.1768 7 0.9268
v 0.25 7 0.75
v 0.1768 7 0.5732
v 0 7 -1
v -0.1768 7 -0.9268
v -0.25 7 -0.75
v -0.1768 7 -0.5732
v 0 7 -0.5
v 0.1768 7 -0.5732
v 0.25 7 -0.75
v 0.1768 7 -0.9268
v 0 6.5 0.5
v 0.1768 6.5 0.5732
v 0 6.25 0.625
v 0.0884 6.25 0.6616
v 0.125 6.25 0.75
v 0.0884 6.25 0.8384
v 0 6.25 0.875
v -0.0884 6.25 0.8384
v -0.125 6.25 0.75
v -0.0884 6.25 0.6616
v 0.25 6.5 0.75
v 0.1768 6.5 0.9268
v 0 6.5 1
v -0.1768 6.5 0.9268
v -0.25 6.5 0.75
v -0.1768 6.5 0.5732
v -1.2003 4.5 -0.25
v -1.0753 4.5 -0.25
v -1.2003 4.5 0.25
v -1.0753 4.5 0.25
v -1.2003 5.25 -0.25
v -1.0753 5.25 -0.25
v -1.25 5.25 -0
v -1.125 5.25 -0
v -1.2003 5.25 0.25
v -1.0753 5.25 0.25
v -1.25 4.5 -0
v -1.125 4.5 -0
v -1.2003 3.25 -0.25
v -1.0753 3.25 -0.25
v -1.2003 2.5 -0.25
v -1.0753 2.5 -0.25
v -1.25 3.25 -0
v -1.125 3.25 -0
v -1.25 2.5 -0
v -1.2003 2.5 0.25
v -1.0753 2.5 0.25
v -1.125 2.5 -0
v -1.2003 3.25 0.25
v -1.0753 3.25 0.25
v 1.2003 3.25 -0.25
v 1.0753 3.25 -0.25
v 1.2003 4.5 -0.25
v 1.25 4.5 -0
v 1.125 4.5 -0
v 1.0753 4.5 -0.25
v 1.2003 2.5 -0.25
v 1.0753 2.5 -0.25
v 1.2003 4.5 0.25
v 1.0753 4.5 0.25
v 1.2003 5.25 -0.25
v 1.0753 5.25 -0.25
v 1.25 5.25 -0
v 1.2003 5.25 0.25
v 1.0753 5.25 0.25
v 1.125 5.25 -0
v 1.2003 2.5 0.25
v 1.0753 2.5 0.25
v 1.25 2.5 -0
v 1.125 2.5 -0
v 1.2003 3.25 0.25
v 1.0753 3.25 0.25
v 1.25 3.25 -0
v 1.125 3.25 -0
v 0 6 -1.25
v 0.4784 6 -1.1548
v 0.8839 6 -0.8839
v 1.1548 6 -0.4784
v 1.25 6 -0
v 1.1548 6 0.4784
v 0.8839 6 0.8839
v 0.4784 6 1.1548
v 0 6 1.25
v -0.4784 6 1.1548
v -0.8839 6 0.8839
v -1.1548 6 0.4784
v -1.25 6 -0
v -1.1548 6 -0.4784
v -0.8839 6 -0.8839
v -0.4784 6 -1.1548
v 1.25 3.5 1.5
v 1.25 3.5 -1.25
v -1.5 3.5 1.5
v -1.5 3.5 -1.25
v 1 3.5 1.5
v 0.4375 3.5 1.5
v 1.375 2.25 -0
v 1.375 5.5 -0
v 1.375 6.75 -0
v -1.375 2.25 -0
v -1.375 5.5 -0
v -1.375 6.75 -0
v 0 2.25 -1.375
v 0 5.5 -1.375
v 0 6.75 -1.375
v 0 2.25 1.375
v 0 5.5 1.375
v 0 6.75 1.375
v -0.4419 6 -0.1831
v 0 4 -1.25
v 0 4 1.25
v 0.0442 0.4192 -0
v 0 0.3308 0.0442
v -0.0442 0.3308 -0
v 0 0.4192 -0.0442
v 0.7955 4 -0.7955
v 0.7955 4 0.7955
v -0.7955 4 0.7955
v -0.7955 4 -0.7955
v 0 1.25 -0.8438
v 0 1.25 0.8438
v 1.25 2.25 -0
v 1.25 5.5 -0
v 1.25 6.75 -0
v -1.25 2.25 -0
v -1.25 5.5 -0
v -1.25 6.75 -0
v 0 2.25 -1.25
v 0 5.5 -1.25
v 0 6.75 -1.25
v 0 2.25 1.25
v 0 5.5 1.25
v 0 6.75 1.25
v 0.3229 1.25 -0.7795
v -0.3229 1.25 0.7795
v 1.25 3.5 1.25
v 1.25 3.5 -1.5
v -1.5 3.5 1.25
v -1.5 3.5 -1.5
v 0.8839 6 -0
v 0.9375 3.5 1.5
v 0.375 3.5 1.5
v -0.8839 6 -0
v 0.4419 6 0.1831
v 0.4784 4 -1.1548
v 1.1548 4 0.4784
v -0.4784 4 1.1548
v -1.1548 4 -0.4784
v 0.0625 0.375 -0
v 0 0.3125 -0
v -0.0625 0.375 -0
v 0 0.4375 -0
v 0.4305 4 1.0394
v -0.4305 4 -1.0394
v 0.5966 1.25 -0.5966
v -0.5966 1.25 0.5966
v -1.1776 3.25 -0.3642
v 1.0394 4 -0.4305
v 1.0573 3.375 -0.3403
v -1.0394 4 0.4305
v -1.0573 3.375 0.3403
v 1.1776 3.25 0.3642
v -0.7795 1.25 0.3229
v 0.7795 1.25 -0.3229
v -1.1776 5.25 -0.3642
v 1.1776 5.25 0.3642
v 1.5 3.5 1.5
v 1.5 3.5 -1.25
v -1.25 3.5 1.5
v -1.25 3.5 -1.25
v 1.25 2.5 -0
v 1.25 5.75 -0
v 1.25 7 -0
v -1.25 2.5 -0
v -1.25 5.75 -0
v -1.25 7 -0
v 0 2.5 -1.25
v 0 5.75 -1.25
v 0 7 -1.25
v 0 2.5 1.25
v 0 5.75 1.25
v 0 7 1.25
v 1 3.5 1.375
v 0.4375 3.5 1.375
v 0.8839 4 -0.8839
v 0.8839 4 0.8839
v -0.8839 4 0.8839
v -0.8839 4 -0.8839
v 0 0.4192 0.0442
v 0.0442 0.3308 -0
v 0 0.3308 -0.0442
v -0.0442 0.4192 -0
v 0 4 -1.125
v 0 4 1.125
v 0.8438 1.25 -0
v -0.8438 1.25 -0
v 1.375 2.5 -0
v 1.375 5.75 -0
v 1.375 7 -0
v -1.375 2.5 -0
v -1.375 5.75 -0
v -1.375 7 -0
v 0 2.5 -1.375
v 0 5.75 -1.375
v 0 7 -1.375
v 0 2.5 1.375
v 0 5.75 1.375
v 0 7 1.375
v -0.3977 5.75 0.1648
v -0.5625 5.75 0.5625
v 0.5625 5.75 -0.5625
v 0.3977 5.75 -0.1648
v 0.7795 1.25 0.3229
v -0.7795 1.25 -0.3229
v 1.5 3.5 1.25
v 1.5 3.5 -1.5
v -1.25 3.5 1.25
v -1.25 3.5 -1.5
v 0.9375 3.5 1.375
v 0.375 3.5 1.375
v 0.3044 2.25 0.7349
v 0.7349 2.25 -0.3044
v -0.3044 2.25 -0.7349
v -0.7349 2.25 0.3044
v 0.4784 4 1.1548
v -1.1776 3.25 0.3642
v -0.4784 4 -1.1548
v 0 0.4375 -0
v 0 0.375 0.0625
v 0 0.3125 -0
v 0.4305 4 -1.0394
v 1.0573 3.375 0.3403
v 1.0394 4 0.4305
v -0.4305 4 1.0394
v -1.0573 3.375 -0.3403
v -1.0394 4 -0.4305
v 1.1776 3.25 -0.3642
v 0.5966 1.25 0.5966
v -0.5966 1.25 -0.5966
v 1.1548 4 -0.4784
v -1.1548 4 0.4784
v 0 0.375 -0.0625
v 0.3229 1.25 0.7795
v -0.3229 1.25 -0.7795
v -1.1776 5.25 0.3642
v 1.1776 5.25 -0.3642
v 0 2.25 -0
v 1.25 5.25 1.5
v 1.25 5.25 -1.25
v -1.5 5.25 1.5
v -1.5 5.25 -1.25
v 1 5.25 1.5
v 0.4375 5.25 1.5
v -1.5 1.75 1.25
v 1.25 1.75 1.25
v 0 5 -1.25
v 0 5 1.25
v 0.7955 4.875 -0.7955
v 0.7955 4.875 0.7955
v -0.7955 4.875 0.7955
v -0.7955 4.875 -0.7955
v -0.8839 3 0.8839
v 0 3.125 1.125
v 0 3 1.25
v -1.5 1.75 -1.25
v -1.0394 3.125 0.4305
v 0.4784 3 1.1548
v 0.375 1.75 1.375
v 1.0394 3.125 0.4305
v 0.4305 3.125 -1.0394
v -1.25 1.75 -1.5
v -1.25 1.75 -1.25
v 1.5 1.75 1.5
v -1.25 1.75 1.5
v 1.5 1.75 -1.25
v 1.25 5.25 1.25
v 1.25 5.25 -1.5
v -1.5 5.25 1.25
v -1.5 5.25 -1.5
v -1.5 1.75 -1.5
v 0.9375 5.25 1.5
v 0.375 5.25 1.5
v -0.4784 3 -1.1548
v 0.4784 5 -1.1548
v 1.1548 5 0.4784
v -0.4784 5 1.1548
v -1.1548 5 -0.4784
v 0.4305 4.875 1.0394
v -0.4305 4.875 -1.0394
v -0.8839 3 -0.8839
v 0.7955 3.125 0.7955
v 0.375 1.75 1.5
v 1.0394 4.875 -0.4305
v -1.0394 4.875 0.4305
v 1.25 1.75 1.5
v -1.5 1.75 1.5
v 0 3 -1.25
v 0.8839 3 0.8839
v -1.25 1.75 1.25
v 1.5 5.25 1.5
v 1.5 5.25 -1.25
v -1.25 5.25 1.5
v -1.25 5.25 -1.25
v 1 5.25 1.375
v 0.4375 5.25 1.375
v 0.8839 5 -0.8839
v 0.8839 5 0.8839
v -0.8839 5 0.8839
v -0.8839 5 -0.8839
v 0.4305 3.125 1.0394
v -1.0394 3.125 -0.4305
v 0 4.875 -1.125
v 0 4.875 1.125
v 0.4375 1.75 1.375
v 1 1.75 1.375
v -0.7955 3.125 0.7955
v 0 3.125 -1.125
v -0.4305 3.125 -1.0394
v -0.4305 3.125 1.0394
v 1.25 1.75 -1.25
v 1.25 1.75 -1.5
v 0.4784 3 -1.1548
v 0.7955 3.125 -0.7955
v 1.5 1.75 1.25
v -0.4784 3 1.1548
v -1.1548 3 -0.4784
v 1.5 5.25 1.25
v 1.5 5.25 -1.5
v -1.25 5.25 1.25
v -1.25 5.25 -1.5
v 0.9375 5.25 1.375
v 0.375 5.25 1.375
v 0.4784 5 1.1548
v -0.4784 5 -1.1548
v 0.4305 4.875 -1.0394
v 1.0394 4.875 0.4305
v -0.4305 4.875 1.0394
v -1.0394 4.875 -0.4305
v 1.1548 3 0.4784
v 0.9375 1.75 1.5
v 1.5 1.75 -1.5
v 1.1548 5 -0.4784
v -1.1548 5 0.4784
v -1.1776 4.25 0.3642
v -1.1776 4.25 -0.3642
v 1 1.75 1.5
v 0.4375 1.75 1.5
v 1.1548 3 -0.4784
v 1.1776 4.25 0.3642
v 1.0394 3.125 -0.4305
v 0.9375 1.75 1.375
v 1.1776 4.25 -0.3642
v -1.1548 3 0.4784
v 0.8839 3 -0.8839
v -0.7955 3.125 -0.7955
v 0.375 4.375 1.5
v 1.25 6.125 1.5
v 1 0.875 1.5
v 1.25 6.125 -1.25
v 1.5 4.375 -1.5
v -1.5 6.125 1.5
v 1.25 4.375 1.5
v -1.5 6.125 -1.25
v 1 4.375 1.375
v 1.5 0.875 1.25
v -1.5 4.375 1.25
v -1.25 0.875 1.5
v -1.5 0.875 -1.25
v 0.4375 4.375 1.5
v 1 6.125 1.5
v 0.4375 6.125 1.5
v 1.5 4.375 -1.25
v -1.5 0.875 -1.5
v -1.5 2.625 1.25
v 0.375 0.875 1.375
v 0.9375 0.875 1.5
v 1.25 2.625 1.25
v 1 0.875 1.375
v 1.25 0.875 -1.5
v 0.4375 0.875 1.5
v 1.25 0.875 1.5
v 0.375 0.875 1.5
v -1.25 0.875 1.25
v -1.5 4.375 1.5
v 1.25 4.375 -1.25
v 1.25 4.375 -1.5
v -1.5 2.625 -1.25
v 1.5 0.875 1.5
v -1.25 0.875 -1.25
v 0.375 2.625 1.375
v 0.4375 4.375 1.375
v -1.25 4.375 -1.5
v -1.25 4.375 1.25
v -1.25 4.375 -1.25
v -1.25 2.625 -1.5
v -1.25 2.625 -1.25
v 1.5 2.625 1.5
v -1.25 2.625 1.5
v 1.5 2.625 -1.25
v 0.9375 4.375 1.375
v 0.4375 0.875 1.375
v 1.25 0.875 -1.25
v 1.25 6.125 1.25
v 1.25 6.125 -1.5
v -1.5 6.125 1.25
v -1.5 6.125 -1.5
v -1.25 4.375 1.5
v -1.5 4.375 -1.5
v -1.5 2.625 -1.5
v 0.9375 6.125 1.5
v 0.375 6.125 1.5
v 0.375 2.625 1.5
v 0.9375 4.375 1.5
v 1.5 0.875 -1.25
v 1.25 2.625 1.5
v -1.5 2.625 1.5
v 1.5 0.875 -1.5
v -1.25 2.625 1.25
v 1.5 6.125 1.5
v 1.5 6.125 -1.25
v -1.25 6.125 1.5
v -1.25 6.125 -1.25
v 1 6.125 1.375
v 0.4375 6.125 1.375
v 0.375 4.375 1.375
v -1.5 0.875 1.5
v 1.5 4.375 1.5
v 0.9375 0.875 1.375
v 0.4375 2.625 1.375
v 1 2.625 1.375
v 1.25 4.375 1.25
v 1 4.375 1.5
v -1.5 0.875 1.25
v -1.5 4.375 -1.25
v 1.25 0.875 1.25
v -1.25 0.875 -1.5
v 1.25 2.625 -1.25
v 1.25 2.625 -1.5
v 1.5 2.625 1.25
v 1.5 6.125 1.25
v 1.5 6.125 -1.5
v -1.25 6.125 1.25
v -1.25 6.125 -1.5
v 1.5 4.375 1.25
v 0.9375 6.125 1.375
v 0.375 6.125 1.375
v 0.9375 2.625 1.5
v 1.5 2.625 -1.5
v 1 2.625 1.5
v 0.4375 2.625 1.5
v 0.9375 2.625 1.375
vt 0.7362 0.91
vt 0.7669 0.925
vt 0.7362 0.925
vt 0.8589 0.985
vt 0.8098 0.99
vt 0.8098 0.985
vt 0.9189 0.2105
vt 0.9093 0.2295
vt 0.9025 0.2161
vt 0.7816 0.9694
vt 0.8013 0.9306
vt 0.8152 0.958
vt 0.7607 0.79
vt 0.6871 0.77
vt 0.7607 0.77
vt 0.9755 0.21
vt 0.9877 0.13
vt 0.9877 0.21
vt 0.7178 1
vt 0.6994 0.96
vt 0.7178 0.96
vt 0.7239 0.94
vt 0.7362 0.92
vt 0.7362 0.94
vt 0.4172 0.54
vt 0.4049 0.48
vt 0.4172 0.48
vt 0.7485 0.76
vt 0.6994 0.76
vt 0.8098 0.17
vt 0.8344 0.1
vt 0.8344 0.17
vt 0.9018 0.1
vt 0.9509 0.11
vt 0.9018 0.11
vt 0.8098 0.66
vt 0.8344 0.68
vt 0.8098 0.68
vt 0.8528 0.985
vt 0.7485 0.74
vt 0.5951 0.94
vt 0.6074 0.92
vt 0.6074 0.94
vt 0.1227 0.99
vt 0.2454 1
vt 0.1227 1
vt 0.7853 0.17
vt 0.8098 0.1
vt 0.9632 0.21
vt 0.9755 0.13
vt 0.3926 0.54
vt 0.3681 0.64
vt 0.3681 0.54
vt 0.9509 0.13
vt 0.9018 0.125
vt 0.9509 0.125
vt 0.8466 0.06
vt 0.8712 0.1
vt 0.8466 0.1
vt 0.9386 0.21
vt 0.9509 0.21
vt 0.1227 0.94
vt 0.2454 0.96
vt 0.1227 0.96
vt 0.9018 0.115
vt 0.638 0.22
vt 0.6871 0.14
vt 0.6871 0.22
vt 0 0.97
vt 0.1227 0.97
vt 0.8834 0.04
vt 0.9325 0
vt 0.9325 0.04
vt 0.8589 0.98
vt 0.8098 0.975
vt 0.8589 0.975
vt 0.7853 0.24
vt 0.7607 0.34
vt 0.7607 0.24
vt 0.7362 0.955
vt 0.7669 0.97
vt 0.7362 0.97
vt 0.9386 0.2
vt 0.9509 0.18
vt 0.9509 0.2
vt 0.8589 0.17
vt 0.8834 0.1
vt 0.8834 0.17
vt 0.4294 0.32
vt 0.4172 0.34
vt 0.4294 0.24
vt 0.0491 0.22
vt 0.0982 0.14
vt 0.0982 0.22
vt 0.6074 1
vt 0.589 0.96
vt 0.6074 0.96
vt 0.3804 0.4
vt 0.3681 0.34
vt 0.3804 0.34
vt 0.9693 0.06
vt 0.9816 0.04
vt 0.9632 0.2
vt 0.9755 0.18
vt 0.9755 0.2
vt 0.4908 0.955
vt 0.4908 0.96
vt 0.9264 0.155
vt 0.9386 0.13
vt 0.9386 0.155
vt 0.9018 0.155
vt 0.9141 0.13
vt 0.9141 0.155
vt 0.9755 0.155
vt 0.9877 0.155
vt 0.1472 0.14
vt 0.1472 0.22
vt 0.9264 0.21
vt 0.7669 0.945
vt 0.7362 0.945
vt 0.8344 0.06
vt 0.7853 0.04
vt 0.8344 0.04
vt 0.8344 -0
vt 0.4049 0.18
vt 0.4172 0.24
vt 0.4049 0.24
vt 0.3804 0.7
vt 0.3681 0.7
vt 0.9632 0.155
vt 0.0245 0.54
vt 0 0.64
vt 0 0.54
vt 0.9264 0.13
vt 0.4908 0.925
vt 0.589 0.93
vt 0.4908 0.93
vt 0.5399 0.22
vt 0.589 0.14
vt 0.589 0.22
vt 0.8589 0.1
vt 0.638 0.14
vt 0.6994 1
vt 0.681 0.96
vt 0.9816 0
vt 0.9325 0.06
vt 0.9509 0.115
vt 0.2945 0.74
vt 0.2454 0.67
vt 0.2945 0.67
vt 1 1
vt 0 0
vt 1 0
vt 0.8098 0.97
vt 0.8589 0.97
vt 0.9632 0.13
vt 0.8528 0.995
vt 0.8098 1
vt 0.8098 0.995
vt 0.9264 0.2
vt 0.9386 0.18
vt 0.1472 0.74
vt 0.0982 0.67
vt 0.1472 0.67
vt 0.8957 0.65
vt 0.9018 0.66
vt 0.8957 0.66
vt 0.5399 0.74
vt 0.4908 0.67
vt 0.5399 0.67
vt 0.7362 0.74
vt 0.6871 0.67
vt 0.7362 0.67
vt 0.9018 0.21
vt 0.9141 0.21
vt 0.589 0.935
vt 0.4908 0.935
vt 0.8528 0.99
vt 0.8528 0.98
vt 0.8098 0.98
vt 0.1963 0.74
vt 0.1963 0.67
vt 0.8834 0.06
vt 0.9325 0.1
vt 0.8589 0.995
vt 0.8589 0.99
vt 0.681 1
vt 0.6626 0.96
vt 0.3436 0.74
vt 0.3436 0.67
vt 0.6626 1
vt 0.6442 0.96
vt 0.589 0.74
vt 0.589 0.67
vt 0.4908 0.92
vt 0.589 0.925
vt 0.8528 0.975
vt 0.7853 0.66
vt 0.8834 0
vt 0.4172 0.7
vt 0.4049 0.64
vt 0.4172 0.64
vt 0.3926 0.64
vt 0.3681 0.48
vt 0.3804 0.54
vt 0.9509 0.155
vt 0.7055 0.94
vt 0.7178 0.92
vt 0.7178 0.94
vt 0.0836 0.8613
vt 0.2248 0.8956
vt 0.1467 0.9382
vt 0.7853 0.68
vt 0.3926 0.49
vt 0.3681 0.49
vt 0.3681 0.4
vt 0.3926 0.39
vt 0.3926 0.4
vt 0.3926 0.69
vt 0.3926 0.7
vt 0.3926 0.24
vt 0.3681 0.24
vt 0.7362 0.85
vt 0.7669 0.865
vt 0.7362 0.865
vt 0.8712 0.06
vt 0.7362 0.895
vt 0.7669 0.91
vt 0.8957 0.1
vt 0.8957 0.17
vt 0.9018 0.17
vt 0.9141 0.2
vt 0.9264 0.18
vt 0.1963 0.22
vt 0.2454 0.14
vt 0.2454 0.22
vt 0.3926 0.34
vt 0.2699 0.95
vt 0.2454 0.95
vt 0.2577 0.94
vt 0.7362 1
vt 0.7362 0.96
vt 0.638 0.74
vt 0.638 0.67
vt 0.3355 0.9948
vt 0.3199 0.9758
vt 0.3253 0.9534
vt 0.5632 0.9605
vt 0.5779 0.9605
vt 0.5632 0.9895
vt 0.1963 0.14
vt 0.7914 0.98
vt 0.3926 0.35
vt 1 0.13
vt 1 0.21
vt 0.4172 0.69
vt 0.3926 0.53
vt 0.4172 0.53
vt 0.3926 0.23
vt 0.2431 0.8205
vt 0.2079 0.8262
vt 0.1909 0.7568
vt 0.9093 0.2105
vt 0.9257 0.2161
vt 0.9257 0.2239
vt 0.9189 0.2295
vt 0.9025 0.2239
vt 0.8957 0.59
vt 0 0.96
vt 0.8013 0.9694
vt 0.7676 0.958
vt 0.7676 0.942
vt 0.7816 0.9306
vt 0.8152 0.942
vt 0.2666 0.9427
vt 0.2666 0.9573
vt 0.2577 0.96
vt 0.2487 0.9573
vt 0.2487 0.9427
vt 0.9018 0.13
vt 0.7853 0.34
vt 0.8589 0.52
vt 0.8834 0.45
vt 0.8834 0.52
vt 0.8589 0.66
vt 0.8834 0.59
vt 0.8834 0.66
vt 0.9189 0.2106
vt 0.9257 0.2161
vt 0.9257 0.2239
vt 0.9189 0.2294
vt 0.9093 0.2294
vt 0.9026 0.2239
vt 0.9026 0.2161
vt 0.9093 0.2106
vt 0.7853 0.38
vt 0.8098 0.31
vt 0.8098 0.38
vt 0.8098 0.59
vt 0.0982 0.46
vt 0.1472 0.38
vt 0.1472 0.46
vt 0.2454 0.94
vt 0.8957 0.52
vt 0.8098 0.24
vt 0.8344 0.24
vt 0.6994 0.74
vt 0.8589 0.31
vt 0.8834 0.24
vt 0.8834 0.31
vt 0.0491 0.14
vt 0.8344 0.59
vt 0.8344 0.66
vt 0.9509 0.1
vt 0.8344 0.31
vt 0.8344 0.38
vt 0.8589 0.24
vt 0.589 0.955
vt 0.8957 0.45
vt 0.9018 0.65
vt 0.4417 0.3
vt 0.9018 0.45
vt 0.3436 0.6
vt 0.3558 0.55
vt 0.6871 0.6
vt 0.7362 0.6
vt 0.0982 0.3
vt 0.1472 0.3
vt 0.8589 0.59
vt 0.8957 0.24
vt 0.8957 0.31
vt 0.7853 0.52
vt 0.8098 0.45
vt 0.8098 0.52
vt 0.4294 0.4
vt 0.9018 0.24
vt 0.8344 0.52
vt 0.8589 0.45
vt 0.9018 0.31
vt 0.8957 0.38
vt 0.8834 0.38
vt 0.5399 0.6
vt 0.589 0.6
vt 0.4908 0.6
vt 0.638 0.6
vt 0.9018 0.38
vt 0.7853 0.24
vt 0.1963 0.3
vt 0.2454 0.3
vt 0.7239 0.92
vt 0 0.99
vt 0.8589 0.38
vt 0.6871 0.79
vt 0.0982 0.53
vt 0.0491 0.46
vt 0.638 0.3
vt 0.6871 0.3
vt 0.4908 0.46
vt 0.5399 0.38
vt 0.5399 0.46
vt 0.4908 0.3
vt 0.5399 0.3
vt 0.7853 0.59
vt 0.1963 0.6
vt 0.2454 0.6
vt 0.9018 0.59
vt 0.7853 -0
vt 0.7362 0.22
vt 0.7362 0.3
vt 0.0491 0.6
vt 0.0982 0.6
vt 0.7362 0.53
vt 0.6871 0.46
vt 0.7362 0.46
vt 0.0982 0.74
vt 0.1963 0.46
vt 0.2454 0.38
vt 0.2454 0.46
vt 0.6871 0.74
vt 0.5399 0.14
vt 0.2454 0.74
vt 0.7853 0.31
vt 0 1
vt 0.8528 1
vt 0.7853 0.1
vt 0.2945 0.22
vt 0.2945 0.3
vt 0.2454 0.99
vt 0.1472 0.53
vt 0.638 0.53
vt 0.589 0.46
vt 0.638 0.46
vt 0.9018 0.52
vt 0.3804 0.64
vt 0.3436 0.53
vt 0.2945 0.46
vt 0.3436 0.46
vt 0.5159 0.7558
vt 0.5553 0.7425
vt 0.598 0.7425
vt 0.6375 0.7558
vt 0.6677 0.7804
vt 0.6841 0.8126
vt 0.6841 0.8474
vt 0.6677 0.8796
vt 0.6375 0.9042
vt 0.598 0.9175
vt 0.5616 0.8919
vt 0.5553 0.9175
vt 0.4857 0.8796
vt 0.5159 0.9042
vt 0.4693 0.8474
vt 0.4693 0.8126
vt 0.4857 0.7804
vt 0.5918 0.7681
vt 0.6 0.8016
vt 0.5534 0.8584
vt 0.3772 0.9174
vt 0.3345 0.9174
vt 0.2951 0.9041
vt 0.2649 0.8795
vt 0.3129 0.8824
vt 0.2486 0.8126
vt 0.2916 0.795
vt 0.2486 0.8474
vt 0.2649 0.7805
vt 0.3345 0.7426
vt 0.2951 0.7559
vt 0.3772 0.7426
vt 0.4166 0.7559
vt 0.4467 0.7805
vt 0.3988 0.7776
vt 0.463 0.8126
vt 0.463 0.8474
vt 0.4467 0.8795
vt 0.4166 0.9041
vt 0.4201 0.865
vt 0.2454 0.97
vt 0.3558 0.83
vt 0.4172 0.18
vt 0.3926 0.65
vt 0.3681 0.65
vt 0.6871 0.53
vt 0.7853 0.06
vt 0.3436 0.22
vt 0.3558 0.24
vt 0.3436 0.3
vt 0.8344 0.45
vt 0.0491 0.53
vt 0.0368 0.55
vt 0.6442 1
vt 0.3558 0.32
vt 0.3558 0.4
vt 0.4417 0.38
vt 0.0245 0.64
vt 0.4417 0.53
vt 0.4294 0.55
vt 0.4417 0.46
vt 0.3355 0.9452
vt 0.3487 0.9407
vt 0.363 0.9407
vt 0.3762 0.9452
vt 0.3863 0.9534
vt 0.3863 0.9866
vt 0.3918 0.9642
vt 0.3918 0.9758
vt 0.3762 0.9948
vt 0.363 0.9993
vt 0.3487 0.9993
vt 0.3253 0.9866
vt 0.3199 0.9642
vt 0.7853 0.45
vt 0.5884 0.969
vt 0.5884 0.981
vt 0.5779 0.9895
vt 0.5527 0.981
vt 0.5527 0.969
vt 0.3926 0.48
vt 0.4908 0.53
vt 0 0.94
vt 0.1963 0.53
vt 0.2454 0.53
vt 0.4172 0.4
vt 0.3926 0.93
vt 0.3926 0.935
vt 0.3926 0.19
vt 0.3681 0.18
vt 0.3926 0.18
vt 0.3926 0.94
vt 0.4908 0.945
vt 0.3926 0.945
vt 0.1909 0.9232
vt 0.0987 0.9382
vt 0.0545 0.9232
vt 0.0206 0.8956
vt 0.0375 0.8538
vt 0.0023 0.8595
vt 0.0206 0.7844
vt 0.0023 0.8205
vt 0.0545 0.7568
vt 0.0987 0.7418
vt 0.1467 0.7418
vt 0.2248 0.7844
vt 0.2431 0.8595
vt 0.2638 0.92
vt 0.2638 0.94
vt 0.0982 0.38
vt 0.1618 0.8187
vt 0.4417 0.22
vt 0.4908 0.14
vt 0.4908 0.22
vt 0.9877 0.18
vt 0.9877 0.2
vt 0.0368 0.24
vt 0.0245 0.24
vt 0.6258 1
vt 0.6258 0.96
vt 0.6503 0.94
vt 0.6626 0.94
vt 0.6319 0.94
vt 0.6442 0.94
vt 0.6258 0.94
vt 0.6135 0.94
vt 0.6994 0.94
vt 0.6871 0.94
vt 0.9202 0.21
vt 0.9448 0.21
vt 0.9693 0.21
vt 0.9325 0.21
vt 0.7853 0.46
vt 0.7607 0.48
vt 1 0.2
vt 0.1074 0.07
vt 0.135 0
vt 0.1411 0.07
vt 0.319 0.94
vt 0.3374 0.92
vt 0.3374 0.94
vt 0.3558 0.94
vt 0.3742 0.92
vt 0.3742 0.94
vt 0.3006 0.92
vt 0.3006 0.94
vt 0.2822 0.94
vt 0.589 0.94
vt 0.4908 0.94
vt 0.0491 0.67
vt 0.3804 0.18
vt 0.589 0.95
vt 0.4908 0.95
vt 1 0.18
vt 0.2945 0.14
vt 0.6626 0.92
vt 0.7362 0.14
vt 0.6994 0.92
vt 0.589 0.945
vt 0.9632 0.18
vt 0.6258 0.92
vt 0.7362 0.89
vt 0.6871 0.85
vt -0 0.34
vt 0 0.24
vt 0.6687 0.94
vt 0.681 0.92
vt 0.681 0.94
vt 1 0.155
vt 0.6442 0.92
vt 0.7607 0.64
vt 0.7607 0.7
vt 0.9018 0.2
vt 0.9141 0.18
vt 0.8528 0.97
vt 0.4908 0.74
vt 0.4417 0.67
vt 0.4049 0.34
vt 0.4049 0.4
vt 0.7914 0.985
vt 0.773 0.98
vt 0.7914 0.99
vt 0.7914 0.995
vt 0.7914 0.97
vt 0.773 0.975
vt 0.7914 0.975
vt 0.773 0.99
vt 0.773 0.995
vt 0.8773 0.995
vt 0.8957 1
vt 0.8773 1
vt 0.8773 0.99
vt 0.9325 0.985
vt 0.9141 0.98
vt 0.9325 0.98
vt 0.8957 0.98
vt 0.9141 0.985
vt 0.8957 0.985
vt 0.8957 0.975
vt 0.9141 0.975
vt 0.8589 1
vt 0.8957 0.995
vt 0.9141 1
vt 0.9141 0.99
vt 0.9141 0.995
vt 0.7546 0.985
vt 0.773 0.985
vt 0.8957 0.99
vt 0.9325 0.975
vt 0.9325 0.97
vt 0.7546 0.975
vt 0.7546 0.97
vt 0.7362 0.98
vt 0.7546 0.98
vt 0.7362 0.985
vt 0.7914 1
vt 0.8773 0.98
vt 0.8773 0.975
vt 0.8773 0.97
vt -0 0.46
vt 0.0245 0.4
vt 0.7546 0.995
vt 0.7362 0.99
vt 0.7546 0.99
vt 0.8773 0.985
vt 0.8957 0.97
vt 0.7546 1
vt 0.773 1
vt 0.9141 0.97
vt 0.7853 0.14
vt 0.7607 0.18
vt 0.9325 0.99
vt 0.9325 0.995
vt 0.7607 0.85
vt 0.7669 0.88
vt 0.7362 0.88
vt 0.3436 0.14
vt 0.7669 0.895
vt 0.7853 0.64
vt 0.7607 0.54
vt 0.7853 0.54
vt 0.7669 0.955
vt 0.2546 0.07
vt 0.2822 -0
vt 0.2883 0.07
vt 0.7055 -0
vt 0.7301 0.07
vt 0.6963 0.07
vt 0.411 -0
vt 0.4356 0.07
vt 0.4018 0.07
vt 0.7454 0.07
vt 0.773 -0
vt 0.7791 0.07
vt 0.4601 -0
vt 0.4847 0.07
vt 0.4509 0.07
vt 0.9325 1
vt 0.3037 0.07
vt 0.3313 -0
vt 0.3374 0.07
vt 0.1564 0.07
vt 0.184 0
vt 0.1902 0.07
vt 0.6472 0.07
vt 0.6748 -0
vt 0.681 0.07
vt 0.0184 0
vt 0.0429 0.07
vt 0.0092 0.07
vt 0.3528 0.07
vt 0.3804 0
vt 0.3865 0.07
vt 0.5 0.07
vt 0.5276 -0
vt 0.5337 0.07
vt 0.2147 0
vt 0.2393 0.07
vt 0.2055 0.07
vt 0.0675 0
vt 0.092 0.07
vt 0.0583 0.07
vt 0.5491 0.07
vt 0.5767 -0
vt 0.5828 0.07
vt 0.6319 0.07
vt 0.6074 -0
vt 0.6258 -0
vt 0.3926 0.74
vt 0.589 0.3
vt 0.2945 0.53
vt 0.3926 0.46
vt 0.3926 0.14
vt -0 0.14
vt 0.0368 0.4
vt 0.0245 0.18
vt 0 0.18
vt 0.7362 0.38
vt 0.7485 0.4
vt 0.7485 0.24
vt 0.7607 0.4
vt 0.3926 0.95
vt 0.3926 0.955
vt 0.0368 0.32
vt 0.0245 0.34
vt 0.0491 0.38
vt 0.0491 0.3
vt 0.1472 0.6
vt 0.6871 0.38
vt 0.589 0.38
vt 0.589 1
vt 0.4417 0.6
vt 0.2945 0.6
vt 0.4049 0.54
vt 0.2945 0.38
vt 0.638 0.38
vt 0.5951 0.92
vt 0.3926 0.96
vt 0.5399 0.53
vt 0.589 0.53
vt 0.7485 0.32
vt 0.4417 0.74
vt 0.7485 0.55
vt 0.0245 0.48
vt 0.0491 0.74
vt 0.0245 0.7
vt -0 0.48
vt 0.7853 0.74
vt 0.7853 0.7
vt 0.3436 0.38
vt 0 0.74
vt 0.4908 0.38
vt 0.7853 0.4
vt 0.3926 0.92
vt 0.3926 0.925
vt 0.908 0.21
vt 0.4417 0.14
vt 0.9448 0.06
vt 0.1963 0.38
vt 0.589 0.92
vt 0.4049 0.7
vt 0.3804 0.48
vt 0.7055 0.92
vt 0.3681 0.39
vt 0.3681 0.69
vt 0.7669 0.85
vt 0.4172 0.35
vt 0.4172 0.23
vt 0.3681 0.23
vt 0.3681 0.35
vt 0.4172 0.49
vt 0.3681 0.53
vt 0.4172 0.65
vt 0.4172 0.39
vt 0.3681 0.19
vt 0.2454 0.92
vt 0.9816 0.21
vt 0.7853 0.48
vt 0.9939 0.21
vt 0.9571 0.21
vt 0.1166 0
vt 0.319 0.92
vt 0.3558 0.92
vt 0.2822 0.92
vt 0.3804 0.24
vt 0.6503 0.92
vt 0.6871 0.92
vt 0.6135 0.92
vt 0.6871 0.89
vt 0.6687 0.92
vt 0.6319 0.92
vt 0.9018 0.18
vt 0.773 0.97
vt 0.7362 0.975
vt 0 0.4
vt 0.7362 0.995
vt 0.4172 0.19
vt 0.7853 0.18
vt 0.2638 0
vt 0.7239 -0
vt 0.4294 0
vt 0.7546 0
vt 0.4785 -0
vt 0.3129 -0
vt 0.1656 -0
vt 0.6564 0
vt 0.0368 -0
vt 0.362 -0
vt 0.5092 -0
vt 0.2331 0
vt 0.0859 0
vt 0.5583 0
vt 0.5982 0.07
vt 0 0.7
s 1
f 718/1 731/2 732/3
f 634/4 652/5 647/6
f 835/7 839/8 837/9
f 801/10 805/11 803/12
f 79/13 76/14 75/15
f 224/16 221/17 222/18
f 416/19 411/20 410/21
f 362/22 359/23 360/24
f 927/25 925/26 924/27
f 50/28 57/14 52/29
f 56/28 76/14 54/29
f 54/28 58/14 50/29
f 52/28 75/14 56/29
f 1259/30 109/31 1266/32
f 465/33 463/34 461/35
f 106/36 112/37 108/38
f 697/39 641/5 646/6
f 56/29 51/40 52/28
f 400/41 397/42 398/43
f 977/44 282/45 1002/46
f 1261/47 123/48 1311/30
f 1292/30 119/31 1295/32
f 254/49 251/50 252/16
f 612/51 598/52 623/53
f 540/54 538/55 539/56
f 468/54 466/55 467/56
f 161/57 163/58 162/59
f 204/60 201/54 202/61
f 1002/62 277/63 1051/64
f 527/34 526/65 525/35
f 1161/66 29/67 1168/68
f 812/7 816/8 814/9
f 77/13 58/14 76/15
f 460/54 458/55 459/56
f 702/1 715/2 716/3
f 272/69 1050/64 1076/70
f 352/69 1060/64 1086/70
f 500/54 498/55 499/56
f 981/44 314/45 1006/46
f 158/71 159/72 160/73
f 481/33 479/34 477/35
f 647/6 633/74 634/4
f 633/74 649/75 632/76
f 611/77 585/78 581/79
f 130/36 136/37 132/38
f 728/80 725/81 726/82
f 848/83 845/84 846/85
f 1246/86 133/87 1267/88
f 78/13 57/14 58/15
f 1230/89 586/90 1115/91
f 1231/92 21/93 1140/94
f 382/95 357/96 380/97
f 943/98 937/99 938/100
f 766/101 764/73 760/102
f 1314/30 131/31 1251/32
f 844/103 841/104 842/105
f 991/106 188/96 1028/107
f 68/108 65/109 66/110
f 72/111 69/112 70/113
f 60/114 73/17 74/115
f 1003/62 285/63 1052/64
f 979/44 296/69 1079/70
f 1140/94 19/116 1203/117
f 532/54 530/55 531/56
f 986/44 354/45 1011/46
f 328/69 1057/64 1083/70
f 977/44 280/69 1077/70
f 206/118 203/109 204/60
f 1008/62 325/63 1057/64
f 716/3 713/119 714/120
f 280/69 1051/64 1077/70
f 983/44 330/45 1008/46
f 1001/62 269/63 1050/64
f 161/121 156/122 154/123
f 748/122 745/124 746/123
f 982/44 320/69 1082/70
f 1000/62 261/63 1049/64
f 936/125 929/126 930/127
f 320/69 1056/64 1082/70
f 905/52 910/128 909/129
f 62/130 59/50 60/114
f 624/131 588/132 626/133
f 296/69 1053/64 1079/70
f 216/118 197/109 198/60
f 70/113 67/134 68/108
f 312/69 1055/64 1081/70
f 976/44 272/69 1076/70
f 980/44 304/69 1080/70
f 1007/62 317/63 1056/64
f 981/44 312/69 1081/70
f 975/44 264/69 1075/70
f 543/34 542/65 541/35
f 1005/62 301/63 1054/64
f 1068/135 171/136 1027/137
f 1200/138 1/139 1175/140
f 1304/32 125/141 1245/86
f 200/49 213/50 214/16
f 760/122 757/124 758/123
f 1175/140 31/142 1161/66
f 753/121 748/122 746/123
f 387/143 376/144 375/20
f 984/44 336/69 1084/70
f 764/73 759/145 760/102
f 743/146 738/71 740/73
f 415/143 412/144 411/20
f 459/56 454/65 456/147
f 1010/62 341/63 1059/64
f 570/148 1215/149 1138/150
f 433/151 431/152 429/153
f 632/76 650/154 631/155
f 741/57 743/58 742/59
f 163/146 158/71 160/73
f 238/61 235/156 236/49
f 695/157 643/158 642/159
f 850/160 847/161 848/83
f 564/162 1137/163 1166/164
f 519/34 518/65 517/35
f 444/54 442/55 443/56
f 425/151 423/152 421/153
f 436/165 430/166 432/167
f 1245/86 127/87 1261/88
f 580/168 1139/169 1167/170
f 556/171 1136/172 1171/173
f 523/56 518/65 520/147
f 248/174 229/112 230/175
f 505/33 503/34 501/35
f 1027/137 169/176 990/177
f 428/165 422/166 424/167
f 696/178 642/159 641/5
f 698/179 646/6 645/180
f 566/181 1166/164 1191/182
f 495/34 494/65 493/35
f 751/183 745/184 747/87
f 503/34 502/65 501/35
f 630/185 652/5 629/186
f 414/187 389/188 412/144
f 479/34 478/65 477/35
f 572/189 1138/150 1172/190
f 40/10 36/11 38/12
f 515/56 510/65 512/147
f 252/16 249/17 250/18
f 737/146 735/87 739/183
f 413/191 390/192 389/188
f 483/56 478/65 480/147
f 475/56 470/65 472/147
f 385/191 378/192 377/188
f 550/193 1167/170 1190/194
f 499/56 494/65 496/147
f 487/34 486/65 485/35
f 473/33 471/34 469/35
f 1028/195 190/196 1069/135
f 402/22 399/23 400/24
f 699/197 645/180 644/75
f 246/174 243/112 244/175
f 484/54 482/55 483/56
f 491/56 486/65 488/147
f 117/38 115/198 119/36
f 734/123 737/199 738/71
f 288/69 1052/64 1078/70
f 467/56 462/65 464/147
f 521/33 519/34 517/35
f 443/56 438/65 440/147
f 913/200 908/201 907/202
f 628/203 583/25 590/202
f 919/204 918/205 917/53
f 537/33 535/34 533/35
f 983/44 328/69 1083/70
f 66/110 63/54 64/206
f 762/71 763/72 764/73
f 524/54 522/55 523/56
f 364/207 361/208 362/209
f 987/210 955/211 953/212
f 125/198 123/38 127/213
f 919/204 926/214 920/215
f 304/69 1054/64 1080/70
f 160/73 155/145 156/102
f 508/54 506/55 507/56
f 441/33 439/34 437/35
f 942/216 944/217 941/218
f 909/129 912/219 911/220
f 240/60 237/54 238/61
f 52/29 49/40 50/28
f 625/221 596/99 622/222
f 726/223 723/224 724/225
f 746/123 749/199 750/71
f 545/33 543/34 541/35
f 535/34 534/65 533/35
f 768/226 758/123 762/71
f 208/175 205/134 206/118
f 720/227 717/228 718/1
f 1258/88 429/229 1279/230
f 164/226 154/123 158/71
f 264/69 1049/64 1075/70
f 427/229 1236/231 1254/230
f 156/122 153/124 154/123
f 753/57 755/58 754/59
f 852/232 849/233 850/160
f 756/226 746/123 750/71
f 982/44 322/45 1007/46
f 1142/234 15/235 1145/236
f 985/44 344/69 1085/70
f 162/101 160/73 156/102
f 1236/88 421/229 1256/230
f 1266/32 111/141 1243/86
f 984/44 338/45 1009/46
f 582/126 587/237 625/221
f 47/238 44/239 46/240
f 742/101 740/73 736/102
f 417/241 410/21 409/242
f 552/243 1190/194 1213/244
f 986/44 352/69 1086/70
f 754/101 752/73 748/102
f 796/245 798/246 800/247
f 878/248 879/249 875/250
f 886/248 887/249 883/250
f 1203/117 17/251 1142/234
f 980/44 306/45 1005/46
f 654/252 649/75 648/180
f 931/90 933/253 932/237
f 212/18 209/254 210/255
f 913/200 912/219 914/256
f 927/25 922/257 928/258
f 952/259 929/126 951/221
f 957/260 1018/261 959/262
f 830/9 829/263 828/7
f 828/7 827/264 826/265
f 826/265 833/266 832/8
f 832/8 831/267 830/9
f 1289/268 434/166 436/167
f 837/9 836/263 835/7
f 835/7 834/264 825/265
f 825/265 840/266 839/8
f 839/8 838/267 837/9
f 272/69 271/269 1050/64
f 803/12 802/270 801/10
f 801/10 808/271 807/272
f 807/272 806/273 805/11
f 805/11 804/274 803/12
f 352/69 351/269 1060/64
f 46/240 48/275 47/238
f 47/238 41/276 42/277
f 42/277 43/278 44/239
f 44/239 45/279 46/240
f 500/54 497/280 498/55
f 611/77 627/281 585/78
f 423/33 1256/230 421/229
f 444/54 441/280 442/55
f 40/10 34/272 36/11
f 1180/282 1271/283 1207/284
f 50/28 58/15 57/14
f 56/28 75/15 76/14
f 54/28 76/15 58/14
f 52/28 57/15 75/14
f 716/3 715/2 713/119
f 1245/86 125/141 127/87
f 718/1 717/228 731/2
f 633/74 648/180 649/75
f 116/285 1237/286 114/287
f 91/288 95/289 93/290
f 93/290 81/291 83/292
f 83/292 85/293 87/294
f 87/294 89/295 91/288
f 970/296 1277/297 1046/298
f 812/7 810/265 816/8
f 134/198 1321/299 136/36
f 22/300 1164/301 20/302
f 1008/62 330/303 325/63
f 1249/286 1183/304 1302/268
f 1173/305 1266/32 1151/306
f 56/29 55/307 51/40
f 801/10 807/272 805/11
f 1317/308 1133/309 1255/310
f 1231/92 23/311 21/93
f 312/69 311/269 1055/64
f 124/36 1239/312 122/313
f 465/33 468/314 463/34
f 128/198 1283/299 124/36
f 1252/297 1174/306 1294/315
f 112/285 1281/286 108/287
f 1046/298 1326/315 1094/316
f 1160/304 1324/286 1210/284
f 1292/30 117/48 119/31
f 1152/317 1261/88 1177/309
f 696/178 695/157 642/159
f 632/76 649/75 650/154
f 161/57 164/226 163/58
f 499/56 498/55 494/65
f 38/12 39/270 40/10
f 40/10 33/271 34/272
f 34/272 35/273 36/11
f 36/11 37/274 38/12
f 991/106 186/318 188/96
f 487/34 488/147 486/65
f 1130/284 1242/319 1182/304
f 428/165 426/320 422/166
f 741/57 744/226 743/58
f 280/69 279/269 1051/64
f 1118/321 1230/89 1115/91
f 835/7 825/265 839/8
f 1303/322 1183/304 1269/319
f 1155/282 1263/283 1127/284
f 1038/323 1039/324 598/52
f 1174/306 1245/86 1152/317
f 1005/62 306/303 301/63
f 1171/173 994/325 1036/326
f 1065/327 1203/117 1025/328
f 416/19 415/143 411/20
f 110/313 1318/329 112/285
f 1328/310 1192/330 1307/331
f 118/36 1319/312 120/313
f 1161/66 31/142 29/67
f 1207/332 1244/333 1156/334
f 1230/89 1124/335 586/90
f 1146/336 1307/331 1192/330
f 1157/337 1312/338 1129/282
f 848/83 847/161 845/84
f 1218/330 1327/339 1325/331
f 252/16 251/50 249/17
f 969/298 1275/315 1045/316
f 1019/340 1278/283 1097/341
f 1190/194 1032/342 1071/343
f 1170/330 1268/310 1146/309
f 1143/317 1267/88 1150/309
f 1132/305 1304/32 1174/306
f 1167/170 997/344 1032/342
f 1202/317 1313/88 1133/309
f 1159/304 1323/286 1209/284
f 1225/309 1279/230 1192/330
f 1213/244 1071/343 1109/345
f 1325/331 973/346 1019/340
f 126/285 1320/286 128/287
f 1133/347 1259/30 1173/305
f 1327/310 1193/330 1308/331
f 1150/347 1314/30 1149/305
f 1288/268 426/166 428/167
f 1206/337 1264/338 1155/282
f 989/348 1145/236 1103/349
f 1014/296 1293/297 969/298
f 362/22 361/350 359/23
f 62/130 61/156 59/50
f 1276/308 1177/309 1296/310
f 977/44 284/351 280/69
f 1199/317 1280/88 1198/309
f 1047/352 1296/310 1095/341
f 1318/329 1154/284 1281/286
f 1205/282 1309/283 1154/284
f 78/13 80/353 57/14
f 1158/306 1246/86 1143/317
f 1169/354 559/355 561/300
f 1219/306 1257/86 1199/317
f 1253/231 1192/330 1279/230
f 1105/356 1168/68 1066/357
f 1045/316 1317/308 1093/352
f 6/358 1162/359 4/360
f 1063/361 1200/138 1023/362
f 495/34 496/147 494/65
f 479/34 480/147 478/65
f 1237/363 1179/334 1298/299
f 132/313 1241/329 130/285
f 1136/172 1109/345 994/325
f 1215/149 1072/364 1112/365
f 414/187 413/191 389/188
f 1160/304 1249/366 1289/268
f 248/174 247/280 229/112
f 760/122 759/367 757/124
f 505/33 508/314 503/34
f 751/183 749/146 745/184
f 1066/357 1204/368 1026/369
f 1278/322 1182/304 1242/319
f 1316/308 1198/309 1315/310
f 1137/163 1111/370 995/371
f 1228/372 553/373 555/374
f 1290/331 974/346 1020/340
f 564/162 562/375 1137/163
f 697/39 696/178 641/5
f 18/376 1211/377 16/378
f 436/165 434/320 430/166
f 556/171 554/379 1136/172
f 1200/138 3/380 1/139
f 984/44 340/351 336/69
f 483/56 482/55 478/65
f 570/148 568/381 1215/149
f 748/122 747/367 745/124
f 1255/382 1173/305 1293/297
f 433/151 435/383 431/152
f 695/157 700/384 643/158
f 68/108 67/134 65/109
f 1299/329 1207/284 1320/286
f 415/143 414/187 412/144
f 387/143 386/187 376/144
f 1261/47 127/385 123/48
f 1103/349 1176/386 1064/387
f 764/73 763/72 759/145
f 1010/62 346/303 341/63
f 612/51 628/203 598/52
f 1291/319 1209/284 1278/283
f 850/160 849/233 847/161
f 475/56 474/55 470/65
f 986/44 353/388 354/45
f 1188/389 561/300 563/302
f 975/44 268/351 264/69
f 200/49 199/156 213/50
f 982/44 324/351 320/69
f 1148/390 549/391 551/392
f 976/44 276/351 272/69
f 70/113 69/112 67/134
f 1234/319 1131/393 1160/304
f 1159/304 1248/366 1288/268
f 980/44 308/351 304/69
f 1175/140 1/139 31/142
f 1177/347 1311/30 1132/305
f 1298/299 1206/337 1319/312
f 320/69 319/269 1056/64
f 905/52 906/394 910/128
f 1015/352 1315/310 970/341
f 1144/395 569/396 571/397
f 296/69 295/269 1053/64
f 1000/62 266/303 261/63
f 550/398 552/399 554/400
f 554/400 556/401 558/402
f 558/402 560/403 562/404
f 562/404 564/405 566/406
f 568/407 1088/408 566/406
f 568/407 570/409 574/410
f 570/409 572/411 574/410
f 574/410 576/412 578/413
f 578/413 580/414 550/398
f 554/400 1089/415 550/398
f 1089/415 1090/416 550/398
f 316/351 1006/46 315/383
f 1088/408 1087/417 566/406
f 551/418 549/419 579/420
f 579/420 577/421 551/418
f 577/421 1101/422 551/418
f 573/423 1102/424 575/425
f 573/423 571/426 567/427
f 571/426 569/428 567/427
f 567/427 565/429 563/430
f 563/430 561/431 567/427
f 561/431 1099/432 567/427
f 559/433 557/434 555/435
f 555/435 553/436 559/433
f 553/436 1100/437 559/433
f 297/388 1079/70 294/438
f 972/352 1274/310 1048/341
f 949/222 952/259 951/221
f 575/425 1125/439 1101/422
f 1290/331 1098/341 1268/310
f 1209/393 1301/268 1182/304
f 1178/337 1322/338 1205/282
f 540/54 537/280 538/55
f 936/125 935/440 929/126
f 933/253 937/99 932/237
f 1101/422 1100/437 551/418
f 1120/137 190/196 192/136
f 905/52 916/441 906/442
f 1264/338 970/341 1263/283
f 268/351 1000/46 267/383
f 814/9 813/263 812/7
f 812/7 811/264 810/265
f 810/265 817/266 816/8
f 816/8 815/267 814/9
f 1259/30 105/48 109/31
f 821/9 820/263 819/7
f 819/7 818/264 809/265
f 809/265 824/266 823/8
f 823/8 822/267 821/9
f 130/36 134/313 136/37
f 1151/306 1243/86 1202/317
f 1201/443 551/392 553/373
f 1016/298 1294/315 971/316
f 216/118 215/134 197/109
f 753/121 754/444 748/122
f 1217/445 1040/446 1024/447
f 1126/334 1305/448 1178/337
f 1265/308 1150/309 1274/310
f 122/313 1299/329 126/285
f 1147/449 1110/450 559/355
f 1149/305 1251/32 1158/306
f 1277/297 1219/306 1326/315
f 473/33 476/314 471/34
f 1098/346 1269/319 1062/340
f 413/191 420/451 390/192
f 1227/452 596/99 1044/453
f 974/341 1307/331 1062/340
f 1297/312 1205/282 1318/329
f 1096/298 1287/315 1017/316
f 1220/454 1124/335 1118/321
f 1020/340 1303/283 1098/341
f 1319/312 1155/282 1282/329
f 624/131 597/455 588/132
f 1314/30 135/48 131/31
f 981/44 313/388 314/45
f 1189/456 1113/457 575/458
f 481/33 484/314 479/34
f 1293/297 1151/306 1275/315
f 1210/393 1302/268 1183/304
f 1024/447 1227/452 1044/453
f 800/247 785/459 786/460
f 786/460 787/461 788/462
f 788/462 789/463 792/464
f 789/463 790/465 792/464
f 790/465 791/466 792/464
f 792/464 793/467 794/468
f 794/468 795/469 796/245
f 796/245 797/470 798/246
f 798/246 799/471 800/247
f 404/207 401/208 402/209
f 786/460 788/462 792/464
f 1271/472 1016/298 1244/333
f 794/468 796/245 800/247
f 879/249 880/473 875/250
f 880/473 873/474 875/250
f 873/474 874/475 875/250
f 875/250 876/476 877/477
f 877/477 878/248 875/250
f 887/249 888/473 883/250
f 888/473 881/474 883/250
f 881/474 882/475 883/250
f 883/250 884/476 885/477
f 885/477 886/248 883/250
f 1254/230 1224/336 1218/330
f 1153/305 1295/32 1219/306
f 924/27 926/214 923/478
f 1020/340 1247/322 1234/319
f 997/344 1189/456 1233/479
f 917/53 922/257 921/51
f 339/480 1058/64 335/269
f 1286/448 972/352 1312/338
f 1140/94 21/93 19/116
f 907/202 916/441 915/203
f 1112/365 1141/481 1197/482
f 1125/439 559/433 1100/437
f 944/217 939/483 941/218
f 1268/339 1062/340 1307/331
f 191/484 993/177 193/485
f 948/486 945/487 947/488
f 168/489 1070/490 182/491
f 1238/448 1015/352 1264/338
f 955/211 954/492 953/212
f 953/212 968/493 967/494
f 966/495 1021/496 967/494
f 966/495 965/497 963/498
f 965/497 964/499 963/498
f 963/498 962/500 961/501
f 961/501 960/502 959/262
f 959/262 958/503 957/260
f 957/260 956/504 955/211
f 139/303 148/505 140/506
f 987/210 1021/496 963/498
f 1186/507 1025/328 1164/301
f 1022/508 1018/261 955/211
f 122/36 128/37 124/38
f 976/44 274/45 1001/46
f 1243/86 107/87 1313/88
f 704/227 701/228 702/1
f 1226/509 5/510 1232/511
f 418/95 409/96 408/97
f 736/122 733/124 734/123
f 842/105 855/512 856/513
f 80/13 75/14 57/15
f 1104/514 621/515 23/311
f 758/123 761/199 762/71
f 388/19 375/20 358/21
f 1108/195 173/196 1068/135
f 978/44 290/45 1003/46
f 236/49 233/50 234/16
f 114/36 120/37 116/38
f 360/41 373/42 374/43
f 979/44 298/45 1004/46
f 386/187 377/188 376/144
f 256/61 253/156 254/49
f 755/146 750/71 752/73
f 712/80 709/81 710/82
f 1006/62 309/63 1055/64
f 383/516 380/97 379/517
f 740/73 735/145 736/102
f 978/44 288/69 1078/70
f 857/188 860/518 859/519
f 902/192 897/520 896/521
f 858/192 861/520 860/521
f 901/188 896/518 895/519
f 897/522 904/97 898/523
f 893/524 900/144 894/525
f 891/24 890/21 892/22
f 90/160 102/526 92/232
f 862/43 869/96 863/41
f 86/85 100/527 88/83
f 104/18 82/105 96/513
f 82/105 97/528 84/103
f 90/160 100/60 101/529
f 557/530 594/531 555/374
f 103/255 96/513 94/532
f 97/49 86/85 84/103
f 1034/533 794/534 1013/535
f 143/536 152/537 144/538
f 137/539 145/540 138/541
f 150/542 143/536 142/543
f 141/544 150/542 142/543
f 148/505 141/544 140/506
f 145/540 139/489 138/541
f 152/537 137/539 144/538
f 1323/366 422/167 1301/268
f 133/198 131/38 135/213
f 210/174 207/112 208/175
f 819/7 823/8 821/9
f 993/177 196/545 1030/546
f 1311/30 121/31 1304/32
f 449/33 447/34 445/35
f 1090/416 578/413 550/398
f 516/54 514/55 515/56
f 562/375 1214/547 1137/163
f 794/468 786/460 792/464
f 64/206 61/156 62/130
f 220/174 217/112 218/175
f 214/16 211/17 212/18
f 234/16 231/17 232/18
f 1267/47 135/48 1314/30
f 946/548 949/222 945/487
f 732/3 729/119 730/120
f 1067/490 184/549 1107/550
f 1107/550 186/318 991/106
f 1288/268 424/287 1323/286
f 856/513 853/551 854/532
f 985/44 346/45 1010/46
f 222/18 219/254 220/255
f 159/183 153/184 155/87
f 260/118 257/109 258/60
f 232/18 245/254 246/255
f 1145/236 13/552 1176/386
f 765/121 760/122 758/123
f 992/106 175/96 1108/107
f 394/518 391/553 392/519
f 990/177 167/545 1106/546
f 1313/47 105/48 1259/30
f 1029/550 177/318 992/106
f 1280/47 117/48 1292/30
f 1070/490 179/549 1029/550
f 1004/62 293/63 1053/64
f 452/54 450/55 451/56
f 336/69 1058/64 1084/70
f 1011/62 349/63 1060/64
f 447/34 446/65 445/35
f 420/451 407/517 390/192
f 244/175 241/134 242/118
f 439/34 438/65 437/35
f 370/518 367/553 368/519
f 198/60 227/54 228/61
f 1168/68 27/554 1204/368
f 497/33 495/34 493/35
f 476/54 474/55 475/56
f 242/118 239/109 240/60
f 554/379 1213/244 1136/172
f 513/33 511/34 509/35
f 457/33 455/34 453/35
f 1324/366 430/167 1302/268
f 1295/32 115/141 1257/86
f 406/525 403/555 404/524
f 455/34 454/65 453/35
f 191/484 1069/135 1120/137
f 1106/546 181/556 1070/490
f 846/85 843/557 844/103
f 258/60 255/54 256/61
f 1120/137 194/176 993/177
f 863/24 870/21 864/22
f 374/523 371/558 372/522
f 1257/86 113/87 1280/88
f 398/523 395/558 396/522
f 435/229 1258/231 1260/230
f 1289/268 432/287 1324/286
f 489/33 487/34 485/35
f 53/559 51/560 55/223
f 250/18 247/254 248/255
f 621/515 627/561 611/562
f 366/525 363/555 364/524
f 451/56 446/65 448/147
f 1102/424 1099/432 1125/439
f 1009/62 333/63 1058/64
f 368/563 365/564 366/565
f 218/175 215/134 216/118
f 74/115 71/254 72/566
f 872/144 859/563 866/565
f 396/520 393/567 394/521
f 381/241 358/21 357/242
f 372/520 369/567 370/521
f 463/34 462/65 461/35
f 93/290 87/294 91/288
f 761/146 759/87 763/183
f 752/73 747/145 748/102
f 539/56 534/65 536/147
f 507/56 502/65 504/147
f 589/568 601/569 556/171
f 1110/450 624/131 559/355
f 392/563 405/564 406/565
f 471/34 470/65 469/35
f 975/44 266/45 1000/46
f 767/146 762/71 764/73
f 202/61 199/156 200/49
f 710/223 707/224 708/225
f 531/56 526/65 528/147
f 1113/457 583/25 575/458
f 511/34 510/65 509/35
f 854/570 851/571 852/232
f 1251/32 129/141 1246/86
f 700/572 644/75 643/154
f 582/126 1115/91 586/90
f 568/381 1191/182 1215/149
f 109/38 107/198 111/36
f 578/573 1216/574 1139/169
f 934/575 939/483 940/576
f 230/175 259/134 260/118
f 1030/546 166/556 1067/490
f 653/577 660/578 654/252
f 658/579 651/159 657/580
f 652/5 653/577 647/6
f 649/75 656/581 650/154
f 654/252 661/582 655/583
f 653/577 648/180 647/6
f 664/584 653/577 658/579
f 664/584 657/580 663/585
f 636/586 679/587 637/588
f 661/582 656/581 655/583
f 630/185 635/589 636/586
f 694/590 687/591 693/592
f 681/593 688/594 682/595
f 687/591 680/596 686/597
f 630/185 637/588 631/598
f 678/599 685/600 679/587
f 678/599 683/601 684/602
f 665/603 660/578 659/604
f 635/589 682/595 677/605
f 693/592 686/597 692/606
f 686/597 691/607 692/606
f 667/608 674/82 668/609
f 672/610 667/608 666/611
f 671/612 666/611 665/603
f 656/613 663/585 657/580
f 639/614 632/76 638/615
f 632/76 637/616 638/615
f 26/617 605/618 24/355
f 669/619 676/620 670/621
f 629/186 640/622 635/589
f 682/595 639/614 681/593
f 639/614 680/596 681/593
f 638/615 679/623 680/596
f 656/613 651/159 650/158
f 935/440 948/486 947/488
f 668/624 663/585 662/625
f 640/622 633/74 639/614
f 666/611 661/582 660/578
f 680/596 685/626 686/597
f 668/609 661/582 667/608
f 678/599 635/589 677/605
f 677/605 688/594 683/601
f 670/621 671/612 665/603
f 25/627 591/628 27/554
f 674/241 669/619 668/624
f 665/603 664/584 670/621
f 684/602 689/629 690/630
f 683/601 694/590 689/629
f 54/29 55/40 56/28
f 738/71 739/72 740/73
f 226/49 223/50 224/16
f 78/353 79/631 80/560
f 708/225 705/632 706/633
f 766/59 768/226 767/58
f 419/516 408/97 407/517
f 750/71 751/72 752/73
f 529/33 527/34 525/35
f 154/123 157/199 158/71
f 1176/386 11/634 1217/445
f 706/633 703/635 704/227
f 50/29 53/40 54/28
f 588/636 584/637 626/638
f 1232/511 3/380 1200/138
f 714/120 711/639 712/80
f 492/54 490/55 491/56
f 547/56 542/65 544/147
f 631/598 651/159 630/185
f 722/633 719/635 720/227
f 724/225 721/632 722/633
f 548/54 546/55 547/56
f 1121/640 791/641 1116/642
f 799/643 1092/644 1117/645
f 789/646 1042/647 1073/648
f 1092/649 797/650 1074/651
f 788/652 1033/653 1042/654
f 691/655 684/602 690/630
f 1116/656 790/657 1091/658
f 1013/659 793/660 999/661
f 1122/662 799/663 1117/664
f 797/665 1041/666 1074/667
f 1091/668 789/669 1073/670
f 1033/671 786/672 1012/673
f 793/674 1121/675 999/676
f 796/677 1034/678 1041/679
f 1012/680 785/681 998/682
f 1122/683 785/684 800/685
f 893/207 890/21 899/20
f 861/522 868/97 862/523
f 894/565 901/188 895/563
f 865/524 872/144 866/525
f 574/686 610/129 604/220
f 870/21 865/207 864/209
f 1260/230 1225/336 1170/330
f 1273/297 1158/306 1287/315
f 426/287 1301/268 422/167
f 988/687 1161/66 1105/356
f 130/285 1300/286 134/287
f 1194/688 567/378 569/396
f 1224/309 1256/230 1193/330
f 527/34 528/147 526/65
f 634/4 629/186 652/5
f 10/689 607/216 606/218
f 1322/338 1014/341 1309/283
f 9/690 615/487 11/634
f 1074/667 780/311 781/691
f 1231/92 1104/514 23/311
f 605/618 1123/692 24/355
f 741/121 736/122 734/123
f 621/515 614/693 23/311
f 1156/334 1262/448 1128/337
f 25/691 614/693 613/694
f 783/67 1122/662 1117/664
f 898/43 889/96 891/41
f 292/351 1003/46 291/383
f 1165/695 1043/696 28/374
f 27/554 591/628 581/79
f 844/103 843/557 841/104
f 581/79 1035/697 27/554
f 599/698 1043/696 585/78
f 1154/332 1240/333 1126/334
f 435/229 1253/88 431/87
f 1246/86 129/141 133/87
f 1002/62 282/303 277/63
f 1094/316 1316/308 1015/352
f 1234/319 1210/284 1303/283
f 737/146 733/184 735/87
f 1025/328 1142/234 989/348
f 1229/336 1308/331 1193/330
f 1141/481 563/302 565/376
f 1023/362 1175/140 988/687
f 1275/315 1202/317 1317/308
f 224/16 223/50 221/17
f 30/373 1165/695 28/374
f 120/313 1282/329 116/285
f 193/485 1030/546 195/489
f 1272/472 1096/298 1270/333
f 995/371 1147/449 1169/354
f 1244/333 971/316 1262/448
f 348/351 1010/46 347/383
f 183/699 991/106 185/700
f 289/388 1078/70 286/438
f 780/311 1034/678 779/93
f 315/480 1055/64 311/269
f 1222/701 595/702 1104/514
f 1012/680 769/139 770/380
f 769/139 1122/683 784/142
f 1221/703 1123/692 1119/704
f 1204/368 1035/697 1026/369
f 999/676 776/235 777/251
f 1119/704 1222/701 1104/514
f 321/388 1082/70 318/438
f 281/388 1077/70 278/438
f 332/351 1008/46 331/383
f 1083/70 325/63 326/438
f 331/480 1057/64 327/269
f 1077/70 277/63 278/438
f 356/351 1011/46 355/383
f 275/480 1050/64 271/269
f 1197/482 565/376 567/378
f 204/60 203/109 201/54
f 1239/312 1180/282 1299/329
f 728/80 727/639 725/81
f 1001/62 274/303 269/63
f 106/36 110/313 112/37
f 1118/321 1232/511 1063/361
f 1086/70 349/63 350/438
f 328/69 327/269 1057/64
f 1208/334 1286/448 1157/337
f 284/351 1002/46 283/383
f 427/229 1306/88 423/87
f 943/98 942/216 937/99
f 1191/182 1031/705 1072/364
f 1284/312 1129/282 1241/329
f 698/179 697/39 646/6
f 532/54 529/280 530/55
f 1003/62 290/303 285/63
f 1076/70 269/63 270/438
f 1240/333 1045/316 1305/448
f 1064/387 1217/445 1024/447
f 1129/282 1272/283 1181/284
f 206/118 205/134 203/109
f 1235/299 1178/337 1297/312
f 983/44 329/388 330/45
f 1241/329 1181/284 1300/286
f 32/392 1187/706 30/373
f 106/36 1297/312 110/313
f 1198/347 1292/30 1153/305
f 1233/479 575/458 577/358
f 4/360 1134/707 2/391
f 1248/286 1182/304 1301/268
f 77/13 78/353 58/14
f 979/44 300/351 296/69
f 382/95 381/708 357/96
f 1139/169 1114/709 997/344
f 1172/190 996/710 1038/323
f 503/34 504/147 502/65
f 927/25 928/711 925/26
f 1300/363 1208/334 1321/299
f 1027/137 171/136 169/176
f 1131/284 1269/319 1183/304
f 136/36 1284/312 132/313
f 1320/363 1156/334 1283/299
f 16/378 1185/712 14/396
f 460/54 457/280 458/55
f 1048/296 1273/297 1096/298
f 743/146 744/183 738/71
f 1304/32 121/31 125/141
f 1282/329 1127/284 1237/286
f 1306/231 1193/330 1256/230
f 543/34 544/147 542/65
f 1127/332 1250/333 1179/334
f 572/189 570/148 1138/150
f 79/13 77/353 76/14
f 1312/338 1048/341 1272/283
f 1326/315 1199/317 1316/308
f 1212/713 1066/357 1187/706
f 1283/299 1128/337 1239/312
f 1095/296 1252/297 1016/298
f 1260/230 1146/309 1253/88
f 1254/230 1229/309 1306/88
f 1329/339 1061/340 1308/331
f 1270/333 1017/316 1286/448
f 400/41 399/714 397/42
f 185/700 1028/107 187/715
f 1281/363 1126/334 1235/299
f 1287/315 1143/317 1265/308
f 459/56 458/55 454/65
f 1291/319 1130/393 1159/304
f 2/391 1212/713 32/392
f 1181/332 1270/333 1208/334
f 283/480 1051/64 279/269
f 1315/382 1153/305 1277/297
f 291/480 1052/64 287/269
f 1166/164 995/371 1031/705
f 1179/334 1238/448 1206/337
f 1196/716 577/358 579/360
f 1195/717 579/360 549/391
f 300/351 1004/46 299/383
f 1250/333 1094/316 1238/448
f 977/44 281/388 282/45
f 1221/703 1065/327 1186/507
f 519/34 520/147 518/65
f 1017/316 1265/308 972/352
f 158/71 157/199 159/72
f 1296/382 1132/305 1252/297
f 1321/299 1157/337 1284/312
f 1274/382 1149/305 1273/297
f 573/689 616/204 571/397
f 1026/369 1223/718 1043/696
f 574/686 602/200 576/719
f 1309/472 969/298 1240/333
f 1228/372 1037/720 1036/326
f 555/374 594/531 584/637
f 828/7 832/8 830/9
f 114/198 1298/299 118/36
f 584/637 1037/720 555/374
f 573/689 593/27 617/478
f 1036/326 1037/720 589/568
f 663/585 670/621 664/584
f 1263/472 1046/298 1250/333
f 344/69 1059/64 1085/70
f 973/341 1308/331 1061/340
f 624/131 618/721 559/355
f 1214/547 560/722 597/455
f 560/722 608/723 597/455
f 108/198 1235/299 106/36
f 523/56 522/55 518/65
f 1068/135 173/196 171/136
f 1218/330 1329/310 1229/309
f 566/181 564/162 1166/164
f 238/61 237/54 235/156
f 557/617 618/721 620/724
f 1223/718 585/78 1043/696
f 558/725 601/569 609/726
f 170/485 1106/546 168/489
f 1144/395 1039/324 1038/323
f 571/397 616/204 623/53
f 14/396 1163/727 12/397
f 623/53 1039/324 571/397
f 598/52 610/129 572/189
f 744/226 734/123 738/71
f 1085/70 341/63 342/438
f 558/728 608/723 560/722
f 180/699 992/106 178/700
f 384/451 379/517 378/192
f 583/25 593/27 575/458
f 1216/574 576/719 590/202
f 576/719 602/200 590/202
f 24/355 1186/507 22/300
f 385/191 384/451 378/192
f 1170/330 1328/339 1290/331
f 254/49 253/156 251/50
f 9/690 592/440 619/488
f 1091/668 773/690 774/634
f 10/689 600/483 8/458
f 1220/454 1063/361 1184/729
f 1163/727 1044/453 12/397
f 11/634 615/487 622/222
f 434/287 1302/268 430/167
f 622/222 1040/446 11/634
f 607/216 1044/453 596/99
f 26/530 599/698 603/730
f 176/731 1068/135 174/732
f 92/232 103/733 94/570
f 771/510 1012/673 770/380
f 1226/509 1115/91 7/734
f 600/483 1124/335 8/458
f 228/61 225/156 226/49
f 582/126 592/440 7/734
f 766/101 767/735 764/73
f 1128/337 1285/338 1180/282
f 8/458 1184/729 6/358
f 550/193 580/168 1167/170
f 468/54 465/280 466/55
f 702/1 701/228 715/2
f 161/121 162/444 156/122
f 324/351 1007/46 323/383
f 195/489 1067/490 165/491
f 1075/70 261/63 262/438
f 1247/283 1062/340 1269/319
f 1185/712 1024/447 1163/727
f 1019/340 1310/322 1291/319
f 1135/736 1103/349 1211/377
f 1184/729 1023/362 1162/359
f 329/388 1083/70 326/438
f 1078/70 285/63 286/438
f 775/552 1121/640 1116/642
f 345/388 1085/70 342/438
f 172/484 990/177 170/485
f 1084/70 333/63 334/438
f 967/494 987/210 953/212
f 308/351 1005/46 307/383
f 182/491 1029/550 180/699
f 1036/326 1201/443 1228/372
f 1109/345 1195/717 1148/390
f 1042/654 771/510 772/734
f 1285/338 1095/341 1271/283
f 1031/705 1169/354 1188/389
f 1092/649 781/627 782/554
f 340/351 1009/46 339/383
f 187/731 1069/135 189/732
f 1117/645 782/554 783/67
f 959/262 1022/508 961/501
f 276/351 1001/46 275/383
f 1073/648 772/734 773/690
f 1071/343 1196/716 1195/717
f 353/388 1086/70 350/438
f 1187/706 1026/369 1165/695
f 961/501 987/210 963/498
f 1080/70 301/63 302/438
f 994/325 1148/390 1201/443
f 1164/301 989/348 1135/736
f 1038/323 1194/688 1144/395
f 299/480 1053/64 295/269
f 558/402 1090/416 1089/415
f 574/410 1087/417 1088/408
f 355/480 1060/64 351/269
f 1072/364 1188/389 1141/481
f 1305/448 1093/352 1322/338
f 1013/659 777/251 778/116
f 996/710 1197/482 1194/688
f 1032/342 1233/479 1196/716
f 775/552 1091/658 774/634
f 1310/283 1061/340 1242/319
f 425/151 427/383 423/152
f 1093/352 1255/310 1014/341
f 630/185 651/159 652/5
f 580/168 578/573 1139/169
f 981/44 316/351 312/69
f 647/6 648/180 633/74
f 1138/150 1112/365 996/710
f 1028/195 188/737 190/196
f 1007/62 322/303 317/63
f 163/146 164/183 158/71
f 1294/315 1152/317 1276/308
f 402/22 401/350 399/23
f 515/56 514/55 510/65
f 431/33 1279/230 429/229
f 1119/704 1140/94 1065/327
f 699/197 698/179 645/180
f 72/111 71/280 69/112
f 20/302 1135/736 18/376
f 971/316 1276/308 1047/352
f 246/174 245/280 243/112
f 60/114 59/50 73/17
f 1097/346 1242/319 1061/340
f 265/388 1075/70 262/438
f 307/480 1054/64 303/269
f 305/388 1080/70 302/438
f 1081/70 309/63 310/438
f 267/480 1049/64 263/269
f 347/480 1059/64 343/269
f 1082/70 317/63 318/438
f 1262/448 1047/352 1285/338
f 337/388 1084/70 334/438
f 273/388 1076/70 270/438
f 1079/70 293/63 294/438
f 313/388 1081/70 310/438
f 1162/359 988/687 1134/707
f 323/480 1056/64 319/269
f 1134/707 1105/356 1212/713
f 174/732 1027/137 172/484
f 1211/377 1064/387 1185/712
f 1325/331 1097/341 1329/310
f 779/93 1013/535 778/116
f 165/491 1107/550 183/699
f 178/700 1108/107 176/715
f 562/404 1087/417 1090/416
f 730/120 727/639 728/80
f 484/54 481/280 482/55
f 491/56 490/55 486/65
f 117/38 113/213 115/198
f 734/123 733/124 737/199
f 288/69 287/269 1052/64
f 467/56 466/55 462/65
f 521/33 524/314 519/34
f 443/56 442/55 438/65
f 913/200 914/738 908/201
f 628/203 612/51 583/25
f 919/204 920/739 918/205
f 537/33 540/314 535/34
f 983/44 332/351 328/69
f 66/110 65/109 63/54
f 762/71 761/199 763/72
f 524/54 521/280 522/55
f 364/207 363/740 361/208
f 987/210 1022/508 955/211
f 125/198 121/36 123/38
f 919/204 923/478 926/214
f 304/69 303/269 1054/64
f 160/73 159/72 155/145
f 508/54 505/280 506/55
f 441/33 444/314 439/34
f 942/216 943/741 944/217
f 909/129 910/742 912/219
f 240/60 239/109 237/54
f 52/29 51/307 49/40
f 625/221 587/237 596/99
f 726/223 725/743 723/224
f 746/123 745/124 749/199
f 545/33 548/314 543/34
f 535/34 536/147 534/65
f 768/226 765/57 758/123
f 208/175 207/112 205/134
f 720/227 719/635 717/228
f 1258/88 433/87 429/229
f 164/226 161/57 154/123
f 264/69 263/269 1049/64
f 427/229 425/33 1236/231
f 156/122 155/367 153/124
f 753/57 756/226 755/58
f 852/232 851/571 849/233
f 756/226 753/57 746/123
f 982/44 321/388 322/45
f 1142/234 17/251 15/235
f 985/44 348/351 344/69
f 162/101 163/735 160/73
f 1236/88 425/87 421/229
f 1266/32 109/31 111/141
f 984/44 337/388 338/45
f 582/126 586/90 587/237
f 47/238 42/277 44/239
f 742/101 743/735 740/73
f 417/241 416/19 410/21
f 552/243 550/193 1190/194
f 986/44 356/351 352/69
f 754/101 755/735 752/73
f 1203/117 19/116 17/251
f 980/44 305/388 306/45
f 654/252 655/583 649/75
f 931/90 934/744 933/253
f 212/18 211/17 209/254
f 913/200 911/220 912/219
f 927/25 921/51 922/257
f 952/259 930/745 929/126
f 957/260 955/211 1018/261
f 1289/268 1249/366 434/166
f 423/33 1306/231 1256/230
f 1180/282 1285/338 1271/283
f 116/285 1282/329 1237/286
f 970/296 1315/382 1277/297
f 134/198 1300/363 1321/299
f 22/300 1186/507 1164/301
f 1249/286 1131/284 1183/304
f 1173/305 1259/30 1266/32
f 1317/308 1202/317 1133/309
f 124/36 1283/299 1239/312
f 128/198 1320/363 1283/299
f 1252/297 1132/305 1174/306
f 112/285 1318/329 1281/286
f 1046/298 1277/297 1326/315
f 1160/304 1289/268 1324/286
f 1152/317 1245/86 1261/88
f 1130/284 1310/283 1242/319
f 1118/321 1124/335 1230/89
f 1303/322 1210/393 1183/304
f 1155/282 1264/338 1263/283
f 598/52 572/189 1172/190
f 1172/190 1038/323 598/52
f 1174/306 1304/32 1245/86
f 1171/173 1136/172 994/325
f 1065/327 1140/94 1203/117
f 110/313 1297/312 1318/329
f 1328/310 1225/309 1192/330
f 118/36 1298/299 1319/312
f 1207/332 1271/472 1244/333
f 1146/336 1268/339 1307/331
f 1157/337 1286/448 1312/338
f 1218/330 1224/336 1327/339
f 969/298 1293/297 1275/315
f 1019/340 1291/319 1278/283
f 1190/194 1167/170 1032/342
f 1170/330 1290/331 1268/310
f 1143/317 1246/86 1267/88
f 1132/305 1311/30 1304/32
f 1167/170 1139/169 997/344
f 1202/317 1243/86 1313/88
f 1159/304 1288/268 1323/286
f 1225/309 1258/88 1279/230
f 1213/244 1190/194 1071/343
f 1325/331 1327/339 973/346
f 126/285 1299/329 1320/286
f 1133/347 1313/47 1259/30
f 1327/310 1224/309 1193/330
f 1150/347 1267/47 1314/30
f 1288/268 1248/366 426/166
f 1206/337 1238/448 1264/338
f 989/348 1142/234 1145/236
f 1014/296 1255/382 1293/297
f 1276/308 1152/317 1177/309
f 1199/317 1257/86 1280/88
f 1047/352 1276/308 1296/310
f 1318/329 1205/282 1154/284
f 1205/282 1322/338 1309/283
f 1158/306 1251/32 1246/86
f 1169/354 1147/449 559/355
f 1219/306 1295/32 1257/86
f 1253/231 1146/336 1192/330
f 1105/356 1161/66 1168/68
f 1045/316 1275/315 1317/308
f 6/358 1184/729 1162/359
f 1063/361 1232/511 1200/138
f 1237/363 1127/332 1179/334
f 132/313 1284/312 1241/329
f 1136/172 1213/244 1109/345
f 1215/149 1191/182 1072/364
f 1160/304 1131/393 1249/366
f 1066/357 1168/68 1204/368
f 1278/322 1209/393 1182/304
f 1316/308 1199/317 1198/309
f 1137/163 1214/547 1111/370
f 1228/372 1201/443 553/373
f 1290/331 1328/339 974/346
f 18/376 1135/736 1211/377
f 1255/382 1133/347 1173/305
f 1299/329 1180/282 1207/284
f 1103/349 1145/236 1176/386
f 1291/319 1159/304 1209/284
f 1188/389 1169/354 561/300
f 1148/390 1195/717 549/391
f 1234/319 1247/322 1131/393
f 1159/304 1130/393 1248/366
f 1177/347 1261/47 1311/30
f 1298/299 1179/334 1206/337
f 1015/352 1316/308 1315/310
f 1144/395 1194/688 569/396
f 568/407 574/410 1088/408
f 554/400 558/402 1089/415
f 316/351 981/44 1006/46
f 577/421 575/425 1101/422
f 573/423 567/427 1102/424
f 561/431 559/433 1099/432
f 553/436 551/418 1100/437
f 297/388 979/44 1079/70
f 972/352 1265/308 1274/310
f 949/222 950/746 952/259
f 575/425 1102/424 1125/439
f 1290/331 1020/340 1098/341
f 1209/393 1323/366 1301/268
f 1178/337 1305/448 1322/338
f 933/253 938/747 937/99
f 1101/422 1125/439 1100/437
f 1120/137 1069/135 190/196
f 905/52 915/203 916/441
f 1264/338 1015/352 970/341
f 268/351 975/44 1000/46
f 1151/306 1266/32 1243/86
f 1201/443 1148/390 551/392
f 1016/298 1252/297 1294/315
f 1217/445 11/634 1040/446
f 1126/334 1240/333 1305/448
f 1265/308 1143/317 1150/309
f 122/313 1239/312 1299/329
f 1147/449 1111/370 1110/450
f 1149/305 1314/30 1251/32
f 1277/297 1153/305 1219/306
f 1098/346 1303/322 1269/319
f 1227/452 1040/446 596/99
f 974/341 1328/310 1307/331
f 1297/312 1178/337 1205/282
f 1096/298 1273/297 1287/315
f 1220/454 8/458 1124/335
f 1020/340 1234/319 1303/283
f 1319/312 1206/337 1155/282
f 1189/456 1114/709 1113/457
f 1293/297 1173/305 1151/306
f 1210/393 1324/366 1302/268
f 1024/447 1040/446 1227/452
f 404/207 403/740 401/208
f 1271/472 1095/296 1016/298
f 1254/230 1236/231 1224/336
f 1153/305 1292/30 1295/32
f 924/27 925/748 926/214
f 1020/340 974/346 1247/322
f 997/344 1114/709 1189/456
f 917/53 918/749 922/257
f 339/480 1009/62 1058/64
f 1286/448 1017/316 972/352
f 907/202 908/750 916/441
f 1112/365 1072/364 1141/481
f 1125/439 1099/432 559/433
f 944/217 940/751 939/483
f 1268/339 1098/346 1062/340
f 191/484 1120/137 993/177
f 948/486 946/752 945/487
f 168/489 1106/546 1070/490
f 1238/448 1094/316 1015/352
f 966/495 963/498 1021/496
f 139/303 147/753 148/505
f 1186/507 1065/327 1025/328
f 122/36 126/313 128/37
f 976/44 273/388 274/45
f 1243/86 111/141 107/87
f 704/227 703/635 701/228
f 1226/509 7/734 5/510
f 418/95 417/708 409/96
f 736/122 735/367 733/124
f 842/105 841/104 855/512
f 80/13 79/353 75/14
f 1104/514 595/702 621/515
f 758/123 757/124 761/199
f 388/19 387/143 375/20
f 1108/195 175/737 173/196
f 978/44 289/388 290/45
f 236/49 235/156 233/50
f 114/36 118/313 120/37
f 360/41 359/714 373/42
f 979/44 297/388 298/45
f 386/187 385/191 377/188
f 256/61 255/54 253/156
f 755/146 756/183 750/71
f 712/80 711/639 709/81
f 1006/62 314/303 309/63
f 383/516 382/95 380/97
f 740/73 739/72 735/145
f 978/44 292/351 288/69
f 857/188 858/192 860/518
f 902/192 903/517 897/520
f 858/192 867/517 861/520
f 901/188 902/192 896/518
f 897/522 903/517 904/97
f 893/524 899/20 900/144
f 891/24 889/242 890/21
f 90/160 101/118 102/526
f 862/43 868/97 869/96
f 86/85 99/61 100/527
f 104/18 98/754 82/105
f 82/105 98/16 97/528
f 90/160 88/83 100/60
f 557/530 620/755 594/531
f 103/255 104/756 96/513
f 97/49 99/757 86/85
f 1034/533 795/758 794/534
f 143/536 151/759 152/537
f 137/539 146/760 145/540
f 150/542 151/759 143/536
f 141/544 149/761 150/542
f 148/505 149/761 141/544
f 145/540 147/731 139/489
f 152/537 146/760 137/539
f 1323/366 424/166 422/167
f 133/198 129/36 131/38
f 210/174 209/280 207/112
f 819/7 809/265 823/8
f 993/177 194/176 196/545
f 1311/30 123/48 121/31
f 449/33 452/314 447/34
f 1090/416 1087/417 578/413
f 516/54 513/280 514/55
f 562/375 560/722 1214/547
f 794/468 800/247 786/460
f 64/206 63/54 61/156
f 220/174 219/280 217/112
f 214/16 213/50 211/17
f 234/16 233/50 231/17
f 1267/47 133/385 135/48
f 946/548 950/762 949/222
f 732/3 731/2 729/119
f 1067/490 166/556 184/549
f 1107/550 184/549 186/318
f 1288/268 428/167 424/287
f 856/513 855/512 853/551
f 985/44 345/388 346/45
f 222/18 221/17 219/254
f 159/183 157/146 153/184
f 260/118 259/134 257/109
f 232/18 231/17 245/254
f 1145/236 15/235 13/552
f 765/121 766/444 760/122
f 992/106 177/318 175/96
f 394/518 393/763 391/553
f 990/177 169/176 167/545
f 1313/47 107/385 105/48
f 1029/550 179/549 177/318
f 1280/47 113/385 117/48
f 1070/490 181/556 179/549
f 1004/62 298/303 293/63
f 452/54 449/280 450/55
f 336/69 335/269 1058/64
f 1011/62 354/303 349/63
f 447/34 448/147 446/65
f 420/451 419/516 407/517
f 244/175 243/112 241/134
f 439/34 440/147 438/65
f 370/518 369/763 367/553
f 198/60 197/109 227/54
f 1168/68 29/67 27/554
f 497/33 500/314 495/34
f 476/54 473/280 474/55
f 242/118 241/134 239/109
f 554/379 552/243 1213/244
f 513/33 516/314 511/34
f 457/33 460/314 455/34
f 1324/366 432/166 430/167
f 1295/32 119/31 115/141
f 406/525 405/764 403/555
f 455/34 456/147 454/65
f 191/484 189/732 1069/135
f 1106/546 167/545 181/556
f 846/85 845/84 843/557
f 258/60 257/109 255/54
f 1120/137 192/136 194/176
f 863/24 869/242 870/21
f 374/523 373/765 371/558
f 1257/86 115/141 113/87
f 398/523 397/765 395/558
f 435/229 433/33 1258/231
f 1289/268 436/167 432/287
f 489/33 492/314 487/34
f 53/559 49/766 51/560
f 250/18 249/17 247/254
f 621/515 595/702 627/561
f 366/525 365/764 363/555
f 451/56 450/55 446/65
f 1102/424 567/427 1099/432
f 1009/62 338/303 333/63
f 368/563 367/767 365/564
f 218/175 217/112 215/134
f 74/115 73/17 71/254
f 872/144 857/188 859/563
f 396/520 395/768 393/567
f 381/241 388/19 358/21
f 372/520 371/768 369/567
f 463/34 464/147 462/65
f 93/290 83/292 87/294
f 761/146 757/184 759/87
f 752/73 751/72 747/145
f 539/56 538/55 534/65
f 507/56 506/55 502/65
f 1110/450 597/455 624/131
f 392/563 391/767 405/564
f 471/34 472/147 470/65
f 975/44 265/388 266/45
f 767/146 768/183 762/71
f 202/61 201/54 199/156
f 710/223 709/743 707/224
f 531/56 530/55 526/65
f 1113/457 590/202 583/25
f 511/34 512/147 510/65
f 854/570 853/769 851/571
f 1251/32 131/31 129/141
f 700/572 699/197 644/75
f 582/126 7/734 1115/91
f 568/381 566/181 1191/182
f 109/38 105/213 107/198
f 578/573 576/719 1216/574
f 934/575 931/90 939/483
f 230/175 229/112 259/134
f 1030/546 196/545 166/556
f 653/577 659/604 660/578
f 658/579 652/5 651/159
f 652/5 658/579 653/577
f 649/75 655/583 656/581
f 654/252 660/578 661/582
f 653/577 654/252 648/180
f 664/584 659/604 653/577
f 664/584 658/579 657/580
f 636/586 678/599 679/587
f 661/582 662/770 656/581
f 630/185 629/186 635/589
f 694/590 688/594 687/591
f 681/593 687/591 688/594
f 687/591 681/593 680/596
f 630/185 636/586 637/588
f 678/599 684/602 685/600
f 678/599 677/605 683/601
f 665/603 666/611 660/578
f 635/589 640/622 682/595
f 693/592 687/591 686/597
f 686/597 685/626 691/607
f 667/608 673/771 674/82
f 672/610 673/771 667/608
f 671/612 672/610 666/611
f 656/613 662/625 663/585
f 639/614 633/74 632/76
f 632/76 631/155 637/616
f 26/617 603/772 605/618
f 669/619 675/773 676/620
f 629/186 634/4 640/622
f 682/595 640/622 639/614
f 639/614 638/615 680/596
f 638/615 637/616 679/623
f 656/613 657/580 651/159
f 935/440 936/774 948/486
f 668/624 669/619 663/585
f 640/622 634/4 633/74
f 666/611 667/608 661/582
f 680/596 679/623 685/626
f 668/609 662/770 661/582
f 678/599 636/586 635/589
f 677/605 682/595 688/594
f 670/621 676/620 671/612
f 25/627 613/775 591/628
f 674/241 675/773 669/619
f 665/603 659/604 664/584
f 684/602 683/601 689/629
f 683/601 688/594 694/590
f 54/29 53/307 55/40
f 738/71 737/199 739/72
f 226/49 225/156 223/50
f 78/353 77/13 79/631
f 708/225 707/224 705/632
f 766/59 765/57 768/226
f 419/516 418/95 408/97
f 750/71 749/199 751/72
f 529/33 532/314 527/34
f 154/123 153/124 157/199
f 1176/386 13/552 11/634
f 706/633 705/632 703/635
f 50/29 49/307 53/40
f 588/636 589/568 584/637
f 1232/511 5/510 3/380
f 714/120 713/119 711/639
f 492/54 489/280 490/55
f 547/56 546/55 542/65
f 631/598 650/158 651/159
f 722/633 721/632 719/635
f 724/225 723/224 721/632
f 548/54 545/280 546/55
f 1121/640 792/776 791/641
f 799/643 798/777 1092/644
f 789/646 788/778 1042/647
f 1092/649 798/779 797/650
f 788/652 787/780 1033/653
f 691/655 685/600 684/602
f 1116/656 791/781 790/657
f 1013/659 794/782 793/660
f 1122/662 800/783 799/663
f 797/665 796/784 1041/666
f 1091/668 790/785 789/669
f 1033/671 787/786 786/672
f 793/674 792/787 1121/675
f 796/677 795/788 1034/678
f 1012/680 786/789 785/681
f 1122/683 998/790 785/684
f 893/207 892/209 890/21
f 861/522 867/517 868/97
f 894/565 900/144 901/188
f 865/524 871/20 872/144
f 574/686 572/189 610/129
f 870/21 871/20 865/207
f 1260/230 1258/231 1225/336
f 1273/297 1149/305 1158/306
f 426/287 1248/286 1301/268
f 988/687 1175/140 1161/66
f 130/285 1241/329 1300/286
f 1194/688 1197/482 567/378
f 1224/309 1236/88 1256/230
f 10/689 12/397 607/216
f 1322/338 1093/352 1014/341
f 9/690 619/488 615/487
f 1074/667 1041/666 780/311
f 1231/92 1119/704 1104/514
f 605/618 595/702 1123/692
f 741/121 742/444 736/122
f 1156/334 1244/333 1262/448
f 25/691 23/311 614/693
f 783/67 784/142 1122/662
f 898/43 904/97 889/96
f 292/351 978/44 1003/46
f 1165/695 1026/369 1043/696
f 581/79 585/78 1035/697
f 599/698 28/374 1043/696
f 1154/332 1309/472 1240/333
f 435/229 1260/230 1253/88
f 1094/316 1326/315 1316/308
f 1234/319 1160/304 1210/284
f 1025/328 1203/117 1142/234
f 1229/336 1329/339 1308/331
f 1141/481 1188/389 563/302
f 1023/362 1200/138 1175/140
f 1275/315 1151/306 1202/317
f 30/373 1187/706 1165/695
f 120/313 1319/312 1282/329
f 193/485 993/177 1030/546
f 1272/472 1048/296 1096/298
f 995/371 1111/370 1147/449
f 1244/333 1016/298 971/316
f 348/351 985/44 1010/46
f 183/699 1107/550 991/106
f 289/388 978/44 1078/70
f 780/311 1041/679 1034/678
f 315/480 1006/62 1055/64
f 1222/701 1123/692 595/702
f 1012/680 998/682 769/139
f 769/139 998/790 1122/683
f 1221/703 24/355 1123/692
f 1204/368 27/554 1035/697
f 999/676 1121/675 776/235
f 1119/704 1123/692 1222/701
f 321/388 982/44 1082/70
f 281/388 977/44 1077/70
f 332/351 983/44 1008/46
f 1083/70 1057/64 325/63
f 331/480 1008/62 1057/64
f 1077/70 1051/64 277/63
f 356/351 986/44 1011/46
f 275/480 1001/62 1050/64
f 1197/482 1141/481 565/376
f 1239/312 1128/337 1180/282
f 1118/321 1226/509 1232/511
f 1086/70 1060/64 349/63
f 1208/334 1270/333 1286/448
f 284/351 977/44 1002/46
f 427/229 1254/230 1306/88
f 1191/182 1166/164 1031/705
f 1284/312 1157/337 1129/282
f 1076/70 1050/64 269/63
f 1240/333 969/298 1045/316
f 1064/387 1176/386 1217/445
f 1129/282 1312/338 1272/283
f 1235/299 1126/334 1178/337
f 1241/329 1129/282 1181/284
f 32/392 1212/713 1187/706
f 106/36 1235/299 1297/312
f 1198/347 1280/47 1292/30
f 1233/479 1189/456 575/458
f 4/360 1162/359 1134/707
f 1248/286 1130/284 1182/304
f 1139/169 1216/574 1114/709
f 1172/190 1138/150 996/710
f 1300/363 1181/332 1208/334
f 1131/284 1247/283 1269/319
f 136/36 1321/299 1284/312
f 1320/363 1207/332 1156/334
f 16/378 1211/377 1185/712
f 1048/296 1274/382 1273/297
f 1282/329 1155/282 1127/284
f 1306/231 1229/336 1193/330
f 1127/332 1263/472 1250/333
f 1312/338 972/352 1048/341
f 1326/315 1219/306 1199/317
f 1212/713 1105/356 1066/357
f 1283/299 1156/334 1128/337
f 1095/296 1296/382 1252/297
f 1260/230 1170/330 1146/309
f 1254/230 1218/330 1229/309
f 1329/339 1097/346 1061/340
f 1270/333 1096/298 1017/316
f 185/700 991/106 1028/107
f 1281/363 1154/332 1126/334
f 1287/315 1158/306 1143/317
f 1291/319 1310/322 1130/393
f 2/391 1134/707 1212/713
f 1181/332 1272/472 1270/333
f 283/480 1002/62 1051/64
f 1315/382 1198/347 1153/305
f 291/480 1003/62 1052/64
f 1166/164 1137/163 995/371
f 1179/334 1250/333 1238/448
f 1196/716 1233/479 577/358
f 1195/717 1196/716 579/360
f 300/351 979/44 1004/46
f 1250/333 1046/298 1094/316
f 1221/703 1119/704 1065/327
f 1017/316 1287/315 1265/308
f 1296/382 1177/347 1132/305
f 1321/299 1208/334 1157/337
f 1274/382 1150/347 1149/305
f 573/689 617/478 616/204
f 1026/369 1035/697 1223/718
f 574/686 604/220 602/200
f 1309/472 1014/296 969/298
f 1228/372 555/374 1037/720
f 828/7 826/265 832/8
f 114/198 1237/363 1298/299
f 584/637 589/568 1037/720
f 573/689 575/458 593/27
f 589/568 556/171 1171/173
f 1171/173 1036/326 589/568
f 663/585 669/619 670/621
f 1263/472 970/296 1046/298
f 344/69 343/269 1059/64
f 973/341 1327/310 1308/331
f 1110/450 1111/370 597/455
f 1111/370 1214/547 597/455
f 108/198 1281/363 1235/299
f 1218/330 1325/331 1329/310
f 557/617 559/355 618/721
f 1223/718 1035/697 585/78
f 558/725 556/171 601/569
f 170/485 990/177 1106/546
f 1144/395 571/397 1039/324
f 14/396 1185/712 1163/727
f 623/53 598/52 1039/324
f 744/226 741/57 734/123
f 1085/70 1059/64 341/63
f 558/728 609/791 608/723
f 180/699 1029/550 992/106
f 384/451 383/516 379/517
f 1113/457 1114/709 590/202
f 1114/709 1216/574 590/202
f 24/355 1221/703 1186/507
f 1170/330 1225/336 1328/339
f 9/690 7/734 592/440
f 1091/668 1073/670 773/690
f 10/689 606/218 600/483
f 1220/454 1118/321 1063/361
f 1163/727 1024/447 1044/453
f 434/287 1249/286 1302/268
f 622/222 596/99 1040/446
f 607/216 12/397 1044/453
f 26/530 28/374 599/698
f 176/731 1108/195 1068/135
f 92/232 102/175 103/733
f 771/510 1033/671 1012/673
f 1226/509 1118/321 1115/91
f 600/483 586/90 1124/335
f 228/61 227/54 225/156
f 1128/337 1262/448 1285/338
f 8/458 1220/454 1184/729
f 324/351 982/44 1007/46
f 195/489 1030/546 1067/490
f 1075/70 1049/64 261/63
f 1247/283 974/341 1062/340
f 1185/712 1064/387 1024/447
f 1019/340 973/346 1310/322
f 1135/736 989/348 1103/349
f 1184/729 1063/361 1023/362
f 329/388 983/44 1083/70
f 1078/70 1052/64 285/63
f 775/552 776/235 1121/640
f 345/388 985/44 1085/70
f 172/484 1027/137 990/177
f 1084/70 1058/64 333/63
f 967/494 1021/496 987/210
f 308/351 980/44 1005/46
f 182/491 1070/490 1029/550
f 1036/326 994/325 1201/443
f 1109/345 1071/343 1195/717
f 1042/654 1033/653 771/510
f 1285/338 1047/352 1095/341
f 1031/705 995/371 1169/354
f 1092/649 1074/651 781/627
f 340/351 984/44 1009/46
f 187/731 1028/195 1069/135
f 1117/645 1092/644 782/554
f 959/262 1018/261 1022/508
f 276/351 976/44 1001/46
f 1073/648 1042/647 772/734
f 1071/343 1032/342 1196/716
f 353/388 986/44 1086/70
f 1187/706 1066/357 1026/369
f 961/501 1022/508 987/210
f 1080/70 1054/64 301/63
f 994/325 1109/345 1148/390
f 1164/301 1025/328 989/348
f 1038/323 996/710 1194/688
f 299/480 1004/62 1053/64
f 558/402 562/404 1090/416
f 574/410 578/413 1087/417
f 355/480 1011/62 1060/64
f 1072/364 1031/705 1188/389
f 1305/448 1045/316 1093/352
f 1013/659 999/661 777/251
f 996/710 1112/365 1197/482
f 1032/342 997/344 1233/479
f 775/552 1116/656 1091/658
f 1310/283 973/341 1061/340
f 1093/352 1317/308 1255/310
f 1138/150 1215/149 1112/365
f 1294/315 1174/306 1152/317
f 431/33 1253/231 1279/230
f 1119/704 1231/92 1140/94
f 20/302 1164/301 1135/736
f 971/316 1294/315 1276/308
f 1097/346 1278/322 1242/319
f 265/388 975/44 1075/70
f 307/480 1005/62 1054/64
f 305/388 980/44 1080/70
f 1081/70 1055/64 309/63
f 267/480 1000/62 1049/64
f 347/480 1010/62 1059/64
f 1082/70 1056/64 317/63
f 1262/448 971/316 1047/352
f 337/388 984/44 1084/70
f 273/388 976/44 1076/70
f 1079/70 1053/64 293/63
f 313/388 981/44 1081/70
f 1162/359 1023/362 988/687
f 323/480 1007/62 1056/64
f 1134/707 988/687 1105/356
f 174/732 1068/135 1027/137
f 1211/377 1103/349 1064/387
f 1325/331 1019/340 1097/341
f 779/93 1034/533 1013/535
f 165/491 1067/490 1107/550
f 178/700 992/106 1108/107
f 562/404 566/406 1087/417
f 730/120 729/119 727/639
o Spinner
v 0 2.25 -0.125
v 0 5.75 -0.125
v 0.0884 2.25 -0.0884
v 0.0884 5.75 -0.0884
v 0.125 2.25 -0
v 0.125 5.75 -0
v 0.0884 2.25 0.0884
v 0.0884 5.75 0.0884
v 0 2.25 0.125
v 0 5.75 0.125
v -0.0884 2.25 0.0884
v -0.0884 5.75 0.0884
v -0.125 2.25 -0
v -0.125 5.75 -0
v -0.0884 2.25 -0.0884
v -0.0884 5.75 -0.0884
v 0 2.25 -0.125
v 0 5.75 -0.125
v 0.125 2.25 -0
v 0.125 5.75 -0
v 0 2.25 0.125
v 0 5.75 0.125
v -0.125 2.25 -0
v -0.125 5.75 -0
v 0 2.25 -0.875
v 0 5.75 -0.875
v 0.875 2.25 -0
v 0.875 5.75 -0
v 0 2.25 0.875
v 0 5.75 0.875
v -0.875 2.25 -0
v -0.875 5.75 -0
v 0.125 4 -0
v 0 4 -0.125
v 0 4 0.125
v -0.125 4 -0
v 0.875 4 -0
v 0 4 -0.875
v 0 4 0.875
v -0.875 4 -0
v 0 4 -0.125
v 0.0884 4 -0.0884
v 0.125 4 -0
v 0.0884 4 0.0884
v 0 4 0.125
v -0.0884 4 0.0884
v -0.125 4 -0
v -0.0884 4 -0.0884
v 0.125 4.875 -0
v 0 3.125 0.875
v 0 4.875 -0.125
v 0.125 3.125 -0
v 0 4.875 0.125
v 0 3.125 -0.125
v -0.125 4.875 -0
v -0.875 3.125 -0
v 0.875 4.875 -0
v 0 4.875 -0.875
v 0 4.875 0.875
v -0.875 4.875 -0
v 0 4.875 -0.125
v 0 3.125 -0.875
v 0.0884 4.875 -0.0884
v 0.875 3.125 -0
v 0.125 4.875 -0
v 0 3.125 0.125
v 0.0884 4.875 0.0884
v 0.0884 3.125 -0.0884
v 0 4.875 0.125
v -0.125 3.125 -0
v -0.0884 4.875 0.0884
v 0.125 3.125 -0
v -0.125 4.875 -0
v 0 3.125 -0.125
v -0.0884 4.875 -0.0884
v 0.0884 3.125 0.0884
v 0 3.125 0.125
v -0.0884 3.125 0.0884
v -0.125 3.125 -0
v -0.0884 3.125 -0.0884
vt 0.3 0.25
vt 0.35 0
vt 0.35 0.25
vt 0.15 0.25
vt 0.2 0
vt 0.2 0.25
vt 1 0.75
vt 0.4 1
vt 0.4 0.75
vt 0.25 0.75
vt 0.3 0.5
vt 0.3 0.75
vt 0.35 0.5
vt 0.35 0.75
vt 1 0.25
vt 0.4 0.5
vt 0.4 0.25
vt 0.25 0.25
vt 0.3 0
vt 0.1 0.25
vt 0.15 0
vt 0 0.25
vt 0.05 0
vt 0.05 0.25
vt 0.25 0
vt 0.1 0
vt 0.4 -0
vt 0.1 0.75
vt 0.15 0.5
vt 0.15 0.75
vt 0 0.75
vt 0.05 0.5
vt 0.05 0.75
vt 0.2 0.75
vt 0.25 0.5
vt 0.2 0.5
vt 0.1 0.5
vt 0.05 1
vt 0.1 1
vt 1 1
vt 1 -0
vt 0.15 1
vt 0.2 1
vt 0.25 1
vt 0 1
vt 1 0.5
vt 0.35 1
vt 0 0.5
vt 0.3 1
vt 0 0
s 1
f 1397/792 1330/793 1383/794
f 1406/795 1336/796 1405/797
f 1389/798 1353/799 1384/800
f 1386/798 1349/799 1378/800
f 1394/801 1371/802 1392/803
f 1392/803 1370/804 1390/805
f 1385/806 1365/807 1399/808
f 1393/806 1362/807 1401/808
f 1381/809 1332/810 1397/792
f 1407/811 1338/812 1406/795
f 1409/813 1342/814 1408/815
f 1388/798 1351/799 1382/800
f 1405/797 1334/816 1381/809
f 1390/805 1377/807 1404/800
f 1408/815 1340/817 1407/811
f 1391/806 1346/818 1403/808
f 1400/819 1374/820 1398/821
f 1404/822 1376/823 1402/824
f 1396/825 1372/826 1394/801
f 1398/821 1373/827 1396/825
f 1379/806 1364/807 1395/808
f 1387/798 1363/807 1380/800
f 1402/824 1375/828 1400/819
f 1370/804 1409/808 1377/807
f 1383/794 1344/818 1409/808
f 1343/829 1400/819 1341/830
f 1355/831 1380/800 1347/799
f 1358/832 1395/808 1350/818
f 1339/833 1396/825 1337/834
f 1337/834 1394/801 1335/835
f 1345/836 1402/824 1343/829
f 1341/830 1398/821 1339/833
f 1367/837 1403/808 1363/807
f 1376/823 1407/811 1375/828
f 1331/838 1404/800 1345/799
f 1373/827 1381/809 1372/826
f 1368/837 1382/800 1364/807
f 1377/839 1408/815 1376/823
f 1375/828 1406/795 1374/820
f 1372/826 1397/792 1371/802
f 1356/832 1401/808 1348/818
f 1360/832 1399/808 1352/818
f 1333/840 1390/805 1331/838
f 1335/835 1392/803 1333/840
f 1366/837 1378/800 1362/807
f 1369/837 1384/800 1365/807
f 1374/820 1405/797 1373/827
f 1371/802 1383/794 1370/804
f 1397/792 1332/810 1330/793
f 1406/795 1338/812 1336/796
f 1389/798 1361/831 1353/799
f 1386/798 1357/831 1349/799
f 1394/801 1372/826 1371/802
f 1392/803 1371/802 1370/804
f 1385/806 1369/837 1365/807
f 1393/806 1366/837 1362/807
f 1381/809 1334/816 1332/810
f 1407/811 1340/817 1338/812
f 1409/813 1344/841 1342/814
f 1388/798 1359/831 1351/799
f 1405/797 1336/796 1334/816
f 1390/805 1370/804 1377/807
f 1408/815 1342/814 1340/817
f 1391/806 1354/832 1346/818
f 1400/819 1375/828 1374/820
f 1404/822 1377/839 1376/823
f 1396/825 1373/827 1372/826
f 1398/821 1374/820 1373/827
f 1379/806 1368/837 1364/807
f 1387/798 1367/837 1363/807
f 1402/824 1376/823 1375/828
f 1370/804 1383/794 1409/808
f 1383/794 1330/793 1344/818
f 1343/829 1402/824 1400/819
f 1355/831 1387/798 1380/800
f 1358/832 1379/806 1395/808
f 1339/833 1398/821 1396/825
f 1337/834 1396/825 1394/801
f 1345/836 1404/822 1402/824
f 1341/830 1400/819 1398/821
f 1367/837 1391/806 1403/808
f 1376/823 1408/815 1407/811
f 1331/838 1390/805 1404/800
f 1373/827 1405/797 1381/809
f 1368/837 1388/798 1382/800
f 1377/839 1409/813 1408/815
f 1375/828 1407/811 1406/795
f 1372/826 1381/809 1397/792
f 1356/832 1393/806 1401/808
f 1360/832 1385/806 1399/808
f 1333/840 1392/803 1390/805
f 1335/835 1394/801 1392/803
f 1366/837 1386/798 1378/800
f 1369/837 1389/798 1384/800
f 1374/820 1406/795 1405/797
f 1371/802 1397/792 1383/794
o Windows
v 1.1378 3.25 -0.25
v 1.1378 2.5 -0.25
v 1.1378 2.5 0.25
v 1.1875 2.5 -0
v 1.1378 3.25 0.25
v 1.1875 3.25 -0
v 1.1378 5.25 -0.25
v 1.1378 4.5 -0.25
v 1.1378 4.5 0.25
v 1.1875 4.5 -0
v 1.1378 5.25 0.25
v 1.1875 5.25 -0
v -1.1378 2.5 -0.25
v -1.1378 2.5 0.25
v -1.1875 2.5 -0
v -1.1378 3.25 -0.25
v -1.1378 3.25 0.25
v -1.1875 3.25 -0
v -1.1378 4.5 -0.25
v -1.1378 4.5 0.25
v -1.1875 4.5 -0
v -1.1378 5.25 -0.25
v -1.1378 5.25 0.25
v -1.1875 5.25 -0
vt 0 1
vt 0.5 0
vt 0.5 1
vt 1 1
vt 1 0
vt 0 0
s 1
f 1425/842 1424/843 1427/844
f 1420/842 1419/843 1421/844
f 1419/843 1416/845 1421/844
f 1426/845 1424/843 1423/846
f 1413/843 1410/845 1415/844
f 1431/842 1430/843 1433/844
f 1425/842 1422/847 1424/843
f 1414/842 1413/843 1415/844
f 1432/845 1433/844 1430/843
f 1431/842 1428/847 1430/843
f 1413/843 1411/846 1410/845
f 1426/845 1427/844 1424/843
f 1414/842 1412/847 1413/843
f 1419/843 1417/846 1416/845
f 1420/842 1418/847 1419/843
f 1432/845 1430/843 1429/846
