o Plane
v -0.5 0 0.5
v 0.5 0 0.5
v -0.5 -0 -0.5
v 0.5 -0 -0.5
v -0.5 1 -0.5
v -0.5 1 0.5
v 0.5 1 0.5
v 0.5 1 -0.5
v -1.25 4 1.25
v 1.25 4 1.25
v -1.25 4 -1.25
v 1.25 4 -1.25
v -0.875 4 -0.875
v -0.875 4 0.875
v 0.875 4 0.875
v 0.875 4 -0.875
v -1.25 3.75 1.25
v 1.25 3.75 1.25
v -1.25 3.75 -1.25
v 1.25 3.75 -1.25
v -0.875 3.75 -0.875
v -0.875 3.75 0.875
v 0.875 3.75 0.875
v 0.875 3.75 -0.875
v 1.5 0 1.5
v 1.5 0 1.25
v 1.25 0 1.5
v 1.25 0 1.25
v -1.25 0 1.5
v -1.25 0 1.25
v -1.5 0 1.5
v -1.5 0 1.25
v 1.5 -0 -1.25
v 1.5 -0 -1.5
v 1.25 -0 -1.25
v 1.25 -0 -1.5
v -1.25 -0 -1.25
v -1.25 -0 -1.5
v -1.5 -0 -1.25
v -1.5 -0 -1.5
v 0.75 8.75 0.75
v 0.75 8.75 0.5
v 0.5 8.75 0.75
v 0.5 8.75 0.5
v -0.5 8.75 0.75
v -0.5 8.75 0.5
v -0.75 8.75 0.75
v -0.75 8.75 0.5
v 0.75 8.75 -0.5
v 0.75 8.75 -0.75
v 0.5 8.75 -0.5
v 0.5 8.75 -0.75
v -0.5 8.75 -0.5
v -0.5 8.75 -0.75
v -0.75 8.75 -0.5
v -0.75 8.75 -0.75
v 1.125 3.75 1.125
v 1.125 3.75 0.875
v 0.875 3.75 1.125
v 0.875 3.75 0.875
v -0.875 3.75 1.125
v -0.875 3.75 0.875
v -1.125 3.75 1.125
v -1.125 3.75 0.875
v 1.125 3.75 -0.875
v 1.125 3.75 -1.125
v 0.875 3.75 -0.875
v 0.875 3.75 -1.125
v -0.875 3.75 -0.875
v -0.875 3.75 -1.125
v -1.125 3.75 -0.875
v -1.125 3.75 -1.125
v -1.125 4 -1.125
v -1.125 4 -0.875
v -0.875 4 -1.125
v -0.875 4 -0.875
v 0.875 4 -1.125
v 0.875 4 -0.875
v 1.125 4 -1.125
v 1.125 4 -0.875
v -1.125 4 0.875
v -1.125 4 1.125
v -0.875 4 0.875
v -0.875 4 1.125
v 0.875 4 0.875
v 0.875 4 1.125
v 1.125 4 0.875
v 1.125 4 1.125
v -0.875 8.75 0.875
v 0.875 8.75 0.875
v -0.875 8.75 -0.875
v 0.875 8.75 -0.875
v -0.5 9 -0.5
v -0.5 9 0.5
v 0.5 9 0.5
v 0.5 9 -0.5
v -0.875 9 -0.875
v -0.875 9 0.875
v 0.875 9 0.875
v 0.875 9 -0.875
v -0.5 8.75 -0.5
v -0.5 8.75 0.5
v 0.5 8.75 0.5
v 0.5 8.75 -0.5
v -0.5 9 -0.5
v 0.5 9 -0.5
v -0.5 9.25 -0.5
v 0.5 9.25 -0.5
v -0.25 9.5 -0.5
v 0.25 9.5 -0.5
v -0.5 9 -0.75
v 0.5 9 -0.75
v -0.5 9.25 -0.75
v 0.5 9.25 -0.75
v -0.25 9.5 -0.75
v 0.25 9.5 -0.75
v -0.5 9 0.75
v 0.5 9 0.75
v -0.5 9.25 0.75
v 0.5 9.25 0.75
v -0.25 9.5 0.75
v 0.25 9.5 0.75
v -0.5 9 0.5
v 0.5 9 0.5
v -0.5 9.25 0.5
v 0.5 9.25 0.5
v -0.25 9.5 0.5
v 0.25 9.5 0.5
v 0 9.75 0.5
v -0.1875 9.6998 0.5
v -0.3248 9.5625 0.5
v -0.375 9.375 0.5
v -0.3248 9.1875 0.5
v -0.1875 9.0502 0.5
v 0 9 0.5
v 0.1875 9.0502 0.5
v 0.3248 9.1875 0.5
v 0.375 9.375 0.5
v 0.3248 9.5625 0.5
v 0.1875 9.6998 0.5
v -0.1875 9.6998 0.375
v 0 9.75 0.375
v -0.3248 9.5625 0.375
v -0.375 9.375 0.375
v -0.3248 9.1875 0.375
v -0.1875 9.0502 0.375
v 0 9 0.375
v 0.1875 9.0502 0.375
v 0.3248 9.1875 0.375
v 0.375 9.375 0.375
v 0.3248 9.5625 0.375
v 0.1875 9.6998 0.375
v 0 9.625 0.375
v -0.125 9.5915 0.375
v -0.2165 9.5 0.375
v -0.25 9.375 0.375
v -0.2165 9.25 0.375
v -0.125 9.1585 0.375
v 0 9.125 0.375
v 0.125 9.1585 0.375
v 0.2165 9.25 0.375
v 0.25 9.375 0.375
v 0.2165 9.5 0.375
v 0.125 9.5915 0.375
v 0 9.625 -0.375
v -0.125 9.5915 -0.375
v -0.2165 9.5 -0.375
v -0.25 9.375 -0.375
v -0.2165 9.25 -0.375
v -0.125 9.1585 -0.375
v 0 9.125 -0.375
v 0.125 9.1585 -0.375
v 0.2165 9.25 -0.375
v 0.25 9.375 -0.375
v 0.2165 9.5 -0.375
v 0.125 9.5915 -0.375
v -0.25 1 -0.25
v -0.25 1 0.25
v 0.25 1 0.25
v 0.25 1 -0.25
v -0.25 4 -0.25
v -0.25 4 0.25
v 0.25 4 0.25
v 0.25 4 -0.25
v -0.3125 4 -0.3125
v -0.3125 4 0.3125
v 0.3125 4 0.3125
v 0.3125 4 -0.3125
v -0.3125 4.125 -0.3125
v -0.3125 4.125 0.3125
v 0.3125 4.125 0.3125
v 0.3125 4.125 -0.3125
v -0.25 4.1875 -0.25
v -0.25 4.1875 0.25
v 0.25 4.1875 0.25
v 0.25 4.1875 -0.25
v -0.25 4.375 -0.25
v -0.25 4.375 0.25
v 0.25 4.375 0.25
v 0.25 4.375 -0.25
v -0.0625 4.375 0.25
v 0.0625 4.375 0.25
v -0.0625 4.375 -0.25
v 0.0625 4.375 -0.25
v -0.0625 4.75 -0.25
v -0.0625 4.75 0.25
v 0.0625 4.75 0.25
v 0.0625 4.75 -0.25
v -0.0625 4.375 0.125
v -0.0625 4.625 0.125
v -0.0625 4.375 -0.125
v -0.0625 4.625 -0.125
v 0.0625 4.375 0.125
v 0.0625 4.625 0.125
v 0.0625 4.375 -0.125
v 0.0625 4.625 -0.125
v -0.125 5.25 -0.125
v -0.125 5.25 0.125
v 0.125 5.25 0.125
v 0.125 5.25 -0.125
v -0.3125 6 -0.125
v -0.3125 6 0.125
v 0.3125 6 0.125
v 0.3125 6 -0.125
v -0.125 4.625 0.0625
v 0.125 4.625 0.0625
v -0.125 4.625 -0.0625
v 0.125 4.625 -0.0625
v -0.1875 4.6875 0.0625
v 0.1875 4.6875 0.0625
v -0.1875 4.6875 -0.0625
v 0.1875 4.6875 -0.0625
v -0.1875 4.9375 0.0625
v -0.1875 4.9375 -0.0625
v 0.0625 5 0.0625
v 0.0625 5 -0.0625
v 0.0625 5.5 0.0625
v 0.0625 5.5 -0.0625
v -0.0625 5.5 0.0625
v -0.0625 5.5 -0.0625
v -0.0625 5.125 0.0625
v -0.0625 5.125 -0.0625
v -0.3125 4.9375 0.0625
v -0.3125 4.9375 -0.0625
v -0.3125 4.6875 0.0625
v -0.3125 4.6875 -0.0625
v -0.125 4.5 0.0625
v -0.125 4.5 -0.0625
v 0.125 4.5 0.0625
v 0.125 4.5 -0.0625
v 0.3125 4.6875 0.0625
v 0.3125 4.6875 -0.0625
v 0.1875 6 0.0312
v 0.25 6 0.0312
v 0.1875 6 -0.0312
v 0.25 6 -0.0312
v 0.1875 9.375 0.0312
v 0.25 9.375 0.0312
v 0.1875 9.375 -0.0313
v 0.25 9.375 -0.0313
v -0.25 6 0.0312
v -0.1875 6 0.0312
v -0.25 6 -0.0312
v -0.1875 6 -0.0312
v -0.25 9.375 0.0312
v -0.1875 9.375 0.0312
v -0.25 9.375 -0.0313
v -0.1875 9.375 -0.0313
v -1.0625 2.6875 1.0312
v 1.1875 1.875 1.125
v -1.0625 2.8125 1.0312
v 1.1875 2 1.125
v -0.9375 3.625 0.9375
v 1.0625 2.8125 1
v -0.9375 3.75 0.9375
v 1.0625 2.9375 1
v -1.0625 2.8125 1.1562
v -1.0625 2.6875 1.1562
v 1.1875 1.875 1.25
v 1.1875 2 1.25
v -0.9375 3.75 1.0625
v -0.9375 3.625 1.0625
v 1.0625 2.8125 1.125
v 1.0625 2.9375 1.125
v -1.1875 1.75 1.125
v 1.3125 0.9375 1.2188
v -1.1875 1.875 1.125
v 1.3125 1.0625 1.2188
v -1.1875 1.875 1.25
v -1.1875 1.75 1.25
v 1.3125 0.9375 1.3438
v 1.3125 1.0625 1.3438
v 1.1875 1.75 1.125
v -1.3125 0.9375 1.2188
v 1.1875 1.875 1.125
v -1.3125 1.0625 1.2188
v 1.0625 2.6875 1.0312
v -1.1875 1.875 1.125
v 1.0625 2.8125 1.0312
v -1.1875 2 1.125
v 0.9375 3.625 0.9375
v -1.0625 2.8125 1
v 0.9375 3.75 0.9375
v -1.0625 2.9375 1
v 1.1875 1.875 1.25
v 1.1875 1.75 1.25
v -1.3125 0.9375 1.3438
v -1.3125 1.0625 1.3438
v 1.0625 2.8125 1.1562
v 1.0625 2.6875 1.1562
v -1.1875 1.875 1.25
v -1.1875 2 1.25
v 0.9375 3.75 1.0625
v 0.9375 3.625 1.0625
v -1.0625 2.8125 1.125
v -1.0625 2.9375 1.125
v -0.125 5 0.0625
v -0.125 5 -0.0625
v -0.125 5.125 0.0625
v -0.125 5.125 -0.0625
v 1 4 1.0625
v 1 4 0.9375
v -0.9375 5.0625 0.9375
v -0.9375 5.0625 0.8125
v -0.9375 5.1875 0.9375
v 1 4.125 1.0625
v 1 4.125 0.9375
v -0.9375 5.1875 0.8125
v 0.9375 5.1875 0.9375
v 0.9375 5.1875 0.8125
v -0.8125 6.25 0.875
v -0.8125 6.25 0.75
v -0.8125 6.375 0.875
v 0.9375 5.3125 0.9375
v 0.9375 5.3125 0.8125
v -0.8125 6.375 0.75
v 0.8125 6.375 0.875
v 0.8125 6.375 0.75
v -0.75 7.4375 0.75
v -0.75 7.4375 0.625
v -0.75 7.5625 0.75
v 0.8125 6.5 0.875
v 0.8125 6.5 0.75
v -0.75 7.5625 0.625
v 0.75 7.5625 0.75
v 0.75 7.5625 0.625
v -0.6875 8.625 0.6875
v -0.6875 8.625 0.5625
v -0.6875 8.75 0.6875
v 0.75 7.6875 0.75
v 0.75 7.6875 0.625
v -0.6875 8.75 0.5625
v -1 4 1.0625
v -1 4 0.9375
v 0.9375 5.0625 0.9375
v 0.9375 5.0625 0.8125
v 0.9375 5.1875 0.9375
v -1 4.125 1.0625
v -1 4.125 0.9375
v 0.9375 5.1875 0.8125
v -0.9375 5.1875 0.9375
v -0.9375 5.1875 0.8125
v 0.8125 6.25 0.875
v 0.8125 6.25 0.75
v 0.8125 6.375 0.875
v -0.9375 5.3125 0.9375
v -0.9375 5.3125 0.8125
v 0.8125 6.375 0.75
v -0.8125 6.375 0.875
v -0.8125 6.375 0.75
v 0.75 7.4375 0.75
v 0.75 7.4375 0.625
v 0.75 7.5625 0.75
v -0.8125 6.5 0.875
v -0.8125 6.5 0.75
v 0.75 7.5625 0.625
v -0.75 7.5625 0.75
v -0.75 7.5625 0.625
v 0.6875 8.625 0.6875
v 0.6875 8.625 0.5625
v 0.6875 8.75 0.6875
v -0.75 7.6875 0.75
v -0.75 7.6875 0.625
v 0.6875 8.75 0.5625
v 0 9.75 -0.5
v 0.1875 9.6998 -0.5
v 0.3248 9.5625 -0.5
v 0.375 9.375 -0.5
v 0.3248 9.1875 -0.5
v 0.1875 9.0502 -0.5
v 0 9 -0.5
v -0.1875 9.0502 -0.5
v -0.3248 9.1875 -0.5
v -0.375 9.375 -0.5
v -0.3248 9.5625 -0.5
v -0.1875 9.6998 -0.5
v 0.1875 9.6998 -0.375
v 0 9.75 -0.375
v 0.3248 9.5625 -0.375
v 0.375 9.375 -0.375
v 0.3248 9.1875 -0.375
v 0.1875 9.0502 -0.375
v 0 9 -0.375
v -0.1875 9.0502 -0.375
v -0.3248 9.1875 -0.375
v -0.375 9.375 -0.375
v -0.3248 9.5625 -0.375
v -0.1875 9.6998 -0.375
v 1.0625 2.6875 -1.0312
v -1.1875 1.875 -1.125
v 1.0625 2.8125 -1.0312
v -1.1875 2 -1.125
v 0.9375 3.625 -0.9375
v -1.0625 2.8125 -1
v 0.9375 3.75 -0.9375
v -1.0625 2.9375 -1
v 1.0625 2.8125 -1.1562
v 1.0625 2.6875 -1.1562
v -1.1875 1.875 -1.25
v -1.1875 2 -1.25
v 0.9375 3.75 -1.0625
v 0.9375 3.625 -1.0625
v -1.0625 2.8125 -1.125
v -1.0625 2.9375 -1.125
v 1.1875 1.75 -1.125
v -1.3125 0.9375 -1.2188
v 1.1875 1.875 -1.125
v -1.3125 1.0625 -1.2188
v 1.1875 1.875 -1.25
v 1.1875 1.75 -1.25
v -1.3125 0.9375 -1.3438
v -1.3125 1.0625 -1.3438
v -1.1875 1.75 -1.125
v 1.3125 0.9375 -1.2188
v -1.1875 1.875 -1.125
v 1.3125 1.0625 -1.2188
v -1.0625 2.6875 -1.0312
v 1.1875 1.875 -1.125
v -1.0625 2.8125 -1.0312
v 1.1875 2 -1.125
v -0.9375 3.625 -0.9375
v 1.0625 2.8125 -1
v -0.9375 3.75 -0.9375
v 1.0625 2.9375 -1
v -1.1875 1.875 -1.25
v -1.1875 1.75 -1.25
v 1.3125 0.9375 -1.3438
v 1.3125 1.0625 -1.3438
v -1.0625 2.8125 -1.1562
v -1.0625 2.6875 -1.1562
v 1.1875 1.875 -1.25
v 1.1875 2 -1.25
v -0.9375 3.75 -1.0625
v -0.9375 3.625 -1.0625
v 1.0625 2.8125 -1.125
v 1.0625 2.9375 -1.125
v -1 4 -1.0625
v -1 4 -0.9375
v 0.9375 5.0625 -0.9375
v 0.9375 5.0625 -0.8125
v 0.9375 5.1875 -0.9375
v -1 4.125 -1.0625
v -1 4.125 -0.9375
v 0.9375 5.1875 -0.8125
v -0.9375 5.1875 -0.9375
v -0.9375 5.1875 -0.8125
v 0.8125 6.25 -0.875
v 0.8125 6.25 -0.75
v 0.8125 6.375 -0.875
v -0.9375 5.3125 -0.9375
v -0.9375 5.3125 -0.8125
v 0.8125 6.375 -0.75
v -0.8125 6.375 -0.875
v -0.8125 6.375 -0.75
v 0.75 7.4375 -0.75
v 0.75 7.4375 -0.625
v 0.75 7.5625 -0.75
v -0.8125 6.5 -0.875
v -0.8125 6.5 -0.75
v 0.75 7.5625 -0.625
v -0.75 7.5625 -0.75
v -0.75 7.5625 -0.625
v 0.6875 8.625 -0.6875
v 0.6875 8.625 -0.5625
v 0.6875 8.75 -0.6875
v -0.75 7.6875 -0.75
v -0.75 7.6875 -0.625
v 0.6875 8.75 -0.5625
v 1 4 -1.0625
v 1 4 -0.9375
v -0.9375 5.0625 -0.9375
v -0.9375 5.0625 -0.8125
v -0.9375 5.1875 -0.9375
v 1 4.125 -1.0625
v 1 4.125 -0.9375
v -0.9375 5.1875 -0.8125
v 0.9375 5.1875 -0.9375
v 0.9375 5.1875 -0.8125
v -0.8125 6.25 -0.875
v -0.8125 6.25 -0.75
v -0.8125 6.375 -0.875
v 0.9375 5.3125 -0.9375
v 0.9375 5.3125 -0.8125
v -0.8125 6.375 -0.75
v 0.8125 6.375 -0.875
v 0.8125 6.375 -0.75
v -0.75 7.4375 -0.75
v -0.75 7.4375 -0.625
v -0.75 7.5625 -0.75
v 0.8125 6.5 -0.875
v 0.8125 6.5 -0.75
v -0.75 7.5625 -0.625
v 0.75 7.5625 -0.75
v 0.75 7.5625 -0.625
v -0.6875 8.625 -0.6875
v -0.6875 8.625 -0.5625
v -0.6875 8.75 -0.6875
v 0.75 7.6875 -0.75
v 0.75 7.6875 -0.625
v -0.6875 8.75 -0.5625
v 1.0312 2.6875 1.0625
v 1.125 1.875 -1.1875
v 1.0312 2.8125 1.0625
v 1.125 2 -1.1875
v 0.9375 3.625 0.9375
v 1 2.8125 -1.0625
v 0.9375 3.75 0.9375
v 1 2.9375 -1.0625
v 1.1562 2.8125 1.0625
v 1.1562 2.6875 1.0625
v 1.25 1.875 -1.1875
v 1.25 2 -1.1875
v 1.0625 3.75 0.9375
v 1.0625 3.625 0.9375
v 1.125 2.8125 -1.0625
v 1.125 2.9375 -1.0625
v 1.125 1.75 1.1875
v 1.2188 0.9375 -1.3125
v 1.125 1.875 1.1875
v 1.2188 1.0625 -1.3125
v 1.25 1.875 1.1875
v 1.25 1.75 1.1875
v 1.3438 0.9375 -1.3125
v 1.3438 1.0625 -1.3125
v 1.125 1.75 -1.1875
v 1.2188 0.9375 1.3125
v 1.125 1.875 -1.1875
v 1.2188 1.0625 1.3125
v 1.0312 2.6875 -1.0625
v 1.125 1.875 1.1875
v 1.0312 2.8125 -1.0625
v 1.125 2 1.1875
v 0.9375 3.625 -0.9375
v 1 2.8125 1.0625
v 0.9375 3.75 -0.9375
v 1 2.9375 1.0625
v 1.25 1.875 -1.1875
v 1.25 1.75 -1.1875
v 1.3438 0.9375 1.3125
v 1.3438 1.0625 1.3125
v 1.1562 2.8125 -1.0625
v 1.1562 2.6875 -1.0625
v 1.25 1.875 1.1875
v 1.25 2 1.1875
v 1.0625 3.75 -0.9375
v 1.0625 3.625 -0.9375
v 1.125 2.8125 1.0625
v 1.125 2.9375 1.0625
v 1.0625 4 -1
v 0.9375 4 -1
v 0.9375 5.0625 0.9375
v 0.8125 5.0625 0.9375
v 0.9375 5.1875 0.9375
v 1.0625 4.125 -1
v 0.9375 4.125 -1
v 0.8125 5.1875 0.9375
v 0.9375 5.1875 -0.9375
v 0.8125 5.1875 -0.9375
v 0.875 6.25 0.8125
v 0.75 6.25 0.8125
v 0.875 6.375 0.8125
v 0.9375 5.3125 -0.9375
v 0.8125 5.3125 -0.9375
v 0.75 6.375 0.8125
v 0.875 6.375 -0.8125
v 0.75 6.375 -0.8125
v 0.75 7.4375 0.75
v 0.625 7.4375 0.75
v 0.75 7.5625 0.75
v 0.875 6.5 -0.8125
v 0.75 6.5 -0.8125
v 0.625 7.5625 0.75
v 0.75 7.5625 -0.75
v 0.625 7.5625 -0.75
v 0.6875 8.625 0.6875
v 0.5625 8.625 0.6875
v 0.6875 8.75 0.6875
v 0.75 7.6875 -0.75
v 0.625 7.6875 -0.75
v 0.5625 8.75 0.6875
v 1.0625 4 1
v 0.9375 4 1
v 0.9375 5.0625 -0.9375
v 0.8125 5.0625 -0.9375
v 0.9375 5.1875 -0.9375
v 1.0625 4.125 1
v 0.9375 4.125 1
v 0.8125 5.1875 -0.9375
v 0.9375 5.1875 0.9375
v 0.8125 5.1875 0.9375
v 0.875 6.25 -0.8125
v 0.75 6.25 -0.8125
v 0.875 6.375 -0.8125
v 0.9375 5.3125 0.9375
v 0.8125 5.3125 0.9375
v 0.75 6.375 -0.8125
v 0.875 6.375 0.8125
v 0.75 6.375 0.8125
v 0.75 7.4375 -0.75
v 0.625 7.4375 -0.75
v 0.75 7.5625 -0.75
v 0.875 6.5 0.8125
v 0.75 6.5 0.8125
v 0.625 7.5625 -0.75
v 0.75 7.5625 0.75
v 0.625 7.5625 0.75
v 0.6875 8.625 -0.6875
v 0.5625 8.625 -0.6875
v 0.6875 8.75 -0.6875
v 0.75 7.6875 0.75
v 0.625 7.6875 0.75
v 0.5625 8.75 -0.6875
v -1.0312 2.6875 -1.0625
v -1.125 1.875 1.1875
v -1.0312 2.8125 -1.0625
v -1.125 2 1.1875
v -0.9375 3.625 -0.9375
v -1 2.8125 1.0625
v -0.9375 3.75 -0.9375
v -1 2.9375 1.0625
v -1.1562 2.8125 -1.0625
v -1.1562 2.6875 -1.0625
v -1.25 1.875 1.1875
v -1.25 2 1.1875
v -1.0625 3.75 -0.9375
v -1.0625 3.625 -0.9375
v -1.125 2.8125 1.0625
v -1.125 2.9375 1.0625
v -1.125 1.75 -1.1875
v -1.2188 0.9375 1.3125
v -1.125 1.875 -1.1875
v -1.2188 1.0625 1.3125
v -1.25 1.875 -1.1875
v -1.25 1.75 -1.1875
v -1.3438 0.9375 1.3125
v -1.3438 1.0625 1.3125
v -1.125 1.75 1.1875
v -1.2188 0.9375 -1.3125
v -1.125 1.875 1.1875
v -1.2188 1.0625 -1.3125
v -1.0312 2.6875 1.0625
v -1.125 1.875 -1.1875
v -1.0312 2.8125 1.0625
v -1.125 2 -1.1875
v -0.9375 3.625 0.9375
v -1 2.8125 -1.0625
v -0.9375 3.75 0.9375
v -1 2.9375 -1.0625
v -1.25 1.875 1.1875
v -1.25 1.75 1.1875
v -1.3438 0.9375 -1.3125
v -1.3438 1.0625 -1.3125
v -1.1562 2.8125 1.0625
v -1.1562 2.6875 1.0625
v -1.25 1.875 -1.1875
v -1.25 2 -1.1875
v -1.0625 3.75 0.9375
v -1.0625 3.625 0.9375
v -1.125 2.8125 -1.0625
v -1.125 2.9375 -1.0625
v -1.0625 4 1
v -0.9375 4 1
v -0.9375 5.0625 -0.9375
v -0.8125 5.0625 -0.9375
v -0.9375 5.1875 -0.9375
v -1.0625 4.125 1
v -0.9375 4.125 1
v -0.8125 5.1875 -0.9375
v -0.9375 5.1875 0.9375
v -0.8125 5.1875 0.9375
v -0.875 6.25 -0.8125
v -0.75 6.25 -0.8125
v -0.875 6.375 -0.8125
v -0.9375 5.3125 0.9375
v -0.8125 5.3125 0.9375
v -0.75 6.375 -0.8125
v -0.875 6.375 0.8125
v -0.75 6.375 0.8125
v -0.75 7.4375 -0.75
v -0.625 7.4375 -0.75
v -0.75 7.5625 -0.75
v -0.875 6.5 0.8125
v -0.75 6.5 0.8125
v -0.625 7.5625 -0.75
v -0.75 7.5625 0.75
v -0.625 7.5625 0.75
v -0.6875 8.625 -0.6875
v -0.5625 8.625 -0.6875
v -0.6875 8.75 -0.6875
v -0.75 7.6875 0.75
v -0.625 7.6875 0.75
v -0.5625 8.75 -0.6875
v -1.0625 4 -1
v -0.9375 4 -1
v -0.9375 5.0625 0.9375
v -0.8125 5.0625 0.9375
v -0.9375 5.1875 0.9375
v -1.0625 4.125 -1
v -0.9375 4.125 -1
v -0.8125 5.1875 0.9375
v -0.9375 5.1875 -0.9375
v -0.8125 5.1875 -0.9375
v -0.875 6.25 0.8125
v -0.75 6.25 0.8125
v -0.875 6.375 0.8125
v -0.9375 5.3125 -0.9375
v -0.8125 5.3125 -0.9375
v -0.75 6.375 0.8125
v -0.875 6.375 -0.8125
v -0.75 6.375 -0.8125
v -0.75 7.4375 0.75
v -0.625 7.4375 0.75
v -0.75 7.5625 0.75
v -0.875 6.5 -0.8125
v -0.75 6.5 -0.8125
v -0.625 7.5625 0.75
v -0.75 7.5625 -0.75
v -0.625 7.5625 -0.75
v -0.6875 8.625 0.6875
v -0.5625 8.625 0.6875
v -0.6875 8.75 0.6875
v -0.75 7.6875 -0.75
v -0.625 7.6875 -0.75
v -0.5625 8.75 0.6875
v 1.25 4 -0
v -0.875 4 -0
v -1.0625 4 0.1875
v 0 4 0.875
v 0.1875 4 1.0625
v 0.875 4 -0
v 1.0625 4 -0.1875
v 0 4 -0.875
v -0.1875 4 -1.0625
v -1.25 4 -0
v 0 4 -1.25
v 0 4 1.25
v -0.1875 3.75 -1.0625
v 0 3.75 -0.875
v 1.0625 3.75 -0.1875
v 0.875 3.75 -0
v 0.1875 3.75 1.0625
v 0 3.75 0.875
v -1.0625 3.75 0.1875
v -0.875 3.75 -0
v 1.0625 1.875 1.0625
v 1.0625 1.875 -1.3125
v 1.3125 1.875 1.0625
v 1.3125 1.875 -1.3125
v 1.0625 1.875 1.3125
v 1.0625 1.875 -1.0625
v -1.0625 1.875 1.3125
v -1.0625 1.875 -1.0625
v -1.3125 1.875 1.0625
v -1.3125 1.875 -1.3125
v -1.0625 1.875 1.0625
v -1.0625 1.875 -1.3125
v -1.3125 1.875 1.3125
v 1.3125 1.875 1.3125
v -1.3125 1.875 -1.0625
v 1.3125 1.875 -1.0625
v 0.9375 6.375 0.9375
v 0.6875 6.375 0.6875
v 0.9375 6.375 0.6875
v 0.9375 6.375 -0.6875
v 0.6875 6.375 -0.6875
v 0.6875 6.375 -0.9375
v 0.9375 6.375 -0.9375
v -0.6875 6.375 0.9375
v -0.9375 6.375 0.6875
v -0.6875 6.375 0.6875
v -0.6875 6.375 -0.6875
v -0.9375 6.375 -0.6875
v -0.9375 6.375 -0.9375
v -0.6875 6.375 -0.9375
v 0 8.75 -0.875
v 0 8.75 0.875
v 0.875 8.75 -0
v -0.875 8.75 -0
v 0.25 2.5 -0.25
v -0.25 2.5 0.25
v 0.25 2.5 0.25
v -0.25 2.5 -0.25
v 0.1875 7.6875 -0.0313
v 0.25 7.6875 0.0312
v 0.25 7.6875 -0.0313
v 0.1875 7.6875 0.0312
v -0.25 7.6875 -0.0313
v -0.1875 7.6875 0.0312
v -0.1875 7.6875 -0.0313
v -0.25 7.6875 0.0312
v 0.0625 2.2812 1.0781
v 0.0625 3.2188 0.9688
v 0.0625 2.4062 1.2031
v 0.0625 3.3438 1.0938
v 0.0625 1.3438 1.1719
v 0.0625 1.4688 1.2969
v -0.0625 1.4688 1.1719
v -0.0625 2.4062 1.0781
v -0.0625 3.3438 0.9688
v -0.0625 1.3438 1.2969
v -0.0625 2.2812 1.2031
v -0.0625 3.2188 1.0938
v -0.0625 1.3438 1.1719
v -0.0625 2.2812 1.0781
v -0.0625 3.2188 0.9688
v 0.0312 4.5312 1
v 0.0312 4.6562 1
v 0.0625 5.8438 0.9062
v 0.0625 5.7188 0.9062
v 0.0312 4.5312 0.875
v 0.0625 5.7188 0.7812
v 0.0312 7.0312 0.8125
v 0.0312 6.9062 0.8125
v 0.0312 6.9062 0.6875
v 0.0312 8.2188 0.7187
v 0.0312 8.0938 0.7187
v 0.0312 8.0938 0.5937
v -0.0312 4.5312 1
v -0.0312 4.6562 1
v -0.0625 5.8438 0.9062
v -0.0625 5.7188 0.9062
v -0.0312 4.5312 0.875
v -0.0625 5.7188 0.7812
v -0.0312 7.0312 0.8125
v -0.0312 6.9062 0.8125
v -0.0312 6.9062 0.6875
v -0.0312 8.2188 0.7187
v -0.0312 8.0938 0.7187
v -0.0312 8.0938 0.5937
v -0.0625 2.2812 -1.0781
v -0.0625 3.2188 -0.9688
v -0.0625 2.4062 -1.2031
v -0.0625 3.3438 -1.0938
v -0.0625 1.3438 -1.1719
v -0.0625 1.4688 -1.2969
v 0.0625 1.4688 -1.1719
v 0.0625 2.4062 -1.0781
v 0.0625 3.3438 -0.9688
v 0.0625 1.3438 -1.2969
v 0.0625 2.2812 -1.2031
v 0.0625 3.2188 -1.0938
v 0.0625 1.3438 -1.1719
v 0.0625 2.2812 -1.0781
v 0.0625 3.2188 -0.9688
v -0.0312 4.5312 -1
v -0.0312 4.6562 -1
v -0.0625 5.8438 -0.9062
v -0.0625 5.7188 -0.9062
v -0.0312 4.5312 -0.875
v -0.0625 5.7188 -0.7812
v -0.0312 7.0312 -0.8125
v -0.0312 6.9062 -0.8125
v -0.0312 6.9062 -0.6875
v -0.0312 8.2188 -0.7188
v -0.0312 8.0938 -0.7188
v -0.0312 8.0938 -0.5938
v 0.0312 4.5312 -1
v 0.0312 4.6562 -1
v 0.0625 5.8438 -0.9062
v 0.0625 5.7188 -0.9062
v 0.0312 4.5312 -0.875
v 0.0625 5.7188 -0.7812
v 0.0312 7.0312 -0.8125
v 0.0312 6.9062 -0.8125
v 0.0312 6.9062 -0.6875
v 0.0312 8.2188 -0.7188
v 0.0312 8.0938 -0.7188
v 0.0312 8.0938 -0.5938
v 1.0781 2.2812 -0.0625
v 0.9688 3.2188 -0.0625
v 1.2031 2.4062 -0.0625
v 1.0938 3.3438 -0.0625
v 1.1719 1.3438 -0.0625
v 1.2969 1.4688 -0.0625
v 1.1719 1.4688 0.0625
v 1.0781 2.4062 0.0625
v 0.9688 3.3438 0.0625
v 1.2969 1.3438 0.0625
v 1.2031 2.2812 0.0625
v 1.0938 3.2188 0.0625
v 1.1719 1.3438 0.0625
v 1.0781 2.2812 0.0625
v 0.9688 3.2188 0.0625
v 1 4.5312 -0.0312
v 1 4.6562 -0.0312
v 0.9062 5.8437 -0.0625
v 0.9062 5.7187 -0.0625
v 0.875 4.5312 -0.0312
v 0.7812 5.7187 -0.0625
v 0.8125 7.0312 -0.0313
v 0.8125 6.9062 -0.0313
v 0.6875 6.9062 -0.0313
v 0.7188 8.2187 -0.0313
v 0.7188 8.0937 -0.0313
v 0.5938 8.0937 -0.0313
v 1 4.5312 0.0312
v 1 4.6562 0.0312
v 0.9062 5.8437 0.0625
v 0.9062 5.7187 0.0625
v 0.875 4.5312 0.0312
v 0.7812 5.7187 0.0625
v 0.8125 7.0312 0.0312
v 0.8125 6.9062 0.0312
v 0.6875 6.9062 0.0312
v 0.7188 8.2187 0.0312
v 0.7188 8.0937 0.0312
v 0.5938 8.0937 0.0312
v -1.0781 2.2812 0.0625
v -0.9688 3.2188 0.0625
v -1.2031 2.4062 0.0625
v -1.0938 3.3438 0.0625
v -1.1719 1.3438 0.0625
v -1.2969 1.4688 0.0625
v -1.1719 1.4688 -0.0625
v -1.0781 2.4062 -0.0625
v -0.9688 3.3438 -0.0625
v -1.2969 1.3438 -0.0625
v -1.2031 2.2812 -0.0625
v -1.0938 3.2188 -0.0625
v -1.1719 1.3438 -0.0625
v -1.0781 2.2812 -0.0625
v -0.9688 3.2188 -0.0625
v -1 4.5312 0.0312
v -1 4.6562 0.0312
v -0.9062 5.8437 0.0625
v -0.9062 5.7187 0.0625
v -0.875 4.5312 0.0312
v -0.7812 5.7187 0.0625
v -0.8125 7.0312 0.0312
v -0.8125 6.9062 0.0312
v -0.6875 6.9062 0.0312
v -0.7188 8.2187 0.0312
v -0.7188 8.0937 0.0312
v -0.5938 8.0937 0.0312
v -1 4.5312 -0.0312
v -1 4.6562 -0.0312
v -0.9062 5.8437 -0.0625
v -0.9062 5.7187 -0.0625
v -0.875 4.5312 -0.0312
v -0.7812 5.7187 -0.0625
v -0.8125 7.0312 -0.0313
v -0.8125 6.9062 -0.0313
v -0.6875 6.9062 -0.0313
v -0.7188 8.2187 -0.0313
v -0.7188 8.0937 -0.0313
v -0.5938 8.0937 -0.0313
v 1.25 3.75 -0
v -1.25 3.75 -0
v 0 3.75 -1.25
v 0 3.75 1.25
v 0.6875 6.375 0.9375
v -0.9375 6.375 0.9375
v 0 9 -0.875
v 0 9 0.875
v 0.875 9 -0
v -0.875 9 -0
v 0.0625 2.4062 1.0781
v 0.0625 3.3438 0.9688
v 0.0625 2.2812 1.2031
v 0.0625 3.2188 1.0938
v 0.0625 1.4688 1.1719
v 0.0625 1.3438 1.2969
v -0.0625 1.4688 1.2969
v -0.0625 2.4062 1.2031
v -0.0625 3.3438 1.0938
v 0.0312 4.6562 0.875
v 0.0625 5.8438 0.7812
v 0.0312 7.0312 0.6875
v 0.0312 8.2188 0.5937
v -0.0312 4.6562 0.875
v -0.0625 5.8438 0.7812
v -0.0312 7.0312 0.6875
v -0.0312 8.2188 0.5937
v -0.0625 2.4062 -1.0781
v -0.0625 3.3438 -0.9688
v -0.0625 2.2812 -1.2031
v -0.0625 3.2188 -1.0938
v -0.0625 1.4688 -1.1719
v -0.0625 1.3438 -1.2969
v 0.0625 1.4688 -1.2969
v 0.0625 2.4062 -1.2031
v 0.0625 3.3438 -1.0938
v -0.0312 4.6562 -0.875
v -0.0625 5.8438 -0.7812
v -0.0312 7.0312 -0.6875
v -0.0312 8.2188 -0.5938
v 0.0312 4.6562 -0.875
v 0.0625 5.8438 -0.7812
v 0.0312 7.0312 -0.6875
v 0.0312 8.2188 -0.5938
v 1.0781 2.4062 -0.0625
v 0.9688 3.3438 -0.0625
v 1.2031 2.2812 -0.0625
v 1.0938 3.2188 -0.0625
v 1.1719 1.4688 -0.0625
v 1.2969 1.3438 -0.0625
v 1.2969 1.4688 0.0625
v 1.2031 2.4062 0.0625
v 1.0938 3.3438 0.0625
v 0.875 4.6562 -0.0312
v 0.7812 5.8437 -0.0625
v 0.6875 7.0312 -0.0313
v 0.5938 8.2187 -0.0313
v 0.875 4.6562 0.0312
v 0.7812 5.8437 0.0625
v 0.6875 7.0312 0.0312
v 0.5938 8.2187 0.0312
v -1.0781 2.4062 0.0625
v -0.9688 3.3438 0.0625
v -1.2031 2.2812 0.0625
v -1.0938 3.2188 0.0625
v -1.1719 1.4688 0.0625
v -1.2969 1.3438 0.0625
v -1.2969 1.4688 -0.0625
v -1.2031 2.4062 -0.0625
v -1.0938 3.3438 -0.0625
v -0.875 4.6562 0.0312
v -0.7812 5.8437 0.0625
v -0.6875 7.0312 0.0312
v -0.5938 8.2187 0.0312
v -0.875 4.6562 -0.0312
v -0.7812 5.8437 -0.0625
v -0.6875 7.0312 -0.0313
v -0.5938 8.2187 -0.0313
v 0.9688 2.8125 0.9688
v 0.9688 2.8125 -1.2188
v 1.2188 2.8125 0.9688
v 1.2188 2.8125 -1.2188
v 0.9688 2.8125 1.2188
v 0.9688 2.8125 -0.9688
v -0.9688 2.8125 1.2188
v -0.9688 2.8125 -0.9688
v -1.2188 2.8125 0.9688
v -1.2188 2.8125 -1.2188
v -0.9688 2.8125 0.9688
v -0.9688 2.8125 -1.2188
v -1.2188 2.8125 1.2188
v 1.2188 2.8125 1.2188
v -1.2188 2.8125 -0.9688
v 1.2188 2.8125 -0.9688
v 1.0312 5.1875 1.0312
v 0.7812 5.1875 0.7812
v 1.0312 5.1875 0.7812
v 1.0312 5.1875 -0.7812
v 0.7812 5.1875 -0.7812
v 0.7812 5.1875 -1.0312
v 1.0312 5.1875 -1.0312
v -0.7812 5.1875 1.0312
v -1.0312 5.1875 0.7812
v -0.7812 5.1875 0.7812
v -0.7812 5.1875 -0.7812
v -1.0312 5.1875 -0.7812
v -1.0312 5.1875 -1.0312
v -0.7812 5.1875 -1.0312
v 0.25 3.25 -0.25
v -0.25 3.25 0.25
v 0.25 3.25 0.25
v -0.25 3.25 -0.25
v 0.1875 8.5312 -0.0313
v 0.25 8.5312 0.0312
v 0.25 8.5312 -0.0313
v 0.1875 8.5312 0.0312
v -0.25 8.5312 -0.0313
v -0.1875 8.5312 0.0312
v -0.1875 8.5312 -0.0313
v -0.25 8.5312 0.0312
v 0.25 1.75 0.25
v -0.25 1.75 0.25
v -0.8438 7.5625 0.5937
v -0.5938 7.5625 -0.5938
v -1.1562 0.9375 1.4062
v -1.4062 0.9375 -1.1562
v 0.5938 7.5625 0.8437
v 0.25 6.8438 0.0312
v 0.1875 6.8438 0.0312
v -0.5938 7.5625 0.5937
v 0.5938 7.5625 -0.8438
v -1.1562 0.9375 1.1562
v -1.4062 0.9375 -1.4062
v -0.8438 7.5625 0.8437
v -0.25 1.75 -0.25
v 0.25 6.8438 -0.0313
v -0.8438 7.5625 -0.5938
v 1.1562 0.9375 -1.4062
v 1.1562 0.9375 1.4062
v 0.25 1.75 -0.25
v 0.1875 6.8438 -0.0313
v 0.5938 7.5625 -0.5938
v -0.5938 7.5625 0.8437
v -1.1562 0.9375 -1.4062
v -1.4062 0.9375 1.1562
v -0.25 6.8438 -0.0313
v 0.8438 7.5625 0.8437
v 0.8438 7.5625 -0.8438
v -1.4062 0.9375 1.4062
v -1.1562 0.9375 -1.1562
v -0.25 6.8438 0.0312
v 0.5938 7.5625 0.5937
v 1.4062 0.9375 1.4062
v 1.1562 0.9375 1.1562
v -0.1875 6.8438 0.0312
v -0.8438 7.5625 -0.8438
v 0.8438 7.5625 -0.5938
v 1.4062 0.9375 -1.4062
v 1.4062 0.9375 1.1562
v -0.1875 6.8438 -0.0313
v -0.5938 7.5625 -0.8438
v 0.8438 7.5625 0.5937
v 1.4062 0.9375 -1.1562
v 1.1562 0.9375 -1.1562
v 0.7812 5.1875 1.0312
v -1.0312 5.1875 1.0312
vt 0.371 0.25
vt 0.3387 0.2045
vt 0.371 0.2045
vt -0 -0
vt 0.0323 0.0455
vt -0 0.0455
vt 0.5 0.25
vt 0.4677 0.2045
vt 0.5 0.2045
vt 0.9758 0.1534
vt 0.9839 0
vt 0.9839 0.1534
vt 0.4355 0.25
vt 0.8065 0.8636
vt 0.9032 0.8182
vt 0.9032 0.8636
vt 0.3065 0.2045
vt 0.3387 0.25
vt 0.3065 0.25
vt 0.2823 0.2386
vt 0.3065 0.1136
vt 0.3065 0.2727
vt 0.4435 0.0795
vt 0.5323 0.1136
vt 0.4194 0.1136
vt 0.5565 0.3068
vt 0.5323 0.4318
vt 0.5323 0.2727
vt 0.3952 0.4659
vt 0.3065 0.4318
vt 0.4194 0.4318
vt 0.5645 0.6364
vt 0.4839 0.6136
vt 0.5645 0.6136
vt 0.8387 0.6364
vt 0.7742 0.5
vt 0.8387 0.5
vt 0.4677 0.25
vt 0.4355 0.2045
vt 0.129 0.7386
vt 0.1129 0.7841
vt 0.1129 0.7386
vt 0.0887 0.7273
vt 0.0565 0.75
vt 0.0565 0.7273
vt 0.1129 0.7273
vt 0.371 0.5455
vt 0.2581 0.5
vt 0.371 0.5
vt 0.3952 0.0795
vt 0.5565 0.2386
vt 0.4435 0.4659
vt 0.2823 0.3068
vt 0.3226 1
vt 0.3387 0.8636
vt 0.3387 1
vt 0.4194 0.3864
vt 0.5565 0.6818
vt 0.4919 0.6477
vt 0.5565 0.6477
vt 0.6129 0.7273
vt 0.629 0.7727
vt 0.6129 0.7727
vt 0.0968 0.5568
vt 0.0645 0.7273
vt 0.0645 0.5568
vt 0.0323 0.5568
vt 0.0323 0.7273
vt 0.129 0.5568
vt 0.0968 0.7273
vt 0 0.5568
vt -0 0.7273
vt 0.7258 0.8636
vt 0.7823 1
vt 0.75 1
vt 0.2258 0.2159
vt 0.2581 0
vt 0.2581 0.2159
vt 0.1935 0.2159
vt 0.2258 -0
vt 0.1613 0.2159
vt 0.129 0
vt 0.1613 -0
vt 0.1935 -0
vt 0.1613 0.6477
vt 0.1935 0.8636
vt 0.1613 0.8636
vt 0.129 0.6477
vt 0.129 0.8636
vt 0.7823 0.6364
vt 0.75 0.6818
vt 0.75 0.6364
vt 0.7097 0.4545
vt 0.5806 0.2727
vt 0.7097 0.2727
vt 0.2258 1
vt 0.2419 0.8636
vt 0.2419 1
vt 0.0484 0.8636
vt 0.0645 0.9318
vt 0.0484 0.9318
vt 0.3065 0.7955
vt 0.2581 0.5455
vt 0.3065 0.6136
vt 0.4839 0.5455
vt 0.4355 0.6136
vt 0.4839 0.8636
vt 0.4355 0.7955
vt 0.2581 0.8636
vt 0.4839 0.7045
vt 0.0887 0.75
vt 0.0323 0.8295
vt 0.0484 0.7841
vt 0.0323 0.7841
vt 0.0323 0.8636
vt 0.0161 0.8295
vt 0.371 0.8636
vt 0.2581 0.7045
vt 0.3387 0.3409
vt 0.3065 0.75
vt 0.0161 0.7841
vt 0.2742 1
vt 0.2903 0.8636
vt 0.2903 1
vt 0.4194 0
vt 0.5806 0.0455
vt 0.4194 0.0455
vt 0.9919 0
vt 0.9919 0.1534
vt 0.7379 0.0227
vt 0.6129 0.0455
vt 0.6129 0.0227
vt 0.0323 0
vt 0.4677 0.1136
vt 0.7419 0.0909
vt 0.9032 0.0682
vt 0.9032 0.0909
vt 0.2192 0.9658
vt 0.1356 0.8978
vt 0.2192 0.8978
vt 0.6613 0.8864
vt 0.6371 0.8636
vt 0.6613 0.8636
vt 0.7258 0.8182
vt 0.8065 0.8182
vt 0.9677 0.6364
vt 0.9032 0.5
vt 0.9677 0.5
vt 0.5645 0.5
vt 0.4839 0.5
vt 0.5403 0.8864
vt 0.5161 0.8636
vt 0.5403 0.8636
vt 0.7742 0.6364
vt 0.7097 0.5
vt 0.6129 0.8864
vt 0.5887 0.8636
vt 0.6129 0.8636
vt 0.7097 0.8864
vt 0.6855 0.8636
vt 0.7097 0.8636
vt 0.5161 0.8864
vt 0.4919 0.8636
vt 0.746 0.0227
vt 0.8387 0.0455
vt 0.746 0.0455
vt 0.7097 0.6364
vt 0.5806 0.4545
vt 0.7097 0.0909
vt 0.5806 0.0909
vt 0.3065 0.8636
vt 0.3065 1
vt 0.6371 0.8864
vt 0.2581 1
vt 0.3548 1
vt 0.371 0.8636
vt 0.371 1
vt 0.5806 0.6364
vt 0.5645 0.6818
vt 0.5806 0.8636
vt 0.5645 0.8182
vt 0.5806 0.7955
vt 0.5645 0.7727
vt 0.5806 0.7045
vt 0.5968 0.6364
vt 0.6129 0.6818
vt 0.5968 0.7045
vt 0.6129 0.8182
vt 0.5968 0.8636
vt 0.5968 0.7955
vt 0.129 0.8523
vt 0.1129 0.8409
vt 0.129 0.8409
vt 0.7823 0.6818
vt 0.1356 0.9658
vt 0.1774 0.8638
vt 0.629 0.6364
vt 0.629 0.6818
vt 0.629 0.8182
vt 0.629 0.8636
vt 0.0565 0.8636
vt 0.0484 0.8295
vt 0.0565 0.8409
vt 0.0968 0.9318
vt 0.0806 0.8409
vt 0.0968 0.8409
vt 0.1129 0.7955
vt 0.129 0.7955
vt 0.129 0.7841
vt 0.0565 0.7727
vt 0.0887 0.7727
vt 0.0968 0.7841
vt 0.7419 0.0682
vt 0.7419 0.0455
vt 0.0645 0.8636
vt 0.0806 0.9318
vt 0.1129 0.8068
vt 0.0161 0.75
vt 0.3226 0.8636
vt 0.9677 0.1534
vt 0.9758 0
vt 1 0
vt 1 0.1534
vt 0.5968 0.0682
vt 0.7419 0.0227
vt 0.871 0.0455
vt 0.8871 0.0455
vt 0.871 0.0682
vt 0.871 0.0909
vt 0.5968 -0
vt 0.7419 0
vt 0.6129 0
vt 0.8871 0.0682
vt 0.9032 0.0455
vt 0.5806 0.0682
vt 0.5806 0.0227
vt 0.5806 -0
vt 0.8871 0.0909
vt 0.5968 0.0455
vt 0.5968 0.0227
vt 0.6129 0.0682
vt 0.0161 0.875
vt 0.0323 0.875
vt 0.7379 0.0682
vt 0.7379 0.0455
vt 0.8629 0
vt 0.8629 0.0227
vt 0.7379 0.0909
vt 0.8629 0.0682
vt 0.8629 0.0909
vt 0.8548 0
vt 0.8548 0.0227
vt 0.8548 0.0909
vt 0.629 0.0455
vt 0.629 0.0227
vt 0.746 0.0227
vt 0.8468 0
vt 0.8468 0.0227
vt 0.746 0.0682
vt 0.8468 0.0909
vt 0.746 0.0909
vt 0.6452 0.0455
vt 0.6452 0.0227
vt 0.6532 0.0682
vt 0.6532 0.0455
vt 0.746 0.0682
vt 0.8387 0.0909
vt 0.746 0.0909
vt 0.7379 0
vt 0.8548 0.0455
vt 0.746 0.0455
vt 0.6452 0.0682
vt 0.746 0
vt 0.8387 0.0227
vt 0.8387 -0
vt 0.6532 0.0227
vt 0.8387 0.0682
vt 0.8629 0.0455
vt 0.629 0.0682
vt 0.8548 0.0682
vt 0.8468 0.0455
vt 0.746 0
vt 0.8468 0.0682
vt 0.9677 0.4602
vt 0.9758 0.3068
vt 0.9758 0.4602
vt 0.0968 0.3864
vt 0.0645 0.3864
vt 0.129 0.3864
vt 0.8387 0.3636
vt 0.7742 0.2273
vt 0.8387 0.2273
vt 0.2258 0.6477
vt 0.2258 0.8636
vt 0 0.3864
vt 0.2581 0.2727
vt 0.2581 0.0455
vt 0.5806 0.2727
vt 0.5806 0.5
vt 0.4194 0.5
vt 0.129 0.4318
vt 0.1935 0.4318
vt 0.129 0.0455
vt 0.0968 0.2159
vt 0.0968 0.0455
vt 0.0645 0.2159
vt 0.2258 0.4318
vt 0.2581 0.4318
vt 0.9839 0.3068
vt 0.9032 0.3636
vt 0.629 0.0909
vt 0.629 0
vt 0.6452 0
vt 0.1613 0.4318
vt 0.6452 0.0909
vt 0.8871 -0
vt 0.871 0.0227
vt 0.871 0
vt 0.9919 0.6136
vt 1 0.4602
vt 1 0.6136
vt 0.2581 0.6477
vt 0.129 0.2159
vt 0 0.2159
vt 0.0323 0.3864
vt 0.4677 0.1591
vt 0.3387 0.1591
vt 0.3387 0.1136
vt 0.0323 0.2159
vt 0.129 0.2159
vt 0.3387 0.2955
vt 0.4677 0.2955
vt 0.4677 0.3409
vt 0.6532 0.0909
vt 0.1774 0.9999
vt 0.1533 0.9907
vt 0.1291 0.9318
vt 0.1533 0.8729
vt 0.2016 0.8729
vt 0.2257 0.9318
vt 0.2016 0.9907
vt 0.5968 0.0909
vt 0.2016 0.9907
vt 0.1935 0.6477
vt 0.9919 0.3068
vt 0.9677 0.3068
vt 0.7742 0.3636
vt 0.5645 0.8636
vt 0.5645 0.7273
vt 0.9032 0.2273
vt 0.9839 0.6136
vt 0.9919 0.4602
vt 0.6129 0.6364
vt 1 0.3068
vt 0.9677 0.2273
vt 0.9677 0.0909
vt 0.6532 0
vt 0.9758 0.6136
vt 0.9839 0.4602
vt 0.3065 0.3864
vt 0.0645 0.0455
vt 0.6129 0.0909
vt 0.9032 0.0227
vt 0.9032 0
vt 0.7097 0.3636
vt 0.7097 0.2273
vt 0.8871 0.0227
vt 0.9677 0.3636
vt 0.5887 0.8864
vt 0.4435 0.8636
vt 0.4194 0.8864
vt 0.4194 0.8636
vt 0.1129 0.8864
vt 0.1129 0.8523
vt 0.4677 0.8864
vt 0.4677 0.8636
vt 0.6855 0.8864
vt 0.5645 0.8864
vt 0.4919 0.8864
vt 0.9032 0.6364
vt 0.3871 0.8636
vt 0.3871 1
vt 0.4032 0.8636
vt 0.4032 1
vt 0.5565 0.7727
vt 0.4919 0.6818
vt 0.3548 0.8636
vt 0.2742 0.8636
vt 0.4194 1
vt 0.9677 0.6136
vt 0.7742 0.0909
vt 0.4839 0.6364
vt 0.129 0.7273
vt 0.5323 0.3864
vt 0.629 0.7273
vt 0.1129 0.75
vt 0.0161 0.8636
vt 0.4355 0.75
vt 0.0968 0.8068
vt 0.0323 0.75
vt 0.9677 0
vt 0.4435 0.8864
vt 0.129 0.8864
vt 0.4919 0.7727
s 1
f 127/1 119/2 121/3
f 36/4 33/5 35/6
f 124/7 120/8 118/9
f 1117/10 262/11 1121/12
f 116/3 109/13 110/1
f 224/14 219/15 220/16
f 112/17 108/18 106/19
f 747/20 14/21 746/22
f 749/23 15/24 748/25
f 751/26 16/27 750/28
f 753/29 13/30 752/31
f 191/32 186/33 187/34
f 183/35 1076/36 1077/37
f 126/38 122/39 120/8
f 228/40 225/41 226/42
f 250/43 247/44 248/45
f 230/46 228/40 226/42
f 973/47 92/48 795/49
f 757/50 24/24 758/25
f 759/51 23/27 760/28
f 761/52 22/30 762/31
f 763/53 21/21 764/22
f 165/54 164/55 176/56
f 764/57 13/27 746/31
f 200/58 195/59 196/60
f 214/61 212/62 216/63
f 1051/64 63/65 1057/66
f 1059/64 72/65 1054/66
f 1049/67 57/65 59/68
f 1055/69 61/70 1051/64
f 1050/71 65/68 67/72
f 1046/64 66/65 1048/66
f 1052/71 70/68 69/72
f 1053/67 63/65 64/68
f 1050/69 68/70 1046/64
f 1055/71 64/68 62/72
f 1056/67 72/65 70/68
f 1045/71 59/68 60/72
f 221/73 220/74 217/75
f 1052/69 71/70 1059/64
f 1060/67 66/65 65/68
f 1045/69 58/70 1047/64
f 1063/76 85/77 1062/78
f 1132/79 84/80 1068/76
f 1067/79 77/80 1066/76
f 1064/81 78/82 80/83
f 1047/64 57/65 1058/66
f 1069/81 83/82 81/83
f 1067/79 80/83 79/84
f 1089/85 47/86 48/87
f 1066/76 78/77 1065/78
f 1072/76 76/77 1071/78
f 1061/79 87/80 1063/76
f 1073/79 75/83 73/84
f 1068/76 83/77 1070/78
f 1118/88 43/87 44/89
f 1073/79 74/80 1072/76
f 1061/79 86/83 88/84
f 220/90 218/91 217/92
f 6/93 3/94 1/95
f 171/96 158/97 170/98
f 242/99 239/100 240/101
f 758/57 16/27 752/31
f 93/102 98/103 94/104
f 94/104 99/105 95/106
f 95/106 100/107 96/108
f 96/108 97/109 93/102
f 104/106 797/110 90/107
f 252/46 249/111 250/43
f 244/112 231/113 246/114
f 319/115 244/116 243/112
f 91/103 104/106 101/104
f 103/108 796/117 89/109
f 102/102 798/118 91/103
f 128/13 123/119 127/1
f 102/120 93/108 94/102
f 246/121 243/112 244/116
f 168/122 155/123 167/124
f 967/125 12/126 745/127
f 1121/12 264/128 1126/129
f 916/130 606/131 601/132
f 115/39 107/38 109/13
f 1094/12 256/128 1102/129
f 28/6 25/133 27/5
f 128/13 121/3 122/39
f 760/57 15/27 750/31
f 109/13 106/119 110/1
f 116/3 111/134 115/39
f 854/135 428/136 426/137
f 395/138 389/139 393/140
f 5/93 4/94 3/95
f 149/141 138/142 137/143
f 224/14 222/144 223/145
f 181/146 1075/147 1078/148
f 188/149 186/33 185/150
f 141/151 131/152 130/153
f 196/59 189/32 193/60
f 182/154 1078/155 1076/36
f 151/156 140/157 139/158
f 147/159 136/160 135/161
f 192/32 187/33 188/34
f 143/162 132/163 131/152
f 195/59 192/32 196/60
f 953/164 710/165 952/166
f 194/59 191/32 195/60
f 8/167 6/168 7/93
f 969/125 11/126 755/127
f 4/169 1/94 3/170
f 167/124 154/171 166/172
f 406/173 395/158 394/142
f 170/98 157/109 169/174
f 175/175 162/176 174/177
f 201/178 210/179 209/32
f 203/180 212/181 205/182
f 212/183 206/184 205/182
f 762/57 14/27 748/31
f 104/120 95/108 96/102
f 202/185 214/186 207/187
f 216/188 204/189 208/190
f 207/187 216/63 208/190
f 318/191 233/192 234/193
f 40/133 37/6 39/4
f 223/145 218/91 219/194
f 401/140 407/195 403/196
f 214/186 209/197 210/198
f 215/158 212/199 211/200
f 207/187 201/178 202/185
f 8/93 2/94 4/95
f 976/47 91/48 798/49
f 975/47 90/48 797/49
f 319/201 233/202 317/203
f 245/114 233/202 243/112
f 238/204 235/205 236/206
f 244/112 318/203 234/202
f 234/193 229/207 231/208
f 231/208 225/41 227/209
f 249/111 225/210 247/44
f 970/125 10/126 756/127
f 114/2 110/1 108/18
f 252/41 228/211 232/212
f 103/120 94/108 95/102
f 248/44 231/113 227/210
f 995/213 421/131 853/214
f 101/120 96/108 93/102
f 242/215 238/216 236/205
f 249/111 230/212 226/211
f 248/44 228/211 250/111
f 245/114 225/210 229/113
f 252/217 230/212 251/41
f 248/218 245/114 246/121
f 237/216 241/215 235/205
f 199/58 194/59 195/60
f 32/5 29/4 31/133
f 1095/10 254/11 1094/12
f 166/172 153/219 165/54
f 1107/220 253/221 1095/10
f 125/18 117/17 119/2
f 7/93 1/94 2/95
f 1126/129 263/222 1112/223
f 902/135 552/224 896/213
f 997/225 424/226 853/214
f 1013/225 532/227 891/214
f 851/135 416/228 414/229
f 899/225 550/230 902/231
f 812/231 282/132 273/232
f 818/213 309/227 299/233
f 819/213 313/226 303/228
f 982/225 292/234 816/214
f 823/135 296/235 817/213
f 893/231 542/236 537/237
f 820/225 294/237 823/231
f 820/225 308/126 307/236
f 889/135 524/233 522/238
f 121/3 118/134 122/39
f 937/225 672/126 671/236
f 938/225 676/239 675/240
f 825/135 304/241 819/213
f 932/231 654/236 649/237
f 1028/213 641/239 930/214
f 1029/213 645/131 931/214
f 817/213 305/234 295/136
f 928/231 642/240 633/230
f 936/213 677/226 667/228
f 189/32 188/33 185/34
f 242/215 318/203 320/201
f 241/215 317/203 235/205
f 242/242 319/115 241/243
f 1037/244 685/131 944/245
f 826/130 322/246 321/247
f 830/248 327/249 322/250
f 829/225 330/251 329/252
f 946/225 690/251 689/252
f 877/130 494/131 489/132
f 1008/213 500/253 882/135
f 841/225 366/254 361/255
f 833/256 338/257 337/258
f 950/256 698/257 697/258
f 1043/259 732/260 963/261
f 923/256 622/262 617/263
f 847/166 383/264 382/265
f 1006/266 485/265 874/166
f 1027/266 628/267 927/268
f 836/164 350/165 835/166
f 943/130 682/246 681/247
f 842/269 355/247 838/130
f 1007/244 492/250 881/248
f 843/231 363/252 841/225
f 1004/213 469/254 867/214
f 869/248 463/249 458/250
f 829/225 334/270 828/214
f 880/225 502/254 497/255
f 1005/259 477/262 871/271
f 844/271 375/272 374/262
f 992/259 372/260 846/261
f 1009/259 508/260 885/261
f 966/273 739/274 965/164
f 836/164 346/275 345/274
f 965/164 742/265 737/276
f 954/268 711/277 706/267
f 139/138 133/139 137/140
f 149/139 143/138 151/195
f 863/135 440/224 857/213
f 942/135 668/241 936/213
f 899/225 564/239 563/240
f 903/135 556/241 897/213
f 896/213 561/227 551/233
f 1012/213 533/131 892/214
f 1011/213 529/239 891/214
f 897/213 565/226 555/228
f 893/135 540/136 538/137
f 859/225 448/126 447/236
f 856/213 445/234 435/136
f 998/213 429/126 855/214
f 815/135 288/136 286/137
f 821/225 312/239 311/240
f 890/135 528/228 526/229
f 1033/225 656/234 933/214
f 941/135 664/224 935/213
f 812/135 276/228 274/229
f 859/225 434/237 862/231
f 860/225 438/230 863/231
f 861/225 442/232 864/231
f 850/231 418/240 409/230
f 904/130 570/246 569/247
f 1021/213 581/254 906/214
f 1003/244 461/131 866/245
f 881/269 491/247 877/130
f 826/130 326/278 827/245
f 868/225 466/251 465/252
f 879/214 503/279 502/254
f 838/130 358/131 353/132
f 831/135 335/280 330/253
f 958/225 726/254 721/255
f 872/256 474/257 473/258
f 883/271 511/272 510/262
f 1026/259 620/260 924/261
f 950/256 702/281 949/271
f 875/164 482/275 481/274
f 886/166 519/264 518/265
f 887/164 518/265 513/276
f 848/164 382/265 377/276
f 878/245 495/241 494/131
f 911/256 586/257 585/258
f 943/130 686/278 944/245
f 882/231 499/252 880/225
f 914/164 594/275 593/274
f 865/130 462/278 866/245
f 948/135 695/280 690/253
f 909/135 583/280 578/253
f 885/282 507/258 884/256
f 1074/81 76/82 75/83
f 845/256 374/262 369/263
f 912/261 591/283 586/260
f 888/273 515/274 887/164
f 981/213 289/126 816/214
f 1083/284 810/285 1086/286
f 1044/266 740/267 966/268
f 1014/225 536/226 892/214
f 929/135 640/228 638/229
f 811/135 272/233 270/238
f 1031/225 648/226 931/214
f 889/231 530/240 521/230
f 890/231 534/132 525/232
f 994/213 417/239 852/214
f 851/231 422/132 413/232
f 898/225 560/126 559/236
f 996/225 420/227 852/214
f 898/225 546/237 901/231
f 1015/213 541/126 894/214
f 999/225 432/234 855/214
f 860/225 452/239 451/240
f 939/225 680/131 679/132
f 862/135 436/235 856/213
f 850/135 412/233 410/238
f 861/225 456/131 455/132
f 815/231 290/236 285/237
f 977/213 277/239 813/214
f 900/225 554/232 903/231
f 895/213 557/234 547/136
f 811/231 278/240 269/230
f 978/213 281/131 814/214
f 917/245 607/241 606/131
f 986/244 325/131 827/245
f 919/225 614/254 609/255
f 907/225 578/251 577/252
f 921/231 611/252 919/225
f 990/244 356/250 842/248
f 962/256 734/262 729/263
f 991/213 364/253 843/135
f 924/282 619/258 923/256
f 1022/259 589/262 910/271
f 884/256 510/262 505/263
f 833/256 342/281 832/271
f 927/273 627/274 926/164
f 1023/266 597/265 913/166
f 876/268 487/277 482/267
f 993/266 380/267 849/268
f 1020/244 573/131 905/245
f 920/269 603/247 916/130
f 1041/244 716/250 959/248
f 987/213 333/254 828/214
f 918/214 615/279 614/254
f 955/130 718/131 713/132
f 870/135 471/280 466/253
f 907/225 582/270 906/214
f 988/259 341/262 832/271
f 922/271 623/272 622/262
f 911/256 590/281 910/271
f 193/59 190/32 194/60
f 953/164 706/275 705/274
f 925/166 631/264 630/265
f 915/268 599/277 594/267
f 875/164 486/165 874/166
f 824/135 300/224 818/213
f 822/225 316/131 315/132
f 928/135 636/233 634/238
f 980/225 284/226 814/214
f 821/225 298/230 824/231
f 929/231 646/132 637/232
f 935/213 673/227 663/233
f 822/225 302/232 825/231
f 1016/225 544/234 894/214
f 940/135 660/235 934/213
f 934/213 669/234 659/136
f 1032/213 653/126 933/214
f 932/135 652/136 650/137
f 1030/225 644/227 930/214
f 900/225 568/131 567/132
f 901/135 548/235 895/213
f 979/225 280/227 813/214
f 864/135 444/241 858/213
f 937/225 658/237 940/231
f 938/225 662/230 941/231
f 939/225 666/232 942/231
f 854/231 430/236 425/237
f 857/213 449/227 439/233
f 858/213 453/226 443/228
f 865/130 458/246 457/247
f 956/245 719/241 718/131
f 904/130 574/278 905/245
f 960/231 723/252 958/225
f 1038/213 693/254 945/214
f 908/248 575/249 570/250
f 868/225 470/270 867/214
f 1042/213 724/253 960/135
f 961/271 735/272 734/262
f 1039/259 701/262 949/271
f 951/261 703/283 698/260
f 872/256 478/281 871/271
f 989/266 349/265 835/166
f 1040/266 709/265 952/166
f 926/164 630/265 625/276
f 914/164 598/165 913/166
f 839/245 359/241 358/131
f 959/269 715/247 955/130
f 947/248 687/249 682/250
f 840/214 367/279 366/254
f 957/214 727/279 726/254
f 1024/244 604/250 920/248
f 946/225 694/270 945/214
f 1025/213 612/253 921/135
f 963/282 731/258 962/256
f 846/282 371/258 845/256
f 834/261 343/283 338/260
f 873/261 479/283 474/260
f 849/273 379/274 848/164
f 964/166 743/264 742/265
f 1010/266 516/267 888/268
f 837/268 351/277 346/267
f 771/287 1057/66 777/288
f 127/1 125/18 119/2
f 767/287 1058/66 778/288
f 772/289 1059/64 779/287
f 801/290 1088/291 1087/292
f 41/86 1128/293 42/294
f 775/295 1053/67 1055/71
f 747/20 754/296 9/297
f 749/23 756/127 10/126
f 751/26 745/298 12/299
f 753/29 755/300 11/48
f 782/301 1093/85 1118/88
f 787/302 1064/81 1067/79
f 772/295 1056/67 1052/71
f 37/303 1092/304 39/305
f 1104/304 768/288 1124/306
f 15/24 751/26 750/28
f 81/83 1132/79 1069/81
f 969/127 24/24 757/50
f 967/298 23/27 759/51
f 970/300 22/30 761/52
f 968/296 21/21 763/53
f 783/307 1062/78 782/308
f 766/287 1048/66 768/288
f 810/285 1121/12 808/309
f 1075/147 801/290 799/310
f 371/258 844/271 845/256
f 692/311 1038/213 948/135
f 379/274 847/166 848/164
f 683/132 944/245 685/131
f 493/278 1007/244 878/245
f 587/263 912/282 911/256
f 498/312 880/225 497/255
f 595/276 915/273 914/164
f 459/132 866/245 461/131
f 580/311 1021/213 909/135
f 506/313 884/256 505/263
f 1127/85 791/301 794/314
f 588/315 1022/259 912/261
f 483/276 876/273 875/164
f 517/165 1010/266 886/166
f 515/274 886/166 887/164
f 410/316 996/225 850/231
f 332/311 987/213 831/135
f 571/132 908/269 904/130
f 623/272 924/261 618/315
f 699/263 949/271 701/262
f 475/263 873/282 872/256
f 583/280 906/214 582/270
f 463/249 866/245 462/278
f 723/252 957/214 958/225
f 490/232 877/130 489/132
f 509/281 1009/259 883/271
f 467/255 870/231 868/225
f 323/132 827/245 325/131
f 355/247 839/245 838/130
f 501/270 1008/213 879/214
f 454/317 864/231 441/318
f 268/319 1083/320 267/321
f 52/294 1108/322 51/109
f 55/294 1090/322 53/109
f 761/52 23/27 18/299
f 14/21 749/23 748/25
f 93/102 976/118 98/103
f 94/104 974/47 99/105
f 95/106 975/110 100/107
f 96/108 973/117 97/109
f 90/107 103/108 104/106
f 1098/323 771/287 1091/304
f 1120/324 769/325 765/295
f 1098/324 773/325 775/295
f 795/47 104/106 91/103
f 89/109 102/102 103/108
f 91/103 101/104 102/102
f 118/134 120/326 122/39
f 707/276 954/273 953/164
f 121/3 119/327 117/328
f 1105/329 778/288 769/325
f 97/105 795/49 91/150
f 48/87 1096/88 1089/85
f 770/289 1046/64 766/287
f 776/325 1054/66 1056/67
f 111/134 113/326 115/39
f 483/276 874/166 485/265
f 116/3 114/327 112/328
f 773/325 1057/66 1053/67
f 769/325 1058/66 1049/67
f 765/289 1047/64 767/287
f 779/287 1054/66 774/288
f 789/314 1070/330 1069/81
f 123/119 125/331 127/1
f 629/165 1027/266 925/166
f 128/13 126/332 124/333
f 106/119 108/331 110/1
f 596/334 1023/266 915/268
f 109/13 107/332 105/333
f 129/335 130/336 131/195
f 131/195 132/337 133/139
f 133/139 134/338 135/196
f 135/196 136/339 133/139
f 136/339 137/140 133/139
f 137/140 138/340 139/138
f 139/138 140/341 129/335
f 129/335 131/195 133/139
f 269/342 977/213 811/135
f 143/138 141/343 142/335
f 142/335 152/336 143/138
f 152/336 151/195 143/138
f 151/195 150/337 149/139
f 149/139 148/338 147/196
f 147/196 146/339 145/140
f 145/140 144/340 143/138
f 534/132 892/214 533/131
f 147/196 145/140 143/138
f 784/314 1065/330 1064/81
f 792/307 1071/78 791/308
f 786/307 1065/78 785/308
f 789/314 1100/344 1089/85
f 787/302 1066/76 786/307
f 808/309 1126/129 809/345
f 340/315 988/259 834/261
f 781/302 1131/81 1061/79
f 54/87 1090/88 1127/85
f 803/346 1095/10 806/285
f 793/302 1072/76 792/307
f 793/302 1074/81 1073/79
f 730/313 962/256 729/263
f 476/315 1005/259 873/261
f 370/313 845/256 369/263
f 36/4 34/133 33/5
f 35/303 1104/304 36/305
f 1077/37 800/347 801/290
f 749/23 10/126 15/24
f 49/87 1108/88 1123/85
f 45/294 1096/322 46/109
f 32/5 1115/306 1111/329
f 201/178 206/184 210/179
f 203/180 211/348 212/181
f 212/183 210/349 206/184
f 1106/350 179/267 180/137
f 258/351 1081/352 260/319
f 202/185 213/353 214/186
f 216/188 215/158 204/189
f 207/187 214/61 216/63
f 805/345 1107/223 803/354
f 1101/355 180/137 177/356
f 514/357 887/164 513/276
f 288/136 816/214 292/234
f 56/86 1127/85 1122/344
f 257/358 1080/359 258/351
f 38/5 1099/306 1110/329
f 16/27 753/29 752/31
f 13/30 747/20 746/22
f 759/51 24/24 20/126
f 319/201 243/112 233/202
f 22/360 746/31 14/30
f 763/53 22/30 17/48
f 244/112 320/201 318/203
f 757/50 21/21 19/297
f 1086/286 808/309 1084/359
f 1116/324 776/325 772/295
f 1130/324 780/325 770/295
f 1092/304 774/288 1099/306
f 252/41 250/111 228/211
f 1130/323 766/287 1104/304
f 248/44 246/114 231/113
f 1116/323 779/287 1092/304
f 1110/329 774/288 776/325
f 242/215 240/100 238/216
f 249/111 251/41 230/212
f 1111/329 777/288 773/325
f 245/114 247/44 225/210
f 1091/304 777/288 1115/306
f 807/346 1117/10 810/285
f 237/216 239/100 241/215
f 39/305 1099/306 40/361
f 770/295 1060/67 1050/71
f 775/289 1051/64 771/287
f 1117/10 261/221 262/11
f 116/3 115/39 109/13
f 780/325 1048/66 1060/67
f 765/295 1049/67 1045/71
f 224/14 223/145 219/15
f 579/255 909/231 907/225
f 719/241 959/248 714/362
f 327/249 827/245 326/278
f 599/277 913/166 598/165
f 699/263 951/282 950/256
f 1125/304 778/288 1119/306
f 619/258 922/271 923/256
f 1089/85 790/301 789/314
f 414/318 997/225 851/231
f 558/363 1017/214 898/225
f 306/363 823/231 293/364
f 301/229 819/213 303/228
f 418/240 852/214 417/239
f 591/283 910/271 590/281
f 587/263 910/271 589/262
f 558/363 901/231 545/364
f 276/228 814/214 284/226
f 621/281 1026/259 922/271
f 636/233 930/214 644/227
f 381/165 993/266 847/166
f 1114/344 784/314 787/302
f 650/364 1033/225 932/231
f 631/264 927/268 626/334
f 1103/293 791/308 1090/322
f 806/285 1094/12 804/309
f 242/215 236/205 318/203
f 241/215 319/201 317/203
f 1076/36 802/365 800/347
f 373/281 992/259 844/271
f 479/283 871/271 478/281
f 652/136 933/214 656/234
f 1084/359 809/345 1085/352
f 603/247 917/245 916/130
f 649/170 1032/213 932/135
f 444/241 1002/214 858/213
f 426/364 999/225 854/231
f 537/170 1015/213 893/135
f 446/363 1000/214 859/225
f 714/232 955/130 713/132
f 703/283 949/271 702/281
f 422/132 853/214 421/131
f 300/224 984/214 818/213
f 19/77 754/127 11/297
f 17/48 968/296 763/53
f 739/274 964/166 965/164
f 347/276 837/273 836/164
f 542/236 894/214 541/126
f 800/347 1101/366 1088/291
f 707/276 952/166 709/265
f 664/224 1035/214 935/213
f 440/224 1001/214 857/213
f 571/132 905/245 573/131
f 654/236 933/214 653/126
f 525/362 1012/213 890/135
f 711/277 952/166 710/165
f 627/274 925/166 926/164
f 530/240 891/214 529/239
f 274/318 980/225 812/231
f 16/27 755/300 753/29
f 348/334 989/266 837/268
f 385/335 386/336 387/195
f 387/195 388/337 389/139
f 389/139 390/338 391/196
f 391/196 392/339 389/139
f 392/339 393/140 389/139
f 393/140 394/340 395/138
f 395/138 396/341 385/335
f 385/335 387/195 389/139
f 637/362 1029/213 929/135
f 399/138 397/343 398/335
f 398/335 408/336 399/138
f 408/336 407/195 399/138
f 407/195 406/337 405/139
f 405/139 404/338 403/196
f 403/196 402/339 401/140
f 401/140 400/340 399/138
f 407/195 405/139 403/196
f 743/264 966/268 738/334
f 548/235 1017/214 895/213
f 484/334 1006/266 876/268
f 272/233 813/214 280/227
f 335/280 828/214 334/270
f 363/252 840/214 841/225
f 1129/329 768/288 780/325
f 691/255 948/231 946/225
f 1100/344 788/307 1109/293
f 646/132 931/214 645/131
f 450/367 1001/214 860/225
f 323/132 830/269 826/130
f 687/249 944/245 686/278
f 412/233 852/214 420/227
f 270/316 979/225 811/231
f 468/311 1004/213 870/135
f 678/317 1036/214 939/225
f 359/241 842/248 354/362
f 602/232 916/130 601/132
f 324/362 986/244 830/248
f 495/241 881/248 490/362
f 1109/293 790/308 1096/322
f 331/255 831/231 829/225
f 362/312 841/225 361/255
f 1062/330 971/314 782/301
f 437/238 857/213 439/233
f 665/229 936/213 667/228
f 660/235 1034/214 934/213
f 20/77 755/127 12/297
f 23/360 748/31 15/30
f 314/317 825/231 301/318
f 678/317 942/231 665/318
f 441/229 858/213 443/228
f 661/238 935/213 663/233
f 273/362 978/213 812/135
f 691/255 945/214 693/254
f 365/270 991/213 840/214
f 304/241 985/214 819/213
f 290/236 816/214 289/126
f 99/105 796/49 90/150
f 15/24 745/298 751/26
f 562/367 1018/214 899/225
f 553/229 897/213 555/228
f 642/240 930/214 641/239
f 98/105 798/49 89/150
f 100/105 797/49 92/150
f 657/137 934/213 659/136
f 722/312 958/225 721/255
f 459/132 869/269 865/130
f 446/363 862/231 433/364
f 450/367 863/231 437/316
f 351/277 835/166 350/165
f 595/276 913/166 597/265
f 293/137 817/213 295/136
f 538/364 1016/225 893/231
f 1081/352 803/354 1079/320
f 20/126 967/298 759/51
f 507/258 883/271 884/256
f 579/255 906/214 581/254
f 611/252 918/214 919/225
f 339/263 832/271 341/262
f 491/247 878/245 877/130
f 1120/323 767/287 1125/304
f 503/279 882/135 498/311
f 1128/293 782/308 1118/322
f 522/316 1013/225 889/231
f 286/364 982/225 815/231
f 521/342 1011/213 889/135
f 306/363 983/214 820/225
f 430/236 855/214 429/126
f 610/312 919/225 609/255
f 613/270 1025/213 918/214
f 526/318 1014/225 890/231
f 566/317 903/231 553/318
f 575/249 905/245 574/278
f 674/367 1035/214 938/225
f 339/263 834/282 833/256
f 1114/344 786/307 1097/293
f 670/363 1034/214 937/225
f 735/272 963/261 730/315
f 1123/85 785/301 784/314
f 471/280 867/214 470/270
f 499/252 879/214 880/225
f 545/137 895/213 547/136
f 1122/344 792/307 1103/293
f 1113/344 971/314 781/302
f 638/318 1031/225 929/231
f 727/279 960/135 722/311
f 717/278 1041/244 956/245
f 528/228 892/214 536/226
f 552/224 1018/214 896/213
f 475/263 871/271 477/262
f 357/278 990/244 839/245
f 416/228 853/214 424/226
f 17/77 756/127 9/297
f 14/21 756/127 749/23
f 519/264 888/268 514/334
f 331/255 828/214 333/254
f 460/362 1003/244 869/248
f 297/238 818/213 299/233
f 18/77 745/127 10/297
f 21/360 752/31 13/30
f 633/342 1028/213 928/135
f 278/240 813/214 277/239
f 467/255 867/214 469/254
f 556/241 1019/214 897/213
f 524/233 891/214 532/227
f 700/315 1039/259 951/261
f 615/279 921/135 610/311
f 1079/284 806/285 1082/286
f 1082/286 804/309 1080/359
f 741/165 1044/266 964/166
f 799/310 1087/292 1106/350
f 618/313 923/256 617/263
f 343/283 832/271 342/281
f 367/279 843/135 362/311
f 626/357 926/164 625/276
f 487/277 874/166 486/165
f 1069/81 972/302 789/314
f 347/276 835/166 349/265
f 1097/293 785/308 1108/322
f 454/317 1002/214 861/225
f 433/137 856/213 435/136
f 296/235 983/214 817/213
f 640/228 931/214 648/226
f 409/342 994/213 850/135
f 731/258 961/271 962/256
f 383/264 849/268 378/334
f 540/136 894/214 544/234
f 605/278 1024/244 917/245
f 715/247 956/245 955/130
f 634/316 1030/225 928/231
f 683/132 947/269 943/130
f 1113/344 783/307 1128/293
f 668/241 1036/214 936/213
f 354/232 838/130 353/132
f 1122/344 794/314 793/302
f 708/334 1040/266 954/268
f 375/272 846/261 370/315
f 566/317 1019/214 900/225
f 24/360 750/31 16/30
f 1080/359 805/345 1081/352
f 310/367 824/231 297/316
f 674/367 941/231 661/316
f 695/280 945/214 694/270
f 428/136 855/214 432/234
f 436/235 1000/214 856/213
f 725/270 1042/213 957/214
f 607/241 920/248 602/362
f 549/238 896/213 551/233
f 1085/352 807/354 1083/320
f 378/357 848/164 377/276
f 13/30 754/296 747/20
f 738/357 965/164 737/276
f 511/272 885/261 506/315
f 282/132 814/214 281/131
f 802/368 1106/350 1101/355
f 425/170 998/213 854/135
f 314/317 985/214 822/225
f 670/363 940/231 657/364
f 572/362 1020/244 908/248
f 285/170 981/213 815/135
f 310/367 984/214 821/225
f 733/281 1043/259 961/271
f 684/362 1037/244 947/248
f 562/367 902/231 549/316
f 413/362 995/213 851/135
f 19/297 969/127 757/50
f 18/299 970/300 761/52
f 150/173 139/158 138/142
f 968/125 9/126 754/127
f 152/369 129/348 140/157
f 134/370 147/371 135/372
f 318/191 235/373 317/374
f 145/375 134/370 133/376
f 190/32 185/33 186/34
f 397/151 387/152 386/153
f 148/377 137/143 136/160
f 142/378 130/153 129/348
f 144/379 133/376 132/163
f 197/58 196/59 193/60
f 184/380 1077/37 1075/147
f 399/162 388/163 387/152
f 113/8 105/7 107/38
f 404/377 393/143 392/160
f 974/47 89/48 796/49
f 174/177 161/381 173/382
f 1102/129 255/222 1107/223
f 205/182 204/189 203/180
f 173/382 160/383 172/384
f 200/385 198/386 199/58
f 398/378 386/153 385/348
f 176/56 163/387 175/175
f 169/174 156/388 168/122
f 1112/220 261/221 1117/10
f 407/156 396/157 395/158
f 208/190 206/184 207/187
f 222/144 217/200 218/199
f 400/379 389/376 388/163
f 403/159 392/160 391/161
f 390/370 403/371 391/372
f 172/384 159/372 171/389
f 401/375 390/370 389/376
f 408/369 385/348 396/157
f 198/58 193/59 194/60
f 794/314 1071/330 1074/81
f 788/307 1070/78 790/308
f 267/390 1086/286 265/358
f 809/345 1112/223 807/354
f 1078/148 799/310 802/368
f 30/303 1091/304 29/305
f 36/305 1124/306 34/361
f 30/6 1111/329 1098/324
f 28/6 1105/329 1120/324
f 1087/292 178/391 179/267
f 804/309 1102/129 805/345
f 781/302 1063/76 783/307
f 972/302 1068/76 788/307
f 747/20 9/297 14/21
f 26/305 1119/306 25/361
f 266/351 1085/352 268/319
f 50/86 1123/85 1114/344
f 29/305 1115/306 31/361
f 35/6 1129/329 1130/324
f 47/86 1109/293 45/294
f 260/319 1079/320 259/321
f 124/7 126/38 120/8
f 28/303 1125/304 26/305
f 85/82 1131/81 1062/330
f 33/5 1124/306 1129/329
f 112/17 114/2 108/18
f 56/86 1103/293 55/294
f 50/86 1097/293 52/294
f 259/390 1082/286 257/358
f 41/86 1093/85 1113/344
f 42/294 1118/322 44/109
f 1088/291 177/169 178/391
f 37/6 1110/329 1116/324
f 265/358 1084/359 266/351
f 27/5 1119/306 1105/329
f 751/26 12/299 16/27
f 405/141 394/142 393/143
f 753/29 11/48 13/30
f 191/32 190/392 186/33
f 183/35 182/154 1076/36
f 126/38 128/13 122/39
f 228/40 227/209 225/41
f 250/43 249/111 247/44
f 230/46 232/393 228/40
f 973/47 100/103 92/48
f 165/54 153/219 164/55
f 764/57 21/394 13/27
f 200/58 199/386 195/59
f 214/61 210/395 212/62
f 1051/64 61/70 63/65
f 1059/64 71/70 72/65
f 1049/67 1058/66 57/65
f 1055/69 62/393 61/70
f 1050/71 1060/67 65/68
f 1046/64 68/70 66/65
f 1052/71 1056/67 70/68
f 1053/67 1057/66 63/65
f 1050/69 67/393 68/70
f 1055/71 1053/67 64/68
f 1056/67 1054/66 72/65
f 1045/71 1049/67 59/68
f 221/73 224/14 220/74
f 1052/69 69/393 71/70
f 1060/67 1048/66 66/65
f 1045/69 60/393 58/70
f 1063/76 87/80 85/77
f 1132/79 82/84 84/80
f 1067/79 79/84 77/80
f 1064/81 1065/330 78/82
f 1047/64 58/70 57/65
f 1069/81 1070/330 83/82
f 1067/79 1064/81 80/83
f 1089/85 1100/344 47/86
f 1066/76 77/80 78/77
f 1072/76 74/80 76/77
f 1061/79 88/84 87/80
f 1073/79 1074/81 75/83
f 1068/76 84/80 83/77
f 1118/88 1093/85 43/87
f 1073/79 73/84 74/80
f 1061/79 1131/81 86/83
f 220/90 219/194 218/91
f 6/93 5/168 3/94
f 171/96 159/294 158/97
f 242/99 241/215 239/100
f 758/57 24/394 16/27
f 104/106 92/105 797/110
f 252/46 251/396 249/111
f 244/112 234/202 231/113
f 319/115 320/397 244/116
f 103/108 90/107 796/117
f 102/102 89/109 798/118
f 128/13 124/333 123/119
f 102/120 101/398 93/108
f 246/121 245/114 243/112
f 168/122 156/388 155/123
f 967/125 20/237 12/126
f 1121/12 262/11 264/128
f 916/130 917/245 606/131
f 115/39 113/8 107/38
f 1094/12 254/11 256/128
f 28/6 26/4 25/133
f 128/13 127/1 121/3
f 760/57 23/394 15/27
f 109/13 105/333 106/119
f 116/3 112/328 111/134
f 854/135 998/213 428/136
f 395/138 385/335 389/139
f 5/93 8/168 4/94
f 149/141 150/173 138/142
f 224/14 221/73 222/144
f 181/146 184/380 1075/147
f 188/149 187/34 186/33
f 141/151 143/162 131/152
f 196/59 192/392 189/32
f 182/154 181/167 1078/155
f 151/156 152/369 140/157
f 147/159 148/377 136/160
f 192/32 191/392 187/33
f 143/162 144/379 132/163
f 195/59 191/392 192/32
f 953/164 705/274 710/165
f 194/59 190/392 191/32
f 8/167 5/178 6/168
f 969/125 19/237 11/126
f 4/169 2/95 1/94
f 167/124 155/123 154/171
f 406/173 407/156 395/158
f 170/98 158/97 157/109
f 175/175 163/387 162/176
f 762/57 22/394 14/27
f 104/120 103/398 95/108
f 318/191 317/374 233/192
f 40/133 38/5 37/6
f 223/145 222/144 218/91
f 401/140 399/138 407/195
f 214/186 213/353 209/197
f 215/158 216/188 212/199
f 207/187 206/184 201/178
f 8/93 7/168 2/94
f 976/47 97/103 91/48
f 975/47 99/103 90/48
f 245/114 229/113 233/202
f 238/204 237/216 235/205
f 234/193 233/192 229/207
f 231/208 229/207 225/41
f 249/111 226/211 225/210
f 970/125 18/237 10/126
f 114/2 116/3 110/1
f 103/120 102/398 94/108
f 995/213 415/241 421/131
f 101/120 104/398 96/108
f 248/44 227/210 228/211
f 252/217 232/399 230/212
f 248/218 247/400 245/114
f 199/58 198/386 194/59
f 32/5 30/6 29/4
f 1095/10 253/221 254/11
f 166/172 154/171 153/219
f 1107/220 255/401 253/221
f 125/18 123/19 117/17
f 7/93 6/168 1/94
f 1126/129 264/128 263/222
f 902/135 550/342 552/224
f 997/225 423/317 424/226
f 1013/225 531/367 532/227
f 851/135 995/213 416/228
f 899/225 563/240 550/230
f 812/231 980/225 282/132
f 818/213 984/214 309/227
f 819/213 985/214 313/226
f 982/225 291/363 292/234
f 823/135 294/170 296/235
f 893/231 1016/225 542/236
f 820/225 307/236 294/237
f 820/225 983/214 308/126
f 889/135 1011/213 524/233
f 121/3 117/328 118/134
f 937/225 1034/214 672/126
f 938/225 1035/214 676/239
f 825/135 302/362 304/241
f 932/231 1033/225 654/236
f 1028/213 635/224 641/239
f 1029/213 639/241 645/131
f 817/213 983/214 305/234
f 928/231 1030/225 642/240
f 936/213 1036/214 677/226
f 189/32 192/392 188/33
f 242/242 320/397 319/115
f 1037/244 688/241 685/131
f 826/130 830/269 322/246
f 830/248 986/244 327/249
f 829/225 831/231 330/251
f 946/225 948/231 690/251
f 877/130 878/245 494/131
f 1008/213 504/280 500/253
f 841/225 840/214 366/254
f 833/256 834/282 338/257
f 950/256 951/282 698/257
f 1043/259 736/283 732/260
f 923/256 922/271 622/262
f 847/166 993/266 383/264
f 1006/266 488/264 485/265
f 1027/266 632/277 628/267
f 836/164 345/274 350/165
f 943/130 947/269 682/246
f 842/269 356/246 355/247
f 1007/244 496/249 492/250
f 843/231 364/251 363/252
f 1004/213 472/279 469/254
f 869/248 1003/244 463/249
f 829/225 329/252 334/270
f 880/225 879/214 502/254
f 1005/259 480/272 477/262
f 844/271 992/259 375/272
f 992/259 376/283 372/260
f 1009/259 512/283 508/260
f 966/273 740/275 739/274
f 836/164 837/273 346/275
f 965/164 964/166 742/265
f 954/268 1040/266 711/277
f 139/138 129/335 133/139
f 149/139 147/196 143/138
f 863/135 438/342 440/224
f 942/135 666/362 668/241
f 899/225 1018/214 564/239
f 903/135 554/362 556/241
f 896/213 1018/214 561/227
f 1012/213 527/241 533/131
f 1011/213 523/224 529/239
f 897/213 1019/214 565/226
f 893/135 1015/213 540/136
f 859/225 1000/214 448/126
f 856/213 1000/214 445/234
f 998/213 427/235 429/126
f 815/135 981/213 288/136
f 821/225 984/214 312/239
f 890/135 1012/213 528/228
f 1033/225 655/363 656/234
f 941/135 662/342 664/224
f 812/135 978/213 276/228
f 859/225 447/236 434/237
f 860/225 451/240 438/230
f 861/225 455/132 442/232
f 850/231 996/225 418/240
f 904/130 908/269 570/246
f 1021/213 584/279 581/254
f 1003/244 464/241 461/131
f 881/269 492/246 491/247
f 826/130 321/247 326/278
f 868/225 870/231 466/251
f 879/214 1008/213 503/279
f 838/130 839/245 358/131
f 831/135 987/213 335/280
f 958/225 957/214 726/254
f 872/256 873/282 474/257
f 883/271 1009/259 511/272
f 1026/259 624/283 620/260
f 950/256 697/258 702/281
f 875/164 876/273 482/275
f 886/166 1010/266 519/264
f 887/164 886/166 518/265
f 848/164 847/166 382/265
f 878/245 1007/244 495/241
f 911/256 912/282 586/257
f 943/130 681/247 686/278
f 882/231 500/251 499/252
f 914/164 915/273 594/275
f 865/130 457/247 462/278
f 948/135 1038/213 695/280
f 909/135 1021/213 583/280
f 885/282 508/257 507/258
f 1074/81 1071/330 76/82
f 845/256 844/271 374/262
f 912/261 1022/259 591/283
f 888/273 516/275 515/274
f 981/213 287/235 289/126
f 1083/284 807/346 810/285
f 1044/266 744/277 740/267
f 1014/225 535/317 536/226
f 929/135 1029/213 640/228
f 811/135 977/213 272/233
f 1031/225 647/317 648/226
f 889/231 1013/225 530/240
f 890/231 1014/225 534/132
f 994/213 411/224 417/239
f 851/231 997/225 422/132
f 898/225 1017/214 560/126
f 996/225 419/367 420/227
f 898/225 559/236 546/237
f 1015/213 539/235 541/126
f 999/225 431/363 432/234
f 860/225 1001/214 452/239
f 939/225 1036/214 680/131
f 862/135 434/170 436/235
f 850/135 994/213 412/233
f 861/225 1002/214 456/131
f 815/231 982/225 290/236
f 977/213 271/224 277/239
f 900/225 567/132 554/232
f 895/213 1017/214 557/234
f 811/231 979/225 278/240
f 978/213 275/241 281/131
f 917/245 1024/244 607/241
f 986/244 328/241 325/131
f 919/225 918/214 614/254
f 907/225 909/231 578/251
f 921/231 612/251 611/252
f 990/244 360/249 356/250
f 962/256 961/271 734/262
f 991/213 368/280 364/253
f 924/282 620/257 619/258
f 1022/259 592/272 589/262
f 884/256 883/271 510/262
f 833/256 337/258 342/281
f 927/273 628/275 627/274
f 1023/266 600/264 597/265
f 876/268 1006/266 487/277
f 993/266 384/277 380/267
f 1020/244 576/241 573/131
f 920/269 604/246 603/247
f 1041/244 720/249 716/250
f 987/213 336/279 333/254
f 918/214 1025/213 615/279
f 955/130 956/245 718/131
f 870/135 1004/213 471/280
f 907/225 577/252 582/270
f 988/259 344/272 341/262
f 922/271 1026/259 623/272
f 911/256 585/258 590/281
f 193/59 189/392 190/32
f 953/164 954/273 706/275
f 925/166 1027/266 631/264
f 915/268 1023/266 599/277
f 875/164 481/274 486/165
f 824/135 298/342 300/224
f 822/225 985/214 316/131
f 928/135 1028/213 636/233
f 980/225 283/317 284/226
f 821/225 311/240 298/230
f 929/231 1031/225 646/132
f 935/213 1035/214 673/227
f 822/225 315/132 302/232
f 1016/225 543/363 544/234
f 940/135 658/170 660/235
f 934/213 1034/214 669/234
f 1032/213 651/235 653/126
f 932/135 1032/213 652/136
f 1030/225 643/367 644/227
f 900/225 1019/214 568/131
f 901/135 546/170 548/235
f 979/225 279/367 280/227
f 864/135 442/362 444/241
f 937/225 671/236 658/237
f 938/225 675/240 662/230
f 939/225 679/132 666/232
f 854/231 999/225 430/236
f 857/213 1001/214 449/227
f 858/213 1002/214 453/226
f 865/130 869/269 458/246
f 956/245 1041/244 719/241
f 904/130 569/247 574/278
f 960/231 724/251 723/252
f 1038/213 696/279 693/254
f 908/248 1020/244 575/249
f 868/225 465/252 470/270
f 1042/213 728/280 724/253
f 961/271 1043/259 735/272
f 1039/259 704/272 701/262
f 951/261 1039/259 703/283
f 872/256 473/258 478/281
f 989/266 352/264 349/265
f 1040/266 712/264 709/265
f 926/164 925/166 630/265
f 914/164 593/274 598/165
f 839/245 990/244 359/241
f 959/269 716/246 715/247
f 947/248 1037/244 687/249
f 840/214 991/213 367/279
f 957/214 1042/213 727/279
f 1024/244 608/249 604/250
f 946/225 689/252 694/270
f 1025/213 616/280 612/253
f 963/282 732/257 731/258
f 846/282 372/257 371/258
f 834/261 988/259 343/283
f 873/261 1005/259 479/283
f 849/273 380/275 379/274
f 964/166 1044/266 743/264
f 1010/266 520/277 516/267
f 837/268 989/266 351/277
f 771/287 1051/64 1057/66
f 767/287 1047/64 1058/66
f 772/289 1052/69 1059/64
f 801/290 800/347 1088/291
f 41/86 1113/344 1128/293
f 775/295 773/325 1053/67
f 782/301 971/314 1093/85
f 787/302 784/314 1064/81
f 772/295 776/325 1056/67
f 37/303 1116/323 1092/304
f 1104/304 766/287 768/288
f 81/83 82/84 1132/79
f 969/127 20/126 24/24
f 967/298 18/299 23/27
f 970/300 17/48 22/30
f 968/296 19/297 21/21
f 783/307 1063/76 1062/78
f 766/287 1046/64 1048/66
f 810/285 1117/10 1121/12
f 1075/147 1077/37 801/290
f 371/258 373/281 844/271
f 692/311 696/279 1038/213
f 379/274 381/165 847/166
f 683/132 943/130 944/245
f 493/278 496/249 1007/244
f 587/263 588/313 912/282
f 498/312 882/231 880/225
f 595/276 596/357 915/273
f 459/132 865/130 866/245
f 580/311 584/279 1021/213
f 506/313 885/282 884/256
f 1127/85 1090/88 791/301
f 588/315 592/272 1022/259
f 483/276 484/357 876/273
f 517/165 520/277 1010/266
f 515/274 517/165 886/166
f 410/316 419/367 996/225
f 332/311 336/279 987/213
f 571/132 572/232 908/269
f 623/272 1026/259 924/261
f 699/263 950/256 949/271
f 475/263 476/313 873/282
f 583/280 1021/213 906/214
f 463/249 1003/244 866/245
f 723/252 725/270 957/214
f 490/232 881/269 877/130
f 509/281 512/283 1009/259
f 467/255 468/312 870/231
f 323/132 826/130 827/245
f 355/247 357/278 839/245
f 501/270 504/280 1008/213
f 454/317 861/225 864/231
f 268/319 1085/352 1083/320
f 52/294 1097/293 1108/322
f 55/294 1103/293 1090/322
f 761/52 762/31 23/27
f 93/102 97/109 976/118
f 94/104 98/103 974/47
f 95/106 99/105 975/110
f 96/108 100/107 973/117
f 1098/323 775/289 771/287
f 1120/324 1105/329 769/325
f 1098/324 1111/329 773/325
f 795/47 92/105 104/106
f 707/276 708/357 954/273
f 1105/329 1119/306 778/288
f 97/105 973/47 795/49
f 48/87 46/89 1096/88
f 770/289 1050/69 1046/64
f 776/325 774/288 1054/66
f 483/276 875/164 874/166
f 773/325 777/288 1057/66
f 769/325 778/288 1058/66
f 765/289 1045/69 1047/64
f 779/287 1059/64 1054/66
f 789/314 790/301 1070/330
f 629/165 632/277 1027/266
f 596/334 600/264 1023/266
f 269/342 271/224 977/213
f 534/132 1014/225 892/214
f 784/314 785/301 1065/330
f 792/307 1072/76 1071/78
f 786/307 1066/76 1065/78
f 789/314 972/302 1100/344
f 787/302 1067/79 1066/76
f 808/309 1121/12 1126/129
f 340/315 344/272 988/259
f 781/302 971/314 1131/81
f 54/87 53/89 1090/88
f 803/346 1107/220 1095/10
f 793/302 1073/79 1072/76
f 793/302 794/314 1074/81
f 730/313 963/282 962/256
f 476/315 480/272 1005/259
f 370/313 846/282 845/256
f 35/303 1130/323 1104/304
f 1077/37 1076/36 800/347
f 49/87 51/89 1108/88
f 45/294 1109/293 1096/322
f 32/5 31/361 1115/306
f 1106/350 1087/292 179/267
f 258/351 1080/359 1081/352
f 805/345 1102/129 1107/223
f 1101/355 1106/350 180/137
f 514/357 888/273 887/164
f 288/136 981/213 816/214
f 56/86 54/87 1127/85
f 257/358 1082/286 1080/359
f 38/5 40/361 1099/306
f 759/51 760/28 24/24
f 22/360 764/57 746/31
f 763/53 764/22 22/30
f 757/50 758/25 21/21
f 1086/286 810/285 808/309
f 1116/324 1110/329 776/325
f 1130/324 1129/329 780/325
f 1092/304 779/287 774/288
f 1130/323 770/289 766/287
f 1116/323 772/289 779/287
f 1110/329 1099/306 774/288
f 1111/329 1115/306 777/288
f 1091/304 771/287 777/288
f 807/346 1112/220 1117/10
f 39/305 1092/304 1099/306
f 770/295 780/325 1060/67
f 775/289 1055/69 1051/64
f 780/325 768/288 1048/66
f 765/295 769/325 1049/67
f 579/255 580/312 909/231
f 719/241 1041/244 959/248
f 327/249 986/244 827/245
f 599/277 1023/266 913/166
f 699/263 700/313 951/282
f 1125/304 767/287 778/288
f 619/258 621/281 922/271
f 1089/85 1096/88 790/301
f 414/318 423/317 997/225
f 558/363 557/234 1017/214
f 306/363 820/225 823/231
f 301/229 825/135 819/213
f 418/240 996/225 852/214
f 591/283 1022/259 910/271
f 587/263 911/256 910/271
f 558/363 898/225 901/231
f 276/228 978/213 814/214
f 621/281 624/283 1026/259
f 636/233 1028/213 930/214
f 381/165 384/277 993/266
f 1114/344 1123/85 784/314
f 650/364 655/363 1033/225
f 631/264 1027/266 927/268
f 1103/293 792/307 791/308
f 806/285 1095/10 1094/12
f 1076/36 1078/155 802/365
f 373/281 376/283 992/259
f 479/283 1005/259 871/271
f 652/136 1032/213 933/214
f 1084/359 808/309 809/345
f 603/247 605/278 917/245
f 649/170 651/235 1032/213
f 444/241 456/131 1002/214
f 426/364 431/363 999/225
f 537/170 539/235 1015/213
f 446/363 445/234 1000/214
f 714/232 959/269 955/130
f 703/283 1039/259 949/271
f 422/132 997/225 853/214
f 300/224 312/239 984/214
f 19/77 968/125 754/127
f 739/274 741/165 964/166
f 347/276 348/357 837/273
f 542/236 1016/225 894/214
f 800/347 802/365 1101/366
f 707/276 953/164 952/166
f 664/224 676/239 1035/214
f 440/224 452/239 1001/214
f 571/132 904/130 905/245
f 654/236 1033/225 933/214
f 525/362 527/241 1012/213
f 711/277 1040/266 952/166
f 627/274 629/165 925/166
f 530/240 1013/225 891/214
f 274/318 283/317 980/225
f 16/27 12/299 755/300
f 348/334 352/264 989/266
f 637/362 639/241 1029/213
f 743/264 1044/266 966/268
f 548/235 560/126 1017/214
f 484/334 488/264 1006/266
f 272/233 977/213 813/214
f 335/280 987/213 828/214
f 363/252 365/270 840/214
f 1129/329 1124/306 768/288
f 691/255 692/312 948/231
f 1100/344 972/302 788/307
f 646/132 1031/225 931/214
f 450/367 449/227 1001/214
f 323/132 324/232 830/269
f 687/249 1037/244 944/245
f 412/233 994/213 852/214
f 270/316 279/367 979/225
f 468/311 472/279 1004/213
f 678/317 677/226 1036/214
f 359/241 990/244 842/248
f 602/232 920/269 916/130
f 324/362 328/241 986/244
f 495/241 1007/244 881/248
f 1109/293 788/307 790/308
f 331/255 332/312 831/231
f 362/312 843/231 841/225
f 1062/330 1131/81 971/314
f 437/238 863/135 857/213
f 665/229 942/135 936/213
f 660/235 672/126 1034/214
f 20/77 969/125 755/127
f 23/360 762/57 748/31
f 314/317 822/225 825/231
f 678/317 939/225 942/231
f 441/229 864/135 858/213
f 661/238 941/135 935/213
f 273/362 275/241 978/213
f 691/255 946/225 945/214
f 365/270 368/280 991/213
f 304/241 316/131 985/214
f 290/236 982/225 816/214
f 99/105 974/47 796/49
f 15/24 10/126 745/298
f 562/367 561/227 1018/214
f 553/229 903/135 897/213
f 642/240 1030/225 930/214
f 98/105 976/47 798/49
f 100/105 975/47 797/49
f 657/137 940/135 934/213
f 722/312 960/231 958/225
f 459/132 460/232 869/269
f 446/363 859/225 862/231
f 450/367 860/225 863/231
f 351/277 989/266 835/166
f 595/276 914/164 913/166
f 293/137 823/135 817/213
f 538/364 543/363 1016/225
f 1081/352 805/345 803/354
f 507/258 509/281 883/271
f 579/255 907/225 906/214
f 611/252 613/270 918/214
f 339/263 833/256 832/271
f 491/247 493/278 878/245
f 1120/323 765/289 767/287
f 503/279 1008/213 882/135
f 1128/293 783/307 782/308
f 522/316 531/367 1013/225
f 286/364 291/363 982/225
f 521/342 523/224 1011/213
f 306/363 305/234 983/214
f 430/236 999/225 855/214
f 610/312 921/231 919/225
f 613/270 616/280 1025/213
f 526/318 535/317 1014/225
f 566/317 900/225 903/231
f 575/249 1020/244 905/245
f 674/367 673/227 1035/214
f 339/263 340/313 834/282
f 1114/344 787/302 786/307
f 670/363 669/234 1034/214
f 735/272 1043/259 963/261
f 1123/85 1108/88 785/301
f 471/280 1004/213 867/214
f 499/252 501/270 879/214
f 545/137 901/135 895/213
f 1122/344 793/302 792/307
f 1113/344 1093/85 971/314
f 638/318 647/317 1031/225
f 727/279 1042/213 960/135
f 717/278 720/249 1041/244
f 528/228 1012/213 892/214
f 552/224 564/239 1018/214
f 475/263 872/256 871/271
f 357/278 360/249 990/244
f 416/228 995/213 853/214
f 17/77 970/125 756/127
f 14/21 9/297 756/127
f 519/264 1010/266 888/268
f 331/255 829/225 828/214
f 460/362 464/241 1003/244
f 297/238 824/135 818/213
f 18/77 967/125 745/127
f 21/360 758/57 752/31
f 633/342 635/224 1028/213
f 278/240 979/225 813/214
f 467/255 868/225 867/214
f 556/241 568/131 1019/214
f 524/233 1011/213 891/214
f 700/315 704/272 1039/259
f 615/279 1025/213 921/135
f 1079/284 803/346 806/285
f 1082/286 806/285 804/309
f 741/165 744/277 1044/266
f 799/310 801/290 1087/292
f 618/313 924/282 923/256
f 343/283 988/259 832/271
f 367/279 991/213 843/135
f 626/357 927/273 926/164
f 487/277 1006/266 874/166
f 1069/81 1132/79 972/302
f 347/276 836/164 835/166
f 1097/293 786/307 785/308
f 454/317 453/226 1002/214
f 433/137 862/135 856/213
f 296/235 308/126 983/214
f 640/228 1029/213 931/214
f 409/342 411/224 994/213
f 731/258 733/281 961/271
f 383/264 993/266 849/268
f 540/136 1015/213 894/214
f 605/278 608/249 1024/244
f 715/247 717/278 956/245
f 634/316 643/367 1030/225
f 683/132 684/232 947/269
f 1113/344 781/302 783/307
f 668/241 680/131 1036/214
f 354/232 842/269 838/130
f 1122/344 1127/85 794/314
f 708/334 712/264 1040/266
f 375/272 992/259 846/261
f 566/317 565/226 1019/214
f 24/360 760/57 750/31
f 1080/359 804/309 805/345
f 310/367 821/225 824/231
f 674/367 938/225 941/231
f 695/280 1038/213 945/214
f 428/136 998/213 855/214
f 436/235 448/126 1000/214
f 725/270 728/280 1042/213
f 607/241 1024/244 920/248
f 549/238 902/135 896/213
f 1085/352 809/345 807/354
f 378/357 849/273 848/164
f 13/30 11/48 754/296
f 738/357 966/273 965/164
f 511/272 1009/259 885/261
f 282/132 980/225 814/214
f 802/368 799/310 1106/350
f 425/170 427/235 998/213
f 314/317 313/226 985/214
f 670/363 937/225 940/231
f 572/362 576/241 1020/244
f 285/170 287/235 981/213
f 310/367 309/227 984/214
f 733/281 736/283 1043/259
f 684/362 688/241 1037/244
f 562/367 899/225 902/231
f 413/362 415/241 995/213
f 150/173 151/156 139/158
f 968/125 17/237 9/126
f 152/369 142/378 129/348
f 134/370 146/402 147/371
f 318/191 236/403 235/373
f 145/375 146/402 134/370
f 190/32 189/392 185/33
f 397/151 399/162 387/152
f 148/377 149/141 137/143
f 142/378 141/151 130/153
f 144/379 145/375 133/376
f 197/58 200/386 196/59
f 184/380 183/35 1077/37
f 399/162 400/379 388/163
f 113/8 111/9 105/7
f 404/377 405/141 393/143
f 974/47 98/103 89/48
f 174/177 162/176 161/381
f 1102/129 256/128 255/222
f 205/182 208/190 204/189
f 173/382 161/381 160/383
f 200/385 197/404 198/386
f 398/378 397/151 386/153
f 176/56 164/55 163/387
f 169/174 157/109 156/388
f 1112/220 263/401 261/221
f 407/156 408/369 396/157
f 208/190 205/182 206/184
f 222/144 221/73 217/200
f 400/379 401/375 389/376
f 403/159 404/377 392/160
f 390/370 402/402 403/371
f 172/384 160/383 159/372
f 401/375 402/402 390/370
f 408/369 398/378 385/348
f 198/58 197/386 193/59
f 794/314 791/301 1071/330
f 788/307 1068/76 1070/78
f 267/390 1083/284 1086/286
f 809/345 1126/129 1112/223
f 1078/148 1075/147 799/310
f 30/303 1098/323 1091/304
f 36/305 1104/304 1124/306
f 30/6 32/5 1111/329
f 28/6 27/5 1105/329
f 1087/292 1088/291 178/391
f 804/309 1094/12 1102/129
f 781/302 1061/79 1063/76
f 972/302 1132/79 1068/76
f 26/305 1125/304 1119/306
f 266/351 1084/359 1085/352
f 50/86 49/87 1123/85
f 29/305 1091/304 1115/306
f 35/6 33/5 1129/329
f 47/86 1100/344 1109/293
f 260/319 1081/352 1079/320
f 28/303 1120/323 1125/304
f 85/82 86/83 1131/81
f 33/5 34/361 1124/306
f 56/86 1122/344 1103/293
f 50/86 1114/344 1097/293
f 259/390 1079/284 1082/286
f 41/86 43/87 1093/85
f 42/294 1128/293 1118/322
f 1088/291 1101/366 177/169
f 37/6 38/5 1110/329
f 265/358 1086/286 1084/359
f 27/5 25/361 1119/306
f 405/141 406/173 394/142
