o Coil1
v 0.8428 2.6964 -4
v 0.8428 2.6964 -3.5
v 0.1357 1.9893 -4
v 0.1357 1.9893 -3.5
v 1.1964 2.3428 -4
v 1.1964 2.3428 -3.5
v 0.4893 1.6357 -4
v 0.4893 1.6357 -3.5
v 1.4419 1.75 -4
v 1.4419 1.75 -3.5
v 0.4419 1.75 -4
v 0.4419 1.75 -3.5
v 1.4419 1.25 -4
v 1.4419 1.25 -3.5
v 0.4419 1.25 -4
v 0.4419 1.25 -3.5
v 1.1964 0.6572 -4
v 1.1964 0.6572 -3.5
v 0.4893 1.3643 -4
v 0.4893 1.3643 -3.5
v 0.8428 0.3036 -4
v 0.8428 0.3036 -3.5
v 0.1357 1.0107 -4
v 0.1357 1.0107 -3.5
v 0.25 0.0581 -4
v 0.25 0.0581 -3.5
v 0.25 1.0581 -4
v 0.25 1.0581 -3.5
v -0.25 0.0581 -4
v -0.25 0.0581 -3.5
v -0.25 1.0581 -4
v -0.25 1.0581 -3.5
v -0.8428 0.3036 -4
v -0.8428 0.3036 -3.5
v -0.1357 1.0107 -4
v -0.1357 1.0107 -3.5
v -1.1964 0.6572 -4
v -1.1964 0.6572 -3.5
v -0.4893 1.3643 -4
v -0.4893 1.3643 -3.5
v -1.4419 1.25 -4
v -1.4419 1.25 -3.5
v -0.4419 1.25 -4
v -0.4419 1.25 -3.5
v -1.4419 1.75 -4
v -1.4419 1.75 -3.5
v -0.4419 1.75 -4
v -0.4419 1.75 -3.5
v -1.1964 2.3428 -4
v -1.1964 2.3428 -3.5
v -0.4893 1.6357 -4
v -0.4893 1.6357 -3.5
v -0.8428 2.6964 -4
v -0.8428 2.6964 -3.5
v -0.1357 1.9893 -4
v -0.1357 1.9893 -3.5
v -0.25 2.9419 -4
v -0.25 2.9419 -3.5
v -0.25 1.9419 -4
v -0.25 1.9419 -3.5
v 0.25 2.9419 -4
v 0.25 2.9419 -3.5
v 0.25 1.9419 -4
v 0.25 1.9419 -3.5
vt 0.1895 0.6562
vt 0.2051 0.625
vt 0.2051 0.6562
vt 0.0996 0.6426
vt 0.1152 0.6113
vt 0.1152 0.6426
vt 0.2188 0.7207
vt 0.2344 0.752
vt 0.2188 0.752
vt 0.2227 0.6172
vt 0.2383 0.5859
vt 0.2383 0.6172
vt 0.2227 0.5859
vt 0.3105 0.5664
vt 0.3262 0.5508
vt 0.3262 0.5664
vt 0.3086 0.5664
vt 0.293 0.5508
vt 0.3086 0.5508
vt 0.3105 0.5508
vt 0.1895 0.625
vt 0.293 0.5664
vt 0.0996 0.6113
vt 0.2344 0.7207
s 1
f 46/1 47/2 45/3
f 29/4 27/5 25/6
f 3/7 2/8 1/9
f 13/4 11/5 9/6
f 2/10 8/11 6/12
f 52/13 54/12 50/10
f 31/14 28/15 27/16
f 45/4 43/5 41/6
f 42/17 45/18 41/19
f 47/14 44/15 43/16
f 22/1 23/2 21/3
f 23/14 20/15 19/16
f 38/1 39/2 37/3
f 62/1 63/2 61/3
f 44/13 46/12 42/10
f 26/17 29/18 25/19
f 11/16 16/20 12/15
f 34/10 40/11 38/12
f 30/1 31/2 29/3
f 51/7 50/8 49/9
f 6/1 7/2 5/3
f 2/17 5/18 1/19
f 7/14 4/15 3/16
f 34/17 37/18 33/19
f 28/13 30/12 26/10
f 53/4 51/5 49/6
f 19/7 18/8 17/9
f 35/7 34/8 33/9
f 20/13 22/12 18/10
f 21/4 19/5 17/6
f 14/1 15/2 13/3
f 18/17 21/18 17/19
f 46/1 48/21 47/2
f 9/19 14/22 13/18
f 58/17 61/18 57/19
f 43/7 42/8 41/9
f 11/7 10/8 9/9
f 12/13 14/12 10/10
f 59/7 58/8 57/9
f 27/7 26/8 25/9
f 1/6 7/23 3/5
f 33/6 39/23 35/5
f 61/4 59/5 57/6
f 50/17 53/18 49/19
f 54/1 55/2 53/3
f 55/14 52/15 51/16
f 39/14 36/15 35/16
f 63/14 60/15 59/16
f 1/6 5/4 7/23
f 35/7 36/24 34/8
f 33/6 37/4 39/23
f 53/4 55/23 51/5
f 23/14 24/20 20/15
f 22/1 24/21 23/2
f 50/17 54/22 53/18
f 43/7 44/24 42/8
f 3/7 4/24 2/8
f 2/10 4/13 8/11
f 28/13 32/11 30/12
f 14/1 16/21 15/2
f 44/13 48/11 46/12
f 34/17 38/22 37/18
f 59/7 60/24 58/8
f 21/4 23/23 19/5
f 52/13 56/11 54/12
f 45/4 47/23 43/5
f 39/14 40/20 36/15
f 55/14 56/20 52/15
f 20/13 24/11 22/12
f 61/4 63/23 59/5
f 19/7 20/24 18/8
f 11/16 15/14 16/20
f 34/10 36/13 40/11
f 62/1 64/21 63/2
f 26/17 30/22 29/18
f 30/1 32/21 31/2
f 42/17 46/22 45/18
f 31/14 32/20 28/15
f 11/7 12/24 10/8
f 27/7 28/24 26/8
f 29/4 31/23 27/5
f 13/4 15/23 11/5
f 58/17 62/22 61/18
f 12/13 16/11 14/12
f 54/1 56/21 55/2
f 18/17 22/22 21/18
f 2/17 6/22 5/18
f 63/14 64/20 60/15
f 38/1 40/21 39/2
f 47/14 48/20 44/15
f 6/1 8/21 7/2
f 7/14 8/20 4/15
f 9/19 10/17 14/22
f 60/13 64/11 62/12
f 51/7 52/24 50/8
f 60/13 62/12 58/10
o Coil2
v 0.3208 2.9279 -3.5
v 0.3208 2.9279 -3
v -0.0618 2.004 -3.5
v -0.0618 2.004 -3
v 0.7828 2.7365 -3.5
v 0.7828 2.7365 -3
v 0.4001 1.8126 -3.5
v 0.4001 1.8126 -3
v 1.2365 2.2828 -3.5
v 1.2365 2.2828 -3
v 0.3126 1.9001 -3.5
v 0.3126 1.9001 -3
v 1.4279 1.8208 -3.5
v 1.4279 1.8208 -3
v 0.504 1.4382 -3.5
v 0.504 1.4382 -3
v 1.4279 1.1792 -3.5
v 1.4279 1.1792 -3
v 0.504 1.5618 -3.5
v 0.504 1.5618 -3
v 1.2365 0.7172 -3.5
v 1.2365 0.7172 -3
v 0.3126 1.0999 -3.5
v 0.3126 1.0999 -3
v 0.7828 0.2635 -3.5
v 0.7828 0.2635 -3
v 0.4001 1.1874 -3.5
v 0.4001 1.1874 -3
v 0.3208 0.0721 -3.5
v 0.3208 0.0721 -3
v -0.0618 0.996 -3.5
v -0.0618 0.996 -3
v -0.3208 0.0721 -3.5
v -0.3208 0.0721 -3
v 0.0618 0.996 -3.5
v 0.0618 0.996 -3
v -0.7828 0.2635 -3.5
v -0.7828 0.2635 -3
v -0.4001 1.1874 -3.5
v -0.4001 1.1874 -3
v -1.2365 0.7172 -3.5
v -1.2365 0.7172 -3
v -0.3126 1.0999 -3.5
v -0.3126 1.0999 -3
v -1.4279 1.1792 -3.5
v -1.4279 1.1792 -3
v -0.504 1.5618 -3.5
v -0.504 1.5618 -3
v -1.4279 1.8208 -3.5
v -1.4279 1.8208 -3
v -0.504 1.4382 -3.5
v -0.504 1.4382 -3
v -1.2365 2.2828 -3.5
v -1.2365 2.2828 -3
v -0.3126 1.9001 -3.5
v -0.3126 1.9001 -3
v -0.7828 2.7365 -3.5
v -0.7828 2.7365 -3
v -0.4001 1.8126 -3.5
v -0.4001 1.8126 -3
v -0.3208 2.9279 -3.5
v -0.3208 2.9279 -3
v 0.0618 2.004 -3.5
v 0.0618 2.004 -3
vt 0.2188 0.7207
vt 0.2344 0.752
vt 0.2188 0.752
vt 0.1895 0.6562
vt 0.2051 0.625
vt 0.2051 0.6562
vt 0.3105 0.5664
vt 0.3262 0.5508
vt 0.3262 0.5664
vt 0.2227 0.6172
vt 0.2383 0.5859
vt 0.2383 0.6172
vt 0.2227 0.5859
vt 0.3086 0.5664
vt 0.293 0.5508
vt 0.3086 0.5508
vt 0.2344 0.7207
vt 0.1152 0.6113
vt 0.0996 0.6426
vt 0.0996 0.6113
vt 0.1152 0.6426
vt 0.293 0.5664
vt 0.1895 0.625
vt 0.3105 0.5508
s 1
f 75/25 74/26 73/27
f 86/28 87/29 85/30
f 126/28 127/29 125/30
f 95/31 92/32 91/33
f 66/34 72/35 70/36
f 124/37 126/36 122/34
f 90/38 93/39 89/40
f 67/25 66/26 65/27
f 106/38 109/39 105/40
f 94/28 95/29 93/30
f 75/25 76/41 74/26
f 75/42 77/43 79/44
f 102/28 103/29 101/30
f 114/38 117/39 113/40
f 78/28 79/29 77/30
f 79/31 76/32 75/33
f 110/36 108/37 112/35
f 114/34 120/35 118/36
f 82/38 85/39 81/40
f 123/25 122/26 121/27
f 110/28 111/29 109/30
f 98/38 101/39 97/40
f 94/36 92/37 96/35
f 97/45 103/44 99/42
f 71/31 68/32 67/33
f 125/43 123/42 121/45
f 83/25 82/26 81/27
f 99/25 98/26 97/27
f 109/43 107/42 105/45
f 91/42 93/43 95/44
f 91/25 90/26 89/27
f 111/31 108/32 107/33
f 66/38 69/39 65/40
f 74/38 77/39 73/40
f 82/34 88/35 86/36
f 78/36 76/37 80/35
f 107/25 106/26 105/27
f 87/31 84/32 83/33
f 119/31 116/32 115/33
f 103/31 100/32 99/33
f 81/45 87/44 83/42
f 113/45 119/44 115/42
f 70/28 71/29 69/30
f 118/28 119/29 117/30
f 115/25 114/26 113/27
f 121/40 126/46 125/39
f 65/45 71/44 67/42
f 98/34 104/35 102/36
f 70/28 72/47 71/29
f 109/43 111/44 107/42
f 78/36 74/34 76/37
f 94/36 90/34 92/37
f 110/36 106/34 108/37
f 79/31 80/48 76/32
f 113/45 117/43 119/44
f 118/28 120/47 119/29
f 87/31 88/48 84/32
f 111/31 112/48 108/32
f 86/28 88/47 87/29
f 126/28 128/47 127/29
f 123/25 124/41 122/26
f 99/25 100/41 98/26
f 115/25 116/41 114/26
f 66/38 70/46 69/39
f 66/34 68/37 72/35
f 67/25 68/41 66/26
f 121/40 122/38 126/46
f 91/25 92/41 90/26
f 81/45 85/43 87/44
f 98/38 102/46 101/39
f 102/28 104/47 103/29
f 75/42 73/45 77/43
f 97/45 101/43 103/44
f 82/38 86/46 85/39
f 110/28 112/47 111/29
f 71/31 72/48 68/32
f 94/28 96/47 95/29
f 114/38 118/46 117/39
f 65/45 69/43 71/44
f 103/31 104/48 100/32
f 107/25 108/41 106/26
f 119/31 120/48 116/32
f 106/38 110/46 109/39
f 95/31 96/48 92/32
f 98/34 100/37 104/35
f 74/38 78/46 77/39
f 83/25 84/41 82/26
f 125/43 127/44 123/42
f 124/37 128/35 126/36
f 90/38 94/46 93/39
f 91/42 89/45 93/43
f 82/34 84/37 88/35
f 127/31 128/48 124/32
f 114/34 116/37 120/35
f 78/28 80/47 79/29
f 127/31 124/32 123/33
o Coil3
v 0.8428 2.6964 -3
v 0.8428 2.6964 -2.5
v 0.1357 1.9893 -3
v 0.1357 1.9893 -2.5
v 1.1964 2.3428 -3
v 1.1964 2.3428 -2.5
v 0.4893 1.6357 -3
v 0.4893 1.6357 -2.5
v 1.1964 0.6572 -3
v 1.1964 0.6572 -2.5
v 0.4893 1.3643 -3
v 0.4893 1.3643 -2.5
v 0.8428 0.3036 -3
v 0.8428 0.3036 -2.5
v 0.1357 1.0107 -3
v 0.1357 1.0107 -2.5
v -0.8428 0.3036 -3
v -0.8428 0.3036 -2.5
v -0.1357 1.0107 -3
v -0.1357 1.0107 -2.5
v -1.1964 0.6572 -3
v -1.1964 0.6572 -2.5
v -0.4893 1.3643 -3
v -0.4893 1.3643 -2.5
v -1.1964 2.3428 -3
v -1.1964 2.3428 -2.5
v -0.4893 1.6357 -3
v -0.4893 1.6357 -2.5
v -0.8428 2.6964 -3
v -0.8428 2.6964 -2.5
v -0.1357 1.9893 -3
v -0.1357 1.9893 -2.5
v 1.4419 1.75 -3
v 1.4419 1.75 -2.5
v 0.4419 1.75 -3
v 0.4419 1.75 -2.5
v 1.4419 1.25 -3
v 1.4419 1.25 -2.5
v 0.4419 1.25 -3
v 0.4419 1.25 -2.5
v 0.25 0.0581 -3
v 0.25 0.0581 -2.5
v 0.25 1.0581 -3
v 0.25 1.0581 -2.5
v -0.25 0.0581 -3
v -0.25 0.0581 -2.5
v -0.25 1.0581 -3
v -0.25 1.0581 -2.5
v -0.25 2.9419 -3
v -0.25 2.9419 -2.5
v -0.25 1.9419 -3
v -0.25 1.9419 -2.5
v 0.25 2.9419 -3
v 0.25 2.9419 -2.5
v 0.25 1.9419 -3
v 0.25 1.9419 -2.5
v -1.4419 1.25 -3
v -1.4419 1.25 -2.5
v -0.4419 1.25 -3
v -0.4419 1.25 -2.5
v -1.4419 1.75 -3
v -1.4419 1.75 -2.5
v -0.4419 1.75 -3
v -0.4419 1.75 -2.5
vt 0.1895 0.6562
vt 0.2051 0.625
vt 0.2051 0.6562
vt 0.2188 0.7207
vt 0.2344 0.752
vt 0.2188 0.752
vt 0.3105 0.5664
vt 0.3262 0.5508
vt 0.3262 0.5664
vt 0.2227 0.6172
vt 0.2383 0.5859
vt 0.2383 0.6172
vt 0.2227 0.5859
vt 0.3086 0.5664
vt 0.293 0.5508
vt 0.3086 0.5508
vt 0.293 0.5664
vt 0.1895 0.625
vt 0.0996 0.6426
vt 0.1152 0.6113
vt 0.1152 0.6426
vt 0.0996 0.6113
vt 0.3105 0.5508
vt 0.2344 0.7207
s 1
f 142/49 143/50 141/51
f 190/49 191/50 189/51
f 171/52 170/53 169/54
f 151/55 148/56 147/57
f 130/58 136/59 134/60
f 156/61 158/60 154/58
f 150/49 151/50 149/51
f 130/62 133/63 129/64
f 146/62 149/63 145/64
f 158/49 159/50 157/51
f 140/61 142/60 138/58
f 148/61 150/60 146/58
f 175/55 172/56 171/57
f 137/64 142/65 141/63
f 142/49 144/66 143/50
f 147/52 146/53 145/54
f 141/67 139/68 137/69
f 139/52 138/53 137/54
f 174/49 175/50 173/51
f 178/62 181/63 177/64
f 172/61 174/60 170/58
f 165/67 163/68 161/69
f 129/69 135/70 131/68
f 145/69 151/70 147/68
f 159/55 156/56 155/57
f 167/55 164/56 163/57
f 173/67 171/68 169/69
f 157/67 155/68 153/69
f 166/49 167/50 165/51
f 163/52 162/53 161/54
f 154/62 157/63 153/64
f 182/49 183/50 181/51
f 162/62 165/63 161/64
f 131/52 130/53 129/54
f 186/62 189/63 185/64
f 170/62 173/63 169/64
f 155/52 154/53 153/54
f 135/55 132/56 131/57
f 134/49 135/50 133/51
f 143/55 140/56 139/57
f 187/52 186/53 185/54
f 179/52 178/53 177/54
f 189/67 187/68 185/69
f 181/67 179/68 177/69
f 183/55 180/56 179/57
f 180/61 182/60 178/58
f 164/61 166/60 162/58
f 191/55 188/56 187/57
f 134/49 136/66 135/50
f 159/55 160/71 156/56
f 155/52 156/72 154/53
f 189/67 191/70 187/68
f 148/61 152/59 150/60
f 140/61 144/59 142/60
f 130/58 132/61 136/59
f 135/55 136/71 132/56
f 171/52 172/72 170/53
f 157/67 159/70 155/68
f 130/62 134/65 133/63
f 150/49 152/66 151/50
f 187/52 188/72 186/53
f 151/55 152/71 148/56
f 190/49 192/66 191/50
f 179/52 180/72 178/53
f 146/62 150/65 149/63
f 156/61 160/59 158/60
f 180/61 184/59 182/60
f 173/67 175/70 171/68
f 186/62 190/65 189/63
f 139/52 140/72 138/53
f 175/55 176/71 172/56
f 158/49 160/66 159/50
f 174/49 176/66 175/50
f 147/52 148/72 146/53
f 182/49 184/66 183/50
f 137/64 138/62 142/65
f 141/67 143/70 139/68
f 178/62 182/65 181/63
f 170/62 174/65 173/63
f 183/55 184/71 180/56
f 162/62 166/65 165/63
f 143/55 144/71 140/56
f 154/62 158/65 157/63
f 131/52 132/72 130/53
f 164/61 168/59 166/60
f 181/67 183/70 179/68
f 167/55 168/71 164/56
f 166/49 168/66 167/50
f 129/69 133/67 135/70
f 191/55 192/71 188/56
f 165/67 167/70 163/68
f 145/69 149/67 151/70
f 163/52 164/72 162/53
f 188/61 192/59 190/60
f 172/61 176/59 174/60
f 188/61 190/60 186/58
o HE_Converter
v 0 1.5 1.5
v 0 1.5 -1.5
v -0.6213 0 1.5
v -0.6213 -0 -1.5
v -1.5 0.8787 1.5
v -1.5 0.8787 -1.5
v -1.5 2.1213 1.5
v -1.5 2.1213 -1.5
v -0.6213 3 1.5
v -0.6213 3 -1.5
v 0.6213 3 1.5
v 0.6213 3 -1.5
v 1.5 2.1213 1.5
v 1.5 2.1213 -1.5
v 1.5 0.8787 1.5
v 1.5 0.8787 -1.5
v 0.6213 0 1.5
v 0.6213 -0 -1.5
v -1.5 2 3.5
v -1.5 2 4.5
v -1.5 0 3.5
v -1.5 0 4.5
v -0.5 2 3.5
v -0.5 2 4.5
v -0.5 0 3.5
v -0.5 0 4.5
v 0.5 2 3.5
v 0.5 2 4.5
v 0.5 0 3.5
v 0.5 0 4.5
v 1.5 2 3.5
v 1.5 2 4.5
v 1.5 0 3.5
v 1.5 0 4.5
v 0.5 2.5 2.5
v 0.5 2.5 3.5
v 0.5 0 2.5
v 0.5 0 3.5
v 1.5 2.5 2.5
v 1.5 2.5 3.5
v 1.5 0 2.5
v 1.5 0 3.5
v -1.5 2.5 2.5
v -1.5 2.5 3.5
v -1.5 0 2.5
v -1.5 0 3.5
v -0.5 2.5 2.5
v -0.5 2.5 3.5
v -0.5 0 2.5
v -0.5 0 3.5
v -1.4375 2.75 2.8125
v -1.4375 2.75 3.1875
v -1.4375 2.5 2.8125
v -1.4375 2.5 3.1875
v -1.0625 2.75 2.8125
v -1.0625 2.75 3.1875
v -1.0625 2.5 2.8125
v -1.0625 2.5 3.1875
v -1.4375 3 2.8125
v -1.4375 3 3.1875
v -1.4375 2.875 2.8125
v -1.4375 2.875 3.1875
v -1.0625 3 2.8125
v -1.0625 3 3.1875
v -1.0625 2.875 2.8125
v -1.0625 2.875 3.1875
v -1.375 3.0625 2.875
v -1.375 3.0625 3.125
v -1.375 2.6875 2.875
v -1.375 2.6875 3.125
v -1.125 3.0625 2.875
v -1.125 3.0625 3.125
v -1.125 2.6875 2.875
v -1.125 2.6875 3.125
v -0.5 1 3.5
v -0.5 1 4.5
v -0.5 0 3.5
v -0.5 0 4.5
v 0.5 1 3.5
v 0.5 1 4.5
v 0.5 0 3.5
v 0.5 0 4.5
v -1.5 3 1.5
v -1.5 3 2.5
v -1.5 0 1.5
v -1.5 0 2.5
v 1.5 3 1.5
v 1.5 3 2.5
v 1.5 0 1.5
v 1.5 0 2.5
v 0.5625 2.25 3.8125
v 0.5625 2.25 4.1875
v 0.5625 2 3.8125
v 0.5625 2 4.1875
v 0.9375 2.25 3.8125
v 0.9375 2.25 4.1875
v 0.9375 2 3.8125
v 0.9375 2 4.1875
v -1.5 3 -2.5
v -1.5 3 -1.5
v -1.5 -0 -2.5
v -1.5 -0 -1.5
v 1.5 3 -2.5
v 1.5 3 -1.5
v 1.5 -0 -2.5
v 1.5 -0 -1.5
v -1.4375 2.9375 -1.5
v -1.4375 2.9375 1.5
v -1.4375 2.6875 -1.5
v -1.4375 2.6875 1.5
v -1.1875 2.9375 -1.5
v -1.1875 2.9375 1.5
v -1.1875 2.6875 -1.5
v -1.1875 2.6875 1.5
v -1.1875 2.6875 -0.125
v -1.1875 2.6875 0.125
v -0.5625 2.6875 -0.125
v -0.5625 2.6875 0.125
v -1.1875 2.9375 -0.125
v -1.1875 2.9375 0.125
v -0.5625 2.9375 -0.125
v -0.5625 2.9375 0.125
v -0.25 1.75 3.75
v -0.25 1.75 4.25
v -0.25 1.25 3.75
v -0.25 1.25 4.25
v 0.25 1.75 3.75
v 0.25 1.75 4.25
v 0.25 1.25 3.75
v 0.25 1.25 4.25
v -0.5 1.6875 3.8125
v -0.5 1.6875 4.1875
v -0.5 1.3125 3.8125
v -0.5 1.3125 4.1875
v -0.25 1.6875 3.8125
v -0.25 1.6875 4.1875
v -0.25 1.3125 3.8125
v -0.25 1.3125 4.1875
v 0.25 1.6875 3.8125
v 0.25 1.6875 4.1875
v 0.25 1.3125 3.8125
v 0.25 1.3125 4.1875
v 0.5 1.6875 3.8125
v 0.5 1.6875 4.1875
v 0.5 1.3125 3.8125
v 0.5 1.3125 4.1875
v -0.1875 1.25 3.8125
v -0.1875 1.25 4.1875
v -0.1875 1 3.8125
v -0.1875 1 4.1875
v 0.1875 1.25 3.8125
v 0.1875 1.25 4.1875
v 0.1875 1 3.8125
v 0.1875 1 4.1875
v -0.5 2 2.5
v -0.5 2 3.5
v -0.5 0 2.5
v -0.5 0 3.5
v 0.5 2 2.5
v 0.5 2 3.5
v 0.5 0 2.5
v 0.5 0 3.5
v -0.5 3 2.5
v -0.5 2 3.5
v -0.5 2 2.5
v 0.5 3 2.5
v 0.5 2 3.5
v 0.5 2 2.5
v -0.5 2 -4.375
v -0.625 2.125 -4
v -0.5 1 -4.375
v -0.625 0.875 -4
v 0.5 2 -4.375
v 0.625 2.125 -4
v 0.5 1 -4.375
v 0.625 0.875 -4
v 1.1875 2.9375 -1.5
v 1.1875 2.9375 1.5
v 1.1875 2.6875 -1.5
v 1.1875 2.6875 1.5
v 1.4375 2.9375 -1.5
v 1.4375 2.9375 1.5
v 1.4375 2.6875 -1.5
v 1.4375 2.6875 1.5
v -1.4375 0.3125 -1.5
v -1.4375 0.3125 1.5
v -1.4375 0.0625 -1.5
v -1.4375 0.0625 1.5
v -1.1875 0.3125 -1.5
v -1.1875 0.3125 1.5
v -1.1875 0.0625 -1.5
v -1.1875 0.0625 1.5
v 1.1875 0.3125 -1.5
v 1.1875 0.3125 1.5
v 1.1875 0.0625 -1.5
v 1.1875 0.0625 1.5
v 1.4375 0.3125 -1.5
v 1.4375 0.3125 1.5
v 1.4375 0.0625 -1.5
v 1.4375 0.0625 1.5
v -1.4375 2.6875 -0.125
v -1.4375 2.6875 0.125
v -1.4375 2.0625 -0.125
v -1.4375 2.0625 0.125
v -1.1875 2.6875 -0.125
v -1.1875 2.6875 0.125
v -1.1875 2.0625 -0.125
v -1.1875 2.0625 0.125
v -1.4375 0.9375 -0.125
v -1.4375 0.9375 0.125
v -1.4375 0.3125 -0.125
v -1.4375 0.3125 0.125
v -1.1875 0.9375 -0.125
v -1.1875 0.9375 0.125
v -1.1875 0.3125 -0.125
v -1.1875 0.3125 0.125
v -1.1875 0.0625 -0.125
v -1.1875 0.0625 0.125
v -0.5625 0.0625 -0.125
v -0.5625 0.0625 0.125
v -1.1875 0.3125 -0.125
v -1.1875 0.3125 0.125
v -0.5625 0.3125 -0.125
v -0.5625 0.3125 0.125
v 1.1875 2.6875 -0.125
v 1.1875 2.6875 0.125
v 1.1875 2.0625 -0.125
v 1.1875 2.0625 0.125
v 1.4375 2.6875 -0.125
v 1.4375 2.6875 0.125
v 1.4375 2.0625 -0.125
v 1.4375 2.0625 0.125
v 1.1875 0.9375 -0.125
v 1.1875 0.9375 0.125
v 1.1875 0.3125 -0.125
v 1.1875 0.3125 0.125
v 1.4375 0.9375 -0.125
v 1.4375 0.9375 0.125
v 1.4375 0.3125 -0.125
v 1.4375 0.3125 0.125
v 1.1875 2.9375 -0.125
v 1.1875 2.9375 0.125
v 0.5625 2.9375 -0.125
v 0.5625 2.9375 0.125
v 1.1875 2.6875 -0.125
v 1.1875 2.6875 0.125
v 0.5625 2.6875 -0.125
v 0.5625 2.6875 0.125
v 1.1875 0.3125 -0.125
v 1.1875 0.3125 0.125
v 0.5625 0.3125 -0.125
v 0.5625 0.3125 0.125
v 1.1875 0.0625 -0.125
v 1.1875 0.0625 0.125
v 0.5625 0.0625 -0.125
v 0.5625 0.0625 0.125
v -1.4375 2.6875 1.25
v -1.4375 2.6875 1.5
v -1.4375 2.0625 1.25
v -1.4375 2.0625 1.5
v -1.1875 2.6875 1.25
v -1.1875 2.6875 1.5
v -1.1875 2.0625 1.25
v -1.1875 2.0625 1.5
v -1.4375 0.9375 1.25
v -1.4375 0.9375 1.5
v -1.4375 0.3125 1.25
v -1.4375 0.3125 1.5
v -1.1875 0.9375 1.25
v -1.1875 0.9375 1.5
v -1.1875 0.3125 1.25
v -1.1875 0.3125 1.5
v -1.1875 0.0625 1.25
v -1.1875 0.0625 1.5
v -0.5625 0.0625 1.25
v -0.5625 0.0625 1.5
v -1.1875 0.3125 1.25
v -1.1875 0.3125 1.5
v -0.5625 0.3125 1.25
v -0.5625 0.3125 1.5
v 1.1875 0.3125 1.25
v 1.1875 0.3125 1.5
v 0.5625 0.3125 1.25
v 0.5625 0.3125 1.5
v 1.1875 0.0625 1.25
v 1.1875 0.0625 1.5
v 0.5625 0.0625 1.25
v 0.5625 0.0625 1.5
v 1.1875 0.9375 1.25
v 1.1875 0.9375 1.5
v 1.1875 0.3125 1.25
v 1.1875 0.3125 1.5
v 1.4375 0.9375 1.25
v 1.4375 0.9375 1.5
v 1.4375 0.3125 1.25
v 1.4375 0.3125 1.5
v 1.1875 2.6875 1.25
v 1.1875 2.6875 1.5
v 1.1875 2.0625 1.25
v 1.1875 2.0625 1.5
v 1.4375 2.6875 1.25
v 1.4375 2.6875 1.5
v 1.4375 2.0625 1.25
v 1.4375 2.0625 1.5
v 1.1875 2.9375 1.25
v 1.1875 2.9375 1.5
v 0.5625 2.9375 1.25
v 0.5625 2.9375 1.5
v 1.1875 2.6875 1.25
v 1.1875 2.6875 1.5
v 0.5625 2.6875 1.25
v 0.5625 2.6875 1.5
v -1.1875 2.6875 1.25
v -1.1875 2.6875 1.5
v -0.5625 2.6875 1.25
v -0.5625 2.6875 1.5
v -1.1875 2.9375 1.25
v -1.1875 2.9375 1.5
v -0.5625 2.9375 1.25
v -0.5625 2.9375 1.5
v -1.4375 2.6875 -1.5
v -1.4375 2.6875 -1.25
v -1.4375 2.0625 -1.5
v -1.4375 2.0625 -1.25
v -1.1875 2.6875 -1.5
v -1.1875 2.6875 -1.25
v -1.1875 2.0625 -1.5
v -1.1875 2.0625 -1.25
v -1.4375 0.9375 -1.5
v -1.4375 0.9375 -1.25
v -1.4375 0.3125 -1.5
v -1.4375 0.3125 -1.25
v -1.1875 0.9375 -1.5
v -1.1875 0.9375 -1.25
v -1.1875 0.3125 -1.5
v -1.1875 0.3125 -1.25
v -1.1875 0.0625 -1.5
v -1.1875 0.0625 -1.25
v -0.5625 0.0625 -1.5
v -0.5625 0.0625 -1.25
v -1.1875 0.3125 -1.5
v -1.1875 0.3125 -1.25
v -0.5625 0.3125 -1.5
v -0.5625 0.3125 -1.25
v 1.1875 0.3125 -1.5
v 1.1875 0.3125 -1.25
v 0.5625 0.3125 -1.5
v 0.5625 0.3125 -1.25
v 1.1875 0.0625 -1.5
v 1.1875 0.0625 -1.25
v 0.5625 0.0625 -1.5
v 0.5625 0.0625 -1.25
v 1.1875 0.9375 -1.5
v 1.1875 0.9375 -1.25
v 1.1875 0.3125 -1.5
v 1.1875 0.3125 -1.25
v 1.4375 0.9375 -1.5
v 1.4375 0.9375 -1.25
v 1.4375 0.3125 -1.5
v 1.4375 0.3125 -1.25
v 1.1875 2.6875 -1.5
v 1.1875 2.6875 -1.25
v 1.1875 2.0625 -1.5
v 1.1875 2.0625 -1.25
v 1.4375 2.6875 -1.5
v 1.4375 2.6875 -1.25
v 1.4375 2.0625 -1.5
v 1.4375 2.0625 -1.25
v 1.1875 2.9375 -1.5
v 1.1875 2.9375 -1.25
v 0.5625 2.9375 -1.5
v 0.5625 2.9375 -1.25
v 1.1875 2.6875 -1.5
v 1.1875 2.6875 -1.25
v 0.5625 2.6875 -1.5
v 0.5625 2.6875 -1.25
v -1.1875 2.6875 -1.5
v -1.1875 2.6875 -1.25
v -0.5625 2.6875 -1.5
v -0.5625 2.6875 -1.25
v -1.1875 2.9375 -1.5
v -1.1875 2.9375 -1.25
v -0.5625 2.9375 -1.5
v -0.5625 2.9375 -1.25
v -0.9375 3 2.8125
v -0.9375 3 3.1875
v -0.9375 2.875 2.8125
v -0.9375 2.875 3.1875
v -0.5625 3 2.8125
v -0.5625 3 3.1875
v -0.5625 2.875 2.8125
v -0.5625 2.875 3.1875
v -0.875 3.0625 2.875
v -0.875 3.0625 3.125
v -0.875 2.6875 2.875
v -0.875 2.6875 3.125
v -0.625 3.0625 2.875
v -0.625 3.0625 3.125
v -0.625 2.6875 2.875
v -0.625 2.6875 3.125
v -0.9375 2.75 2.8125
v -0.9375 2.75 3.1875
v -0.9375 2.5 2.8125
v -0.9375 2.5 3.1875
v -0.5625 2.75 2.8125
v -0.5625 2.75 3.1875
v -0.5625 2.5 2.8125
v -0.5625 2.5 3.1875
v 1.0625 2.75 2.8125
v 1.0625 2.75 3.1875
v 1.0625 2.5 2.8125
v 1.0625 2.5 3.1875
v 1.4375 2.75 2.8125
v 1.4375 2.75 3.1875
v 1.4375 2.5 2.8125
v 1.4375 2.5 3.1875
v 1.0625 3 2.8125
v 1.0625 3 3.1875
v 1.0625 2.875 2.8125
v 1.0625 2.875 3.1875
v 1.4375 3 2.8125
v 1.4375 3 3.1875
v 1.4375 2.875 2.8125
v 1.4375 2.875 3.1875
v 1.125 3.0625 2.875
v 1.125 3.0625 3.125
v 1.125 2.6875 2.875
v 1.125 2.6875 3.125
v 1.375 3.0625 2.875
v 1.375 3.0625 3.125
v 1.375 2.6875 2.875
v 1.375 2.6875 3.125
v 0.625 3.0625 2.875
v 0.625 3.0625 3.125
v 0.625 2.6875 2.875
v 0.625 2.6875 3.125
v 0.875 3.0625 2.875
v 0.875 3.0625 3.125
v 0.875 2.6875 2.875
v 0.875 2.6875 3.125
v 0.5625 3 2.8125
v 0.5625 3 3.1875
v 0.5625 2.875 2.8125
v 0.5625 2.875 3.1875
v 0.9375 3 2.8125
v 0.9375 3 3.1875
v 0.9375 2.875 2.8125
v 0.9375 2.875 3.1875
v 0.5625 2.75 2.8125
v 0.5625 2.75 3.1875
v 0.5625 2.5 2.8125
v 0.5625 2.5 3.1875
v 0.9375 2.75 2.8125
v 0.9375 2.75 3.1875
v 0.9375 2.5 2.8125
v 0.9375 2.5 3.1875
v -0.875 2.5625 3.875
v -0.875 2.5625 4.125
v -0.875 2.1875 3.875
v -0.875 2.1875 4.125
v -0.625 2.5625 3.875
v -0.625 2.5625 4.125
v -0.625 2.1875 3.875
v -0.625 2.1875 4.125
v -0.9375 2.5 3.8125
v -0.9375 2.5 4.1875
v -0.9375 2.375 3.8125
v -0.9375 2.375 4.1875
v -0.5625 2.5 3.8125
v -0.5625 2.5 4.1875
v -0.5625 2.375 3.8125
v -0.5625 2.375 4.1875
v -1.375 2.5625 3.875
v -1.375 2.5625 4.125
v -1.375 2.1875 3.875
v -1.375 2.1875 4.125
v -1.125 2.5625 3.875
v -1.125 2.5625 4.125
v -1.125 2.1875 3.875
v -1.125 2.1875 4.125
v -1.4375 2.5 3.8125
v -1.4375 2.5 4.1875
v -1.4375 2.375 3.8125
v -1.4375 2.375 4.1875
v -1.0625 2.5 3.8125
v -1.0625 2.5 4.1875
v -1.0625 2.375 3.8125
v -1.0625 2.375 4.1875
v -1.4375 2.25 3.8125
v -1.4375 2.25 4.1875
v -1.4375 2 3.8125
v -1.4375 2 4.1875
v -1.0625 2.25 3.8125
v -1.0625 2.25 4.1875
v -1.0625 2 3.8125
v -1.0625 2 4.1875
v -0.9375 2.25 3.8125
v -0.9375 2.25 4.1875
v -0.9375 2 3.8125
v -0.9375 2 4.1875
v -0.5625 2.25 3.8125
v -0.5625 2.25 4.1875
v -0.5625 2 3.8125
v -0.5625 2 4.1875
v 1.0625 2.25 3.8125
v 1.0625 2.25 4.1875
v 1.0625 2 3.8125
v 1.0625 2 4.1875
v 1.4375 2.25 3.8125
v 1.4375 2.25 4.1875
v 1.4375 2 3.8125
v 1.4375 2 4.1875
v 1.0625 2.5 3.8125
v 1.0625 2.5 4.1875
v 1.0625 2.375 3.8125
v 1.0625 2.375 4.1875
v 1.4375 2.5 3.8125
v 1.4375 2.5 4.1875
v 1.4375 2.375 3.8125
v 1.4375 2.375 4.1875
v 1.125 2.5625 3.875
v 1.125 2.5625 4.125
v 1.125 2.1875 3.875
v 1.125 2.1875 4.125
v 1.375 2.5625 3.875
v 1.375 2.5625 4.125
v 1.375 2.1875 3.875
v 1.375 2.1875 4.125
v 0.625 2.5625 3.875
v 0.625 2.5625 4.125
v 0.625 2.1875 3.875
v 0.625 2.1875 4.125
v 0.875 2.5625 3.875
v 0.875 2.5625 4.125
v 0.875 2.1875 3.875
v 0.875 2.1875 4.125
v 0.5625 2.5 3.8125
v 0.5625 2.5 4.1875
v 0.5625 2.375 3.8125
v 0.5625 2.375 4.1875
v 0.9375 2.5 3.8125
v 0.9375 2.5 4.1875
v 0.9375 2.375 3.8125
v 0.9375 2.375 4.1875
v -0.75 1.1893 1.5
v -0.3107 0.75 1.5
v -0.6213 0 0
v -0.3107 0.75 -1.5
v -0.75 1.1893 -1.5
v -0.75 1.8107 1.5
v -1.5 0.8787 -0
v -0.75 1.8107 -1.5
v -0.3107 2.25 1.5
v -1.5 2.1213 -0
v -0.3107 2.25 -1.5
v 0.3107 2.25 1.5
v -0.6213 3 -0
v 0.3107 2.25 -1.5
v 0.75 1.8107 1.5
v 0.6213 3 -0
v 0.75 1.8107 -1.5
v 0.75 1.1893 1.5
v 1.5 2.1213 -0
v 0.75 1.1893 -1.5
v 0.3107 0.75 1.5
v 1.5 0.8787 -0
v 0.3107 0.75 -1.5
v 0.6213 0 0
v -1.5 1 4.5
v -0.5 1 3.5
v -1.5 1 3.5
v -0.5 1 4.5
v 0.5 1 4.5
v 1.5 1 3.5
v 0.5 1 3.5
v 1.5 1 4.5
v 0.5 1.25 3.5
v 1.5 1.25 2.5
v 0.5 1.25 2.5
v 1.5 1.25 3.5
v -1.5 1.25 3.5
v -0.5 1.25 2.5
v -1.5 1.25 2.5
v -0.5 1.25 3.5
v -1.5 1.5 2.5
v 1.5 1.5 1.5
v 0 3 1.5
v 0 0 2.5
v -1.5 1.5 1.5
v 0 0 1.5
v 0 3 2.5
v 1.5 1.5 2.5
v -1.5 1.5 -1.5
v 1.5 1.5 -2.5
v 0 3 -2.5
v 0 -0 -1.5
v -1.5 1.5 -2.5
v 0 -0 -2.5
v 0 3 -1.5
v 1.5 1.5 -1.5
v -1.4375 2.9375 -0
v -1.1875 2.6875 -0
v -1.1875 2.9375 -0
v -1.4375 2.6875 -0
v -0.5 1 3.5
v 0.5 1 2.5
v -0.5 1 2.5
v 0.5 1 3.5
v 1.1875 2.9375 -0
v 1.4375 2.6875 -0
v 1.4375 2.9375 -0
v 1.1875 2.6875 -0
v -1.4375 0.3125 -0
v -1.1875 0.0625 -0
v -1.1875 0.3125 -0
v -1.4375 0.0625 -0
v 1.1875 0.3125 -0
v 1.4375 0.0625 -0
v 1.4375 0.3125 -0
v 1.1875 0.0625 -0
v 0 1.5 2.5
v 0 1.5 -1.5
v 0 1.5 1.5
v 0 1.5 -2.5
v -0.6213 -0 -0.75
v -1.5 0.8787 -0.75
v -1.5 2.1213 -0.75
v -0.6213 3 -0.75
v 0.6213 3 -0.75
v -1.5 0.8787 0.75
v 1.5 2.1213 -0.75
v 1.5 0.8787 -0.75
v 0.6213 -0 -0.75
v -1.5 0.75 2.5
v 1.5 0.75 1.5
v 0.75 3 1.5
v 0.75 0 2.5
v -1.5 0.75 1.5
v 0.75 0 1.5
v 0.75 3 2.5
v 1.5 0.75 2.5
v -1.5 0.75 -1.5
v 1.5 0.75 -2.5
v 0.75 3 -2.5
v 0.75 -0 -1.5
v -1.5 0.75 -2.5
v 0.75 -0 -2.5
v 0.75 3 -1.5
v 1.5 0.75 -1.5
v -1.4375 2.9375 0.75
v -1.1875 2.6875 0.75
v -1.1875 2.9375 0.75
v -1.4375 2.6875 0.75
v -0.75 1.5 -2.5
v -0.6213 0 0.75
v 1.1875 2.9375 0.75
v 1.4375 2.6875 0.75
v 1.4375 2.9375 0.75
v 1.1875 2.6875 0.75
v 1.4375 2.9375 -0.75
v -1.4375 0.3125 0.75
v -1.1875 0.0625 0.75
v -1.1875 0.3125 0.75
v -1.4375 0.0625 0.75
v 1.1875 0.3125 0.75
v 1.4375 0.0625 0.75
v 1.4375 0.3125 0.75
v 1.1875 0.0625 0.75
v 0 2.25 2.5
v 0.75 1.5 1.5
v 1.5 2.25 -2.5
v -0.75 1.5 1.5
v -0.75 3 -2.5
v 0 0.75 -2.5
v 0 2.25 -2.5
v -0.75 -0 -1.5
v 0.75 1.5 -2.5
v -1.5 2.25 -2.5
v -0.75 -0 -2.5
v -0.75 3 -1.5
v 1.5 2.25 -1.5
v -1.4375 2.9375 -0.75
v -1.1875 2.6875 -0.75
v -0.6213 3 0.75
v -1.1875 2.9375 -0.75
v -1.4375 2.6875 -0.75
v 1.4375 2.6875 -0.75
v 1.1875 2.6875 -0.75
v -1.4375 0.3125 -0.75
v -1.1875 0.0625 -0.75
v 1.1875 2.9375 -0.75
v -1.1875 0.3125 -0.75
v -1.4375 0.0625 -0.75
v 1.1875 0.3125 -0.75
v 1.4375 0.0625 -0.75
v 1.4375 0.3125 -0.75
v 1.1875 0.0625 -0.75
v 0.75 1.5 2.5
v -0.75 1.5 2.5
v 0 0.75 2.5
v 0.75 1.5 -1.5
v -0.75 1.5 -1.5
v 0 2.25 -1.5
v -1.5 2.25 2.5
v 0 0.75 -1.5
v 1.5 2.25 1.5
v -0.75 3 1.5
v -0.75 0 2.5
v -1.5 2.25 1.5
v -0.75 0 1.5
v 1.5 0.8787 0.75
v 0.6213 3 0.75
v 1.5 2.1213 0.75
v -0.75 3 2.5
v 0 0.75 1.5
v 0 2.25 1.5
v 1.5 2.25 2.5
v -1.5 2.25 -1.5
v 0.6213 0 0.75
v -1.5 2.1213 0.75
v -0.75 2.25 1.5
v -0.75 0.75 1.5
v 0.75 2.25 1.5
v 0.75 2.25 -2.5
v -0.75 2.25 -2.5
v -0.75 0.75 -2.5
v 0.75 2.25 -1.5
v -0.75 0.75 2.5
v -0.75 2.25 2.5
v -0.75 2.25 -1.5
v -0.75 0.75 -1.5
v 0.75 0.75 2.5
v 0.75 0.75 -1.5
v 0.75 0.75 1.5
v 0.75 0.75 -2.5
v 0.75 2.25 2.5
vt 0.0703 0.9628
vt 0.0566 0.9766
vt 0.0469 0.9531
vt 0.2969 0.9766
vt 0.2578 1
vt 0.2578 0.9766
vt 0.1249 0.8594
vt 0.1387 0.8731
vt 0.1152 0.8828
vt 0.0703 0.9434
vt 0.2852 0.8086
vt 0.2461 0.7852
vt 0.2852 0.7852
vt 0.1387 0.8925
vt 0.0566 0.9297
vt 0 0.8359
vt 0.0117 0.8398
vt 0 0.8398
vt 0.1249 0.9062
vt 0.0372 0.9297
vt 0.4082 0.9004
vt 0.416 0.8926
vt 0.416 0.9004
vt 0.1055 0.9062
vt 0.0234 0.9434
vt 0.123 0.6973
vt 0.1309 0.7168
vt 0.123 0.7168
vt 0.0918 0.8925
vt 0.0234 0.9628
vt 0.0391 0.7383
vt 0 0.7148
vt 0.0391 0.7148
vt 0.0918 0.8731
vt 0.0372 0.9766
vt 0.2031 0.8633
vt 0.168 0.8516
vt 0.1992 0.8516
vt 0.1055 0.8594
vt 0.1094 0.9355
vt 0.1211 0.9316
vt 0.1211 0.9355
vt 0.0664 0.8496
vt 0.0781 0.8379
vt 0.0781 0.8496
vt 0.3418 0.8535
vt 0.3496 0.8418
vt 0.3496 0.8535
vt 0.123 0.6953
vt 0.1348 0.6836
vt 0.1348 0.6953
vt 0.248 0.5938
vt 0.2402 0.5859
vt 0.248 0.5859
vt 0.2188 0.8574
vt 0.2305 0.8496
vt 0.2305 0.8574
vt 0.1133 0.5879
vt 0.1211 0.5957
vt 0.1133 0.5957
vt 0.207 0.6289
vt 0.2148 0.6211
vt 0.2148 0.6289
vt 0.2363 0.752
vt 0.2441 0.7324
vt 0.2441 0.752
vt 0.123 0.7383
vt 0.1309 0.7188
vt 0.1309 0.7383
vt 0.3477 0.6934
vt 0.3594 0.6816
vt 0.3594 0.6934
vt 0.3867 0.8066
vt 0.418 0.8379
vt 0.3867 0.8379
vt 0.1523 0.916
vt 0.1602 0.9355
vt 0.1523 0.9355
vt 0.4199 0.8027
vt 0.4512 0.834
vt 0.4199 0.834
vt 0.4199 0.7246
vt 0.4434 0.7168
vt 0.4434 0.7246
vt 0.3418 0.8145
vt 0.3496 0.8262
vt 0.3418 0.8262
vt 0 0.918
vt 0.0117 0.9062
vt 0.0117 0.918
vt 0.3223 0.9668
vt 0.2988 0.9355
vt 0.3223 0.9355
vt 0.123 0.6602
vt 0.1348 0.668
vt 0.123 0.668
vt 0.2402 0.6035
vt 0.248 0.5957
vt 0.248 0.6035
vt 0.166 0.5605
vt 0.1816 0.5762
vt 0.166 0.5762
vt 0.207 0.6426
vt 0.2148 0.6309
vt 0.2148 0.6426
vt 0.2148 0.6562
vt 0.207 0.6445
vt 0.2148 0.6445
vt 0.418 0.6387
vt 0.4492 0.6074
vt 0.4492 0.6387
vt 0.1133 0.5977
vt 0.1211 0.6094
vt 0.1133 0.6094
vt 0.2637 0.584
vt 0.2559 0.5605
vt 0.2637 0.5605
vt 0.3848 0.6621
vt 0.416 0.6309
vt 0.416 0.6621
vt 0.2051 0.8496
vt 0.2168 0.8574
vt 0.2051 0.8574
vt 0.2988 1
vt 0.3223 0.9688
vt 0.3223 1
vt 0.3535 0.6953
vt 0.3848 0.7344
vt 0.3535 0.7344
vt 0 0.5703
vt 0.0117 0.5781
vt 0 0.5781
vt 0.2324 0.8574
vt 0.2441 0.8496
vt 0.2441 0.8574
vt 0.2656 0.5137
vt 0.2734 0.4902
vt 0.2734 0.5137
vt 0.1211 0.7383
vt 0.082 0.7148
vt 0.1211 0.7148
vt 0.2168 0.752
vt 0.1777 0.7285
vt 0.2168 0.7285
vt 0.4902 0.7266
vt 0.5137 0.7344
vt 0.4902 0.7344
vt 0 0.5801
vt 0.0312 0.6113
vt 0 0.6113
vt 0.418 0.7383
vt 0.3867 0.707
vt 0.418 0.707
vt 0.4082 0.8926
vt 0.0801 0.7383
vt 0.041 0.7148
vt 0.0801 0.7148
vt 0 0.8418
vt 0.0312 0.873
vt 0 0.873
vt 0.2988 0.9082
vt 0.3105 0.9199
vt 0.2988 0.9199
vt 0.1758 0.752
vt 0.1367 0.7285
vt 0.1758 0.7285
vt 0.418 0.5723
vt 0.4336 0.5566
vt 0.4336 0.5723
vt 0.0664 0.6113
vt 0.0977 0.5801
vt 0.0977 0.6113
vt 0.3418 0.8555
vt 0.373 0.8945
vt 0.3418 0.8945
vt 0.123 0.9355
vt 0.1348 0.9316
vt 0.1348 0.9355
vt 0.3711 0.6816
vt 0.3789 0.6934
vt 0.3711 0.6934
vt 0.418 0.7051
vt 0.4492 0.6738
vt 0.4492 0.7051
vt 0.418 0.8047
vt 0.3867 0.7734
vt 0.418 0.7734
vt 0.4199 0.7148
vt 0.4316 0.707
vt 0.4316 0.7148
vt 0.2402 0.6172
vt 0.248 0.6055
vt 0.248 0.6172
vt 0.4082 0.9336
vt 0.4395 0.9023
vt 0.4395 0.9336
vt 0.4258 0.9668
vt 0.3945 0.9355
vt 0.4258 0.9355
vt 0.4004 0.7051
vt 0.4121 0.6973
vt 0.4121 0.7051
vt 0.3418 0.8398
vt 0.3496 0.8281
vt 0.3496 0.8398
vt 0.1562 0.6172
vt 0.1875 0.5781
vt 0.1875 0.6172
vt 0.3535 0.7754
vt 0.3848 0.8145
vt 0.3535 0.8145
vt 0.0332 0.873
vt 0.0645 0.8418
vt 0.0645 0.873
vt 0.4199 0.7676
vt 0.4512 0.7363
vt 0.4512 0.7676
vt 0.4199 0.9004
vt 0.4512 0.8691
vt 0.4512 0.9004
vt 0.2539 0.584
vt 0.2227 0.5527
vt 0.2539 0.5527
vt 0.0996 0.5977
vt 0.0996 0.5664
vt 0.1309 0.5664
vt 0.0312 0.5781
vt 0 0.5469
vt 0.0312 0.5469
vt 0.0332 0.5781
vt 0.0645 0.5469
vt 0.0645 0.5781
vt 0.2188 0.6426
vt 0.25 0.6191
vt 0.25 0.6426
vt 0.2324 0.9531
vt 0.2559 0.9766
vt 0.2324 0.9766
vt 0.1367 0.832
vt 0.1484 0.7969
vt 0.1484 0.8359
vt 0.3027 0.9336
vt 0.3379 0.9219
vt 0.334 0.9336
vt 0.1484 0.791
vt 0.1367 0.7559
vt 0.1484 0.7598
vt 0.1895 0.5547
vt 0.2207 0.5859
vt 0.1895 0.5859
vt 0.0957 0.9688
vt 0.127 0.9375
vt 0.127 0.9688
vt 0.3516 0.5684
vt 0.3828 0.6074
vt 0.3516 0.6074
vt 0.3184 0.6074
vt 0.3496 0.5684
vt 0.3496 0.6074
vt 0.123 0.6172
vt 0.1543 0.5781
vt 0.1543 0.6172
vt 0.0117 1
vt 0 0.9883
vt 0.0117 0.9883
vt 0.0332 0.6113
vt 0.0645 0.5801
vt 0.0645 0.6113
vt 0.3203 0.7148
vt 0.3516 0.7383
vt 0.3203 0.7383
vt 0.2363 0.7188
vt 0.2441 0.7305
vt 0.2363 0.7305
vt 0 0.7637
vt 0.0234 0.7402
vt 0.0234 0.7637
vt 0.2852 0.6797
vt 0.3086 0.6484
vt 0.3086 0.6797
vt 0.3867 0.7715
vt 0.418 0.7402
vt 0.418 0.7715
vt 0.3945 1
vt 0.4258 0.9688
vt 0.4258 1
vt 0.1484 0.9355
vt 0.1406 0.9277
vt 0.1484 0.9277
vt 0.0957 0.9316
vt 0.1074 0.9355
vt 0.0957 0.9355
vt 0.2402 0.5938
vt 0.0938 1
vt 0.082 0.9883
vt 0.0938 0.9883
vt 0.375 0.8711
vt 0.4062 0.9023
vt 0.375 0.9023
vt 0.4434 0.9824
vt 0.4277 0.9668
vt 0.4434 0.9668
vt 0.4277 1
vt 0.4434 0.9844
vt 0.4434 1
vt 0.1289 0.9375
vt 0.1602 0.9688
vt 0.1289 0.9688
vt 0.4492 0.6055
vt 0.418 0.5742
vt 0.4492 0.5742
vt 0.3613 0.6934
vt 0.3691 0.6816
vt 0.3691 0.6934
vt 0.1035 0.6094
vt 0.1113 0.5977
vt 0.1113 0.6094
vt 0.3828 0.8691
vt 0.375 0.8574
vt 0.3828 0.8574
vt 0.418 0.6406
vt 0.4492 0.6719
vt 0.418 0.6719
vt 0.3379 0.9199
vt 0.3262 0.9082
vt 0.3379 0.9082
vt 0.3867 0.6973
vt 0.3984 0.7051
vt 0.3867 0.7051
vt 0.1641 0.8652
vt 0.2031 0.9043
vt 0.1641 0.9043
vt 0.1504 0.7773
vt 0.1738 0.7539
vt 0.1738 0.7773
vt 0.4199 0.8672
vt 0.4512 0.8359
vt 0.4512 0.8672
vt 0.3848 0.5977
vt 0.416 0.5664
vt 0.416 0.5977
vt 0.4512 0.8008
vt 0.4199 0.7695
vt 0.4512 0.7695
vt 0.2871 0.7148
vt 0.3184 0.7383
vt 0.2871 0.7383
vt 0.2754 0.7129
vt 0.252 0.6816
vt 0.2754 0.6816
vt 0.0664 0.5781
vt 0.0977 0.5469
vt 0.0977 0.5781
vt 0.2051 0.8594
vt 0.2363 0.9043
vt 0.2051 0.9043
vt 0.1348 0.834
vt 0.0957 0.8105
vt 0.1348 0.8105
vt 0.1328 0.5762
vt 0.1641 0.5449
vt 0.1641 0.5762
vt 0.2852 0.6074
vt 0.3164 0.5684
vt 0.3164 0.6074
vt 0.252 0.6094
vt 0.2832 0.5859
vt 0.2832 0.6094
vt 0.3164 0.8105
vt 0.3398 0.834
vt 0.3164 0.834
vt 0.2754 0.5508
vt 0.291 0.5664
vt 0.2754 0.5664
vt 0.4277 0.9648
vt 0.4434 0.9492
vt 0.4434 0.9648
vt 0.123 0.6816
vt 0.1348 0.6699
vt 0.1348 0.6816
vt 0.2324 0.9062
vt 0.2559 0.9297
vt 0.2324 0.9297
vt 0.3125 0.9082
vt 0.3242 0.9199
vt 0.3125 0.9199
vt 0.2695 0.8105
vt 0.293 0.834
vt 0.2695 0.834
vt 0.4668 0.7246
vt 0.4902 0.7168
vt 0.4902 0.7246
vt 0.2656 0.4902
vt 0.1602 0.916
vt 0.252 0.6562
vt 0.2832 0.6328
vt 0.2832 0.6562
vt 0.2695 0.8574
vt 0.293 0.8809
vt 0.2695 0.8809
vt 0.1309 0.6973
vt 0.2363 0.7324
vt 0.5137 0.7266
vt 0.375 0.8691
vt 0.418 0.6074
vt 0.2402 0.5957
vt 0.3613 0.6816
vt 0.0332 0.8418
vt 0.3945 0.9668
vt 0.2559 0.584
vt 0.1211 0.5879
vt 0.4199 0.7168
vt 0.418 0.5566
vt 0.3477 0.6816
vt 0.207 0.6211
vt 0.1406 0.9355
vt 0.2988 0.9668
vt 0.2168 0.8496
vt 0 0.9062
vt 0.123 0.6836
vt 0.3105 0.9082
vt 0.4199 0.707
vt 0.2559 0.9531
vt 0.2227 0.584
vt 0.418 0.6738
vt 0.2441 0.7188
vt 0.3418 0.8418
vt 0.418 0.8066
vt 0.1816 0.5605
vt 0.2188 0.8496
vt 0.0469 0.834
vt 0.0703 0.8105
vt 0.0703 0.834
vt 0.3848 0.6953
vt 0.123 0.7188
vt 0.1348 0.6602
vt 0.1074 0.9316
vt 0.3496 0.8145
vt 0.3418 0.8281
vt 0.3789 0.6816
vt 0.4199 0.8691
vt 0.2988 0.9219
vt 0.4199 0.7363
vt 0.4082 0.9023
vt 0.2324 0.8496
vt 0.3516 0.7148
vt 0 1
vt 0.123 0.9316
vt 0.3184 0.5684
vt 0.207 0.6562
vt 0.418 0.6055
vt 0.0664 0.8379
vt 0.0117 0.8359
vt 0.2852 0.7383
vt 0.2461 0.7148
vt 0.2852 0.7148
vt 0.4512 0.8027
vt 0.1348 0.7637
vt 0.0957 0.7402
vt 0.1348 0.7402
vt 0.3926 0.9668
vt 0.3691 0.9355
vt 0.3926 0.9355
vt 0 0.834
vt 0.0234 0.8105
vt 0.0234 0.834
vt 0.0117 0.5703
vt 0.0469 0.7871
vt 0.0703 0.7637
vt 0.0703 0.7871
vt 0.1855 0.9531
vt 0.209 0.9766
vt 0.1855 0.9766
vt 0.1855 0.9062
vt 0.209 0.9297
vt 0.1855 0.9297
vt 0.3164 0.8574
vt 0.3398 0.8809
vt 0.3164 0.8809
vt 0.2656 0.5605
vt 0.2734 0.5371
vt 0.2734 0.5605
vt 0.1211 0.5977
vt 0.5137 0.7168
vt 0.5137 0.7246
vt 0.2969 0.9531
vt 0.2578 0.9531
vt 0.1094 0.9316
vt 0.3867 0.7383
vt 0 0.9337
vt 0 0.9725
vt 0.082 0.7383
vt 0.1621 0.9766
vt 0.1855 1
vt 0.1621 1
vt 0.373 0.8555
vt 0.2461 0.8574
vt 0.2461 0.8809
vt 0.0312 0.8418
vt 0.2402 0.6055
vt 0.2461 0.834
vt 0.4004 0.6973
vt 0.3848 0.7754
vt 0.1562 0.5781
vt 0.209 0.9062
vt 0.3867 0.8047
vt 0.2188 0.6191
vt 0.0332 0.5469
vt 0.293 0.8105
vt 0.1367 0.8008
vt 0.2207 0.5547
vt 0.4668 0.7266
vt 0.4668 0.7344
vt 0.2461 0.8105
vt 0.2988 0.7129
vt 0.2988 0.6816
vt 0.1504 0.8008
vt 0.1738 0.8008
vt 0.3828 0.5684
vt 0.0234 0.7871
vt 0.0469 0.7637
vt 0 0.7402
vt 0.3867 0.7402
vt 0.2656 0.5371
vt 0.3184 0.7617
vt 0.2871 0.7617
vt 0.2188 0.666
vt 0.25 0.666
vt 0.082 1
vt 0.4277 0.9824
vt 0.3457 0.9668
vt 0.3457 0.9355
vt 0.1367 0.7051
vt 0.1758 0.7051
vt 0.0938 0.9725
vt 0.293 0.8574
vt 0.1035 0.5977
vt 0.2656 0.584
vt 0.2734 0.584
vt 0.2969 0.9297
vt 0.2578 0.9062
vt 0.2969 0.9062
vt 0.2188 0.7129
vt 0.25 0.6895
vt 0.25 0.7129
vt 0.2637 0.5371
vt 0.2559 0.5137
vt 0.2637 0.5137
vt 0.1504 0.8477
vt 0.1738 0.8242
vt 0.1738 0.8477
vt 0.2969 1
vt 0.1211 0.6914
vt 0.082 0.668
vt 0.1211 0.668
vt 0.0391 0.668
vt 0 0.6445
vt 0.0391 0.6445
vt 0.4199 0.7266
vt 0.4434 0.7344
vt 0.4199 0.7344
vt 0.0703 0.7402
vt 0.3848 0.7734
vt 0.3535 0.7734
vt 0.2559 0.4902
vt 0.2637 0.4902
vt 0.3203 0.7852
vt 0.3516 0.8086
vt 0.3203 0.8086
vt 0.3457 1
vt 0.3691 0.9688
vt 0.3691 1
vt 0.0469 0.8105
vt 0.2852 0.6465
vt 0.3164 0.6465
vt 0.2207 0.8008
vt 0.2441 0.7773
vt 0.2441 0.8008
vt 0.3848 0.6934
vt 0.416 0.6934
vt 0 0.8105
vt 0.0938 0.7871
vt 0.0938 0.8105
vt 0.207 0.6309
vt 0.0938 0.834
vt 0.3691 0.9668
vt 0.3203 0.7617
vt 0.3516 0.7852
vt 0.3926 0.9688
vt 0.3926 1
vt 0.0938 0.7402
vt 0.0938 0.7637
vt 0.3848 0.6309
vt 0.418 0.8691
vt 0.3867 0.8691
vt 0.0332 0.6426
vt 0.0645 0.6426
vt 0.2988 0.9688
vt 0.1347 0.8359
vt 0.0958 0.8359
vt 0.082 0.6445
vt 0.1211 0.6445
vt 0.0275 1
vt 0.0663 1
vt 0.123 0.6562
vt 0.1543 0.6562
vt 0.1348 0.7871
vt 0.0957 0.7637
vt 0.4434 0.7266
vt 0.2461 0.8086
vt 0.1777 0.752
vt 0.3164 0.9043
vt 0.293 0.9043
vt 0.209 0.9531
vt 0.0312 0.5801
vt 0.1621 0.9297
vt 0.1621 0.9531
vt 0.1621 0.9062
vt 0.041 0.7383
vt 0.209 1
vt 0.0391 0.6914
vt 0 0.668
vt 0.3398 0.9043
vt 0.0684 0.8634
vt 0.2695 0.9043
vt 0.1367 0.752
vt 0.2461 0.9043
vt 0.0958 0.9297
vt 0.0664 0.5801
vt 0.252 0.6797
vt 0.2832 0.6797
vt 0.1347 0.9297
vt 0.0957 1
vt 0.127 1
vt 0.0684 0.9022
vt 0.0663 0.9062
vt 0.0275 0.9062
vt 0.1621 0.9022
vt 0.3398 0.8574
vt 0.1621 0.8634
vt 0.2207 0.6172
vt 0.1895 0.6172
vt 0.3828 0.6465
vt 0.3516 0.6465
vt 0.252 0.6328
vt 0.2461 0.7617
vt 0.2461 0.7383
vt 0.4668 0.7168
vt 0.0938 0.9337
vt 0.2188 0.6895
vt 0.1367 0.7949
vt 0.2559 0.5371
vt 0.0957 0.9375
vt 0.0957 0.7871
vt 0.2578 0.9297
vt 0.0332 0.9043
vt 0.0645 0.9043
vt 0.3184 0.6465
vt 0.3496 0.6465
vt 0.1973 0.7539
vt 0.1973 0.7773
vt 0.123 0.5781
vt 0.1973 0.8008
vt 0.3457 0.7129
vt 0.3223 0.6816
vt 0.3457 0.6816
vt 0.3848 0.8535
vt 0.3535 0.8535
vt 0.332 0.6484
vt 0.332 0.6797
vt 0.0332 0.5801
vt 0.0469 0.7402
vt 0.1562 0.6562
vt 0.1875 0.6562
vt 0.3848 0.6289
vt 0.416 0.6289
vt 0 0.7871
vt 0.3555 0.6797
vt 0.3789 0.6484
vt 0.3789 0.6797
vt 0.3516 0.7617
vt 0.2168 0.6816
vt 0.1777 0.6582
vt 0.2168 0.6582
vt 0.373 0.9336
vt 0.3418 0.9336
vt 0.2852 0.6484
vt 0.2559 1
vt 0.2324 1
vt 0.3945 0.9688
vt 0.2207 0.8242
vt 0.2441 0.8242
vt 0.0664 0.6426
vt 0.0977 0.6426
vt 0.1504 0.8242
vt 0.2207 0.7539
vt 0.2207 0.7773
vt 0.2207 0.8477
vt 0.2441 0.8477
vt 0.041 0.6914
vt 0.0801 0.6914
vt 0.1973 0.8477
vt 0.1367 0.6816
vt 0.1758 0.6816
vt 0.1777 0.7051
vt 0.2168 0.7051
vt 0.2871 0.7852
vt 0.3184 0.8086
vt 0.2871 0.8086
vt 0.4062 0.8711
vt 0.082 0.6914
vt 0.0312 0.9043
vt 0 0.9043
vt 0.3457 0.9688
vt 0.0801 0.668
vt 0.041 0.6445
vt 0.0801 0.6445
vt 0.041 0.668
vt 0.4277 0.9844
vt 0.1367 0.6582
vt 0.1758 0.6582
vt 0 0.6914
vt 0.1602 0.9375
vt 0.2852 0.7617
vt 0.2441 0.7539
vt 0.1602 1
vt 0.1289 1
vt 0.3184 0.7852
vt 0.1973 0.8242
vt 0.0312 0.6426
vt 0 0.6426
vt 0 0.7383
vt 0.1641 0.8633
vt 0.4062 0.9336
vt 0.375 0.9336
vt 0.1777 0.6816
vt 0.3555 0.6484
vt 0.3223 0.7129
vt 0.4492 0.6406
vt 0.3262 0.9199
vt 0.3984 0.6973
vt 0.2031 0.8652
vt 0.1504 0.7539
vt 0.4199 0.8359
vt 0.3848 0.5664
vt 0.4199 0.8008
vt 0.3184 0.7148
vt 0.252 0.7129
vt 0.0664 0.5469
vt 0.2363 0.8594
vt 0.0957 0.834
vt 0.1328 0.5449
vt 0.2852 0.5684
vt 0.252 0.5859
vt 0.3398 0.8105
vt 0.291 0.5508
vt 0.4277 0.9492
vt 0.123 0.6699
vt 0.2559 0.9062
vt 0.3242 0.9082
s 1
f 737/73 738/74 193/75
f 825/76 208/77 824/78
f 740/79 741/80 194/81
f 742/82 737/73 193/75
f 208/83 823/84 824/85
f 741/80 744/86 194/81
f 745/87 742/82 193/75
f 612/88 614/89 610/90
f 744/86 747/91 194/81
f 748/92 745/87 193/75
f 575/93 572/94 571/95
f 747/91 750/96 194/81
f 751/97 748/92 193/75
f 548/98 550/99 546/100
f 750/96 753/101 194/81
f 754/102 751/97 193/75
f 198/103 817/104 818/105
f 753/101 756/106 194/81
f 757/107 754/102 193/75
f 362/108 365/109 361/110
f 756/106 759/111 194/81
f 738/74 757/107 193/75
f 662/112 663/113 661/114
f 759/111 740/79 194/81
f 639/115 636/116 635/117
f 543/93 540/94 539/95
f 726/118 727/119 725/120
f 328/121 329/122 327/123
f 498/124 501/125 497/126
f 708/88 710/89 706/90
f 598/127 599/128 597/129
f 580/88 582/89 578/90
f 372/130 374/131 370/132
f 630/118 631/119 629/120
f 676/88 678/89 674/90
f 671/133 668/134 667/135
f 422/136 423/137 421/138
f 566/136 567/137 565/138
f 477/139 475/140 473/141
f 345/142 342/143 341/144
f 463/93 460/94 459/95
f 350/145 800/146 797/147
f 523/148 522/149 521/150
f 547/148 546/149 545/150
f 270/151 272/152 268/153
f 461/139 459/140 457/141
f 390/154 858/155 859/156
f 620/157 622/158 618/159
f 399/93 396/94 395/95
f 607/160 604/161 603/162
f 404/98 406/99 402/100
f 840/163 295/164 836/165
f 550/136 551/137 549/138
f 644/166 646/167 642/168
f 431/93 428/94 427/95
f 303/169 301/170 299/171
f 436/98 438/99 434/100
f 694/127 695/128 693/129
f 454/136 455/137 453/138
f 317/172 316/173 315/174
f 628/157 630/158 626/159
f 374/154 849/155 850/156
f 329/175 326/176 325/177
f 324/178 327/179 323/180
f 272/181 273/182 271/183
f 482/124 485/125 481/126
f 334/184 336/185 332/186
f 386/187 859/188 857/189
f 719/133 716/134 715/135
f 507/148 506/149 505/150
f 800/190 353/191 798/192
f 285/193 284/194 283/195
f 508/98 510/99 506/100
f 525/139 523/140 521/141
f 281/196 829/197 831/198
f 237/199 773/200 775/201
f 342/202 344/203 340/204
f 452/98 454/99 450/100
f 491/148 490/149 489/150
f 287/205 285/206 283/207
f 564/98 566/99 562/100
f 854/208 380/209 856/210
f 206/211 821/212 823/213
f 300/187 844/188 842/189
f 591/133 588/134 587/135
f 388/130 390/131 386/132
f 204/214 820/215 821/216
f 845/217 300/218 842/219
f 614/112 615/113 613/114
f 406/136 407/137 405/138
f 221/220 765/221 767/222
f 858/208 388/209 860/210
f 220/223 223/224 219/225
f 411/95 416/226 412/94
f 202/227 819/228 820/229
f 308/124 311/125 307/126
f 655/133 652/134 651/135
f 420/98 422/99 418/100
f 213/230 761/231 763/232
f 325/233 324/234 323/235
f 678/112 679/113 677/114
f 438/136 439/137 437/138
f 196/236 825/237 817/238
f 319/239 317/240 315/241
f 692/166 694/167 690/168
f 443/95 448/226 444/94
f 766/242 221/243 767/244
f 428/98 430/99 426/100
f 229/245 769/246 771/247
f 509/139 507/140 505/141
f 709/248 707/249 705/250
f 467/148 466/149 465/150
f 326/251 328/252 324/253
f 241/254 238/255 237/256
f 212/257 215/258 211/259
f 343/260 341/261 339/262
f 337/263 334/264 333/265
f 233/266 230/267 229/268
f 471/93 468/94 467/95
f 228/269 231/270 227/271
f 344/272 345/273 343/274
f 262/157 264/158 260/159
f 476/98 478/99 474/100
f 263/275 261/276 259/277
f 770/278 229/279 771/280
f 230/281 772/282 769/283
f 494/136 495/137 493/138
f 762/284 213/285 763/286
f 353/287 350/288 349/289
f 273/290 270/291 269/292
f 503/93 500/94 499/95
f 236/293 239/294 235/295
f 355/296 357/297 356/298
f 358/299 359/300 360/301
f 360/302 356/303 357/304
f 833/305 281/306 827/307
f 526/136 527/137 525/138
f 890/308 909/309 928/310
f 361/311 364/312 362/313
f 367/314 364/315 363/316
f 365/317 368/318 367/319
f 414/136 415/137 413/138
f 349/320 797/321 799/322
f 701/205 699/206 697/207
f 764/323 217/324 762/325
f 849/208 372/209 851/210
f 247/205 245/206 243/207
f 558/136 559/137 557/138
f 238/326 776/327 773/328
f 382/154 854/155 855/156
f 774/329 237/330 775/331
f 555/148 554/149 553/150
f 772/332 233/333 770/334
f 380/130 382/131 378/132
f 284/335 287/336 283/337
f 562/124 565/125 561/126
f 288/127 289/128 287/129
f 466/124 469/125 465/126
f 245/193 244/194 243/195
f 573/139 571/140 569/141
f 768/338 225/339 766/340
f 398/136 399/137 397/138
f 293/341 834/342 838/343
f 587/344 586/345 585/346
f 249/160 246/161 245/162
f 396/98 398/99 394/100
f 244/335 247/336 243/337
f 594/335 597/336 593/337
f 248/127 249/128 247/129
f 407/93 404/94 403/95
f 835/347 839/348 927/349
f 605/205 603/206 601/207
f 297/350 837/351 839/352
f 389/169 387/170 385/171
f 217/353 214/354 213/355
f 619/344 618/345 617/346
f 225/356 222/357 221/358
f 412/98 414/99 410/100
f 261/344 260/345 259/346
f 626/359 629/360 625/361
f 256/112 257/113 255/114
f 423/93 420/94 419/95
f 253/362 252/363 251/364
f 637/248 635/249 633/250
f 246/166 248/167 244/168
f 430/136 431/137 429/138
f 309/148 308/149 307/150
f 651/344 650/345 649/346
f 302/130 304/131 300/132
f 409/126 414/365 413/125
f 252/366 255/367 251/368
f 658/366 661/367 657/368
f 222/369 768/370 765/371
f 439/93 436/94 435/95
f 311/139 309/140 307/141
f 669/275 667/276 665/277
f 254/88 256/89 252/90
f 446/136 447/137 445/138
f 255/248 253/249 251/250
f 683/193 682/194 681/195
f 257/115 254/116 253/117
f 444/98 446/99 442/100
f 316/372 319/373 315/374
f 690/335 693/336 689/337
f 320/375 321/376 319/377
f 435/148 434/149 433/150
f 622/118 623/119 621/120
f 541/139 539/140 537/141
f 214/378 764/379 761/380
f 462/136 463/137 461/138
f 268/381 271/382 267/383
f 715/344 714/345 713/346
f 265/133 262/134 261/135
f 260/359 263/360 259/361
f 468/98 470/99 466/100
f 722/359 725/360 721/361
f 460/98 462/99 458/100
f 327/384 325/385 323/386
f 470/136 471/137 469/138
f 731/362 730/363 729/364
f 727/133 724/134 723/135
f 851/217 370/218 848/219
f 335/387 333/388 331/389
f 469/139 467/140 465/141
f 478/136 479/137 477/138
f 332/390 335/391 331/392
f 479/93 476/94 475/95
f 474/124 477/125 473/126
f 734/112 735/113 733/114
f 269/393 268/394 267/395
f 340/396 343/397 339/398
f 483/148 482/149 481/150
f 487/93 484/94 483/95
f 341/399 340/400 339/401
f 484/98 486/99 482/100
f 485/139 483/140 481/141
f 486/136 487/137 485/138
f 735/115 732/116 731/117
f 700/166 702/167 698/168
f 490/124 493/125 489/126
f 364/402 366/403 362/404
f 827/405 831/406 926/407
f 502/136 503/137 501/138
f 499/148 498/149 497/150
f 495/93 492/94 491/95
f 271/408 269/409 267/410
f 798/411 349/412 799/413
f 501/139 499/140 497/141
f 510/136 511/137 509/138
f 348/414 351/415 347/416
f 511/93 508/94 507/95
f 506/124 509/125 505/126
f 500/98 502/99 498/100
f 493/139 491/140 489/141
f 277/417 826/418 830/419
f 515/148 514/149 513/150
f 519/93 516/94 515/95
f 559/93 556/94 555/95
f 516/98 518/99 514/100
f 517/139 515/140 513/141
f 518/136 519/137 517/138
f 832/420 279/421 828/422
f 358/423 357/424 355/425
f 522/124 525/125 521/126
f 524/98 526/99 522/100
f 356/426 358/427 355/428
f 534/136 535/137 533/138
f 531/148 530/149 529/150
f 527/93 524/94 523/95
f 514/124 517/125 513/126
f 200/429 818/430 819/431
f 475/148 474/149 473/150
f 286/166 288/167 284/168
f 554/124 557/125 553/126
f 453/139 451/140 449/141
f 365/432 363/433 361/434
f 264/118 265/119 263/120
f 540/98 542/99 538/100
f 535/93 532/94 531/95
f 546/124 549/125 545/126
f 370/187 850/188 848/189
f 549/139 547/140 545/141
f 582/112 583/113 581/114
f 551/93 548/94 547/95
f 776/435 241/436 774/437
f 378/187 855/188 853/189
f 533/139 531/140 529/141
f 557/139 555/140 553/141
f 856/217 378/218 853/219
f 563/148 562/149 561/150
f 373/169 371/170 369/171
f 556/98 558/99 554/100
f 289/160 286/161 285/162
f 860/217 386/218 857/219
f 567/93 564/94 563/95
f 571/148 570/149 569/150
f 381/169 379/170 377/171
f 570/124 573/125 569/126
f 574/136 575/137 573/138
f 621/275 619/276 617/277
f 565/139 563/140 561/141
f 530/124 533/125 529/126
f 572/98 574/99 570/100
f 411/148 410/149 409/150
f 304/154 843/155 844/156
f 581/248 579/249 577/250
f 583/115 580/116 579/117
f 623/133 620/134 619/135
f 841/438 297/439 835/440
f 394/124 397/125 393/126
f 590/118 591/119 589/120
f 589/275 587/276 585/277
f 395/148 394/149 393/150
f 595/193 594/194 593/195
f 588/157 590/158 586/159
f 579/362 578/363 577/364
f 586/359 589/360 585/361
f 403/148 402/149 401/150
f 599/160 596/161 595/162
f 603/193 602/194 601/195
f 397/139 395/140 393/141
f 602/335 605/336 601/337
f 606/127 607/128 605/129
f 597/205 595/206 593/207
f 837/441 841/442 925/443
f 405/139 403/140 401/141
f 604/166 606/167 602/168
f 610/366 613/367 609/368
f 402/124 405/125 401/126
f 613/248 611/249 609/250
f 615/115 612/116 611/117
f 611/362 610/363 609/364
f 532/98 534/99 530/100
f 596/166 598/167 594/168
f 578/366 581/367 577/368
f 429/139 427/140 425/141
f 313/93 310/94 309/95
f 627/344 626/345 625/346
f 455/93 452/94 451/95
f 618/359 621/360 617/361
f 843/208 302/209 845/210
f 419/148 418/149 417/150
f 631/133 628/134 627/135
f 635/362 634/363 633/364
f 413/139 411/140 409/141
f 634/366 637/367 633/368
f 638/112 639/113 637/114
f 629/275 627/276 625/277
f 706/366 709/367 705/368
f 421/139 419/140 417/141
f 636/88 638/89 634/90
f 642/335 645/336 641/337
f 418/124 421/125 417/126
f 645/205 643/206 641/207
f 647/160 644/161 643/162
f 643/193 642/194 641/195
f 312/136 313/137 311/138
f 426/124 429/125 425/126
f 654/118 655/119 653/120
f 653/275 651/276 649/277
f 427/148 426/149 425/150
f 659/362 658/363 657/364
f 652/157 654/158 650/159
f 650/359 653/360 649/361
f 711/115 708/116 707/117
f 646/127 647/128 645/129
f 663/115 660/116 659/117
f 450/124 453/125 449/126
f 318/444 320/445 316/446
f 666/359 669/360 665/361
f 670/118 671/119 669/120
f 661/248 659/249 657/250
f 310/98 312/99 308/100
f 437/139 435/140 433/141
f 668/157 670/158 666/159
f 674/366 677/367 673/368
f 434/124 437/125 433/126
f 677/248 675/249 673/250
f 679/115 676/116 675/117
f 675/362 674/363 673/364
f 660/88 662/89 658/90
f 441/126 446/365 445/125
f 686/127 687/128 685/129
f 685/205 683/206 681/207
f 443/148 442/149 441/150
f 691/193 690/194 689/195
f 684/166 686/167 682/168
f 682/335 685/336 681/337
f 321/447 318/448 317/449
f 451/148 450/149 449/150
f 695/160 692/161 691/162
f 699/193 698/194 697/195
f 445/139 443/140 441/141
f 698/335 701/336 697/337
f 702/127 703/128 701/129
f 693/205 691/206 689/207
f 687/160 684/161 683/162
f 733/248 731/249 729/250
f 667/344 666/345 665/346
f 703/160 700/161 699/162
f 336/450 337/451 335/452
f 538/124 541/125 537/126
f 492/98 494/99 490/100
f 707/362 706/363 705/364
f 829/453 833/454 924/455
f 458/124 461/125 457/126
f 718/118 719/119 717/120
f 717/275 715/276 713/277
f 459/148 458/149 457/150
f 723/344 722/345 721/346
f 716/157 718/158 714/159
f 714/359 717/360 713/361
f 710/112 711/113 709/114
f 725/275 723/276 721/277
f 724/157 726/158 722/159
f 542/136 543/137 541/138
f 730/366 733/367 729/368
f 539/148 538/149 537/150
f 333/456 332/457 331/458
f 868/459 897/460 923/461
f 795/462 875/463 877/464
f 849/208 376/465 372/209
f 467/148 468/466 466/149
f 308/124 312/365 311/125
f 873/467 786/468 863/469
f 894/470 895/471 922/472
f 412/98 416/473 414/99
f 398/136 400/474 399/137
f 845/217 302/475 300/218
f 332/390 336/476 335/391
f 272/181 274/477 273/182
f 303/169 305/478 301/170
f 327/384 329/479 325/385
f 762/284 217/480 213/285
f 228/269 232/481 231/270
f 300/187 304/482 844/188
f 380/130 384/483 382/131
f 439/93 440/226 436/94
f 430/136 432/474 431/137
f 382/154 384/484 854/155
f 319/239 321/485 317/240
f 345/142 346/486 342/143
f 671/133 672/487 668/134
f 260/359 264/488 263/360
f 840/163 296/489 295/164
f 285/193 286/490 284/194
f 719/133 720/487 716/134
f 607/160 608/491 604/161
f 328/121 330/492 329/122
f 325/233 326/493 324/234
f 854/208 384/465 380/209
f 343/260 345/494 341/261
f 890/308 784/495 909/309
f 236/293 240/496 239/294
f 241/254 242/497 238/255
f 858/208 392/465 388/209
f 407/93 408/226 404/94
f 396/98 400/473 398/99
f 558/136 560/474 559/137
f 423/93 424/226 420/94
f 444/98 448/473 446/99
f 446/136 448/474 447/137
f 626/359 630/488 629/360
f 466/124 470/365 469/125
f 406/136 408/474 407/137
f 543/93 544/226 540/94
f 715/344 716/498 714/345
f 630/118 632/499 631/119
f 547/148 548/466 546/149
f 350/145 354/500 800/146
f 372/130 376/483 374/131
f 851/217 372/475 370/218
f 317/172 318/501 316/173
f 694/127 696/502 695/128
f 399/93 400/226 396/94
f 787/503 917/504 865/505
f 237/199 238/506 773/200
f 525/139 527/507 523/140
f 508/98 512/473 510/99
f 644/166 648/508 646/167
f 731/362 732/509 730/363
f 620/157 624/510 622/158
f 420/98 424/473 422/99
f 428/98 432/473 430/99
f 443/95 447/93 448/226
f 655/133 656/487 652/134
f 388/130 392/483 390/131
f 263/275 265/511 261/276
f 262/157 266/510 264/158
f 326/251 330/512 328/252
f 273/290 274/513 270/291
f 414/136 416/474 415/137
f 367/314 368/514 364/315
f 353/287 354/515 350/288
f 233/266 234/516 230/267
f 591/133 592/487 588/134
f 562/124 566/365 565/125
f 247/205 249/517 245/206
f 587/344 588/498 586/345
f 389/169 391/478 387/170
f 605/205 607/517 603/206
f 293/341 294/518 834/342
f 555/148 556/466 554/149
f 409/126 410/124 414/365
f 651/344 652/498 650/345
f 261/344 262/498 260/345
f 669/275 671/511 667/276
f 435/148 436/466 434/149
f 690/335 694/519 693/336
f 311/139 313/507 309/140
f 637/248 639/520 635/249
f 774/329 241/521 237/330
f 324/178 328/522 327/179
f 268/381 272/523 271/382
f 639/115 640/524 636/116
f 708/88 712/525 710/89
f 498/124 502/365 501/125
f 479/93 480/226 476/94
f 722/359 726/488 725/360
f 566/136 568/474 567/137
f 422/136 424/474 423/137
f 903/526 205/527 207/528
f 463/93 464/226 460/94
f 461/139 463/507 459/140
f 270/151 274/529 272/152
f 912/530 197/531 199/532
f 676/88 680/525 678/89
f 468/98 472/473 470/99
f 550/136 552/474 551/137
f 292/533 865/534 291/535
f 436/98 440/473 438/99
f 374/154 376/484 849/155
f 628/157 632/510 630/158
f 295/536 916/537 836/538
f 404/98 408/473 406/99
f 452/98 456/473 454/99
f 342/202 346/539 344/203
f 816/540 918/541 846/542
f 891/543 861/544 921/545
f 900/546 892/547 920/548
f 893/549 873/550 919/551
f 875/552 796/553 878/554
f 334/184 338/555 336/185
f 852/464 375/556 373/557
f 760/558 824/78 758/559
f 614/112 616/560 615/113
f 411/95 415/93 416/226
f 220/223 224/561 223/224
f 205/562 754/102 207/563
f 206/211 204/564 821/212
f 438/136 440/474 439/137
f 678/112 680/560 679/113
f 896/565 906/566 276/567
f 692/166 696/508 694/167
f 509/139 511/507 507/140
f 229/245 230/568 769/246
f 785/569 922/472 910/570
f 213/230 214/571 761/231
f 580/88 584/525 582/89
f 337/263 338/572 334/264
f 834/573 894/470 785/569
f 344/272 346/574 345/273
f 230/281 234/575 772/282
f 770/278 233/576 229/279
f 780/577 924/455 892/547
f 212/257 216/578 215/258
f 833/305 282/579 281/306
f 360/302 359/580 356/303
f 788/581 925/443 897/460
f 361/311 363/582 364/312
f 701/205 703/517 699/206
f 349/320 350/583 797/321
f 808/584 853/219 805/585
f 503/93 504/226 500/94
f 294/586 923/461 834/573
f 482/124 486/365 485/125
f 783/587 828/422 779/588
f 284/335 288/519 287/336
f 573/139 575/507 571/140
f 245/193 246/490 244/194
f 778/589 926/407 862/590
f 238/326 242/591 776/327
f 594/335 598/519 597/336
f 244/335 248/519 247/336
f 869/592 866/593 816/540
f 835/347 297/594 839/348
f 619/344 620/498 618/345
f 217/353 218/595 214/354
f 802/596 851/210 804/553
f 249/160 250/491 246/161
f 830/419 777/597 781/598
f 253/362 254/509 252/363
f 784/599 827/307 778/600
f 309/148 310/466 308/149
f 658/366 662/601 661/367
f 252/366 256/601 255/367
f 796/584 842/219 793/585
f 256/112 258/560 257/113
f 683/193 684/490 682/194
f 255/248 257/520 253/249
f 806/596 856/210 808/553
f 316/372 320/602 319/373
f 541/139 543/507 539/140
f 622/118 624/499 623/119
f 791/603 836/165 787/604
f 254/88 258/525 256/89
f 817/238 760/605 739/606
f 197/607 738/74 737/73
f 814/608 919/551 895/471
f 470/136 472/474 471/137
f 469/139 471/507 467/140
f 335/387 337/609 333/388
f 575/93 576/226 572/94
f 265/133 266/487 262/134
f 726/118 728/499 727/119
f 375/610 880/554 371/611
f 662/112 664/560 663/113
f 911/612 207/613 209/614
f 598/127 600/502 599/128
f 280/615 898/616 279/617
f 793/618 877/619 874/620
f 279/621 915/622 828/623
f 825/76 210/624 208/77
f 884/464 383/556 381/557
f 755/625 904/626 905/627
f 822/628 195/629 197/630
f 477/139 479/507 475/140
f 387/631 886/632 385/633
f 882/552 808/553 885/554
f 866/593 871/634 918/541
f 523/148 524/466 522/149
f 888/464 391/556 389/557
f 775/201 236/635 235/636
f 883/620 373/637 369/638
f 390/154 392/484 858/155
f 870/639 292/640 291/641
f 782/642 900/643 902/644
f 867/645 846/542 917/504
f 240/646 774/437 239/647
f 864/648 830/649 781/650
f 352/651 798/192 351/652
f 916/537 816/540 867/645
f 431/93 432/226 428/94
f 836/538 867/645 787/503
f 809/618 888/619 886/620
f 863/653 869/592 916/537
f 454/136 456/474 455/137
f 886/620 389/637 385/638
f 803/462 879/463 852/464
f 917/504 789/654 870/655
f 329/175 330/656 326/176
f 865/505 870/655 291/657
f 872/658 787/604 865/534
f 789/659 910/660 870/639
f 801/618 852/619 883/620
f 902/644 278/661 277/662
f 811/462 887/463 888/464
f 918/541 293/663 838/664
f 800/190 354/665 353/191
f 846/542 838/664 789/654
f 797/147 352/666 348/667
f 224/668 766/340 223/669
f 281/196 282/670 829/197
f 383/610 885/554 379/611
f 196/671 759/111 210/672
f 905/627 203/673 205/674
f 491/148 492/466 490/149
f 874/620 303/637 299/638
f 209/675 738/74 195/676
f 232/677 770/334 231/678
f 746/679 822/680 912/530
f 889/681 809/585 886/632
f 208/83 206/682 823/84
f 204/214 202/683 820/215
f 895/471 840/684 791/685
f 920/548 813/686 891/543
f 386/187 390/482 859/188
f 221/220 222/687 765/221
f 826/688 891/543 777/689
f 305/610 878/554 301/611
f 278/690 920/548 826/688
f 202/227 200/691 819/228
f 921/545 783/692 906/566
f 743/693 847/694 822/628
f 919/551 296/695 840/684
f 507/148 508/466 506/149
f 777/689 921/545 896/565
f 210/672 756/106 208/696
f 922/472 791/685 872/697
f 196/236 210/698 825/237
f 910/570 872/697 292/699
f 204/700 753/101 750/96
f 209/675 754/102 757/107
f 766/242 225/701 221/243
f 296/702 863/469 295/703
f 205/562 748/92 751/97
f 877/464 305/556 303/557
f 709/248 711/520 707/249
f 923/461 814/608 894/470
f 204/700 747/91 202/704
f 216/705 762/325 215/706
f 206/707 756/106 753/101
f 287/205 289/517 285/206
f 201/708 748/92 203/709
f 924/455 784/495 890/308
f 471/93 472/226 468/94
f 892/547 890/308 813/686
f 200/710 747/91 744/86
f 807/462 882/463 884/464
f 476/98 480/473 478/99
f 794/596 845/210 796/553
f 201/708 742/82 745/87
f 925/443 792/711 893/549
f 494/136 496/474 495/137
f 897/460 893/549 814/608
f 200/710 741/80 198/712
f 799/322 348/713 347/714
f 773/328 240/715 236/716
f 792/717 835/440 786/468
f 903/526 755/718 905/719
f 844/156 794/720 795/462
f 526/136 528/474 527/137
f 812/584 857/219 809/585
f 197/607 742/82 199/721
f 909/722 778/600 898/616
f 365/317 366/723 368/318
f 853/189 807/724 805/618
f 198/712 740/79 196/671
f 848/189 803/724 801/618
f 764/323 218/725 217/324
f 819/431 743/726 746/679
f 760/558 903/727 911/612
f 215/728 763/286 211/729
f 239/730 775/331 235/731
f 879/552 804/553 880/554
f 564/98 568/473 566/99
f 926/407 782/732 907/733
f 772/332 234/734 233/333
f 862/590 907/733 815/735
f 276/736 899/737 275/738
f 769/283 232/739 228/740
f 288/127 290/502 289/128
f 804/584 848/219 801/585
f 881/620 381/637 377/638
f 839/352 788/741 790/742
f 768/338 226/743 225/339
f 927/349 790/744 866/593
f 379/631 881/632 377/633
f 231/745 771/280 227/746
f 351/747 799/413 347/748
f 786/749 927/349 869/592
f 871/750 294/751 293/752
f 838/343 785/753 789/659
f 248/127 250/502 249/128
f 855/156 806/720 807/462
f 904/754 201/755 203/756
f 771/247 228/757 227/758
f 297/350 298/759 837/351
f 928/310 280/760 832/761
f 301/631 874/632 299/633
f 861/544 832/761 783/692
f 225/356 226/762 222/357
f 813/686 928/310 861/544
f 913/763 781/650 901/764
f 223/765 767/244 219/766
f 898/767 862/590 915/622
f 907/733 902/768 914/769
f 899/770 901/764 275/771
f 820/229 746/772 749/773
f 246/166 250/508 248/167
f 810/596 860/210 812/553
f 779/774 913/763 899/770
f 739/606 911/775 847/776
f 302/130 306/483 304/131
f 821/216 749/777 752/778
f 901/779 276/780 275/781
f 842/189 795/724 793/618
f 222/369 226/782 768/370
f 823/213 752/783 755/625
f 391/610 889/554 387/611
f 763/232 212/784 211/785
f 880/681 801/585 883/632
f 831/198 780/786 782/642
f 876/787 199/788 201/789
f 857/189 811/724 809/618
f 257/115 258/524 254/116
f 850/156 802/720 803/462
f 371/631 883/632 369/633
f 749/773 912/790 876/787
f 320/375 322/791 321/376
f 859/156 810/720 811/462
f 847/776 209/792 195/793
f 818/105 739/794 743/693
f 214/378 218/795 764/379
f 758/796 823/84 755/718
f 914/769 277/797 830/649
f 887/552 812/553 889/554
f 761/380 216/798 212/799
f 781/598 896/800 901/779
f 908/801 864/648 913/763
f 462/136 464/474 463/137
f 460/98 464/473 462/99
f 612/88 616/525 614/89
f 815/735 914/769 864/648
f 767/222 220/802 219/803
f 727/133 728/487 724/134
f 548/98 552/473 550/99
f 915/622 815/735 908/801
f 198/103 196/804 817/104
f 478/136 480/474 479/137
f 362/108 366/805 365/109
f 828/623 908/801 779/774
f 878/681 793/585 874/632
f 765/371 224/806 220/807
f 752/778 876/808 904/754
f 790/742 868/809 871/750
f 885/681 805/585 881/632
f 805/618 884/619 881/620
f 906/810 779/588 899/737
f 474/124 478/365 477/125
f 732/88 734/89 730/90
f 734/112 736/560 735/113
f 269/393 270/811 268/394
f 340/396 344/812 343/397
f 483/148 484/466 482/149
f 487/93 488/226 484/94
f 341/399 342/813 340/400
f 484/98 488/473 486/99
f 485/139 487/507 483/140
f 486/136 488/474 487/137
f 735/115 736/524 732/116
f 700/166 704/508 702/167
f 490/124 494/365 493/125
f 364/402 368/814 366/403
f 827/405 281/815 831/406
f 502/136 504/474 503/137
f 499/148 500/466 498/149
f 495/93 496/226 492/94
f 271/408 273/816 269/409
f 798/411 353/817 349/412
f 501/139 503/507 499/140
f 510/136 512/474 511/137
f 348/414 352/818 351/415
f 511/93 512/226 508/94
f 506/124 510/365 509/125
f 500/98 504/473 502/99
f 493/139 495/507 491/140
f 277/417 278/819 826/418
f 515/148 516/466 514/149
f 519/93 520/226 516/94
f 559/93 560/226 556/94
f 516/98 520/473 518/99
f 517/139 519/507 515/140
f 518/136 520/474 519/137
f 832/420 280/820 279/421
f 358/423 360/821 357/424
f 522/124 526/365 525/125
f 524/98 528/473 526/99
f 356/426 359/822 358/427
f 534/136 536/474 535/137
f 531/148 532/466 530/149
f 527/93 528/226 524/94
f 514/124 518/365 517/125
f 200/429 198/823 818/430
f 475/148 476/466 474/149
f 286/166 290/508 288/167
f 554/124 558/365 557/125
f 453/139 455/507 451/140
f 365/432 367/824 363/433
f 264/118 266/499 265/119
f 540/98 544/473 542/99
f 535/93 536/226 532/94
f 546/124 550/365 549/125
f 370/187 374/482 850/188
f 549/139 551/507 547/140
f 582/112 584/560 583/113
f 551/93 552/226 548/94
f 776/435 242/825 241/436
f 378/187 382/482 855/188
f 533/139 535/507 531/140
f 557/139 559/507 555/140
f 856/217 380/475 378/218
f 563/148 564/466 562/149
f 373/169 375/478 371/170
f 556/98 560/473 558/99
f 289/160 290/491 286/161
f 860/217 388/475 386/218
f 567/93 568/226 564/94
f 571/148 572/466 570/149
f 381/169 383/478 379/170
f 570/124 574/365 573/125
f 574/136 576/474 575/137
f 621/275 623/511 619/276
f 565/139 567/507 563/140
f 530/124 534/365 533/125
f 572/98 576/473 574/99
f 411/148 412/466 410/149
f 304/154 306/484 843/155
f 581/248 583/520 579/249
f 583/115 584/524 580/116
f 623/133 624/487 620/134
f 841/438 298/826 297/439
f 394/124 398/365 397/125
f 590/118 592/499 591/119
f 589/275 591/511 587/276
f 395/148 396/466 394/149
f 595/193 596/490 594/194
f 588/157 592/510 590/158
f 579/362 580/509 578/363
f 586/359 590/488 589/360
f 403/148 404/466 402/149
f 599/160 600/491 596/161
f 603/193 604/490 602/194
f 397/139 399/507 395/140
f 602/335 606/519 605/336
f 606/127 608/502 607/128
f 597/205 599/517 595/206
f 837/441 298/827 841/442
f 405/139 407/507 403/140
f 604/166 608/508 606/167
f 610/366 614/601 613/367
f 402/124 406/365 405/125
f 613/248 615/520 611/249
f 615/115 616/524 612/116
f 611/362 612/509 610/363
f 532/98 536/473 534/99
f 596/166 600/508 598/167
f 578/366 582/601 581/367
f 429/139 431/507 427/140
f 313/93 314/226 310/94
f 627/344 628/498 626/345
f 455/93 456/226 452/94
f 618/359 622/488 621/360
f 843/208 306/465 302/209
f 419/148 420/466 418/149
f 631/133 632/487 628/134
f 635/362 636/509 634/363
f 413/139 415/507 411/140
f 634/366 638/601 637/367
f 638/112 640/560 639/113
f 629/275 631/511 627/276
f 706/366 710/601 709/367
f 421/139 423/507 419/140
f 636/88 640/525 638/89
f 642/335 646/519 645/336
f 418/124 422/365 421/125
f 645/205 647/517 643/206
f 647/160 648/491 644/161
f 643/193 644/490 642/194
f 312/136 314/474 313/137
f 426/124 430/365 429/125
f 654/118 656/499 655/119
f 653/275 655/511 651/276
f 427/148 428/466 426/149
f 659/362 660/509 658/363
f 652/157 656/510 654/158
f 650/359 654/488 653/360
f 711/115 712/524 708/116
f 646/127 648/502 647/128
f 663/115 664/524 660/116
f 450/124 454/365 453/125
f 318/444 322/828 320/445
f 666/359 670/488 669/360
f 670/118 672/499 671/119
f 661/248 663/520 659/249
f 310/98 314/473 312/99
f 437/139 439/507 435/140
f 668/157 672/510 670/158
f 674/366 678/601 677/367
f 434/124 438/365 437/125
f 677/248 679/520 675/249
f 679/115 680/524 676/116
f 675/362 676/509 674/363
f 660/88 664/525 662/89
f 441/126 442/124 446/365
f 686/127 688/502 687/128
f 685/205 687/517 683/206
f 443/148 444/466 442/149
f 691/193 692/490 690/194
f 684/166 688/508 686/167
f 682/335 686/519 685/336
f 321/447 322/829 318/448
f 451/148 452/466 450/149
f 695/160 696/491 692/161
f 699/193 700/490 698/194
f 445/139 447/507 443/140
f 698/335 702/519 701/336
f 702/127 704/502 703/128
f 693/205 695/517 691/206
f 687/160 688/491 684/161
f 733/248 735/520 731/249
f 667/344 668/498 666/345
f 703/160 704/491 700/161
f 336/450 338/830 337/451
f 538/124 542/365 541/125
f 492/98 496/473 494/99
f 707/362 708/509 706/363
f 829/453 282/831 833/454
f 458/124 462/365 461/125
f 718/118 720/499 719/119
f 717/275 719/511 715/276
f 459/148 460/466 458/149
f 723/344 724/498 722/345
f 716/157 720/510 718/158
f 714/359 718/488 717/360
f 710/112 712/560 711/113
f 725/275 727/511 723/276
f 724/157 728/510 726/158
f 542/136 544/474 543/137
f 730/366 734/601 733/367
f 539/148 540/466 538/149
f 333/456 334/832 332/457
f 868/459 788/581 897/460
f 795/462 794/720 875/463
f 873/467 792/717 786/468
f 894/470 814/608 895/471
f 787/503 867/645 917/504
f 903/526 905/719 205/527
f 912/530 822/680 197/531
f 292/533 872/658 865/534
f 295/536 863/653 916/537
f 816/540 866/593 918/541
f 891/543 813/686 861/544
f 900/546 780/577 892/547
f 893/549 792/711 873/550
f 875/552 794/596 796/553
f 852/464 879/463 375/556
f 760/558 825/76 824/78
f 205/562 751/97 754/102
f 896/565 921/545 906/566
f 785/569 894/470 922/472
f 834/573 923/461 894/470
f 780/577 829/453 924/455
f 788/581 837/441 925/443
f 808/584 856/217 853/219
f 294/586 868/459 923/461
f 783/587 832/420 828/422
f 778/589 827/405 926/407
f 869/592 927/349 866/593
f 802/596 849/208 851/210
f 830/419 826/418 777/597
f 784/599 833/305 827/307
f 796/584 845/217 842/219
f 806/596 854/208 856/210
f 791/603 840/163 836/165
f 817/238 825/237 760/605
f 197/607 195/676 738/74
f 814/608 893/549 919/551
f 375/610 879/552 880/554
f 911/612 903/727 207/613
f 280/615 909/722 898/616
f 793/618 795/724 877/619
f 279/621 898/767 915/622
f 884/464 882/463 383/556
f 755/625 752/783 904/626
f 822/628 847/694 195/629
f 387/631 889/681 886/632
f 882/552 806/596 808/553
f 866/593 790/744 871/634
f 888/464 887/463 391/556
f 775/201 773/200 236/635
f 883/620 852/619 373/637
f 870/639 910/660 292/640
f 782/642 780/786 900/643
f 867/645 816/540 846/542
f 240/646 776/435 774/437
f 864/648 914/769 830/649
f 352/651 800/190 798/192
f 916/537 869/592 816/540
f 836/538 916/537 867/645
f 809/618 811/724 888/619
f 863/653 786/749 869/592
f 886/620 888/619 389/637
f 803/462 802/720 879/463
f 917/504 846/542 789/654
f 865/505 917/504 870/655
f 872/658 791/603 787/604
f 789/659 785/753 910/660
f 801/618 803/724 852/619
f 902/644 900/643 278/661
f 811/462 810/720 887/463
f 918/541 871/634 293/663
f 846/542 918/541 838/664
f 797/147 800/146 352/666
f 224/668 768/338 766/340
f 383/610 882/552 885/554
f 196/671 740/79 759/111
f 905/627 904/626 203/673
f 874/620 877/619 303/637
f 209/675 757/107 738/74
f 232/677 772/332 770/334
f 746/679 743/726 822/680
f 889/681 812/584 809/585
f 895/471 919/551 840/684
f 920/548 892/547 813/686
f 826/688 920/548 891/543
f 305/610 875/552 878/554
f 278/690 900/546 920/548
f 921/545 861/544 783/692
f 743/693 739/794 847/694
f 919/551 873/550 296/695
f 777/689 891/543 921/545
f 210/672 759/111 756/106
f 922/472 895/471 791/685
f 910/570 922/472 872/697
f 204/700 206/707 753/101
f 209/675 207/563 754/102
f 296/702 873/467 863/469
f 205/562 203/709 748/92
f 877/464 875/463 305/556
f 923/461 897/460 814/608
f 204/700 750/96 747/91
f 216/705 764/323 762/325
f 206/707 208/696 756/106
f 201/708 745/87 748/92
f 924/455 833/454 784/495
f 892/547 924/455 890/308
f 200/710 202/704 747/91
f 807/462 806/720 882/463
f 794/596 843/208 845/210
f 201/708 199/721 742/82
f 925/443 841/442 792/711
f 897/460 925/443 893/549
f 200/710 744/86 741/80
f 799/322 797/321 348/713
f 773/328 776/327 240/715
f 792/717 841/438 835/440
f 903/526 758/796 755/718
f 844/156 843/155 794/720
f 812/584 860/217 857/219
f 197/607 737/73 742/82
f 909/722 784/599 778/600
f 853/189 855/188 807/724
f 198/712 741/80 740/79
f 848/189 850/188 803/724
f 819/431 818/430 743/726
f 760/558 758/559 903/727
f 215/728 762/284 763/286
f 239/730 774/329 775/331
f 879/552 802/596 804/553
f 926/407 831/406 782/732
f 862/590 926/407 907/733
f 276/736 906/810 899/737
f 769/283 772/282 232/739
f 804/584 851/217 848/219
f 881/620 884/619 381/637
f 839/352 837/351 788/741
f 927/349 839/348 790/744
f 379/631 885/681 881/632
f 231/745 770/278 771/280
f 351/747 798/411 799/413
f 786/749 835/347 927/349
f 871/750 868/809 294/751
f 838/343 834/342 785/753
f 855/156 854/155 806/720
f 904/754 876/808 201/755
f 771/247 769/246 228/757
f 928/310 909/309 280/760
f 301/631 878/681 874/632
f 861/544 928/310 832/761
f 813/686 890/308 928/310
f 913/763 864/648 781/650
f 223/765 766/242 767/244
f 898/767 778/589 862/590
f 907/733 782/732 902/768
f 899/770 913/763 901/764
f 820/229 819/228 746/772
f 810/596 858/208 860/210
f 779/774 908/801 913/763
f 739/606 760/605 911/775
f 821/216 820/215 749/777
f 901/779 896/800 276/780
f 842/189 844/188 795/724
f 823/213 821/212 752/783
f 391/610 887/552 889/554
f 763/232 761/231 212/784
f 880/681 804/584 801/585
f 831/198 829/197 780/786
f 876/787 912/790 199/788
f 857/189 859/188 811/724
f 850/156 849/155 802/720
f 371/631 880/681 883/632
f 749/773 746/772 912/790
f 859/156 858/155 810/720
f 847/776 911/775 209/792
f 818/105 817/104 739/794
f 758/796 824/85 823/84
f 914/769 902/768 277/797
f 887/552 810/596 812/553
f 761/380 764/379 216/798
f 781/598 777/597 896/800
f 908/801 815/735 864/648
f 815/735 907/733 914/769
f 767/222 765/221 220/802
f 915/622 862/590 815/735
f 828/623 915/622 908/801
f 878/681 796/584 793/585
f 765/371 768/370 224/806
f 752/778 749/777 876/808
f 790/742 788/741 868/809
f 885/681 808/584 805/585
f 805/618 807/724 884/619
f 906/810 783/587 779/588
f 732/88 736/525 734/89
