o Chamber
v 0 -0 -2.5
v -0.9567 -0 -2.3097
v -1.7678 -0 -1.7678
v -2.3097 -0 -0.9567
v -2.5 0 0
v -2.3097 0 0.9567
v -1.7678 0 1.7678
v -0.9567 0 2.3097
v 0 0 2.5
v 0.9567 0 2.3097
v 1.7678 0 1.7678
v 2.3097 0 0.9567
v 2.5 0 0
v 2.3097 -0 -0.9567
v 1.7678 -0 -1.7678
v 0.9567 -0 -2.3097
v 0 0.5 -2.5
v -0.9567 0.5 -2.3097
v -1.7678 0.5 -1.7678
v -2.3097 0.5 -0.9567
v -2.5 0.5 -0
v -2.3097 0.5 0.9567
v -1.7678 0.5 1.7678
v -0.9567 0.5 2.3097
v 0 0.5 2.5
v 0.9567 0.5 2.3097
v 1.7678 0.5 1.7678
v 2.3097 0.5 0.9567
v 2.5 0.5 -0
v 2.3097 0.5 -0.9567
v 1.7678 0.5 -1.7678
v 0.9567 0.5 -2.3097
v 0 0.5 -2.25
v -0.861 0.5 -2.0787
v -1.591 0.5 -1.591
v -2.0787 0.5 -0.861
v -2.25 0.5 -0
v -2.0787 0.5 0.861
v -1.591 0.5 1.591
v -0.861 0.5 2.0787
v -0 0.5 2.25
v 0.861 0.5 2.0787
v 1.591 0.5 1.591
v 2.0787 0.5 0.861
v 2.25 0.5 -0
v 2.0787 0.5 -0.861
v 1.591 0.5 -1.591
v 0.861 0.5 -2.0787
v 0 4.5 -2.25
v -0.861 4.5 -2.0787
v -1.591 4.5 -1.591
v -2.0787 4.5 -0.861
v -2.25 4.5 -0
v -2.0787 4.5 0.861
v -1.591 4.5 1.591
v -0.861 4.5 2.0787
v -0 4.5 2.25
v 0.861 4.5 2.0787
v 1.591 4.5 1.591
v 2.0787 4.5 0.861
v 2.25 4.5 -0
v 2.0787 4.5 -0.861
v 1.591 4.5 -1.591
v 0.861 4.5 -2.0787
v 1.7678 0.375 1.9445
v 1.9445 0.375 1.7678
v 1.7678 4.625 1.9445
v 1.9445 4.625 1.7678
v 1.9445 4.625 2.1213
v 1.9445 0.375 2.1213
v 2.1213 0.375 1.9445
v 2.1213 4.625 1.9445
v 1.9445 4.875 1.7678
v 1.7678 4.875 1.9445
v 1.7678 0.125 1.9445
v 1.9445 0.125 1.7678
v 1.591 0.375 1.7678
v 1.7678 0.375 1.591
v 1.7678 4.625 1.591
v 1.591 4.625 1.7678
v 1.7678 4.875 1.591
v 1.591 4.875 1.7678
v 1.591 0.125 1.7678
v 1.7678 0.125 1.591
v 1.9445 0.375 -1.7678
v 1.7678 0.375 -1.9445
v 1.9445 4.625 -1.7678
v 1.7678 4.625 -1.9445
v 2.1213 4.625 -1.9445
v 2.1213 0.375 -1.9445
v 1.9445 0.375 -2.1213
v 1.9445 4.625 -2.1213
v 1.7678 4.875 -1.9445
v 1.9445 4.875 -1.7678
v 1.9445 0.125 -1.7678
v 1.7678 0.125 -1.9445
v 1.7678 0.375 -1.591
v 1.591 0.375 -1.7678
v 1.591 4.625 -1.7678
v 1.7678 4.625 -1.591
v 1.591 4.875 -1.7678
v 1.7678 4.875 -1.591
v 1.7678 0.125 -1.591
v 1.591 0.125 -1.7678
v -1.7678 0.375 -1.9445
v -1.9445 0.375 -1.7678
v -1.7678 4.625 -1.9445
v -1.9445 4.625 -1.7678
v -1.9445 4.625 -2.1213
v -1.9445 0.375 -2.1213
v -2.1213 0.375 -1.9445
v -2.1213 4.625 -1.9445
v -1.9445 4.875 -1.7678
v -1.7678 4.875 -1.9445
v -1.7678 0.125 -1.9445
v -1.9445 0.125 -1.7678
v -1.591 0.375 -1.7678
v -1.7678 0.375 -1.591
v -1.7678 4.625 -1.591
v -1.591 4.625 -1.7678
v -1.7678 4.875 -1.591
v -1.591 4.875 -1.7678
v -1.591 0.125 -1.7678
v -1.7678 0.125 -1.591
v -1.9445 0.375 1.7678
v -1.7678 0.375 1.9445
v -1.9445 4.625 1.7678
v -1.7678 4.625 1.9445
v -2.1213 4.625 1.9445
v -2.1213 0.375 1.9445
v -1.9445 0.375 2.1213
v -1.9445 4.625 2.1213
v -1.7678 4.875 1.9445
v -1.9445 4.875 1.7678
v -1.9445 0.125 1.7678
v -1.7678 0.125 1.9445
v -1.7678 0.375 1.591
v -1.591 0.375 1.7678
v -1.591 4.625 1.7678
v -1.7678 4.625 1.591
v -1.591 4.875 1.7678
v -1.7678 4.875 1.591
v -1.7678 0.125 1.591
v -1.591 0.125 1.7678
v 0 0.5 -1.5
v -0.574 0.5 -1.3858
v -1.0607 0.5 -1.0607
v -1.3858 0.5 -0.574
v -1.5 0.5 -0
v -1.3858 0.5 0.574
v -1.0607 0.5 1.0607
v -0.574 0.5 1.3858
v 0 0.5 1.5
v 0.574 0.5 1.3858
v 1.0607 0.5 1.0607
v 1.3858 0.5 0.574
v 1.5 0.5 -0
v 1.3858 0.5 -0.574
v 1.0607 0.5 -1.0607
v 0.574 0.5 -1.3858
v 0 1.5 -1.5
v -0.574 1.5 -1.3858
v -1.0607 1.5 -1.0607
v -1.3858 1.5 -0.574
v -1.5 1.5 -0
v -1.3858 1.5 0.574
v -1.0607 1.5 1.0607
v -0.574 1.5 1.3858
v 0 1.5 1.5
v 0.574 1.5 1.3858
v 1.0607 1.5 1.0607
v 1.3858 1.5 0.574
v 1.5 1.5 -0
v 1.3858 1.5 -0.574
v 1.0607 1.5 -1.0607
v 0.574 1.5 -1.3858
v 0 3.5 -1.5
v -0.574 3.5 -1.3858
v -1.0607 3.5 -1.0607
v -1.3858 3.5 -0.574
v -1.5 3.5 -0
v -1.3858 3.5 0.574
v -1.0607 3.5 1.0607
v -0.574 3.5 1.3858
v 0 3.5 1.5
v 0.574 3.5 1.3858
v 1.0607 3.5 1.0607
v 1.3858 3.5 0.574
v 1.5 3.5 -0
v 1.3858 3.5 -0.574
v 1.0607 3.5 -1.0607
v 0.574 3.5 -1.3858
v 0 4.5 -1.5
v -0.574 4.5 -1.3858
v -1.0607 4.5 -1.0607
v -1.3858 4.5 -0.574
v -1.5 4.5 -0
v -1.3858 4.5 0.574
v -1.0607 4.5 1.0607
v -0.574 4.5 1.3858
v 0 4.5 1.5
v 0.574 4.5 1.3858
v 1.0607 4.5 1.0607
v 1.3858 4.5 0.574
v 1.5 4.5 -0
v 1.3858 4.5 -0.574
v 1.0607 4.5 -1.0607
v 0.574 4.5 -1.3858
v 0 1.5 -1
v -0.3827 1.5 -0.9239
v -0.7071 1.5 -0.7071
v -0.9239 1.5 -0.3827
v -1 1.5 -0
v -0.9239 1.5 0.3827
v -0.7071 1.5 0.7071
v -0.3827 1.5 0.9239
v 0 1.5 1
v 0.3827 1.5 0.9239
v 0.7071 1.5 0.7071
v 0.9239 1.5 0.3827
v 1 1.5 -0
v 0.9239 1.5 -0.3827
v 0.7071 1.5 -0.7071
v 0.3827 1.5 -0.9239
v 0 1.75 -1
v -0.3827 1.75 -0.9239
v -0.7071 1.75 -0.7071
v -0.9239 1.75 -0.3827
v -1 1.75 -0
v -0.9239 1.75 0.3827
v -0.7071 1.75 0.7071
v -0.3827 1.75 0.9239
v 0 1.75 1
v 0.3827 1.75 0.9239
v 0.7071 1.75 0.7071
v 0.9239 1.75 0.3827
v 1 1.75 -0
v 0.9239 1.75 -0.3827
v 0.7071 1.75 -0.7071
v 0.3827 1.75 -0.9239
v 0 3.25 -1
v -0.3827 3.25 -0.9239
v -0.7071 3.25 -0.7071
v -0.9239 3.25 -0.3827
v -1 3.25 -0
v -0.9239 3.25 0.3827
v -0.7071 3.25 0.7071
v -0.3827 3.25 0.9239
v 0 3.25 1
v 0.3827 3.25 0.9239
v 0.7071 3.25 0.7071
v 0.9239 3.25 0.3827
v 1 3.25 -0
v 0.9239 3.25 -0.3827
v 0.7071 3.25 -0.7071
v 0.3827 3.25 -0.9239
v 0 3.5 -1
v -0.3827 3.5 -0.9239
v -0.7071 3.5 -0.7071
v -0.9239 3.5 -0.3827
v -1 3.5 -0
v -0.9239 3.5 0.3827
v -0.7071 3.5 0.7071
v -0.3827 3.5 0.9239
v 0 3.5 1
v 0.3827 3.5 0.9239
v 0.7071 3.5 0.7071
v 0.9239 3.5 0.3827
v 1 3.5 -0
v 0.9239 3.5 -0.3827
v 0.7071 3.5 -0.7071
v 0.3827 3.5 -0.9239
v 0.9723 1.5 0.9723
v 0.7955 1.5 0.7955
v 0.7955 1.5 -0.7955
v 0.7955 2 0.7955
v 0.9723 1.5 -0.9723
v 0.7955 3 0.7955
v 0.9723 3.5 0.9723
v 0.7955 3.5 0.7955
v 0.2652 2 0.2652
v 0.2652 3 0.2652
v 0.7955 2 -0.7955
v 0.7955 3 -0.7955
v 0.9723 3.5 -0.9723
v 0.7955 3.5 -0.7955
v 0.2652 2 -0.2652
v 0.2652 3 -0.2652
v -0.9723 1.5 -0.9723
v -0.7955 1.5 -0.7955
v -0.7955 1.5 0.7955
v -0.7955 2 -0.7955
v -0.9723 1.5 0.9723
v -0.7955 3 -0.7955
v -0.9723 3.5 -0.9723
v -0.7955 3.5 -0.7955
v -0.2652 2 -0.2652
v -0.2652 3 -0.2652
v -0.7955 2 0.7955
v -0.7955 3 0.7955
v -0.9723 3.5 0.9723
v -0.7955 3.5 0.7955
v -0.2652 2 0.2652
v -0.2652 3 0.2652
v 0 3 -1
v -0.3536 2.8536 -1
v -0.5 2.5 -1
v -0.3536 2.1464 -1
v 0 2 -1
v 0.3536 2.1464 -1
v 0.5 2.5 -1
v 0.3536 2.8536 -1
v 0 3 -6.5
v -0.3536 2.8536 -6.5
v -0.5 2.5 -6.5
v -0.3536 2.1464 -6.5
v 0 2 -6.5
v 0.3536 2.1464 -6.5
v 0.5 2.5 -6.5
v 0.3536 2.8536 -6.5
v 0 2.875 -1
v -0.2652 2.7652 -1
v -0.375 2.5 -1
v -0.2652 2.2348 -1
v 0 2.125 -1
v 0.2652 2.2348 -1
v 0.375 2.5 -1
v 0.2652 2.7652 -1
v -0.2652 2.7652 -0.5
v 0 2.875 -0.5
v -0.375 2.5 -0.5
v -0.2652 2.2348 -0.5
v 0 2.125 -0.5
v 0.2652 2.2348 -0.5
v 0.375 2.5 -0.5
v 0.2652 2.7652 -0.5
v -1 -0 -6.5
v 1 -0 -6.5
v -1 -0 -8.5
v 1 -0 -8.5
v -1 2.5 -8.5
v -1 3.5 -6.5
v 1 3.5 -6.5
v 1 2.5 -8.5
v -0.25 -0 -3.25
v 0.25 -0 -3.25
v -0.25 -0 -3.75
v 0.25 -0 -3.75
v -0.25 0.125 -3.75
v -0.25 0.125 -3.25
v 0.25 0.125 -3.25
v 0.25 0.125 -3.75
v -0.125 0.125 -3.625
v -0.125 0.125 -3.375
v 0.125 0.125 -3.375
v 0.125 0.125 -3.625
v -0.125 1.75 -3.625
v -0.125 1.75 -3.375
v 0.125 1.75 -3.375
v 0.125 1.75 -3.625
v -0.75 2.5 -6.75
v 0.75 2.5 -6.75
v -0.75 2.5 -8.25
v 0.75 2.5 -8.25
v -0.75 3.5 -8.25
v -0.75 3.5 -6.75
v 0.75 3.5 -6.75
v 0.75 3.5 -8.25
v 1 -0 -6.5
v 1.5 -0 -6.5
v 1 -0 -8.5
v 1.5 -0 -8.5
v 1 1.5 -8.5
v 1 1.5 -6.5
v 1.5 1 -6.5
v 1.5 1 -8.5
v -1.5 -0 -6.5
v -1 -0 -6.5
v -1.5 -0 -8.5
v -1 -0 -8.5
v -1.5 1 -8.5
v -1.5 1 -6.5
v -1 1.5 -6.5
v -1 1.5 -8.5
v 0.3536 2.8536 -2.375
v 0.5 2.5 -2.375
v 0.3536 2.1464 -2.375
v 0 2 -2.375
v -0.3536 2.1464 -2.375
v -0.5 2.5 -2.375
v -0.3536 2.8536 -2.375
v 0 3 -2.375
v 0.5303 3.0303 -2.125
v 0.75 2.5 -2.125
v 0.5303 1.9697 -2.125
v 0 1.75 -2.125
v -0.5303 1.9697 -2.125
v -0.75 2.5 -2.125
v -0.5303 3.0303 -2.125
v 0 3.25 -2.125
v 0.7071 3.2071 -2.375
v 1 2.5 -2.375
v 0.7071 1.7929 -2.375
v 0 1.5 -2.375
v -0.7071 1.7929 -2.375
v -1 2.5 -2.375
v -0.7071 3.2071 -2.375
v 0 3.5 -2.375
v 0 3.5 -2.625
v -0.7071 3.2071 -2.625
v -1 2.5 -2.625
v -0.7071 1.7929 -2.625
v 0 1.5 -2.625
v 0.7071 1.7929 -2.625
v 1 2.5 -2.625
v 0.7071 3.2071 -2.625
v 0.3536 2.8536 -2.625
v 0.5 2.5 -2.625
v 0.3536 2.1464 -2.625
v 0 2 -2.625
v -0.3536 2.1464 -2.625
v -0.5 2.5 -2.625
v -0.3536 2.8536 -2.625
v 0 3 -2.625
v 0.5303 3.0303 -2.875
v 0.75 2.5 -2.875
v 0.5303 1.9697 -2.875
v 0 1.75 -2.875
v -0.5303 1.9697 -2.875
v -0.75 2.5 -2.875
v -0.5303 3.0303 -2.875
v 0 3.25 -2.875
v -0.0625 3.75 -2.5625
v 0.0625 3.75 -2.5625
v -0.0625 3.75 -7.4375
v 0.0625 3.75 -7.4375
v -0.0625 3.625 -7.4375
v -0.0625 3.625 -2.5625
v 0.0625 3.625 -2.5625
v 0.0625 3.625 -7.4375
v 0.0625 3.625 -3.4375
v -0.0625 3.625 -3.4375
v -0.0625 3.625 -2.4375
v 0.0625 3.625 -2.4375
v 0.0625 3.625 -3.5625
v -0.0625 3.625 -3.5625
v 0.0625 3.625 -7.5625
v -0.0625 3.625 -7.5625
v -0.0625 3.4375 -2.5625
v 0.0625 3.4375 -2.5625
v 0.0625 3.5 -7.4375
v -0.0625 3.5 -7.4375
v -0.0625 3.4375 -2.4375
v 0.0625 3.4375 -2.4375
v 0.0625 3.5 -7.5625
v -0.0625 3.5 -7.5625
v -0.0625 3.4375 -3.5625
v 0.0625 3.4375 -3.5625
v -0.0625 3.4375 -3.4375
v 0.0625 3.4375 -3.4375
v 0.0625 3.625 -4.4375
v -0.0625 3.625 -4.4375
v 0.0625 3.625 -4.5625
v -0.0625 3.625 -4.5625
v -0.0625 3.4375 -4.5625
v 0.0625 3.4375 -4.5625
v -0.0625 3.4375 -4.4375
v 0.0625 3.4375 -4.4375
v 0.0625 3.625 -5.4375
v -0.0625 3.625 -5.4375
v 0.0625 3.625 -5.5625
v -0.0625 3.625 -5.5625
v -0.0625 3.4375 -5.5625
v 0.0625 3.4375 -5.5625
v -0.0625 3.4375 -5.4375
v 0.0625 3.4375 -5.4375
v 0.3536 2.8536 -3.375
v 0.5 2.5 -3.375
v 0.3536 2.1464 -3.375
v 0 2 -3.375
v -0.3536 2.1464 -3.375
v -0.5 2.5 -3.375
v -0.3536 2.8536 -3.375
v 0 3 -3.375
v 0.5303 3.0303 -3.125
v 0.75 2.5 -3.125
v 0.5303 1.9697 -3.125
v 0 1.75 -3.125
v -0.5303 1.9697 -3.125
v -0.75 2.5 -3.125
v -0.5303 3.0303 -3.125
v 0 3.25 -3.125
v 0.7071 3.2071 -3.375
v 1 2.5 -3.375
v 0.7071 1.7929 -3.375
v 0 1.5 -3.375
v -0.7071 1.7929 -3.375
v -1 2.5 -3.375
v -0.7071 3.2071 -3.375
v 0 3.5 -3.375
v 0 3.5 -3.625
v -0.7071 3.2071 -3.625
v -1 2.5 -3.625
v -0.7071 1.7929 -3.625
v 0 1.5 -3.625
v 0.7071 1.7929 -3.625
v 1 2.5 -3.625
v 0.7071 3.2071 -3.625
v 0.3536 2.8536 -3.625
v 0.5 2.5 -3.625
v 0.3536 2.1464 -3.625
v 0 2 -3.625
v -0.3536 2.1464 -3.625
v -0.5 2.5 -3.625
v -0.3536 2.8536 -3.625
v 0 3 -3.625
v 0.5303 3.0303 -3.875
v 0.75 2.5 -3.875
v 0.5303 1.9697 -3.875
v 0 1.75 -3.875
v -0.5303 1.9697 -3.875
v -0.75 2.5 -3.875
v -0.5303 3.0303 -3.875
v 0 3.25 -3.875
v 0.3536 2.8536 -4.375
v 0.5 2.5 -4.375
v 0.3536 2.1464 -4.375
v 0 2 -4.375
v -0.3536 2.1464 -4.375
v -0.5 2.5 -4.375
v -0.3536 2.8536 -4.375
v 0 3 -4.375
v 0.5303 3.0303 -4.125
v 0.75 2.5 -4.125
v 0.5303 1.9697 -4.125
v 0 1.75 -4.125
v -0.5303 1.9697 -4.125
v -0.75 2.5 -4.125
v -0.5303 3.0303 -4.125
v 0 3.25 -4.125
v 0.7071 3.2071 -4.375
v 1 2.5 -4.375
v 0.7071 1.7929 -4.375
v 0 1.5 -4.375
v -0.7071 1.7929 -4.375
v -1 2.5 -4.375
v -0.7071 3.2071 -4.375
v 0 3.5 -4.375
v 0 3.5 -4.625
v -0.7071 3.2071 -4.625
v -1 2.5 -4.625
v -0.7071 1.7929 -4.625
v 0 1.5 -4.625
v 0.7071 1.7929 -4.625
v 1 2.5 -4.625
v 0.7071 3.2071 -4.625
v 0.3536 2.8536 -4.625
v 0.5 2.5 -4.625
v 0.3536 2.1464 -4.625
v 0 2 -4.625
v -0.3536 2.1464 -4.625
v -0.5 2.5 -4.625
v -0.3536 2.8536 -4.625
v 0 3 -4.625
v 0.5303 3.0303 -4.875
v 0.75 2.5 -4.875
v 0.5303 1.9697 -4.875
v 0 1.75 -4.875
v -0.5303 1.9697 -4.875
v -0.75 2.5 -4.875
v -0.5303 3.0303 -4.875
v 0 3.25 -4.875
v 0.3536 2.8536 -5.375
v 0.5 2.5 -5.375
v 0.3536 2.1464 -5.375
v 0 2 -5.375
v -0.3536 2.1464 -5.375
v -0.5 2.5 -5.375
v -0.3536 2.8536 -5.375
v 0 3 -5.375
v 0.5303 3.0303 -5.125
v 0.75 2.5 -5.125
v 0.5303 1.9697 -5.125
v 0 1.75 -5.125
v -0.5303 1.9697 -5.125
v -0.75 2.5 -5.125
v -0.5303 3.0303 -5.125
v 0 3.25 -5.125
v 0.7071 3.2071 -5.375
v 1 2.5 -5.375
v 0.7071 1.7929 -5.375
v 0 1.5 -5.375
v -0.7071 1.7929 -5.375
v -1 2.5 -5.375
v -0.7071 3.2071 -5.375
v 0 3.5 -5.375
v 0 3.5 -5.625
v -0.7071 3.2071 -5.625
v -1 2.5 -5.625
v -0.7071 1.7929 -5.625
v 0 1.5 -5.625
v 0.7071 1.7929 -5.625
v 1 2.5 -5.625
v 0.7071 3.2071 -5.625
v 0.3536 2.8536 -5.625
v 0.5 2.5 -5.625
v 0.3536 2.1464 -5.625
v 0 2 -5.625
v -0.3536 2.1464 -5.625
v -0.5 2.5 -5.625
v -0.3536 2.8536 -5.625
v 0 3 -5.625
v 0.5303 3.0303 -5.875
v 0.75 2.5 -5.875
v 0.5303 1.9697 -5.875
v 0 1.75 -5.875
v -0.5303 1.9697 -5.875
v -0.75 2.5 -5.875
v -0.5303 3.0303 -5.875
v 0 3.25 -5.875
v 0.3536 2.8536 -6.375
v 0.5 2.5 -6.375
v 0.3536 2.1464 -6.375
v 0 2 -6.375
v -0.3536 2.1464 -6.375
v -0.5 2.5 -6.375
v -0.3536 2.8536 -6.375
v 0 3 -6.375
v 0.5303 3.0303 -6.125
v 0.75 2.5 -6.125
v 0.5303 1.9697 -6.125
v 0 1.75 -6.125
v -0.5303 1.9697 -6.125
v -0.75 2.5 -6.125
v -0.5303 3.0303 -6.125
v 0 3.25 -6.125
v 0.7071 3.2071 -6.375
v 1 2.5 -6.375
v 0.7071 1.7929 -6.375
v 0 1.5 -6.375
v -0.7071 1.7929 -6.375
v -1 2.5 -6.375
v -0.7071 3.2071 -6.375
v 0 3.5 -6.375
v 0 3.5 -6.5
v -0.7071 3.2071 -6.5
v -1 2.5 -6.5
v -0.7071 1.7929 -6.5
v 0 1.5 -6.5
v 0.7071 1.7929 -6.5
v 1 2.5 -6.5
v 0.7071 3.2071 -6.5
v -0.25 -0 -5.25
v 0.25 -0 -5.25
v -0.25 -0 -5.75
v 0.25 -0 -5.75
v -0.25 0.125 -5.75
v -0.25 0.125 -5.25
v 0.25 0.125 -5.25
v 0.25 0.125 -5.75
v -0.125 0.125 -5.625
v -0.125 0.125 -5.375
v 0.125 0.125 -5.375
v 0.125 0.125 -5.625
v -0.125 1.75 -5.625
v -0.125 1.75 -5.375
v 0.125 1.75 -5.375
v 0.125 1.75 -5.625
v 0 4.5 -2.5
v -0.9567 4.5 -2.3097
v -1.7678 4.5 -1.7678
v -2.3097 4.5 -0.9567
v -2.5 4.5 -0
v -2.3097 4.5 0.9567
v -1.7678 4.5 1.7678
v -0.9567 4.5 2.3097
v 0 4.5 2.5
v 0.9567 4.5 2.3097
v 1.7678 4.5 1.7678
v 2.3097 4.5 0.9567
v 2.5 4.5 -0
v 2.3097 4.5 -0.9567
v 1.7678 4.5 -1.7678
v 0.9567 4.5 -2.3097
v 0 5 -2.5
v -0.9567 5 -2.3097
v -1.7678 5 -1.7678
v -2.3097 5 -0.9567
v -2.5 5 -0
v -2.3097 5 0.9567
v -1.7678 5 1.7678
v -0.9567 5 2.3097
v 0 5 2.5
v 0.9567 5 2.3097
v 1.7678 5 1.7678
v 2.3097 5 0.9567
v 2.5 5 -0
v 2.3097 5 -0.9567
v 1.7678 5 -1.7678
v 0.9567 5 -2.3097
v 1.25 2.5625 -2.5625
v 1.25 2.4375 -2.5625
v 1.25 2.5625 -7.4375
v 1.25 2.4375 -7.4375
v 1.125 2.5625 -7.4375
v 1.125 2.5625 -2.5625
v 1.125 2.4375 -2.5625
v 1.125 2.4375 -7.4375
v 1.125 2.4375 -3.4375
v 1.125 2.5625 -3.4375
v 1.125 2.5625 -2.4375
v 1.125 2.4375 -2.4375
v 1.125 2.4375 -3.5625
v 1.125 2.5625 -3.5625
v 1.125 2.4375 -7.5625
v 1.125 2.5625 -7.5625
v 0.9375 2.5625 -2.5625
v 0.9375 2.4375 -2.5625
v 1 2.4375 -7.4375
v 1 2.5625 -7.4375
v 0.9375 2.5625 -2.4375
v 0.9375 2.4375 -2.4375
v 1 2.4375 -7.5625
v 1 2.5625 -7.5625
v 0.9375 2.5625 -3.5625
v 0.9375 2.4375 -3.5625
v 0.9375 2.5625 -3.4375
v 0.9375 2.4375 -3.4375
v 1.125 2.4375 -4.4375
v 1.125 2.5625 -4.4375
v 1.125 2.4375 -4.5625
v 1.125 2.5625 -4.5625
v 0.9375 2.5625 -4.5625
v 0.9375 2.4375 -4.5625
v 0.9375 2.5625 -4.4375
v 0.9375 2.4375 -4.4375
v 1.125 2.4375 -5.4375
v 1.125 2.5625 -5.4375
v 1.125 2.4375 -5.5625
v 1.125 2.5625 -5.5625
v 0.9375 2.5625 -5.5625
v 0.9375 2.4375 -5.5625
v 0.9375 2.5625 -5.4375
v 0.9375 2.4375 -5.4375
v -1.25 2.4375 -2.5625
v -1.25 2.5625 -2.5625
v -1.25 2.4375 -7.4375
v -1.25 2.5625 -7.4375
v -1.125 2.4375 -7.4375
v -1.125 2.4375 -2.5625
v -1.125 2.5625 -2.5625
v -1.125 2.5625 -7.4375
v -1.125 2.5625 -3.4375
v -1.125 2.4375 -3.4375
v -1.125 2.4375 -2.4375
v -1.125 2.5625 -2.4375
v -1.125 2.5625 -3.5625
v -1.125 2.4375 -3.5625
v -1.125 2.5625 -7.5625
v -1.125 2.4375 -7.5625
v -0.9375 2.4375 -2.5625
v -0.9375 2.5625 -2.5625
v -1 2.5625 -7.4375
v -1 2.4375 -7.4375
v -0.9375 2.4375 -2.4375
v -0.9375 2.5625 -2.4375
v -1 2.5625 -7.5625
v -1 2.4375 -7.5625
v -0.9375 2.4375 -3.5625
v -0.9375 2.5625 -3.5625
v -0.9375 2.4375 -3.4375
v -0.9375 2.5625 -3.4375
v -1.125 2.5625 -4.4375
v -1.125 2.4375 -4.4375
v -1.125 2.5625 -4.5625
v -1.125 2.4375 -4.5625
v -0.9375 2.4375 -4.5625
v -0.9375 2.5625 -4.5625
v -0.9375 2.4375 -4.4375
v -0.9375 2.5625 -4.4375
v -1.125 2.5625 -5.4375
v -1.125 2.4375 -5.4375
v -1.125 2.5625 -5.5625
v -1.125 2.4375 -5.5625
v -0.9375 2.4375 -5.5625
v -0.9375 2.5625 -5.5625
v -0.9375 2.4375 -5.4375
v -0.9375 2.5625 -5.4375
v 1.25 0.5 1.25
v 1.25 0.5 -1.25
v 1.7678 2.5 1.9445
v 2.1213 2.5 -1.9445
v -1.7678 2.5 -1.9445
v -2.1213 2.5 1.9445
v -0.75 1.5 -0.75
v -1 -0 -7.5
v 0 -0 -6.5
v -1 1.75 -6.5
v -0.125 0.9375 -3.625
v 0 2.5 -6.75
v -0.75 2.5 -7.5
v 1 -0 -7.5
v 1 0.75 -6.5
v -1.5 -0 -7.5
v -0.0625 3.75 -5
v 1.125 2.5625 -5
v -1.25 2.4375 -5
v -0.8839 -0 -2.1339
v -0.8839 0.5 -2.1339
v 1.1548 0.5 -1.7284
v 0.8839 0.5 -2.1339
v -1.25 0.5 -1.25
v 0.5303 1.5 -0.2197
v 0.75 1.5 -0.75
v -0.3536 1.75 -0.1464
v 0.9723 2.5 0.9723
v -0.9723 2.5 -0.9723
v -2.1339 4.5 0.8839
v -2.1339 5 0.8839
v -1.25 5 1.25
v 0 2.5 -2.25
v -0 2.5 2.25
v 0 3 -3.75
v 1.9445 2.5 1.7678
v -1.9445 2.5 -1.7678
v 1 1.75 -6.5
v -0.125 0.9375 -3.375
v 0.75 2.5 -7.5
v 1.5 -0 -7.5
v 0.0625 3.75 -5
v -1.25 2.5625 -5
v 1.7284 0.5 1.1548
v 0.2433 3.5 -1.2232
v -1.037 1.5 -0.6929
v 1 -0 -7.5
v -1 -0 -7.5
v -1 0.75 -6.5
v -0.861 2.5 -2.0787
v 0.861 2.5 2.0787
v -0.3536 2.8536 -3.75
v 1.7678 0 0
v -0 3.5 -1.0607
v 1.0607 3.5 -0
v -1 1.25 -8.5
v 0 -0 -8.5
v 0.125 0.9375 -3.375
v 0 2.5 -8.25
v 0 4.5 1.7678
v -0.4055 -0 -2.0387
v -0 -0 -1.7678
v 2.0387 0 0.4055
v 2.1339 0 0.8839
v -2.1339 -0 -0.8839
v -1.7678 0 0
v -2.1339 0.5 -0.8839
v 2.1339 0.5 0.8839
v 1.9445 2.5 -2.1213
v -1.9445 2.5 2.1213
v 0.1464 3.25 -0.3536
v 0.8839 2.75 -0.8839
v -0.8839 2.75 0.8839
v 1 0.75 -8.5
v -0.4055 4.5 2.0387
v -0.8839 4.5 2.1339
v -0.8839 5 2.1339
v 1.125 2.4375 -5
v -1.591 2.5 -1.591
v 1.591 2.5 1.591
v -0.5 2.5 -3.75
v 1 1.25 -8.5
v 0.125 0.9375 -3.625
v -1 0.75 -8.5
v 0.8839 2.75 0.8839
v -0.8839 2.75 -0.8839
v -2.0787 2.5 -0.861
v 2.0787 2.5 0.861
v -0.3536 2.1464 -3.75
v 1.9445 2.5 2.1213
v 1.9445 2.5 -1.7678
v -1.9445 2.5 -2.1213
v -1.9445 2.5 1.7678
v -0.75 1.5 0.75
v -1 3 -7.5
v -0.75 3.5 -7.5
v 1 1.5 -7.5
v -1.5 1 -7.5
v -0.0625 3.625 -5
v -0.125 0.9375 -5.625
v 1.25 5 1.25
v 1.25 5 -1.25
v 1.25 2.5625 -5
v -1.125 2.4375 -5
v -2.1339 0 0.8839
v -2.1339 0.5 0.8839
v -1.25 0.5 1.25
v -0.2197 3.5 0.5303
v -1.037 1.5 0.6929
v 0.9723 2.5 -0.9723
v -0.9723 2.5 0.9723
v 0 2.5 -8.5
v 0 3.5 -8.25
v -0.8839 4.5 -2.1339
v -0.8839 5 -2.1339
v 1.1548 5 -1.7284
v 0.8839 5 -2.1339
v -1.25 5 -1.25
v -2.25 2.5 -0
v 2.25 2.5 -0
v 0 2 -3.75
v 1.7678 2.5 -1.9445
v -1.7678 2.5 1.9445
v 0 3.5 -6.5
v 0 3.5 -6.75
v -0.125 0.9375 -5.375
v 1.25 2.4375 -5
v 1.7284 5 1.1548
v 2.0787 2.5 -0.861
v -2.0787 2.5 0.861
v 0.3536 2.1464 -3.75
v 0 0 1.7678
v 1 3 -7.5
v 0.125 0.9375 -5.375
v 1.7678 4.5 -0
v -0.4055 0 2.0387
v -0.8839 0 2.1339
v -0.8839 0.5 2.1339
v 2.1213 2.5 1.9445
v -2.1213 2.5 -1.9445
v -0 3.5 1.0607
v 0.75 3.5 -7.5
v 1.5 1 -7.5
v -1 1.5 -7.5
v 0.0625 3.625 -5
v -0.4055 4.5 -2.0387
v -0 4.5 -1.7678
v 2.0387 4.5 0.4055
v 2.1339 4.5 0.8839
v -2.1339 4.5 -0.8839
v -1.7678 4.5 -0
v -2.1339 5 -0.8839
v 2.1339 5 0.8839
v -1.125 2.5625 -5
v -1.591 2.5 1.591
v 1.591 2.5 -1.591
v 0.5 2.5 -3.75
v 0.125 0.9375 -5.625
v 0.2433 3.5 1.2232
v -0.861 2.5 2.0787
v 0.861 2.5 -2.0787
v 0.3536 2.8536 -3.75
v 0 3.5 -7.5
v 0 1.25 -8.5
v 0 0.5 -0
v 0 -0 -7.5
v 0 1.75 -6.5
v 0 5 -0
v -0 0 0
v 0 3 -7.5
v -1 1.5 -7.5
v 1 1.5 -7.5
v -0 4.5 -0
v 1.875 0.5 0.625
v 1.875 0.5 -0.625
v 1.7678 3.5625 1.9445
v 2.1213 1.4375 -1.9445
v -1.7678 3.5625 -1.9445
v -2.1213 1.4375 1.9445
v 1.591 1.5 -1.591
v 0.5 2.5 -2.375
v -1 2.625 -6.5
v -0.0625 3.75 -6.2188
v 1.125 2.5625 -3.7812
v -1.25 2.4375 -6.2188
v -2.1339 0 0
v -1.875 0.5 -0.625
v -0.625 5 1.875
v 0 3.5 -2.25
v -0 3.5 2.25
v 1 2.25 -7.5
v -0 4.5 0.8839
v 0 3 -5.125
v -1.9445 1.4375 -1.7678
v -0.8839 4.5 1.7678
v 1.25 2.5625 -3.7812
v 2.0787 1.5 -0.861
v -2.0787 1.5 0.861
v -1.875 0.5 0.625
v -0.0625 3.625 -6.2188
v 1.9445 3.5625 1.7678
v -1.9445 3.5625 -1.7678
v 2.1213 3.5625 -1.9445
v -1.591 1.5 1.591
v 1 2.625 -6.5
v -1.125 2.5625 -3.7812
v -0.1098 1.5 0.2652
v -0.8839 4.5 -0
v 0.0625 3.75 -6.2188
v -1.25 2.5625 -6.2188
v -0.861 3.5 -2.0787
v 0.861 3.5 2.0787
v -2.1339 4.5 -0
v -0.3536 2.8536 -5.125
v -2.0787 1.5 -0.861
v -1.7678 -0 -0.8839
v -0.3536 2.1464 -2.375
v 1.9445 3.5625 2.1213
v 1.9445 1.4375 -1.7678
v -0.8839 4.5 -1.7678
v -1.25 2.4375 -3.7812
v -1.9445 1.4375 1.7678
v -0.625 5 -1.875
v 1.125 2.5625 -6.2188
v -1.9445 3.5625 -2.1213
v 1.7678 -0 -0.8839
v -0.861 1.5 2.0787
v 0.8839 4.5 1.7678
v 0.8839 -0 -1.7678
v -1.7678 0 0.8839
v 1.9445 3.5625 -2.1213
v -1.9445 3.5625 2.1213
v 1.125 2.4375 -6.2188
v -1.591 3.5 -1.591
v 1.591 3.5 1.591
v -0 4.5 -0.8839
v -0.5 2.5 -5.125
v -1.25 2.5625 -3.7812
v -1.591 1.5 -1.591
v -1.7678 1.4375 1.9445
v 0.625 5 -1.875
v 0.625 5 1.875
v 1.7678 1.4375 -1.9445
v -0.0625 3.75 -3.7812
v 0 2 -2.375
v 2.25 1.5 -0
v -2.25 1.5 -0
v 0.625 5 -0.625
v -1.5089 5 1.5089
v -1.5089 5 -1.5089
v 0 2.625 -6.5
v 0 0.875 -6.5
v -2.0787 3.5 -0.861
v 2.0787 3.5 0.861
v -0.625 0.5 0.625
v -0.3536 2.1464 -5.125
v -0 1.5 2.25
v 0 1.5 -2.25
v 0.861 1.5 2.0787
v 0 3 -2.375
v -1.7678 4.5 -0.8839
v -0.3536 2.8536 -2.375
v -0.8839 -0 -1.7678
v 1.9445 1.4375 2.1213
v 1.9445 3.5625 -1.7678
v -1.9445 1.4375 -2.1213
v -1.9445 3.5625 1.7678
v 0.861 1.5 -2.0787
v 0.625 0.5 -1.875
v -0.0625 3.625 -3.7812
v 1.875 5 0.625
v 1.875 5 -0.625
v 1.25 2.5625 -6.2188
v -1.125 2.4375 -3.7812
v -0.625 0.5 1.875
v -1.875 5 -0.625
v -2.25 3.5 -0
v 2.25 3.5 -0
v 0 2 -5.125
v 1.25 2.4375 -3.7812
v -1.125 2.4375 -6.2188
v 1.7678 4.5 0.8839
v -0.625 0.5 -1.875
v -0.1098 3.5 -0.2652
v 1.9445 1.4375 1.7678
v -1 2.25 -7.5
v 1.7678 3.5625 -1.9445
v 1 0.75 -7.5
v 0.8839 4.5 -0
v 0.3536 2.8536 -2.375
v -0.75 1.5 -0
v -1.7678 3.5625 1.9445
v -2.1213 3.5625 1.9445
v 1.7678 1.4375 1.9445
v -1 0.75 -7.5
v 1.25 2.4375 -6.2188
v 0.8839 0 0
v 2.0787 3.5 -0.861
v -2.0787 3.5 0.861
v -0.625 5 -0.625
v -0.625 5 0.625
v 0.625 5 0.625
v 0.3536 2.1464 -5.125
v -0 0 0.8839
v 1.591 1.5 1.591
v 1.9445 1.4375 -2.1213
v -0.5 2.5 -2.375
v 1.7678 0 0.8839
v 0.0625 3.625 -3.7812
v 1.125 2.4375 -3.7812
v -1.9445 1.4375 2.1213
v -1.5089 0.5 -1.5089
v -0.861 1.5 -2.0787
v 0.8839 0 1.7678
v 1.7678 4.5 -0.8839
v -1.5089 0.5 1.5089
v 2.1213 3.5625 1.9445
v -2.1213 3.5625 -1.9445
v 0.0625 3.625 -6.2188
v 0.8839 4.5 -1.7678
v -1.7678 4.5 0.8839
v -1.125 2.5625 -6.2188
v -1.591 3.5 1.591
v 1.591 3.5 -1.591
v -0 -0 -0.8839
v 0.5 2.5 -5.125
v -0.8839 0 1.7678
v 0.3536 2.1464 -2.375
v -1.875 5 0.625
v 0.0625 3.75 -3.7812
v 1 0.875 -6.5
v 2.0787 1.5 0.861
v -1 0.875 -6.5
v 0.625 0.5 -0.625
v 0.625 0.5 1.875
v -1.7678 1.4375 -1.9445
v 0.625 0.5 0.625
v -0.625 0.5 -0.625
v -0.8839 0 0
v -0.861 3.5 2.0787
v 0.861 3.5 -2.0787
v 0.3536 2.8536 -5.125
v 2.1213 1.4375 1.9445
v -2.1213 1.4375 -1.9445
v -0.8839 4.5 -0.8839
v -1.25 0.5 -0
v 0.8839 4.5 -0.8839
v 0.8839 -0 -0.8839
v -0.8839 -0 -0.8839
v 1.25 5 -0
v 0 5 -1.25
v 0 0.5 -1.25
v -0.8839 4.5 0.8839
v -1.25 5 -0
v -0.8839 0 0.8839
v 0 0.5 1.25
v 1.25 0.5 -0
v 0 5 1.25
v 0.8839 0 0.8839
v 0.8839 4.5 0.8839
vt 0.2821 0.3158
vt 0.2692 0.2982
vt 0.2821 0.2982
vt 0.5256 0.2807
vt 0.5128 0.2982
vt 0.5128 0.2807
vt 0.3365 0.2982
vt 0.3365 0.3158
vt 0.9423 0.5439
vt 0.9551 0.4912
vt 0.9551 0.5439
vt 0.5256 0.2895
vt 0.5353 0.2807
vt 0.5353 0.2895
vt 0.2853 0.4561
vt 0.2564 0.386
vt 0.2853 0.386
vt 0.2821 0.3333
vt 0.2692 0.3333
vt 0.5 0.3333
vt 0.5 0.3158
vt 0.5128 0.3333
vt 0.5 0.2982
vt 0.5128 0.3158
vt 0.2821 0.2807
vt 0.2692 0.2807
vt 0.5353 0.307
vt 0.5417 0.2982
vt 0.5417 0.307
vt 0.5 0.2807
vt 0.2692 0.3158
vt 0.2564 0.2982
vt 0.9038 0.3158
vt 0.8782 0.2807
vt 0.9038 0.2807
vt 0.3718 0.4561
vt 0.3429 0.386
vt 0.3718 0.386
vt 0.5256 0.2982
vt 0.5256 0.3509
vt 0.5128 0.3509
vt 0.9487 0.8246
vt 1 0.7719
vt 1 0.8246
vt 0.3365 0.2807
vt 0.7179 0.386
vt 0.6667 0.3509
vt 0.7179 0.3509
vt 0.9423 0.3333
vt 0.9551 0.2807
vt 0.9551 0.3333
vt 0.3333 0.6357
vt 0.3876 0.5614
vt 0.3876 0.6357
vt 0.1538 0.386
vt 0.1026 0.3509
vt 0.1538 0.3509
vt 0.641 0.4737
vt 0.6218 0.4561
vt 0.641 0.4561
vt 0 0.9167
vt 0.0256 0.8991
vt 0.0256 0.9167
vt 0.4455 0.3158
vt 0.4455 0.3333
vt 0.8045 0.2895
vt 0.7981 0.2982
vt 0.7981 0.2895
vt 0.3077 0.386
vt 0.2564 0.3509
vt 0.3077 0.3509
vt 0.391 0.8947
vt 0.3397 0.8596
vt 0.391 0.8596
vt 0.391 0.9649
vt 0.3397 0.8947
vt 0.75 0.2807
vt 0.7051 0.2105
vt 0.75 0.2105
vt 0.5353 0.2982
vt 0.9423 0.5965
vt 0.9487 0.5439
vt 0.9487 0.5965
vt 0.1026 0.7632
vt 0.0321 0.7368
vt 0.1026 0.7368
vt 0.1026 0.8947
vt 0.0321 0.8684
vt 0.1026 0.8684
vt 0.3429 0.4561
vt 0.3141 0.386
vt 0.6891 0.386
vt 0.7179 0.4561
vt 0.6891 0.4561
vt 0.3141 0.4561
vt 0.8974 0.4474
vt 0.8846 0.3903
vt 0.8974 0.3903
vt 0.9423 0.386
vt 0.9551 0.386
vt 0.6603 0.4737
vt 0.6603 0.4561
vt 0.6603 0.386
vt 0.5256 0.307
vt 0.2564 0.3158
vt 0.5256 0.3158
vt 0.8045 0.307
vt 0.7981 0.3158
vt 0.7981 0.307
vt 0.4295 0.4561
vt 0.4006 0.386
vt 0.4295 0.386
vt 0.5833 0.4561
vt 0.6026 0.4737
vt 0.5833 0.4737
vt 0.4255 0.4945
vt 0.4976 0.4945
vt 0.4796 0.5541
vt 0.3469 0.7818
vt 0.3141 0.7632
vt 0.3333 0.7369
vt 0.3717 0.6139
vt 0.3446 0.5243
vt 0.4101 0.5614
vt 0.4615 0.474
vt 0.5126 0.5439
vt 0.469 0.5685
vt 0.5128 0.614
vt 0.5256 0.5789
vt 0.5256 0.614
vt 0.2692 0.3509
vt 0.5256 0.5088
vt 0.5128 0.4737
vt 0.5256 0.4737
vt 0.0829 0.2994
vt 0.0376 0.2374
vt 0.0829 0.2374
vt 0.5641 0.5088
vt 0.0256 0.7588
vt 0.0321 0.7632
vt 0.9103 0.8246
vt 0.9487 0.8772
vt 0.9103 0.8772
vt 0.0321 0.8158
vt 0.0256 0.7939
vt 0.0321 0.7895
vt 0.0321 0.8421
vt 0.0256 0.8202
vt 0.0321 0.9211
vt 0.0321 0.8947
vt 0.0256 0.864
vt 0.0321 0.9474
vt 0.0256 0.9254
vt 0.0256 0.7851
vt 0.0256 0.7675
vt 0.6154 0.7895
vt 0.5641 0.8246
vt 0.5641 0.7719
vt 0.8045 0.2807
vt 0.7981 0.2807
vt 0.7692 0.7719
vt 0.7179 0.7895
vt 0.7179 0.7018
vt 0.9231 0.5
vt 0.9423 0.4912
vt 0.1026 0.9474
vt 0.1026 0.9211
vt 0.9038 0.3246
vt 0.8846 0.3333
vt 0.8782 0.3246
vt 0 0.7851
vt 0.7917 0.307
vt 0.7917 0.2982
vt 0.6042 0.2895
vt 0.5417 0.2807
vt 0.6042 0.2807
vt 0.9487 0.4386
vt 0.9487 0.4912
vt 0.0513 0.386
vt 0 0.3509
vt 0.0513 0.3509
vt 0.8782 0.3158
vt 0.5 0.3509
vt 0.4455 0.3509
vt 0.6667 0.7895
vt 0.7179 0.8597
vt 0.6667 0.8597
vt 0.5256 0.3333
vt 0.9423 0.7018
vt 0.9551 0.6491
vt 0.9551 0.7018
vt 0.6026 0.4561
vt 0.6218 0.4737
vt 0.4615 0.386
vt 0.4103 0.3509
vt 0.4615 0.3509
vt 0.4679 0.8947
vt 0.4423 0.9649
vt 0.4423 0.8947
vt 0.3397 0.9649
vt 0.3141 0.9474
vt 0.3141 0.8947
vt 0.8205 0.386
vt 0.7692 0.3509
vt 0.8205 0.3509
vt 0.6154 0.386
vt 0.5641 0.3509
vt 0.6154 0.3509
vt 0.7917 0.3158
vt 0.9423 0.4386
vt 0.9551 0.4386
vt 0.1026 0.8421
vt 0.1026 0.8158
vt 0.391 1
vt 0.5417 0.3158
vt 0.5353 0.3158
vt 0.5417 0.2895
vt 0.3397 1
vt 0.7917 0.2895
vt 0.6042 0.3158
vt 0.6042 0.307
vt 0.2564 0.3333
vt 0.6987 0.4737
vt 0.6795 0.4561
vt 0.6987 0.4561
vt 0.4808 0.2105
vt 0.5256 0.2105
vt 0.2051 0.386
vt 0.2051 0.3509
vt 0.5449 0.4737
vt 0.5256 0.4561
vt 0.5449 0.4561
vt 0.3013 0.2807
vt 0.2564 0.2105
vt 0.3013 0.2105
vt 0.1026 0.386
vt 0.4487 0.4737
vt 0.4295 0.4737
vt 0.4808 0.2807
vt 0.4359 0.2105
vt 0.5064 0.4561
vt 0.7292 0.2895
vt 0.7292 0.2982
vt 0.4872 0.4737
vt 0.4679 0.4561
vt 0.4872 0.4561
vt 0.5128 0.386
vt 0.9487 0.9474
vt 0.9103 0.9474
vt 0.4583 0.386
vt 0.4872 0.386
vt 0.7949 0.2807
vt 0.7949 0.2105
vt 0.5064 0.4737
vt 0.9487 0.3333
vt 0.9487 0.386
vt 0 0.943
vt 0.0256 0.943
vt 0.0321 0.6052
vt 0.0321 0.5176
vt 0.0641 0.5614
vt 0.4006 0.4561
vt 0.8397 0.2807
vt 0.8397 0.2105
vt 0.7292 0.307
vt 0.6314 0.4561
vt 0.6026 0.386
vt 0.6314 0.386
vt 0.9551 0.5965
vt 0.2466 0.1083
vt 0.2376 0.1134
vt 0.2188 0.0515
vt 0.2327 0.147
vt 0.2188 0.1134
vt 0.1074 0.3184
vt 0.1282 0.2994
vt 0.0829 0.3251
vt 0.0376 0.2994
vt 0.0792 0.3374
vt 0.1282 0.3508
vt 0.0237 0.147
vt 0.0376 0.1134
vt 0.0376 0.1754
vt 0.0188 0.1134
vt 0.0376 0.0515
vt 0.0098 0.1083
vt 0.0001 0.1754
vt 0.0792 0.0134
vt 0.0829 0.0258
vt 0.1772 0.0134
vt 0.1735 0.0258
vt 0.1282 0.0001
vt 0.0829 0.0515
vt 0.2188 0.1754
vt 0.1735 0.1134
vt 0.2466 0.6285
vt 0.2376 0.6234
vt 0.2563 0.5614
vt 0.1772 0.7234
vt 0.1735 0.7111
vt 0.2188 0.6854
vt 0.0792 0.7234
vt 0.0829 0.7111
vt 0.1282 0.7367
vt 0.0098 0.6285
vt 0.0188 0.6234
vt 0.0376 0.6854
vt 0.069 0.4402
vt 0.0962 0.4299
vt 0.0641 0.4737
vt 0.0829 0.4117
vt 0.1282 0.3861
vt 0.0792 0.3994
vt 0.0376 0.4374
vt 0.2168 0.4804
vt 0.2243 0.5176
vt 0.1923 0.4737
vt 0.2376 0.4994
vt 0.2466 0.4943
vt 0.2188 0.4374
vt 0.2243 0.6052
vt 0.0962 0.6929
vt 0.1282 0.1754
vt 0.0829 0.1134
vt 0.1282 0.1134
vt 0.1282 0.0515
vt 0.1735 0.0515
vt 0.7692 0.7193
vt 0.391 0.3333
vt 0.391 0.3509
vt 0.3365 0.3509
vt 0.2821 0.3509
vt 0.0256 0.8114
vt 0 0.7675
vt 0.4423 1
vt 0.7692 0.386
vt 0.4455 0.2807
vt 0.391 0.2982
vt 0.391 0.3158
vt 0.5641 0.5789
vt 0.3462 0.0702
vt 0.3013 0
vt 0.3462 0
vt 0.1735 0.2374
vt 0.1735 0.1754
vt 0.3141 0.8158
vt 0.2436 0.7895
vt 0.3141 0.7895
vt 0.5641 0.386
vt 0.1731 0.8684
vt 0.1731 0.8421
vt 0.6603 0.2105
vt 0.6154 0.1404
vt 0.6603 0.1404
vt 0.391 0.0702
vt 0.391 0
vt 0.7051 0.1404
vt 0.75 0.1404
vt 0.0001 0.5614
vt 0.4615 0.6137
vt 0.4255 0.5932
vt 0.3013 0.0702
vt 0.2564 0
vt 0.7292 0.2807
vt 0.7917 0.2807
vt 0.8205 0.614
vt 0.7692 0.6667
vt 0.7692 0.614
vt 0.6667 0.3158
vt 0.6667 0.307
vt 0.4487 0.4561
vt 0.7949 0.0702
vt 0.75 0
vt 0.7949 0
vt 0.6667 0.2895
vt 0.6667 0.2807
vt 0.3365 0.3333
vt 0.3959 0.5784
vt 0.4042 0.5212
vt 0.4042 0.6016
vt 0.3627 0.6584
vt 0.3333 0.6664
vt 0.304 0.6584
vt 0.2791 0.6357
vt 0.2624 0.6016
vt 0.2566 0.5614
vt 0.2708 0.5784
vt 0.2791 0.5614
vt 0.2791 0.4872
vt 0.304 0.4644
vt 0.3333 0.4564
vt 0.3627 0.4644
vt 0.3876 0.4872
vt 0.3062 0.546
vt 0.3688 0.634
vt 0.2979 0.634
vt 0.295 0.6139
vt 0.2624 0.5212
vt 0.3333 0.4564
vt 0.3876 0.4872
vt 0.4455 0.2982
vt 0.3717 0.5089
vt 0.5087 0.5706
vt 0.4976 0.5932
vt 0.4811 0.6084
vt 0.442 0.6084
vt 0.4144 0.5706
vt 0.4105 0.5439
vt 0.4144 0.5171
vt 0.442 0.4793
vt 0.4811 0.4793
vt 0.5087 0.5171
vt 0.3141 0.8684
vt 0.2436 0.8421
vt 0.3141 0.8421
vt 0.4144 0.5706
vt 0.6042 0.2982
vt 0.5128 0.5439
vt 0.5192 0.5614
vt 0.1602 0.6929
vt 0.1602 0.6052
vt 0.1923 0.6491
vt 0.1282 0.6491
vt 0.6667 0.7018
vt 0.6154 0.614
vt 0.6667 0.614
vt 0.8718 0.8246
vt 0.8718 0.8772
vt 0.8718 0.7719
vt 0.0962 0.5176
vt 0.1282 0.4737
vt 0.7179 0.614
vt 0.9295 0.1404
vt 0.8846 0.0702
vt 0.9295 0.0702
vt 0.9744 0.1404
vt 0.9744 0.0702
vt 0.3333 0.7895
vt 0.3197 0.7818
vt 0.3197 0.7446
vt 0.3469 0.7446
vt 0.3525 0.7632
vt 1 0.8772
vt 0.3141 1
vt 0.391 0.2807
vt 0.3469 0.5537
vt 0.0256 0.8377
vt 0.6667 0.386
vt 0.7051 0.2807
vt 0.8974 0.3333
vt 0.1602 0.5176
vt 0.1602 0.4299
vt 0 0.8991
vt 0.1282 0.5614
vt 0.1731 0.8947
vt 0.4679 0.9474
vt 0.4103 0.386
vt 0.5705 0.2105
vt 0.5256 0.1404
vt 0.5705 0.1404
vt 0.7949 0.1404
vt 0.8397 0.1404
vt 0.2564 0.1404
vt 0.3013 0.1404
vt 0.9423 0.6491
vt 0.2564 0.2807
vt 0.5256 0.0702
vt 0.4808 0
vt 0.5256 0
vt 0.1731 0.7895
vt 0.1731 0.7632
vt 0.8397 -0
vt 0.8846 -0
vt 0.4808 0.1404
vt 0.1731 0.8158
vt 0.3198 0.5691
vt 0.3333 0.6139
vt 0.8205 0.7368
vt 0 0.386
vt 0.4679 0.4737
vt 0.6667 0.2982
vt 0.7692 0.8246
vt 0.1282 0.2374
vt 0.0829 0.1754
vt 0.0641 0.6491
vt 0.0962 0.6052
vt 0.2436 0.7632
vt 0.3141 0.7632
vt 0.1731 0.9474
vt 0.1731 0.9211
vt 0.1731 0.7368
vt 0.6154 0.7018
vt 0.2436 0.7368
vt 0.3141 0.7368
vt 0.4808 0.0702
vt 0.4359 0
vt 0.7051 0.0702
vt 0.6603 0
vt 0.7051 0
vt 0.5128 0.7368
vt 0.5128 0.7982
vt 0.5641 0.6667
vt 0.5128 0.6754
vt 0.8846 0.4474
vt 0.0256 0.7412
vt 0.6154 0.2105
vt 0.9231 0.5351
vt 0.4359 0.0702
vt 0.2436 0.8684
vt 0.2436 0.8158
vt 0.8045 0.2982
vt 0.3462 0.2807
vt 0.3462 0.2105
vt 0.4583 0.4561
vt 0.359 0.3509
vt 0.516 0.386
vt 0.5449 0.386
vt 0.1026 0.7895
vt 0.391 0.2807
vt 0.391 0.2105
vt 0 0.7588
vt 0.9103 0.7719
vt 0.8718 0.7018
vt 0.9103 0.7018
vt 0.6795 0.4737
vt 0.516 0.4561
vt 0 0.8377
vt 0.8846 0.2807
vt 0.8846 0.2105
vt 0.9487 0.6491
vt 0.6154 0.2807
vt 0 0.8904
vt 0.0256 0.8728
vt 0.0256 0.8904
vt 0.6603 0.2807
vt 0.7179 0.4737
vt 0.8205 0.8772
vt 0.8205 0.8246
vt 0.4359 0.2807
vt 0.5737 0.386
vt 0.5737 0.4561
vt 0.2564 0.4561
vt 0.4103 0.4561
vt 0.9487 0.7018
vt 0 0.864
vt 0.0256 0.8465
vt 0.5641 0.4737
vt 0.5641 0.4561
vt 0.4615 0.8596
vt 0.4103 0.7982
vt 0.4615 0.7982
vt 0.9936 0.4781
vt 0.9744 0.4474
vt 0.9936 0.4518
vt 0.9231 0.3421
vt 0.9744 0.3421
vt 0.9744 0.4825
vt 0.9936 0.6886
vt 0.9744 0.6579
vt 0.9936 0.6623
vt 0.9231 0.6053
vt 0.9038 0.636
vt 0.9038 0.6096
vt 0.9231 0.5877
vt 0.9038 0.557
vt 0.9231 0.5526
vt 0.9038 0.6886
vt 0.9231 0.6579
vt 0.9231 0.693
vt 0.6154 0.5439
vt 0.6667 0.4737
vt 0.6667 0.5439
vt 0.9744 0.6053
vt 0.9936 0.636
vt 0.9744 0.6404
vt 0.9936 0.557
vt 0.9744 0.5877
vt 0.9744 0.5526
vt 0.9744 0.693
vt 0.9231 0.3246
vt 0.9038 0.2939
vt 0.9231 0.2895
vt 0.9423 0.2807
vt 0.9038 0.3728
vt 0.9038 0.3465
vt 0.9231 0.4825
vt 0.9038 0.4518
vt 0.9231 0.4474
vt 0.9038 0.5307
vt 0.9038 0.5044
vt 0.9231 0.4298
vt 0.9038 0.3991
vt 0.9231 0.3947
vt 0.9744 0.4298
vt 0.9744 0.3947
vt 0.9744 0.5
vt 0.9231 0.6404
vt 0.9936 0.2939
vt 0.9744 0.3246
vt 0.9744 0.2895
vt 0.9936 0.3728
vt 0.9744 0.3772
vt 0.9038 0.3202
vt 0.9936 0.5307
vt 0.9744 0.5351
vt 0.9038 0.4254
vt 0.9038 0.6623
vt 0.9936 0.4254
vt 0.9936 0.3991
vt 0.9936 0.5044
vt 0.9231 0.3772
vt 0 0.8114
vt 0.5705 0.2807
vt 0.9936 0.3465
vt 0.9744 0.2807
vt 0.9295 0.2105
vt 0.9744 0.2105
vt 0.9038 0.4781
vt 0.359 0.386
vt 0.4103 0.4737
vt 0.9295 0.2807
vt 0.9487 0.2807
vt 0 0.9254
vt 0.9295 -0
vt 0.4103 0.7368
vt 0.4615 0.7368
vt 0.9487 0.7719
vt 0.3141 0.9211
vt 0.2436 0.8947
vt 0.5641 0.7193
vt 0.6154 0.0702
vt 0.5705 0
vt 0.6154 0
vt 0.3462 0.1404
vt 0.391 0.1404
vt 0.4359 0.1404
vt 0.1923 0.5614
vt 0.75 0.0702
vt 0.4615 0.6754
vt 0.4103 0.614
vt 0.4615 0.614
vt 0.9744 -0
vt 0.3141 0.9474
vt 0.2436 0.9211
vt 0.6603 0.0702
vt 0.8397 0.0702
vt 0.2188 0.2994
vt 0.2188 0.2374
vt 0.8045 0.3158
vt 0.0098 0.2425
vt 0.5705 0.0702
vt 0.5128 0.8596
vt 0.8846 0.1404
vt 0.8205 0.7982
vt 0.1772 0.3374
vt 0.1735 0.2994
vt 0.7292 0.3158
vt 0.2466 0.2425
vt 0.2055 0.6672
vt 0.0509 0.6672
vt 0.1772 0.3994
vt 0.2436 0.9474
vt 0.6154 0.8597
vt 0.6667 0.9298
vt 0.6154 0.9298
vt 0.1282 0.0258
vt 0.4103 0.6754
vt 0.7179 0.5439
vt 0.0098 0.4943
vt 0.8205 0.6754
vt 0.7179 0.9298
vt 0.8718 0.9474
vt 0.8205 0.7719
vt 0.2563 0.1754
vt 0.4423 0.8596
vt 0.2564 0.0702
vt 0.4679 1
vt 0.5641 0.614
vt -0 0.7412
vt 0 0.8202
vt 0 0.8728
vt 0 0.8465
vt 0.4103 0.8596
vt 0.9038 0.5833
vt 0.6154 0.4737
vt 0.9936 0.6096
vt 0.9936 0.5833
vt 0.9936 0.3202
vt 0 0.7939
vt 0.8205 0.8596
s 1
f 72/1 74/2 69/3
f 117/4 115/5 105/6
f 112/1 1013/7 1106/8
f 595/9 597/10 598/11
f 778/12 776/13 775/14
f 166/15 149/16 150/17
f 72/1 68/18 73/19
f 66/20 71/21 76/22
f 130/23 136/24 131/21
f 67/25 69/3 74/26
f 137/4 135/5 125/6
f 711/27 702/28 701/29
f 70/23 65/30 75/6
f 113/31 122/32 114/2
f 656/33 653/34 655/35
f 169/36 152/37 153/38
f 786/12 784/13 783/14
f 123/39 116/24 115/5
f 66/22 77/40 65/41
f 884/42 363/43 801/44
f 1081/7 127/25 1055/45
f 71/21 75/5 76/24
f 687/46 670/47 671/48
f 403/49 413/50 414/51
f 92/1 88/18 93/19
f 86/20 91/21 96/22
f 843/52 842/53 191/54
f 87/25 89/3 94/26
f 692/55 675/56 676/57
f 225/58 224/59 209/60
f 90/23 85/30 95/6
f 332/61 323/62 324/63
f 1094/64 86/20 1031/65
f 763/66 759/67 752/68
f 695/69 678/70 679/71
f 829/72 369/73 802/74
f 886/75 379/76 804/72
f 110/23 116/24 111/21
f 64/77 1112/78 1129/79
f 468/39 463/14 461/80
f 642/81 646/82 647/83
f 1116/84 309/85 1033/86
f 112/1 108/18 113/19
f 106/20 111/21 116/22
f 109/3 113/31 114/2
f 107/25 109/3 114/26
f 744/39 739/14 737/80
f 1095/87 306/88 1050/89
f 110/23 105/30 115/6
f 72/1 1006/7 1105/8
f 726/12 714/13 713/14
f 168/90 151/91 152/37
f 198/92 181/93 182/94
f 167/95 150/17 151/91
f 1006/7 67/25 964/45
f 359/96 827/97 846/98
f 27/69 10/70 11/71
f 91/21 95/5 96/24
f 590/99 602/51 603/100
f 226/101 209/60 210/102
f 132/1 128/18 133/19
f 126/20 131/21 136/22
f 133/31 129/3 132/1
f 127/25 129/3 134/26
f 164/94 147/103 148/92
f 475/104 469/80 470/27
f 130/23 125/30 135/6
f 101/105 94/2 93/31
f 547/9 549/10 550/11
f 135/5 144/106 136/24
f 768/107 749/108 760/109
f 171/110 154/111 155/112
f 268/113 251/114 252/115
f 92/1 94/2 89/3
f 247/116 243/117 859/118
f 336/119 331/120 333/121
f 795/122 813/123 161/124
f 237/125 225/126 815/127
f 285/128 284/129 286/130
f 665/96 946/97 888/98
f 120/70 108/19 107/131
f 283/132 277/133 275/134
f 279/128 278/129 280/130
f 276/132 273/133 274/134
f 301/128 300/129 302/130
f 1070/135 1016/136 1148/137
f 297/138 294/129 292/132
f 299/132 293/133 291/134
f 295/128 294/129 296/130
f 292/132 289/133 290/134
f 326/139 309/85 310/140
f 951/141 366/142 913/143
f 312/144 327/145 311/146
f 305/147 328/148 312/144
f 308/149 323/62 307/150
f 322/151 305/147 306/88
f 309/152 324/153 308/149
f 310/140 327/154 326/155
f 344/156 921/157 979/158
f 765/104 756/80 755/27
f 452/159 440/68 437/160
f 1074/161 341/162 844/163
f 499/9 492/164 500/165
f 84/106 66/22 76/24
f 1033/166 308/149 1005/167
f 92/1 991/7 1019/8
f 352/168 355/169 351/170
f 335/171 326/155 327/154
f 715/67 703/172 704/173
f 994/174 750/175 1062/176
f 165/93 148/92 149/46
f 644/165 652/177 645/178
f 350/168 353/169 349/170
f 349/168 356/169 352/170
f 351/168 354/169 350/170
f 690/179 673/180 674/181
f 352/168 346/182 348/33
f 1028/65 125/183 1010/184
f 900/185 883/186 958/187
f 736/39 731/14 729/80
f 98/188 85/41 86/22
f 496/189 504/190 505/191
f 658/168 655/182 653/33
f 267/192 250/193 251/114
f 698/194 681/195 682/196
f 194/37 177/36 178/90
f 371/197 376/198 372/199
f 375/200 803/201 369/202
f 459/104 441/80 442/27
f 689/203 672/204 673/205
f 381/200 872/201 380/202
f 378/197 382/198 377/199
f 73/31 82/32 74/2
f 787/104 781/80 782/27
f 17/206 16/207 1/208
f 437/209 435/172 448/108
f 541/210 555/100 556/211
f 22/179 5/180 6/181
f 1048/212 312/144 1078/213
f 376/198 885/214 931/75
f 467/104 461/80 462/27
f 433/29 438/215 443/216
f 439/217 434/28 444/14
f 1097/174 438/175 1058/176
f 384/218 886/75 932/214
f 132/1 1081/7 1020/8
f 436/173 440/219 447/68
f 1058/220 433/29 1032/221
f 99/222 93/31 88/19
f 228/223 211/224 212/225
f 493/210 507/100 508/211
f 59/4 1000/226 1023/227
f 25/228 8/57 9/229
f 693/228 676/57 677/229
f 659/168 653/182 654/33
f 236/230 219/231 220/232
f 721/104 712/80 711/27
f 447/67 435/172 436/173
f 54/233 1065/234 1087/235
f 722/39 707/14 712/80
f 691/236 674/181 675/56
f 141/105 134/2 133/31
f 457/106 442/27 446/216
f 138/188 125/41 126/22
f 660/168 663/169 659/170
f 465/106 462/27 464/216
f 349/168 348/182 347/33
f 972/220 701/29 984/221
f 449/106 443/27 438/216
f 260/110 243/237 244/238
f 658/168 661/169 657/170
f 657/168 664/169 660/170
f 659/168 662/169 658/170
f 58/239 978/240 1000/226
f 196/17 179/95 180/15
f 769/106 754/27 758/216
f 1096/135 1102/136 1147/137
f 82/32 67/26 74/2
f 235/134 218/241 219/231
f 1107/242 436/173 997/243
f 705/209 703/172 716/108
f 233/244 216/245 217/246
f 727/104 709/80 710/27
f 31/247 14/196 15/41
f 660/168 654/182 656/33
f 102/32 87/26 94/2
f 701/29 706/215 711/216
f 707/217 702/28 712/14
f 913/143 361/248 800/249
f 173/246 156/250 157/251
f 21/203 4/204 5/205
f 704/173 708/219 715/68
f 49/252 1129/79 977/253
f 303/138 300/129 299/132
f 234/254 217/246 218/241
f 443/27 434/28 433/29
f 720/159 708/68 705/160
f 741/106 738/27 740/216
f 657/168 656/182 655/33
f 30/194 13/195 14/196
f 777/106 774/27 776/216
f 717/106 711/27 706/216
f 97/4 95/5 85/6
f 638/99 650/255 651/256
f 733/106 730/27 732/216
f 357/96 871/97 799/98
f 788/39 783/14 781/80
f 333/257 324/153 325/258
f 771/104 753/80 754/27
f 976/259 1030/260 1146/261
f 749/209 747/172 760/108
f 474/12 472/13 471/14
f 170/262 153/38 154/111
f 348/33 345/34 347/35
f 719/66 715/67 708/68
f 1021/242 704/173 1084/243
f 745/29 750/215 755/216
f 751/217 746/28 756/14
f 281/138 278/129 276/132
f 667/96 914/97 922/98
f 1132/64 106/20 982/65
f 748/173 752/219 759/68
f 287/138 284/129 283/132
f 350/168 347/182 345/33
f 473/106 470/27 472/216
f 50/263 977/253 999/264
f 704/173 1061/265 1084/243
f 456/107 437/108 448/109
f 548/165 556/211 549/10
f 1013/7 107/25 966/45
f 1099/64 126/20 1028/65
f 785/106 782/27 784/216
f 162/266 145/267 146/268
f 1098/174 706/175 972/176
f 406/81 410/11 411/269
f 1131/64 66/20 1073/65
f 637/210 651/256 652/177
f 24/55 7/56 8/57
f 2/270 808/271 3/272
f 808/271 849/273 3/272
f 849/273 1051/274 3/272
f 851/275 1096/135 841/276
f 851/275 852/277 11/278
f 12/279 852/277 13/280
f 924/281 1115/282 920/283
f 924/281 925/284 7/285
f 8/286 925/284 9/287
f 6/288 893/289 7/285
f 4/290 853/291 5/292
f 893/289 1018/293 7/285
f 935/294 1133/295 1008/274
f 18/296 809/297 17/298
f 20/299 855/300 19/301
f 22/302 894/303 21/304
f 24/305 926/306 23/307
f 832/308 962/309 789/310
f 832/308 856/311 29/312
f 28/313 856/311 27/314
f 810/315 1057/316 790/317
f 810/315 811/318 17/298
f 32/319 811/318 31/320
f 809/297 1071/321 17/298
f 894/303 987/322 21/304
f 474/12 473/4 472/13
f 541/210 542/99 555/100
f 31/247 30/194 14/196
f 961/323 1141/324 996/325
f 92/1 93/31 94/2
f 1133/295 939/326 1049/327
f 132/1 129/3 1081/7
f 844/163 959/328 1074/161
f 110/23 115/5 116/24
f 911/329 1010/184 881/330
f 99/222 101/105 93/31
f 108/18 966/331 107/332
f 312/144 328/333 327/145
f 715/67 716/109 703/172
f 335/171 334/334 326/155
f 376/198 373/335 885/214
f 671/272 1133/295 1049/327
f 705/209 1061/265 703/172
f 21/203 20/336 4/204
f 110/23 1124/337 105/30
f 691/236 690/179 674/181
f 1019/8 792/338 857/339
f 281/138 282/340 278/129
f 1099/64 130/23 131/21
f 992/341 38/342 39/343
f 850/294 1136/344 1113/345
f 1105/8 878/338 927/339
f 1097/174 439/217 438/175
f 320/346 1114/347 319/348
f 788/39 786/12 783/14
f 17/206 32/349 16/207
f 840/350 1048/212 823/351
f 1086/352 908/353 917/354
f 1015/355 39/343 40/356
f 951/141 884/42 366/142
f 91/21 90/23 95/5
f 660/168 659/170 654/182
f 1129/79 944/357 949/358
f 976/259 693/359 1030/260
f 130/23 1010/337 125/30
f 749/209 973/265 747/172
f 859/118 253/360 251/361
f 59/4 58/239 1000/226
f 886/75 381/200 379/76
f 986/362 37/363 38/342
f 850/294 1137/295 1051/274
f 1048/212 305/147 312/144
f 440/219 988/364 437/365
f 337/366 1083/367 796/368
f 887/369 1032/221 805/370
f 384/218 381/200 886/75
f 260/110 259/371 243/237
f 1046/372 48/373 33/374
f 935/294 1135/344 1024/345
f 933/375 1058/176 887/376
f 693/228 692/55 676/57
f 112/1 990/377 108/18
f 842/53 833/378 191/54
f 177/124 833/378 178/379
f 177/124 192/380 191/54
f 191/54 190/381 189/382
f 189/382 188/383 187/384
f 187/384 186/385 185/386
f 185/386 947/387 187/384
f 947/387 929/388 187/384
f 183/389 182/390 181/391
f 181/391 180/392 179/393
f 189/382 843/52 191/54
f 929/388 896/394 187/384
f 70/23 1082/337 65/30
f 795/122 834/395 165/382
f 163/54 834/395 162/380
f 163/54 164/381 165/382
f 165/382 166/383 167/384
f 167/384 897/396 165/382
f 897/396 882/397 165/382
f 169/386 170/398 171/389
f 171/389 172/390 173/399
f 173/399 174/392 175/400
f 175/400 176/379 161/124
f 928/339 1054/401 1132/64
f 813/123 814/402 161/124
f 175/400 814/402 173/399
f 225/126 226/403 227/404
f 227/404 228/405 229/360
f 229/360 230/406 231/361
f 231/361 232/407 233/408
f 233/408 234/409 237/125
f 234/409 235/116 237/125
f 235/116 236/410 237/125
f 237/125 238/411 239/117
f 239/117 240/412 237/125
f 240/412 225/126 237/125
f 225/126 227/404 229/360
f 229/360 815/127 225/126
f 314/413 981/414 313/415
f 243/117 242/412 241/126
f 241/126 256/403 243/117
f 256/403 255/404 243/117
f 255/404 254/405 253/360
f 253/360 252/406 251/361
f 251/361 250/416 247/116
f 250/416 249/408 247/116
f 249/408 248/409 247/116
f 247/116 246/410 245/125
f 245/125 244/411 243/117
f 255/404 859/118 243/117
f 751/217 1026/417 746/28
f 247/116 245/125 243/117
f 816/418 276/132 873/419
f 352/168 351/170 346/182
f 278/129 873/419 276/132
f 898/418 283/132 860/419
f 251/361 247/116 859/118
f 284/129 860/419 283/132
f 817/418 292/132 874/419
f 975/420 1126/421 812/422
f 294/129 874/419 292/132
f 899/418 299/132 861/419
f 21/304 1134/423 975/420
f 300/129 861/419 299/132
f 952/424 340/425 845/426
f 930/427 913/143 367/428
f 341/162 952/424 844/163
f 368/429 951/141 930/427
f 1125/430 962/309 1145/431
f 844/163 845/426 339/432
f 875/433 1027/434 1003/435
f 907/436 1003/435 1035/437
f 330/438 329/439 331/120
f 331/120 332/440 333/121
f 333/121 334/441 335/442
f 335/442 336/119 333/121
f 366/142 801/44 361/443
f 786/12 785/4 784/13
f 375/200 374/444 803/201
f 967/401 881/445 1010/337
f 179/393 842/53 1072/446
f 305/147 321/447 328/148
f 687/46 686/448 670/47
f 64/77 63/449 1112/78
f 352/168 356/450 355/169
f 1036/451 1060/452 890/317
f 1026/417 745/29 746/28
f 84/106 78/188 66/22
f 226/101 225/58 209/60
f 332/61 331/453 323/62
f 350/168 354/450 353/169
f 349/168 353/450 356/169
f 351/168 355/450 354/169
f 493/210 494/99 507/100
f 956/454 1138/431 1036/451
f 857/339 1031/65 910/329
f 459/104 460/39 441/80
f 1132/64 111/21 106/20
f 869/455 1050/89 840/350
f 1011/321 1029/316 685/298
f 92/1 89/3 991/7
f 878/338 964/45 791/445
f 381/200 384/444 872/201
f 92/1 1075/377 88/18
f 862/456 376/198 371/197
f 369/202 370/76 375/200
f 595/9 596/165 597/10
f 698/194 697/457 681/195
f 380/202 379/76 381/200
f 837/456 382/198 378/197
f 467/104 468/39 461/80
f 880/338 966/45 793/445
f 98/188 97/40 85/41
f 1042/458 868/459 876/460
f 999/264 821/461 838/462
f 168/90 167/95 151/91
f 73/31 81/105 82/32
f 1087/235 907/463 918/464
f 496/189 497/465 504/190
f 194/37 193/38 177/36
f 102/32 100/466 87/26
f 198/92 197/46 181/93
f 707/217 1068/417 702/28
f 1093/467 42/468 43/469
f 945/470 1116/84 919/471
f 72/1 73/31 74/2
f 1096/135 11/278 1102/136
f 109/3 112/1 113/31
f 112/1 109/3 1013/7
f 1027/434 34/472 35/473
f 1094/64 90/23 91/21
f 787/104 788/39 781/80
f 806/369 984/221 891/370
f 90/23 1007/337 85/30
f 1127/325 1018/293 854/326
f 659/168 658/170 653/182
f 1023/227 839/474 868/459
f 823/351 1078/213 950/475
f 660/168 664/450 663/169
f 882/397 995/476 1079/477
f 1033/166 309/152 308/149
f 798/478 1074/161 959/328
f 117/4 123/39 115/5
f 690/179 689/479 673/180
f 658/168 662/450 661/169
f 657/168 661/450 664/169
f 659/168 663/450 662/169
f 309/152 325/258 324/153
f 233/244 232/480 216/245
f 933/375 997/243 830/481
f 670/270 902/271 671/272
f 902/271 934/273 671/272
f 934/273 1008/274 671/272
f 936/275 1070/135 923/276
f 936/275 937/277 679/278
f 680/279 937/277 681/280
f 863/281 983/282 848/283
f 863/281 864/284 675/285
f 676/286 864/284 677/287
f 674/288 818/289 675/285
f 672/290 938/291 673/292
f 818/289 1109/293 675/285
f 1134/423 953/454 1126/421
f 686/296 903/297 685/298
f 688/299 940/300 687/301
f 690/302 819/303 689/304
f 692/305 865/306 691/307
f 916/308 1059/309 889/310
f 916/308 941/311 697/312
f 696/313 941/311 695/314
f 904/315 1029/316 890/317
f 904/315 905/318 685/298
f 700/319 905/318 699/320
f 903/297 1011/321 685/298
f 819/303 1117/322 689/304
f 1074/161 883/482 341/162
f 1085/483 1092/484 957/323
f 928/339 982/65 825/329
f 1095/87 307/150 306/88
f 820/485 1146/261 1089/486
f 752/219 1069/364 749/365
f 319/348 1091/487 318/488
f 909/489 1005/167 877/490
f 919/471 1033/86 909/491
f 475/104 476/39 469/80
f 870/492 344/156 979/158
f 452/159 451/66 440/68
f 318/488 1067/493 317/494
f 1047/495 41/496 42/468
f 167/95 166/15 150/17
f 101/105 102/32 94/2
f 968/497 46/498 47/499
f 826/500 979/158 993/501
f 1089/486 1090/430 956/454
f 338/128 1076/502 1119/503
f 547/9 548/165 549/10
f 667/96 666/504 914/97
f 447/67 448/109 435/172
f 439/217 1118/417 434/28
f 1094/64 91/21 86/20
f 326/139 325/505 309/85
f 692/55 691/236 675/56
f 1066/506 876/460 908/353
f 499/9 491/507 492/164
f 957/323 1143/324 1127/325
f 824/329 1082/184 791/330
f 468/39 466/12 463/14
f 1045/508 40/356 41/496
f 977/253 949/358 821/461
f 1028/65 126/20 125/183
f 310/140 311/146 327/154
f 998/243 807/370 831/481
f 336/119 330/438 331/120
f 315/202 1002/509 314/413
f 1135/344 961/323 1024/345
f 1064/420 1088/421 906/422
f 841/276 1147/137 1085/483
f 68/18 964/331 67/332
f 169/36 168/90 152/37
f 877/490 1095/87 869/455
f 313/415 1130/510 320/346
f 996/325 1109/293 939/326
f 233/408 237/125 815/127
f 866/375 1084/243 915/481
f 1141/324 675/285 1109/293
f 437/209 971/265 435/172
f 297/138 298/340 294/129
f 858/339 1028/65 911/329
f 767/511 760/109 759/67
f 55/512 1087/235 1111/513
f 982/65 105/183 1124/184
f 172/514 155/112 156/250
f 206/250 189/246 190/514
f 29/457 12/515 13/195
f 772/39 757/14 753/80
f 596/165 604/211 597/10
f 193/38 192/262 177/36
f 175/232 158/516 159/517
f 735/104 729/80 730/27
f 764/159 752/68 749/160
f 770/12 758/13 757/14
f 436/173 971/265 997/243
f 779/104 773/80 774/27
f 762/12 750/13 751/14
f 455/511 448/109 447/67
f 1078/213 311/146 969/518
f 56/519 1111/513 1128/520
f 334/521 325/505 326/139
f 79/222 73/31 68/19
f 728/39 713/14 709/80
f 699/247 682/196 683/41
f 351/168 345/182 346/33
f 163/102 146/268 147/103
f 494/99 506/51 507/100
f 542/99 554/51 555/100
f 476/39 471/14 469/80
f 901/522 364/523 847/524
f 761/106 755/27 750/216
f 227/525 210/102 211/224
f 405/465 411/269 412/190
f 239/114 222/113 223/192
f 32/349 15/41 16/207
f 174/526 157/251 158/516
f 83/39 76/24 75/5
f 755/27 746/28 745/29
f 497/465 503/269 504/190
f 63/449 1086/352 1112/78
f 358/96 799/97 827/98
f 142/32 127/26 134/2
f 454/39 439/14 444/80
f 330/527 328/148 321/447
f 122/32 107/26 114/2
f 51/528 999/264 1022/529
f 685/206 684/207 669/208
f 641/465 647/83 648/530
f 20/336 3/48 4/204
f 931/75 370/76 829/72
f 61/531 1042/458 1066/506
f 331/532 322/533 323/534
f 19/46 2/47 3/48
f 124/106 106/22 116/24
f 1005/167 307/150 1095/87
f 766/39 751/14 756/80
f 725/106 710/27 714/216
f 62/535 1066/506 1086/352
f 204/516 187/232 188/526
f 545/465 551/269 552/190
f 734/12 732/13 731/14
f 723/511 716/109 715/67
f 262/225 245/536 246/223
f 119/222 113/31 108/19
f 930/427 362/537 828/538
f 144/106 126/22 136/24
f 718/12 706/13 707/14
f 205/251 188/526 189/246
f 402/99 414/51 415/100
f 57/539 1128/520 978/240
f 360/96 846/97 871/98
f 199/103 182/94 183/102
f 272/241 255/134 256/254
f 208/111 191/110 192/262
f 453/104 444/80 443/27
f 1073/65 65/183 1082/184
f 1031/65 85/183 1007/184
f 202/540 185/192 186/541
f 265/60 248/101 249/58
f 666/96 888/97 914/98
f 127/131 139/222 128/19
f 106/22 117/40 105/41
f 197/16 180/15 181/542
f 1062/220 745/29 1009/221
f 544/189 552/190 553/191
f 230/238 213/543 214/110
f 207/112 190/514 191/110
f 724/107 705/108 716/109
f 543/49 553/50 554/51
f 640/189 648/530 649/544
f 259/371 242/480 243/237
f 329/545 321/546 322/151
f 195/91 178/90 179/95
f 499/9 501/10 502/11
f 836/74 377/199 804/72
f 257/246 256/254 241/244
f 258/245 241/244 242/480
f 969/518 310/140 1116/84
f 229/536 212/225 213/93
f 759/67 747/172 748/173
f 201/267 184/266 185/192
f 237/547 220/232 221/548
f 240/193 223/192 224/59
f 1110/242 748/173 998/243
f 742/12 740/13 739/14
f 139/222 133/31 128/19
f 271/231 254/230 255/134
f 912/549 970/550 1039/551
f 232/480 215/371 216/245
f 200/268 183/102 184/266
f 401/210 415/100 416/211
f 176/541 159/517 160/540
f 80/70 68/19 67/131
f 564/552 565/553 557/554
f 494/99 487/555 495/49
f 519/556 507/100 506/51
f 509/554 524/557 517/553
f 608/558 617/559 609/560
f 398/561 389/562 390/563
f 398/564 391/565 399/566
f 624/567 633/568 632/569
f 592/189 600/190 601/191
f 263/224 246/223 247/525
f 270/232 253/547 254/230
f 835/570 797/571 954/572
f 593/465 599/269 600/190
f 18/448 1/208 2/47
f 748/173 973/265 998/243
f 1050/89 305/147 1048/212
f 570/573 561/574 569/575
f 563/576 570/577 571/578
f 513/560 520/579 521/559
f 487/580 480/581 488/582
f 592/583 583/580 584/582
f 395/555 386/584 387/585
f 588/586 573/587 581/588
f 588/164 579/589 580/590
f 393/591 386/592 394/593
f 533/591 526/592 534/593
f 634/561 625/562 626/563
f 503/269 521/575 504/190
f 323/534 306/88 307/150
f 595/9 588/164 596/165
f 432/557 416/211 425/553
f 565/594 555/100 566/595
f 583/580 576/581 584/582
f 572/557 556/211 565/553
f 620/596 598/11 597/10
f 594/81 587/566 595/9
f 406/81 397/597 398/561
f 497/465 488/569 489/568
f 639/49 632/582 640/583
f 403/49 396/582 404/583
f 512/598 519/599 520/600
f 567/556 555/100 554/51
f 567/556 558/601 566/602
f 527/603 536/582 535/580
f 524/596 515/604 523/605
f 430/573 421/574 429/575
f 538/564 531/565 539/566
f 572/596 563/604 571/605
f 700/349 683/41 684/207
f 546/81 550/11 551/269
f 95/5 104/106 96/24
f 231/237 214/110 215/371
f 407/9 409/10 410/11
f 408/165 416/211 409/10
f 26/16 9/229 10/70
f 203/517 186/541 187/232
f 515/576 522/577 523/578
f 522/573 513/574 521/575
f 388/567 397/568 396/569
f 631/580 624/581 632/582
f 621/606 630/593 629/591
f 427/556 415/100 414/51
f 608/598 615/599 616/600
f 584/569 577/607 585/568
f 520/600 506/51 505/50
f 427/599 413/50 428/600
f 545/465 536/569 537/568
f 585/597 594/81 593/465
f 523/578 503/269 502/11
f 547/9 540/164 548/165
f 400/586 401/210 408/165
f 613/594 603/100 614/595
f 629/591 638/99 637/210
f 620/557 604/211 613/553
f 572/596 550/11 549/10
f 642/81 635/566 643/9
f 642/81 633/597 634/561
f 552/190 568/579 553/191
f 605/608 614/595 606/609
f 590/99 583/555 591/49
f 540/586 525/587 533/588
f 583/555 574/584 575/585
f 581/591 574/592 582/593
f 599/269 617/575 600/190
f 480/567 489/568 488/569
f 490/561 481/562 482/563
f 490/564 483/565 491/566
f 424/610 431/605 432/596
f 266/59 249/58 250/193
f 780/39 775/14 773/80
f 451/66 447/67 440/68
f 238/115 221/548 222/113
f 495/49 505/50 506/51
f 87/131 99/222 88/19
f 594/81 598/11 599/269
f 500/165 508/211 501/10
f 611/576 618/577 619/578
f 399/507 392/590 400/164
f 560/558 569/559 561/560
f 613/553 612/552 620/557
f 557/608 566/595 558/609
f 535/555 526/584 527/585
f 420/598 427/599 428/600
f 491/507 484/590 492/164
f 487/555 478/584 479/585
f 637/210 636/586 629/588
f 504/190 520/579 505/191
f 489/597 498/81 497/465
f 498/81 491/566 499/9
f 407/9 400/164 408/165
f 589/210 588/586 581/588
f 581/591 590/99 589/210
f 425/594 415/100 426/595
f 524/557 508/211 517/553
f 641/465 632/569 633/568
f 619/578 599/269 598/11
f 537/597 546/81 545/465
f 593/465 584/569 585/568
f 615/556 603/100 602/51
f 567/599 553/50 568/600
f 400/586 385/587 393/588
f 630/611 623/585 631/555
f 485/591 478/592 486/593
f 417/554 432/557 425/553
f 536/569 529/607 537/568
f 423/576 430/577 431/578
f 586/564 579/565 587/566
f 421/560 428/579 429/559
f 668/96 922/97 946/98
f 694/16 677/229 678/70
f 460/39 445/14 441/80
f 991/7 87/25 1053/45
f 336/612 327/145 328/333
f 60/613 1023/227 1042/458
f 686/448 669/208 670/47
f 404/189 412/190 413/191
f 634/564 627/565 635/566
f 538/561 529/562 530/563
f 612/610 619/605 620/596
f 395/580 388/581 396/582
f 638/99 631/555 639/49
f 542/99 535/555 543/49
f 560/598 567/599 568/600
f 635/507 628/590 636/164
f 535/580 544/583 543/49
f 418/609 425/594 426/595
f 600/190 616/579 601/191
f 546/81 539/566 547/9
f 571/578 551/269 550/11
f 643/9 636/164 644/165
f 485/591 494/99 493/210
f 393/591 402/99 401/210
f 517/594 507/100 518/595
f 548/165 533/588 541/210
f 524/596 502/11 501/10
f 406/81 399/566 407/9
f 411/269 429/575 412/190
f 396/569 405/465 404/189
f 419/614 426/602 427/556
f 402/99 395/555 403/49
f 161/192 160/540 145/267
f 450/12 438/13 439/14
f 1063/259 1123/260 1144/261
f 264/102 247/525 248/101
f 591/49 601/50 602/51
f 53/615 1041/616 1065/617
f 498/81 502/11 503/269
f 743/104 737/80 738/27
f 577/562 586/561 585/597
f 618/573 609/574 617/575
f 495/49 488/582 496/583
f 629/588 628/618 621/587
f 615/556 606/601 614/602
f 615/599 601/50 616/600
f 484/618 485/588 492/586
f 539/507 532/590 540/164
f 519/556 510/601 518/602
f 510/609 517/594 518/595
f 412/190 428/579 413/191
f 551/269 569/575 552/190
f 431/578 411/269 410/11
f 432/596 410/11 409/10
f 492/586 493/210 500/165
f 533/591 542/99 541/210
f 900/185 870/492 952/424
f 28/619 11/71 12/515
f 643/9 645/178 646/82
f 269/548 252/115 253/547
f 23/236 6/181 7/56
f 261/543 244/238 245/620
f 589/210 603/100 604/211
f 52/621 1022/529 1041/616
f 104/106 86/22 96/24
f 639/49 649/622 650/255
f 688/336 671/48 672/204
f 697/457 680/515 681/195
f 458/12 446/13 445/14
f 77/4 75/5 65/6
f 901/522 884/42 951/141
f 466/12 464/13 463/14
f 689/304 1142/423 1064/420
f 866/375 972/176 806/376
f 333/257 332/623 324/153
f 769/106 771/104 754/27
f 1003/435 35/473 36/624
f 736/39 734/12 731/14
f 1039/551 798/625 955/626
f 884/42 365/627 363/43
f 829/72 370/76 369/73
f 316/628 1025/629 315/202
f 54/233 53/466 1065/234
f 979/158 960/630 870/492
f 900/185 341/162 883/186
f 1084/243 891/370 915/481
f 1146/261 889/310 1090/430
f 1034/631 44/632 45/633
f 892/369 1009/221 807/370
f 733/106 735/104 730/27
f 357/96 360/504 871/97
f 1128/520 943/634 948/635
f 1142/423 956/454 1088/421
f 765/104 766/39 756/80
f 322/151 321/546 305/147
f 133/31 134/2 129/3
f 1106/8 880/338 928/339
f 1131/64 70/23 71/21
f 1137/295 854/326 1004/327
f 236/230 235/134 219/231
f 287/138 288/340 284/129
f 1000/226 822/636 839/474
f 137/4 143/39 135/5
f 927/339 1073/65 824/329
f 132/1 1080/377 128/18
f 771/104 772/39 753/80
f 719/66 723/511 715/67
f 1058/220 438/215 433/29
f 815/127 231/361 233/408
f 457/106 459/104 442/27
f 910/329 1007/184 879/330
f 794/338 1055/45 881/445
f 1020/8 794/338 858/339
f 128/18 1055/331 127/332
f 196/17 195/91 179/95
f 590/99 591/49 602/51
f 164/94 163/102 147/103
f 268/113 267/192 251/114
f 348/33 346/182 345/34
f 1068/417 701/29 702/28
f 1140/637 790/317 1057/316
f 350/168 349/170 347/182
f 717/106 721/104 711/27
f 1081/7 129/3 127/25
f 1056/638 47/499 48/373
f 695/69 694/16 678/70
f 1040/639 337/640 797/641
f 1148/137 848/283 980/484
f 711/27 712/80 702/28
f 1107/242 440/219 436/173
f 235/134 234/254 218/241
f 135/5 143/39 144/106
f 1006/7 69/3 67/25
f 1111/513 918/464 943/634
f 1035/437 36/624 37/642
f 906/422 1139/637 1011/321
f 88/18 1053/331 87/332
f 72/1 69/3 1006/7
f 359/96 358/504 827/97
f 1122/451 963/452 790/317
f 950/475 969/518 945/470
f 317/643 1044/644 316/628
f 985/645 45/633 46/498
f 30/194 29/457 13/195
f 97/4 103/39 95/5
f 744/39 742/12 739/14
f 22/179 21/479 5/180
f 942/375 1062/176 892/376
f 1101/646 33/374 34/472
f 130/23 135/5 136/24
f 1147/137 920/283 1092/484
f 683/647 1135/344 1108/648
f 25/228 24/55 8/57
f 768/107 764/649 749/108
f 642/81 643/9 646/82
f 825/329 1124/184 793/330
f 953/454 1145/431 1122/451
f 1071/321 1057/316 17/298
f 1118/417 433/29 434/28
f 720/159 719/66 708/68
f 657/168 660/170 656/182
f 166/15 165/542 149/16
f 165/93 164/94 148/92
f 1077/483 980/484 961/323
f 972/220 706/215 701/29
f 778/12 777/4 776/13
f 923/276 1148/137 1077/483
f 644/165 637/210 652/177
f 72/1 989/377 68/18
f 726/12 725/4 714/13
f 708/219 1012/364 705/365
f 71/21 70/23 75/5
f 27/69 26/16 10/70
f 638/99 639/49 650/255
f 978/240 948/635 822/636
f 763/66 767/511 759/67
f 58/239 57/539 978/240
f 1138/431 697/312 1060/452
f 403/49 404/583 413/50
f 777/106 779/104 774/27
f 473/106 475/104 470/27
f 1112/78 917/354 944/357
f 1021/242 708/219 704/173
f 994/174 751/217 750/175
f 827/98 353/169 354/450
f 9/287 924/281 10/650
f 285/128 898/418 860/419
f 908/353 1120/651 1034/631
f 1092/484 1115/282 1143/324
f 857/339 965/401 1094/64
f 993/501 921/157 343/652
f 922/98 662/169 663/450
f 303/138 304/340 300/129
f 812/422 1140/637 1071/321
f 1132/64 110/23 111/21
f 123/39 124/106 116/24
f 173/246 172/514 156/250
f 1145/431 29/312 963/452
f 1022/529 838/462 867/653
f 993/501 955/626 826/500
f 970/654 883/482 1074/161
f 1110/242 892/376 1069/364
f 1117/322 1089/486 1142/423
f 990/377 793/330 966/331
f 13/280 851/275 14/655
f 14/655 841/276 1014/656
f 871/98 355/169 356/450
f 988/657 805/370 971/265
f 850/294 16/658 1017/648
f 19/301 1100/659 809/297
f 980/484 983/282 1141/324
f 380/73 804/72 379/76
f 1126/421 1122/451 1140/637
f 1019/8 910/329 1075/377
f 681/280 936/275 682/655
f 691/307 1037/660 819/303
f 865/306 976/259 820/485
f 678/650 848/283 1016/136
f 949/358 968/497 1056/638
f 946/98 663/169 664/450
f 1069/657 807/370 973/265
f 846/98 354/169 355/450
f 915/481 984/221 1068/417
f 31/320 810/315 30/661
f 1044/644 869/455 1025/629
f 1020/8 911/329 1080/377
f 178/379 842/53 179/393
f 917/354 1034/631 985/645
f 1088/421 1036/451 1139/637
f 1067/662 877/490 1044/644
f 921/663 912/664 343/665
f 1090/430 1059/309 1138/431
f 349/168 352/170 348/182
f 120/70 119/222 108/19
f 141/105 142/32 134/2
f 1139/637 890/317 1029/316
f 234/254 233/244 217/246
f 1120/651 43/469 44/632
f 942/375 998/243 831/481
f 113/31 121/105 122/32
f 344/156 958/187 921/663
f 1083/367 844/163 339/432
f 799/98 356/169 353/450
f 830/481 1032/221 1118/417
f 168/385 882/397 897/396
f 30/661 790/317 963/452
f 365/627 847/524 363/544
f 839/474 1045/508 1047/495
f 5/292 974/666 893/289
f 838/462 1046/372 1101/646
f 171/389 813/123 995/476
f 955/626 1121/667 1040/639
f 954/572 337/536 796/668
f 896/394 843/52 187/384
f 682/655 923/276 1103/656
f 695/314 916/308 694/669
f 699/320 904/315 698/661
f 673/292 1001/666 818/289
f 1025/629 840/350 1002/509
f 831/481 1009/221 1026/417
f 1114/347 919/471 1091/487
f 995/476 795/122 1079/477
f 854/326 974/666 853/291
f 295/128 817/418 874/419
f 867/653 1101/646 1027/434
f 23/307 1104/660 894/303
f 184/398 929/388 947/387
f 1075/377 879/330 1053/331
f 821/461 1056/638 1046/372
f 1121/670 959/328 1083/367
f 1080/377 881/330 1055/331
f 1098/174 915/481 1068/417
f 449/106 453/104 443/27
f 665/96 668/504 946/97
f 82/32 80/466 67/26
f 997/243 805/370 830/481
f 443/27 444/80 434/28
f 15/647 1136/344 1017/648
f 895/485 1144/261 1043/486
f 656/33 654/182 653/34
f 958/187 342/671 912/664
f 858/339 967/401 1099/64
f 367/428 800/249 362/672
f 368/429 828/538 364/673
f 855/300 975/420 812/422
f 812/422 1100/659 855/300
f 376/198 829/72 372/199
f 1012/657 891/370 1061/265
f 162/380 795/122 161/124
f 669/674 934/273 902/271
f 1079/477 165/382 882/397
f 826/500 1040/639 1119/503
f 845/426 796/668 339/432
f 1072/446 843/52 896/394
f 938/291 1049/327 939/326
f 906/422 1038/659 940/300
f 820/485 1037/660 865/306
f 677/287 863/281 678/650
f 927/339 1052/401 1131/64
f 876/460 1093/467 1120/651
f 343/652 1039/551 993/501
f 888/98 664/169 661/450
f 1105/8 824/329 989/377
f 1021/242 806/376 1012/364
f 822/636 1015/355 1045/508
f 853/291 1004/327 854/326
f 27/314 832/308 26/669
f 944/357 985/645 968/497
f 1097/174 830/481 1118/417
f 1119/503 960/630 826/500
f 981/414 950/475 1130/510
f 1113/345 1127/325 1137/295
f 727/104 728/39 709/80
f 1043/486 1125/430 953/454
f 913/143 366/142 361/248
f 49/252 64/77 1129/79
f 50/263 49/252 977/253
f 3/272 1137/295 1004/327
f 1065/617 875/433 907/436
f 66/22 78/188 77/40
f 931/75 374/218 375/200
f 932/214 382/198 383/335
f 1014/656 1085/483 1136/344
f 943/634 986/362 992/341
f 895/485 1104/660 926/306
f 183/389 896/394 929/388
f 989/377 791/330 964/331
f 868/459 1047/495 1093/467
f 301/128 899/418 861/419
f 10/650 920/283 1102/136
f 1103/656 1077/483 1135/344
f 340/425 954/572 845/426
f 965/401 879/445 1007/337
f 372/199 802/74 371/675
f 694/669 889/310 1030/260
f 940/300 1064/420 906/422
f 698/661 890/317 1060/452
f 939/326 1001/666 938/291
f 1091/487 909/491 1067/493
f 987/322 1043/486 1134/423
f 914/98 661/169 662/450
f 1024/345 996/325 1133/295
f 279/128 816/418 873/419
f 1/674 849/273 808/271
f 138/188 137/40 125/41
f 792/338 1053/45 879/445
f 170/262 169/36 153/38
f 741/106 743/104 738/27
f 704/173 703/172 1061/265
f 721/104 722/39 712/80
f 1070/135 679/278 1016/136
f 225/58 240/193 224/59
f 1107/242 887/376 988/364
f 870/492 960/630 1076/502
f 1106/8 825/329 990/377
f 1130/510 945/470 1114/347
f 26/669 789/310 1123/260
f 173/399 813/123 171/389
f 948/635 992/341 1015/355
f 918/464 1035/676 986/362
f 926/306 1063/259 895/485
f 1054/401 793/445 1124/337
f 1052/401 791/445 1082/337
f 994/174 831/481 1026/417
f 1002/509 823/351 981/414
f 382/198 804/72 377/199
f 935/294 684/658 1108/648
f 687/301 1038/659 903/297
f 308/149 324/63 323/62
f 722/39 718/12 707/14
f 465/106 467/104 462/27
f 1116/84 310/140 309/85
f 1041/616 867/653 875/433
f 171/110 170/262 154/111
f 1144/261 789/310 1125/430
f 1119/503 797/641 338/128
f 1136/344 957/323 1113/345
f 456/107 452/649 437/108
f 548/165 541/210 556/211
f 267/192 266/59 250/193
f 658/168 657/170 655/182
f 228/223 227/525 211/224
f 689/203 688/336 672/204
f 1143/324 7/285 1018/293
f 696/619 679/71 680/515
f 1013/7 109/3 107/25
f 1099/64 131/21 126/20
f 785/106 787/104 782/27
f 162/266 161/192 145/267
f 1098/174 707/217 706/175
f 406/81 407/9 410/11
f 1131/64 71/21 66/20
f 637/210 638/99 651/256
f 24/55 23/236 7/56
f 2/270 1/674 808/271
f 849/273 850/294 1051/274
f 851/275 11/278 1096/135
f 12/279 11/278 852/277
f 924/281 7/285 1115/282
f 8/286 7/285 925/284
f 6/288 5/292 893/289
f 4/290 3/272 853/291
f 893/289 854/326 1018/293
f 935/294 1024/345 1133/295
f 18/296 19/301 809/297
f 20/299 21/304 855/300
f 22/302 23/307 894/303
f 24/305 25/359 926/306
f 832/308 29/312 962/309
f 28/313 29/312 856/311
f 810/315 17/298 1057/316
f 32/319 17/298 811/318
f 809/297 812/422 1071/321
f 894/303 895/485 987/322
f 961/323 980/484 1141/324
f 1133/295 996/325 939/326
f 911/329 1028/65 1010/184
f 108/18 990/377 966/331
f 671/272 1008/274 1133/295
f 705/209 1012/657 1061/265
f 110/23 1054/401 1124/337
f 1019/8 991/7 792/338
f 1099/64 967/401 130/23
f 992/341 986/362 38/342
f 850/294 1017/648 1136/344
f 1105/8 1006/7 878/338
f 320/346 1130/510 1114/347
f 840/350 1050/89 1048/212
f 1086/352 1066/506 908/353
f 1015/355 992/341 39/343
f 1129/79 1112/78 944/357
f 130/23 967/401 1010/337
f 749/209 1069/657 973/265
f 986/362 1035/676 37/363
f 850/294 1113/345 1137/295
f 440/219 1107/242 988/364
f 337/366 1121/670 1083/367
f 887/369 1058/220 1032/221
f 1046/372 1056/638 48/373
f 935/294 1108/648 1135/344
f 933/375 1097/174 1058/176
f 112/1 1106/8 990/377
f 177/124 191/54 833/378
f 185/386 184/398 947/387
f 189/382 187/384 843/52
f 70/23 1052/401 1082/337
f 163/54 165/382 834/395
f 167/384 168/385 897/396
f 928/339 880/338 1054/401
f 175/400 161/124 814/402
f 229/360 231/361 815/127
f 314/413 1002/509 981/414
f 255/404 253/360 859/118
f 751/217 994/174 1026/417
f 816/418 273/133 276/132
f 278/129 279/128 873/419
f 898/418 277/133 283/132
f 284/129 285/128 860/419
f 817/418 289/133 292/132
f 975/420 1134/423 1126/421
f 294/129 295/128 874/419
f 899/418 293/133 299/132
f 21/304 987/322 1134/423
f 300/129 301/128 861/419
f 952/424 870/492 340/425
f 930/427 951/141 913/143
f 341/162 900/185 952/424
f 368/429 901/522 951/141
f 1125/430 789/310 962/309
f 844/163 952/424 845/426
f 875/433 867/653 1027/434
f 907/436 875/433 1003/435
f 366/142 884/42 801/44
f 967/401 794/338 881/445
f 896/394 181/391 1072/446
f 181/391 179/393 1072/446
f 1036/451 1138/431 1060/452
f 1026/417 1009/221 745/29
f 956/454 1090/430 1138/431
f 857/339 1094/64 1031/65
f 869/455 1095/87 1050/89
f 1011/321 1139/637 1029/316
f 878/338 1006/7 964/45
f 92/1 1019/8 1075/377
f 862/456 373/677 376/198
f 837/456 383/677 382/198
f 880/338 1013/7 966/45
f 1042/458 1023/227 868/459
f 999/264 977/253 821/461
f 1087/235 1065/234 907/463
f 707/217 1098/174 1068/417
f 1093/467 1047/495 42/468
f 945/470 969/518 1116/84
f 1027/434 1101/646 34/472
f 1094/64 965/401 90/23
f 806/369 972/220 984/221
f 90/23 965/401 1007/337
f 1127/325 1143/324 1018/293
f 1023/227 1000/226 839/474
f 823/351 1048/212 1078/213
f 798/478 970/654 1074/161
f 933/375 1107/242 997/243
f 670/270 669/674 902/271
f 934/273 935/294 1008/274
f 936/275 679/278 1070/135
f 680/279 679/278 937/277
f 863/281 675/285 983/282
f 676/286 675/285 864/284
f 674/288 673/292 818/289
f 672/290 671/272 938/291
f 818/289 939/326 1109/293
f 1134/423 1043/486 953/454
f 686/296 687/301 903/297
f 688/299 689/304 940/300
f 690/302 691/307 819/303
f 692/305 693/359 865/306
f 916/308 697/312 1059/309
f 696/313 697/312 941/311
f 904/315 685/298 1029/316
f 700/319 685/298 905/318
f 903/297 906/422 1011/321
f 819/303 820/485 1117/322
f 1085/483 1147/137 1092/484
f 928/339 1132/64 982/65
f 820/485 976/259 1146/261
f 752/219 1110/242 1069/364
f 319/348 1114/347 1091/487
f 909/489 1033/166 1005/167
f 919/471 1116/84 1033/86
f 318/488 1091/487 1067/493
f 1047/495 1045/508 41/496
f 968/497 985/645 46/498
f 826/500 960/630 979/158
f 1089/486 1146/261 1090/430
f 338/128 835/678 1076/502
f 439/217 1097/174 1118/417
f 1066/506 1042/458 876/460
f 957/323 1092/484 1143/324
f 824/329 1073/65 1082/184
f 1045/508 1015/355 40/356
f 977/253 1129/79 949/358
f 998/243 973/265 807/370
f 315/202 1025/629 1002/509
f 1135/344 1077/483 961/323
f 1064/420 1142/423 1088/421
f 841/276 1096/135 1147/137
f 68/18 989/377 964/331
f 877/490 1005/167 1095/87
f 313/415 981/414 1130/510
f 996/325 1141/324 1109/293
f 866/375 1021/242 1084/243
f 1141/324 983/282 675/285
f 437/209 988/657 971/265
f 858/339 1099/64 1028/65
f 767/511 768/107 760/109
f 55/512 54/233 1087/235
f 982/65 106/20 105/183
f 172/514 171/110 155/112
f 206/250 205/251 189/246
f 29/457 28/619 12/515
f 772/39 770/12 757/14
f 596/165 589/210 604/211
f 193/38 208/111 192/262
f 175/232 174/526 158/516
f 735/104 736/39 729/80
f 764/159 763/66 752/68
f 770/12 769/4 758/13
f 436/173 435/172 971/265
f 779/104 780/39 773/80
f 762/12 761/4 750/13
f 455/511 456/107 448/109
f 1078/213 312/144 311/146
f 56/519 55/512 1111/513
f 334/521 333/679 325/505
f 79/222 81/105 73/31
f 728/39 726/12 713/14
f 699/247 698/194 682/196
f 351/168 350/170 345/182
f 163/102 162/266 146/268
f 494/99 495/49 506/51
f 542/99 543/49 554/51
f 476/39 474/12 471/14
f 901/522 368/429 364/523
f 761/106 765/104 755/27
f 227/525 226/101 210/102
f 405/465 406/81 411/269
f 239/114 238/115 222/113
f 32/349 31/247 15/41
f 174/526 173/246 157/251
f 83/39 84/106 76/24
f 755/27 756/80 746/28
f 497/465 498/81 503/269
f 63/449 62/535 1086/352
f 358/96 357/504 799/97
f 142/32 140/466 127/26
f 454/39 450/12 439/14
f 330/527 336/680 328/148
f 122/32 120/466 107/26
f 51/528 50/263 999/264
f 685/206 700/349 684/207
f 641/465 642/81 647/83
f 20/336 19/46 3/48
f 931/75 375/200 370/76
f 61/531 60/613 1042/458
f 331/532 329/681 322/533
f 19/46 18/448 2/47
f 124/106 118/188 106/22
f 1005/167 308/149 307/150
f 766/39 762/12 751/14
f 725/106 727/104 710/27
f 62/535 61/531 1066/506
f 204/516 203/517 187/232
f 545/465 546/81 551/269
f 734/12 733/4 732/13
f 723/511 724/107 716/109
f 262/225 261/93 245/536
f 119/222 121/105 113/31
f 930/427 367/428 362/537
f 144/106 138/188 126/22
f 718/12 717/4 706/13
f 205/251 204/516 188/526
f 402/99 403/49 414/51
f 57/539 56/519 1128/520
f 360/96 359/504 846/97
f 199/103 198/92 182/94
f 272/241 271/231 255/134
f 208/111 207/112 191/110
f 453/104 454/39 444/80
f 1073/65 66/20 65/183
f 1031/65 86/20 85/183
f 202/540 201/267 185/192
f 265/60 264/102 248/101
f 666/96 665/504 888/97
f 127/131 140/70 139/222
f 106/22 118/188 117/40
f 197/16 196/17 180/15
f 1062/220 750/215 745/29
f 544/189 545/465 552/190
f 230/238 229/620 213/543
f 207/112 206/250 190/514
f 724/107 720/649 705/108
f 543/49 544/583 553/50
f 640/189 641/465 648/530
f 259/371 258/245 242/480
f 329/545 330/682 321/546
f 195/91 194/37 178/90
f 499/9 500/165 501/10
f 836/74 378/675 377/199
f 257/246 272/241 256/254
f 258/245 257/246 241/244
f 969/518 311/146 310/140
f 229/536 228/223 212/225
f 759/67 760/109 747/172
f 201/267 200/268 184/266
f 237/547 236/230 220/232
f 240/193 239/114 223/192
f 1110/242 752/219 748/173
f 742/12 741/4 740/13
f 139/222 141/105 133/31
f 271/231 270/232 254/230
f 912/549 342/683 970/550
f 232/480 231/237 215/371
f 200/268 199/103 183/102
f 401/210 402/99 415/100
f 176/541 175/232 159/517
f 80/70 79/222 68/19
f 564/552 572/557 565/553
f 494/99 486/611 487/555
f 519/556 518/602 507/100
f 509/554 516/552 524/557
f 608/558 616/579 617/559
f 398/561 397/597 389/562
f 398/564 390/684 391/565
f 624/567 625/607 633/568
f 592/189 593/465 600/190
f 263/224 262/225 246/223
f 270/232 269/548 253/547
f 835/570 338/685 797/571
f 593/465 594/81 599/269
f 18/448 17/206 1/208
f 748/173 747/172 973/265
f 1050/89 306/88 305/147
f 570/573 562/686 561/574
f 563/576 562/687 570/577
f 513/560 512/558 520/579
f 487/580 479/603 480/581
f 592/583 591/49 583/580
f 395/555 394/611 386/584
f 588/586 580/618 573/587
f 588/164 587/507 579/589
f 393/591 385/606 386/592
f 533/591 525/606 526/592
f 634/561 633/597 625/562
f 503/269 522/573 521/575
f 323/534 322/533 306/88
f 595/9 587/507 588/164
f 432/557 409/10 416/211
f 565/594 556/211 555/100
f 583/580 575/603 576/581
f 572/557 549/10 556/211
f 620/596 619/605 598/11
f 594/81 586/564 587/566
f 406/81 405/465 397/597
f 497/465 496/189 488/569
f 639/49 631/580 632/582
f 403/49 395/580 396/582
f 512/598 511/688 519/599
f 567/556 566/602 555/100
f 567/556 559/614 558/601
f 527/603 528/581 536/582
f 524/596 516/610 515/604
f 430/573 422/686 421/574
f 538/564 530/684 531/565
f 572/596 564/610 563/604
f 700/349 699/247 683/41
f 546/81 547/9 550/11
f 95/5 103/39 104/106
f 231/237 230/238 214/110
f 407/9 408/165 409/10
f 408/165 401/210 416/211
f 26/16 25/228 9/229
f 203/517 202/540 186/541
f 515/576 514/687 522/577
f 522/573 514/686 513/574
f 388/567 389/607 397/568
f 631/580 623/603 624/581
f 621/606 622/592 630/593
f 427/556 426/602 415/100
f 608/598 607/688 615/599
f 584/569 576/567 577/607
f 520/600 519/599 506/51
f 427/599 414/51 413/50
f 545/465 544/189 536/569
f 585/597 586/561 594/81
f 523/578 522/577 503/269
f 547/9 539/507 540/164
f 400/586 393/588 401/210
f 613/594 604/211 603/100
f 629/591 630/593 638/99
f 620/557 597/10 604/211
f 572/596 571/605 550/11
f 642/81 634/564 635/566
f 642/81 641/465 633/597
f 552/190 569/559 568/579
f 605/608 613/594 614/595
f 590/99 582/611 583/555
f 540/586 532/618 525/587
f 583/555 582/611 574/584
f 581/591 573/606 574/592
f 599/269 618/573 617/575
f 480/567 481/607 489/568
f 490/561 489/597 481/562
f 490/564 482/684 483/565
f 424/610 423/604 431/605
f 266/59 265/60 249/58
f 780/39 778/12 775/14
f 451/66 455/511 447/67
f 238/115 237/547 221/548
f 495/49 496/583 505/50
f 87/131 100/70 99/222
f 594/81 595/9 598/11
f 500/165 493/210 508/211
f 611/576 610/687 618/577
f 399/507 391/589 392/590
f 560/558 568/579 569/559
f 613/553 605/554 612/552
f 557/608 565/594 566/595
f 535/555 534/611 526/584
f 420/598 419/688 427/599
f 491/507 483/589 484/590
f 487/555 486/611 478/584
f 637/210 644/165 636/586
f 504/190 521/559 520/579
f 489/597 490/561 498/81
f 498/81 490/564 491/566
f 407/9 399/507 400/164
f 589/210 596/165 588/586
f 581/591 582/593 590/99
f 425/594 416/211 415/100
f 524/557 501/10 508/211
f 641/465 640/189 632/569
f 619/578 618/577 599/269
f 537/597 538/561 546/81
f 593/465 592/189 584/569
f 615/556 614/602 603/100
f 567/599 554/51 553/50
f 400/586 392/618 385/587
f 630/611 622/584 623/585
f 485/591 477/606 478/592
f 417/554 424/552 432/557
f 536/569 528/567 529/607
f 423/576 422/687 430/577
f 586/564 578/684 579/565
f 421/560 420/558 428/579
f 668/96 667/504 922/97
f 694/16 693/228 677/229
f 460/39 458/12 445/14
f 991/7 89/3 87/25
f 336/612 335/689 327/145
f 60/613 59/4 1023/227
f 686/448 685/206 669/208
f 404/189 405/465 412/190
f 634/564 626/684 627/565
f 538/561 537/597 529/562
f 612/610 611/604 619/605
f 395/580 387/603 388/581
f 638/99 630/611 631/555
f 542/99 534/611 535/555
f 560/598 559/688 567/599
f 635/507 627/589 628/590
f 535/580 536/582 544/583
f 418/609 417/608 425/594
f 600/190 617/559 616/579
f 546/81 538/564 539/566
f 571/578 570/577 551/269
f 643/9 635/507 636/164
f 485/591 486/593 494/99
f 393/591 394/593 402/99
f 517/594 508/211 507/100
f 548/165 540/586 533/588
f 524/596 523/605 502/11
f 406/81 398/564 399/566
f 411/269 430/573 429/575
f 396/569 397/568 405/465
f 419/614 418/601 426/602
f 402/99 394/611 395/555
f 161/192 176/541 160/540
f 450/12 449/4 438/13
f 1063/259 25/359 1123/260
f 264/102 263/224 247/525
f 591/49 592/583 601/50
f 53/615 52/621 1041/616
f 498/81 499/9 502/11
f 743/104 744/39 737/80
f 577/562 578/563 586/561
f 618/573 610/686 609/574
f 495/49 487/580 488/582
f 629/588 636/586 628/618
f 615/556 607/614 606/601
f 615/599 602/51 601/50
f 484/618 477/587 485/588
f 539/507 531/589 532/590
f 519/556 511/614 510/601
f 510/609 509/608 517/594
f 412/190 429/559 428/579
f 551/269 570/573 569/575
f 431/578 430/577 411/269
f 432/596 431/605 410/11
f 492/586 485/588 493/210
f 533/591 534/593 542/99
f 900/185 344/156 870/492
f 28/619 27/69 11/71
f 643/9 644/165 645/178
f 269/548 268/113 252/115
f 23/236 22/179 6/181
f 261/543 260/110 244/238
f 589/210 590/99 603/100
f 52/621 51/528 1022/529
f 104/106 98/188 86/22
f 639/49 640/583 649/622
f 688/336 687/46 671/48
f 697/457 696/619 680/515
f 458/12 457/4 446/13
f 77/4 83/39 75/5
f 901/522 365/627 884/42
f 466/12 465/4 464/13
f 689/304 1117/322 1142/423
f 866/375 1098/174 972/176
f 1003/435 1027/434 35/473
f 1039/551 970/550 798/625
f 316/628 1044/644 1025/629
f 1084/243 1061/265 891/370
f 1146/261 1030/260 889/310
f 1034/631 1120/651 44/632
f 892/369 1062/220 1009/221
f 1128/520 1111/513 943/634
f 1142/423 1089/486 956/454
f 1106/8 1013/7 880/338
f 1131/64 1052/401 70/23
f 1137/295 1127/325 854/326
f 1000/226 978/240 822/636
f 927/339 1131/64 1073/65
f 132/1 1020/8 1080/377
f 910/329 1031/65 1007/184
f 794/338 1081/7 1055/45
f 1020/8 1081/7 794/338
f 128/18 1080/377 1055/331
f 1068/417 984/221 701/29
f 1140/637 1122/451 790/317
f 1056/638 968/497 47/499
f 1040/639 1121/667 337/640
f 1148/137 1016/136 848/283
f 1111/513 1087/235 918/464
f 1035/437 1003/435 36/624
f 906/422 1088/421 1139/637
f 88/18 1075/377 1053/331
f 1122/451 1145/431 963/452
f 950/475 1078/213 969/518
f 317/643 1067/662 1044/644
f 985/645 1034/631 45/633
f 942/375 994/174 1062/176
f 1101/646 1046/372 33/374
f 1147/137 1102/136 920/283
f 683/647 1103/656 1135/344
f 825/329 982/65 1124/184
f 953/454 1125/430 1145/431
f 1071/321 1140/637 1057/316
f 1118/417 1032/221 433/29
f 1077/483 1148/137 980/484
f 923/276 1070/135 1148/137
f 72/1 1105/8 989/377
f 708/219 1021/242 1012/364
f 978/240 1128/520 948/635
f 1138/431 1059/309 697/312
f 1112/78 1086/352 917/354
f 827/98 799/97 353/169
f 9/287 925/284 924/281
f 908/353 876/460 1120/651
f 1092/484 920/283 1115/282
f 857/339 792/338 965/401
f 993/501 979/158 921/157
f 922/98 914/97 662/169
f 812/422 1126/421 1140/637
f 1132/64 1054/401 110/23
f 1145/431 962/309 29/312
f 1022/529 999/264 838/462
f 993/501 1039/551 955/626
f 970/654 342/690 883/482
f 1110/242 942/375 892/376
f 1117/322 820/485 1089/486
f 990/377 825/329 793/330
f 13/280 852/277 851/275
f 1014/656 15/647 14/655
f 14/655 851/275 841/276
f 871/98 846/97 355/169
f 988/657 887/369 805/370
f 849/273 16/658 850/294
f 16/658 15/647 1017/648
f 19/301 855/300 1100/659
f 980/484 848/283 983/282
f 380/73 836/74 804/72
f 1126/421 953/454 1122/451
f 1019/8 857/339 910/329
f 681/280 937/277 936/275
f 691/307 865/306 1037/660
f 865/306 693/359 976/259
f 1016/136 679/278 678/650
f 678/650 863/281 848/283
f 949/358 944/357 968/497
f 946/98 922/97 663/169
f 1069/657 892/369 807/370
f 846/98 827/97 354/169
f 915/481 891/370 984/221
f 31/320 811/318 810/315
f 1044/644 877/490 869/455
f 1020/8 858/339 911/329
f 178/379 833/378 842/53
f 917/354 908/353 1034/631
f 1088/421 956/454 1036/451
f 1067/662 909/489 877/490
f 921/663 958/187 912/664
f 1090/430 889/310 1059/309
f 1139/637 1036/451 890/317
f 1120/651 1093/467 43/469
f 942/375 1110/242 998/243
f 344/156 900/185 958/187
f 339/432 796/368 1083/367
f 1083/367 959/328 844/163
f 799/98 871/97 356/169
f 830/481 805/370 1032/221
f 168/385 169/386 882/397
f 963/452 29/312 30/661
f 30/661 810/315 790/317
f 365/627 901/522 847/524
f 839/474 822/636 1045/508
f 5/292 853/291 974/666
f 838/462 821/461 1046/372
f 882/397 169/386 995/476
f 169/386 171/389 995/476
f 955/626 798/625 1121/667
f 954/572 797/571 337/536
f 1103/656 683/647 682/655
f 682/655 936/275 923/276
f 695/314 941/311 916/308
f 699/320 905/318 904/315
f 673/292 938/291 1001/666
f 1025/629 869/455 840/350
f 831/481 807/370 1009/221
f 1114/347 945/470 919/471
f 995/476 813/123 795/122
f 854/326 893/289 974/666
f 867/653 838/462 1101/646
f 23/307 926/306 1104/660
f 184/398 183/389 929/388
f 1075/377 910/329 879/330
f 821/461 949/358 1056/638
f 1121/670 798/478 959/328
f 1080/377 911/329 881/330
f 1098/174 866/375 915/481
f 997/243 971/265 805/370
f 15/647 1014/656 1136/344
f 895/485 1063/259 1144/261
f 958/187 883/186 342/671
f 858/339 794/338 967/401
f 367/428 913/143 800/249
f 368/429 930/427 828/538
f 855/300 21/304 975/420
f 812/422 809/297 1100/659
f 376/198 931/75 829/72
f 1012/657 806/369 891/370
f 162/380 834/395 795/122
f 669/674 684/658 934/273
f 1079/477 795/122 165/382
f 826/500 955/626 1040/639
f 845/426 954/572 796/668
f 1072/446 842/53 843/52
f 938/291 671/272 1049/327
f 906/422 903/297 1038/659
f 820/485 819/303 1037/660
f 677/287 864/284 863/281
f 927/339 878/338 1052/401
f 876/460 868/459 1093/467
f 343/652 912/549 1039/551
f 888/98 946/97 664/169
f 1105/8 927/339 824/329
f 1021/242 866/375 806/376
f 822/636 948/635 1015/355
f 853/291 3/272 1004/327
f 27/314 856/311 832/308
f 944/357 917/354 985/645
f 1097/174 933/375 830/481
f 1119/503 1076/502 960/630
f 981/414 823/351 950/475
f 1113/345 957/323 1127/325
f 1043/486 1144/261 1125/430
f 3/272 1051/274 1137/295
f 1065/617 1041/616 875/433
f 931/75 885/214 374/218
f 932/214 886/75 382/198
f 1014/656 841/276 1085/483
f 943/634 918/464 986/362
f 895/485 894/303 1104/660
f 183/389 181/391 896/394
f 989/377 824/329 791/330
f 868/459 839/474 1047/495
f 1102/136 11/278 10/650
f 10/650 924/281 920/283
f 1103/656 923/276 1077/483
f 340/425 835/570 954/572
f 965/401 792/338 879/445
f 372/199 829/72 802/74
f 1030/260 693/359 694/669
f 694/669 916/308 889/310
f 940/300 689/304 1064/420
f 1060/452 697/312 698/661
f 698/661 904/315 890/317
f 939/326 818/289 1001/666
f 1091/487 919/471 909/491
f 987/322 895/485 1043/486
f 914/98 888/97 661/169
f 1024/345 961/323 996/325
f 1/674 16/658 849/273
f 792/338 991/7 1053/45
f 1107/242 933/375 887/376
f 1076/502 835/678 340/425
f 340/425 870/492 1076/502
f 1106/8 928/339 825/329
f 1130/510 950/475 945/470
f 1123/260 25/359 26/669
f 26/669 832/308 789/310
f 173/399 814/402 813/123
f 948/635 943/634 992/341
f 918/464 907/463 1035/676
f 926/306 25/359 1063/259
f 1054/401 880/338 793/445
f 1052/401 878/338 791/445
f 994/174 942/375 831/481
f 1002/509 840/350 823/351
f 382/198 886/75 804/72
f 934/273 684/658 935/294
f 684/658 683/647 1108/648
f 687/301 940/300 1038/659
f 1041/616 1022/529 867/653
f 1144/261 1123/260 789/310
f 1119/503 1040/639 797/641
f 1136/344 1085/483 957/323
f 1143/324 1115/282 7/285
f 696/619 695/69 679/71
o Core
v 0 2.25 -0
v 0.1809 2.3882 0.1314
v -0.0691 2.3882 0.2127
v -0.2236 2.3882 -0
v -0.0691 2.3882 -0.2127
v 0.1809 2.3882 -0.1314
v 0.0691 2.6118 0.2127
v -0.1809 2.6118 0.1314
v -0.1809 2.6118 -0.1314
v 0.0691 2.6118 -0.2127
v 0.2236 2.6118 -0
v 0 2.75 -0
vt 0.5385 0.4912
vt 0.5256 0.4912
vt 0.5321 0.4737
s 1
f 1149/691 1150/692 1151/693
f 1150/692 1149/693 1154/691
f 1149/691 1151/692 1152/693
f 1149/693 1152/691 1153/692
f 1149/693 1153/691 1154/692
f 1150/692 1154/693 1159/691
f 1151/692 1150/693 1155/691
f 1152/691 1151/692 1156/693
f 1153/692 1152/693 1157/691
f 1154/691 1153/692 1158/693
f 1150/693 1159/691 1155/692
f 1151/693 1155/691 1156/692
f 1152/691 1156/692 1157/693
f 1153/691 1157/692 1158/693
f 1154/691 1158/692 1159/693
f 1155/692 1159/693 1160/691
f 1156/691 1155/692 1160/693
f 1157/691 1156/692 1160/693
f 1158/692 1157/693 1160/691
f 1159/691 1158/692 1160/693
o Magnets
v 1.9616 0.5 0.2926
v 1.9616 0.5 -0.2926
v 1.226 0.5 0.2439
v 1.226 0.5 -0.2439
v 1.9616 1.25 0.2926
v 1.226 1.25 0.2439
v 1.9616 1.25 -0.2926
v 1.226 1.25 -0.2439
v 1.226 4.5 -0.2439
v 1.9616 4.5 -0.2926
v 1.226 4.5 0.2439
v 1.9616 4.5 0.2926
v 1.226 3.75 -0.2439
v 1.226 3.75 0.2439
v 1.9616 3.75 -0.2926
v 1.9616 3.75 0.2926
v -1.9616 0.5 -0.2926
v -1.9616 0.5 0.2926
v -1.226 0.5 -0.2439
v -1.226 0.5 0.2439
v -1.9616 1.25 -0.2926
v -1.226 1.25 -0.2439
v -1.9616 1.25 0.2926
v -1.226 1.25 0.2439
v -1.226 4.5 0.2439
v -1.9616 4.5 0.2926
v -1.226 4.5 -0.2439
v -1.9616 4.5 -0.2926
v -1.226 3.75 0.2439
v -1.226 3.75 -0.2439
v -1.9616 3.75 0.2926
v -1.9616 3.75 -0.2926
v 0.2926 0.5 -1.9616
v -0.2926 0.5 -1.9616
v 0.2439 0.5 -1.226
v -0.2439 0.5 -1.226
v 0.2926 1.25 -1.9616
v 0.2439 1.25 -1.226
v -0.2926 1.25 -1.9616
v -0.2439 1.25 -1.226
v -0.2439 4.5 -1.226
v -0.2926 4.5 -1.9616
v 0.2439 4.5 -1.226
v 0.2926 4.5 -1.9616
v -0.2439 3.75 -1.226
v 0.2439 3.75 -1.226
v -0.2926 3.75 -1.9616
v 0.2926 3.75 -1.9616
v -0.2926 0.5 1.9616
v 0.2926 0.5 1.9616
v -0.2439 0.5 1.226
v 0.2439 0.5 1.226
v -0.2926 1.25 1.9616
v -0.2439 1.25 1.226
v 0.2926 1.25 1.9616
v 0.2439 1.25 1.226
v 0.2439 4.5 1.226
v 0.2926 4.5 1.9616
v -0.2439 4.5 1.226
v -0.2926 4.5 1.9616
v 0.2439 3.75 1.226
v -0.2439 3.75 1.226
v 0.2926 3.75 1.9616
v -0.2926 3.75 1.9616
v 1.594 0.5 -1.1801
v 1.1801 0.5 -1.594
v 1.0393 0.5 -0.6945
v 0.6945 0.5 -1.0393
v 1.594 1.25 -1.1801
v 1.0393 1.25 -0.6945
v 1.1801 1.25 -1.594
v 0.6945 1.25 -1.0393
v 0.6945 4.5 -1.0393
v 1.1801 4.5 -1.594
v 1.0393 4.5 -0.6945
v 1.594 4.5 -1.1801
v 0.6945 3.75 -1.0393
v 1.0393 3.75 -0.6945
v 1.1801 3.75 -1.594
v 1.594 3.75 -1.1801
v -1.594 0.5 1.1801
v -1.1801 0.5 1.594
v -1.0393 0.5 0.6945
v -0.6945 0.5 1.0393
v -1.594 1.25 1.1801
v -1.0393 1.25 0.6945
v -1.1801 1.25 1.594
v -0.6945 1.25 1.0393
v -0.6945 4.5 1.0393
v -1.1801 4.5 1.594
v -1.0393 4.5 0.6945
v -1.594 4.5 1.1801
v -0.6945 3.75 1.0393
v -1.0393 3.75 0.6945
v -1.1801 3.75 1.594
v -1.594 3.75 1.1801
v -1.1801 0.5 -1.594
v -1.594 0.5 -1.1801
v -0.6945 0.5 -1.0393
v -1.0393 0.5 -0.6945
v -1.1801 1.25 -1.594
v -0.6945 1.25 -1.0393
v -1.594 1.25 -1.1801
v -1.0393 1.25 -0.6945
v -1.0393 4.5 -0.6945
v -1.594 4.5 -1.1801
v -0.6945 4.5 -1.0393
v -1.1801 4.5 -1.594
v -1.0393 3.75 -0.6945
v -0.6945 3.75 -1.0393
v -1.594 3.75 -1.1801
v -1.1801 3.75 -1.594
v 1.1801 0.5 1.594
v 1.594 0.5 1.1801
v 0.6945 0.5 1.0393
v 1.0393 0.5 0.6945
v 1.1801 1.25 1.594
v 0.6945 1.25 1.0393
v 1.594 1.25 1.1801
v 1.0393 1.25 0.6945
v 1.0393 4.5 0.6945
v 1.594 4.5 1.1801
v 0.6945 4.5 1.0393
v 1.1801 4.5 1.594
v 1.0393 3.75 0.6945
v 0.6945 3.75 1.0393
v 1.594 3.75 1.1801
v 1.1801 3.75 1.594
v 1.021 0.5 -1.7003
v 0.4803 0.5 -1.9242
v 0.6945 0.5 -1.0393
v 0.2439 0.5 -1.226
v 1.021 1.25 -1.7003
v 0.6945 1.25 -1.0393
v 0.4803 1.25 -1.9242
v 0.2439 1.25 -1.226
v 0.2439 4.5 -1.226
v 0.4803 4.5 -1.9242
v 0.6945 4.5 -1.0393
v 1.021 4.5 -1.7003
v 0.2439 3.75 -1.226
v 0.6945 3.75 -1.0393
v 0.4803 3.75 -1.9242
v 1.021 3.75 -1.7003
v -1.021 0.5 1.7003
v -0.4803 0.5 1.9242
v -0.6945 0.5 1.0393
v -0.2439 0.5 1.226
v -1.021 1.25 1.7003
v -0.6945 1.25 1.0393
v -0.4803 1.25 1.9242
v -0.2439 1.25 1.226
v -0.2439 4.5 1.226
v -0.4803 4.5 1.9242
v -0.6945 4.5 1.0393
v -1.021 4.5 1.7003
v -0.2439 3.75 1.226
v -0.6945 3.75 1.0393
v -0.4803 3.75 1.9242
v -1.021 3.75 1.7003
v -1.7003 0.5 -1.021
v -1.9242 0.5 -0.4803
v -1.0393 0.5 -0.6945
v -1.226 0.5 -0.2439
v -1.7003 1.25 -1.021
v -1.0393 1.25 -0.6945
v -1.9242 1.25 -0.4803
v -1.226 1.25 -0.2439
v -1.226 4.5 -0.2439
v -1.9242 4.5 -0.4803
v -1.0393 4.5 -0.6945
v -1.7003 4.5 -1.021
v -1.226 3.75 -0.2439
v -1.0393 3.75 -0.6945
v -1.9242 3.75 -0.4803
v -1.7003 3.75 -1.021
v 1.7003 0.5 1.021
v 1.9242 0.5 0.4803
v 1.0393 0.5 0.6945
v 1.226 0.5 0.2439
v 1.7003 1.25 1.021
v 1.0393 1.25 0.6945
v 1.9242 1.25 0.4803
v 1.226 1.25 0.2439
v 1.226 4.5 0.2439
v 1.9242 4.5 0.4803
v 1.0393 4.5 0.6945
v 1.7003 4.5 1.021
v 1.226 3.75 0.2439
v 1.0393 3.75 0.6945
v 1.9242 3.75 0.4803
v 1.7003 3.75 1.021
v -0.4803 0.5 -1.9242
v -1.021 0.5 -1.7003
v -0.2439 0.5 -1.226
v -0.6945 0.5 -1.0393
v -0.4803 1.25 -1.9242
v -0.2439 1.25 -1.226
v -1.021 1.25 -1.7003
v -0.6945 1.25 -1.0393
v -0.6945 4.5 -1.0393
v -1.021 4.5 -1.7003
v -0.2439 4.5 -1.226
v -0.4803 4.5 -1.9242
v -0.6945 3.75 -1.0393
v -0.2439 3.75 -1.226
v -1.021 3.75 -1.7003
v -0.4803 3.75 -1.9242
v 0.4803 0.5 1.9242
v 1.021 0.5 1.7003
v 0.2439 0.5 1.226
v 0.6945 0.5 1.0393
v 0.4803 1.25 1.9242
v 0.2439 1.25 1.226
v 1.021 1.25 1.7003
v 0.6945 1.25 1.0393
v 0.6945 4.5 1.0393
v 1.021 4.5 1.7003
v 0.2439 4.5 1.226
v 0.4803 4.5 1.9242
v 0.6945 3.75 1.0393
v 0.2439 3.75 1.226
v 1.021 3.75 1.7003
v 0.4803 3.75 1.9242
v -1.9242 0.5 0.4803
v -1.7003 0.5 1.021
v -1.226 0.5 0.2439
v -1.0393 0.5 0.6945
v -1.9242 1.25 0.4803
v -1.226 1.25 0.2439
v -1.7003 1.25 1.021
v -1.0393 1.25 0.6945
v -1.0393 4.5 0.6945
v -1.7003 4.5 1.021
v -1.226 4.5 0.2439
v -1.9242 4.5 0.4803
v -1.0393 3.75 0.6945
v -1.226 3.75 0.2439
v -1.7003 3.75 1.021
v -1.9242 3.75 0.4803
v 1.9242 0.5 -0.4803
v 1.7003 0.5 -1.021
v 1.226 0.5 -0.2439
v 1.0393 0.5 -0.6945
v 1.9242 1.25 -0.4803
v 1.226 1.25 -0.2439
v 1.7003 1.25 -1.021
v 1.0393 1.25 -0.6945
v 1.0393 4.5 -0.6945
v 1.7003 4.5 -1.021
v 1.226 4.5 -0.2439
v 1.9242 4.5 -0.4803
v 1.0393 3.75 -0.6945
v 1.226 3.75 -0.2439
v 1.7003 3.75 -1.021
v 1.9242 3.75 -0.4803
vt 0.7564 0.4386
vt 0.7821 0.386
vt 0.7853 0.4386
vt 0.7564 0.4912
vt 0.7179 0.4386
vt 0.7853 0.4912
vt 0.8237 0.4912
vt 0.8237 0.4386
vt 0.7821 0.5439
vt 0.7596 0.5439
vt 0.7596 0.386
vt 0.7179 0.4912
s 1
f 1224/694 1221/695 1223/696
f 1204/697 1206/698 1208/694
f 1220/697 1222/698 1224/694
f 1247/699 1241/694 1242/696
f 1232/700 1226/696 1228/701
f 1357/697 1355/698 1353/694
f 1168/700 1162/696 1164/701
f 1165/697 1168/702 1166/703
f 1256/694 1253/695 1255/696
f 1300/697 1302/698 1304/694
f 1252/697 1254/698 1256/694
f 1389/697 1387/698 1385/694
f 1170/699 1176/694 1175/696
f 1249/700 1255/696 1253/701
f 1348/697 1350/698 1352/694
f 1240/694 1237/695 1239/696
f 1208/694 1205/695 1207/696
f 1202/699 1208/694 1207/696
f 1236/697 1238/698 1240/694
f 1312/700 1306/696 1308/701
f 1172/697 1174/698 1176/694
f 1296/700 1290/696 1292/701
f 1293/697 1291/698 1289/694
f 1293/697 1296/702 1294/703
f 1400/694 1397/695 1399/696
f 1218/699 1224/694 1223/696
f 1268/697 1270/698 1272/694
f 1314/699 1320/694 1319/696
f 1186/699 1192/694 1191/696
f 1360/700 1354/696 1356/701
f 1309/697 1307/698 1305/694
f 1213/697 1216/702 1214/703
f 1192/694 1189/695 1191/696
f 1332/697 1334/698 1336/694
f 1201/700 1207/696 1205/701
f 1234/699 1240/694 1239/696
f 1357/697 1360/702 1358/703
f 1328/700 1322/696 1324/701
f 1199/699 1193/694 1194/696
f 1288/694 1285/695 1287/696
f 1272/694 1269/695 1271/696
f 1248/700 1242/696 1244/701
f 1200/700 1194/696 1196/701
f 1344/700 1338/696 1340/701
f 1233/700 1239/696 1237/701
f 1188/697 1190/698 1192/694
f 1185/700 1191/696 1189/701
f 1245/697 1248/702 1246/703
f 1224/694 1222/704 1221/695
f 1264/700 1258/696 1260/701
f 1184/700 1178/696 1180/701
f 1169/700 1175/696 1173/701
f 1217/700 1223/696 1221/701
f 1378/699 1384/694 1383/696
f 1215/699 1209/694 1210/696
f 1261/697 1264/702 1262/703
f 1181/697 1184/702 1182/703
f 1280/700 1274/696 1276/701
f 1216/700 1210/696 1212/701
f 1183/699 1177/694 1178/696
f 1392/700 1386/696 1388/701
f 1359/699 1353/694 1354/696
f 1311/699 1305/694 1306/696
f 1277/697 1280/702 1278/703
f 1304/694 1301/695 1303/696
f 1284/697 1286/698 1288/694
f 1364/697 1366/698 1368/694
f 1380/697 1382/698 1384/694
f 1229/697 1227/698 1225/694
f 1316/697 1318/698 1320/694
f 1346/699 1352/694 1351/696
f 1176/694 1173/695 1175/696
f 1320/694 1317/695 1319/696
f 1181/697 1179/698 1177/694
f 1297/700 1303/696 1301/701
f 1298/699 1304/694 1303/696
f 1295/699 1289/694 1290/696
f 1325/697 1323/698 1321/694
f 1197/697 1195/698 1193/694
f 1197/697 1200/702 1198/703
f 1416/694 1413/695 1415/696
f 1343/699 1337/694 1338/696
f 1313/700 1319/696 1317/701
f 1250/699 1256/694 1255/696
f 1167/699 1161/694 1162/696
f 1341/697 1339/698 1337/694
f 1245/697 1243/698 1241/694
f 1384/694 1381/695 1383/696
f 1229/697 1232/702 1230/703
f 1409/700 1415/696 1413/701
f 1329/700 1335/696 1333/701
f 1330/699 1336/694 1335/696
f 1327/699 1321/694 1322/696
f 1396/697 1398/698 1400/694
f 1165/697 1163/698 1161/694
f 1341/697 1344/702 1342/703
f 1368/694 1365/695 1367/696
f 1281/700 1287/696 1285/701
f 1375/699 1369/694 1370/696
f 1266/699 1272/694 1271/696
f 1376/700 1370/696 1372/701
f 1263/699 1257/694 1258/696
f 1261/697 1259/698 1257/694
f 1309/697 1312/702 1310/703
f 1325/697 1328/702 1326/703
f 1361/700 1367/696 1365/701
f 1410/699 1416/694 1415/696
f 1362/699 1368/694 1367/696
f 1373/697 1371/698 1369/694
f 1265/700 1271/696 1269/701
f 1213/697 1211/698 1209/694
f 1373/697 1376/702 1374/703
f 1336/694 1333/695 1335/696
f 1377/700 1383/696 1381/701
f 1407/699 1401/694 1402/696
f 1282/699 1288/694 1287/696
f 1408/700 1402/696 1404/701
f 1279/699 1273/694 1274/696
f 1277/697 1275/698 1273/694
f 1389/697 1392/702 1390/703
f 1352/694 1349/695 1351/696
f 1393/700 1399/696 1397/701
f 1231/699 1225/694 1226/696
f 1394/699 1400/694 1399/696
f 1391/699 1385/694 1386/696
f 1405/697 1403/698 1401/694
f 1345/700 1351/696 1349/701
f 1405/697 1408/702 1406/703
f 1293/697 1295/699 1296/702
f 1261/697 1262/705 1259/698
f 1250/699 1252/697 1256/694
f 1316/697 1315/705 1318/698
f 1282/699 1284/697 1288/694
f 1217/700 1218/699 1223/696
f 1167/699 1165/697 1161/694
f 1400/694 1398/704 1397/695
f 1357/697 1358/705 1355/698
f 1416/694 1414/704 1413/695
f 1373/697 1374/705 1371/698
f 1392/700 1391/699 1386/696
f 1408/700 1407/699 1402/696
f 1410/699 1412/697 1416/694
f 1325/697 1327/699 1328/702
f 1300/697 1299/705 1302/698
f 1186/699 1188/697 1192/694
f 1245/697 1246/705 1243/698
f 1327/699 1325/697 1321/694
f 1329/700 1330/699 1335/696
f 1341/697 1342/705 1339/698
f 1377/700 1378/699 1383/696
f 1263/699 1261/697 1257/694
f 1314/699 1316/697 1320/694
f 1296/700 1295/699 1290/696
f 1277/697 1278/705 1275/698
f 1391/699 1389/697 1385/694
f 1231/699 1229/697 1225/694
f 1279/699 1277/697 1273/694
f 1185/700 1186/699 1191/696
f 1313/700 1314/699 1319/696
f 1293/697 1294/705 1291/698
f 1252/697 1251/705 1254/698
f 1368/694 1366/704 1365/695
f 1407/699 1405/697 1401/694
f 1201/700 1202/699 1207/696
f 1332/697 1331/705 1334/698
f 1298/699 1300/697 1304/694
f 1330/699 1332/697 1336/694
f 1256/694 1254/704 1253/695
f 1247/699 1245/697 1241/694
f 1165/697 1166/705 1163/698
f 1396/697 1395/705 1398/698
f 1229/697 1230/705 1227/698
f 1295/699 1293/697 1289/694
f 1361/700 1362/699 1367/696
f 1362/699 1364/697 1368/694
f 1232/700 1231/699 1226/696
f 1204/697 1203/705 1206/698
f 1213/697 1214/705 1211/698
f 1265/700 1266/699 1271/696
f 1378/699 1380/697 1384/694
f 1245/697 1247/699 1248/702
f 1280/700 1279/699 1274/696
f 1394/699 1396/697 1400/694
f 1220/697 1219/705 1222/698
f 1168/700 1167/699 1162/696
f 1345/700 1346/699 1351/696
f 1405/697 1406/705 1403/698
f 1359/699 1357/697 1353/694
f 1288/694 1286/704 1285/695
f 1184/700 1183/699 1178/696
f 1266/699 1268/697 1272/694
f 1165/697 1167/699 1168/702
f 1268/697 1267/705 1270/698
f 1376/700 1375/699 1370/696
f 1336/694 1334/704 1333/695
f 1352/694 1350/704 1349/695
f 1281/700 1282/699 1287/696
f 1229/697 1231/699 1232/702
f 1197/697 1199/699 1200/702
f 1218/699 1220/697 1224/694
f 1309/697 1310/705 1307/698
f 1343/699 1341/697 1337/694
f 1409/700 1410/699 1415/696
f 1375/699 1373/697 1369/694
f 1393/700 1394/699 1399/696
f 1181/697 1182/705 1179/698
f 1384/694 1382/704 1381/695
f 1360/700 1359/699 1354/696
f 1240/694 1238/704 1237/695
f 1320/694 1318/704 1317/695
f 1297/700 1298/699 1303/696
f 1325/697 1326/705 1323/698
f 1346/699 1348/697 1352/694
f 1364/697 1363/705 1366/698
f 1341/697 1343/699 1344/702
f 1236/697 1235/705 1238/698
f 1389/697 1390/705 1387/698
f 1284/697 1283/705 1286/698
f 1380/697 1379/705 1382/698
f 1176/694 1174/704 1173/695
f 1197/697 1198/705 1195/698
f 1412/697 1411/705 1414/698
f 1309/697 1311/699 1312/702
f 1170/699 1172/697 1176/694
f 1192/694 1190/704 1189/695
f 1169/700 1170/699 1175/696
f 1188/697 1187/705 1190/698
f 1264/700 1263/699 1258/696
f 1344/700 1343/699 1338/696
f 1215/699 1213/697 1209/694
f 1373/697 1375/699 1376/702
f 1213/697 1215/699 1216/702
f 1208/694 1206/704 1205/695
f 1261/697 1263/699 1264/702
f 1200/700 1199/699 1194/696
f 1233/700 1234/699 1239/696
f 1181/697 1183/699 1184/702
f 1216/700 1215/699 1210/696
f 1389/697 1391/699 1392/702
f 1202/699 1204/697 1208/694
f 1312/700 1311/699 1306/696
f 1183/699 1181/697 1177/694
f 1199/699 1197/697 1193/694
f 1272/694 1270/704 1269/695
f 1357/697 1359/699 1360/702
f 1311/699 1309/697 1305/694
f 1405/697 1407/699 1408/702
f 1172/697 1171/705 1174/698
f 1249/700 1250/699 1255/696
f 1277/697 1279/699 1280/702
f 1234/699 1236/697 1240/694
f 1328/700 1327/699 1322/696
f 1248/700 1247/699 1242/696
f 1304/694 1302/704 1301/695
f 1348/697 1347/705 1350/698
f 1412/697 1414/698 1416/694
