o Cube_Cube.001
v -0.25 1 -1.5625
v -0.25 2 -1.5625
v -0.25 1 -2.4375
v -0.25 2 -2.4375
v 0.25 1 -1.5625
v 0.25 2 -1.5625
v 0.25 1 -2.4375
v 0.25 2 -2.4375
v -0.5 1.75 -1.5625
v 0.5 1.75 -1.5625
v -0.5 1.75 -2.4375
v 0.5 1.75 -2.4375
v -0.5 1.25 -1.5625
v 0.5 1.25 -1.5625
v -0.5 1.25 -2.4375
v 0.5 1.25 -2.4375
v -0.625 0 2.4375
v 0.5625 0.125 1.5625
v -0.625 0 1.5625
v 0.5625 0.125 2.4375
v 0.625 0 2.4375
v -0.5625 0.125 1.5625
v 0.625 0 1.5625
v -0.5625 0.125 2.4375
v -0.625 3 2.4375
v -0.625 3 1.5625
v 0.625 3 2.4375
v 0.625 3 1.5625
v -1.5 2.125 2.4375
v -1.5 2.125 1.5625
v -1.5 0.875 2.4375
v -1.5 0.875 1.5625
v 1.5 2.125 2.4375
v 1.5 2.125 1.5625
v 1.5 0.875 2.4375
v 1.5 0.875 1.5625
v 1.375 2.0625 2.4375
v 1.375 2.0625 1.5625
v 1.375 0.9375 2.4375
v 1.375 0.9375 1.5625
v -0.5625 2.875 2.4375
v -0.5625 2.875 1.5625
v 0.5625 2.875 2.4375
v 0.5625 2.875 1.5625
v -1.375 2.0625 2.4375
v -1.375 2.0625 1.5625
v -1.375 0.9375 2.4375
v -1.375 0.9375 1.5625
v -0.25 1 1.4375
v -0.25 2 1.4375
v -0.25 1 0.5625
v -0.25 2 0.5625
v 0.25 1 1.4375
v 0.25 2 1.4375
v 0.25 1 0.5625
v 0.25 2 0.5625
v -0.5 1.75 1.4375
v 0.5 1.75 1.4375
v -0.5 1.75 0.5625
v 0.5 1.75 0.5625
v -0.5 1.25 1.4375
v 0.5 1.25 1.4375
v -0.5 1.25 0.5625
v 0.5 1.25 0.5625
v 0.5625 1.6875 -1.5625
v 0.5625 1.6875 -2.4375
v 0.5625 1.3125 -1.5625
v 0.5625 1.3125 -2.4375
v 1.3125 2 -1.5625
v 1.3125 2 -2.4375
v 1.3125 1 -2.4375
v 1.3125 1 -1.5625
v 0.5303 1.2348 -1.5625
v 0.5303 1.2348 -2.4375
v 0.2652 0.9697 -1.5625
v 0.2652 0.9697 -2.4375
v 1.2816 0.9255 -1.5625
v 1.2816 0.9255 -2.4375
v 0.5745 0.2184 -2.4375
v 0.5745 0.2184 -1.5625
v 0.5625 1.625 1.375
v 0.5625 1.625 0.625
v 0.5625 1.375 1.375
v 0.5625 1.375 0.625
v 0.5 1.625 1.375
v 0.5 1.625 0.625
v 0.5 1.375 0.625
v 0.5 1.375 1.375
v 0.4861 1.1906 1.375
v 0.4861 1.1906 0.625
v 0.3094 1.0139 1.375
v 0.3094 1.0139 0.625
v 0.4419 1.2348 1.375
v 0.4419 1.2348 0.625
v 0.2652 1.0581 0.625
v 0.2652 1.0581 1.375
v 0.1875 0.9375 -1.5625
v 0.1875 0.9375 -2.4375
v -0.1875 0.9375 -1.5625
v -0.1875 0.9375 -2.4375
v 0.5 0.1875 -1.5625
v 0.5 0.1875 -2.4375
v -0.5 0.1875 -2.4375
v -0.5 0.1875 -1.5625
v -0.2652 0.9697 -1.5625
v -0.2652 0.9697 -2.4375
v -0.5303 1.2348 -1.5625
v -0.5303 1.2348 -2.4375
v -0.5745 0.2184 -1.5625
v -0.5745 0.2184 -2.4375
v -1.2816 0.9255 -2.4375
v -1.2816 0.9255 -1.5625
v 0.125 0.9375 1.375
v 0.125 0.9375 0.625
v -0.125 0.9375 1.375
v -0.125 0.9375 0.625
v 0.125 1 1.375
v 0.125 1 0.625
v -0.125 1 0.625
v -0.125 1 1.375
v -0.3094 1.0139 1.375
v -0.3094 1.0139 0.625
v -0.4861 1.1906 1.375
v -0.4861 1.1906 0.625
v -0.2652 1.0581 1.375
v -0.2652 1.0581 0.625
v -0.4419 1.2348 0.625
v -0.4419 1.2348 1.375
v -0.5625 1.3125 -1.5625
v -0.5625 1.3125 -2.4375
v -0.5625 1.6875 -1.5625
v -0.5625 1.6875 -2.4375
v -1.3125 1 -1.5625
v -1.3125 1 -2.4375
v -1.3125 2 -2.4375
v -1.3125 2 -1.5625
v -0.5303 1.7652 -1.5625
v -0.5303 1.7652 -2.4375
v -0.2652 2.0303 -1.5625
v -0.2652 2.0303 -2.4375
v -1.2816 2.0745 -1.5625
v -1.2816 2.0745 -2.4375
v -0.5745 2.7816 -2.4375
v -0.5745 2.7816 -1.5625
v -0.5625 1.375 1.375
v -0.5625 1.375 0.625
v -0.5625 1.625 1.375
v -0.5625 1.625 0.625
v -0.5 1.375 1.375
v -0.5 1.375 0.625
v -0.5 1.625 0.625
v -0.5 1.625 1.375
v -0.4861 1.8094 1.375
v -0.4861 1.8094 0.625
v -0.3094 1.9861 1.375
v -0.3094 1.9861 0.625
v -0.4419 1.7652 1.375
v -0.4419 1.7652 0.625
v -0.2652 1.9419 0.625
v -0.2652 1.9419 1.375
v -0.1875 2.0625 -1.5625
v -0.1875 2.0625 -2.4375
v 0.1875 2.0625 -1.5625
v 0.1875 2.0625 -2.4375
v -0.5 2.8125 -1.5625
v -0.5 2.8125 -2.4375
v 0.5 2.8125 -2.4375
v 0.5 2.8125 -1.5625
v 0.2652 2.0303 -1.5625
v 0.2652 2.0303 -2.4375
v 0.5303 1.7652 -1.5625
v 0.5303 1.7652 -2.4375
v 0.5745 2.7816 -1.5625
v 0.5745 2.7816 -2.4375
v 1.2816 2.0745 -2.4375
v 1.2816 2.0745 -1.5625
v -0.125 2.0625 1.375
v -0.125 2.0625 0.625
v 0.125 2.0625 1.375
v 0.125 2.0625 0.625
v -0.125 2 1.375
v -0.125 2 0.625
v 0.125 2 0.625
v 0.125 2 1.375
v 0.3094 1.9861 1.375
v 0.3094 1.9861 0.625
v 0.4861 1.8094 1.375
v 0.4861 1.8094 0.625
v 0.2652 1.9419 1.375
v 0.2652 1.9419 0.625
v 0.4419 1.7652 0.625
v 0.4419 1.7652 1.375
v 0 1.75 0.5625
v 0 1.75 0.4375
v 0.1768 1.6768 0.4375
v 0.1768 1.6768 0.5625
v 0.25 1.5 0.4375
v 0.25 1.5 0.5625
v 0.1768 1.3232 0.4375
v 0.1768 1.3232 0.5625
v 0 1.25 0.4375
v 0 1.25 0.5625
v -0.1768 1.3232 0.4375
v -0.1768 1.3232 0.5625
v -0.25 1.5 0.4375
v -0.25 1.5 0.5625
v -0.1768 1.6768 0.4375
v -0.1768 1.6768 0.5625
v -1.5 0 4.4375
v -1.5 2.75 4.4375
v -1.5 0 2.5625
v -1.5 2.75 2.5625
v 1.5 0 4.4375
v 1.5 2.75 4.4375
v 1.5 0 2.5625
v 1.5 2.75 2.5625
v -1.25 3 4.4375
v -1.25 3 2.5625
v 1.25 3 2.5625
v 1.25 3 4.4375
v -0.1875 1.3125 4.4375
v 0.1875 1.3125 4.4375
v -0.1875 1.6875 4.4375
v 0.1875 1.6875 4.4375
v -0.1875 1.6875 4.5
v -0.1875 1.3125 4.5
v 0.1875 1.3125 4.5
v 0.1875 1.6875 4.5
v 1.5 2 -1.4375
v 1.375 2 -1.4375
v 1.5 1.875 -1.4375
v 1.375 1.875 -1.4375
v 1.5 1.125 -1.4375
v 1.375 1.125 -1.4375
v 1.5 1 -1.4375
v 1.375 1 -1.4375
v 1.5 2 -1.5625
v 1.375 2 -1.5625
v 1.5 1.875 -1.5625
v 1.375 1.875 -1.5625
v 1.5 1.125 -1.5625
v 1.375 1.125 -1.5625
v 1.5 1 -1.5625
v 1.375 1 -1.5625
v -1.375 2 -1.4375
v -1.5 2 -1.4375
v -1.375 1.875 -1.4375
v -1.5 1.875 -1.4375
v -1.375 1.125 -1.4375
v -1.5 1.125 -1.4375
v -1.375 1 -1.4375
v -1.5 1 -1.4375
v -1.375 2 -1.5625
v -1.5 2 -1.5625
v -1.375 1.875 -1.5625
v -1.5 1.875 -1.5625
v -1.375 1.125 -1.5625
v -1.5 1.125 -1.5625
v -1.375 1 -1.5625
v -1.5 1 -1.5625
v 0.5 -0 -1.4375
v 0.5 0.125 -1.4375
v 0.375 -0 -1.4375
v 0.375 0.125 -1.4375
v -0.375 -0 -1.4375
v -0.375 0.125 -1.4375
v -0.5 -0 -1.4375
v -0.5 0.125 -1.4375
v 0.5 -0 -1.5625
v 0.5 0.125 -1.5625
v 0.375 -0 -1.5625
v 0.375 0.125 -1.5625
v -0.375 -0 -1.5625
v -0.375 0.125 -1.5625
v -0.5 -0 -1.5625
v -0.5 0.125 -1.5625
v 0.5 2.875 -1.4375
v 0.5 3 -1.4375
v 0.375 2.875 -1.4375
v 0.375 3 -1.4375
v -0.375 2.875 -1.4375
v -0.375 3 -1.4375
v -0.5 2.875 -1.4375
v -0.5 3 -1.4375
v 0.5 2.875 -1.5625
v 0.5 3 -1.5625
v 0.375 2.875 -1.5625
v 0.375 3 -1.5625
v -0.375 2.875 -1.5625
v -0.375 3 -1.5625
v -0.5 2.875 -1.5625
v -0.5 3 -1.5625
v -0.25 1.75 -2.4375
v 0.25 1.75 -2.4375
v -0.25 1.25 -2.4375
v 0.25 1.25 -2.4375
v -0.0625 1.6875 -2.4375
v 0.0625 1.6875 -2.4375
v -0.0625 1.3125 -2.4375
v 0.0625 1.3125 -2.4375
v -0.25 1.25 -2.3125
v -0.25 1.75 -2.3125
v 0.25 1.75 -2.3125
v 0.25 1.25 -2.3125
v 0.1875 1.5625 -2.4375
v 0.1875 1.4375 -2.4375
v -0.1875 1.5625 -2.4375
v -0.1875 1.4375 -2.4375
v -0.0625 1.6875 -2.3125
v 0.0625 1.6875 -2.3125
v 0.0625 1.3125 -2.3125
v -0.0625 1.3125 -2.3125
v 0.1875 1.5625 -2.3125
v 0.1875 1.4375 -2.3125
v -0.1875 1.4375 -2.3125
v -0.1875 1.5625 -2.3125
v 1.5 2.25 2.8125
v 1.5 0.5 2.8125
v 1.5 0.5 4.1875
v 1.5 2.25 4.1875
v 1.375 2.25 2.8125
v 1.375 0.5 2.8125
v 1.375 0.5 4.1875
v 1.375 2.25 4.1875
v -1.375 2.25 2.8125
v -1.375 0.5 2.8125
v -1.375 0.5 4.1875
v -1.375 2.25 4.1875
v -1.5 2.25 2.8125
v -1.5 0.5 2.8125
v -1.5 0.5 4.1875
v -1.5 2.25 4.1875
v -0.25 1 0.4375
v -0.25 2 0.4375
v -0.25 1 -0.4375
v -0.25 2 -0.4375
v 0.25 1 0.4375
v 0.25 2 0.4375
v 0.25 1 -0.4375
v 0.25 2 -0.4375
v -0.5 1.75 0.4375
v 0.5 1.75 0.4375
v -0.5 1.75 -0.4375
v 0.5 1.75 -0.4375
v -0.5 1.25 0.4375
v 0.5 1.25 0.4375
v -0.5 1.25 -0.4375
v 0.5 1.25 -0.4375
v -0.25 1 -0.5625
v -0.25 2 -0.5625
v -0.25 1 -1.4375
v -0.25 2 -1.4375
v 0.25 1 -0.5625
v 0.25 2 -0.5625
v 0.25 1 -1.4375
v 0.25 2 -1.4375
v -0.5 1.75 -0.5625
v 0.5 1.75 -0.5625
v -0.5 1.75 -1.4375
v 0.5 1.75 -1.4375
v -0.5 1.25 -0.5625
v 0.5 1.25 -0.5625
v -0.5 1.25 -1.4375
v 0.5 1.25 -1.4375
v -0.25 1 2.4375
v -0.25 2 2.4375
v -0.25 1 1.5625
v -0.25 2 1.5625
v 0.25 1 2.4375
v 0.25 2 2.4375
v 0.25 1 1.5625
v 0.25 2 1.5625
v -0.5 1.75 2.4375
v 0.5 1.75 2.4375
v -0.5 1.75 1.5625
v 0.5 1.75 1.5625
v -0.5 1.25 2.4375
v 0.5 1.25 2.4375
v -0.5 1.25 1.5625
v 0.5 1.25 1.5625
v 0.5625 1.625 2.375
v 0.5625 1.625 1.625
v 0.5625 1.375 2.375
v 0.5625 1.375 1.625
v 0.5 1.625 2.375
v 0.5 1.625 1.625
v 0.5 1.375 1.625
v 0.5 1.375 2.375
v 0.4861 1.1906 2.375
v 0.4861 1.1906 1.625
v 0.3094 1.0139 2.375
v 0.3094 1.0139 1.625
v 0.4419 1.2348 2.375
v 0.4419 1.2348 1.625
v 0.2652 1.0581 1.625
v 0.2652 1.0581 2.375
v 0.125 0.9375 2.375
v 0.125 0.9375 1.625
v -0.125 0.9375 2.375
v -0.125 0.9375 1.625
v 0.125 1 2.375
v 0.125 1 1.625
v -0.125 1 1.625
v -0.125 1 2.375
v -0.3094 1.0139 2.375
v -0.3094 1.0139 1.625
v -0.4861 1.1906 2.375
v -0.4861 1.1906 1.625
v -0.2652 1.0581 2.375
v -0.2652 1.0581 1.625
v -0.4419 1.2348 1.625
v -0.4419 1.2348 2.375
v -0.5625 1.375 2.375
v -0.5625 1.375 1.625
v -0.5625 1.625 2.375
v -0.5625 1.625 1.625
v -0.5 1.375 2.375
v -0.5 1.375 1.625
v -0.5 1.625 1.625
v -0.5 1.625 2.375
v -0.4861 1.8094 2.375
v -0.4861 1.8094 1.625
v -0.3094 1.9861 2.375
v -0.3094 1.9861 1.625
v -0.4419 1.7652 2.375
v -0.4419 1.7652 1.625
v -0.2652 1.9419 1.625
v -0.2652 1.9419 2.375
v -0.125 2.0625 2.375
v -0.125 2.0625 1.625
v 0.125 2.0625 2.375
v 0.125 2.0625 1.625
v -0.125 2 2.375
v -0.125 2 1.625
v 0.125 2 1.625
v 0.125 2 2.375
v 0.3094 1.9861 2.375
v 0.3094 1.9861 1.625
v 0.4861 1.8094 2.375
v 0.4861 1.8094 1.625
v 0.2652 1.9419 2.375
v 0.2652 1.9419 1.625
v 0.4419 1.7652 1.625
v 0.4419 1.7652 2.375
v 0.5625 1.625 0.375
v 0.5625 1.625 -0.375
v 0.5625 1.375 0.375
v 0.5625 1.375 -0.375
v 0.5 1.625 0.375
v 0.5 1.625 -0.375
v 0.5 1.375 -0.375
v 0.5 1.375 0.375
v 0.4861 1.1906 0.375
v 0.4861 1.1906 -0.375
v 0.3094 1.0139 0.375
v 0.3094 1.0139 -0.375
v 0.4419 1.2348 0.375
v 0.4419 1.2348 -0.375
v 0.2652 1.0581 -0.375
v 0.2652 1.0581 0.375
v 0.125 0.9375 0.375
v 0.125 0.9375 -0.375
v -0.125 0.9375 0.375
v -0.125 0.9375 -0.375
v 0.125 1 0.375
v 0.125 1 -0.375
v -0.125 1 -0.375
v -0.125 1 0.375
v -0.3094 1.0139 0.375
v -0.3094 1.0139 -0.375
v -0.4861 1.1906 0.375
v -0.4861 1.1906 -0.375
v -0.2652 1.0581 0.375
v -0.2652 1.0581 -0.375
v -0.4419 1.2348 -0.375
v -0.4419 1.2348 0.375
v -0.5625 1.375 0.375
v -0.5625 1.375 -0.375
v -0.5625 1.625 0.375
v -0.5625 1.625 -0.375
v -0.5 1.375 0.375
v -0.5 1.375 -0.375
v -0.5 1.625 -0.375
v -0.5 1.625 0.375
v -0.4861 1.8094 0.375
v -0.4861 1.8094 -0.375
v -0.3094 1.9861 0.375
v -0.3094 1.9861 -0.375
v -0.4419 1.7652 0.375
v -0.4419 1.7652 -0.375
v -0.2652 1.9419 -0.375
v -0.2652 1.9419 0.375
v -0.125 2.0625 0.375
v -0.125 2.0625 -0.375
v 0.125 2.0625 0.375
v 0.125 2.0625 -0.375
v -0.125 2 0.375
v -0.125 2 -0.375
v 0.125 2 -0.375
v 0.125 2 0.375
v 0.3094 1.9861 0.375
v 0.3094 1.9861 -0.375
v 0.4861 1.8094 0.375
v 0.4861 1.8094 -0.375
v 0.2652 1.9419 0.375
v 0.2652 1.9419 -0.375
v 0.4419 1.7652 -0.375
v 0.4419 1.7652 0.375
v 0.5625 1.625 -0.625
v 0.5625 1.625 -1.375
v 0.5625 1.375 -0.625
v 0.5625 1.375 -1.375
v 0.5 1.625 -0.625
v 0.5 1.625 -1.375
v 0.5 1.375 -1.375
v 0.5 1.375 -0.625
v 0.4861 1.1906 -0.625
v 0.4861 1.1906 -1.375
v 0.3094 1.0139 -0.625
v 0.3094 1.0139 -1.375
v 0.4419 1.2348 -0.625
v 0.4419 1.2348 -1.375
v 0.2652 1.0581 -1.375
v 0.2652 1.0581 -0.625
v 0.125 0.9375 -0.625
v 0.125 0.9375 -1.375
v -0.125 0.9375 -0.625
v -0.125 0.9375 -1.375
v 0.125 1 -0.625
v 0.125 1 -1.375
v -0.125 1 -1.375
v -0.125 1 -0.625
v -0.3094 1.0139 -0.625
v -0.3094 1.0139 -1.375
v -0.4861 1.1906 -0.625
v -0.4861 1.1906 -1.375
v -0.2652 1.0581 -0.625
v -0.2652 1.0581 -1.375
v -0.4419 1.2348 -1.375
v -0.4419 1.2348 -0.625
v -0.5625 1.375 -0.625
v -0.5625 1.375 -1.375
v -0.5625 1.625 -0.625
v -0.5625 1.625 -1.375
v -0.5 1.375 -0.625
v -0.5 1.375 -1.375
v -0.5 1.625 -1.375
v -0.5 1.625 -0.625
v -0.4861 1.8094 -0.625
v -0.4861 1.8094 -1.375
v -0.3094 1.9861 -0.625
v -0.3094 1.9861 -1.375
v -0.4419 1.7652 -0.625
v -0.4419 1.7652 -1.375
v -0.2652 1.9419 -1.375
v -0.2652 1.9419 -0.625
v -0.125 2.0625 -0.625
v -0.125 2.0625 -1.375
v 0.125 2.0625 -0.625
v 0.125 2.0625 -1.375
v -0.125 2 -0.625
v -0.125 2 -1.375
v 0.125 2 -1.375
v 0.125 2 -0.625
v 0.3094 1.9861 -0.625
v 0.3094 1.9861 -1.375
v 0.4861 1.8094 -0.625
v 0.4861 1.8094 -1.375
v 0.2652 1.9419 -0.625
v 0.2652 1.9419 -1.375
v 0.4419 1.7652 -1.375
v 0.4419 1.7652 -0.625
v 0.5625 1.625 -1.625
v 0.5625 1.625 -2.375
v 0.5625 1.375 -1.625
v 0.5625 1.375 -2.375
v 0.5 1.625 -1.625
v 0.5 1.625 -2.375
v 0.5 1.375 -2.375
v 0.5 1.375 -1.625
v 0.4861 1.1906 -1.625
v 0.4861 1.1906 -2.375
v 0.3094 1.0139 -1.625
v 0.3094 1.0139 -2.375
v 0.4419 1.2348 -1.625
v 0.4419 1.2348 -2.375
v 0.2652 1.0581 -2.375
v 0.2652 1.0581 -1.625
v 0.125 0.9375 -1.625
v 0.125 0.9375 -2.375
v -0.125 0.9375 -1.625
v -0.125 0.9375 -2.375
v 0.125 1 -1.625
v 0.125 1 -2.375
v -0.125 1 -2.375
v -0.125 1 -1.625
v -0.3094 1.0139 -1.625
v -0.3094 1.0139 -2.375
v -0.4861 1.1906 -1.625
v -0.4861 1.1906 -2.375
v -0.2652 1.0581 -1.625
v -0.2652 1.0581 -2.375
v -0.4419 1.2348 -2.375
v -0.4419 1.2348 -1.625
v -0.5625 1.375 -1.625
v -0.5625 1.375 -2.375
v -0.5625 1.625 -1.625
v -0.5625 1.625 -2.375
v -0.5 1.375 -1.625
v -0.5 1.375 -2.375
v -0.5 1.625 -2.375
v -0.5 1.625 -1.625
v -0.4861 1.8094 -1.625
v -0.4861 1.8094 -2.375
v -0.3094 1.9861 -1.625
v -0.3094 1.9861 -2.375
v -0.4419 1.7652 -1.625
v -0.4419 1.7652 -2.375
v -0.2652 1.9419 -2.375
v -0.2652 1.9419 -1.625
v -0.125 2.0625 -1.625
v -0.125 2.0625 -2.375
v 0.125 2.0625 -1.625
v 0.125 2.0625 -2.375
v -0.125 2 -1.625
v -0.125 2 -2.375
v 0.125 2 -2.375
v 0.125 2 -1.625
v 0.3094 1.9861 -1.625
v 0.3094 1.9861 -2.375
v 0.4861 1.8094 -1.625
v 0.4861 1.8094 -2.375
v 0.2652 1.9419 -1.625
v 0.2652 1.9419 -2.375
v 0.4419 1.7652 -2.375
v 0.4419 1.7652 -1.625
v 0 1.75 2.5625
v 0 1.75 2.4375
v 0.1768 1.6768 2.4375
v 0.1768 1.6768 2.5625
v 0.25 1.5 2.4375
v 0.25 1.5 2.5625
v 0.1768 1.3232 2.4375
v 0.1768 1.3232 2.5625
v 0 1.25 2.4375
v 0 1.25 2.5625
v -0.1768 1.3232 2.4375
v -0.1768 1.3232 2.5625
v -0.25 1.5 2.4375
v -0.25 1.5 2.5625
v -0.1768 1.6768 2.4375
v -0.1768 1.6768 2.5625
v 0 1.75 1.5625
v 0 1.75 1.4375
v 0.1768 1.6768 1.4375
v 0.1768 1.6768 1.5625
v 0.25 1.5 1.4375
v 0.25 1.5 1.5625
v 0.1768 1.3232 1.4375
v 0.1768 1.3232 1.5625
v 0 1.25 1.4375
v 0 1.25 1.5625
v -0.1768 1.3232 1.4375
v -0.1768 1.3232 1.5625
v -0.25 1.5 1.4375
v -0.25 1.5 1.5625
v -0.1768 1.6768 1.4375
v -0.1768 1.6768 1.5625
v 0 1.75 -0.4375
v 0 1.75 -0.5625
v 0.1768 1.6768 -0.5625
v 0.1768 1.6768 -0.4375
v 0.25 1.5 -0.5625
v 0.25 1.5 -0.4375
v 0.1768 1.3232 -0.5625
v 0.1768 1.3232 -0.4375
v 0 1.25 -0.5625
v 0 1.25 -0.4375
v -0.1768 1.3232 -0.5625
v -0.1768 1.3232 -0.4375
v -0.25 1.5 -0.5625
v -0.25 1.5 -0.4375
v -0.1768 1.6768 -0.5625
v -0.1768 1.6768 -0.4375
v 0 1.75 -1.4375
v 0 1.75 -1.5625
v 0.1768 1.6768 -1.5625
v 0.1768 1.6768 -1.4375
v 0.25 1.5 -1.5625
v 0.25 1.5 -1.4375
v 0.1768 1.3232 -1.5625
v 0.1768 1.3232 -1.4375
v 0 1.25 -1.5625
v 0 1.25 -1.4375
v -0.1768 1.3232 -1.5625
v -0.1768 1.3232 -1.4375
v -0.25 1.5 -1.5625
v -0.25 1.5 -1.4375
v -0.1768 1.6768 -1.5625
v -0.1768 1.6768 -1.4375
v 1.5 2 -0.4375
v 1.375 2 -0.4375
v 1.5 1.875 -0.4375
v 1.375 1.875 -0.4375
v 1.5 1.125 -0.4375
v 1.375 1.125 -0.4375
v 1.5 1 -0.4375
v 1.375 1 -0.4375
v 1.5 2 -0.5625
v 1.375 2 -0.5625
v 1.5 1.875 -0.5625
v 1.375 1.875 -0.5625
v 1.5 1.125 -0.5625
v 1.375 1.125 -0.5625
v 1.5 1 -0.5625
v 1.375 1 -0.5625
v -1.375 2 -0.4375
v -1.5 2 -0.4375
v -1.375 1.875 -0.4375
v -1.5 1.875 -0.4375
v -1.375 1.125 -0.4375
v -1.5 1.125 -0.4375
v -1.375 1 -0.4375
v -1.5 1 -0.4375
v -1.375 2 -0.5625
v -1.5 2 -0.5625
v -1.375 1.875 -0.5625
v -1.5 1.875 -0.5625
v -1.375 1.125 -0.5625
v -1.5 1.125 -0.5625
v -1.375 1 -0.5625
v -1.5 1 -0.5625
v 0.5 -0 -0.4375
v 0.5 0.125 -0.4375
v 0.375 -0 -0.4375
v 0.375 0.125 -0.4375
v -0.375 -0 -0.4375
v -0.375 0.125 -0.4375
v -0.5 -0 -0.4375
v -0.5 0.125 -0.4375
v 0.5 -0 -0.5625
v 0.5 0.125 -0.5625
v 0.375 -0 -0.5625
v 0.375 0.125 -0.5625
v -0.375 -0 -0.5625
v -0.375 0.125 -0.5625
v -0.5 -0 -0.5625
v -0.5 0.125 -0.5625
v 0.5 2.875 -0.4375
v 0.5 3 -0.4375
v 0.375 2.875 -0.4375
v 0.375 3 -0.4375
v -0.375 2.875 -0.4375
v -0.375 3 -0.4375
v -0.5 2.875 -0.4375
v -0.5 3 -0.4375
v 0.5 2.875 -0.5625
v 0.5 3 -0.5625
v 0.375 2.875 -0.5625
v 0.375 3 -0.5625
v -0.375 2.875 -0.5625
v -0.375 3 -0.5625
v -0.5 2.875 -0.5625
v -0.5 3 -0.5625
v 1.5 2 0.5625
v 1.375 2 0.5625
v 1.5 1.875 0.5625
v 1.375 1.875 0.5625
v 1.5 1.125 0.5625
v 1.375 1.125 0.5625
v 1.5 1 0.5625
v 1.375 1 0.5625
v 1.5 2 0.4375
v 1.375 2 0.4375
v 1.5 1.875 0.4375
v 1.375 1.875 0.4375
v 1.5 1.125 0.4375
v 1.375 1.125 0.4375
v 1.5 1 0.4375
v 1.375 1 0.4375
v -1.375 2 0.5625
v -1.5 2 0.5625
v -1.375 1.875 0.5625
v -1.5 1.875 0.5625
v -1.375 1.125 0.5625
v -1.5 1.125 0.5625
v -1.375 1 0.5625
v -1.5 1 0.5625
v -1.375 2 0.4375
v -1.5 2 0.4375
v -1.375 1.875 0.4375
v -1.5 1.875 0.4375
v -1.375 1.125 0.4375
v -1.5 1.125 0.4375
v -1.375 1 0.4375
v -1.5 1 0.4375
v 0.5 0 0.5625
v 0.5 0.125 0.5625
v 0.375 0 0.5625
v 0.375 0.125 0.5625
v -0.375 0 0.5625
v -0.375 0.125 0.5625
v -0.5 0 0.5625
v -0.5 0.125 0.5625
v 0.5 0 0.4375
v 0.5 0.125 0.4375
v 0.375 0 0.4375
v 0.375 0.125 0.4375
v -0.375 0 0.4375
v -0.375 0.125 0.4375
v -0.5 0 0.4375
v -0.5 0.125 0.4375
v 0.5 2.875 0.5625
v 0.5 3 0.5625
v 0.375 2.875 0.5625
v 0.375 3 0.5625
v -0.375 2.875 0.5625
v -0.375 3 0.5625
v -0.5 2.875 0.5625
v -0.5 3 0.5625
v 0.5 2.875 0.4375
v 0.5 3 0.4375
v 0.375 2.875 0.4375
v 0.375 3 0.4375
v -0.375 2.875 0.4375
v -0.375 3 0.4375
v -0.5 2.875 0.4375
v -0.5 3 0.4375
v 1.5 2 1.5625
v 1.375 2 1.5625
v 1.5 1.875 1.5625
v 1.375 1.875 1.5625
v 1.5 1.125 1.5625
v 1.375 1.125 1.5625
v 1.5 1 1.5625
v 1.375 1 1.5625
v 1.5 2 1.4375
v 1.375 2 1.4375
v 1.5 1.875 1.4375
v 1.375 1.875 1.4375
v 1.5 1.125 1.4375
v 1.375 1.125 1.4375
v 1.5 1 1.4375
v 1.375 1 1.4375
v -1.375 2 1.5625
v -1.5 2 1.5625
v -1.375 1.875 1.5625
v -1.5 1.875 1.5625
v -1.375 1.125 1.5625
v -1.5 1.125 1.5625
v -1.375 1 1.5625
v -1.5 1 1.5625
v -1.375 2 1.4375
v -1.5 2 1.4375
v -1.375 1.875 1.4375
v -1.5 1.875 1.4375
v -1.375 1.125 1.4375
v -1.5 1.125 1.4375
v -1.375 1 1.4375
v -1.5 1 1.4375
v 0.5 0 1.5625
v 0.5 0.125 1.5625
v 0.375 0 1.5625
v 0.375 0.125 1.5625
v -0.375 0 1.5625
v -0.375 0.125 1.5625
v -0.5 0 1.5625
v -0.5 0.125 1.5625
v 0.5 0 1.4375
v 0.5 0.125 1.4375
v 0.375 0 1.4375
v 0.375 0.125 1.4375
v -0.375 0 1.4375
v -0.375 0.125 1.4375
v -0.5 0 1.4375
v -0.5 0.125 1.4375
v 0.5 2.875 1.5625
v 0.5 3 1.5625
v 0.375 2.875 1.5625
v 0.375 3 1.5625
v -0.375 2.875 1.5625
v -0.375 3 1.5625
v -0.5 2.875 1.5625
v -0.5 3 1.5625
v 0.5 2.875 1.4375
v 0.5 3 1.4375
v 0.375 2.875 1.4375
v 0.375 3 1.4375
v -0.375 2.875 1.4375
v -0.375 3 1.4375
v -0.5 2.875 1.4375
v -0.5 3 1.4375
v 1.5 2 2.5625
v 1.375 2 2.5625
v 1.5 1.875 2.5625
v 1.375 1.875 2.5625
v 1.5 1.125 2.5625
v 1.375 1.125 2.5625
v 1.5 1 2.5625
v 1.375 1 2.5625
v 1.5 2 2.4375
v 1.375 2 2.4375
v 1.5 1.875 2.4375
v 1.375 1.875 2.4375
v 1.5 1.125 2.4375
v 1.375 1.125 2.4375
v 1.5 1 2.4375
v 1.375 1 2.4375
v -1.375 2 2.5625
v -1.5 2 2.5625
v -1.375 1.875 2.5625
v -1.5 1.875 2.5625
v -1.375 1.125 2.5625
v -1.5 1.125 2.5625
v -1.375 1 2.5625
v -1.5 1 2.5625
v -1.375 2 2.4375
v -1.5 2 2.4375
v -1.375 1.875 2.4375
v -1.5 1.875 2.4375
v -1.375 1.125 2.4375
v -1.5 1.125 2.4375
v -1.375 1 2.4375
v -1.5 1 2.4375
v 0.5 0 2.5625
v 0.5 0.125 2.5625
v 0.375 0 2.5625
v 0.375 0.125 2.5625
v -0.375 0 2.5625
v -0.375 0.125 2.5625
v -0.5 0 2.5625
v -0.5 0.125 2.5625
v 0.5 0 2.4375
v 0.5 0.125 2.4375
v 0.375 0 2.4375
v 0.375 0.125 2.4375
v -0.375 0 2.4375
v -0.375 0.125 2.4375
v -0.5 0 2.4375
v -0.5 0.125 2.4375
v 0.5 2.875 2.5625
v 0.5 3 2.5625
v 0.375 2.875 2.5625
v 0.375 3 2.5625
v -0.375 2.875 2.5625
v -0.375 3 2.5625
v -0.5 2.875 2.5625
v -0.5 3 2.5625
v 0.5 2.875 2.4375
v 0.5 3 2.4375
v 0.375 2.875 2.4375
v 0.375 3 2.4375
v -0.375 2.875 2.4375
v -0.375 3 2.4375
v -0.5 2.875 2.4375
v -0.5 3 2.4375
v 0.5625 1.6875 -0.5625
v 0.5625 1.6875 -1.4375
v 0.5625 1.3125 -0.5625
v 0.5625 1.3125 -1.4375
v 1.3125 2 -0.5625
v 1.3125 2 -1.4375
v 1.3125 1 -1.4375
v 1.3125 1 -0.5625
v 0.5303 1.2348 -0.5625
v 0.5303 1.2348 -1.4375
v 0.2652 0.9697 -0.5625
v 0.2652 0.9697 -1.4375
v 1.2816 0.9255 -0.5625
v 1.2816 0.9255 -1.4375
v 0.5745 0.2184 -1.4375
v 0.5745 0.2184 -0.5625
v 0.1875 0.9375 -0.5625
v 0.1875 0.9375 -1.4375
v -0.1875 0.9375 -0.5625
v -0.1875 0.9375 -1.4375
v 0.5 0.1875 -0.5625
v 0.5 0.1875 -1.4375
v -0.5 0.1875 -1.4375
v -0.5 0.1875 -0.5625
v -0.2652 0.9697 -0.5625
v -0.2652 0.9697 -1.4375
v -0.5303 1.2348 -0.5625
v -0.5303 1.2348 -1.4375
v -0.5745 0.2184 -0.5625
v -0.5745 0.2184 -1.4375
v -1.2816 0.9255 -1.4375
v -1.2816 0.9255 -0.5625
v -0.5625 1.3125 -0.5625
v -0.5625 1.3125 -1.4375
v -0.5625 1.6875 -0.5625
v -0.5625 1.6875 -1.4375
v -1.3125 1 -0.5625
v -1.3125 1 -1.4375
v -1.3125 2 -1.4375
v -1.3125 2 -0.5625
v -0.5303 1.7652 -0.5625
v -0.5303 1.7652 -1.4375
v -0.2652 2.0303 -0.5625
v -0.2652 2.0303 -1.4375
v -1.2816 2.0745 -0.5625
v -1.2816 2.0745 -1.4375
v -0.5745 2.7816 -1.4375
v -0.5745 2.7816 -0.5625
v -0.1875 2.0625 -0.5625
v -0.1875 2.0625 -1.4375
v 0.1875 2.0625 -0.5625
v 0.1875 2.0625 -1.4375
v -0.5 2.8125 -0.5625
v -0.5 2.8125 -1.4375
v 0.5 2.8125 -1.4375
v 0.5 2.8125 -0.5625
v 0.2652 2.0303 -0.5625
v 0.2652 2.0303 -1.4375
v 0.5303 1.7652 -0.5625
v 0.5303 1.7652 -1.4375
v 0.5745 2.7816 -0.5625
v 0.5745 2.7816 -1.4375
v 1.2816 2.0745 -1.4375
v 1.2816 2.0745 -0.5625
v 0.5625 1.6875 0.4375
v 0.5625 1.6875 -0.4375
v 0.5625 1.3125 0.4375
v 0.5625 1.3125 -0.4375
v 1.3125 2 0.4375
v 1.3125 2 -0.4375
v 1.3125 1 -0.4375
v 1.3125 1 0.4375
v 0.5303 1.2348 0.4375
v 0.5303 1.2348 -0.4375
v 0.2652 0.9697 0.4375
v 0.2652 0.9697 -0.4375
v 1.2816 0.9255 0.4375
v 1.2816 0.9255 -0.4375
v 0.5745 0.2184 -0.4375
v 0.5745 0.2184 0.4375
v 0.1875 0.9375 0.4375
v 0.1875 0.9375 -0.4375
v -0.1875 0.9375 0.4375
v -0.1875 0.9375 -0.4375
v 0.5 0.1875 0.4375
v 0.5 0.1875 -0.4375
v -0.5 0.1875 -0.4375
v -0.5 0.1875 0.4375
v -0.2652 0.9697 0.4375
v -0.2652 0.9697 -0.4375
v -0.5303 1.2348 0.4375
v -0.5303 1.2348 -0.4375
v -0.5745 0.2184 0.4375
v -0.5745 0.2184 -0.4375
v -1.2816 0.9255 -0.4375
v -1.2816 0.9255 0.4375
v -0.5625 1.3125 0.4375
v -0.5625 1.3125 -0.4375
v -0.5625 1.6875 0.4375
v -0.5625 1.6875 -0.4375
v -1.3125 1 0.4375
v -1.3125 1 -0.4375
v -1.3125 2 -0.4375
v -1.3125 2 0.4375
v -0.5303 1.7652 0.4375
v -0.5303 1.7652 -0.4375
v -0.2652 2.0303 0.4375
v -0.2652 2.0303 -0.4375
v -1.2816 2.0745 0.4375
v -1.2816 2.0745 -0.4375
v -0.5745 2.7816 -0.4375
v -0.5745 2.7816 0.4375
v -0.1875 2.0625 0.4375
v -0.1875 2.0625 -0.4375
v 0.1875 2.0625 0.4375
v 0.1875 2.0625 -0.4375
v -0.5 2.8125 0.4375
v -0.5 2.8125 -0.4375
v 0.5 2.8125 -0.4375
v 0.5 2.8125 0.4375
v 0.2652 2.0303 0.4375
v 0.2652 2.0303 -0.4375
v 0.5303 1.7652 0.4375
v 0.5303 1.7652 -0.4375
v 0.5745 2.7816 0.4375
v 0.5745 2.7816 -0.4375
v 1.2816 2.0745 -0.4375
v 1.2816 2.0745 0.4375
v 0.5625 1.6875 1.4375
v 0.5625 1.6875 0.5625
v 0.5625 1.3125 1.4375
v 0.5625 1.3125 0.5625
v 1.3125 2 1.4375
v 1.3125 2 0.5625
v 1.3125 1 0.5625
v 1.3125 1 1.4375
v 0.5303 1.2348 1.4375
v 0.5303 1.2348 0.5625
v 0.2652 0.9697 1.4375
v 0.2652 0.9697 0.5625
v 1.2816 0.9255 1.4375
v 1.2816 0.9255 0.5625
v 0.5745 0.2184 0.5625
v 0.5745 0.2184 1.4375
v 0.1875 0.9375 1.4375
v 0.1875 0.9375 0.5625
v -0.1875 0.9375 1.4375
v -0.1875 0.9375 0.5625
v 0.5 0.1875 1.4375
v 0.5 0.1875 0.5625
v -0.5 0.1875 0.5625
v -0.5 0.1875 1.4375
v -0.2652 0.9697 1.4375
v -0.2652 0.9697 0.5625
v -0.5303 1.2348 1.4375
v -0.5303 1.2348 0.5625
v -0.5745 0.2184 1.4375
v -0.5745 0.2184 0.5625
v -1.2816 0.9255 0.5625
v -1.2816 0.9255 1.4375
v -0.5625 1.3125 1.4375
v -0.5625 1.3125 0.5625
v -0.5625 1.6875 1.4375
v -0.5625 1.6875 0.5625
v -1.3125 1 1.4375
v -1.3125 1 0.5625
v -1.3125 2 0.5625
v -1.3125 2 1.4375
v -0.5303 1.7652 1.4375
v -0.5303 1.7652 0.5625
v -0.2652 2.0303 1.4375
v -0.2652 2.0303 0.5625
v -1.2816 2.0745 1.4375
v -1.2816 2.0745 0.5625
v -0.5745 2.7816 0.5625
v -0.5745 2.7816 1.4375
v -0.1875 2.0625 1.4375
v -0.1875 2.0625 0.5625
v 0.1875 2.0625 1.4375
v 0.1875 2.0625 0.5625
v -0.5 2.8125 1.4375
v -0.5 2.8125 0.5625
v 0.5 2.8125 0.5625
v 0.5 2.8125 1.4375
v 0.2652 2.0303 1.4375
v 0.2652 2.0303 0.5625
v 0.5303 1.7652 1.4375
v 0.5303 1.7652 0.5625
v 0.5745 2.7816 1.4375
v 0.5745 2.7816 0.5625
v 1.2816 2.0745 0.5625
v 1.2816 2.0745 1.4375
v 0.5625 1.6875 2.4375
v 0.5625 1.6875 1.5625
v 0.5625 1.3125 2.4375
v 0.5625 1.3125 1.5625
v 1.3125 2 2.4375
v 1.3125 2 1.5625
v 1.3125 1 1.5625
v 1.3125 1 2.4375
v 0.5303 1.2348 2.4375
v 0.5303 1.2348 1.5625
v 0.2652 0.9697 2.4375
v 0.2652 0.9697 1.5625
v 1.2816 0.9255 2.4375
v 1.2816 0.9255 1.5625
v 0.5745 0.2184 1.5625
v 0.5745 0.2184 2.4375
v 0.1875 0.9375 2.4375
v 0.1875 0.9375 1.5625
v -0.1875 0.9375 2.4375
v -0.1875 0.9375 1.5625
v 0.5 0.1875 2.4375
v 0.5 0.1875 1.5625
v -0.5 0.1875 1.5625
v -0.5 0.1875 2.4375
v -0.2652 0.9697 2.4375
v -0.2652 0.9697 1.5625
v -0.5303 1.2348 2.4375
v -0.5303 1.2348 1.5625
v -0.5745 0.2184 2.4375
v -0.5745 0.2184 1.5625
v -1.2816 0.9255 1.5625
v -1.2816 0.9255 2.4375
v -0.5625 1.3125 2.4375
v -0.5625 1.3125 1.5625
v -0.5625 1.6875 2.4375
v -0.5625 1.6875 1.5625
v -1.3125 1 2.4375
v -1.3125 1 1.5625
v -1.3125 2 1.5625
v -1.3125 2 2.4375
v -0.5303 1.7652 2.4375
v -0.5303 1.7652 1.5625
v -0.2652 2.0303 2.4375
v -0.2652 2.0303 1.5625
v -1.2816 2.0745 2.4375
v -1.2816 2.0745 1.5625
v -0.5745 2.7816 1.5625
v -0.5745 2.7816 2.4375
v -0.1875 2.0625 2.4375
v -0.1875 2.0625 1.5625
v 0.1875 2.0625 2.4375
v 0.1875 2.0625 1.5625
v -0.5 2.8125 2.4375
v -0.5 2.8125 1.5625
v 0.5 2.8125 1.5625
v 0.5 2.8125 2.4375
v 0.2652 2.0303 2.4375
v 0.2652 2.0303 1.5625
v 0.5303 1.7652 2.4375
v 0.5303 1.7652 1.5625
v 0.5745 2.7816 2.4375
v 0.5745 2.7816 1.5625
v 1.2816 2.0745 1.5625
v 1.2816 2.0745 2.4375
v -0.625 0 1.4375
v 0.5625 0.125 0.5625
v -0.625 0 0.5625
v 0.5625 0.125 1.4375
v 0.625 0 1.4375
v -0.5625 0.125 0.5625
v 0.625 0 0.5625
v -0.5625 0.125 1.4375
v -0.625 3 1.4375
v -0.625 3 0.5625
v 0.625 3 1.4375
v 0.625 3 0.5625
v -1.5 2.125 1.4375
v -1.5 2.125 0.5625
v -1.5 0.875 1.4375
v -1.5 0.875 0.5625
v 1.5 2.125 1.4375
v 1.5 2.125 0.5625
v 1.5 0.875 1.4375
v 1.5 0.875 0.5625
v 1.375 2.0625 1.4375
v 1.375 2.0625 0.5625
v 1.375 0.9375 1.4375
v 1.375 0.9375 0.5625
v -0.5625 2.875 1.4375
v -0.5625 2.875 0.5625
v 0.5625 2.875 1.4375
v 0.5625 2.875 0.5625
v -1.375 2.0625 1.4375
v -1.375 2.0625 0.5625
v -1.375 0.9375 1.4375
v -1.375 0.9375 0.5625
v -0.625 0 0.4375
v 0.5625 0.125 -0.4375
v -0.625 -0 -0.4375
v 0.5625 0.125 0.4375
v 0.625 0 0.4375
v -0.5625 0.125 -0.4375
v 0.625 -0 -0.4375
v -0.5625 0.125 0.4375
v -0.625 3 0.4375
v -0.625 3 -0.4375
v 0.625 3 0.4375
v 0.625 3 -0.4375
v -1.5 2.125 0.4375
v -1.5 2.125 -0.4375
v -1.5 0.875 0.4375
v -1.5 0.875 -0.4375
v 1.5 2.125 0.4375
v 1.5 2.125 -0.4375
v 1.5 0.875 0.4375
v 1.5 0.875 -0.4375
v 1.375 2.0625 0.4375
v 1.375 2.0625 -0.4375
v 1.375 0.9375 0.4375
v 1.375 0.9375 -0.4375
v -0.5625 2.875 0.4375
v -0.5625 2.875 -0.4375
v 0.5625 2.875 0.4375
v 0.5625 2.875 -0.4375
v -1.375 2.0625 0.4375
v -1.375 2.0625 -0.4375
v -1.375 0.9375 0.4375
v -1.375 0.9375 -0.4375
v -0.625 -0 -0.5625
v 0.5625 0.125 -1.4375
v -0.625 -0 -1.4375
v 0.5625 0.125 -0.5625
v 0.625 -0 -0.5625
v -0.5625 0.125 -1.4375
v 0.625 -0 -1.4375
v -0.5625 0.125 -0.5625
v -0.625 3 -0.5625
v -0.625 3 -1.4375
v 0.625 3 -0.5625
v 0.625 3 -1.4375
v -1.5 2.125 -0.5625
v -1.5 2.125 -1.4375
v -1.5 0.875 -0.5625
v -1.5 0.875 -1.4375
v 1.5 2.125 -0.5625
v 1.5 2.125 -1.4375
v 1.5 0.875 -0.5625
v 1.5 0.875 -1.4375
v 1.375 2.0625 -0.5625
v 1.375 2.0625 -1.4375
v 1.375 0.9375 -0.5625
v 1.375 0.9375 -1.4375
v -0.5625 2.875 -0.5625
v -0.5625 2.875 -1.4375
v 0.5625 2.875 -0.5625
v 0.5625 2.875 -1.4375
v -1.375 2.0625 -0.5625
v -1.375 2.0625 -1.4375
v -1.375 0.9375 -0.5625
v -1.375 0.9375 -1.4375
v -0.625 -0 -1.5625
v 0.5625 0.125 -2.4375
v -0.625 -0 -2.4375
v 0.5625 0.125 -1.5625
v 0.625 -0 -1.5625
v -0.5625 0.125 -2.4375
v 0.625 -0 -2.4375
v -0.5625 0.125 -1.5625
v -0.625 3 -1.5625
v -0.625 3 -2.4375
v 0.625 3 -1.5625
v 0.625 3 -2.4375
v -1.5 2.125 -1.5625
v -1.5 2.125 -2.4375
v -1.5 0.875 -1.5625
v -1.5 0.875 -2.4375
v 1.5 2.125 -1.5625
v 1.5 2.125 -2.4375
v 1.5 0.875 -1.5625
v 1.5 0.875 -2.4375
v 1.375 2.0625 -1.5625
v 1.375 2.0625 -2.4375
v 1.375 0.9375 -1.5625
v 1.375 0.9375 -2.4375
v -0.5625 2.875 -1.5625
v -0.5625 2.875 -2.4375
v 0.5625 2.875 -1.5625
v 0.5625 2.875 -2.4375
v -1.375 2.0625 -1.5625
v -1.375 2.0625 -2.4375
v -1.375 0.9375 -1.5625
v -1.375 0.9375 -2.4375
v -1.5 0 3.5
v -1.5 1.375 4.4375
v 0 0 4.4375
v 1.375 1.375 2.8125
v 0 3 4.4375
v -1.25 3 3.5
v -1.5 1.375 2.8125
v 0 3 2.5625
v -1.5 2.75 3.5
v -1.5 1.625 4.3125
v 0 2.75 4.4375
v -0.125 2.875 4.4375
v 0 0 2.5625
v 1.25 3 3.5
v -1.5 1.375 2.5625
v 1.375 1.375 4.1875
v -1.5 1.375 4.1875
v -1.5 1.625 2.6875
v 0 2.75 2.5625
v 1.5 1.375 4.4375
v 1.5 1.125 4.3125
v 1.5 0 3.5
v 1.5 1.375 2.8125
v -1.375 1.375 2.8125
v 1.5 2.75 3.5
v 1.5 1.375 2.5625
v 1.5 1.375 4.1875
v -1.375 1.375 4.1875
v 1.5 1.625 2.6875
v 0.125 2.875 2.5625
v 0 0 3.5
v 0 1.375 4.4375
v 0 3 3.5
v 0 1.375 2.5625
v 0.75 0 3.5
v -0.75 1.375 2.5625
v -0.75 2.75 2.5625
v 0.75 0 4.4375
v -0.75 0 4.4375
v -0.75 0 3.5
v 0.75 2.75 4.4375
v 0.75 0 2.5625
v -0.75 1.375 4.4375
v 0.75 2.75 2.5625
v 0.75 1.375 2.5625
v 0.75 1.375 4.4375
v -0.75 2.75 4.4375
v -0.75 0 2.5625
vt 0.1864 0.4813
vt 0.2034 0.5312
vt 0.1864 0.5312
vt 0.2034 0.3688
vt 0.2373 0.4562
vt 0.2034 0.4562
vt 0.2458 0.0813
vt 0.1864 0.0063
vt 0.2458 0.0063
vt 0.1483 0.5687
vt 0.161 0.5563
vt 0.161 0.5687
vt 0.1864 0.1812
vt 0.2458 0.1812
vt 0.2203 0.2687
vt 0.2288 0.2812
vt 0.2203 0.2812
vt 0.2373 0.2812
vt 0.2288 0.2687
vt 0.2373 0.2687
vt 0.1356 0.6188
vt 0.0763 0.5062
vt 0.1356 0.5062
vt 0.2119 0.2687
vt 0.2119 0.2812
vt 0.3559 0.15
vt 0.2966 0.1125
vt 0.3559 0.1125
vt 0.3729 0.5875
vt 0.3814 0.5
vt 0.3814 0.5875
vt 0.2458 0.2562
vt 0.1864 0.2562
vt 0.0085 0.375
vt 0.0678 0.5
vt 0.0085 0.5
vt 0.0085 0.125
vt 0.0678 0.25
vt 0.0085 0.25
vt 0.2034 0.2687
vt 0.0763 0.9938
vt 0.1356 0.8812
vt 0.1356 0.9938
vt 0.0763 0.7438
vt 0.1356 0.6312
vt 0.1356 0.7438
vt 0.0763 0.2437
vt 0.1356 0.1313
vt 0.1356 0.2437
vt -0 0.2562
vt -0 0.3688
vt 0.0763 0.8812
vt 0.0678 1
vt 0.0678 0.875
vt 0.0763 0.1187
vt 0.0678 -0
vt 0.0763 0.0063
vt 0 0.8812
vt 0.0085 1
vt -0 0.9938
vt 0.0763 0.8688
vt 0.0678 0.75
vt 0.0763 0.7562
vt 0.0763 0.4938
vt 0.0678 0.375
vt 0.0763 0.3812
vt 0.7797 0.4125
vt 0.7966 0.4625
vt 0.7331 0.4625
vt 0.0763 0.1313
vt 0.0678 0.125
vt -0 0.1313
vt 0 0.2437
vt 0.0763 0.6188
vt 0.0763 0.3688
vt 0.0763 0.2562
vt 0.0763 0.6312
vt 0.0678 0.625
vt 0.1864 0.4562
vt 0.1864 0.3688
vt 0.2034 0.2625
vt 0.2203 0.2625
vt 0.2712 0.2687
vt 0.2542 0.3688
vt 0.2542 0.4562
vt 0.1737 0.5563
vt 0.1737 0.5687
vt 0.1356 0.2687
vt 0.1525 0.2625
vt 0.1525 0.2687
vt 0.2966 0.15
vt 0.1864 0.0813
vt 0.1356 0.15
vt 0.1356 0.1125
vt 0.2331 0.2875
vt 0.2076 0.2812
vt 0.2331 0.2812
vt 0.1356 0.3688
vt 0.1356 0.2562
vt 0.661 0.5875
vt 0.7542 0.5
vt 0.7542 0.5875
vt 0.1356 0.5687
vt 0.1483 0.5563
vt 0.1356 0.8688
vt 0.1356 0.7562
vt 0.1356 0.2625
vt 0.1992 0.5687
vt 0.2119 0.5563
vt 0.2119 0.5687
vt 0.3051 0.3688
vt 0.2881 0.4562
vt 0.2881 0.3688
vt 0.339 0.4562
vt 0.3051 0.4562
vt 0.0085 0.875
vt 0.1356 0.4562
vt 0.1525 0.3688
vt 0.1525 0.4562
vt 0.1864 0.5687
vt 0.1992 0.5563
vt 0.1525 0.5312
vt 0.1864 0.5563
vt 0.1525 0.5563
vt 0.8475 0.4625
vt 0.7966 0.325
vt 0.8475 0.325
vt 0.2246 0.5687
vt 0.2373 0.5563
vt 0.2373 0.5687
vt 0.2034 0.2812
vt 0.0085 0.625
vt 0.0085 0.75
vt 0.2331 0.325
vt 0.2373 0.2875
vt 0.2373 0.325
vt 0.2119 0.5188
vt 0.2458 0.5312
vt 0.2119 0.5312
vt 0.4831 0.5875
vt 0.4746 0.675
vt 0.4746 0.5875
vt 0.2076 0.2875
vt 0.2034 0.325
vt 0.2034 0.2875
vt 0.2034 0.4813
vt 0.1356 0.4813
vt 0.1525 0.4813
vt 0.1356 0.5312
vt 0.3136 0.5062
vt 0.3051 0.4938
vt 0.3136 0.4938
vt 0.6525 0.675
vt 0.6525 0.5875
vt 0.7797 0.2375
vt 0.7881 0.35
vt 0.6864 0.4125
vt 0.6695 0.325
vt 0.678 0.3
vt 0.2966 0.5062
vt 0.2881 0.4938
vt 0.2966 0.4938
vt 0.2458 0.4688
vt 0.2119 0.4562
vt 0.2458 0.4562
vt 0.4492 0.2375
vt 0.4661 0.325
vt 0.4576 0.35
vt 0.3475 0.35
vt 0.339 0.4625
vt 0.339 0.325
vt 0.1864 0.2687
vt 0.1356 0.2938
vt 0.4746 0.6875
vt 0.3814 0.675
vt 0.5678 0.4875
vt 0.6525 0.5813
vt 0.5678 0.5813
vt 0.2119 0.4688
vt 0.2034 0.5188
vt 0.2034 0.4688
vt 0.7331 0.4875
vt 0.6695 0.4625
vt 0.1356 0.1187
vt 0.1356 0.0063
vt 0.2542 0.4813
vt 0.2797 0.4688
vt 0.2712 0.4938
vt 0.3814 0.4875
vt 0.4746 0.5
vt 0.2246 0.5563
vt 0.7627 0.5
vt 0.7627 0.5875
vt 0.661 0.4875
vt 0.7542 0.4875
vt 0.2627 0.5062
vt 0.2542 0.4938
vt 0.2627 0.4938
vt 0.2797 0.5062
vt 0.2797 0.4938
vt 0.2076 0.325
vt 0.2331 0.3312
vt 0.2076 0.3312
vt 0.2458 0.5188
vt 0.2542 0.4688
vt 0.2542 0.5188
vt 0.517 0.4625
vt 0.517 0.325
vt 0.661 0.675
vt 0.7542 0.6875
vt 0.661 0.6875
vt 0.4492 0.4125
vt 0.4661 0.4625
vt 0.4025 0.4625
vt 0.2712 0.5062
vt 0.3051 0.5062
vt 0.2881 0.5062
vt 0.4025 0.4875
vt -0 0.0063
vt -0 0.1187
vt -0 0.6312
vt 0 0.7438
vt 0 0.5062
vt 0 0.6188
vt 0 0.4938
vt 0 0.7562
vt 0 0.8688
vt 0.1356 0.3812
vt 0.322 0.5062
vt 0.322 0.4938
vt 0.3559 0.2375
vt 0.339 0.1875
vt 0.4025 0.1875
vt 0.6864 0.2375
vt 0.6695 0.1875
vt 0.7331 0.1875
vt 0.3559 0.325
vt 0.517 0.1875
vt 0.4661 0.0938
vt 0.517 0.0938
vt 0.2627 0.4562
vt 0.2034 0.2938
vt 0.2038 0.3436
vt 0.1356 0.3438
vt 0.1356 0.4938
vt 0.2712 0.2625
vt 0.9492 0.325
vt 0.8983 0.1875
vt 0.9492 0.1875
vt 0.6186 0.1875
vt 0.5678 0.0938
vt 0.6186 0.0938
vt 0.9831 0.4875
vt 0.8983 0.4875
vt 0.8898 0.475
vt 0.2373 0.3688
vt 0.9492 0.4625
vt 0.8983 0.325
vt 1 0.325
vt 1 0.1875
vt 0.4661 0
vt 0.517 0
vt 0.8983 0.4625
vt 0.4831 0.675
vt 0.339 0.4875
vt 0.0085 0
vt 0.1356 0.5563
vt 0.4831 0.5813
vt 0.5678 0.675
vt 0.5593 0.475
vt 0.5678 0.4625
vt 0.4831 0.4875
vt 0.8136 0.4875
vt 0.2712 0.4562
vt 0.2797 0.4813
vt 0.339 0.3688
vt 0.7797 0.325
vt 0.6864 0.325
vt 0.6695 0.0938
vt 0.6186 0
vt 0.6695 0
vt 0.4492 0.325
vt 0.3559 0.4125
vt 0.6695 0.4875
vt 0.2542 0.5062
vt 0.3814 0.6875
vt 0.661 0.5
vt 0.4661 0.1875
vt 0.6525 0.4875
vt 0.7966 0.1875
vt 0 0.3812
vt 0.4746 0.4875
vt 0.7542 0.675
vt 0.3729 0.5
vt 0.6186 0.4625
vt 0.5678 0.325
vt 0.4831 0.5
vt 0.6186 0.325
vt 0.3729 0.675
vt 1 0.4625
vt 0.6525 0.5
vt 0.5678 0.1875
vt 0.8475 0.1875
vt 0.5678 0
vt 0.7966 0.4875
vt 0.4661 0.4875
vt 0.7627 0.675
s 1
f 294/1 16/2 296/3
f 10/4 16/5 12/6
f 1035/7 1031/8 1032/9
f 644/10 641/11 642/12
f 101/13 103/7 102/14
f 758/15 752/16 750/17
f 825/18 818/19 817/20
f 239/16 229/15 231/19
f 1312/21 1314/22 1316/23
f 853/24 846/17 845/25
f 1097/13 1099/7 1098/14
f 73/26 76/27 75/28
f 940/16 931/15 932/19
f 1347/29 326/30 1364/31
f 165/13 162/32 161/33
f 1227/34 1215/35 1213/36
f 1253/37 1258/38 1257/39
f 1137/13 1139/7 1138/14
f 259/25 249/40 251/24
f 1205/26 1208/27 1207/28
f 938/18 932/19 930/20
f 44/41 37/42 43/43
f 1332/44 1312/45 1331/46
f 1338/47 1333/48 1337/49
f 1304/41 1297/42 1303/43
f 1337/50 1323/34 1339/51
f 1266/52 1256/53 1262/54
f 1302/55 1288/56 1304/57
f 37/58 27/59 43/60
f 38/61 36/62 40/63
f 1250/64 1260/65 1276/66
f 317/67 216/68 1365/69
f 1334/70 1322/38 1318/71
f 1269/72 1257/39 1273/73
f 42/55 28/56 44/57
f 22/64 32/65 48/66
f 1310/74 1311/35 1314/22
f 1302/70 1290/38 1286/71
f 1244/75 1226/38 1242/76
f 18/77 36/62 23/78
f 18/74 19/35 22/22
f 111/7 107/8 108/9
f 374/4 372/79 370/80
f 467/81 462/15 464/40
f 594/82 589/83 590/15
f 77/13 79/7 78/14
f 364/5 353/84 355/85
f 386/82 381/83 382/15
f 908/16 899/15 900/19
f 658/12 655/86 656/87
f 126/82 121/83 122/15
f 747/17 737/24 739/15
f 177/88 184/89 179/90
f 1259/34 1247/35 1245/36
f 1323/34 1311/35 1309/36
f 1098/14 1096/27 1094/91
f 1156/92 1149/93 1151/94
f 828/17 819/24 820/15
f 227/95 221/96 222/97
f 728/19 719/18 720/16
f 47/98 46/76 45/99
f 1095/94 1097/13 1093/93
f 983/94 985/13 981/93
f 120/89 116/40 115/90
f 198/12 195/86 196/87
f 920/19 911/18 912/16
f 1209/13 1211/7 1210/14
f 1201/13 1198/32 1197/33
f 1356/100 322/101 1344/102
f 536/40 538/82 534/15
f 619/81 614/15 616/40
f 202/103 199/104 200/10
f 58/4 56/79 54/80
f 257/18 250/19 249/20
f 143/7 139/8 140/9
f 1007/94 1009/13 1005/93
f 978/14 976/27 974/91
f 809/25 802/40 801/24
f 37/105 40/63 39/106
f 997/26 1000/27 999/28
f 993/13 990/32 989/33
f 986/14 984/27 982/91
f 1159/94 1161/13 1157/93
f 79/7 75/8 76/9
f 748/16 739/15 740/19
f 1291/34 1290/38 1292/65
f 856/19 847/18 848/16
f 348/5 337/84 339/85
f 1189/26 1192/27 1191/28
f 632/40 634/82 630/15
f 123/90 125/107 128/89
f 128/89 124/40 123/90
f 208/108 205/109 206/110
f 700/108 697/109 698/110
f 345/111 335/112 333/113
f 1122/14 1120/27 1118/91
f 1135/94 1137/13 1133/93
f 1005/26 1008/27 1007/28
f 243/17 233/24 235/15
f 1029/26 1032/27 1031/28
f 662/103 659/104 660/10
f 1130/14 1128/27 1126/91
f 1002/14 1000/27 998/91
f 13/111 11/114 15/115
f 28/53 33/116 34/54
f 1001/13 998/32 997/33
f 192/89 188/40 187/90
f 152/89 148/40 147/90
f 692/10 689/11 690/12
f 124/40 126/82 122/15
f 523/81 518/15 520/40
f 981/26 984/27 983/28
f 200/10 197/11 198/12
f 241/25 234/40 233/24
f 343/117 334/118 336/119
f 1108/92 1101/93 1103/94
f 1010/14 1008/27 1006/91
f 193/120 207/121 208/108
f 291/25 281/40 283/24
f 694/103 691/104 692/10
f 450/82 445/83 446/15
f 1138/14 1136/27 1134/91
f 171/94 173/13 169/93
f 1139/7 1135/8 1136/9
f 295/122 7/123 3/124
f 1043/7 1039/8 1040/9
f 1193/13 1195/7 1194/14
f 1384/125 1366/126 1385/127
f 1307/98 1306/76 1305/99
f 153/88 160/89 155/90
f 631/90 633/107 636/89
f 648/128 645/129 646/130
f 903/16 893/15 895/19
f 272/40 263/25 264/131
f 951/40 941/25 943/131
f 160/89 156/40 155/90
f 1033/13 1030/32 1029/33
f 950/15 944/16 942/17
f 165/13 167/7 166/14
f 1340/75 1322/38 1338/76
f 1013/26 1016/27 1015/28
f 1305/50 1291/34 1307/51
f 710/25 704/40 702/24
f 1041/13 1038/32 1037/33
f 380/5 369/84 371/85
f 977/13 974/32 973/33
f 921/18 914/19 913/20
f 1017/13 1019/7 1018/14
f 875/17 865/24 867/15
f 335/124 340/79 348/2
f 141/13 143/7 142/14
f 1057/13 1054/32 1053/33
f 287/40 277/25 279/131
f 109/13 111/7 110/14
f 1089/13 1086/32 1085/33
f 10/4 8/79 6/80
f 1051/7 1047/8 1048/9
f 1009/13 1011/7 1010/14
f 133/13 135/7 134/14
f 794/16 788/15 786/19
f 956/17 947/24 948/15
f 294/1 4/119 8/79
f 290/16 284/15 282/19
f 118/82 113/83 114/15
f 21/132 36/62 35/133
f 228/134 222/135 224/136
f 482/82 477/83 478/15
f 873/25 866/40 865/24
f 924/17 915/24 916/15
f 71/7 67/8 68/9
f 1173/26 1176/27 1175/28
f 275/17 265/24 267/15
f 303/137 293/138 294/139
f 876/16 867/15 868/19
f 190/82 185/83 186/15
f 985/13 982/32 981/33
f 1025/13 1027/7 1026/14
f 777/25 770/40 769/24
f 811/17 801/24 803/15
f 672/87 670/123 669/120
f 1357/140 328/141 1368/142
f 256/19 247/18 248/16
f 61/111 51/112 49/113
f 237/17 230/24 229/15
f 358/4 364/5 360/6
f 226/143 223/144 221/145
f 182/82 177/83 178/15
f 810/18 804/19 802/20
f 12/146 294/1 8/79
f 11/147 4/119 293/148
f 15/149 295/122 3/124
f 16/2 7/123 296/3
f 240/18 231/19 232/20
f 314/150 300/151 306/152
f 87/81 82/15 84/40
f 1356/100 320/153 1367/154
f 426/82 421/83 422/15
f 1336/41 1329/42 1335/43
f 1077/26 1080/27 1079/28
f 285/24 278/17 277/25
f 676/10 673/11 674/12
f 141/13 138/32 137/33
f 169/26 172/27 171/28
f 1149/26 1152/27 1151/28
f 890/16 884/15 882/19
f 1161/13 1163/7 1162/14
f 610/82 605/83 606/15
f 318/155 1366/126 1369/156
f 320/157 1360/158 1361/159
f 1238/55 1224/56 1240/57
f 312/160 308/161 299/162
f 1280/21 1282/22 1284/23
f 375/117 366/118 368/119
f 270/19 264/18 262/16
f 1081/13 1078/32 1077/33
f 796/17 787/24 788/15
f 301/163 296/164 295/165
f 59/117 50/118 52/119
f 331/166 1342/167 1350/168
f 1334/55 1320/56 1336/57
f 1358/169 212/170 1355/171
f 53/172 50/118 61/173
f 404/89 400/40 399/90
f 350/118 356/79 352/119
f 381/88 388/89 383/90
f 332/174 325/175 328/141
f 839/16 829/15 831/19
f 342/4 348/5 344/6
f 1221/37 1226/38 1225/39
f 953/18 946/19 945/20
f 295/122 11/147 293/148
f 1345/176 1354/177 1373/178
f 745/25 738/40 737/24
f 1203/7 1199/8 1200/9
f 640/87 638/123 637/120
f 334/118 340/79 336/119
f 823/40 813/25 815/131
f 304/179 294/180 296/181
f 133/13 130/32 129/33
f 923/25 913/40 915/24
f 255/40 245/25 247/131
f 402/82 397/83 398/15
f 780/16 771/15 772/19
f 1354/182 214/183 1365/69
f 1081/13 1083/7 1082/14
f 935/24 925/17 927/25
f 660/10 657/11 658/12
f 727/40 717/25 719/131
f 468/89 464/40 463/90
f 1009/13 1006/32 1005/33
f 1333/184 1336/57 1335/185
f 763/25 753/40 755/24
f 1285/37 1290/38 1289/39
f 410/82 405/83 406/15
f 1197/26 1200/27 1199/28
f 731/25 721/40 723/24
f 949/24 942/17 941/25
f 388/89 384/40 383/90
f 517/88 524/89 519/90
f 305/186 308/187 297/188
f 656/87 654/123 653/120
f 546/82 541/83 542/15
f 413/88 420/89 415/90
f 394/82 389/83 390/15
f 337/84 335/112 339/85
f 113/88 120/89 115/90
f 535/90 537/107 540/89
f 503/90 505/107 508/89
f 420/89 416/40 415/90
f 369/172 366/118 377/173
f 500/89 496/40 495/90
f 330/189 327/190 326/30
f 428/89 424/40 423/90
f 595/81 590/15 592/40
f 599/90 601/107 604/89
f 395/81 390/15 392/40
f 397/88 404/89 399/90
f 466/82 461/83 462/15
f 412/89 408/40 407/90
f 827/25 817/40 819/24
f 361/111 359/114 363/115
f 934/19 928/18 926/16
f 389/88 396/89 391/90
f 471/90 473/107 476/89
f 452/89 448/40 447/90
f 474/82 469/83 470/15
f 508/89 504/40 503/90
f 795/25 785/40 787/24
f 460/89 456/40 455/90
f 286/15 280/16 278/17
f 485/88 492/89 487/90
f 427/81 422/15 424/40
f 429/88 436/89 431/90
f 554/82 549/83 550/15
f 477/88 484/89 479/90
f 458/82 453/83 454/15
f 377/111 367/112 365/113
f 1129/13 1126/32 1125/33
f 408/40 410/82 406/15
f 440/40 442/82 438/15
f 484/89 480/40 479/90
f 434/82 429/83 430/15
f 711/16 701/15 703/19
f 274/18 268/19 266/20
f 492/89 488/40 487/90
f 579/81 574/15 576/40
f 421/88 428/89 423/90
f 459/81 454/15 456/40
f 461/88 468/89 463/90
f 530/82 525/83 526/15
f 476/89 472/40 471/90
f 891/25 881/40 883/24
f 436/89 432/40 431/90
f 1161/13 1158/32 1157/33
f 581/88 588/89 583/90
f 187/90 189/107 192/89
f 516/89 512/40 511/90
f 538/82 533/83 534/15
f 572/89 568/40 567/90
f 859/25 849/40 851/24
f 524/89 520/40 519/90
f 563/81 558/15 560/40
f 89/88 96/89 91/90
f 587/81 582/15 584/40
f 901/17 894/24 893/15
f 902/25 896/40 894/24
f 541/88 548/89 543/90
f 522/82 517/83 518/15
f 741/15 734/16 733/17
f 151/81 146/15 148/40
f 188/40 190/82 186/15
f 1237/72 1225/39 1241/73
f 548/89 544/40 543/90
f 498/82 493/83 494/15
f 621/88 628/89 623/90
f 490/82 485/83 486/15
f 556/89 552/40 551/90
f 1145/13 1142/32 1141/33
f 439/90 441/107 444/89
f 491/81 486/15 488/40
f 525/88 532/89 527/90
f 418/82 413/83 414/15
f 540/89 536/40 535/90
f 668/108 665/109 666/110
f 805/15 798/16 797/17
f 1011/7 1007/8 1008/9
f 407/90 409/107 412/89
f 472/40 474/82 470/15
f 580/89 576/40 575/90
f 669/120 683/121 684/108
f 628/89 624/40 623/90
f 961/13 958/32 957/33
f 588/89 584/40 583/90
f 515/81 510/15 512/40
f 453/88 460/89 455/90
f 555/81 550/15 552/40
f 557/88 564/89 559/90
f 618/82 613/83 614/15
f 636/89 632/40 631/90
f 586/82 581/83 582/15
f 869/15 862/16 861/17
f 499/81 494/15 496/40
f 567/90 569/107 572/89
f 568/40 570/82 566/15
f 605/88 612/89 607/90
f 562/82 557/83 558/15
f 837/17 830/24 829/15
f 855/40 845/25 847/131
f 374/4 380/5 376/6
f 451/81 446/15 448/40
f 549/88 556/89 551/90
f 159/81 154/15 156/40
f 620/89 616/40 615/90
f 955/25 945/40 947/24
f 589/88 596/89 591/90
f 664/128 661/129 662/130
f 604/89 600/40 599/90
f 666/110 663/191 664/128
f 613/88 620/89 615/90
f 600/40 602/82 598/15
f 445/88 452/89 447/90
f 634/82 629/83 630/15
f 1217/132 1215/35 1219/78
f 826/16 820/15 818/19
f 775/16 765/15 767/19
f 96/89 92/40 91/90
f 774/25 768/40 766/24
f 1313/132 1328/62 1327/133
f 1297/105 1300/63 1299/106
f 637/120 651/121 652/108
f 642/12 639/86 640/87
f 842/18 836/19 834/20
f 918/15 912/16 910/17
f 776/18 767/19 768/20
f 196/87 194/123 193/120
f 58/4 64/5 60/6
f 729/18 722/19 721/20
f 626/82 621/83 622/15
f 627/81 622/15 624/40
f 858/16 852/15 850/19
f 838/25 832/40 830/24
f 957/26 960/27 959/28
f 65/26 68/27 67/28
f 403/81 398/15 400/40
f 789/24 782/17 781/25
f 1281/132 1296/62 1295/133
f 51/124 56/79 64/2
f 1065/13 1062/32 1061/33
f 742/19 736/18 734/16
f 760/19 751/18 752/16
f 53/84 51/112 55/85
f 1021/26 1024/27 1023/28
f 764/17 755/24 756/15
f 685/120 699/121 700/108
f 746/18 740/19 738/20
f 715/17 705/24 707/15
f 1217/132 1232/62 1231/133
f 1229/116 1232/62 1230/54
f 1275/98 1274/76 1273/99
f 759/40 749/25 751/131
f 564/89 560/40 559/90
f 690/12 687/86 688/87
f 101/13 98/32 97/33
f 773/17 766/24 765/15
f 493/88 500/89 495/90
f 965/26 968/27 967/28
f 1037/26 1040/27 1039/28
f 41/184 44/57 43/185
f 1113/13 1115/7 1114/14
f 726/15 720/16 718/17
f 1169/13 1171/7 1170/14
f 353/172 350/118 361/173
f 870/19 864/18 862/16
f 532/89 528/40 527/90
f 1227/34 1226/38 1228/65
f 1344/102 318/192 1363/193
f 2/118 8/79 4/119
f 712/18 703/19 704/20
f 971/7 967/8 968/9
f 1073/13 1075/7 1074/14
f 922/16 916/15 914/19
f 1003/7 999/8 1000/9
f 1085/26 1088/27 1087/28
f 1265/105 1268/63 1267/106
f 509/88 516/89 511/90
f 696/128 693/129 694/130
f 328/141 1364/31 1368/142
f 779/17 769/24 771/15
f 652/108 649/109 650/110
f 1049/13 1051/7 1050/14
f 228/134 226/143 227/95
f 377/111 375/114 379/115
f 907/17 897/24 899/15
f 698/110 695/191 696/128
f 1256/53 1261/116 1262/54
f 1049/13 1046/32 1045/33
f 743/24 733/17 735/25
f 674/12 671/86 672/87
f 183/81 178/15 180/40
f 887/40 877/25 879/131
f 33/116 36/62 34/54
f 11/117 2/118 4/119
f 612/89 608/40 607/90
f 442/82 437/83 438/15
f 886/15 880/16 878/17
f 917/24 910/17 909/25
f 173/13 170/32 169/33
f 1001/13 1003/7 1002/14
f 1105/13 1102/32 1101/33
f 1193/13 1190/32 1189/33
f 1125/26 1128/27 1127/28
f 969/13 966/32 965/33
f 939/17 929/24 931/15
f 888/19 879/18 880/16
f 1157/26 1160/27 1159/28
f 969/13 971/7 970/14
f 713/25 706/40 705/24
f 822/15 816/16 814/17
f 1248/21 1250/22 1252/23
f 843/17 833/24 835/15
f 854/15 848/16 846/17
f 885/24 878/17 877/25
f 258/16 252/15 250/19
f 289/18 282/19 281/20
f 578/82 573/83 574/15
f 808/40 799/25 800/131
f 1165/26 1168/27 1167/28
f 1117/26 1120/27 1119/28
f 342/4 340/79 338/80
f 973/26 976/27 975/28
f 5/84 3/112 7/85
f 1057/13 1059/7 1058/14
f 1145/13 1147/7 1146/14
f 95/81 90/15 92/40
f 1269/184 1272/57 1271/185
f 506/82 501/83 502/15
f 806/19 800/18 798/16
f 596/89 592/40 591/90
f 242/18 236/19 234/20
f 761/18 754/19 753/20
f 807/24 797/17 799/25
f 840/18 831/19 832/20
f 1073/13 1070/32 1069/33
f 989/26 992/27 991/28
f 109/13 106/32 105/33
f 995/7 991/8 992/9
f 732/17 723/24 724/15
f 979/7 975/8 976/9
f 573/88 580/89 575/90
f 790/15 784/16 782/17
f 1325/116 1328/62 1326/54
f 322/101 319/194 318/195
f 680/128 677/129 678/130
f 688/87 686/123 685/120
f 310/196 305/197 298/198
f 844/16 835/15 836/19
f 145/88 152/89 147/90
f 824/19 815/18 816/16
f 369/84 367/112 371/85
f 69/13 71/7 70/14
f 514/82 509/83 510/15
f 167/7 163/8 164/9
f 105/26 108/27 107/28
f 316/199 297/188 307/200
f 1113/13 1110/32 1109/33
f 570/82 565/83 566/15
f 225/201 224/202 223/203
f 602/82 597/83 598/15
f 419/81 414/15 416/40
f 1259/34 1258/38 1260/65
f 933/15 926/16 925/17
f 16/5 5/84 7/85
f 871/24 861/17 863/25
f 1209/13 1206/32 1205/33
f 253/24 246/17 245/25
f 1291/34 1279/35 1277/36
f 1320/53 1325/116 1326/54
f 987/7 983/8 984/9
f 367/124 372/79 380/2
f 1169/13 1166/32 1165/33
f 857/18 850/19 849/20
f 1339/98 1338/76 1337/99
f 936/40 927/25 928/131
f 358/4 356/79 354/80
f 136/92 129/93 131/94
f 1028/92 1021/93 1023/94
f 1329/105 1332/63 1331/106
f 1065/13 1067/7 1066/14
f 81/88 88/89 83/90
f 31/34 19/35 17/36
f 1066/14 1064/27 1062/91
f 78/14 76/27 74/91
f 1121/13 1118/32 1117/33
f 709/17 702/24 701/15
f 963/7 959/8 960/9
f 173/13 175/7 174/14
f 1202/14 1200/27 1198/91
f 962/14 960/27 958/91
f 1067/7 1063/8 1064/9
f 1317/37 1322/38 1321/39
f 1187/7 1183/8 1184/9
f 841/25 834/40 833/24
f 1175/94 1177/13 1173/93
f 1114/14 1112/27 1110/91
f 730/16 724/15 722/19
f 892/17 883/24 884/15
f 952/19 943/18 944/16
f 366/118 372/79 368/119
f 1044/92 1037/93 1039/94
f 1186/14 1184/27 1182/91
f 103/7 99/8 100/9
f 993/13 995/7 994/14
f 904/18 895/19 896/20
f 1185/13 1187/7 1186/14
f 139/94 141/13 137/93
f 1127/94 1129/13 1125/93
f 531/81 526/15 528/40
f 1033/13 1035/7 1034/14
f 792/19 783/18 784/16
f 303/137 301/163 302/204
f 1154/14 1152/27 1150/91
f 994/14 992/27 990/91
f 714/18 708/19 706/20
f 271/24 261/17 263/25
f 611/81 606/15 608/40
f 791/40 781/25 783/131
f 1143/94 1145/13 1141/93
f 1015/94 1017/13 1013/93
f 119/81 114/15 116/40
f 31/34 30/38 32/65
f 1313/132 1311/35 1315/78
f 206/110 203/191 204/128
f 1170/14 1168/27 1166/91
f 1106/14 1104/27 1102/91
f 135/7 131/8 132/9
f 5/172 2/118 13/173
f 302/204 295/205 293/206
f 762/16 756/15 754/19
f 75/94 77/13 73/93
f 1050/14 1048/27 1046/91
f 1387/207 1342/167 1383/208
f 1317/37 1320/56 1318/71
f 1027/7 1023/8 1024/9
f 1233/105 1236/63 1235/106
f 1199/94 1201/13 1197/93
f 1188/92 1181/93 1183/94
f 137/26 140/27 139/28
f 821/24 814/17 813/25
f 1123/7 1119/8 1120/9
f 260/17 251/24 252/15
f 1031/94 1033/13 1029/93
f 1162/14 1160/27 1158/91
f 161/26 164/27 163/28
f 650/110 647/191 648/128
f 238/25 232/40 230/24
f 1288/53 1293/116 1294/54
f 980/92 973/93 975/94
f 1124/92 1117/93 1119/94
f 175/7 171/8 172/9
f 77/13 74/32 73/33
f 204/128 201/129 202/130
f 874/18 868/19 866/20
f 1194/14 1192/27 1190/91
f 1063/94 1065/13 1061/93
f 244/16 235/15 236/19
f 25/37 30/38 29/39
f 184/89 180/40 179/90
f 1101/26 1104/27 1103/28
f 1026/14 1024/27 1022/91
f 70/14 68/27 66/91
f 94/82 89/83 90/15
f 1089/13 1091/7 1090/14
f 1115/7 1111/8 1112/9
f 288/19 279/18 280/16
f 1210/14 1208/27 1206/91
f 1207/94 1209/13 1205/93
f 1181/26 1184/27 1183/28
f 1221/37 1224/56 1222/71
f 1075/7 1071/8 1072/9
f 86/82 81/83 82/15
f 102/14 100/27 98/91
f 134/14 132/27 130/91
f 1025/13 1022/32 1021/33
f 21/132 19/35 23/78
f 1053/26 1056/27 1055/28
f 793/18 786/19 785/20
f 970/14 968/27 966/91
f 110/14 108/27 106/91
f 324/209 317/210 320/211
f 1253/37 1256/56 1254/71
f 1091/7 1087/8 1088/9
f 1201/13 1203/7 1202/14
f 104/92 97/93 99/94
f 166/14 164/27 162/91
f 1069/26 1072/27 1071/28
f 1121/13 1123/7 1122/14
f 1171/7 1167/8 1168/9
f 444/89 440/40 439/90
f 1047/94 1049/13 1045/93
f 1034/14 1032/27 1030/91
f 292/17 283/24 284/15
f 1216/21 1218/22 1220/23
f 1083/7 1079/8 1080/9
f 25/37 28/56 26/71
f 1074/14 1072/27 1070/91
f 1060/92 1053/93 1055/94
f 276/16 267/15 268/19
f 906/18 900/19 898/20
f 1059/7 1055/8 1056/9
f 1137/13 1134/32 1133/33
f 999/94 1001/13 997/93
f 332/212 210/213 1349/214
f 678/103 675/104 676/10
f 309/215 298/198 297/188
f 1249/132 1247/35 1251/78
f 684/108 681/109 682/110
f 964/92 957/93 959/94
f 1042/14 1040/27 1038/91
f 311/216 299/162 300/151
f 1153/13 1155/7 1154/14
f 1155/7 1151/8 1152/9
f 1153/13 1150/32 1149/33
f 174/14 172/27 170/91
f 1082/14 1080/27 1078/91
f 396/89 392/40 391/90
f 20/21 22/22 24/23
f 1281/132 1279/35 1283/78
f 61/111 59/114 63/115
f 1092/92 1085/93 1087/94
f 72/92 65/93 67/94
f 315/217 307/200 308/161
f 977/13 979/7 978/14
f 1147/7 1143/8 1144/9
f 483/81 478/15 480/40
f 1111/94 1113/13 1109/93
f 1178/14 1176/27 1174/91
f 646/103 643/104 644/10
f 273/25 266/40 265/24
f 1163/7 1159/8 1160/9
f 158/82 153/83 154/15
f 1058/14 1056/27 1054/91
f 1071/94 1073/13 1069/93
f 1141/26 1144/27 1143/28
f 13/111 3/112 1/113
f 1131/7 1127/8 1128/9
f 547/81 542/15 544/40
f 107/94 109/13 105/93
f 967/94 969/13 965/93
f 1133/26 1136/27 1135/28
f 150/82 145/83 146/15
f 1179/7 1175/8 1176/9
f 1045/26 1048/27 1047/28
f 1172/92 1165/93 1167/94
f 996/92 989/93 991/94
f 1109/26 1112/27 1111/28
f 905/25 898/40 897/24
f 1019/7 1015/8 1016/9
f 744/40 735/25 736/131
f 142/14 140/27 138/91
f 1191/94 1193/13 1189/93
f 1099/7 1095/8 1096/9
f 1017/13 1014/32 1013/33
f 1195/7 1191/8 1192/9
f 88/89 84/40 83/90
f 1090/14 1088/27 1086/91
f 163/94 165/13 161/93
f 1129/13 1131/7 1130/14
f 778/18 772/19 770/20
f 69/13 66/32 65/33
f 872/40 863/25 864/131
f 1018/14 1016/27 1014/91
f 1146/14 1144/27 1142/91
f 725/24 718/17 717/25
f 353/84 351/112 355/85
f 129/26 132/27 131/28
f 1249/132 1264/62 1263/133
f 1177/13 1174/32 1173/33
f 1097/13 1094/32 1093/33
f 361/111 351/112 349/113
f 1346/218 212/170 1349/214
f 757/24 750/17 749/25
f 97/26 100/27 99/28
f 269/15 262/16 261/17
f 50/118 56/79 52/119
f 1240/41 1233/42 1239/43
f 1300/44 1280/45 1299/46
f 1268/44 1248/45 1267/46
f 1242/47 1237/48 1241/49
f 1271/219 1253/37 1269/220
f 1216/221 1231/133 1235/222
f 1316/223 1313/132 1312/224
f 1314/64 1324/65 1340/66
f 1303/219 1285/37 1301/220
f 1248/221 1263/133 1267/222
f 1276/75 1258/38 1274/76
f 1312/221 1327/133 1331/222
f 1301/72 1289/39 1305/73
f 1330/61 1328/62 1332/63
f 24/225 31/34 17/36
f 1299/226 1293/116 1297/227
f 1330/52 1320/53 1326/54
f 1273/50 1259/34 1275/51
f 1297/58 1287/59 1303/60
f 1278/74 1279/35 1282/22
f 812/16 803/15 804/19
f 64/5 53/84 55/85
f 435/81 430/15 432/40
f 1243/98 1242/76 1241/99
f 1107/7 1103/8 1104/9
f 1093/26 1096/27 1095/28
f 1177/13 1179/7 1178/14
f 919/40 909/25 911/131
f 954/16 948/15 946/19
f 716/16 707/15 708/19
f 961/13 963/7 962/14
f 337/172 334/118 345/173
f 1274/47 1269/48 1273/49
f 1339/228 1314/64 1340/66
f 1243/228 1218/64 1244/66
f 1236/44 1216/45 1235/46
f 1220/223 1217/132 1216/224
f 41/72 29/39 45/73
f 1246/74 1247/35 1250/22
f 1238/70 1226/38 1222/71
f 1335/219 1317/37 1333/220
f 42/70 30/38 26/71
f 1298/61 1296/62 1300/63
f 1234/52 1224/53 1230/54
f 1280/221 1295/133 1299/222
f 1252/223 1249/132 1248/224
f 1218/64 1228/65 1244/66
f 1308/75 1290/38 1306/76
f 1220/225 1227/34 1213/36
f 39/226 33/116 37/227
f 1265/58 1255/59 1271/60
f 1241/50 1227/34 1243/51
f 1105/13 1107/7 1106/14
f 1237/184 1240/57 1239/185
f 254/15 248/16 246/17
f 653/120 667/121 668/108
f 937/25 930/40 929/24
f 1224/53 1229/116 1230/54
f 313/229 306/152 305/230
f 1185/13 1182/32 1181/33
f 1285/37 1288/56 1286/71
f 345/111 343/114 347/115
f 1041/13 1043/7 1042/14
f 1061/26 1064/27 1063/28
f 1306/47 1301/48 1305/49
f 46/47 41/48 45/49
f 1275/228 1250/64 1276/66
f 47/228 22/64 48/66
f 45/50 31/34 47/51
f 1298/52 1288/53 1294/54
f 330/231 211/232 1341/233
f 38/52 28/53 34/54
f 1266/61 1264/62 1268/63
f 1329/58 1319/59 1335/60
f 319/234 213/235 1362/236
f 1246/77 1264/62 1251/78
f 1252/225 1259/34 1245/36
f 1235/226 1229/116 1233/227
f 1284/225 1291/34 1277/36
f 1331/226 1325/116 1329/227
f 1333/72 1321/39 1337/73
f 330/231 1347/237 1358/169
f 1079/94 1081/13 1077/93
f 24/223 21/132 20/224
f 860/17 851/24 852/15
f 351/124 356/79 364/2
f 387/81 382/15 384/40
f 1379/238 1341/239 1380/240
f 889/18 882/19 881/20
f 359/117 350/118 352/119
f 985/13 987/7 986/14
f 682/110 679/191 680/128
f 1301/184 1304/57 1303/185
f 1323/34 1322/38 1324/65
f 1293/116 1296/62 1294/54
f 1261/116 1264/62 1262/54
f 504/40 506/82 502/15
f 1307/228 1282/64 1308/66
f 40/44 20/45 39/46
f 1272/41 1265/42 1271/43
f 1214/74 1215/35 1218/22
f 20/221 35/133 39/222
f 1284/223 1281/132 1280/224
f 1282/64 1292/65 1308/66
f 1239/219 1221/37 1237/220
f 1214/77 1232/62 1219/78
f 48/75 30/38 46/76
f 1270/70 1258/38 1254/71
f 1310/77 1328/62 1315/78
f 1270/55 1256/56 1272/57
f 1316/225 1323/34 1309/36
f 43/219 25/37 41/220
f 1278/77 1296/62 1283/78
f 1234/61 1232/62 1236/63
f 1233/58 1223/59 1239/60
f 1267/226 1261/116 1265/227
f 1163/7 1164/92 1159/8
f 1193/13 1194/14 1190/32
f 254/15 256/19 248/16
f 1105/13 1106/14 1102/32
f 305/186 300/241 308/187
f 312/160 315/217 308/161
f 1233/105 1234/61 1236/63
f 709/17 710/25 702/24
f 13/173 1/90 5/172
f 5/172 14/242 10/243
f 10/243 6/80 2/118
f 2/118 9/244 13/173
f 271/24 269/15 261/17
f 444/89 443/81 440/40
f 1124/92 1121/13 1117/93
f 1060/92 1057/13 1053/93
f 173/13 176/92 175/7
f 1288/53 1287/59 1293/116
f 805/15 806/19 798/16
f 1243/228 1220/245 1218/64
f 1170/14 1171/7 1168/27
f 1201/13 1204/92 1203/7
f 546/82 545/246 541/83
f 1210/14 1211/7 1208/27
f 75/94 80/92 77/13
f 1089/13 1090/14 1086/32
f 1057/13 1058/14 1054/32
f 1051/7 1052/92 1047/8
f 109/13 112/92 111/7
f 1376/247 1353/248 1388/249
f 28/53 27/59 33/116
f 1378/250 1371/251 1375/252
f 1189/26 1190/91 1192/27
f 218/253 1348/254 1370/255
f 200/10 199/104 197/11
f 317/67 1369/156 216/68
f 128/89 127/81 124/40
f 348/5 346/256 337/84
f 1377/257 1374/258 1376/247
f 632/40 635/81 634/82
f 1355/259 1388/249 211/260
f 692/10 691/104 689/11
f 1380/240 211/261 1388/262
f 241/25 242/131 234/40
f 1370/255 1359/263 1377/257
f 1276/75 1260/65 1258/38
f 183/81 182/82 178/15
f 555/81 554/82 550/15
f 1336/41 1330/52 1329/42
f 388/89 387/81 384/40
f 1081/13 1084/92 1083/7
f 773/17 774/25 766/24
f 1313/132 1309/36 1311/35
f 64/2 55/123 51/124
f 51/124 63/149 59/147
f 59/147 52/119 56/79
f 56/79 60/146 64/2
f 568/40 571/81 570/82
f 61/173 49/90 53/172
f 53/172 62/242 58/243
f 58/243 54/80 50/118
f 50/118 57/244 61/173
f 1162/14 1163/7 1160/27
f 1021/26 1022/91 1024/27
f 627/81 626/82 622/15
f 421/88 425/107 428/89
f 1275/228 1252/245 1250/64
f 1365/69 214/183 320/157
f 983/94 988/92 985/13
f 1074/14 1075/7 1072/27
f 949/24 950/15 942/17
f 961/13 964/92 963/7
f 1050/14 1051/7 1048/27
f 1304/41 1298/52 1297/42
f 44/41 38/52 37/42
f 812/16 811/17 803/15
f 1191/94 1196/92 1193/13
f 1298/61 1294/54 1296/62
f 1172/92 1169/13 1165/93
f 1280/221 1281/132 1295/133
f 1241/50 1225/39 1227/34
f 1138/14 1139/7 1136/27
f 1357/140 332/264 328/141
f 587/81 586/82 582/15
f 517/88 521/107 524/89
f 1314/64 1311/35 1324/65
f 269/15 270/19 262/16
f 1269/72 1253/37 1257/39
f 728/19 727/20 719/18
f 1059/7 1060/92 1055/8
f 413/88 417/107 420/89
f 1248/221 1249/132 1263/133
f 151/81 150/82 146/15
f 259/25 257/131 249/40
f 38/61 34/54 36/62
f 337/172 342/243 334/118
f 1031/94 1036/92 1033/13
f 1278/74 1283/78 1279/35
f 1246/74 1251/78 1247/35
f 669/120 670/123 683/121
f 1177/13 1178/14 1174/32
f 977/13 978/14 974/32
f 921/18 922/16 914/19
f 1274/47 1270/70 1269/48
f 1285/37 1286/71 1290/38
f 1346/218 218/265 212/170
f 1063/94 1068/92 1065/13
f 18/74 23/78 19/35
f 467/81 466/82 462/15
f 1299/226 1295/133 1293/116
f 1197/26 1198/91 1200/27
f 97/26 98/91 100/27
f 1281/132 1277/36 1279/35
f 1035/7 1036/92 1031/8
f 825/18 826/16 818/19
f 653/120 654/123 667/121
f 1011/7 1012/92 1007/8
f 637/120 638/123 651/121
f 774/25 776/131 768/40
f 642/12 641/11 639/86
f 1301/72 1285/37 1289/39
f 1017/13 1020/92 1019/7
f 811/17 809/25 801/24
f 1185/13 1186/14 1182/32
f 1333/184 1334/55 1336/57
f 1335/219 1319/266 1317/37
f 668/108 667/121 665/109
f 22/64 19/35 32/65
f 747/17 745/25 737/24
f 776/18 775/16 767/19
f 51/124 59/147 56/79
f 778/18 780/16 772/19
f 353/172 358/243 350/118
f 619/81 618/82 614/15
f 202/103 201/267 199/104
f 96/89 95/81 92/40
f 403/81 402/82 398/15
f 600/40 603/81 602/82
f 957/26 958/91 960/27
f 626/82 625/246 621/83
f 1018/14 1019/7 1016/27
f 875/17 873/25 865/24
f 1307/98 1308/75 1306/76
f 1049/13 1050/14 1046/32
f 918/15 920/19 912/16
f 142/14 143/7 140/27
f 89/88 93/107 96/89
f 937/25 938/131 930/40
f 107/94 112/92 109/13
f 1009/13 1010/14 1006/32
f 763/25 761/131 753/40
f 1346/268 1348/269 218/264
f 1300/44 1278/77 1280/45
f 1352/270 1387/207 1351/271
f 217/272 1352/270 1345/176
f 319/234 1361/159 213/235
f 442/82 441/246 437/83
f 541/88 545/107 548/89
f 1229/116 1231/133 1232/62
f 742/19 744/20 736/18
f 729/18 730/16 722/19
f 1370/255 1384/125 1359/263
f 219/273 1370/255 1348/254
f 302/204 301/163 295/205
f 41/184 42/55 44/57
f 1066/14 1067/7 1064/27
f 731/25 729/131 721/40
f 556/89 555/81 552/40
f 1065/13 1068/92 1067/7
f 394/82 393/246 389/83
f 1109/26 1110/91 1112/27
f 656/87 655/86 654/123
f 395/81 394/82 390/15
f 1143/94 1148/92 1145/13
f 410/82 409/246 405/83
f 725/24 726/15 718/17
f 1121/13 1122/14 1118/32
f 538/82 537/246 533/83
f 965/26 966/91 968/27
f 1238/70 1242/47 1226/38
f 1202/14 1203/7 1200/27
f 1145/13 1146/14 1142/32
f 1344/102 322/101 318/192
f 1316/223 1309/36 1313/132
f 892/17 891/25 883/24
f 459/81 458/82 454/15
f 315/217 316/199 307/200
f 1281/132 1283/78 1296/62
f 255/40 253/24 245/25
f 1249/132 1245/36 1247/35
f 789/24 790/15 782/17
f 1111/94 1116/92 1113/13
f 135/7 136/92 131/8
f 744/40 743/24 735/25
f 532/89 531/81 528/40
f 1221/37 1223/266 1224/56
f 1329/105 1330/61 1332/63
f 439/90 437/88 441/107
f 493/88 497/107 500/89
f 1015/94 1020/92 1017/13
f 516/89 515/81 512/40
f 81/88 85/107 88/89
f 65/26 66/91 68/27
f 273/25 274/131 266/40
f 572/89 571/81 568/40
f 746/18 748/16 740/19
f 1105/13 1108/92 1107/7
f 136/92 133/13 129/93
f 923/25 921/131 913/40
f 297/188 298/198 305/186
f 305/186 306/205 300/241
f 300/241 299/274 308/187
f 308/187 307/275 297/188
f 1173/26 1174/91 1176/27
f 1017/13 1018/14 1014/32
f 952/19 951/20 943/18
f 685/120 686/123 699/121
f 61/111 57/276 59/114
f 196/87 195/86 194/123
f 1153/13 1156/92 1155/7
f 39/226 35/133 33/116
f 1253/37 1255/266 1256/56
f 377/111 373/276 375/114
f 1369/156 1363/277 318/155
f 1361/159 1367/278 320/157
f 1362/279 1382/280 215/281
f 1265/58 1261/116 1255/59
f 1123/7 1124/92 1119/8
f 358/4 360/6 356/79
f 402/82 401/246 397/83
f 525/88 529/107 532/89
f 238/25 240/131 232/40
f 1028/92 1025/13 1021/93
f 935/24 933/15 925/17
f 1350/168 1357/282 331/166
f 294/1 12/146 16/2
f 329/283 1358/169 1347/237
f 161/26 162/91 164/27
f 1259/34 1257/39 1258/38
f 581/88 585/107 588/89
f 1291/34 1292/65 1279/35
f 418/82 417/246 413/83
f 652/108 651/121 649/109
f 540/89 539/81 536/40
f 1194/14 1195/7 1192/27
f 580/89 579/81 576/40
f 348/2 339/123 335/124
f 335/124 347/149 343/147
f 343/147 336/119 340/79
f 340/79 344/146 348/2
f 31/34 32/65 19/35
f 345/173 333/90 337/172
f 337/172 346/242 342/243
f 342/243 338/80 334/118
f 334/118 341/244 345/173
f 1275/98 1276/75 1274/76
f 204/128 203/191 201/129
f 1161/13 1162/14 1158/32
f 167/7 168/92 163/8
f 187/90 185/88 189/107
f 509/88 513/107 516/89
f 859/25 857/131 849/40
f 244/16 243/17 235/15
f 1354/182 220/284 214/183
f 364/2 355/123 351/124
f 351/124 363/149 359/147
f 359/147 352/119 356/79
f 356/79 360/146 364/2
f 962/14 963/7 960/27
f 361/173 349/90 353/172
f 353/172 362/242 358/243
f 358/243 354/80 350/118
f 350/118 357/244 361/173
f 334/118 338/80 340/79
f 94/82 93/246 89/83
f 522/82 521/246 517/83
f 1026/14 1027/7 1024/27
f 1248/21 1246/74 1250/22
f 674/12 673/11 671/86
f 936/40 935/24 927/25
f 310/196 313/285 305/197
f 1217/132 1219/78 1232/62
f 380/2 371/123 367/124
f 367/124 379/149 375/147
f 375/147 368/119 372/79
f 372/79 376/146 380/2
f 103/7 104/92 99/8
f 377/173 365/90 369/172
f 369/172 378/242 374/243
f 374/243 370/80 366/118
f 366/118 373/244 377/173
f 304/179 303/137 294/180
f 1042/14 1043/7 1040/27
f 1203/7 1204/92 1199/8
f 1061/26 1062/91 1064/27
f 101/13 102/14 98/32
f 253/24 254/15 246/17
f 1306/47 1302/70 1301/48
f 1139/7 1140/92 1135/8
f 275/17 273/25 265/24
f 367/124 375/147 372/79
f 745/25 746/131 738/40
f 419/81 418/82 414/15
f 640/87 639/86 638/123
f 933/15 934/19 926/16
f 628/89 627/81 624/40
f 631/90 629/88 633/107
f 165/13 168/92 167/7
f 225/201 228/134 224/202
f 133/13 134/14 130/32
f 570/82 569/246 565/83
f 660/10 659/104 657/11
f 602/82 601/246 597/83
f 711/16 709/17 701/15
f 272/40 271/24 263/25
f 303/137 302/204 293/138
f 16/5 14/256 5/84
f 342/4 346/256 348/5
f 1169/13 1170/14 1166/32
f 953/18 954/16 946/19
f 105/26 106/91 108/27
f 492/89 491/81 488/40
f 295/122 296/3 7/123
f 1013/26 1014/91 1016/27
f 369/84 365/113 367/112
f 332/174 329/286 325/175
f 824/19 823/20 815/18
f 1169/13 1172/92 1171/7
f 69/13 72/92 71/7
f 461/88 465/107 468/89
f 160/89 159/81 156/40
f 876/16 875/17 867/15
f 316/199 309/215 297/188
f 381/88 385/107 388/89
f 688/87 687/86 686/123
f 839/16 837/17 829/15
f 844/16 843/17 835/15
f 453/88 457/107 460/89
f 1340/75 1324/65 1322/38
f 1305/50 1289/39 1291/34
f 322/101 323/287 319/194
f 295/122 15/149 11/147
f 1325/116 1327/133 1328/62
f 1227/34 1225/39 1226/38
f 680/128 679/191 677/129
f 408/40 411/81 410/82
f 951/40 949/24 941/25
f 190/82 189/246 185/83
f 145/88 149/107 152/89
f 1334/55 1318/71 1320/56
f 1113/13 1114/14 1110/32
f 404/89 403/81 400/40
f 857/18 858/16 850/19
f 484/89 483/81 480/40
f 950/15 952/19 944/16
f 335/124 343/147 340/79
f 1073/13 1074/14 1070/32
f 59/117 57/98 50/118
f 840/18 839/16 831/19
f 971/7 972/92 967/8
f 989/26 990/91 992/27
f 377/111 379/115 367/112
f 171/94 176/92 173/13
f 777/25 778/131 770/40
f 979/7 980/92 975/8
f 301/163 304/179 296/164
f 596/89 595/81 592/40
f 331/166 209/288 1342/167
f 761/18 762/16 754/19
f 1330/61 1326/54 1328/62
f 153/88 157/107 160/89
f 450/82 449/246 445/83
f 506/82 505/246 501/83
f 350/118 354/80 356/79
f 1269/184 1270/55 1272/57
f 1345/176 220/289 1354/177
f 806/19 808/20 800/18
f 636/89 635/81 632/40
f 1043/7 1044/92 1039/8
f 985/13 986/14 982/32
f 807/24 805/15 797/17
f 727/40 725/24 717/25
f 573/88 577/107 580/89
f 285/24 286/15 278/17
f 1057/13 1060/92 1059/7
f 458/82 457/246 453/83
f 648/128 647/191 645/129
f 710/25 712/131 704/40
f 1117/26 1118/91 1120/27
f 1356/100 324/209 320/153
f 1165/26 1166/91 1168/27
f 328/141 325/175 1364/31
f 342/4 344/6 340/79
f 1129/13 1130/14 1126/32
f 1033/13 1034/14 1030/32
f 1025/13 1028/92 1027/7
f 1145/13 1148/92 1147/7
f 141/13 142/14 138/32
f 258/16 260/17 252/15
f 426/82 425/246 421/83
f 578/82 577/246 573/83
f 434/82 433/246 429/83
f 903/16 901/17 893/15
f 1041/13 1042/14 1038/32
f 854/15 856/19 848/16
f 676/10 675/104 673/11
f 1083/7 1084/92 1079/8
f 228/134 225/201 226/143
f 843/17 841/25 833/24
f 530/82 529/246 525/83
f 1193/13 1196/92 1195/7
f 672/87 671/86 670/123
f 885/24 886/15 878/17
f 1149/26 1150/91 1152/27
f 808/40 807/24 799/25
f 314/150 311/216 300/151
f 95/81 94/82 90/15
f 427/81 426/82 422/15
f 1384/125 216/68 1366/126
f 380/5 378/256 369/84
f 514/82 513/246 509/83
f 890/16 892/17 884/15
f 499/81 498/82 494/15
f 174/14 175/7 172/27
f 1256/53 1255/59 1261/116
f 64/5 62/256 53/84
f 1001/13 1004/92 1003/7
f 917/24 918/15 910/17
f 987/7 988/92 983/8
f 1161/13 1164/92 1163/7
f 567/90 565/88 569/107
f 20/21 18/74 22/22
f 240/18 239/16 231/19
f 485/88 489/107 492/89
f 743/24 741/15 733/17
f 1077/26 1078/91 1080/27
f 1181/26 1182/91 1184/27
f 87/81 86/82 82/15
f 429/88 433/107 436/89
f 1058/14 1059/7 1056/27
f 1081/13 1082/14 1078/32
f 1093/26 1094/91 1096/27
f 764/17 763/25 755/24
f 961/13 962/14 958/32
f 995/7 996/92 991/8
f 318/155 215/290 1366/126
f 605/88 609/107 612/89
f 1129/13 1132/92 1131/7
f 226/143 225/201 223/144
f 460/89 459/81 456/40
f 1312/221 1313/132 1327/133
f 361/111 363/115 351/112
f 102/14 103/7 100/27
f 320/157 214/183 1360/158
f 1308/75 1292/65 1290/38
f 690/12 689/11 687/86
f 612/89 611/81 608/40
f 970/14 971/7 968/27
f 564/89 563/81 560/40
f 1349/214 212/170 329/283
f 790/15 792/19 784/16
f 562/82 561/246 557/83
f 50/118 54/80 56/79
f 1121/13 1124/92 1123/7
f 1339/98 1340/75 1338/76
f 716/16 715/17 707/15
f 1242/47 1238/70 1237/48
f 1207/94 1212/92 1209/13
f 1053/26 1054/91 1056/27
f 1238/55 1222/71 1224/56
f 86/82 85/246 81/83
f 823/40 821/24 813/25
f 358/4 362/256 364/5
f 242/18 244/16 236/19
f 53/84 49/113 51/112
f 260/17 259/25 251/24
f 1125/26 1126/91 1128/27
f 837/17 838/25 830/24
f 1218/64 1215/35 1228/65
f 77/13 78/14 74/32
f 999/94 1004/92 1001/13
f 795/25 793/131 785/40
f 1131/7 1132/92 1127/8
f 678/103 677/267 675/104
f 109/13 110/14 106/32
f 182/82 181/246 177/83
f 650/110 649/109 647/191
f 726/15 728/19 720/16
f 173/13 174/14 170/32
f 1069/26 1070/91 1072/27
f 1113/13 1116/92 1115/7
f 70/14 71/7 68/27
f 698/110 697/109 695/191
f 286/15 288/19 280/16
f 1179/7 1180/92 1175/8
f 1019/7 1020/92 1015/8
f 969/13 970/14 966/32
f 554/82 553/246 549/83
f 1146/14 1147/7 1144/27
f 1237/72 1221/37 1225/39
f 104/92 101/13 97/93
f 1280/21 1278/74 1282/22
f 25/37 27/266 28/56
f 1221/37 1222/71 1226/38
f 61/111 63/115 51/112
f 5/84 1/113 3/112
f 870/19 872/20 864/18
f 303/137 304/179 301/163
f 969/13 972/92 971/7
f 374/4 378/256 380/5
f 646/103 645/267 643/104
f 906/18 908/16 900/19
f 1265/105 1266/61 1268/63
f 452/89 451/81 448/40
f 1153/13 1154/14 1150/32
f 1027/7 1028/92 1023/8
f 1171/7 1172/92 1167/8
f 375/117 373/98 366/118
f 994/14 995/7 992/27
f 712/18 711/16 703/19
f 270/19 272/20 264/18
f 1216/21 1214/74 1218/22
f 2/118 6/80 8/79
f 119/81 118/82 114/15
f 779/17 777/25 769/24
f 451/81 450/82 446/15
f 396/89 395/81 392/40
f 1147/7 1148/92 1143/8
f 1049/13 1052/92 1051/7
f 41/72 25/37 29/39
f 158/82 157/246 153/83
f 1243/98 1244/75 1242/76
f 292/17 291/25 283/24
f 256/19 255/20 247/18
f 531/81 530/82 526/15
f 53/172 58/243 50/118
f 237/17 238/25 230/24
f 289/18 290/16 282/19
f 1037/26 1038/91 1040/27
f 309/215 310/196 298/198
f 713/25 714/131 706/40
f 549/88 553/107 556/89
f 1090/14 1091/7 1088/27
f 1216/221 1217/132 1231/133
f 188/40 191/81 190/82
f 471/90 469/88 473/107
f 1220/225 1243/291 1227/34
f 664/128 663/191 661/129
f 973/26 974/91 976/27
f 810/18 812/16 804/19
f 730/16 732/17 724/15
f 780/16 779/17 771/15
f 796/17 795/25 787/24
f 732/17 731/25 723/24
f 907/17 905/25 897/24
f 31/34 29/39 30/38
f 842/18 844/16 836/19
f 474/82 473/246 469/83
f 1089/13 1092/92 1091/7
f 858/16 860/17 852/15
f 1073/13 1076/92 1075/7
f 42/70 46/47 30/38
f 1137/13 1138/14 1134/32
f 58/4 62/256 64/5
f 1209/13 1210/14 1206/32
f 468/89 467/81 464/40
f 78/14 79/7 76/27
f 169/26 170/91 172/27
f 274/18 276/16 268/19
f 1003/7 1004/92 999/8
f 1085/26 1086/91 1088/27
f 963/7 964/92 959/8
f 822/15 824/19 816/16
f 620/89 619/81 616/40
f 762/16 764/17 756/15
f 113/88 117/107 120/89
f 563/81 562/82 558/15
f 934/19 936/20 928/18
f 993/13 996/92 995/7
f 472/40 475/81 474/82
f 1107/7 1108/92 1103/8
f 139/94 144/92 141/13
f 955/25 953/131 945/40
f 696/128 695/191 693/129
f 111/7 112/92 107/8
f 828/17 827/25 819/24
f 954/16 956/17 948/15
f 1317/37 1319/266 1320/56
f 1252/223 1245/36 1249/132
f 276/16 275/17 267/15
f 73/26 74/91 76/27
f 1332/44 1310/77 1312/45
f 1220/223 1213/36 1217/132
f 110/14 111/7 108/27
f 589/88 593/107 596/89
f 1065/13 1066/14 1062/32
f 1302/70 1306/47 1290/38
f 227/95 226/143 221/96
f 313/229 314/150 306/152
f 1317/37 1318/71 1322/38
f 361/111 357/276 359/114
f 483/81 482/82 478/15
f 938/18 940/16 932/19
f 1137/13 1140/92 1139/7
f 1271/219 1255/266 1253/37
f 1033/13 1036/92 1035/7
f 389/88 393/107 396/89
f 741/15 742/19 734/16
f 386/82 385/246 381/83
f 658/12 657/11 655/86
f 1303/219 1287/266 1285/37
f 792/19 791/20 783/18
f 508/89 507/81 504/40
f 1297/105 1298/61 1300/63
f 644/10 643/104 641/11
f 758/15 760/19 752/16
f 24/225 47/291 31/34
f 791/40 789/24 781/25
f 477/88 481/107 484/89
f 715/17 713/25 705/24
f 1334/70 1338/47 1322/38
f 126/82 125/246 121/83
f 1240/41 1234/52 1233/42
f 5/172 10/243 2/118
f 476/89 475/81 472/40
f 939/17 937/25 929/24
f 257/18 258/16 250/19
f 143/7 144/92 139/8
f 1097/13 1098/14 1094/32
f 1106/14 1107/7 1104/27
f 666/110 665/109 663/191
f 967/94 972/92 969/13
f 1156/92 1153/13 1149/93
f 1259/34 1260/65 1247/35
f 757/24 758/15 750/17
f 611/81 610/82 606/15
f 1237/184 1238/55 1240/57
f 547/81 546/82 542/15
f 1337/50 1321/39 1323/34
f 1227/34 1228/65 1215/35
f 1268/44 1246/77 1248/45
f 841/25 842/131 834/40
f 613/88 617/107 620/89
f 902/25 904/131 896/40
f 364/5 362/256 353/84
f 1356/100 323/287 322/101
f 1330/52 1336/41 1320/53
f 166/14 167/7 164/27
f 599/90 597/88 601/107
f 905/25 906/131 898/40
f 1266/52 1272/41 1256/53
f 165/13 166/14 162/32
f 1285/37 1287/266 1288/56
f 435/81 434/82 430/15
f 397/88 401/107 404/89
f 490/82 489/246 485/83
f 1244/75 1228/65 1226/38
f 920/19 919/20 911/18
f 69/13 70/14 66/32
f 1387/207 210/213 1342/167
f 1224/53 1223/59 1229/116
f 163/94 168/92 165/13
f 853/24 854/15 846/17
f 1097/13 1100/92 1099/7
f 353/84 349/113 351/112
f 175/7 176/92 171/8
f 445/88 449/107 452/89
f 88/89 87/81 84/40
f 1323/34 1324/65 1311/35
f 120/89 119/81 116/40
f 1099/7 1100/92 1095/8
f 1101/26 1102/91 1104/27
f 428/89 427/81 424/40
f 491/81 490/82 486/15
f 997/26 998/91 1000/27
f 978/14 979/7 976/27
f 13/111 15/115 3/112
f 184/89 183/81 180/40
f 634/82 633/246 629/83
f 996/92 993/13 989/93
f 47/98 48/75 46/76
f 594/82 593/246 589/83
f 1133/26 1134/91 1136/27
f 980/92 977/13 973/93
f 345/111 341/276 343/114
f 548/89 547/81 544/40
f 1338/47 1334/70 1333/48
f 1250/64 1247/35 1260/65
f 1195/7 1196/92 1191/8
f 137/26 138/91 140/27
f 1217/132 1213/36 1215/35
f 1157/26 1158/91 1160/27
f 42/55 26/71 28/56
f 177/88 181/107 184/89
f 129/26 130/91 132/27
f 21/132 17/36 19/35
f 330/189 331/292 327/190
f 871/24 869/15 861/17
f 1302/55 1286/71 1288/56
f 1253/37 1254/71 1258/38
f 977/13 980/92 979/7
f 1025/13 1026/14 1022/32
f 595/81 594/82 590/15
f 1236/44 1214/77 1216/45
f 198/12 197/11 195/86
f 18/77 40/44 36/62
f 1178/14 1179/7 1176/27
f 1115/7 1116/92 1111/8
f 466/82 465/246 461/83
f 515/81 514/82 510/15
f 101/13 104/92 103/7
f 10/4 14/256 16/5
f 1071/94 1076/92 1073/13
f 1091/7 1092/92 1087/8
f 775/16 773/17 765/15
f 588/89 587/81 584/40
f 374/4 376/6 372/79
f 536/40 539/81 538/82
f 1092/92 1089/13 1085/93
f 1034/14 1035/7 1032/27
f 420/89 419/81 416/40
f 618/82 617/246 613/83
f 58/4 60/6 56/79
f 809/25 810/131 802/40
f 311/216 312/160 299/162
f 1047/94 1052/92 1049/13
f 503/90 501/88 505/107
f 557/88 561/107 564/89
f 1095/94 1100/92 1097/13
f 320/157 317/67 1365/69
f 1155/7 1156/92 1151/8
f 324/209 321/293 317/210
f 369/172 374/243 366/118
f 440/40 443/81 442/82
f 37/58 33/116 27/59
f 1347/29 330/294 326/30
f 1082/14 1083/7 1080/27
f 1075/7 1076/92 1071/8
f 500/89 499/81 496/40
f 407/90 405/88 409/107
f 1209/13 1212/92 1211/7
f 1098/14 1099/7 1096/27
f 72/92 69/13 65/93
f 1199/94 1204/92 1201/13
f 412/89 411/81 408/40
f 586/82 585/246 581/83
f 1205/26 1206/91 1208/27
f 940/16 939/17 931/15
f 1141/26 1142/91 1144/27
f 1313/132 1315/78 1328/62
f 827/25 825/131 817/40
f 1273/50 1257/39 1259/34
f 1201/13 1202/14 1198/32
f 908/16 907/17 899/15
f 1249/132 1251/78 1264/62
f 838/25 840/131 832/40
f 891/25 889/131 881/40
f 855/40 853/24 845/25
f 239/16 237/17 229/15
f 1312/21 1310/74 1314/22
f 1041/13 1044/92 1043/7
f 888/19 887/20 879/18
f 436/89 435/81 432/40
f 1234/52 1240/41 1224/53
f 77/13 80/92 79/7
f 1310/74 1315/78 1311/35
f 288/19 287/20 279/18
f 1045/26 1046/91 1048/27
f 47/228 24/245 22/64
f 159/81 158/82 154/15
f 1007/94 1012/92 1009/13
f 37/105 38/61 40/63
f 134/14 135/7 132/27
f 874/18 876/16 868/19
f 1339/228 1316/245 1314/64
f 11/117 9/98 2/118
f 869/15 870/19 862/16
f 498/82 497/246 493/83
f 25/37 26/71 30/38
f 760/19 759/20 751/18
f 793/18 794/16 786/19
f 901/17 902/25 894/24
f 684/108 683/121 681/109
f 887/40 885/24 877/25
f 873/25 874/131 866/40
f 290/16 292/17 284/15
f 228/134 227/95 222/135
f 482/82 481/246 477/83
f 1360/158 1378/250 213/235
f 523/81 522/82 518/15
f 1352/270 1351/271 1381/295
f 345/111 347/115 335/112
f 1351/271 1383/208 1372/296
f 1135/94 1140/92 1137/13
f 331/297 1368/142 327/190
f 1002/14 1003/7 1000/27
f 986/14 987/7 984/27
f 1383/208 209/288 1379/238
f 124/40 127/81 126/82
f 1381/295 1372/296 1386/298
f 1010/14 1011/7 1008/27
f 329/299 1364/31 325/175
f 694/103 693/267 691/104
f 212/300 1376/247 1355/259
f 1154/14 1155/7 1152/27
f 206/110 205/109 203/191
f 579/81 578/82 574/15
f 33/116 35/133 36/62
f 826/16 828/17 820/15
f 150/82 149/246 145/83
f 1188/92 1185/13 1181/93
f 922/16 924/17 916/15
f 904/18 903/16 895/19
f 329/283 332/212 1349/214
f 1127/94 1132/92 1129/13
f 759/40 757/24 749/25
f 21/132 23/78 36/62
f 794/16 796/17 788/15
f 118/82 117/246 113/83
f 924/17 923/25 915/24
f 1368/142 326/30 327/190
f 343/117 341/98 334/118
f 323/287 1367/154 319/301
f 981/26 982/91 984/27
f 216/68 1369/156 1366/126
f 1001/13 1002/14 998/32
f 1372/296 1379/238 1343/302
f 13/111 9/276 11/114
f 1291/34 1289/39 1290/38
f 210/213 1350/168 1342/167
f 1122/14 1123/7 1120/27
f 330/231 1355/171 211/232
f 193/120 194/123 207/121
f 324/209 1344/102 321/293
f 856/19 855/20 847/18
f 1374/258 1382/303 1353/248
f 821/24 822/15 814/17
f 964/92 961/13 957/93
f 337/84 333/113 335/112
f 610/82 609/246 605/83
f 535/90 533/88 537/107
f 621/88 625/107 628/89
f 366/118 370/80 372/79
f 1297/58 1293/116 1287/59
f 1044/92 1041/13 1037/93
f 1320/53 1319/59 1325/116
f 1175/94 1180/92 1177/13
f 872/40 871/24 863/25
f 294/1 293/148 4/119
f 1009/13 1012/92 1011/7
f 956/17 955/25 947/24
f 287/40 285/24 277/25
f 1375/252 1353/304 1382/280
f 152/89 151/81 148/40
f 217/272 1373/178 1346/268
f 208/108 207/121 205/109
f 1371/251 1388/262 1353/304
f 1029/26 1030/91 1032/27
f 214/183 1386/298 1360/158
f 192/89 191/81 188/40
f 291/25 289/131 281/40
f 1386/298 1343/302 1378/250
f 748/16 747/17 739/15
f 219/305 1365/69 216/68
f 79/7 80/92 75/8
f 332/212 1350/168 210/213
f 993/13 994/14 990/32
f 1343/302 1380/240 1371/251
f 714/18 716/16 708/19
f 1067/7 1068/92 1063/8
f 46/47 42/70 41/48
f 886/15 888/19 880/16
f 604/89 603/81 600/40
f 524/89 523/81 520/40
f 1187/7 1188/92 1183/8
f 1177/13 1180/92 1179/7
f 1114/14 1115/7 1112/27
f 919/40 917/24 909/25
f 1186/14 1187/7 1184/27
f 1185/13 1188/92 1187/7
f 141/13 144/92 143/7
f 133/13 136/92 135/7
f 10/4 12/6 8/79
f 71/7 72/92 67/8
f 1359/263 1385/127 1374/258
f 123/90 121/88 125/107
f 1373/178 219/153 1348/269
f 700/108 699/121 697/109
f 213/235 1375/252 1362/279
f 1005/26 1006/91 1008/27
f 217/306 1349/214 210/213
f 1108/92 1105/13 1101/93
f 243/17 241/25 233/24
f 321/293 1363/193 317/307
f 1130/14 1131/7 1128/27
f 220/289 1345/176 1352/270
f 662/103 661/267 659/104
f 1385/127 215/290 1382/303
f 1159/94 1164/92 1161/13
f 213/235 1361/159 1360/158
f 1211/7 1207/8 1208/9
f 45/50 29/39 31/34
f 1298/52 1304/41 1288/53
f 1341/233 209/288 331/166
f 331/166 330/231 1341/233
f 38/52 44/41 28/53
f 1266/61 1262/54 1264/62
f 1329/58 1325/116 1319/59
f 1362/236 215/290 318/155
f 318/155 319/234 1362/236
f 1246/77 1268/44 1264/62
f 1252/225 1275/291 1259/34
f 1235/226 1231/133 1229/116
f 1284/225 1307/291 1291/34
f 1331/226 1327/133 1325/116
f 1333/72 1317/37 1321/39
f 1079/94 1084/92 1081/13
f 24/223 17/36 21/132
f 860/17 859/25 851/24
f 351/124 359/147 356/79
f 387/81 386/82 382/15
f 1379/238 209/288 1341/239
f 889/18 890/16 882/19
f 359/117 357/98 350/118
f 985/13 988/92 987/7
f 682/110 681/109 679/191
f 1301/184 1302/55 1304/57
f 1323/34 1321/39 1322/38
f 1293/116 1295/133 1296/62
f 1261/116 1263/133 1264/62
f 504/40 507/81 506/82
f 1307/228 1284/245 1282/64
f 40/44 18/77 20/45
f 1272/41 1266/52 1265/42
f 1214/74 1219/78 1215/35
f 20/221 21/132 35/133
f 1284/223 1277/36 1281/132
f 1282/64 1279/35 1292/65
f 1239/219 1223/266 1221/37
f 1214/77 1236/44 1232/62
f 48/75 32/65 30/38
f 1270/70 1274/47 1258/38
f 1310/77 1332/44 1328/62
f 1270/55 1254/71 1256/56
f 1316/225 1339/291 1323/34
f 43/219 27/266 25/37
f 1278/77 1300/44 1296/62
f 1234/61 1230/54 1232/62
f 1233/58 1229/116 1223/59
f 1267/226 1263/133 1261/116
f 1376/247 1374/258 1353/248
f 1378/250 1343/302 1371/251
f 317/67 1363/277 1369/156
f 1377/257 1359/263 1374/258
f 1355/259 1376/247 1388/249
f 1380/240 1341/239 211/261
f 1377/257 212/300 218/253
f 218/253 1370/255 1377/257
f 1346/268 1373/178 1348/269
f 1352/270 210/213 1387/207
f 217/272 210/213 1352/270
f 319/234 1367/278 1361/159
f 1370/255 216/68 1384/125
f 219/273 216/68 1370/255
f 1362/279 1375/252 1382/280
f 329/283 212/170 1358/169
f 1360/158 1386/298 1378/250
f 1381/295 214/183 220/289
f 220/289 1352/270 1381/295
f 1351/271 1387/207 1383/208
f 331/297 1357/140 1368/142
f 1383/208 1342/167 209/288
f 1381/295 1351/271 1372/296
f 329/299 1347/29 1364/31
f 212/300 1377/257 1376/247
f 1368/142 1364/31 326/30
f 323/287 1356/100 1367/154
f 1372/296 1383/208 1379/238
f 330/231 1358/169 1355/171
f 324/209 1356/100 1344/102
f 1374/258 1385/127 1382/303
f 1375/252 1371/251 1353/304
f 217/272 1345/176 1373/178
f 1371/251 1380/240 1388/262
f 214/183 1381/295 1386/298
f 1386/298 1372/296 1343/302
f 219/305 1354/182 1365/69
f 332/212 1357/282 1350/168
f 1343/302 1379/238 1380/240
f 1359/263 1384/125 1385/127
f 1373/178 1354/177 219/153
f 213/235 1378/250 1375/252
f 217/306 1346/218 1349/214
f 321/293 1344/102 1363/193
f 1385/127 1366/126 215/290
f 1211/7 1212/92 1207/8
