o Cube_Cube.001
v -1.5 0 1.5
v -0.5 0.0625 0.5
v -1.5 -0 -1.5
v 1.5 0 1.5
v 0.5 0.0625 0.5
v 1.5 -0 -1.5
v 0.5 0.0625 -0.5
v -0.5 0.9375 0.5
v -0.5 1 0.5
v -0.5 0.9375 -0.5
v -0.5 1 -0.5
v 0.5 0.9375 0.5
v 0.5 1 0.5
v 0.5 0.9375 -0.5
v 0.5 1 -0.5
v -1.5 0.0625 1.5
v -1.5 0.0625 -1.5
v 1.5 0.0625 -1.5
v 1.5 0.0625 1.5
v -1.5 0.9375 -1.5
v -1.5 0.9375 1.5
v 1.5 0.9375 -1.5
v 1.5 0.9375 1.5
v -0.5 0.0625 -0.5
v -1.5 1 1.5
v -1.5 1 -1.5
v 1.5 1 -1.5
v 1.5 1 1.5
v -0.4375 0.9375 0.4375
v -0.4375 0.9375 -0.4375
v 0.4375 0.9375 -0.4375
v 0.4375 0.9375 0.4375
v -0.5 0.9375 0.5
v -0.5 0.9375 -0.5
v 0.5 0.9375 -0.5
v 0.5 0.9375 0.5
v -0.4375 1 0.4375
v -0.4375 1 -0.4375
v 0.4375 1 -0.4375
v 0.4375 1 0.4375
v 0.5 0.2188 0.25
v 0.5 0.7188 0.25
v 0.5 0.2188 -0.25
v 0.5 0.7188 -0.25
v 1.25 0.2188 0.25
v 1.25 0.7188 0.25
v 1.25 0.2188 -0.25
v 1.25 0.7188 -0.25
v 0.5 0.2812 0.25
v 0.5 0.3438 0.25
v 0.5 0.4062 0.25
v 0.5 0.4688 0.25
v 0.5 0.5312 0.25
v 0.5 0.5938 0.25
v 0.5 0.6562 0.25
v 0.5 0.6562 -0.25
v 0.5 0.5938 -0.25
v 0.5 0.5312 -0.25
v 0.5 0.4688 -0.25
v 0.5 0.4062 -0.25
v 0.5 0.3438 -0.25
v 0.5 0.2812 -0.25
v 1.25 0.6562 -0.25
v 1.25 0.5938 -0.25
v 1.25 0.5312 -0.25
v 1.25 0.4688 -0.25
v 1.25 0.4062 -0.25
v 1.25 0.3438 -0.25
v 1.25 0.2812 -0.25
v 1.25 0.6562 0.25
v 1.25 0.5938 0.25
v 1.25 0.5312 0.25
v 1.25 0.4688 0.25
v 1.25 0.4062 0.25
v 1.25 0.3438 0.25
v 1.25 0.2812 0.25
v 0.5 0.7812 0.25
v 0.5 0.7812 -0.25
v 1.25 0.7812 -0.25
v 1.25 0.7812 0.25
v 1.5 0.2812 -0.25
v 1.5 0.2188 -0.25
v 1.5 0.2188 0.25
v 1.5 0.7188 -0.25
v 1.5 0.7188 0.25
v 1.5 0.2812 0.25
v 1.5 0.6562 -0.25
v 1.5 0.5938 -0.25
v 1.5 0.5312 -0.25
v 1.5 0.4688 -0.25
v 1.5 0.4062 -0.25
v 1.5 0.3438 -0.25
v 1.5 0.6562 0.25
v 1.5 0.5938 0.25
v 1.5 0.5312 0.25
v 1.5 0.4688 0.25
v 1.5 0.4062 0.25
v 1.5 0.3438 0.25
v 1.5 0.7812 -0.25
v 1.5 0.7812 0.25
v -0.5 0.2188 0.25
v -0.5 0.7188 0.25
v -0.5 0.2188 -0.25
v -0.5 0.7188 -0.25
v -1.25 0.2188 0.25
v -1.25 0.7188 0.25
v -1.25 0.2188 -0.25
v -1.25 0.7188 -0.25
v -0.5 0.2812 0.25
v -0.5 0.3438 0.25
v -0.5 0.4062 0.25
v -0.5 0.4688 0.25
v -0.5 0.5312 0.25
v -0.5 0.5938 0.25
v -0.5 0.6562 0.25
v -0.5 0.6562 -0.25
v -0.5 0.5938 -0.25
v -0.5 0.5312 -0.25
v -0.5 0.4688 -0.25
v -0.5 0.4062 -0.25
v -0.5 0.3438 -0.25
v -0.5 0.2812 -0.25
v -1.25 0.6562 -0.25
v -1.25 0.5938 -0.25
v -1.25 0.5312 -0.25
v -1.25 0.4688 -0.25
v -1.25 0.4062 -0.25
v -1.25 0.3438 -0.25
v -1.25 0.2812 -0.25
v -1.25 0.6562 0.25
v -1.25 0.5938 0.25
v -1.25 0.5312 0.25
v -1.25 0.4688 0.25
v -1.25 0.4062 0.25
v -1.25 0.3438 0.25
v -1.25 0.2812 0.25
v -0.5 0.7812 0.25
v -0.5 0.7812 -0.25
v -1.25 0.7812 -0.25
v -1.25 0.7812 0.25
v -1.5 0.2812 -0.25
v -1.5 0.2188 -0.25
v -1.5 0.2188 0.25
v -1.5 0.7188 -0.25
v -1.5 0.7188 0.25
v -1.5 0.2812 0.25
v -1.5 0.6562 -0.25
v -1.5 0.5938 -0.25
v -1.5 0.5312 -0.25
v -1.5 0.4688 -0.25
v -1.5 0.4062 -0.25
v -1.5 0.3438 -0.25
v -1.5 0.6562 0.25
v -1.5 0.5938 0.25
v -1.5 0.5312 0.25
v -1.5 0.4688 0.25
v -1.5 0.4062 0.25
v -1.5 0.3438 0.25
v -1.5 0.7812 -0.25
v -1.5 0.7812 0.25
v 0.8125 0.25 1.4375
v 0.8125 0.75 1.4375
v 0.8125 0.25 1.375
v 0.8125 0.75 1.375
v 0.875 0.25 1.4375
v 0.875 0.75 1.4375
v 0.875 0.25 1.375
v 0.875 0.75 1.375
v 0.8125 0.1875 1.375
v 0.875 0.1875 1.375
v 0.8125 0.8125 1.375
v 0.875 0.8125 1.375
v 0.9375 0.25 1.4375
v 0.9375 0.75 1.4375
v 0.9375 0.25 1.375
v 0.9375 0.75 1.375
v 1 0.25 1.4375
v 1 0.75 1.4375
v 1 0.25 1.375
v 1 0.75 1.375
v 0.9375 0.1875 1.375
v 1 0.1875 1.375
v 0.9375 0.8125 1.375
v 1 0.8125 1.375
v 1.0625 0.25 1.4375
v 1.0625 0.75 1.4375
v 1.0625 0.25 1.375
v 1.0625 0.75 1.375
v 1.125 0.25 1.4375
v 1.125 0.75 1.4375
v 1.125 0.25 1.375
v 1.125 0.75 1.375
v 1.0625 0.1875 1.375
v 1.125 0.1875 1.375
v 1.0625 0.8125 1.375
v 1.125 0.8125 1.375
v 1.1875 0.25 1.4375
v 1.1875 0.75 1.4375
v 1.1875 0.25 1.375
v 1.1875 0.75 1.375
v 1.25 0.25 1.4375
v 1.25 0.75 1.4375
v 1.25 0.25 1.375
v 1.25 0.75 1.375
v 1.1875 0.1875 1.375
v 1.25 0.1875 1.375
v 1.1875 0.8125 1.375
v 1.25 0.8125 1.375
v -0.8125 0.25 1.4375
v -0.8125 0.75 1.4375
v -0.8125 0.25 1.375
v -0.8125 0.75 1.375
v -0.875 0.25 1.4375
v -0.875 0.75 1.4375
v -0.875 0.25 1.375
v -0.875 0.75 1.375
v -0.8125 0.1875 1.375
v -0.875 0.1875 1.375
v -0.8125 0.8125 1.375
v -0.875 0.8125 1.375
v -0.9375 0.25 1.4375
v -0.9375 0.75 1.4375
v -0.9375 0.25 1.375
v -0.9375 0.75 1.375
v -1 0.25 1.4375
v -1 0.75 1.4375
v -1 0.25 1.375
v -1 0.75 1.375
v -0.9375 0.1875 1.375
v -1 0.1875 1.375
v -0.9375 0.8125 1.375
v -1 0.8125 1.375
v -1.0625 0.25 1.4375
v -1.0625 0.75 1.4375
v -1.0625 0.25 1.375
v -1.0625 0.75 1.375
v -1.125 0.25 1.4375
v -1.125 0.75 1.4375
v -1.125 0.25 1.375
v -1.125 0.75 1.375
v -1.0625 0.1875 1.375
v -1.125 0.1875 1.375
v -1.0625 0.8125 1.375
v -1.125 0.8125 1.375
v -1.1875 0.25 1.4375
v -1.1875 0.75 1.4375
v -1.1875 0.25 1.375
v -1.1875 0.75 1.375
v -1.25 0.25 1.4375
v -1.25 0.75 1.4375
v -1.25 0.25 1.375
v -1.25 0.75 1.375
v -1.1875 0.1875 1.375
v -1.25 0.1875 1.375
v -1.1875 0.8125 1.375
v -1.25 0.8125 1.375
v 0.8125 0.25 -1.4375
v 0.8125 0.75 -1.4375
v 0.8125 0.25 -1.375
v 0.8125 0.75 -1.375
v 0.875 0.25 -1.4375
v 0.875 0.75 -1.4375
v 0.875 0.25 -1.375
v 0.875 0.75 -1.375
v 0.8125 0.1875 -1.375
v 0.875 0.1875 -1.375
v 0.8125 0.8125 -1.375
v 0.875 0.8125 -1.375
v 0.9375 0.25 -1.4375
v 0.9375 0.75 -1.4375
v 0.9375 0.25 -1.375
v 0.9375 0.75 -1.375
v 1 0.25 -1.4375
v 1 0.75 -1.4375
v 1 0.25 -1.375
v 1 0.75 -1.375
v 0.9375 0.1875 -1.375
v 1 0.1875 -1.375
v 0.9375 0.8125 -1.375
v 1 0.8125 -1.375
v 1.0625 0.25 -1.4375
v 1.0625 0.75 -1.4375
v 1.0625 0.25 -1.375
v 1.0625 0.75 -1.375
v 1.125 0.25 -1.4375
v 1.125 0.75 -1.4375
v 1.125 0.25 -1.375
v 1.125 0.75 -1.375
v 1.0625 0.1875 -1.375
v 1.125 0.1875 -1.375
v 1.0625 0.8125 -1.375
v 1.125 0.8125 -1.375
v 1.1875 0.25 -1.4375
v 1.1875 0.75 -1.4375
v 1.1875 0.25 -1.375
v 1.1875 0.75 -1.375
v 1.25 0.25 -1.4375
v 1.25 0.75 -1.4375
v 1.25 0.25 -1.375
v 1.25 0.75 -1.375
v 1.1875 0.1875 -1.375
v 1.25 0.1875 -1.375
v 1.1875 0.8125 -1.375
v 1.25 0.8125 -1.375
v -0.8125 0.25 -1.4375
v -0.8125 0.75 -1.4375
v -0.8125 0.25 -1.375
v -0.8125 0.75 -1.375
v -0.875 0.25 -1.4375
v -0.875 0.75 -1.4375
v -0.875 0.25 -1.375
v -0.875 0.75 -1.375
v -0.8125 0.1875 -1.375
v -0.875 0.1875 -1.375
v -0.8125 0.8125 -1.375
v -0.875 0.8125 -1.375
v -0.9375 0.25 -1.4375
v -0.9375 0.75 -1.4375
v -0.9375 0.25 -1.375
v -0.9375 0.75 -1.375
v -1 0.25 -1.4375
v -1 0.75 -1.4375
v -1 0.25 -1.375
v -1 0.75 -1.375
v -0.9375 0.1875 -1.375
v -1 0.1875 -1.375
v -0.9375 0.8125 -1.375
v -1 0.8125 -1.375
v -1.0625 0.25 -1.4375
v -1.0625 0.75 -1.4375
v -1.0625 0.25 -1.375
v -1.0625 0.75 -1.375
v -1.125 0.25 -1.4375
v -1.125 0.75 -1.4375
v -1.125 0.25 -1.375
v -1.125 0.75 -1.375
v -1.0625 0.1875 -1.375
v -1.125 0.1875 -1.375
v -1.0625 0.8125 -1.375
v -1.125 0.8125 -1.375
v -1.1875 0.25 -1.4375
v -1.1875 0.75 -1.4375
v -1.1875 0.25 -1.375
v -1.1875 0.75 -1.375
v -1.25 0.25 -1.4375
v -1.25 0.75 -1.4375
v -1.25 0.25 -1.375
v -1.25 0.75 -1.375
v -1.1875 0.1875 -1.375
v -1.25 0.1875 -1.375
v -1.1875 0.8125 -1.375
v -1.25 0.8125 -1.375
v -0.625 0.8051 1.1897
v -0.625 0.8493 1.2339
v -0.5673 0.7882 1.2066
v -0.5673 0.8324 1.2508
v -0.5433 0.7474 1.2474
v -0.5673 0.7066 1.2882
v -0.5673 0.7508 1.3324
v -0.625 0.6897 1.3051
v -0.625 0.7339 1.3493
v -0.6827 0.7066 1.2882
v -0.6827 0.7508 1.3324
v -0.7067 0.7474 1.2474
v -0.7067 0.7916 1.2916
v -0.6827 0.7882 1.2066
v -0.6827 0.8324 1.2508
v -0.5603 0.8444 1.2627
v -0.6011 0.8902 1.2747
v -0.5603 0.7627 1.3444
v -0.6011 0.7747 1.3902
v -0.6419 0.8205 1.4021
v -0.6588 0.8733 1.3733
v -0.6419 0.9021 1.3205
v -0.5433 0.8493 1.2677
v -0.5433 0.9071 1.2916
v -0.5433 0.7916 1.2916
v -0.5433 0.7677 1.3493
v -0.5433 0.7916 1.4071
v -0.5433 0.8493 1.431
v -0.5433 0.9071 1.4071
v -0.5433 0.931 1.3493
v 0.625 0.8051 1.1897
v 0.625 0.8493 1.2339
v 0.5673 0.7882 1.2066
v 0.5673 0.8324 1.2508
v 0.5433 0.7474 1.2474
v 0.5433 0.7916 1.2916
v 0.5673 0.7066 1.2882
v 0.5673 0.7508 1.3324
v 0.625 0.6897 1.3051
v 0.625 0.7339 1.3493
v 0.6827 0.7066 1.2882
v 0.6827 0.7508 1.3324
v 0.7067 0.7474 1.2474
v 0.7067 0.7916 1.2916
v 0.6827 0.7882 1.2066
v 0.6827 0.8324 1.2508
v 0.5603 0.8444 1.2627
v 0.6011 0.8902 1.2747
v 0.5603 0.7627 1.3444
v 0.6011 0.7747 1.3902
v 0.6419 0.8205 1.4021
v 0.6588 0.8733 1.3733
v 0.6419 0.9021 1.3205
v 0.5433 0.8493 1.2677
v 0.5433 0.9071 1.2916
v 0.5433 0.7677 1.3493
v 0.5433 0.7916 1.4071
v 0.5433 0.8493 1.431
v 0.5433 0.9071 1.4071
v 0.5433 0.931 1.3493
v 0 0.8493 1.2677
v 0 0.9071 1.2916
v 0 0.7916 1.2916
v 0 0.7677 1.3493
v 0 0.7916 1.4071
v 0 0.8493 1.431
v 0 0.9071 1.4071
v 0 0.931 1.3493
v -0.625 0.8051 -1.1897
v -0.625 0.8493 -1.2339
v -0.5673 0.7882 -1.2066
v -0.5673 0.8324 -1.2508
v -0.5433 0.7474 -1.2474
v -0.5673 0.7066 -1.2882
v -0.5673 0.7508 -1.3324
v -0.625 0.6897 -1.3051
v -0.625 0.7339 -1.3493
v -0.6827 0.7066 -1.2882
v -0.6827 0.7508 -1.3324
v -0.7067 0.7474 -1.2474
v -0.7067 0.7916 -1.2916
v -0.6827 0.7882 -1.2066
v -0.6827 0.8324 -1.2508
v -0.5603 0.8444 -1.2627
v -0.6011 0.8902 -1.2747
v -0.5603 0.7627 -1.3444
v -0.6011 0.7747 -1.3902
v -0.6419 0.8205 -1.4021
v -0.6588 0.8733 -1.3733
v -0.6419 0.9021 -1.3205
v -0.5433 0.8493 -1.2677
v -0.5433 0.9071 -1.2916
v -0.5433 0.7916 -1.2916
v -0.5433 0.7677 -1.3493
v -0.5433 0.7916 -1.4071
v -0.5433 0.8493 -1.431
v -0.5433 0.9071 -1.4071
v -0.5433 0.931 -1.3493
v 0.625 0.8051 -1.1897
v 0.625 0.8493 -1.2339
v 0.5673 0.7882 -1.2066
v 0.5673 0.8324 -1.2508
v 0.5433 0.7474 -1.2474
v 0.5433 0.7916 -1.2916
v 0.5673 0.7066 -1.2882
v 0.5673 0.7508 -1.3324
v 0.625 0.6897 -1.3051
v 0.625 0.7339 -1.3493
v 0.6827 0.7066 -1.2882
v 0.6827 0.7508 -1.3324
v 0.7067 0.7474 -1.2474
v 0.7067 0.7916 -1.2916
v 0.6827 0.7882 -1.2066
v 0.6827 0.8324 -1.2508
v 0.5603 0.8444 -1.2627
v 0.6011 0.8902 -1.2747
v 0.5603 0.7627 -1.3444
v 0.6011 0.7747 -1.3902
v 0.6419 0.8205 -1.4021
v 0.6588 0.8733 -1.3733
v 0.6419 0.9021 -1.3205
v 0.5433 0.8493 -1.2677
v 0.5433 0.9071 -1.2916
v 0.5433 0.7677 -1.3493
v 0.5433 0.7916 -1.4071
v 0.5433 0.8493 -1.431
v 0.5433 0.9071 -1.4071
v 0.5433 0.931 -1.3493
v 0 0.8493 -1.2677
v 0 0.9071 -1.2916
v 0 0.7916 -1.2916
v 0 0.7677 -1.3493
v 0 0.7916 -1.4071
v 0 0.8493 -1.431
v 0 0.9071 -1.4071
v 0 0.931 -1.3493
v -0.625 0.1949 1.1897
v -0.625 0.1507 1.2339
v -0.5673 0.2118 1.2066
v -0.5673 0.1676 1.2508
v -0.5433 0.2526 1.2474
v -0.5673 0.2934 1.2882
v -0.5673 0.2492 1.3324
v -0.625 0.3103 1.3051
v -0.625 0.2661 1.3493
v -0.6827 0.2934 1.2882
v -0.6827 0.2492 1.3324
v -0.7067 0.2526 1.2474
v -0.7067 0.2084 1.2916
v -0.6827 0.2118 1.2066
v -0.6827 0.1676 1.2508
v -0.5603 0.1556 1.2627
v -0.6011 0.1098 1.2747
v -0.5603 0.2373 1.3444
v -0.6011 0.2253 1.3902
v -0.6419 0.1795 1.4021
v -0.6588 0.1267 1.3733
v -0.6419 0.0979 1.3205
v -0.5433 0.1507 1.2677
v -0.5433 0.0929 1.2916
v -0.5433 0.2084 1.2916
v -0.5433 0.2323 1.3493
v -0.5433 0.2084 1.4071
v -0.5433 0.1507 1.431
v -0.5433 0.0929 1.4071
v -0.5433 0.069 1.3493
v 0.625 0.1949 1.1897
v 0.625 0.1507 1.2339
v 0.5673 0.2118 1.2066
v 0.5673 0.1676 1.2508
v 0.5433 0.2526 1.2474
v 0.5433 0.2084 1.2916
v 0.5673 0.2934 1.2882
v 0.5673 0.2492 1.3324
v 0.625 0.3103 1.3051
v 0.625 0.2661 1.3493
v 0.6827 0.2934 1.2882
v 0.6827 0.2492 1.3324
v 0.7067 0.2526 1.2474
v 0.7067 0.2084 1.2916
v 0.6827 0.2118 1.2066
v 0.6827 0.1676 1.2508
v 0.5603 0.1556 1.2627
v 0.6011 0.1098 1.2747
v 0.5603 0.2373 1.3444
v 0.6011 0.2253 1.3902
v 0.6419 0.1795 1.4021
v 0.6588 0.1267 1.3733
v 0.6419 0.0979 1.3205
v 0.5433 0.1507 1.2677
v 0.5433 0.0929 1.2916
v 0.5433 0.2323 1.3493
v 0.5433 0.2084 1.4071
v 0.5433 0.1507 1.431
v 0.5433 0.0929 1.4071
v 0.5433 0.069 1.3493
v 0 0.1507 1.2677
v 0 0.0929 1.2916
v 0 0.2084 1.2916
v 0 0.2323 1.3493
v 0 0.2084 1.4071
v 0 0.1507 1.431
v 0 0.0929 1.4071
v 0 0.069 1.3493
v -0.625 0.1949 -1.1897
v -0.625 0.1507 -1.2339
v -0.5673 0.2118 -1.2066
v -0.5673 0.1676 -1.2508
v -0.5433 0.2526 -1.2474
v -0.5673 0.2934 -1.2882
v -0.5673 0.2492 -1.3324
v -0.625 0.3103 -1.3051
v -0.625 0.2661 -1.3493
v -0.6827 0.2934 -1.2882
v -0.6827 0.2492 -1.3324
v -0.7067 0.2526 -1.2474
v -0.7067 0.2084 -1.2916
v -0.6827 0.2118 -1.2066
v -0.6827 0.1676 -1.2508
v -0.5603 0.1556 -1.2627
v -0.6011 0.1098 -1.2747
v -0.5603 0.2373 -1.3444
v -0.6011 0.2253 -1.3902
v -0.6419 0.1795 -1.4021
v -0.6588 0.1267 -1.3733
v -0.6419 0.0979 -1.3205
v -0.5433 0.1507 -1.2677
v -0.5433 0.0929 -1.2916
v -0.5433 0.2084 -1.2916
v -0.5433 0.2323 -1.3493
v -0.5433 0.2084 -1.4071
v -0.5433 0.1507 -1.431
v -0.5433 0.0929 -1.4071
v -0.5433 0.069 -1.3493
v 0.625 0.1949 -1.1897
v 0.625 0.1507 -1.2339
v 0.5673 0.2118 -1.2066
v 0.5673 0.1676 -1.2508
v 0.5433 0.2526 -1.2474
v 0.5433 0.2084 -1.2916
v 0.5673 0.2934 -1.2882
v 0.5673 0.2492 -1.3324
v 0.625 0.3103 -1.3051
v 0.625 0.2661 -1.3493
v 0.6827 0.2934 -1.2882
v 0.6827 0.2492 -1.3324
v 0.7067 0.2526 -1.2474
v 0.7067 0.2084 -1.2916
v 0.6827 0.2118 -1.2066
v 0.6827 0.1676 -1.2508
v 0.5603 0.1556 -1.2627
v 0.6011 0.1098 -1.2747
v 0.5603 0.2373 -1.3444
v 0.6011 0.2253 -1.3902
v 0.6419 0.1795 -1.4021
v 0.6588 0.1267 -1.3733
v 0.6419 0.0979 -1.3205
v 0.5433 0.1507 -1.2677
v 0.5433 0.0929 -1.2916
v 0.5433 0.2323 -1.3493
v 0.5433 0.2084 -1.4071
v 0.5433 0.1507 -1.431
v 0.5433 0.0929 -1.4071
v 0.5433 0.069 -1.3493
v 0 0.1507 -1.2677
v 0 0.0929 -1.2916
v 0 0.2084 -1.2916
v 0 0.2323 -1.3493
v 0 0.2084 -1.4071
v 0 0.1507 -1.431
v 0 0.0929 -1.4071
v 0 0.069 -1.3493
v 1.1562 0.8629 -0.625
v 1.1562 0.8629 0.625
v 1.214 0.839 -0.625
v 1.214 0.839 0.625
v 1.2379 0.7812 -0.625
v 1.2379 0.7812 0.625
v 1.214 0.7235 -0.625
v 1.214 0.7235 0.625
v 1.1562 0.6996 -0.625
v 1.1562 0.6996 0.625
v 1.0985 0.7235 -0.625
v 1.0985 0.7235 0.625
v 1.0746 0.7812 -0.625
v 1.0746 0.7812 0.625
v 1.0985 0.839 -0.625
v 1.0985 0.839 0.625
v 1.1562 0.6754 -0.625
v 1.1562 0.6754 0.625
v 1.214 0.6515 -0.625
v 1.214 0.6515 0.625
v 1.2379 0.5938 -0.625
v 1.2379 0.5938 0.625
v 1.214 0.536 -0.625
v 1.214 0.536 0.625
v 1.1562 0.5121 -0.625
v 1.1562 0.5121 0.625
v 1.0985 0.536 -0.625
v 1.0985 0.536 0.625
v 1.0746 0.5938 -0.625
v 1.0746 0.5938 0.625
v 1.0985 0.6515 -0.625
v 1.0985 0.6515 0.625
v 1.1562 0.4879 -0.625
v 1.1562 0.4879 0.625
v 1.214 0.464 -0.625
v 1.214 0.464 0.625
v 1.2379 0.4062 -0.625
v 1.2379 0.4062 0.625
v 1.214 0.3485 -0.625
v 1.214 0.3485 0.625
v 1.1562 0.3246 -0.625
v 1.1562 0.3246 0.625
v 1.0985 0.3485 -0.625
v 1.0985 0.3485 0.625
v 1.0746 0.4062 -0.625
v 1.0746 0.4062 0.625
v 1.0985 0.464 -0.625
v 1.0985 0.464 0.625
v 1.1562 0.3004 -0.625
v 1.1562 0.3004 0.625
v 1.214 0.2765 -0.625
v 1.214 0.2765 0.625
v 1.2379 0.2188 -0.625
v 1.2379 0.2188 0.625
v 1.214 0.161 -0.625
v 1.214 0.161 0.625
v 1.1562 0.1371 -0.625
v 1.1562 0.1371 0.625
v 1.0985 0.161 -0.625
v 1.0985 0.161 0.625
v 1.0746 0.2188 -0.625
v 1.0746 0.2188 0.625
v 1.0985 0.2765 -0.625
v 1.0985 0.2765 0.625
v 0.9062 0.8629 -0.625
v 0.9062 0.8629 0.625
v 0.964 0.839 -0.625
v 0.964 0.839 0.625
v 0.9879 0.7812 -0.625
v 0.9879 0.7812 0.625
v 0.964 0.7235 -0.625
v 0.964 0.7235 0.625
v 0.9062 0.6996 -0.625
v 0.9062 0.6996 0.625
v 0.8485 0.7235 -0.625
v 0.8485 0.7235 0.625
v 0.8246 0.7812 -0.625
v 0.8246 0.7812 0.625
v 0.8485 0.839 -0.625
v 0.8485 0.839 0.625
v 0.9062 0.6754 -0.625
v 0.9062 0.6754 0.625
v 0.964 0.6515 -0.625
v 0.964 0.6515 0.625
v 0.9879 0.5938 -0.625
v 0.9879 0.5938 0.625
v 0.964 0.536 -0.625
v 0.964 0.536 0.625
v 0.9062 0.5121 -0.625
v 0.9062 0.5121 0.625
v 0.8485 0.536 -0.625
v 0.8485 0.536 0.625
v 0.8246 0.5938 -0.625
v 0.8246 0.5938 0.625
v 0.8485 0.6515 -0.625
v 0.8485 0.6515 0.625
v 0.9062 0.4879 -0.625
v 0.9062 0.4879 0.625
v 0.964 0.464 -0.625
v 0.964 0.464 0.625
v 0.9879 0.4062 -0.625
v 0.9879 0.4062 0.625
v 0.964 0.3485 -0.625
v 0.964 0.3485 0.625
v 0.9062 0.3246 -0.625
v 0.9062 0.3246 0.625
v 0.8485 0.3485 -0.625
v 0.8485 0.3485 0.625
v 0.8246 0.4062 -0.625
v 0.8246 0.4062 0.625
v 0.8485 0.464 -0.625
v 0.8485 0.464 0.625
v 0.9062 0.3004 -0.625
v 0.9062 0.3004 0.625
v 0.964 0.2765 -0.625
v 0.964 0.2765 0.625
v 0.9879 0.2188 -0.625
v 0.9879 0.2188 0.625
v 0.964 0.161 -0.625
v 0.964 0.161 0.625
v 0.9062 0.1371 -0.625
v 0.9062 0.1371 0.625
v 0.8485 0.161 -0.625
v 0.8485 0.161 0.625
v 0.8246 0.2188 -0.625
v 0.8246 0.2188 0.625
v 0.8485 0.2765 -0.625
v 0.8485 0.2765 0.625
v -1.1562 0.8629 -0.625
v -1.1562 0.8629 0.625
v -1.214 0.839 -0.625
v -1.214 0.839 0.625
v -1.2379 0.7812 -0.625
v -1.2379 0.7812 0.625
v -1.214 0.7235 -0.625
v -1.214 0.7235 0.625
v -1.1562 0.6996 -0.625
v -1.1562 0.6996 0.625
v -1.0985 0.7235 -0.625
v -1.0985 0.7235 0.625
v -1.0746 0.7812 -0.625
v -1.0746 0.7812 0.625
v -1.0985 0.839 -0.625
v -1.0985 0.839 0.625
v -1.1562 0.6754 -0.625
v -1.1562 0.6754 0.625
v -1.214 0.6515 -0.625
v -1.214 0.6515 0.625
v -1.2379 0.5938 -0.625
v -1.2379 0.5938 0.625
v -1.214 0.536 -0.625
v -1.214 0.536 0.625
v -1.1562 0.5121 -0.625
v -1.1562 0.5121 0.625
v -1.0985 0.536 -0.625
v -1.0985 0.536 0.625
v -1.0746 0.5938 -0.625
v -1.0746 0.5938 0.625
v -1.0985 0.6515 -0.625
v -1.0985 0.6515 0.625
v -1.1562 0.4879 -0.625
v -1.1562 0.4879 0.625
v -1.214 0.464 -0.625
v -1.214 0.464 0.625
v -1.2379 0.4062 -0.625
v -1.2379 0.4062 0.625
v -1.214 0.3485 -0.625
v -1.214 0.3485 0.625
v -1.1562 0.3246 -0.625
v -1.1562 0.3246 0.625
v -1.0985 0.3485 -0.625
v -1.0985 0.3485 0.625
v -1.0746 0.4062 -0.625
v -1.0746 0.4062 0.625
v -1.0985 0.464 -0.625
v -1.0985 0.464 0.625
v -1.1562 0.3004 -0.625
v -1.1562 0.3004 0.625
v -1.214 0.2765 -0.625
v -1.214 0.2765 0.625
v -1.2379 0.2188 -0.625
v -1.2379 0.2188 0.625
v -1.214 0.161 -0.625
v -1.214 0.161 0.625
v -1.1562 0.1371 -0.625
v -1.1562 0.1371 0.625
v -1.0985 0.161 -0.625
v -1.0985 0.161 0.625
v -1.0746 0.2188 -0.625
v -1.0746 0.2188 0.625
v -1.0985 0.2765 -0.625
v -1.0985 0.2765 0.625
v -0.9062 0.8629 -0.625
v -0.9062 0.8629 0.625
v -0.964 0.839 -0.625
v -0.964 0.839 0.625
v -0.9879 0.7812 -0.625
v -0.9879 0.7812 0.625
v -0.964 0.7235 -0.625
v -0.964 0.7235 0.625
v -0.9062 0.6996 -0.625
v -0.9062 0.6996 0.625
v -0.8485 0.7235 -0.625
v -0.8485 0.7235 0.625
v -0.8246 0.7812 -0.625
v -0.8246 0.7812 0.625
v -0.8485 0.839 -0.625
v -0.8485 0.839 0.625
v -0.9062 0.6754 -0.625
v -0.9062 0.6754 0.625
v -0.964 0.6515 -0.625
v -0.964 0.6515 0.625
v -0.9879 0.5938 -0.625
v -0.9879 0.5938 0.625
v -0.964 0.536 -0.625
v -0.964 0.536 0.625
v -0.9062 0.5121 -0.625
v -0.9062 0.5121 0.625
v -0.8485 0.536 -0.625
v -0.8485 0.536 0.625
v -0.8246 0.5938 -0.625
v -0.8246 0.5938 0.625
v -0.8485 0.6515 -0.625
v -0.8485 0.6515 0.625
v -0.9062 0.4879 -0.625
v -0.9062 0.4879 0.625
v -0.964 0.464 -0.625
v -0.964 0.464 0.625
v -0.9879 0.4062 -0.625
v -0.9879 0.4062 0.625
v -0.964 0.3485 -0.625
v -0.964 0.3485 0.625
v -0.9062 0.3246 -0.625
v -0.9062 0.3246 0.625
v -0.8485 0.3485 -0.625
v -0.8485 0.3485 0.625
v -0.8246 0.4062 -0.625
v -0.8246 0.4062 0.625
v -0.8485 0.464 -0.625
v -0.8485 0.464 0.625
v -0.9062 0.3004 -0.625
v -0.9062 0.3004 0.625
v -0.964 0.2765 -0.625
v -0.964 0.2765 0.625
v -0.9879 0.2188 -0.625
v -0.9879 0.2188 0.625
v -0.964 0.161 -0.625
v -0.964 0.161 0.625
v -0.9062 0.1371 -0.625
v -0.9062 0.1371 0.625
v -0.8485 0.161 -0.625
v -0.8485 0.161 0.625
v -0.8246 0.2188 -0.625
v -0.8246 0.2188 0.625
v -0.8485 0.2765 -0.625
v -0.8485 0.2765 0.625
v 0.75 0.0625 1.375
v 0.75 0.9375 1.375
v 0.75 0.0625 0.625
v 0.75 0.9375 0.625
v 1.3125 0.0625 1.375
v 1.3125 0.9375 1.375
v 1.3125 0.0625 0.625
v 1.3125 0.9375 0.625
v -0.75 0.0625 1.375
v -0.75 0.9375 1.375
v -0.75 0.0625 0.625
v -0.75 0.9375 0.625
v -1.3125 0.0625 1.375
v -1.3125 0.9375 1.375
v -1.3125 0.0625 0.625
v -1.3125 0.9375 0.625
v 0.75 0.0625 -1.375
v 0.75 0.9375 -1.375
v 0.75 0.0625 -0.625
v 0.75 0.9375 -0.625
v 1.3125 0.0625 -1.375
v 1.3125 0.9375 -1.375
v 1.3125 0.0625 -0.625
v 1.3125 0.9375 -0.625
v -0.75 0.0625 -1.375
v -0.75 0.9375 -1.375
v -0.75 0.0625 -0.625
v -0.75 0.9375 -0.625
v -1.3125 0.0625 -1.375
v -1.3125 0.9375 -1.375
v -1.3125 0.0625 -0.625
v -1.3125 0.9375 -0.625
v -1.5 0.5 0.6378
v 1.5 0.5 0.6378
v -1.5 0.3189 0.6863
v 1.5 0.3189 0.6863
v -1.5 0.1863 0.8189
v 1.5 0.1863 0.8189
v -1.5 0.1378 1
v 1.5 0.1378 1
v -1.5 0.1863 1.1811
v 1.5 0.1863 1.1811
v -1.5 0.3189 1.3137
v 1.5 0.3189 1.3137
v -1.5 0.5 1.3622
v 1.5 0.5 1.3622
v -1.5 0.6811 1.3137
v 1.5 0.6811 1.3137
v -1.5 0.8137 1.1811
v 1.5 0.8137 1.1811
v -1.5 0.8622 1
v 1.5 0.8622 1
v -1.5 0.8137 0.8189
v 1.5 0.8137 0.8189
v -1.5 0.6811 0.6863
v 1.5 0.6811 0.6863
v -1.5 0.5 -0.6378
v 1.5 0.5 -0.6378
v -1.5 0.3189 -0.6863
v 1.5 0.3189 -0.6863
v -1.5 0.1863 -0.8189
v 1.5 0.1863 -0.8189
v -1.5 0.1378 -1
v 1.5 0.1378 -1
v -1.5 0.1863 -1.1811
v 1.5 0.1863 -1.1811
v -1.5 0.3189 -1.3137
v 1.5 0.3189 -1.3137
v -1.5 0.5 -1.3622
v 1.5 0.5 -1.3622
v -1.5 0.6811 -1.3137
v 1.5 0.6811 -1.3137
v -1.5 0.8137 -1.1811
v 1.5 0.8137 -1.1811
v -1.5 0.8622 -1
v 1.5 0.8622 -1
v -1.5 0.8137 -0.8189
v 1.5 0.8137 -0.8189
v -1.5 0.6811 -0.6863
v 1.5 0.6811 -0.6863
v -1.5 0 0
v 0 0 1.5
v 0.5 1 1
v 0 0.0625 -1.5
v -1.5 1 -0
v 0 1 1.5
v 0 0.5 0.6378
v 0 0.1863 1.1811
v 0 0.8137 1.1811
v 0 0.5 -0.6378
v 0 0.1863 -1.1811
v 0 0.8137 -1.1811
v 0.5 0.0625 1
v 0.5 0.9375 -1
v 1.5 0.0625 -0
v 0 1 -1.5
v 0 -0 -1.5
v -1 1 0.5
v 1.5 1 -0
v 0 0.3189 0.6863
v 0 0.3189 1.3137
v 0 0.8622 1
v 0 0.3189 -0.6863
v 0 0.3189 -1.3137
v 0 0.8622 -1
v 1.5 0 0
v -1.5 0.9375 -0
v 0 0.9375 -1.5
v -0.5 0.9375 1
v 0 0.9375 1.5
v 1 0.0625 -0.5
v 1 1 -0.5
v 0 0.1863 0.8189
v 0 0.5 1.3622
v 0 0.8137 0.8189
v 0 0.1863 -0.8189
v 0 0.5 -1.3622
v 0 0.8137 -0.8189
v 1.5 0.9375 -0
v 1 0.9375 0.5
v -0.5 0.0625 -1
v -0.5 1 -1
v 0 0.1378 1
v 0 0.6811 1.3137
v 0 0.6811 0.6863
v 0 0.1378 -1
v 0 0.6811 -1.3137
v 0 0.6811 -0.6863
v -1 0.0625 0.5
v -1 0.9375 -0.5
v -1.5 0.0625 -0
v 0 0.0625 1.5
v 0 0 0
v -1.5 -0 -0.75
v 0.75 0 1.5
v 0.75 0.0625 -1.5
v -1.5 1 -0.75
v 0.75 1 1.5
v -1.5 0 0.75
v -0.75 0.8622 1
v -0.75 0 0
v -0.75 0.5 0.6378
v 0 0 0.75
v -0.75 0.1863 -0.8189
v 0.75 0.5 0.6378
v 0.75 0.1863 1.1811
v 0.75 0.8137 1.1811
v 0.75 0.5 -0.6378
v 0.75 0.1863 -1.1811
v 0.75 0.8137 -1.1811
v 1.5 0.0625 0.75
v 0.75 1 -1.5
v -0.75 0.3189 1.3137
v 1.5 0 0.75
v -0.75 0.1378 1
v -0.75 0.6811 0.6863
v 0.75 -0 -1.5
v 1.5 1 0.75
v -0.75 0.1863 -1.1811
v -0.75 0.0625 1.5
v 1.5 0.9375 -0.75
v -0.75 0.8137 1.1811
v -0.75 0.6811 -0.6863
v 0.75 0.3189 0.6863
v 0.75 0.3189 1.3137
v 0.75 0.8622 1
v 0.75 0.3189 -0.6863
v 0.75 0.3189 -1.3137
v 0.75 0.8622 -1
v 1.5 -0 -0.75
v -1.5 0.9375 0.75
v 0.75 0.9375 -1.5
v -0.75 0.1863 0.8189
v -0.75 0 1.5
v -0.75 0.3189 -0.6863
v 0.75 0 0
v -0.75 0.1863 1.1811
v -0.75 0.3189 0.6863
v 0 -0 -0.75
v -0.75 0.8622 -1
v -0.75 0.8137 0.8189
v 0.75 0.9375 1.5
v -0.75 0.3189 -1.3137
v -0.75 1 1.5
v -0.75 -0 -1.5
v -0.75 0.5 -1.3622
v 0.75 0.1863 0.8189
v 0.75 0.5 1.3622
v 0.75 0.8137 0.8189
v 0.75 0.1863 -0.8189
v 0.75 0.5 -1.3622
v 0.75 0.8137 -0.8189
v 1.5 0.9375 0.75
v -1.5 0.0625 0.75
v -0.75 0.9375 1.5
v 1.5 0.0625 -0.75
v -0.75 0.6811 -1.3137
v -0.75 0.9375 -1.5
v -0.75 0.6811 1.3137
v -0.75 0.5 1.3622
v -0.75 0.1378 -1
v -0.75 1 -1.5
v 0.75 0.1378 1
v 0.75 0.6811 1.3137
v 0.75 0.6811 0.6863
v 0.75 0.1378 -1
v 0.75 0.6811 -1.3137
v 0.75 0.6811 -0.6863
v -1.5 0.0625 -0.75
v 0.75 0.0625 1.5
v -0.75 0.0625 -1.5
v -0.75 0.8137 -1.1811
v -1.5 1 0.75
v 1.5 1 -0.75
v -1.5 0.9375 -0.75
v -0.75 0.8137 -0.8189
v -0.75 0.5 -0.6378
v 0.75 0 0.75
v -0.75 -0 -0.75
v 0.75 -0 -0.75
v -0.75 0 0.75
vt 0.3261 0.9388
vt 0.3913 0.9286
vt 0.3261 0.9286
vt 0.413 0.8367
vt 0.4565 0.8776
vt 0.413 0.8776
vt 0 0.4388
vt 0.1087 0.449
vt 0 0.449
vt -0 0.6327
vt 0.0652 0.4898
vt -0 0.4898
vt 0.0652 0.6327
vt 0.1141 0.4898
vt 0.1141 0.6327
vt 0.2609 0.7449
vt 0.2663 0.6633
vt 0.2609 0.6633
vt 0.3913 1
vt 0.3261 0.9898
vt 0.3913 0.9898
vt 0.4565 0.8367
vt 0 0.4082
vt 0.1087 0.4184
vt 0.1087 0.4082
vt 0.3913 0.8367
vt 0.3261 0.8469
vt 0.3913 0.8469
vt 0.4565 0.8265
vt 0.413 0.7857
vt 0.413 0.8265
vt 0.5054 0.1633
vt 0.5489 0.1633
vt 0.5489 0.3265
vt 0.5489 0.4082
vt 0.6359 0.3265
vt 0.6793 0.3265
vt 0.6359 0.1633
vt 0.6359 0.0816
vt 0.3261 0.9796
vt 0.3913 0.9694
vt 0.3261 0.9694
vt 0 0.4184
vt 0.1087 0.4286
vt 0.2717 0.7449
vt 0.2772 0.6633
vt 0.2772 0.7449
vt 0.8207 0.9082
vt 0.8207 0.8265
vt 0.9076 0.8265
vt 0.9511 0.8265
vt 0.9076 0.6633
vt 0.9076 0.5816
vt 0.8207 0.6633
vt 0.7772 0.6633
vt 0.4565 0.449
vt 0.3804 0.6122
vt 0.3804 0.449
vt 0 0.4592
vt 0.1087 0.4694
vt 0 0.4694
vt 0.1087 0.4796
vt 0.2609 0.9082
vt 0.1957 0.8776
vt 0.1957 0.9082
vt 0.2772 0.6122
vt 0.2717 0.4592
vt 0.2772 0.4694
vt 0.3587 0.6224
vt 0.2772 0.6327
vt 0.2826 0.6224
vt 0.3641 0.4694
vt 0.3696 0.6224
vt 0.3641 0.6122
vt 0.2826 0.4592
vt 0.3641 0.449
vt 0.3587 0.4592
vt 0.7228 0.4898
vt 0.6576 0.5
vt 0.6576 0.4898
vt 0.1087 0.4592
vt 0.413 1
vt 0.4565 1
vt 0.1902 0.4592
vt 0.1413 0.449
vt 0.1413 0.4592
vt 0.0652 0.9694
vt -0 0.9388
vt 0.0652 0.9388
vt 0.4565 0.7857
vt 0.1793 0.4898
vt 0.1793 0.6327
vt 0.2609 1
vt 0.1957 0.9694
vt 0.1957 1
vt 0.413 0.9898
vt 0.1087 0.4388
vt 0.2663 0.7449
vt 0.2717 0.6633
vt 0.7337 0.5
vt 0.7989 0.4898
vt 0.7989 0.5
vt 0.2717 0.6531
vt 0.2663 0.6531
vt 0.3913 0.8776
vt 0.3261 0.8878
vt 0.3913 0.8878
vt 0 0.4796
vt 0.2609 0.7245
vt 0.1957 0.6939
vt 0.1957 0.7245
vt 0.3587 0.4694
vt 0.3913 0.9796
vt 0.3261 0.949
vt 0.3913 0.9388
vt 0.3913 0.949
vt 0.1902 0.4286
vt 0.1413 0.4388
vt 0.1413 0.4286
vt 0.0652 0.6633
vt 0.0652 0.6327
vt 0.1087 0.4898
vt 0.1902 0.4694
vt 0.2391 0.4796
vt 0.2391 0.4694
vt 0.2391 0.449
vt 0.2391 0.4592
vt 0.3913 0.8673
vt 0.3261 0.8776
vt 0.2826 0.4694
vt 0.3587 0.6122
vt 0.2826 0.6122
vt 0.3913 0.8265
vt 0.3261 0.8367
vt 0.0652 0.8469
vt -0 0.8163
vt 0.0652 0.8163
vt 0.2283 0.4898
vt 0.2283 0.6327
vt 0.2391 0.4388
vt 0.1902 0.4388
vt 0.1902 0.449
vt 0.2391 0.4286
vt 0.4565 0.7755
vt 0.413 0.9082
vt 0.3913 0.9184
vt 0.3913 0.9082
vt 0.2609 0.9694
vt 0.1957 0.9388
vt 0.413 0.7755
vt 0.3913 0.9592
vt 0.375 0.4592
vt 0.375 0.6224
vt 0.1902 0.4796
vt 0.1413 0.4898
vt 0.1902 0.4898
vt 0.2663 0.7551
vt 0.413 0.9694
vt 0 0.4286
vt 0.2391 0.4898
vt 0.3261 0.898
vt 0.3913 0.898
vt 0.1957 0.6327
vt 0.1957 0.6633
vt 0.2772 0.6531
vt 0.2609 0.6531
vt 0.2609 0.7551
vt 0.2772 0.7551
vt 0.3913 0.8571
vt 0.3261 0.8673
vt 0.3261 0.9592
vt 0.1413 0.4796
vt 0.1413 0.4694
vt 0.9946 0.5
vt 1 0.6224
vt 0.9946 0.6224
vt 0.413 0.9286
vt 0.7337 0.9898
vt 0.7283 0.8673
vt 0.7337 0.8673
vt 0.9946 0.9898
vt 0.9293 1
vt 0.9293 0.9898
vt 0.3261 0.8265
vt 0.413 0.8163
vt 0.3913 0.8163
vt 0.2717 0.7551
vt 0.3261 0.8571
vt 0.4565 0.1224
vt 0.3804 0.2857
vt 0.3804 0.1224
vt 0.413 0.9796
vt 0.3261 1
vt 0.0652 0.7857
vt -0 0.7551
vt 0.0652 0.7551
vt 0.0652 0.9082
vt -0 0.8776
vt 0.0652 0.8776
vt 0.413 0.9388
vt 0.2609 0.7857
vt 0.1957 0.7551
vt 0.1957 0.7857
vt 0.413 0.8878
vt 0.3261 0.9184
vt 0.2781 0.8668
vt 0.3092 0.8668
vt 0.3247 0.8162
vt 0.2625 0.8162
vt 0.3092 0.7656
vt 0.2661 0.9696
vt 0.3211 0.9094
vt 0.2938 0.9992
vt 0.266 0.9098
vt 0.2935 0.8797
vt -0 0.9082
vt 0.25 0.4592
vt 0.2609 0.4592
vt 0.2609 0.4694
vt 0.1304 0.4694
vt 0.1304 0.4592
vt 0.1196 0.4592
vt 0.1196 0.4694
vt 0.2609 0.4286
vt 0.2609 0.4184
vt 0.2663 0.4184
vt 0.1141 0.449
vt 0.1141 0.4388
vt 0.1196 0.4388
vt 0.462 0.1224
vt 0.462 -0
vt 0.5272 0.4898
vt 0.462 0.4898
vt 0.7228 0.3673
vt 0.6576 0
vt 0.7228 -0
vt 0.7989 0.9898
vt 0.9946 0.8673
vt 0.9293 0.5
vt 0.7337 0.6224
vt 0.2663 0.4286
vt 0.2717 0.6224
vt 0.3641 0.6327
vt 0.3696 0.4592
vt 0.2772 0.449
vt 0.1304 0.4796
vt 0.1141 0.4592
vt 0.1141 0.4694
vt 0.8641 0.9898
vt 0.9946 1
vt 0.25 0.449
vt 0.2609 0.449
vt 0.1196 0.4796
vt 0.1141 0.4796
vt 0.2609 0.4898
vt 0.2609 0.4796
vt 0.2663 0.4796
vt 0.2663 0.4082
vt 0.2609 0.4082
vt 0.1196 0.4898
vt 0.1304 0.4388
vt 0.2391 0.4082
vt 0.1902 0.4082
vt 0.1902 0.4184
vt 0.2609 0.6327
vt 0.1304 0.4286
vt 0.1196 0.4286
vt 0.1304 0.449
vt 0.25 0.4388
vt 0.3261 0.9082
vt 0.4565 0.2857
vt 0.1413 0.4184
vt 0.2663 0.4694
vt 0.2663 0.4592
vt 0.25 0.4796
vt 0.1141 0.4286
vt 0.1141 0.4082
vt 0.1141 0.4184
vt 0.1196 0.4184
vt 0.1413 0.4082
vt 0.25 0.4694
vt 0.2663 0.449
vt 0.2609 0.4388
vt 0.1304 0.4184
vt 0.413 0.8469
vt 0.1196 0.449
vt 0.25 0.4184
vt 0.25 0.4286
vt 0.413 0.9184
vt 0.2391 0.4184
vt 0.2609 0.9388
vt 1 0.5
vt 0.2781 0.7656
vt 0.2667 0.787
vt 0.2667 0.8454
vt 0.2936 0.8746
vt 0.3206 0.8454
vt 0.3206 0.787
vt 0.2936 0.7577
vt 0.3213 0.9691
vt 0.3255 0.9392
vt 0.3094 0.8876
vt 0.2776 0.8879
vt 0.2618 0.9398
vt 0.2778 0.9914
vt 0.3097 0.9911
vt 0.0652 1
vt -0 0.9694
vt -0 1
vt 0.2609 0.8776
vt 0.1957 0.8469
vt 0.2609 0.8469
vt 1 0.9898
vt 0.1304 0.7551
vt 0.0652 0.7245
vt 0.2663 0.4898
vt 0.125 0.4898
vt 0.125 0.4082
vt 0.1359 0.4898
vt 0.1359 0.4082
vt 0.2554 0.4898
vt 0.2554 0.4082
vt 0.2446 0.4898
vt 0.2446 0.4082
vt 0.2663 0.4388
vt 0.1196 0.4082
vt 0.4565 0.6122
vt 0.3804 0.7755
vt 0.3261 0.8163
vt 0.413 0.8571
vt 0.7283 0.9898
vt 0.7228 0.8673
vt 0.462 1
vt 0.5272 0.9898
vt 0.5272 1
vt 0.2609 0.6939
vt -0 0.8469
vt 0.2772 0.4388
vt 0.3641 0.4388
vt 0.413 0.898
vt 0.413 0.949
vt 0.413 0.9592
vt 0.2663 0.6224
vt 0.413 0.8673
vt 0.2609 0.8163
vt 0.1957 0.8163
vt -0 0.6939
vt 0.0652 0.6939
vt 0.4565 0.5
vt 0.462 0.6224
vt 0.4565 0.6224
vt 0.462 0.8673
vt 0.5272 0.8673
vt -0 0.7245
vt -0 0.7857
vt -0 0.6633
vt 0.3641 0.6429
vt 0.2772 0.6429
vt 0.5924 0.5
vt 0.5924 0.4898
vt 0.1304 0.9082
vt 0.1304 0.8776
vt 0.1304 0.8469
vt 0.1304 0.6939
vt 0.1304 0.6633
vt 0.5272 0.6224
vt 0.462 0.5
vt 0.5272 0.5
vt 0.6576 1
vt 0.7228 0.9898
vt 0.7228 1
vt 0.1304 0.7857
vt 0.1304 0.7245
vt 0.6576 0.7449
vt 0.7228 0.7449
vt 0.1304 0.6327
vt 0.7337 0.4898
vt 0.1304 0.9694
vt 0.1304 1
vt 0.8641 1
vt 0.1304 0.8163
vt 0.8641 0.4898
vt 0.8641 0.5
vt 0.7228 0.1224
vt 0.7228 0.2449
vt 0.462 0.7449
vt 0.4565 0.7449
vt 0.5924 0.8673
vt 0.5272 0.7449
vt 0.5924 0.7449
vt 0.6576 0.6224
vt 0.1304 0.9388
vt 0.7989 1
vt 0.7228 0.5
vt 0.7283 0.7449
vt 0.9946 0.7449
vt 0.5924 0.9898
vt 0.6576 0.8673
vt 0.462 0.3673
vt 0.462 0.2449
vt 0.7283 0.6224
vt 0.7283 0.5
vt 0.5924 1
vt 0.5924 0.6224
vt 0.9946 0.4898
vt 0.7228 0.6224
vt 1 0.8673
vt 0.7337 0.7449
vt 1 0.7449
vt 0.4565 0.8673
vt 0.462 0.9898
vt 0.4565 0.9898
vt 0.5272 0
vt 0.5924 0
vt 0.6576 0.9898
vt 0.9293 0.4898
vt 0.7337 1
s 1
f 111/1 135/2 110/3
f 90/4 73/5 66/6
f 632/7 629/8 630/9
f 892/10 889/11 891/12
f 906/13 909/14 910/15
f 236/16 233/17 235/18
f 80/19 42/20 46/21
f 148/4 131/5 154/22
f 862/23 859/24 861/25
f 123/26 117/27 124/28
f 155/29 125/30 149/31
f 1009/32 2/33 24/34
f 1001/35 24/34 7/36
f 991/37 7/36 5/38
f 973/39 5/38 2/33
f 1010/32 10/33 8/34
f 974/39 14/38 10/33
f 1000/37 12/36 14/38
f 989/35 8/34 12/36
f 115/40 131/41 114/42
f 860/43 857/44 859/24
f 202/45 203/46 204/47
f 978/48 9/49 11/50
f 1002/51 11/50 15/52
f 992/53 15/52 13/54
f 963/55 13/54 9/49
f 5/56 14/57 12/58
f 740/59 737/60 738/61
f 834/61 847/62 833/60
f 956/63 1030/64 1049/65
f 30/66 33/67 29/68
f 31/69 34/70 30/71
f 32/72 35/73 31/74
f 29/75 36/76 32/77
f 18/78 1037/79 1016/80
f 852/59 849/60 851/81
f 900/10 897/11 899/12
f 77/82 79/5 78/83
f 556/84 517/85 518/86
f 1036/87 933/88 1061/89
f 97/29 67/30 74/90
f 686/23 683/24 684/43
f 870/9 867/81 869/8
f 92/4 75/5 68/6
f 910/15 911/91 912/92
f 938/93 1088/94 1028/95
f 137/82 139/5 140/6
f 780/43 777/44 779/24
f 85/96 80/19 46/21
f 760/7 757/8 759/97
f 294/98 297/99 293/17
f 28/100 1073/101 1038/102
f 206/103 197/17 205/104
f 770/61 783/62 769/60
f 127/105 121/106 128/107
f 658/61 671/62 672/108
f 944/109 1070/110 1086/111
f 290/103 281/17 285/99
f 840/7 837/8 839/97
f 310/45 311/46 312/47
f 846/23 843/24 845/25
f 146/29 129/30 141/31
f 40/112 29/75 32/77
f 55/40 71/41 70/113
f 42/20 70/113 46/21
f 674/61 687/62 688/108
f 52/114 74/115 73/116
f 417/117 380/118 379/119
f 102/20 130/113 115/40
f 1058/120 913/10 1022/121
f 864/108 861/122 863/62
f 784/108 781/122 783/62
f 550/123 542/124 543/125
f 420/84 411/126 412/127
f 126/128 120/129 127/105
f 97/29 92/4 91/31
f 37/130 39/131 38/132
f 51/1 75/2 74/115
f 772/59 769/60 771/81
f 82/4 45/5 47/6
f 108/133 116/134 123/26
f 1079/135 925/136 1080/137
f 912/92 907/138 908/139
f 38/132 31/69 30/71
f 112/114 134/115 111/1
f 621/117 614/140 622/141
f 194/103 185/17 193/104
f 420/84 407/125 414/123
f 298/45 299/46 297/99
f 419/142 382/86 381/85
f 262/45 263/46 261/99
f 756/59 753/60 755/81
f 222/98 225/99 221/17
f 485/117 478/140 477/143
f 485/117 448/118 486/141
f 100/29 79/30 80/90
f 106/144 123/30 130/90
f 162/98 165/99 166/45
f 890/13 893/14 889/11
f 84/4 46/5 48/6
f 660/59 657/60 658/61
f 902/15 903/91 901/14
f 83/145 76/146 45/147
f 960/148 1072/149 1088/94
f 487/142 480/127 479/126
f 73/144 67/30 66/150
f 99/31 85/22 84/4
f 135/144 129/30 136/90
f 87/4 64/28 63/26
f 150/4 133/5 156/22
f 54/42 72/151 71/41
f 35/73 13/152 15/153
f 481/154 445/155 483/156
f 303/157 298/45 294/98
f 88/4 71/5 64/6
f 174/98 177/99 178/45
f 804/59 801/60 803/81
f 94/158 70/113 71/41
f 170/103 161/17 169/104
f 668/43 665/44 666/159
f 554/141 517/85 555/142
f 131/144 125/30 132/90
f 46/144 63/30 48/150
f 93/29 63/30 70/90
f 414/123 406/124 413/154
f 752/108 749/122 750/12
f 888/92 883/138 884/139
f 617/154 592/160 619/156
f 159/31 145/22 160/29
f 128/107 122/161 129/162
f 547/126 556/84 548/127
f 308/16 305/17 306/98
f 636/43 633/44 634/159
f 774/9 771/81 773/8
f 279/157 274/45 270/98
f 844/43 841/44 843/24
f 153/29 123/30 147/31
f 788/59 785/60 787/81
f 940/18 1028/163 1047/164
f 165/99 170/165 167/46
f 246/98 249/99 245/17
f 163/18 169/166 161/17
f 162/98 171/167 164/16
f 164/16 161/17 162/98
f 168/47 172/168 166/45
f 125/169 119/170 126/128
f 666/159 663/97 664/7
f 155/29 150/4 156/22
f 177/99 182/165 179/46
f 634/159 631/97 632/7
f 175/18 181/166 173/17
f 174/98 183/167 176/16
f 53/171 73/116 72/151
f 180/47 184/168 178/45
f 790/9 787/81 789/8
f 146/29 142/4 143/22
f 676/59 673/60 674/61
f 189/99 194/165 191/46
f 346/45 347/46 348/47
f 187/18 193/166 185/17
f 186/98 195/167 188/16
f 414/123 375/172 376/173
f 192/47 196/168 190/45
f 766/23 763/24 765/25
f 27/174 1052/175 1032/176
f 242/103 233/17 237/99
f 201/99 206/165 203/46
f 98/177 74/115 75/2
f 199/18 205/166 197/17
f 198/98 207/167 200/16
f 272/16 269/17 271/18
f 204/47 208/168 202/45
f 413/154 388/160 415/156
f 836/59 833/60 835/81
f 25/178 1075/179 1064/180
f 213/99 215/46 218/165
f 238/45 239/46 237/99
f 211/18 209/17 217/166
f 210/98 212/16 219/167
f 270/98 273/99 269/17
f 216/47 214/45 220/168
f 291/157 286/45 282/98
f 26/181 1095/182 1017/183
f 820/59 817/60 819/81
f 225/99 227/46 230/165
f 48/133 56/134 44/184
f 223/18 221/17 229/166
f 222/98 224/16 231/167
f 255/157 250/45 246/98
f 228/47 226/45 232/168
f 267/157 262/45 258/98
f 768/108 765/122 767/62
f 188/16 185/17 186/98
f 237/99 239/46 242/165
f 218/103 209/17 213/99
f 235/18 233/17 241/166
f 234/98 236/16 243/167
f 680/7 677/8 678/9
f 240/47 238/45 244/168
f 234/98 237/99 233/17
f 876/43 873/44 875/24
f 214/45 215/46 213/99
f 249/99 251/46 254/165
f 99/185 48/133 79/186
f 247/18 245/17 253/166
f 246/98 248/16 255/167
f 327/157 322/45 328/187
f 252/47 250/45 256/168
f 662/9 659/81 660/59
f 190/45 191/46 192/47
f 896/92 891/138 895/91
f 261/99 263/46 266/165
f 124/28 118/188 125/169
f 259/18 257/17 265/166
f 258/98 260/16 267/167
f 638/23 635/24 636/43
f 264/47 262/45 268/168
f 231/157 226/45 222/98
f 624/84 615/126 616/127
f 682/159 679/97 680/7
f 273/99 275/46 278/165
f 626/61 639/62 640/108
f 271/18 269/17 277/166
f 270/98 272/16 279/167
f 224/16 221/17 223/18
f 276/47 274/45 280/168
f 230/103 221/17 225/99
f 856/7 853/8 855/97
f 417/117 410/140 418/141
f 285/99 287/46 290/165
f 24/189 8/190 10/191
f 283/18 281/17 289/166
f 282/98 284/16 291/167
f 207/157 202/45 208/187
f 288/47 286/45 292/168
f 183/157 178/45 184/187
f 332/16 329/17 330/98
f 338/103 329/17 337/104
f 297/99 299/46 302/165
f 67/105 61/106 60/129
f 295/18 293/17 301/166
f 294/98 296/16 303/167
f 86/29 82/4 81/31
f 300/47 298/45 304/168
f 66/128 60/129 59/170
f 75/144 69/30 68/150
f 684/43 681/44 682/159
f 309/99 314/165 311/46
f 154/158 130/113 153/192
f 307/18 313/166 305/17
f 306/98 315/167 308/16
f 144/4 106/5 145/22
f 312/47 316/168 310/45
f 140/19 102/20 137/193
f 153/29 148/4 154/22
f 1033/194 921/195 1057/196
f 321/99 326/165 323/46
f 734/23 731/24 732/43
f 319/18 325/166 317/17
f 318/98 327/167 320/16
f 320/16 317/17 318/98
f 324/47 328/168 322/45
f 481/154 456/160 474/124
f 1020/197 929/198 1042/199
f 732/43 729/44 730/159
f 333/99 338/165 335/46
f 334/45 335/46 336/47
f 331/18 337/166 329/17
f 330/98 339/167 332/16
f 282/98 285/99 281/17
f 336/47 340/168 334/45
f 296/16 293/17 295/18
f 812/43 809/44 811/24
f 314/103 305/17 313/104
f 345/99 350/165 347/46
f 818/61 831/62 817/60
f 343/18 349/166 341/17
f 342/98 351/167 344/16
f 482/123 474/124 475/125
f 348/47 352/168 346/45
f 254/103 245/17 249/99
f 158/177 134/115 157/200
f 948/201 1029/202 1048/203
f 37/130 30/66 29/68
f 776/7 773/8 775/97
f 151/6 128/107 152/204
f 886/15 887/91 888/92
f 157/29 127/30 151/31
f 621/117 584/118 583/119
f 258/98 261/99 257/17
f 342/98 345/99 346/45
f 548/127 550/123 543/125
f 86/29 69/30 76/90
f 884/10 881/11 882/13
f 159/185 108/133 144/31
f 110/3 136/146 109/205
f 934/206 930/207 926/208
f 950/208 938/209 946/210
f 951/211 939/212 955/213
f 947/214 943/215 939/212
f 634/159 633/44 631/97
f 159/31 144/4 145/22
f 420/84 419/142 411/126
f 618/123 624/84 616/127
f 1020/197 931/216 929/198
f 405/217 398/218 384/219
f 93/29 87/31 63/30
f 505/220 512/173 518/86
f 442/221 435/222 422/223
f 392/224 390/225 389/226
f 569/227 571/228 570/229
f 1009/32 1074/230 16/231
f 1001/35 1091/232 17/233
f 991/37 1076/234 18/78
f 973/39 1090/235 19/236
f 1010/32 1095/230 20/231
f 974/39 1052/235 22/236
f 1000/37 1073/234 23/78
f 989/35 1075/232 21/233
f 296/16 294/98 293/17
f 744/7 743/97 741/8
f 752/108 751/62 749/122
f 978/48 1093/237 25/178
f 1002/51 1082/238 26/181
f 992/53 1094/239 27/174
f 963/55 1018/240 28/100
f 526/225 528/224 527/241
f 86/29 81/31 69/30
f 151/6 127/105 128/107
f 146/29 141/31 142/4
f 30/66 34/242 33/67
f 31/69 35/243 34/70
f 32/72 36/244 35/73
f 29/75 33/245 36/76
f 128/107 121/106 122/161
f 258/98 262/45 261/99
f 157/29 151/31 152/4
f 668/43 667/24 665/44
f 38/132 39/131 31/69
f 580/173 579/172 572/246
f 131/144 124/150 125/30
f 498/222 499/247 497/248
f 978/48 965/249 1093/237
f 418/141 410/140 411/126
f 774/9 772/59 771/81
f 346/45 345/99 347/46
f 35/73 36/244 13/152
f 110/3 135/2 136/146
f 94/158 93/192 70/113
f 804/59 802/61 801/60
f 26/181 20/250 1095/182
f 404/251 396/252 398/218
f 164/16 163/18 161/17
f 578/221 573/220 558/223
f 284/16 282/98 281/17
f 212/16 210/98 209/17
f 358/253 359/254 361/248
f 314/103 309/99 305/17
f 592/255 590/256 589/257
f 48/133 63/26 56/134
f 455/258 456/259 458/225
f 369/220 374/221 382/86
f 589/257 590/256 588/219
f 170/103 165/99 161/17
f 46/144 70/90 63/30
f 541/217 540/251 547/126
f 414/123 413/154 375/172
f 485/117 447/119 448/118
f 788/59 786/61 785/60
f 272/16 270/98 269/17
f 502/229 503/228 501/227
f 226/45 228/47 227/46
f 493/260 494/253 495/254
f 508/261 516/118 515/119
f 524/262 551/263 552/264
f 940/18 938/265 1028/163
f 547/126 555/142 556/84
f 279/157 280/187 274/45
f 948/201 946/167 1029/202
f 508/261 507/266 497/267
f 576/261 584/118 585/85
f 567/229 576/261 577/268
f 416/264 415/263 388/262
f 554/141 516/118 517/85
f 403/269 410/140 409/143
f 617/154 610/124 592/160
f 140/19 106/21 102/20
f 129/162 122/161 103/270
f 64/28 65/169 58/188
f 153/29 130/90 123/30
f 856/7 854/9 853/8
f 24/189 2/271 8/190
f 320/16 319/18 317/17
f 155/29 149/31 150/4
f 615/126 608/251 609/217
f 378/272 379/119 371/266
f 452/219 451/273 465/274
f 282/98 286/45 285/99
f 904/92 900/139 899/138
f 543/125 542/124 535/275
f 422/276 435/228 434/229
f 680/7 679/97 677/8
f 37/130 38/132 30/66
f 445/277 424/278 423/279
f 558/276 560/278 559/279
f 125/169 118/188 119/170
f 549/154 511/172 513/155
f 377/280 415/263 416/264
f 611/125 604/281 603/275
f 135/144 128/150 129/30
f 950/208 954/207 938/209
f 599/282 600/252 598/283
f 54/42 53/171 72/151
f 106/144 108/150 123/30
f 563/279 574/284 575/266
f 624/84 623/142 615/126
f 626/61 625/60 639/62
f 486/141 448/118 449/85
f 638/23 637/25 635/24
f 430/222 431/247 429/248
f 434/229 435/228 433/227
f 520/219 522/256 521/257
f 581/280 619/263 620/264
f 308/16 307/18 305/17
f 534/218 532/252 540/251
f 262/45 264/47 263/46
f 609/217 602/218 588/219
f 468/281 473/217 480/127
f 452/219 454/256 453/257
f 588/219 602/218 601/274
f 361/267 371/266 372/261
f 267/157 268/187 262/45
f 618/123 617/154 579/172
f 467/275 468/281 475/125
f 99/31 100/29 85/22
f 338/103 333/99 329/17
f 756/59 754/61 753/60
f 66/128 67/105 60/129
f 334/45 333/99 335/46
f 124/28 117/27 118/188
f 222/98 226/45 225/99
f 87/4 88/285 64/28
f 552/264 551/263 513/280
f 231/157 232/187 226/45
f 558/276 557/267 570/229
f 481/154 443/172 445/155
f 363/247 365/227 364/286
f 224/16 222/98 221/17
f 441/268 440/261 431/229
f 144/4 108/6 106/5
f 458/225 469/287 470/288
f 384/219 398/218 397/274
f 414/123 407/125 406/124
f 327/157 318/98 322/45
f 246/98 250/45 249/99
f 83/145 86/289 76/146
f 108/133 104/184 116/134
f 190/45 189/99 191/46
f 411/126 404/251 405/217
f 214/45 216/47 215/46
f 182/103 177/99 173/17
f 487/142 488/84 480/127
f 400/281 384/219 386/256
f 734/23 733/25 731/24
f 112/114 133/116 134/115
f 660/59 659/81 657/60
f 403/269 402/288 392/224
f 876/43 874/159 873/44
f 563/254 565/248 564/223
f 99/185 84/31 48/133
f 417/117 416/264 408/290
f 496/223 497/248 495/254
f 482/123 481/154 474/124
f 896/92 892/139 891/138
f 195/157 186/98 190/45
f 84/4 85/22 46/5
f 381/85 382/86 374/221
f 230/103 229/104 221/17
f 608/251 607/269 598/283
f 951/211 947/214 939/212
f 404/251 403/269 394/283
f 902/15 904/92 903/91
f 356/253 354/223 369/220
f 456/262 483/263 484/264
f 642/61 641/60 655/62
f 73/144 74/90 67/30
f 621/117 613/143 614/140
f 514/272 506/284 507/266
f 539/269 538/288 545/143
f 812/43 810/159 809/44
f 960/148 958/291 1072/149
f 303/157 304/187 298/45
f 351/157 342/98 346/45
f 291/157 292/187 286/45
f 520/219 519/273 533/274
f 100/29 99/31 79/30
f 255/157 256/187 250/45
f 820/59 818/61 817/60
f 565/267 575/266 576/261
f 768/108 766/12 765/122
f 45/5 41/83 43/82
f 162/98 161/17 165/99
f 357/260 377/14 359/254
f 836/59 834/61 833/60
f 544/290 545/143 538/288
f 890/13 894/15 893/14
f 582/272 620/264 621/117
f 238/45 240/47 239/46
f 157/29 134/90 127/30
f 270/98 274/45 273/99
f 512/173 505/220 504/246
f 88/4 94/22 71/5
f 154/158 131/41 130/113
f 188/16 187/18 185/17
f 183/157 174/98 178/45
f 420/84 412/127 407/125
f 260/16 258/98 257/17
f 607/269 606/288 596/224
f 27/174 22/292 1052/175
f 342/98 341/17 345/99
f 554/141 555/142 547/126
f 604/281 588/219 590/256
f 242/103 241/104 233/17
f 476/290 484/264 485/117
f 872/7 870/9 869/8
f 617/154 619/156 581/155
f 218/103 217/104 209/17
f 368/246 369/220 376/173
f 510/221 503/222 490/223
f 678/9 677/8 675/81
f 636/43 635/24 633/44
f 481/154 483/156 456/160
f 918/293 916/294 914/209
f 914/209 936/295 934/206
f 934/206 932/296 930/207
f 930/207 928/297 926/208
f 926/208 924/298 918/293
f 924/298 922/210 918/293
f 922/210 920/299 918/293
f 565/267 576/261 567/229
f 922/167 1083/111 920/109
f 935/300 913/301 915/212
f 915/212 917/302 919/215
f 919/215 921/303 923/214
f 923/214 925/304 927/211
f 927/211 929/305 935/300
f 929/305 931/213 935/300
f 931/213 933/306 935/300
f 1097/307 959/308 937/309
f 919/215 923/214 927/211
f 938/209 940/294 942/293
f 942/293 944/299 946/210
f 946/210 948/298 950/208
f 950/208 952/297 954/207
f 954/207 956/296 958/206
f 958/206 960/295 954/207
f 960/295 938/209 954/207
f 938/209 942/293 946/210
f 930/310 1084/311 928/312
f 939/212 937/301 959/300
f 959/300 957/306 939/212
f 957/306 955/213 939/212
f 955/213 953/305 951/211
f 951/211 949/304 947/214
f 947/214 945/303 943/215
f 943/215 941/302 939/212
f 914/209 926/208 918/293
f 1082/238 20/313 26/181
f 422/276 434/229 421/267
f 365/227 366/229 364/286
f 455/258 458/225 457/226
f 429/248 426/253 428/223
f 430/222 429/248 428/223
f 357/260 359/254 358/253
f 971/314 1081/315 1039/196
f 388/255 385/257 387/316
f 354/276 355/279 353/267
f 450/86 437/220 444/173
f 509/268 499/229 501/286
f 377/317 356/253 368/246
f 440/261 429/267 431/229
f 578/221 558/223 571/222
f 437/220 424/253 436/246
f 359/279 377/318 370/284
f 441/268 431/229 433/286
f 171/157 166/45 172/187
f 471/269 479/126 472/251
f 442/221 422/223 437/220
f 377/319 368/246 375/172
f 411/126 405/217 412/127
f 576/261 583/119 584/118
f 370/284 377/320 378/272
f 467/275 475/125 474/124
f 484/264 445/280 446/272
f 488/84 475/125 480/127
f 550/123 511/172 549/154
f 618/123 579/172 580/173
f 476/290 485/117 477/143
f 904/92 899/138 903/91
f 91/6 68/107 67/105
f 384/219 397/274 383/273
f 464/252 465/274 463/282
f 363/247 364/286 362/222
f 563/254 564/223 562/253
f 496/223 495/254 494/253
f 432/286 431/247 430/222
f 439/266 427/279 429/267
f 491/279 490/276 489/267
f 423/279 422/276 421/267
f 468/281 480/127 475/125
f 441/268 435/222 442/221
f 388/321 399/275 386/256
f 446/272 439/266 447/119
f 452/219 473/217 468/281
f 573/220 560/253 558/223
f 390/225 401/287 388/322
f 462/283 472/251 464/252
f 286/45 287/46 285/99
f 449/85 440/261 441/268
f 476/290 470/288 469/287
f 388/323 406/124 399/275
f 479/126 473/217 472/251
f 440/261 447/119 439/266
f 401/287 408/290 388/324
f 436/246 444/173 437/220
f 456/262 484/264 476/290
f 182/103 173/17 181/104
f 274/45 275/46 273/99
f 93/29 88/4 87/31
f 485/117 446/272 447/119
f 744/7 741/8 742/9
f 113/171 133/116 112/114
f 595/241 594/225 593/226
f 377/277 355/279 356/278
f 387/258 390/225 388/259
f 361/248 362/222 360/223
f 565/248 566/222 564/223
f 462/283 463/282 461/325
f 458/225 470/288 460/224
f 456/255 453/257 454/256
f 385/257 384/219 383/273
f 604/281 616/127 609/217
f 404/251 394/283 396/252
f 445/317 436/246 424/253
f 403/269 392/224 394/283
f 405/217 384/219 400/281
f 400/281 386/256 399/275
f 427/279 438/284 445/318
f 472/251 466/218 464/252
f 413/154 377/155 375/172
f 539/269 547/126 540/251
f 408/290 402/288 409/143
f 445/319 443/172 436/246
f 381/85 374/221 373/268
f 379/119 372/261 371/266
f 438/284 446/272 445/320
f 454/256 468/281 467/275
f 417/117 408/290 409/143
f 63/26 57/27 56/134
f 278/103 269/17 273/99
f 646/9 643/81 644/59
f 378/272 417/117 379/119
f 176/16 173/17 174/98
f 642/61 655/62 656/108
f 354/276 366/229 367/228
f 397/274 396/252 395/282
f 581/277 559/279 560/278
f 597/325 596/224 595/241
f 457/226 460/224 459/241
f 425/260 427/254 445/14
f 359/279 371/266 361/267
f 434/229 433/227 432/286
f 452/219 453/257 451/273
f 369/220 382/86 376/173
f 373/268 367/222 365/286
f 456/321 454/256 467/275
f 361/267 372/261 363/229
f 354/223 374/221 369/220
f 356/253 369/220 368/246
f 458/225 456/322 469/287
f 363/229 373/268 365/286
f 129/162 103/270 107/147
f 576/261 585/85 577/268
f 378/272 371/266 370/284
f 456/323 467/275 474/124
f 372/261 381/85 373/268
f 508/261 515/119 507/266
f 469/287 456/324 476/290
f 543/125 535/275 536/281
f 377/280 416/264 378/272
f 284/16 281/17 283/18
f 874/159 871/97 873/44
f 212/16 209/17 211/18
f 567/247 568/286 566/222
f 872/7 869/8 871/97
f 157/29 152/4 158/22
f 589/257 588/219 587/273
f 601/274 600/252 599/282
f 523/258 526/225 525/226
f 498/222 497/248 496/223
f 528/224 529/325 527/241
f 493/260 495/254 513/14
f 563/279 575/266 565/267
f 524/255 521/257 522/256
f 558/276 570/229 571/228
f 573/220 586/86 580/173
f 534/218 540/251 541/217
f 513/317 504/246 492/253
f 607/269 596/224 598/283
f 609/217 588/219 604/281
f 604/281 590/256 603/275
f 495/279 506/284 513/318
f 608/251 598/283 600/252
f 617/154 581/155 579/172
f 615/126 607/269 608/251
f 612/290 606/288 613/143
f 513/319 511/172 504/246
f 615/126 609/217 616/127
f 403/269 409/143 402/288
f 506/284 514/272 513/320
f 611/125 603/275 610/124
f 524/262 552/264 544/290
f 195/157 190/45 196/187
f 260/16 257/17 259/18
f 678/9 675/81 676/59
f 416/264 388/262 408/290
f 486/141 449/85 487/142
f 486/141 479/126 478/140
f 558/276 559/279 557/267
f 569/227 570/229 568/286
f 599/282 598/283 597/325
f 392/224 389/226 391/241
f 526/225 527/241 525/226
f 500/286 499/247 498/222
f 402/288 390/225 392/224
f 445/277 423/279 425/326
f 520/219 521/257 519/273
f 505/220 518/86 510/221
f 404/251 398/218 405/217
f 524/321 522/256 535/275
f 508/261 497/267 499/229
f 510/221 490/223 505/220
f 505/220 492/253 504/246
f 526/225 524/322 537/287
f 567/229 577/268 569/286
f 418/141 411/126 419/142
f 935/300 919/215 927/211
f 368/246 376/173 375/172
f 524/323 535/275 542/124
f 578/221 585/85 586/86
f 606/288 594/225 596/224
f 537/287 524/324 544/290
f 580/173 572/246 573/220
f 581/280 620/264 582/272
f 45/5 43/82 47/6
f 50/3 76/146 75/2
f 866/61 879/62 865/60
f 582/272 621/117 583/119
f 351/157 346/45 352/187
f 64/28 58/188 57/27
f 452/219 465/274 466/218
f 513/277 491/279 493/326
f 530/283 531/282 529/325
f 358/253 361/248 360/223
f 460/224 461/325 459/241
f 591/258 594/225 592/259
f 526/225 538/288 528/224
f 592/255 589/257 591/316
f 520/219 533/274 534/218
f 607/269 613/143 606/288
f 509/268 503/222 510/221
f 581/317 560/253 572/246
f 528/224 539/269 530/283
f 541/217 520/219 534/218
f 536/281 522/256 520/219
f 563/279 581/318 574/284
f 541/217 547/126 548/127
f 95/29 65/30 72/90
f 517/85 508/261 509/268
f 514/272 507/266 515/119
f 581/319 572/246 579/172
f 517/85 510/221 518/86
f 539/269 545/143 546/140
f 574/284 581/320 582/272
f 512/173 504/246 511/172
f 621/117 612/290 613/143
f 554/141 547/126 546/140
f 618/123 616/127 611/125
f 670/23 667/24 668/43
f 620/264 592/262 612/290
f 226/45 227/46 225/99
f 549/154 513/155 551/156
f 588/219 601/274 587/273
f 532/252 533/274 531/282
f 561/260 563/254 562/253
f 393/325 392/224 391/241
f 608/251 602/218 609/217
f 395/282 394/283 393/325
f 507/266 495/279 497/267
f 502/229 501/227 500/286
f 490/276 502/229 489/267
f 536/281 548/127 543/125
f 571/222 577/268 578/221
f 592/321 603/275 590/256
f 460/224 471/269 462/283
f 582/272 575/266 574/284
f 412/127 400/281 407/125
f 594/225 605/287 592/322
f 530/283 540/251 532/252
f 7/327 10/328 14/57
f 411/126 403/269 404/251
f 544/290 538/288 537/287
f 592/323 610/124 603/275
f 449/85 442/221 450/86
f 477/143 471/269 470/288
f 605/287 612/290 592/324
f 399/275 407/125 400/281
f 552/264 513/280 514/272
f 622/141 615/126 623/142
f 243/157 238/45 234/98
f 664/7 661/8 662/9
f 553/117 514/272 515/119
f 750/23 747/24 748/43
f 152/4 135/5 158/22
f 147/4 124/28 148/285
f 712/7 709/8 710/9
f 618/123 610/124 617/154
f 138/329 108/133 139/186
f 782/23 779/24 781/25
f 420/84 376/173 382/86
f 656/108 653/122 654/12
f 630/9 627/81 628/59
f 143/145 136/146 146/289
f 654/23 651/24 652/43
f 553/117 516/118 554/141
f 786/61 799/62 785/60
f 724/59 721/60 722/61
f 553/117 546/140 545/143
f 736/108 733/122 734/12
f 622/141 585/85 584/118
f 838/9 835/81 837/8
f 648/7 645/8 646/9
f 640/108 637/122 638/12
f 652/43 649/44 650/159
f 65/169 59/170 58/188
f 488/84 444/173 482/123
f 720/108 717/122 718/12
f 71/144 65/30 64/150
f 89/330 66/128 65/169
f 488/84 449/85 450/86
f 550/123 518/86 512/173
f 810/159 807/97 809/44
f 878/23 875/24 877/25
f 482/123 443/172 481/154
f 19/331 1034/332 1031/179
f 808/7 805/8 807/97
f 1061/89 931/216 1020/197
f 16/333 1054/334 1040/335
f 728/7 725/8 726/9
f 219/157 214/45 210/98
f 942/336 1047/164 1070/110
f 178/45 179/46 180/47
f 688/108 685/122 686/12
f 742/9 739/81 740/59
f 306/98 309/99 310/45
f 650/159 647/97 648/7
f 586/86 618/123 580/173
f 2/271 12/58 8/190
f 854/9 851/81 853/8
f 778/159 775/97 777/44
f 704/108 701/122 702/12
f 585/85 624/84 586/86
f 326/103 317/17 325/104
f 746/159 743/97 744/7
f 1042/199 927/337 1079/135
f 850/61 863/62 849/60
f 36/76 9/338 13/339
f 706/61 719/62 720/108
f 696/7 693/8 694/9
f 716/43 713/44 714/159
f 882/13 885/14 886/15
f 248/16 245/17 247/18
f 672/108 669/122 670/12
f 794/159 791/97 793/44
f 250/45 251/46 249/99
f 690/61 703/62 704/108
f 549/154 524/160 542/124
f 700/43 697/44 698/159
f 105/5 103/82 101/83
f 644/59 641/60 642/61
f 344/16 341/17 342/98
f 726/9 723/81 724/59
f 166/45 167/46 168/47
f 145/96 140/19 160/82
f 133/144 127/30 134/90
f 49/205 45/147 76/146
f 748/43 745/44 746/159
f 210/98 213/99 209/17
f 339/157 334/45 340/187
f 798/23 795/24 797/25
f 802/61 815/62 801/60
f 628/59 625/60 626/61
f 694/9 691/81 692/59
f 814/23 811/24 813/25
f 796/43 793/44 795/24
f 200/16 197/17 198/98
f 418/141 381/85 380/118
f 718/23 715/24 716/43
f 141/340 107/147 142/145
f 758/9 755/81 757/8
f 848/108 845/122 847/62
f 730/159 727/97 728/7
f 156/341 132/151 155/342
f 698/159 695/97 696/7
f 800/108 797/122 799/62
f 762/159 759/97 761/44
f 764/43 761/44 763/24
f 722/61 735/62 736/108
f 78/329 48/133 44/184
f 33/67 11/343 9/274
f 828/43 825/44 827/24
f 186/98 189/99 190/45
f 302/103 293/17 297/99
f 714/159 711/97 712/7
f 81/340 47/147 69/162
f 322/45 323/46 324/47
f 69/162 43/270 62/161
f 109/205 105/147 101/270
f 198/98 201/99 202/45
f 958/291 1049/65 1072/149
f 868/59 865/60 867/81
f 826/159 823/97 825/44
f 350/103 341/17 349/104
f 142/4 105/5 143/22
f 824/7 821/8 823/97
f 149/330 126/128 150/344
f 330/98 333/99 334/45
f 830/23 827/24 829/25
f 816/108 813/122 815/62
f 842/159 839/97 841/44
f 806/9 803/81 805/8
f 822/9 819/81 821/8
f 792/7 789/8 791/97
f 702/23 699/24 700/43
f 832/108 829/122 831/62
f 950/345 1048/203 1071/346
f 315/157 310/45 316/187
f 858/159 855/97 857/44
f 68/107 62/161 61/106
f 754/61 767/62 753/60
f 114/42 132/151 113/171
f 160/29 139/30 159/31
f 894/15 895/91 893/14
f 708/59 705/60 706/61
f 898/13 901/14 897/11
f 710/9 707/81 708/59
f 95/29 90/4 89/31
f 738/61 751/62 752/108
f 908/10 905/11 906/13
f 954/310 1087/311 1030/64
f 318/98 321/99 322/45
f 266/103 257/17 261/99
f 1035/315 917/347 1053/348
f 17/349 1014/350 1089/351
f 1054/334 1019/352 1101/353
f 692/59 689/60 690/61
f 880/108 877/122 879/62
f 1057/196 919/354 1035/315
f 96/341 72/151 73/116
f 1080/137 923/355 1033/194
f 39/131 32/72 31/74
f 544/290 553/117 545/143
f 1022/307 935/308 1036/87
f 1053/348 915/356 1058/120
f 952/312 1071/346 1087/311
f 34/70 15/357 11/358
f 1016/80 977/359 964/360
f 974/39 22/236 14/38
f 740/59 739/81 737/60
f 982/361 1042/199 969/362
f 1039/196 943/354 945/195
f 834/61 848/108 847/62
f 1007/363 1066/137 1077/135
f 1010/32 20/231 10/33
f 1049/65 972/362 985/361
f 1017/183 965/249 11/50
f 993/364 1058/120 980/365
f 1099/366 3/367 1065/368
f 1090/369 4/370 19/371
f 984/372 1039/196 1063/194
f 968/314 1035/315 1003/373
f 485/117 486/141 478/140
f 932/63 1027/64 930/310
f 1034/332 1056/374 986/375
f 1066/137 947/355 949/136
f 972/362 1077/135 1092/199
f 1044/164 967/376 1025/163
f 28/100 23/377 1073/101
f 462/283 464/252 463/282
f 385/257 386/256 384/219
f 608/251 600/252 602/218
f 780/43 778/159 777/44
f 615/126 614/140 607/269
f 844/43 842/159 841/44
f 1028/95 1008/378 970/379
f 973/39 19/236 5/38
f 956/63 954/310 1030/64
f 1017/183 987/380 965/249
f 1004/363 1080/137 994/381
f 77/82 80/6 79/5
f 1068/346 981/372 1045/203
f 155/29 132/90 125/30
f 1038/102 999/382 979/383
f 1041/384 999/385 14/38
f 1089/351 961/386 1011/387
f 936/148 1069/149 934/291
f 1091/232 3/367 17/233
f 1016/80 964/360 7/36
f 1023/388 1021/389 1013/390
f 517/85 509/268 510/221
f 1100/391 977/359 1037/79
f 1055/120 937/10 939/356
f 924/201 1026/202 922/167
f 998/392 1060/197 1096/89
f 965/249 1051/393 1093/237
f 770/61 784/108 783/62
f 573/220 578/221 586/86
f 363/229 372/261 373/268
f 490/276 503/228 502/229
f 760/7 758/9 757/8
f 82/4 83/22 45/5
f 372/261 380/118 381/85
f 1086/111 996/364 1006/373
f 1000/37 23/78 12/36
f 18/78 6/394 1037/79
f 1048/203 971/314 984/372
f 1031/179 986/375 975/395
f 900/10 898/13 897/11
f 1025/95 1005/378 1085/94
f 1001/35 17/233 24/34
f 1005/378 1061/89 995/392
f 1032/176 976/396 15/52
f 962/397 1101/353 1023/388
f 934/291 1046/65 932/63
f 1098/398 1013/390 1056/374
f 1089/399 1011/400 24/34
f 994/381 1033/194 981/372
f 612/290 605/287 606/288
f 1076/401 6/394 18/402
f 920/109 1067/110 918/336
f 914/93 1085/94 936/148
f 997/381 1063/194 1066/137
f 1045/203 968/314 1026/202
f 294/98 298/45 297/99
f 601/274 602/218 600/252
f 354/276 353/267 366/229
f 582/272 583/119 575/266
f 85/96 100/82 80/19
f 150/4 126/6 133/5
f 457/226 458/225 460/224
f 111/1 134/115 135/2
f 1009/32 16/231 2/33
f 5/56 7/327 14/57
f 1070/110 983/365 996/364
f 1040/335 962/397 1012/403
f 852/59 850/61 849/60
f 1067/110 980/365 1044/164
f 991/37 18/78 7/36
f 90/4 96/22 73/5
f 1062/80 990/360 12/36
f 967/379 1036/87 1005/378
f 1059/404 1065/368 977/359
f 1094/239 22/405 27/174
f 1046/65 969/362 1027/64
f 1101/353 961/386 1021/389
f 666/159 665/44 663/97
f 1024/348 939/356 941/347
f 4/370 1098/398 1034/332
f 918/336 1044/164 916/18
f 996/364 1055/120 1024/348
f 1084/311 994/381 1068/346
f 206/103 201/99 197/17
f 194/103 189/99 185/17
f 565/248 567/247 566/222
f 1079/135 927/337 925/136
f 137/82 138/83 139/5
f 866/61 880/108 879/62
f 486/141 487/142 479/126
f 123/26 116/134 117/27
f 992/53 27/174 15/52
f 97/29 91/31 67/30
f 1088/94 998/392 1008/378
f 1047/164 970/376 983/365
f 686/23 685/25 683/24
f 1056/374 1059/404 1100/391
f 978/48 25/178 9/49
f 80/19 77/193 42/20
f 975/395 1050/406 1076/401
f 1030/64 1007/363 972/362
f 1043/87 957/88 959/308
f 985/361 1092/199 1060/197
f 1051/399 987/400 8/34
f 1087/311 997/381 1007/363
f 413/154 415/156 377/155
f 986/375 1100/391 1050/406
f 970/379 1043/87 1097/307
f 1096/89 955/216 957/88
f 1027/64 1004/363 1084/311
f 976/396 1078/407 1082/238
f 840/7 838/9 837/8
f 456/255 455/316 453/257
f 379/119 380/118 372/261
f 359/279 370/284 371/266
f 127/105 120/129 121/106
f 412/127 405/217 400/281
f 912/92 911/91 907/138
f 892/10 890/13 889/11
f 202/45 201/99 203/46
f 1036/87 935/308 933/88
f 1064/180 990/395 966/408
f 1032/176 988/409 976/396
f 870/9 868/59 867/81
f 1026/202 1003/373 1083/111
f 989/35 21/233 8/34
f 906/13 905/11 909/14
f 1064/180 966/408 9/49
f 1003/373 1053/348 993/364
f 1074/410 1/411 16/412
f 1029/202 1006/373 971/314
f 1040/413 1012/414 2/33
f 1063/194 945/195 947/355
f 536/281 541/217 548/127
f 1060/197 953/198 955/216
f 1006/373 1024/348 1081/315
f 916/18 1025/163 914/265
f 1011/387 1019/352 1074/410
f 1008/378 1096/89 1043/87
f 290/103 289/104 281/17
f 528/224 530/283 529/325
f 935/300 915/212 919/215
f 561/260 581/14 563/254
f 146/29 136/90 129/30
f 298/45 300/47 299/46
f 373/268 374/221 367/222
f 632/7 631/97 629/8
f 963/55 28/100 13/54
f 92/4 98/22 75/5
f 981/372 1057/196 968/314
f 995/392 1020/197 982/361
f 938/93 960/148 1088/94
f 1021/389 1014/350 1099/366
f 860/43 858/159 857/44
f 236/16 234/98 233/17
f 1069/149 982/361 1046/65
f 1071/346 984/372 997/381
f 1081/315 941/347 943/354
f 1018/240 23/402 28/100
f 1031/384 975/385 5/38
f 1092/199 951/337 953/198
f 567/247 569/227 568/286
f 928/312 1068/346 926/345
f 1085/94 995/392 1069/149
f 926/345 1045/203 924/201
f 1083/111 993/364 1067/110
f 983/365 1097/121 1055/120
f 944/109 942/336 1070/110
f 393/325 394/283 392/224
f 278/103 277/104 269/17
f 581/277 561/326 559/279
f 846/23 844/43 843/24
f 472/251 473/217 466/218
f 530/283 539/269 540/251
f 862/23 860/43 859/24
f 115/40 130/113 131/41
f 910/15 909/14 911/91
f 980/365 1022/121 967/376
f 969/362 1079/135 1004/363
f 556/84 555/142 517/85
f 1015/415 1023/388 1098/398
f 1002/51 26/181 11/50
f 148/4 124/6 131/5
f 1038/102 979/383 13/54
f 1072/149 985/361 998/392
f 1013/390 1099/366 1059/404
f 964/360 1065/368 1091/232
f 1078/413 988/414 10/33
f 1077/135 949/136 951/337
f 888/92 887/91 883/138
f 1050/406 1037/79 6/394
f 979/383 1041/416 1094/239
f 1093/237 21/417 25/178
f 1012/403 1015/415 1090/369
f 966/408 1062/401 1018/240
f 310/45 309/99 311/46
f 784/108 782/12 781/122
f 63/26 64/28 57/27
f 864/108 862/12 861/122
f 658/61 657/60 671/62
f 423/279 424/278 422/276
f 354/223 367/222 374/221
f 484/264 483/263 445/280
f 378/272 416/264 417/117
f 550/123 549/154 542/124
f 524/255 523/316 521/257
f 550/123 512/173 511/172
f 604/281 611/125 616/127
f 102/20 106/21 130/113
f 176/16 175/18 173/17
f 441/268 433/286 435/222
f 460/224 470/288 471/269
f 539/269 546/140 547/126
f 750/23 749/25 747/24
f 477/143 478/140 471/269
f 571/222 569/286 577/268
f 417/117 418/141 380/118
f 597/325 598/283 596/224
f 1082/238 1078/407 20/313
f 408/290 401/287 402/288
f 1058/120 915/356 913/10
f 399/275 406/124 407/125
f 429/248 427/254 426/253
f 397/274 398/218 396/252
f 51/1 50/3 75/2
f 874/159 872/7 871/97
f 437/220 422/223 424/253
f 425/260 426/253 427/254
f 454/256 452/219 468/281
f 436/246 443/172 444/173
f 963/55 966/408 1018/240
f 523/258 524/259 526/225
f 126/128 119/170 120/129
f 536/281 535/275 522/256
f 1001/35 964/360 1091/232
f 670/23 669/25 667/24
f 674/61 673/60 687/62
f 274/45 276/47 275/46
f 973/39 1012/414 1090/235
f 622/141 614/140 615/126
f 97/29 98/22 92/4
f 439/266 438/284 427/279
f 922/167 1026/202 1083/111
f 152/4 128/6 135/5
f 646/9 645/8 643/81
f 113/171 132/151 133/116
f 354/276 356/278 355/279
f 462/283 471/269 472/251
f 37/130 40/112 39/131
f 7/327 24/144 10/328
f 449/85 441/268 442/221
f 476/290 477/143 470/288
f 42/20 55/40 70/113
f 664/7 663/97 661/8
f 886/15 885/14 887/91
f 411/126 410/140 403/269
f 52/114 51/1 74/115
f 450/86 442/221 437/220
f 548/127 556/84 550/123
f 432/286 433/227 431/247
f 772/59 770/61 769/60
f 449/85 448/118 440/261
f 254/103 253/104 245/17
f 491/279 492/278 490/276
f 419/142 420/84 382/86
f 1010/32 987/400 1095/230
f 417/117 409/143 410/140
f 446/272 438/284 439/266
f 174/98 173/17 177/99
f 479/126 480/127 473/217
f 75/144 76/90 69/30
f 91/6 92/204 68/107
f 234/98 238/45 237/99
f 1002/51 976/396 1082/238
f 158/177 135/2 134/115
f 576/261 575/266 583/119
f 621/117 620/264 612/290
f 573/220 572/246 560/253
f 159/185 139/186 108/133
f 488/84 482/123 475/125
f 620/264 619/263 592/262
f 440/261 439/266 429/267
f 86/29 83/22 82/4
f 464/252 466/218 465/274
f 395/282 396/252 394/283
f 286/45 288/47 287/46
f 67/105 68/107 61/106
f 452/219 466/218 473/217
f 528/224 538/288 539/269
f 553/117 552/264 514/272
f 682/159 681/44 679/97
f 93/29 94/22 88/4
f 541/217 536/281 520/219
f 440/261 448/118 447/119
f 684/43 683/24 681/44
f 509/268 508/261 499/229
f 95/29 89/31 65/30
f 884/10 883/12 881/11
f 1033/194 923/355 921/195
f 171/157 162/98 166/45
f 607/269 614/140 613/143
f 595/241 596/224 594/225
f 153/29 147/31 148/4
f 971/314 1006/373 1081/315
f 460/224 462/283 461/325
f 207/157 198/98 202/45
f 662/9 661/8 659/81
f 914/209 934/206 926/208
f 526/225 537/287 538/288
f 377/277 357/326 355/279
f 332/16 331/18 329/17
f 365/227 367/228 366/229
f 509/268 501/286 503/222
f 776/7 774/9 773/8
f 621/117 622/141 584/118
f 388/255 386/256 385/257
f 517/85 516/118 508/261
f 387/258 389/226 390/225
f 485/117 484/264 446/272
f 471/269 478/140 479/126
f 507/266 506/284 495/279
f 243/157 244/187 238/45
f 591/258 593/226 594/225
f 989/35 990/360 1075/232
f 50/3 49/205 76/146
f 361/248 363/247 362/222
f 818/61 832/108 831/62
f 992/53 979/383 1094/239
f 513/277 492/278 491/279
f 532/252 534/218 533/274
f 98/177 97/200 74/115
f 1097/307 1043/87 959/308
f 578/221 577/268 585/85
f 147/4 123/26 124/28
f 413/154 406/124 388/160
f 974/39 988/414 1052/235
f 505/220 490/223 492/253
f 55/40 54/42 71/41
f 25/178 21/331 1075/179
f 1009/32 1011/400 1074/230
f 606/288 605/287 594/225
f 53/171 52/114 73/116
f 732/43 731/24 729/44
f 991/37 975/385 1076/234
f 530/283 532/252 531/282
f 712/7 711/97 709/8
f 766/23 764/43 763/24
f 1000/37 999/385 1073/234
f 500/286 501/227 499/247
f 40/112 37/130 29/75
f 790/9 788/59 787/81
f 930/310 1027/64 1084/311
f 402/288 401/287 390/225
f 676/59 675/81 673/60
f 946/167 1086/111 1029/202
f 618/123 611/125 610/124
f 138/329 104/184 108/133
f 782/23 780/43 779/24
f 420/84 414/123 376/173
f 656/108 655/62 653/122
f 630/9 629/8 627/81
f 143/145 105/147 136/146
f 654/23 653/25 651/24
f 553/117 515/119 516/118
f 786/61 800/108 799/62
f 724/59 723/81 721/60
f 553/117 554/141 546/140
f 736/108 735/62 733/122
f 622/141 623/142 585/85
f 838/9 836/59 835/81
f 648/7 647/97 645/8
f 640/108 639/62 637/122
f 652/43 651/24 649/44
f 65/169 66/128 59/170
f 488/84 450/86 444/173
f 720/108 719/62 717/122
f 71/144 72/90 65/30
f 89/330 90/344 66/128
f 488/84 487/142 449/85
f 550/123 556/84 518/86
f 810/159 808/7 807/97
f 878/23 876/43 875/24
f 482/123 444/173 443/172
f 19/331 4/370 1034/332
f 808/7 806/9 805/8
f 1061/89 933/88 931/216
f 16/333 1/411 1054/334
f 728/7 727/97 725/8
f 219/157 220/187 214/45
f 942/336 940/18 1047/164
f 178/45 177/99 179/46
f 688/108 687/62 685/122
f 742/9 741/8 739/81
f 306/98 305/17 309/99
f 650/159 649/44 647/97
f 586/86 624/84 618/123
f 2/271 5/56 12/58
f 854/9 852/59 851/81
f 778/159 776/7 775/97
f 704/108 703/62 701/122
f 585/85 623/142 624/84
f 326/103 321/99 317/17
f 746/159 745/44 743/97
f 1042/199 929/198 927/337
f 850/61 864/108 863/62
f 36/76 33/245 9/338
f 706/61 705/60 719/62
f 696/7 695/97 693/8
f 716/43 715/24 713/44
f 882/13 881/11 885/14
f 248/16 246/98 245/17
f 672/108 671/62 669/122
f 794/159 792/7 791/97
f 250/45 252/47 251/46
f 690/61 689/60 703/62
f 549/154 551/156 524/160
f 700/43 699/24 697/44
f 105/5 107/6 103/82
f 644/59 643/81 641/60
f 344/16 343/18 341/17
f 726/9 725/8 723/81
f 166/45 165/99 167/46
f 145/96 106/21 140/19
f 133/144 126/150 127/30
f 49/205 41/270 45/147
f 748/43 747/24 745/44
f 210/98 214/45 213/99
f 339/157 330/98 334/45
f 798/23 796/43 795/24
f 802/61 816/108 815/62
f 628/59 627/81 625/60
f 694/9 693/8 691/81
f 814/23 812/43 811/24
f 796/43 794/159 793/44
f 200/16 199/18 197/17
f 418/141 419/142 381/85
f 718/23 717/25 715/24
f 141/340 129/162 107/147
f 758/9 756/59 755/81
f 848/108 846/12 845/122
f 730/159 729/44 727/97
f 156/341 133/116 132/151
f 698/159 697/44 695/97
f 800/108 798/12 797/122
f 762/159 760/7 759/97
f 764/43 762/159 761/44
f 722/61 721/60 735/62
f 78/329 79/186 48/133
f 33/67 34/242 11/343
f 828/43 826/159 825/44
f 186/98 185/17 189/99
f 302/103 301/104 293/17
f 714/159 713/44 711/97
f 81/340 82/145 47/147
f 322/45 321/99 323/46
f 69/162 47/147 43/270
f 109/205 136/146 105/147
f 198/98 197/17 201/99
f 958/291 956/63 1049/65
f 868/59 866/61 865/60
f 826/159 824/7 823/97
f 350/103 345/99 341/17
f 142/4 107/6 105/5
f 824/7 822/9 821/8
f 149/330 125/169 126/128
f 330/98 329/17 333/99
f 830/23 828/43 827/24
f 816/108 814/12 813/122
f 842/159 840/7 839/97
f 806/9 804/59 803/81
f 822/9 820/59 819/81
f 792/7 790/9 789/8
f 702/23 701/25 699/24
f 832/108 830/12 829/122
f 950/345 948/201 1048/203
f 315/157 306/98 310/45
f 858/159 856/7 855/97
f 68/107 69/162 62/161
f 754/61 768/108 767/62
f 114/42 131/41 132/151
f 160/29 140/90 139/30
f 894/15 896/92 895/91
f 708/59 707/81 705/60
f 898/13 902/15 901/14
f 710/9 709/8 707/81
f 95/29 96/22 90/4
f 738/61 737/60 751/62
f 908/10 907/12 905/11
f 954/310 952/312 1087/311
f 318/98 317/17 321/99
f 266/103 265/104 257/17
f 1035/315 919/354 917/347
f 17/349 3/367 1014/350
f 1054/334 1/411 1019/352
f 692/59 691/81 689/60
f 880/108 878/12 877/122
f 1057/196 921/195 919/354
f 96/341 95/342 72/151
f 1080/137 925/136 923/355
f 39/131 40/112 32/72
f 544/290 552/264 553/117
f 1022/307 913/309 935/308
f 1053/348 917/347 915/356
f 952/312 950/345 1071/346
f 34/70 35/243 15/357
f 1016/80 1037/79 977/359
f 982/361 1020/197 1042/199
f 1039/196 1081/315 943/354
f 1007/363 997/381 1066/137
f 1049/65 1030/64 972/362
f 978/48 11/50 965/249
f 11/50 26/181 1017/183
f 993/364 1053/348 1058/120
f 1099/366 1014/350 3/367
f 1090/369 1015/415 4/370
f 984/372 971/314 1039/196
f 968/314 1057/196 1035/315
f 932/63 1046/65 1027/64
f 1034/332 1098/398 1056/374
f 1066/137 1063/194 947/355
f 972/362 1007/363 1077/135
f 1044/164 980/365 967/376
f 1028/95 1088/94 1008/378
f 1017/183 1095/182 987/380
f 1004/363 1079/135 1080/137
f 1068/346 994/381 981/372
f 1038/102 1073/101 999/382
f 1000/37 14/38 999/385
f 14/38 22/236 1041/384
f 1089/351 1014/350 961/386
f 936/148 1085/94 1069/149
f 1091/232 1065/368 3/367
f 1001/35 7/36 964/360
f 7/36 18/78 1016/80
f 1023/388 1101/353 1021/389
f 1100/391 1059/404 977/359
f 1055/120 1097/121 937/10
f 924/201 1045/203 1026/202
f 998/392 985/361 1060/197
f 965/249 987/380 1051/393
f 1086/111 1070/110 996/364
f 1048/203 1029/202 971/314
f 1031/179 1034/332 986/375
f 1025/95 967/379 1005/378
f 1005/378 1036/87 1061/89
f 1002/51 15/52 976/396
f 15/52 27/174 1032/176
f 962/397 1054/334 1101/353
f 934/291 1069/149 1046/65
f 1098/398 1023/388 1013/390
f 1009/32 24/34 1011/400
f 24/34 17/233 1089/399
f 994/381 1080/137 1033/194
f 1076/401 1050/406 6/394
f 920/109 1083/111 1067/110
f 914/93 1025/95 1085/94
f 997/381 984/372 1063/194
f 1045/203 981/372 968/314
f 1070/110 1047/164 983/365
f 1040/335 1054/334 962/397
f 1067/110 993/364 980/365
f 989/35 12/36 990/360
f 12/36 23/78 1062/80
f 967/379 1022/307 1036/87
f 1059/404 1099/366 1065/368
f 1094/239 1041/416 22/405
f 1046/65 982/361 969/362
f 1101/353 1019/352 961/386
f 1024/348 1055/120 939/356
f 4/370 1015/415 1098/398
f 918/336 1067/110 1044/164
f 996/364 983/365 1055/120
f 1084/311 1004/363 994/381
f 1088/94 1072/149 998/392
f 1047/164 1028/163 970/376
f 1056/374 1013/390 1059/404
f 975/395 986/375 1050/406
f 1030/64 1087/311 1007/363
f 1043/87 1096/89 957/88
f 985/361 972/362 1092/199
f 1010/32 8/34 987/400
f 8/34 21/233 1051/399
f 1087/311 1071/346 997/381
f 986/375 1056/374 1100/391
f 970/379 1008/378 1043/87
f 1096/89 1060/197 955/216
f 1027/64 969/362 1004/363
f 976/396 988/409 1078/407
f 1064/180 1075/179 990/395
f 1032/176 1052/175 988/409
f 1026/202 968/314 1003/373
f 963/55 9/49 966/408
f 9/49 25/178 1064/180
f 1003/373 1035/315 1053/348
f 1074/410 1019/352 1/411
f 1029/202 1086/111 1006/373
f 973/39 2/33 1012/414
f 2/33 16/231 1040/413
f 1063/194 1039/196 945/195
f 1060/197 1092/199 953/198
f 1006/373 996/364 1024/348
f 916/18 1044/164 1025/163
f 1011/387 961/386 1019/352
f 1008/378 998/392 1096/89
f 981/372 1033/194 1057/196
f 995/392 1061/89 1020/197
f 1021/389 961/386 1014/350
f 1069/149 995/392 982/361
f 1071/346 1048/203 984/372
f 1081/315 1024/348 941/347
f 1018/240 1062/401 23/402
f 991/37 5/38 975/385
f 5/38 19/236 1031/384
f 1092/199 1077/135 951/337
f 928/312 1084/311 1068/346
f 1085/94 1005/378 995/392
f 926/345 1068/346 1045/203
f 1083/111 1003/373 993/364
f 983/365 970/376 1097/121
f 980/365 1058/120 1022/121
f 969/362 1042/199 1079/135
f 1015/415 962/397 1023/388
f 992/53 13/54 979/383
f 13/54 28/100 1038/102
f 1072/149 1049/65 985/361
f 1013/390 1021/389 1099/366
f 964/360 977/359 1065/368
f 974/39 10/33 988/414
f 10/33 20/231 1078/413
f 1077/135 1066/137 949/136
f 1050/406 1100/391 1037/79
f 979/383 999/382 1041/416
f 1093/237 1051/393 21/417
f 1012/403 962/397 1015/415
f 966/408 990/395 1062/401
f 946/167 944/109 1086/111
