o Body
v -1.5 0 2.5
v 1.5 0 2.5
v -1.5 0 2
v 1.5 0 2
v -1.25 0 1.75
v 1.25 0 1.75
v 0.287 2.1929 2.75
v 0.5303 2.0303 2.75
v 0.6929 1.787 2.75
v 0.1913 1.9619 -2.25
v 0.3536 1.8536 -2.25
v 0.4619 1.6913 -2.25
v 0.5 1.5 -2.25
v -0.5 1.5 -2.25
v -0.4619 1.6913 -2.25
v -0.3536 1.8536 -2.25
v 0.75 1.5 2.75
v -0.75 1.5 2.75
v -0.6929 1.787 2.75
v -0.5303 2.0303 2.75
v -0.1913 1.9619 -2.25
v 0 2 -2.25
v 0.75 -0 -2
v -0.75 -0 -2
v 0.287 2.1929 -2
v 0.5303 2.0303 -2
v 0.6929 1.787 -2
v -0.287 2.1929 2.75
v 0 2.25 2.75
v 0.287 2.1929 3
v 0.5303 2.0303 3
v 0.6929 1.787 3
v 0.75 1.5 -2
v -0.75 1.5 -2
v -0.6929 1.787 -2
v -0.5303 2.0303 -2
v -0.287 2.1929 -2
v 0 2.25 -2
v 1.25 0 2.75
v -1.25 0 2.75
v 0.75 1.5 3
v -0.75 1.5 3
v 1.5 0 2
v -1.5 0 2
v 0 2 3.25
v -0.1913 1.9619 3.25
v -0.3536 1.8536 3.25
v -0.4619 1.6913 3.25
v -0.5 1.5 3.25
v 0.5 1.5 3.25
v 0.4619 1.6913 3.25
v 0.3536 1.8536 3.25
v 0.1913 1.9619 3.25
v -0.5 0 3.25
v 0.5 0 3.25
v -0.75 0 3
v 0.75 0 3
v -0.75 0 2.75
v 0.75 0 2.75
v -0.75 0 1.75
v 0.75 0 1.75
v -0.75 -0 -1.75
v 0.75 -0 -1.75
v -0.75 0.125 -1.75
v -0.75 0.125 1.75
v 0.75 0.125 1.75
v 0.75 0.125 -1.75
v 0.625 0.125 1.75
v 0.625 0.125 -1.75
v -0.625 0.125 -1.75
v -0.625 0.125 1.75
v 0.625 0.375 1.75
v 0.625 0.375 -1.75
v -0.625 0.375 -1.75
v -0.625 0.375 1.75
v 0.75 0.375 1.75
v 0.75 0.375 -1.75
v -0.75 0.375 -1.75
v -0.75 0.375 1.75
v 0.75 0.5 1.75
v 0.75 0.5 -1.75
v -0.75 0.5 -1.75
v -0.75 0.5 1.75
v 0 2.25 -1.75
v -0.287 2.1929 -1.75
v -0.5303 2.0303 -1.75
v -0.6929 1.787 -1.75
v -0.75 1.5 -1.75
v 0.75 1.5 -1.75
v 0.6929 1.787 -1.75
v 0.5303 2.0303 -1.75
v 0.287 2.1929 -1.75
v -0.75 -0 -1.75
v 0.75 -0 -1.75
v -0.75 -0 -2
v 0.75 -0 -2
v 0 2 -2.25
v -0.1913 1.9619 -2.25
v -0.3536 1.8536 -2.25
v -0.4619 1.6913 -2.25
v -0.5 1.5 -2.25
v 0.5 1.5 -2.25
v 0.4619 1.6913 -2.25
v 0.3536 1.8536 -2.25
v 0.1913 1.9619 -2.25
v -0.5 -0 -2.25
v 0.5 -0 -2.25
v -0.1562 0.3438 -2.25
v -0.1562 0.6562 -2.25
v -0.1562 0.3438 -2.5
v -0.1562 0.6562 -2.5
v 0.1562 0.3438 -2.25
v 0.1562 0.6562 -2.25
v 0.1562 0.3438 -2.5
v 0.1562 0.6562 -2.5
v -0.2188 0.2812 -2.5
v 0.2188 0.2812 -2.5
v -0.2188 0.7188 -2.5
v 0.2188 0.7188 -2.5
v -0.2188 0.2812 -2.25
v 0.2188 0.2812 -2.25
v -0.2188 0.7188 -2.25
v 0.2188 0.7188 -2.25
v -0.2812 0.2188 -2.5
v 0.2812 0.2188 -2.5
v -0.2812 0.7812 -2.5
v 0.2812 0.7812 -2.5
v -0.2812 0.2188 -2.25
v 0.2812 0.2188 -2.25
v -0.2812 0.7812 -2.25
v 0.2812 0.7812 -2.25
v 0 2 -1.75
v -0.1913 1.9619 -1.75
v -0.3536 1.8536 -1.75
v -0.4619 1.6913 -1.75
v -0.5 1.5 -1.75
v -0.4619 1.3087 -1.75
v -0.3536 1.1464 -1.75
v -0.1913 1.0381 -1.75
v 0 1 -1.75
v 0.1913 1.0381 -1.75
v 0.3536 1.1464 -1.75
v 0.4619 1.3087 -1.75
v 0.5 1.5 -1.75
v 0.4619 1.6913 -1.75
v 0.3536 1.8536 -1.75
v 0.1913 1.9619 -1.75
v -0.1913 1.9619 -1.25
v 0 2 -1.25
v -0.3536 1.8536 -1.25
v -0.4619 1.6913 -1.25
v -0.5 1.5 -1.25
v -0.4619 1.3087 -1.25
v -0.3536 1.1464 -1.25
v -0.1913 1.0381 -1.25
v 0 1 -1.25
v 0.1913 1.0381 -1.25
v 0.3536 1.1464 -1.25
v 0.4619 1.3087 -1.25
v 0.5 1.5 -1.25
v 0.4619 1.6913 -1.25
v 0.3536 1.8536 -1.25
v 0.1913 1.9619 -1.25
v 0 2 1.25
v -0.1913 1.9619 1.25
v -0.3536 1.8536 1.25
v -0.4619 1.6913 1.25
v -0.5 1.5 1.25
v -0.4619 1.3087 1.25
v -0.3536 1.1464 1.25
v -0.1913 1.0381 1.25
v 0 1 1.25
v 0.1913 1.0381 1.25
v 0.3536 1.1464 1.25
v 0.4619 1.3087 1.25
v 0.5 1.5 1.25
v 0.4619 1.6913 1.25
v 0.3536 1.8536 1.25
v 0.1913 1.9619 1.25
v -0.1913 1.9619 1.75
v 0 2 1.75
v -0.3536 1.8536 1.75
v -0.4619 1.6913 1.75
v -0.5 1.5 1.75
v -0.4619 1.3087 1.75
v -0.3536 1.1464 1.75
v -0.1913 1.0381 1.75
v 0 1 1.75
v 0.1913 1.0381 1.75
v 0.3536 1.1464 1.75
v 0.4619 1.3087 1.75
v 0.5 1.5 1.75
v 0.4619 1.6913 1.75
v 0.3536 1.8536 1.75
v 0.1913 1.9619 1.75
v 0 2 -0.5
v -0.1913 1.9619 -0.5
v -0.3536 1.8536 -0.5
v -0.4619 1.6913 -0.5
v -0.5 1.5 -0.5
v -0.4619 1.3087 -0.5
v -0.3536 1.1464 -0.5
v -0.1913 1.0381 -0.5
v 0 1 -0.5
v 0.1913 1.0381 -0.5
v 0.3536 1.1464 -0.5
v 0.4619 1.3087 -0.5
v 0.5 1.5 -0.5
v 0.4619 1.6913 -0.5
v 0.3536 1.8536 -0.5
v 0.1913 1.9619 -0.5
v -0.1913 1.9619 0.5
v 0 2 0.5
v -0.3536 1.8536 0.5
v -0.4619 1.6913 0.5
v -0.5 1.5 0.5
v -0.4619 1.3087 0.5
v -0.3536 1.1464 0.5
v -0.1913 1.0381 0.5
v 0 1 0.5
v 0.1913 1.0381 0.5
v 0.3536 1.1464 0.5
v 0.4619 1.3087 0.5
v 0.5 1.5 0.5
v 0.4619 1.6913 0.5
v 0.3536 1.8536 0.5
v 0.1913 1.9619 0.5
v 0 1.875 1.25
v -0.1435 1.8465 1.25
v -0.2652 1.7652 1.25
v -0.3465 1.6435 1.25
v -0.375 1.5 1.25
v -0.3465 1.3565 1.25
v -0.2652 1.2348 1.25
v -0.1435 1.1535 1.25
v 0 1.125 1.25
v 0.1435 1.1535 1.25
v 0.2652 1.2348 1.25
v 0.3465 1.3565 1.25
v 0.375 1.5 1.25
v 0.3465 1.6435 1.25
v 0.2652 1.7652 1.25
v 0.1435 1.8465 1.25
v -0.1435 1.8465 0.5
v 0 1.875 0.5
v -0.2652 1.7652 0.5
v -0.3465 1.6435 0.5
v -0.375 1.5 0.5
v -0.3465 1.3565 0.5
v -0.2652 1.2348 0.5
v -0.1435 1.1535 0.5
v 0 1.125 0.5
v 0.1435 1.1535 0.5
v 0.2652 1.2348 0.5
v 0.3465 1.3565 0.5
v 0.375 1.5 0.5
v 0.3465 1.6435 0.5
v 0.2652 1.7652 0.5
v 0.1435 1.8465 0.5
v 0 1.875 -0.5
v -0.1435 1.8465 -0.5
v -0.2652 1.7652 -0.5
v -0.3465 1.6435 -0.5
v -0.375 1.5 -0.5
v -0.3465 1.3565 -0.5
v -0.2652 1.2348 -0.5
v -0.1435 1.1535 -0.5
v 0 1.125 -0.5
v 0.1435 1.1535 -0.5
v 0.2652 1.2348 -0.5
v 0.3465 1.3565 -0.5
v 0.375 1.5 -0.5
v 0.3465 1.6435 -0.5
v 0.2652 1.7652 -0.5
v 0.1435 1.8465 -0.5
v -0.1435 1.8465 -1.25
v 0 1.875 -1.25
v -0.2652 1.7652 -1.25
v -0.3465 1.6435 -1.25
v -0.375 1.5 -1.25
v -0.3465 1.3565 -1.25
v -0.2652 1.2348 -1.25
v -0.1435 1.1535 -1.25
v 0 1.125 -1.25
v 0.1435 1.1535 -1.25
v 0.2652 1.2348 -1.25
v 0.3465 1.3565 -1.25
v 0.375 1.5 -1.25
v 0.3465 1.6435 -1.25
v 0.2652 1.7652 -1.25
v 0.1435 1.8465 -1.25
v -0.375 1 -2.25
v 0.375 1 -2.25
v -0.375 1.5 -2.25
v 0.375 1.5 -2.25
v 0.375 1 -2.375
v -0.375 1 -2.375
v 0.375 1.5 -2.375
v -0.375 1.5 -2.375
v -0.0239 1.5577 3.5
v 0.0577 1.5239 3.3125
v -0.0577 1.5239 3.5
v 0.0577 1.4761 3.3125
v -0.0577 1.4761 3.5
v 0.0239 1.4423 3.3125
v -0.0239 1.4423 3.5
v -0.0239 1.4423 3.3125
v 0.0239 1.4423 3.5
v -0.0577 1.4761 3.3125
v 0.0577 1.4761 3.5
v -0.0577 1.5239 3.3125
v 0.0577 1.5239 3.5
v -0.0239 1.5577 3.3125
v 0.0239 1.5577 3.3125
v 0.0239 1.5577 3.5
v -0.1435 1.8465 3.5
v 0 1.875 3.5
v -0.2652 1.7652 3.5
v -0.3465 1.6435 3.5
v -0.375 1.5 3.5
v -0.3465 1.3565 3.5
v -0.2652 1.2348 3.5
v -0.1435 1.1535 3.5
v 0 1.125 3.5
v 0.1435 1.1535 3.5
v 0.2652 1.2348 3.5
v 0.3465 1.3565 3.5
v 0.375 1.5 3.5
v 0.3465 1.6435 3.5
v 0.2652 1.7652 3.5
v 0.1435 1.8465 3.5
v -0.1196 1.7887 3.5
v 0 1.8125 3.5
v -0.221 1.721 3.5
v -0.2887 1.6196 3.5
v -0.3125 1.5 3.5
v -0.2887 1.3804 3.5
v -0.221 1.279 3.5
v -0.1196 1.2113 3.5
v 0 1.1875 3.5
v 0.1196 1.2113 3.5
v 0.221 1.279 3.5
v 0.2887 1.3804 3.5
v 0.3125 1.5 3.5
v 0.2887 1.6196 3.5
v 0.221 1.721 3.5
v 0.1196 1.7887 3.5
v -0.1196 1.7887 2.5
v 0 1.8125 2.5
v -0.221 1.721 2.5
v -0.2887 1.6196 2.5
v -0.3125 1.5 2.5
v -0.2887 1.3804 2.5
v -0.221 1.279 2.5
v -0.1196 1.2113 2.5
v 0 1.1875 2.5
v 0.1196 1.2113 2.5
v 0.221 1.279 2.5
v 0.2887 1.3804 2.5
v 0.3125 1.5 2.5
v 0.2887 1.6196 2.5
v 0.221 1.721 2.5
v 0.1196 1.7887 2.5
v 0.2652 1.2348 3.25
v 0.1435 1.1535 3.25
v 0 1.125 3.25
v -0.1435 1.1535 3.25
v -0.2652 1.2348 3.25
v 0.375 1.5 3.25
v 0.3465 1.3565 3.25
v -0.3465 1.3565 3.25
v -0.375 1.5 3.25
v 0.3465 1.6435 3.25
v 0.2652 1.7652 3.25
v -0.2652 1.7652 3.25
v -0.3465 1.6435 3.25
v 0.1435 1.8465 3.25
v -0.1435 1.8465 3.25
v 0 1.875 3.25
v -0.0239 1.5577 3.375
v -0.0577 1.5239 3.375
v -0.0577 1.4761 3.375
v -0.0239 1.4423 3.375
v 0.0239 1.4423 3.375
v 0.0577 1.4761 3.375
v 0.0577 1.5239 3.375
v 0.0239 1.5577 3.375
v -0.1196 1.7887 3.375
v 0 1.8125 3.375
v -0.2887 1.6196 3.375
v -0.3125 1.5 3.375
v -0.2887 1.3804 3.375
v -0.1196 1.2113 3.375
v 0 1.1875 3.375
v 0.1196 1.2113 3.375
v 0.2887 1.3804 3.375
v 0.3125 1.5 3.375
v 0.2887 1.6196 3.375
v 0.1196 1.7887 3.375
v -0.0239 1.5577 3.4375
v 0.0239 1.5577 3.4375
v -0.0577 1.4761 3.4375
v -0.0577 1.5239 3.4375
v 0.0239 1.4423 3.4375
v -0.0239 1.4423 3.4375
v 0.0577 1.5239 3.4375
v 0.0577 1.4761 3.4375
v -0.1196 1.7887 3.4375
v 0 1.8125 3.4375
v -0.3125 1.5 3.4375
v -0.2887 1.6196 3.4375
v -0.2887 1.3804 3.4375
v 0 1.1875 3.4375
v -0.1196 1.2113 3.4375
v 0.1196 1.2113 3.4375
v 0.3125 1.5 3.4375
v 0.2887 1.3804 3.4375
v 0.2887 1.6196 3.4375
v 0.1196 1.7887 3.4375
v -0.1562 0.3438 3.5
v -0.1562 0.6562 3.5
v 0.1562 0.3438 3.5
v 0.1562 0.6562 3.5
v -0.2188 0.2812 3.5
v 0.2188 0.2812 3.5
v -0.2188 0.7188 3.5
v 0.2188 0.7188 3.5
v -0.2812 0.2188 3.5
v 0.2812 0.2188 3.5
v -0.2812 0.7812 3.5
v 0.2812 0.7812 3.5
v 0.1562 0.6562 3.25
v 0.1562 0.3438 3.25
v -0.1562 0.6562 3.25
v -0.1562 0.3438 3.25
v -0.2188 0.7188 3.25
v -0.2188 0.2812 3.25
v 0.2188 0.2812 3.25
v 0.2188 0.7188 3.25
v -0.2812 0.7812 3.25
v -0.2812 0.2188 3.25
v 0.2812 0.2188 3.25
v 0.2812 0.7812 3.25
v 0.0239 1.5577 3.4062
v 0.0577 1.5239 3.4062
v -0.0577 1.5239 3.4062
v -0.0239 1.5577 3.4062
v -0.0239 1.4423 3.4062
v -0.0577 1.4761 3.4062
v 0.0577 1.4761 3.4062
v 0.0239 1.4423 3.4062
v 0.1196 1.7887 3.4062
v 0.221 1.721 3.4062
v -0.221 1.721 3.4062
v -0.1196 1.7887 3.4062
v -0.2887 1.6196 3.4062
v -0.221 1.279 3.4062
v -0.2887 1.3804 3.4062
v -0.1196 1.2113 3.4062
v 0.221 1.279 3.4062
v 0.1196 1.2113 3.4062
v 0.2887 1.3804 3.4062
v 0.2887 1.6196 3.4062
v 0.0408 1.5408 3.4062
v -0.0408 1.5408 3.4062
v -0.0408 1.4592 3.4062
v 0.0408 1.4592 3.4062
v 0 2.5 0.4375
v -0.3827 2.4239 0.4375
v -0.7071 2.2071 0.4375
v -0.9239 1.8827 0.4375
v -1 1.5 0.4375
v 0 2.375 -0.3125
v 0.3348 2.3084 -1.4375
v 0.6187 2.1187 -1.4375
v 0.8084 1.8348 -1.4375
v 0.875 1.5 -1.4375
v -0.875 1.5 -1.4375
v -0.8084 1.8348 -1.4375
v 1 1.5 0.4375
v 0.9239 1.8827 0.4375
v 0.7071 2.2071 0.4375
v 0.3827 2.4239 0.4375
v 0 2.5 1.3125
v -0.3827 2.4239 1.3125
v -0.7071 2.2071 1.3125
v -0.9239 1.8827 1.3125
v -1 1.5 1.3125
v -0.6187 2.1187 -1.4375
v -0.3348 2.3084 -1.4375
v 0 2.375 -1.4375
v 0.3827 2.4239 -0.4375
v 0.7071 2.2071 -0.4375
v 0.9239 1.8827 -0.4375
v 1 1.5 -0.4375
v 1 1.5 1.3125
v 0.9239 1.8827 1.3125
v 0.7071 2.2071 1.3125
v 0.3827 2.4239 1.3125
v 0 2.375 0.3125
v -0.3348 2.3084 0.3125
v -0.6187 2.1187 0.3125
v -0.8084 1.8348 0.3125
v -0.875 1.5 0.3125
v -1 1.5 -0.4375
v -0.9239 1.8827 -0.4375
v -0.7071 2.2071 -0.4375
v -0.3827 2.4239 -0.4375
v 0 2.5 -0.4375
v 0.3827 2.4239 -1.3125
v 0.7071 2.2071 -1.3125
v 0.875 1.5 0.3125
v 0.8084 1.8348 0.3125
v 0.6187 2.1187 0.3125
v 0.3348 2.3084 0.3125
v 0 2.375 1.4375
v -0.3348 2.3084 1.4375
v -0.6187 2.1187 1.4375
v -0.8084 1.8348 1.4375
v -0.875 1.5 1.4375
v 0.9239 1.8827 -1.3125
v 1 1.5 -1.3125
v -1 1.5 -1.3125
v -0.9239 1.8827 -1.3125
v -0.7071 2.2071 -1.3125
v -0.3827 2.4239 -1.3125
v 0 2.5 -1.3125
v 0.875 1.5 1.4375
v 0.8084 1.8348 1.4375
v 0.6187 2.1187 1.4375
v 0.3348 2.3084 1.4375
v -0.3348 2.3084 -0.3125
v -0.6187 2.1187 -0.3125
v -0.8084 1.8348 -0.3125
v -0.875 1.5 -0.3125
v 0.875 1.5 -0.3125
v 0.8084 1.8348 -0.3125
v 0.6187 2.1187 -0.3125
v 0.3348 2.3084 -0.3125
v 1.5 0 2.5
v -1.5 0 2.5
v 0.4784 2.6549 1.75
v 0.8839 2.3839 1.75
v 1.1548 1.9784 1.75
v 1.25 1.5 1.75
v -1.25 0 1.75
v 1.25 0 1.75
v -1.25 1.5 1.75
v 0.3348 2.3084 -1.875
v 0.6187 2.1187 -1.875
v 0.8084 1.8348 -1.875
v 0.875 1.5 -1.875
v -0.875 1.5 -1.875
v -0.8084 1.8348 -1.875
v -0.6187 2.1187 -1.875
v -0.3348 2.3084 -1.875
v 0 2.375 -1.875
v 0 2.375 1.75
v -0.3348 2.3084 1.75
v -0.6187 2.1187 1.75
v -0.8084 1.8348 1.75
v -0.875 1.5 1.75
v 0.875 1.5 1.75
v 0.8084 1.8348 1.75
v 0.6187 2.1187 1.75
v 0.3348 2.3084 1.75
v 0 0.5 0.4375
v -0.3827 0.5761 0.4375
v -0.7071 0.7929 0.4375
v -0.9239 1.1173 0.4375
v -1.1548 1.9784 1.75
v 0 0.625 -0.3125
v 0.3348 0.6916 -1.4375
v 0.6187 0.8813 -1.4375
v 0.8084 1.1652 -1.4375
v -0.8839 2.3839 1.75
v 0 0.625 -1.875
v -0.8084 1.1652 -1.4375
v -0.3348 0.6916 -1.875
v 0.9239 1.1173 0.4375
v 0.7071 0.7929 0.4375
v 0.3827 0.5761 0.4375
v 0 0.5 1.3125
v -0.3827 0.5761 1.3125
v -0.7071 0.7929 1.3125
v -0.9239 1.1173 1.3125
v -0.6187 0.8813 -1.875
v -0.6187 0.8813 -1.4375
v -0.3348 0.6916 -1.4375
v 0 0.625 -1.4375
v 0.3827 0.5761 -0.4375
v 0.7071 0.7929 -0.4375
v 0.9239 1.1173 -0.4375
v -0.8084 1.1652 -1.875
v 0.8084 1.1652 -1.875
v 0.9239 1.1173 1.3125
v 0.7071 0.7929 1.3125
v 0.3827 0.5761 1.3125
v 0 0.625 0.3125
v -0.3348 0.6916 0.3125
v -0.6187 0.8813 0.3125
v -0.8084 1.1652 0.3125
v 0.6187 0.8813 -1.875
v 0.3348 0.6916 -1.875
v -0.9239 1.1173 -0.4375
v -0.7071 0.7929 -0.4375
v -0.3827 0.5761 -0.4375
v 0 0.5 -0.4375
v 0.3827 0.5761 -1.3125
v 0.7071 0.7929 -1.3125
v 0.3348 0.6916 1.75
v 0.8084 1.1652 0.3125
v 0.6187 0.8813 0.3125
v 0.3348 0.6916 0.3125
v 0 0.625 1.4375
v -0.3348 0.6916 1.4375
v -0.6187 0.8813 1.4375
v -0.8084 1.1652 1.4375
v 0.6187 0.8813 1.75
v 0.9239 1.1173 -1.3125
v 0.8084 1.1652 1.75
v -0.8084 1.1652 1.75
v -0.9239 1.1173 -1.3125
v -0.7071 0.7929 -1.3125
v -0.3827 0.5761 -1.3125
v 0 0.5 -1.3125
v -0.6187 0.8813 1.75
v 0.8084 1.1652 1.4375
v 0.6187 0.8813 1.4375
v 0.3348 0.6916 1.4375
v -0.3348 0.6916 -0.3125
v -0.6187 0.8813 -0.3125
v -0.8084 1.1652 -0.3125
v -0.3348 0.6916 1.75
v 0 0.625 1.75
v 0.8084 1.1652 -0.3125
v 0.6187 0.8813 -0.3125
v 0.3348 0.6916 -0.3125
v -0.4784 2.6549 1.75
v 0 2.75 1.75
v 0 1.5577 3.375
v -0.0577 1.5 3.375
v 0 1.4423 3.375
v 0.0577 1.5 3.375
v 0 1.5577 3.4375
v -0.0577 1.5 3.4375
v 0 1.4423 3.4375
v 0.0577 1.5 3.4375
v 0 2.5 0.4375
v -0.3827 2.4239 0.4375
v -0.7071 2.2071 0.4375
v -0.9239 1.8827 0.4375
v -1 1.5 0.4375
v 0 2.375 -0.3125
v 0.3348 2.3084 -1.4375
v 0.6187 2.1187 -1.4375
v 0.8084 1.8348 -1.4375
v 0.875 1.5 -1.4375
v -0.875 1.5 -1.4375
v -0.8084 1.8348 -1.4375
v 1 1.5 0.4375
v 0.9239 1.8827 0.4375
v 0.7071 2.2071 0.4375
v 0.3827 2.4239 0.4375
v 0 2.5 1.3125
v -0.3827 2.4239 1.3125
v -0.7071 2.2071 1.3125
v -0.9239 1.8827 1.3125
v -1 1.5 1.3125
v -0.6187 2.1187 -1.4375
v -0.3348 2.3084 -1.4375
v 0 2.375 -1.4375
v 0.3827 2.4239 -0.4375
v 0.7071 2.2071 -0.4375
v 0.9239 1.8827 -0.4375
v 1 1.5 -0.4375
v 1 1.5 1.3125
v 0.9239 1.8827 1.3125
v 0.7071 2.2071 1.3125
v 0.3827 2.4239 1.3125
v 0 2.375 0.3125
v -0.3348 2.3084 0.3125
v -0.6187 2.1187 0.3125
v -0.8084 1.8348 0.3125
v -0.875 1.5 0.3125
v -1 1.5 -0.4375
v -0.9239 1.8827 -0.4375
v -0.7071 2.2071 -0.4375
v -0.3827 2.4239 -0.4375
v 0 2.5 -0.4375
v 0.3827 2.4239 -1.3125
v 0.7071 2.2071 -1.3125
v 0.875 1.5 0.3125
v 0.8084 1.8348 0.3125
v 0.6187 2.1187 0.3125
v 0.3348 2.3084 0.3125
v 0 2.375 1.4375
v -0.3348 2.3084 1.4375
v -0.6187 2.1187 1.4375
v -0.8084 1.8348 1.4375
v -0.875 1.5 1.4375
v 0.9239 1.8827 -1.3125
v 1 1.5 -1.3125
v -1 1.5 -1.3125
v -0.9239 1.8827 -1.3125
v -0.7071 2.2071 -1.3125
v -0.3827 2.4239 -1.3125
v 0 2.5 -1.3125
v 0.875 1.5 1.4375
v 0.8084 1.8348 1.4375
v 0.6187 2.1187 1.4375
v 0.3348 2.3084 1.4375
v -0.3348 2.3084 -0.3125
v -0.6187 2.1187 -0.3125
v -0.8084 1.8348 -0.3125
v -0.875 1.5 -0.3125
v 0.875 1.5 -0.3125
v 0.8084 1.8348 -0.3125
v 0.6187 2.1187 -0.3125
v 0.3348 2.3084 -0.3125
v 0 0.5 0.4375
v -0.3827 0.5761 0.4375
v -0.7071 0.7929 0.4375
v -0.9239 1.1173 0.4375
v 0 0.625 -0.3125
v 0.3348 0.6916 -1.4375
v 0.6187 0.8813 -1.4375
v 0.8084 1.1652 -1.4375
v -0.8084 1.1652 -1.4375
v 0.9239 1.1173 0.4375
v 0.7071 0.7929 0.4375
v 0.3827 0.5761 0.4375
v 0 0.5 1.3125
v -0.3827 0.5761 1.3125
v -0.7071 0.7929 1.3125
v -0.9239 1.1173 1.3125
v -0.6187 0.8813 -1.4375
v -0.3348 0.6916 -1.4375
v 0 0.625 -1.4375
v 0.3827 0.5761 -0.4375
v 0.7071 0.7929 -0.4375
v 0.9239 1.1173 -0.4375
v 0.9239 1.1173 1.3125
v 0.7071 0.7929 1.3125
v 0.3827 0.5761 1.3125
v 0 0.625 0.3125
v -0.3348 0.6916 0.3125
v -0.6187 0.8813 0.3125
v -0.8084 1.1652 0.3125
v -0.9239 1.1173 -0.4375
v -0.7071 0.7929 -0.4375
v -0.3827 0.5761 -0.4375
v 0 0.5 -0.4375
v 0.3827 0.5761 -1.3125
v 0.7071 0.7929 -1.3125
v 0.8084 1.1652 0.3125
v 0.6187 0.8813 0.3125
v 0.3348 0.6916 0.3125
v 0 0.625 1.4375
v -0.3348 0.6916 1.4375
v -0.6187 0.8813 1.4375
v -0.8084 1.1652 1.4375
v 0.9239 1.1173 -1.3125
v -0.9239 1.1173 -1.3125
v -0.7071 0.7929 -1.3125
v -0.3827 0.5761 -1.3125
v 0 0.5 -1.3125
v 0.8084 1.1652 1.4375
v 0.6187 0.8813 1.4375
v 0.3348 0.6916 1.4375
v -0.3348 0.6916 -0.3125
v -0.6187 0.8813 -0.3125
v -0.8084 1.1652 -0.3125
v 0.8084 1.1652 -0.3125
v 0.6187 0.8813 -0.3125
v 0.3348 0.6916 -0.3125
v 0 2.25 -1.875
v -0.287 2.1929 -1.875
v -0.5303 2.0303 -1.875
v -0.6929 1.787 -1.875
v -0.75 1.5 -1.875
v 0.75 1.5 -1.875
v 0.6929 1.787 -1.875
v 0.5303 2.0303 -1.875
v 0.287 2.1929 -1.875
v 0.3348 2.3084 -1.875
v 0.6187 2.1187 -1.875
v 0.8084 1.8348 -1.875
v 0.875 1.5 -1.875
v -0.875 1.5 -1.875
v -0.8084 1.8348 -1.875
v -0.6187 2.1187 -1.875
v -0.3348 2.3084 -1.875
v 0 2.375 -1.875
v -0.6929 1.213 -1.875
v -0.5303 0.9697 -1.875
v -0.6187 0.8813 -1.875
v -0.8084 1.1652 -1.875
v 0.8084 1.1652 -1.875
v 0.6187 0.8813 -1.875
v 0.6929 1.213 -1.875
v 0.5303 0.9697 -1.875
v -1.5 0 2
v 1.5 0 2
v 0 3 2.5
v -0.574 2.8858 2.5
v -1.0607 2.5607 2.5
v -1.3858 2.074 2.5
v -1.5 1.5 2.5
v 1.3858 2.074 2
v 1.5 1.5 2
v -1.5 1.5 2
v -1.3858 2.074 2
v -1.0607 2.5607 2
v -0.574 2.8858 2
v 0 3 2
v 1.5 1.5 2.5
v 1.3858 2.074 2.5
v 1.0607 2.5607 2.5
v 0.574 2.8858 2.5
v 1.0607 2.5607 2
v 0.574 2.8858 2
v -1.25 1.5 2.75
v -1.1548 1.9784 2.75
v -0.8839 2.3839 2.75
v -0.4784 2.6549 2.75
v 0 2.75 2.75
v 1.25 0 2.75
v -1.25 0 2.75
v 1.25 1.5 2.75
v 1.1548 1.9784 2.75
v 0.8839 2.3839 2.75
v 0.4784 2.6549 2.75
v 0 2.25 2.75
v -0.287 2.1929 2.75
v -0.5303 2.0303 2.75
v -0.6929 1.787 2.75
v -0.75 1.5 2.75
v 0.75 1.5 2.75
v 0.6929 1.787 2.75
v 0.5303 2.0303 2.75
v 0.287 2.1929 2.75
v -0.75 0 2.75
v 0.75 0 2.75
v 0 2 3.25
v -0.1913 1.9619 3.25
v -0.3536 1.8536 3.25
v -0.4619 1.6913 3.25
v -0.5 1.5 3.25
v 0.5 1.5 3.25
v 0.4619 1.6913 3.25
v 0.3536 1.8536 3.25
v 0.1913 1.9619 3.25
v 0 2.25 3
v -0.287 2.1929 3
v -0.5303 2.0303 3
v -0.6929 1.787 3
v -0.75 1.5 3
v 0.75 1.5 3
v 0.6929 1.787 3
v 0.5303 2.0303 3
v 0.287 2.1929 3
v -0.5 0 3.25
v 0.5 0 3.25
v -0.75 0 3
v 0.75 0 3
v -0.1435 1.8465 3.5
v 0 1.875 3.5
v -0.2652 1.7652 3.5
v -0.3465 1.6435 3.5
v -0.375 1.5 3.5
v -0.3465 1.3565 3.5
v -0.2652 1.2348 3.5
v -0.1435 1.1535 3.5
v 0 1.125 3.5
v 0.1435 1.1535 3.5
v 0.2652 1.2348 3.5
v 0.3465 1.3565 3.5
v 0.375 1.5 3.5
v 0.3465 1.6435 3.5
v 0.2652 1.7652 3.5
v 0.1435 1.8465 3.5
v -0.1196 1.7887 3.5
v 0 1.8125 3.5
v -0.221 1.721 3.5
v -0.2887 1.6196 3.5
v -0.3125 1.5 3.5
v -0.2887 1.3804 3.5
v -0.221 1.279 3.5
v -0.1196 1.2113 3.5
v 0 1.1875 3.5
v 0.1196 1.2113 3.5
v 0.221 1.279 3.5
v 0.2887 1.3804 3.5
v 0.3125 1.5 3.5
v 0.2887 1.6196 3.5
v 0.221 1.721 3.5
v 0.1196 1.7887 3.5
v -0.1196 1.7887 2.5
v 0 1.8125 2.5
v -0.221 1.721 2.5
v -0.2887 1.6196 2.5
v -0.3125 1.5 2.5
v -0.2887 1.3804 2.5
v -0.221 1.279 2.5
v -0.1196 1.2113 2.5
v 0 1.1875 2.5
v 0.1196 1.2113 2.5
v 0.221 1.279 2.5
v 0.2887 1.3804 2.5
v 0.3125 1.5 2.5
v 0.2887 1.6196 2.5
v 0.221 1.721 2.5
v 0.1196 1.7887 2.5
v 0.2652 1.2348 3.25
v 0.1435 1.1535 3.25
v 0 1.125 3.25
v -0.1435 1.1535 3.25
v -0.2652 1.2348 3.25
v 0.375 1.5 3.25
v 0.3465 1.3565 3.25
v -0.3465 1.3565 3.25
v -0.375 1.5 3.25
v 0.3465 1.6435 3.25
v 0.2652 1.7652 3.25
v -0.2652 1.7652 3.25
v -0.3465 1.6435 3.25
v 0.1435 1.8465 3.25
v -0.1435 1.8465 3.25
v 0 1.875 3.25
v -0.1913 1.9619 -1.25
v 0 2 -1.25
v -0.3536 1.8536 -1.25
v -0.4619 1.6913 -1.25
v -0.5 1.5 -1.25
v -0.4619 1.3087 -1.25
v -0.3536 1.1464 -1.25
v -0.1913 1.0381 -1.25
v 0 1 -1.25
v 0.1913 1.0381 -1.25
v 0.3536 1.1464 -1.25
v 0.4619 1.3087 -1.25
v 0.5 1.5 -1.25
v 0.4619 1.6913 -1.25
v 0.3536 1.8536 -1.25
v 0.1913 1.9619 -1.25
v 0 2 1.25
v -0.1913 1.9619 1.25
v -0.3536 1.8536 1.25
v -0.4619 1.6913 1.25
v -0.5 1.5 1.25
v -0.4619 1.3087 1.25
v -0.3536 1.1464 1.25
v -0.1913 1.0381 1.25
v 0 1 1.25
v 0.1913 1.0381 1.25
v 0.3536 1.1464 1.25
v 0.4619 1.3087 1.25
v 0.5 1.5 1.25
v 0.4619 1.6913 1.25
v 0.3536 1.8536 1.25
v 0.1913 1.9619 1.25
v 0 2 -0.5
v -0.1913 1.9619 -0.5
v -0.3536 1.8536 -0.5
v -0.4619 1.6913 -0.5
v -0.5 1.5 -0.5
v -0.4619 1.3087 -0.5
v -0.3536 1.1464 -0.5
v -0.1913 1.0381 -0.5
v 0 1 -0.5
v 0.1913 1.0381 -0.5
v 0.3536 1.1464 -0.5
v 0.4619 1.3087 -0.5
v 0.5 1.5 -0.5
v 0.4619 1.6913 -0.5
v 0.3536 1.8536 -0.5
v 0.1913 1.9619 -0.5
v -0.1913 1.9619 0.5
v 0 2 0.5
v -0.3536 1.8536 0.5
v -0.4619 1.6913 0.5
v -0.5 1.5 0.5
v -0.4619 1.3087 0.5
v -0.3536 1.1464 0.5
v -0.1913 1.0381 0.5
v 0 1 0.5
v 0.1913 1.0381 0.5
v 0.3536 1.1464 0.5
v 0.4619 1.3087 0.5
v 0.5 1.5 0.5
v 0.4619 1.6913 0.5
v 0.3536 1.8536 0.5
v 0.1913 1.9619 0.5
v 0 1.875 1.25
v -0.1435 1.8465 1.25
v -0.2652 1.7652 1.25
v -0.3465 1.6435 1.25
v -0.375 1.5 1.25
v -0.3465 1.3565 1.25
v -0.2652 1.2348 1.25
v -0.1435 1.1535 1.25
v 0 1.125 1.25
v 0.1435 1.1535 1.25
v 0.2652 1.2348 1.25
v 0.3465 1.3565 1.25
v 0.375 1.5 1.25
v 0.3465 1.6435 1.25
v 0.2652 1.7652 1.25
v 0.1435 1.8465 1.25
v -0.1435 1.8465 0.5
v 0 1.875 0.5
v -0.2652 1.7652 0.5
v -0.3465 1.6435 0.5
v -0.375 1.5 0.5
v -0.3465 1.3565 0.5
v -0.2652 1.2348 0.5
v -0.1435 1.1535 0.5
v 0 1.125 0.5
v 0.1435 1.1535 0.5
v 0.2652 1.2348 0.5
v 0.3465 1.3565 0.5
v 0.375 1.5 0.5
v 0.3465 1.6435 0.5
v 0.2652 1.7652 0.5
v 0.1435 1.8465 0.5
v 0 1.875 -0.5
v -0.1435 1.8465 -0.5
v -0.2652 1.7652 -0.5
v -0.3465 1.6435 -0.5
v -0.375 1.5 -0.5
v -0.3465 1.3565 -0.5
v -0.2652 1.2348 -0.5
v -0.1435 1.1535 -0.5
v 0 1.125 -0.5
v 0.1435 1.1535 -0.5
v 0.2652 1.2348 -0.5
v 0.3465 1.3565 -0.5
v 0.375 1.5 -0.5
v 0.3465 1.6435 -0.5
v 0.2652 1.7652 -0.5
v 0.1435 1.8465 -0.5
v -0.1435 1.8465 -1.25
v 0 1.875 -1.25
v -0.2652 1.7652 -1.25
v -0.3465 1.6435 -1.25
v -0.375 1.5 -1.25
v -0.3465 1.3565 -1.25
v -0.2652 1.2348 -1.25
v -0.1435 1.1535 -1.25
v 0 1.125 -1.25
v 0.1435 1.1535 -1.25
v 0.2652 1.2348 -1.25
v 0.3465 1.3565 -1.25
v 0.375 1.5 -1.25
v 0.3465 1.6435 -1.25
v 0.2652 1.7652 -1.25
v 0.1435 1.8465 -1.25
v -1.5 0 2.5
v 1.5 0 2.5
v 0 3 2.5
v -0.574 2.8858 2.5
v -1.0607 2.5607 2.5
v -1.3858 2.074 2.5
v -1.5 1.5 2.5
v 1.5 1.5 2.5
v 1.3858 2.074 2.5
v 1.0607 2.5607 2.5
v 0.574 2.8858 2.5
v -1.25 1.5 2.75
v -1.1548 1.9784 2.75
v -0.8839 2.3839 2.75
v -0.4784 2.6549 2.75
v 0 2.75 2.75
v 1.25 0 2.75
v -1.25 0 2.75
v 1.25 1.5 2.75
v 1.1548 1.9784 2.75
v 0.8839 2.3839 2.75
v 0.4784 2.6549 2.75
v -0.6929 1.787 3
v -0.5303 2.0303 3
v -0.287 2.1929 3
v 0 2.25 3
v -0.5 -0 -2.25
v 0.5 -0 -2.25
v 0 2.25 -1.75
v -0.287 2.1929 -1.75
v -0.5303 2.0303 -1.75
v -0.6929 1.787 -1.75
v -0.75 1.5 -1.75
v 0.75 1.5 -1.75
v 0.6929 1.787 -1.75
v 0.5303 2.0303 -1.75
v 0.287 2.1929 -1.75
v 0 2.25 -2
v -0.287 2.1929 -2
v -0.5303 2.0303 -2
v -0.6929 1.787 -2
v -0.75 1.5 -2
v 0.75 1.5 -2
v 0.6929 1.787 -2
v 0.5303 2.0303 -2
v 0.287 2.1929 -2
v -0.75 -0 -1.75
v 0.75 -0 -1.75
v -0.75 -0 -2
v 0.75 -0 -2
v -1.25 0 1.75
v 1.25 0 1.75
v -1.25 1.5 1.75
v -1.1548 1.9784 1.75
v -0.8839 2.3839 1.75
v -0.4784 2.6549 1.75
v 0 2.75 1.75
v 0.574 2.8858 2
v 1.0607 2.5607 2
v 0 3 2
v -0.574 2.8858 2
v -1.0607 2.5607 2
v -1.3858 2.074 2
v -1.5 1.5 2
v 1.5 1.5 2
v 1.3858 2.074 2
v 1.5 0 2
v -1.5 0 2
v 1.25 1.5 1.75
v 1.1548 1.9784 1.75
v 0.8839 2.3839 1.75
v 0.4784 2.6549 1.75
v -0.75 0 3
v 0.75 0 3
v -0.75 0 2.75
v 0.75 0 2.75
v 0 0 2.5
v 0.625 2.125 1.75
v 0.0476 1.7392 1.75
v -0.375 0 2.625
v 0 0.5 -1.75
v 0.75 0.75 -1.75
v -0.5 0.75 3.25
v 1.25 0.75 1.75
v 0 1.5 1.75
v 0.75 0.75 2.75
v -0.5 0.75 3.25
v 0.75 0.75 3
v 0.75 0.125 -0
v -0.625 0.375 -0
v 0 0 2.75
v -0.75 0.5 -0
v 0.5 0.75 3.25
v 0 0 1.75
v -1.25 0.75 1.75
v -0.75 0.75 3
v -0.75 0.75 2.75
v -0.75 0.75 3
v 0.5 0.75 3.25
v -1.5 0.75 2
v 0 0 2
v 0 0 2
v 0.75 0.75 3
v -0.75 0.75 -1.75
v -1.5 0.75 2
v 1.25 0.75 2.75
v -1.5 0.75 2.5
v 1.5 0.75 2
v -0.75 0 0
v 0 0 1.75
v 0.625 0.125 -0
v 0.75 0.375 -0
v 1.25 0.75 2.75
v 1.5 0.75 2.5
v 0.75 0.75 -1.75
v -0.75 0.75 -2
v 1.5 0.75 2
v 1.5 0.75 2.5
v 0.75 0 0
v 0 -0 -1.75
v -0.5 0.75 -2.25
v 0 0 1.75
v 0.75 0.75 -2
v -1.25 0.75 1.75
v 0.5 0.75 -2.25
v -1.5 0.75 2.5
v -0.625 0.125 -0
v -0.75 0.375 -0
v -0.125 0 1.875
v -0.75 0.75 2.75
v 0 -0 -1.75
v 0.5 0.75 -2.25
v -1.25 0.75 2.75
v 1.25 0.75 1.75
v -0.5 0.75 -2.25
v -1.25 0.75 2.75
v 0.75 0.75 2.75
v 0.75 0.75 -2
v 0 0 3
v -0.75 0.125 -0
v 0.625 0.375 -0
v 0.75 0.5 -0
v 0 0.5 1.75
v 0 1.5 -1.75
v -0.75 0.75 -1.75
v -0.75 0.75 -2
v 0 0 0
v 0 0.5 -0
v 0 0.75 1.75
v 0 0.75 -1.75
v 0.75 0 2.5
v 0.625 0.375 0.875
v 0 0.5 -0.875
v 0.75 0.125 0.875
v 0.75 0.125 -0.875
v -0.625 0.375 0.875
v -0.75 0.5 0.875
v 0 0 0.875
v 0 0.5 0.875
v -0.75 0 2
v 0.75 0 2
v -0.75 0.5 -0.875
v -0.75 -0 -0.875
v 0.625 0.125 -0.875
v 0.75 0.375 -0.875
v 0.75 0 0.875
v -0.625 0.375 -0.875
v 0.75 -0 -0.875
v -0.75 0.125 -0.875
v 0.75 0.375 0.875
v -0.625 0.125 0.875
v -0.75 0.375 0.875
v -0.75 0 2.5
v 0 -0 -0.875
v 0.75 0.5 0.875
v -0.625 0.125 -0.875
v -0.75 0.375 -0.875
v 0.75 0 2
v 0.625 0.125 0.875
v -0.75 0 0.875
v -0.75 0 2
v -0.75 0.125 0.875
v 0.625 0.375 -0.875
v 0.75 0.5 -0.875
vt 0.3523 0.8571
vt 0.2798 0.8452
vt 0.3523 0.8452
vt 0.0622 0.5536
vt 0.0363 0.5298
vt 0.0622 0.5298
vt 0.0622 0.6607
vt 0.0829 0.6548
vt 0.0829 0.6607
vt 0.1762 0.744
vt 0.1347 0.7083
vt 0.1762 0.6964
vt 0.1088 0.9048
vt 0.114 0.8929
vt 0.114 0.9048
vt 0.114 0.8214
vt 0.1088 0.8333
vt 0.1088 0.8214
vt 0.0829 0.6964
vt 0.0622 0.6905
vt 0.0829 0.6905
vt 0.1762 0.6429
vt 0.1347 0.6786
vt 0.1347 0.6548
vt 0.4767 0.0893
vt 0.487 0.1071
vt 0.4767 0.1071
vt 0.8446 0.6548
vt 0.7927 0.619
vt 0.8446 0.619
vt 0.1451 0.0952
vt 0.1658 0.1429
vt 0.1658 0.2143
vt 0.1865 0.0714
vt 0.1865 0.0238
vt 0.2073 0
vt 0.7927 0.1905
vt 0.8446 0.2262
vt 0.7927 0.2262
vt 0.0259 0.8571
vt 0.1088 0.869
vt 0.0259 0.869
vt 0.1347 0.4524
vt 0.114 0.4286
vt 0.1347 0.4286
vt 0.5596 0.1607
vt 0.601 0.1429
vt 0.601 0.1607
vt 0.0725 0.7083
vt 0.0829 0.7024
vt 0.0829 0.7083
vt 0.1451 0.125
vt 0.1244 0.0714
vt 0.1451 0.0714
vt 0.1347 0.8929
vt 0.114 0.881
vt 0.1347 0.881
vt 0.0829 0.2857
vt 0.114 0.3571
vt 0.0829 0.3571
vt 0.3834 0.1607
vt 0.3212 0.1786
vt 0.3212 0.1607
vt 0.8601 0.369
vt 0.9326 0.3333
vt 0.9326 0.369
vt 0.5907 0.5119
vt 0.5803 0.5595
vt 0.5803 0.5119
vt 0.8446 0.5833
vt 0.7927 0.5476
vt 0.8446 0.5476
vt 0.0415 0.3929
vt 0 0.2857
vt 0.1347 0.9286
vt 0.1762 1
vt 0.1347 1
vt 0.7358 0.1786
vt 0.7047 0.1905
vt 0.6632 0.1429
vt 0.1347 0.9881
vt 0.114 0.9762
vt 0.1347 0.9762
vt 0.0363 0.4762
vt 0.0622 0.5
vt 0.0363 0.5
vt 0.8601 0.1905
vt 0.9326 0.2262
vt 0.8601 0.2262
vt 0.4974 0.5714
vt 0.5699 0.5833
vt 0.4974 0.5833
vt 0.0984 0.119
vt 0.1192 0.0774
vt 0.1192 0.119
vt 0.8601 0.4405
vt 0.9326 0.4048
vt 0.9326 0.4405
vt 0.9845 0.5476
vt 0.9482 0.5833
vt 0.9482 0.5476
vt 0.3523 0.7976
vt 0.2798 0.7857
vt 0.3523 0.7857
vt 0.1347 0.8452
vt 0.114 0.8333
vt 0.1347 0.8333
vt 0.8446 0.5119
vt 0.7927 0.4762
vt 0.8446 0.4762
vt 0.2073 0.5357
vt 0.2487 0.4821
vt 0.2487 0.5357
vt 0.9845 0.4048
vt 0.9482 0.4405
vt 0.9482 0.4048
vt 0.1244 0.2321
vt 0.1192 0.2798
vt 0.1192 0.2381
vt 0.1244 0.1786
vt 0.1192 0.2262
vt 0.1192 0.1845
vt 0.1244 0.125
vt 0.1192 0.1726
vt 0.1192 0.131
vt 0.1347 0.8393
vt 0.1762 0.8036
vt 0.1762 0.8512
vt 0.3938 0.25
vt 0.4767 0.2321
vt 0.4767 0.25
vt 0.3938 0.2143
vt 0.4767 0.1964
vt 0.4767 0.2143
vt 0.1451 0.2857
vt 0.1451 0.2321
vt 0.6632 0.2262
vt 0.6891 0.1905
vt 0.6891 0.2262
vt 0.9845 0.4762
vt 0.9482 0.5119
vt 0.9482 0.4762
vt 0.1347 0.9167
vt 0.114 0.9286
vt 0.114 0.9167
vt 0.1762 0.5298
vt 0.1347 0.494
vt 0.1762 0.4821
vt 0.1088 0.881
vt 0.1088 0.9405
vt 0.1088 0.9286
vt 0.114 0.869
vt 0.1088 0.8571
vt 0.114 0.8571
vt 0.114 0.9405
vt 0.1088 0.9524
vt 0.1088 0.8452
vt 0.114 0.8452
vt 0.0622 0.7024
vt 0.1088 0.8095
vt 0.114 0.8095
vt 0.1088 1
vt 0.114 0.9881
vt 0.114 1
vt 0.1088 0.9881
vt 0.1088 0.9762
vt 0.3212 0.0179
vt 0.3109 0.0357
vt 0.3109 0.0179
vt 0.1088 0.9167
vt 0.114 0.9643
vt 0.114 0.9524
vt 0.0829 0.5
vt 0.0829 0.5298
vt 0.4767 0.125
vt 0.487 0.1429
vt 0.4767 0.1429
vt 0.2694 0.1786
vt 0.3109 0.1607
vt 0.3109 0.1786
vt 0.0829 0.7381
vt 0.0725 0.7321
vt 0.0829 0.7321
vt 0.0259 0.9048
vt 0.0259 0.9167
vt 0.9845 0.2619
vt 0.9482 0.2976
vt 0.9482 0.2619
vt 0.7047 0.5833
vt 0.6891 0.619
vt 0.6891 0.5833
vt 0.7876 0.119
vt 0.7461 0.1429
vt 0.7461 0.0714
vt 0.2073 0.8571
vt 0.2487 0.9286
vt 0.2073 0.9286
vt 0.3523 0.8333
vt 0.2798 0.8095
vt 0.3523 0.8095
vt 0.7927 0.4405
vt 0.8446 0.4405
vt 0.0829 0.6845
vt 0.0622 0.6786
vt 0.057 0.4762
vt 0.0415 0.4643
vt 0.0518 0.4643
vt 0.1347 0.7857
vt 0.1762 0.75
vt 0.1762 0.7976
vt 0.5596 0.25
vt 0.5492 0.2321
vt 0.5596 0.2321
vt 0.9326 0.6548
vt 0.8601 0.619
vt 0.9326 0.619
vt 0.7047 0.4405
vt 0.7772 0.4048
vt 0.7772 0.4405
vt 0.6114 0.3571
vt 0.5492 0.4286
vt 0.5492 0.3571
vt 0.2694 0.0893
vt 0.3109 0.0714
vt 0.3109 0.0893
vt 0.5492 0.25
vt 0.487 0.2679
vt 0.487 0.25
vt 0.8601 0.4762
vt 0.9326 0.4762
vt 0.1244 0.2857
vt 0.6632 0.2619
vt 0.6891 0.2619
vt 0.1347 0.5476
vt 0.114 0.5238
vt 0.1347 0.5238
vt 0.3834 0.2321
vt 0.3212 0.25
vt 0.3212 0.2321
vt 0.0259 0.8214
vt 0.0259 0.8333
vt 0.6632 0.5833
vt 0.6891 0.5476
vt 0.2487 0.8571
vt 0.2073 0.8036
vt 0.2487 0.8036
vt 0.6632 0.6548
vt 0.6891 0.6548
vt 0.7927 0.4048
vt 0.8446 0.4048
vt 0.5596 0.1071
vt 0.601 0.0893
vt 0.601 0.1071
vt 0.6321 0.1667
vt 0.6114 0.1429
vt 0.6321 0.1429
vt 0.5492 0.1071
vt 0.487 0.125
vt 0.7047 0.5119
vt 0.7772 0.4762
vt 0.7772 0.5119
vt 0.3834 0.0536
vt 0.3212 0.0714
vt 0.3212 0.0536
vt 0.5492 0.1607
vt 0.487 0.1786
vt 0.487 0.1607
vt 0.6114 0.4286
vt 0.5959 0.4762
vt 0.0829 0.6667
vt 0.9845 0.2976
vt 1 0.2619
vt 1 0.2976
vt 0.9845 0.5119
vt 1 0.4762
vt 1 0.5119
vt 1 0.619
vt 0.9845 0.6548
vt 0.9845 0.619
vt 0.3316 0.4881
vt 0.2798 0.4286
vt 0.3782 0.4524
vt 0.1762 0.4762
vt 0.1347 0.4405
vt 0.1762 0.4286
vt 0.3938 0.1786
vt 0.3938 0.1607
vt 0.1762 0.6369
vt 0.1347 0.6012
vt 0.1762 0.5893
vt 0.487 0.0536
vt 0.4767 0.0714
vt 0.4767 0.0536
vt 0.487 0.0893
vt 0.0829 0.4286
vt 0.0725 0.4405
vt 0.0725 0.4286
vt 0.487 0.2321
vt 0.5596 0.0536
vt 0.5492 0.0357
vt 0.5596 0.0357
vt 0.3834 0.125
vt 0.3938 0.1071
vt 0.3938 0.125
vt 0.3834 0.0179
vt 0.3938 0
vt 0.3938 0.0179
vt 0.0311 0.4643
vt 0.0415 0.4762
vt 0.0259 0.4762
vt 0.3938 0.1429
vt 0.3834 0.1429
vt 0.0104 0.4643
vt 0.487 0.0179
vt 0.4767 0.0357
vt 0.4767 0.0179
vt 0.487 0.1964
vt 0.4767 0.1786
vt 0.3109 0
vt 0.1347 0.5714
vt 0.1762 0.5357
vt 0.1762 0.5833
vt 0.5492 0.0893
vt 0.5596 0.0893
vt 0.5492 0.2143
vt 0.5596 0.1964
vt 0.5596 0.2143
vt 0.3109 0.2143
vt 0.3109 0.2321
vt 0.3212 0.1071
vt 0.3109 0.1071
vt 1 0.5476
vt 0.3938 0.2857
vt 0.3834 0.2679
vt 0.3938 0.2679
vt 0.4767 0.2857
vt 0.4767 0.2679
vt 0.5492 0.2679
vt 0.3212 0.1964
vt 0.3109 0.1964
vt 0.5596 0.0714
vt 0.5596 0.1786
vt 0.5492 0.1964
vt 0.5492 0.1786
vt 0.5596 0.1429
vt 0.5492 0.1429
vt 0.5596 0.125
vt 0.0725 0.4643
vt 0.3109 0.125
vt 0.3212 0.1429
vt 0.3109 0.1429
vt 0.3212 0.2679
vt 0.3109 0.2857
vt 0.3109 0.2679
vt 0.3109 0.25
vt 0.3938 0.0714
vt 0.3938 0.0536
vt 0.5492 0.0536
vt 0.0104 0.4405
vt 0 0.4464
vt 0.3834 0.25
vt 0.5596 0.2857
vt 0.5596 0.2679
vt 0.5492 0.0179
vt 0.5596 0.0179
vt 0.3109 0.0536
vt 0.3212 0.0357
vt 0.3834 0.0357
vt 0.3938 0.0357
vt 0.1088 0.9643
vt 0.3834 0.0893
vt 0.3938 0.0893
vt 0.0622 0.4524
vt 0.0829 0.4464
vt 0.4767 0
vt 0.487 0
vt 0.3834 0.1964
vt 0.3834 0.1786
vt 0.4767 0.1607
vt 0.3938 0.2321
vt 0.3212 0.0893
vt 0.3834 0.2143
vt 0.2694 0.2619
vt 0.2487 0.2857
vt 0.2487 0.2143
vt 0.7047 0.6905
vt 0.7772 0.6905
vt 0.7772 0.7262
vt 0.5699 0.8571
vt 0.4974 0.8571
vt 0.4974 0.8452
vt 0.0622 0.6488
vt 0.5699 0.8095
vt 0.4974 0.7976
vt 0.5699 0.7976
vt 0.5699 0.8333
vt 0.4974 0.8095
vt 0.5699 0.8452
vt 0.7927 0.6548
vt 0.2798 0.619
vt 0.3523 0.631
vt 0.2798 0.631
vt 0.2694 0.25
vt 0.2694 0.2321
vt 0.1451 0.1905
vt 0.2073 0.2143
vt 0.2073 0.2857
vt 0.1865 0.2143
vt 0.1865 0.2619
vt 0.1969 0.1071
vt 0.1865 0.1429
vt 0.601 0.1964
vt 0.2073 0.1429
vt 0.4249 0.8452
vt 0.4249 0.8333
vt 0.1451 0.1786
vt 0.4974 0.619
vt 0.5699 0.619
vt 0.5699 0.631
vt 0.9845 0.3333
vt 0.9845 0.369
vt 0.9482 0.369
vt 0.2694 0.0357
vt 0.2694 0.0179
vt 0.114 0.4524
vt 0.0829 0.6786
vt 0.0622 0.6726
vt 0.6632 0.0714
vt 0.5751 0.494
vt 0.5492 0.5
vt 0.5233 0.494
vt 0.5026 0.4762
vt 0.4922 0.4524
vt 0.2487 0.1429
vt 0.2073 0.0714
vt 0.2487 0.0714
vt 0.9482 0.3333
vt 0.2694 0.2857
vt 0.2694 0.2679
vt 0.6062 0.4524
vt 0.7461 -0
vt 0.7668 -0
vt 0.7876 0.0238
vt 0.2073 0.3571
vt 0.1762 0.2857
vt 0.7668 0.1429
vt 0.7202 0.1845
vt 0.6891 0.1845
vt 0.6736 0.1786
vt 0.6684 0.1607
vt 0.5907 0.5595
vt 0.6529 0.5714
vt 0.5907 0.5714
vt 0.601 0.2321
vt 0.7409 0.1607
vt 0.8601 0.5833
vt 0.9326 0.5833
vt 0.2591 0.131
vt 0.5492 0.125
vt 0.4974 0.8333
vt 0.601 0.25
vt 0.3523 0.619
vt 0.4249 0.619
vt 0.4249 0.631
vt 0.1762 0.3571
vt 0.1347 0.869
vt 0.1347 0.6905
vt 0.114 0.6905
vt 0.114 0.619
vt 0.1347 0.7321
vt 0.5492 0
vt 0.5596 0
vt 0.601 0.0179
vt 0.6632 0.4405
vt 0.6632 0.4048
vt 0.6891 0.4048
vt 0.342 0.5357
vt 0.4767 0.4762
vt 0.3834 0.4286
vt 0.6114 0.0714
vt 0.6321 0.0714
vt 0.2798 0.5714
vt 0.3523 0.5833
vt 0.2798 0.5833
vt 0.1762 0.6905
vt 0.6632 0.4048
vt 0.6321 0.3333
vt 0.6632 0.3333
vt 0.6632 -0
vt 0.4974 0.7857
vt 0.5699 0.7857
vt 0.3523 0.7143
vt 0.2798 0.6429
vt 0.3523 0.6429
vt 0.4249 0.7143
vt 0.4974 0.7143
vt 0.4249 0.6429
vt 0.4974 0.6429
vt 0.0519 0.8092
vt 0.0425 0.8047
vt 0.0353 0.7964
vt 0.0314 0.7856
vt 0.0314 0.7739
vt 0.0353 0.7631
vt 0.0425 0.7548
vt 0.0519 0.7503
vt 0.0621 0.7503
vt 0.0715 0.7548
vt 0.0787 0.7631
vt 0.0826 0.7739
vt 0.0826 0.7856
vt 0.0787 0.7964
vt 0.0715 0.8047
vt 0.0621 0.8092
vt 0.2694 0.125
vt 0.2694 0.1071
vt 0.3212 0.2143
vt 0.0725 0.7024
vt 0.3523 0.5952
vt 0.487 0.0357
vt 0.3212 0.125
vt -0 0.4286
vt 0.4249 0.5952
vt 0.3938 0.1964
vt 0.2073 0.75
vt 0.8446 0.6905
vt 0.7927 0.6905
vt 0.0207 0.4524
vt 0.0622 0.4048
vt 0.0725 0.4167
vt 0 0.3571
vt 0.0207 0.4048
vt 0.1347 0.3571
vt 0.0311 0.3929
vt 0.0104 0.4167
vt 0.0104 0.4286
vt 0.0518 0.3929
vt 0.0259 0.9881
vt 0.7927 0.2619
vt 0.0622 0.744
vt 0.0622 0.7381
vt 0.0674 0.7381
vt 0.0725 0.7381
vt 0.8446 0.369
vt 0.7927 0.369
vt 0.7927 0.3333
vt 0.0725 0.744
vt 0.0725 0.75
vt 0.0674 0.75
vt 0.0622 0.75
vt 0.2798 0.5952
vt 0.5699 0.7143
vt 0.2487 -0
vt 0.0622 0.4762
vt 0.4249 0.9286
vt 0.4249 0.8571
vt 0.7927 0.5833
vt 0.2798 0.4762
vt 0.7047 0.619
vt 0.7772 0.5833
vt 0.3834 0.2857
vt 0.3212 0.2857
vt 0.6632 0.4762
vt 0.6891 0.4405
vt 0.0984 0.2262
vt 0.0984 0.1845
vt 0.3523 0.9286
vt 0.2798 0.9286
vt 0.2798 0.8571
vt 0.2073 0.4821
vt 0.2073 0.4286
vt 0.2487 0.4286
vt 0.6114 0
vt 0.6321 0
vt 0.9845 0.6905
vt 0.9845 0.7262
vt 0.9482 0.7262
vt 0.4249 0.7976
vt 0.4249 0.7857
vt 0.2487 1
vt 0.0984 0.1726
vt 0.0984 0.131
vt 0.2073 0.5893
vt 0.114 0.7619
vt 0.0829 0.7619
vt 0.0829 0.6905
vt 0.2073 0.6429
vt 0.2487 0.5893
vt 0.2694 0.1964
vt 0.7927 0.5119
vt 0.6321 0.4048
vt 0.6114 0.3333
vt 0.1762 0.9286
vt 0.1762 0.8571
vt 0.487 0.4286
vt 0.3834 0.3571
vt 0.487 0.3571
vt 0.1658 0.0714
vt 0.0363 0.5536
vt 0.456 0.5119
vt 0.4249 0.5357
vt 0.3834 0.5476
vt 0.3109 0.5119
vt 0.2902 0.4762
vt 0.4249 0.8095
vt 0.1088 0.8929
vt 0.1347 0.5179
vt 0.5699 0.6429
vt 0.2798 1
vt 0.4249 0.5833
vt 0.4974 0.5952
vt 0.6632 0.1905
vt 0.8446 0.1905
vt 0.2073 1
vt 0.5699 1
vt 0.4974 0.9286
vt 0.5699 0.9286
vt 0.8601 0.4048
vt 0.4974 0.631
vt 0.6114 0.2857
vt 0.5492 0.2857
vt 0.1347 0.8155
vt 0.8601 0.3333
vt 0.2798 0.7976
vt 0.1347 0.9286
vt 0.5699 0.5714
vt 0.114 0.2857
vt 0.2694 0.0238
vt 0.2487 0.3571
vt 0.487 0.2857
vt 0.3523 0.5714
vt 0.4249 1
vt 0.0829 0.619
vt 0.9326 0.1905
vt 0.2798 0.3571
vt 0.9845 0.5833
vt 0.9845 0.4405
vt 0.1347 0.619
vt 0.0984 0.0774
vt 0.2694 0.1429
vt 0.601 0.1786
vt 0.114 0.5
vt 0.0829 0.5952
vt 0.114 0.5952
vt 0.0829 0.5417
vt 0.0829 0.5238
vt 0.2487 0.6429
vt 0.2798 0.6905
vt 0.2487 0.6964
vt 0.114 0.5714
vt 0.0829 0.5893
vt 0.0829 0.5714
vt 0.6632 0.1607
vt 0.1347 0.4762
vt 0.601 0.2143
vt 0.0259 0.9762
vt 0.1347 0.9405
vt 0.7772 0.5476
vt 0.9482 0.619
vt 0.0829 0.6726
vt 0.0259 0.9405
vt 0.0259 0.9286
vt 0.2694 0.0714
vt 0.6321 0.2857
vt 0.6321 0.2619
vt 0.9326 0.2976
vt 0.9326 0.2619
vt 0.6632 0.2143
vt 0.6321 0.2381
vt 0.6321 0.2143
vt 0.6632 0.1667
vt 0.6321 0.1905
vt 0.8601 0.5476
vt 0.9326 0.5119
vt 0.9326 0.5476
vt 0.8601 0.7262
vt 0.9326 0.7619
vt 0.8601 0.7619
vt 0.8446 0.7262
vt 0.7927 0.7619
vt 0.7927 0.7262
vt 0.1347 0.5952
vt 0.0829 0.744
vt 0.601 0.2679
vt 0.1347 0.8571
vt 0.7047 0.7262
vt 0.1347 0.7619
vt 0.5699 0.5952
vt 0.8601 0.6905
vt 0.9326 0.7262
vt 0.0829 0.7202
vt 0.0725 0.7143
vt 0.0829 0.7143
vt 0.0259 0.881
vt 0.601 0.0536
vt 0.601 0.0714
vt 0.1347 0.5
vt 0.7047 0.2262
vt 0.7772 0.2619
vt 0.7047 0.2619
vt 0.8446 0.2619
vt 0.2487 0.75
vt 0.2073 0.6964
vt 0.6114 0.2381
vt 0.0984 0.2798
vt 0.8601 0.2619
vt 0.8601 0.2976
vt 0.1347 0.9048
vt 0.0829 0.7262
vt 0.7047 0.369
vt 0.7772 0.3333
vt 0.7772 0.369
vt 0.7047 0.4048
vt 0.0155 0.5298
vt 0.487 0.0714
vt 0.1347 0.9643
vt 0.601 0.0357
vt 0.8446 0.3333
vt 0.6891 0.369
vt 0.6529 0.5119
vt 0.5907 0.5
vt 0.6529 0.5
vt 0.487 0.2143
vt 0.7772 0.2262
vt 0.6321 0.4762
vt 0.6114 0.4048
vt 0.1347 0.8214
vt 0.9482 0.6905
vt 0.9482 0.6548
vt 0.7047 0.4762
vt 0.601 0.2857
vt 0.2694 0.1607
vt 0.0259 0.8452
vt 0.8601 0.6548
vt 0.9326 0.6905
vt 0.601 0
vt 0.2694 0.0536
vt 0.7047 0.6548
vt 0.114 0.4762
vt 0.3523 1
vt 0.2798 0.2857
vt 0.2798 0.8333
vt 0.1347 0.8095
vt 0.6632 0.6905
vt 0.6891 0.6905
vt 0.7927 0.2976
vt 0.114 0.5476
vt 0.6632 0.5476
vt 0.6891 0.5119
vt 0.9845 0.2262
vt 0.9482 0.2262
vt 0.6891 0.4762
vt 0.6114 0.2619
vt 0.6529 0.5595
vt 0.8601 0.5119
vt 0.7772 0.619
vt 0.6114 0.1667
vt 0.6114 0.1905
vt 0.0725 0.7202
vt 0.7772 0.2976
vt 0.7047 0.3333
vt 0.7047 0.2976
vt 1 0.5833
vt 1 0.4048
vt 1 0.369
vt 0.601 0.125
vt 1 0.4405
vt 1 0.3333
vt 1 0.6548
vt 0.2798 0.7143
vt 0.6114 0.2143
vt 0.8446 0.2976
vt 0.3834 0
vt 0.3212 0
vt 0.2694 0.1429
vt 0.2694 0.2143
vt 0.6114 0.3095
vt 0.6321 0.3095
vt 0.7047 0.5476
vt 0.7772 0.6548
vt 0.6632 0.5119
vt 0.6632 0.5595
vt 0.7772 0.7619
vt 0.7047 0.7619
vt 0.0259 0.8095
vt 0.9482 0.7619
vt 0.0259 1
vt 0.6891 0.2976
vt 0.6632 0.2976
vt 0.6632 0.3095
vt 0.0829 0.4762
vt 0.2798 0.744
vt 0.2798 0.6964
vt 0.6632 0.256
vt 0.6632 0.2381
vt 0.6632 0.3036
vt 0.0829 0.4524
vt 0.6891 0.3333
vt 0.8446 0.7619
vt 0.9482 0.1905
vt 0.6891 0.7262
vt 0.6891 0.7619
vt 0.6632 0.369
vt 0.6632 0.7262
vt 0.3834 0.1071
vt 0.1347 0.2857
vt 0.1347 0.9524
vt 0.6632 0.619
vt 0.0259 0.8929
vt 0.9845 0.1905
vt 0.0829 0.75
vt 0.0259 0.9524
vt 0.0259 0.9643
vt 0.2798 0.75
vt 0.0829 0.5476
vt 0.2798 0.6369
vt 0.2798 0.4821
vt 0.6632 0.7619
vt 0.2798 0.8512
vt 0.2798 0.8036
vt 0.1347 0.4643
vt 0.3834 0.0714
vt 0.0155 0.5
vt 0.4974 1
vt 0.0829 0.5179
vt 0.5492 0.0714
vt 0.6632 0.2321
vt 0.0725 0.7262
vt 0.6632 0.1845
vt 0.7772 0.1905
vt 0.6632 0.2083
vt 0.4249 0.5714
vt 0.6114 0.4762
vt 0.0829 0.6131
vt 0.1347 0.625
vt 0.0984 0.2381
vt 0.2694 0
vt 0.6632 0.2798
vt 1 0.6905
vt 0.9845 0.7619
vt 0.6632 0.3274
vt 0.0829 0.494
vt 0.6632 0.2857
vt 0.0829 0.4702
vt 0.0829 0.5655
vt 0.2798 0.5893
vt 0.2798 0.5357
vt 0.2798 0.5298
s 1
f 1233/1 76/2 1228/3
f 109/4 115/5 111/6
f 454/7 446/8 465/9
f 825/10 835/11 826/12
f 333/13 331/14 317/15
f 325/16 342/17 341/18
f 405/19 413/20 647/21
f 827/22 835/23 834/24
f 976/25 1041/26 977/27
f 633/28 504/29 535/30
f 54/31 1197/32 57/33
f 58/34 40/35 1/36
f 599/37 638/38 614/39
f 887/40 902/41 886/42
f 9/43 41/44 17/45
f 148/46 132/47 133/48
f 308/49 307/50 305/51
f 128/52 125/53 129/54
f 928/55 881/56 925/57
f 864/58 1161/59 1157/60
f 244/61 230/62 229/63
f 494/64 522/65 521/66
f 296/67 295/68 293/69
f 534/70 502/71 533/72
f 55/58 366/73 54/74
f 1188/75 829/76 843/77
f 99/78 97/79 102/80
f 918/81 873/82 919/83
f 112/84 110/85 114/86
f 608/87 609/88 591/89
f 1220/90 78/91 1235/92
f 120/93 117/94 116/95
f 492/96 511/97 510/98
f 555/99 479/100 489/101
f 1212/102 61/103 1224/104
f 115/5 110/85 111/6
f 921/105 877/106 915/107
f 532/108 500/109 473/110
f 819/111 810/112 821/113
f 550/114 474/115 475/116
f 127/117 117/118 119/119
f 126/120 119/121 118/122
f 124/123 118/124 116/125
f 125/53 116/95 117/94
f 838/126 824/127 823/128
f 218/129 201/130 202/131
f 216/132 199/133 200/134
f 129/135 127/117 131/136
f 611/137 615/138 630/139
f 557/140 490/141 491/142
f 929/143 869/144 867/145
f 832/146 840/147 831/148
f 331/14 346/149 330/56
f 318/144 335/150 334/151
f 329/152 344/153 328/154
f 319/155 336/156 335/150
f 343/157 326/106 327/158
f 389/20 380/19 388/159
f 325/16 340/160 324/161
f 340/162 323/163 324/164
f 457/7 448/8 466/9
f 322/82 339/165 338/166
f 1004/167 957/168 956/169
f 327/158 344/153 343/157
f 330/56 345/41 329/152
f 318/144 332/170 316/145
f 321/171 336/156 320/172
f 111/6 108/173 109/174
f 978/175 1027/176 963/177
f 182/178 165/179 166/180
f 311/181 300/182 313/183
f 438/93 424/94 425/95
f 884/184 914/170 898/185
f 603/186 575/187 574/188
f 668/189 701/190 700/191
f 107/192 94/193 1178/194
f 809/195 1163/196 1184/197
f 1210/198 68/199 1237/200
f 473/110 515/201 539/202
f 416/20 406/203 648/21
f 410/20 402/203 646/21
f 397/20 386/19 398/159
f 385/203 397/20 396/204
f 53/205 379/206 377/207
f 837/208 825/209 824/210
f 937/211 1048/212 936/213
f 383/203 394/20 393/204
f 623/214 505/215 523/216
f 499/217 482/218 483/219
f 1140/220 1202/221 1208/222
f 193/223 176/224 177/225
f 282/226 267/227 266/228
f 425/95 428/53 429/123
f 509/229 510/98 527/230
f 426/119 428/231 424/118
f 426/121 431/120 430/117
f 619/232 630/139 629/233
f 425/125 431/120 427/124
f 28/234 1084/235 29/236
f 249/237 234/238 233/239
f 890/240 905/17 889/241
f 561/242 518/243 519/191
f 812/244 808/245 813/246
f 622/247 520/190 618/248
f 432/4 421/5 423/6
f 539/202 514/249 538/250
f 162/251 145/252 146/253
f 1102/254 1092/255 1101/256
f 290/257 275/258 274/26
f 485/259 468/260 469/261
f 255/262 240/263 239/264
f 276/265 262/266 261/267
f 453/7 444/8 464/9
f 460/7 450/8 467/9
f 1202/221 89/268 91/269
f 451/270 460/7 467/9
f 799/271 802/272 801/273
f 449/270 457/7 466/9
f 793/274 777/275 778/276
f 781/277 798/278 790/279
f 1136/280 545/281 1137/282
f 831/283 839/284 830/285
f 981/286 1011/61 979/287
f 409/20 400/203 645/21
f 401/19 409/20 645/21
f 827/288 842/289 833/290
f 403/19 410/20 646/21
f 391/20 382/19 392/159
f 381/203 391/20 390/204
f 1038/291 975/292 974/293
f 975/292 1040/294 976/25
f 50/295 373/296 369/297
f 1032/298 969/131 968/130
f 942/299 1053/300 941/301
f 996/63 949/180 948/179
f 1026/302 993/303 994/304
f 1020/305 987/306 988/307
f 378/308 45/309 46/310
f 413/20 404/203 647/21
f 980/311 1011/61 1012/312
f 47/313 378/308 46/310
f 1036/314 973/315 972/316
f 1030/317 965/318 1029/266
f 955/319 1004/167 956/169
f 447/270 454/7 465/9
f 842/320 832/321 833/322
f 945/251 1056/323 944/324
f 1047/325 934/326 935/327
f 951/328 1000/239 952/329
f 960/225 1009/330 961/331
f 792/99 778/276 779/332
f 987/333 1018/334 986/335
f 1034/227 971/336 970/337
f 937/211 1050/338 1049/226
f 949/180 998/339 950/340
f 959/224 1006/264 1007/263
f 1056/323 943/341 944/324
f 933/342 1046/343 1045/344
f 933/342 1043/265 931/46
f 932/345 1043/265 1044/346
f 1044/346 946/347 932/345
f 377/207 52/348 53/205
f 962/349 995/350 947/351
f 1002/352 955/353 954/354
f 445/270 453/7 464/9
f 1000/239 953/355 952/329
f 991/356 1022/262 990/357
f 943/341 1054/358 942/299
f 376/359 47/313 48/360
f 985/129 1018/334 1017/361
f 939/362 1050/338 938/363
f 1028/267 963/177 1027/176
f 941/301 1052/364 940/365
f 958/366 1005/367 1006/264
f 1030/317 967/134 966/133
f 967/134 1032/298 968/130
f 990/357 1021/368 989/369
f 394/20 384/19 395/159
f 1042/258 977/27 1041/26
f 322/82 337/370 321/171
f 1024/371 991/356 992/372
f 935/327 1048/212 1047/325
f 374/373 51/374 52/348
f 989/369 1020/305 988/307
f 1036/314 971/375 1035/376
f 981/286 1014/377 1013/378
f 1028/267 965/318 964/379
f 985/129 1016/237 984/380
f 959/224 1008/381 960/225
f 1012/312 994/304 980/311
f 983/132 1016/237 1015/382
f 953/355 1002/352 954/354
f 947/351 996/63 948/179
f 6/383 43/384 1236/385
f 585/386 569/387 568/388
f 81/389 1242/390 1223/391
f 454/7 456/392 446/8
f 69/393 1213/394 67/395
f 73/396 1222/397 69/393
f 976/25 1040/294 1041/26
f 81/389 1223/391 77/398
f 633/28 602/399 504/29
f 71/400 1240/401 65/402
f 186/403 185/404 169/329
f 57/33 55/405 54/31
f 1209/406 2/407 59/408
f 2/407 39/409 59/408
f 58/34 1138/410 1149/411
f 152/327 151/326 135/412
f 1138/410 1135/413 59/408
f 1223/391 1170/414 1199/415
f 442/52 443/416 431/120
f 1234/417 70/418 64/419
f 552/420 551/421 476/422
f 190/423 189/424 173/169
f 1157/60 1161/59 859/44
f 859/44 860/425 851/374
f 947/351 995/350 996/63
f 404/426 415/204 395/427
f 101/193 102/80 1190/428
f 92/429 84/430 85/431
f 85/431 86/432 87/433
f 1160/434 1231/435 1239/436
f 552/420 476/422 477/437
f 188/438 187/439 171/354
f 89/268 90/440 91/269
f 91/269 92/429 85/431
f 85/431 87/433 91/269
f 93/441 95/442 106/443
f 1176/444 1075/445 1060/407
f 107/192 96/446 94/193
f 99/78 98/447 97/79
f 97/79 105/448 102/80
f 105/448 104/449 102/80
f 104/449 103/450 102/80
f 298/451 294/452 295/453
f 154/211 153/213 137/454
f 101/193 100/455 102/80
f 100/455 99/78 102/80
f 505/215 506/456 524/457
f 1187/458 6/383 1236/385
f 275/258 291/459 277/346
f 1159/434 1187/458 1236/385
f 73/396 1241/460 1222/397
f 155/363 154/211 138/461
f 1229/462 1185/463 1198/464
f 1176/444 1164/465 1075/445
f 69/393 1222/397 1213/394
f 1058/459 1057/257 945/251
f 1160/434 1135/413 1231/435
f 924/466 880/152 879/154
f 1155/467 1154/468 42/469
f 127/117 125/231 117/118
f 126/120 127/117 119/121
f 124/123 126/120 118/124
f 125/53 124/123 116/95
f 825/10 836/470 835/11
f 1052/364 1051/471 939/472
f 158/301 157/365 141/473
f 566/474 565/475 530/476
f 542/477 545/281 1136/280
f 571/478 1137/282 1143/479
f 1173/480 1181/481 1101/256
f 83/482 1230/483 79/484
f 827/22 826/485 835/23
f 1193/486 34/487 14/488
f 457/7 459/392 448/8
f 340/162 339/165 323/163
f 1179/194 107/489 106/441
f 405/19 414/159 413/20
f 67/395 1226/490 63/491
f 327/158 328/154 344/153
f 1216/492 60/493 1238/494
f 1226/490 1205/495 1232/496
f 325/16 341/18 340/160
f 322/82 323/163 339/165
f 1223/391 1199/415 1241/460
f 1232/496 1167/497 1221/498
f 1004/167 1005/367 957/168
f 349/499 348/500 350/501
f 350/501 351/502 352/503
f 352/503 353/504 354/505
f 354/505 355/506 356/507
f 356/507 357/508 358/509
f 358/509 359/510 356/507
f 359/510 360/511 356/507
f 360/511 361/512 349/499
f 361/512 362/513 349/499
f 362/513 363/514 349/499
f 349/499 350/501 352/503
f 352/503 354/505 356/507
f 195/515 194/516 178/331
f 1052/364 939/472 940/365
f 1034/227 969/131 1033/228
f 1058/459 945/251 946/347
f 951/328 998/339 999/517
f 308/49 306/518 307/50
f 1214/519 1185/463 1229/462
f 918/81 874/163 873/82
f 1037/520 974/293 973/315
f 961/331 1010/521 962/349
f 1198/464 1221/498 1167/497
f 49/522 376/359 48/360
f 1230/483 1148/523 1214/519
f 216/132 215/524 199/133
f 1242/390 1170/414 1223/391
f 887/40 903/153 902/41
f 1071/210 1072/209 1063/525
f 1000/239 1001/238 953/355
f 633/28 632/526 601/527
f 376/359 375/528 47/313
f 150/342 148/46 133/48
f 445/270 463/427 453/7
f 1151/60 364/529 55/58
f 50/295 369/297 370/530
f 50/295 370/530 364/529
f 1141/531 368/532 49/522
f 1195/533 830/285 839/45
f 368/532 54/74 367/534
f 371/535 372/536 49/522
f 368/532 371/535 49/522
f 55/58 364/529 365/537
f 367/534 54/74 366/73
f 909/166 908/165 892/538
f 613/539 614/39 638/38
f 312/540 315/541 300/542
f 300/542 302/543 312/540
f 537/544 513/545 512/546
f 304/547 306/548 308/549
f 308/549 310/550 304/547
f 75/551 1229/462 71/400
f 63/491 1232/496 1189/552
f 77/398 1241/460 73/396
f 1239/436 1/36 3/553
f 112/84 108/554 110/85
f 1206/555 1233/1 1200/556
f 534/70 503/557 502/71
f 65/402 1238/494 60/493
f 1170/414 1228/3 1210/198
f 1127/281 1128/558 1124/112
f 488/559 487/189 471/560
f 251/334 252/561 236/562
f 558/563 566/474 531/564
f 425/95 424/94 428/53
f 278/344 279/343 263/317
f 426/119 430/117 428/231
f 426/121 427/122 431/120
f 436/565 439/566 427/122
f 425/125 429/123 431/120
f 220/333 219/335 203/337
f 1217/567 1201/568 80/569
f 818/570 817/571 811/572
f 237/167 253/305 254/368
f 1199/415 1210/198 1237/200
f 1106/573 1108/574 1181/481
f 587/575 579/576 589/577
f 1213/394 1147/578 1177/579
f 1184/197 1163/196 803/580
f 439/581 438/582 425/125
f 820/583 819/111 821/113
f 865/584 863/585 1145/586
f 805/587 820/583 822/588
f 183/589 182/178 166/180
f 532/108 501/590 500/109
f 1174/591 1091/592 1100/487
f 1065/195 1191/593 1070/594
f 1173/480 1101/256 1092/255
f 548/595 1207/596 1153/597
f 58/34 1197/32 56/598
f 109/4 113/599 115/5
f 921/105 878/158 877/106
f 576/600 639/601 640/602
f 542/477 1136/280 640/602
f 542/477 543/603 545/281
f 543/603 544/604 545/281
f 154/211 137/454 138/461
f 1241/460 1199/415 1169/605
f 1143/479 1137/282 545/281
f 571/478 576/600 640/602
f 333/13 347/606 331/14
f 832/146 841/607 840/147
f 325/16 326/106 342/17
f 331/14 347/606 346/149
f 79/484 1214/519 75/551
f 1199/415 1237/200 1169/605
f 1189/552 1221/498 62/608
f 1205/495 1238/494 1167/497
f 59/408 1149/411 1138/410
f 1146/59 17/45 41/44
f 1158/196 1109/609 1126/580
f 928/55 882/14 881/56
f 1186/610 1225/611 1148/523
f 611/137 635/612 615/138
f 599/37 572/613 638/38
f 1184/197 803/580 541/614
f 82/615 1211/616 1139/617
f 55/58 365/537 366/73
f 1177/579 1216/492 1205/495
f 129/135 125/231 127/117
f 389/20 641/21 380/19
f 244/61 246/378 230/62
f 1170/414 1210/198 1199/415
f 1240/401 1167/497 1238/494
f 54/31 56/598 1197/32
f 1217/567 80/569 1233/1
f 492/96 493/618 511/97
f 1222/397 1147/578 1213/394
f 1185/463 1227/619 1198/464
f 329/152 345/41 344/153
f 1241/460 1169/605 1222/397
f 94/620 1208/222 1178/621
f 838/126 837/622 824/127
f 494/64 495/623 522/65
f 1231/435 1138/410 1/36
f 1212/102 66/624 61/103
f 640/602 1137/282 571/478
f 929/143 926/625 869/144
f 1219/385 1135/413 1160/434
f 1220/90 82/626 78/91
f 9/43 32/425 41/44
f 1188/75 1194/593 829/76
f 1213/394 1177/579 1226/490
f 819/111 818/570 810/112
f 864/58 866/627 1161/59
f 5/628 1187/458 44/553
f 1175/629 540/407 804/384
f 128/52 124/123 125/53
f 218/129 217/380 201/130
f 1178/621 1203/597 93/630
f 1215/631 1186/610 1230/483
f 343/157 342/17 326/106
f 1150/632 1217/567 1206/555
f 571/478 1143/479 548/595
f 1156/468 849/633 858/469
f 1169/605 1212/102 1147/578
f 608/87 626/634 609/88
f 148/46 149/345 132/47
f 1123/572 1192/635 1127/281
f 555/99 554/636 479/100
f 1229/462 1198/464 1240/401
f 1148/523 1234/417 1185/463
f 319/155 320/172 336/156
f 1157/60 859/44 850/295
f 1208/222 88/595 1203/597
f 550/114 549/637 474/115
f 296/67 298/451 295/68
f 1155/467 42/469 18/638
f 120/93 121/639 117/94
f 1187/458 1218/436 44/553
f 557/140 556/274 490/141
f 1139/617 1242/390 81/389
f 1187/458 1180/640 6/383
f 150/342 133/48 134/641
f 854/235 853/173 862/642
f 1069/583 1074/288 1080/290
f 1068/111 1080/322 1079/321
f 858/469 848/643 857/644
f 854/235 846/645 845/646
f 1118/647 1114/648 1119/649
f 856/650 848/651 847/652
f 12/653 33/256 13/80
f 8/654 32/425 9/43
f 153/213 136/655 137/454
f 909/166 892/538 893/656
f 927/657 869/144 926/625
f 1237/200 66/624 1212/102
f 487/189 470/658 471/560
f 554/636 478/659 479/100
f 419/426 387/427 399/660
f 913/151 896/661 897/662
f 192/663 175/366 176/224
f 436/565 427/122 426/121
f 493/618 521/66 511/97
f 122/581 116/125 118/124
f 1127/281 1124/112 1123/572
f 21/232 36/664 37/665
f 727/188 763/666 755/667
f 1071/210 1063/525 1064/245
f 10/668 38/669 25/670
f 12/671 26/672 27/254
f 11/612 25/670 26/672
f 859/44 851/374 850/295
f 507/673 526/674 525/675
f 441/54 429/123 428/53
f 183/589 166/180 167/340
f 440/136 428/231 430/117
f 442/52 431/120 429/123
f 607/676 626/677 608/678
f 1132/627 1144/533 1146/59
f 865/584 1145/586 1156/468
f 631/679 599/680 600/681
f 811/572 1172/444 1175/629
f 220/333 203/337 204/336
f 18/638 1081/644 19/682
f 818/570 811/572 810/112
f 549/637 491/142 474/115
f 439/581 425/125 427/124
f 633/28 601/527 602/399
f 1234/417 64/419 1227/619
f 433/173 423/6 422/85
f 304/547 311/181 309/683
f 435/84 422/85 420/86
f 155/363 138/461 139/684
f 600/681 632/526 631/679
f 924/466 879/154 920/685
f 566/474 530/476 531/564
f 404/426 395/427 384/660
f 585/386 568/388 584/686
f 1133/687 1154/468 1155/467
f 505/215 524/457 523/216
f 195/515 178/331 179/349
f 1122/244 1182/568 1158/196
f 1235/92 74/688 1225/611
f 606/689 625/690 607/676
f 301/691 310/692 303/693
f 886/42 901/149 885/694
f 222/369 205/316 206/315
f 417/426 385/427 396/660
f 151/326 134/641 135/412
f 160/341 143/695 144/696
f 152/327 135/412 136/655
f 538/250 513/545 537/544
f 29/236 30/642 7/697
f 598/698 581/699 597/700
f 1225/611 70/418 1234/417
f 283/338 268/630 267/227
f 227/304 210/27 211/175
f 224/356 207/293 208/292
f 189/424 172/319 173/169
f 190/423 173/169 174/168
f 613/539 638/38 637/701
f 814/702 806/703 815/649
f 215/524 198/318 199/133
f 1097/665 1087/704 1096/669
f 437/705 426/119 424/118
f 535/30 503/557 534/70
f 592/706 620/666 593/707
f 1227/619 62/608 1221/498
f 929/143 868/15 930/708
f 300/182 314/709 313/183
f 497/710 480/711 481/712
f 498/713 481/712 482/218
f 113/714 114/86 115/5
f 272/715 289/323 273/294
f 411/427 381/426 390/204
f 289/323 274/26 273/294
f 414/427 383/426 393/204
f 919/83 872/171 922/716
f 158/301 141/473 142/717
f 920/685 878/158 921/105
f 537/544 512/546 536/718
f 565/475 529/719 530/476
f 221/307 204/375 205/316
f 214/286 197/379 198/318
f 278/344 263/317 262/266
f 297/720 293/721 292/722
f 279/343 264/723 263/317
f 1106/573 1181/481 1173/480
f 583/79 582/724 598/698
f 257/371 242/330 241/381
f 506/456 525/675 524/457
f 230/62 247/377 231/339
f 159/299 142/717 143/695
f 1107/725 1162/726 1174/591
f 915/107 876/16 916/727
f 594/278 588/728 578/729
f 484/730 483/219 468/260
f 156/362 139/684 140/731
f 180/732 164/351 165/179
f 226/303 209/25 210/27
f 888/733 905/17 904/157
f 186/403 169/329 170/355
f 240/263 257/371 241/381
f 605/734 624/735 606/689
f 223/357 206/315 207/293
f 250/361 235/352 234/238
f 304/547 312/540 302/543
f 157/365 140/736 141/473
f 269/314 286/300 270/520
f 248/382 233/239 232/517
f 191/737 174/168 175/366
f 586/738 569/387 585/386
f 1143/479 1142/635 1207/596
f 212/287 196/177 197/379
f 275/258 277/346 260/176
f 217/380 200/134 201/130
f 7/697 31/739 8/654
f 13/80 1196/481 1183/428
f 1215/740 1201/568 1217/567
f 281/212 266/228 265/298
f 1166/629 1110/741 1192/635
f 443/416 430/117 431/120
f 1228/3 72/742 1210/198
f 916/727 875/161 917/743
f 19/682 1082/650 20/320
f 805/587 822/588 816/647
f 277/346 261/267 260/176
f 187/439 170/355 171/354
f 627/744 618/248 617/745
f 101/193 1190/428 1179/194
f 612/746 536/718 512/546
f 20/320 1083/747 28/234
f 560/748 517/749 518/243
f 604/750 574/188 573/751
f 558/563 531/564 516/752
f 1098/664 1088/753 1097/665
f 298/451 297/720 299/754
f 194/516 177/225 178/331
f 820/583 821/113 822/588
f 287/358 272/715 271/291
f 813/246 807/525 814/702
f 1085/563 1204/591 1193/486
f 508/755 527/230 526/674
f 237/167 254/368 238/367
f 587/575 589/577 588/728
f 284/471 269/314 268/376
f 188/438 171/354 172/353
f 488/559 471/560 472/756
f 219/335 202/131 203/337
f 1103/672 1093/757 1102/254
f 251/334 236/562 235/352
f 533/72 501/590 532/108
f 1104/670 1094/758 1103/672
f 314/709 312/759 301/691
f 402/426 392/427 382/660
f 620/666 495/623 593/707
f 580/760 496/761 596/762
f 1015/382 982/524 983/132
f 993/303 1024/371 992/372
f 781/277 791/636 780/763
f 784/764 788/421 783/765
f 163/347 146/253 147/766
f 407/19 416/20 648/21
f 794/140 785/767 777/275
f 387/203 389/20 399/204
f 788/421 782/768 783/765
f 795/769 797/575 798/278
f 316/145 333/13 317/15
f 779/332 791/636 792/99
f 1224/104 1168/770 1216/492
f 1096/669 1095/771 1104/670
f 930/708 882/14 928/55
f 149/345 147/766 132/47
f 613/539 636/772 612/746
f 252/773 237/167 236/774
f 904/157 887/40 888/733
f 799/271 782/768 789/420
f 181/775 179/349 164/351
f 185/404 168/328 169/329
f 184/776 167/340 168/328
f 406/427 398/426 386/204
f 1100/487 1090/777 1099/778
f 486/779 469/261 470/658
f 591/89 610/667 592/706
f 570/780 488/559 472/756
f 254/368 239/264 238/367
f 551/421 475/116 476/422
f 299/754 292/781 294/782
f 245/312 229/63 228/350
f 1099/778 1089/620 1098/664
f 584/686 567/783 583/784
f 352/503 360/511 349/499
f 161/324 144/696 145/252
f 131/136 126/120 130/416
f 907/160 890/240 891/785
f 123/565 118/122 119/121
f 1149/411 57/33 1197/32
f 579/576 590/786 589/577
f 597/700 580/760 596/762
f 892/538 907/162 891/787
f 628/788 563/488 621/789
f 556/274 489/101 490/141
f 121/705 119/119 117/118
f 815/649 805/587 816/647
f 718/544 676/623 675/64
f 719/250 675/64 674/618
f 720/202 674/618 673/96
f 664/219 681/109 649/260
f 681/109 650/261 649/260
f 784/764 786/637 787/114
f 732/724 746/37 758/39
f 687/456 716/30 715/70
f 689/755 714/72 713/108
f 15/790 34/487 35/778
f 705/457 659/659 704/216
f 680/217 697/752 712/564
f 691/98 672/142 708/230
f 655/115 692/97 656/116
f 711/476 678/710 679/713
f 710/719 677/761 678/710
f 862/642 852/791 861/739
f 1113/792 1119/649 1114/793
f 752/676 772/526 751/689
f 21/794 38/669 22/795
f 673/96 654/110 720/202
f 699/243 666/259 667/779
f 667/779 700/191 699/243
f 652/560 685/29 653/756
f 650/261 683/71 651/658
f 651/658 684/557 652/560
f 685/29 724/780 653/756
f 666/259 697/752 665/730
f 689/755 654/110 690/229
f 712/564 679/713 680/217
f 695/249 662/712 694/545
f 661/711 756/746 693/546
f 774/772 676/623 717/718
f 775/701 742/707 774/772
f 776/38 741/706 775/701
f 740/89 725/613 753/87
f 672/142 707/674 708/230
f 722/388 748/527 747/681
f 751/689 773/28 750/734
f 657/422 703/65 658/437
f 737/728 766/690 765/735
f 36/664 15/796 35/778
f 659/659 764/214 704/216
f 745/698 759/138 733/79
f 722/388 746/680 721/783
f 770/139 744/700 769/233
f 656/116 702/66 657/422
f 701/190 736/738 762/248
f 861/739 851/797 860/425
f 768/788 677/761 709/798
f 757/539 730/760 731/699
f 696/201 663/218 695/249
f 725/799 752/676 753/678
f 754/88 739/800 726/751
f 761/745 734/686 760/801
f 765/735 729/729 737/728
f 670/101 707/674 671/141
f 723/387 749/399 748/527
f 716/30 750/734 773/28
f 759/802 734/686 733/784
f 766/690 739/786 767/677
f 731/699 758/39 757/539
f 769/233 743/762 768/788
f 694/545 661/711 693/546
f 286/300 271/291 270/520
f 564/803 528/798 529/719
f 1165/197 1076/76 1191/593
f 213/311 211/175 196/177
f 634/804 617/745 616/801
f 225/372 208/292 209/25
f 4/384 1209/406 1219/385
f 578/729 553/279 594/278
f 258/805 243/521 242/330
f 259/302 228/350 243/521
f 844/806 1171/465 1195/533
f 923/807 870/155 927/657
f 922/716 871/172 923/807
f 280/325 265/298 264/723
f 562/808 519/191 520/190
f 1066/571 1164/465 1176/444
f 434/714 420/86 421/5
f 423/6 420/86 422/85
f 883/809 901/149 899/606
f 130/416 124/123 128/52
f 305/51 310/692 308/49
f 899/606 884/184 883/809
f 577/810 573/751 590/800
f 306/548 309/683 307/811
f 559/781 516/752 517/749
f 400/427 388/426 380/204
f 898/185 913/151 897/662
f 838/685 1194/593 1188/75
f 247/377 232/517 231/339
f 895/812 910/370 894/813
f 924/466 881/56 880/152
f 894/813 909/166 893/656
f 917/77 874/163 918/81
f 1067/570 1077/285 1066/571
f 1112/624 1120/702 1113/814
f 856/650 846/815 855/747
f 703/65 728/187 658/437
f 1116/588 1115/816 1118/647
f 1117/113 1130/484 1116/588
f 1128/817 1117/113 1124/112
f 735/386 762/248 736/738
f 595/271 477/437 575/187
f 635/818 616/801 615/802
f 621/789 629/233 628/788
f 1070/128 1064/245 1065/195
f 688/673 715/70 714/72
f 1072/10 1062/703 1063/525
f 1073/485 1061/587 1062/703
f 1068/111 1078/148 1067/570
f 726/751 755/667 754/88
f 706/675 660/100 705/457
f 1111/819 1121/246 1112/820
f 1175/629 1172/444 540/407
f 945/251 1057/257 1056/323
f 949/180 997/62 998/339
f 385/203 644/21 397/20
f 955/319 1003/774 1004/167
f 831/283 840/821 839/284
f 28/234 1083/747 1084/235
f 276/265 278/344 262/266
f 1047/325 1046/343 934/326
f 419/426 401/204 387/427
f 1158/196 1182/568 1109/609
f 554/636 553/279 478/659
f 1226/490 1177/579 1205/495
f 433/173 432/174 423/6
f 13/80 33/256 1196/481
f 281/212 282/226 266/228
f 219/335 218/129 202/131
f 811/572 817/571 1172/444
f 497/710 496/761 480/711
f 1189/552 1232/496 1221/498
f 1231/435 1135/413 1138/410
f 1148/523 1225/611 1234/417
f 781/277 795/769 798/278
f 249/237 250/361 234/238
f 255/262 256/822 240/263
f 1030/317 966/133 965/318
f 447/270 455/427 454/7
f 959/224 958/366 1006/264
f 53/205 45/309 379/206
f 842/320 841/234 832/321
f 113/714 112/823 114/86
f 277/346 276/265 261/267
f 298/451 296/67 297/720
f 82/615 1220/824 1211/616
f 549/637 557/140 491/142
f 151/326 150/342 134/641
f 913/151 912/150 896/661
f 640/602 1136/280 1137/282
f 1104/670 1095/771 1094/758
f 414/427 405/660 383/426
f 163/347 162/251 146/253
f 304/547 302/543 311/181
f 784/764 787/114 788/421
f 304/547 310/550 312/540
f 440/136 441/135 428/231
f 1143/479 545/281 1142/635
f 607/676 625/690 626/677
f 5/628 1180/640 1187/458
f 854/235 845/825 853/173
f 287/358 288/826 272/715
f 560/748 559/781 517/749
f 929/143 867/145 868/15
f 535/30 504/29 503/557
f 1146/59 1144/533 17/45
f 297/720 296/67 293/721
f 1185/463 1234/417 1227/619
f 1186/610 1235/92 1225/611
f 20/320 1082/650 1083/747
f 985/129 1017/361 1016/237
f 594/278 587/575 588/728
f 507/673 508/755 526/674
f 226/303 225/372 209/25
f 10/668 22/827 38/669
f 727/188 728/187 763/666
f 1239/436 1231/435 1/36
f 1098/664 1089/620 1088/753
f 813/246 808/245 807/525
f 592/706 610/667 620/666
f 300/182 315/828 314/709
f 191/737 190/423 174/168
f 1103/672 1094/758 1093/757
f 1230/483 1186/610 1148/523
f 1135/413 1209/406 59/408
f 8/654 31/739 32/425
f 1028/267 1029/266 965/318
f 257/371 258/805 242/330
f 12/671 11/829 26/672
f 1206/555 1217/567 1233/1
f 77/398 1223/391 1241/460
f 443/416 440/136 430/117
f 1228/3 76/2 72/742
f 919/83 873/82 872/171
f 583/79 567/830 582/724
f 283/338 284/621 268/630
f 402/426 412/204 392/427
f 1232/496 1205/495 1167/497
f 1141/531 54/74 368/532
f 927/657 870/155 869/144
f 981/286 982/524 1014/377
f 19/682 1081/644 1082/650
f 217/380 216/132 200/134
f 1042/258 978/175 977/27
f 1240/401 1198/464 1167/497
f 990/357 1022/262 1021/368
f 493/618 494/64 521/66
f 580/760 480/711 496/761
f 1069/583 1061/587 1074/288
f 159/299 158/301 142/717
f 1118/647 1115/493 1114/648
f 156/362 155/363 139/684
f 11/612 10/831 25/670
f 65/402 1240/401 1238/494
f 1030/317 1031/723 967/134
f 548/595 1143/479 1207/596
f 1024/371 1023/822 991/356
f 187/439 186/403 170/355
f 794/140 786/637 785/767
f 394/20 643/21 384/19
f 1215/631 1150/832 1186/610
f 967/134 1031/723 1032/298
f 604/750 603/186 574/188
f 194/516 193/223 177/225
f 12/653 27/254 33/256
f 223/357 222/369 206/315
f 221/307 220/306 204/375
f 157/365 156/472 140/736
f 441/54 442/52 429/123
f 1195/533 1171/465 830/285
f 958/366 957/168 1005/367
f 1242/390 1200/556 1170/414
f 322/82 338/166 337/370
f 1036/314 972/316 971/375
f 916/727 876/16 875/161
f 122/581 120/582 116/125
f 565/475 564/803 529/719
f 1132/627 1134/806 1144/533
f 75/551 1214/519 1229/462
f 7/697 30/642 31/739
f 1085/563 24/725 1204/591
f 953/355 1001/238 1002/352
f 94/620 1140/220 1208/222
f 435/84 433/554 422/85
f 214/286 212/287 197/379
f 227/304 226/303 210/27
f 498/713 497/710 481/712
f 1178/621 1208/222 1203/597
f 612/746 636/772 536/718
f 1150/632 1215/740 1217/567
f 1123/572 1166/629 1192/635
f 284/471 285/364 269/314
f 1208/222 1202/221 88/595
f 993/303 1025/805 1024/371
f 1215/740 83/609 1201/568
f 272/715 288/826 289/323
f 250/361 251/334 235/352
f 153/213 152/327 136/655
f 289/323 290/257 274/26
f 79/484 1230/483 1214/519
f 598/698 582/724 581/699
f 1166/629 1125/384 1110/741
f 1037/520 1038/291 974/293
f 854/235 855/747 846/645
f 248/382 249/237 233/239
f 1219/385 1209/406 1135/413
f 920/685 879/154 878/158
f 58/34 1/36 1138/410
f 1198/464 1227/619 1221/498
f 627/744 622/247 618/248
f 1225/611 74/688 70/418
f 1205/495 1216/492 1238/494
f 224/356 223/357 207/293
f 1174/591 1162/726 1091/592
f 1214/519 1148/523 1185/463
f 269/314 285/364 286/300
f 484/730 499/217 483/219
f 508/755 509/229 527/230
f 1237/200 68/199 66/624
f 1177/579 1224/104 1216/492
f 1068/111 1069/583 1080/322
f 49/522 372/536 376/359
f 407/19 417/159 416/20
f 814/702 807/525 806/703
f 1222/397 1169/605 1147/578
f 983/132 984/380 1016/237
f 1012/312 1026/302 994/304
f 115/5 114/86 110/85
f 1211/616 1200/556 1242/390
f 1150/832 1235/92 1186/610
f 1153/597 1152/561 546/630
f 959/224 1007/263 1008/381
f 1147/578 1224/104 1177/579
f 1183/428 23/574 1086/489
f 318/144 319/155 335/150
f 1233/1 80/569 76/2
f 1220/824 1206/555 1211/616
f 330/56 346/149 345/41
f 1207/596 547/741 1152/561
f 538/250 514/249 513/545
f 314/709 315/828 312/759
f 886/42 902/41 901/149
f 212/287 213/311 196/177
f 417/426 407/204 385/427
f 180/732 181/775 164/351
f 989/369 1021/368 1020/305
f 1200/556 1228/3 1170/414
f 888/733 889/241 905/17
f 586/738 570/780 569/387
f 1227/619 64/419 62/608
f 533/72 502/71 501/590
f 160/341 159/299 143/695
f 63/491 1226/490 1232/496
f 222/369 221/307 205/316
f 29/236 1084/235 30/642
f 58/34 1149/411 1197/32
f 411/427 403/660 381/426
f 1156/468 1145/586 849/633
f 1107/725 1105/833 1162/726
f 192/663 191/737 175/366
f 215/524 214/286 198/318
f 1122/244 1111/569 1182/568
f 279/343 280/325 264/723
f 951/328 950/340 998/339
f 1139/617 1211/616 1242/390
f 298/451 299/754 294/452
f 240/263 256/822 257/371
f 605/734 623/214 624/735
f 858/469 849/834 848/643
f 1193/486 1204/591 34/487
f 1235/92 78/91 74/688
f 781/277 790/279 791/636
f 600/681 601/527 632/526
f 961/331 1009/330 1010/521
f 937/211 1049/226 1048/212
f 622/247 562/808 520/190
f 668/189 669/559 701/190
f 403/19 411/159 410/20
f 381/203 642/21 391/20
f 318/144 334/151 332/170
f 413/20 415/204 404/203
f 1002/352 1003/562 955/353
f 111/6 110/85 108/173
f 951/328 999/517 1000/239
f 377/207 374/373 52/348
f 391/20 642/21 382/19
f 827/288 834/835 842/289
f 106/443 107/192 1178/194
f 432/4 434/599 421/5
f 383/203 643/21 394/20
f 837/208 836/687 825/209
f 812/244 809/195 808/245
f 603/186 595/271 575/187
f 981/286 1013/378 1011/61
f 409/20 408/204 400/203
f 321/171 337/370 336/156
f 980/311 979/287 1011/61
f 962/349 1010/521 995/350
f 978/175 1042/258 1027/176
f 960/225 1008/381 1009/330
f 1044/346 1058/459 946/347
f 1038/291 1039/715 975/292
f 401/19 419/159 409/20
f 93/441 106/443 1178/194
f 539/202 515/201 514/249
f 193/223 192/663 176/224
f 1140/220 89/268 1202/221
f 290/257 291/459 275/258
f 1210/198 72/742 68/199
f 1026/302 1025/805 993/303
f 975/292 1039/715 1040/294
f 438/93 437/639 424/94
f 87/433 88/595 1202/221
f 282/226 283/338 267/227
f 311/181 302/543 300/182
f 453/7 452/392 444/8
f 932/345 931/46 1043/265
f 1020/305 1019/773 987/306
f 378/308 379/206 45/309
f 473/110 500/109 515/201
f 162/251 161/324 145/252
f 933/342 934/326 1046/343
f 1056/323 1055/826 943/341
f 499/217 498/713 482/218
f 1102/254 1093/757 1092/255
f 809/195 812/244 1163/196
f 996/63 997/62 949/180
f 942/299 1054/358 1053/300
f 884/184 900/13 914/170
f 91/269 87/433 1202/221
f 182/178 180/732 165/179
f 460/7 462/392 450/8
f 933/342 1045/344 1043/265
f 50/295 51/374 373/296
f 1032/298 1033/228 969/131
f 416/20 418/204 406/203
f 485/259 484/730 468/260
f 623/214 605/734 505/215
f 1151/60 50/295 364/529
f 1065/195 1165/197 1191/593
f 1216/492 1168/770 60/493
f 506/456 507/673 525/675
f 1097/665 1088/753 1087/704
f 620/666 522/65 495/623
f 1133/687 1131/584 1154/468
f 1179/194 1190/428 107/489
f 1015/382 1014/377 982/524
f 856/650 857/644 848/651
f 1034/227 970/337 969/131
f 230/62 246/378 247/377
f 437/705 436/836 426/119
f 387/203 641/21 389/20
f 189/424 188/837 172/319
f 301/691 312/759 310/692
f 631/679 572/799 599/680
f 18/638 42/469 1081/644
f 939/362 1051/621 1050/338
f 1187/458 1159/434 1218/436
f 991/356 1023/822 1022/262
f 943/341 1055/826 1054/358
f 83/482 1215/631 1230/483
f 985/129 986/335 1018/334
f 487/189 486/779 470/658
f 21/232 16/838 36/664
f 1028/267 964/379 963/177
f 71/400 1229/462 1240/401
f 935/327 936/213 1048/212
f 374/373 373/296 51/374
f 788/421 789/420 782/768
f 941/301 1053/300 1052/364
f 67/395 1213/394 1226/490
f 799/271 800/186 802/272
f 1036/314 1037/520 973/315
f 890/240 906/18 905/17
f 509/229 492/96 510/98
f 937/211 938/363 1050/338
f 397/20 644/21 386/19
f 987/333 1019/561 1018/334
f 451/270 461/427 460/7
f 606/689 624/735 625/690
f 915/107 877/106 876/16
f 1169/605 1237/200 1212/102
f 449/270 458/427 457/7
f 47/313 375/528 378/308
f 561/242 560/748 518/243
f 619/232 611/137 630/139
f 1034/227 1035/630 971/336
f 410/20 412/204 402/203
f 792/99 793/274 778/276
f 793/274 794/140 777/275
f 912/150 895/812 896/661
f 795/769 796/839 797/575
f 316/145 332/170 333/13
f 779/332 780/763 791/636
f 1224/104 61/103 1168/770
f 1096/669 1087/704 1095/771
f 930/708 868/15 882/14
f 149/345 163/347 147/766
f 613/539 637/701 636/772
f 252/773 253/305 237/167
f 904/157 903/153 887/40
f 799/271 801/273 782/768
f 181/775 195/515 179/349
f 185/404 184/776 168/328
f 184/776 183/589 167/340
f 406/427 418/660 398/426
f 1100/487 1091/592 1090/777
f 486/779 485/259 469/261
f 591/89 609/88 610/667
f 570/780 586/738 488/559
f 254/368 255/262 239/264
f 551/421 550/114 475/116
f 299/754 297/720 292/781
f 245/312 244/61 229/63
f 1099/778 1090/777 1089/620
f 584/686 568/388 567/783
f 352/503 356/507 360/511
f 161/324 160/341 144/696
f 131/136 127/117 126/120
f 907/160 906/18 890/240
f 123/565 122/566 118/122
f 1149/411 59/408 57/33
f 579/576 577/840 590/786
f 597/700 581/699 580/760
f 892/538 908/165 907/162
f 628/788 528/798 563/488
f 556/274 555/99 489/101
f 121/705 123/836 119/119
f 815/649 806/703 805/587
f 718/544 717/718 676/623
f 719/250 718/544 675/64
f 720/202 719/250 674/618
f 664/219 696/201 681/109
f 681/109 682/590 650/261
f 784/764 785/767 786/637
f 732/724 721/830 746/37
f 687/456 686/215 716/30
f 689/755 688/673 714/72
f 15/790 14/841 34/487
f 705/457 660/100 659/659
f 680/217 665/730 697/752
f 691/98 655/115 672/142
f 655/115 691/98 692/97
f 711/476 710/719 678/710
f 710/719 709/798 677/761
f 862/642 853/842 852/791
f 1113/792 1120/702 1119/649
f 752/676 771/679 772/526
f 21/794 37/665 38/669
f 673/96 690/229 654/110
f 699/243 698/749 666/259
f 667/779 668/189 700/191
f 652/560 684/557 685/29
f 650/261 682/590 683/71
f 651/658 683/71 684/557
f 685/29 749/399 724/780
f 666/259 698/749 697/752
f 689/755 713/108 654/110
f 712/564 711/476 679/713
f 695/249 663/218 662/712
f 661/711 730/760 756/746
f 774/772 742/707 676/623
f 775/701 741/706 742/707
f 776/38 740/89 741/706
f 740/89 776/38 725/613
f 672/142 671/141 707/674
f 722/388 723/387 748/527
f 751/689 772/526 773/28
f 657/422 702/66 703/65
f 737/728 738/577 766/690
f 36/664 16/843 15/796
f 659/659 729/729 764/214
f 745/698 770/139 759/138
f 722/388 747/681 746/680
f 770/139 745/698 744/700
f 656/116 692/97 702/66
f 701/190 669/559 736/738
f 861/739 852/844 851/797
f 768/788 743/762 677/761
f 757/539 756/746 730/760
f 696/201 664/219 663/218
f 725/799 771/679 752/676
f 754/88 767/634 739/800
f 761/745 735/386 734/686
f 765/735 764/214 729/729
f 670/101 706/675 707/674
f 723/387 724/780 749/399
f 716/30 686/215 750/734
f 759/802 760/801 734/686
f 766/690 738/577 739/786
f 731/699 732/724 758/39
f 769/233 744/700 743/762
f 694/545 662/712 661/711
f 286/300 287/358 271/291
f 564/803 563/488 528/798
f 1165/197 1059/614 1076/76
f 213/311 227/304 211/175
f 634/804 627/744 617/745
f 225/372 224/356 208/292
f 4/384 2/407 1209/406
f 578/729 478/659 553/279
f 258/805 259/302 243/521
f 259/302 245/312 228/350
f 844/806 828/445 1171/465
f 923/807 871/172 870/155
f 922/716 872/171 871/172
f 280/325 281/212 265/298
f 562/808 561/242 519/191
f 1066/571 1077/285 1164/465
f 434/714 435/823 420/86
f 423/6 421/5 420/86
f 883/809 885/694 901/149
f 130/416 126/120 124/123
f 305/51 303/693 310/692
f 899/606 900/13 884/184
f 577/810 604/750 573/751
f 306/548 304/547 309/683
f 559/781 558/563 516/752
f 400/427 408/660 388/426
f 898/185 914/170 913/151
f 838/685 823/594 1194/593
f 247/377 248/382 232/517
f 895/812 911/156 910/370
f 924/466 925/57 881/56
f 894/813 910/370 909/166
f 917/77 875/164 874/163
f 1067/570 1078/283 1077/285
f 1112/624 1121/246 1120/702
f 856/650 847/845 846/815
f 703/65 763/666 728/187
f 1116/588 1130/846 1115/816
f 1117/113 1129/847 1130/484
f 1128/817 1129/848 1117/113
f 735/386 761/745 762/248
f 595/271 552/420 477/437
f 635/818 634/804 616/801
f 621/789 619/232 629/233
f 1070/128 1071/127 1064/245
f 688/673 687/456 715/70
f 1072/10 1073/12 1062/703
f 1073/485 1074/22 1061/587
f 1068/111 1079/146 1078/148
f 726/751 727/188 755/667
f 706/675 670/101 660/100
f 1111/819 1122/244 1121/246
f 1211/616 1206/555 1200/556
f 1150/832 1220/90 1235/92
f 1153/597 1207/596 1152/561
f 1147/578 1212/102 1224/104
f 1183/428 1196/481 23/574
f 1220/824 1150/632 1206/555
f 1207/596 1142/635 547/741
f 1200/556 1233/1 1228/3
f 912/150 911/156 895/812
o Rotor
v 0 1.5625 2.5
v -0.0442 1.5442 2.5
v -0.0625 1.5 2.5
v -0.0442 1.4558 2.5
v 0 1.4375 2.5
v 0.0442 1.4558 2.5
v 0.0625 1.5 2.5
v 0.0442 1.5442 2.5
v -0.0442 1.5442 3.3125
v 0 1.5625 3.3125
v -0.0625 1.5 3.3125
v -0.0442 1.4558 3.3125
v 0 1.4375 3.3125
v 0.0442 1.4558 3.3125
v 0.0625 1.5 3.3125
v 0.0442 1.5442 3.3125
v 0 1.875 3.1875
v -0.1435 1.8465 3.1875
v -0.2652 1.7652 3.1875
v -0.3465 1.3565 3.125
v -0.375 1.5 3.1875
v -0.3465 1.3565 3.1875
v -0.2652 1.2348 3.1875
v -0.2652 1.7652 3.125
v 0 1.125 3.1875
v 0.1435 1.1535 3.1875
v 0.2652 1.2348 3.1875
v 0 1.875 3.125
v 0.375 1.5 3.1875
v 0.3465 1.6435 3.1875
v 0.2652 1.7652 3.1875
v -0.1435 1.8465 3.125
v -0.0442 1.5442 3.1875
v 0 1.5625 3.1875
v -0.0625 1.5 3.1875
v -0.0442 1.4558 3.1875
v 0 1.4375 3.1875
v 0.0442 1.4558 3.1875
v 0.0625 1.5 3.1875
v 0.0442 1.5442 3.1875
v -0.375 1.5 3.125
v -0.2652 1.2348 3.125
v 0.1435 1.1535 3.125
v 0 1.125 3.125
v 0.2652 1.2348 3.125
v 0.3465 1.6435 3.125
v 0.375 1.5 3.125
v 0.2652 1.7652 3.125
v -0.0442 1.5442 3.125
v 0 1.5625 3.125
v -0.0442 1.4558 3.125
v -0.0625 1.5 3.125
v 0.0442 1.4558 3.125
v 0 1.4375 3.125
v 0.0442 1.5442 3.125
v 0.0625 1.5 3.125
v -0.2652 1.7652 2.875
v -0.375 1.5 2.875
v -0.1435 1.1535 2.875
v -0.2652 1.2348 2.875
v -0 1.125 2.875
v 0.3465 1.3565 2.875
v 0.2652 1.2348 2.875
v 0.375 1.5 2.875
v 0 1.5625 2.875
v 0.0442 1.5442 2.875
v -0.0625 1.5 2.875
v -0.0442 1.5442 2.875
v 0 1.4375 2.875
v -0.0442 1.4558 2.875
v 0.0625 1.5 2.875
v 0.0442 1.4558 2.875
v 0.0533 1.4779 2.875
v -0.0221 1.4467 2.875
v -0.0533 1.5221 2.875
v 0.0221 1.5533 2.875
v 0.0533 1.4779 2.9375
v -0.0221 1.4467 2.9375
v -0.0533 1.5221 2.9375
v 0.0221 1.5533 2.9375
v -0.0221 1.5533 2.6875
v -0.0533 1.4779 2.6875
v 0.0221 1.4467 2.6875
v 0.0533 1.5221 2.6875
v -0.0221 1.5533 2.625
v -0.0533 1.4779 2.625
v 0.0221 1.4467 2.625
v 0.0533 1.5221 2.625
v 0.0625 1.5 2.625
v 0.0442 1.5442 2.625
v 0 1.4375 2.625
v 0.0442 1.4558 2.625
v -0.0625 1.5 2.625
v -0.0442 1.4558 2.625
v 0 1.5625 2.625
v -0.0442 1.5442 2.625
v 0.2652 1.7652 2.625
v 0.375 1.5 2.625
v 0.3465 1.6435 2.625
v 0.2652 1.2348 2.625
v 0 1.125 2.625
v 0.1435 1.1535 2.625
v -0.2652 1.2348 2.625
v -0.375 1.5 2.625
v 0.0442 1.5442 2.6875
v 0.0625 1.5 2.6875
v 0.0442 1.4558 2.6875
v 0 1.4375 2.6875
v -0.0442 1.4558 2.6875
v -0.0625 1.5 2.6875
v 0 1.5625 2.6875
v -0.0442 1.5442 2.6875
v -0.1435 1.8465 2.625
v 0.2652 1.7652 2.6875
v 0.3465 1.6435 2.6875
v 0.375 1.5 2.6875
v 0 1.875 2.625
v 0.2652 1.2348 2.6875
v 0.1435 1.1535 2.6875
v 0 1.125 2.6875
v -0.2652 1.7652 2.625
v -0.2652 1.2348 2.6875
v -0.3465 1.3565 2.6875
v -0.375 1.5 2.6875
v -0.3465 1.3565 2.625
v -0.2652 1.7652 2.6875
v -0.1435 1.8465 2.6875
v 0 1.875 2.6875
v 0.0533 1.5221 3.125
v 0.0221 1.4467 3.125
v -0.0533 1.4779 3.125
v -0.0221 1.5533 3.125
v 0.0533 1.5221 3.1875
v 0.0221 1.4467 3.1875
v -0.0533 1.4779 3.1875
v -0.0221 1.5533 3.1875
v -0.0625 1.8125 1.1875
v -0.25 2.3125 1.1875
v -0.0625 1.8125 0.5625
v -0.25 2.3125 0.5625
v 0.0625 1.8125 1.1875
v 0.25 2.3125 1.1875
v 0.0625 1.8125 0.5625
v 0.25 2.3125 0.5625
v -0.25 0.6875 1.1875
v -0.0625 1.1875 1.1875
v -0.25 0.6875 0.5625
v -0.0625 1.1875 0.5625
v 0.25 0.6875 1.1875
v 0.0625 1.1875 1.1875
v 0.25 0.6875 0.5625
v 0.0625 1.1875 0.5625
v 0.3125 1.5625 1.1875
v 0.8125 1.75 1.1875
v 0.3125 1.5625 0.5625
v 0.8125 1.75 0.5625
v 0.3125 1.4375 1.1875
v 0.8125 1.25 1.1875
v 0.3125 1.4375 0.5625
v 0.8125 1.25 0.5625
v -0.8125 1.75 1.1875
v -0.3125 1.5625 1.1875
v -0.8125 1.75 0.5625
v -0.3125 1.5625 0.5625
v -0.8125 1.25 1.1875
v -0.3125 1.4375 1.1875
v -0.8125 1.25 0.5625
v -0.3125 1.4375 0.5625
v 0.1768 1.7652 1.1875
v 0.3977 2.2513 1.1875
v 0.1768 1.7652 0.5625
v 0.3977 2.2513 0.5625
v 0.2652 1.6768 1.1875
v 0.7513 1.8977 1.1875
v 0.2652 1.6768 0.5625
v 0.7513 1.8977 0.5625
v -0.7513 1.1023 1.1875
v -0.2652 1.3232 1.1875
v -0.7513 1.1023 0.5625
v -0.2652 1.3232 0.5625
v -0.3977 0.7487 1.1875
v -0.1768 1.2348 1.1875
v -0.3977 0.7487 0.5625
v -0.1768 1.2348 0.5625
v 0.2652 1.3232 1.1875
v 0.7513 1.1023 1.1875
v 0.2652 1.3232 0.5625
v 0.7513 1.1023 0.5625
v 0.1768 1.2348 1.1875
v 0.3977 0.7487 1.1875
v 0.1768 1.2348 0.5625
v 0.3977 0.7487 0.5625
v -0.3977 2.2513 1.1875
v -0.1768 1.7652 1.1875
v -0.3977 2.2513 0.5625
v -0.1768 1.7652 0.5625
v -0.7513 1.8977 1.1875
v -0.2652 1.6768 1.1875
v -0.7513 1.8977 0.5625
v -0.2652 1.6768 0.5625
v 0.0618 1.8126 1.25
v 0.2532 2.2746 1.25
v 0.0618 1.8126 0.5
v 0.2532 2.2746 0.5
v 0.1773 1.7648 1.25
v 0.3687 2.2267 1.25
v 0.1773 1.7648 0.5
v 0.3687 2.2267 0.5
v -0.0618 1.1874 1.25
v -0.2532 0.7254 1.25
v -0.0618 1.1874 0.5
v -0.2532 0.7254 0.5
v -0.1773 1.2352 1.25
v -0.3687 0.7733 1.25
v -0.1773 1.2352 0.5
v -0.3687 0.7733 0.5
v 0.3126 1.4382 1.25
v 0.7746 1.2468 1.25
v 0.3126 1.4382 0.5
v 0.7746 1.2468 0.5
v 0.2648 1.3227 1.25
v 0.7267 1.1313 1.25
v 0.2648 1.3227 0.5
v 0.7267 1.1313 0.5
v -0.3126 1.5618 1.25
v -0.7746 1.7532 1.25
v -0.3126 1.5618 0.5
v -0.7746 1.7532 0.5
v -0.2648 1.6773 1.25
v -0.7267 1.8687 1.25
v -0.2648 1.6773 0.5
v -0.7267 1.8687 0.5
v 0.2648 1.6773 1.25
v 0.7267 1.8687 1.25
v 0.2648 1.6773 0.5
v 0.7267 1.8687 0.5
v 0.3126 1.5618 1.25
v 0.7746 1.7532 1.25
v 0.3126 1.5618 0.5
v 0.7746 1.7532 0.5
v -0.2648 1.3227 1.25
v -0.7267 1.1313 1.25
v -0.2648 1.3227 0.5
v -0.7267 1.1313 0.5
v -0.3126 1.4382 1.25
v -0.7746 1.2468 1.25
v -0.3126 1.4382 0.5
v -0.7746 1.2468 0.5
v 0.1773 1.2352 1.25
v 0.3687 0.7733 1.25
v 0.1773 1.2352 0.5
v 0.3687 0.7733 0.5
v 0.0618 1.1874 1.25
v 0.2532 0.7254 1.25
v 0.0618 1.1874 0.5
v 0.2532 0.7254 0.5
v -0.1773 1.7648 1.25
v -0.3687 2.2267 1.25
v -0.1773 1.7648 0.5
v -0.3687 2.2267 0.5
v -0.0618 1.8126 1.25
v -0.2532 2.2746 1.25
v -0.0618 1.8126 0.5
v -0.2532 2.2746 0.5
v -0.2652 1.6768 -1.1875
v -0.7513 1.8977 -1.1875
v -0.2652 1.6768 -0.5625
v -0.7513 1.8977 -0.5625
v -0.1768 1.7652 -1.1875
v -0.3977 2.2513 -1.1875
v -0.1768 1.7652 -0.5625
v -0.3977 2.2513 -0.5625
v 0.3977 0.7487 -1.1875
v 0.1768 1.2348 -1.1875
v 0.3977 0.7487 -0.5625
v 0.1768 1.2348 -0.5625
v 0.7513 1.1023 -1.1875
v 0.2652 1.3232 -1.1875
v 0.7513 1.1023 -0.5625
v 0.2652 1.3232 -0.5625
v -0.1768 1.2348 -1.1875
v -0.3977 0.7487 -1.1875
v -0.1768 1.2348 -0.5625
v -0.3977 0.7487 -0.5625
v -0.2652 1.3232 -1.1875
v -0.7513 1.1023 -1.1875
v -0.2652 1.3232 -0.5625
v -0.7513 1.1023 -0.5625
v 0.7513 1.8977 -1.1875
v 0.2652 1.6768 -1.1875
v 0.7513 1.8977 -0.5625
v 0.2652 1.6768 -0.5625
v 0.3977 2.2513 -1.1875
v 0.1768 1.7652 -1.1875
v 0.3977 2.2513 -0.5625
v 0.1768 1.7652 -0.5625
v -0.3125 1.4375 -1.1875
v -0.8125 1.25 -1.1875
v -0.3125 1.4375 -0.5625
v -0.8125 1.25 -0.5625
v -0.3125 1.5625 -1.1875
v -0.8125 1.75 -1.1875
v -0.3125 1.5625 -0.5625
v -0.8125 1.75 -0.5625
v 0.8125 1.25 -1.1875
v 0.3125 1.4375 -1.1875
v 0.8125 1.25 -0.5625
v 0.3125 1.4375 -0.5625
v 0.8125 1.75 -1.1875
v 0.3125 1.5625 -1.1875
v 0.8125 1.75 -0.5625
v 0.3125 1.5625 -0.5625
v 0.0625 1.1875 -1.1875
v 0.25 0.6875 -1.1875
v 0.0625 1.1875 -0.5625
v 0.25 0.6875 -0.5625
v -0.0625 1.1875 -1.1875
v -0.25 0.6875 -1.1875
v -0.0625 1.1875 -0.5625
v -0.25 0.6875 -0.5625
v 0.25 2.3125 -1.1875
v 0.0625 1.8125 -1.1875
v 0.25 2.3125 -0.5625
v 0.0625 1.8125 -0.5625
v -0.25 2.3125 -1.1875
v -0.0625 1.8125 -1.1875
v -0.25 2.3125 -0.5625
v -0.0625 1.8125 -0.5625
v -0.2532 2.2746 -1.25
v -0.0618 1.8126 -1.25
v -0.2532 2.2746 -0.5
v -0.0618 1.8126 -0.5
v -0.3687 2.2267 -1.25
v -0.1773 1.7648 -1.25
v -0.3687 2.2267 -0.5
v -0.1773 1.7648 -0.5
v 0.2532 0.7254 -1.25
v 0.0618 1.1874 -1.25
v 0.2532 0.7254 -0.5
v 0.0618 1.1874 -0.5
v 0.3687 0.7733 -1.25
v 0.1773 1.2352 -1.25
v 0.3687 0.7733 -0.5
v 0.1773 1.2352 -0.5
v -0.7746 1.2468 -1.25
v -0.3126 1.4382 -1.25
v -0.7746 1.2468 -0.5
v -0.3126 1.4382 -0.5
v -0.7267 1.1313 -1.25
v -0.2648 1.3227 -1.25
v -0.7267 1.1313 -0.5
v -0.2648 1.3227 -0.5
v 0.7746 1.7532 -1.25
v 0.3126 1.5618 -1.25
v 0.7746 1.7532 -0.5
v 0.3126 1.5618 -0.5
v 0.7267 1.8687 -1.25
v 0.2648 1.6773 -1.25
v 0.7267 1.8687 -0.5
v 0.2648 1.6773 -0.5
v -0.7267 1.8687 -1.25
v -0.2648 1.6773 -1.25
v -0.7267 1.8687 -0.5
v -0.2648 1.6773 -0.5
v -0.7746 1.7532 -1.25
v -0.3126 1.5618 -1.25
v -0.7746 1.7532 -0.5
v -0.3126 1.5618 -0.5
v 0.7267 1.1313 -1.25
v 0.2648 1.3227 -1.25
v 0.7267 1.1313 -0.5
v 0.2648 1.3227 -0.5
v 0.7746 1.2468 -1.25
v 0.3126 1.4382 -1.25
v 0.7746 1.2468 -0.5
v 0.3126 1.4382 -0.5
v -0.3687 0.7733 -1.25
v -0.1773 1.2352 -1.25
v -0.3687 0.7733 -0.5
v -0.1773 1.2352 -0.5
v -0.2532 0.7254 -1.25
v -0.0618 1.1874 -1.25
v -0.2532 0.7254 -0.5
v -0.0618 1.1874 -0.5
v 0.3687 2.2267 -1.25
v 0.1773 1.7648 -1.25
v 0.3687 2.2267 -0.5
v 0.1773 1.7648 -0.5
v 0.2532 2.2746 -1.25
v 0.0618 1.8126 -1.25
v 0.2532 2.2746 -0.5
v 0.0618 1.8126 -0.5
v 0.0625 1.5 2.9375
v 0.0442 1.4558 2.9375
v 0 1.4375 2.9375
v -0.0442 1.4558 2.9375
v -0.0625 1.5 2.9375
v -0.0442 1.5442 2.9375
v 0.0442 1.5442 2.9375
v 0 1.5625 2.9375
v 0.1435 1.8465 2.875
v 0.375 1.5 2.9375
v 0.3465 1.3565 2.9375
v 0.2652 1.2348 2.9375
v 0.2652 1.7652 2.875
v -0 1.125 2.9375
v -0.1435 1.1535 2.9375
v -0.2652 1.2348 2.9375
v 0 1.875 2.875
v -0.375 1.5 2.9375
v -0.3465 1.6435 2.9375
v -0.2652 1.7652 2.9375
v -0.3465 1.6435 2.875
v 0 1.875 2.9375
v 0.1435 1.8465 2.9375
v 0.2652 1.7652 2.9375
vt 0.8135 0.131
vt 0.7876 0.125
vt 0.8135 0.119
vt 0.8549 0.1548
vt 0.7876 0.1488
vt 0.8549 0.1488
vt 0.6114 0.9048
vt 0.6632 0.8571
vt 0.6632 0.9048
vt 0.7876 0.1131
vt 0.7876 0.119
vt 0.7461 0.9286
vt 0.7565 0.881
vt 0.7565 0.9286
vt 0.7876 0.1429
vt 0.8549 0.1429
vt 0.8549 0.1667
vt 0.7876 0.1607
vt 0.8549 0.1607
vt 0.7876 0.1369
vt 0.8135 0.1429
vt 0.7876 0.131
vt 0.8135 0.1131
vt 0.6114 0.8571
vt 0.6114 0.8095
vt 0.6632 0.7619
vt 0.6632 0.8095
vt 0.7461 0.8095
vt 0.7565 0.8095
vt 0.7876 0.1726
vt 0.8549 0.1726
vt 0.7979 0.881
vt 0.7461 0.881
vt 0.7047 0.8095
vt 0.6114 0.7619
vt 0.7824 0.1786
vt 0.7824 0.1905
vt 0.7772 0.1786
vt 0.5699 0.8393
vt 0.5699 0.8274
vt 0.7047 0.8393
vt 0.7047 0.8274
vt 0.7461 0.7619
vt 0.7565 0.7619
vt 0.7876 0.1786
vt 0.8549 0.1786
vt 0.7876 0.1905
vt 0.8549 0.1845
vt 0.8549 0.1905
vt 0.7876 0.1845
vt 0.7772 0.1905
vt 0.7772 0.1845
vt 0.7979 0.8095
vt 0.7047 0.881
vt 0.7876 0.1667
vt 0.7876 0.1548
s 1
f 1649/849 1638/850 1650/851
f 1249/852 1256/853 1248/854
f 1440/855 1441/856 1442/857
f 1287/858 1280/851 1269/859
f 1487/860 1484/861 1483/862
f 1248/854 1255/863 1247/864
f 1337/858 1370/851 1353/859
f 1243/865 1258/866 1250/867
f 1314/868 1304/849 1305/869
f 1262/849 1293/850 1284/851
f 1365/849 1352/850 1366/851
f 1365/849 1351/868 1324/870
f 1264/849 1277/850 1263/851
f 1333/868 1344/849 1343/869
f 1274/849 1291/850 1266/851
f 1308/868 1643/849 1647/869
f 1344/849 1334/850 1342/851
f 1331/868 1341/849 1340/869
f 1268/849 1280/868 1376/870
f 1279/871 1286/859 1267/858
f 1268/849 1279/850 1267/851
f 1285/849 1295/850 1287/851
f 1355/849 1338/850 1363/851
f 1398/856 1395/855 1396/872
f 1361/849 1350/850 1362/851
f 1424/855 1425/856 1426/857
f 1549/873 1548/874 1547/875
f 1643/849 1307/850 1651/851
f 1303/858 1637/851 1648/859
f 1296/868 1285/849 1286/869
f 1361/849 1349/868 1325/870
f 1460/861 1466/876 1462/877
f 1335/868 1367/849 1346/869
f 1369/849 1354/868 1323/870
f 1367/849 1336/850 1345/851
f 1444/861 1450/876 1446/877
f 1339/851 1347/858 1356/871
f 1657/849 1641/850 1658/851
f 1519/856 1522/855 1521/872
f 1264/849 1278/868 1377/870
f 1585/861 1579/876 1583/877
f 1645/849 1636/850 1646/851
f 1251/878 1243/865 1244/879
f 1645/849 1635/868 1319/870
f 1292/868 1274/849 1270/869
f 1494/877 1491/880 1492/861
f 1649/849 1637/868 1320/870
f 1369/849 1353/850 1370/851
f 1468/861 1474/876 1470/877
f 1488/881 1489/882 1490/876
f 1543/874 1546/873 1545/883
f 1430/856 1427/855 1428/872
f 1304/849 1313/850 1306/851
f 1337/868 1355/849 1359/869
f 1432/873 1433/874 1434/875
f 1357/849 1347/868 1326/870
f 1310/868 1655/849 1299/869
f 1653/849 1640/850 1654/851
f 1272/849 1282/868 1375/870
f 1607/877 1610/880 1609/861
f 1583/877 1586/880 1585/861
f 1478/877 1475/880 1476/861
f 1260/849 1276/850 1259/851
f 1298/868 1288/849 1289/869
f 1653/849 1639/868 1321/870
f 1357/849 1348/850 1358/851
f 1597/881 1596/882 1595/876
f 1301/849 1311/850 1303/851
f 1272/849 1281/850 1271/851
f 1462/877 1459/880 1460/861
f 1260/849 1275/868 1378/870
f 1255/884 1252/885 1254/886
f 1511/874 1514/873 1513/883
f 1312/868 1301/849 1302/869
f 1288/849 1297/850 1290/851
f 1657/849 1642/868 1322/870
f 1294/868 1262/849 1283/869
f 1502/877 1499/880 1500/861
f 1424/887 1419/873 1423/872
f 1655/849 1309/850 1300/851
f 1341/849 1332/850 1339/851
f 1575/877 1578/880 1577/861
f 1396/872 1399/888 1400/873
f 1392/855 1393/856 1394/857
f 1547/875 1552/889 1551/856
f 1617/861 1614/860 1613/881
f 1537/872 1531/875 1535/856
f 1525/855 1524/856 1523/857
f 1388/888 1391/872 1392/887
f 1382/856 1379/855 1380/872
f 1539/889 1544/875 1543/890
f 1284/858 1278/851 1265/859
f 1363/851 1354/858 1368/871
f 1391/872 1389/875 1393/856
f 1545/888 1542/872 1541/887
f 1651/851 1642/858 1656/871
f 1555/889 1560/875 1559/890
f 1470/877 1473/891 1469/892
f 1569/872 1563/875 1567/856
f 1414/856 1411/855 1412/872
f 1563/875 1568/889 1567/856
f 1258/866 1249/852 1250/867
f 1402/875 1397/889 1398/856
f 1599/877 1602/880 1601/861
f 1589/881 1588/882 1587/876
f 1565/873 1564/874 1563/875
f 1438/890 1441/856 1437/875
f 1438/874 1435/873 1436/883
f 1537/872 1534/888 1533/873
f 1633/861 1627/876 1631/877
f 1623/877 1626/880 1625/861
f 1335/851 1366/858 1352/871
f 1525/887 1530/873 1526/872
f 1345/858 1351/851 1364/859
f 1428/872 1431/888 1432/873
f 1298/858 1271/851 1281/859
f 1445/892 1450/876 1449/891
f 1607/877 1604/891 1608/892
f 1523/889 1528/875 1527/890
f 1310/851 1654/858 1640/871
f 1426/889 1421/875 1422/890
f 1423/872 1421/875 1425/856
f 1617/861 1611/876 1615/877
f 1557/855 1556/856 1555/857
f 1561/888 1558/872 1557/887
f 1472/881 1473/882 1474/876
f 1511/890 1508/856 1512/875
f 1300/858 1639/851 1652/859
f 1621/881 1626/862 1622/860
f 1294/851 1263/858 1277/871
f 1448/881 1443/862 1447/860
f 1454/877 1451/880 1452/861
f 1629/881 1634/862 1630/860
f 1486/877 1483/880 1484/861
f 1448/881 1449/882 1450/876
f 1446/877 1443/880 1444/861
f 1460/861 1463/860 1464/881
f 1439/872 1437/875 1441/856
f 1615/877 1612/891 1616/892
f 1480/881 1481/882 1482/876
f 1470/877 1467/880 1468/861
f 1575/877 1572/891 1576/892
f 1350/871 1343/859 1362/858
f 1574/860 1577/861 1578/862
f 1331/858 1358/851 1348/859
f 1500/861 1506/876 1502/877
f 1590/860 1593/861 1594/862
f 1542/872 1544/875 1540/856
f 1478/877 1481/891 1477/892
f 1292/858 1259/851 1276/859
f 1476/861 1479/860 1480/881
f 1484/861 1490/876 1486/877
f 1599/877 1596/891 1600/892
f 1504/881 1505/882 1506/876
f 1464/881 1465/882 1466/876
f 1521/872 1515/875 1519/856
f 1495/860 1492/861 1491/862
f 1638/871 1302/859 1650/858
f 1583/877 1580/891 1584/892
f 1496/881 1497/882 1498/876
f 1266/851 1275/858 1261/871
f 1253/893 1244/879 1245/894
f 1418/875 1413/889 1414/856
f 1308/858 1658/851 1641/859
f 1513/888 1510/872 1509/887
f 1581/881 1580/882 1579/876
f 1509/855 1508/856 1507/857
f 1510/872 1512/875 1508/856
f 1531/875 1536/889 1535/856
f 1492/861 1498/876 1494/877
f 1521/872 1518/888 1517/873
f 1535/856 1538/855 1537/872
f 1306/851 1635/858 1644/871
f 1384/873 1385/874 1386/875
f 1434/875 1429/889 1430/856
f 1533/873 1532/874 1531/875
f 1515/875 1520/889 1519/856
f 1456/881 1451/862 1455/860
f 1390/874 1387/873 1388/883
f 1609/861 1603/876 1607/877
f 1649/849 1320/870 1638/850
f 1380/872 1386/875 1382/856
f 1436/888 1439/872 1440/887
f 1527/874 1530/873 1529/883
f 1526/872 1528/875 1524/856
f 1517/873 1516/874 1515/875
f 1380/872 1383/888 1384/873
f 1476/861 1482/876 1478/877
f 1412/872 1415/888 1416/873
f 1582/860 1585/861 1586/862
f 1416/873 1417/874 1418/875
f 1400/873 1401/874 1402/875
f 1569/872 1566/888 1565/873
f 1558/872 1560/875 1556/856
f 1394/889 1389/875 1390/890
f 1290/851 1282/858 1273/871
f 1577/861 1571/876 1575/877
f 1342/858 1349/851 1360/859
f 1410/889 1405/875 1406/890
f 1551/856 1554/855 1553/872
f 1553/872 1550/888 1549/873
f 1553/872 1547/875 1551/856
f 1406/874 1403/873 1404/883
f 1593/861 1587/876 1591/877
f 1404/888 1407/872 1408/887
f 1396/872 1402/875 1398/856
f 1386/875 1381/889 1382/856
f 1559/874 1562/873 1561/883
f 1314/858 1646/851 1636/859
f 1486/877 1489/891 1485/892
f 1408/855 1409/856 1410/857
f 1591/877 1588/891 1592/892
f 1625/861 1619/876 1623/877
f 1255/895 1246/896 1247/897
f 1407/872 1405/875 1409/856
f 1601/861 1598/860 1597/881
f 1591/877 1594/880 1593/861
f 1567/856 1570/855 1569/872
f 1254/898 1245/894 1246/896
f 1601/861 1595/876 1599/877
f 1503/860 1500/861 1499/862
f 1629/881 1628/882 1627/876
f 1428/872 1434/875 1430/856
f 1453/892 1458/876 1457/891
f 1422/874 1419/873 1420/883
f 1468/861 1471/860 1472/881
f 1412/872 1418/875 1414/856
f 1621/881 1620/882 1619/876
f 1452/861 1458/876 1454/877
f 1632/892 1627/876 1628/891
f 1615/877 1618/880 1617/861
f 1502/877 1505/891 1501/892
f 1613/881 1612/882 1611/876
f 1494/877 1497/891 1493/892
f 1456/881 1457/882 1458/876
f 1624/892 1619/876 1620/891
f 1631/877 1634/880 1633/861
f 1573/881 1572/882 1571/876
f 1462/877 1465/891 1461/892
f 1541/855 1540/856 1539/857
f 1609/861 1606/860 1605/881
f 1252/885 1251/899 1253/900
f 1253/900 1254/886 1252/885
f 1657/849 1322/870 1641/850
f 1255/884 1256/893 1257/898
f 1257/898 1258/895 1252/885
f 1391/872 1387/873 1389/875
f 1631/877 1632/901 1634/880
f 1503/860 1504/881 1500/861
f 1363/851 1338/859 1354/858
f 1392/855 1391/872 1393/856
f 1558/872 1562/873 1560/875
f 1629/881 1630/902 1628/882
f 1396/872 1395/887 1399/888
f 1478/877 1477/901 1475/880
f 1511/874 1512/875 1514/873
f 1583/877 1584/901 1586/880
f 1312/868 1316/870 1301/849
f 1462/877 1461/901 1459/880
f 1432/873 1431/883 1433/874
f 1597/881 1598/902 1596/882
f 1310/868 1317/870 1655/849
f 1369/849 1323/870 1353/850
f 1653/849 1321/870 1640/850
f 1591/877 1587/876 1588/891
f 1301/849 1316/870 1311/850
f 1357/849 1356/869 1347/868
f 1337/868 1327/870 1355/849
f 1404/888 1403/873 1407/872
f 1272/849 1375/870 1281/850
f 1557/855 1558/872 1556/856
f 1266/851 1291/859 1275/858
f 1585/861 1581/881 1579/876
f 1408/855 1407/872 1409/856
f 1260/849 1261/869 1275/868
f 1272/849 1273/869 1282/868
f 1601/861 1597/881 1595/876
f 1255/884 1257/898 1252/885
f 1430/856 1429/857 1427/855
f 1607/877 1608/901 1610/880
f 1615/877 1616/901 1618/880
f 1553/872 1549/873 1547/875
f 1357/849 1326/870 1348/850
f 1380/872 1384/873 1386/875
f 1260/849 1378/870 1276/850
f 1582/860 1581/881 1585/861
f 1575/877 1576/901 1578/880
f 1573/881 1574/902 1572/882
f 1653/849 1652/869 1639/868
f 1468/861 1472/881 1474/876
f 1342/858 1334/871 1349/851
f 1341/849 1330/870 1332/850
f 1264/849 1265/869 1278/868
f 1500/861 1504/881 1506/876
f 1486/877 1490/876 1489/891
f 1509/855 1510/872 1508/856
f 1310/851 1299/859 1654/858
f 1298/868 1371/870 1288/849
f 1543/874 1544/875 1546/873
f 1423/872 1419/873 1421/875
f 1655/849 1317/870 1309/850
f 1367/849 1328/870 1336/850
f 1444/861 1448/881 1450/876
f 1424/887 1420/888 1419/873
f 1460/861 1459/862 1463/860
f 1638/871 1312/851 1302/859
f 1255/895 1254/898 1246/896
f 1645/849 1319/870 1636/850
f 1494/877 1493/901 1491/880
f 1251/878 1252/903 1243/865
f 1645/849 1644/869 1635/868
f 1422/874 1421/875 1419/873
f 1502/877 1501/901 1499/880
f 1649/849 1648/869 1637/868
f 1494/877 1498/876 1497/891
f 1304/849 1315/870 1313/850
f 1519/856 1520/857 1522/855
f 1569/872 1570/887 1566/888
f 1339/851 1332/859 1347/858
f 1294/868 1373/870 1262/849
f 1488/881 1487/902 1489/882
f 1288/849 1371/870 1297/850
f 1553/872 1554/887 1550/888
f 1369/849 1368/869 1354/868
f 1292/868 1374/870 1274/849
f 1657/849 1656/869 1642/868
f 1527/874 1528/875 1530/873
f 1308/868 1318/870 1643/849
f 1517/873 1518/883 1516/874
f 1243/865 1252/903 1258/866
f 1335/851 1346/859 1366/858
f 1384/873 1383/883 1385/874
f 1515/875 1516/890 1520/889
f 1248/854 1256/853 1255/863
f 1526/872 1530/873 1528/875
f 1487/860 1488/881 1484/861
f 1406/874 1405/875 1403/873
f 1456/881 1455/902 1457/882
f 1593/861 1589/881 1587/876
f 1262/849 1373/870 1293/850
f 1510/872 1514/873 1512/875
f 1274/849 1374/870 1291/850
f 1525/887 1529/888 1530/873
f 1292/858 1270/871 1259/851
f 1599/877 1595/876 1596/891
f 1331/868 1330/870 1341/849
f 1428/872 1432/873 1434/875
f 1365/849 1324/870 1352/850
f 1350/871 1333/851 1343/859
f 1331/858 1340/871 1358/851
f 1484/861 1488/881 1490/876
f 1268/849 1376/870 1279/850
f 1513/888 1514/873 1510/872
f 1440/855 1439/872 1441/856
f 1621/881 1625/861 1626/862
f 1448/881 1444/861 1443/862
f 1439/872 1435/873 1437/875
f 1361/849 1360/869 1349/868
f 1617/861 1613/881 1611/876
f 1335/868 1328/870 1367/849
f 1561/888 1562/873 1558/872
f 1402/875 1401/890 1397/889
f 1523/889 1524/856 1528/875
f 1303/858 1311/871 1637/851
f 1426/889 1425/856 1421/875
f 1460/861 1464/881 1466/876
f 1472/881 1471/902 1473/882
f 1448/881 1447/902 1449/882
f 1308/858 1647/871 1658/851
f 1279/871 1296/851 1286/859
f 1624/892 1623/877 1619/876
f 1398/856 1397/857 1395/855
f 1462/877 1466/876 1465/891
f 1633/861 1629/881 1627/876
f 1502/877 1506/876 1505/891
f 1258/866 1257/904 1249/852
f 1452/861 1456/881 1458/876
f 1563/875 1564/890 1568/889
f 1621/881 1622/902 1620/882
f 1632/892 1631/877 1627/876
f 1613/881 1614/902 1612/882
f 1298/858 1289/871 1271/851
f 1541/855 1542/872 1540/856
f 1428/872 1427/887 1431/888
f 1567/856 1568/857 1570/855
f 1254/898 1253/893 1245/894
f 1470/877 1474/876 1473/891
f 1468/861 1467/862 1471/860
f 1651/851 1307/859 1642/858
f 1407/872 1403/873 1405/875
f 1601/861 1602/862 1598/860
f 1284/858 1293/871 1278/851
f 1314/858 1305/871 1646/851
f 1388/888 1387/873 1391/872
f 1625/861 1621/881 1619/876
f 1525/855 1526/872 1524/856
f 1591/877 1592/901 1594/880
f 1537/872 1533/873 1531/875
f 1412/872 1416/873 1418/875
f 1609/861 1610/862 1606/860
f 1577/861 1573/881 1571/876
f 1438/890 1442/889 1441/856
f 1410/889 1409/856 1405/875
f 1565/873 1566/883 1564/874
f 1551/856 1552/857 1554/855
f 1396/872 1400/873 1402/875
f 1394/889 1393/856 1389/875
f 1285/849 1372/870 1295/850
f 1416/873 1415/883 1417/874
f 1355/849 1327/870 1338/850
f 1412/872 1411/887 1415/888
f 1400/873 1399/883 1401/874
f 1290/851 1297/859 1282/858
f 1424/855 1423/872 1425/856
f 1386/875 1385/890 1381/889
f 1549/873 1550/883 1548/874
f 1609/861 1605/881 1603/876
f 1436/888 1435/873 1439/872
f 1380/872 1379/887 1383/888
f 1296/868 1372/870 1285/849
f 1533/873 1534/883 1532/874
f 1643/849 1318/870 1307/850
f 1599/877 1600/901 1602/880
f 1456/881 1452/861 1451/862
f 1306/851 1313/859 1635/858
f 1249/852 1257/904 1256/853
f 1434/875 1433/890 1429/889
f 1361/849 1325/870 1350/850
f 1390/874 1389/875 1387/873
f 1476/861 1480/881 1482/876
f 1559/874 1560/875 1562/873
f 1314/868 1315/870 1304/849
f 1605/881 1606/902 1604/882
f 1287/858 1295/871 1280/851
f 1589/881 1590/902 1588/882
f 1581/881 1582/902 1580/882
f 1531/875 1532/890 1536/889
f 1264/849 1377/870 1277/850
f 1496/881 1495/902 1497/882
f 1337/858 1359/871 1370/851
f 1253/893 1251/878 1244/879
f 1495/860 1496/881 1492/861
f 1583/877 1579/876 1580/891
f 1268/849 1269/869 1280/868
f 1418/875 1417/890 1413/889
f 1333/868 1329/870 1344/849
f 1492/861 1496/881 1498/876
f 1504/881 1503/902 1505/882
f 1478/877 1482/876 1481/891
f 1365/849 1364/869 1351/868
f 1476/861 1475/862 1479/860
f 1344/849 1329/870 1334/850
f 1464/881 1463/902 1465/882
f 1590/860 1589/881 1593/861
f 1382/856 1381/857 1379/855
f 1453/892 1454/877 1458/876
f 1617/861 1618/862 1614/860
f 1575/877 1571/876 1572/891
f 1547/875 1548/890 1552/889
f 1574/860 1573/881 1577/861
f 1539/889 1540/856 1544/875
f 1542/872 1546/873 1544/875
f 1521/872 1517/873 1515/875
f 1545/888 1546/873 1542/872
f 1521/872 1522/887 1518/888
f 1555/889 1556/856 1560/875
f 1486/877 1485/901 1483/880
f 1446/877 1445/901 1443/880
f 1623/877 1624/901 1626/880
f 1615/877 1611/876 1612/891
f 1345/858 1336/871 1351/851
f 1454/877 1453/901 1451/880
f 1300/858 1309/871 1639/851
f 1294/851 1283/859 1263/858
f 1414/856 1413/857 1411/855
f 1629/881 1633/861 1634/862
f 1569/872 1565/873 1563/875
f 1480/881 1479/902 1481/882
f 1438/874 1437/875 1435/873
f 1511/890 1507/889 1508/856
f 1537/872 1538/887 1534/888
f 1470/877 1469/901 1467/880
f 1535/856 1536/857 1538/855
f 1445/892 1446/877 1450/876
f 1607/877 1603/876 1604/891
f 1605/881 1604/882 1603/876
