o Flywheel
v 0 1.625 -2
v -0.0884 1.5884 -2
v -0.125 1.5 -2
v -0.0884 1.4116 -2
v 0 1.375 -2
v 0.0884 1.4116 -2
v 0.125 1.5 -2
v 0.0884 1.5884 -2
v 0 1.625 -1.5
v -0.0884 1.5884 -1.5
v -0.125 1.5 -1.5
v -0.0884 1.4116 -1.5
v 0 1.375 -1.5
v 0.0884 1.4116 -1.5
v 0.125 1.5 -1.5
v 0.0884 1.5884 -1.5
v 0 2.5 -1.9375
v 0 2.5 -1.5625
v 0.5 2.366 -1.9375
v 0.5 2.366 -1.5625
v 0.866 2 -1.9375
v 0.866 2 -1.5625
v 1 1.5 -1.9375
v 1 1.5 -1.5625
v 0.866 1 -1.9375
v 0.866 1 -1.5625
v 0.5 0.634 -1.9375
v 0.5 0.634 -1.5625
v 0 0.5 -1.9375
v 0 0.5 -1.5625
v -0.5 0.634 -1.9375
v -0.5 0.634 -1.5625
v -0.866 1 -1.9375
v -0.866 1 -1.5625
v -1 1.5 -1.9375
v -1 1.5 -1.5625
v -0.866 2 -1.9375
v -0.866 2 -1.5625
v -0.5 2.366 -1.9375
v -0.5 2.366 -1.5625
v 0 2.25 -1.5625
v -0.375 2.1495 -1.5625
v -0.6495 1.875 -1.5625
v -0.75 1.5 -1.5625
v -0.6495 1.125 -1.5625
v -0.375 0.8505 -1.5625
v 0 0.75 -1.5625
v 0.375 0.8505 -1.5625
v 0.6495 1.125 -1.5625
v 0.75 1.5 -1.5625
v 0.6495 1.875 -1.5625
v 0.375 2.1495 -1.5625
v 0 2.25 -1.9375
v -0.375 2.1495 -1.9375
v -0.6495 1.875 -1.9375
v -0.75 1.5 -1.9375
v -0.6495 1.125 -1.9375
v -0.375 0.8505 -1.9375
v 0 0.75 -1.9375
v 0.375 0.8505 -1.9375
v 0.6495 1.125 -1.9375
v 0.75 1.5 -1.9375
v 0.6495 1.875 -1.9375
v 0.375 2.1495 -1.9375
v -0.375 2.1495 -1.625
v 0 2.25 -1.625
v -0.6495 1.875 -1.625
v -0.75 1.5 -1.625
v -0.6495 1.125 -1.625
v -0.375 0.8505 -1.625
v 0 0.75 -1.625
v 0.375 0.8505 -1.625
v 0.6495 1.125 -1.625
v 0.75 1.5 -1.625
v 0.6495 1.875 -1.625
v 0.375 2.1495 -1.625
v -0.375 2.1495 -1.875
v 0 2.25 -1.875
v -0.6495 1.875 -1.875
v -0.75 1.5 -1.875
v -0.6495 1.125 -1.875
v -0.375 0.8505 -1.875
v 0 0.75 -1.875
v 0.375 0.8505 -1.875
v 0.6495 1.125 -1.875
v 0.75 1.5 -1.875
v 0.6495 1.875 -1.875
v 0.375 2.1495 -1.875
vt 0.9583 0.1364
vt 0.9432 0.1761
vt 0.9432 0.142
vt 0.9583 0.0909
vt 0.9432 0.0511
vt 0.9583 0.0455
vt 0.9583 0.3182
vt 0.9432 0.2784
vt 0.9583 0.2727
vt 0.9962 0.233
vt 0.9811 0.2727
vt 0.9811 0.2273
vt 0.9432 0.358
vt 0.9432 0.3239
vt 0.9811 0.3182
vt 0.9962 0.358
vt 0.9811 0.3636
vt 0.9583 0.4545
vt 0.9432 0.4148
vt 0.9583 0.4091
vt 0.9962 0.0511
vt 0.9811 0.0909
vt 0.9811 0.0455
vt 0.8849 0.7841
vt 0.9242 0.6818
vt 0.9636 0.7841
vt 0.9962 0.1307
vt 0.9962 0.0966
vt 0.9432 0.3693
vt 0.9583 0.3636
vt 0.9432 0.1307
vt 0.9583 0.1818
vt 0.9811 0.1818
vt 0.9962 0.2216
vt 0.9962 0.2784
vt 0.9962 0.4148
vt 0.9811 0.4545
vt 0.9811 0.4091
vt 0.9432 0.233
vt 0.9583 0.2273
vt 0.9962 0.3693
vt 0.9583 0.5455
vt 0.9432 0.5057
vt 0.9583 0.5
vt 0.9962 0.4602
vt 0.9811 0.5
vt 0.9962 0.0057
vt 0.9811 -0
vt 0.9962 0.5057
vt 0.9811 0.5455
vt 0.9432 0.4602
vt 0.9432 0.0057
vt 0.9583 -0
vt 0.9811 0.1364
vt 0.9962 0.1761
vt 0.9636 0.6477
vt 0.8849 0.5795
vt 0.9636 0.5795
vt 0.9432 0.3125
vt 0.9962 0.4489
vt 0.9432 0.267
vt 0.9962 0.4943
vt 0.9962 0.0398
vt 0.9962 0.1875
vt 0.9432 0.0398
vt 0.9962 0.3239
vt 0.9432 0.4943
vt 0.8849 0.7159
vt 0.9432 0.0852
vt 1 0.1875
vt 1 0.2216
vt 0.9962 0.4034
vt 0.9962 0.3125
vt 0.9432 0.5398
vt 0.9962 0.5398
vt 0.9432 0.0966
vt 0.9962 0.142
vt 0.9432 0.4034
vt 0.9432 0.4489
vt 0.9242 0.6818
vt 0.9962 0.0852
vt 0.9015 0.6727
vt 0.8849 0.6477
vt 0.8788 0.6136
vt 0.9015 0.5546
vt 0.9242 0.5455
vt 0.947 0.5546
vt 0.9697 0.6136
vt 0.947 0.6727
vt 0.9962 0.267
vt 0.947 0.809
vt 0.9242 0.8182
vt 0.9015 0.809
vt 0.8788 0.75
vt 0.9015 0.691
vt 0.947 0.691
vt 0.9636 0.7159
vt 0.9697 0.75
vt 1 0.3239
vt 0.9697 0.5909
vt 1 0.5795
vt 1 0.5909
vt 1 0.0511
vt 0.9697 0.625
vt 1 0.6136
vt 1 0.625
vt 0.9697 0.5795
vt 1 0.5682
vt 0.9394 0.3125
vt 0.9697 0.6136
vt 1 0.6023
vt 0.9394 0.4943
vt 1 0.3693
vt 0.9394 0.2216
vt 0.9432 0.1875
vt 0.9432 0.2216
vt 0.9394 0.4489
vt 0.9394 0.358
vt 0.9394 0.0398
vt 1 0.4148
vt 1 0.142
vt 0.9394 0.5398
vt 0.9394 0.1307
vt 0.9394 0.267
vt 0.9394 0.4034
vt 0.9394 0.1761
vt 1 0.2784
vt 1 0.233
vt 0.9394 0.0852
vt 0.9697 0.5568
vt 1 0.5455
vt 1 0.5568
vt 0.9697 0.5682
vt 0.9697 0.6364
vt 1 0.6364
vt 1 0.4602
vt 1 0.0057
vt 0.9697 0.6023
vt 1 0.0966
vt 0.9394 0.0511
vt 1 0.1307
vt 1 0.4489
vt 0.9394 0.5057
vt 0.9697 0.5455
vt 0.9394 0.4148
vt 1 0.4034
vt 0.9394 0.1875
vt 0.9394 0.3239
vt 0.9394 0.2784
vt 0.9394 0.0057
vt 1 0.0852
vt 0.9394 0.142
vt 1 0.358
vt 0.9394 0.4602
vt 1 0.3125
vt 1 0.0398
vt 0.9394 0.3693
vt 1 0.267
vt 1 0.4943
vt 1 0.1761
vt 0.9394 0.0966
vt 0.9394 0.233
vt 1 0.5057
vt 1 0.5398
s 1
f 24/1 51/2 50/3
f 26/4 48/5 28/6
f 40/7 41/8 18/9
f 64/10 17/11 19/12
f 40/7 43/13 42/14
f 39/15 55/16 37/17
f 34/18 44/19 36/20
f 60/21 25/22 27/23
f 87/24 83/25 79/26
f 62/27 25/22 61/28
f 36/20 43/29 38/30
f 50/31 26/4 24/1
f 24/1 22/32 51/2
f 21/33 64/34 19/12
f 53/35 39/15 17/11
f 56/36 33/37 35/38
f 18/9 52/39 20/40
f 55/41 35/38 37/17
f 30/42 46/43 32/44
f 57/45 31/46 33/37
f 59/47 27/23 29/48
f 58/49 29/50 31/46
f 32/44 45/51 34/18
f 28/6 47/52 30/53
f 23/54 63/55 21/33
f 75/56 69/57 73/58
f 40/7 42/59 41/8
f 34/18 33/37 31/46
f 56/36 57/60 33/37
f 18/9 41/61 52/39
f 57/45 58/62 31/46
f 59/47 60/63 27/23
f 21/33 63/64 64/34
f 28/6 48/65 47/52
f 39/15 54/66 55/16
f 62/27 23/54 25/22
f 32/44 46/67 45/51
f 87/24 85/68 83/25
f 26/4 49/69 48/5
f 87/70 88/71 64/34
f 55/41 56/72 35/38
f 53/35 54/73 39/15
f 30/42 47/74 46/43
f 58/49 59/75 29/50
f 50/31 49/76 26/4
f 23/54 62/77 63/55
f 36/20 44/78 43/29
f 34/18 45/79 44/19
f 75/56 66/80 69/57
f 60/21 61/81 25/22
f 66/80 65/82 67/83
f 67/83 68/84 69/57
f 69/57 70/85 73/58
f 70/85 71/86 73/58
f 71/86 72/87 73/58
f 73/58 74/88 75/56
f 75/56 76/89 66/80
f 66/80 67/83 69/57
f 64/10 53/90 17/11
f 79/26 77/91 87/24
f 77/91 78/92 87/24
f 78/92 88/93 87/24
f 87/24 86/94 85/68
f 85/68 84/95 83/25
f 83/25 82/96 79/26
f 82/96 81/97 79/26
f 81/97 80/98 79/26
f 40/7 38/30 43/13
f 34/18 31/46 32/44
f 87/70 64/34 63/64
f 77/99 55/16 54/66
f 18/9 39/15 40/7
f 9/100 8/101 1/102
f 84/103 61/81 60/21
f 12/104 3/105 4/106
f 30/53 27/23 28/6
f 16/107 7/108 8/101
f 20/40 17/11 18/9
f 28/6 25/22 26/4
f 65/109 41/8 42/59
f 26/4 23/54 24/1
f 24/1 21/33 22/32
f 22/32 19/12 20/40
f 11/110 2/111 3/105
f 70/112 45/51 46/67
f 36/20 33/37 34/18
f 79/113 56/72 55/41
f 32/44 29/50 30/42
f 76/114 51/115 52/116
f 40/7 37/17 38/30
f 38/30 35/38 36/20
f 69/117 44/19 45/79
f 67/118 42/14 43/13
f 72/119 47/52 48/65
f 80/120 57/60 56/36
f 22/32 52/116 51/115
f 86/121 63/55 62/77
f 71/122 46/43 47/74
f 74/123 49/76 50/31
f 66/124 52/39 41/61
f 68/125 43/29 44/78
f 75/126 50/3 51/2
f 78/127 54/73 53/35
f 88/128 53/90 64/10
f 73/129 48/5 49/69
f 14/130 5/131 6/132
f 15/133 6/132 7/108
f 13/134 4/106 5/135
f 81/136 58/62 57/45
f 83/137 60/63 59/47
f 10/138 1/102 2/111
f 85/139 62/27 61/28
f 13/134 12/104 4/106
f 73/129 72/140 48/5
f 85/139 86/141 62/27
f 80/120 81/142 57/60
f 22/32 20/40 52/116
f 71/122 70/143 46/43
f 14/130 13/144 5/131
f 40/7 39/15 37/17
f 38/30 37/17 35/38
f 69/117 68/145 44/19
f 32/44 31/46 29/50
f 36/20 35/38 33/37
f 79/113 80/146 56/72
f 76/114 75/147 51/115
f 67/118 65/148 42/14
f 15/133 14/130 6/132
f 24/1 23/54 21/33
f 22/32 21/33 19/12
f 65/109 66/149 41/8
f 72/119 71/150 47/52
f 28/6 27/23 25/22
f 26/4 25/22 23/54
f 11/110 10/138 2/111
f 30/53 29/48 27/23
f 16/107 15/133 7/108
f 84/103 85/151 61/81
f 75/126 74/152 50/3
f 77/99 79/153 55/16
f 9/100 16/107 8/101
f 12/104 11/110 3/105
f 20/40 19/12 17/11
f 70/112 69/154 45/51
f 78/127 77/155 54/73
f 18/9 17/11 39/15
f 83/137 84/156 60/63
f 68/125 67/157 43/29
f 88/128 78/158 53/90
f 81/136 82/159 58/62
f 86/121 87/160 63/55
f 74/123 73/161 49/76
f 66/124 76/162 52/39
f 10/138 9/100 1/102
f 82/163 83/164 59/75
f 82/163 59/75 58/49
o Gauge
v -0.0312 1.5312 3.4688
v -0.0312 1.4688 3.4688
v 0.0312 1.5312 3.4688
v 0.0312 1.4688 3.4688
v 0.0312 1.5312 3.5
v -0.0312 1.5312 3.5
v -0.0312 1.4688 3.5
v 0.0312 1.4688 3.5
v 0 1.6562 3.4688
v 0 1.6562 3.5
vt 0.6023 0.5398
vt 0.5947 0.5341
vt 0.6023 0.5341
vt 0.6023 0.5511
vt 0.6061 0.5398
vt 0.6061 0.5511
vt 0.6023 0.5739
vt 0.6061 0.5739
vt 0.5947 0.5398
vt 0.5909 0.5511
vt 0.5909 0.5398
vt 0.5947 0.5511
vt 0.5985 0.5739
vt 0.5947 0.5739
vt 0.5909 0.5739
s 1
f 96/165 90/166 92/167
f 93/168 92/169 91/170
f 98/171 91/170 97/172
f 96/165 95/173 90/166
f 95/173 89/174 90/175
f 95/173 93/168 94/176
f 95/173 94/176 89/174
f 98/177 94/176 93/168
f 94/176 98/178 97/179
f 95/173 96/165 93/168
f 93/168 96/165 92/169
f 98/171 93/168 91/170
f 94/176 97/179 89/174
o Turbine
v -1.25 0 3.5
v 1.25 0 3.5
v -1.25 -0 -3.5
v 1.25 -0 -3.5
v -1.25 0.5 -3.5
v -1.25 0.5 3.5
v 1.25 0.5 3.5
v 1.25 0.5 -3.5
v -1.25 0.5 3.5
v 1.25 0.5 3.5
v -1.25 0.5 2.5
v 1.25 0.5 2.5
v -1.25 0.625 3.5
v 1.25 0.625 3.5
v -1.25 0.625 2.5
v 1.25 0.625 2.5
v -1 0.875 3.5
v 1 0.875 3.5
v -1 0.875 2.5
v 1 0.875 2.5
v -1 2.25 3.5
v 1 2.25 3.5
v -1 2.25 2.5
v 1 2.25 2.5
v 1 2.25 -1.5
v -1 2.25 -1.5
v 1 2.25 -0.5
v -1 2.25 -0.5
v 1 0.875 -1.5
v -1 0.875 -1.5
v 1 0.875 -0.5
v -1 0.875 -0.5
v 1.25 0.625 -1.5
v -1.25 0.625 -1.5
v 1.25 0.625 -0.5
v -1.25 0.625 -0.5
v 1.25 0.5 -1.5
v -1.25 0.5 -1.5
v 1.25 0.5 -0.5
v -1.25 0.5 -0.5
v 0 2.5 -0
v -0.5 2.366 -0
v -0.866 2 -0
v -1 1.5 -0
v -0.866 1 -0
v -0.5 0.634 -0
v 0 0.5 -0
v 0.5 0.634 -0
v 0.866 1 -0
v 1 1.5 -0
v 0.866 2 -0
v 0.5 2.366 -0
v 0 2.5 0.75
v -0.5 2.366 0.75
v -0.866 2 0.75
v -1 1.5 0.75
v -0.866 1 0.75
v -0.5 0.634 0.75
v 0 0.5 0.75
v 0.5 0.634 0.75
v 0.866 1 0.75
v 1 1.5 0.75
v 0.866 2 0.75
v 0.5 2.366 0.75
v 0 2.25 -0
v -0.375 2.1495 -0
v -0.6495 1.875 -0
v -0.75 1.5 -0
v -0.6495 1.125 -0
v -0.375 0.8505 -0
v 0 0.75 -0
v 0.375 0.8505 -0
v 0.6495 1.125 -0
v 0.75 1.5 -0
v 0.6495 1.875 -0
v 0.375 2.1495 -0
v 0 2 -0.25
v -0.25 1.933 -0.25
v -0.433 1.75 -0.25
v -0.5 1.5 -0.25
v -0.433 1.25 -0.25
v -0.25 1.067 -0.25
v 0 1 -0.25
v 0.25 1.067 -0.25
v 0.433 1.25 -0.25
v 0.5 1.5 -0.25
v 0.433 1.75 -0.25
v 0.25 1.933 -0.25
v 0 2.25 -0.25
v -0.375 2.1495 -0.25
v -0.6495 1.875 -0.25
v -0.75 1.5 -0.25
v -0.6495 1.125 -0.25
v -0.375 0.8505 -0.25
v 0 0.75 -0.25
v 0.375 0.8505 -0.25
v 0.6495 1.125 -0.25
v 0.75 1.5 -0.25
v 0.6495 1.875 -0.25
v 0.375 2.1495 -0.25
v 0 2 -0.5
v -0.25 1.933 -0.5
v -0.433 1.75 -0.5
v -0.5 1.5 -0.5
v -0.433 1.25 -0.5
v -0.25 1.067 -0.5
v 0 1 -0.5
v 0.25 1.067 -0.5
v 0.433 1.25 -0.5
v 0.5 1.5 -0.5
v 0.433 1.75 -0.5
v 0.25 1.933 -0.5
v 0 2.25 0.75
v -0.375 2.1495 0.75
v -0.6495 1.875 0.75
v -0.75 1.5 0.75
v -0.6495 1.125 0.75
v -0.375 0.8505 0.75
v 0 0.75 0.75
v 0.375 0.8505 0.75
v 0.6495 1.125 0.75
v 0.75 1.5 0.75
v 0.6495 1.875 0.75
v 0.375 2.1495 0.75
v 0 2.25 1.75
v -0.375 2.1495 1.75
v -0.6495 1.875 1.75
v -0.75 1.5 1.75
v -0.6495 1.125 1.75
v -0.375 0.8505 1.75
v 0 0.75 1.75
v 0.375 0.8505 1.75
v 0.6495 1.125 1.75
v 0.75 1.5 1.75
v 0.6495 1.875 1.75
v 0.375 2.1495 1.75
v 0 2 1.75
v -0.25 1.933 1.75
v -0.433 1.75 1.75
v -0.5 1.5 1.75
v -0.433 1.25 1.75
v -0.25 1.067 1.75
v 0 1 1.75
v 0.25 1.067 1.75
v 0.433 1.25 1.75
v 0.5 1.5 1.75
v 0.433 1.75 1.75
v 0.25 1.933 1.75
v 0 2 2.5
v -0.25 1.933 2.5
v -0.433 1.75 2.5
v -0.5 1.5 2.5
v -0.433 1.25 2.5
v -0.25 1.067 2.5
v 0 1 2.5
v 0.25 1.067 2.5
v 0.433 1.25 2.5
v 0.5 1.5 2.5
v 0.433 1.75 2.5
v 0.25 1.933 2.5
v 1.5 0.75 3.25
v 1.5 0.25 3.25
v 1.5 0.75 2.75
v 1.5 0.25 2.75
v 1.125 0.75 2.75
v 1.125 0.75 3.25
v 1.125 0.25 3.25
v 1.125 0.25 2.75
v 1.5 0.75 -0.75
v 1.5 0.25 -0.75
v 1.5 0.75 -1.25
v 1.5 0.25 -1.25
v 1.125 0.75 -1.25
v 1.125 0.75 -0.75
v 1.125 0.25 -0.75
v 1.125 0.25 -1.25
v -0.25 3 3.25
v 0.25 3 3.25
v -0.25 3 2.75
v 0.25 3 2.75
v -0.25 2.75 2.75
v -0.25 2.75 3.25
v 0.25 2.75 3.25
v 0.25 2.75 2.75
v -0.5 2.75 3.5
v 0.5 2.75 3.5
v -0.5 2.75 2.5
v 0.5 2.75 2.5
v -0.25 3 -0.75
v 0.25 3 -0.75
v -0.25 3 -1.25
v 0.25 3 -1.25
v -0.25 2.75 -1.25
v -0.25 2.75 -0.75
v 0.25 2.75 -0.75
v 0.25 2.75 -1.25
v -0.5 2.75 -0.5
v 0.5 2.75 -0.5
v -0.5 2.75 -1.5
v 0.5 2.75 -1.5
v -0.25 0.625 2.5
v 0.25 0.625 2.5
v -0.25 0.625 -0.5
v 0.25 0.625 -0.5
v -0.25 1.5 -0.5
v -0.25 1.5 2.5
v 0.25 1.5 2.5
v 0.25 1.5 -0.5
v 0.75 0.625 2.5
v 0.75 0.625 -0.5
v -0.75 0.625 2.5
v -0.75 0.625 -0.5
v 0.75 0.5 2.5
v 0.75 0.5 -0.5
v -0.75 0.5 2.5
v -0.75 0.5 -0.5
v -1.3826 0.75 -0.8674
v -1.4375 0.75 -1
v -1.3826 0.75 -1.1326
v -1.25 0.75 -1.1875
v -1.1174 0.75 -1.1326
v -1.0625 0.75 -1
v -1.1174 0.75 -0.8674
v -1.25 0.75 -0.8125
v -1.0625 2.3674 3.1326
v -1.0625 2.3674 2.8674
v -1.0625 2.5 2.8125
v -1.0625 2.6326 2.8674
v -1.0625 2.6875 3
v -1.0625 2.6326 3.1326
v -0.5625 2.3125 3
v -0.5625 2.5 3.1875
v -0.5625 2.3674 3.1326
v -0.5625 2.3674 2.8674
v -0.5625 2.5 2.8125
v -0.5625 2.6326 2.8674
v -0.5625 2.6875 3
v -0.5625 2.6326 3.1326
v 0.5625 2.6326 -1.1326
v 0.5625 2.6875 -1
v -0.625 0.625 2.3125
v 0.625 0.625 2.3125
v -0.625 0.625 2.1875
v 0.625 0.625 2.1875
v -0.625 0.875 2.1875
v -0.625 0.875 2.3125
v 0.625 0.875 2.3125
v 0.625 0.875 2.1875
v -0.375 1.125 2.1875
v -0.375 1.125 2.3125
v 0.375 1.125 2.3125
v 0.375 1.125 2.1875
v 0.5625 2.6326 -0.8674
v 0.5625 2.5 -0.8125
v 0.5625 2.3674 -0.8674
v 0.5625 2.3674 -1.1326
v 0.5625 2.5 -1.1875
v 0.5625 2.3125 -1
v 1.0625 2.6326 -1.1326
v 1.0625 2.6875 -1
v 1.0625 2.6326 -0.8674
v 1.0625 2.5 -0.8125
v 1.0625 2.3674 -0.8674
v 1.0625 2.3674 -1.1326
v 1.25 0.75 2.8125
v 1.1174 0.75 2.8674
v 1.0625 0.75 3
v 1.1174 0.75 3.1326
v 1.25 0.75 3.1875
v 1.3826 0.75 3.1326
v 1.4375 0.75 3
v 1.3826 0.75 2.8674
v 1.25 2.3125 2.8125
v 1.1174 2.3125 2.8674
v 1.0625 2.3125 3
v 1.1174 2.3125 3.1326
v 1.25 2.3125 3.1875
v 1.3826 2.3125 3.1326
v 1.4375 2.3125 3
v 1.3826 2.3125 2.8674
v 1.1951 2.4451 2.8125
v 1.1013 2.3513 2.8674
v 1.1013 2.3513 3.1326
v 1.1951 2.4451 3.1875
v 1.2888 2.5388 3.1326
v 1.3277 2.5777 3
v 1.2888 2.5388 2.8674
v 1.0625 2.5 2.8125
v 1.0625 2.3674 2.8674
v 1.0625 2.3674 3.1326
v 1.0625 2.5 3.1875
v 1.0625 2.6326 3.1326
v 1.0625 2.6875 3
v 1.0625 2.6326 2.8674
v 0.5625 2.3125 3
v 0.5625 2.5 2.8125
v 0.5625 2.3674 2.8674
v 0.5625 2.3674 3.1326
v 0.5625 2.5 3.1875
v 0.5625 2.6326 3.1326
v 0.5625 2.6875 3
v 0.5625 2.6326 2.8674
v -1.5 0.75 -1.25
v -1.5 0.25 -1.25
v -1.5 0.75 -0.75
v -1.5 0.25 -0.75
v -1.125 0.75 -0.75
v -1.125 0.75 -1.25
v -1.125 0.25 -1.25
v -1.125 0.25 -0.75
v -1.5 0.75 2.75
v -1.5 0.25 2.75
v -1.5 0.75 3.25
v -1.5 0.25 3.25
v -1.125 0.75 3.25
v -1.125 0.75 2.75
v -1.125 0.25 2.75
v -1.125 0.25 3.25
v 0 2.25 -2
v -0.375 2.1495 -2
v -0.6495 1.875 -2
v -0.75 1.5 -2
v -0.6495 1.125 -2
v -0.375 0.8505 -2
v 0 0.75 -2
v 0.375 0.8505 -2
v 0.6495 1.125 -2
v 0.75 1.5 -2
v 0.6495 1.875 -2
v 0.375 2.1495 -2
v 0 2.25 -3.5
v -0.375 2.1495 -3.5
v -0.6495 1.875 -3.5
v -0.75 1.5 -3.5
v -0.6495 1.125 -3.5
v -0.375 0.8505 -3.5
v 0 0.75 -3.5
v 0.375 0.8505 -3.5
v 0.6495 1.125 -3.5
v 0.75 1.5 -3.5
v 0.6495 1.875 -3.5
v 0.375 2.1495 -3.5
v 0.25 0.625 -2.125
v 0.25 1.5 -2.125
v 0.75 0.625 -2.125
v 0.75 0.5 -2.125
v 0.25 0.625 -3.375
v 0.25 1.5 -3.375
v 0.75 0.625 -3.375
v 0.75 0.5 -3.375
v -0.25 0.625 -2.125
v -0.25 1.5 -2.125
v -0.75 0.625 -2.125
v -0.75 0.5 -2.125
v -0.25 0.625 -3.375
v -0.25 1.5 -3.375
v -0.75 0.625 -3.375
v -0.75 0.5 -3.375
v 1.0625 2.5 -1.1875
v 1.2888 2.5388 -1.1326
v 1.3277 2.5777 -1
v 1.2888 2.5388 -0.8674
v 1.1951 2.4451 -0.8125
v 1.1013 2.3513 -0.8674
v 1.1013 2.3513 -1.1326
v 1.1951 2.4451 -1.1875
v 1.3826 2.3125 -1.1326
v 1.4375 2.3125 -1
v 1.3826 2.3125 -0.8674
v 1.25 2.3125 -0.8125
v 1.1174 2.3125 -0.8674
v 1.0625 2.3125 -1
v 1.1174 2.3125 -1.1326
v 1.25 2.3125 -1.1875
v 1.3826 0.75 -1.1326
v 1.4375 0.75 -1
v 1.3826 0.75 -0.8674
v 1.25 0.75 -0.8125
v 1.1174 0.75 -0.8674
v 1.0625 0.75 -1
v 1.1174 0.75 -1.1326
v 1.25 0.75 -1.1875
v -0.5 1 3.375
v 0.5 1 3.375
v -0.5 2 3.375
v 0.5 2 3.375
v -0.5 2.25 3.5
v 0.5 2.25 3.5
v -0.5 0.75 3.5
v 0.5 0.75 3.5
v 0 1.75 3.4062
v -0.1768 1.6768 3.4062
v -0.25 1.5 3.4062
v -0.1768 1.3232 3.4062
v 0 1.25 3.4062
v 0.1768 1.3232 3.4062
v 0.25 1.5 3.4062
v 0.1768 1.6768 3.4062
v 0 1.75 3.4688
v -0.1768 1.6768 3.4688
v -0.25 1.5 3.4688
v -0.1768 1.3232 3.4688
v 0 1.25 3.4688
v 0.1768 1.3232 3.4688
v 0.25 1.5 3.4688
v 0.1768 1.6768 3.4688
v -0.5 1.4688 3.375
v 0.5 1.4688 3.375
v -0.5 1.5312 3.375
v 0.5 1.5312 3.375
v -0.5 1.5312 3.4375
v -0.5 1.4688 3.4375
v 0.5 1.4688 3.4375
v 0.5 1.5312 3.4375
v -0.5 1.5938 3.375
v 0.5 1.5938 3.375
v -0.5 1.6562 3.375
v 0.5 1.6562 3.375
v -0.5 1.6562 3.4375
v -0.5 1.5938 3.4375
v 0.5 1.5938 3.4375
v 0.5 1.6562 3.4375
v -0.5 1.3438 3.375
v 0.5 1.3438 3.375
v -0.5 1.4062 3.375
v 0.5 1.4062 3.375
v -0.5 1.4062 3.4375
v -0.5 1.3438 3.4375
v 0.5 1.3438 3.4375
v 0.5 1.4062 3.4375
v -0.2188 1.0625 3.375
v -0.1562 1.0625 3.375
v -0.2188 1.125 3.375
v -0.1562 1.125 3.375
v -0.2188 1.125 3.4688
v -0.2188 1.0625 3.4688
v -0.1562 1.0625 3.4688
v -0.1562 1.125 3.4688
v -0.1212 1.16 3.4062
v -0.0938 1.0938 3.4062
v -0.1212 1.0275 3.4062
v -0.1875 1 3.4062
v -0.2538 1.0275 3.4062
v -0.2812 1.0938 3.4062
v -0.2538 1.16 3.4062
v -0.1875 1.1875 3.4062
v -0.1102 1.0385 3.4375
v -0.2427 1.1711 3.4375
v -0.2648 1.149 3.4375
v -0.1323 1.0164 3.4375
v -0.2427 1.0164 3.4375
v -0.1102 1.149 3.4375
v -0.1323 1.1711 3.4375
v -0.2648 1.0385 3.4375
v 0.125 0.9375 3.5
v 0.375 0.9375 3.5
v 0.125 1.1875 3.5
v 0.375 1.1875 3.5
v 0.375 1.1875 3.375
v 0.125 1.1875 3.375
v 0.375 0.9375 3.375
v 0.125 0.9375 3.375
v -0.1875 1.2188 3.4062
v -0.2759 1.1821 3.4062
v -0.3125 1.0938 3.4062
v -0.2759 1.0054 3.4062
v -0.1875 0.9688 3.4062
v -0.0991 1.0054 3.4062
v -0.0625 1.0938 3.4062
v -0.0991 1.1821 3.4062
v -0.1875 1.1875 3.4688
v -0.1212 1.16 3.4688
v -0.0938 1.0938 3.4688
v -0.1212 1.0275 3.4688
v -0.1875 1 3.4688
v -0.2538 1.0275 3.4688
v -0.2812 1.0938 3.4688
v -0.2538 1.16 3.4688
v -0.2759 1.1821 3.4688
v -0.1875 1.2188 3.4688
v -0.3125 1.0938 3.4688
v -0.2759 1.0054 3.4688
v -0.1875 0.9688 3.4688
v -0.0991 1.0054 3.4688
v -0.0625 1.0938 3.4688
v -0.0991 1.1821 3.4688
v -0.625 0.625 1.6875
v 0.625 0.625 1.6875
v -0.625 0.625 1.5625
v 0.625 0.625 1.5625
v -0.625 0.875 1.5625
v -0.625 0.875 1.6875
v 0.625 0.875 1.6875
v 0.625 0.875 1.5625
v -0.375 1.125 1.5625
v -0.375 1.125 1.6875
v 0.375 1.125 1.6875
v 0.375 1.125 1.5625
v -0.625 0.625 1.0625
v 0.625 0.625 1.0625
v -0.625 0.625 0.9375
v 0.625 0.625 0.9375
v -0.625 0.875 0.9375
v -0.625 0.875 1.0625
v 0.625 0.875 1.0625
v 0.625 0.875 0.9375
v -0.375 1.125 0.9375
v -0.375 1.125 1.0625
v 0.375 1.125 1.0625
v 0.375 1.125 0.9375
v -0.625 0.625 -0.1875
v 0.625 0.625 -0.1875
v -0.625 0.625 -0.3125
v 0.625 0.625 -0.3125
v -0.625 0.875 -0.3125
v -0.625 0.875 -0.1875
v 0.625 0.875 -0.1875
v 0.625 0.875 -0.3125
v -0.375 1.125 -0.3125
v -0.375 1.125 -0.1875
v 0.375 1.125 -0.1875
v 0.375 1.125 -0.3125
v -0.625 0.625 -2.3125
v 0.625 0.625 -2.3125
v -0.625 0.625 -2.4375
v 0.625 0.625 -2.4375
v -0.625 0.875 -2.4375
v -0.625 0.875 -2.3125
v 0.625 0.875 -2.3125
v 0.625 0.875 -2.4375
v -0.375 1.125 -2.4375
v -0.375 1.125 -2.3125
v 0.375 1.125 -2.3125
v 0.375 1.125 -2.4375
v -0.625 0.625 -3.0625
v 0.625 0.625 -3.0625
v -0.625 0.625 -3.1875
v 0.625 0.625 -3.1875
v -0.625 0.875 -3.1875
v -0.625 0.875 -3.0625
v 0.625 0.875 -3.0625
v 0.625 0.875 -3.1875
v -0.375 1.125 -3.1875
v -0.375 1.125 -3.0625
v 0.375 1.125 -3.0625
v 0.375 1.125 -3.1875
v -1.25 2.3125 -0.8125
v -1.1174 2.3125 -0.8674
v -1.0625 2.3125 -1
v -1.1174 2.3125 -1.1326
v -1.25 2.3125 -1.1875
v -1.3826 2.3125 -1.1326
v -1.4375 2.3125 -1
v -1.3826 2.3125 -0.8674
v -1.1951 2.4451 -0.8125
v -1.1013 2.3513 -0.8674
v -1.1013 2.3513 -1.1326
v -1.1951 2.4451 -1.1875
v -1.2888 2.5388 -1.1326
v -1.3277 2.5777 -1
v -1.2888 2.5388 -0.8674
v -1.0625 2.5 -0.8125
v -1.0625 2.3674 -0.8674
v -1.0625 2.3674 -1.1326
v -1.0625 2.5 -1.1875
v -1.0625 2.6326 -1.1326
v -1.0625 2.6875 -1
v -1.0625 2.6326 -0.8674
v -0.5625 2.3125 -1
v -0.5625 2.5 -0.8125
v -0.5625 2.3674 -0.8674
v -0.5625 2.3674 -1.1326
v -0.5625 2.5 -1.1875
v -0.5625 2.6326 -1.1326
v -0.5625 2.6875 -1
v -0.5625 2.6326 -0.8674
v -1.0625 2.5 3.1875
v -1.2888 2.5388 3.1326
v -1.3277 2.5777 3
v -1.2888 2.5388 2.8674
v -1.1951 2.4451 2.8125
v -1.1013 2.3513 2.8674
v -1.1013 2.3513 3.1326
v -1.1951 2.4451 3.1875
v -1.3826 2.3125 3.1326
v -1.4375 2.3125 3
v -1.3826 2.3125 2.8674
v -1.25 2.3125 2.8125
v -1.1174 2.3125 2.8674
v -1.0625 2.3125 3
v -1.1174 2.3125 3.1326
v -1.25 2.3125 3.1875
v -1.3826 0.75 3.1326
v -1.4375 0.75 3
v -1.3826 0.75 2.8674
v -1.25 0.75 2.8125
v -1.1174 0.75 2.8674
v -1.0625 0.75 3
v -1.1174 0.75 3.1326
v -1.25 0.75 3.1875
v 0 0.875 2.5
v -1.25 0 0
v 0 0 3.5
v 0 0.5 3.5
v -1.25 0.5 -0
v 0 -0 -3.5
v 1.25 0 0
v 0 0.875 -1.5
v 0 0.875 -0.5
v -0.75 0.625 1
v 0.75 0.625 1
v -0.25 0.625 1
v 0.25 0.625 1
v 0 0.5 -2.125
v 0.375 0.625 3.5
v 0 2.25 2.5
v 0.25 2.5 2.5
v 0 0.5 2.5
v 1.25 0.5 -0
v 0 0.5 -3.5
v 0 2.25 -1.5
v 0.25 2.5 -1.5
v 0 0.5 -1.5
v 0 2.25 -0.5
v -0.25 2.5 -0.5
v 0 0.5 -0.5
v -0.75 0.5 1
v 0.75 0.5 1
v 0.25 1.5 1
v -0.25 1.5 1
v 0 0.5 -3.375
v -0.5 1.5 3.5
v 0.5 1.5 3.5
v 0 0.5 3.5
v 1.1174 1.5312 3.1326
v 1.1174 1.5312 2.8674
v 1.4375 1.5312 3
v 1.25 1.5312 3.1875
v 1.0625 1.5312 3
v 1.25 1.5312 2.8125
v 1.3826 1.5312 2.8674
v 1.3826 1.5312 3.1326
v -0.6495 1.125 -2.75
v 0.375 2.1495 -2.75
v -0.375 2.1495 -2.75
v 0.6495 1.125 -2.75
v -0.375 0.8505 -2.75
v -0.6495 1.875 -2.75
v 0.75 1.5 -2.75
v 0 0.75 -2.75
v -0.75 1.5 -2.75
v 0.6495 1.875 -2.75
v 0 2.25 -2.75
v 0.375 0.8505 -2.75
v 1.3826 1.5312 -0.8674
v 1.3826 1.5312 -1.1326
v 1.25 1.5312 -1.1875
v 1.0625 1.5312 -1
v 1.25 1.5312 -0.8125
v 1.4375 1.5312 -1
v 1.1174 1.5312 -1.1326
v 1.1174 1.5312 -0.8674
v -1.1174 1.5312 -1.1326
v -1.1174 1.5312 -0.8674
v -1.4375 1.5312 -1
v -1.25 1.5312 -1.1875
v -1.0625 1.5312 -1
v -1.25 1.5312 -0.8125
v -1.3826 1.5312 -0.8674
v -1.3826 1.5312 -1.1326
v -1.3826 1.5312 2.8674
v -1.3826 1.5312 3.1326
v -1.25 1.5312 3.1875
v -1.0625 1.5312 3
v -1.25 1.5312 2.8125
v -1.4375 1.5312 3
v -1.1174 1.5312 3.1326
v -1.1174 1.5312 2.8674
v 0 0 0
v 0 0.5 -0
v -1.25 -0 -1.75
v -1.25 0.5 1.75
v 1.25 -0 -1.75
v 0 -0 -1.75
v 0 0 1.75
v -1.25 0 1.75
v -0.75 0.625 0.25
v 0.75 0.625 0.25
v -0.25 0.625 0.25
v 0.25 0.625 0.25
v -0.75 0.625 1.75
v -1.25 0.5 -1.75
v 1.25 0.5 1.75
v -0.25 0.625 1.75
v 0.25 0.625 1.75
v 0.75 0.625 1.75
v 1.25 0 1.75
v 1.25 0.5 -1.75
v -0.75 0.5 0.25
v 0.75 0.5 0.25
v 0.25 1.5 0.25
v -0.25 1.5 1.75
v 0 0.5 -1.75
v 0 0.5 1.75
v -0.25 1.5 0.25
v 0.25 1.5 1.75
v 0.75 0.5 1.75
v -0.75 0.5 1.75
v -1.25 -0 -2.625
v -1.25 0.5 2.625
v 1.25 -0 -2.625
v 0 -0 -0.875
v 0 0 2.625
v -1.25 0 0.875
v 1.25 0.5 -0.875
v -1.25 0.5 -0.875
v 1.25 0.5 0.875
v 1.25 0 0.875
v 1.25 0.5 -2.625
v -1.25 0 2.625
v 0 0.5 -0.875
v 0 0.5 0.875
v 0 0.5 2.625
v -1.25 -0 -0.875
v -1.25 0.5 -2.625
v 1.25 0 2.625
v 1.25 0.5 2.625
v 0 0.5 -2.625
v -1.25 0.5 0.875
v 1.25 -0 -0.875
v 0 -0 -2.625
v 0 0 0.875
vt 0.5303 0.5
vt 0.5909 0.5341
vt 0.5303 0.5341
vt 0.8788 0.8409
vt 0.8712 0.8182
vt 0.8788 0.8182
vt 0.6515 0.4375
vt 0.6439 0.3665
vt 0.6515 0.3665
vt 0.6136 0.642
vt 0.6061 0.6364
vt 0.6136 0.6364
vt 0.7576 0.4034
vt 0.8182 0.3693
vt 0.8182 0.4034
vt 0.6136 0.5284
vt 0.6061 0.483
vt 0.6136 0.483
vt 0.5 0.2045
vt 0.5606 0.1591
vt 0.5606 0.2045
vt 0.6742 0.2955
vt 0.6894 0.2045
vt 0.6894 0.2955
vt 0.6667 0.6023
vt 0.6705 0.5852
vt 0.6705 0.6023
vt 0.8788 0.8636
vt 0.8712 0.8409
vt 0.3712 0.5114
vt 0.3636 0.5341
vt 0.3636 0.5114
vt 0.6515 0.5284
vt 0.6439 0.483
vt 0.6515 0.483
vt 0.4167 0.3295
vt 0.3864 0.375
vt 0.3864 0.3295
vt 0.697 0.3068
vt 0.7424 0.2841
vt 0.7424 0.3068
vt 0.6212 0.6705
vt 0.625 0.6818
vt 0.6212 0.6818
vt 0.697 0.2614
vt 0.7424 0.2386
vt 0.7424 0.2614
vt 0.7424 0.6136
vt 0.697 0.5795
vt 0.7424 0.5795
vt 0.1061 0.6818
vt 0.0303 0.6023
vt 0.1061 0.6023
vt 0.447 0.1364
vt 0.3864 0.1136
vt 0.447 0.1136
vt 0.4394 0.3295
vt 0.4167 0.375
vt 0.6667 0.5341
vt 0.6061 0.5284
vt 0.6667 0.5284
vt 0.625 0.6648
vt 0.6212 0.6534
vt 0.625 0.6534
vt 0.6667 0.3665
vt 0.6591 0.2955
vt 0.6667 0.2955
vt 0.8182 0.1761
vt 0.8333 0.1364
vt 0.8333 0.1818
vt 0.8333 0.2273
vt 0.8182 0.1875
vt 0.8333 0.3182
vt 0.8182 0.2784
vt 0.8333 0.2727
vt 0.8939 0.267
vt 0.8788 0.2273
vt 0.8939 0.233
vt 0.7576 0.5057
vt 0.7424 0.5341
vt 0.7424 0.5114
vt 0.8333 0.4545
vt 0.8182 0.4148
vt 0.8333 0.4091
vt 0.7424 0.0795
vt 0.7576 0.0511
vt 0.7576 0.0852
vt 0.8333 0.5
vt 0.8182 0.4602
vt 0.8939 0.0398
vt 0.8788 0
vt 0.8939 0.0057
vt 0.8333 0.3636
vt 0.8182 0.0852
vt 0.8333 0.0455
vt 0.8333 0.0909
vt 0.9242 0.2386
vt 0.9091 0.267
vt 0.9091 0.233
vt 0.9242 0.4432
vt 0.9091 0.4148
vt 0.9242 0.4205
vt 0.9242 0.3523
vt 0.9091 0.3239
vt 0.9242 0.3295
vt 0.9242 0.3068
vt 0.9091 0.2784
vt 0.9242 0.2841
vt 0.8939 0.3693
vt 0.8788 0.4091
vt 0.8788 0.3636
vt 0.7576 0.2216
vt 0.7424 0.1932
vt 0.7576 0.1875
vt 0.7424 0.1705
vt 0.7576 0.142
vt 0.7576 0.1761
vt 0.9242 0.4659
vt 0.9091 0.4943
vt 0.9091 0.4602
vt 0.9242 0.375
vt 0.9091 0.4034
vt 0.9091 0.3693
vt 0.7424 0.3523
vt 0.7576 0.3239
vt 0.7576 0.358
vt 0.9242 0.5341
vt 0.9091 0.5057
vt 0.9242 0.5114
vt 0.6591 0.4602
vt 0.6515 0.4716
vt 0.6515 0.4602
vt 0.9091 0.0398
vt 0.9242 0.0114
vt 0.9242 0.0341
vt 0.7576 0.4148
vt 0.7424 0.4432
vt 0.7424 0.4205
vt 0.8182 0.5398
vt 0.8333 0.5455
vt 0.8182 0.267
vt 0.8939 0.1761
vt 0.8788 0.1364
vt 0.8939 0.142
vt 0.8939 0.1307
vt 0.8788 0.0909
vt 0.8939 0.0966
vt 0.8182 0.1307
vt 0.8939 0.0852
vt 0.8788 0.0455
vt 0.8939 0.0511
vt 0.8182 0.0398
vt 0.8333 0
vt 0.7576 0.2784
vt 0.8939 0.3239
vt 0.8788 0.3182
vt 0.7576 0.267
vt 0.7576 0.233
vt 0.9242 0.2159
vt 0.9091 0.1875
vt 0.9242 0.1932
vt 0.8939 0.2784
vt 0.8788 0.2727
vt 0.794 0.7159
vt 0.8727 0.7841
vt 0.794 0.7841
vt 0.8939 0.4148
vt 0.8788 0.4545
vt 0.8939 0.5398
vt 0.8788 0.5
vt 0.8939 0.5057
vt 0.8182 0.3239
vt 0.7576 0.4943
vt 0.7424 0.4659
vt 0.7576 0.4602
vt 0.7424 0.375
vt 0.7576 0.3693
vt 0.9242 0.1705
vt 0.9091 0.142
vt 0.9242 0.1477
vt 0.7576 0.0398
vt 0.7424 0.0114
vt 0.7576 0.0057
vt 0.7424 0.125
vt 0.7576 0.0966
vt 0.7576 0.1307
vt 0.9091 0.0852
vt 0.9242 0.0568
vt 0.9242 0.0795
vt 0.9242 0.125
vt 0.9091 0.0966
vt 0.9242 0.1023
vt 0.6212 0.4375
vt 0.6136 0.3665
vt 0.6212 0.3665
vt 0.4167 0.4091
vt 0.3712 0.7045
vt 0.3636 0.7955
vt 0.3636 0.7045
vt 0.7955 0.8409
vt 0.7879 0.8182
vt 0.7955 0.8182
vt 0.7955 0.8636
vt 0.7879 0.8409
vt 0.3864 0.7045
vt 0.3712 0.7955
vt 0.4091 0.4773
vt 0.3788 0.4318
vt 0.4091 0.4318
vt 0.7424 0.8182
vt 0.697 0.7841
vt 0.7424 0.7841
vt 0.6364 0.4375
vt 0.6288 0.3665
vt 0.6364 0.3665
vt 0.6705 0.517
vt 0.6705 0.5341
vt 0.6288 0.4375
vt 0.697 0.3523
vt 0.7424 0.3295
vt 0.6136 0.4375
vt 0.6061 0.3665
vt 0.5606 0.2955
vt 0.5909 0.2045
vt 0.5909 0.2955
vt 0.7424 0.6477
vt 0.697 0.6136
vt 0.6591 0.5284
vt 0.6591 0.483
vt 0.6288 0.642
vt 0.6212 0.6364
vt 0.6288 0.6364
vt 0.5303 1
vt 0.4697 0.9659
vt 0.5303 0.9659
vt 0.9394 0.3068
vt 0.4697 0.7045
vt 0.3864 0.7955
vt 0.3864 -0
vt 0.447 0.0227
vt 0.3864 0.0227
vt 0.6591 0.4375
vt 0.6591 0.3665
vt 0.8939 0.8636
vt 0.9545 0.8182
vt 0.9394 0.8636
vt 0.6439 0.5284
vt 0.6364 0.483
vt 0.8106 0.8636
vt 0.8561 0.8636
vt 0.3712 0.5341
vt 0.3864 0.5455
vt 0.3712 0.5455
vt 0.8182 0.2216
vt 0.3864 0.2955
vt 0.697 0.1705
vt 0.7424 0.1477
vt 0.1364 0.7386
vt 0.1818 0.7841
vt 0.1364 0.7841
vt 0.8939 0.4489
vt 0.4697 0.6591
vt 0.5303 0.6591
vt 0.9394 0.2386
vt 0.9242 0.2614
vt 0.9394 0.0568
vt 0.8939 0.1875
vt 0.8788 0.1818
vt 0.8727 0.6477
vt 0.794 0.5795
vt 0.8727 0.5795
vt 0.6667 0.5511
vt 0.6705 0.5511
vt 0.5909 0.8409
vt 0.5303 0.8409
vt 0.4167 0.8864
vt 0.3636 0.8409
vt 0.4167 0.8409
vt 0.697 0.3977
vt 0.7424 0.3977
vt 0.8182 0.0057
vt 0.8182 0.4489
vt 0.4242 0.7955
vt 0.3788 0.4091
vt 0.2348 0.8864
vt 0.2273 0.8636
vt 0.2273 0.7955
vt 0.697 0.5341
vt 0.3788 -0
vt 0.4545 -0
vt 0.4697 0.0341
vt 0.5 0.0227
vt 0.5606 0.0227
vt 0.6061 0
vt 0.5909 0.0341
vt 0.553 0.0114
vt 0.6061 0.5398
vt 0.6667 0.5455
vt 0.6061 0.5455
vt 0.8182 0.0966
vt 0.697 0.125
vt 0.7424 0.1023
vt 0.1818 0.125
vt 0.2121 0.0455
vt 0.2121 0.125
vt 0.3864 0.2045
vt 0.3712 0.2955
vt 0.3712 0.2045
vt -0 0.6818
vt 0 0.6023
vt 0.5909 0.3409
vt 0.5303 0.4659
vt 0.5303 0.3409
vt 0.6439 0.4375
vt 0.3636 0.2955
vt 0.3636 0.2045
vt 0.3636 0.375
vt 0.3864 0.5341
vt 0.3864 0.5114
vt 0.6136 0.6705
vt 0.6098 0.6534
vt 0.6136 0.6534
vt 0.5 0.0909
vt 0.6667 0.4375
vt 0.6667 0.517
vt 0.6705 0.5
vt 0.6136 0.6477
vt 0.6061 0.642
vt 0.6591 0.6477
vt 0.6667 0.642
vt 0.6667 0.6477
vt 0.6288 0.6477
vt 0.6364 0.642
vt 0.6364 0.6477
vt 0.6212 0.642
vt 0.6212 0.6477
vt 0.6439 0.6477
vt 0.6439 0.642
vt 0.6515 0.642
vt 0.6515 0.6477
vt 0.6364 0.5284
vt 0.6288 0.483
vt 0.6212 0.5284
vt 0.6212 0.483
vt 0.7424 0.75
vt 0.697 0.7159
vt 0.7424 0.7159
vt 0.4242 0.4318
vt 0.4697 0.2045
vt 0.5 0.7955
vt 0.5606 0.7045
vt 0.5606 0.7955
vt 0.7424 0.8864
vt 0.697 0.8523
vt 0.7424 0.8523
vt 0.3636 0.4773
vt 0.3788 0.4773
vt 0.6667 0.5398
vt 0.6061 0.5341
vt 0.7424 0.6818
vt 0.697 0.6477
vt 0.4697 0.4659
vt 0.697 0.0341
vt 0.7424 0.0341
vt 0.6667 0.6534
vt 0.6591 0.6534
vt 0.6667 0.483
vt 0.0455 1
vt -0 0.9886
vt 0.0455 0.9886
vt 0.6894 0.7955
vt 0.697 0.7045
vt 0.697 0.7955
vt 0.5455 0.3182
vt 0.1818 0.6023
vt 0.1818 0.5227
vt 0.2121 0.5227
vt 0.5 0.2955
vt 0.5909 0.4659
vt 0.6061 0.4886
vt 0.6061 0.5
vt 0.4545 0.5
vt 0.4545 0.4886
vt 0.6061 0.2955
vt 0.6136 0.2955
vt 0 0.7273
vt 0.0455 0.7273
vt 0.0455 0.7386
vt 0.1818 0.6818
vt 0.6212 0.2955
vt 0.6591 0.4659
vt 0.1061 0.5227
vt 0.1061 0.4432
vt 0.697 0.6818
vt 0.697 0.75
vt 0.6439 0.2955
vt 0.2121 0.2045
vt 0.2879 0.125
vt 0.7879 0.8636
vt 0.0303 0.4432
vt 0.0303 0.5227
vt 0 0.5227
vt 0.6894 0.7045
vt 0.2879 0.2045
vt 0.3636 0.125
vt 0.0909 0.7386
vt 0.6061 0.4375
vt 0.6061 0.6477
vt 0.1818 0.3636
vt 0.1818 0.2841
vt 0.2121 0.2841
vt 0.6439 0.6364
vt 0.6515 0.6364
vt 0.5455 0.8182
vt 0.5909 0.9659
vt 0.6061 0.9886
vt 0.6061 1
vt 0.4545 1
vt 0.4545 0.9886
vt 0.6364 0.2955
vt 0.0909 0.7841
vt 0.2879 0.2841
vt 0.3636 0.2045
vt 0.3636 0.2841
vt 0.0303 0.125
vt 0 0.2045
vt 0 0.125
vt 0 0.7386
vt 0.0455 0.7841
vt 0 0.7841
vt 0.7879 0.7841
vt 0.7879 0.6477
vt 0.7879 0.6136
vt 0.2121 0.6023
vt 0.2121 0.6818
vt 0.6515 0.2955
vt 0.7879 0.5795
vt 0.1061 0.0455
vt 0.1818 0.0455
vt 0.1061 0.2841
vt 0.0909 0.7273
vt 0 0.4432
vt 0.1061 0.3636
vt 0.0303 0.2841
vt 0.0909 1
vt 0.0909 0.9886
vt 0.0909 0.8636
vt 0.0455 0.9432
vt 0.0909 0.9432
vt 0.0303 0.2045
vt 0 0.2841
vt 0.2879 0.5227
vt 0.3636 0.4432
vt 0.3636 0.5227
vt 0.2879 0.6023
vt 0.1818 0.8636
vt 0.6288 0.2955
vt 0.2121 0.3636
vt 0.1818 1
vt 0.1364 0.9886
vt 0.1818 0.9886
vt 0.2879 0.6818
vt 0.3636 0.6023
vt 0.3636 0.6818
vt 0.1364 0.9432
vt 0.1818 0.2045
vt 0.1061 0.125
vt 0.4697 0.5341
vt 0.2121 0.4432
vt 0.1818 0.9432
vt -0 0.8636
vt -0 0.9432
vt 0.1818 0.4432
vt 0.0303 0.0455
vt 0.2879 0.4432
vt 0.5 0.7045
vt 0.6288 0.5284
vt 0.697 0.375
vt 0.697 0.3295
vt 0.5152 0.6818
vt 0.4545 0.5114
vt 0.6061 0.5114
vt 0.0455 0.8636
vt 0.8939 0.3125
vt 0.9242 0.3977
vt 0.3636 0.0455
vt 0.8182 0.233
vt 0.9545 0.8409
vt 0.2879 0.3636
vt 0.9091 0.0511
vt 0.8939 0.358
vt 0.8333 0.6818
vt 0.7424 0.4886
vt 0.8182 0.3125
vt 0.697 0.8182
vt 0.8712 0.8636
vt 0.8333 0.6818
vt 0.8106 0.6727
vt 0.794 0.6477
vt 0.7879 0.6136
vt 0.8106 0.5546
vt 0.8333 0.5454
vt 0.8561 0.5546
vt 0.8788 0.6136
vt 0.8561 0.6727
vt 0.8561 0.8091
vt 0.8333 0.8182
vt 0.8106 0.8091
vt 0.7879 0.75
vt 0.8106 0.6909
vt 0.8561 0.6909
vt 0.8727 0.7159
vt 0.8788 0.75
vt 0.1061 0.2045
vt 0.9091 0.1307
vt 0.4545 0.0682
vt 0.4545 0.1364
vt 0.5606 0.0909
vt 0.7879 0.9545
vt 0.7424 0.9545
vt 0.7424 0.9205
vt 0.4167 0.7955
vt 0.4242 0.8636
vt 0.4242 0.9318
vt 0.4167 0.9318
vt 0.2348 0.7955
vt 0.2348 0.8409
vt 0.2348 0.9318
vt 0.2273 0.9318
vt 0.3788 0.0682
vt 0.4545 0.0114
vt 0.5909 0.1591
vt 0.5 0.1591
vt 0.4697 0.1591
vt 0.6061 0.0114
vt 0.6364 0.4602
vt 0.6288 0.4602
vt 0.5303 0
vt 0.6364 0.6362
vt 0.615 0.623
vt 0.6061 0.5909
vt 0.615 0.5589
vt 0.6364 0.5456
vt 0.6577 0.5589
vt 0.6666 0.5909
vt 0.6577 0.623
vt 0.3636 0.3636
vt 0.1364 1
vt 0.3636 0.3295
vt 0.697 0.0114
vt 0.3636 0.4318
vt 0.6742 0.2045
vt 0.4697 0.2955
vt 0.7879 0.8523
vt 0.697 0.8864
vt 0.7879 0.9205
vt 0.7879 0.7159
vt 0.7879 0.6818
vt 0.7879 0.75
vt 0.0303 0.6818
vt 0.4091 0.4091
vt 0.7424 0.5455
vt 0.7879 0.5455
vt 0.7576 0.4489
vt 0.1061 0
vt 0.1818 0
vt 0.9091 0.4489
vt 0.6591 0.642
vt 0.1364 0.8636
vt 0.8182 0.0511
vt 0.697 0.2045
vt 0.697 0.2955
vt 0.3636 0.6932
vt 0.2879 0.7386
vt 0.2879 0.6932
vt 0.5909 0.7955
vt 0.6742 0.7045
vt 0.6742 0.7955
vt 0.7576 0.3125
vt 0.8939 0.4943
vt 0.8939 0.4602
vt 0.9394 0.5114
vt 0.8939 0.2216
vt 0.9394 0.4432
vt 0.9394 0.0114
vt 0.9394 0.1023
vt 0.9091 0.1761
vt 0.8939 0.4034
vt 0.1364 0.7273
vt 0.1818 0.7386
vt 0.9394 0.3523
vt 0.6061 0.6705
vt 0.6098 0.6705
vt 0.9394 0.4659
vt 0.9242 0.4886
vt 0.9394 0.1932
vt 0.2879 0.8409
vt 0.2879 0.8864
vt 0.3636 0.9432
vt 0.2879 0.9545
vt 0.2879 0.9432
vt 0.3636 0.8977
vt 0.2879 0.8977
vt 0.2879 0.8182
vt 0.3636 0.8182
vt 0.8182 0.142
vt 0.1818 0.7273
vt 0.1061 0.7273
vt 0.8182 0.358
vt 0.6591 0.6364
vt 0.625 0.6705
vt 0.6212 0.6648
vt 0.697 0.4886
vt 0.697 0.0795
vt 0.7424 0.0568
vt 0.5909 0.7045
vt 0.697 0.4432
vt 0.3939 0.5114
vt 0.3939 0.5341
vt 0.6136 0.6648
vt 0.6136 0.4602
vt 0.6136 0.4659
vt 0.6061 0.4602
vt 0.6136 0.4545
vt 0.6667 0.4602
vt 0.6591 0.4545
vt 0.6212 0.4716
vt 0.6212 0.4602
vt 0.6212 0.4489
vt 0.6515 0.4489
vt 0.6326 0.6648
vt 0.6326 0.6705
vt 0.6364 0.6364
vt 0.6439 0.4602
vt 0.3712 0.5
vt 0.3864 0.5
vt 0.4091 0.5
vt 0.6667 0.6364
vt 0.6705 0.6193
vt 0.6705 0.6364
vt 0.697 0.9205
vt 0.6667 0.5682
vt 0.6705 0.5682
vt 0.697 0.2159
vt 0.7424 0.2159
vt 0.6667 0.5852
vt 0.6667 0.6193
vt 0.697 0.5455
vt 0.6439 0.6534
vt 0.6364 0.6534
vt 0.7576 0.5398
vt 0.8182 0.5057
vt 0.6515 0.6534
vt 0.2879 0.0455
vt 0.6061 0.6534
vt 0.4697 0.7955
vt 0.6288 0.6534
vt 0.2879 0.6818
vt 0.8182 0.4943
vt 0.9091 0.0057
vt 0.0303 0
vt 0.8788 0.5455
vt 0.9394 0.1477
vt 0.9394 0.375
vt 0.3636 0.7386
vt 0.9091 0.3125
vt 0.9091 0.2216
vt 0.4167 0.2955
vt 0.3864 0.1364
vt 0.697 0.2386
vt 0.4394 0.375
vt 0.697 0.2841
vt 0.3788 0.1364
vt -0 1
vt 0.0303 0.3636
vt 0.4242 0.4773
vt 0 0.3636
vt -0 0.0455
vt 0.4697 0.8409
vt 0.4697 0.3409
vt 0.6667 0.5
vt 0.697 0.1023
vt 0.697 0.5114
vt 0.9394 0.0795
vt 0.5909 0.6591
vt 0.9394 0.2614
vt 0.697 0.1477
vt 0.3636 0.8864
vt 0.447 -0
vt 0.9394 0.2841
vt 0.7879 0.8864
vt 0.3864 0.4091
vt 0.9091 0.5398
vt 0.0303 0.7273
vt 0.9091 0.358
vt 0.9394 0.5341
vt 0.9394 0.4205
vt 0.9394 0.0341
vt 0.9394 0.125
vt 0.9394 0.3295
vt 0.9394 0.4886
vt 0.9394 0.2159
vt 0.3636 0.9545
vt 0.697 0.4659
vt 0.697 0.0568
vt 0.697 0.4205
vt 0.3788 0.5
vt 0.697 0.9545
vt 0.697 0.1932
vt 0.9394 0.1705
vt 0.9394 0.3977
s 1
f 724/180 129/181 707/182
f 640/183 634/184 636/185
f 371/186 739/187 738/188
f 574/189 540/190 541/191
f 226/192 213/193 214/194
f 670/195 647/196 662/197
f 283/198 486/199 284/200
f 118/201 112/202 114/203
f 499/204 490/205 491/206
f 350/207 345/208 346/183
f 553/209 558/210 560/211
f 668/212 666/213 660/214
f 412/215 409/216 410/217
f 248/218 235/219 236/220
f 533/221 532/222 531/223
f 247/224 246/225 235/226
f 744/227 424/228 752/229
f 718/230 823/231 826/232
f 628/183 622/184 624/185
f 486/233 483/234 484/235
f 266/236 261/237 262/215
f 527/238 521/239 522/240
f 535/241 529/242 530/243
f 772/244 697/245 696/246
f 221/247 160/248 161/249
f 162/250 221/251 161/249
f 152/252 211/253 151/254
f 163/255 150/256 174/257
f 228/258 241/259 240/260
f 155/261 214/262 154/263
f 243/264 230/265 231/266
f 156/267 215/268 155/261
f 170/269 145/270 169/271
f 154/263 213/193 153/272
f 219/273 158/274 159/275
f 186/276 187/277 198/278
f 179/279 190/280 178/281
f 177/282 188/283 176/284
f 176/285 187/286 175/287
f 165/288 142/289 141/290
f 234/291 245/292 233/293
f 245/294 232/295 233/296
f 179/297 192/298 191/299
f 177/300 190/301 189/302
f 237/303 224/304 225/305
f 181/306 192/307 180/308
f 463/309 457/310 464/311
f 194/312 181/313 182/314
f 226/315 239/316 238/317
f 217/318 156/267 157/319
f 211/320 162/250 151/254
f 173/321 148/322 172/323
f 172/324 147/325 171/326
f 220/327 159/275 160/248
f 171/328 146/329 170/330
f 218/331 157/332 158/274
f 223/333 236/220 235/219
f 164/334 141/290 140/335
f 223/336 246/225 234/337
f 186/338 197/339 185/340
f 163/341 140/335 139/342
f 437/343 431/344 439/345
f 166/346 143/347 142/289
f 169/348 144/349 168/350
f 153/272 212/351 152/252
f 228/352 239/353 227/354
f 226/192 237/355 225/356
f 185/357 196/358 184/359
f 230/360 241/361 229/362
f 244/363 231/364 232/365
f 195/366 182/367 183/368
f 184/369 195/370 183/371
f 375/372 733/373 736/374
f 271/375 267/216 269/237
f 134/376 136/377 138/378
f 644/207 639/208 640/183
f 344/379 341/380 339/381
f 594/382 589/383 590/379
f 130/384 132/385 134/376
f 278/386 275/387 276/388
f 353/195 470/196 361/197
f 590/379 587/380 585/381
f 746/389 418/390 743/391
f 377/392 740/393 735/394
f 503/238 494/395 495/396
f 376/397 736/374 740/393
f 626/379 623/380 621/381
f 249/398 236/399 237/303
f 469/400 756/401 760/373
f 286/402 120/403 122/404
f 616/183 610/184 612/185
f 747/405 425/406 744/227
f 395/407 386/214 387/408
f 630/382 625/383 626/379
f 576/409 542/410 543/411
f 721/412 128/413 706/414
f 175/287 200/415 176/285
f 126/416 128/417 130/384
f 404/215 401/216 402/217
f 152/252 139/342 140/335
f 487/418 482/419 481/420
f 646/421 766/188 762/422
f 644/423 635/424 641/425
f 674/426 665/427 666/213
f 642/428 634/184 643/429
f 555/430 557/431 558/432
f 234/291 221/251 222/433
f 155/261 142/289 143/347
f 265/434 262/215 260/217
f 156/267 143/347 144/349
f 257/435 244/436 245/294
f 786/437 302/438 788/439
f 649/372 761/373 764/374
f 190/280 167/440 166/346
f 126/441 707/182 722/442
f 642/382 637/383 638/379
f 210/443 175/444 186/276
f 206/445 183/368 182/367
f 173/446 150/256 149/447
f 427/448 421/449 425/450
f 348/382 343/383 344/379
f 504/451 495/396 496/452
f 123/453 706/414 719/454
f 453/455 446/456 445/457
f 250/458 237/355 238/459
f 230/360 217/460 218/331
f 215/461 226/315 214/262
f 453/455 445/457 448/462
f 292/463 288/388 287/387
f 449/464 712/465 444/466
f 253/467 240/260 241/259
f 160/248 147/325 148/322
f 483/234 487/468 481/420
f 488/469 484/235 482/419
f 115/470 107/469 487/471
f 488/472 108/473 116/474
f 713/475 488/472 487/471
f 336/426 327/427 328/213
f 517/476 516/477 515/478
f 374/400 737/401 733/373
f 232/365 219/479 220/327
f 256/480 243/481 244/363
f 825/482 100/483 824/484
f 651/392 768/393 763/394
f 115/485 113/486 111/487
f 823/231 101/488 807/489
f 620/207 615/208 616/183
f 280/463 276/388 275/387
f 122/490 699/491 714/492
f 378/493 735/394 739/187
f 111/487 109/494 107/495
f 264/496 260/217 259/216
f 556/497 553/209 554/498
f 552/499 550/500 551/501
f 115/470 487/471 730/502
f 373/503 734/422 737/244
f 502/504 493/505 494/395
f 158/274 145/270 146/329
f 400/426 391/427 392/213
f 270/215 267/216 268/217
f 580/506 573/507 574/189
f 630/428 622/184 631/429
f 582/508 573/509 581/510
f 577/511 569/512 578/513
f 577/511 575/514 576/409
f 580/506 575/514 579/515
f 584/516 569/512 570/517
f 584/516 571/518 583/519
f 608/423 599/424 605/425
f 399/520 390/521 391/427
f 594/428 586/184 595/429
f 397/522 388/197 389/523
f 273/434 270/215 268/217
f 751/524 428/525 742/526
f 596/423 587/424 593/425
f 608/207 603/208 604/183
f 348/428 340/184 349/429
f 281/527 278/386 276/388
f 602/379 599/380 597/381
f 119/528 117/434 115/485
f 632/423 623/424 629/425
f 297/529 296/530 298/531
f 350/423 341/424 347/425
f 741/532 420/533 749/534
f 291/535 287/387 289/536
f 467/397 757/374 753/393
f 606/428 598/184 607/429
f 528/537 526/538 527/238
f 620/423 611/424 617/425
f 750/539 426/540 747/405
f 272/496 268/217 267/216
f 511/238 505/239 506/240
f 716/180 117/541 699/491
f 254/542 241/361 242/543
f 618/428 610/184 619/429
f 582/508 565/544 566/545
f 356/240 362/408 470/546
f 806/547 309/548 789/549
f 131/550 137/551 135/552
f 714/492 715/553 122/490
f 817/554 796/555 781/556
f 286/402 715/553 285/557
f 118/558 114/559 110/560
f 109/561 113/562 117/541
f 776/373 696/563 695/564
f 311/565 805/566 794/567
f 577/511 579/515 575/514
f 106/568 718/230 826/232
f 769/393 773/374 694/569
f 463/309 362/570 457/310
f 796/555 801/571 819/572
f 750/539 427/573 426/540
f 751/524 417/574 428/525
f 755/188 754/187 473/575
f 795/576 824/484 811/577
f 594/382 593/578 589/383
f 223/336 235/226 246/225
f 814/579 790/580 779/581
f 620/423 612/185 611/424
f 131/550 133/582 137/551
f 783/583 811/577 818/584
f 580/506 574/189 575/514
f 709/585 786/437 788/439
f 374/400 373/586 737/401
f 580/506 581/587 573/507
f 717/588 815/589 816/590
f 511/238 510/538 505/239
f 571/518 537/591 538/592
f 719/454 720/593 123/453
f 646/421 645/186 766/188
f 298/531 720/593 297/529
f 127/594 131/595 135/596
f 136/597 132/598 128/413
f 770/187 692/599 691/575
f 709/585 788/439 711/600
f 830/601 784/602 812/603
f 808/604 784/605 818/606
f 307/607 793/608 300/609
f 783/583 818/584 784/602
f 431/380 743/391 430/610
f 438/611 744/227 437/612
f 106/568 809/613 102/614
f 738/188 370/575 363/615
f 437/612 752/229 436/616
f 825/482 702/617 105/618
f 717/588 820/619 815/589
f 726/620 786/437 709/585
f 814/579 779/581 822/621
f 778/622 827/623 820/619
f 736/374 366/564 367/569
f 725/624 789/549 708/625
f 816/590 783/583 830/601
f 727/626 793/608 711/600
f 708/625 792/627 710/628
f 780/629 812/630 784/605
f 795/576 811/577 783/583
f 762/422 322/615 321/245
f 782/631 822/632 779/633
f 809/613 782/631 829/634
f 306/635 788/439 302/438
f 311/565 794/567 307/607
f 801/571 814/579 819/572
f 106/568 826/232 817/554
f 735/394 368/636 369/599
f 717/588 816/590 705/637
f 817/554 781/556 809/613
f 314/638 785/639 310/640
f 704/641 807/642 101/643
f 740/393 367/569 368/636
f 815/589 795/576 816/590
f 728/626 787/644 710/628
f 791/645 821/646 825/482
f 760/373 478/563 477/564
f 130/647 724/180 707/182
f 796/555 828/648 781/556
f 829/634 779/633 807/642
f 310/640 787/644 301/649
f 304/650 792/627 299/651
f 813/652 778/622 717/588
f 821/646 104/653 702/617
f 127/594 721/412 706/414
f 781/556 810/654 782/631
f 348/428 339/381 340/184
f 350/423 342/185 341/424
f 716/180 109/561 117/541
f 725/624 806/547 789/549
f 785/639 708/625 710/628
f 270/215 269/237 267/216
f 630/428 621/381 622/184
f 594/428 585/381 586/184
f 297/529 295/655 296/530
f 122/490 118/558 699/491
f 399/520 398/656 390/521
f 584/516 570/517 571/518
f 250/458 249/657 237/355
f 582/508 581/510 565/544
f 713/475 108/473 488/472
f 571/518 570/517 537/591
f 738/188 739/187 370/575
f 431/380 746/389 743/391
f 808/604 780/629 784/605
f 517/476 520/537 516/477
f 556/497 555/430 553/209
f 766/188 767/187 315/575
f 249/398 248/658 236/399
f 346/183 340/184 342/185
f 722/442 723/659 126/441
f 173/321 149/447 148/322
f 295/655 723/659 296/530
f 130/647 134/660 138/561
f 137/560 133/661 129/181
f 775/422 698/615 697/245
f 353/195 356/239 470/196
f 130/384 128/417 132/385
f 727/626 804/662 793/608
f 163/341 164/663 140/335
f 295/655 126/441 723/659
f 177/300 178/664 190/301
f 340/184 345/208 349/429
f 811/577 99/665 818/584
f 348/428 344/379 339/381
f 211/320 222/666 162/250
f 341/424 343/667 347/425
f 734/422 363/615 364/245
f 350/423 346/183 342/185
f 828/648 705/637 777/668
f 758/394 753/393 475/636
f 195/366 194/669 182/367
f 816/590 795/576 783/583
f 164/334 165/670 141/290
f 669/407 668/212 660/214
f 437/343 435/671 431/344
f 228/352 240/672 239/353
f 152/252 212/673 211/253
f 172/324 148/322 147/325
f 746/389 419/674 418/390
f 350/207 349/675 345/208
f 412/215 411/237 409/216
f 417/676 418/677 419/678
f 419/678 420/679 421/449
f 421/449 422/680 423/681
f 423/681 424/682 425/450
f 425/450 426/683 427/448
f 427/448 428/684 417/676
f 417/676 419/678 421/449
f 421/449 423/681 425/450
f 796/555 819/572 813/652
f 431/344 430/685 429/686
f 429/686 440/687 439/345
f 439/345 438/688 437/343
f 437/343 436/689 435/671
f 435/671 434/690 433/691
f 433/691 432/692 431/344
f 431/344 429/686 439/345
f 802/693 808/604 821/646
f 435/671 433/691 431/344
f 184/369 196/694 195/370
f 647/503 646/421 762/422
f 644/423 636/185 635/424
f 754/187 758/394 474/599
f 731/695 486/696 484/235
f 731/697 488/472 116/474
f 435/698 748/699 745/700
f 445/457 447/701 448/462
f 729/702 453/455 448/462
f 456/703 455/704 453/455
f 759/422 755/188 480/615
f 444/466 443/705 441/706
f 449/464 451/707 452/708
f 444/466 441/706 449/464
f 821/646 808/604 104/653
f 346/183 345/208 340/184
f 483/234 730/709 487/468
f 731/695 484/235 488/469
f 115/470 111/710 107/469
f 731/697 116/474 120/711
f 485/712 283/198 119/713
f 670/195 667/239 647/196
f 108/473 112/714 116/474
f 459/715 359/521 460/716
f 120/711 284/200 486/199
f 226/192 225/356 213/193
f 713/475 732/717 108/473
f 734/422 738/188 363/615
f 497/718 498/719 499/720
f 499/720 500/721 501/722
f 501/722 502/723 503/724
f 503/724 504/725 497/718
f 310/640 785/639 787/644
f 791/645 802/693 821/646
f 130/647 138/561 724/180
f 829/634 782/631 779/633
f 802/693 780/629 808/604
f 810/654 777/668 700/726
f 762/422 766/188 322/615
f 735/394 740/393 368/636
f 825/482 821/646 702/617
f 298/531 123/453 720/593
f 314/638 797/727 785/639
f 528/537 525/476 526/538
f 272/496 273/728 268/217
f 254/542 253/729 241/361
f 291/535 292/730 287/387
f 118/201 116/731 112/202
f 283/198 485/712 486/199
f 119/528 121/732 117/434
f 780/629 827/623 812/630
f 432/733 749/534 746/389
f 119/713 115/470 730/502
f 741/532 421/734 420/533
f 435/698 745/700 434/735
f 754/187 474/599 473/575
f 440/736 750/539 439/737
f 430/610 751/524 429/738
f 758/394 475/636 474/599
f 755/188 473/575 480/615
f 756/244 479/245 478/246
f 432/733 746/389 431/380
f 586/184 591/208 595/429
f 828/648 777/668 810/654
f 594/428 590/379 585/381
f 823/231 103/739 101/488
f 587/424 589/667 593/425
f 785/639 710/628 787/644
f 596/423 592/183 588/185
f 280/463 281/740 276/388
f 397/522 396/195 388/197
f 400/426 399/520 391/427
f 598/184 603/208 607/429
f 436/616 748/741 435/742
f 606/428 602/379 597/381
f 292/463 293/740 288/388
f 599/424 601/667 605/425
f 810/654 700/726 822/632
f 608/423 604/183 600/185
f 230/360 229/362 217/460
f 215/461 227/743 226/315
f 232/365 231/364 219/479
f 610/184 615/208 619/429
f 105/618 701/744 100/745
f 618/428 614/379 609/381
f 830/601 783/583 784/602
f 611/424 613/667 617/425
f 766/188 315/575 322/615
f 620/423 616/183 612/185
f 348/382 347/578 343/383
f 437/612 744/227 752/229
f 190/280 191/746 167/440
f 622/184 627/208 631/429
f 759/422 480/615 479/245
f 630/428 626/379 621/381
f 770/187 774/394 692/599
f 623/424 625/667 629/425
f 800/662 710/628 792/627
f 632/423 628/183 624/185
f 160/248 159/275 147/325
f 582/508 572/747 573/509
f 105/618 702/617 701/744
f 634/184 639/208 643/429
f 769/393 694/569 693/636
f 642/428 638/379 633/381
f 306/635 799/748 788/439
f 635/424 637/667 641/425
f 767/187 316/599 315/575
f 644/423 640/183 636/185
f 721/412 136/597 128/413
f 736/374 733/373 366/564
f 590/379 589/383 587/380
f 407/434 404/215 402/217
f 231/266 218/749 219/273
f 669/407 660/214 661/408
f 686/372 776/373 773/374
f 648/400 765/401 761/373
f 114/203 108/750 110/751
f 647/503 762/422 765/244
f 447/752 441/753 443/754
f 123/755 129/756 127/757
f 188/283 165/670 164/334
f 684/392 769/393 774/394
f 224/758 211/253 212/673
f 153/272 140/335 141/290
f 198/278 163/255 174/257
f 408/236 403/237 404/215
f 191/299 168/759 167/760
f 334/656 325/523 326/521
f 204/761 181/306 180/308
f 187/286 164/663 163/341
f 197/339 174/762 173/446
f 414/496 410/217 409/216
f 178/281 203/763 179/279
f 192/307 169/348 168/350
f 205/764 182/314 181/313
f 650/397 764/374 768/393
f 207/765 184/369 183/371
f 172/323 197/766 173/321
f 189/302 166/767 165/288
f 798/768 308/769 786/437
f 176/284 201/770 177/282
f 416/236 411/237 412/215
f 547/771 545/500 546/772
f 413/375 409/216 411/237
f 203/773 180/774 179/297
f 209/775 186/338 185/340
f 690/186 770/187 771/188
f 580/506 563/242 564/501
f 449/464 442/776 450/777
f 455/778 452/779 451/780
f 453/781 451/780 449/782
f 453/781 450/783 454/784
f 233/296 220/785 221/247
f 718/230 102/786 704/787
f 484/235 481/420 482/419
f 804/662 300/609 793/608
f 509/476 508/477 507/478
f 499/720 503/724 497/718
f 519/238 513/239 514/240
f 512/537 510/538 511/238
f 225/305 212/351 213/788
f 223/336 222/666 211/320
f 151/254 150/256 139/342
f 572/747 538/592 539/789
f 536/790 534/791 535/241
f 283/198 121/732 119/528
f 468/372 760/373 757/374
f 127/757 133/582 131/550
f 279/535 275/387 277/536
f 252/792 239/353 240/672
f 255/793 242/794 243/264
f 298/531 125/795 123/755
f 251/796 238/317 239/316
f 556/497 559/797 557/798
f 534/791 531/499 529/799
f 262/215 259/216 260/217
f 290/386 287/387 288/388
f 462/800 361/801 470/802
f 469/803 462/800 470/802
f 463/309 470/804 362/570
f 471/805 470/804 463/309
f 658/715 666/213 665/427
f 383/716 389/806 382/807
f 681/309 675/310 682/311
f 460/716 468/808 467/397
f 384/715 392/213 391/427
f 657/716 663/806 656/807
f 371/809 380/309 379/311
f 651/392 657/716 650/397
f 337/426 358/427 357/213
f 351/656 360/523 359/521
f 354/407 457/214 362/408
f 536/790 530/810 532/811
f 570/517 544/812 537/591
f 406/496 402/217 401/216
f 632/207 627/208 628/183
f 122/404 116/731 118/201
f 377/392 383/716 376/397
f 464/311 465/493 472/809
f 472/809 463/309 464/311
f 383/716 375/808 376/397
f 466/392 458/813 459/715
f 686/808 680/800 687/803
f 380/309 386/310 379/311
f 677/715 328/213 327/427
f 386/310 385/813 379/311
f 661/570 653/311 654/309
f 678/716 325/806 679/807
f 677/715 326/521 678/716
f 372/805 373/804 380/309
f 380/309 373/804 387/570
f 374/803 381/800 373/802
f 381/800 388/801 373/802
f 396/195 373/196 388/197
f 554/498 560/814 559/815
f 745/700 421/734 741/532
f 294/816 289/536 290/386
f 398/656 389/523 390/521
f 274/236 269/237 270/215
f 501/817 492/818 493/819
f 592/183 586/184 588/185
f 393/240 387/408 373/546
f 394/212 392/213 386/214
f 285/557 284/200 286/402
f 282/816 277/536 278/386
f 606/382 601/383 602/379
f 604/183 598/184 600/185
f 749/534 419/674 746/389
f 748/699 422/820 745/700
f 472/186 754/187 755/188
f 614/379 611/380 609/381
f 466/392 753/393 758/394
f 293/527 290/386 288/388
f 657/716 649/808 650/397
f 690/809 681/309 682/311
f 371/809 385/813 378/493
f 684/392 678/716 685/397
f 497/821 496/452 489/822
f 743/391 417/574 751/524
f 742/526 427/573 750/539
f 258/823 245/292 246/824
f 498/825 489/822 490/205
f 618/382 613/383 614/379
f 500/826 491/206 492/818
f 525/476 524/477 523/478
f 327/427 334/656 326/521
f 470/503 759/422 756/244
f 465/493 758/394 754/187
f 471/421 755/188 759/422
f 752/229 423/827 748/741
f 596/207 591/208 592/183
f 671/522 662/197 663/523
f 789/549 299/651 792/627
f 578/513 568/828 561/829
f 229/830 216/831 217/318
f 162/250 149/447 150/256
f 520/537 518/538 519/238
f 575/514 541/191 542/410
f 638/379 635/380 633/381
f 584/516 567/832 568/828
f 824/484 701/833 811/577
f 330/212 328/213 675/214
f 583/519 566/545 567/832
f 573/509 539/789 540/817
f 581/587 564/501 565/834
f 352/522 361/197 360/523
f 295/655 124/835 126/416
f 338/520 359/521 358/427
f 355/212 357/213 457/214
f 415/434 412/215 410/217
f 569/512 543/411 544/812
f 579/515 562/836 563/242
f 688/546 331/407 323/408
f 577/511 561/829 562/836
f 448/643 443/754 444/837
f 405/375 401/216 403/237
f 228/352 215/268 216/838
f 680/800 324/801 688/802
f 687/803 680/800 688/802
f 681/309 688/804 323/570
f 689/805 688/804 681/309
f 658/715 664/521 657/716
f 659/813 660/310 666/213
f 655/800 663/806 662/801
f 675/310 676/813 682/311
f 466/392 460/716 467/397
f 389/806 381/800 382/807
f 645/809 659/813 652/493
f 684/392 676/813 677/715
f 193/839 170/269 169/271
f 194/669 171/328 170/330
f 331/407 675/214 323/408
f 652/493 763/394 767/187
f 702/617 99/840 701/744
f 157/319 144/349 145/841
f 803/748 301/649 787/644
f 263/375 259/216 261/237
f 167/760 144/349 143/347
f 678/716 686/808 685/397
f 468/808 462/800 469/803
f 582/508 571/518 572/747
f 385/813 377/392 378/493
f 646/805 653/311 645/809
f 325/806 680/800 679/807
f 384/715 390/521 383/716
f 457/310 458/813 464/311
f 461/807 361/801 462/800
f 460/716 360/806 461/807
f 459/715 357/213 358/427
f 646/805 647/804 654/309
f 654/309 647/804 661/570
f 648/803 655/800 647/802
f 655/800 662/801 647/802
f 161/249 148/322 149/447
f 154/263 141/290 142/289
f 672/656 663/523 664/521
f 645/186 767/187 766/188
f 208/842 185/357 184/359
f 332/195 688/196 324/197
f 195/370 172/324 171/326
f 372/421 738/188 734/422
f 656/807 648/803 649/808
f 375/808 381/800 374/803
f 690/809 676/813 683/493
f 651/392 659/813 658/715
f 673/520 664/521 665/427
f 685/397 773/374 769/393
f 201/843 178/664 177/300
f 159/275 146/329 147/325
f 687/400 772/401 776/373
f 689/421 771/188 775/422
f 683/493 774/394 770/187
f 688/503 775/422 772/244
f 667/240 661/408 647/546
f 446/784 441/753 445/844
f 166/346 167/440 143/347
f 781/556 828/648 810/654
f 245/294 244/436 232/295
f 176/285 188/845 187/286
f 226/315 227/743 239/316
f 756/244 759/422 479/245
f 244/363 243/481 231/364
f 674/426 673/520 665/427
f 186/338 198/846 197/339
f 155/261 215/461 214/262
f 223/333 224/758 236/220
f 407/434 408/847 404/215
f 169/348 145/841 144/349
f 162/250 222/433 221/251
f 163/255 139/342 150/256
f 772/244 775/422 697/245
f 185/357 197/766 196/358
f 535/241 534/791 529/242
f 221/247 220/785 160/248
f 228/258 229/830 241/259
f 220/327 219/479 159/275
f 628/183 627/208 622/184
f 486/233 485/848 483/234
f 744/227 425/406 424/228
f 644/207 643/675 639/208
f 247/224 258/849 246/225
f 718/230 103/739 823/231
f 266/236 263/850 261/237
f 278/386 277/536 275/387
f 668/212 674/426 666/213
f 248/218 247/851 235/219
f 499/204 498/825 490/205
f 553/209 555/430 558/210
f 533/221 536/790 532/222
f 527/238 526/538 521/239
f 154/263 214/194 213/193
f 152/252 151/254 139/342
f 800/662 728/626 710/628
f 440/736 742/526 750/539
f 120/711 486/199 731/697
f 459/715 358/427 359/521
f 430/610 743/391 751/524
f 767/187 763/394 316/599
f 127/594 135/596 721/412
f 775/422 771/188 698/615
f 729/702 456/703 453/455
f 304/650 800/662 792/627
f 760/373 756/401 478/563
f 796/555 813/652 828/648
f 813/652 819/572 778/622
f 483/234 485/852 730/709
f 231/266 230/265 218/749
f 809/613 781/556 782/631
f 704/641 829/634 807/642
f 438/611 747/405 744/227
f 726/620 798/768 786/437
f 286/402 122/490 715/553
f 356/240 354/407 362/408
f 806/547 313/853 309/548
f 776/373 772/401 696/563
f 778/622 703/854 827/623
f 740/393 736/374 367/569
f 632/423 624/185 623/424
f 467/397 468/372 757/374
f 281/527 282/855 278/386
f 596/423 588/185 587/424
f 574/189 573/507 540/190
f 739/187 369/599 370/575
f 794/567 711/600 793/608
f 118/558 716/180 699/491
f 791/645 824/484 795/576
f 827/623 700/856 812/630
f 768/393 318/569 317/636
f 104/653 818/606 99/857
f 608/207 607/675 603/208
f 602/379 601/383 599/380
f 606/428 597/381 598/184
f 618/428 609/381 610/184
f 728/626 803/748 787/644
f 686/372 687/400 776/373
f 577/511 576/409 569/512
f 584/516 578/513 569/512
f 703/854 822/621 700/856
f 297/529 719/454 124/858
f 805/566 709/585 794/567
f 285/557 714/492 121/859
f 820/619 780/629 802/693
f 799/748 711/600 788/439
f 733/373 365/563 366/564
f 790/580 807/489 779/581
f 737/244 364/245 365/246
f 813/652 705/637 828/648
f 429/738 742/526 440/736
f 640/183 639/208 634/184
f 730/502 485/712 119/713
f 373/503 372/421 734/422
f 264/496 265/728 260/217
f 552/499 549/772 550/500
f 502/504 501/860 493/505
f 378/493 377/392 735/394
f 115/485 117/434 113/486
f 620/207 619/675 615/208
f 111/487 113/486 109/494
f 158/274 157/332 145/270
f 608/423 600/185 599/424
f 336/426 335/520 327/427
f 256/480 255/861 243/481
f 449/464 452/708 712/465
f 253/467 252/862 240/260
f 825/482 105/618 100/483
f 427/448 417/676 421/449
f 504/451 503/238 495/396
f 206/445 207/863 183/368
f 307/607 794/567 793/608
f 296/530 722/442 125/864
f 771/188 691/575 698/615
f 797/727 708/625 785/639
f 705/637 830/601 777/668
f 210/443 199/865 175/444
f 173/446 174/762 150/256
f 123/453 127/594 706/414
f 106/568 817/554 809/613
f 649/372 648/400 761/373
f 126/441 130/647 707/182
f 257/435 256/866 244/436
f 717/588 778/622 820/619
f 156/267 155/261 143/347
f 786/437 308/769 302/438
f 642/382 641/578 637/383
f 453/455 454/867 446/456
f 651/392 650/397 768/393
f 273/434 274/847 270/215
f 114/203 112/202 108/750
f 708/625 789/549 792/627
f 404/215 403/237 401/216
f 487/418 488/868 482/419
f 642/428 633/381 634/184
f 782/631 810/654 822/632
f 576/409 575/514 542/410
f 175/287 199/869 200/415
f 395/407 394/212 386/214
f 801/571 790/580 814/579
f 747/405 426/540 425/406
f 630/382 629/578 625/383
f 126/416 124/835 128/417
f 555/430 556/497 557/431
f 626/379 625/383 623/380
f 469/400 470/586 756/401
f 503/238 502/504 494/395
f 815/589 791/645 795/576
f 377/392 376/397 740/393
f 376/397 375/372 736/374
f 286/402 284/200 120/403
f 616/183 615/208 610/184
f 234/291 233/293 221/251
f 375/372 374/400 733/373
f 226/192 238/459 237/355
f 811/577 701/833 99/665
f 724/180 137/560 129/181
f 753/393 476/569 475/636
f 764/374 319/564 318/569
f 433/870 749/534 432/733
f 777/668 812/603 700/726
f 719/454 128/413 124/858
f 757/374 477/564 476/569
f 102/614 829/634 704/641
f 153/272 213/788 212/351
f 230/360 242/543 241/361
f 271/375 272/871 267/216
f 134/376 132/385 136/377
f 194/312 193/839 181/313
f 179/297 180/774 192/298
f 237/303 236/399 224/304
f 436/616 752/229 748/741
f 817/554 801/571 796/555
f 487/471 732/717 713/475
f 774/394 693/636 692/599
f 434/735 741/532 433/870
f 815/589 802/693 791/645
f 765/244 321/245 320/246
f 722/442 129/181 125/864
f 371/186 378/493 739/187
f 714/492 117/541 121/859
f 763/394 317/636 316/599
f 439/737 747/405 438/611
f 826/232 790/580 801/571
f 217/318 216/831 156/267
f 165/288 166/767 142/289
f 234/291 246/824 245/292
f 181/306 193/872 192/307
f 344/379 343/383 341/380
f 155/261 154/263 142/289
f 171/328 147/325 146/329
f 648/400 647/586 765/401
f 761/373 320/563 319/564
f 103/739 704/787 101/873
f 773/374 695/564 694/569
f 819/572 703/854 778/622
f 218/331 217/460 157/332
f 170/269 146/329 145/270
f 219/273 218/749 158/274
f 243/264 242/794 230/265
f 156/267 216/838 215/268
f 186/276 175/444 187/277
f 179/279 191/746 190/280
f 177/282 189/874 188/283
f 265/434 266/847 262/215
f 447/752 445/844 441/753
f 325/523 332/195 324/197
f 123/755 125/795 129/756
f 188/283 189/874 165/670
f 684/392 685/397 769/393
f 224/758 223/333 211/253
f 153/272 152/252 140/335
f 198/278 187/277 163/255
f 408/236 405/850 403/237
f 191/299 192/298 168/759
f 334/656 333/522 325/523
f 204/761 205/875 181/306
f 187/286 188/845 164/663
f 197/339 198/846 174/762
f 414/496 415/728 410/217
f 178/281 202/876 203/763
f 192/307 193/872 169/348
f 205/764 206/877 182/314
f 650/397 649/372 764/374
f 207/765 208/878 184/369
f 172/323 196/358 197/766
f 189/302 190/301 166/767
f 798/768 312/786 308/769
f 176/284 200/879 201/770
f 416/236 413/850 411/237
f 547/771 548/834 545/500
f 413/375 414/871 409/216
f 203/773 204/880 180/774
f 209/775 210/881 186/338
f 690/186 683/493 770/187
f 580/506 579/515 563/242
f 449/464 441/706 442/776
f 455/778 456/882 452/779
f 453/781 455/778 451/780
f 453/781 449/782 450/783
f 233/296 232/295 220/785
f 718/230 106/568 102/786
f 484/235 483/234 481/420
f 804/662 305/650 300/609
f 509/476 512/537 508/477
f 499/720 501/722 503/724
f 519/238 518/538 513/239
f 512/537 509/476 510/538
f 225/305 224/304 212/351
f 223/336 234/337 222/666
f 151/254 162/250 150/256
f 572/747 571/518 538/592
f 536/790 533/221 534/791
f 283/198 285/557 121/732
f 468/372 469/400 760/373
f 127/757 129/756 133/582
f 279/535 280/730 275/387
f 252/792 251/883 239/353
f 255/793 254/884 242/794
f 298/531 296/530 125/795
f 251/796 250/885 238/317
f 556/497 554/498 559/797
f 534/791 533/221 531/499
f 262/215 261/237 259/216
f 290/386 289/536 287/387
f 658/715 659/813 666/213
f 383/716 390/521 389/806
f 681/309 323/570 675/310
f 460/716 461/807 468/808
f 384/715 385/813 392/213
f 657/716 664/521 663/806
f 371/809 372/805 380/309
f 651/392 658/715 657/716
f 337/426 338/520 358/427
f 351/656 352/522 360/523
f 354/407 355/212 457/214
f 536/790 535/241 530/810
f 570/517 569/512 544/812
f 406/496 407/728 402/217
f 632/207 631/675 627/208
f 122/404 120/403 116/731
f 377/392 384/715 383/716
f 464/311 458/813 465/493
f 472/809 471/805 463/309
f 383/716 382/807 375/808
f 466/392 465/493 458/813
f 686/808 679/807 680/800
f 380/309 387/570 386/310
f 677/715 676/813 328/213
f 386/310 392/213 385/813
f 661/570 660/310 653/311
f 678/716 326/521 325/806
f 677/715 327/427 326/521
f 396/195 393/239 373/196
f 554/498 553/209 560/814
f 745/700 422/820 421/734
f 294/816 291/886 289/536
f 398/656 397/522 389/523
f 274/236 271/850 269/237
f 501/817 500/826 492/818
f 592/183 591/208 586/184
f 393/240 395/407 387/408
f 394/212 400/426 392/213
f 285/557 283/198 284/200
f 282/816 279/886 277/536
f 606/382 605/578 601/383
f 604/183 603/208 598/184
f 749/534 420/533 419/674
f 748/699 423/887 422/820
f 472/186 465/493 754/187
f 614/379 613/383 611/380
f 466/392 467/397 753/393
f 293/527 294/855 290/386
f 657/716 656/807 649/808
f 690/809 689/805 681/309
f 371/809 379/311 385/813
f 684/392 677/715 678/716
f 497/821 504/451 496/452
f 743/391 418/390 417/574
f 742/526 428/525 427/573
f 258/823 257/888 245/292
f 498/825 497/821 489/822
f 618/382 617/578 613/383
f 500/826 499/204 491/206
f 525/476 528/537 524/477
f 327/427 335/520 334/656
f 470/503 471/421 759/422
f 465/493 466/392 758/394
f 471/421 472/186 755/188
f 752/229 424/228 423/827
f 596/207 595/675 591/208
f 671/522 670/195 662/197
f 789/549 309/548 299/651
f 578/513 584/516 568/828
f 229/830 228/258 216/831
f 162/250 161/249 149/447
f 520/537 517/476 518/538
f 575/514 574/189 541/191
f 638/379 637/383 635/380
f 584/516 583/519 567/832
f 824/484 100/483 701/833
f 330/212 336/426 328/213
f 583/519 582/508 566/545
f 573/509 572/747 539/789
f 581/587 580/506 564/501
f 352/522 353/195 361/197
f 295/655 297/529 124/835
f 338/520 351/656 359/521
f 355/212 337/426 357/213
f 415/434 416/847 412/215
f 569/512 576/409 543/411
f 579/515 577/511 562/836
f 688/546 329/240 331/407
f 577/511 578/513 561/829
f 448/643 447/752 443/754
f 405/375 406/871 401/216
f 228/352 227/354 215/268
f 658/715 665/427 664/521
f 659/813 653/311 660/310
f 655/800 656/807 663/806
f 675/310 328/213 676/813
f 466/392 459/715 460/716
f 389/806 388/801 381/800
f 645/809 653/311 659/813
f 684/392 683/493 676/813
f 193/839 194/312 170/269
f 194/669 195/366 171/328
f 331/407 330/212 675/214
f 652/493 651/392 763/394
f 702/617 104/653 99/840
f 157/319 156/267 144/349
f 803/748 303/635 301/649
f 263/375 264/871 259/216
f 167/760 168/759 144/349
f 678/716 679/807 686/808
f 468/808 461/807 462/800
f 582/508 583/519 571/518
f 385/813 384/715 377/392
f 646/805 654/309 653/311
f 325/806 324/801 680/800
f 384/715 391/427 390/521
f 457/310 357/213 458/813
f 461/807 360/806 361/801
f 460/716 359/521 360/806
f 459/715 458/813 357/213
f 161/249 160/248 148/322
f 154/263 153/272 141/290
f 672/656 671/522 663/523
f 645/186 652/493 767/187
f 208/842 209/889 185/357
f 332/195 329/239 688/196
f 195/370 196/694 172/324
f 372/421 371/186 738/188
f 656/807 655/800 648/803
f 375/808 382/807 381/800
f 690/809 682/311 676/813
f 651/392 652/493 659/813
f 673/520 672/656 664/521
f 685/397 686/372 773/374
f 201/843 202/890 178/664
f 159/275 158/274 146/329
f 687/400 688/586 772/401
f 689/421 690/186 771/188
f 683/493 684/392 774/394
f 688/503 689/421 775/422
f 667/240 669/407 661/408
f 446/784 442/783 441/753
f 739/187 735/394 369/599
f 794/567 709/585 711/600
f 118/558 110/560 716/180
f 791/645 825/482 824/484
f 827/623 703/854 700/856
f 768/393 764/374 318/569
f 104/653 808/604 818/606
f 703/854 814/579 822/621
f 297/529 720/593 719/454
f 805/566 726/620 709/585
f 285/557 715/553 714/492
f 820/619 827/623 780/629
f 799/748 727/626 711/600
f 733/373 737/401 365/563
f 790/580 823/231 807/489
f 737/244 734/422 364/245
f 813/652 717/588 705/637
f 429/738 751/524 742/526
f 296/530 723/659 722/442
f 771/188 770/187 691/575
f 797/727 725/624 708/625
f 705/637 816/590 830/601
f 753/393 757/374 476/569
f 764/374 761/373 319/564
f 433/870 741/532 749/534
f 777/668 830/601 812/603
f 719/454 706/414 128/413
f 757/374 760/373 477/564
f 102/614 809/613 829/634
f 817/554 826/232 801/571
f 487/471 107/469 732/717
f 774/394 769/393 693/636
f 434/735 745/700 741/532
f 815/589 820/619 802/693
f 765/244 762/422 321/245
f 722/442 707/182 129/181
f 714/492 699/491 117/541
f 763/394 768/393 317/636
f 439/737 750/539 747/405
f 826/232 823/231 790/580
f 761/373 765/401 320/563
f 103/739 718/230 704/787
f 773/374 776/373 695/564
f 819/572 814/579 703/854
f 325/523 333/522 332/195
