o Cube.007_Cube.009
v -0.8125 3.125 0.6875
v -0.8125 2.875 0.6875
v 0.8125 3.125 0.6875
v 0.8125 2.875 0.6875
v -0.3125 3.125 -0.8125
v -0.8125 3.125 -0.3125
v -0.8125 2.875 -0.3125
v -0.3125 2.875 -0.8125
v 0.8125 3.125 -0.3125
v 0.3125 3.125 -0.8125
v 0.3125 2.875 -0.8125
v 0.8125 2.875 -0.3125
v -0.8125 5.125 0.6875
v -0.8125 4.875 0.6875
v 0.8125 5.125 0.6875
v 0.8125 4.875 0.6875
v -0.3125 5.125 -0.8125
v -0.8125 5.125 -0.3125
v -0.8125 4.875 -0.3125
v -0.3125 4.875 -0.8125
v 0.8125 5.125 -0.3125
v 0.3125 5.125 -0.8125
v 0.3125 4.875 -0.8125
v 0.8125 4.875 -0.3125
v -0.2117 1 -0.8125
v -0.2117 4 -0.8125
v -0.2595 1 -0.928
v -0.2595 4 -0.928
v -0.375 1 -0.9758
v -0.375 4 -0.9758
v -0.4905 1 -0.928
v -0.4905 4 -0.928
v -0.5383 1 -0.8125
v -0.5383 4 -0.8125
v -0.4905 1 -0.697
v -0.4905 4 -0.697
v -0.375 1 -0.6492
v -0.2595 1 -0.697
v -0.2595 4 -0.697
v -0.2595 4.1971 -0.8463
v -0.2117 4.1155 -0.7647
v -0.375 4.231 -0.8801
v -0.4905 4.1971 -0.8463
v -0.5383 4.1155 -0.7647
v -0.4905 4.0338 -0.683
v -0.2595 4.0338 -0.683
v -0.2595 4.2788 -0.6492
v -0.2117 4.1633 -0.6492
v -0.375 4.3266 -0.6492
v -0.4905 4.2788 -0.6492
v -0.5383 4.1633 -0.6492
v -0.4905 4.0478 -0.6492
v -0.375 4 -0.6492
v -0.2595 4.0478 -0.6492
v -0.2595 4.2788 -0.3367
v -0.2117 4.1633 -0.3367
v -0.375 4.3266 -0.3367
v -0.4905 4.2788 -0.3367
v -0.5383 4.1633 -0.3367
v -0.4905 4.0478 -0.3367
v -0.375 4 -0.3367
v -0.2595 4.0478 -0.3367
v 0.5383 1 -0.8125
v 0.5383 2.5 -0.8125
v 0.4905 1 -0.928
v 0.4905 2.5 -0.928
v 0.375 1 -0.9758
v 0.375 2.5 -0.9758
v 0.2595 1 -0.928
v 0.2595 2.5 -0.928
v 0.2117 1 -0.8125
v 0.2117 2.5 -0.8125
v 0.2595 1 -0.697
v 0.2595 2.5 -0.697
v 0.375 1 -0.6492
v 0.4905 1 -0.697
v 0.4905 2.5 -0.697
v 0.4905 2.6971 -0.8463
v 0.5383 2.6155 -0.7647
v 0.375 2.731 -0.8801
v 0.2595 2.6971 -0.8463
v 0.2117 2.6155 -0.7647
v 0.2595 2.5338 -0.683
v 0.4905 2.5338 -0.683
v 0.4905 2.7788 -0.6492
v 0.5383 2.6633 -0.6492
v 0.375 2.8266 -0.6492
v 0.2595 2.7788 -0.6492
v 0.2117 2.6633 -0.6492
v 0.2595 2.5478 -0.6492
v 0.375 2.5 -0.6492
v 0.4905 2.5478 -0.6492
v 0.4905 2.7788 -0.3367
v 0.5383 2.6633 -0.3367
v 0.375 2.8266 -0.3367
v 0.2595 2.7788 -0.3367
v 0.2117 2.6633 -0.3367
v 0.2595 2.5478 -0.3367
v 0.375 2.5 -0.3367
v 0.4905 2.5478 -0.3367
v -0.6875 2.875 0.9375
v -0.6875 3.125 0.9375
v -0.6875 2.875 0.6875
v -0.6875 3.125 0.6875
v 0.6875 2.875 0.9375
v 0.6875 3.125 0.9375
v 0.6875 2.875 0.6875
v 0.6875 3.125 0.6875
v -0.6875 4.875 0.9375
v -0.6875 5.125 0.9375
v -0.6875 4.875 0.6875
v -0.6875 5.125 0.6875
v 0.6875 4.875 0.9375
v 0.6875 5.125 0.9375
v 0.6875 4.875 0.6875
v 0.6875 5.125 0.6875
v -0.6875 6.875 0.9375
v -0.6875 7.125 0.9375
v -0.6875 6.875 0.6875
v -0.6875 7.125 0.6875
v 0.6875 6.875 0.9375
v 0.6875 7.125 0.9375
v 0.6875 6.875 0.6875
v 0.6875 7.125 0.6875
v 0.6875 1 0.9375
v 0.6875 7.5 0.9375
v 0.6875 1 0.6875
v 0.6875 7.5 0.6875
v 0.9375 1 0.9375
v 0.9375 7.5 0.9375
v 0.9375 1 0.6875
v 0.9375 7.5 0.6875
v -0.6875 1 0.9375
v -0.6875 7.5 0.9375
v -0.6875 1 0.6875
v -0.6875 7.5 0.6875
v -0.9375 1 0.9375
v -0.9375 7.5 0.9375
v -0.9375 1 0.6875
v -0.9375 7.5 0.6875
v 0.1155 9.9375 -0.1155
v 0.1633 9.9375 -0
v 0.1633 10.25 -0
v 0.1155 9.9375 0.1155
v 0.1155 10.25 0.1155
v 0 9.9375 0.1633
v 0 10.25 0.1633
v -0.1155 9.9375 0.1155
v -0.1155 10.25 0.1155
v -0.1633 9.9375 -0
v -0.1633 10.25 -0
v -0.1155 9.9375 -0.1155
v -0.1155 10.25 -0.1155
v 0 9.9375 -0.1633
v 0 10.25 -0.1633
v 0.1732 10.2838 -0.0099
v 0.1493 10.3655 0.0817
v 0.0577 10.4471 0.1056
v -0.0478 10.481 0.0478
v -0.1056 10.4471 -0.0577
v -0.0817 10.3655 -0.1493
v 0.0099 10.2838 -0.1732
v 0.1971 10.2978 -0.0338
v 0.1155 10.25 -0.1155
v 0.1971 10.5288 -0.0338
v 0.1155 10.5766 -0.1155
v 0.0338 10.5288 -0.1971
v 0.231 10.4133 -0
v 0 10.4133 -0.231
v 0.0338 10.2978 -0.1971
v 0.6345 1 -0.8655
v 0.6345 10.25 -0.8655
v 0.75 1 -0.9133
v 0.75 10.25 -0.9133
v 0.8655 1 -0.8655
v 0.8655 10.25 -0.8655
v 0.9133 1 -0.75
v 0.9133 10.25 -0.75
v 0.8655 1 -0.6345
v 0.8655 10.25 -0.6345
v 0.75 1 -0.5867
v 0.75 10.25 -0.5867
v 0.6345 1 -0.6345
v 0.5867 1 -0.75
v 0.5867 10.25 -0.75
v 0.6923 10.4471 -0.8556
v 0.6007 10.3655 -0.8317
v 0.7978 10.481 -0.7978
v 0.8556 10.4471 -0.6923
v 0.8317 10.3655 -0.6007
v 0.7401 10.2838 -0.5768
v 0.6345 10.25 -0.6345
v 0.5768 10.2838 -0.7401
v 0.5529 10.5288 -0.7162
v 0.519 10.4133 -0.75
v 0.6345 10.5766 -0.6345
v 0.7162 10.5288 -0.5529
v 0.75 10.4133 -0.519
v 0.7162 10.2978 -0.5529
v 0.5529 10.2978 -0.7162
v 0 1.75 -0.7244
v 0.3622 1.75 -0.6274
v 0.6274 1.75 -0.3622
v 0.7244 1.75 -0
v 0.6274 1.75 0.3622
v 0.3622 1.75 0.6274
v 0 1.75 0.7244
v -0.3622 1.75 0.6274
v -0.6274 1.75 0.3622
v -0.7244 1.75 -0
v -0.6274 1.75 -0.3622
v -0.3622 1.75 -0.6274
v 0 1.25 -0.2415
v 0.1207 1.25 -0.2091
v 0.2091 1.25 -0.1207
v 0.2415 1.25 -0
v 0.2091 1.25 0.1207
v 0.1207 1.25 0.2091
v 0 1.25 0.2415
v -0.1207 1.25 0.2091
v -0.2091 1.25 0.1207
v -0.2415 1.25 -0
v -0.2091 1.25 -0.1207
v -0.1207 1.25 -0.2091
v 0 1 -0.2415
v 0.1207 1 -0.2091
v 0.2091 1 -0.1207
v 0.2415 1 -0
v 0.2091 1 0.1207
v 0.1207 1 0.2091
v 0 1 0.2415
v -0.1207 1 0.2091
v -0.2091 1 0.1207
v -0.2415 1 -0
v -0.2091 1 -0.1207
v -0.1207 1 -0.2091
v -0.2328 10 -0.4032
v -0.3622 9.75 -0.6274
v -0.4032 10 -0.2328
v -0.6274 9.75 -0.3622
v -0.4656 10 -0
v -0.7244 9.75 -0
v -0.4032 10 0.2328
v -0.6274 9.75 0.3622
v -0.2328 10 0.4032
v -0.3622 9.75 0.6274
v 0 10 0.4656
v 0 9.75 0.7244
v 0.2328 10 0.4032
v 0.3622 9.75 0.6274
v 0.4032 10 0.2328
v 0.6274 9.75 0.3622
v 0.4656 10 -0
v 0.7244 9.75 -0
v 0.4032 10 -0.2328
v 0.6274 9.75 -0.3622
v 0.2328 10 -0.4032
v 0.3622 9.75 -0.6274
v 0 10 -0.4656
v 0 9.75 -0.7244
v -1 0.3125 -0.3125
v -1 0.6875 -0.3125
v -1 0.3125 -0.6875
v -1 0.6875 -0.6875
v -0.875 0.3125 -0.3125
v -0.875 0.6875 -0.3125
v -0.875 0.3125 -0.6875
v -0.875 0.6875 -0.6875
v 1 0.3125 -0.3125
v 1 0.6875 -0.3125
v 1 0.3125 -0.6875
v 1 0.6875 -0.6875
v 0.875 0.3125 -0.3125
v 0.875 0.6875 -0.3125
v 0.875 0.3125 -0.6875
v 0.875 0.6875 -0.6875
v -1 0.3125 0.3125
v -1 0.6875 0.3125
v -1 0.3125 0.6875
v -1 0.6875 0.6875
v -0.875 0.3125 0.3125
v -0.875 0.6875 0.3125
v -0.875 0.3125 0.6875
v -0.875 0.6875 0.6875
v 1 0.3125 0.3125
v 1 0.6875 0.3125
v 1 0.3125 0.6875
v 1 0.6875 0.6875
v 0.875 0.3125 0.3125
v 0.875 0.6875 0.3125
v 0.875 0.3125 0.6875
v 0.875 0.6875 0.6875
v 1 -0 -1
v 1 0 1
v -1 0 1
v -1 -0 -1
v 1 1 -1
v 1 1 1
v -1 1 1
v -1 1 -1
v 1 0.125 -0.875
v 1 0.875 -0.875
v 1 0.875 0.875
v 1 0.125 0.875
v 0.875 0.125 1
v 0.875 0.875 1
v -0.875 0.875 1
v -0.875 0.125 1
v -1 0.125 0.875
v -1 0.875 0.875
v -1 0.875 -0.875
v -1 0.125 -0.875
v 0.875 0.875 -1
v 0.875 0.125 -1
v -0.875 0.125 -1
v -0.875 0.875 -1
v 0.875 0.125 -0.875
v 0.875 0.875 -0.875
v 0.875 0.875 0.875
v 0.875 0.125 0.875
v 0.875 0.125 0.875
v 0.875 0.875 0.875
v -0.875 0.875 0.875
v -0.875 0.125 0.875
v -0.875 0.125 0.875
v -0.875 0.875 0.875
v -0.875 0.875 -0.875
v -0.875 0.125 -0.875
v 0.875 0.875 -0.875
v 0.875 0.125 -0.875
v -0.875 0.125 -0.875
v -0.875 0.875 -0.875
v -0.3125 0.3125 1
v -0.3125 0.6875 1
v -0.6875 0.3125 1
v -0.6875 0.6875 1
v -0.3125 0.3125 0.875
v -0.3125 0.6875 0.875
v -0.6875 0.3125 0.875
v -0.6875 0.6875 0.875
v -0.3125 0.3125 -1
v -0.3125 0.6875 -1
v -0.6875 0.3125 -1
v -0.6875 0.6875 -1
v -0.3125 0.3125 -0.875
v -0.3125 0.6875 -0.875
v -0.6875 0.3125 -0.875
v -0.6875 0.6875 -0.875
v 0.3125 0.3125 1
v 0.3125 0.6875 1
v 0.6875 0.3125 1
v 0.6875 0.6875 1
v 0.3125 0.3125 0.875
v 0.3125 0.6875 0.875
v 0.6875 0.3125 0.875
v 0.6875 0.6875 0.875
v 0.3125 0.3125 -1
v 0.3125 0.6875 -1
v 0.6875 0.3125 -1
v 0.6875 0.6875 -1
v 0.3125 0.3125 -0.875
v 0.3125 0.6875 -0.875
v 0.6875 0.3125 -0.875
v 0.6875 0.6875 -0.875
v -0.8673 0.9802 0.875
v 0.7781 3.1051 0.875
v -0.8673 0.9802 0.8125
v 0.7781 3.1051 0.8125
v -0.7685 0.9036 0.875
v 0.8769 3.0285 0.875
v -0.7685 0.9036 0.8125
v 0.8769 3.0285 0.8125
v -0.8673 2.9802 0.875
v 0.7781 5.1051 0.875
v -0.8673 2.9802 0.8125
v 0.7781 5.1051 0.8125
v -0.7685 2.9036 0.875
v 0.8769 5.0285 0.875
v -0.7685 2.9036 0.8125
v 0.8769 5.0285 0.8125
v -0.8673 4.9802 0.875
v 0.7781 7.1051 0.875
v -0.8673 4.9802 0.8125
v 0.7781 7.1051 0.8125
v -0.7685 4.9036 0.875
v 0.8769 7.0285 0.875
v -0.7685 4.9036 0.8125
v 0.8769 7.0285 0.8125
v 0.8673 0.9802 0.8125
v -0.7781 3.1051 0.8125
v 0.8673 0.9802 0.75
v -0.7781 3.1051 0.75
v 0.7685 0.9036 0.8125
v -0.8769 3.0285 0.8125
v 0.7685 0.9036 0.75
v -0.8769 3.0285 0.75
v 0.8673 2.9802 0.8125
v -0.7781 5.1051 0.8125
v 0.8673 2.9802 0.75
v -0.7781 5.1051 0.75
v 0.7685 2.9036 0.8125
v -0.8769 5.0285 0.8125
v 0.7685 2.9036 0.75
v -0.8769 5.0285 0.75
v 0.8673 4.9802 0.8125
v -0.7781 7.1051 0.8125
v 0.8673 4.9802 0.75
v -0.7781 7.1051 0.75
v 0.7685 4.9036 0.8125
v -0.8769 7.0285 0.8125
v 0.7685 4.9036 0.75
v -0.8769 7.0285 0.75
v -0.8125 1 0.2117
v -0.8125 2 0.2117
v -0.928 1 0.2595
v -0.928 2 0.2595
v -0.9758 1 0.375
v -0.9758 2 0.375
v -0.928 1 0.4905
v -0.928 2 0.4905
v -0.8125 1 0.5383
v -0.8125 2 0.5383
v -0.697 1 0.4905
v -0.697 2 0.4905
v -0.6492 1 0.375
v -0.697 1 0.2595
v -0.697 2 0.2595
v -0.8463 2.1971 0.2595
v -0.7647 2.1155 0.2117
v -0.8801 2.231 0.375
v -0.8463 2.1971 0.4905
v -0.7647 2.1155 0.5383
v -0.683 2.0338 0.4905
v -0.683 2.0338 0.2595
v -0.6492 2.2788 0.2595
v -0.6492 2.1633 0.2117
v -0.6492 2.3266 0.375
v -0.6492 2.2788 0.4905
v -0.6492 2.1633 0.5383
v -0.6492 2.0478 0.4905
v -0.6492 2 0.375
v -0.6492 2.0478 0.2595
v -0.3367 2.2788 0.2595
v -0.3367 2.1633 0.2117
v -0.3367 2.3266 0.375
v -0.3367 2.2788 0.4905
v -0.3367 2.1633 0.5383
v -0.3367 2.0478 0.4905
v -0.3367 2 0.375
v -0.3367 2.0478 0.2595
v -0.8125 1 -0.5383
v -0.8125 2 -0.5383
v -0.928 1 -0.4905
v -0.928 2 -0.4905
v -0.9758 1 -0.375
v -0.9758 2 -0.375
v -0.928 1 -0.2595
v -0.928 2 -0.2595
v -0.8125 1 -0.2117
v -0.8125 2 -0.2117
v -0.697 1 -0.2595
v -0.697 2 -0.2595
v -0.6492 1 -0.375
v -0.697 1 -0.4905
v -0.697 2 -0.4905
v -0.8463 2.1971 -0.4905
v -0.7647 2.1155 -0.5383
v -0.8801 2.231 -0.375
v -0.8463 2.1971 -0.2595
v -0.7647 2.1155 -0.2117
v -0.683 2.0338 -0.2595
v -0.683 2.0338 -0.4905
v -0.6492 2.2788 -0.4905
v -0.6492 2.1633 -0.5383
v -0.6492 2.3266 -0.375
v -0.6492 2.2788 -0.2595
v -0.6492 2.1633 -0.2117
v -0.6492 2.0478 -0.2595
v -0.6492 2 -0.375
v -0.6492 2.0478 -0.4905
v -0.3367 2.2788 -0.4905
v -0.3367 2.1633 -0.5383
v -0.3367 2.3266 -0.375
v -0.3367 2.2788 -0.2595
v -0.3367 2.1633 -0.2117
v -0.3367 2.0478 -0.2595
v -0.3367 2 -0.375
v -0.3367 2.0478 -0.4905
v 0.8125 1 -0.2117
v 0.8125 7.5 -0.2117
v 0.928 1 -0.2595
v 0.928 7.5 -0.2595
v 0.9758 1 -0.375
v 0.9758 7.5 -0.375
v 0.928 1 -0.4905
v 0.928 7.5 -0.4905
v 0.8125 1 -0.5383
v 0.8125 7.5 -0.5383
v 0.697 1 -0.4905
v 0.697 7.5 -0.4905
v 0.6492 1 -0.375
v 0.697 1 -0.2595
v 0.697 7.5 -0.2595
v 0.8463 7.6971 -0.2595
v 0.7647 7.6155 -0.2117
v 0.8801 7.731 -0.375
v 0.8463 7.6971 -0.4905
v 0.7647 7.6155 -0.5383
v 0.683 7.5338 -0.4905
v 0.683 7.5338 -0.2595
v 0.6492 7.7788 -0.2595
v 0.6492 7.6633 -0.2117
v 0.6492 7.8266 -0.375
v 0.6492 7.7788 -0.4905
v 0.6492 7.6633 -0.5383
v 0.6492 7.5478 -0.4905
v 0.6492 7.5 -0.375
v 0.6492 7.5478 -0.2595
v 0.3367 7.7788 -0.2595
v 0.3367 7.6633 -0.2117
v 0.3367 7.8266 -0.375
v 0.3367 7.7788 -0.4905
v 0.3367 7.6633 -0.5383
v 0.3367 7.5478 -0.4905
v 0.3367 7.5 -0.375
v 0.3367 7.5478 -0.2595
v 0.8125 1 0.5383
v 0.8125 4.5 0.5383
v 0.928 1 0.4905
v 0.928 4.5 0.4905
v 0.9758 1 0.375
v 0.9758 4.5 0.375
v 0.928 1 0.2595
v 0.928 4.5 0.2595
v 0.8125 1 0.2117
v 0.8125 4.5 0.2117
v 0.697 1 0.2595
v 0.697 4.5 0.2595
v 0.6492 1 0.375
v 0.697 1 0.4905
v 0.697 4.5 0.4905
v 0.8463 4.6971 0.4905
v 0.7647 4.6155 0.5383
v 0.8801 4.731 0.375
v 0.8463 4.6971 0.2595
v 0.7647 4.6155 0.2117
v 0.683 4.5338 0.2595
v 0.683 4.5338 0.4905
v 0.6492 4.7788 0.4905
v 0.6492 4.6633 0.5383
v 0.6492 4.8266 0.375
v 0.6492 4.7788 0.2595
v 0.6492 4.6633 0.2117
v 0.6492 4.5478 0.2595
v 0.6492 4.5 0.375
v 0.6492 4.5478 0.4905
v 0.3367 4.7788 0.4905
v 0.3367 4.6633 0.5383
v 0.3367 4.8266 0.375
v 0.3367 4.7788 0.2595
v 0.3367 4.6633 0.2117
v 0.3367 4.5478 0.2595
v 0.3367 4.5 0.375
v 0.3367 4.5478 0.4905
v 0 2.875 0.6875
v 0 4.875 0.6875
v 0.6875 4.25 0.9375
v 0.6875 4.25 0.6875
v 0.9375 4.25 0.6875
v 0.9375 4.25 0.9375
v -0.6875 4.25 0.9375
v -0.6875 4.25 0.6875
v -0.9375 4.25 0.6875
v -0.9375 4.25 0.9375
v 1 0 0
v 0 -0 -1
v 0 1 -1
v 1 1 0
v 1 0.9375 -0.0625
v 1 0.875 0
v 1 0.0625 -0.0625
v -0 1 1
v -0.0625 0.9375 1
v -0.0625 0.0625 1
v 0 0.125 1
v -1 1 -0
v -1 0.9375 -0.0625
v -1 0 0
v -1 0.0625 0.0625
v -0.0625 0.0625 -1
v -0.0625 0.9375 -1
v 0 0.875 -1
v 0.875 0.125 -0
v 1 0.125 -0
v 0 0.125 0.875
v -0 0.875 1
v -0.875 0.125 -0
v -1 0.875 -0
v -1 0.125 -0
v 0 0.875 -0.875
v 0 0.125 -1
v -0.0446 2.0426 0.875
v 0.0542 1.9661 0.8125
v 0.0542 1.9661 0.875
v -0.0446 4.0426 0.875
v 0.0542 3.9661 0.8125
v 0.0542 3.9661 0.875
v -0.0446 6.0426 0.875
v 0.0542 5.9661 0.8125
v 0.0542 5.9661 0.875
v 0.0446 2.0426 0.8125
v 0.0446 2.0426 0.75
v -0.0542 1.9661 0.75
v -0.0542 1.9661 0.8125
v 0.0446 4.0426 0.8125
v 0.0446 4.0426 0.75
v -0.0542 3.9661 0.75
v -0.0542 3.9661 0.8125
v 0.0446 6.0426 0.8125
v 0.0446 6.0426 0.75
v -0.0542 5.9661 0.75
v -0.0542 5.9661 0.8125
v 0 3.125 0.6875
v 0 3.125 -0.3125
v 0 2.875 -0.3125
v 0 5.125 0.6875
v 0 5.125 -0.3125
v 0 4.875 -0.3125
v 0 0 1
v 0.875 0.875 -0
v -0 0.875 0.875
v -0.875 0.875 -0
v 0 0.125 -0.875
v -0.0446 2.0426 0.8125
v -0.0446 4.0426 0.8125
v -0.0446 6.0426 0.8125
v -0.2117 2.5 -0.8125
v -0.2595 2.5 -0.928
v -0.375 2.5 -0.9758
v -0.4905 2.5 -0.928
v -0.5383 2.5 -0.8125
v -0.4905 2.5 -0.697
v -0.375 2.5 -0.6492
v -0.2595 2.5 -0.697
v 0.5383 1.75 -0.8125
v 0.4905 1.75 -0.928
v 0.375 1.75 -0.9758
v 0.2595 1.75 -0.928
v 0.2117 1.75 -0.8125
v 0.2595 1.75 -0.697
v 0.375 1.75 -0.6492
v 0.4905 1.75 -0.697
v 0.6345 5.625 -0.8655
v 0.75 5.625 -0.9133
v 0.8655 5.625 -0.8655
v 0.9133 5.625 -0.75
v 0.8655 5.625 -0.6345
v 0.75 5.625 -0.5867
v 0.6345 5.625 -0.6345
v 0.5867 5.625 -0.75
v -0.6274 5.75 0.3622
v 0.3622 5.75 -0.6274
v 0.3622 5.75 0.6274
v 0.6274 5.75 -0.3622
v -0.7244 5.75 -0
v 0 5.75 0.7244
v 0.7244 5.75 -0
v 0 5.75 -0.7244
v -0.3622 5.75 0.6274
v 0.6274 5.75 0.3622
v -0.6274 5.75 -0.3622
v -0.3622 5.75 -0.6274
v 0.8125 4.25 -0.2117
v 0.928 4.25 -0.2595
v 0.9758 4.25 -0.375
v 0.928 4.25 -0.4905
v 0.8125 4.25 -0.5383
v 0.697 4.25 -0.4905
v 0.6492 4.25 -0.375
v 0.697 4.25 -0.2595
v 0.8125 2.75 0.5383
v 0.928 2.75 0.4905
v 0.9758 2.75 0.375
v 0.928 2.75 0.2595
v 0.8125 2.75 0.2117
v 0.697 2.75 0.2595
v 0.6492 2.75 0.375
v 0.697 2.75 0.4905
v 0 0 0
v -0 1 0
v 0.6875 5.875 0.9375
v 0.6875 5.875 0.6875
v 0.9375 5.875 0.6875
v 0.9375 5.875 0.9375
v -0.6875 5.875 0.9375
v -0.6875 5.875 0.6875
v -0.9375 5.875 0.6875
v -0.9375 5.875 0.9375
v -0.2117 3.25 -0.8125
v -0.2595 3.25 -0.928
v -0.375 3.25 -0.9758
v -0.4905 3.25 -0.928
v -0.5383 3.25 -0.8125
v -0.4905 3.25 -0.697
v -0.375 3.25 -0.6492
v -0.2595 3.25 -0.697
v 0 3.75 0.7244
v 0.6492 2.625 -0.375
v 0 3.75 -0.7244
v 0.3622 3.75 0.6274
v -0.9375 2.625 0.9375
v 0.9758 1.875 0.375
v 0.8125 2.625 -0.5383
v 0.7244 3.75 -0
v 0.8125 1.875 0.5383
v -0.6274 3.75 -0.3622
v -0.6875 2.625 0.9375
v -0.9375 2.625 0.6875
v 0.6345 3.3125 -0.6345
v 0.8655 3.3125 -0.8655
v 0.8655 3.3125 -0.6345
v 0.6492 1.875 0.375
v 0.6345 7.9375 -0.8655
v 0.75 7.9375 -0.9133
v 0.8655 7.9375 -0.8655
v 0.9133 7.9375 -0.75
v 0.8655 7.9375 -0.6345
v 0.75 7.9375 -0.5867
v 0.9133 3.3125 -0.75
v 0.6345 7.9375 -0.6345
v 0.5867 7.9375 -0.75
v -0.6875 2.625 0.6875
v -0.7244 3.75 -0
v 0.75 3.3125 -0.9133
v 0.6875 2.625 0.6875
v 0.75 3.3125 -0.5867
v 0.9375 2.625 0.9375
v 0.697 1.875 0.4905
v 0.697 1.875 0.2595
v -0.6274 7.75 0.3622
v 0.3622 7.75 -0.6274
v 0.3622 7.75 0.6274
v 0.6274 7.75 -0.3622
v -0.7244 7.75 -0
v 0 7.75 0.7244
v 0.7244 7.75 -0
v 0 7.75 -0.7244
v -0.3622 7.75 0.6274
v 0.6274 7.75 0.3622
v -0.6274 7.75 -0.3622
v -0.375 1.75 -0.6492
v -0.4905 1.75 -0.697
v 0.6345 3.3125 -0.8655
v -0.2595 1.75 -0.697
v -0.5383 1.75 -0.8125
v -0.4905 1.75 -0.928
v -0.2117 1.75 -0.8125
v -0.375 1.75 -0.9758
v -0.2595 1.75 -0.928
v -0.3622 7.75 -0.6274
v 0.928 1.875 0.2595
v 0.8125 2.625 -0.2117
v -0.3622 3.75 0.6274
v 0.697 2.625 -0.2595
v 0.8125 1.875 0.2117
v 0.928 2.625 -0.2595
v 0.6274 3.75 0.3622
v 0.928 1.875 0.4905
v 0.8125 5.875 -0.2117
v 0.928 5.875 -0.2595
v 0.9758 5.875 -0.375
v 0.928 5.875 -0.4905
v 0.8125 5.875 -0.5383
v 0.697 5.875 -0.4905
v 0.6492 5.875 -0.375
v 0.697 5.875 -0.2595
v -0.6274 3.75 0.3622
v 0.9375 2.625 0.6875
v -0.3622 3.75 -0.6274
v 0.928 2.625 -0.4905
v 0.5867 3.3125 -0.75
v 0.6875 2.625 0.9375
v 0.8125 3.625 0.5383
v 0.928 3.625 0.4905
v 0.9758 3.625 0.375
v 0.928 3.625 0.2595
v 0.8125 3.625 0.2117
v 0.697 3.625 0.2595
v 0.6492 3.625 0.375
v 0.697 3.625 0.4905
v 0.3622 3.75 -0.6274
v 0.9758 2.625 -0.375
v 0.697 2.625 -0.4905
v 0.6274 3.75 -0.3622
v 0.6274 2.75 -0.3622
v 0.6345 6.7812 -0.8655
v 0.9375 1.8125 0.6875
v 0 6.75 -0.7244
v 0.7244 6.75 -0
v 0.8125 5.0625 -0.2117
v 0.75 2.1562 -0.9133
v 0.6875 6.6875 0.9375
v 0.6875 6.6875 0.6875
v 0.9375 6.6875 0.6875
v 0.9375 6.6875 0.9375
v -0.6875 6.6875 0.9375
v -0.6875 6.6875 0.6875
v -0.9375 6.6875 0.6875
v -0.9375 6.6875 0.9375
v 0.697 5.0625 -0.4905
v 0.9133 2.1562 -0.75
v -0.7244 2.75 -0
v -0.3622 2.75 -0.6274
v 0.8655 2.1562 -0.6345
v -0.3622 2.75 0.6274
v 0.3622 6.75 0.6274
v 0.3622 2.75 -0.6274
v 0.8125 5.0625 -0.5383
v 0.3622 6.75 -0.6274
v 0.75 6.7812 -0.5867
v 0.6345 6.7812 -0.6345
v 0 6.75 0.7244
v -0.6274 2.75 0.3622
v -0.6875 1.8125 0.9375
v 0.8655 2.1562 -0.8655
v 0 2.75 -0.7244
v 0 2.75 0.7244
v 0.6492 5.0625 -0.375
v 0.9758 5.0625 -0.375
v 0.8125 1.8125 -0.2117
v 0.6274 2.75 0.3622
v -0.3622 6.75 0.6274
v 0 4.75 0.7244
v 0.6492 3.4375 -0.375
v 0 4.75 -0.7244
v 0.3622 4.75 0.6274
v -0.9375 3.4375 0.9375
v 0.928 1.8125 -0.4905
v -0.3622 6.75 -0.6274
v 0.6345 2.1562 -0.8655
v 0.75 2.1562 -0.5867
v 0.6274 6.75 0.3622
v 0.5867 6.7812 -0.75
v 0.697 1.8125 -0.2595
v 0.8125 3.4375 -0.5383
v 0.7244 4.75 -0
v 0.6492 1.8125 -0.375
v 0.928 1.8125 -0.2595
v 0.9375 5.0625 0.9375
v 0.928 5.0625 -0.2595
v 0.9375 5.0625 0.6875
v -0.6875 5.0625 0.9375
v 0.75 6.7812 -0.9133
v -0.6274 4.75 -0.3622
v -0.6875 3.4375 0.9375
v -0.9375 3.4375 0.6875
v 0.6345 4.4687 -0.6345
v 0.8655 4.4687 -0.8655
v 0.8655 4.4687 -0.6345
v 0.6345 9.0937 -0.8655
v 0.75 9.0937 -0.9133
v 0.8655 9.0937 -0.8655
v 0.9133 9.0937 -0.75
v 0.8655 9.0937 -0.6345
v 0.75 9.0937 -0.5867
v 0.9133 4.4687 -0.75
v 0.6345 9.0937 -0.6345
v 0.5867 9.0937 -0.75
v -0.6875 3.4375 0.6875
v -0.7244 4.75 -0
v 0.75 4.4687 -0.9133
v 0.6875 3.4375 0.6875
v 0.75 4.4687 -0.5867
v 0.9375 3.4375 0.9375
v -0.6274 8.75 0.3622
v 0.3622 8.75 -0.6274
v 0.3622 8.75 0.6274
v 0.6274 8.75 -0.3622
v -0.7244 8.75 -0
v 0 8.75 0.7244
v 0.7244 8.75 -0
v 0 8.75 -0.7244
v -0.3622 8.75 0.6274
v 0.6274 8.75 0.3622
v -0.6274 8.75 -0.3622
v 0.6345 4.4687 -0.8655
v 0.697 1.8125 -0.4905
v 0.5867 2.1562 -0.75
v 0.6274 6.75 -0.3622
v -0.6274 6.75 -0.3622
v -0.3622 8.75 -0.6274
v -0.6875 1.8125 0.6875
v 0.6875 1.8125 0.6875
v 0.9375 1.8125 0.9375
v 0.6875 1.8125 0.9375
v -0.6274 6.75 0.3622
v -0.6274 2.75 -0.3622
v 0.8125 3.4375 -0.2117
v -0.3622 4.75 0.6274
v 0.697 3.4375 -0.2595
v -0.9375 1.8125 0.6875
v 0.7244 2.75 -0
v -0.7244 6.75 -0
v 0.8125 1.8125 -0.5383
v 0.6345 2.1562 -0.6345
v 0.8655 6.7812 -0.8655
v 0.3622 2.75 0.6274
v -0.9375 1.8125 0.9375
v 0.9133 6.7812 -0.75
v 0.6875 5.0625 0.9375
v 0.928 3.4375 -0.2595
v 0.6274 4.75 0.3622
v 0.6875 5.0625 0.6875
v -0.6875 5.0625 0.6875
v 0.928 5.0625 -0.4905
v 0.697 5.0625 -0.2595
v 0.8125 6.6875 -0.2117
v 0.928 6.6875 -0.2595
v 0.9758 6.6875 -0.375
v -0.9375 5.0625 0.6875
v 0.928 6.6875 -0.4905
v 0.9758 1.8125 -0.375
v 0.8125 6.6875 -0.5383
v 0.697 6.6875 -0.4905
v 0.6492 6.6875 -0.375
v 0.697 6.6875 -0.2595
v -0.6274 4.75 0.3622
v 0.9375 3.4375 0.6875
v -0.3622 4.75 -0.6274
v 0.928 3.4375 -0.4905
v 0.5867 4.4687 -0.75
v 0.6875 3.4375 0.9375
v -0.9375 5.0625 0.9375
v 0.8655 6.7812 -0.6345
v 0.3622 4.75 -0.6274
v 0.9758 3.4375 -0.375
v 0.697 3.4375 -0.4905
v 0.6274 4.75 -0.3622
vt 0.1848 0.6685
vt 0.1848 0.6133
vt 0.2283 0.5691
vt 0.1196 0.6906
vt -0 0.6685
vt 0.1196 0.6685
vt 0.6196 0.1823
vt 0.6304 0.2044
vt 0.6196 0.2044
vt 0.8696 1
vt 0.8587 0.9724
vt 0.8696 0.9724
vt 0.0272 0.7956
vt 0.0598 0.8066
vt 0.0272 0.8066
vt 0.337 0.7348
vt 0.3315 0.616
vt 0.337 0.616
vt 0.0707 0.7956
vt 0.0598 0.7624
vt 0.0707 0.7624
vt 0.337 0.7459
vt 0.2609 0.8122
vt 0.2609 0.7459
vt 0.8913 1
vt 0.8804 0.9724
vt 0.8913 0.9724
vt -0 0.7127
vt 0.1196 0.7348
vt -0 0.7348
vt 0.0272 0.7624
vt 0.0598 0.7956
vt 0.3315 0.7348
vt 0.8804 1
vt 0.2283 0.7348
vt 0.3152 0.7127
vt 0.3152 0.7348
vt 0.0272 0.7514
vt 0.3478 0.8122
vt 0.337 0.8122
vt 0.8478 0.9282
vt 0.837 0.8619
vt 0.8478 0.8619
vt 0.8696 0.9282
vt 0.8587 0.8398
vt 0.8696 0.8398
vt 0.837 0.9282
vt 0.8261 0.8398
vt 0.837 0.8398
vt 0.587 0.2044
vt 0.5978 0.1823
vt 0.5978 0.2044
vt 0.6413 0.3536
vt 0.6739 0.2652
vt 0.6739 0.3536
vt 0.163 0.6685
vt 0.9239 0.1022
vt 0.9348 0
vt 0.9348 0.1022
vt 0.3207 0.7348
vt 0.3152 0.616
vt 0.3207 0.616
vt 0.3478 0.3536
vt 0.3804 0.2652
vt 0.3804 0.3536
vt 0.9891 0.9724
vt 0.9783 1
vt 0.9783 0.9724
vt 0.2609 0.8232
vt 0.1848 0.7459
vt 0.2609 0.7348
vt 0.413 0.3536
vt 0.4457 0.2652
vt 0.4457 0.3536
vt 0.163 0.5525
vt 0.163 0.6133
vt 0.0163 0.7624
vt 0.0163 0.7956
vt 0.9022 0.9282
vt 0.8913 0.8619
vt 0.9022 0.8619
vt 0.8261 0.8564
vt 0.837 0.8564
vt 0.8478 0.8564
vt 0.1739 0.8122
vt 0.1739 0.7459
vt 0.4565 0.1823
vt 0.4674 0.2044
vt 0.4565 0.2044
vt 0.1739 0.8232
vt 0.163 0.7459
vt 0.1739 0.7348
vt 0.0924 0.8177
vt 0.0109 0.8122
vt 0.087 0.8122
vt 0 0.8232
vt 0.0109 0.7459
vt 0.087 0.7348
vt 0.0924 0.7403
vt 0.163 0.8122
vt 0.087 0.8232
vt 0.0815 0.8177
vt 0.0815 0.7403
vt 0.087 0.7459
vt 0.3478 0.9116
vt 0.2609 1
vt 0.2609 0.9116
vt 0.837 1
vt 0.8478 0.9724
vt 0.8478 1
vt 0.9783 0.8619
vt 0.9674 0.9282
vt 0.9674 0.8619
vt 0.8587 0.8619
vt 0.8696 0.8619
vt 0.1848 0.8122
vt 0.2283 0.6409
vt 0.3152 0.5691
vt 0.3152 0.6409
vt 0.1848 0.7293
vt 0.163 0.7293
vt 0.9565 0.1022
vt 0.9674 -0
vt 0.9674 0.1022
vt 0.8913 0.8508
vt 0.9022 0.8508
vt 0.8261 1
vt 0.837 0.9724
vt 0.8913 0.8398
vt 0.9022 0.8398
vt 0.8587 1
vt 0.4891 0.1823
vt 0.5 0.2044
vt 0.4891 0.2044
vt 0.8478 0.8398
vt 0.8261 0.8619
vt 0.0598 0.7514
vt 0.9022 1
vt 0.913 0.9724
vt 0.913 1
vt 0.3152 0.547
vt 0.1196 0.7127
vt 0.913 0.9282
vt 0.9022 0.8564
vt 0.913 0.8564
vt 0.9022 0.9724
vt 0.2283 0.4751
vt 0.3152 0.4033
vt 0.3152 0.4751
vt 0.7391 0.4751
vt 0.7609 0.4033
vt 0.7609 0.4751
vt 1 0.9724
vt 0.9891 1
vt 0.1739 0.9116
vt 0.087 1
vt 0.087 0.9116
vt 0.3478 0.7348
vt 0.7826 0.4751
vt 0.8043 0.4033
vt 0.8043 0.4751
vt 0.8261 0.4033
vt 0.8261 0.4751
vt 0.9457 0
vt 0.9457 0.1022
vt 0.337 0.8232
vt 0.9783 0.1022
vt 0.9891 -0
vt 0.9891 0.1022
vt 0.5109 0.3536
vt 0.5435 0.2652
vt 0.5435 0.3536
vt 0.7826 0.9779
vt 0.8043 0.9061
vt 0.7826 0.9061
vt 0.337 0.4972
vt 0.3478 0.616
vt 0.8587 0.9282
vt 0.8478 0.8508
vt 0.8587 0.8508
vt 0.9457 0.9282
vt 0.9565 0.8619
vt 0.9565 0.9282
vt 0.7065 0.3536
vt 0.7391 0.2652
vt 0.7391 0.3536
vt 0.8913 0.4972
vt 0.8804 0.4254
vt 0.8913 0.4254
vt 0.2283 0.7127
vt 0.4783 0.442
vt 0.5109 0.442
vt 0.3804 0.7956
vt 0.413 0.7072
vt 0.413 0.7956
vt 0.1848 0.5028
vt 0.2283 0.547
vt 0.1848 0.4475
vt 0.2283 0.4033
vt 0.3478 0.9724
vt 0.3804 0.884
vt 0.3804 0.9724
vt 0.8696 0.8508
vt 0.8587 0.7735
vt 0.8696 0.7735
vt 0.8261 0.7956
vt 0.837 0.7956
vt 0.4783 0.3536
vt 0.5109 0.2652
vt 0.8587 0.4972
vt 0.8478 0.4254
vt 0.8587 0.4254
vt 0.7826 0.547
vt 0.8043 0.547
vt 0.8043 0.9779
vt 0.8261 0.9061
vt 0.8261 0.9779
vt 0.5761 0.442
vt 0.6087 0.3536
vt 0.6087 0.442
vt -0 0.6906
vt 0.913 0.8619
vt 0.9022 0.7956
vt 0.913 0.7956
vt 0.8478 0.7735
vt 0.9674 0.3066
vt 0.9783 0.2044
vt 0.9783 0.3066
vt 0.7391 0.547
vt 0.7609 0.547
vt 0.6413 0.442
vt 0.9783 0.8177
vt 0.9891 0.7155
vt 0.9891 0.8177
vt 0.9457 0.2044
vt 0.9565 0.2044
vt 0.6739 0.7956
vt 0.7065 0.7072
vt 0.7065 0.7956
vt 0.6739 0.6188
vt 0.7065 0.5304
vt 0.7065 0.6188
vt 0.7609 0.8343
vt 0.7826 0.7624
vt 0.7826 0.8343
vt 0.913 0.7127
vt 0.9022 0.6409
vt 0.913 0.6409
vt 0.8804 0.8508
vt 0.8804 0.7735
vt 0.6087 0.5304
vt 0.6413 0.5304
vt 0.9239 0.3066
vt 0.9348 0.2044
vt 0.9348 0.3066
vt 0.8913 0.7735
vt 0.913 0.7845
vt 0.9022 0.7127
vt 0.9457 0.3066
vt 0.8913 0.6961
vt 0.8804 0.6188
vt 0.8913 0.6188
vt 0.5435 0.442
vt 0.5761 0.9724
vt 0.6087 0.884
vt 0.6087 0.9724
vt 0.9239 0.8177
vt 0.9348 0.7155
vt 0.9348 0.8177
vt 0.9022 0.5691
vt 0.9022 0.4972
vt 0.5109 0.9724
vt 0.5435 0.884
vt 0.5435 0.9724
vt 0.3478 0.442
vt 0.3804 0.442
vt 0.913 0.4088
vt 0.9239 0.4088
vt 0.9674 0.8177
vt 0.9783 0.7155
vt 0.7391 0.6188
vt 0.837 0.3536
vt 0.8478 0.3536
vt 0.8043 0.6906
vt 0.8261 0.6188
vt 0.8261 0.6906
vt 0.8478 0.7127
vt 0.837 0.6409
vt 0.8478 0.6409
vt 0.8913 0.8564
vt 0.8804 0.7845
vt 0.8913 0.7845
vt 0.413 0.442
vt 0.4457 0.442
vt 0.6739 0.442
vt 0.7609 0.6188
vt 0.8696 0.7845
vt 0.8587 0.7127
vt 0.8696 0.7127
vt 0.9022 0.7845
vt 0.8913 0.7127
vt 0.8043 0.7624
vt 0.5109 0.5304
vt 0.5435 0.5304
vt 0.8696 0.6961
vt 0.8587 0.6188
vt 0.8696 0.6188
vt 0.8804 0.4972
vt 0.8696 0.4254
vt 0.8478 0.7293
vt 0.837 0.663
vt 0.8478 0.663
vt 0.5761 0.7956
vt 0.5761 0.884
vt 0.8587 0.7293
vt 0.8587 0.663
vt 0.5109 0.884
vt 0.5435 0.7956
vt 0.3478 0.884
vt 0.8478 0.7956
vt 0.8587 0.7956
vt 0.8261 0.547
vt 0.8587 0.6409
vt 0.8696 0.6409
vt 0.6087 0.6188
vt 0.6413 0.6188
vt 0.5109 0.6188
vt 0.5435 0.6188
vt 0.9239 0.2044
vt 0.7391 0.9061
vt 0.7391 0.8343
vt 0.7826 0.6906
vt 0.8043 0.6188
vt 0.5761 0.6188
vt 0.3478 0.7956
vt 0.3804 0.7072
vt 0.4457 0.7956
vt 0.4783 0.7072
vt 0.4783 0.7956
vt 0.7609 0.7624
vt 0.7609 0.6906
vt 0.8913 0.6409
vt 0.9891 0.4088
vt 1 0.3066
vt 1 0.4088
vt 0.837 0.5691
vt 0.8261 0.4972
vt 0.837 0.4972
vt 0.6739 0.9724
vt 0.7065 0.884
vt 0.7065 0.9724
vt 0.6413 0.9724
vt 0.6739 0.884
vt 0.9783 0.6133
vt 0.9891 0.5111
vt 0.9891 0.6133
vt 0.913 0.5691
vt 0.913 0.4972
vt 0.8587 0.3536
vt 0.8696 0.3536
vt 0.9783 0.4088
vt 0.9891 0.3066
vt 0.9457 0.7155
vt 0.9457 0.8177
vt 0.7609 0.9779
vt 0.9457 0.6133
vt 0.9565 0.5111
vt 0.9565 0.6133
vt 0.9674 0.6133
vt 0.9783 0.5111
vt 0.5761 0.7072
vt 0.7391 0.884
vt 0.7391 0.9724
vt 0.7065 0.442
vt 0.9348 0.4088
vt 0.4783 0.884
vt 0.5109 0.7956
vt 0.9891 0.2044
vt 0.6087 0.7956
vt 0.5761 0.5304
vt 0.8696 0.7293
vt 0.8696 0.663
vt 0.8804 0.7127
vt 0.9022 0.6961
vt 0.9022 0.6188
vt 0.6739 0.5304
vt 0.9022 0.4254
vt 0.913 0.4254
vt 0.7391 0.7956
vt 0.4783 0.5304
vt 0.8478 0.4972
vt 0.837 0.4254
vt 0.8043 0.8343
vt 0.7609 0.9061
vt 0.8261 0.8343
vt 0.9565 0.3066
vt 0.7826 0.6188
vt 0.9565 0.7155
vt 0.9674 0.7155
vt 0.7391 0.9779
vt 0.6848 0.1823
vt 0.6957 0.2044
vt 0.6848 0.2044
vt 0.8913 0.9669
vt 0.8804 0.9514
vt 0.8913 0.9558
vt 0.9565 0.8177
vt 0.9457 0.8387
vt 0.9457 0.8188
vt 0.8804 0.9713
vt 0.8478 0.9448
vt 0.8587 0.9293
vt 0.8587 0.9492
vt 0.8696 0.9503
vt 0.913 0.9392
vt 0.9022 0.9407
vt 0.9022 0.9377
vt 0.8913 0.9337
vt 0.8804 0.9492
vt 0.8804 0.9293
vt 0.837 0.9377
vt 0.837 0.9407
vt 0.8261 0.9392
vt 0.837 0.9599
vt 0.837 0.9627
vt 0.8261 0.9613
vt 0.9022 0.9599
vt 0.8587 0.9713
vt 0.8587 0.9514
vt 0.9457 0.9514
vt 0.9348 0.9669
vt 0.9348 0.9558
vt 0.8478 0.9337
vt 0.913 0.9613
vt 0.9022 0.9627
vt 0.8913 0.9282
vt 0.8804 0.8398
vt 0.1848 0.7348
vt 0.8478 0.9558
vt 0.9891 0.9406
vt 0.9783 0.9337
vt 0.9891 0.9378
vt 0.9457 0.9724
vt 0.9348 1
vt 0.9348 0.9724
vt 0.8587 0.8564
vt 0.9674 0.9492
vt 0.9783 0.9448
vt 1 0.9392
vt 0.8913 0.9448
vt 0.9239 0.9599
vt 0.9239 0.9627
vt 0.9891 0.9599
vt 1 0.9613
vt 0.9891 0.9627
vt 0.9891 0.8494
vt 0.9783 0.8564
vt 0.9783 0.8453
vt 0.9674 0.8188
vt 0.9783 0.8343
vt 0.9674 0.8387
vt 0.9565 0.8398
vt 0.9457 0.8608
vt 0.9457 0.8409
vt 0.9674 0.8409
vt 0.8478 0.9669
vt 0.9239 0.9406
vt 0.913 0.9392
vt 0.9239 0.9378
vt 0.9457 0.8619
vt 0.9348 0.9282
vt 0.9348 0.8619
vt 0.913 0.8508
vt 0.9783 -0
vt 0.7826 0.4033
vt 0.9457 0.9492
vt 0.9565 0.9503
vt 0.7826 1
vt 0.7609 1
vt 0.5761 0.2652
vt 0.5761 0.3536
vt 0.9783 0.9669
vt 0.9783 0.9558
vt 0.9674 0.9514
vt 0.9674 0.9713
vt 0.913 0.8287
vt 0.9239 0.8273
vt 0.9239 0.8301
vt 0.9348 0.8564
vt 0.9348 0.8453
vt 0.9891 0.8273
vt 1 0.8287
vt 0.9891 0.8301
vt 0.3587 0.2044
vt 0.3478 0.2652
vt 1 0.8508
vt 0.9891 0.8522
vt 0.9783 0.8232
vt 0.9239 0.8494
vt 0.9239 0.8522
vt 0.9239 0.8619
vt 0.9239 0.9282
vt 0.9891 0.9282
vt 0.9783 0.9282
vt 0.7065 0.2652
vt 1 -0
vt 1 0.1022
vt 0.0286 0.6555
vt 0.0081 0.6194
vt 0.0286 0.5832
vt 0.413 0.2652
vt 0.8804 0.8619
vt 0.8804 0.9282
vt 0.6087 0.2652
vt 0.6413 0.2652
vt 0.3913 0.2044
vt 0.4348 0.2044
vt 0.5326 0.2044
vt 0.4783 0.2652
vt 0.4076 1
vt 0.413 0.9724
vt 0.5543 0.2044
vt 0.7283 0.2044
vt 0.663 0.2044
vt 0.3478 0.7459
vt 0.7174 0.1823
vt 0.7174 0.2044
vt 0.5217 0.1823
vt 0.5217 0.2044
vt 0.7011 1
vt 0.6793 1
vt 0.5489 1
vt 0.5707 1
vt 0.5815 1
vt 0.6033 1
vt 0.5163 1
vt 0.538 1
vt 0.375 1
vt 0.3533 1
vt 0.4837 1
vt 0.5054 1
vt 0.6467 1
vt 0.6685 1
vt 0.4511 1
vt 0.4783 0.9724
vt 0.4728 1
vt 0.4185 1
vt 0.4457 0.9724
vt 0.4402 1
vt 0.7337 1
vt 0.0697 0.6555
vt 0.0902 0.6194
vt 0.6141 1
vt 0.6359 1
vt 0.4239 0.1823
vt 0.4239 0.2044
vt 0.5543 0.1823
vt 0.5652 0.2044
vt 0.3913 0.1823
vt 0.4022 0.2044
vt 0.9891 0.8619
vt 1 0.9282
vt 0.6522 0.1823
vt 0.6522 0.2044
vt 0.9674 1
vt 0.9674 0.9724
vt 0.8696 0.8564
vt 0.8804 0.8564
vt 0.9348 0.8232
vt 0.913 0.8398
vt 0.9565 1
vt 0.9565 0.9724
vt 0.8261 0.9724
vt 0.9239 1
vt 0.9239 0.9724
vt 0.9674 0.8608
vt 0.9457 0.9713
vt 0.9457 1
vt 0.9348 0.9337
vt 0.9348 0.9448
vt 0.3587 0.1823
vt 0.3696 0.2044
vt 0.913 0.1022
vt 0.9239 0
vt 0.9565 0
vt 0.8804 0.6961
vt 0.9457 0.9293
vt 0.9348 0.8343
vt 0.837 0.8508
vt 0.8261 0.8508
vt 0.9022 0.7735
vt 0.913 0.7155
vt 0.9239 0.6133
vt 0.9239 0.7155
vt 0.8261 0.4254
vt 0.8587 0.6961
vt 0.8478 0.6188
vt 0.8261 0.7624
vt 0.7391 0.442
vt 0.9674 0.2044
vt 0.6304 0.1823
vt 0.3315 0.4972
vt 0.8913 0.5691
vt 0.3152 0.4972
vt 0.3207 0.4972
vt 0.4457 0.7072
vt 0.4783 0.6188
vt 0.8913 0.7956
vt 0.8804 0.7293
vt 0.8913 0.7293
vt 0.8696 0.7956
vt 0.8804 0.7956
vt 0.9457 0.4088
vt 0.9565 0.4088
vt 0.9348 0.6133
vt 0.8478 0.7845
vt 0.8587 0.7845
vt 0.8261 0.3536
vt 0.7391 0.4033
vt 0.413 0.884
vt 0.8478 0.6961
vt 0.3478 0.7072
vt 0.3804 0.6188
vt 0.8478 0.5691
vt 0.8587 0.5691
vt 0.6413 0.7072
vt 0.6739 0.7072
vt 0.8804 0.5691
vt 0.413 0.6188
vt 0.8261 0.7293
vt 0.837 0.7293
vt 0.8913 0.3536
vt 0.9022 0.3536
vt 0.4457 0.884
vt 0.8804 0.6409
vt 0.5109 0.7072
vt 0.6413 0.884
vt 0.9457 0.5111
vt 1 0.5111
vt 1 0.6133
vt 0.9674 0.5111
vt 0.913 0.7735
vt 0.7391 0.6906
vt 0.8261 0.5691
vt 0.913 0.5111
vt 0.9239 0.5111
vt 0.3478 0.8232
vt 0.2609 0.8232
vt 0.913 0.7293
vt 0.9022 0.663
vt 0.913 0.663
vt 1 0.2044
vt 0.7391 0.7624
vt 0.3478 0.5304
vt 0.3804 0.5304
vt 0.8261 0.7735
vt 0.837 0.7735
vt 0.8696 0.5691
vt 0.5435 0.7072
vt 0.837 0.6961
vt 0.8261 0.6188
vt 0.837 0.6188
vt 0.913 0.6961
vt 0.913 0.6188
vt 0.8696 0.4972
vt 0.0492 0.5777
vt 0.0697 0.5832
vt 0.0847 0.5985
vt 0.0847 0.6402
vt 0.0492 0.6611
vt 0.0136 0.6402
vt 0.0136 0.5985
vt 0.913 0.3066
vt 0.8804 0.663
vt 0.8913 0.663
vt 0.8261 0.663
vt 0.4457 0.5304
vt 0.837 0.7845
vt 0.8261 0.7127
vt 0.837 0.7127
vt 0.1739 1
vt 0.9674 0.4088
vt 0.8804 0.3536
vt 0.8261 0.7845
vt 0 0.9116
vt 0 1
vt 0.9348 0.5111
vt 0.1848 0.8232
vt 0.913 0.8177
vt 0.913 0.2044
vt 0.6087 0.7072
vt 0.7391 0.6188
vt 0.7391 0.7072
vt 0.9022 0.7293
vt 0.6413 0.7956
vt 0.3478 0.6188
vt 0.913 0.6133
vt 0.913 0.3536
vt 0.4457 0.6188
vt 1 0.7155
vt 0.8261 0.6409
vt 1 0.8177
vt 0.8261 0.6961
vt 0.413 0.5304
vt 0.7391 0.5304
vt 0.8261 0.9282
vt 0.587 0.1823
vt 0.1848 0.5525
vt 0.4674 0.1823
vt 0.3478 1
vt 0.5 0.1823
vt 1 1
vt 0.3478 0.4972
vt 0.6957 0.1823
vt 0.9674 0.9293
vt 0.913 0.8619
vt 0.3859 1
vt 0.7283 0.1823
vt 0.5326 0.1823
vt 0.712 1
vt 0.4348 0.1823
vt 0.5652 0.1823
vt 0.4022 0.1823
vt 1 0.8619
vt 0.663 0.1823
vt 0.3696 0.1823
vt 0.913 0
s 1
f 10/1 5/2 6/3
f 113/4 111/5 115/6
f 231/7 218/8 219/9
f 95/10 85/11 87/12
f 334/13 337/14 338/15
f 408/16 619/17 620/18
f 289/19 287/20 291/21
f 22/1 17/2 18/3
f 327/22 597/23 632/24
f 59/25 50/26 51/27
f 102/28 108/29 104/30
f 288/31 285/32 286/13
f 634/18 365/33 602/17
f 559/10 549/11 551/12
f 560/34 553/27 561/25
f 24/35 15/36 16/37
f 340/38 335/20 336/31
f 329/22 314/39 330/40
f 26/41 706/42 699/43
f 418/44 415/45 417/46
f 364/38 359/20 360/31
f 465/47 463/48 464/49
f 265/19 263/20 267/21
f 220/50 231/51 219/52
f 907/53 205/54 831/55
f 11/56 5/2 10/1
f 841/57 179/58 814/59
f 402/60 617/61 618/62
f 292/38 287/20 288/31
f 604/62 371/37 603/61
f 795/63 202/64 817/65
f 264/31 261/32 262/13
f 155/66 152/67 153/68
f 12/35 3/36 4/37
f 330/40 601/69 633/23
f 332/70 592/71 600/24
f 826/72 212/73 813/74
f 7/75 5/2 8/76
f 278/13 284/77 282/78
f 64/41 652/42 645/43
f 342/13 348/77 346/78
f 344/31 341/32 343/20
f 74/79 649/80 650/81
f 503/47 925/82 926/83
f 490/41 926/83 917/84
f 349/32 355/21 351/20
f 332/70 315/85 316/86
f 236/87 223/88 224/89
f 328/40 599/69 597/23
f 410/60 621/61 622/62
f 607/62 379/37 606/61
f 636/18 381/33 608/17
f 23/56 17/2 22/1
f 286/13 292/77 288/31
f 631/23 324/70 595/24
f 297/90 301/91 293/92
f 579/93 303/94 580/95
f 294/30 303/94 298/96
f 304/97 575/98 581/99
f 298/90 305/91 294/92
f 306/100 582/101 583/102
f 295/30 307/94 299/96
f 584/103 305/91 585/104
f 299/30 309/94 295/96
f 310/97 586/98 587/99
f 296/90 311/91 300/92
f 312/100 588/101 589/102
f 293/90 313/91 297/92
f 314/100 576/101 590/102
f 300/30 315/94 296/96
f 591/103 313/91 592/104
f 610/62 381/33 385/60
f 582/105 578/106 690/107
f 62/108 48/109 56/110
f 195/111 167/112 194/113
f 30/44 700/114 701/115
f 319/116 593/24 630/23
f 627/117 13/118 626/119
f 11/56 9/120 12/121
f 825/122 173/123 801/124
f 538/79 787/125 788/126
f 525/127 518/128 526/108
f 337/19 335/20 339/21
f 358/13 364/77 360/31
f 424/79 421/129 423/130
f 272/31 269/32 271/20
f 57/10 50/26 58/34
f 56/110 47/11 55/131
f 483/10 473/11 475/12
f 427/47 425/48 426/49
f 522/34 515/27 523/25
f 262/13 265/14 266/15
f 445/10 435/11 437/12
f 482/110 473/11 481/131
f 235/132 222/133 223/134
f 414/41 426/49 413/135
f 444/110 435/11 443/131
f 96/34 89/27 97/25
f 77/47 651/136 652/42
f 276/38 271/20 275/137
f 98/138 91/139 99/140
f 270/13 273/14 269/32
f 268/38 263/20 264/31
f 93/131 86/109 85/11
f 18/3 14/141 13/118
f 118/28 121/4 122/142
f 517/143 924/144 925/145
f 284/38 279/20 283/137
f 97/25 90/146 98/138
f 628/147 16/148 566/149
f 893/150 125/151 895/152
f 164/153 154/154 155/66
f 390/33 614/62 611/17
f 588/155 576/156 689/157
f 612/18 396/158 392/16
f 894/159 131/160 797/161
f 607/62 373/33 377/60
f 797/161 127/162 893/163
f 398/33 618/62 615/17
f 286/13 289/14 290/15
f 406/33 622/62 619/17
f 635/18 373/33 605/17
f 620/18 412/158 408/16
f 105/4 103/5 107/6
f 61/127 54/128 62/108
f 814/59 177/164 811/165
f 630/23 302/166 580/69
f 840/167 184/168 888/169
f 604/62 365/33 369/60
f 812/170 209/171 823/172
f 616/18 404/158 400/16
f 138/173 808/174 809/175
f 384/176 609/177 636/18
f 530/178 783/179 784/180
f 165/181 196/182 166/183
f 902/184 203/185 795/186
f 713/187 838/188 904/189
f 10/1 624/117 9/190
f 334/13 333/32 337/14
f 716/191 812/170 733/192
f 741/193 798/194 747/195
f 8/196 625/147 7/197
f 8/196 11/198 12/199
f 256/200 876/201 258/202
f 785/203 682/204 683/205
f 706/42 643/206 644/207
f 897/208 210/209 812/170
f 766/210 830/211 848/212
f 22/1 627/117 21/190
f 737/213 797/161 778/214
f 132/215 803/216 128/217
f 763/218 827/219 707/220
f 20/196 628/147 19/197
f 20/196 23/198 24/199
f 113/4 109/221 111/5
f 705/222 642/223 643/224
f 784/180 681/225 682/204
f 871/226 753/227 886/228
f 735/229 895/152 782/230
f 707/220 907/53 710/231
f 172/232 868/233 185/234
f 95/10 93/131 85/11
f 729/235 825/122 720/236
f 749/237 799/238 746/239
f 670/240 846/241 667/242
f 691/243 849/244 694/245
f 828/246 678/247 679/248
f 786/249 683/205 684/250
f 833/251 710/231 836/252
f 873/253 721/254 859/255
f 787/125 684/250 685/256
f 775/257 810/258 828/246
f 859/255 729/235 866/259
f 765/260 533/261 535/262
f 289/19 285/32 287/20
f 733/192 823/172 777/263
f 408/16 406/33 619/17
f 246/264 880/265 248/266
f 182/267 864/268 180/269
f 937/270 713/187 793/271
f 242/272 875/273 244/274
f 794/275 817/65 791/276
f 659/277 873/253 658/278
f 174/279 860/280 172/232
f 869/281 717/230 732/229
f 830/211 502/282 489/283
f 569/284 872/285 568/286
f 800/287 680/288 673/289
f 130/173 804/174 132/215
f 923/290 772/291 773/292
f 709/293 813/74 779/294
f 710/231 831/55 767/295
f 872/281 782/230 932/296
f 771/297 850/298 829/299
f 774/300 818/301 810/258
f 698/245 920/302 933/244
f 870/303 777/263 927/304
f 718/214 892/163 901/161
f 297/90 302/100 301/91
f 578/101 303/94 579/93
f 294/30 304/97 303/94
f 581/99 594/104 304/97
f 298/90 306/100 305/91
f 583/102 596/95 306/100
f 295/30 308/97 307/94
f 629/98 305/91 584/103
f 299/30 310/97 309/94
f 587/99 598/104 310/97
f 296/90 312/100 311/91
f 589/102 599/95 312/100
f 293/90 314/100 313/91
f 590/102 601/95 314/100
f 300/30 316/97 315/94
f 577/98 313/91 591/103
f 712/305 529/306 531/307
f 780/308 922/309 838/188
f 757/310 38/311 25/312
f 875/273 748/313 883/314
f 759/315 25/312 27/316
f 879/317 740/318 875/273
f 878/319 741/193 876/201
f 700/114 637/320 638/321
f 59/25 58/34 50/26
f 288/31 287/20 285/32
f 778/214 893/163 735/322
f 829/299 674/323 675/324
f 666/325 836/252 663/326
f 665/327 927/304 661/328
f 736/329 814/59 721/254
f 807/330 695/243 696/331
f 570/332 928/333 569/284
f 669/334 833/251 666/325
f 779/294 897/208 716/191
f 743/335 819/336 741/193
f 760/337 890/338 750/339
f 924/144 773/292 774/300
f 852/340 574/332 571/341
f 810/258 677/342 678/247
f 660/343 857/344 659/345
f 900/346 708/347 764/348
f 252/349 881/350 254/351
f 250/352 884/353 252/349
f 723/354 843/355 731/356
f 834/357 793/271 708/358
f 922/309 491/359 493/360
f 653/361 931/362 660/343
f 180/269 863/363 178/364
f 126/365 805/175 130/173
f 726/366 906/367 725/368
f 724/369 796/370 723/354
f 740/318 832/371 748/313
f 254/351 878/372 256/373
f 767/295 902/184 714/374
f 658/278 859/255 657/375
f 695/243 933/244 852/340
f 885/376 744/377 879/317
f 886/228 781/378 931/362
f 883/314 745/379 880/265
f 899/380 707/220 833/251
f 758/381 27/316 29/382
f 773/292 915/383 818/301
f 864/268 726/366 863/363
f 772/291 829/299 915/383
f 739/384 535/262 537/385
f 912/386 714/374 846/241
f 708/358 887/387 847/388
f 925/145 774/300 775/257
f 881/350 743/389 878/372
f 854/390 733/192 870/303
f 762/391 844/392 830/211
f 711/213 901/161 908/159
f 805/175 693/393 804/174
f 802/394 694/245 805/175
f 804/174 692/395 803/216
f 866/259 720/236 858/396
f 860/280 731/356 868/233
f 874/397 778/214 928/333
f 862/398 724/369 861/399
f 136/400 806/394 807/330
f 317/22 302/39 318/40
f 320/70 594/71 593/24
f 321/22 306/39 322/40
f 631/23 306/166 596/69
f 229/401 216/402 217/403
f 515/404 507/405 508/406
f 392/16 611/17 612/18
f 19/75 17/2 20/76
f 176/407 189/408 178/409
f 432/406 438/410 431/405
f 79/411 66/412 78/413
f 544/414 530/412 532/44
f 53/415 45/416 36/417
f 536/418 545/419 534/420
f 39/421 46/422 53/423
f 80/414 66/412 68/44
f 488/108 474/109 482/110
f 46/424 54/425 53/426
f 547/427 553/404 546/406
f 544/414 549/428 542/429
f 151/430 161/431 153/432
f 492/412 505/411 490/433
f 53/434 52/435 45/427
f 546/406 552/410 545/405
f 262/13 268/77 264/31
f 110/28 113/4 114/142
f 59/25 52/146 60/138
f 487/127 480/128 488/108
f 422/436 419/437 421/129
f 57/10 47/11 49/12
f 633/23 332/70 600/24
f 416/178 413/135 415/45
f 361/19 359/20 363/21
f 336/31 333/32 334/13
f 110/28 116/29 112/30
f 278/13 281/14 277/32
f 595/24 308/438 585/71
f 543/411 530/412 542/413
f 525/140 516/146 517/139
f 342/13 345/14 341/32
f 476/410 468/414 469/405
f 422/418 431/419 420/420
f 429/411 416/412 428/413
f 506/414 492/412 494/44
f 91/415 83/416 74/417
f 41/411 28/412 40/413
f 77/421 84/422 91/423
f 49/12 40/429 42/414
f 450/108 436/109 444/110
f 84/424 92/425 91/426
f 433/427 439/404 432/406
f 438/410 430/414 431/405
f 473/428 467/439 466/429
f 162/440 169/441 170/442
f 91/434 90/435 83/427
f 26/433 46/422 39/421
f 341/32 347/21 343/20
f 352/31 349/32 351/20
f 273/19 271/20 269/32
f 368/176 603/177 634/18
f 270/13 276/77 274/78
f 147/443 144/444 145/445
f 121/4 119/5 123/6
f 492/178 917/84 918/446
f 485/25 478/146 486/138
f 486/138 479/139 487/140
f 350/13 356/77 354/78
f 95/10 88/26 96/34
f 625/147 4/148 565/149
f 160/447 169/441 161/448
f 53/143 704/81 705/222
f 102/28 105/4 106/142
f 164/449 162/440 170/442
f 462/417 470/450 460/418
f 468/414 454/412 456/44
f 164/434 155/451 162/452
f 143/453 164/454 156/455
f 193/456 195/457 187/458
f 174/459 187/460 186/461
f 188/462 197/463 189/464
f 72/418 81/419 70/420
f 186/465 196/182 188/462
f 474/466 472/424 467/439
f 48/466 46/424 41/439
f 176/407 186/461 188/462
f 471/427 477/404 470/406
f 156/467 164/468 163/469
f 197/470 168/471 198/472
f 23/56 21/120 24/121
f 134/365 809/175 806/394
f 555/143 788/126 789/473
f 801/124 171/474 840/167
f 521/10 514/26 522/34
f 895/152 129/475 894/159
f 158/476 166/183 159/477
f 126/365 132/478 128/479
f 823/172 208/480 815/481
f 550/466 548/424 543/439
f 143/453 157/482 145/483
f 34/418 43/419 32/420
f 147/484 157/482 158/485
f 552/410 544/414 545/405
f 192/486 182/487 191/488
f 189/464 198/489 190/490
f 185/491 192/492 193/493
f 215/494 202/64 203/495
f 193/456 192/496 200/497
f 512/466 510/424 505/439
f 166/183 160/447 159/477
f 185/491 187/460 172/498
f 490/433 510/422 503/421
f 192/473 191/499 199/500
f 196/182 167/112 166/183
f 164/143 199/501 163/502
f 376/176 606/177 635/18
f 198/472 163/502 199/501
f 475/12 466/429 468/414
f 320/70 303/85 304/86
f 195/111 170/503 169/504
f 204/505 217/403 216/402
f 400/16 615/17 616/18
f 888/169 183/506 905/507
f 249/508 253/509 257/510
f 36/79 703/80 704/81
f 817/65 201/511 826/72
f 624/117 1/118 623/119
f 34/436 702/512 703/80
f 32/513 701/115 702/512
f 831/55 204/505 902/184
f 815/481 207/514 827/219
f 827/219 206/515 907/53
f 524/138 515/27 516/146
f 134/365 140/478 138/173
f 214/516 201/511 202/64
f 201/511 224/517 212/73
f 210/209 221/518 209/171
f 223/134 210/209 211/519
f 207/514 220/50 219/52
f 224/89 211/519 212/73
f 259/520 258/202 260/521
f 221/522 208/480 209/171
f 207/514 218/8 206/515
f 204/505 215/523 203/185
f 206/515 217/524 205/54
f 39/47 705/136 706/42
f 500/79 923/290 924/144
f 326/70 309/85 310/86
f 328/40 311/525 312/39
f 228/526 215/523 216/527
f 6/3 2/141 1/118
f 234/528 221/518 222/529
f 91/143 650/81 651/222
f 60/138 53/139 61/140
f 281/19 279/20 277/32
f 68/44 646/114 647/115
f 252/349 253/530 251/531
f 243/532 246/264 245/533
f 245/534 248/266 247/535
f 241/536 244/274 243/537
f 256/200 257/538 255/539
f 239/540 242/272 241/541
f 249/542 252/349 251/543
f 237/544 240/545 239/546
f 259/547 238/548 237/549
f 255/550 254/351 256/373
f 245/551 257/510 241/552
f 247/553 250/352 249/554
f 70/513 647/115 648/512
f 118/28 124/29 120/30
f 66/178 645/43 646/114
f 225/555 224/517 213/556
f 420/513 417/46 419/437
f 233/557 220/558 221/522
f 226/559 213/560 214/516
f 82/450 74/417 83/416
f 72/436 648/512 649/80
f 445/10 438/26 446/34
f 87/12 78/429 80/414
f 472/422 452/433 467/411
f 467/411 454/412 466/413
f 506/414 496/420 507/419
f 441/415 433/416 424/417
f 460/418 469/419 458/420
f 427/421 434/422 441/423
f 42/414 28/412 30/44
f 200/561 164/562 170/503
f 434/424 442/425 441/426
f 549/428 543/439 542/429
f 42/414 32/420 43/419
f 85/428 79/439 78/429
f 86/466 84/424 79/439
f 441/434 440/435 433/427
f 476/410 470/406 477/404
f 334/13 340/77 336/31
f 447/25 440/146 448/138
f 230/563 217/524 218/564
f 99/127 92/128 100/108
f 460/436 457/437 459/129
f 446/34 439/27 447/25
f 448/138 441/139 449/140
f 153/68 150/565 151/566
f 348/38 343/20 347/137
f 456/44 453/45 455/46
f 458/513 455/46 457/437
f 454/178 451/135 453/45
f 452/41 464/49 451/135
f 432/450 424/417 433/416
f 358/13 361/14 362/15
f 496/513 919/567 921/568
f 437/12 428/429 430/414
f 82/406 88/410 81/405
f 180/569 191/488 182/487
f 430/414 420/420 431/419
f 479/415 471/416 462/417
f 153/432 162/452 155/451
f 465/421 472/422 479/423
f 430/414 416/412 418/44
f 100/108 86/109 94/110
f 472/424 480/425 479/426
f 83/427 89/404 82/406
f 88/410 80/414 81/405
f 47/428 41/439 40/429
f 436/466 434/424 429/439
f 479/434 478/435 471/427
f 44/406 50/410 43/405
f 479/143 461/130 463/570
f 151/566 148/571 149/572
f 350/13 353/14 349/32
f 442/128 449/127 441/573
f 494/44 918/446 919/567
f 145/445 142/574 143/575
f 356/38 351/20 355/137
f 526/108 512/109 520/110
f 143/575 141/140 164/139
f 483/10 476/26 484/34
f 484/34 477/27 485/25
f 326/70 598/71 632/24
f 559/10 552/26 560/34
f 186/465 195/457 194/576
f 360/31 357/32 358/13
f 280/31 277/32 279/20
f 514/410 506/414 507/405
f 198/489 191/499 190/490
f 508/450 496/420 498/418
f 151/430 159/572 160/577
f 517/415 509/416 500/417
f 414/433 434/422 427/421
f 503/421 510/422 517/423
f 544/414 534/420 545/419
f 149/572 146/578 147/443
f 510/424 518/425 517/426
f 548/422 528/433 543/411
f 147/484 159/572 149/477
f 156/467 168/579 157/580
f 515/404 509/427 516/435
f 517/434 516/435 509/427
f 504/429 512/466 505/439
f 498/436 921/568 923/290
f 462/79 459/129 461/130
f 441/143 423/130 425/570
f 227/581 214/582 215/494
f 534/513 785/203 786/249
f 813/74 211/519 897/208
f 905/583 181/584 841/57
f 140/215 807/216 808/174
f 28/178 699/43 700/114
f 532/44 784/180 785/203
f 520/110 511/11 519/131
f 323/116 308/86 324/70
f 562/138 555/139 563/140
f 44/450 36/417 45/416
f 811/165 175/585 825/122
f 558/110 556/128 550/109
f 506/414 511/428 504/429
f 685/256 761/586 765/260
f 158/476 168/579 165/587
f 468/414 458/420 469/419
f 555/415 547/416 538/417
f 79/411 77/421 64/433
f 541/421 548/422 555/423
f 80/414 70/420 81/419
f 610/62 387/37 609/61
f 548/424 556/425 555/426
f 546/450 538/417 547/416
f 50/410 42/414 43/405
f 45/427 51/404 44/406
f 435/428 429/439 428/429
f 555/434 554/435 547/427
f 180/569 189/408 190/588
f 528/41 790/589 783/179
f 541/47 789/590 790/589
f 394/60 613/61 614/62
f 536/436 786/249 787/125
f 564/108 555/573 556/128
f 561/25 554/146 562/138
f 521/10 511/11 513/12
f 788/126 685/256 686/591
f 867/592 728/593 865/594
f 764/348 847/595 844/392
f 768/596 527/597 529/306
f 697/393 914/598 920/302
f 714/374 795/186 794/599
f 910/340 570/332 849/244
f 720/236 801/124 734/600
f 231/7 230/601 218/8
f 384/176 608/17 382/602
f 678/247 845/603 937/270
f 295/30 629/98 584/103
f 618/62 403/604 401/605
f 574/332 856/333 837/397
f 622/62 411/604 409/605
f 761/586 531/307 533/261
f 571/341 837/397 855/296
f 293/92 581/99 575/98
f 839/606 671/607 890/338
f 641/608 756/609 755/610
f 648/512 67/611 69/612
f 244/274 883/314 246/264
f 656/613 858/396 655/614
f 806/394 698/245 695/243
f 865/594 727/615 864/268
f 734/600 840/167 753/227
f 918/446 769/616 770/617
f 176/407 861/399 174/279
f 844/392 501/618 502/282
f 791/276 826/72 709/293
f 855/296 711/213 717/230
f 808/174 696/395 697/393
f 908/159 139/160 137/475
f 634/18 367/16 365/33
f 612/18 389/602 391/176
f 892/150 133/151 135/619
f 258/202 882/620 260/521
f 368/176 602/17 366/602
f 682/204 715/621 768/596
f 311/91 587/99 300/92
f 889/622 662/623 819/336
f 307/94 583/102 299/96
f 378/605 606/61 380/604
f 863/363 725/368 862/398
f 674/323 898/624 911/625
f 816/626 670/240 842/627
f 677/342 930/628 845/603
f 819/336 668/629 798/194
f 644/207 751/630 754/631
f 887/387 497/632 499/633
f 128/400 802/394 126/365
f 260/521 891/634 238/548
f 882/620 760/337 891/634
f 671/607 870/303 665/327
f 692/331 910/340 691/243
f 915/383 675/324 676/635
f 750/339 903/636 744/377
f 248/266 877/637 250/352
f 727/615 909/638 726/366
f 731/356 821/639 730/640
f 725/368 853/641 724/369
f 845/603 780/308 713/187
f 297/90 578/101 579/93
f 809/175 697/393 698/245
f 789/473 686/591 687/642
f 572/643 855/296 869/281
f 680/288 834/644 900/346
f 638/321 757/310 759/315
f 821/645 658/278 820/646
f 295/96 589/102 588/101
f 301/91 581/99 293/92
f 299/647 690/107 586/648
f 616/18 397/602 399/176
f 9/190 623/119 3/36
f 591/103 316/97 300/30
f 321/22 585/71 305/16
f 751/649 35/650 37/651
f 770/617 800/287 850/298
f 327/22 328/40 597/23
f 931/362 719/652 857/344
f 696/331 852/340 914/653
f 938/654 791/276 935/655
f 836/252 767/295 912/386
f 386/605 608/17 610/62
f 790/589 687/656 688/657
f 717/230 908/159 824/152
f 676/635 936/658 930/628
f 300/30 577/98 591/103
f 399/176 617/177 616/18
f 573/284 869/285 856/333
f 322/40 595/24 321/22
f 649/80 69/612 71/608
f 586/648 577/155 300/90
f 386/605 609/61 388/604
f 296/96 590/102 576/101
f 903/636 661/328 896/659
f 683/205 768/596 712/305
f 738/660 539/661 540/662
f 884/353 746/239 881/350
f 803/330 691/243 802/394
f 722/663 537/385 539/664
f 792/665 848/212 922/309
f 715/621 540/662 527/597
f 861/399 723/354 860/280
f 679/248 937/270 834/357
f 793/271 904/189 887/387
f 783/179 688/657 681/225
f 257/510 259/666 241/552
f 259/666 237/667 241/552
f 237/667 239/668 241/552
f 241/552 243/669 245/551
f 245/551 247/670 249/508
f 249/508 251/671 253/509
f 253/509 255/672 257/510
f 500/417 508/450 498/418
f 796/370 660/343 843/355
f 857/673 736/329 873/253
f 876/201 747/195 882/620
f 877/637 749/237 884/353
f 755/610 31/674 33/675
f 732/229 824/152 892/150
f 754/631 37/676 38/311
f 891/634 750/339 885/376
f 929/677 716/191 854/390
f 776/678 828/679 916/680
f 753/227 888/169 781/378
f 686/591 765/260 739/384
f 630/23 317/22 318/40
f 19/197 566/149 14/141
f 21/190 626/119 15/36
f 652/42 75/206 76/207
f 389/602 614/62 393/605
f 295/90 689/157 629/101
f 690/107 297/681 577/155
f 906/367 654/682 853/641
f 913/653 567/341 910/340
f 639/611 759/315 758/381
f 917/84 776/678 769/616
f 848/212 489/283 491/359
f 568/643 932/296 567/341
f 933/244 573/284 574/332
f 657/375 866/259 656/613
f 904/189 495/683 497/632
f 926/83 775/684 776/678
f 559/10 557/131 549/11
f 838/188 493/360 495/683
f 919/567 770/617 771/297
f 781/378 905/507 719/652
f 629/101 575/685 294/96
f 407/176 621/177 620/18
f 397/602 618/62 401/605
f 689/157 293/686 575/685
f 376/176 605/17 374/602
f 378/605 605/17 607/62
f 405/602 622/62 409/605
f 934/687 656/613 909/638
f 391/176 613/177 612/18
f 851/302 568/286 913/598
f 319/116 580/69 303/688
f 849/244 569/284 851/302
f 837/397 718/214 711/213
f 920/302 572/286 573/284
f 192/689 865/594 182/267
f 777/263 815/481 763/218
f 782/230 894/159 737/213
f 901/161 135/162 139/160
f 560/34 552/26 553/27
f 323/116 596/69 307/688
f 719/690 841/57 736/329
f 914/653 571/341 572/643
f 632/24 325/116 326/70
f 832/371 666/325 822/691
f 309/94 589/102 295/96
f 645/43 76/207 63/320
f 799/238 664/692 889/693
f 597/23 309/688 325/116
f 756/609 29/382 31/674
f 7/197 565/149 2/141
f 820/646 657/375 934/687
f 632/24 311/16 327/22
f 642/223 755/610 752/694
f 651/222 73/223 75/224
f 850/298 673/289 674/323
f 663/326 912/386 670/240
f 921/568 771/297 772/291
f 880/265 742/695 877/637
f 824/152 137/475 133/151
f 664/696 935/655 662/623
f 730/697 820/646 728/593
f 742/695 842/627 749/237
f 744/377 896/659 740/318
f 856/333 732/322 718/214
f 930/628 792/665 780/308
f 911/625 762/391 766/210
f 694/245 851/302 693/393
f 593/24 301/16 317/22
f 847/388 499/633 501/698
f 748/313 822/691 745/379
f 620/18 405/602 407/176
f 822/691 663/326 816/626
f 315/94 590/102 296/96
f 798/194 672/699 839/606
f 890/338 665/327 903/636
f 673/289 900/346 898/624
f 868/233 730/640 867/700
f 367/16 603/177 371/158
f 637/320 754/631 757/310
f 684/250 712/305 761/586
f 843/355 659/345 821/639
f 647/115 65/321 67/611
f 693/393 913/598 692/395
f 916/680 679/701 680/288
f 818/301 676/635 677/342
f 752/694 33/675 35/650
f 745/379 816/626 742/695
f 728/593 934/687 727/615
f 240/545 879/317 242/272
f 898/624 764/348 762/391
f 747/195 839/606 760/337
f 746/239 889/693 743/389
f 672/699 854/390 671/607
f 654/682 886/228 653/361
f 661/328 899/380 669/334
f 366/602 604/62 370/605
f 655/614 871/226 654/682
f 668/629 929/677 672/699
f 584/103 308/97 295/30
f 909/638 655/614 906/367
f 640/612 758/381 756/609
f 650/81 71/608 73/223
f 842/627 667/242 799/238
f 633/23 315/688 331/116
f 185/234 867/700 192/702
f 688/657 722/703 738/660
f 300/92 587/99 586/98
f 375/16 606/177 379/158
f 681/225 738/660 715/621
f 896/659 669/334 832/371
f 238/548 885/376 240/545
f 178/364 862/398 176/407
f 24/35 21/190 15/36
f 721/254 811/165 729/235
f 769/616 916/680 800/287
f 835/704 779/294 929/677
f 699/43 644/207 637/320
f 928/333 735/322 872/285
f 858/396 734/600 871/226
f 701/115 638/321 639/611
f 667/242 938/705 664/692
f 102/28 106/142 108/29
f 704/81 641/608 642/223
f 853/641 653/361 796/370
f 927/304 763/218 899/380
f 703/80 640/612 641/608
f 299/96 583/102 582/101
f 614/62 395/604 393/605
f 330/40 600/24 329/22
f 600/24 313/16 329/22
f 383/16 609/177 387/158
f 370/605 603/61 372/604
f 702/512 639/611 640/612
f 687/642 739/384 722/663
f 579/93 302/100 297/90
f 643/224 752/694 751/649
f 675/324 911/625 936/658
f 646/114 63/320 65/321
f 935/655 709/293 835/704
f 932/296 737/213 874/397
f 846/241 794/599 938/705
f 567/341 874/397 570/332
f 662/623 835/704 668/629
f 936/658 766/210 792/665
f 340/38 339/137 335/20
f 558/110 549/11 557/131
f 329/22 313/525 314/39
f 26/41 39/47 706/42
f 418/44 416/178 415/45
f 364/38 363/137 359/20
f 465/47 479/706 463/48
f 265/19 261/32 263/20
f 220/50 232/707 231/51
f 907/53 206/515 205/54
f 11/56 8/76 5/2
f 841/57 181/584 179/58
f 402/60 404/37 617/61
f 292/38 291/137 287/20
f 604/62 369/60 371/37
f 795/63 203/495 202/64
f 264/31 263/20 261/32
f 155/66 154/154 152/67
f 12/35 9/190 3/36
f 330/40 314/166 601/69
f 332/70 316/438 592/71
f 826/72 201/511 212/73
f 7/75 6/708 5/2
f 278/13 280/31 284/77
f 64/41 77/47 652/42
f 342/13 344/31 348/77
f 344/31 342/13 341/32
f 74/79 72/436 649/80
f 503/47 517/706 925/82
f 490/41 503/47 926/83
f 349/32 353/19 355/21
f 332/70 331/116 315/85
f 236/87 235/709 223/88
f 328/40 312/166 599/69
f 410/60 412/37 621/61
f 607/62 377/60 379/37
f 636/18 383/16 381/33
f 23/56 20/76 17/2
f 286/13 290/78 292/77
f 631/23 323/116 324/70
f 304/97 294/30 575/98
f 306/100 298/90 582/101
f 310/97 299/30 586/98
f 312/100 296/90 588/101
f 314/100 293/90 576/101
f 610/62 608/17 381/33
f 582/105 298/710 578/106
f 62/108 54/128 48/109
f 195/111 169/504 167/112
f 30/44 28/178 700/114
f 319/116 320/70 593/24
f 627/117 18/3 13/118
f 11/56 10/1 9/120
f 825/122 175/585 173/123
f 538/79 536/436 787/125
f 525/127 517/573 518/128
f 337/19 333/32 335/20
f 358/13 362/78 364/77
f 424/79 422/436 421/129
f 272/31 270/13 269/32
f 57/10 49/12 50/26
f 56/110 48/109 47/11
f 483/10 481/131 473/11
f 427/47 441/706 425/48
f 522/34 514/26 515/27
f 262/13 261/32 265/14
f 445/10 443/131 435/11
f 482/110 474/109 473/11
f 235/132 234/711 222/133
f 414/41 427/47 426/49
f 444/110 436/109 435/11
f 96/34 88/26 89/27
f 77/47 91/706 651/136
f 276/38 272/31 271/20
f 98/138 90/146 91/139
f 270/13 274/15 273/14
f 268/38 267/137 263/20
f 93/131 94/110 86/109
f 18/3 19/197 14/141
f 118/28 117/221 121/4
f 517/143 500/79 924/144
f 284/38 280/31 279/20
f 97/25 89/27 90/146
f 628/147 24/199 16/148
f 893/150 127/619 125/151
f 164/153 141/712 154/154
f 390/33 394/60 614/62
f 588/155 296/681 576/156
f 612/18 613/177 396/158
f 894/159 129/475 131/160
f 607/62 605/17 373/33
f 797/161 131/160 127/162
f 398/33 402/60 618/62
f 286/13 285/32 289/14
f 406/33 410/60 622/62
f 635/18 375/16 373/33
f 620/18 621/177 412/158
f 105/4 101/221 103/5
f 61/127 53/573 54/128
f 814/59 179/58 177/164
f 630/23 318/40 302/166
f 840/167 171/474 184/168
f 604/62 602/17 365/33
f 812/170 210/209 209/171
f 616/18 617/177 404/158
f 138/173 140/215 808/174
f 384/176 388/713 609/177
f 530/178 528/41 783/179
f 165/181 197/470 196/182
f 902/184 204/505 203/185
f 713/187 780/308 838/188
f 10/1 6/3 624/117
f 716/191 897/208 812/170
f 741/193 819/336 798/194
f 8/196 12/199 625/147
f 256/200 878/319 876/201
f 785/203 784/180 682/204
f 706/42 705/136 643/206
f 897/208 211/519 210/209
f 766/210 762/391 830/211
f 22/1 18/3 627/117
f 737/213 894/159 797/161
f 132/215 804/174 803/216
f 763/218 815/481 827/219
f 20/196 24/199 628/147
f 705/222 704/81 642/223
f 784/180 783/179 681/225
f 871/226 734/600 753/227
f 735/229 893/150 895/152
f 707/220 827/219 907/53
f 172/232 860/280 868/233
f 729/235 811/165 825/122
f 749/237 842/627 799/238
f 670/240 912/386 846/241
f 691/243 910/340 849/244
f 828/246 810/258 678/247
f 786/249 785/203 683/205
f 833/251 707/220 710/231
f 873/253 736/329 721/254
f 787/125 786/249 684/250
f 775/257 774/300 810/258
f 859/255 721/254 729/235
f 765/260 761/586 533/261
f 733/192 812/170 823/172
f 246/264 883/314 880/265
f 182/267 865/594 864/268
f 937/270 845/603 713/187
f 242/272 879/317 875/273
f 794/275 795/63 817/65
f 659/277 857/673 873/253
f 174/279 861/399 860/280
f 869/281 855/296 717/230
f 830/211 844/392 502/282
f 569/284 928/333 872/285
f 800/287 916/680 680/288
f 130/173 805/175 804/174
f 923/290 921/568 772/291
f 709/293 826/72 813/74
f 710/231 907/53 831/55
f 872/281 735/229 782/230
f 771/297 770/617 850/298
f 774/300 773/292 818/301
f 698/245 697/393 920/302
f 870/303 733/192 777/263
f 718/214 732/322 892/163
f 578/101 298/96 303/94
f 629/98 294/92 305/91
f 577/98 297/92 313/91
f 712/305 768/596 529/306
f 780/308 792/665 922/309
f 757/310 754/631 38/311
f 875/273 740/318 748/313
f 759/315 757/310 25/312
f 879/317 744/377 740/318
f 878/319 743/335 741/193
f 700/114 699/43 637/320
f 778/214 797/161 893/163
f 829/299 850/298 674/323
f 666/325 833/251 836/252
f 665/327 870/303 927/304
f 736/329 841/57 814/59
f 807/330 806/394 695/243
f 570/332 874/397 928/333
f 669/334 899/380 833/251
f 779/294 813/74 897/208
f 743/335 889/622 819/336
f 760/337 839/606 890/338
f 924/144 923/290 773/292
f 852/340 933/244 574/332
f 810/258 818/301 677/342
f 660/343 931/362 857/344
f 900/346 834/644 708/347
f 252/349 884/353 881/350
f 250/352 877/637 884/353
f 723/354 796/370 843/355
f 834/357 937/270 793/271
f 922/309 848/212 491/359
f 653/361 886/228 931/362
f 180/269 864/268 863/363
f 126/365 802/394 805/175
f 726/366 909/638 906/367
f 724/369 853/641 796/370
f 740/318 896/659 832/371
f 254/351 881/350 878/372
f 767/295 831/55 902/184
f 658/278 873/253 859/255
f 695/243 698/245 933/244
f 885/376 750/339 744/377
f 886/228 753/227 781/378
f 883/314 748/313 745/379
f 899/380 763/218 707/220
f 758/381 759/315 27/316
f 773/292 772/291 915/383
f 864/268 727/615 726/366
f 772/291 771/297 829/299
f 739/384 765/260 535/262
f 912/386 767/295 714/374
f 708/358 793/271 887/387
f 925/145 924/144 774/300
f 881/350 746/239 743/389
f 854/390 716/191 733/192
f 762/391 764/348 844/392
f 711/213 718/214 901/161
f 805/175 694/245 693/393
f 802/394 691/243 694/245
f 804/174 693/393 692/395
f 866/259 729/235 720/236
f 860/280 723/354 731/356
f 874/397 737/213 778/214
f 862/398 725/368 724/369
f 136/400 134/365 806/394
f 317/22 301/525 302/39
f 320/70 304/438 594/71
f 321/22 305/525 306/39
f 631/23 322/40 306/166
f 229/401 228/714 216/402
f 515/404 514/410 507/405
f 392/16 390/33 611/17
f 19/75 18/708 17/2
f 176/407 188/462 189/408
f 432/406 439/404 438/410
f 79/411 64/433 66/412
f 544/414 542/413 530/412
f 536/418 546/450 545/419
f 80/414 78/413 66/412
f 488/108 480/128 474/109
f 547/427 554/435 553/404
f 544/414 551/12 549/428
f 151/430 160/577 161/431
f 492/412 504/413 505/411
f 546/406 553/404 552/410
f 262/13 266/78 268/77
f 110/28 109/221 113/4
f 59/25 51/27 52/146
f 487/127 479/573 480/128
f 422/436 420/513 419/437
f 57/10 55/131 47/11
f 633/23 331/116 332/70
f 416/178 414/41 413/135
f 361/19 357/32 359/20
f 336/31 335/20 333/32
f 110/28 114/142 116/29
f 278/13 282/15 281/14
f 595/24 324/70 308/438
f 543/411 528/433 530/412
f 525/140 524/138 516/146
f 342/13 346/15 345/14
f 476/410 475/12 468/414
f 422/418 432/450 431/419
f 429/411 414/433 416/412
f 506/414 504/413 492/412
f 41/411 26/433 28/412
f 49/12 47/428 40/429
f 450/108 442/128 436/109
f 433/427 440/435 439/404
f 438/410 437/12 430/414
f 473/428 474/466 467/439
f 162/440 161/448 169/441
f 26/433 41/411 46/422
f 341/32 345/19 347/21
f 352/31 350/13 349/32
f 273/19 275/21 271/20
f 368/176 372/713 603/177
f 270/13 272/31 276/77
f 147/443 146/578 144/444
f 121/4 117/221 119/5
f 492/178 490/41 917/84
f 485/25 477/27 478/146
f 486/138 478/146 479/139
f 350/13 352/31 356/77
f 95/10 87/12 88/26
f 625/147 12/199 4/148
f 160/447 167/715 169/441
f 53/143 36/79 704/81
f 102/28 101/221 105/4
f 462/417 471/416 470/450
f 468/414 466/413 454/412
f 193/456 200/497 195/457
f 174/459 172/498 187/460
f 188/462 196/182 197/463
f 72/418 82/450 81/419
f 186/465 194/576 196/182
f 474/466 480/425 472/424
f 48/466 54/425 46/424
f 176/407 174/459 186/461
f 471/427 478/435 477/404
f 197/470 165/181 168/471
f 23/56 22/1 21/120
f 134/365 138/173 809/175
f 555/143 538/79 788/126
f 801/124 173/123 171/474
f 521/10 513/12 514/26
f 895/152 125/151 129/475
f 158/476 165/587 166/183
f 126/365 130/173 132/478
f 823/172 209/171 208/480
f 550/466 556/425 548/424
f 143/453 156/455 157/482
f 34/418 44/450 43/419
f 147/484 145/483 157/482
f 552/410 551/12 544/414
f 189/464 197/463 198/489
f 215/494 214/582 202/64
f 512/466 518/425 510/424
f 166/183 167/715 160/447
f 185/491 193/493 187/460
f 490/433 505/411 510/422
f 196/182 194/113 167/112
f 164/143 192/716 199/501
f 376/176 380/713 606/177
f 198/472 168/471 163/502
f 475/12 473/428 466/429
f 320/70 319/116 303/85
f 195/111 200/561 170/503
f 204/505 205/54 217/403
f 400/16 398/33 615/17
f 888/169 184/168 183/506
f 36/79 34/436 703/80
f 817/65 202/64 201/511
f 624/117 6/3 1/118
f 34/436 32/513 702/512
f 32/513 30/44 701/115
f 831/55 205/54 204/505
f 815/481 208/480 207/514
f 827/219 207/514 206/515
f 524/138 523/25 515/27
f 134/365 136/479 140/478
f 214/516 213/560 201/511
f 201/511 213/556 224/517
f 210/209 222/529 221/518
f 223/134 222/133 210/209
f 207/514 208/480 220/50
f 224/89 223/88 211/519
f 259/520 257/717 258/202
f 221/522 220/558 208/480
f 207/514 219/9 218/8
f 204/505 216/527 215/523
f 206/515 218/564 217/524
f 39/47 53/706 705/136
f 500/79 498/436 923/290
f 326/70 325/116 309/85
f 328/40 327/22 311/525
f 228/526 227/718 215/523
f 6/3 7/197 2/141
f 234/528 233/719 221/518
f 91/143 74/79 650/81
f 60/138 52/146 53/139
f 281/19 283/21 279/20
f 68/44 66/178 646/114
f 252/349 254/351 253/530
f 243/532 244/274 246/264
f 245/534 246/264 248/266
f 241/536 242/272 244/274
f 256/200 258/202 257/538
f 239/540 240/545 242/272
f 249/542 250/352 252/349
f 237/544 238/548 240/545
f 259/547 260/521 238/548
f 255/550 253/720 254/351
f 245/551 249/508 257/510
f 247/553 248/266 250/352
f 70/513 68/44 647/115
f 118/28 122/142 124/29
f 66/178 64/41 645/43
f 225/555 236/721 224/517
f 420/513 418/44 417/46
f 233/557 232/722 220/558
f 226/559 225/723 213/560
f 82/450 72/418 74/417
f 72/436 70/513 648/512
f 445/10 437/12 438/26
f 87/12 85/428 78/429
f 472/422 465/421 452/433
f 467/411 452/433 454/412
f 506/414 494/44 496/420
f 460/418 470/450 469/419
f 42/414 40/413 28/412
f 200/561 192/724 164/562
f 549/428 550/466 543/439
f 42/414 30/44 32/420
f 85/428 86/466 79/439
f 86/466 92/425 84/424
f 476/410 469/405 470/406
f 334/13 338/78 340/77
f 447/25 439/27 440/146
f 230/563 229/725 217/524
f 99/127 91/573 92/128
f 460/436 458/513 457/437
f 446/34 438/26 439/27
f 448/138 440/146 441/139
f 153/68 152/67 150/565
f 348/38 344/31 343/20
f 456/44 454/178 453/45
f 458/513 456/44 455/46
f 454/178 452/41 451/135
f 452/41 465/47 464/49
f 432/450 422/418 424/417
f 358/13 357/32 361/14
f 496/513 494/44 919/567
f 437/12 435/428 428/429
f 82/406 89/404 88/410
f 180/569 190/588 191/488
f 430/414 418/44 420/420
f 153/432 161/431 162/452
f 430/414 428/413 416/412
f 100/108 92/128 86/109
f 83/427 90/435 89/404
f 88/410 87/12 80/414
f 47/428 48/466 41/439
f 436/466 442/425 434/424
f 44/406 51/404 50/410
f 479/143 462/79 461/130
f 151/566 150/565 148/571
f 350/13 354/15 353/14
f 442/128 450/108 449/127
f 494/44 492/178 918/446
f 145/445 144/444 142/574
f 356/38 352/31 351/20
f 526/108 518/128 512/109
f 143/575 142/574 141/140
f 483/10 475/12 476/26
f 484/34 476/26 477/27
f 326/70 310/438 598/71
f 559/10 551/12 552/26
f 186/465 187/458 195/457
f 360/31 359/20 357/32
f 280/31 278/13 277/32
f 514/410 513/12 506/414
f 198/489 199/500 191/499
f 508/450 507/419 496/420
f 151/430 149/477 159/572
f 414/433 429/411 434/422
f 544/414 532/44 534/420
f 149/572 148/571 146/578
f 548/422 541/421 528/433
f 147/484 158/485 159/572
f 156/467 163/469 168/579
f 515/404 508/406 509/427
f 504/429 511/428 512/466
f 498/436 496/513 921/568
f 462/79 460/436 459/129
f 441/143 424/79 423/130
f 227/581 226/726 214/582
f 534/513 532/44 785/203
f 813/74 212/73 211/519
f 905/583 183/727 181/584
f 140/215 136/217 807/216
f 28/178 26/41 699/43
f 532/44 530/178 784/180
f 520/110 512/109 511/11
f 323/116 307/85 308/86
f 562/138 554/146 555/139
f 44/450 34/418 36/417
f 811/165 177/164 175/585
f 558/110 564/108 556/128
f 506/414 513/12 511/428
f 685/256 684/250 761/586
f 158/476 157/580 168/579
f 468/414 456/44 458/420
f 79/411 84/422 77/421
f 80/414 68/44 70/420
f 610/62 385/60 387/37
f 546/450 536/418 538/417
f 50/410 49/12 42/414
f 45/427 52/435 51/404
f 435/428 436/466 429/439
f 180/569 178/409 189/408
f 528/41 541/47 790/589
f 541/47 555/706 789/590
f 394/60 396/37 613/61
f 536/436 534/513 786/249
f 564/108 563/127 555/573
f 561/25 553/27 554/146
f 521/10 519/131 511/11
f 788/126 787/125 685/256
f 867/592 730/697 728/593
f 764/348 708/347 847/595
f 768/596 715/621 527/597
f 697/393 696/395 914/598
f 714/374 902/184 795/186
f 910/340 567/341 570/332
f 720/236 825/122 801/124
f 384/176 636/18 608/17
f 678/247 677/342 845/603
f 618/62 617/61 403/604
f 574/332 573/284 856/333
f 622/62 621/61 411/604
f 761/586 712/305 531/307
f 571/341 574/332 837/397
f 839/606 672/699 671/607
f 641/608 640/612 756/609
f 648/512 647/115 67/611
f 244/274 875/273 883/314
f 656/613 866/259 858/396
f 806/394 809/175 698/245
f 865/594 728/593 727/615
f 734/600 801/124 840/167
f 918/446 917/84 769/616
f 176/407 862/398 861/399
f 844/392 847/595 501/618
f 791/276 817/65 826/72
f 855/296 837/397 711/213
f 808/174 807/216 696/395
f 908/159 901/161 139/160
f 612/18 611/17 389/602
f 892/150 824/152 133/151
f 258/202 876/201 882/620
f 368/176 634/18 602/17
f 682/204 681/225 715/621
f 311/91 598/104 587/99
f 889/622 664/696 662/623
f 307/94 596/95 583/102
f 378/605 607/62 606/61
f 863/363 726/366 725/368
f 674/323 673/289 898/624
f 816/626 663/326 670/240
f 677/342 676/635 930/628
f 819/336 662/623 668/629
f 644/207 643/206 751/630
f 887/387 904/189 497/632
f 128/400 803/330 802/394
f 260/521 882/620 891/634
f 882/620 747/195 760/337
f 671/607 854/390 870/303
f 692/331 913/653 910/340
f 915/383 829/299 675/324
f 750/339 890/338 903/636
f 248/266 880/265 877/637
f 727/615 934/687 909/638
f 731/356 843/355 821/639
f 725/368 906/367 853/641
f 845/603 930/628 780/308
f 809/175 808/174 697/393
f 789/473 788/126 686/591
f 572/643 571/341 855/296
f 680/288 679/701 834/644
f 638/321 637/320 757/310
f 821/645 659/277 658/278
f 301/91 594/104 581/99
f 299/647 582/105 690/107
f 616/18 615/17 397/602
f 9/190 624/117 623/119
f 591/103 592/104 316/97
f 321/22 595/24 585/71
f 751/649 752/694 35/650
f 770/617 769/616 800/287
f 931/362 781/378 719/652
f 696/331 695/243 852/340
f 938/654 794/275 791/276
f 836/252 710/231 767/295
f 386/605 382/602 608/17
f 790/589 789/590 687/656
f 717/230 711/213 908/159
f 676/635 675/324 936/658
f 399/176 403/713 617/177
f 573/284 572/286 869/285
f 322/40 631/23 595/24
f 649/80 648/512 69/612
f 586/648 690/107 577/155
f 386/605 610/62 609/61
f 903/636 665/327 661/328
f 683/205 682/204 768/596
f 738/660 722/703 539/661
f 884/353 749/237 746/239
f 803/330 692/331 691/243
f 722/663 739/384 537/385
f 792/665 766/210 848/212
f 715/621 738/660 540/662
f 861/399 724/369 723/354
f 679/248 678/247 937/270
f 793/271 713/187 904/189
f 783/179 790/589 688/657
f 500/417 509/416 508/450
f 796/370 653/361 660/343
f 857/673 719/690 736/329
f 876/201 741/193 747/195
f 877/637 742/695 749/237
f 755/610 756/609 31/674
f 732/229 717/230 824/152
f 754/631 751/630 37/676
f 891/634 760/337 750/339
f 929/677 779/294 716/191
f 776/678 775/684 828/679
f 753/227 840/167 888/169
f 686/591 685/256 765/260
f 630/23 593/24 317/22
f 19/197 628/147 566/149
f 21/190 627/117 626/119
f 652/42 651/136 75/206
f 389/602 611/17 614/62
f 295/90 588/155 689/157
f 690/107 578/106 297/681
f 906/367 655/614 654/682
f 913/653 568/643 567/341
f 639/611 638/321 759/315
f 917/84 926/83 776/678
f 848/212 830/211 489/283
f 568/643 872/281 932/296
f 933/244 920/302 573/284
f 657/375 859/255 866/259
f 904/189 838/188 495/683
f 926/83 925/82 775/684
f 838/188 922/309 493/360
f 919/567 918/446 770/617
f 781/378 888/169 905/507
f 629/101 689/157 575/685
f 407/176 411/713 621/177
f 397/602 615/17 618/62
f 689/157 576/156 293/686
f 376/176 635/18 605/17
f 378/605 374/602 605/17
f 405/602 619/17 622/62
f 934/687 657/375 656/613
f 391/176 395/713 613/177
f 851/302 569/284 568/286
f 319/116 630/23 580/69
f 849/244 570/332 569/284
f 837/397 856/333 718/214
f 920/302 914/598 572/286
f 192/689 867/592 865/594
f 777/263 823/172 815/481
f 782/230 895/152 894/159
f 901/161 892/163 135/162
f 323/116 631/23 596/69
f 719/690 905/583 841/57
f 914/653 852/340 571/341
f 632/24 597/23 325/116
f 832/371 669/334 666/325
f 309/94 599/95 589/102
f 645/43 652/42 76/207
f 799/238 667/242 664/692
f 597/23 599/69 309/688
f 756/609 758/381 29/382
f 7/197 625/147 565/149
f 820/646 658/278 657/375
f 632/24 598/71 311/16
f 642/223 641/608 755/610
f 651/222 650/81 73/223
f 850/298 800/287 673/289
f 663/326 836/252 912/386
f 921/568 919/567 771/297
f 880/265 745/379 742/695
f 824/152 908/159 137/475
f 664/696 938/654 935/655
f 730/697 821/645 820/646
f 742/695 816/626 842/627
f 744/377 903/636 896/659
f 856/333 869/285 732/322
f 930/628 936/658 792/665
f 911/625 898/624 762/391
f 694/245 849/244 851/302
f 593/24 594/71 301/16
f 847/388 887/387 499/633
f 748/313 832/371 822/691
f 620/18 619/17 405/602
f 822/691 666/325 663/326
f 315/94 601/95 590/102
f 798/194 668/629 672/699
f 890/338 671/607 665/327
f 673/289 680/288 900/346
f 868/233 731/356 730/640
f 367/16 634/18 603/177
f 637/320 644/207 754/631
f 684/250 683/205 712/305
f 843/355 660/343 659/345
f 647/115 646/114 65/321
f 693/393 851/302 913/598
f 916/680 828/679 679/701
f 818/301 915/383 676/635
f 752/694 755/610 33/675
f 745/379 822/691 816/626
f 728/593 820/646 934/687
f 240/545 885/376 879/317
f 898/624 900/346 764/348
f 747/195 798/194 839/606
f 746/239 799/238 889/693
f 672/699 929/677 854/390
f 654/682 871/226 886/228
f 661/328 927/304 899/380
f 366/602 602/17 604/62
f 655/614 858/396 871/226
f 668/629 835/704 929/677
f 584/103 585/104 308/97
f 909/638 656/613 655/614
f 640/612 639/611 758/381
f 650/81 649/80 71/608
f 842/627 670/240 667/242
f 633/23 601/69 315/688
f 185/234 868/233 867/700
f 688/657 687/656 722/703
f 375/16 635/18 606/177
f 681/225 688/657 738/660
f 896/659 661/328 669/334
f 238/548 891/634 885/376
f 178/364 863/363 862/398
f 721/254 814/59 811/165
f 769/616 776/678 916/680
f 835/704 709/293 779/294
f 699/43 706/42 644/207
f 928/333 778/214 735/322
f 858/396 720/236 734/600
f 701/115 700/114 638/321
f 667/242 846/241 938/705
f 704/81 703/80 641/608
f 853/641 654/682 653/361
f 927/304 777/263 763/218
f 703/80 702/512 640/612
f 614/62 613/61 395/604
f 330/40 633/23 600/24
f 600/24 592/71 313/16
f 383/16 636/18 609/177
f 370/605 604/62 603/61
f 702/512 701/115 639/611
f 687/642 686/591 739/384
f 579/93 580/95 302/100
f 643/224 642/223 752/694
f 675/324 674/323 911/625
f 646/114 645/43 63/320
f 935/655 791/276 709/293
f 932/296 782/230 737/213
f 846/241 714/374 794/599
f 567/341 932/296 874/397
f 662/623 935/655 835/704
f 936/658 911/625 766/210
f 558/110 550/109 549/11
