o Plane
v -1.5 0.125 1.375
v 1.5 0.125 1.375
v -1.5 0.125 -1.375
v 1.5 0.125 -1.375
v -1.5 1.875 1.375
v 1.5 1.875 1.375
v -1.5 1.875 -1.375
v 1.5 1.875 -1.375
v -1.375 0.125 -1.5
v -1.375 0.125 1.5
v 1.375 0.125 1.5
v 1.375 0.125 -1.5
v -1.375 1.875 -1.5
v -1.375 1.875 1.5
v 1.375 1.875 1.5
v 1.375 1.875 -1.5
v -1.5 0 1.5
v 1.5 0 1.5
v 1.5 -0 -1.5
v -1.5 -0 -1.5
v -0.5 2 0.5
v 0.5 2 0.5
v 0.5 2 -0.5
v -0.5 2 -0.5
v 1.375 0.25 1.125
v 1.375 0.25 -1.125
v 1.375 1.75 1.125
v 1.375 1.75 -1.125
v -0.375 1.75 -1.375
v -0.375 0.25 -1.375
v 0.375 1.75 -1.375
v 0.375 0.25 -1.375
v -1.5 2 -1.5
v -1.5 2 1.5
v 1.5 2 1.5
v 1.5 2 -1.5
v -0.4375 1.9375 -0.4375
v -0.4375 1.9375 0.4375
v 0.4375 1.9375 0.4375
v 0.4375 1.9375 -0.4375
v -0.5 1.9375 -0.5
v -0.5 1.9375 0.5
v 0.5 1.9375 0.5
v 0.5 1.9375 -0.5
v -0.4375 2 -0.4375
v -0.4375 2 0.4375
v 0.4375 2 0.4375
v 0.4375 2 -0.4375
v 1.5 0.25 0.25
v 1.5 0.75 0.25
v 1.5 0.25 -0.25
v 1.5 0.75 -0.25
v 1.375 0.25 -0.25
v 1.375 0.25 0.25
v 1.375 0.75 0.25
v 1.375 0.75 -0.25
v -1.5 0.25 -0.25
v -1.5 0.75 -0.25
v -1.5 0.25 0.25
v -1.5 0.75 0.25
v -1.375 0.25 0.25
v -1.375 0.25 -0.25
v -1.375 0.75 -0.25
v -1.375 0.75 0.25
v 0.25 0.25 -1.5
v 0.25 0.75 -1.5
v -0.25 0.25 -1.5
v -0.25 0.75 -1.5
v -0.25 0.25 -1.375
v 0.25 0.25 -1.375
v 0.25 0.75 -1.375
v -0.25 0.75 -1.375
v -0.25 0.25 1.5
v -0.25 0.75 1.5
v 0.25 0.25 1.5
v 0.25 0.75 1.5
v 0.25 0.25 1.375
v -0.25 0.25 1.375
v -0.25 0.75 1.375
v 0.25 0.75 1.375
v 1.375 0.125 1.375
v 1.375 0.125 -1.375
v 1.375 1.875 1.375
v 1.375 1.875 -1.375
v 1.375 0.25 0.375
v 1.375 1.75 0.375
v 1.375 0.25 -0.375
v 1.375 1.75 -0.375
v 1.125 1.75 -1.125
v 1.125 0.25 -1.125
v 1.125 0.25 1.125
v 1.125 1.75 1.125
v 1.125 1.75 0.375
v 1.125 0.25 0.375
v 1.125 1.75 -0.375
v 1.125 0.25 -0.375
v -1.375 0.25 -1.125
v -1.375 0.25 1.125
v -1.375 1.75 -1.125
v -1.375 1.75 1.125
v -1.375 0.125 -1.375
v -1.375 0.125 1.375
v -1.375 1.875 -1.375
v -1.375 1.875 1.375
v -1.375 0.25 -0.375
v -1.375 1.75 -0.375
v -1.375 0.25 0.375
v -1.375 1.75 0.375
v -1.125 1.75 1.125
v -1.125 0.25 1.125
v -1.125 0.25 -1.125
v -1.125 1.75 -1.125
v -1.125 1.75 -0.375
v -1.125 0.25 -0.375
v -1.125 1.75 0.375
v -1.125 0.25 0.375
v 0.375 1.75 -1.125
v 0.375 0.25 -1.125
v -0.375 1.75 -1.125
v -0.375 0.25 -1.125
v -0.375 0.25 1.375
v -0.375 1.75 1.375
v 0.375 0.25 1.375
v 0.375 1.75 1.375
v -0.375 1.75 1.125
v -0.375 0.25 1.125
v 0.375 1.75 1.125
v 0.375 0.25 1.125
v 1.125 0.25 1.375
v 1.125 1.75 1.375
v -1.125 1.75 1.375
v -1.125 0.25 1.375
v 1.125 1.75 -1.375
v 1.125 0.25 -1.375
v -1.125 0.25 -1.375
v -1.125 1.75 -1.375
v -0.8125 0.375 -1.125
v -0.8491 0.4634 -1.125
v -0.9375 0.5 -1.125
v -1.0259 0.4634 -1.125
v -1.0625 0.375 -1.125
v -1.0259 0.2866 -1.125
v -0.9375 0.25 -1.125
v -0.8491 0.2866 -1.125
v -0.8125 0.375 -1.375
v -0.8491 0.4634 -1.375
v -0.9375 0.5 -1.375
v -1.0259 0.4634 -1.375
v -1.0625 0.375 -1.375
v -1.0259 0.2866 -1.375
v -0.9375 0.25 -1.375
v -0.8491 0.2866 -1.375
v -0.8125 0.4116 -1.4634
v -0.8491 0.4741 -1.4009
v -1.0259 0.4741 -1.4009
v -1.0625 0.4116 -1.4634
v -1.0259 0.3491 -1.5259
v -0.9375 0.3232 -1.5518
v -0.8491 0.3491 -1.5259
v -0.8125 0.5 -1.5
v -0.8491 0.5 -1.4116
v -1.0259 0.5 -1.4116
v -1.0625 0.5 -1.5
v -1.0259 0.5 -1.5884
v -0.9375 0.5 -1.625
v -0.8491 0.5 -1.5884
v -1.0625 1.625 -1.125
v -1.0259 1.5366 -1.125
v -0.9375 1.5 -1.125
v -0.8491 1.5366 -1.125
v -0.8125 1.625 -1.125
v -0.8491 1.7134 -1.125
v -0.9375 1.75 -1.125
v -1.0259 1.7134 -1.125
v -1.0625 1.625 -1.375
v -1.0259 1.5366 -1.375
v -0.9375 1.5 -1.375
v -0.8491 1.5366 -1.375
v -0.8125 1.625 -1.375
v -0.8491 1.7134 -1.375
v -0.9375 1.75 -1.375
v -1.0259 1.7134 -1.375
v -1.0625 1.5884 -1.4634
v -1.0259 1.5259 -1.4009
v -0.8491 1.5259 -1.4009
v -0.8125 1.5884 -1.4634
v -0.8491 1.6509 -1.5259
v -0.9375 1.6768 -1.5518
v -1.0259 1.6509 -1.5259
v -1.0625 1.5 -1.5
v -1.0259 1.5 -1.4116
v -0.8491 1.5 -1.4116
v -0.8125 1.5 -1.5
v -0.8491 1.5 -1.5884
v -0.9375 1.5 -1.625
v -1.0259 1.5 -1.5884
v -0.4375 0.375 -1.125
v -0.4741 0.4634 -1.125
v -0.5625 0.5 -1.125
v -0.6509 0.4634 -1.125
v -0.6875 0.375 -1.125
v -0.6509 0.2866 -1.125
v -0.5625 0.25 -1.125
v -0.4741 0.2866 -1.125
v -0.4375 0.375 -1.375
v -0.4741 0.4634 -1.375
v -0.5625 0.5 -1.375
v -0.6509 0.4634 -1.375
v -0.6875 0.375 -1.375
v -0.6509 0.2866 -1.375
v -0.5625 0.25 -1.375
v -0.4741 0.2866 -1.375
v -0.4375 0.4116 -1.4634
v -0.4741 0.4741 -1.4009
v -0.6509 0.4741 -1.4009
v -0.6875 0.4116 -1.4634
v -0.6509 0.3491 -1.5259
v -0.5625 0.3232 -1.5518
v -0.4741 0.3491 -1.5259
v -0.4375 0.5 -1.5
v -0.4741 0.5 -1.4116
v -0.6509 0.5 -1.4116
v -0.6875 0.5 -1.5
v -0.6509 0.5 -1.5884
v -0.5625 0.5 -1.625
v -0.4741 0.5 -1.5884
v -0.6875 1.625 -1.125
v -0.6509 1.5366 -1.125
v -0.5625 1.5 -1.125
v -0.4741 1.5366 -1.125
v -0.4375 1.625 -1.125
v -0.4741 1.7134 -1.125
v -0.5625 1.75 -1.125
v -0.6509 1.7134 -1.125
v -0.6875 1.625 -1.375
v -0.6509 1.5366 -1.375
v -0.5625 1.5 -1.375
v -0.4741 1.5366 -1.375
v -0.4375 1.625 -1.375
v -0.4741 1.7134 -1.375
v -0.5625 1.75 -1.375
v -0.6509 1.7134 -1.375
v -0.6875 1.5884 -1.4634
v -0.6509 1.5259 -1.4009
v -0.4741 1.5259 -1.4009
v -0.4375 1.5884 -1.4634
v -0.4741 1.6509 -1.5259
v -0.5625 1.6768 -1.5518
v -0.6509 1.6509 -1.5259
v -0.6875 1.5 -1.5
v -0.6509 1.5 -1.4116
v -0.4741 1.5 -1.4116
v -0.4375 1.5 -1.5
v -0.4741 1.5 -1.5884
v -0.5625 1.5 -1.625
v -0.6509 1.5 -1.5884
v 0.6875 0.375 -1.125
v 0.6509 0.4634 -1.125
v 0.5625 0.5 -1.125
v 0.4741 0.4634 -1.125
v 0.4375 0.375 -1.125
v 0.4741 0.2866 -1.125
v 0.5625 0.25 -1.125
v 0.6509 0.2866 -1.125
v 0.6875 0.375 -1.375
v 0.6509 0.4634 -1.375
v 0.5625 0.5 -1.375
v 0.4741 0.4634 -1.375
v 0.4375 0.375 -1.375
v 0.4741 0.2866 -1.375
v 0.5625 0.25 -1.375
v 0.6509 0.2866 -1.375
v 0.6875 0.4116 -1.4634
v 0.6509 0.4741 -1.4009
v 0.4741 0.4741 -1.4009
v 0.4375 0.4116 -1.4634
v 0.4741 0.3491 -1.5259
v 0.5625 0.3232 -1.5518
v 0.6509 0.3491 -1.5259
v 0.6875 0.5 -1.5
v 0.6509 0.5 -1.4116
v 0.4741 0.5 -1.4116
v 0.4375 0.5 -1.5
v 0.4741 0.5 -1.5884
v 0.5625 0.5 -1.625
v 0.6509 0.5 -1.5884
v 0.4375 1.625 -1.125
v 0.4741 1.5366 -1.125
v 0.5625 1.5 -1.125
v 0.6509 1.5366 -1.125
v 0.6875 1.625 -1.125
v 0.6509 1.7134 -1.125
v 0.5625 1.75 -1.125
v 0.4741 1.7134 -1.125
v 0.4375 1.625 -1.375
v 0.4741 1.5366 -1.375
v 0.5625 1.5 -1.375
v 0.6509 1.5366 -1.375
v 0.6875 1.625 -1.375
v 0.6509 1.7134 -1.375
v 0.5625 1.75 -1.375
v 0.4741 1.7134 -1.375
v 0.4375 1.5884 -1.4634
v 0.4741 1.5259 -1.4009
v 0.6509 1.5259 -1.4009
v 0.6875 1.5884 -1.4634
v 0.6509 1.6509 -1.5259
v 0.5625 1.6768 -1.5518
v 0.4741 1.6509 -1.5259
v 0.4375 1.5 -1.5
v 0.4741 1.5 -1.4116
v 0.6509 1.5 -1.4116
v 0.6875 1.5 -1.5
v 0.6509 1.5 -1.5884
v 0.5625 1.5 -1.625
v 0.4741 1.5 -1.5884
v 1.0625 0.375 -1.125
v 1.0259 0.4634 -1.125
v 0.9375 0.5 -1.125
v 0.8491 0.4634 -1.125
v 0.8125 0.375 -1.125
v 0.8491 0.2866 -1.125
v 0.9375 0.25 -1.125
v 1.0259 0.2866 -1.125
v 1.0625 0.375 -1.375
v 1.0259 0.4634 -1.375
v 0.9375 0.5 -1.375
v 0.8491 0.4634 -1.375
v 0.8125 0.375 -1.375
v 0.8491 0.2866 -1.375
v 0.9375 0.25 -1.375
v 1.0259 0.2866 -1.375
v 1.0625 0.4116 -1.4634
v 1.0259 0.4741 -1.4009
v 0.8491 0.4741 -1.4009
v 0.8125 0.4116 -1.4634
v 0.8491 0.3491 -1.5259
v 0.9375 0.3232 -1.5518
v 1.0259 0.3491 -1.5259
v 1.0625 0.5 -1.5
v 1.0259 0.5 -1.4116
v 0.8491 0.5 -1.4116
v 0.8125 0.5 -1.5
v 0.8491 0.5 -1.5884
v 0.9375 0.5 -1.625
v 1.0259 0.5 -1.5884
v 0.8125 1.625 -1.125
v 0.8491 1.5366 -1.125
v 0.9375 1.5 -1.125
v 1.0259 1.5366 -1.125
v 1.0625 1.625 -1.125
v 1.0259 1.7134 -1.125
v 0.9375 1.75 -1.125
v 0.8491 1.7134 -1.125
v 0.8125 1.625 -1.375
v 0.8491 1.5366 -1.375
v 0.9375 1.5 -1.375
v 1.0259 1.5366 -1.375
v 1.0625 1.625 -1.375
v 1.0259 1.7134 -1.375
v 0.9375 1.75 -1.375
v 0.8491 1.7134 -1.375
v 0.8125 1.5884 -1.4634
v 0.8491 1.5259 -1.4009
v 1.0259 1.5259 -1.4009
v 1.0625 1.5884 -1.4634
v 1.0259 1.6509 -1.5259
v 0.9375 1.6768 -1.5518
v 0.8491 1.6509 -1.5259
v 0.8125 1.5 -1.5
v 0.8491 1.5 -1.4116
v 1.0259 1.5 -1.4116
v 1.0625 1.5 -1.5
v 1.0259 1.5 -1.5884
v 0.9375 1.5 -1.625
v 0.8491 1.5 -1.5884
v 0.8125 0.375 1.125
v 0.8491 0.4634 1.125
v 0.9375 0.5 1.125
v 1.0259 0.4634 1.125
v 1.0625 0.375 1.125
v 1.0259 0.2866 1.125
v 0.9375 0.25 1.125
v 0.8491 0.2866 1.125
v 0.8125 0.375 1.375
v 0.8491 0.4634 1.375
v 0.9375 0.5 1.375
v 1.0259 0.4634 1.375
v 1.0625 0.375 1.375
v 1.0259 0.2866 1.375
v 0.9375 0.25 1.375
v 0.8491 0.2866 1.375
v 0.8125 0.4116 1.4634
v 0.8491 0.4741 1.4009
v 1.0259 0.4741 1.4009
v 1.0625 0.4116 1.4634
v 1.0259 0.3491 1.5259
v 0.9375 0.3232 1.5518
v 0.8491 0.3491 1.5259
v 0.8125 0.5 1.5
v 0.8491 0.5 1.4116
v 1.0259 0.5 1.4116
v 1.0625 0.5 1.5
v 1.0259 0.5 1.5884
v 0.9375 0.5 1.625
v 0.8491 0.5 1.5884
v 1.0625 1.625 1.125
v 1.0259 1.5366 1.125
v 0.9375 1.5 1.125
v 0.8491 1.5366 1.125
v 0.8125 1.625 1.125
v 0.8491 1.7134 1.125
v 0.9375 1.75 1.125
v 1.0259 1.7134 1.125
v 1.0625 1.625 1.375
v 1.0259 1.5366 1.375
v 0.9375 1.5 1.375
v 0.8491 1.5366 1.375
v 0.8125 1.625 1.375
v 0.8491 1.7134 1.375
v 0.9375 1.75 1.375
v 1.0259 1.7134 1.375
v 1.0625 1.5884 1.4634
v 1.0259 1.5259 1.4009
v 0.8491 1.5259 1.4009
v 0.8125 1.5884 1.4634
v 0.8491 1.6509 1.5259
v 0.9375 1.6768 1.5518
v 1.0259 1.6509 1.5259
v 1.0625 1.5 1.5
v 1.0259 1.5 1.4116
v 0.8491 1.5 1.4116
v 0.8125 1.5 1.5
v 0.8491 1.5 1.5884
v 0.9375 1.5 1.625
v 1.0259 1.5 1.5884
v 0.4375 0.375 1.125
v 0.4741 0.4634 1.125
v 0.5625 0.5 1.125
v 0.6509 0.4634 1.125
v 0.6875 0.375 1.125
v 0.6509 0.2866 1.125
v 0.5625 0.25 1.125
v 0.4741 0.2866 1.125
v 0.4375 0.375 1.375
v 0.4741 0.4634 1.375
v 0.5625 0.5 1.375
v 0.6509 0.4634 1.375
v 0.6875 0.375 1.375
v 0.6509 0.2866 1.375
v 0.5625 0.25 1.375
v 0.4741 0.2866 1.375
v 0.4375 0.4116 1.4634
v 0.4741 0.4741 1.4009
v 0.6509 0.4741 1.4009
v 0.6875 0.4116 1.4634
v 0.6509 0.3491 1.5259
v 0.5625 0.3232 1.5518
v 0.4741 0.3491 1.5259
v 0.4375 0.5 1.5
v 0.4741 0.5 1.4116
v 0.6509 0.5 1.4116
v 0.6875 0.5 1.5
v 0.6509 0.5 1.5884
v 0.5625 0.5 1.625
v 0.4741 0.5 1.5884
v 0.6875 1.625 1.125
v 0.6509 1.5366 1.125
v 0.5625 1.5 1.125
v 0.4741 1.5366 1.125
v 0.4375 1.625 1.125
v 0.4741 1.7134 1.125
v 0.5625 1.75 1.125
v 0.6509 1.7134 1.125
v 0.6875 1.625 1.375
v 0.6509 1.5366 1.375
v 0.5625 1.5 1.375
v 0.4741 1.5366 1.375
v 0.4375 1.625 1.375
v 0.4741 1.7134 1.375
v 0.5625 1.75 1.375
v 0.6509 1.7134 1.375
v 0.6875 1.5884 1.4634
v 0.6509 1.5259 1.4009
v 0.4741 1.5259 1.4009
v 0.4375 1.5884 1.4634
v 0.4741 1.6509 1.5259
v 0.5625 1.6768 1.5518
v 0.6509 1.6509 1.5259
v 0.6875 1.5 1.5
v 0.6509 1.5 1.4116
v 0.4741 1.5 1.4116
v 0.4375 1.5 1.5
v 0.4741 1.5 1.5884
v 0.5625 1.5 1.625
v 0.6509 1.5 1.5884
v -0.6875 0.375 1.125
v -0.6509 0.4634 1.125
v -0.5625 0.5 1.125
v -0.4741 0.4634 1.125
v -0.4375 0.375 1.125
v -0.4741 0.2866 1.125
v -0.5625 0.25 1.125
v -0.6509 0.2866 1.125
v -0.6875 0.375 1.375
v -0.6509 0.4634 1.375
v -0.5625 0.5 1.375
v -0.4741 0.4634 1.375
v -0.4375 0.375 1.375
v -0.4741 0.2866 1.375
v -0.5625 0.25 1.375
v -0.6509 0.2866 1.375
v -0.6875 0.4116 1.4634
v -0.6509 0.4741 1.4009
v -0.4741 0.4741 1.4009
v -0.4375 0.4116 1.4634
v -0.4741 0.3491 1.5259
v -0.5625 0.3232 1.5518
v -0.6509 0.3491 1.5259
v -0.6875 0.5 1.5
v -0.6509 0.5 1.4116
v -0.4741 0.5 1.4116
v -0.4375 0.5 1.5
v -0.4741 0.5 1.5884
v -0.5625 0.5 1.625
v -0.6509 0.5 1.5884
v -0.4375 1.625 1.125
v -0.4741 1.5366 1.125
v -0.5625 1.5 1.125
v -0.6509 1.5366 1.125
v -0.6875 1.625 1.125
v -0.6509 1.7134 1.125
v -0.5625 1.75 1.125
v -0.4741 1.7134 1.125
v -0.4375 1.625 1.375
v -0.4741 1.5366 1.375
v -0.5625 1.5 1.375
v -0.6509 1.5366 1.375
v -0.6875 1.625 1.375
v -0.6509 1.7134 1.375
v -0.5625 1.75 1.375
v -0.4741 1.7134 1.375
v -0.4375 1.5884 1.4634
v -0.4741 1.5259 1.4009
v -0.6509 1.5259 1.4009
v -0.6875 1.5884 1.4634
v -0.6509 1.6509 1.5259
v -0.5625 1.6768 1.5518
v -0.4741 1.6509 1.5259
v -0.4375 1.5 1.5
v -0.4741 1.5 1.4116
v -0.6509 1.5 1.4116
v -0.6875 1.5 1.5
v -0.6509 1.5 1.5884
v -0.5625 1.5 1.625
v -0.4741 1.5 1.5884
v -1.0625 0.375 1.125
v -1.0259 0.4634 1.125
v -0.9375 0.5 1.125
v -0.8491 0.4634 1.125
v -0.8125 0.375 1.125
v -0.8491 0.2866 1.125
v -0.9375 0.25 1.125
v -1.0259 0.2866 1.125
v -1.0625 0.375 1.375
v -1.0259 0.4634 1.375
v -0.9375 0.5 1.375
v -0.8491 0.4634 1.375
v -0.8125 0.375 1.375
v -0.8491 0.2866 1.375
v -0.9375 0.25 1.375
v -1.0259 0.2866 1.375
v -1.0625 0.4116 1.4634
v -1.0259 0.4741 1.4009
v -0.8491 0.4741 1.4009
v -0.8125 0.4116 1.4634
v -0.8491 0.3491 1.5259
v -0.9375 0.3232 1.5518
v -1.0259 0.3491 1.5259
v -1.0625 0.5 1.5
v -1.0259 0.5 1.4116
v -0.8491 0.5 1.4116
v -0.8125 0.5 1.5
v -0.8491 0.5 1.5884
v -0.9375 0.5 1.625
v -1.0259 0.5 1.5884
v -0.8125 1.625 1.125
v -0.8491 1.5366 1.125
v -0.9375 1.5 1.125
v -1.0259 1.5366 1.125
v -1.0625 1.625 1.125
v -1.0259 1.7134 1.125
v -0.9375 1.75 1.125
v -0.8491 1.7134 1.125
v -0.8125 1.625 1.375
v -0.8491 1.5366 1.375
v -0.9375 1.5 1.375
v -1.0259 1.5366 1.375
v -1.0625 1.625 1.375
v -1.0259 1.7134 1.375
v -0.9375 1.75 1.375
v -0.8491 1.7134 1.375
v -0.8125 1.5884 1.4634
v -0.8491 1.5259 1.4009
v -1.0259 1.5259 1.4009
v -1.0625 1.5884 1.4634
v -1.0259 1.6509 1.5259
v -0.9375 1.6768 1.5518
v -0.8491 1.6509 1.5259
v -0.8125 1.5 1.5
v -0.8491 1.5 1.4116
v -1.0259 1.5 1.4116
v -1.0625 1.5 1.5
v -1.0259 1.5 1.5884
v -0.9375 1.5 1.625
v -0.8491 1.5 1.5884
v -1.125 0.375 0.8125
v -1.125 0.4634 0.8491
v -1.125 0.5 0.9375
v -1.125 0.4634 1.0259
v -1.125 0.375 1.0625
v -1.125 0.2866 1.0259
v -1.125 0.25 0.9375
v -1.125 0.2866 0.8491
v -1.375 0.375 0.8125
v -1.375 0.4634 0.8491
v -1.375 0.5 0.9375
v -1.375 0.4634 1.0259
v -1.375 0.375 1.0625
v -1.375 0.2866 1.0259
v -1.375 0.25 0.9375
v -1.375 0.2866 0.8491
v -1.4634 0.4116 0.8125
v -1.4009 0.4741 0.8491
v -1.4009 0.4741 1.0259
v -1.4634 0.4116 1.0625
v -1.5259 0.3491 1.0259
v -1.5518 0.3232 0.9375
v -1.5259 0.3491 0.8491
v -1.5 0.5 0.8125
v -1.4116 0.5 0.8491
v -1.4116 0.5 1.0259
v -1.5 0.5 1.0625
v -1.5884 0.5 1.0259
v -1.625 0.5 0.9375
v -1.5884 0.5 0.8491
v -1.125 1.625 1.0625
v -1.125 1.5366 1.0259
v -1.125 1.5 0.9375
v -1.125 1.5366 0.8491
v -1.125 1.625 0.8125
v -1.125 1.7134 0.8491
v -1.125 1.75 0.9375
v -1.125 1.7134 1.0259
v -1.375 1.625 1.0625
v -1.375 1.5366 1.0259
v -1.375 1.5 0.9375
v -1.375 1.5366 0.8491
v -1.375 1.625 0.8125
v -1.375 1.7134 0.8491
v -1.375 1.75 0.9375
v -1.375 1.7134 1.0259
v -1.4634 1.5884 1.0625
v -1.4009 1.5259 1.0259
v -1.4009 1.5259 0.8491
v -1.4634 1.5884 0.8125
v -1.5259 1.6509 0.8491
v -1.5518 1.6768 0.9375
v -1.5259 1.6509 1.0259
v -1.5 1.5 1.0625
v -1.4116 1.5 1.0259
v -1.4116 1.5 0.8491
v -1.5 1.5 0.8125
v -1.5884 1.5 0.8491
v -1.625 1.5 0.9375
v -1.5884 1.5 1.0259
v -1.125 0.375 0.4375
v -1.125 0.4634 0.4741
v -1.125 0.5 0.5625
v -1.125 0.4634 0.6509
v -1.125 0.375 0.6875
v -1.125 0.2866 0.6509
v -1.125 0.25 0.5625
v -1.125 0.2866 0.4741
v -1.375 0.375 0.4375
v -1.375 0.4634 0.4741
v -1.375 0.5 0.5625
v -1.375 0.4634 0.6509
v -1.375 0.375 0.6875
v -1.375 0.2866 0.6509
v -1.375 0.25 0.5625
v -1.375 0.2866 0.4741
v -1.4634 0.4116 0.4375
v -1.4009 0.4741 0.4741
v -1.4009 0.4741 0.6509
v -1.4634 0.4116 0.6875
v -1.5259 0.3491 0.6509
v -1.5518 0.3232 0.5625
v -1.5259 0.3491 0.4741
v -1.5 0.5 0.4375
v -1.4116 0.5 0.4741
v -1.4116 0.5 0.6509
v -1.5 0.5 0.6875
v -1.5884 0.5 0.6509
v -1.625 0.5 0.5625
v -1.5884 0.5 0.4741
v -1.125 1.625 0.6875
v -1.125 1.5366 0.6509
v -1.125 1.5 0.5625
v -1.125 1.5366 0.4741
v -1.125 1.625 0.4375
v -1.125 1.7134 0.4741
v -1.125 1.75 0.5625
v -1.125 1.7134 0.6509
v -1.375 1.625 0.6875
v -1.375 1.5366 0.6509
v -1.375 1.5 0.5625
v -1.375 1.5366 0.4741
v -1.375 1.625 0.4375
v -1.375 1.7134 0.4741
v -1.375 1.75 0.5625
v -1.375 1.7134 0.6509
v -1.4634 1.5884 0.6875
v -1.4009 1.5259 0.6509
v -1.4009 1.5259 0.4741
v -1.4634 1.5884 0.4375
v -1.5259 1.6509 0.4741
v -1.5518 1.6768 0.5625
v -1.5259 1.6509 0.6509
v -1.5 1.5 0.6875
v -1.4116 1.5 0.6509
v -1.4116 1.5 0.4741
v -1.5 1.5 0.4375
v -1.5884 1.5 0.4741
v -1.625 1.5 0.5625
v -1.5884 1.5 0.6509
v -1.125 0.375 -0.6875
v -1.125 0.4634 -0.6509
v -1.125 0.5 -0.5625
v -1.125 0.4634 -0.4741
v -1.125 0.375 -0.4375
v -1.125 0.2866 -0.4741
v -1.125 0.25 -0.5625
v -1.125 0.2866 -0.6509
v -1.375 0.375 -0.6875
v -1.375 0.4634 -0.6509
v -1.375 0.5 -0.5625
v -1.375 0.4634 -0.4741
v -1.375 0.375 -0.4375
v -1.375 0.2866 -0.4741
v -1.375 0.25 -0.5625
v -1.375 0.2866 -0.6509
v -1.4634 0.4116 -0.6875
v -1.4009 0.4741 -0.6509
v -1.4009 0.4741 -0.4741
v -1.4634 0.4116 -0.4375
v -1.5259 0.3491 -0.4741
v -1.5518 0.3232 -0.5625
v -1.5259 0.3491 -0.6509
v -1.5 0.5 -0.6875
v -1.4116 0.5 -0.6509
v -1.4116 0.5 -0.4741
v -1.5 0.5 -0.4375
v -1.5884 0.5 -0.4741
v -1.625 0.5 -0.5625
v -1.5884 0.5 -0.6509
v -1.125 1.625 -0.4375
v -1.125 1.5366 -0.4741
v -1.125 1.5 -0.5625
v -1.125 1.5366 -0.6509
v -1.125 1.625 -0.6875
v -1.125 1.7134 -0.6509
v -1.125 1.75 -0.5625
v -1.125 1.7134 -0.4741
v -1.375 1.625 -0.4375
v -1.375 1.5366 -0.4741
v -1.375 1.5 -0.5625
v -1.375 1.5366 -0.6509
v -1.375 1.625 -0.6875
v -1.375 1.7134 -0.6509
v -1.375 1.75 -0.5625
v -1.375 1.7134 -0.4741
v -1.4634 1.5884 -0.4375
v -1.4009 1.5259 -0.4741
v -1.4009 1.5259 -0.6509
v -1.4634 1.5884 -0.6875
v -1.5259 1.6509 -0.6509
v -1.5518 1.6768 -0.5625
v -1.5259 1.6509 -0.4741
v -1.5 1.5 -0.4375
v -1.4116 1.5 -0.4741
v -1.4116 1.5 -0.6509
v -1.5 1.5 -0.6875
v -1.5884 1.5 -0.6509
v -1.625 1.5 -0.5625
v -1.5884 1.5 -0.4741
v -1.125 0.375 -1.0625
v -1.125 0.4634 -1.0259
v -1.125 0.5 -0.9375
v -1.125 0.4634 -0.8491
v -1.125 0.375 -0.8125
v -1.125 0.2866 -0.8491
v -1.125 0.25 -0.9375
v -1.125 0.2866 -1.0259
v -1.375 0.375 -1.0625
v -1.375 0.4634 -1.0259
v -1.375 0.5 -0.9375
v -1.375 0.4634 -0.8491
v -1.375 0.375 -0.8125
v -1.375 0.2866 -0.8491
v -1.375 0.25 -0.9375
v -1.375 0.2866 -1.0259
v -1.4634 0.4116 -1.0625
v -1.4009 0.4741 -1.0259
v -1.4009 0.4741 -0.8491
v -1.4634 0.4116 -0.8125
v -1.5259 0.3491 -0.8491
v -1.5518 0.3232 -0.9375
v -1.5259 0.3491 -1.0259
v -1.5 0.5 -1.0625
v -1.4116 0.5 -1.0259
v -1.4116 0.5 -0.8491
v -1.5 0.5 -0.8125
v -1.5884 0.5 -0.8491
v -1.625 0.5 -0.9375
v -1.5884 0.5 -1.0259
v -1.125 1.625 -0.8125
v -1.125 1.5366 -0.8491
v -1.125 1.5 -0.9375
v -1.125 1.5366 -1.0259
v -1.125 1.625 -1.0625
v -1.125 1.7134 -1.0259
v -1.125 1.75 -0.9375
v -1.125 1.7134 -0.8491
v -1.375 1.625 -0.8125
v -1.375 1.5366 -0.8491
v -1.375 1.5 -0.9375
v -1.375 1.5366 -1.0259
v -1.375 1.625 -1.0625
v -1.375 1.7134 -1.0259
v -1.375 1.75 -0.9375
v -1.375 1.7134 -0.8491
v -1.4634 1.5884 -0.8125
v -1.4009 1.5259 -0.8491
v -1.4009 1.5259 -1.0259
v -1.4634 1.5884 -1.0625
v -1.5259 1.6509 -1.0259
v -1.5518 1.6768 -0.9375
v -1.5259 1.6509 -0.8491
v -1.5 1.5 -0.8125
v -1.4116 1.5 -0.8491
v -1.4116 1.5 -1.0259
v -1.5 1.5 -1.0625
v -1.5884 1.5 -1.0259
v -1.625 1.5 -0.9375
v -1.5884 1.5 -0.8491
v 1.125 0.375 -0.8125
v 1.125 0.4634 -0.8491
v 1.125 0.5 -0.9375
v 1.125 0.4634 -1.0259
v 1.125 0.375 -1.0625
v 1.125 0.2866 -1.0259
v 1.125 0.25 -0.9375
v 1.125 0.2866 -0.8491
v 1.375 0.375 -0.8125
v 1.375 0.4634 -0.8491
v 1.375 0.5 -0.9375
v 1.375 0.4634 -1.0259
v 1.375 0.375 -1.0625
v 1.375 0.2866 -1.0259
v 1.375 0.25 -0.9375
v 1.375 0.2866 -0.8491
v 1.4634 0.4116 -0.8125
v 1.4009 0.4741 -0.8491
v 1.4009 0.4741 -1.0259
v 1.4634 0.4116 -1.0625
v 1.5259 0.3491 -1.0259
v 1.5518 0.3232 -0.9375
v 1.5259 0.3491 -0.8491
v 1.5 0.5 -0.8125
v 1.4116 0.5 -0.8491
v 1.4116 0.5 -1.0259
v 1.5 0.5 -1.0625
v 1.5884 0.5 -1.0259
v 1.625 0.5 -0.9375
v 1.5884 0.5 -0.8491
v 1.125 1.625 -1.0625
v 1.125 1.5366 -1.0259
v 1.125 1.5 -0.9375
v 1.125 1.5366 -0.8491
v 1.125 1.625 -0.8125
v 1.125 1.7134 -0.8491
v 1.125 1.75 -0.9375
v 1.125 1.7134 -1.0259
v 1.375 1.625 -1.0625
v 1.375 1.5366 -1.0259
v 1.375 1.5 -0.9375
v 1.375 1.5366 -0.8491
v 1.375 1.625 -0.8125
v 1.375 1.7134 -0.8491
v 1.375 1.75 -0.9375
v 1.375 1.7134 -1.0259
v 1.4634 1.5884 -1.0625
v 1.4009 1.5259 -1.0259
v 1.4009 1.5259 -0.8491
v 1.4634 1.5884 -0.8125
v 1.5259 1.6509 -0.8491
v 1.5518 1.6768 -0.9375
v 1.5259 1.6509 -1.0259
v 1.5 1.5 -1.0625
v 1.4116 1.5 -1.0259
v 1.4116 1.5 -0.8491
v 1.5 1.5 -0.8125
v 1.5884 1.5 -0.8491
v 1.625 1.5 -0.9375
v 1.5884 1.5 -1.0259
v 1.125 0.375 -0.4375
v 1.125 0.4634 -0.4741
v 1.125 0.5 -0.5625
v 1.125 0.4634 -0.6509
v 1.125 0.375 -0.6875
v 1.125 0.2866 -0.6509
v 1.125 0.25 -0.5625
v 1.125 0.2866 -0.4741
v 1.375 0.375 -0.4375
v 1.375 0.4634 -0.4741
v 1.375 0.5 -0.5625
v 1.375 0.4634 -0.6509
v 1.375 0.375 -0.6875
v 1.375 0.2866 -0.6509
v 1.375 0.25 -0.5625
v 1.375 0.2866 -0.4741
v 1.4634 0.4116 -0.4375
v 1.4009 0.4741 -0.4741
v 1.4009 0.4741 -0.6509
v 1.4634 0.4116 -0.6875
v 1.5259 0.3491 -0.6509
v 1.5518 0.3232 -0.5625
v 1.5259 0.3491 -0.4741
v 1.5 0.5 -0.4375
v 1.4116 0.5 -0.4741
v 1.4116 0.5 -0.6509
v 1.5 0.5 -0.6875
v 1.5884 0.5 -0.6509
v 1.625 0.5 -0.5625
v 1.5884 0.5 -0.4741
v 1.125 1.625 -0.6875
v 1.125 1.5366 -0.6509
v 1.125 1.5 -0.5625
v 1.125 1.5366 -0.4741
v 1.125 1.625 -0.4375
v 1.125 1.7134 -0.4741
v 1.125 1.75 -0.5625
v 1.125 1.7134 -0.6509
v 1.375 1.625 -0.6875
v 1.375 1.5366 -0.6509
v 1.375 1.5 -0.5625
v 1.375 1.5366 -0.4741
v 1.375 1.625 -0.4375
v 1.375 1.7134 -0.4741
v 1.375 1.75 -0.5625
v 1.375 1.7134 -0.6509
v 1.4634 1.5884 -0.6875
v 1.4009 1.5259 -0.6509
v 1.4009 1.5259 -0.4741
v 1.4634 1.5884 -0.4375
v 1.5259 1.6509 -0.4741
v 1.5518 1.6768 -0.5625
v 1.5259 1.6509 -0.6509
v 1.5 1.5 -0.6875
v 1.4116 1.5 -0.6509
v 1.4116 1.5 -0.4741
v 1.5 1.5 -0.4375
v 1.5884 1.5 -0.4741
v 1.625 1.5 -0.5625
v 1.5884 1.5 -0.6509
v 1.125 0.375 0.6875
v 1.125 0.4634 0.6509
v 1.125 0.5 0.5625
v 1.125 0.4634 0.4741
v 1.125 0.375 0.4375
v 1.125 0.2866 0.4741
v 1.125 0.25 0.5625
v 1.125 0.2866 0.6509
v 1.375 0.375 0.6875
v 1.375 0.4634 0.6509
v 1.375 0.5 0.5625
v 1.375 0.4634 0.4741
v 1.375 0.375 0.4375
v 1.375 0.2866 0.4741
v 1.375 0.25 0.5625
v 1.375 0.2866 0.6509
v 1.4634 0.4116 0.6875
v 1.4009 0.4741 0.6509
v 1.4009 0.4741 0.4741
v 1.4634 0.4116 0.4375
v 1.5259 0.3491 0.4741
v 1.5518 0.3232 0.5625
v 1.5259 0.3491 0.6509
v 1.5 0.5 0.6875
v 1.4116 0.5 0.6509
v 1.4116 0.5 0.4741
v 1.5 0.5 0.4375
v 1.5884 0.5 0.4741
v 1.625 0.5 0.5625
v 1.5884 0.5 0.6509
v 1.125 1.625 0.4375
v 1.125 1.5366 0.4741
v 1.125 1.5 0.5625
v 1.125 1.5366 0.6509
v 1.125 1.625 0.6875
v 1.125 1.7134 0.6509
v 1.125 1.75 0.5625
v 1.125 1.7134 0.4741
v 1.375 1.625 0.4375
v 1.375 1.5366 0.4741
v 1.375 1.5 0.5625
v 1.375 1.5366 0.6509
v 1.375 1.625 0.6875
v 1.375 1.7134 0.6509
v 1.375 1.75 0.5625
v 1.375 1.7134 0.4741
v 1.4634 1.5884 0.4375
v 1.4009 1.5259 0.4741
v 1.4009 1.5259 0.6509
v 1.4634 1.5884 0.6875
v 1.5259 1.6509 0.6509
v 1.5518 1.6768 0.5625
v 1.5259 1.6509 0.4741
v 1.5 1.5 0.4375
v 1.4116 1.5 0.4741
v 1.4116 1.5 0.6509
v 1.5 1.5 0.6875
v 1.5884 1.5 0.6509
v 1.625 1.5 0.5625
v 1.5884 1.5 0.4741
v 1.125 0.375 1.0625
v 1.125 0.4634 1.0259
v 1.125 0.5 0.9375
v 1.125 0.4634 0.8491
v 1.125 0.375 0.8125
v 1.125 0.2866 0.8491
v 1.125 0.25 0.9375
v 1.125 0.2866 1.0259
v 1.375 0.375 1.0625
v 1.375 0.4634 1.0259
v 1.375 0.5 0.9375
v 1.375 0.4634 0.8491
v 1.375 0.375 0.8125
v 1.375 0.2866 0.8491
v 1.375 0.25 0.9375
v 1.375 0.2866 1.0259
v 1.4634 0.4116 1.0625
v 1.4009 0.4741 1.0259
v 1.4009 0.4741 0.8491
v 1.4634 0.4116 0.8125
v 1.5259 0.3491 0.8491
v 1.5518 0.3232 0.9375
v 1.5259 0.3491 1.0259
v 1.5 0.5 1.0625
v 1.4116 0.5 1.0259
v 1.4116 0.5 0.8491
v 1.5 0.5 0.8125
v 1.5884 0.5 0.8491
v 1.625 0.5 0.9375
v 1.5884 0.5 1.0259
v 1.125 1.625 0.8125
v 1.125 1.5366 0.8491
v 1.125 1.5 0.9375
v 1.125 1.5366 1.0259
v 1.125 1.625 1.0625
v 1.125 1.7134 1.0259
v 1.125 1.75 0.9375
v 1.125 1.7134 0.8491
v 1.375 1.625 0.8125
v 1.375 1.5366 0.8491
v 1.375 1.5 0.9375
v 1.375 1.5366 1.0259
v 1.375 1.625 1.0625
v 1.375 1.7134 1.0259
v 1.375 1.75 0.9375
v 1.375 1.7134 0.8491
v 1.4634 1.5884 0.8125
v 1.4009 1.5259 0.8491
v 1.4009 1.5259 1.0259
v 1.4634 1.5884 1.0625
v 1.5259 1.6509 1.0259
v 1.5518 1.6768 0.9375
v 1.5259 1.6509 0.8491
v 1.5 1.5 0.8125
v 1.4116 1.5 0.8491
v 1.4116 1.5 1.0259
v 1.5 1.5 1.0625
v 1.5884 1.5 1.0259
v 1.625 1.5 0.9375
v 1.5884 1.5 0.8491
v -1.5 0 0
v 0 0 1.5
v -1.5 0.125 -0
v -1.5 1 1.375
v -1.5 1.0625 1.4375
v 0 0.125 -1.5
v -1.375 1 -1.5
v -1.4375 1.0625 -1.5
v 1.375 1 1.125
v -0.375 1 1.375
v 1.125 1 -1.125
v -1.375 1 -1.125
v -1.375 1 -0.375
v 1.125 1 1.375
v 1.375 1 1.375
v 0 2 -1.5
v -1.5 2 -0
v -1.5 1 1.5
v 1.375 0.125 -0
v 1.375 0.1875 0.5
v -1.125 1 -0.375
v 0 0.125 1.375
v 1.5 1 1.375
v 1.5 0.125 -0
v 1.5 0.0625 -0.0625
v 0 0.125 1.5
v 0.0625 0.0625 1.5
v -1.375 1 1.5
v 1.375 1 -1.125
v -1.375 1 1.125
v 1.375 1 -1.375
v 0 2 1.5
v 1.5 0 0
v 1.5 1 1.5
v 0 0.125 -1.375
v 1.125 1 1.125
v -1.5 0.0625 0.0625
v -1.5 1 -1.375
v 1.375 1 1.5
v 1.4375 1.0625 1.5
v 0.375 1 1.375
v 1.375 1.8125 0.5
v -1.375 1 0.375
v 1.5 2 -0
v 0 -0 -1.5
v 1.5 1 -1.5
v 1.375 1.875 -0
v -1.125 1 1.375
v -1.125 1 0.375
v 0.5 1.8125 1.375
v 0 1.875 1.375
v 1.5 1 -1.375
v 1.5 1.0625 -1.4375
v -0.0625 0.0625 -1.5
v 1.375 1 -1.5
v -1.5 1 -1.5
v 0 1.875 -1.375
v 0.375 1 -1.125
v -1.5 1.875 -0
v -1.5 1.9375 -0.0625
v 0 1.875 -1.5
v 0.0625 1.9375 -1.5
v -1.125 1 1.125
v -0.375 1 -1.375
v 1.375 1 0.375
v -1.375 1 -1.375
v -1 2 -0.5
v -0.375 1 1.125
v 1.125 1 0.375
v -1.375 0.1875 -0.5
v -1.375 0.125 -0
v 1.125 1 -1.375
v 1.5 1.875 -0
v 1.5 0.9375 1.4375
v 0 1.875 1.5
v -1.4375 0.9375 1.5
v -1.375 1 1.375
v -0.5 0.1875 1.375
v 0.5 0.1875 -1.375
v -0.5 2 1
v -1.125 1 -1.125
v -1.5 0.9375 -1.4375
v -0.0625 1.9375 1.5
v 0.375 1 -1.375
v 1.375 1 -0.375
v -1.375 1.8125 -0.5
v 1 2 0.5
v -0.375 1 -1.125
v 0.375 1 1.125
v 1.125 1 -0.375
v -1.375 1.875 -0
v -1.125 1 -1.375
v -0.5 1.8125 -1.375
v 1.5 1.9375 0.0625
v 1.4375 0.9375 -1.5
v 0.5 2 -1
v 0 0 0
v -1.5 -0 -0.75
v 0.75 0 1.5
v 0.75 2 -1.5
v -1.5 2 0.75
v 0.75 0 0
v -1.5 0 0.75
v 0.75 2 1.5
v 1.5 -0 -0.75
v 1.5 2 -0.75
v -0.75 -0 -1.5
v 1.5 0 0.75
v -0.75 0 1.5
v -0.75 2 1.5
v -1.5 2 -0.75
v 0 0 0.75
v 0 -0 -0.75
v -0.75 2 -1.5
v -0.75 0 0
v 1.5 2 0.75
v 0.75 -0 -1.5
v -0.75 0 0.75
v -0.75 -0 -0.75
v 0.75 -0 -0.75
v 0.75 0 0.75
vt 0.7083 0.3281
vt 0.7292 0.2656
vt 0.7292 0.3281
vt 0.625 0.7031
vt 0.6042 0.5781
vt 0.625 0.5781
vt 0.5833 0.5312
vt 0.6042 0.5
vt 0.6042 0.5312
vt 0.8125 0.2188
vt 0.6875 0.125
vt 0.8125 0.125
vt 0.5833 0.7031
vt 0.5625 0.5781
vt 0.5833 0.5781
vt 0.2604 0.3828
vt 0.4792 0.3906
vt 0.25 0.3906
vt 0.2396 0.6172
vt 0.0208 0.6094
vt 0.25 0.6094
vt 0.0104 0.4922
vt 0.0208 0.3906
vt 0.0208 0.5
vt 0.4896 0.5078
vt 0.4792 0.6094
vt 0.4792 0.5
vt 0.7292 0.25
vt 0.8125 0.2656
vt 0.625 0.5
vt 0.625 0.5312
vt 0.5208 0.75
vt 0.5 0.7812
vt 0.5 0.75
vt 0.625 0.75
vt 0.6042 0.7812
vt 0.6042 0.75
vt 0.5417 0.375
vt 0.5 0.4688
vt 0.5 0.375
vt 0.6042 0.7031
vt 0.6458 0.5
vt 0.6458 0.5312
vt 0.5208 0.7031
vt 0.5 0.5781
vt 0.5208 0.5781
vt 0.5208 0.125
vt 0.5 0.2344
vt 0.5 0.125
vt 0.6458 0.7812
vt 0.625 0.7812
vt 0.5 0.0156
vt 0.5417 0.75
vt 0.5208 0.7812
vt 0.6667 0.5
vt 0.6667 0.5312
vt 0.6771 0.9219
vt 0.5208 0.9297
vt 0.5312 0.9219
vt 0.5208 0.9141
vt 0.5104 0.7969
vt 0.5208 0.8047
vt 0.5312 0.7969
vt 0.6875 0.7891
vt 0.6771 0.7969
vt 0.6875 0.8047
vt 0.6979 0.9219
vt 0.6875 0.9141
vt 0.6667 0.375
vt 0.7083 0.2812
vt 0.7083 0.375
vt 0.5417 0.7031
vt 0.5417 0.5781
vt 0.5 0.2812
vt 0.5417 0.5312
vt 0.5625 0.5
vt 0.5625 0.5312
vt 0.8333 0.2656
vt 0.8125 0.3281
vt 0.5833 0.75
vt 0.5625 0.7812
vt 0.5625 0.75
vt 0.5208 0.5312
vt 0.5417 0.5
vt 0.5 0.5312
vt 0.5208 0.5
vt 0.7292 0.3438
vt 0.5833 0.7812
vt 0.6667 0.4688
vt 0.8125 0.3438
vt 0.6458 0.7031
vt 0.6458 0.5781
vt 0.75 0.2344
vt 0.9792 0.25
vt 0.75 0.25
vt 0.5625 0.2188
vt 0.5625 0.125
vt 0.9792 0.125
vt 0.9375 0.2188
vt 0.9375 0.125
vt 0.6875 0.2188
vt 0.6667 0.2266
vt 0.5208 0.2344
vt 0.6875 0.0312
vt 0.5625 0.0312
vt 0.5208 0.0156
vt 0.75 0
vt 0.75 0.0156
vt 0.5208 -0
vt 0.5625 0.7031
vt 0.7083 0.4688
vt 0.6875 0.9375
vt 0.5208 0.9375
vt 0.5417 0.4688
vt 0.6667 0.2812
vt 0.5417 0.25
vt 0.6667 0.25
vt 0.6667 0.75
vt 0.6458 0.75
vt 0.9375 0.0312
vt 0.6771 0.9141
vt 0.6667 0.0234
vt 0.8125 0.0312
vt 0.5417 0.2812
vt 0.6771 0.8047
vt 0.5417 0.7812
vt 0.9792 0.0156
vt 1 0.125
vt 0.6667 0.5781
vt 0.6667 0.7031
vt 0.4167 0.75
vt 0.5 0.7188
vt 0.5 0.8125
vt 0.3333 0.9375
vt 0.375 1
vt 0.25 1
vt 0.0833 0.875
vt 0 0.9062
vt 0 0.8125
vt 0.1667 0.6875
vt 0.125 0.625
vt 0.25 0.625
vt 0.6667 0.7812
vt 0.6042 0.7266
vt 0.625 0.7266
vt 0.625 0.7109
vt 0.6458 0.7188
vt 0.5 0.5
vt 0.5312 0.8047
vt 0.5312 0.9141
vt 0.375 0.375
vt 0 0.625
vt 0 0.5
vt 0 0.375
vt 0.5 0.625
vt 0.5208 0.5547
vt 0.5208 0.5469
vt 0.5417 0.5391
vt 0.625 0.5703
vt 0.6042 0.5547
vt 0.6458 0.5547
vt 0.6458 0.5625
vt 0.625 0.5391
vt 0.625 0.5547
vt 0.5833 0.5
vt 0.5417 0.7266
vt 0.5417 0.7422
vt 0.5208 0.7344
vt 0.5625 0.5547
vt 0.5417 0.5547
vt 0.5833 0.5547
vt 0.6875 0.9297
vt 0.5104 0.9219
vt 0.5208 0.7891
vt 0.6979 0.7969
vt 0.5208 0.5625
vt 0.5417 0.5703
vt 0.5833 0.7266
vt 0.5625 0.7266
vt 0.6458 0.7266
vt 0.6458 0.7344
vt 0.5208 0.25
vt 0.9792 0.2344
vt 0.5208 0.7188
vt 0.5417 0.7109
vt 1 0.2344
vt 0.625 0.7422
vt 0.6458 0.5469
vt 0.8333 0.2266
vt 0.5 0.7031
vt 0.3333 0.75
vt 0.3333 0.875
vt 0.1667 0.875
vt 0.1667 0.75
vt 1 0.0156
vt 0.5 0.5547
vt 0.6667 0.5547
vt 0.125 0.375
vt 0 0.2812
vt 0.125 0.2812
vt 0.5 0.9219
vt 0.5 0.7969
vt 0.5208 0.7266
vt 0.6667 0.7266
vt 0.5 0.7266
vt 0.7083 0.7969
vt 0.7083 0.9219
vt 0.6875 0.7812
vt 0.375 0.625
vt 0.125 0.0938
vt -0 -0
vt 0.125 0
vt 0.8333 0.3281
vt 0.5 1
vt 0.375 0.2812
vt 0.25 0.2812
vt 0.25 0.375
vt 0.25 0.1875
vt 0.25 0.0938
vt 0.9792 -0
vt 0.375 0.1875
vt 0.8125 0.25
vt 0.5 0.1875
vt 0.375 0.0938
vt 0.5 0.0938
vt 0.7083 0.2656
vt 0.25 0
vt 0.375 0
vt 0 1
vt 0 0.1875
vt 0.125 0.1875
vt 0.5 0.9062
vt 0 0.7188
vt 0 0.0938
vt 0.5 -0
vt 0.125 1
s 1
f 55/1 49/2 50/3
f 430/4 404/5 403/6
f 391/7 382/8 390/9
f 108/10 1109/11 1139/12
f 195/13 166/14 165/15
f 1095/13 1066/14 1065/15
f 1133/16 1/17 1099/18
f 1121/16 4/17 1120/18
f 1156/19 7/20 1155/21
f 1190/19 6/20 1169/21
f 1178/22 3/23 1134/24
f 1149/25 8/26 1148/27
f 1170/22 2/23 1119/24
f 1101/25 5/26 1100/27
f 1123/16 11/17 1122/18
f 1150/16 9/17 1102/18
f 1179/19 14/20 1171/21
f 1158/19 16/20 1157/21
f 1104/25 13/26 1103/27
f 1191/22 12/23 1151/24
f 1136/25 15/26 1135/27
f 1172/22 10/23 1124/24
f 62/28 59/29 57/2
f 870/9 861/30 869/31
f 178/32 169/33 177/34
f 295/35 294/36 302/37
f 1184/38 29/39 1160/40
f 450/9 441/30 449/31
f 1036/41 1005/15 1004/5
f 149/31 140/42 148/43
f 252/44 207/45 221/46
f 1111/47 6/48 1119/49
f 1075/35 1068/50 1067/51
f 10/52 1173/47 1124/49
f 29/10 1180/11 1160/12
f 235/35 234/36 242/37
f 359/53 350/54 358/32
f 1162/47 7/48 1134/49
f 628/43 619/55 627/56
f 37/57 42/58 38/59
f 38/60 43/61 39/62
f 39/63 44/64 40/65
f 40/66 41/67 37/68
f 124/10 1106/11 1137/12
f 1154/69 32/70 1180/71
f 493/72 461/46 460/73
f 132/74 1159/38 1144/40
f 565/75 564/76 572/77
f 61/78 60/79 59/29
f 271/7 262/8 270/9
f 148/43 139/55 147/56
f 612/44 567/45 581/46
f 53/78 52/79 51/29
f 421/80 412/81 420/82
f 266/83 257/84 265/75
f 1185/38 124/39 1137/40
f 147/85 138/86 146/83
f 60/79 63/87 58/3
f 181/80 174/36 173/88
f 1090/4 1064/5 1063/6
f 1093/72 1061/46 1060/73
f 1110/71 92/89 1132/69
f 601/80 592/81 600/82
f 56/90 50/3 52/79
f 732/44 687/45 701/46
f 1050/9 1041/30 1049/31
f 436/41 405/15 404/5
f 1091/91 1063/6 1062/92
f 1143/93 8/94 1169/95
f 131/96 1173/47 1144/97
f 1111/98 130/99 1110/100
f 86/101 1138/102 83/103
f 85/104 25/105 81/106
f 102/106 1122/107 1118/108
f 1115/108 2/109 1120/107
f 825/15 854/110 826/14
f 71/1 65/2 66/3
f 419/53 410/54 418/32
f 749/31 740/42 748/43
f 192/44 147/45 161/46
f 372/44 327/45 341/46
f 958/32 949/33 957/34
f 569/31 560/42 568/43
f 929/31 920/42 928/43
f 125/89 1106/71 122/111
f 1111/47 25/105 1105/97
f 106/101 1182/102 103/103
f 105/104 97/105 101/106
f 42/58 24/112 21/113
f 95/114 28/55 88/84
f 671/91 643/6 642/92
f 388/43 379/55 387/56
f 114/115 97/116 105/117
f 537/118 528/50 536/119
f 447/85 438/86 446/83
f 325/75 324/76 332/77
f 1162/47 97/105 1108/97
f 135/120 1162/98 1188/100
f 267/85 258/86 266/83
f 851/91 823/6 822/92
f 45/121 40/66 37/68
f 1079/53 1070/54 1078/32
f 104/103 131/96 122/101
f 121/104 1174/122 123/123
f 451/7 442/8 450/9
f 110/124 121/117 126/115
f 1165/69 85/70 1161/71
f 1145/38 108/39 1139/40
f 48/125 39/63 40/65
f 540/82 531/126 539/53
f 1173/98 100/99 1126/100
f 133/96 1127/47 1168/97
f 88/10 1161/11 1181/12
f 102/127 1100/128 1173/98
f 971/91 927/129 957/130
f 1030/4 1004/5 1003/6
f 84/103 133/96 31/101
f 32/104 1175/122 30/123
f 130/55 127/114 92/89
f 1094/110 1060/73 1066/14
f 385/75 384/76 392/77
f 734/110 700/73 706/14
f 1192/131 1196/132 1112/133
f 1163/134 1207/135 1113/136
f 1176/137 1206/138 1128/139
f 1183/140 1212/141 1140/142
f 1081/80 1072/81 1080/82
f 492/44 447/45 461/46
f 327/85 318/86 326/83
f 476/119 469/143 468/50
f 915/13 916/41 909/144
f 1023/145 1030/146 1031/147
f 675/13 676/41 669/144
f 927/85 919/148 918/86
f 615/13 616/41 609/144
f 47/149 46/150 38/60
f 1133/16 1199/151 17/40
f 1121/16 1201/151 19/40
f 1156/19 1207/141 33/152
f 1190/19 1212/141 35/152
f 1178/22 1152/153 20/154
f 1149/25 1142/148 36/155
f 1170/22 1130/153 18/154
f 1101/25 1114/148 34/155
f 1123/16 1195/151 18/40
f 1150/16 1203/151 20/40
f 1179/19 1206/141 34/152
f 1158/19 1196/141 36/152
f 1104/25 1152/148 33/155
f 1191/22 1142/153 19/154
f 1136/25 1130/148 35/155
f 1172/22 1114/153 17/154
f 874/156 866/157 865/158
f 900/82 892/81 891/126
f 223/159 224/5 217/160
f 897/118 889/143 888/50
f 635/161 642/162 643/159
f 719/53 711/126 710/54
f 389/163 396/164 397/160
f 931/7 923/165 922/8
f 242/37 234/36 233/88
f 306/166 299/167 298/168
f 90/124 118/115 1154/69
f 519/169 513/170 505/158
f 937/160 938/171 931/7
f 823/159 824/5 817/160
f 811/7 803/165 802/8
f 390/9 382/8 381/30
f 944/5 945/15 938/171
f 37/57 41/172 42/58
f 38/60 42/173 43/61
f 39/63 43/174 44/64
f 40/66 44/175 41/67
f 328/43 320/42 319/55
f 311/91 310/4 283/6
f 1061/176 1054/156 1053/170
f 1059/169 1066/14 1060/177
f 1059/169 1053/170 1045/158
f 315/13 308/178 307/179
f 479/53 471/126 470/54
f 279/169 273/170 265/158
f 151/7 143/165 142/8
f 176/119 168/50 167/51
f 375/13 374/110 346/14
f 795/13 796/41 789/144
f 703/159 704/5 697/160
f 301/80 293/88 292/81
f 511/7 518/171 519/169
f 663/145 664/180 656/181
f 403/159 404/5 397/160
f 339/169 333/170 325/158
f 46/150 45/121 37/57
f 1077/34 1078/32 1070/54
f 91/115 128/124 123/116
f 853/72 852/44 821/46
f 584/5 585/15 578/171
f 1033/72 1032/44 1001/46
f 939/169 933/170 925/158
f 333/170 340/177 341/176
f 111/124 1108/40 97/74
f 103/103 1155/95 7/182
f 28/99 84/183 88/10
f 1143/93 83/103 1138/102
f 83/103 27/96 86/101
f 1115/108 87/123 1116/122
f 82/127 26/120 87/123
f 85/104 1116/122 87/123
f 552/184 553/185 546/166
f 1117/69 114/115 105/70
f 451/7 458/171 459/169
f 1021/80 1013/88 1012/81
f 1003/159 1004/5 997/160
f 478/32 470/54 469/33
f 607/179 614/110 615/13
f 518/171 525/15 526/14
f 1063/159 1064/5 1057/160
f 179/53 171/126 170/54
f 715/35 707/51 714/36
f 84/183 1148/128 8/186
f 1117/69 111/124 114/115
f 100/99 104/183 108/10
f 1187/93 103/103 1182/102
f 103/103 99/96 106/101
f 1167/108 107/123 1166/122
f 102/127 98/120 107/123
f 105/104 1166/122 107/123
f 211/7 218/171 219/169
f 1089/144 1083/145 1075/187
f 146/83 138/86 137/84
f 398/171 391/7 390/9
f 695/161 696/164 689/163
f 611/147 604/180 603/145
f 582/162 583/159 576/164
f 148/188 155/161 156/164
f 89/89 1125/71 28/111
f 91/124 1105/40 25/74
f 817/160 818/171 811/7
f 960/82 952/81 951/126
f 463/159 464/5 457/160
f 433/72 432/44 401/46
f 124/10 1146/189 122/101
f 124/10 130/99 83/183
f 1147/93 122/101 1146/189
f 121/104 132/105 102/106
f 1118/108 123/123 1174/122
f 81/127 129/120 123/123
f 1087/179 1088/178 1081/80
f 615/13 614/110 586/14
f 1054/156 1046/157 1045/158
f 722/37 714/36 713/88
f 842/37 835/35 827/51
f 361/80 368/178 369/144
f 1164/69 110/124 126/115
f 115/114 1159/69 109/89
f 962/37 955/35 947/51
f 82/106 12/109 1102/107
f 794/110 793/72 760/73
f 912/44 897/190 867/45
f 29/10 1189/189 31/101
f 29/10 136/99 103/183
f 1153/93 31/101 1189/189
f 32/104 134/105 82/106
f 1131/108 30/123 1175/122
f 101/127 135/120 30/123
f 959/53 951/126 950/54
f 313/185 314/110 307/179
f 329/31 321/30 320/42
f 180/82 172/81 171/126
f 23/191 1192/131 24/192
f 24/192 1163/134 21/193
f 21/193 1176/137 22/194
f 22/194 1183/140 23/191
f 313/72 312/44 281/46
f 792/44 777/190 747/45
f 419/167 426/166 427/179
f 211/7 203/165 202/8
f 692/77 683/165 691/7
f 987/85 978/86 986/83
f 1162/98 9/195 1103/128
f 541/80 532/81 540/82
f 452/77 443/165 451/7
f 1092/44 1047/45 1061/46
f 1159/69 98/70 1126/71
f 1147/93 15/94 1171/95
f 271/7 279/169 272/77
f 508/188 516/164 509/163
f 513/170 506/157 505/158
f 967/179 959/167 966/166
f 630/9 638/171 631/7
f 1127/98 28/99 1125/100
f 759/169 760/177 753/170
f 404/5 398/171 397/160
f 455/161 463/159 456/164
f 278/171 286/14 279/169
f 849/144 835/187 842/37
f 1049/163 1057/160 1050/9
f 146/157 154/156 147/196
f 154/156 161/176 147/196
f 148/188 147/197 155/161
f 155/161 147/197 162/162
f 1019/53 1010/54 1018/32
f 69/78 68/79 67/29
f 555/13 526/14 525/15
f 417/118 408/50 416/119
f 1204/198 1195/199 1217/200
f 751/7 742/8 750/9
f 43/61 21/201 22/202
f 284/5 278/171 277/160
f 375/13 369/144 368/178
f 553/185 547/179 546/166
f 783/145 776/181 775/187
f 359/167 367/179 360/82
f 427/179 421/80 420/82
f 209/163 217/160 210/9
f 819/169 820/177 813/170
f 315/13 309/144 308/178
f 1032/184 1026/166 1025/203
f 1027/179 1035/13 1028/178
f 699/169 700/177 693/170
f 431/147 423/145 430/146
f 176/181 184/180 177/204
f 184/180 191/147 177/204
f 178/168 177/205 185/203
f 185/203 177/205 192/184
f 175/35 174/36 182/37
f 1045/75 1044/76 1052/77
f 777/118 768/50 776/119
f 1032/44 987/45 1001/46
f 676/41 645/15 644/5
f 76/79 73/2 75/29
f 869/31 860/42 868/43
f 79/1 73/2 74/3
f 60/79 57/2 59/29
f 552/44 507/45 521/46
f 611/91 567/129 597/130
f 112/89 29/84 119/114
f 371/91 343/6 342/92
f 212/77 203/165 211/7
f 152/77 143/165 151/7
f 627/85 618/86 626/83
f 691/7 699/169 692/77
f 329/163 337/160 330/9
f 453/170 446/157 445/158
f 669/144 670/146 663/145
f 278/171 270/9 277/160
f 268/188 276/164 269/163
f 399/169 400/177 393/170
f 344/5 338/171 337/160
f 823/159 815/161 822/162
f 458/171 466/14 459/169
f 933/170 941/176 934/156
f 343/159 337/160 336/164
f 206/157 214/156 207/196
f 214/156 221/176 207/196
f 208/188 207/197 215/161
f 215/161 207/197 222/162
f 265/75 264/76 272/77
f 446/83 437/84 445/75
f 1185/38 91/115 1132/69
f 348/50 357/118 349/143
f 422/37 413/88 421/80
f 1153/93 13/94 1157/95
f 362/37 353/88 361/80
f 356/119 347/51 355/35
f 301/80 309/144 302/37
f 973/185 967/179 966/166
f 1083/145 1076/181 1075/187
f 673/185 667/179 666/166
f 195/13 187/179 194/110
f 726/166 718/168 725/203
f 539/167 547/179 540/82
f 187/179 181/80 180/82
f 753/170 761/176 754/156
f 495/13 489/144 488/178
f 309/144 295/187 302/37
f 850/146 844/180 843/145
f 236/181 244/180 237/204
f 244/180 251/147 237/204
f 238/168 237/205 245/203
f 245/203 237/205 252/184
f 181/80 172/81 180/82
f 1031/91 1003/6 1002/92
f 672/44 627/45 641/46
f 850/4 824/5 823/6
f 736/41 705/15 704/5
f 112/114 106/55 99/84
f 895/35 894/36 902/37
f 614/110 580/73 586/14
f 77/78 76/79 75/29
f 72/90 66/3 68/79
f 122/55 109/114 125/89
f 961/80 952/81 960/82
f 136/111 1177/69 1188/71
f 1020/82 1011/126 1019/53
f 626/83 617/84 625/75
f 302/37 293/88 301/80
f 391/7 399/169 392/77
f 909/144 910/146 903/145
f 213/170 206/157 205/158
f 819/169 805/158 812/77
f 878/171 870/9 877/160
f 388/188 396/164 389/163
f 639/169 640/177 633/170
f 524/5 518/171 517/160
f 1002/162 996/164 995/161
f 398/171 406/14 399/169
f 523/159 517/160 516/164
f 160/177 154/156 153/170
f 266/157 274/156 267/196
f 274/156 281/176 267/196
f 268/188 267/197 275/161
f 275/161 267/197 282/162
f 80/90 74/3 76/79
f 15/186 1111/98 1135/128
f 374/110 340/73 346/14
f 541/80 534/36 533/88
f 270/9 261/30 269/31
f 570/9 561/30 569/31
f 330/9 321/30 329/31
f 782/37 767/51 774/36
f 1095/13 1087/179 1094/110
f 187/179 179/167 186/166
f 543/145 536/181 535/187
f 239/167 247/179 240/82
f 547/179 541/80 540/82
f 186/166 178/168 185/203
f 369/144 355/187 362/37
f 487/179 481/80 480/82
f 673/185 665/203 672/184
f 255/13 247/179 254/110
f 193/185 187/179 186/166
f 671/147 663/145 670/146
f 296/181 304/180 297/204
f 304/180 311/147 297/204
f 298/168 297/205 305/203
f 305/203 297/205 312/184
f 1017/34 1010/54 1009/33
f 841/80 832/81 840/82
f 731/91 687/129 717/130
f 550/4 524/5 523/6
f 556/41 525/15 524/5
f 255/13 226/14 225/15
f 251/91 223/6 222/92
f 572/77 563/165 571/7
f 52/79 49/2 51/29
f 145/75 144/76 152/77
f 779/53 770/54 778/32
f 239/53 230/54 238/32
f 551/91 507/129 537/130
f 209/31 200/42 208/43
f 1168/40 90/124 1107/38
f 238/32 229/33 237/34
f 811/7 819/169 812/77
f 689/163 697/160 690/9
f 153/170 146/157 145/158
f 219/169 205/158 212/77
f 218/171 210/9 217/160
f 208/188 216/164 209/163
f 580/177 579/169 586/14
f 464/5 458/171 457/160
f 703/159 695/161 702/162
f 638/171 646/14 639/169
f 513/170 521/176 514/156
f 492/184 486/166 485/203
f 326/157 334/156 327/196
f 334/156 341/176 327/196
f 328/188 327/197 335/161
f 335/161 327/197 342/162
f 110/115 107/116 98/117
f 852/44 807/45 821/46
f 207/85 198/86 206/83
f 481/80 474/36 473/88
f 745/75 744/76 752/77
f 568/43 559/55 567/56
f 434/110 400/73 406/14
f 716/119 707/51 715/35
f 241/80 249/144 242/37
f 373/185 367/179 366/166
f 603/145 596/181 595/187
f 249/144 235/187 242/37
f 675/13 667/179 674/110
f 612/184 606/166 605/203
f 489/144 490/146 483/145
f 847/179 841/80 840/82
f 312/184 306/166 305/203
f 255/13 249/144 248/178
f 839/167 847/179 840/82
f 490/146 484/180 483/145
f 356/181 364/180 357/204
f 364/180 371/147 357/204
f 358/168 357/205 365/203
f 365/203 357/205 372/184
f 315/13 286/14 285/15
f 358/32 349/33 357/34
f 371/91 327/129 357/130
f 250/4 224/5 223/6
f 616/41 585/15 584/5
f 910/4 884/5 883/6
f 685/75 684/76 692/77
f 792/44 747/45 761/46
f 538/32 529/33 537/34
f 133/84 117/89 31/55
f 301/80 292/81 300/82
f 1186/38 90/115 1107/69
f 360/82 351/126 359/53
f 571/7 562/8 570/9
f 625/75 624/76 632/77
f 375/13 346/14 345/15
f 511/7 519/169 512/77
f 149/163 157/160 150/9
f 573/170 566/157 565/158
f 1059/169 1045/158 1052/77
f 158/171 150/9 157/160
f 148/188 156/164 149/163
f 1000/177 999/169 1006/14
f 644/5 638/171 637/160
f 762/162 756/164 755/161
f 518/171 526/14 519/169
f 163/159 157/160 156/164
f 809/163 817/160 810/9
f 386/157 394/156 387/196
f 394/156 401/176 387/196
f 388/188 387/197 395/161
f 395/161 387/197 402/162
f 631/7 622/8 630/9
f 179/53 170/54 178/32
f 722/37 713/88 721/80
f 648/50 657/118 649/143
f 539/53 530/54 538/32
f 41/67 23/206 24/207
f 151/7 142/8 150/9
f 176/119 167/51 175/35
f 915/13 909/144 908/178
f 610/146 609/144 616/41
f 663/145 656/181 655/187
f 629/163 637/160 630/9
f 615/13 609/144 608/178
f 306/166 298/168 305/203
f 703/159 697/160 696/164
f 315/13 307/179 314/110
f 694/156 685/158 693/170
f 1021/80 1029/144 1022/37
f 313/185 307/179 306/166
f 1055/161 1049/163 1048/188
f 416/181 424/180 417/204
f 424/180 431/147 417/204
f 418/168 417/205 425/203
f 425/203 417/205 432/184
f 931/7 922/8 930/9
f 432/44 387/45 401/46
f 47/149 38/60 39/62
f 46/150 37/57 38/59
f 600/82 591/126 599/53
f 68/79 65/2 67/29
f 242/37 233/88 241/80
f 328/43 319/55 327/56
f 63/1 57/2 58/3
f 1077/34 1070/54 1069/33
f 1021/80 1012/81 1020/82
f 671/91 627/129 657/130
f 193/72 161/46 160/73
f 93/89 1132/38 1165/69
f 313/72 281/46 280/73
f 390/9 381/30 389/31
f 211/7 219/169 212/77
f 569/163 577/160 570/9
f 581/176 573/170 580/177
f 339/169 325/158 332/77
f 577/160 571/7 570/9
f 389/163 397/160 390/9
f 219/169 220/177 213/170
f 584/5 578/171 577/160
f 943/159 935/161 942/162
f 698/171 706/14 699/169
f 823/159 817/160 816/164
f 463/159 457/160 456/164
f 446/157 454/156 447/196
f 454/156 461/176 447/196
f 448/188 447/197 455/161
f 455/161 447/197 462/162
f 602/37 587/51 594/36
f 956/119 949/143 948/50
f 332/77 323/165 331/7
f 208/43 199/55 207/56
f 601/80 594/36 593/88
f 791/91 763/6 762/92
f 326/83 317/84 325/75
f 331/7 322/8 330/9
f 841/80 849/144 842/37
f 309/144 310/146 303/145
f 723/145 716/181 715/187
f 609/144 595/187 602/37
f 247/179 241/80 240/82
f 246/166 238/168 245/203
f 307/179 299/167 306/166
f 555/13 547/179 554/110
f 252/184 246/166 245/203
f 151/7 159/169 152/77
f 549/144 550/146 543/145
f 970/146 964/180 963/145
f 476/181 484/180 477/204
f 484/180 491/147 477/204
f 478/168 477/205 485/203
f 485/203 477/205 492/184
f 510/9 501/30 509/31
f 747/85 738/86 746/83
f 659/53 650/54 658/32
f 370/4 344/5 343/6
f 256/41 225/15 224/5
f 986/83 977/84 985/75
f 418/32 409/33 417/34
f 746/83 737/84 745/75
f 752/77 743/165 751/7
f 599/53 590/54 598/32
f 376/41 345/15 344/5
f 851/91 807/129 837/130
f 596/119 589/143 588/50
f 750/9 741/30 749/31
f 613/72 581/46 580/73
f 902/37 893/88 901/80
f 991/7 999/169 992/77
f 220/177 214/156 213/170
f 273/170 266/157 265/158
f 399/169 385/158 392/77
f 457/160 451/7 450/9
f 883/159 877/160 876/164
f 845/203 853/185 846/166
f 764/5 758/171 757/160
f 283/159 275/161 282/162
f 218/171 226/14 219/169
f 643/159 637/160 636/164
f 273/170 281/176 274/156
f 506/157 514/156 507/196
f 514/156 521/176 507/196
f 508/188 507/197 515/161
f 515/161 507/197 522/162
f 287/51 296/119 288/50
f 101/106 1099/107 1167/108
f 507/85 498/86 506/83
f 925/75 924/76 932/77
f 781/80 774/36 773/88
f 392/77 383/165 391/7
f 511/7 502/8 510/9
f 791/91 747/129 777/130
f 781/80 789/144 782/37
f 433/185 427/179 426/166
f 963/145 956/181 955/187
f 755/161 749/163 748/188
f 361/80 369/144 362/37
f 426/166 418/168 425/203
f 479/167 487/179 480/82
f 555/13 549/144 548/178
f 192/184 186/166 185/203
f 435/13 427/179 434/110
f 249/144 250/146 243/145
f 310/146 304/180 303/145
f 536/181 544/180 537/204
f 544/180 551/147 537/204
f 538/168 537/205 545/203
f 545/203 537/205 552/184
f 92/114 86/55 27/84
f 809/31 800/42 808/43
f 687/85 678/86 686/83
f 790/4 764/5 763/6
f 1033/72 1001/46 1000/73
f 445/75 444/76 452/77
f 298/32 289/33 297/34
f 512/77 503/165 511/7
f 435/13 406/14 405/15
f 254/110 220/73 226/14
f 211/7 202/8 210/9
f 82/106 1102/107 1131/108
f 508/43 499/55 507/56
f 180/82 171/126 179/53
f 480/82 471/126 479/53
f 838/32 829/33 837/34
f 451/7 459/169 452/77
f 1089/144 1075/187 1082/37
f 333/170 326/157 325/158
f 459/169 445/158 452/77
f 817/160 811/7 810/9
f 448/188 456/164 449/163
f 999/169 985/158 992/77
f 944/5 938/171 937/160
f 1062/162 1056/164 1055/161
f 818/171 826/14 819/169
f 943/159 937/160 936/164
f 1061/176 1053/170 1060/177
f 566/157 574/156 567/196
f 574/156 581/176 567/196
f 568/188 567/197 575/161
f 575/161 567/197 582/162
f 842/37 827/51 834/36
f 48/125 46/150 47/149
f 1127/47 16/48 1151/49
f 536/119 527/51 535/35
f 1021/80 1014/36 1013/88
f 448/43 439/55 447/56
f 566/83 557/84 565/75
f 778/32 769/33 777/34
f 481/80 489/144 482/37
f 613/185 607/179 606/166
f 483/145 476/181 475/187
f 789/144 775/187 782/37
f 855/13 849/144 848/178
f 993/170 1001/176 994/156
f 369/144 370/146 363/145
f 195/13 189/144 188/178
f 846/166 838/168 845/203
f 307/179 301/80 300/82
f 853/185 847/179 846/166
f 243/145 236/181 235/187
f 596/181 604/180 597/204
f 604/180 611/147 597/204
f 598/168 597/205 605/203
f 605/203 597/205 612/184
f 389/31 380/42 388/43
f 735/13 706/14 705/15
f 554/110 520/73 526/14
f 490/4 464/5 463/6
f 496/41 465/15 464/5
f 433/72 401/46 400/73
f 959/53 950/54 958/32
f 810/9 801/30 809/31
f 361/80 352/81 360/82
f 567/85 558/86 566/83
f 269/31 260/42 268/43
f 329/31 320/42 328/43
f 272/77 263/165 271/7
f 491/91 463/6 462/92
f 661/80 652/81 660/82
f 970/4 944/5 943/6
f 751/7 759/169 752/77
f 582/162 576/164 575/161
f 432/184 426/166 425/203
f 279/169 265/158 272/77
f 909/144 895/187 902/37
f 328/188 336/164 329/163
f 159/169 160/177 153/170
f 884/5 878/171 877/160
f 523/159 515/161 522/162
f 758/171 766/14 759/169
f 403/159 397/160 396/164
f 732/184 726/166 725/203
f 626/157 634/156 627/196
f 634/156 641/176 627/196
f 628/188 627/197 635/161
f 635/161 627/197 642/162
f 479/53 470/54 478/32
f 91/115 123/116 129/117
f 689/31 680/42 688/43
f 897/118 888/50 896/119
f 1117/69 105/70 1109/71
f 673/72 641/46 640/73
f 719/53 710/54 718/32
f 887/51 896/119 888/50
f 181/80 189/144 182/37
f 419/167 427/179 420/82
f 183/145 176/181 175/187
f 189/144 190/146 183/145
f 607/179 601/80 600/82
f 786/166 778/168 785/203
f 1087/179 1079/167 1086/166
f 727/179 721/80 720/82
f 913/185 905/203 912/184
f 607/179 615/13 608/178
f 913/185 907/179 906/166
f 191/147 183/145 190/146
f 656/181 664/180 657/204
f 664/180 671/147 657/204
f 658/168 657/205 665/203
f 665/203 657/205 672/184
f 251/91 207/129 237/130
f 415/35 414/36 422/37
f 912/44 867/45 881/46
f 190/4 164/5 163/6
f 708/50 717/118 709/143
f 811/7 802/8 810/9
f 865/75 864/76 872/77
f 1017/118 1008/50 1016/119
f 90/124 1154/69 1107/38
f 311/91 283/6 282/92
f 311/91 267/129 297/130
f 991/7 982/8 990/9
f 661/80 654/36 653/88
f 781/80 772/81 780/82
f 836/119 829/143 828/50
f 674/110 640/73 646/14
f 931/7 939/169 932/77
f 269/163 277/160 270/9
f 754/156 745/158 753/170
f 939/169 925/158 932/77
f 338/171 330/9 337/160
f 635/161 629/163 628/188
f 939/169 940/177 933/170
f 824/5 818/171 817/160
f 223/159 215/161 222/162
f 938/171 946/14 939/169
f 1063/159 1057/160 1056/164
f 989/163 997/160 990/9
f 686/157 694/156 687/196
f 694/156 701/176 687/196
f 688/188 687/197 695/161
f 695/161 687/197 702/162
f 806/83 797/84 805/75
f 718/32 709/33 717/34
f 551/91 523/6 522/92
f 961/80 954/36 953/88
f 146/83 137/84 145/75
f 78/28 75/29 73/2
f 794/110 760/73 766/14
f 482/37 467/51 474/36
f 675/13 669/144 668/178
f 733/185 727/179 726/166
f 1091/147 1083/145 1090/146
f 667/179 659/167 666/166
f 375/13 367/179 374/110
f 666/166 658/168 665/203
f 849/144 850/146 843/145
f 855/13 847/179 854/110
f 972/184 966/166 965/203
f 661/80 669/144 662/37
f 253/185 247/179 246/166
f 250/146 244/180 243/145
f 716/181 724/180 717/204
f 724/180 731/147 717/204
f 718/168 717/205 725/203
f 725/203 717/205 732/184
f 299/53 290/54 298/32
f 721/80 712/81 720/82
f 691/7 682/8 690/9
f 610/4 584/5 583/6
f 856/41 825/15 824/5
f 598/32 589/33 597/34
f 134/116 118/115 90/124
f 854/110 820/73 826/14
f 206/83 197/84 205/75
f 658/32 649/33 657/34
f 150/9 141/30 149/31
f 611/91 583/6 582/92
f 976/41 945/15 944/5
f 990/9 981/30 989/31
f 992/77 983/165 991/7
f 420/82 411/126 419/53
f 871/7 879/169 872/77
f 1030/146 1029/144 1036/41
f 994/156 985/158 993/170
f 639/169 625/158 632/77
f 495/13 487/179 494/110
f 995/161 989/163 988/188
f 879/169 880/177 873/170
f 1004/5 998/171 997/160
f 163/159 155/161 162/162
f 878/171 886/14 879/169
f 283/159 277/160 276/164
f 873/170 881/176 874/156
f 746/157 754/156 747/196
f 754/156 761/176 747/196
f 748/188 747/197 755/161
f 755/161 747/197 762/162
f 1022/37 1007/51 1014/36
f 866/83 857/84 865/75
f 314/110 280/73 286/14
f 475/35 468/50 467/51
f 168/50 177/118 169/143
f 886/14 913/72 880/73
f 553/72 521/46 520/73
f 505/75 504/76 512/77
f 698/171 690/9 697/160
f 729/144 715/187 722/37
f 1023/145 1016/181 1015/187
f 549/144 535/187 542/37
f 907/179 901/80 900/82
f 1026/166 1018/168 1025/203
f 719/167 727/179 720/82
f 795/13 789/144 788/178
f 874/156 865/158 873/170
f 1027/179 1021/80 1020/82
f 779/167 787/179 780/82
f 393/170 386/157 385/158
f 776/181 784/180 777/204
f 784/180 791/147 777/204
f 778/168 777/205 785/203
f 785/203 777/205 792/184
f 1186/38 88/39 1181/40
f 1016/119 1007/51 1015/35
f 596/119 587/51 595/35
f 670/4 644/5 643/6
f 316/41 285/15 284/5
f 1184/38 111/115 1177/69
f 765/15 794/110 766/14
f 1031/91 987/129 1017/130
f 690/9 681/30 689/31
f 191/91 163/6 162/92
f 54/28 51/29 49/2
f 300/82 291/126 299/53
f 960/82 951/126 959/53
f 615/13 586/14 585/15
f 688/43 679/55 687/56
f 731/91 703/6 702/92
f 1051/7 1059/169 1052/77
f 1003/159 997/160 996/164
f 1054/156 1045/158 1053/170
f 519/169 505/158 512/77
f 937/160 931/7 930/9
f 635/161 643/159 636/164
f 1059/169 1060/177 1053/170
f 1064/5 1058/171 1057/160
f 1023/145 1031/147 1024/180
f 1058/171 1066/14 1059/169
f 223/159 217/160 216/164
f 333/170 341/176 334/156
f 806/157 814/156 807/196
f 814/156 821/176 807/196
f 808/188 807/197 815/161
f 815/161 807/197 822/162
f 962/37 947/51 954/36
f 491/91 447/129 477/130
f 268/43 259/55 267/56
f 660/82 651/126 659/53
f 1081/80 1074/36 1073/88
f 812/77 803/165 811/7
f 686/83 677/84 685/75
f 495/13 466/14 465/15
f 541/80 549/144 542/37
f 669/144 655/187 662/37
f 611/147 603/145 610/146
f 489/144 475/187 482/37
f 967/179 961/80 960/82
f 606/166 598/168 605/203
f 1033/185 1027/179 1026/166
f 1087/179 1081/80 1080/82
f 552/184 546/166 545/203
f 721/80 729/144 722/37
f 1093/185 1087/179 1086/166
f 371/147 363/145 370/146
f 836/181 844/180 837/204
f 844/180 851/147 837/204
f 838/168 837/205 845/203
f 845/203 837/205 852/184
f 720/82 711/126 719/53
f 630/9 621/30 629/31
f 478/32 469/33 477/34
f 310/4 284/5 283/6
f 796/41 765/15 764/5
f 240/82 231/126 239/53
f 840/82 831/126 839/53
f 956/119 947/51 955/35
f 715/35 714/36 722/37
f 927/85 918/86 926/83
f 675/13 646/14 645/15
f 44/64 22/54 23/208
f 733/72 701/46 700/73
f 194/110 160/73 166/14
f 853/72 821/46 820/73
f 90/115 87/116 26/117
f 331/7 339/169 332/77
f 699/169 685/158 692/77
f 814/156 805/158 813/170
f 759/169 745/158 752/77
f 398/171 390/9 397/160
f 695/161 689/163 688/188
f 520/177 519/169 526/14
f 224/5 218/171 217/160
f 875/161 869/163 868/188
f 998/171 1006/14 999/169
f 429/144 415/187 422/37
f 633/170 641/176 634/156
f 866/157 874/156 867/196
f 874/156 881/176 867/196
f 868/188 867/197 875/161
f 875/161 867/197 882/162
f 210/9 201/30 209/31
f 387/85 378/86 386/83
f 1091/91 1047/129 1077/130
f 730/4 704/5 703/6
f 373/72 341/46 340/73
f 975/13 946/14 945/15
f 900/82 891/126 899/53
f 416/119 407/51 415/35
f 428/178 422/37 421/80
f 729/144 730/146 723/145
f 793/185 787/179 786/166
f 869/163 877/160 870/9
f 795/13 787/179 794/110
f 546/166 538/168 545/203
f 568/188 576/164 569/163
f 975/13 967/179 974/110
f 634/156 625/158 633/170
f 435/13 429/144 428/178
f 899/167 907/179 900/82
f 883/159 875/161 882/162
f 896/181 904/180 897/204
f 904/180 911/147 897/204
f 898/168 897/205 905/203
f 905/203 897/205 912/184
f 386/83 377/84 385/75
f 481/80 472/81 480/82
f 629/31 620/42 628/43
f 1177/38 99/39 1108/40
f 836/119 827/51 835/35
f 1077/118 1068/50 1076/119
f 928/43 919/55 927/56
f 780/82 771/126 779/53
f 915/13 886/14 885/15
f 1107/69 26/70 1125/71
f 805/75 804/76 812/77
f 1080/82 1071/126 1079/53
f 930/9 921/30 929/31
f 911/91 883/6 882/92
f 748/43 739/55 747/56
f 506/83 497/84 505/75
f 609/144 601/80 608/178
f 400/177 394/156 393/170
f 372/184 366/166 365/203
f 579/169 565/158 572/77
f 1057/160 1051/7 1050/9
f 815/161 809/163 808/188
f 459/169 460/177 453/170
f 704/5 698/171 697/160
f 342/162 336/164 335/161
f 338/171 346/14 339/169
f 749/163 757/160 750/9
f 693/170 701/176 694/156
f 926/157 934/156 927/196
f 934/156 941/176 927/196
f 928/188 927/197 935/161
f 935/161 927/197 942/162
f 1082/37 1067/51 1074/36
f 113/89 1177/38 1117/69
f 871/7 862/8 870/9
f 932/77 923/165 931/7
f 841/80 834/36 833/88
f 913/72 881/46 880/73
f 926/83 917/84 925/75
f 974/110 940/73 946/14
f 975/13 969/144 968/178
f 789/144 790/146 783/145
f 843/145 836/181 835/187
f 1089/144 1090/146 1083/145
f 735/13 727/179 734/110
f 486/166 478/168 485/203
f 969/144 955/187 962/37
f 787/179 781/80 780/82
f 457/160 449/163 456/164
f 1095/13 1089/144 1088/178
f 493/185 487/179 486/166
f 550/146 544/180 543/145
f 956/181 964/180 957/204
f 964/180 971/147 957/204
f 958/168 957/205 965/203
f 965/203 957/205 972/184
f 355/35 354/36 362/37
f 115/114 100/55 108/84
f 899/53 890/54 898/32
f 253/72 221/46 220/73
f 872/77 863/165 871/7
f 868/43 859/55 867/56
f 911/91 867/129 897/130
f 916/41 885/15 884/5
f 808/43 799/55 807/56
f 839/53 830/54 838/32
f 191/91 147/129 177/130
f 1187/93 5/94 1155/95
f 973/72 941/46 940/73
f 509/31 500/42 508/43
f 793/72 761/46 760/73
f 898/32 889/33 897/34
f 631/7 639/169 632/77
f 509/163 517/160 510/9
f 793/185 785/203 792/184
f 879/169 865/158 872/77
f 757/160 751/7 750/9
f 730/146 724/180 723/145
f 279/169 280/177 273/170
f 164/5 158/171 157/160
f 403/159 395/161 402/162
f 578/171 586/14 579/169
f 763/159 757/160 756/164
f 966/166 958/168 965/203
f 986/157 994/156 987/196
f 994/156 1001/176 987/196
f 988/188 987/197 995/161
f 995/161 987/197 1002/162
f 647/51 656/119 648/50
f 135/117 120/124 30/116
f 494/110 460/73 466/14
f 988/43 979/55 987/56
f 297/118 288/50 296/119
f 312/44 267/45 281/46
f 241/80 232/81 240/82
f 992/77 977/84 984/76
f 1035/13 1029/144 1028/178
f 903/145 896/181 895/187
f 303/145 296/181 295/187
f 583/159 577/160 576/164
f 367/179 361/80 360/82
f 898/168 906/166 899/167
f 460/177 454/156 453/170
f 735/13 729/144 728/178
f 934/156 925/158 933/170
f 961/80 969/144 962/37
f 1019/167 1027/179 1020/82
f 783/145 791/147 784/180
f 1016/181 1024/180 1017/204
f 1024/180 1031/147 1017/204
f 1018/168 1017/205 1025/203
f 1025/203 1017/205 1032/184
f 236/119 227/51 235/35
f 776/119 767/51 775/35
f 1132/38 27/39 1105/40
f 431/91 387/129 417/130
f 70/28 67/29 65/2
f 971/91 943/6 942/92
f 1046/83 1037/84 1045/75
f 196/41 165/15 164/5
f 449/31 440/42 448/43
f 1049/31 1040/42 1048/43
f 94/115 25/116 85/117
f 431/91 403/6 402/92
f 1145/38 110/115 1159/69
f 125/89 1159/38 1164/69
f 632/77 623/165 631/7
f 1046/83 1039/148 1038/86
f 571/7 579/169 572/77
f 929/163 937/160 930/9
f 820/177 814/156 813/170
f 159/169 145/158 152/77
f 997/160 991/7 990/9
f 935/161 929/163 928/188
f 339/169 340/177 333/170
f 158/171 166/14 159/169
f 363/145 356/181 355/187
f 908/178 902/37 901/80
f 1029/144 1015/187 1022/37
f 1092/184 1086/166 1085/203
f 1046/157 1054/156 1047/196
f 1054/156 1061/176 1047/196
f 1048/188 1047/197 1055/161
f 1055/161 1047/197 1062/162
f 542/37 527/51 534/36
f 1050/9 1043/165 1042/8
f 807/85 798/86 806/83
f 989/31 980/42 988/43
f 228/50 237/118 229/143
f 1048/43 1039/55 1047/56
f 972/44 927/45 941/46
f 867/85 858/86 866/83
f 517/160 511/7 510/9
f 607/179 599/167 606/166
f 911/147 903/145 910/146
f 969/144 970/146 963/145
f 667/179 661/80 660/82
f 366/166 358/168 365/203
f 429/144 430/146 423/145
f 915/13 907/179 914/110
f 1086/166 1078/168 1085/203
f 1081/80 1089/144 1082/37
f 189/144 175/187 182/37
f 423/145 416/181 415/187
f 1076/181 1084/180 1077/204
f 1084/180 1091/147 1077/204
f 1078/168 1077/205 1085/203
f 1085/203 1077/205 1092/184
f 901/80 892/81 900/82
f 1034/110 1000/73 1006/14
f 1005/15 1034/110 1006/14
f 655/35 654/36 662/37
f 1127/98 4/195 1148/128
f 1164/69 121/70 1106/71
f 205/75 204/76 212/77
f 1052/77 1043/165 1051/7
f 875/161 876/164 869/163
f 189/144 196/41 190/146
f 1055/161 1056/164 1049/163
f 133/84 89/114 117/89
f 512/77 504/76 503/165
f 720/82 712/81 711/126
f 432/184 433/185 426/166
f 688/43 680/42 679/55
f 783/145 784/180 776/181
f 1210/209 1112/142 1158/19
f 1137/12 121/104 123/123
f 327/85 319/148 318/86
f 541/80 533/88 532/81
f 119/114 1177/69 112/89
f 749/31 741/30 740/42
f 187/179 180/82 179/167
f 12/23 1150/16 1102/18
f 398/171 405/15 406/14
f 1095/13 1094/110 1066/14
f 1179/19 34/152 14/20
f 727/179 728/178 721/80
f 600/82 592/81 591/126
f 571/7 563/165 562/8
f 638/171 645/15 646/14
f 610/146 603/145 609/144
f 389/31 381/30 380/42
f 1058/171 1065/15 1066/14
f 369/144 363/145 355/187
f 819/169 826/14 820/177
f 447/85 439/148 438/86
f 109/89 1126/71 100/111
f 91/124 1132/38 1105/40
f 446/83 438/86 437/84
f 1197/209 1113/142 1156/19
f 84/183 1127/98 1148/128
f 422/37 414/36 413/88
f 86/101 88/10 1138/102
f 699/169 706/14 700/177
f 42/58 41/172 24/112
f 1214/210 17/211 1199/212
f 913/185 906/166 905/203
f 1081/80 1082/37 1074/36
f 210/9 202/8 201/30
f 239/53 231/126 230/54
f 249/144 243/145 235/187
f 629/163 636/164 637/160
f 373/72 372/44 341/46
f 445/75 437/84 444/76
f 694/156 686/157 685/158
f 809/163 816/164 817/160
f 854/110 853/72 820/73
f 190/4 196/41 164/5
f 866/83 858/86 857/84
f 314/110 313/72 280/73
f 435/13 434/110 406/14
f 1184/38 120/124 111/115
f 278/171 285/15 286/14
f 1202/209 1140/142 1190/19
f 128/124 1137/40 123/74
f 1153/93 84/103 31/101
f 1147/93 83/183 15/94
f 113/89 1109/71 106/111
f 929/31 921/30 920/42
f 570/9 562/8 561/30
f 11/17 1136/25 1135/27
f 388/188 395/161 396/164
f 295/35 287/51 294/36
f 1136/25 35/155 15/26
f 698/171 705/15 706/14
f 698/171 691/7 690/9
f 887/51 895/35 896/119
f 568/43 560/42 559/55
f 163/159 156/164 155/161
f 480/82 472/81 471/126
f 690/9 682/8 681/30
f 145/75 137/84 144/76
f 344/5 345/15 338/171
f 734/110 733/72 700/73
f 1188/71 111/115 135/70
f 102/127 1/195 1100/128
f 1153/93 103/183 13/94
f 134/105 1127/47 82/106
f 114/115 111/124 97/116
f 1185/38 128/124 91/115
f 53/78 56/213 52/79
f 427/179 428/178 421/80
f 1163/134 33/214 1207/135
f 19/40 1216/215 1213/74
f 68/79 66/3 65/2
f 779/167 786/166 787/179
f 1186/38 95/114 88/39
f 689/163 696/164 697/160
f 839/167 846/166 847/179
f 1000/177 993/170 999/169
f 168/50 176/119 177/118
f 613/185 614/110 607/179
f 943/159 936/164 935/161
f 732/184 733/185 726/166
f 602/37 595/35 587/51
f 459/169 453/170 445/158
f 48/125 45/121 46/150
f 907/179 908/178 901/80
f 855/13 856/41 849/144
f 719/167 726/166 727/179
f 553/185 554/110 547/179
f 6/20 1130/153 1170/22
f 1144/40 109/114 131/39
f 1190/19 1140/142 1212/141
f 1159/69 110/115 98/70
f 1107/38 117/89 89/114
f 372/44 357/190 327/45
f 186/166 179/167 178/168
f 4/17 1149/25 1148/27
f 1002/162 1003/159 996/164
f 1190/19 35/152 6/20
f 1158/19 36/152 16/20
f 689/31 681/30 680/42
f 648/50 656/119 657/118
f 733/72 732/44 701/46
f 110/115 116/124 107/116
f 1026/166 1019/167 1018/168
f 554/110 553/72 520/73
f 658/32 650/54 649/33
f 1017/34 1018/32 1010/54
f 399/169 406/14 400/177
f 325/75 317/84 324/76
f 1201/151 1198/216 1216/215
f 1192/131 36/155 1196/132
f 933/170 940/177 941/176
f 1204/198 1129/217 1121/16
f 1030/4 1036/41 1004/5
f 356/119 348/50 347/51
f 1091/91 1090/4 1063/6
f 348/50 356/119 357/118
f 95/114 89/89 28/55
f 1193/218 1214/210 1211/219
f 1023/145 1024/180 1016/181
f 420/82 412/81 411/126
f 849/144 856/41 850/146
f 238/32 230/54 229/33
f 489/144 496/41 490/146
f 644/5 645/15 638/171
f 1016/119 1008/50 1007/51
f 92/114 93/89 86/55
f 158/171 151/7 150/9
f 998/171 1005/15 1006/14
f 670/4 676/41 644/5
f 181/80 188/178 189/144
f 159/169 166/14 160/177
f 206/83 198/86 197/84
f 426/166 419/167 418/168
f 191/91 190/4 163/6
f 555/13 554/110 526/14
f 7/20 1152/153 1178/22
f 101/106 1134/49 3/52
f 1131/108 101/127 30/123
f 271/7 278/171 279/169
f 82/106 1151/49 12/52
f 103/103 1187/93 1155/95
f 270/9 262/8 261/30
f 9/17 1104/25 1103/27
f 909/144 916/41 910/146
f 1191/22 19/154 12/23
f 266/83 258/86 257/84
f 489/144 483/145 475/187
f 699/169 693/170 685/158
f 708/50 716/119 717/118
f 745/75 737/84 744/76
f 1031/91 1002/92 987/129
f 433/185 434/110 427/179
f 283/159 284/5 277/160
f 52/79 50/3 49/2
f 823/159 816/164 815/161
f 89/89 1107/69 1125/71
f 1187/93 108/10 104/183
f 971/91 942/92 927/129
f 212/77 204/76 203/165
f 82/127 1120/107 4/220
f 135/120 101/127 1162/98
f 611/91 582/92 567/129
f 1143/93 84/183 8/94
f 209/163 216/164 217/160
f 105/104 101/106 1166/122
f 1216/215 1193/218 1209/221
f 762/162 763/159 756/164
f 873/170 880/177 881/176
f 1022/37 1015/35 1007/51
f 153/170 154/156 146/157
f 358/32 350/54 349/33
f 806/83 798/86 797/84
f 44/64 43/174 22/54
f 635/161 636/164 629/163
f 269/31 261/30 260/42
f 482/37 475/35 467/51
f 539/53 531/126 530/54
f 721/80 728/178 729/144
f 963/145 964/180 956/181
f 553/72 552/44 521/46
f 759/169 753/170 745/158
f 718/32 710/54 709/33
f 375/13 376/41 369/144
f 1200/209 1128/142 1179/19
f 1124/49 104/103 14/48
f 1133/16 1097/217 1199/151
f 452/77 444/76 443/165
f 96/124 1181/40 87/74
f 569/31 561/30 560/42
f 1095/13 1088/178 1087/179
f 1/17 1101/25 1100/27
f 524/5 525/15 518/171
f 1133/16 17/40 1/17
f 1101/25 34/155 5/26
f 661/80 653/88 652/81
f 625/75 617/84 624/76
f 1051/7 1058/171 1059/169
f 703/159 696/164 695/161
f 1004/5 1005/15 998/171
f 1062/162 1063/159 1056/164
f 607/179 608/178 601/80
f 487/179 488/178 481/80
f 77/78 80/213 76/79
f 851/91 850/4 823/6
f 82/106 1131/108 1175/122
f 11/17 1130/148 1136/25
f 265/75 257/84 264/76
f 1194/198 1097/217 1133/16
f 359/53 351/126 350/54
f 301/80 308/178 309/144
f 56/90 55/87 50/3
f 895/35 887/51 894/36
f 671/91 670/4 643/6
f 1139/12 105/104 107/123
f 191/147 184/180 183/145
f 251/91 222/92 207/129
f 311/91 282/92 267/129
f 1064/5 1065/15 1058/171
f 790/4 796/41 764/5
f 149/163 156/164 157/160
f 878/171 885/15 886/14
f 479/167 486/166 487/179
f 1186/38 96/124 90/115
f 1033/185 1034/110 1027/179
f 268/43 260/42 259/55
f 751/7 758/171 759/169
f 298/32 290/54 289/33
f 673/72 672/44 641/46
f 809/31 801/30 800/42
f 505/75 497/84 504/76
f 849/144 843/145 835/187
f 132/74 110/124 1159/38
f 129/70 1132/69 91/115
f 23/191 36/155 1192/131
f 309/144 303/145 295/187
f 1213/198 1141/217 1150/16
f 125/89 1164/69 1106/71
f 541/80 542/37 534/36
f 15/26 1179/19 1171/21
f 878/171 871/7 870/9
f 450/9 442/8 441/30
f 1036/41 1035/13 1005/15
f 251/91 250/4 223/6
f 326/83 318/86 317/84
f 884/5 885/15 878/171
f 254/110 253/72 220/73
f 481/80 482/37 474/36
f 791/91 762/92 747/129
f 54/28 53/222 51/29
f 429/144 423/145 415/187
f 1127/98 84/183 28/99
f 32/104 82/106 1175/122
f 83/183 1147/93 1146/189
f 108/10 106/101 1109/11
f 362/37 354/36 353/88
f 98/120 1173/98 1126/100
f 1162/47 101/106 97/105
f 673/185 674/110 667/179
f 421/80 413/88 412/81
f 359/167 366/166 367/179
f 1094/110 1093/72 1060/73
f 1141/223 1215/224 1203/225
f 685/75 677/84 684/76
f 990/9 982/8 981/30
f 994/156 986/157 985/158
f 219/169 213/170 205/158
f 490/146 491/147 484/180
f 252/184 253/185 246/166
f 786/166 779/167 778/168
f 943/159 944/5 937/160
f 613/72 612/44 581/46
f 361/80 353/88 352/81
f 371/91 342/92 327/129
f 995/161 996/164 989/163
f 507/85 499/148 498/86
f 910/4 916/41 884/5
f 249/144 256/41 250/146
f 824/5 825/15 818/171
f 284/5 285/15 278/171
f 1172/22 17/154 10/23
f 117/89 1180/71 31/111
f 1121/16 1129/217 1201/151
f 850/146 851/147 844/180
f 9/17 1152/148 1104/25
f 825/15 855/13 854/110
f 547/179 548/178 541/80
f 7/20 1178/22 1134/24
f 639/169 646/14 640/177
f 1156/19 33/152 7/20
f 1104/25 33/155 13/26
f 841/80 833/88 832/81
f 538/32 530/54 529/33
f 879/169 886/14 880/177
f 669/144 663/145 655/187
f 492/184 493/185 486/166
f 755/161 756/164 749/163
f 567/85 559/148 558/86
f 287/51 295/35 296/119
f 967/179 960/82 959/167
f 388/43 380/42 379/55
f 1209/221 1211/219 1215/224
f 55/1 54/226 49/2
f 458/171 465/15 466/14
f 1202/209 23/191 1140/142
f 130/55 124/84 127/114
f 1083/145 1084/180 1076/181
f 102/106 10/109 1122/107
f 973/185 974/110 967/179
f 537/118 529/143 528/50
f 1215/224 1097/227 1194/228
f 163/159 164/5 157/160
f 328/188 335/161 336/164
f 846/166 839/167 838/168
f 1168/40 134/74 90/124
f 612/184 613/185 606/166
f 360/82 352/81 351/126
f 150/9 142/8 141/30
f 925/75 917/84 924/76
f 573/170 574/156 566/157
f 886/14 914/110 913/72
f 631/7 623/165 622/8
f 272/77 264/76 263/165
f 310/146 311/147 304/180
f 735/13 734/110 706/14
f 781/80 788/178 789/144
f 610/4 616/41 584/5
f 1049/163 1056/164 1057/160
f 493/72 492/44 461/46
f 1160/12 32/104 30/123
f 24/192 33/214 1163/134
f 495/13 496/41 489/144
f 1205/198 1098/217 1123/16
f 111/124 1177/38 1108/40
f 374/110 373/72 340/73
f 1143/93 88/10 84/183
f 136/111 112/89 1177/69
f 1075/35 1076/119 1068/50
f 83/103 1169/95 6/182
f 255/13 254/110 226/14
f 63/1 62/226 57/2
f 810/9 802/8 801/30
f 101/106 3/109 1099/107
f 207/85 199/148 198/86
f 687/85 679/148 678/86
f 856/41 855/13 825/15
f 392/77 384/76 383/165
f 759/169 766/14 760/177
f 1164/69 1159/38 110/124
f 101/106 1167/108 1166/122
f 391/7 383/165 382/8
f 1032/44 1017/190 987/45
f 136/99 1162/98 103/183
f 267/85 259/148 258/86
f 431/147 424/180 423/145
f 27/96 1111/47 1105/97
f 343/159 344/5 337/160
f 1118/108 81/127 123/123
f 84/103 1157/95 16/182
f 41/67 44/175 23/206
f 134/116 32/117 118/115
f 611/91 610/4 583/6
f 218/171 211/7 210/9
f 315/13 314/110 286/14
f 555/13 556/41 549/144
f 481/80 488/178 489/144
f 435/13 428/178 427/179
f 814/156 806/157 805/158
f 491/91 490/4 463/6
f 956/119 957/118 949/143
f 316/41 315/13 285/15
f 1127/47 84/103 16/48
f 639/169 633/170 625/158
f 999/169 993/170 985/158
f 789/144 783/145 775/187
f 751/7 743/165 742/8
f 14/20 1114/153 1172/22
f 732/44 717/190 687/45
f 1123/16 1098/217 1195/151
f 1162/98 101/127 9/195
f 1131/108 9/220 101/127
f 192/44 177/190 147/45
f 782/37 775/35 767/51
f 8/26 1190/19 1169/21
f 391/7 398/171 399/169
f 1121/16 19/40 4/17
f 271/7 263/165 262/8
f 523/159 516/164 515/161
f 448/188 455/161 456/164
f 1030/146 1023/145 1029/144
f 464/5 465/15 458/171
f 520/177 513/170 519/169
f 883/159 884/5 877/160
f 853/185 854/110 847/179
f 255/13 248/178 247/179
f 315/13 316/41 309/144
f 45/121 48/125 40/66
f 103/183 1103/128 13/186
f 1117/69 1177/38 111/124
f 676/41 675/13 645/15
f 1173/98 5/186 104/183
f 29/10 103/183 1189/189
f 371/91 370/4 343/6
f 436/41 435/13 405/15
f 175/35 167/51 174/36
f 88/10 86/101 1161/11
f 1211/219 1199/212 1097/227
f 393/170 394/156 386/157
f 970/4 976/41 944/5
f 961/80 962/37 954/36
f 551/91 522/92 507/129
f 603/145 604/180 596/181
f 1091/91 1062/92 1047/129
f 299/53 291/126 290/54
f 457/160 458/171 451/7
f 675/13 674/110 646/14
f 855/13 848/178 847/179
f 871/7 878/171 879/169
f 195/13 196/41 189/144
f 224/5 225/15 218/171
f 240/82 232/81 231/126
f 764/5 765/15 758/171
f 721/80 713/88 712/81
f 455/161 462/162 463/159
f 4/17 1142/148 1149/25
f 601/80 593/88 592/81
f 22/194 35/152 1183/140
f 508/188 515/161 516/164
f 1167/108 1/220 102/127
f 106/101 108/10 1182/102
f 80/90 79/87 74/3
f 16/20 1191/22 1151/24
f 819/169 813/170 805/158
f 235/35 227/51 234/36
f 870/9 862/8 861/30
f 253/185 254/110 247/179
f 375/13 368/178 367/179
f 307/179 308/178 301/80
f 373/185 374/110 367/179
f 731/91 730/4 703/6
f 90/115 96/124 87/116
f 667/179 660/82 659/167
f 572/77 564/76 563/165
f 1045/75 1037/84 1044/76
f 1183/140 35/152 1212/141
f 102/106 1118/108 1174/122
f 1079/53 1071/126 1070/54
f 112/89 136/55 29/84
f 1181/12 85/104 87/123
f 540/82 532/81 531/126
f 79/1 78/226 73/2
f 61/78 64/213 60/79
f 1032/184 1033/185 1026/166
f 1176/137 34/229 1206/138
f 1217/200 1098/230 1208/231
f 194/110 193/72 160/73
f 666/166 659/167 658/168
f 972/184 973/185 966/166
f 208/188 215/161 216/164
f 255/13 256/41 249/144
f 598/32 590/54 589/33
f 508/43 500/42 499/55
f 376/41 375/13 345/15
f 765/15 795/13 794/110
f 243/145 244/180 236/181
f 630/9 622/8 621/30
f 976/41 975/13 945/15
f 750/9 742/8 741/30
f 616/41 615/13 585/15
f 747/85 739/148 738/86
f 818/171 825/15 826/14
f 1204/198 18/154 1195/199
f 252/44 237/190 207/45
f 1110/71 130/111 92/89
f 1150/16 1141/217 1203/151
f 195/13 188/178 187/179
f 1129/217 1217/200 1198/216
f 419/53 411/126 410/54
f 239/167 246/166 247/179
f 10/23 1123/16 1122/18
f 302/37 294/36 293/88
f 1178/22 20/154 3/23
f 612/44 597/190 567/45
f 671/147 664/180 663/145
f 796/41 795/13 765/15
f 596/119 588/50 587/51
f 633/170 640/177 641/176
f 513/170 520/177 521/176
f 256/41 255/13 225/15
f 781/80 782/37 774/36
f 902/37 894/36 893/88
f 513/170 514/156 506/157
f 121/104 102/106 1174/122
f 104/103 1171/95 14/182
f 430/4 436/41 404/5
f 453/170 454/156 446/157
f 1210/232 24/192 1112/133
f 1081/80 1073/88 1072/81
f 691/7 698/171 699/169
f 1090/4 1096/41 1064/5
f 627/85 619/148 618/86
f 451/7 443/165 442/8
f 81/106 1119/49 2/52
f 338/171 331/7 330/9
f 273/170 280/177 281/176
f 511/7 503/165 502/8
f 209/31 201/30 200/42
f 847/179 848/178 841/80
f 733/185 734/110 727/179
f 1091/147 1084/180 1083/145
f 220/177 221/176 214/156
f 840/82 832/81 831/126
f 387/85 379/148 378/86
f 909/144 903/145 895/187
f 490/4 496/41 464/5
f 746/83 738/86 737/84
f 192/184 193/185 186/166
f 283/159 276/164 275/161
f 661/80 668/178 669/144
f 69/78 72/213 68/79
f 1170/22 18/154 2/23
f 60/79 64/90 63/87
f 1156/19 1113/142 1207/141
f 753/170 760/177 761/176
f 5/26 1156/19 1155/21
f 85/104 81/106 1116/122
f 160/177 161/176 154/156
f 14/20 1172/22 1124/24
f 961/80 953/88 952/81
f 1184/38 119/114 29/39
f 1185/38 127/114 124/39
f 556/41 555/13 525/15
f 992/77 984/76 983/165
f 993/170 1000/177 1001/176
f 845/203 852/184 853/185
f 716/119 708/50 707/51
f 752/77 744/76 743/165
f 691/7 683/165 682/8
f 151/7 158/171 159/169
f 630/9 637/160 638/171
f 1167/108 102/127 107/123
f 127/114 1132/69 92/89
f 195/13 194/110 166/14
f 552/44 537/190 507/45
f 99/96 1162/47 1108/97
f 48/125 47/149 39/63
f 869/31 861/30 860/42
f 1115/108 81/106 2/109
f 777/118 769/143 768/50
f 1147/93 104/103 122/101
f 1213/74 1209/221 1141/223
f 331/7 338/171 339/169
f 495/13 488/178 487/179
f 300/82 292/81 291/126
f 811/7 818/171 819/169
f 312/184 313/185 306/166
f 838/32 830/54 829/33
f 599/53 591/126 590/54
f 723/145 724/180 716/181
f 250/146 251/147 244/180
f 566/83 558/86 557/84
f 730/4 736/41 704/5
f 865/75 857/84 864/76
f 851/91 822/92 807/129
f 975/13 974/110 946/14
f 609/144 603/145 595/187
f 310/4 316/41 284/5
f 417/118 409/143 408/50
f 692/77 684/76 683/165
f 181/80 182/37 174/36
f 1179/19 1128/142 1206/141
f 1092/44 1077/190 1047/45
f 1165/69 91/124 94/115
f 71/1 70/226 65/2
f 330/9 322/8 321/30
f 95/114 1107/69 89/89
f 626/83 618/86 617/84
f 16/20 1142/153 1191/22
f 148/43 140/42 139/55
f 475/35 476/119 468/50
f 1093/185 1094/110 1087/179
f 674/110 673/72 640/73
f 580/177 573/170 579/169
f 939/169 946/14 940/177
f 246/166 239/167 238/168
f 307/179 300/82 299/167
f 673/185 666/166 665/203
f 72/90 71/87 66/3
f 1173/98 104/183 100/99
f 110/124 132/116 121/117
f 987/85 979/148 978/86
f 329/163 336/164 337/160
f 1200/233 22/194 1128/139
f 1/17 1114/148 1101/25
f 278/171 271/7 270/9
f 1050/9 1042/8 1041/30
f 614/110 613/72 580/73
f 133/96 84/103 1127/47
f 133/39 1107/38 89/114
f 551/91 550/4 523/6
f 331/7 323/165 322/8
f 332/77 324/76 323/165
f 989/163 996/164 997/160
f 549/144 556/41 550/146
f 495/13 494/110 466/14
f 370/4 376/41 344/5
f 986/83 978/86 977/84
f 541/80 548/178 549/144
f 913/185 914/110 907/179
f 956/119 948/50 947/51
f 448/43 440/42 439/55
f 601/80 602/37 594/36
f 208/43 200/42 199/55
f 659/53 651/126 650/54
f 223/159 216/164 215/161
f 404/5 405/15 398/171
f 1123/16 18/40 11/17
f 131/96 104/103 1173/47
f 21/193 34/229 1176/137
f 187/179 188/178 181/80
f 2/23 1121/16 1120/18
f 1111/47 81/106 25/105
f 15/186 83/183 1111/98
f 13/26 1158/19 1157/21
f 213/170 214/156 206/157
f 1111/47 83/103 6/48
f 178/32 170/54 169/33
f 550/4 556/41 524/5
f 333/170 334/156 326/157
f 778/32 770/54 769/33
f 791/91 790/4 763/6
f 241/80 248/178 249/144
f 418/32 410/54 409/33
f 938/171 945/15 946/14
f 309/144 316/41 310/146
f 850/4 856/41 824/5
f 492/44 477/190 447/45
f 1208/231 1205/234 1214/210
f 628/43 620/42 619/55
f 60/79 58/3 57/2
f 116/124 1139/40 107/74
f 124/10 122/101 1106/11
f 669/144 676/41 670/146
f 565/75 557/84 564/76
f 672/44 657/190 627/45
f 385/75 377/84 384/76
f 1203/225 1194/228 20/235
f 967/179 968/178 961/80
f 78/28 77/222 75/29
f 931/7 938/171 939/169
f 483/145 484/180 476/181
f 596/119 597/118 589/143
f 247/179 248/178 241/80
f 841/80 848/178 849/144
f 970/146 971/147 964/180
f 218/171 225/15 226/14
f 369/144 376/41 370/146
f 812/77 804/76 803/165
f 183/145 184/180 176/181
f 510/9 502/8 501/30
f 250/4 256/41 224/5
f 273/170 274/156 266/157
f 555/13 548/178 547/179
f 43/61 42/173 21/201
f 62/28 61/222 59/29
f 1093/72 1092/44 1061/46
f 1158/19 1112/142 1196/141
f 726/166 719/167 718/168
f 1198/216 1208/231 1193/218
f 958/32 950/54 949/33
f 543/145 544/180 536/181
f 6/20 1170/22 1119/24
f 1020/82 1012/81 1011/126
f 1149/25 36/155 8/26
f 93/89 1161/71 86/111
f 193/185 194/110 187/179
f 491/91 462/92 447/129
f 1087/179 1080/82 1079/167
f 399/169 393/170 385/158
f 852/44 837/190 807/45
f 549/144 543/145 535/187
f 729/144 723/145 715/187
f 643/159 644/5 637/160
f 112/114 113/89 106/55
f 1165/69 94/115 85/70
f 26/120 1127/98 1125/100
f 10/52 102/106 1173/47
f 152/77 144/76 143/165
f 1197/236 21/193 1113/136
f 149/31 141/30 140/42
f 1027/179 1034/110 1035/13
f 1111/98 83/183 130/99
f 736/41 735/13 705/15
f 1145/38 115/114 108/39
f 120/124 1160/40 30/74
f 779/53 771/126 770/54
f 991/7 998/171 999/169
f 1027/179 1028/178 1021/80
f 415/35 407/51 414/36
f 577/160 578/171 571/7
f 269/163 276/164 277/160
f 781/80 773/88 772/81
f 675/13 668/178 667/179
f 660/82 652/81 651/126
f 193/72 192/44 161/46
f 671/91 642/92 627/129
f 991/7 983/165 982/8
f 569/163 576/164 577/160
f 219/169 226/14 220/177
f 536/119 528/50 527/51
f 661/80 662/37 654/36
f 1019/53 1011/126 1010/54
f 1150/16 20/40 9/17
f 147/85 139/148 138/86
f 476/119 477/118 469/143
f 539/167 546/166 547/179
f 3/23 1133/16 1099/18
f 1115/108 82/127 87/123
f 523/159 524/5 517/160
f 81/106 1115/108 1116/122
f 122/55 131/84 109/114
f 29/10 31/101 1180/11
f 132/105 1173/47 102/106
f 731/91 702/92 687/129
f 93/89 92/114 1132/38
f 496/41 495/13 465/15
f 686/83 678/86 677/84
f 434/110 433/72 400/73
f 1021/80 1022/37 1014/36
f 606/166 599/167 598/168
f 1017/118 1009/143 1008/50
f 181/80 173/88 172/81
f 115/114 1145/38 1159/69
f 1135/128 81/127 11/195
f 1154/69 118/115 32/70
f 76/79 74/3 73/2
f 1118/108 11/220 81/127
f 1162/47 103/103 7/48
f 268/188 275/161 276/164
f 1111/98 129/120 81/127
f 1031/91 1030/4 1003/6
f 124/10 83/183 1146/189
f 103/183 1153/93 1189/189
f 371/147 364/180 363/145
f 836/119 837/118 829/143
f 754/156 746/157 745/158
f 758/171 765/15 766/14
f 416/119 408/50 407/51
f 432/44 417/190 387/45
f 1021/80 1028/178 1029/144
f 581/176 574/156 573/170
f 1096/41 1065/15 1064/5
f 428/178 429/144 422/37
f 729/144 736/41 730/146
f 793/185 794/110 787/179
f 869/163 876/164 877/160
f 795/13 788/178 787/179
f 546/166 539/167 538/168
f 568/188 575/161 576/164
f 975/13 968/178 967/179
f 634/156 626/157 625/158
f 435/13 436/41 429/144
f 899/167 906/166 907/179
f 883/159 876/164 875/161
f 386/83 378/86 377/84
f 481/80 473/88 472/81
f 629/31 621/30 620/42
f 1177/38 112/114 99/39
f 836/119 828/50 827/51
f 1077/118 1069/143 1068/50
f 928/43 920/42 919/55
f 780/82 772/81 771/126
f 915/13 914/110 886/14
f 1107/69 90/115 26/70
f 805/75 797/84 804/76
f 1080/82 1072/81 1071/126
f 930/9 922/8 921/30
f 911/91 910/4 883/6
f 748/43 740/42 739/55
f 506/83 498/86 497/84
f 609/144 602/37 601/80
f 400/177 401/176 394/156
f 372/184 373/185 366/166
f 579/169 573/170 565/158
f 1057/160 1058/171 1051/7
f 815/161 816/164 809/163
f 459/169 466/14 460/177
f 704/5 705/15 698/171
f 342/162 343/159 336/164
f 338/171 345/15 346/14
f 749/163 756/164 757/160
f 693/170 700/177 701/176
f 1082/37 1075/35 1067/51
f 113/89 112/114 1177/38
f 871/7 863/165 862/8
f 932/77 924/76 923/165
f 841/80 842/37 834/36
f 913/72 912/44 881/46
f 926/83 918/86 917/84
f 974/110 973/72 940/73
f 975/13 976/41 969/144
f 789/144 796/41 790/146
f 843/145 844/180 836/181
f 1089/144 1096/41 1090/146
f 735/13 728/178 727/179
f 486/166 479/167 478/168
f 969/144 963/145 955/187
f 787/179 788/178 781/80
f 457/160 450/9 449/163
f 1095/13 1096/41 1089/144
f 493/185 494/110 487/179
f 550/146 551/147 544/180
f 355/35 347/51 354/36
f 115/114 109/89 100/55
f 899/53 891/126 890/54
f 253/72 252/44 221/46
f 872/77 864/76 863/165
f 868/43 860/42 859/55
f 911/91 882/92 867/129
f 916/41 915/13 885/15
f 808/43 800/42 799/55
f 839/53 831/126 830/54
f 191/91 162/92 147/129
f 1187/93 104/183 5/94
f 973/72 972/44 941/46
f 509/31 501/30 500/42
f 793/72 792/44 761/46
f 898/32 890/54 889/33
f 631/7 638/171 639/169
f 509/163 516/164 517/160
f 793/185 786/166 785/203
f 879/169 873/170 865/158
f 757/160 758/171 751/7
f 730/146 731/147 724/180
f 279/169 286/14 280/177
f 164/5 165/15 158/171
f 403/159 396/164 395/161
f 578/171 585/15 586/14
f 763/159 764/5 757/160
f 966/166 959/167 958/168
f 647/51 655/35 656/119
f 135/117 111/115 120/124
f 494/110 493/72 460/73
f 988/43 980/42 979/55
f 297/118 289/143 288/50
f 312/44 297/190 267/45
f 241/80 233/88 232/81
f 992/77 985/75 977/84
f 1035/13 1036/41 1029/144
f 903/145 904/180 896/181
f 303/145 304/180 296/181
f 583/159 584/5 577/160
f 367/179 368/178 361/80
f 898/168 905/203 906/166
f 460/177 461/176 454/156
f 735/13 736/41 729/144
f 934/156 926/157 925/158
f 961/80 968/178 969/144
f 1019/167 1026/166 1027/179
f 783/145 790/146 791/147
f 236/119 228/50 227/51
f 776/119 768/50 767/51
f 1132/38 92/114 27/39
f 431/91 402/92 387/129
f 70/28 69/222 67/29
f 971/91 970/4 943/6
f 1046/83 1038/86 1037/84
f 196/41 195/13 165/15
f 449/31 441/30 440/42
f 1049/31 1041/30 1040/42
f 94/115 91/124 25/116
f 431/91 430/4 403/6
f 1145/38 116/124 110/115
f 125/89 109/114 1159/38
f 632/77 624/76 623/165
f 1046/83 1047/85 1039/148
f 571/7 578/171 579/169
f 929/163 936/164 937/160
f 820/177 821/176 814/156
f 159/169 153/170 145/158
f 997/160 998/171 991/7
f 935/161 936/164 929/163
f 339/169 346/14 340/177
f 158/171 165/15 166/14
f 363/145 364/180 356/181
f 908/178 909/144 902/37
f 1029/144 1023/145 1015/187
f 1092/184 1093/185 1086/166
f 542/37 535/35 527/51
f 1050/9 1051/7 1043/165
f 807/85 799/148 798/86
f 989/31 981/30 980/42
f 228/50 236/119 237/118
f 1048/43 1040/42 1039/55
f 972/44 957/190 927/45
f 867/85 859/148 858/86
f 517/160 518/171 511/7
f 607/179 600/82 599/167
f 911/147 904/180 903/145
f 969/144 976/41 970/146
f 667/179 668/178 661/80
f 366/166 359/167 358/168
f 429/144 436/41 430/146
f 915/13 908/178 907/179
f 1086/166 1079/167 1078/168
f 1081/80 1088/178 1089/144
f 189/144 183/145 175/187
f 423/145 424/180 416/181
f 901/80 893/88 892/81
f 1034/110 1033/72 1000/73
f 1005/15 1035/13 1034/110
f 655/35 647/51 654/36
f 1127/98 82/127 4/195
f 1164/69 126/115 121/70
f 205/75 197/84 204/76
f 1052/77 1044/76 1043/165
f 1158/19 13/26 1210/209
f 13/26 33/155 1210/209
f 1137/12 1106/11 121/104
f 119/114 1184/38 1177/69
f 109/89 1159/69 1126/71
f 1156/19 5/26 1197/209
f 5/26 34/155 1197/209
f 1214/210 1205/234 17/211
f 1190/19 8/26 1202/209
f 8/26 36/155 1202/209
f 128/124 1185/38 1137/40
f 113/89 1117/69 1109/71
f 1188/71 1177/69 111/115
f 134/105 1168/97 1127/47
f 19/40 1201/151 1216/215
f 6/20 35/152 1130/153
f 1144/40 1159/38 109/114
f 1107/38 1154/69 117/89
f 1201/151 1129/217 1198/216
f 1121/16 2/23 1204/198
f 2/23 18/154 1204/198
f 1193/218 1208/231 1214/210
f 7/20 33/152 1152/153
f 101/106 1162/47 1134/49
f 82/106 1127/47 1151/49
f 1187/93 1182/102 108/10
f 82/127 1115/108 1120/107
f 1216/215 1198/216 1193/218
f 1179/19 15/26 1200/209
f 15/26 35/155 1200/209
f 1124/49 1173/47 104/103
f 96/124 1186/38 1181/40
f 11/17 18/40 1130/148
f 1133/16 3/23 1194/198
f 3/23 20/154 1194/198
f 1139/12 1109/11 105/104
f 129/70 1110/71 1132/69
f 1150/16 12/23 1213/198
f 12/23 19/154 1213/198
f 98/120 102/127 1173/98
f 1141/223 1209/221 1215/224
f 117/89 1154/69 1180/71
f 9/17 20/40 1152/148
f 1209/221 1193/218 1211/219
f 36/155 23/191 1202/209
f 23/191 1183/140 1140/142
f 1215/224 1211/219 1097/227
f 1160/12 1180/11 32/104
f 1123/16 10/23 1205/198
f 10/23 17/154 1205/198
f 1143/93 1138/102 88/10
f 83/103 1143/93 1169/95
f 136/99 1188/100 1162/98
f 27/96 83/103 1111/47
f 84/103 1153/93 1157/95
f 14/20 34/152 1114/153
f 1131/108 1102/107 9/220
f 103/183 1162/98 1103/128
f 1173/98 1100/128 5/186
f 1211/219 1214/210 1199/212
f 4/17 19/40 1142/148
f 1167/108 1099/107 1/220
f 1181/12 1161/11 85/104
f 1217/200 1195/199 1098/230
f 1129/217 1204/198 1217/200
f 104/103 1147/93 1171/95
f 33/214 24/192 1210/232
f 24/192 1192/131 1112/133
f 81/106 1111/47 1119/49
f 127/114 1185/38 1132/69
f 99/96 103/103 1162/47
f 1213/74 1216/215 1209/221
f 1165/69 1132/38 91/124
f 95/114 1186/38 1107/69
f 16/20 36/152 1142/153
f 35/152 22/194 1200/233
f 22/194 1176/137 1128/139
f 1/17 17/40 1114/148
f 133/39 1168/40 1107/38
f 1208/231 1098/230 1205/234
f 116/124 1145/38 1139/40
f 1203/225 1215/224 1194/228
f 1198/216 1217/200 1208/231
f 93/89 1165/69 1161/71
f 26/120 82/127 1127/98
f 34/229 21/193 1197/236
f 21/193 1163/134 1113/136
f 120/124 1184/38 1160/40
f 132/105 1144/97 1173/47
f 1135/128 1111/98 81/127
f 1118/108 1122/107 11/220
f 1111/98 1110/100 129/120
f 1096/41 1095/13 1065/15
