o Sphere.002
v 0 3.1697 -1.6168
v 0 1.8303 -1.6168
v 0.2563 4.1168 -0.6187
v 0.4735 3.7374 -1.1432
v 0.5054 3.047 -1.5407
v 0.5472 2.5 -1.6421
v 0.5054 1.953 -1.5407
v 0.4735 1.2626 -1.1432
v 0.2563 0.8832 -0.6187
v 0.4735 4.1168 -0.4735
v 0.875 3.7374 -0.875
v 1.1432 3.1697 -1.1432
v 1.2374 2.5 -1.2374
v 1.1432 1.8303 -1.1432
v 0.875 1.2626 -0.875
v 0.4735 0.8832 -0.4735
v 0.6187 4.1168 -0.2563
v 1.1432 3.7374 -0.4735
v 1.5407 3.047 -0.5054
v 1.6421 2.5 -0.5472
v 1.5407 1.953 -0.5054
v 1.1432 1.2626 -0.4735
v 0.6187 0.8832 -0.2563
v 0.6697 4.1168 -0
v 1.2374 3.7374 -0
v 1.6168 3.1697 -0
v 1.6168 1.8303 -0
v 1.2374 1.2626 -0
v 0.6697 0.8832 -0
v 0.6187 4.1168 0.2563
v 1.1432 3.7374 0.4735
v 1.5407 3.047 0.5054
v 1.6421 2.5 0.5472
v 1.5407 1.953 0.5054
v 1.1432 1.2626 0.4735
v 0.6187 0.8832 0.2563
v 0.4735 4.1168 0.4735
v 0.875 3.7374 0.875
v 1.1432 3.1697 1.1432
v 1.2374 2.5 1.2374
v 1.1432 1.8303 1.1432
v 0.875 1.2626 0.875
v 0.4735 0.8832 0.4735
v 0.2563 4.1168 0.6187
v 0.4735 3.7374 1.1432
v 0.5054 3.047 1.5407
v 0.5472 2.5 1.6421
v 0.5054 1.953 1.5407
v 0.4735 1.2626 1.1432
v 0.2563 0.8832 0.6187
v 0 4.1168 0.6697
v 0 3.7374 1.2374
v 0 3.1697 1.6168
v 0 1.8303 1.6168
v 0 1.2626 1.2374
v 0 0.8832 0.6697
v 0 4.25 -0
v -0.2563 4.1168 0.6187
v -0.4735 3.7374 1.1432
v -0.5054 3.047 1.5407
v -0.5472 2.5 1.6421
v -0.5054 1.953 1.5407
v -0.4735 1.2626 1.1432
v -0.2563 0.8832 0.6187
v -0.4735 4.1168 0.4735
v -0.875 3.7374 0.875
v -1.1432 3.1697 1.1432
v -1.2374 2.5 1.2374
v -1.1432 1.8303 1.1432
v -0.875 1.2626 0.875
v -0.4735 0.8832 0.4735
v -0.6187 4.1168 0.2563
v -1.1432 3.7374 0.4735
v -1.5407 3.047 0.5054
v -1.6421 2.5 0.5472
v -1.5407 1.953 0.5054
v -1.1432 1.2626 0.4735
v -0.6187 0.8832 0.2563
v -0.6697 4.1168 -0
v -1.2374 3.7374 -0
v -1.6403 3.0468 -0
v -1.6168 1.8303 -0
v -1.2374 1.2626 -0
v -0.6697 0.8832 -0
v -0.6187 4.1168 -0.2563
v -1.1432 3.7374 -0.4735
v -1.5407 3.047 -0.5054
v -1.6421 2.5 -0.5472
v -1.5407 1.953 -0.5054
v -1.1432 1.2626 -0.4735
v -0.6187 0.8832 -0.2563
v -0.4735 4.1168 -0.4735
v -0.875 3.7374 -0.875
v -1.1432 3.1697 -1.1432
v -1.2374 2.5 -1.2374
v -1.1432 1.8303 -1.1432
v -0.875 1.2626 -0.875
v -0.4735 0.8832 -0.4735
v -0.2563 4.1168 -0.6187
v -0.4735 3.7374 -1.1432
v -0.5054 3.047 -1.5407
v -0.5472 2.5 -1.6421
v -0.5054 1.953 -1.5407
v 0 4.1168 -0.6697
v 0 3.7374 -1.2374
v 0 1.2626 -1.2374
v 0.6187 3.1697 -1.4937
v 0.6697 2.5 -1.6168
v 0.6187 1.8303 -1.4937
v 0 1.9532 -1.6403
v 0 3.0468 -1.6403
v 1.4937 3.1697 -0.6187
v 1.6168 2.5 -0.6697
v 1.4937 1.8303 -0.6187
v 1.6403 3.0468 -0
v 1.6403 1.9532 -0
v 1.4937 3.1697 0.6187
v 1.6168 2.5 0.6697
v 1.4937 1.8303 0.6187
v 0.6187 3.1697 1.4937
v 0.6697 2.5 1.6168
v 0.6187 1.8303 1.4937
v 0 1.9532 1.6403
v 0 3.0468 1.6403
v -0.6187 3.1697 1.4937
v -0.6697 2.5 1.6168
v -0.6187 1.8303 1.4937
v -1.4937 3.1697 0.6187
v -1.6168 2.5 0.6697
v -1.4937 1.8303 0.6187
v -1.6403 1.9532 -0
v -1.6168 3.1697 -0
v -1.4937 3.1697 -0.6187
v -1.6168 2.5 -0.6697
v -1.4937 1.8303 -0.6187
v -0.6187 3.1697 -1.4937
v -0.6697 2.5 -1.6168
v -0.6187 1.8303 -1.4937
v 0.4694 1.9888 -1.3602
v 1.3602 3.0112 -0.4694
v 1.4582 2.5 -0.5105
v 1.3602 1.9888 -0.4694
v 1.3602 3.0112 0.4694
v 1.3602 1.9888 0.4694
v 0.4694 3.0112 1.3602
v 0.4694 1.9888 1.3602
v -0.4694 1.9888 1.3602
v -1.3602 3.0112 0.4694
v -1.4582 2.5 0.5105
v -1.4564 3.0104 -0
v -1.3602 3.0112 -0.4694
v -1.4582 2.5 -0.5105
v -0.4694 3.0112 -1.3602
v -0.5105 2.5 -1.4582
v 0 1.9896 -1.4564
v 0 3.0104 -1.4564
v 1.4564 3.0104 -0
v 1.4564 1.9896 -0
v 0 3.0104 1.4564
v -1.4564 1.9896 -0
v 0 0.8832 -0.6697
v 0 0.75 -0
v -0.4735 1.2626 -1.1432
v -0.2563 0.8832 -0.6187
v 0 3.0998 -1.4428
v 0 1.9002 -1.4428
v 0 1.0548 -0.5941
v 0.2274 3.9452 -0.5489
v 0.422 3.6071 -1.0187
v 0.4694 3.0112 -1.3602
v 0.5105 2.5 -1.4582
v 0.422 1.3929 -1.0187
v 0.2274 1.0548 -0.5489
v 0.4201 3.9452 -0.4201
v 0.7797 3.6071 -0.7797
v 1.0203 3.0995 -1.0203
v 1.1049 2.5 -1.1049
v 1.0203 1.9005 -1.0203
v 0.7797 1.3929 -0.7797
v 0.4201 1.0548 -0.4201
v 0.5489 3.9452 -0.2274
v 1.0187 3.6071 -0.422
v 1.0187 1.3929 -0.422
v 0.5489 1.0548 -0.2274
v 0.5941 3.9452 -0
v 1.1027 3.6071 -0
v 1.4428 3.0998 -0
v 1.4428 1.9002 -0
v 1.1027 1.3929 -0
v 0.5941 1.0548 -0
v 0.5489 3.9452 0.2274
v 1.0187 3.6071 0.422
v 1.4582 2.5 0.5105
v 1.0187 1.3929 0.422
v 0.5489 1.0548 0.2274
v 0.4201 3.9452 0.4201
v 0.7797 3.6071 0.7797
v 1.0203 3.0995 1.0203
v 1.1049 2.5 1.1049
v 1.0203 1.9005 1.0203
v 0.7797 1.3929 0.7797
v 0.4201 1.0548 0.4201
v 0.2274 3.9452 0.5489
v 0.422 3.6071 1.0187
v 0.5105 2.5 1.4582
v 0.422 1.3929 1.0187
v 0.2274 1.0548 0.5489
v 0 3.9452 0.5941
v 0 3.6071 1.1027
v 0 3.0998 1.4428
v 0 1.9002 1.4428
v 0 1.3929 1.1027
v 0 1.0548 0.5941
v 0 0.9375 -0
v 0 4.0625 -0
v -0.2274 3.9452 0.5489
v -0.422 3.6071 1.0187
v -0.4694 3.0112 1.3602
v -0.5105 2.5 1.4582
v -0.422 1.3929 1.0187
v -0.2274 1.0548 0.5489
v -0.4201 3.9452 0.4201
v -0.7797 3.6071 0.7797
v -1.0203 3.0995 1.0203
v -1.1049 2.5 1.1049
v -1.0203 1.9005 1.0203
v -0.7797 1.3929 0.7797
v -0.4201 1.0548 0.4201
v -0.5489 3.9452 0.2274
v -1.0187 3.6071 0.422
v -1.3602 1.9888 0.4694
v -1.0187 1.3929 0.422
v -0.5489 1.0548 0.2274
v -0.5941 3.9452 -0
v -1.1027 3.6071 -0
v -1.4428 1.9002 -0
v -1.1027 1.3929 -0
v -0.5941 1.0548 -0
v -0.5489 3.9452 -0.2274
v -1.0187 3.6071 -0.422
v -1.3602 1.9888 -0.4694
v -1.0187 1.3929 -0.422
v -0.5489 1.0548 -0.2274
v -0.4201 3.9452 -0.4201
v -0.7797 3.6071 -0.7797
v -1.0203 3.0995 -1.0203
v -1.1049 2.5 -1.1049
v -1.0203 1.9005 -1.0203
v -0.7797 1.3929 -0.7797
v -0.4201 1.0548 -0.4201
v -0.2274 3.9452 -0.5489
v -0.422 3.6071 -1.0187
v -0.4694 1.9888 -1.3602
v -0.422 1.3929 -1.0187
v -0.2274 1.0548 -0.5489
v 0 3.9452 -0.5941
v 0 3.6071 -1.1027
v 0 1.3929 -1.1027
v 0.5521 3.0996 -1.3331
v 0.5977 2.5 -1.4437
v 0.5521 1.9004 -1.3331
v 1.3331 3.0996 -0.5521
v 1.4437 2.5 -0.5977
v 1.3331 1.9004 -0.5521
v 1.3331 3.0996 0.5521
v 1.4437 2.5 0.5977
v 1.3331 1.9004 0.5521
v 0.5521 3.0996 1.3331
v 0.5977 2.5 1.4437
v 0.5521 1.9004 1.3331
v 0 1.9896 1.4564
v -0.5521 3.0996 1.3331
v -0.5977 2.5 1.4437
v -0.5521 1.9004 1.3331
v -1.3331 3.0996 0.5521
v -1.4428 3.0998 -0
v -1.3331 3.0996 -0.5521
v -1.4437 2.5 -0.5977
v -1.3331 1.9004 -0.5521
v -0.5521 3.0996 -1.3331
v -0.5977 2.5 -1.4437
v -0.5521 1.9004 -1.3331
v -1.4437 2.5 0.5977
v -1.3331 1.9004 0.5521
v 1 0.25 2
v 2 0.25 1
v 2 0 1
v 1 0 2
v 2 0.25 -1
v 1 0.25 -2
v 1 -0 -2
v 2 -0 -1
v -2 0.25 1
v -1 0.25 2
v -1 0 2
v -2 0 1
v -1 0.25 -2
v -2 0.25 -1
v -2 -0 -1
v -1 -0 -2
v -0.875 0.625 -0
v 0.875 0.625 -0
v -0.875 0.4375 0.0502
v 0.875 0.4375 0.0502
v -0.875 0.3002 0.1875
v 0.875 0.3002 0.1875
v -0.875 0.25 0.375
v 0.875 0.25 0.375
v -0.875 0.3002 0.5625
v 0.875 0.3002 0.5625
v -0.875 0.4375 0.6998
v 0.875 0.4375 0.6998
v -0.875 0.625 0.75
v 0.875 0.625 0.75
v -0.875 0.8125 0.6998
v 0.875 0.8125 0.6998
v -0.875 0.9498 0.5625
v 0.875 0.9498 0.5625
v -0.875 1 0.375
v 0.875 1 0.375
v -0.875 0.9498 0.1875
v 0.875 0.9498 0.1875
v -0.875 0.8125 0.0502
v 0.875 0.8125 0.0502
v -1.7678 1 1.0607
v -1.0607 1 1.7678
v -1.7678 4 1.0607
v -1.0607 4 1.7678
v -1.2374 4.75 0.5303
v -0.5303 4.75 1.2374
v -1.2374 0.25 0.5303
v -0.5303 0.25 1.2374
v 1.0607 1 1.7678
v 1.7678 1 1.0607
v 1.0607 4 1.7678
v 1.7678 4 1.0607
v 0.5303 4.75 1.2374
v 1.2374 4.75 0.5303
v 0.5303 0.25 1.2374
v 1.2374 0.25 0.5303
v 1.7678 1 -1.0607
v 1.0607 1 -1.7678
v 1.7678 4 -1.0607
v 1.0607 4 -1.7678
v 1.2374 4.75 -0.5303
v 0.5303 4.75 -1.2374
v 1.2374 0.25 -0.5303
v 0.5303 0.25 -1.2374
v -1.0607 1 -1.7678
v -1.7678 1 -1.0607
v -1.0607 4 -1.7678
v -1.7678 4 -1.0607
v -0.5303 4.75 -1.2374
v -1.2374 4.75 -0.5303
v -0.5303 0.25 -1.2374
v -1.2374 0.25 -0.5303
v 0.5054 3.047 1.5407
v 0.5472 2.5 1.6421
v 0.5054 1.953 1.5407
v -0 2.5 1.75
v -0.5054 3.047 1.5407
v -0.5472 2.5 1.6421
v -0.5054 1.953 1.5407
v 0 1.9532 1.6403
v 0 3.0468 1.6403
v 1.5407 3.047 -0.5054
v 1.6421 2.5 -0.5472
v 1.5407 1.953 -0.5054
v 1.75 2.5 0
v 1.5407 3.047 0.5054
v 1.6421 2.5 0.5472
v 1.5407 1.953 0.5054
v 1.6403 1.9532 -0
v 1.6403 3.0468 -0
v -0.5054 3.047 -1.5407
v -0.5472 2.5 -1.6421
v -0.5054 1.953 -1.5407
v 0 2.5 -1.75
v 0.5054 3.047 -1.5407
v 0.5472 2.5 -1.6421
v 0.5054 1.953 -1.5407
v 0 1.9532 -1.6403
v 0 3.0468 -1.6403
v -1.5407 3.047 0.5054
v -1.6421 2.5 0.5472
v -1.5407 1.953 0.5054
v -1.75 2.5 -0
v -1.5407 3.047 -0.5054
v -1.6421 2.5 -0.5472
v -1.5407 1.953 -0.5054
v -1.6403 1.9532 -0
v -1.6403 3.0468 -0
v 1 4.75 2
v 2 4.75 1
v 2 5 1
v 1 5 2
v 2 4.75 -1
v 1 4.75 -2
v 1 5 -2
v 2 5 -1
v -2 4.75 1
v -1 4.75 2
v -1 5 2
v -2 5 1
v -1 4.75 -2
v -2 4.75 -1
v -2 5 -1
v -1 5 -2
v 0.1562 1.25 -1.75
v -0.1562 1.25 -1.75
v 0.1562 0.25 -1.75
v -0.1562 0.25 -1.75
v 0.1562 1.4375 -1.5625
v -0.1562 1.4375 -1.5625
v -1.75 1.25 -0.1562
v -1.75 1.25 0.1562
v -1.75 0.25 -0.1562
v -1.75 0.25 0.1562
v -1.5625 1.4375 -0.1562
v -1.5625 1.4375 0.1562
v -0.1562 1.25 1.75
v 0.1562 1.25 1.75
v -0.1562 0.25 1.75
v 0.1562 0.25 1.75
v -0.1562 1.4375 1.5625
v 0.1562 1.4375 1.5625
v 1.75 1.25 0.1562
v 1.75 1.25 -0.1562
v 1.75 0.25 0.1562
v 1.75 0.25 -0.1562
v 1.5625 1.4375 0.1562
v 1.5625 1.4375 -0.1562
v -0.1562 3.75 -1.75
v 0.1562 3.75 -1.75
v -0.1562 4.75 -1.75
v 0.1563 4.75 -1.75
v -0.1562 3.5625 -1.5625
v 0.1562 3.5625 -1.5625
v 1.75 3.75 -0.1562
v 1.75 3.75 0.1562
v 1.75 4.75 -0.1562
v 1.75 4.75 0.1563
v 1.5625 3.5625 -0.1562
v 1.5625 3.5625 0.1562
v 0.1562 3.75 1.75
v -0.1562 3.75 1.75
v 0.1562 4.75 1.75
v -0.1562 4.75 1.75
v 0.1562 3.5625 1.5625
v -0.1562 3.5625 1.5625
v -1.75 3.75 0.1562
v -1.75 3.75 -0.1563
v -1.75 4.75 0.1562
v -1.75 4.75 -0.1562
v -1.5625 3.5625 0.1562
v -1.5625 3.5625 -0.1563
v -1.4946 0.2343 -1.141
v -1.1394 1.4469 -0.7859
v -1.141 0.2343 -1.4946
v -0.7859 1.4469 -1.1394
v -1.1679 0.043 -0.8144
v -0.8128 1.2555 -0.4592
v -0.8144 0.043 -1.1679
v -0.4592 1.2555 -0.8128
v 1.141 0.2343 -1.4946
v 0.7859 1.4469 -1.1394
v 1.4946 0.2343 -1.141
v 1.1394 1.4469 -0.7859
v 0.8144 0.043 -1.1679
v 0.4592 1.2555 -0.8128
v 1.1679 0.043 -0.8144
v 0.8128 1.2555 -0.4592
v 1.4946 0.2343 1.141
v 1.1394 1.4469 0.7859
v 1.141 0.2343 1.4946
v 0.7859 1.4469 1.1394
v 1.1679 0.043 0.8144
v 0.8128 1.2555 0.4592
v 0.8144 0.043 1.1679
v 0.4592 1.2555 0.8128
v -1.141 0.2343 1.4946
v -0.7859 1.4469 1.1394
v -1.4946 0.2343 1.141
v -1.1394 1.4469 0.7859
v -0.8144 0.043 1.1679
v -0.4592 1.2555 0.8128
v -1.1679 0.043 0.8144
v -0.8128 1.2555 0.4592
v -1.4946 4.7657 -1.141
v -1.1394 3.5531 -0.7859
v -1.141 4.7657 -1.4946
v -0.7859 3.5531 -1.1394
v -1.1679 4.957 -0.8144
v -0.8128 3.7445 -0.4592
v -0.8144 4.957 -1.1679
v -0.4592 3.7445 -0.8128
v 1.141 4.7657 -1.4946
v 0.7859 3.5531 -1.1394
v 1.4946 4.7657 -1.141
v 1.1394 3.5531 -0.7859
v 0.8144 4.957 -1.1679
v 0.4592 3.7445 -0.8128
v 1.1679 4.957 -0.8144
v 0.8128 3.7445 -0.4592
v 1.4946 4.7657 1.141
v 1.1394 3.5531 0.7859
v 1.141 4.7657 1.4946
v 0.7859 3.5531 1.1394
v 1.1679 4.957 0.8144
v 0.8128 3.7445 0.4592
v 0.8144 4.957 1.1679
v 0.4592 3.7445 0.8128
v -1.141 4.7657 1.4946
v -0.7859 3.5531 1.1394
v -1.4946 4.7657 1.141
v -1.1394 3.5531 0.7859
v -0.8144 4.957 1.1679
v -0.4592 3.7445 0.8128
v -1.1679 4.957 0.8144
v -0.8128 3.7445 0.4592
v -0.875 0.625 -0.75
v 0.875 0.625 -0.75
v -0.875 0.4375 -0.6998
v 0.875 0.4375 -0.6998
v -0.875 0.3002 -0.5625
v 0.875 0.3002 -0.5625
v -0.875 0.25 -0.375
v 0.875 0.25 -0.375
v -0.875 0.3002 -0.1875
v 0.875 0.3002 -0.1875
v -0.875 0.4375 -0.0502
v 0.875 0.4375 -0.0502
v -0.875 0.625 -0
v 0.875 0.625 -0
v -0.875 0.8125 -0.0502
v 0.875 0.8125 -0.0502
v -0.875 0.9498 -0.1875
v 0.875 0.9498 -0.1875
v -0.875 1 -0.375
v 0.875 1 -0.375
v -0.875 0.9498 -0.5625
v 0.875 0.9498 -0.5625
v -0.875 0.8125 -0.6998
v 0.875 0.8125 -0.6998
v -0.875 4.375 -0
v 0.875 4.375 -0
v -0.875 4.1875 0.0502
v 0.875 4.1875 0.0502
v -0.875 4.0502 0.1875
v 0.875 4.0502 0.1875
v -0.875 4 0.375
v 0.875 4 0.375
v -0.875 4.0502 0.5625
v 0.875 4.0502 0.5625
v -0.875 4.1875 0.6998
v 0.875 4.1875 0.6998
v -0.875 4.375 0.75
v 0.875 4.375 0.75
v -0.875 4.5625 0.6998
v 0.875 4.5625 0.6998
v -0.875 4.6998 0.5625
v 0.875 4.6998 0.5625
v -0.875 4.75 0.375
v 0.875 4.75 0.375
v -0.875 4.6998 0.1875
v 0.875 4.6998 0.1875
v -0.875 4.5625 0.0502
v 0.875 4.5625 0.0502
v -0.875 4.375 -0.75
v 0.875 4.375 -0.75
v -0.875 4.1875 -0.6998
v 0.875 4.1875 -0.6998
v -0.875 4.0502 -0.5625
v 0.875 4.0502 -0.5625
v -0.875 4 -0.375
v 0.875 4 -0.375
v -0.875 4.0502 -0.1875
v 0.875 4.0502 -0.1875
v -0.875 4.1875 -0.0502
v 0.875 4.1875 -0.0502
v -0.875 4.375 -0
v 0.875 4.375 -0
v -0.875 4.5625 -0.0502
v 0.875 4.5625 -0.0502
v -0.875 4.6998 -0.1875
v 0.875 4.6998 -0.1875
v -0.875 4.75 -0.375
v 0.875 4.75 -0.375
v -0.875 4.6998 -0.5625
v 0.875 4.6998 -0.5625
v -0.875 4.5625 -0.6998
v 0.875 4.5625 -0.6998
v 0 1.8303 -1.6168
v 0.4735 1.2626 -1.1432
v 1.1432 1.8303 -1.1432
v 0.875 1.2626 -0.875
v 1.1432 1.2626 -0.4735
v 1.6168 1.8303 -0
v 1.2374 1.2626 -0
v 1.1432 1.2626 0.4735
v 1.1432 1.8303 1.1432
v 0.875 1.2626 0.875
v 0.4735 1.2626 1.1432
v 0 1.8303 1.6168
v 0 1.2626 1.2374
v -0.4735 1.2626 1.1432
v -1.1432 1.8303 1.1432
v -0.875 1.2626 0.875
v -1.1432 1.2626 0.4735
v -1.6168 1.8303 -0
v -1.2374 1.2626 -0
v -1.1432 1.2626 -0.4735
v -1.1432 1.8303 -1.1432
v -0.875 1.2626 -0.875
v -0.4735 1.2626 -1.1432
v 0 1.2626 -1.2374
v 0.6983 1.6914 -1.6858
v 0.5531 1.1237 -1.3353
v 0 1.6914 -1.8247
v 1.2902 1.6914 -1.2902
v 1.022 1.1237 -1.022
v 1.6858 1.6914 -0.6983
v 1.3353 1.1237 -0.5531
v 1.8247 1.6914 -0
v 1.4453 1.1237 -0
v 1.6858 1.6914 0.6983
v 1.3353 1.1237 0.5531
v 1.2902 1.6914 1.2902
v 1.022 1.1237 1.022
v 0.6983 1.6914 1.6858
v 0.5531 1.1237 1.3353
v 0 1.6914 1.8247
v 0 1.1237 1.4453
v -0.6983 1.6914 1.6858
v -0.5531 1.1237 1.3353
v -1.2902 1.6914 1.2902
v -1.022 1.1237 1.022
v -1.6858 1.6914 0.6983
v -1.3353 1.1237 0.5531
v -1.8247 1.6914 -0
v -1.4453 1.1237 -0
v -1.6858 1.6914 -0.6983
v -1.3353 1.1237 -0.5531
v -1.2902 1.6914 -1.2902
v -1.022 1.1237 -1.022
v -0.6983 1.6914 -1.6858
v -0.5531 1.1237 -1.3353
v 0 1.1237 -1.4453
v 0.6187 1.8303 -1.4937
v 1.4937 1.8303 -0.6187
v 1.4937 1.8303 0.6187
v 0.6187 1.8303 1.4937
v -0.6187 1.8303 1.4937
v -1.4937 1.8303 0.6187
v -1.4937 1.8303 -0.6187
v -0.6187 1.8303 -1.4937
v 0 3.1697 -1.6168
v 0.4735 3.7374 -1.1432
v 1.1432 3.1697 -1.1432
v 0.875 3.7374 -0.875
v 1.1432 3.7374 -0.4735
v 1.6168 3.1697 -0
v 1.2374 3.7374 -0
v 1.1432 3.7374 0.4735
v 1.1432 3.1697 1.1432
v 0.875 3.7374 0.875
v 0.4735 3.7374 1.1432
v 0 3.1697 1.6168
v 0 3.7374 1.2374
v -0.4735 3.7374 1.1432
v -1.1432 3.1697 1.1432
v -0.875 3.7374 0.875
v -1.1432 3.7374 0.4735
v -1.6168 3.1697 -0
v -1.2374 3.7374 -0
v -1.1432 3.7374 -0.4735
v -1.1432 3.1697 -1.1432
v -0.875 3.7374 -0.875
v -0.4735 3.7374 -1.1432
v 0 3.7374 -1.2374
v 0.6983 3.3086 -1.6858
v 0.5531 3.8763 -1.3353
v 0 3.3086 -1.8247
v 1.2902 3.3086 -1.2902
v 1.022 3.8763 -1.022
v 1.6858 3.3086 -0.6983
v 1.3353 3.8763 -0.5531
v 1.8247 3.3086 -0
v 1.4453 3.8763 -0
v 1.6858 3.3086 0.6983
v 1.3353 3.8763 0.5531
v 1.2902 3.3086 1.2902
v 1.022 3.8763 1.022
v 0.6983 3.3086 1.6858
v 0.5531 3.8763 1.3353
v 0 3.3086 1.8247
v 0 3.8763 1.4453
v -0.6983 3.3086 1.6858
v -0.5531 3.8763 1.3353
v -1.2902 3.3086 1.2902
v -1.022 3.8763 1.022
v -1.6858 3.3086 0.6983
v -1.3353 3.8763 0.5531
v -1.8247 3.3086 -0
v -1.4453 3.8763 -0
v -1.6858 3.3086 -0.6983
v -1.3353 3.8763 -0.5531
v -1.2902 3.3086 -1.2902
v -1.022 3.8763 -1.022
v -0.6983 3.3086 -1.6858
v -0.5531 3.8763 -1.3353
v 0 3.8763 -1.4453
v 0.6187 3.1697 -1.4937
v 1.4937 3.1697 -0.6187
v 1.4937 3.1697 0.6187
v 0.6187 3.1697 1.4937
v -0.6187 3.1697 1.4937
v -1.4937 3.1697 0.6187
v -1.4937 3.1697 -0.6187
v -0.6187 3.1697 -1.4937
v -1.7678 1 1.0607
v -1.0607 1 1.7678
v -1.7678 4 1.0607
v -1.0607 4 1.7678
v -1.2374 4.75 0.5303
v -0.5303 4.75 1.2374
v -1.2374 0.25 0.5303
v -0.5303 0.25 1.2374
v 1.0607 1 1.7678
v 1.7678 1 1.0607
v 1.0607 4 1.7678
v 1.7678 4 1.0607
v 0.5303 4.75 1.2374
v 1.2374 4.75 0.5303
v 0.5303 0.25 1.2374
v 1.2374 0.25 0.5303
v 1.7678 1 -1.0607
v 1.0607 1 -1.7678
v 1.7678 4 -1.0607
v 1.0607 4 -1.7678
v 1.2374 4.75 -0.5303
v 0.5303 4.75 -1.2374
v 1.2374 0.25 -0.5303
v 0.5303 0.25 -1.2374
v -1.0607 1 -1.7678
v -1.7678 1 -1.0607
v -1.0607 4 -1.7678
v -1.7678 4 -1.0607
v -0.5303 4.75 -1.2374
v -1.2374 4.75 -0.5303
v -0.5303 0.25 -1.2374
v -1.2374 0.25 -0.5303
v 0.1562 1.25 -1.75
v -0.1562 1.25 -1.75
v 0.1562 0.25 -1.75
v -0.1562 0.25 -1.75
v 0.1562 1.4375 -1.5625
v -0.1562 1.4375 -1.5625
v -1.75 1.25 -0.1562
v -1.75 1.25 0.1562
v -1.75 0.25 -0.1562
v -1.75 0.25 0.1562
v -1.5625 1.4375 -0.1562
v -1.5625 1.4375 0.1562
v -0.1562 1.25 1.75
v 0.1562 1.25 1.75
v -0.1562 0.25 1.75
v 0.1562 0.25 1.75
v -0.1562 1.4375 1.5625
v 0.1562 1.4375 1.5625
v 1.75 1.25 0.1562
v 1.75 1.25 -0.1562
v 1.75 0.25 0.1562
v 1.75 0.25 -0.1562
v 1.5625 1.4375 0.1562
v 1.5625 1.4375 -0.1562
v -0.1562 3.75 -1.75
v 0.1562 3.75 -1.75
v -0.1562 4.75 -1.75
v 0.1563 4.75 -1.75
v -0.1562 3.5625 -1.5625
v 0.1562 3.5625 -1.5625
v 1.75 3.75 -0.1562
v 1.75 3.75 0.1562
v 1.75 4.75 -0.1562
v 1.75 4.75 0.1563
v 1.5625 3.5625 -0.1562
v 1.5625 3.5625 0.1562
v 0.1562 3.75 1.75
v -0.1562 3.75 1.75
v 0.1562 4.75 1.75
v -0.1562 4.75 1.75
v 0.1562 3.5625 1.5625
v -0.1562 3.5625 1.5625
v -1.75 3.75 0.1562
v -1.75 3.75 -0.1563
v -1.75 4.75 0.1562
v -1.75 4.75 -0.1562
v -1.5625 3.5625 0.1562
v -1.5625 3.5625 -0.1563
v 0 0.625 0.75
v 0 0.9498 0.1875
v 0 4.75 2
v -2 4.75 -0
v 0 0.625 -0.75
v 0 0.3002 -0.1875
v 0 0.9498 -0.1875
v 0 4.375 -0
v 0 4.0502 0.5625
v 0 4.6998 0.5625
v 0 4.375 -0.75
v 0 4.0502 -0.1875
v 0 4.6998 -0.1875
v -1.7678 2.5 1.0607
v 1.0607 2.5 1.7678
v 1.7678 2.5 -1.0607
v -1.0607 2.5 -1.7678
v 0 0.3002 0.1875
v 0 0.25 -2
v 2 4.75 -0
v -1.5 4.75 0.5
v -0.5 0.25 -1.5
v 1.5 4.75 -0.5
v 0.5 4.75 1.5
v -1.0607 2.5 1.7678
v 1.7678 2.5 1.0607
v 1.0607 2.5 -1.7678
v -1.7678 2.5 -1.0607
v 0 0.25 0.375
v 0 0.8125 0.6998
v 0 0.8125 0.0502
v 0 0.4375 -0.6998
v 0 0.4375 -0.0502
v 0 1 -0.375
v 0 4.1875 0.0502
v 0 4.1875 0.6998
v 0 4.75 0.375
v 0 4.1875 -0.6998
v 0 4.1875 -0.0502
v 0 4.75 -0.375
v 0 -0 -2
v 2 5 -0
v 1.5 5 0.5
v 0.5 -0 -1.5
v 0 5 2
v -2 5 -0
v -1.5 5 -0.5
v -0.5 5 1.5
v 0 0.25 2
v -2 0.25 -0
v 0 0.625 -0
v 0 0.3002 0.5625
v -1.7678 2.5 1.0607
v 1.0607 2.5 1.7678
v 1.7678 2.5 -1.0607
v -1.0607 2.5 -1.7678
v 0 0.3002 -0.5625
v 0 0.625 -0
v 0 0.9498 -0.5625
v 0 4.0502 0.1875
v 0 4.375 0.75
v 0 4.6998 0.1875
v 0 4.0502 -0.5625
v 0 4.375 -0
v 0 4.6998 -0.5625
v 0 0.9498 0.5625
v 2 0.25 -0
v -1.5 0.25 0.5
v 0.5 0.25 1.5
v 0 4.75 -2
v -0.5 4.75 -1.5
v 1.5 0.25 -0.5
v -1.0607 2.5 1.7678
v 1.7678 2.5 1.0607
v 1.0607 2.5 -1.7678
v -1.7678 2.5 -1.0607
v 0 0.4375 0.0502
v 0 0.4375 0.6998
v 0 1 0.375
v 0 0.25 -0.375
v 0 0.8125 -0.0502
v 0 0.8125 -0.6998
v 0 4 0.375
v 0 4.5625 0.6998
v 0 4.5625 0.0502
v 0 4 -0.375
v 0 4.5625 -0.0502
v 0 4.5625 -0.6998
v 2 0 0
v 0 5 -2
v 1.5 0 0.5
v -0.5 0 1.5
v 0.5 5 -1.5
v 0 0 2
v -2 0 0
v -1.5 -0 -0.5
v 0 0 0
v 0 4.75 -0
v 0 5 -0
v 0 0.25 -0
v -1.0607 1.75 1.7678
v 1.25 4.75 1.25
v -1.25 4.75 1.25
v 0.25 4.75 0.75
v -1.7678 3.25 1.0607
v 1.0607 3.25 1.7678
v 1.7678 3.25 -1.0607
v -1.0607 3.25 -1.7678
v 1.25 0.25 1.25
v -1.7678 1.75 -1.0607
v -1.75 0 0.25
v -1.75 4.75 -0.25
v 1.0607 1.75 -1.7678
v 0.25 5 -0.75
v -1.25 0.25 -1.25
v 1.25 4.75 -1.25
v -0.25 4.75 1.75
v -1.0607 3.25 1.7678
v 1.7678 3.25 1.0607
v 1.0607 3.25 -1.7678
v -1.7678 3.25 -1.0607
v -0.75 0.25 0.25
v 0.75 0.25 -0.25
v -1.0607 1.75 -1.7678
v -0.25 4.75 -0.75
v 1.7678 1.75 1.0607
v 1.7678 1.75 -1.0607
v -1.7678 1.75 1.0607
v -1.0607 1.75 -1.7678
v -0.75 5 -0.25
v 1.0607 1.75 1.7678
v 0.25 4.75 -1.75
v -1.25 0.25 1.25
v 1.75 4.75 0.25
v -1.0607 1.75 1.7678
v -0.75 -0 -0.25
v -0.75 4.75 0.25
v 0.75 4.75 -0.25
v 1.75 5 -0.25
v 1.25 -0 -1.25
v 0.25 5 1.75
v -0.25 0.25 -0.75
v -0.25 -0 -1.75
v -1.25 5 -1.25
v -1.25 5 1.25
v 1.7678 1.75 1.0607
v 1.7678 1.75 -1.0607
v 0.25 0.25 -1.75
v -1.7678 3.25 1.0607
v 1.0607 3.25 1.7678
v 1.7678 3.25 -1.0607
v -1.0607 3.25 -1.7678
v 1.25 5 -1.25
v 1.25 0 1.25
v 0.75 5 0.25
v 0.25 0 1.75
v 1.75 0.25 0.25
v -0.25 5 0.75
v 0.25 0.25 0.75
v -1.7678 1.75 1.0607
v -1.7678 1.75 -1.0607
v 1.0607 1.75 -1.7678
v 1.0607 1.75 1.7678
v 0.75 0 0.25
v -0.25 0 0.75
v -1.75 0.25 -0.25
v -0.25 0.25 1.75
v -1.25 4.75 -1.25
v -1.75 5 0.25
v 1.25 0.25 -1.25
v -1.0607 3.25 1.7678
v 1.7678 3.25 1.0607
v 1.0607 3.25 -1.7678
v -1.7678 3.25 -1.0607
v 0.25 -0 -0.75
v 1.75 -0 -0.25
v -1.25 0 1.25
v -0.25 5 -1.75
v 1.25 5 1.25
v -1.25 -0 -1.25
v 0.5 0 1
v 1 4.75 0.5
v -1 5 0.5
v -1 0 0.5
v 1 0.25 0.5
v -0.5 0.25 1
v -0.5 -0 -1
v 0.5 0.25 -1
v -1 4.75 -0.5
v -0.5 5 -1
v 1 5 -0.5
v 0.5 4.75 -1
v 1 -0 -0.5
v -0.5 4.75 1
v 0.5 5 1
v -1 0.25 -0.5
vt 0.6045 0.5567
vt 0.5927 0.5933
vt 0.5809 0.5567
vt 0.5927 0.3
vt 0.6045 0.3367
vt 0.5809 0.3367
vt 0.5955 0.7333
vt 0.5787 0.7067
vt 0.5955 0.7067
vt 0.8708 0.6467
vt 0.9291 0.66
vt 0.9326 0.6467
vt 0.8125 0.66
vt 0.8708 0.6467
vt 0.8673 0.66
vt 0.6854 0.7333
vt 0.7022 0.76
vt 0.6854 0.76
vt 0.7472 0.4467
vt 0.6877 0.4101
vt 0.7448 0.4101
vt 0.1101 0.5567
vt 0.0766 0.5201
vt 0.1201 0.5201
vt 0.7381 0.3733
vt 0.7045 0.3368
vt 0.7281 0.3368
vt 0.2505 0.4833
vt 0.191 0.4467
vt 0.2528 0.4467
vt 0.5427 0.5566
vt 0.5309 0.5933
vt 0.5191 0.5566
vt 0.5309 0.3
vt 0.5427 0.3368
vt 0.5191 0.3368
vt 0.6327 0.3733
vt 0.6663 0.3367
vt 0.6762 0.3733
vt 0.4976 0.4833
vt 0.4382 0.4467
vt 0.5 0.4467
vt 0.4809 0.5566
vt 0.4691 0.5933
vt 0.4573 0.5566
vt 0.4691 0.3
vt 0.4809 0.3368
vt 0.4573 0.3368
vt 0.0651 0.4833
vt 0.0056 0.4467
vt 0.0674 0.4467
vt 0.1719 0.5567
vt 0.1384 0.5201
vt 0.1819 0.5201
vt 0.4191 0.5567
vt 0.4073 0.5933
vt 0.3955 0.5567
vt 0.4073 0.3
vt 0.4191 0.3367
vt 0.3955 0.3367
vt 0.5787 0.76
vt 0.5787 0.7333
vt 0.0766 0.3733
vt 0.1101 0.3367
vt 0.1201 0.3733
vt 0.9853 0.3733
vt 0.9516 0.3368
vt 0.9753 0.3368
vt 0.6854 0.77
vt 0.6404 0.76
vt 0.3455 0.3
vt 0.3573 0.3367
vt 0.3337 0.3367
vt 0.6404 0.7067
vt 0.5955 0.6967
vt 0.6404 0.6967
vt 0.7045 0.5566
vt 0.7381 0.5201
vt 0.7281 0.5566
vt 0.3856 0.5201
vt 0.4291 0.5201
vt 0.3573 0.5567
vt 0.3455 0.5933
vt 0.3337 0.5567
vt 0.3055 0.3733
vt 0.2719 0.3368
vt 0.2955 0.3368
vt 0.63 0.61
vt 0.6754 0.5967
vt 0.6335 0.5967
vt 0.5594 0.4101
vt 0.5618 0.4467
vt 0.2955 0.5566
vt 0.2837 0.5933
vt 0.2719 0.5566
vt 0.2837 0.3
vt 0.9944 0.4467
vt 0.9349 0.4101
vt 0.992 0.4101
vt 0.5225 0.7267
vt 0.4757 0.7567
vt 0.473 0.7267
vt 0.2337 0.5566
vt 0.2219 0.5933
vt 0.2101 0.5566
vt 0.2219 0.3
vt 0.2337 0.3368
vt 0.2101 0.3368
vt 0.2504 0.4101
vt 0.1384 0.3733
vt 0.1719 0.3367
vt 0.1819 0.3733
vt 0.1601 0.5933
vt 0.1483 0.5567
vt 0.1601 0.3
vt 0.1483 0.3367
vt 0.7022 0.7067
vt 0.7022 0.7333
vt 0.4909 0.3733
vt 0.3056 0.5201
vt 0.6854 0.6967
vt 0.6854 0.7067
vt 0.5955 0.77
vt 0.5955 0.76
vt 0.3238 0.5201
vt 0.3673 0.5201
vt 0.0147 0.3733
vt 0.0483 0.3368
vt 0.0583 0.3733
vt 0.0983 0.5933
vt 0.0865 0.5567
vt 0.0983 0.3
vt 0.0865 0.3367
vt 0.2001 0.3733
vt 0.2437 0.3733
vt 0.8066 0.4101
vt 0.809 0.4467
vt 0.0483 0.5566
vt 0.0365 0.5933
vt 0.0247 0.5566
vt 0.0365 0.3
vt 0.0247 0.3368
vt 0.8066 0.4833
vt 0.7899 0.5566
vt 0.7562 0.5201
vt 0.7999 0.5201
vt 0.992 0.4833
vt 0.9326 0.4467
vt 0.9753 0.5566
vt 0.9635 0.5933
vt 0.9517 0.5566
vt 0.9635 0.3
vt 0.3122 0.4101
vt 0.3146 0.4467
vt 0.0147 0.5201
vt 0.0584 0.5201
vt 0.509 0.3733
vt 0.9017 0.3
vt 0.9134 0.3367
vt 0.8899 0.3367
vt 0.3047 0.5967
vt 0.2592 0.61
vt 0.2628 0.5967
vt 0.5 0.6467
vt 0.5583 0.66
vt 0.5618 0.6467
vt 0.9135 0.5567
vt 0.9017 0.5933
vt 0.8899 0.5567
vt 0.6404 0.77
vt 0.0056 0.6467
vt 0.0639 0.66
vt 0.0091 0.66
vt 0.191 0.6467
vt 0.2493 0.66
vt 0.1945 0.66
vt 0.8517 0.5567
vt 0.8399 0.5933
vt 0.8281 0.5567
vt 0.8399 0.3
vt 0.8516 0.3367
vt 0.8281 0.3367
vt 0.6144 0.5201
vt 0.5709 0.5201
vt 0.5594 0.4833
vt 0.7781 0.5933
vt 0.7663 0.5566
vt 0.7781 0.3
vt 0.7899 0.3368
vt 0.7663 0.3368
vt 0.065 0.4101
vt 0.7562 0.3733
vt 0.7999 0.3733
vt 0.7163 0.5933
vt 0.7163 0.3
vt 0.3123 0.4833
vt 0.9853 0.5201
vt 0.4901 0.5967
vt 0.4446 0.61
vt 0.4481 0.5967
vt 0.6878 0.4833
vt 0.6854 0.4467
vt 0.9234 0.5201
vt 0.6663 0.5567
vt 0.6545 0.5933
vt 0.6427 0.5567
vt 0.573 0.4767
vt 0.5618 0.4467
vt 0.573 0.4467
vt 0.573 0.4167
vt 0.5618 0.41
vt 0.6236 0.41
vt 0.6236 0.4167
vt 0.6236 0.4833
vt 0.5618 0.4833
vt 0.427 0.4767
vt 0.4382 0.4467
vt 0.4382 0.4833
vt 0.427 0.4167
vt 0.427 0.4467
vt 0.3764 0.4833
vt 0.3764 0.4767
vt 0.3764 0.41
vt 0.4382 0.41
vt 0.3258 0.4767
vt 0.3146 0.4467
vt 0.3258 0.4467
vt 0.3258 0.4167
vt 0.3146 0.41
vt 0.3764 0.4167
vt 0.3146 0.4833
vt 0.1798 0.4767
vt 0.191 0.4467
vt 0.191 0.4833
vt 0.1798 0.4167
vt 0.1798 0.4467
vt 0.1292 0.41
vt 0.191 0.41
vt 0.1292 0.4833
vt 0.1292 0.4767
vt 0.0787 0.4767
vt 0.0674 0.4467
vt 0.0787 0.4467
vt 0.0787 0.4167
vt 0.0674 0.41
vt 0.1292 0.4167
vt 0.0674 0.4833
vt 0.9213 0.4767
vt 0.9326 0.4467
vt 0.9326 0.4833
vt 0.9213 0.4167
vt 0.9213 0.4467
vt 0.8708 0.41
vt 0.9326 0.41
vt 0.8708 0.4833
vt 0.8708 0.4767
vt 0.8202 0.4767
vt 0.809 0.4467
vt 0.8202 0.4467
vt 0.8202 0.4167
vt 0.809 0.41
vt 0.809 0.4833
vt 0.8708 0.4167
vt 0.6742 0.4767
vt 0.6854 0.4467
vt 0.6854 0.4833
vt 0.6742 0.4167
vt 0.6742 0.4467
vt 0.6854 0.41
vt 0.6236 0.4767
vt 0.2619 0.3733
vt 0.6944 0.3733
vt 0.5 0.6467
vt 0.4382 0.61
vt 0.4936 0.61
vt 0.6236 0.6467
vt 0.5618 0.61
vt 0.6172 0.61
vt 0.8708 0.6467
vt 0.9326 0.61
vt 0.9326 0.6467
vt 0.3764 0.6467
vt 0.4382 0.6467
vt 0.3789 0.4833
vt 0.4357 0.4833
vt 0.6854 0.61
vt 0.429 0.3733
vt 0.3789 0.41
vt 0.3855 0.3733
vt 0.008 0.4101
vt 0.7496 0.4833
vt 0.8616 0.3733
vt 0.8115 0.41
vt 0.8181 0.3733
vt 0.9234 0.3733
vt 0.8733 0.41
vt 0.8799 0.3733
vt 0.7495 0.4101
vt 0.3146 0.6467
vt 0.37 0.61
vt 0.9416 0.3733
vt 0.8733 0.4833
vt 0.9301 0.4833
vt 0.5091 0.5201
vt 0.5527 0.5201
vt 0.008 0.4833
vt 0.9416 0.5201
vt 0.6944 0.5201
vt 0.7448 0.4833
vt 0.6854 0.6467
vt 0.1317 0.4833
vt 0.1885 0.4833
vt 0.809 0.61
vt 0.7472 0.6467
vt 0.7536 0.61
vt 0.2619 0.5201
vt 0.5618 0.6467
vt 0.1317 0.41
vt 0.4473 0.5201
vt 0.4909 0.5201
vt 0.6261 0.41
vt 0.6545 0.3
vt 0.6427 0.3367
vt 0.6762 0.5201
vt 0.6261 0.4833
vt 0.6829 0.4833
vt 0.581 0.2601
vt 0.6044 0.2601
vt 0.5927 0.2966
vt 0.6544 0.0033
vt 0.6661 0.0399
vt 0.6427 0.0399
vt 0.6327 0.0766
vt 0.2955 0.26
vt 0.2619 0.2234
vt 0.3055 0.2234
vt 0.5024 0.1136
vt 0.5618 0.15
vt 0.5 0.15
vt 0.4909 0.0766
vt 0.4573 0.0399
vt 0.4808 0.0399
vt 0.5427 0.26
vt 0.5091 0.2234
vt 0.5527 0.2234
vt 0.0674 0.15
vt 0.008 0.1865
vt 0.0056 0.15
vt 0.5192 0.26
vt 0.5309 0.2966
vt 0.5309 0.0033
vt 0.5426 0.0399
vt 0.5192 0.0399
vt 0.9133 0.0399
vt 0.8799 0.0766
vt 0.8899 0.0399
vt 0.4382 0.15
vt 0.4976 0.1865
vt 0.4406 0.1865
vt 0.4574 0.26
vt 0.4808 0.26
vt 0.4691 0.2966
vt 0.4691 0.0033
vt 0.191 0.15
vt 0.2504 0.1865
vt 0.1934 0.1865
vt 0.8616 0.0766
vt 0.8282 0.0399
vt 0.8516 0.0399
vt 0.3956 0.2601
vt 0.419 0.2601
vt 0.4073 0.2966
vt 0.3456 0.0033
vt 0.3573 0.0399
vt 0.3339 0.0399
vt 0.3673 0.0766
vt 0.6045 0.0399
vt 0.571 0.0766
vt 0.581 0.0399
vt 0.4072 0.0033
vt 0.419 0.0399
vt 0.3955 0.0399
vt 0.3856 0.0766
vt 0.11 0.2601
vt 0.0766 0.2234
vt 0.12 0.2234
vt 0.3338 0.2601
vt 0.3572 0.2601
vt 0.3455 0.2966
vt 0.2954 0.0399
vt 0.2619 0.0766
vt 0.272 0.0399
vt 0.0583 0.2234
vt 0.0248 0.26
vt 0.0147 0.2234
vt 0.4976 0.1136
vt 0.4406 0.1136
vt 0.272 0.26
vt 0.2837 0.2966
vt 0.2837 0.0033
vt 0.2552 0.1136
vt 0.3146 0.15
vt 0.2528 0.15
vt 0.2437 0.2234
vt 0.2102 0.26
vt 0.2001 0.2234
vt 0.2336 0.26
vt 0.2219 0.2966
vt 0.2219 0.0033
vt 0.2336 0.0399
vt 0.2101 0.0399
vt 0.2504 0.1136
vt 0.1934 0.1136
vt 0.6945 0.2234
vt 0.728 0.26
vt 0.7045 0.26
vt 0.1485 0.2601
vt 0.1719 0.2601
vt 0.1602 0.2966
vt 0.0984 0.0033
vt 0.1101 0.0399
vt 0.0867 0.0399
vt 0.429 0.2234
vt 0.3856 0.2234
vt 0.9752 0.26
vt 0.9417 0.2234
vt 0.9853 0.2234
vt 0.1718 0.0399
vt 0.1384 0.0766
vt 0.1484 0.0399
vt 0.2764 0.7267
vt 0.218 0.7467
vt 0.2764 0.7467
vt 0.0866 0.2601
vt 0.0982 0.2966
vt 0.16 0.0033
vt 0.7663 0.0399
vt 0.7999 0.0766
vt 0.7563 0.0766
vt 0.2552 0.1865
vt 0.0483 0.26
vt 0.0365 0.2966
vt 0.0365 0.0033
vt 0.0483 0.0399
vt 0.0248 0.0399
vt 0.008 0.1136
vt 0.0583 0.0766
vt 0.9517 0.26
vt 0.9635 0.2966
vt 0.992 0.1136
vt 0.9326 0.15
vt 0.9349 0.1136
vt 0.9752 0.0399
vt 0.9417 0.0766
vt 0.9517 0.0399
vt 0.84 0.0033
vt 0.4909 0.2234
vt 0.4473 0.2234
vt 0.3238 0.2234
vt 0.3672 0.2234
vt 0.89 0.2601
vt 0.9134 0.2601
vt 0.9017 0.2966
vt 0.5091 0.0766
vt 0.9234 0.2234
vt 0.88 0.2234
vt 0.8282 0.2601
vt 0.8516 0.2601
vt 0.8399 0.2966
vt 0.9016 0.0033
vt 0.7999 0.2234
vt 0.7664 0.26
vt 0.7563 0.2234
vt 0.809 0.15
vt 0.7496 0.1865
vt 0.7472 0.15
vt 0.7898 0.26
vt 0.7781 0.2966
vt 0.7781 0.0033
vt 0.7898 0.0399
vt 0.6854 0.15
vt 0.7448 0.1865
vt 0.6878 0.1865
vt 0.1819 0.2234
vt 0.1384 0.2234
vt 0.7163 0.2966
vt 0.7163 0.0033
vt 0.728 0.0399
vt 0.7045 0.0399
vt 0.7448 0.1136
vt 0.6878 0.1136
vt 0.6945 0.0766
vt 0.8182 0.2234
vt 0.992 0.1865
vt 0.935 0.1865
vt 0.5928 0.0033
vt 0.2437 0.0766
vt 0.1201 0.0766
vt 0.6428 0.2601
vt 0.6662 0.2601
vt 0.6545 0.2966
vt 0.5618 0.15
vt 0.573 0.18
vt 0.573 0.15
vt 0.573 0.12
vt 0.6236 0.1133
vt 0.6236 0.12
vt 0.6236 0.1867
vt 0.6236 0.18
vt 0.427 0.18
vt 0.4382 0.15
vt 0.427 0.15
vt 0.427 0.12
vt 0.3764 0.1867
vt 0.3764 0.18
vt 0.3764 0.1133
vt 0.3764 0.12
vt 0.3146 0.15
vt 0.3258 0.18
vt 0.3258 0.15
vt 0.3258 0.12
vt 0.1798 0.18
vt 0.191 0.15
vt 0.1798 0.15
vt 0.1798 0.12
vt 0.1292 0.1133
vt 0.1292 0.12
vt 0.1292 0.1867
vt 0.1292 0.18
vt 0.0674 0.15
vt 0.0787 0.18
vt 0.0787 0.15
vt 0.0787 0.12
vt 0.9213 0.18
vt 0.9326 0.15
vt 0.9213 0.15
vt 0.9213 0.12
vt 0.8708 0.1133
vt 0.8708 0.12
vt 0.8708 0.1867
vt 0.8708 0.18
vt 0.809 0.15
vt 0.8202 0.18
vt 0.8202 0.15
vt 0.8202 0.12
vt 0.6742 0.18
vt 0.6854 0.15
vt 0.6742 0.15
vt 0.6742 0.12
vt 0.5527 0.0766
vt 0.9852 0.0766
vt 0.3739 0.1133
vt 0.3238 0.0766
vt 0.429 0.0766
vt 0.3789 0.1133
vt 0.3055 0.0766
vt 0.5024 0.1865
vt 0.4357 0.1866
vt 0.6328 0.2234
vt 0.6829 0.1866
vt 0.6762 0.2234
vt 0.7381 0.2234
vt 0.8683 0.1133
vt 0.8182 0.0766
vt 0.1818 0.0766
vt 0.1317 0.1133
vt 0.7496 0.1136
vt 0.6211 0.1133
vt 0.6144 0.0766
vt 0.6762 0.0766
vt 0.6261 0.1133
vt 0.9301 0.1866
vt 0.0147 0.0766
vt 0.8115 0.1866
vt 0.8616 0.2234
vt 0.1267 0.1133
vt 0.0766 0.0766
vt 0.0699 0.1866
vt 0.1885 0.1866
vt 0.4473 0.0766
vt 0.321 0.61
vt 0.3665 0.5967
vt 0.3246 0.5967
vt 0.9234 0.0766
vt 0.8733 0.1133
vt 0.5643 0.1866
vt 0.6144 0.2234
vt 0.571 0.2234
vt 0.2001 0.0766
vt 0.7381 0.0766
vt 0.9635 0.0033
vt 0.8652 1
vt 0.8933 0.9867
vt 0.8652 0.9867
vt 0.1124 0.7733
vt 0.2022 0.76
vt 0.2022 0.7733
vt 0.382 0.76
vt 0.2921 0.7733
vt 0.382 0.7733
vt 0.1067 0.71
vt 0.0899 0.7567
vt 0.0899 0.71
vt 0.0562 0.71
vt 0.0393 0.7567
vt 0.0393 0.71
vt 0.073 0.71
vt 0.0562 0.7567
vt 0.1236 0.71
vt 0.1067 0.7567
vt 0.0225 1
vt 0.1124 0.9867
vt 0.1124 1
vt 0.0225 0.7733
vt 0.1124 0.76
vt 0.8596 0.9467
vt 0.7697 0.9067
vt 0.8596 0.9067
vt 0.0899 0.9467
vt 0.0449 0.8933
vt 0.1124 0.9067
vt 0.382 0.8267
vt 0.4045 0.88
vt 0.382 0.88
vt 0.5618 0.7867
vt 0.4719 0.8133
vt 0.5393 0.8267
vt 0.8933 0.9333
vt 0.8652 0.9333
vt 0.1404 0.71
vt 0.1236 0.7567
vt 0.1742 0.71
vt 0.191 0.7567
vt 0.1742 0.7567
vt 0.191 0.71
vt 0.2079 0.7567
vt 0.4976 0.4101
vt 0.264 0.7107
vt 0.2303 0.676
vt 0.2303 0.7107
vt 0.3315 0.7567
vt 0.3764 0.6867
vt 0.3315 0.6867
vt 0.4213 0.7567
vt 0.4213 0.6867
vt 0.7697 0.7333
vt 0.8596 0.7867
vt 0.7697 0.7867
vt 0.7697 1
vt 0.7697 0.9467
vt 0.8596 0.7333
vt 0.8596 1
vt 0.4663 0.6867
vt 0.4663 0.7567
vt 0.5692 0.7567
vt 0.5719 0.7267
vt 0.4757 0.6967
vt 0.5225 0.6973
vt 0.5692 0.6967
vt 0.1798 0.7867
vt 0.0899 0.8133
vt 0.1573 0.8267
vt 0.8596 0.8267
vt 0.7697 0.8267
vt 0.2921 1
vt 0.382 0.9867
vt 0.2921 0.9867
vt 0.2921 0.76
vt 0.4719 0.9467
vt 0.427 0.8933
vt 0.4944 0.9067
vt 0.8933 1
vt 0.0225 0.88
vt 0 0.8267
vt 0 0.88
vt 0.382 1
vt 0.2865 0.6867
vt 0.073 0.7567
vt 0.2022 1
vt 0.2022 0.9867
vt 0.2079 0.71
vt 0.2865 0.7567
vt 0.3764 0.7567
vt 0.191 0.6633
vt 0.1573 0.71
vt 0.1404 0.7567
vt 0.0225 0.7567
vt 0.0225 0.71
vt 0.0056 0.7567
vt 0.0056 0.71
vt 0.264 0.676
vt 0.2809 0.6933
vt 0.0225 0.9333
vt 0.1573 0.7567
vt 0.0899 0.6633
vt 0.1573 0.96
vt 0.4045 0.9333
vt 0.4318 0.61
vt 0.3863 0.5967
vt 0.4283 0.5967
vt 0.1974 0.61
vt 0.2429 0.5967
vt 0.201 0.5967
vt 0.5618 0.6467
vt 0.6201 0.66
vt 0.5653 0.66
vt 0.1811 0.5967
vt 0.1356 0.61
vt 0.1392 0.5967
vt 0.8807 0.5967
vt 0.9262 0.61
vt 0.9226 0.5967
vt 0.939 0.61
vt 0.9844 0.5967
vt 0.9425 0.5967
vt 0.2001 0.5201
vt 0.2438 0.5201
vt 0.061 0.61
vt 0.0156 0.5967
vt 0.012 0.61
vt 0.0674 0.6467
vt 0.6137 0.5967
vt 0.5682 0.61
vt 0.5717 0.5967
vt 0.3146 0.6467
vt 0.3729 0.66
vt 0.3181 0.66
vt 0.6327 0.5201
vt 0.9326 0.6467
vt 0.9909 0.66
vt 0.9944 0.6467
vt 0.7408 0.61
vt 0.0699 0.4833
vt 0.191 0.61
vt 0.2528 0.6467
vt 0.2464 0.61
vt 0.0674 0.61
vt 0.0056 0.6467
vt 0.3739 0.41
vt 0.3237 0.3733
vt 0.3672 0.3733
vt 0.988 0.61
vt 0.9944 0.6467
vt 0.1228 0.61
vt 0.0674 0.6467
vt 0.3146 0.61
vt 0.1292 0.6467
vt 0.0699 0.41
vt 0.9944 0.61
vt 0.8644 0.61
vt 0.809 0.6467
vt 0.1875 0.66
vt 0.1292 0.6467
vt 0.1327 0.66
vt 0.0674 0.6467
vt 0.1257 0.66
vt 0.0709 0.66
vt 0.3111 0.66
vt 0.2528 0.6467
vt 0.2563 0.66
vt 0.0774 0.5967
vt 0.1228 0.61
vt 0.1193 0.5967
vt 0.6918 0.61
vt 0.7372 0.5967
vt 0.6953 0.5967
vt 0.6854 0.6467
vt 0.7437 0.66
vt 0.6889 0.66
vt 0.3828 0.61
vt 0.7472 0.6467
vt 0.8055 0.66
vt 0.7507 0.66
vt 0.6236 0.6467
vt 0.6144 0.3733
vt 0.4382 0.6467
vt 0.4965 0.66
vt 0.5 0.6467
vt 0.8189 0.5967
vt 0.8644 0.61
vt 0.8154 0.61
vt 0.5064 0.61
vt 0.5519 0.5967
vt 0.5099 0.5967
vt 0.0738 0.61
vt 0.8743 0.66
vt 0.3764 0.6467
vt 0.4347 0.66
vt 0.4382 0.6467
vt 0.6236 0.6467
vt 0.6819 0.66
vt 0.6271 0.66
vt 0.8026 0.61
vt 0.7571 0.5967
vt 0.799 0.5967
vt 0.4417 0.66
vt 0.8616 0.5201
vt 0.5035 0.66
vt 0.3171 0.1866
vt 0.3171 0.4833
vt 0.8115 0.4833
vt 0.8181 0.5201
vt 0.5527 0.3733
vt 0.191 0.6467
vt 0.5643 0.41
vt 0.5709 0.3733
vt 0.4405 0.4101
vt 0.4472 0.3733
vt 0.5643 0.4833
vt 0.6211 0.4833
vt 0.1292 0.6467
vt 0.3799 0.66
vt 0.3764 0.6467
vt 0.7472 0.6467
vt 0.809 0.6467
vt 0.9361 0.66
vt 0.191 0.6467
vt 0.0575 0.5967
vt 0.6854 0.6467
vt 0.0225 0.76
vt 0.0225 0.9867
vt 0.1885 0.41
vt 0.382 0.9333
vt 0.7191 0.9067
vt 0.6742 0.8533
vt 0.7416 0.8667
vt 0.1067 0.6633
vt 0.2921 0.8533
vt 0.3595 0.8667
vt 0.0562 0.6633
vt 0.0393 0.6633
vt 0.9944 0.15
vt 0.2697 0.8933
vt 0.1798 0.92
vt 0.2472 0.9333
vt 0.5169 0.8667
vt 0.6517 0.8933
vt 0.6829 0.41
vt 0.073 0.6633
vt 0.5618 0.92
vt 0.6292 0.9333
vt 0.8596 0.8667
vt 0.1742 0.6633
vt 0.1348 0.8667
vt 0.1404 0.6633
vt 0.1236 0.6633
vt 0.8799 0.5201
vt 0.2247 0.9733
vt 0.5843 0.88
vt 0.6067 0.9733
vt 0.6966 0.9467
vt 0.5024 0.4833
vt 0.2247 0.84
vt 0.3371 0.9067
vt 0.8066 0.1865
vt 0.5225 0.756
vt 0.9349 0.4833
vt 0.2552 0.4833
vt 0.9301 0.41
vt 0.8683 0.41
vt 0.1934 0.4101
vt 0.3082 0.61
vt 0.2528 0.6467
vt 0.4406 0.4833
vt 0.7697 0.8667
vt 0.1573 0.6633
vt 0.0225 0.6633
vt 0.065 0.1865
vt 0.0056 0.6633
vt 0.5843 0.9867
vt 0.6742 0.9867
vt 0.5843 0.7733
vt 0.4944 0.7733
vt 0.5594 0.1136
vt 0.4045 0.8267
vt 0.2079 0.6633
vt 0.0225 0.8267
vt 0.764 0.88
vt 0.764 0.8267
vt 0.5618 0.1867
vt 0.5618 0.1133
vt 0.4382 0.1867
vt 0.4382 0.1133
vt 0.3146 0.1867
vt 0.3146 0.1133
vt 0.191 0.1867
vt 0.191 0.1133
vt 0.0674 0.1867
vt 0.0674 0.1133
vt 0.9326 0.1867
vt 0.9326 0.1133
vt 0.809 0.1867
vt 0.809 0.1133
vt 0.6854 0.1867
vt 0.6854 0.1133
vt 0.2472 0.8
vt 0.1934 0.4833
vt 0.6292 0.8
vt 0.6067 0.84
vt 0.5393 0.96
vt 0.4494 0.8533
vt 0.0674 0.8533
vt 0.809 0.6467
vt 0.2022 0.88
vt 0.764 0.9333
vt 0.4944 0.9867
vt 0.6742 0.7733
vt 0.6966 0.8133
vt 0.3146 0.9467
vt 0.3146 0.8133
vt 0.3171 0.1133
vt 0.218 0.6833
vt 0.2135 0.6933
vt 0.218 0.7033
vt 0.2472 0.7133
vt 0.2764 0.7033
vt 0.2764 0.6833
vt 0.2472 0.6733
vt 0.5594 0.1865
vt 0.2809 0.7367
vt 0.264 0.7193
vt 0.2472 0.7167
vt 0.2303 0.7193
vt 0.218 0.7267
vt 0.2135 0.7367
vt 0.2303 0.754
vt 0.2472 0.7567
vt 0.264 0.754
vt 0.065 0.1136
vt 0.3122 0.1865
vt 0.3122 0.1136
vt 0.9301 0.1133
vt 0.6211 0.1866
vt 0.8683 0.1866
vt 0.1317 0.1866
vt 0.1267 0.1866
vt 0.4357 0.1133
vt 0.0699 0.1133
vt 0.1885 0.1133
vt 0.5643 0.1133
vt 0.8733 0.1866
vt 0.8066 0.1136
vt 0.8115 0.1133
vt 0.6829 0.1133
vt 0.6261 0.1866
vt 0.3789 0.1866
vt 0.2552 0.4101
vt 0.679 0.61
vt 0.5023 0.4101
vt 0 0.9333
vt 0.4357 0.41
vt 0.8772 0.61
vt 0.1846 0.61
vt 0.6172 0.61
vt 0.1267 0.4833
vt 0.3171 0.41
vt 0.1267 0.41
vt 0.3146 0.6467
vt 0.8608 0.5967
vt 0.5554 0.61
vt 0.3739 0.1866
vt 0.3739 0.4833
vt 0.8683 0.4833
vt 0.6211 0.41
s 1
f 104/1 57/2 3/3
f 162/4 161/5 9/6
f 171/7 7/8 139/9
f 708/10 719/11 706/12
f 656/13 644/14 613/15
f 154/16 101/17 153/18
f 95/19 138/20 96/21
f 51/22 59/23 52/24
f 97/25 164/26 98/27
f 39/28 121/29 40/30
f 3/31 57/32 10/33
f 162/34 9/35 16/36
f 106/37 164/38 163/39
f 12/40 113/41 13/42
f 10/43 57/44 17/45
f 162/46 16/47 23/48
f 125/49 68/50 126/51
f 44/52 52/53 45/54
f 17/55 57/56 24/57
f 162/58 23/59 29/60
f 152/7 87/61 88/62
f 63/63 56/64 55/65
f 70/66 78/67 71/68
f 159/69 46/70 124/18
f 162/71 29/72 36/73
f 160/74 89/75 131/76
f 99/77 93/78 92/79
f 17/55 25/80 18/81
f 193/7 34/8 144/9
f 24/82 57/83 30/84
f 35/85 43/86 36/87
f 685/88 658/89 660/90
f 13/42 109/91 108/92
f 30/93 57/94 37/95
f 162/96 36/87 43/86
f 68/97 130/98 69/99
f 594/89 621/88 596/90
f 369/100 370/101 371/102
f 37/103 57/104 44/105
f 162/106 43/107 50/108
f 121/29 41/109 40/30
f 55/110 50/111 49/112
f 44/52 57/113 51/114
f 162/115 50/111 56/116
f 205/16 48/117 47/118
f 15/119 23/48 16/47
f 37/95 31/120 30/93
f 158/74 21/121 142/122
f 150/70 87/123 151/124
f 24/82 31/125 25/126
f 70/127 64/128 63/129
f 141/16 21/117 20/118
f 51/22 57/130 58/131
f 162/132 56/64 64/133
f 49/134 43/107 42/135
f 95/19 135/136 134/137
f 58/138 57/139 65/140
f 162/141 64/128 71/142
f 133/143 95/19 134/137
f 85/144 93/145 86/146
f 67/147 129/148 68/97
f 65/149 57/150 72/151
f 162/152 71/68 78/67
f 40/30 119/153 118/154
f 58/138 66/155 59/156
f 9/35 15/157 16/36
f 162/158 78/159 84/160
f 149/16 76/117 75/118
f 603/161 633/162 605/163
f 688/164 714/165 686/166
f 157/70 32/123 143/124
f 72/167 57/168 79/169
f 150/70 74/69 81/170
f 640/171 654/172 610/173
f 634/174 604/175 653/176
f 219/7 60/61 61/62
f 79/177 57/178 85/179
f 162/180 84/181 91/182
f 105/183 3/3 4/184
f 107/185 13/42 108/92
f 85/144 57/186 92/187
f 162/188 91/189 98/190
f 68/50 127/191 126/51
f 97/192 91/189 90/193
f 92/79 57/194 99/77
f 162/195 98/27 164/26
f 117/196 40/30 118/154
f 72/151 66/197 65/149
f 599/198 627/199 600/200
f 95/19 136/201 137/202
f 155/74 103/121 253/122
f 79/169 73/203 72/167
f 271/74 48/121 146/122
f 99/204 57/205 104/206
f 5/207 108/208 6/209
f 7/210 108/208 109/211
f 7/210 2/212 110/213
f 5/207 1/214 107/215
f 19/216 113/217 112/218
f 21/219 113/217 20/220
f 19/216 26/221 115/222
f 21/219 27/223 114/224
f 32/225 118/226 33/227
f 34/228 118/226 119/229
f 34/228 27/223 116/230
f 32/225 26/221 117/231
f 46/232 121/233 120/234
f 48/235 121/233 47/236
f 48/235 54/237 122/238
f 46/232 53/239 124/240
f 60/241 126/242 61/243
f 62/244 126/242 127/245
f 62/244 54/237 123/246
f 60/241 53/239 125/247
f 74/248 129/249 128/250
f 76/251 129/249 75/252
f 76/251 82/253 130/254
f 74/248 132/255 81/256
f 87/257 134/258 88/259
f 89/260 134/258 135/261
f 87/257 132/255 133/262
f 89/260 82/253 131/263
f 101/264 137/265 136/266
f 103/267 137/265 102/268
f 103/267 2/212 138/269
f 101/264 1/214 111/270
f 119/153 42/271 35/85
f 96/21 163/272 97/25
f 624/273 627/274 625/275
f 620/276 623/277 621/278
f 644/279 643/280 642/281
f 691/274 692/282 690/283
f 18/81 26/284 112/285
f 684/276 682/286 685/88
f 22/287 27/288 28/289
f 63/129 69/290 70/127
f 94/291 86/146 93/145
f 83/292 135/293 90/294
f 77/295 82/296 83/297
f 90/193 96/298 97/192
f 41/109 49/134 42/135
f 630/299 629/300 628/282
f 69/99 77/301 70/66
f 73/203 132/302 128/303
f 11/304 107/185 4/305
f 59/156 67/306 125/49
f 73/307 67/147 66/197
f 100/308 94/309 93/78
f 620/276 618/286 617/310
f 45/54 53/311 120/312
f 647/313 619/314 648/315
f 38/316 117/196 31/120
f 624/273 623/277 622/317
f 49/112 54/318 55/110
f 18/319 12/40 11/320
f 687/277 684/276 685/278
f 693/300 694/299 692/282
f 149/16 74/17 148/18
f 205/16 46/17 145/18
f 171/7 5/61 6/62
f 160/74 76/121 231/122
f 159/123 60/70 218/170
f 152/7 89/8 241/9
f 163/39 2/321 106/37
f 193/7 32/61 33/62
f 271/74 62/75 123/76
f 154/16 103/117 102/118
f 219/7 62/8 147/9
f 158/74 34/75 116/76
f 155/74 7/75 110/76
f 141/16 19/17 140/18
f 157/70 19/69 115/170
f 156/70 101/69 111/170
f 162/322 164/38 161/323
f 77/295 84/160 78/159
f 100/324 1/325 136/326
f 256/327 168/328 215/329
f 214/330 173/331 167/332
f 173/331 258/333 167/332
f 196/334 192/335 197/336
f 261/337 177/338 260/339
f 183/340 180/341 184/342
f 174/343 169/344 175/345
f 225/346 272/347 273/348
f 168/349 174/343 215/350
f 214/351 180/352 173/353
f 243/354 237/355 238/356
f 177/357 262/358 176/359
f 174/360 181/361 215/362
f 214/363 184/342 180/341
f 199/364 268/365 198/366
f 237/367 233/368 238/369
f 181/370 185/371 215/372
f 214/373 190/374 184/375
f 189/376 184/375 190/374
f 167/377 254/378 255/379
f 214/380 195/381 190/382
f 195/381 189/383 190/382
f 216/384 209/385 217/386
f 185/387 191/388 215/389
f 202/390 194/391 195/392
f 223/393 216/394 217/395
f 264/396 177/357 178/397
f 191/398 196/334 215/399
f 214/400 202/390 195/392
f 267/401 199/402 266/403
f 204/404 196/405 197/406
f 156/70 5/123 170/124
f 196/405 203/407 215/408
f 214/409 207/410 202/411
f 270/412 199/364 200/413
f 245/414 251/415 244/416
f 203/417 208/418 215/419
f 214/420 213/421 207/422
f 186/423 181/370 182/424
f 229/425 223/426 230/427
f 221/428 212/429 213/430
f 303/431 315/432 323/433
f 208/434 216/384 215/435
f 214/436 221/428 213/430
f 243/437 249/438 242/439
f 199/402 265/440 266/403
f 216/394 222/441 215/442
f 214/443 228/444 221/445
f 274/446 225/346 273/348
f 227/447 221/445 228/444
f 222/448 229/425 215/449
f 284/450 225/451 226/452
f 233/453 227/454 228/455
f 214/456 238/369 233/368
f 182/457 174/360 175/458
f 191/388 186/459 192/460
f 229/461 234/462 215/463
f 180/352 172/464 173/353
f 235/465 229/461 230/466
f 234/467 239/468 215/469
f 214/470 243/354 238/356
f 245/471 239/472 240/473
f 247/474 277/475 278/476
f 239/472 244/477 215/478
f 214/479 250/480 243/437
f 247/481 280/482 246/483
f 209/484 203/417 204/485
f 244/416 251/415 215/486
f 214/487 255/488 250/489
f 282/490 247/481 248/491
f 255/488 249/492 250/489
f 235/493 239/468 234/467
f 225/451 275/494 224/495
f 214/496 167/377 255/379
f 206/497 202/411 207/410
f 212/498 207/422 213/421
f 251/499 256/500 215/501
f 260/502 170/503 171/504
f 139/505 260/502 171/504
f 166/506 139/505 155/507
f 170/503 165/508 156/509
f 140/510 263/511 141/512
f 263/511 142/513 141/512
f 187/514 140/510 157/515
f 142/513 188/516 158/517
f 266/518 143/519 193/520
f 144/521 266/518 193/520
f 188/516 144/521 158/517
f 143/519 187/514 157/515
f 145/522 269/523 205/524
f 269/523 146/525 205/524
f 146/525 211/526 271/527
f 210/528 145/522 159/529
f 273/530 218/531 219/532
f 147/533 273/530 219/532
f 211/526 147/533 271/527
f 218/531 210/528 159/529
f 148/534 283/535 149/536
f 283/535 231/537 149/536
f 231/537 236/538 160/539
f 276/540 148/534 150/541
f 278/542 151/543 152/544
f 241/545 278/542 152/544
f 151/543 276/540 150/541
f 236/538 241/545 160/539
f 153/546 281/547 154/548
f 281/547 253/549 154/548
f 253/549 166/506 155/507
f 165/508 153/546 156/509
f 179/550 261/337 172/464
f 284/450 227/454 232/551
f 188/552 183/553 189/376
f 194/554 188/555 189/383
f 201/556 267/401 194/391
f 259/557 175/345 169/344
f 182/424 187/558 186/423
f 252/559 165/560 257/561
f 245/414 280/482 252/562
f 175/458 262/358 182/457
f 236/563 232/564 237/367
f 220/565 211/566 212/429
f 249/438 279/567 242/439
f 277/475 245/471 240/473
f 166/568 254/378 258/569
f 172/570 166/571 258/333
f 230/466 276/572 235/465
f 272/347 223/393 217/395
f 227/447 274/446 220/573
f 276/574 240/575 235/493
f 211/576 206/577 212/498
f 197/406 268/365 204/404
f 210/578 217/386 209/385
f 204/485 210/579 209/484
f 264/396 179/580 183/340
f 695/581 666/582 667/583
f 242/584 236/585 237/355
f 165/586 169/587 257/588
f 223/426 275/494 230/427
f 270/412 201/589 206/497
f 282/490 249/492 254/590
f 177/338 259/557 260/339
f 214/591 233/453 228/455
f 252/559 256/500 251/499
f 265/440 197/336 192/335
f 763/592 760/593 759/594
f 288/595 849/596 894/597
f 401/598 403/599 404/600
f 886/601 573/602 863/603
f 811/604 591/605 888/606
f 877/607 301/608 851/604
f 809/609 551/610 883/601
f 289/611 291/612 290/613
f 287/614 285/615 288/595
f 352/616 952/617 974/618
f 915/619 966/620 996/621
f 787/592 784/593 783/594
f 296/622 850/623 895/624
f 941/625 979/626 995/627
f 412/628 409/594 411/629
f 836/630 553/631 809/609
f 883/601 549/602 860/603
f 881/632 537/633 535/634
f 807/635 539/636 537/633
f 113/41 14/637 13/42
f 538/638 526/639 542/640
f 506/641 509/642 505/643
f 774/628 771/594 772/593
f 547/431 559/432 567/433
f 344/616 951/617 973/618
f 480/644 477/642 479/645
f 339/646 334/647 333/648
f 810/635 559/634 884/632
f 328/616 329/649 327/650
f 735/646 730/647 736/651
f 336/616 950/617 972/618
f 742/652 739/650 741/649
f 464/644 459/653 460/654
f 328/616 949/617 971/618
f 749/649 748/616 747/650
f 744/651 737/648 738/647
f 366/655 369/100 367/656
f 279/567 247/474 278/476
f 360/100 363/657 364/658
f 377/659 378/100 382/658
f 368/659 369/100 373/658
f 359/659 360/100 364/658
f 369/100 372/657 373/658
f 360/100 361/101 362/102
f 378/100 379/101 380/102
f 384/655 387/100 385/656
f 378/100 381/657 382/658
f 387/100 388/101 389/102
f 386/659 387/100 391/658
f 375/655 378/100 376/656
f 387/100 390/657 391/658
f 357/655 360/100 358/656
f 464/644 461/642 463/645
f 917/660 903/661 994/662
f 805/604 543/605 882/606
f 962/663 737/648 947/664
f 354/652 351/650 352/616
f 405/665 407/666 408/667
f 878/630 309/631 852/609
f 495/645 492/654 491/653
f 838/607 569/608 811/604
f 793/592 790/593 789/594
f 293/598 295/599 294/668
f 851/604 323/605 831/606
f 835/607 545/608 808/604
f 940/669 976/670 993/671
f 449/592 446/593 450/672
f 842/673 394/674 820/675
f 852/609 307/610 829/601
f 297/665 299/666 298/676
f 454/628 451/594 453/629
f 456/672 451/594 452/593
f 499/677 498/641 497/643
f 857/603 523/678 832/607
f 300/667 819/679 841/680
f 447/629 446/593 445/594
f 441/629 440/593 439/594
f 837/681 561/633 810/635
f 845/597 402/668 803/596
f 515/677 514/641 513/643
f 472/644 469/642 471/645
f 468/654 471/645 467/653
f 476/682 473/643 474/641
f 503/645 500/654 499/653
f 488/644 485/642 487/645
f 511/645 508/654 507/653
f 490/641 493/642 489/643
f 866/635 315/634 830/632
f 510/683 511/645 509/642
f 318/684 879/681 866/635
f 458/641 461/642 462/683
f 519/645 516/654 515/653
f 501/642 504/644 503/645
f 466/641 469/642 470/683
f 458/641 459/677 457/643
f 752/651 745/648 746/647
f 870/679 399/612 398/613
f 484/682 481/643 482/641
f 508/682 505/643 507/677
f 498/641 501/642 497/643
f 517/642 520/644 519/645
f 514/641 517/642 513/643
f 466/641 467/677 465/643
f 484/654 487/645 483/653
f 491/677 490/641 489/643
f 478/683 473/643 477/642
f 784/593 785/629 783/594
f 476/654 479/645 475/653
f 493/642 496/644 495/645
f 485/642 482/641 481/643
f 861/685 555/686 836/630
f 833/630 529/631 806/609
f 425/592 422/593 426/672
f 443/592 440/593 444/672
f 437/592 434/593 438/672
f 832/607 521/608 805/604
f 885/606 565/687 862/688
f 882/606 541/687 859/688
f 859/688 539/689 834/690
f 802/688 319/689 879/690
f 562/638 550/639 566/640
f 831/606 321/687 802/688
f 806/609 527/610 880/601
f 578/691 590/640 582/692
f 801/685 311/686 878/630
f 418/628 415/594 417/629
f 864/685 579/686 839/630
f 419/592 416/593 420/672
f 818/603 303/678 877/607
f 860/603 547/678 835/607
f 775/592 772/593 771/594
f 292/693 867/675 889/673
f 862/688 563/689 837/690
f 858/685 531/686 833/630
f 571/431 583/432 591/433
f 781/592 778/593 777/594
f 830/632 313/694 801/685
f 318/638 306/639 322/640
f 863/603 571/678 838/607
f 430/628 427/594 429/629
f 884/632 557/694 861/685
f 880/601 525/602 857/603
f 887/632 581/694 864/685
f 881/632 533/694 858/685
f 431/592 428/593 432/672
f 812/609 575/610 886/601
f 757/592 754/593 753/594
f 306/695 829/601 818/603
f 405/612 871/696 968/619
f 839/630 577/631 812/609
f 846/624 406/697 804/623
f 523/431 535/432 543/433
f 691/199 663/198 664/200
f 627/698 602/699 600/700
f 699/701 669/702 670/703
f 3/31 11/304 4/305
f 622/704 595/705 650/706
f 708/14 720/13 677/15
f 606/707 637/708 608/709
f 678/710 707/711 676/712
f 707/713 675/714 676/715
f 37/103 45/716 38/717
f 703/718 675/719 705/720
f 704/171 718/172 702/721
f 596/722 623/723 597/724
f 630/725 601/726 652/727
f 99/204 105/728 100/324
f 706/729 674/730 704/731
f 712/732 681/310 683/314
f 125/733 52/24 59/23
f 699/734 696/735 697/736
f 639/737 640/738 641/720
f 27/739 35/740 28/741
f 642/281 641/742 640/743
f 637/744 638/745 639/737
f 697/162 694/299 695/746
f 703/737 704/738 702/745
f 628/282 627/274 626/283
f 701/744 702/745 700/747
f 55/65 127/748 63/63
f 706/281 705/749 707/280
f 707/280 708/279 706/281
f 709/750 710/751 708/279
f 45/716 39/28 38/717
f 717/752 700/753 671/754
f 638/755 607/756 654/757
f 716/758 696/759 668/760
f 697/162 667/161 669/163
f 687/723 660/722 661/724
f 673/761 701/762 672/763
f 682/764 680/765 658/766
f 617/767 593/768 649/769
f 691/698 666/699 693/770
f 619/771 656/772 593/773
f 686/704 659/705 684/774
f 643/711 614/710 612/712
f 106/775 9/6 161/5
f 690/776 662/777 688/778
f 615/779 645/780 647/781
f 689/782 661/783 663/784
f 605/702 635/701 606/703
f 608/763 639/785 609/761
f 644/10 655/11 613/786
f 35/740 29/72 28/741
f 602/582 631/581 603/583
f 692/787 715/788 690/789
f 701/708 670/707 672/709
f 28/289 23/59 22/287
f 620/790 649/791 595/792
f 17/45 11/320 10/43
f 647/793 616/794 615/795
f 626/776 598/777 651/796
f 85/179 80/797 79/177
f 709/780 679/779 711/781
f 624/164 650/165 598/798
f 632/759 652/758 604/760
f 187/799 192/460 186/459
f 117/800 25/126 31/125
f 133/801 80/797 86/802
f 691/274 688/273 689/275
f 109/91 15/157 8/803
f 711/313 683/314 710/751
f 648/732 617/310 618/286
f 701/708 698/804 699/734
f 632/735 635/734 633/736
f 634/804 637/708 635/734
f 106/775 109/805 8/806
f 687/277 688/273 686/317
f 15/119 114/807 22/808
f 644/279 647/313 645/750
f 105/183 107/809 1/810
f 630/299 633/162 631/746
f 668/175 698/174 717/176
f 702/755 671/756 700/811
f 90/294 84/181 83/292
f 597/783 625/782 599/784
f 628/787 651/788 601/812
f 694/725 665/726 692/813
f 712/315 679/795 680/794
f 681/767 657/768 683/814
f 257/588 168/328 256/327
f 683/771 720/772 710/815
f 642/729 610/730 655/816
f 653/752 636/753 634/817
f 594/766 648/732 618/764
f 639/718 611/719 609/818
f 641/742 612/715 611/714
f 684/790 713/791 681/819
f 840/681 585/633 813/635
f 734/652 731/650 733/649
f 338/652 335/650 336/616
f 935/663 721/648 960/664
f 331/646 326/647 325/648
f 728/651 721/648 722/647
f 926/663 729/648 963/664
f 394/820 396/595 393/615
f 347/646 342/647 341/648
f 397/611 399/612 400/821
f 346/652 343/650 344/616
f 355/646 350/647 349/648
f 961/663 745/648 924/664
f 413/592 410/593 414/672
f 813/635 583/634 887/632
f 795/594 800/672 796/593
f 888/606 589/687 865/688
f 756/628 753/594 754/593
f 865/688 587/689 840/690
f 808/604 567/605 885/606
f 435/629 434/593 433/594
f 768/628 765/594 766/593
f 798/628 795/594 796/593
f 726/652 723/650 725/649
f 769/592 766/593 765/594
f 790/593 791/629 789/594
f 778/593 779/629 777/594
f 424/628 421/594 423/629
f 49/112 122/822 54/318
f 895/624 298/697 299/823
f 896/824 984/825 911/826
f 624/273 625/782 623/277
f 247/481 281/476 280/482
f 576/827 863/603 574/695
f 394/622 982/828 934/829
f 233/453 232/551 227/454
f 522/830 882/606 544/831
f 206/497 201/589 202/411
f 225/451 283/832 275/494
f 938/833 925/834 992/835
f 59/156 66/155 67/306
f 955/836 939/670 991/671
f 969/826 930/837 847/824
f 155/74 139/9 7/75
f 163/39 138/838 2/321
f 304/839 851/604 302/830
f 930/837 914/840 990/841
f 687/277 686/317 684/276
f 874/842 931/664 946/663
f 873/842 928/664 901/663
f 182/457 181/361 174/360
f 235/465 234/462 229/461
f 538/684 881/632 536/843
f 227/447 220/573 221/445
f 284/450 283/832 225/451
f 875/842 927/664 913/663
f 647/313 646/751 619/314
f 937/844 912/620 989/621
f 562/684 884/632 560/843
f 158/74 144/9 34/75
f 154/16 253/122 103/117
f 570/830 888/606 592/831
f 556/845 809/609 554/846
f 73/203 80/847 132/302
f 552/827 860/603 550/695
f 282/490 281/476 247/481
f 235/493 240/575 239/468
f 948/848 942/834 988/835
f 180/352 179/550 172/464
f 191/388 185/387 186/459
f 876/842 929/664 910/663
f 983/825 899/849 930/837
f 100/308 136/201 94/309
f 943/850 975/840 987/841
f 312/845 852/609 310/846
f 193/7 143/124 32/61
f 271/74 147/9 62/75
f 980/851 936/837 896/824
f 946/663 333/648 334/647
f 11/304 12/852 107/185
f 922/844 933/661 986/662
f 209/484 208/418 203/417
f 255/488 254/590 249/492
f 923/833 959/853 985/828
f 245/471 244/477 239/472
f 554/846 883/601 552/827
f 934/829 938/833 823/854
f 247/474 246/855 277/475
f 171/7 170/124 5/61
f 548/839 808/604 546/830
f 205/16 47/118 46/17
f 5/207 107/215 108/208
f 7/210 6/209 108/208
f 7/210 109/211 2/212
f 5/207 111/270 1/214
f 19/216 20/220 113/217
f 21/219 114/224 113/217
f 19/216 112/218 26/221
f 21/219 116/230 27/223
f 32/225 117/231 118/226
f 34/228 33/227 118/226
f 34/228 119/229 27/223
f 32/225 115/222 26/221
f 46/232 47/236 121/233
f 48/235 122/238 121/233
f 48/235 123/246 54/237
f 46/232 120/234 53/239
f 60/241 125/247 126/242
f 62/244 61/243 126/242
f 62/244 127/245 54/237
f 60/241 124/240 53/239
f 74/248 75/252 129/249
f 76/251 130/254 129/249
f 76/251 131/263 82/253
f 74/248 128/250 132/255
f 87/257 133/262 134/258
f 89/260 88/259 134/258
f 87/257 81/256 132/255
f 89/260 135/261 82/253
f 101/264 102/268 137/265
f 103/267 138/269 137/265
f 103/267 110/213 2/212
f 101/264 136/266 1/214
f 55/110 56/116 50/111
f 79/169 80/847 73/203
f 157/70 115/170 32/123
f 133/143 94/291 95/19
f 369/100 374/856 370/101
f 63/129 127/191 69/290
f 150/70 148/18 74/69
f 67/147 128/857 129/148
f 219/7 218/124 60/61
f 599/198 625/275 627/199
f 68/50 69/290 127/191
f 15/119 22/808 23/48
f 107/185 12/852 13/42
f 117/196 39/858 40/30
f 77/295 130/859 82/296
f 35/85 42/271 43/86
f 155/74 110/76 103/121
f 97/192 98/190 91/189
f 205/16 146/122 48/117
f 105/183 104/1 3/3
f 95/19 94/309 136/201
f 72/151 73/307 66/197
f 58/138 65/140 66/155
f 640/171 638/721 654/172
f 83/292 82/860 135/293
f 121/29 122/861 41/109
f 603/161 631/862 633/162
f 634/174 632/863 604/175
f 271/74 123/76 48/121
f 158/74 116/76 21/121
f 160/74 241/9 89/75
f 620/276 621/88 618/286
f 38/316 39/858 117/196
f 18/319 112/864 12/40
f 159/123 124/124 60/70
f 219/7 61/62 62/8
f 69/99 130/98 77/301
f 41/109 122/861 49/134
f 693/300 695/746 694/299
f 149/16 75/118 74/17
f 45/54 52/53 53/311
f 630/299 631/746 629/300
f 152/7 88/62 89/8
f 160/74 131/76 76/121
f 73/307 128/857 67/147
f 141/16 20/118 19/17
f 157/70 140/18 19/69
f 920/618 816/865 907/617
f 90/193 135/136 96/298
f 314/866 878/630 312/845
f 582/866 839/630 580/845
f 243/354 242/584 237/355
f 592/831 865/688 590/867
f 586/684 887/632 584/843
f 225/346 224/868 272/347
f 590/867 840/690 588/869
f 173/331 172/570 258/333
f 100/324 105/728 1/325
f 841/870 943/850 300/871
f 560/843 861/685 558/866
f 528/827 857/603 526/695
f 894/872 956/625 288/873
f 867/624 957/829 286/622
f 306/695 877/607 304/839
f 550/695 835/607 548/839
f 196/334 191/398 192/335
f 261/337 178/874 177/338
f 404/622 804/623 401/875
f 156/70 153/18 101/69
f 77/295 83/297 84/160
f 588/876 813/635 586/684
f 574/695 838/607 572/839
f 536/843 858/685 534/866
f 819/680 948/848 290/667
f 850/673 966/620 298/693
f 566/867 837/690 564/869
f 183/340 179/580 180/341
f 174/343 168/349 169/344
f 889/673 286/674 287/877
f 199/364 269/403 268/365
f 578/846 886/601 576/827
f 895/878 911/826 296/879
f 889/623 976/670 292/697
f 921/618 817/865 908/617
f 546/830 885/606 568/831
f 534/866 833/630 532/845
f 195/381 194/554 189/383
f 167/377 258/569 254/378
f 316/843 801/685 314/866
f 189/376 183/553 184/375
f 918/618 814/865 905/617
f 919/618 815/865 906/617
f 237/367 232/564 233/368
f 580/845 812/609 578/846
f 584/843 864/685 582/866
f 260/502 259/880 170/503
f 139/505 261/881 260/502
f 166/506 261/881 139/505
f 170/503 259/880 165/508
f 140/510 262/882 263/511
f 263/511 264/883 142/513
f 187/514 262/882 140/510
f 142/513 264/883 188/516
f 266/518 265/884 143/519
f 144/521 267/885 266/518
f 188/516 267/885 144/521
f 143/519 265/884 187/514
f 145/522 268/886 269/523
f 269/523 270/887 146/525
f 146/525 270/887 211/526
f 210/528 268/886 145/522
f 273/530 272/888 218/531
f 147/533 274/889 273/530
f 211/526 274/889 147/533
f 218/531 272/888 210/528
f 148/534 275/890 283/535
f 283/535 284/891 231/537
f 231/537 284/891 236/538
f 276/540 275/890 148/534
f 278/542 277/892 151/543
f 241/545 279/893 278/542
f 151/543 277/892 276/540
f 236/538 279/893 241/545
f 153/546 280/894 281/547
f 281/547 282/895 253/549
f 253/549 282/895 166/506
f 165/508 280/894 153/546
f 824/896 994/662 904/853
f 975/840 964/836 897/849
f 171/7 6/62 7/8
f 152/7 151/124 87/61
f 825/842 960/664 814/865
f 971/618 853/865 873/842
f 708/10 677/786 719/11
f 39/28 120/897 121/29
f 848/898 995/627 958/899
f 844/900 993/671 975/840
f 95/19 137/202 138/20
f 12/40 112/864 113/41
f 995/627 843/901 955/836
f 958/899 955/836 899/849
f 97/25 163/272 164/26
f 822/696 996/621 942/834
f 51/22 58/131 59/23
f 996/621 868/902 922/844
f 973/618 855/865 875/842
f 125/49 67/306 68/50
f 154/16 102/118 101/17
f 972/618 854/865 874/842
f 106/37 161/323 164/38
f 656/13 646/903 644/14
f 994/662 821/902 937/844
f 826/842 963/664 815/865
f 44/52 51/114 52/53
f 974/618 856/865 876/842
f 827/842 947/664 816/865
f 904/853 937/844 898/904
f 942/834 922/844 900/904
f 177/357 263/339 262/358
f 818/603 307/610 305/602
f 993/671 891/901 964/836
f 484/654 488/644 487/645
f 491/677 492/682 490/641
f 299/905 980/851 896/824
f 291/906 940/669 844/900
f 287/875 954/626 891/901
f 295/907 977/908 892/898
f 354/652 353/649 351/650
f 441/629 442/628 440/593
f 484/682 483/677 481/643
f 488/644 486/683 485/642
f 495/645 496/644 492/654
f 838/607 571/678 569/608
f 511/645 512/644 508/654
f 289/823 970/909 872/854
f 297/612 915/619 822/696
f 293/877 933/661 868/902
f 285/599 909/910 869/896
f 476/682 475/677 473/643
f 503/645 504/644 500/654
f 464/644 463/645 459/653
f 478/683 474/641 473/643
f 357/655 365/856 360/100
f 866/635 317/633 315/634
f 749/649 750/652 748/616
f 456/672 455/592 451/594
f 245/414 246/483 280/482
f 188/552 264/911 183/553
f 212/498 206/577 207/422
f 306/639 304/912 302/913
f 302/913 324/914 322/640
f 322/640 320/915 318/638
f 318/638 316/916 314/692
f 314/692 312/917 310/691
f 310/691 308/918 306/639
f 306/639 302/913 322/640
f 403/907 848/898 945/908
f 314/692 310/691 306/639
f 259/557 176/919 175/345
f 493/642 494/683 496/644
f 323/433 301/920 303/431
f 303/431 305/921 307/922
f 307/922 309/923 311/924
f 311/924 313/925 315/432
f 315/432 317/926 319/927
f 319/927 321/928 323/433
f 849/597 967/660 294/595
f 307/922 311/924 315/432
f 315/432 319/927 323/433
f 472/644 470/683 469/642
f 547/431 551/922 559/432
f 328/616 330/652 329/649
f 845/597 403/599 402/668
f 344/616 343/650 951/617
f 810/635 561/633 559/634
f 515/677 516/682 514/641
f 287/614 286/820 285/615
f 763/592 764/672 760/593
f 468/654 472/644 471/645
f 915/619 298/693 966/620
f 401/598 402/668 403/599
f 264/396 263/339 177/357
f 216/384 208/434 209/385
f 243/437 250/480 249/438
f 303/431 307/922 315/432
f 223/393 222/441 216/394
f 202/390 201/556 194/391
f 274/446 226/929 225/346
f 199/402 198/930 265/440
f 245/414 252/562 251/415
f 221/428 220/565 212/429
f 270/412 269/403 199/364
f 156/70 111/170 5/123
f 229/425 222/448 223/426
f 186/423 185/371 181/370
f 204/404 203/407 196/405
f 267/401 200/931 199/402
f 807/635 834/681 539/636
f 752/651 751/646 745/648
f 846/878 969/826 847/824
f 845/872 941/625 848/898
f 842/623 939/670 843/901
f 890/870 978/850 893/900
f 387/100 389/102 390/657
f 832/607 523/678 521/608
f 787/592 788/672 784/593
f 809/609 553/631 551/610
f 510/683 512/644 511/645
f 877/607 303/678 301/608
f 962/663 738/647 737/648
f 820/624 934/829 823/854
f 803/597 917/660 824/896
f 804/673 912/620 821/902
f 870/680 932/848 871/696
f 458/641 460/682 459/677
f 490/641 494/683 493/642
f 485/642 486/683 482/641
f 366/655 374/856 369/100
f 405/665 406/676 407/666
f 517/642 518/683 520/644
f 885/606 567/605 565/687
f 464/644 462/683 461/642
f 793/592 794/672 790/593
f 223/426 224/495 275/494
f 378/100 383/856 379/101
f 242/584 279/932 236/585
f 387/100 392/856 388/101
f 508/682 506/641 505/643
f 498/641 502/683 501/642
f 165/586 259/933 169/587
f 360/100 365/856 361/101
f 113/41 114/807 14/637
f 265/440 198/930 197/336
f 881/632 807/635 537/633
f 276/574 277/934 240/575
f 204/485 268/935 210/579
f 227/447 226/929 274/446
f 883/601 551/610 549/602
f 277/475 246/855 245/471
f 210/578 272/936 217/386
f 175/458 176/359 262/358
f 774/628 773/629 771/594
f 194/554 267/937 188/555
f 211/576 270/938 206/577
f 220/565 274/939 211/566
f 836/630 555/686 553/631
f 166/568 282/940 254/378
f 538/638 534/692 526/639
f 811/604 569/608 591/605
f 296/622 293/875 850/623
f 197/406 198/366 268/365
f 695/581 693/300 666/582
f 272/347 224/868 223/393
f 412/628 410/593 409/594
f 230/466 275/941 276/572
f 264/396 178/397 179/580
f 249/438 248/942 279/567
f 506/641 510/683 509/642
f 201/556 200/931 267/401
f 252/559 257/561 256/500
f 236/563 284/943 232/564
f 941/625 396/873 979/626
f 172/570 261/944 166/571
f 377/659 376/656 378/100
f 378/100 380/102 381/657
f 882/606 543/605 541/687
f 386/659 385/656 387/100
f 384/655 392/856 387/100
f 368/659 367/656 369/100
f 852/609 309/631 307/610
f 252/559 280/945 165/560
f 284/450 226/452 227/454
f 179/550 178/874 261/337
f 526/639 524/912 522/913
f 522/913 544/914 542/640
f 542/640 540/915 538/638
f 538/638 536/916 534/692
f 534/692 532/917 530/691
f 530/691 528/918 526/639
f 526/639 522/913 542/640
f 395/875 843/901 979/626
f 534/692 530/691 526/639
f 182/424 262/946 187/558
f 375/655 383/856 378/100
f 543/433 521/920 523/431
f 523/431 525/921 527/922
f 527/922 529/923 531/924
f 531/924 533/925 535/432
f 535/432 537/926 539/927
f 539/927 541/928 543/433
f 393/599 824/896 902/910
f 527/922 531/924 535/432
f 535/432 539/927 543/433
f 744/651 743/646 737/648
f 279/567 248/942 247/474
f 454/628 452/593 451/594
f 878/630 311/686 309/631
f 328/616 327/650 949/617
f 360/100 362/102 363/657
f 300/667 297/665 819/679
f 837/681 563/636 561/633
f 369/100 371/102 372/657
f 359/659 358/656 360/100
f 550/639 548/912 546/913
f 546/913 568/914 566/640
f 566/640 564/915 562/638
f 562/638 560/916 558/692
f 558/692 556/917 554/691
f 554/691 552/918 550/639
f 550/639 546/913 566/640
f 399/906 893/900 953/669
f 558/692 554/691 550/639
f 842/673 395/877 394/674
f 499/677 500/682 498/641
f 567/433 545/920 547/431
f 547/431 549/921 551/922
f 551/922 553/923 555/924
f 555/924 557/925 559/432
f 559/432 561/926 563/927
f 563/927 565/928 567/433
f 407/905 847/824 944/851
f 551/922 555/924 559/432
f 559/432 563/927 567/433
f 805/604 521/608 543/605
f 917/660 402/595 903/661
f 447/629 448/628 446/593
f 859/688 541/687 539/689
f 851/604 301/608 323/605
f 297/665 300/667 299/666
f 293/598 296/600 295/599
f 802/688 321/687 319/689
f 833/630 531/686 529/631
f 784/593 786/628 785/629
f 574/639 572/912 570/913
f 570/913 592/914 590/640
f 590/640 588/915 586/638
f 586/638 584/916 582/692
f 582/692 580/917 578/691
f 578/691 576/918 574/639
f 574/639 570/913 590/640
f 590/640 586/638 582/692
f 401/877 821/902 903/661
f 835/607 547/678 545/608
f 870/679 890/680 399/612
f 591/433 569/920 571/431
f 571/431 573/921 575/922
f 575/922 577/923 579/924
f 579/924 581/925 583/432
f 583/432 585/926 587/927
f 587/927 589/928 591/433
f 397/823 823/854 916/909
f 575/922 579/924 583/432
f 583/432 587/927 591/433
f 982/828 898/904 938/833
f 322/867 879/690 320/869
f 965/899 956/625 892/898
f 894/597 294/668 295/599
f 823/854 992/835 916/909
f 985/828 869/896 909/910
f 542/867 834/690 540/869
f 984/825 892/898 977/908
f 841/680 290/613 291/612
f 540/876 807/635 538/684
f 986/662 294/595 967/660
f 847/824 990/841 944/851
f 989/621 406/693 968/619
f 568/831 862/688 566/867
f 302/830 831/606 324/831
f 899/849 991/671 914/840
f 70/66 77/301 78/67
f 40/30 41/947 119/153
f 95/19 96/298 135/136
f 149/16 231/122 76/117
f 688/164 662/798 714/165
f 624/273 626/283 627/274
f 193/7 33/62 34/8
f 18/81 25/80 26/284
f 141/16 142/122 21/117
f 620/276 622/317 623/277
f 17/55 24/57 25/80
f 9/35 8/803 15/157
f 96/21 138/20 163/272
f 594/89 618/948 621/88
f 13/42 14/949 109/91
f 94/291 133/143 86/146
f 987/841 897/849 936/837
f 544/831 859/688 542/867
f 901/663 325/648 326/647
f 936/837 965/899 984/825
f 290/667 988/835 970/909
f 316/843 866/635 830/632
f 748/616 908/617 747/650
f 925/834 968/619 871/696
f 324/831 802/688 322/867
f 991/671 400/697 953/669
f 916/909 932/848 398/667
f 911/826 977/908 296/879
f 732/616 906/617 731/650
f 988/835 900/904 923/833
f 396/595 803/596 393/615
f 400/693 820/675 397/950
f 897/849 981/627 965/899
f 524/839 805/604 522/830
f 981/627 288/873 956/625
f 945/908 958/899 983/825
f 828/842 924/664 817/865
f 872/854 985/828 957/829
f 532/845 806/609 530/846
f 404/879 983/825 969/826
f 526/695 832/607 524/839
f 902/910 904/853 982/828
f 959/853 967/660 869/896
f 898/904 989/621 925/834
f 300/871 987/841 980/851
f 866/635 319/636 317/633
f 572/839 811/604 570/830
f 914/840 953/669 893/900
f 63/63 64/133 56/64
f 85/144 92/187 93/145
f 37/95 38/316 31/120
f 24/82 30/84 31/125
f 150/70 81/170 87/123
f 22/287 114/951 27/288
f 159/69 145/170 46/70
f 691/274 693/770 692/282
f 49/134 50/108 43/107
f 644/279 645/952 643/280
f 99/77 100/308 93/78
f 70/127 71/142 64/128
f 119/153 41/947 42/271
f 68/97 129/148 130/98
f 685/88 682/948 658/89
f 684/276 681/310 682/286
f 944/851 978/850 408/871
f 558/866 836/630 556/845
f 990/841 893/900 978/850
f 964/836 954/626 981/627
f 970/909 923/833 872/854
f 405/665 890/680 870/679
f 900/904 986/662 959/853
f 910/663 349/648 350/647
f 530/846 880/601 528/827
f 913/663 341/648 342/647
f 992/835 871/696 932/848
f 740/616 907/617 739/650
f 724/616 905/617 723/650
f 957/829 909/910 286/622
f 564/876 810/635 562/684
f 310/846 829/601 308/827
f 425/592 421/594 422/593
f 336/616 335/650 950/617
f 480/644 478/683 477/642
f 443/592 439/594 440/593
f 735/646 729/648 730/647
f 339/646 340/651 334/647
f 437/592 433/594 434/593
f 289/611 292/821 291/612
f 288/595 285/615 849/596
f 318/684 320/876 879/681
f 352/616 351/650 952/617
f 886/601 575/610 573/602
f 458/641 457/643 461/642
f 861/685 557/694 555/686
f 562/638 558/692 550/639
f 466/641 468/682 467/677
f 940/669 292/697 976/670
f 519/645 520/644 516/654
f 476/654 480/644 479/645
f 857/603 525/602 523/678
f 270/412 200/413 201/589
f 449/592 445/594 446/593
f 177/338 176/919 259/557
f 742/652 740/616 739/650
f 501/642 502/683 504/644
f 466/641 465/643 469/642
f 282/490 248/491 249/492
f 514/641 518/683 517/642
f 762/628 759/594 760/593
f 831/606 323/605 321/687
f 806/609 529/631 527/610
f 578/691 574/639 590/640
f 801/685 313/694 311/686
f 418/628 416/593 415/594
f 864/685 581/694 579/686
f 419/592 415/594 416/593
f 818/603 305/602 303/678
f 860/603 549/602 547/678
f 775/592 776/672 772/593
f 292/693 289/950 867/675
f 862/688 565/687 563/689
f 858/685 533/694 531/686
f 571/431 575/922 583/432
f 781/592 782/672 778/593
f 830/632 315/634 313/694
f 318/638 314/692 306/639
f 863/603 573/602 571/678
f 430/628 428/593 427/594
f 884/632 559/634 557/694
f 880/601 527/610 525/602
f 887/632 583/634 581/694
f 881/632 535/634 533/694
f 431/592 427/594 428/593
f 812/609 577/631 575/610
f 757/592 758/672 754/593
f 306/695 308/827 829/601
f 968/619 406/693 405/612
f 405/612 870/680 871/696
f 839/630 579/686 577/631
f 846/624 407/823 406/697
f 523/431 527/922 535/432
f 691/199 689/275 663/198
f 627/698 629/770 602/699
f 699/701 697/736 669/702
f 3/31 10/33 11/304
f 622/704 620/774 595/705
f 708/14 710/903 720/13
f 606/707 635/953 637/708
f 678/710 709/952 707/711
f 707/713 705/742 675/714
f 37/103 44/105 45/716
f 703/718 673/818 675/719
f 704/171 674/173 718/172
f 596/722 621/954 623/723
f 630/725 628/813 601/726
f 99/204 104/206 105/728
f 706/729 719/816 674/730
f 712/732 682/286 681/310
f 125/733 53/955 52/24
f 699/734 698/804 696/735
f 639/737 638/745 640/738
f 27/739 119/956 35/740
f 642/281 643/280 641/742
f 637/744 636/747 638/745
f 697/162 696/735 694/299
f 703/737 705/720 704/738
f 628/282 629/770 627/274
f 701/744 703/737 702/745
f 55/65 54/957 127/748
f 706/281 704/743 705/749
f 707/280 709/952 708/279
f 709/750 711/313 710/751
f 45/716 120/897 39/28
f 717/752 698/817 700/753
f 638/755 636/811 607/756
f 716/758 694/958 696/759
f 697/162 695/862 667/161
f 687/723 685/954 660/722
f 673/761 703/785 701/762
f 682/764 712/732 680/765
f 617/767 619/814 593/768
f 691/698 664/700 666/699
f 619/771 646/815 656/772
f 686/704 714/706 659/705
f 643/711 645/952 614/710
f 106/775 8/806 9/6
f 690/776 715/796 662/777
f 615/779 614/959 645/780
f 689/782 687/960 661/783
f 605/702 633/736 635/701
f 608/763 637/762 639/785
f 644/10 642/12 655/11
f 35/740 36/73 29/72
f 602/582 629/300 631/581
f 692/787 665/812 715/788
f 701/708 699/953 670/707
f 28/289 29/60 23/59
f 620/790 617/819 649/791
f 17/45 18/319 11/320
f 647/793 648/315 616/794
f 626/776 624/778 598/777
f 85/179 86/802 80/797
f 709/780 678/959 679/779
f 624/164 622/166 650/165
f 632/759 630/958 652/758
f 187/799 265/961 192/460
f 117/800 26/962 25/126
f 133/801 132/963 80/797
f 691/274 690/283 688/273
f 109/91 14/949 15/157
f 711/313 712/315 683/314
f 648/732 619/314 617/310
f 701/708 700/747 698/804
f 632/735 634/804 635/734
f 634/804 636/747 637/708
f 106/775 2/964 109/805
f 687/277 689/782 688/273
f 15/119 14/637 114/807
f 644/279 646/751 647/313
f 105/183 4/184 107/809
f 630/299 632/735 633/162
f 668/175 696/863 698/174
f 702/755 718/757 671/756
f 90/294 91/182 84/181
f 597/783 623/960 625/782
f 628/787 626/789 651/788
f 694/725 716/727 665/726
f 712/315 711/793 679/795
f 681/767 713/769 657/768
f 257/588 169/587 168/328
f 683/771 657/773 720/772
f 642/729 640/731 610/730
f 653/752 607/754 636/753
f 594/766 616/765 648/732
f 639/718 641/720 611/719
f 641/742 643/713 612/715
f 684/790 659/792 713/791
f 840/681 587/636 585/633
f 734/652 732/616 731/650
f 338/652 337/649 335/650
f 935/663 722/647 721/648
f 331/646 332/651 326/647
f 728/651 727/646 721/648
f 926/663 730/647 729/648
f 394/820 395/614 396/595
f 347/646 348/651 342/647
f 397/611 398/613 399/612
f 346/652 345/649 343/650
f 355/646 356/651 350/647
f 961/663 746/647 745/648
f 413/592 409/594 410/593
f 813/635 585/633 583/634
f 795/594 799/592 800/672
f 888/606 591/605 589/687
f 756/628 755/629 753/594
f 865/688 589/687 587/689
f 808/604 545/608 567/605
f 435/629 436/628 434/593
f 768/628 767/629 765/594
f 798/628 797/629 795/594
f 726/652 724/616 723/650
f 769/592 770/672 766/593
f 790/593 792/628 791/629
f 778/593 780/628 779/629
f 424/628 422/593 421/594
f 895/624 850/623 298/697
f 896/824 936/837 984/825
f 576/827 886/601 863/603
f 394/622 902/910 982/828
f 522/830 805/604 882/606
f 938/833 898/904 925/834
f 955/836 843/901 939/670
f 969/826 983/825 930/837
f 304/839 877/607 851/604
f 930/837 899/849 914/840
f 874/842 854/865 931/664
f 873/842 853/865 928/664
f 538/684 807/635 881/632
f 875/842 855/865 927/664
f 937/844 821/902 912/620
f 562/684 810/635 884/632
f 570/830 811/604 888/606
f 556/845 836/630 809/609
f 552/827 883/601 860/603
f 948/848 822/696 942/834
f 876/842 856/865 929/664
f 983/825 958/899 899/849
f 943/850 844/900 975/840
f 312/845 878/630 852/609
f 980/851 987/841 936/837
f 946/663 931/664 333/648
f 922/844 868/902 933/661
f 923/833 900/904 959/853
f 554/846 809/609 883/601
f 934/829 982/828 938/833
f 548/839 835/607 808/604
f 920/618 827/842 816/865
f 314/866 801/685 878/630
f 582/866 864/685 839/630
f 592/831 888/606 865/688
f 586/684 813/635 887/632
f 590/867 865/688 840/690
f 841/870 844/900 943/850
f 560/843 884/632 861/685
f 528/827 880/601 857/603
f 894/872 892/898 956/625
f 867/624 872/854 957/829
f 306/695 818/603 877/607
f 550/695 860/603 835/607
f 404/622 846/624 804/623
f 588/876 840/681 813/635
f 574/695 863/603 838/607
f 536/843 881/632 858/685
f 819/680 822/696 948/848
f 850/673 868/902 966/620
f 566/867 862/688 837/690
f 889/673 867/675 286/674
f 578/846 812/609 886/601
f 895/878 896/824 911/826
f 889/623 891/901 976/670
f 921/618 828/842 817/865
f 546/830 808/604 885/606
f 534/866 858/685 833/630
f 316/843 830/632 801/685
f 918/618 825/842 814/865
f 919/618 826/842 815/865
f 580/845 839/630 812/609
f 584/843 887/632 864/685
f 824/896 917/660 994/662
f 975/840 993/671 964/836
f 825/842 935/663 960/664
f 971/618 949/617 853/865
f 848/898 941/625 995/627
f 844/900 940/669 993/671
f 995/627 979/626 843/901
f 958/899 995/627 955/836
f 822/696 915/619 996/621
f 996/621 966/620 868/902
f 973/618 951/617 855/865
f 972/618 950/617 854/865
f 994/662 903/661 821/902
f 826/842 926/663 963/664
f 974/618 952/617 856/865
f 827/842 962/663 947/664
f 904/853 994/662 937/844
f 942/834 996/621 922/844
f 818/603 829/601 307/610
f 993/671 976/670 891/901
f 896/824 895/878 299/905
f 299/905 300/871 980/851
f 844/900 841/870 291/906
f 291/906 292/697 940/669
f 891/901 889/623 287/875
f 287/875 288/873 954/626
f 892/898 894/872 295/907
f 295/907 296/879 977/908
f 872/854 867/624 289/823
f 289/823 290/667 970/909
f 822/696 819/680 297/612
f 297/612 298/693 915/619
f 868/902 850/673 293/877
f 293/877 294/595 933/661
f 869/896 849/597 285/599
f 285/599 286/622 909/910
f 945/908 404/879 403/907
f 403/907 845/872 848/898
f 849/597 869/896 967/660
f 846/878 404/879 969/826
f 845/872 396/873 941/625
f 842/623 400/697 939/670
f 890/870 408/871 978/850
f 820/624 394/622 934/829
f 803/597 402/595 917/660
f 804/673 406/693 912/620
f 870/680 398/667 932/848
f 979/626 396/873 395/875
f 395/875 842/623 843/901
f 902/910 394/622 393/599
f 393/599 803/597 824/896
f 953/669 400/697 399/906
f 399/906 890/870 893/900
f 944/851 408/871 407/905
f 407/905 846/878 847/824
f 903/661 402/595 401/877
f 401/877 804/673 821/902
f 916/909 398/667 397/823
f 397/823 820/624 823/854
f 982/828 904/853 898/904
f 322/867 802/688 879/690
f 965/899 981/627 956/625
f 894/597 849/596 294/668
f 823/854 938/833 992/835
f 985/828 959/853 869/896
f 542/867 859/688 834/690
f 984/825 965/899 892/898
f 841/680 819/679 290/613
f 540/876 834/681 807/635
f 986/662 933/661 294/595
f 847/824 930/837 990/841
f 989/621 912/620 406/693
f 568/831 885/606 862/688
f 302/830 851/604 831/606
f 899/849 955/836 991/671
f 987/841 975/840 897/849
f 544/831 882/606 859/688
f 901/663 928/664 325/648
f 936/837 897/849 965/899
f 290/667 948/848 988/835
f 316/843 318/684 866/635
f 748/616 921/618 908/617
f 925/834 989/621 968/619
f 324/831 831/606 802/688
f 991/671 939/670 400/697
f 916/909 992/835 932/848
f 911/826 984/825 977/908
f 732/616 919/618 906/617
f 988/835 942/834 900/904
f 396/595 845/597 803/596
f 400/693 842/673 820/675
f 897/849 964/836 981/627
f 524/839 832/607 805/604
f 981/627 954/626 288/873
f 945/908 848/898 958/899
f 828/842 961/663 924/664
f 872/854 923/833 985/828
f 532/845 833/630 806/609
f 404/879 945/908 983/825
f 526/695 857/603 832/607
f 902/910 824/896 904/853
f 959/853 986/662 967/660
f 898/904 937/844 989/621
f 300/871 943/850 987/841
f 866/635 879/681 319/636
f 572/839 838/607 811/604
f 914/840 991/671 953/669
f 944/851 990/841 978/850
f 558/866 861/685 836/630
f 990/841 914/840 893/900
f 964/836 891/901 954/626
f 970/909 988/835 923/833
f 405/665 408/667 890/680
f 900/904 922/844 986/662
f 910/663 929/664 349/648
f 530/846 806/609 880/601
f 913/663 927/664 341/648
f 992/835 925/834 871/696
f 740/616 920/618 907/617
f 724/616 918/618 905/617
f 957/829 985/828 909/910
f 564/876 837/681 810/635
f 310/846 852/609 829/601
f 762/628 761/629 759/594
