o Cube_Cube.001
v -1.5 0 1.5
v -1.5 0.5 1.5
v -1.5 -0 -1.5
v -1.5 0.5 -1.5
v 1.5 0 1.5
v 1.5 0.5 1.5
v 1.5 -0 -1.5
v 1.5 0.5 -1.5
v 1.5 0.5 1.375
v 1.375 0.5 1.375
v 1.5 0.5 1.5
v 1.375 0.5 1.5
v 1.5 2.875 1.375
v 1.375 2.875 1.375
v 1.375 2.875 1.5
v 1.5 0.5 -1.5
v 1.375 0.5 -1.5
v 1.5 0.5 -1.375
v 1.375 0.5 -1.375
v 1.375 2.875 -1.5
v 1.5 2.875 -1.375
v 1.375 2.875 -1.375
v -1.375 0.5 1.375
v -1.5 0.5 1.375
v -1.375 0.5 1.5
v -1.5 0.5 1.5
v -1.375 2.875 1.375
v -1.5 2.875 1.375
v -1.375 2.875 1.5
v -1.375 0.5 -1.5
v -1.5 0.5 -1.5
v -1.375 0.5 -1.375
v -1.5 0.5 -1.375
v -1.375 2.875 -1.5
v -1.375 2.875 -1.375
v -1.5 2.875 -1.375
v 1.5 3 1.5
v 1.5 3 -1.5
v -1.5 3 1.5
v -1.5 3 -1.5
v 1.375 3 1.375
v 1.375 3 -1.375
v -1.375 3 1.375
v -1.375 3 -1.375
v 0 2 -1.375
v 0 2 -1.5
v 0 2 1.375
v 0 2 1.5
v 0.3536 1.8536 1.375
v 0.3536 1.8536 1.5
v 0.5 1.5 1.375
v 0.5 1.5 1.5
v 0.3536 1.1464 1.375
v 0.3536 1.1464 1.5
v 0 1 1.375
v 0 1 1.5
v -0.3536 1.1464 1.375
v -0.3536 1.1464 1.5
v -0.5 1.5 1.375
v -0.5 1.5 1.5
v -0.3536 1.8536 1.375
v -0.3536 1.8536 1.5
v 0.3536 1.8536 -1.5
v 0.3536 1.8536 -1.375
v 0.5 1.5 -1.5
v 0.5 1.5 -1.375
v 0.3536 1.1464 -1.5
v 0.3536 1.1464 -1.375
v 0 1 -1.5
v 0 1 -1.375
v -0.3536 1.1464 -1.5
v -0.3536 1.1464 -1.375
v -0.5 1.5 -1.5
v -0.5 1.5 -1.375
v -0.3536 1.8536 -1.5
v -0.3536 1.8536 -1.375
v 0 1.875 1
v 0.2652 1.7652 1
v 0.375 1.5 1
v 0.2652 1.2348 1
v 0 1.125 1
v -0.2652 1.2348 1
v -0.375 1.5 1
v -0.2652 1.7652 1
v -0.2652 1.2348 -1
v 0 1.125 -1
v 0.375 1.5 -1
v 0.2652 1.7652 -1
v 0.2652 1.2348 -1
v 0 1.875 -1
v -0.375 1.5 -1
v -0.2652 1.7652 -1
v 0 1.75 -0.25
v 0.1768 1.6768 -0.25
v 0.25 1.5 -0.25
v 0.1768 1.3232 -0.25
v 0 1.25 -0.25
v -0.1768 1.3232 -0.25
v -0.25 1.5 -0.25
v -0.1768 1.6768 -0.25
v 0 1.75 0.25
v 0.1768 1.6768 0.25
v 0.25 1.5 0.25
v 0.1768 1.3232 0.25
v 0 1.25 0.25
v -0.1768 1.3232 0.25
v -0.25 1.5 0.25
v -0.1768 1.6768 0.25
v 1.5 1.875 0.375
v 1.5 1.125 0.375
v 1.5 1.125 -0.375
v 1.5 1.875 -0.375
v 1.25 1.75 -0.25
v 1.25 1.25 -0.25
v 1.25 1.75 0.25
v 1.25 1.25 0.25
v 1.375 1.125 0.375
v 1.375 1.875 0.375
v 1.375 1.125 -0.375
v 1.375 1.875 -0.375
v 1.375 1.75 -0.25
v 1.375 1.25 -0.25
v 1.375 1.75 0.25
v 1.375 1.25 0.25
v -1.5 1.875 -0.375
v -1.5 1.125 -0.375
v -1.5 1.125 0.375
v -1.5 1.875 0.375
v -1.25 1.75 0.25
v -1.25 1.25 0.25
v -1.25 1.75 -0.25
v -1.25 1.25 -0.25
v -1.375 1.125 -0.375
v -1.375 1.875 -0.375
v -1.375 1.125 0.375
v -1.375 1.875 0.375
v -1.375 1.75 0.25
v -1.375 1.25 0.25
v -1.375 1.75 -0.25
v -1.375 1.25 -0.25
v -0.3794 1.4116 -0.5044
v -0.3536 1.5 -0.5303
v -0.6982 1 0.4482
v -0.0442 1.5 -0.1326
v -0.625 1 0.625
v -0.0571 1.4558 -0.1196
v -0.6982 1 0.8018
v -0.0884 1.4375 -0.0884
v -0.875 1 0.875
v -0.1196 1.4558 -0.0571
v -1.0518 1 0.8018
v -0.1326 1.5 -0.0442
v -1.125 1 0.625
v -0.1196 1.5442 -0.0571
v -0.875 1 0.375
v -0.0884 1.5625 -0.0884
v -1.0518 1 0.4482
v -0.0571 1.5442 -0.1196
v -0.4419 1.375 -0.4419
v -0.5044 1.4116 -0.3794
v -0.5303 1.5 -0.3536
v -0.5044 1.5884 -0.3794
v -0.4419 1.625 -0.4419
v -0.3794 1.5884 -0.5044
v -0.733 1.5884 -0.858
v -0.7071 1.5 -0.8839
v -0.7955 1.625 -0.7955
v -0.858 1.5884 -0.733
v -0.8839 1.5 -0.7071
v -0.858 1.4116 -0.733
v -0.7955 1.375 -0.7955
v -0.733 1.4116 -0.858
v -0.7955 1.5625 -0.7955
v -0.8267 1.5442 -0.7642
v -0.8397 1.5 -0.7513
v -0.8267 1.4558 -0.7642
v -0.7955 1.4375 -0.7955
v -0.7642 1.4558 -0.8267
v -0.7513 1.5 -0.8397
v -0.7642 1.5442 -0.8267
v -0.906 1.5206 -0.906
v -0.9308 1.5048 -0.8683
v -0.9281 1.4665 -0.8397
v -0.8995 1.4282 -0.837
v -0.8618 1.4124 -0.8618
v -0.837 1.4282 -0.8995
v -0.8397 1.4665 -0.9281
v -0.8683 1.5048 -0.9308
v -0.9869 1.4062 -0.9869
v -1.0069 1.3971 -0.9444
v -0.9928 1.375 -0.9044
v -0.9528 1.3529 -0.8903
v -0.9103 1.3438 -0.9103
v -0.8903 1.3529 -0.9528
v -0.9044 1.375 -0.9928
v -0.9444 1.3971 -1.0069
v -1.0165 1.25 -1.0165
v -1.0348 1.25 -0.9723
v -1.0165 1.25 -0.9281
v -0.9723 1.25 -0.9098
v -0.9281 1.25 -0.9281
v -0.9098 1.25 -0.9723
v -0.9281 1.25 -1.0165
v -0.9723 1.25 -1.0348
v -0.9281 1.125 -1.0165
v -0.9723 1.125 -1.0348
v -1.0165 1.125 -1.0165
v -0.9098 1.125 -0.9723
v -1.0165 1.125 -0.9281
v -1.0348 1.125 -0.9723
v -0.9281 1.125 -0.9281
v -0.9723 1.125 -0.9098
v 0 1.6875 0.1875
v 0.1326 1.6326 0.1875
v 0.1875 1.5 0.1875
v 0.1326 1.3674 0.1875
v 0 1.3125 0.1875
v -0.1326 1.3674 0.1875
v -0.1875 1.5 0.1875
v -0.1326 1.6326 0.1875
v 0 1.6875 -0.1875
v 0.1326 1.6326 -0.1875
v 0.1875 1.5 -0.1875
v 0.1326 1.3674 -0.1875
v 0 1.3125 -0.1875
v -0.1326 1.3674 -0.1875
v -0.1875 1.5 -0.1875
v -0.1326 1.6326 -0.1875
v -0.8839 1.125 -1.0607
v -0.9723 1.125 -1.0973
v -1.0607 1.125 -1.0607
v -0.8473 1.125 -0.9723
v -1.0607 1.125 -0.8839
v -1.0973 1.125 -0.9723
v -0.8839 1.125 -0.8839
v -0.9723 1.125 -0.8473
v -0.9723 0.875 -0.7848
v -0.8397 0.875 -0.8397
v -1.1598 0.875 -0.9723
v -1.1049 0.875 -0.8397
v -0.7848 0.875 -0.9723
v -1.1049 0.875 -1.1049
v -0.9723 0.875 -1.1598
v -0.8397 0.875 -1.1049
v -0.9723 1.125 -0.8473
v -0.8839 1.125 -0.8839
v -1.0973 1.125 -0.9723
v -1.0607 1.125 -0.8839
v -0.8473 1.125 -0.9723
v -1.0607 1.125 -1.0607
v -0.9723 1.125 -1.0973
v -0.8839 1.125 -1.0607
v 0.75 1.625 -0.125
v 0.75 1.375 -0.125
v 0.75 1.625 0.125
v 0.75 1.375 0.125
v -0.75 1.625 0.125
v -0.75 1.375 0.125
v -0.75 1.625 -0.125
v -0.75 1.375 -0.125
v 0.8125 1.625 -0.125
v 0.8125 1.375 -0.125
v 0.8125 1.625 0.125
v 0.8125 1.375 0.125
v 0.6875 1.625 -0.125
v 0.6875 1.375 -0.125
v 0.6875 1.625 0.125
v 0.6875 1.375 0.125
v 0.8125 1.6875 -0.125
v 0.8125 1.6875 0.125
v 0.6875 1.6875 -0.125
v 0.6875 1.6875 0.125
v 0.8125 1.625 0.1875
v 0.6875 1.625 0.1875
v 0.8125 1.625 -0.1875
v 0.6875 1.625 -0.1875
v 0.8125 1.25 0.1875
v 0.6875 1.25 0.1875
v 0.8125 1.25 -0.1875
v 0.6875 1.25 -0.1875
v 1 1.251 0.375
v 1 1.251 -0.375
v 0.5 1.251 0.375
v 0.5 1.251 -0.375
v 1 0.501 0.375
v 1 0.501 -0.375
v 0.5 0.501 0.375
v 0.5 0.501 -0.375
v -0.6875 1.625 -0.125
v -0.6875 1.375 -0.125
v -0.6875 1.625 0.125
v -0.6875 1.375 0.125
v -0.8125 1.625 -0.125
v -0.8125 1.375 -0.125
v -0.8125 1.625 0.125
v -0.8125 1.375 0.125
v -0.6875 1.6875 -0.125
v -0.6875 1.6875 0.125
v -0.8125 1.6875 -0.125
v -0.8125 1.6875 0.125
v -0.6875 1.625 0.1875
v -0.8125 1.625 0.1875
v -0.6875 1.625 -0.1875
v -0.8125 1.625 -0.1875
v -0.6875 1.25 0.1875
v -0.8125 1.25 0.1875
v -0.6875 1.25 -0.1875
v -0.8125 1.25 -0.1875
v -0.5 1.251 0.375
v -0.5 1.251 -0.375
v -1 1.251 0.375
v -1 1.251 -0.375
v -0.5 0.501 0.375
v -0.5 0.501 -0.375
v -1 0.501 0.375
v -1 0.501 -0.375
v -0.0625 0.5 -0.9375
v -0.0625 1.3125 -0.9375
v -0.0625 0.5 -1.0625
v -0.0625 1.3125 -1.0625
v 0.0625 0.5 -0.9375
v 0.0625 1.3125 -0.9375
v 0.0625 0.5 -1.0625
v 0.0625 1.3125 -1.0625
v -0.0625 0.5 1.0625
v -0.0625 1.3125 1.0625
v -0.0625 0.5 0.9375
v -0.0625 1.3125 0.9375
v 0.0625 0.5 1.0625
v 0.0625 1.3125 1.0625
v 0.0625 0.5 0.9375
v 0.0625 1.3125 0.9375
v 0.75 1.001 0.375
v 0.5732 0.9278 0.375
v 0.5 0.751 0.375
v 0.5732 0.5742 0.375
v 0.75 0.501 0.375
v 0.9268 0.5742 0.375
v 1 0.751 0.375
v 0.9268 0.9278 0.375
v 0.5732 0.9278 1
v 0.75 1.001 1
v 0.5 0.751 1
v 0.5732 0.5742 1
v 0.75 0.501 1
v 0.9268 0.5742 1
v 1 0.751 1
v 0.9268 0.9278 1
v 0.4482 1 -1.0518
v 0.9268 0.9278 -0.5
v 1 0.751 -0.5
v 0.9268 0.5742 -0.5
v 0.75 0.501 -0.5
v 0.5732 0.5742 -0.5
v 0.5 0.751 -0.5
v 0.75 1.001 -0.5
v 0.5732 0.9278 -0.5
v 0.6875 0.9385 0.9375
v 0.6875 1.4385 0.9375
v 0.6875 0.9385 0.8125
v 0.6875 1.4385 0.8125
v 0.8125 0.9385 0.9375
v 0.8125 1.4385 0.9375
v 0.8125 0.9385 0.8125
v 0.8125 1.4385 0.8125
v 0.6875 1.5635 0.9375
v 0.6875 1.5635 0.8125
v 0.1875 1.4385 0.9375
v 0.1875 1.4385 0.8125
v 0.1875 1.5635 0.9375
v 0.1875 1.5635 0.8125
v 0.6875 0.9385 0.6875
v 0.6875 1.4385 0.6875
v 0.6875 0.9385 0.5625
v 0.6875 1.4385 0.5625
v 0.8125 0.9385 0.6875
v 0.8125 1.4385 0.6875
v 0.8125 0.9385 0.5625
v 0.8125 1.4385 0.5625
v 0.6875 1.5635 0.6875
v 0.6875 1.5635 0.5625
v 0.1875 1.4385 0.6875
v 0.1875 1.4385 0.5625
v 0.1875 1.5635 0.6875
v 0.1875 1.5635 0.5625
v -1.3125 0.5 -0.375
v -1.3125 0.625 -0.375
v -1.3125 0.5 -1.375
v -1.3125 0.625 -1.375
v -0.5625 0.5 -0.375
v -0.5625 0.625 -0.375
v -0.5625 0.5 -1.375
v -0.5625 0.625 -1.375
v -0.875 0.5 0.375
v -1.0518 0.5 0.4482
v -1.125 0.5 0.625
v -1.0518 0.5 0.8018
v -0.875 0.5 0.875
v -0.6982 0.5 0.8018
v -0.625 0.5 0.625
v -0.6982 0.5 0.4482
v -1.0518 1 0.4482
v -0.875 1 0.375
v -1.125 1 0.625
v -1.0518 1 0.8018
v -0.875 1 0.875
v -0.6982 1 0.8018
v -0.625 1 0.625
v -0.6982 1 0.4482
v -0.6982 0.5 0.9482
v -0.625 0.5 1.125
v -0.6982 0.5 1.3018
v -0.875 0.5 1.375
v -1.0518 0.5 1.3018
v -1.125 0.5 1.125
v -1.0518 0.5 0.9482
v -0.875 0.5 0.875
v -0.7424 1.125 0.4924
v -0.6875 1.125 0.625
v -0.7424 1.125 0.7576
v -0.875 1.125 0.8125
v -1.0076 1.125 0.7576
v -1.0625 1.125 0.625
v -0.875 1.125 0.4375
v -1.0076 1.125 0.4924
v -1.0076 1 0.4924
v -0.875 1 0.4375
v -1.0625 1 0.625
v -1.0076 1 0.7576
v -0.875 1 0.8125
v -0.7424 1 0.7576
v -0.6875 1 0.625
v -0.7424 1 0.4924
v -1.0518 1 0.9482
v -0.875 1 0.875
v -1.125 1 1.125
v -1.0518 1 1.3018
v -0.875 1 1.375
v -0.6982 1 1.3018
v -0.625 1 1.125
v -0.6982 1 0.9482
v -0.7424 1.125 0.9924
v -0.6875 1.125 1.125
v -0.7424 1.125 1.2576
v -0.875 1.125 1.3125
v -1.0076 1.125 1.2576
v -1.0625 1.125 1.125
v -0.875 1.125 0.9375
v -1.0076 1.125 0.9924
v -1.0076 1 0.9924
v -0.875 1 0.9375
v -1.0625 1 1.125
v -1.0076 1 1.2576
v -0.875 1 1.3125
v -0.7424 1 1.2576
v -0.6875 1 1.125
v -0.7424 1 0.9924
v -0.9375 1.125 0.6875
v -0.8125 1.125 0.6875
v -0.9375 1.125 0.5625
v -0.8125 1.125 0.5625
v -0.9375 1.1875 0.5625
v -0.9375 1.1875 0.6875
v -0.8125 1.1875 0.6875
v -0.8125 1.1875 0.5625
v -0.9375 1.125 1.1875
v -0.8125 1.125 1.1875
v -0.9375 1.125 1.0625
v -0.8125 1.125 1.0625
v -0.9375 1.1875 1.0625
v -0.9375 1.1875 1.1875
v -0.8125 1.1875 1.1875
v -0.8125 1.1875 1.0625
v -0.9062 1.1875 1.0938
v -0.9062 1.1875 1.1562
v -0.8438 1.1875 1.1562
v -0.8438 1.1875 1.0938
v -0.9062 1.1875 0.5938
v -0.9062 1.1875 0.6562
v -0.8438 1.1875 0.6562
v -0.8438 1.1875 0.5938
v -0.9062 1.3125 1.0938
v -0.9062 1.3125 1.1562
v -0.8438 1.3125 1.1562
v -0.8438 1.3125 1.0938
v -0.9062 1.3125 0.5938
v -0.9062 1.3125 0.6562
v -0.8438 1.3125 0.6562
v -0.8438 1.3125 0.5938
v -0.9062 1.375 1.0938
v -0.8438 1.375 1.0938
v -0.9062 1.375 0.6562
v -0.8438 1.375 0.6562
v -0.9062 1.5 0.5938
v -0.9062 1.5 0.6562
v -0.8438 1.5 0.6562
v -0.8438 1.5 0.5938
v -0.8438 1.5625 0.6562
v -0.8438 1.5625 0.5938
v -0.2188 1.5 0.5938
v -0.2188 1.5 0.6562
v -0.2188 1.5625 0.5938
v -0.2188 1.5625 0.6562
v 0.75 1.001 -0.375
v 0.5732 0.9278 -0.375
v 0.5 0.751 -0.375
v 0.5732 0.5742 -0.375
v 0.75 0.501 -0.375
v 0.9268 0.5742 -0.375
v 1 0.751 -0.375
v 0.9268 0.9278 -0.375
v 0.5732 0.9278 -0.5
v 0.75 1.001 -0.5
v 0.5 0.751 -0.5
v 0.5732 0.5742 -0.5
v 0.75 0.501 -0.5
v 0.9268 0.5742 -0.5
v 1 0.751 -0.5
v 0.9268 0.9278 -0.5
v 0.625 0.5 -1.125
v 0.4482 0.5 -1.0518
v 0.375 0.5 -0.875
v 0.4482 0.5 -0.6982
v 0.625 0.5 -0.625
v 0.8018 0.5 -0.6982
v 0.875 0.5 -0.875
v 0.8018 0.5 -1.0518
v 0.4482 1 -1.0518
v 0.625 1 -1.125
v 0.375 1 -0.875
v 0.4482 1 -0.6982
v 0.625 1 -0.625
v 0.8018 1 -0.6982
v 0.875 1 -0.875
v 0.8018 1 -1.0518
v 0.7576 1.125 -1.0076
v 0.8125 1.125 -0.875
v 0.7576 1.125 -0.7424
v 0.625 1.125 -0.6875
v 0.4924 1.125 -0.7424
v 0.4375 1.125 -0.875
v 0.625 1.125 -1.0625
v 0.4924 1.125 -1.0076
v 0.4924 1 -1.0076
v 0.625 1 -1.0625
v 0.4375 1 -0.875
v 0.4924 1 -0.7424
v 0.625 1 -0.6875
v 0.7576 1 -0.7424
v 0.8125 1 -0.875
v 0.7576 1 -1.0076
v 0.5625 1.125 -0.8125
v 0.6875 1.125 -0.8125
v 0.5625 1.125 -0.9375
v 0.6875 1.125 -0.9375
v 0.5625 1.1875 -0.9375
v 0.5625 1.1875 -0.8125
v 0.6875 1.1875 -0.8125
v 0.6875 1.1875 -0.9375
v 0.5938 1.1875 -0.9062
v 0.5938 1.1875 -0.8438
v 0.6562 1.1875 -0.8438
v 0.6562 1.1875 -0.9062
v 0.5938 1.5 -0.9062
v 0.5938 1.5 -0.8438
v 0.6562 1.5 -0.8438
v 0.6562 1.5 -0.9062
v 0.5938 1.5625 -0.9062
v 0.5938 1.5625 -0.8438
v 0.2188 1.5 -0.9062
v 0.2188 1.5 -0.8438
v 0.2188 1.5625 -0.9062
v 0.2188 1.5625 -0.8438
v 1.4375 0.5 1.375
v 1.4375 2.875 1.375
v 1.4375 0.5 -1.375
v 1.4375 2.875 -1.375
v -1.5 0.5 1.375
v -1.375 2.875 -1.4375
v -1.5 2.875 1.375
v -1.375 0.5 -1.4375
v 1.375 2.875 -1.4375
v 1.375 0.5 -1.4375
v -1.4375 2.875 -1.375
v -1.4375 0.5 -1.375
v -1.4375 2.875 1.375
v -1.4375 0.5 1.375
v -1.375 2.875 1.4375
v -1.375 0.5 1.4375
v 1.375 2.875 1.4375
v 1.375 0.5 1.4375
v 1.375 2.9375 1.375
v 1.375 2.9375 -1.375
v -1.375 2.9375 1.375
v -1.375 2.9375 -1.375
v -0.3794 1.5884 -0.5044
v -0.4419 1.625 -0.4419
v -0.5044 1.5884 -0.3794
v -0.5303 1.5 -0.3536
v -0.5044 1.4116 -0.3794
v -0.4419 1.375 -0.4419
v -0.3536 1.5 -0.5303
v -0.3794 1.4116 -0.5044
v -0.8397 0.875 -1.1049
v -0.9723 0.875 -1.1598
v -1.1049 0.875 -1.1049
v -0.7848 0.875 -0.9723
v -1.1049 0.875 -0.8397
v -1.1598 0.875 -0.9723
v -0.8397 0.875 -0.8397
v -0.9723 0.875 -0.7848
v -0.8397 0.625 -1.1049
v -0.9723 0.625 -1.1598
v -1.1049 0.625 -1.1049
v -0.7848 0.625 -0.9723
v -1.1049 0.625 -0.8397
v -1.1598 0.625 -0.9723
v -0.8397 0.625 -0.8397
v -0.9723 0.625 -0.7848
v -0.733 1.5884 -0.858
v -0.7071 1.5 -0.8839
v -0.7955 1.625 -0.7955
v -0.858 1.5884 -0.733
v -0.8839 1.5 -0.7071
v -0.858 1.4116 -0.733
v -0.7955 1.375 -0.7955
v -0.733 1.4116 -0.858
v -0.3977 1.5 -0.4861
v -0.0442 1.5 -0.1326
v -0.4107 1.4558 -0.4732
v -0.0571 1.4558 -0.1196
v -0.4419 1.4375 -0.4419
v -0.0884 1.4375 -0.0884
v -0.4732 1.4558 -0.4107
v -0.1196 1.4558 -0.0571
v -0.4861 1.5 -0.3977
v -0.1326 1.5 -0.0442
v -0.4732 1.5442 -0.4107
v -0.1196 1.5442 -0.0571
v -0.4419 1.5625 -0.4419
v -0.0884 1.5625 -0.0884
v -0.4107 1.5442 -0.4732
v -0.0571 1.5442 -0.1196
v -0.7424 1.125 0.4924
v -0.6875 1.125 0.625
v -0.7424 1.125 0.7576
v -0.875 1.125 0.8125
v -1.0076 1.125 0.7576
v -1.0625 1.125 0.625
v -0.875 1.125 0.4375
v -1.0076 1.125 0.4924
v -1.0076 1 0.4924
v -0.875 1 0.4375
v -1.0625 1 0.625
v -1.0076 1 0.7576
v -0.875 1 0.8125
v -0.7424 1 0.7576
v -0.6875 1 0.625
v -0.7424 1 0.4924
v -1.0518 1 0.9482
v -0.875 1 0.875
v -1.125 1 1.125
v -1.0518 1 1.3018
v -0.875 1 1.375
v -0.6982 1 1.3018
v -0.625 1 1.125
v -0.6982 1 0.9482
v -0.7424 1.125 0.9924
v -0.6875 1.125 1.125
v -0.7424 1.125 1.2576
v -0.875 1.125 1.3125
v -1.0076 1.125 1.2576
v -1.0625 1.125 1.125
v -0.875 1.125 0.9375
v -1.0076 1.125 0.9924
v -1.0076 1 0.9924
v -0.875 1 0.9375
v -1.0625 1 1.125
v -1.0076 1 1.2576
v -0.875 1 1.3125
v -0.7424 1 1.2576
v -0.6875 1 1.125
v -0.7424 1 0.9924
v 0.5732 0.9278 1
v 0.75 1.001 1
v 0.5 0.751 1
v 0.5732 0.5742 1
v 0.75 0.501 1
v 0.9268 0.5742 1
v 1 0.751 1
v 0.9268 0.9278 1
v 0.75 0.9278 1.1768
v 0.625 0.876 1.1768
v 0.75 0.751 1.25
v 0.75 0.5742 1.1768
v 0.625 0.626 1.1768
v 0.875 0.876 1.1768
v 0.5732 0.751 1.1768
v 0.9268 0.751 1.1768
v 0.875 0.626 1.1768
v 0.625 1 -1.125
v 0.375 1 -0.875
v 0.4482 1 -0.6982
v 0.625 1 -0.625
v 0.8018 1 -0.6982
v 0.875 1 -0.875
v 0.8018 1 -1.0518
v 0.4924 1 -1.0076
v 0.625 1 -1.0625
v 0.4375 1 -0.875
v 0.4924 1 -0.7424
v 0.625 1 -0.6875
v 0.7576 1 -0.7424
v 0.8125 1 -0.875
v 0.7576 1 -1.0076
v 0.7576 1.125 -1.0076
v 0.8125 1.125 -0.875
v 0.7576 1.125 -0.7424
v 0.625 1.125 -0.6875
v 0.4924 1.125 -0.7424
v 0.4375 1.125 -0.875
v 0.625 1.125 -1.0625
v 0.4924 1.125 -1.0076
v 0 2 -1.375
v 0 2 -1.5
v 0 2 1.375
v 0 2 1.5
v 0.3536 1.8536 1.375
v 0.3536 1.8536 1.5
v 0.5 1.5 1.375
v 0.5 1.5 1.5
v 0.3536 1.1464 1.375
v 0.3536 1.1464 1.5
v 0 1 1.375
v 0 1 1.5
v -0.3536 1.1464 1.375
v -0.3536 1.1464 1.5
v -0.5 1.5 1.375
v -0.5 1.5 1.5
v -0.3536 1.8536 1.375
v -0.3536 1.8536 1.5
v 0.3536 1.8536 -1.5
v 0.3536 1.8536 -1.375
v 0.5 1.5 -1.5
v 0.5 1.5 -1.375
v 0.3536 1.1464 -1.5
v 0.3536 1.1464 -1.375
v 0 1 -1.5
v 0 1 -1.375
v -0.3536 1.1464 -1.5
v -0.3536 1.1464 -1.375
v -0.5 1.5 -1.5
v -0.5 1.5 -1.375
v -0.3536 1.8536 -1.5
v -0.3536 1.8536 -1.375
v 0 1.875 1.375
v 0.2652 1.7652 1.375
v 0.375 1.5 1.375
v 0.2652 1.2348 1.375
v 0 1.125 1.375
v -0.2652 1.2348 1.375
v -0.375 1.5 1.375
v -0.2652 1.7652 1.375
v 0 1.875 1
v 0.2652 1.7652 1
v 0.375 1.5 1
v 0.2652 1.2348 1
v 0 1.125 1
v -0.2652 1.2348 1
v -0.375 1.5 1
v -0.2652 1.7652 1
v 0 1.875 -1.375
v 0.2652 1.7652 -1.375
v 0.375 1.5 -1.375
v 0.2652 1.2348 -1.375
v 0 1.125 -1.375
v -0.2652 1.2348 -1.375
v -0.375 1.5 -1.375
v -0.2652 1.7652 -1.375
v -0.2652 1.2348 -1
v 0 1.125 -1
v 0.375 1.5 -1
v 0.2652 1.7652 -1
v 0.2652 1.2348 -1
v 0 1.875 -1
v -0.375 1.5 -1
v -0.2652 1.7652 -1
v 0 1.75 1
v 0.1768 1.6768 1
v 0.25 1.5 1
v 0.1768 1.3232 1
v 0 1.25 1
v -0.1768 1.3232 1
v -0.25 1.5 1
v -0.1768 1.6768 1
v 0 1.75 -1
v 0.1768 1.6768 -1
v 0.25 1.5 -1
v 0.1768 1.3232 -1
v 0 1.25 -1
v -0.1768 1.3232 -1
v -0.25 1.5 -1
v -0.1768 1.6768 -1
v 0 1.75 -0.25
v 0.1768 1.6768 -0.25
v 0.25 1.5 -0.25
v 0.1768 1.3232 -0.25
v 0 1.25 -0.25
v -0.1768 1.3232 -0.25
v -0.25 1.5 -0.25
v -0.1768 1.6768 -0.25
v 0 1.75 0.25
v 0.1768 1.6768 0.25
v 0.25 1.5 0.25
v 0.1768 1.3232 0.25
v 0 1.25 0.25
v -0.1768 1.3232 0.25
v -0.25 1.5 0.25
v -0.1768 1.6768 0.25
v 0 1.6875 0.25
v 0.1326 1.6326 0.25
v 0.1875 1.5 0.25
v 0.1326 1.3674 0.25
v 0 1.3125 0.25
v -0.1326 1.3674 0.25
v -0.1875 1.5 0.25
v -0.1326 1.6326 0.25
v 0 1.6875 0.1875
v 0.1326 1.6326 0.1875
v 0.1875 1.5 0.1875
v 0.1326 1.3674 0.1875
v 0 1.3125 0.1875
v -0.1326 1.3674 0.1875
v -0.1875 1.5 0.1875
v -0.1326 1.6326 0.1875
v 0 1.6875 -0.25
v 0.1326 1.6326 -0.25
v 0.1875 1.5 -0.25
v 0.1326 1.3674 -0.25
v 0 1.3125 -0.25
v -0.1326 1.3674 -0.25
v -0.1875 1.5 -0.25
v -0.1326 1.6326 -0.25
v 0 1.6875 -0.1875
v 0.1326 1.6326 -0.1875
v 0.1875 1.5 -0.1875
v 0.1326 1.3674 -0.1875
v 0 1.3125 -0.1875
v -0.1326 1.3674 -0.1875
v -0.1875 1.5 -0.1875
v -0.1326 1.6326 -0.1875
v 0.75 1.625 -0.125
v 0.75 1.375 -0.125
v 0.75 1.625 0.125
v 0.75 1.375 0.125
v -0.75 1.625 0.125
v -0.75 1.375 0.125
v -0.75 1.625 -0.125
v -0.75 1.375 -0.125
v 1.4375 0.5 1.375
v 1.4375 2.875 1.375
v 1.4375 0.5 -1.375
v 1.4375 2.875 -1.375
v -1.375 2.875 -1.4375
v -1.375 0.5 -1.4375
v 1.375 2.875 -1.4375
v 1.375 0.5 -1.4375
v -1.4375 2.875 -1.375
v -1.4375 0.5 -1.375
v -1.4375 2.875 1.375
v -1.4375 0.5 1.375
v -1.375 2.875 1.4375
v -1.375 0.5 1.4375
v 1.375 2.875 1.4375
v 1.375 0.5 1.4375
v 1.375 2.9375 1.375
v 1.375 2.9375 -1.375
v -1.375 2.9375 1.375
v -1.375 2.9375 -1.375
v -1.5 1.6875 1.375
v -1.5 0 0
v 0 -0 -1.5
v 1.5 0 0
v 0 0 1.5
v 0 0.5 -1.5
v 1.5 0.5 -0
v 1.5 1.6875 -1.375
v -1.5 1.6875 1.4375
v -1.5 1.6875 1.375
v 1.5 1.75 1.5
v 1.5 1.6875 1.4375
v 1.375 1.6875 1.375
v 1.375 1.6875 1.5
v 1.375 1.6875 -1.375
v -1.5 1.75 1.5
v -1.4375 1.6875 1.5
v -1.375 1.6875 -1.375
v 1.5 1.75 -1.5
v 1.4375 1.6875 -1.5
v -1.5 1.75 -1.5
v -1.5 1.6875 -1.4375
v -1.4375 1.6875 -1.5
v -1.375 1.6875 -1.5
v -1.375 1.6875 1.375
v 1.5 1.6875 -1.4375
v 0 2.875 -1.375
v 0 2.875 1.5
v -1.5 2.875 -0
v 1.375 2.875 -0
v 1.4375 1.6875 1.5
v 0.0625 2.9375 1.5
v 0 2.875 -1.5
v 0.0625 2.9375 -1.5
v -1.5 2.9375 0.0625
v 1.5 2.9375 -0.0625
v 1.5 2.875 -0
v -1.375 2.875 -0
v 0 2.875 1.375
v 0 3 1.375
v 0.0625 3 1.4375
v -1.375 3 -0
v -1.4375 3 0.0625
v 0.0625 3 -1.4375
v 0 3 -1.375
v 1.375 3 -0
v 1.4375 3 -0.0625
v 1.4375 0.5 -0
v 1.4375 1.6875 1.375
v -1.4375 0.5 -0
v -1.4375 1.6875 -1.375
v 1.375 1.6875 -1.4375
v 0 2.875 -1.4375
v 0 2.875 1.4375
v 1.375 1.6875 1.4375
v 0 2.9375 -1.375
v 1.375 2.9375 -0
v 1.4375 1.6875 1.375
v 1.4375 0.5 -0
v -1.4375 1.6875 -1.375
v -1.4375 0.5 -0
v 0 2.875 -1.4375
v 1.375 1.6875 -1.4375
v 1.375 1.6875 1.4375
v 0 2.875 1.4375
v 1.375 2.9375 -0
v 0 2.9375 -1.375
v -1.5 0.5 -0
v 0 0.5 1.5
v 1.5 1.6875 1.375
v 1.375 1.6875 -1.5
v -1.375 1.6875 1.5
v -1.5 1.6875 -1.375
v 0 3 1.5
v 0 3 -1.5
v -1.5 3 -0
v 1.5 3 -0
v 1.4375 1.6875 -1.375
v 1.4375 2.875 -0
v -1.4375 1.6875 1.375
v -1.4375 2.875 -0
v 0 0.5 -1.4375
v -1.375 1.6875 -1.4375
v -1.375 1.6875 1.4375
v 0 0.5 1.4375
v -1.375 2.9375 -0
v 0 2.9375 1.375
v 1.4375 2.875 -0
v 1.4375 1.6875 -1.375
v -1.4375 2.875 -0
v -1.4375 1.6875 1.375
v -1.375 1.6875 -1.4375
v 0 0.5 -1.4375
v 0 0.5 1.4375
v -1.375 1.6875 1.4375
v 0 2.9375 1.375
v -1.375 2.9375 -0
v 0 2.9375 -0
v 0 2.9375 -0
v -1.4375 1.6875 -0
v 0 1.6875 -1.4375
v -1.4375 1.6875 -0
v 0 1.6875 1.4375
v 0 1.6875 -1.4375
v 0 1.6875 1.4375
v 0 0.5 -0
v 0 0 0
v 1.4375 1.6875 -0
v 1.4375 1.6875 -0
v -1.5 -0 -0.75
v 0.75 -0 -1.5
v 1.5 -0 -0.75
v 0.75 0 1.5
v 0.75 0.5 -1.5
v 1.5 0.5 -0.75
v 0 -0 -0.75
v -0.75 0.5 -1.5
v 1.5 0.5 0.75
v -0.75 -0 -1.5
v 1.5 0 0.75
v -1.5 0 0.75
v -0.75 0 1.5
v -1.5 0.5 -0.75
v 0.75 0.5 1.5
v -0.75 3 1.5
v -0.75 3 -1.5
v -1.5 3 -0.75
v 1.5 3 -0.75
v 0.75 3 -1.5
v 0.75 3 1.5
v -0.75 0.5 1.5
v -1.5 0.5 0.75
v 0 0 0.75
v 0 0.5 0.75
v 0.75 0.5 -0
v -0.75 0 0
v 0.75 0 0
v -0.75 0.5 -0
v 0 0.5 -0.75
v -1.5 3 0.75
v 1.5 3 0.75
v 0.75 -0 -0.75
v 0.75 0 0.75
v -0.75 -0 -0.75
v -0.75 0.5 -0.75
v 0.75 0.5 -0.75
v -0.75 0.5 0.75
v 0.75 0.5 0.75
v -0.75 0 0.75
vt 0.0128 0.7353
vt 0.0256 0.549
vt 0.0256 0.7353
vt 1 0.1863
vt 0.859 0
vt 0.859 0.1863
vt 0.5641 0.1373
vt 0.5577 0.1176
vt 0.5641 0.1176
vt 0.641 0.2941
vt 0.6282 0.2157
vt 0.641 0.2157
vt 0.641 0.1961
vt 0.6026 0.3235
vt 0.6154 0.1961
vt 0.6154 0.3235
vt 0.3397 0.8431
vt 0.3718 0.8235
vt 0.3718 0.8431
vt 0.3013 0.7353
vt 0.2949 0.9216
vt 0.2949 0.7353
vt 0.0128 0.9216
vt 0 0.7451
vt 0.0064 0.7353
vt 0.6282 0.1961
vt 0.641 0.1176
vt 0.3846 0.451
vt 0.3654 0.3725
vt 0.3846 0.3725
vt 0.4423 0.4804
vt 0.4295 0.4608
vt 0.4423 0.4608
vt 0.5641 0.3235
vt 0.5769 0.1961
vt 0.5769 0.3235
vt 0.141 0.6078
vt 0.0641 0.5882
vt 0.141 0.5882
vt 0.0641 0.6078
vt 0.0513 0.7255
vt 0.0513 0.6078
vt 0.1667 0.7059
vt 0.1795 0.6275
vt 0.1795 0.7059
vt 0.2308 0.6176
vt 0.2372 0.6373
vt 0.2308 0.6373
vt 0.3269 0.4804
vt 0.3141 0.4608
vt 0.3269 0.4608
vt 0.4423 0.1961
vt 0.4615 0.2157
vt 0.4423 0.2157
vt 0.1603 0.9314
vt 0.1538 0.9216
vt 0.1474 0.9314
vt 0.4808 0.549
vt 0.4679 0.5882
vt 0.4679 0.549
vt 0.859 0.3725
vt 0.7179 0.1863
vt 0.2372 0.6176
vt 0.2628 0.6078
vt 0.2628 0.6176
vt 0.4679 0.5
vt 0.4936 0.549
vt 0.1603 0.951
vt 0.2949 0.9608
vt 0.1538 0.9608
vt 0.1474 0.951
vt 0 0.1961
vt 0.0769 0.0784
vt 0.0769 0.1961
vt 0.3348 0.488
vt 0.3237 0.5288
vt 0.3081 0.5049
vt 0.3946 0.8671
vt 0.4093 0.9216
vt 0.3946 0.976
vt 0.4872 0
vt 0.4872 0.1176
vt 0.3945 0.6907
vt 0.4093 0.7451
vt 0.3945 0.7995
vt 0.3782 0.5493
vt 0.4053 0.5664
vt 0.4165 0.6078
vt 0.572 0.184
vt 0.6075 0.1298
vt 0.6075 0.184
vt 0.5 0.8824
vt 0.5128 0.9608
vt 0.5 0.9608
vt 0.3462 0.4804
vt 0.3333 0.4608
vt 0.3462 0.4608
vt 0.4551 0.6275
vt 0.4615 0.6471
vt 0.4551 0.6471
vt 0.4744 0.4608
vt 0.4615 0.3431
vt 0.4744 0.3431
vt 0.4038 0.3137
vt 0.3846 0.2157
vt 0.4038 0.2157
vt 0.4615 0.3137
vt 0.1667 0.6275
vt 0.1538 0.7255
vt 0.1538 0.6078
vt 0.6538 0.2941
vt 0.6538 0.2157
vt 0.2692 0.6176
vt 0.2628 0.6373
vt 0.25 0.6078
vt 0.2628 0.5686
vt 0.141 0.7451
vt 0.0769 0.7647
vt 0.0641 0.7451
vt 0.5833 0.1176
vt 0.5641 -0
vt 0.5833 -0
vt 0.0385 0.6275
vt 0.1282 0.5686
vt 0.5 0.8431
vt 0.5321 0.8235
vt 0.5321 0.8431
vt 0.5256 0.2843
vt 0.5192 0.1863
vt 0.5256 0.1863
vt 0.3654 0.451
vt 0.3462 0.3725
vt 0.5769 0.4608
vt 0.4744 0.4804
vt 0.3654 0.549
vt 0.3397 0.5
vt 0.3654 0.5
vt 0.5 0.2451
vt 0.4936 0.1863
vt 0.5 0.1863
vt 0.25 0.5686
vt 0.5577 0.1373
vt 0.5513 0.1176
vt 0.2564 0.9216
vt 0.2821 0.8824
vt 0.2821 0.9216
vt 0.4744 0.6275
vt 0.4808 0.6471
vt 0.4744 0.6471
vt 0.3269 0.451
vt 0.3462 0.451
vt 0.3077 0.451
vt 0.3654 0.4608
vt 0.4423 0.451
vt 0.4615 0.4608
vt 0.4487 0.4608
vt 0.4321 0.8765
vt 0.4231 0.8822
vt 0.4141 0.8765
vt 0.4487 0.6667
vt 0.4551 0.6863
vt 0.4487 0.6863
vt 0.4808 0.6275
vt 0.4679 0.6275
vt 0.4231 0.9613
vt 0.4319 0.9669
vt 0.4142 0.9939
vt 0.3526 0.4608
vt 0.4173 0.647
vt 0.4209 0.6338
vt 0.4295 0.6284
vt 0.4359 0.1176
vt 0.359 0.1961
vt 0.359 0.1176
vt 0.4038 0.4608
vt 0.391 0.4608
vt 0.3718 0.4608
vt 0.4038 0.451
vt 0.4615 0.451
vt 0.3127 0.5218
vt 0.4231 0.4608
vt 0.4103 0.4608
vt 0.6282 0.2941
vt 0.6154 0.2157
vt 0.4038 0.8431
vt 0.4359 0.8235
vt 0.4359 0.8431
vt 0.3846 0.4804
vt 0.3846 0.4608
vt 0.3141 0.5588
vt 0.3269 0.5392
vt 0.3269 0.5588
vt 0 0.0784
vt 0.0769 0
vt 0.3846 0.3137
vt 0.3654 0.2157
vt 0.3141 0.5392
vt 0.3077 0.5588
vt 0.3077 0.5392
vt 0.3654 0.4804
vt 0.5769 0.3431
vt 0.5897 0.4608
vt 0.3654 0.3137
vt 0.3462 0.2157
vt 0.6538 0.1176
vt 0.6538 0.1961
vt 0.3077 0
vt 0.3077 0.1176
vt 0.2372 0.6471
vt 0.2308 0.6471
vt 0.2692 0.6471
vt 0.2628 0.6471
vt 0.2308 0.6078
vt 0.2372 0.6078
vt 0.2692 0.6078
vt 0.2372 0.5686
vt 0.2628 0.6863
vt 0.2372 0.6863
vt 0.859 0.5882
vt 0.7179 0.8039
vt 0.7179 0.5882
vt 0.2692 0.7059
vt 0.4231 0.451
vt 0.4038 0.3725
vt 0.4231 0.3725
vt 0.4359 0.1961
vt 0.2821 0.7353
vt 0.2949 0.549
vt 0.2179 0.549
vt 0.2179 0.6078
vt 0.4551 0.5882
vt 0.4551 0.549
vt 0.3141 0.5294
vt 0.3269 0.5294
vt 0.2628 0.6667
vt 0.4423 0.549
vt 0.4167 0.5
vt 0.4423 0.5
vt 0.4808 0.1765
vt 0.4744 0.1275
vt 0.4808 0.1275
vt 0.2949 0.9804
vt 0.1538 0.9804
vt 0.5385 0.2843
vt 0.5321 0.1863
vt 0.5385 0.1863
vt 0.2308 0.549
vt 0.6026 0.1176
vt 0.6218 0.1176
vt 0.6026 -0
vt 0.6218 -0
vt 0.359 0
vt 0.4487 0.6275
vt 0.4487 0.6471
vt 0.5897 0.1961
vt 0.5897 0.3235
vt 0.6026 0.1961
vt 0.4038 0.4804
vt 0.1282 0.7843
vt 0.0769 0.8627
vt 0.0769 0.7843
vt 0.5897 0.1952
vt 0.5897 0.1185
vt 0.6148 0.1569
vt 0.4615 0.6275
vt 0.4679 0.6471
vt 0.4423 0.3725
vt 0.4615 0.3725
vt 0.3333 0.5392
vt 0.3333 0.5588
vt 0.4231 0.3137
vt 0.4231 0.2157
vt 0.3397 0.8235
vt 0.4231 0.4804
vt 0.3269 0.3137
vt 0.3077 0.2157
vt 0.3269 0.2157
vt 0.6667 0.2941
vt 0.6667 0.2157
vt 0.141 0.7255
vt 0.2949 1
vt 0.1538 1
vt 0.0256 0.7059
vt 0.0385 0.7059
vt 0.0641 0.7255
vt 0.3269 0.5686
vt 0.3141 0.5686
vt 0.3077 0.3725
vt 0.3269 0.3725
vt 0.4615 0.4804
vt 0.0769 0.5686
vt 0.1282 0.549
vt 0.0128 0.9804
vt 0.1282 0.7647
vt 0.5513 0.1373
vt 0.5449 0.1471
vt 0.5449 0.1373
vt 0.5577 0.2157
vt 0.5513 0.1471
vt 0.5577 0.1471
vt 0.5192 0.2843
vt 0.5128 0.1863
vt 0.5192 0.1471
vt 0.5128 0.1275
vt 0.5192 0.1275
vt 0.5256 0.1765
vt 0.5321 0.1569
vt 0.5321 0.1765
vt 0.5256 0.1569
vt 0.5192 0.1765
vt 0.5385 0.1765
vt 0.641 -0
vt 0.5128 0.1765
vt 0.5321 0.2843
vt 0.5 0.8235
vt 0.4358 0.8627
vt 0.4103 0.8627
vt 0.4321 0.849
vt 0.4359 0
vt 0.4744 0.1863
vt 0.4744 0.1765
vt 0.5 0.1765
vt 0.4936 0.1275
vt 0.5 0.1275
vt 0.4359 0.8235
vt 0.4038 0.8235
vt 0.4936 0.1765
vt 0.4872 0.1765
vt 0.4808 0.2451
vt 0.4808 0.1863
vt 0.5449 0.549
vt 0.5192 0.5
vt 0.5449 0.5
vt 0.2372 0.6667
vt 0.2692 0.6373
vt 0.5256 0.1471
vt 0.5256 0.1275
vt 0.3654 0.1961
vt 0.6603 0.1176
vt 0.5385 0.1471
vt 0.5385 0.1373
vt 0.2692 0.549
vt 0.2821 0.6078
vt 0.5385 0.1275
vt 0.5256 0.1176
vt 0.5385 0.1176
vt 0.4419 0.1771
vt 0.4684 0.1366
vt 0.4684 0.1771
vt 0.359 0.9986
vt 0.359 0.8446
vt 0.6282 0.1176
vt 0.6795 -0
vt 0.6987 0.1176
vt 0.6795 0.1176
vt 0.359 0.822
vt 0.3087 0.7451
vt 0.359 0.6682
vt 0 0
vt 0.5128 0.1471
vt 0.0769 0.549
vt 0.1538 0.4314
vt 0.1538 0.549
vt 0.1538 0.0784
vt 0.1538 0.1961
vt 0.3077 0.7451
vt 0.3077 0.9412
vt 0.7179 0.3725
vt 0.2308 0.0784
vt 0.3077 0.0784
vt 0.1538 0
vt 0.5513 0.2157
vt 0.3086 0.9216
vt 0.0769 0.9412
vt 0 0.9412
vt 0.0128 0.9608
vt 0.7179 -0
vt 0.2308 0.9412
vt 0.3234 0.7995
vt 0.3234 0.6907
vt -0 0.549
vt 0.0769 0.4314
vt 0.4053 0.6493
vt 0.3782 0.6664
vt 0.3511 0.6493
vt 0.3399 0.6078
vt 0.3511 0.5664
vt 0.3234 0.976
vt 0.3234 0.8671
vt 0.3077 0.549
vt 0.3393 0.5049
vt 0.5647 0.1569
vt 0.572 0.1298
vt 1 0.3725
vt 0.0769 0.3137
vt 0.1538 0.3137
vt 0.2308 0.1961
vt 0.2308 0.3137
vt 0.4744 0.2451
vt 0.1538 0.9412
vt 0.0128 0.549
vt 0.6987 -0
vt 1 0
vt 0.4744 0.8824
vt 0.4872 0.9608
vt 0.4744 0.9608
vt 0.4141 0.849
vt 0.4231 0.8433
vt 0.3127 0.488
vt 0.3237 0.481
vt 0.3348 0.5218
vt 0.5149 0.8659
vt 0.5192 0.8631
vt 0.5236 0.8659
vt 0.5254 0.8725
vt 0.5236 0.8792
vt 0.5192 0.882
vt 0.5149 0.8792
vt 0.5131 0.8725
vt 0.4356 0.9804
vt 0.4319 0.9939
vt 0.4231 0.9995
vt 0.4106 0.9804
vt 0.4142 0.9669
vt 0.4381 0.6339
vt 0.4417 0.6471
vt 0.4381 0.6603
vt 0.4295 0.6657
vt 0.4208 0.6602
vt 0.4551 0.1855
vt 0.4364 0.1569
vt 0.4419 0.1366
vt 0.4551 0.1282
vt 0.4739 0.1569
vt 1 0.5882
vt 0.3141 0.4804
vt 0.5192 0.549
vt 0.3526 0.4804
vt 0.2821 0.549
vt 0.2308 0.7059
vt 0.0256 0.9216
vt 0.2564 0.8824
vt 0.859 0.8039
vt 0 0.3137
vt 1 0.8039
vt 0.3588 0.157
vt 0.3514 0.1843
vt 0.3336 0.1955
vt 0.3157 0.1843
vt 0.3084 0.157
vt 0.3157 0.1297
vt 0.3336 0.1184
vt 0.3514 0.1297
vt 0.6603 -0
vt 0.0128 1
vt 0.0256 0.6275
vt 0.5128 0.2843
vt 0.3077 0.3137
vt 0.4487 0.4804
vt 0.1282 0.8627
vt 0.391 0.4804
vt 0.4359 0.8431
vt 0.6154 0.1176
vt 0.5321 0.1471
vt 0.4423 0.3137
vt 0.3333 0.4804
vt 0.4872 0.8824
vt 0 0.4314
vt 0.5256 0.8824
vt 0.5256 0.9608
vt 0.5192 0.9608
vt 0.5192 0.8824
vt 0.5128 0.8824
vt 0.5513 0.8824
vt 0.5577 0.9608
vt 0.5513 0.9608
vt 0.4295 0.5882
vt 0.4295 0.549
vt 0.5449 0.9608
vt 0.5449 0.8824
vt 0.3654 0.3431
vt 0.4551 0.7059
vt 0.4615 0.6863
vt 0.4615 0.7059
vt 0.4744 0.6667
vt 0.4808 0.6863
vt 0.4744 0.6863
vt 0.4679 0.6667
vt 0.4615 0.6667
vt 0.4872 0.6863
vt 0.4936 0.7059
vt 0.4872 0.7059
vt 0.4808 0.7059
vt 0.4808 0.6667
vt 0.4872 0.6471
vt 0.4872 0.6667
vt 0.4679 0.7059
vt 0.4679 0.6863
vt 0.4423 0.6667
vt 0.4423 0.6863
vt 0.4744 0.7059
vt 0.4936 0.6667
vt 0.4487 0.7059
vt 0.4551 0.6667
vt 0.4423 0.7059
vt 0.4872 0.6275
vt 0.4936 0.6471
vt 0.5641 0.8824
vt 0.5577 0.8824
vt 0.4423 0.6275
vt 0.4423 0.6471
vt 0.4231 0.9608
vt 0.4103 0.8824
vt 0.4231 0.8824
vt 0.6667 0.1176
vt 0.6667 0.1961
vt 0.5321 0.8824
vt 0.5385 0.9608
vt 0.5321 0.9608
vt 0.4167 0.6275
vt 0.4167 0.5882
vt 0.5064 0.5882
vt 0.5192 0.6275
vt 0.5064 0.6275
vt 0.4295 0.6275
vt 0.4423 0.5882
vt 0.4936 0.6275
vt 0.4936 0.5882
vt 0.4808 0.5882
vt 0.4679 0.8235
vt 0.4679 0.8431
vt 0.5321 0.1275
vt 0.3462 0.3137
vt 0.5641 0.8235
vt 0.3846 0.1961
vt 0.4231 0.3431
vt 0.4423 0.3431
vt 0.4295 0.3725
vt 0.3269 0.3431
vt 0.4103 0.3725
vt 0.4038 0.3431
vt 0.391 0.3725
vt 0.3846 0.3431
vt 0.3462 0.3431
vt 0.3718 0.3725
vt 0.5449 0.2157
vt 0.3526 0.3725
vt 0.4231 0.1961
vt 0.3077 0.1961
vt 0.3333 0.3725
vt 0.3141 0.3725
vt 0.3077 0.3431
vt 0.4487 0.3725
vt 0.3462 0.1961
vt 0.5641 0.2157
vt 0.5641 0.1471
vt 0.3077 0.8431
vt 0.4038 0.1961
vt 0.3269 0.1961
vt 0.5449 0.1176
vt 0.4744 0.1176
vt 0.4872 0.1275
vt 0.391 0.549
vt 0.5641 0.8431
vt 0.4936 0.2451
vt 0.4872 0.1863
vt 0.4615 0.9608
vt 0.4615 0.8824
vt 0.5385 0.8824
vt 0.4359 0.9608
vt 0.4487 0.8824
vt 0.4359 0.8824
vt 0.4487 0.9608
vt 0.5064 0.549
vt 0.4167 0.549
vt 0.3397 0.549
vt 0.391 0.5
vt 0.7179 0.1176
vt 0.4872 0.2451
vt 0.5128 0.1176
vt 0.4936 0.5
vt 0.4615 0.1275
vt 0.4487 0.1176
vt 0.4615 0.1176
vt 0.3077 0.8235
vt 0.5 0.1176
vt 0.4487 0.1275
vt 0.4359 0.1275
vt 0.2308 0
vt 0.2308 0.4314
vt 0.3077 0.4314
vt 0.3077 0.1961
vt 0.3077 0.3137
vt 0.6154 0.2941
vt 0.4103 0.4804
vt 0.4295 0.4804
vt 0.5641 0.1961
vt 0.5769 0.4804
vt 0.5897 0.3431
vt 0.3718 0.4804
vt 0.4615 0.1961
vt 0.4936 0.6863
vt 0.5641 0.9608
vt 0.4103 0.9608
vt 0.5192 0.5882
vt 0.4744 0.3235
vt 0.5385 0.2157
s 1
f 949/1 10/2 892/3
f 968/4 938/5 988/6
f 482/7 477/8 474/9
f 385/10 380/11 381/12
f 366/11 365/13 367/12
f 332/14 327/15 328/16
f 747/17 744/18 745/19
f 888/20 28/21 889/22
f 13/23 890/24 891/25
f 377/26 378/27 379/13
f 534/28 525/29 526/30
f 444/31 454/32 455/33
f 29/23 895/24 896/25
f 328/34 325/35 326/36
f 20/23 898/24 899/25
f 36/23 900/24 901/25
f 111/37 117/38 119/39
f 902/20 34/21 903/22
f 110/40 118/41 117/42
f 905/20 21/21 887/22
f 121/43 114/44 113/45
f 273/46 272/47 274/48
f 418/49 432/50 433/51
f 371/10 366/11 367/12
f 515/52 508/53 507/54
f 910/20 15/21 893/22
f 911/55 29/23 907/56
f 913/57 20/23 912/56
f 914/55 36/23 908/56
f 915/55 13/23 916/56
f 617/58 606/59 614/60
f 958/61 928/62 987/6
f 270/63 261/64 269/65
f 771/66 762/67 763/60
f 920/68 41/69 919/70
f 922/68 43/69 921/70
f 923/71 44/69 924/70
f 926/68 42/69 925/70
f 1001/72 1000/73 1028/74
f 648/75 645/76 650/77
f 71/78 73/79 75/80
f 313/81 310/9 309/82
f 57/83 59/84 61/85
f 86/86 89/87 87/88
f 102/89 106/90 108/91
f 603/92 626/93 627/94
f 424/95 433/96 427/97
f 1003/72 997/73 1027/74
f 205/98 204/99 203/100
f 393/101 388/102 389/103
f 341/104 333/105 334/106
f 345/107 336/54 337/53
f 122/108 120/109 119/110
f 369/111 367/12 361/112
f 275/113 271/114 269/65
f 265/115 262/116 261/64
f 120/117 123/118 118/119
f 807/120 800/121 799/122
f 118/41 124/123 117/42
f 117/38 122/124 119/39
f 753/125 750/126 751/127
f 503/128 499/129 498/130
f 533/131 524/132 525/29
f 391/133 392/134 393/101
f 784/135 776/136 775/137
f 571/138 564/139 565/140
f 138/108 136/109 135/110
f 296/116 291/115 292/141
f 485/142 476/143 477/8
f 257/144 260/145 259/146
f 136/117 139/118 134/119
f 210/147 199/148 198/149
f 134/41 140/123 133/42
f 133/38 138/124 135/39
f 653/97 143/150 155/151
f 683/51 666/152 667/150
f 652/153 155/151 157/131
f 349/154 710/155 708/156
f 676/153 661/151 660/131
f 168/157 167/158 165/159
f 194/160 187/161 186/162
f 242/59 247/163 250/164
f 159/165 141/166 162/167
f 703/150 710/50 702/152
f 705/131 712/168 704/151
f 233/169 236/170 235/171
f 311/172 310/173 312/174
f 363/26 364/27 365/13
f 706/28 715/175 714/176
f 706/28 713/177 705/131
f 151/178 654/176 153/28
f 666/179 681/156 665/154
f 669/76 668/180 674/77
f 712/97 703/150 704/151
f 707/178 709/181 715/182
f 145/179 657/156 147/154
f 383/111 381/12 375/112
f 370/183 359/184 366/11
f 743/185 725/186 724/187
f 423/188 426/177 428/189
f 473/190 471/191 472/192
f 2/193 1001/194 1010/73
f 342/195 340/196 333/105
f 470/197 469/198 468/199
f 449/200 451/168 450/153
f 387/201 390/202 391/133
f 348/203 339/204 340/196
f 379/13 374/205 375/206
f 287/207 281/174 283/208
f 272/47 267/209 274/210
f 271/114 276/211 265/212
f 270/63 273/213 263/214
f 269/65 261/64 275/215
f 273/213 264/216 263/214
f 262/116 275/215 261/64
f 276/211 266/217 265/212
f 268/218 274/210 267/209
f 977/219 593/220 935/221
f 305/222 290/218 292/217
f 529/223 527/224 520/225
f 283/173 282/172 284/226
f 892/227 12/228 893/22
f 307/229 304/213 303/230
f 614/60 605/231 613/232
f 559/191 553/233 555/234
f 295/235 289/209 291/212
f 297/47 300/65 298/114
f 785/236 773/237 772/238
f 566/239 561/240 562/241
f 925/70 22/242 909/243
f 500/244 496/245 497/246
f 6/193 999/194 997/73
f 897/227 30/228 903/22
f 974/62 944/61 984/6
f 298/114 289/209 297/47
f 300/65 295/64 302/215
f 299/63 304/213 293/214
f 298/114 301/211 291/212
f 297/47 289/209 303/210
f 301/211 292/217 291/212
f 290/218 303/210 289/209
f 304/213 294/216 293/214
f 296/116 302/215 295/64
f 277/247 262/116 264/216
f 280/222 268/218 266/217
f 815/122 790/248 791/120
f 805/249 798/250 797/251
f 318/14 321/15 322/16
f 316/252 311/172 312/174
f 137/43 130/44 129/45
f 322/34 323/35 324/36
f 208/253 203/100 202/254
f 324/36 319/255 320/256
f 320/256 317/257 318/14
f 314/207 312/174 310/208
f 422/258 428/176 429/175
f 420/31 430/32 431/33
f 113/259 116/260 115/261
f 656/181 151/178 149/223
f 147/154 656/32 149/223
f 701/223 708/33 709/32
f 308/247 296/116 294/216
f 665/154 680/32 664/223
f 659/51 145/152 143/150
f 663/178 680/181 679/182
f 100/262 96/263 94/264
f 206/265 197/266 204/99
f 408/179 399/267 400/268
f 365/13 360/205 361/206
f 972/5 942/62 983/6
f 359/15 363/26 366/184
f 904/227 24/228 889/22
f 361/206 367/112 365/13
f 951/1 23/2 904/3
f 964/5 934/4 982/6
f 464/192 458/269 459/270
f 343/271 334/106 335/272
f 739/18 736/17 737/273
f 445/274 453/182 454/181
f 346/275 337/276 338/277
f 382/278 375/112 373/279
f 373/15 377/26 380/184
f 112/280 119/110 120/109
f 375/206 381/112 379/13
f 894/227 18/228 887/22
f 41/69 918/243 919/70
f 917/243 28/281 908/282
f 384/183 373/184 380/11
f 402/131 394/132 395/29
f 131/283 140/123 139/284
f 4/193 989/194 1002/73
f 109/285 111/37 112/280
f 462/197 461/198 460/199
f 918/243 15/281 907/282
f 465/190 459/286 461/287
f 268/141 263/214 264/216
f 441/150 411/288 410/289
f 419/290 431/156 432/155
f 473/190 467/286 469/287
f 124/291 114/292 122/124
f 912/282 22/293 906/243
f 115/261 121/294 113/259
f 484/295 490/296 483/297
f 950/1 19/2 894/3
f 442/49 456/50 457/51
f 436/28 416/29 415/30
f 387/201 393/101 389/103
f 488/298 491/299 485/300
f 502/301 497/302 499/129
f 916/282 14/293 909/243
f 486/303 481/304 478/305
f 126/40 134/41 133/42
f 531/150 522/288 523/289
f 924/70 35/242 906/243
f 495/306 493/307 496/308
f 129/259 132/260 131/261
f 538/200 548/168 549/153
f 484/295 485/142 491/300
f 492/309 495/306 494/310
f 497/311 496/308 493/307
f 804/27 797/251 796/312
f 494/310 499/302 497/313
f 496/308 498/245 495/306
f 501/314 498/130 496/245
f 272/47 265/212 267/209
f 733/126 730/125 731/315
f 128/280 135/110 136/109
f 677/97 667/150 661/151
f 169/316 166/317 170/318
f 541/290 544/156 546/155
f 43/69 917/243 921/70
f 556/192 555/269 554/270
f 286/319 284/82 282/172
f 539/95 547/96 548/97
f 131/261 137/294 129/259
f 566/239 569/320 565/321
f 565/322 560/323 561/324
f 125/285 127/37 128/280
f 727/325 740/185 741/326
f 125/285 136/117 134/119
f 564/327 568/139 567/328
f 573/329 565/320 569/330
f 293/214 290/141 289/115
f 781/331 777/332 776/333
f 294/334 292/217 290/218
f 301/335 300/65 302/113
f 487/336 478/305 479/337
f 278/229 273/213 274/230
f 519/338 504/105 511/196
f 812/312 795/339 788/27
f 490/340 482/341 483/297
f 306/342 301/343 302/215
f 157/131 654/189 652/177
f 663/178 678/176 662/28
f 8/193 990/194 993/73
f 832/344 823/345 824/346
f 214/347 218/348 220/349
f 315/319 309/82 311/172
f 48/350 56/351 52/79
f 359/15 362/352 363/26
f 818/353 793/354 794/355
f 720/180 719/77 716/75
f 45/356 74/357 70/358
f 8/193 7/359 990/194
f 486/303 489/360 481/304
f 1011/361 1017/362 947/363
f 1028/74 881/364 1015/365
f 402/131 403/151 394/132
f 895/366 28/21 888/20
f 891/25 949/1 13/23
f 888/20 889/22 24/228
f 898/366 38/367 21/21
f 301/335 298/114 300/65
f 896/25 951/1 29/23
f 980/6 932/61 582/368
f 899/25 950/1 20/23
f 901/25 952/1 36/23
f 701/223 349/154 708/33
f 900/366 34/21 902/20
f 1011/369 1/207 2/370
f 898/366 21/21 905/20
f 993/73 990/194 882/371
f 318/14 317/257 321/15
f 501/314 503/128 498/130
f 488/298 493/372 491/299
f 48/350 60/373 56/351
f 890/366 15/21 910/20
f 1004/374 29/23 911/55
f 913/57 1008/374 38/375
f 1006/374 36/23 914/55
f 1020/374 13/23 915/55
f 920/68 43/376 1004/374
f 981/6 940/5 869/377
f 157/131 153/28 654/189
f 484/295 491/299 490/296
f 920/68 1009/378 37/367
f 922/68 1019/378 39/367
f 1005/378 44/69 923/71
f 926/68 1007/378 38/367
f 66/84 64/85 45/356
f 45/356 76/379 74/357
f 74/357 72/380 70/358
f 70/358 68/83 66/84
f 2/381 1026/382 1011/361
f 84/383 77/384 78/385
f 78/385 79/386 80/387
f 80/387 81/86 82/87
f 82/87 83/88 80/387
f 22/146 887/22 21/21
f 53/380 61/85 47/356
f 46/350 63/388 67/389
f 63/388 65/373 67/389
f 888/20 24/228 26/390
f 69/351 71/78 75/80
f 52/79 50/80 48/350
f 48/350 62/388 60/373
f 60/373 58/389 56/351
f 56/351 54/78 52/79
f 366/11 363/26 365/13
f 720/180 716/75 722/391
f 47/356 49/379 53/380
f 49/379 51/357 53/380
f 11/381 891/25 890/24
f 55/358 57/83 61/85
f 87/88 88/383 90/384
f 90/384 92/385 87/88
f 92/385 91/386 87/88
f 91/386 85/387 87/88
f 85/387 86/86 87/88
f 94/264 93/91 100/262
f 100/262 99/89 98/392
f 98/392 97/393 96/263
f 96/263 95/90 94/264
f 863/394 988/6 967/61
f 108/91 101/262 102/89
f 102/89 103/392 104/393
f 104/393 105/263 106/90
f 106/90 107/264 108/91
f 967/61 937/62 861/368
f 147/154 657/33 656/32
f 1012/395 1015/365 986/396
f 985/396 1025/397 1018/398
f 473/190 472/192 467/286
f 286/319 288/81 284/82
f 495/306 492/309 493/307
f 122/108 121/43 120/109
f 573/329 571/399 565/320
f 565/322 564/327 560/323
f 531/150 530/152 522/288
f 120/117 121/294 123/118
f 997/73 999/194 883/371
f 118/41 123/284 124/123
f 117/38 124/291 122/124
f 296/116 295/64 291/115
f 913/57 954/400 1008/374
f 1028/74 1000/73 881/364
f 967/61 988/6 937/62
f 17/401 950/1 899/25
f 1007/378 956/400 915/55
f 138/108 137/43 136/109
f 683/51 682/50 666/152
f 818/353 817/402 793/354
f 441/150 440/152 411/288
f 136/117 137/294 139/118
f 482/7 485/142 477/8
f 134/41 139/284 140/123
f 133/38 140/291 138/124
f 1009/378 911/55 37/367
f 981/6 869/377 939/62
f 586/394 979/6 959/4
f 1005/378 954/400 913/57
f 959/4 929/5 587/403
f 596/404 621/405 620/406
f 166/317 172/407 170/318
f 172/407 171/408 170/318
f 16/381 899/25 898/24
f 169/316 168/157 165/159
f 650/77 651/409 649/410
f 649/410 648/75 650/77
f 919/70 27/293 43/376
f 647/391 646/411 645/76
f 645/76 644/180 650/77
f 148/412 146/413 144/414
f 144/414 158/415 156/416
f 156/416 154/417 152/418
f 152/418 150/419 148/412
f 577/394 987/6 957/4
f 141/166 142/420 162/167
f 142/420 164/421 162/167
f 164/421 163/422 162/167
f 162/167 161/423 160/424
f 160/424 159/165 162/167
f 1004/374 953/400 920/68
f 16/390 898/366 905/20
f 235/171 232/425 229/426
f 229/426 230/427 235/171
f 230/427 231/428 235/171
f 231/428 234/429 235/171
f 234/429 233/169 235/171
f 220/349 213/430 214/347
f 214/347 215/431 216/432
f 216/432 217/433 218/348
f 218/348 219/434 220/349
f 148/412 144/414 156/416
f 222/349 221/430 228/347
f 228/347 227/431 226/432
f 226/432 225/433 224/348
f 224/348 223/434 222/349
f 343/271 341/104 334/106
f 878/394 978/219 975/435
f 581/403 980/6 961/5
f 1007/378 915/55 38/367
f 979/6 585/377 929/5
f 674/77 675/409 673/410
f 673/410 672/75 674/77
f 672/75 671/391 674/77
f 671/391 670/411 674/77
f 670/411 669/76 674/77
f 1020/374 956/400 926/68
f 17/401 899/25 16/381
f 969/61 939/62 868/368
f 442/49 443/436 456/50
f 268/141 267/115 263/214
f 923/71 954/400 1005/378
f 677/97 683/96 667/150
f 733/126 732/127 730/125
f 126/40 125/285 134/41
f 131/261 139/118 137/294
f 781/331 780/437 777/332
f 805/249 806/248 798/250
f 538/200 539/438 548/168
f 926/68 956/400 1007/378
f 306/342 305/439 301/343
f 911/55 953/400 1004/374
f 273/213 277/247 264/216
f 262/116 279/342 275/215
f 276/211 280/222 266/217
f 268/218 278/440 274/210
f 965/61 935/221 595/368
f 36/23 897/3 35/441
f 257/144 258/442 260/145
f 210/147 209/163 199/148
f 890/366 37/367 15/21
f 214/347 216/432 218/348
f 959/4 979/6 929/5
f 913/57 34/21 1005/378
f 653/97 659/96 143/150
f 878/394 976/61 978/219
f 978/219 946/221 877/220
f 965/61 977/219 935/221
f 43/376 39/375 1004/374
f 985/396 1014/365 1025/397
f 832/344 831/337 823/345
f 1002/73 989/194 881/371
f 377/26 376/352 378/27
f 534/28 533/131 525/29
f 301/211 305/222 292/217
f 290/218 307/440 303/210
f 304/213 308/247 294/216
f 296/116 306/342 302/215
f 978/219 877/220 945/443
f 594/394 977/219 965/61
f 1008/374 954/400 923/71
f 707/178 701/223 709/181
f 1027/74 886/364 1014/365
f 1013/395 1014/365 985/396
f 385/10 384/183 380/11
f 997/73 883/371 886/364
f 993/73 882/371 885/364
f 1002/73 881/371 947/364
f 1010/73 884/371 948/364
f 948/444 1027/74 1013/395
f 33/401 952/1 901/25
f 659/51 658/50 145/152
f 884/444 1028/74 1012/395
f 870/394 981/6 969/61
f 11/390 890/366 910/20
f 961/5 931/62 583/377
f 975/435 945/443 876/445
f 33/401 901/25 31/381
f 980/6 582/368 931/62
f 1006/374 955/400 922/68
f 355/446 357/447 356/448
f 356/448 350/449 351/450
f 351/450 352/451 353/452
f 353/452 354/453 355/446
f 13/23 892/3 14/441
f 986/396 1023/397 995/398
f 964/5 591/403 934/4
f 464/192 463/191 458/269
f 747/17 746/273 744/18
f 308/247 306/342 296/116
f 1026/382 985/396 1017/362
f 986/396 1015/365 1023/397
f 125/285 128/280 136/117
f 465/190 464/192 459/286
f 387/201 391/133 393/101
f 812/312 819/454 795/339
f 53/380 55/358 61/85
f 912/282 20/455 22/293
f 124/291 116/361 114/292
f 131/283 132/456 140/123
f 950/1 17/401 19/2
f 502/301 500/457 497/302
f 916/282 13/455 14/293
f 346/275 345/458 337/276
f 419/290 420/459 431/156
f 863/394 968/4 988/6
f 129/259 130/460 132/260
f 206/265 207/164 197/266
f 272/47 271/114 265/212
f 541/290 543/459 544/156
f 169/316 165/159 166/317
f 422/258 423/461 428/176
f 100/262 98/392 96/263
f 727/325 726/462 740/185
f 125/285 126/40 127/37
f 316/252 315/319 311/172
f 293/214 294/216 290/141
f 278/229 277/247 273/213
f 487/336 486/303 478/305
f 897/227 32/439 30/228
f 280/222 278/440 268/218
f 408/179 407/154 399/267
f 948/444 1003/72 1027/74
f 307/229 308/247 304/213
f 359/15 358/463 362/352
f 900/366 40/367 34/21
f 895/366 39/367 28/21
f 379/13 378/27 374/205
f 663/178 679/175 678/176
f 1006/374 40/375 36/23
f 914/55 955/400 1006/374
f 807/120 808/9 800/121
f 494/310 486/303 492/309
f 486/303 487/336 492/309
f 493/307 488/464 489/340
f 489/340 497/311 493/307
f 341/104 342/195 333/105
f 345/107 344/465 336/54
f 1004/374 39/375 29/23
f 892/227 10/439 12/228
f 1012/395 1028/74 1015/365
f 1019/378 914/55 39/367
f 722/391 723/411 721/76
f 721/76 720/180 722/391
f 26/381 896/25 895/24
f 719/77 718/409 717/410
f 717/410 716/75 719/77
f 424/95 418/466 433/96
f 586/394 960/61 979/6
f 919/70 918/243 27/293
f 596/404 602/467 621/405
f 676/153 677/168 661/151
f 652/153 653/168 155/151
f 926/68 41/376 1020/374
f 979/6 930/62 585/377
f 705/131 713/153 712/168
f 969/61 981/6 939/62
f 1027/74 997/73 886/364
f 594/394 966/435 977/219
f 706/28 714/189 713/177
f 581/403 962/4 980/6
f 1009/378 953/400 911/55
f 614/60 606/59 605/231
f 2/381 1010/468 1026/382
f 13/23 949/1 892/3
f 743/185 742/326 725/186
f 1010/73 1001/194 884/371
f 31/390 900/366 902/20
f 1008/374 923/71 38/375
f 637/469 636/470 634/471
f 342/195 348/203 340/196
f 635/472 634/471 632/93
f 145/179 658/155 657/156
f 332/14 331/257 327/15
f 13/23 37/375 890/24
f 273/46 270/63 272/47
f 148/412 156/416 152/418
f 635/472 632/93 633/473
f 45/356 70/358 66/84
f 637/469 634/471 635/472
f 629/474 630/475 628/476
f 612/236 607/477 615/478
f 326/36 329/255 330/256
f 629/474 642/479 643/480
f 685/195 697/481 691/203
f 179/482 188/483 180/484
f 190/485 183/486 182/487
f 204/99 189/488 196/489
f 184/490 177/491 176/492
f 175/493 184/490 176/492
f 191/494 200/495 192/496
f 182/487 173/497 181/498
f 193/499 186/162 185/500
f 187/161 196/489 188/483
f 182/487 175/493 174/501
f 200/495 193/502 192/496
f 193/502 184/490 192/496
f 183/486 192/496 184/490
f 660/131 678/189 676/177
f 190/485 181/498 189/488
f 188/483 173/497 180/484
f 186/162 179/482 178/503
f 202/254 195/504 194/160
f 193/499 202/254 194/160
f 177/505 186/162 178/503
f 203/100 196/489 195/504
f 190/485 199/148 191/494
f 197/266 190/485 189/488
f 212/506 201/507 200/495
f 633/508 630/475 631/509
f 211/510 202/254 201/511
f 207/164 198/149 197/266
f 625/512 601/513 600/514
f 361/206 358/515 359/516
f 209/163 200/495 199/148
f 639/517 640/518 638/519
f 241/477 246/520 238/521
f 237/522 246/523 245/524
f 241/477 252/510 249/525
f 244/526 251/98 252/510
f 248/527 237/522 245/524
f 242/59 251/98 243/231
f 240/528 247/163 239/529
f 196/489 181/498 188/483
f 970/4 940/5 981/6
f 724/187 754/530 755/531
f 267/209 261/235 263/334
f 962/4 932/61 980/6
f 489/340 480/532 481/344
f 745/19 742/326 743/185
f 109/285 120/117 118/119
f 731/315 728/531 729/530
f 115/283 124/123 123/284
f 425/200 427/168 426/153
f 253/144 256/145 255/146
f 465/190 463/191 464/192
f 347/533 338/277 339/204
f 344/465 335/272 336/54
f 407/154 398/225 399/267
f 380/11 379/13 381/12
f 409/150 400/288 401/289
f 373/15 376/352 377/26
f 404/28 395/29 396/30
f 755/531 752/315 753/125
f 735/534 732/127 733/126
f 406/223 397/224 398/225
f 389/103 386/36 387/201
f 513/535 505/106 504/105
f 228/347 224/348 222/349
f 403/151 401/289 394/132
f 405/178 396/30 397/224
f 813/251 788/27 789/249
f 368/278 361/112 359/279
f 698/536 696/537 694/538
f 700/539 688/458 689/275
f 694/540 693/541 698/536
f 688/107 696/537 687/465
f 694/542 692/543 693/541
f 690/533 697/481 699/544
f 692/543 694/545 697/481
f 279/342 276/343 275/215
f 440/179 412/267 411/268
f 330/256 331/257 332/14
f 490/296 493/372 492/546
f 266/217 264/334 262/235
f 696/537 686/271 687/465
f 697/481 694/547 699/544
f 435/151 410/289 417/132
f 463/191 460/233 458/234
f 434/131 417/132 416/29
f 514/548 507/54 506/272
f 437/178 415/30 414/224
f 439/154 413/225 412/267
f 421/274 429/182 430/181
f 516/549 509/277 508/276
f 497/313 486/303 494/310
f 471/191 468/233 466/234
f 269/65 272/47 270/63
f 686/271 693/541 684/104
f 699/544 694/550 700/539
f 84/383 80/387 83/88
f 694/551 695/552 700/539
f 693/541 685/195 684/104
f 695/102 694/553 696/537
f 690/533 700/539 689/275
f 518/554 511/196 510/204
f 487/555 485/300 482/556
f 749/557 746/273 747/17
f 472/192 466/269 467/270
f 356/448 353/452 355/446
f 811/339 796/312 803/454
f 443/290 455/156 456/155
f 448/95 457/96 451/97
f 446/258 452/176 453/175
f 438/223 414/224 413/225
f 814/250 789/249 790/248
f 512/558 506/272 505/106
f 288/81 283/9 284/82
f 543/31 545/32 544/33
f 517/559 510/204 509/277
f 960/61 930/62 979/6
f 140/291 130/292 138/124
f 530/179 521/267 522/268
f 488/464 479/337 480/532
f 127/37 133/38 135/39
f 483/297 474/346 475/560
f 542/274 551/182 545/181
f 851/561 836/562 843/240
f 528/154 520/225 521/267
f 535/178 526/30 527/224
f 767/137 758/563 759/135
f 492/546 482/340 490/296
f 532/151 523/289 524/132
f 484/295 475/560 476/143
f 751/127 748/534 749/564
f 536/258 550/176 551/175
f 769/332 760/331 761/437
f 499/129 495/306 498/130
f 729/530 726/462 727/325
f 540/49 546/50 547/51
f 570/565 568/566 564/139
f 764/238 763/60 756/236
f 559/191 557/190 558/197
f 603/92 621/405 602/467
f 596/404 622/567 597/568
f 643/480 640/518 641/569
f 67/389 75/80 46/350
f 637/469 638/519 636/470
f 600/514 624/570 625/512
f 598/571 624/570 599/572
f 597/568 623/573 598/571
f 285/252 282/172 281/174
f 447/188 450/177 452/189
f 619/574 608/528 616/67
f 558/197 552/198 553/199
f 765/237 756/236 757/575
f 618/437 611/522 619/574
f 557/190 554/286 552/287
f 613/232 604/526 612/236
f 806/248 799/122 798/250
f 615/478 610/521 618/575
f 616/67 609/529 617/58
f 564/327 563/562 560/323
f 787/60 772/238 779/66
f 768/136 759/135 760/576
f 567/328 562/241 563/562
f 782/563 775/137 774/577
f 808/578 801/402 800/377
f 766/577 757/575 758/563
f 303/48 299/63 297/47
f 572/579 569/330 568/566
f 810/355 803/454 802/353
f 783/575 774/577 773/237
f 568/566 566/239 567/328
f 809/354 802/353 801/402
f 846/580 839/337 838/304
f 786/67 779/66 778/581
f 780/437 778/581 777/332
f 770/581 761/437 762/67
f 537/188 549/177 550/189
f 834/582 825/583 826/584
f 737/273 734/557 735/585
f 741/326 738/19 739/18
f 835/240 826/584 827/561
f 976/61 946/221 978/219
f 952/1 32/2 897/3
f 966/435 936/443 977/219
f 830/304 821/586 822/580
f 819/454 794/355 795/339
f 375/206 372/515 373/516
f 828/562 827/561 820/82
f 845/586 838/304 837/324
f 817/402 792/578 793/354
f 816/121 791/120 792/9
f 856/144 859/145 857/442
f 849/583 842/582 841/587
f 831/337 822/580 823/345
f 300/65 293/214 295/64
f 829/324 820/82 821/586
f 847/345 840/344 839/337
f 833/587 824/172 825/583
f 850/584 843/240 842/582
f 848/172 841/587 840/588
f 852/144 855/145 853/442
f 915/55 21/21 38/367
f 999/361 1016/362 883/363
f 996/369 3/207 4/370
f 911/55 15/21 37/367
f 34/21 913/57 912/56
f 1022/382 986/396 1016/362
f 949/1 9/401 10/2
f 914/55 28/21 39/367
f 984/6 874/394 943/4
f 27/293 907/282 29/455
f 26/390 895/366 888/20
f 886/364 991/589 994/369
f 41/376 909/243 14/293
f 885/364 998/589 996/369
f 34/281 906/243 35/242
f 973/5 943/4 875/403
f 1010/468 1013/395 1026/382
f 9/401 891/25 11/381
f 947/364 1000/589 1011/369
f 1014/365 994/369 1025/397
f 1017/362 1018/398 1024/590
f 35/293 908/282 36/455
f 25/401 896/25 26/381
f 1015/365 989/369 1023/397
f 873/377 984/6 973/5
f 921/70 35/293 44/376
f 20/23 894/3 22/441
f 948/364 992/589 1003/369
f 14/146 893/22 15/21
f 21/281 909/243 22/242
f 42/376 906/243 22/293
f 35/146 903/22 34/21
f 947/363 1024/590 1002/247
f 968/4 862/403 938/5
f 1002/247 996/591 4/390
f 1025/397 8/370 993/592
f 995/398 998/592 882/593
f 1024/590 885/593 996/591
f 1018/398 993/592 885/593
f 994/369 7/207 8/370
f 992/468 1012/395 1022/382
f 41/376 926/68 925/70
f 923/71 42/376 38/375
f 987/6 574/377 927/5
f 44/376 922/68 921/70
f 957/4 927/5 576/403
f 43/376 920/68 919/70
f 1016/362 995/398 1021/590
f 383/111 385/10 381/12
f 922/68 955/400 1019/378
f 1005/378 40/367 44/69
f 22/146 894/227 887/22
f 884/444 1001/72 1028/74
f 556/192 559/191 555/269
f 539/95 540/466 547/96
f 1020/374 37/375 13/23
f 924/70 44/69 35/242
f 918/243 14/242 15/281
f 436/28 434/131 416/29
f 43/69 27/242 917/243
f 920/68 953/400 1009/378
f 870/394 970/4 981/6
f 384/183 382/594 373/184
f 4/193 3/359 989/194
f 41/69 14/242 918/243
f 115/261 123/118 121/294
f 894/227 19/439 18/228
f 917/243 27/242 28/281
f 109/285 110/40 111/37
f 445/274 446/595 453/182
f 382/278 383/111 375/112
f 951/1 25/401 23/2
f 739/18 738/19 736/17
f 112/280 111/37 119/110
f 462/197 465/190 461/198
f 975/435 978/219 945/443
f 665/154 681/33 680/32
f 971/4 941/61 864/394
f 589/377 982/6 963/62
f 27/146 889/22 28/21
f 804/27 805/249 797/251
f 656/181 655/182 151/178
f 663/178 664/223 680/181
f 365/13 364/27 360/205
f 128/280 127/37 135/110
f 865/403 983/6 971/4
f 314/207 316/252 312/174
f 420/31 421/596 430/32
f 324/36 323/35 319/255
f 208/253 205/98 203/100
f 320/256 319/255 317/257
f 113/259 114/460 116/260
f 972/5 867/377 942/62
f 277/247 279/342 262/116
f 815/122 814/250 790/248
f 137/43 138/108 130/44
f 294/334 296/235 292/217
f 29/23 904/3 27/441
f 982/6 590/394 933/61
f 983/6 866/368 941/61
f 963/62 933/61 588/368
f 6/193 5/359 999/194
f 974/62 872/368 944/61
f 925/70 42/69 22/242
f 519/338 513/535 504/105
f 1021/590 882/593 990/591
f 566/239 565/321 561/240
f 500/244 501/314 496/245
f 298/114 291/212 289/209
f 322/34 321/597 323/35
f 904/227 23/439 24/228
f 44/376 40/375 1006/374
f 529/223 535/178 527/224
f 315/319 313/81 309/82
f 305/222 307/440 290/218
f 283/173 281/174 282/172
f 559/191 558/197 553/233
f 1011/361 1026/382 1017/362
f 348/203 347/533 339/204
f 287/207 285/252 281/174
f 485/142 484/295 476/143
f 1011/369 1000/589 1/207
f 391/133 390/598 392/134
f 387/201 386/599 390/202
f 977/219 936/443 593/220
f 295/235 293/334 289/209
f 265/115 266/141 262/116
f 753/125 752/315 750/126
f 784/135 781/576 776/136
f 915/55 956/400 1020/374
f 571/138 570/565 564/139
f 275/113 276/335 271/114
f 503/128 502/301 499/129
f 369/111 371/10 367/12
f 533/131 532/151 524/132
f 297/47 299/63 300/65
f 349/154 702/179 710/155
f 603/92 601/473 626/93
f 1003/72 6/193 997/73
f 31/381 901/25 900/24
f 1003/369 5/207 6/370
f 5/381 1022/382 999/361
f 988/6 860/377 937/62
f 910/20 12/228 11/390
f 902/20 30/228 31/390
f 905/20 18/228 16/390
f 1023/397 3/370 998/592
f 34/21 40/367 1005/378
f 991/247 990/591 7/390
f 883/363 1021/590 991/247
f 194/160 195/504 187/161
f 313/81 314/121 310/9
f 242/59 239/529 247/163
f 577/394 958/61 987/6
f 703/150 711/51 710/50
f 648/75 647/391 645/76
f 102/89 104/393 106/90
f 205/98 206/265 204/99
f 311/172 309/226 310/173
f 922/68 39/367 43/69
f 363/26 362/352 364/27
f 41/376 37/375 1020/374
f 706/28 707/178 715/175
f 920/68 37/367 41/69
f 926/68 38/367 42/69
f 36/23 952/1 897/3
f 151/178 655/175 654/176
f 270/63 263/214 261/64
f 666/179 682/155 681/156
f 1013/395 1027/74 1014/365
f 712/97 711/96 703/150
f 958/61 575/368 928/62
f 771/66 770/581 762/67
f 1001/72 1/193 1000/73
f 393/101 392/155 388/102
f 785/236 783/575 773/237
f 1019/378 955/400 914/55
f 961/5 980/6 931/62
f 370/183 368/594 359/184
f 121/43 122/108 114/44
f 418/49 419/436 432/50
f 922/68 44/376 1006/374
f 423/188 425/600 426/177
f 111/37 110/40 117/38
f 473/190 470/197 471/191
f 1026/382 1013/395 985/396
f 2/193 1/359 1001/194
f 36/23 40/375 900/24
f 110/40 109/285 118/41
f 371/10 370/183 366/11
f 470/197 473/190 469/198
f 29/23 39/375 895/24
f 449/200 448/438 451/168
f 444/31 445/596 454/32
f 328/34 327/597 325/35
f 20/23 38/375 898/24
f 515/52 516/601 508/53
f 913/57 38/375 20/23
f 617/58 609/529 606/59
f 629/474 631/509 630/475
f 844/82 837/324 836/562
f 612/236 604/526 607/477
f 326/36 325/35 329/255
f 629/474 628/476 642/479
f 685/195 692/543 697/481
f 179/482 187/161 188/483
f 190/485 191/494 183/486
f 204/99 197/266 189/488
f 184/490 185/602 177/491
f 175/493 183/486 184/490
f 191/494 199/148 200/495
f 182/487 174/501 173/497
f 193/499 194/160 186/162
f 187/161 195/504 196/489
f 182/487 183/486 175/493
f 200/495 201/507 193/502
f 193/502 185/602 184/490
f 183/486 191/494 192/496
f 660/131 662/28 678/189
f 190/485 182/487 181/498
f 188/483 181/498 173/497
f 186/162 187/161 179/482
f 202/254 203/100 195/504
f 193/499 201/511 202/254
f 177/505 185/500 186/162
f 203/100 204/99 196/489
f 190/485 198/149 199/148
f 197/266 198/149 190/485
f 212/506 211/527 201/507
f 633/508 632/603 630/475
f 211/510 208/253 202/254
f 207/164 210/147 198/149
f 625/512 626/604 601/513
f 361/206 360/205 358/515
f 209/163 212/506 200/495
f 639/517 641/569 640/518
f 241/477 249/525 246/520
f 237/522 238/605 246/523
f 241/477 244/526 252/510
f 244/526 243/231 251/98
f 248/527 240/528 237/522
f 242/59 250/164 251/98
f 240/528 248/527 247/163
f 196/489 189/488 181/498
f 970/4 871/403 940/5
f 724/187 725/186 754/530
f 267/209 265/212 261/235
f 962/4 579/394 932/61
f 489/340 488/464 480/532
f 745/19 744/18 742/326
f 109/285 112/280 120/117
f 731/315 730/125 728/531
f 115/283 116/456 124/123
f 425/200 424/438 427/168
f 253/144 254/442 256/145
f 465/190 462/197 463/191
f 347/533 346/275 338/277
f 344/465 343/271 335/272
f 407/154 406/223 398/225
f 380/11 377/26 379/13
f 409/150 408/152 400/288
f 373/15 372/463 376/352
f 404/28 402/131 395/29
f 755/531 754/530 752/315
f 735/534 734/564 732/127
f 406/223 405/178 397/224
f 389/103 388/606 386/36
f 513/535 512/558 505/106
f 228/347 226/432 224/348
f 403/151 409/150 401/289
f 405/178 404/28 396/30
f 813/251 812/312 788/27
f 368/278 369/111 361/112
f 700/539 695/552 688/458
f 688/107 695/102 696/537
f 690/533 691/203 697/481
f 279/342 280/439 276/343
f 440/179 439/154 412/267
f 330/256 329/255 331/257
f 490/296 491/299 493/372
f 266/217 268/218 264/334
f 696/537 698/536 686/271
f 435/151 441/150 410/289
f 463/191 462/197 460/233
f 434/131 435/151 417/132
f 514/548 515/52 507/54
f 437/178 436/28 415/30
f 439/154 438/223 413/225
f 421/274 422/595 429/182
f 516/549 517/559 509/277
f 497/313 489/360 486/303
f 471/191 470/197 468/233
f 269/65 271/114 272/47
f 686/271 698/536 693/541
f 84/383 78/385 80/387
f 693/541 692/543 685/195
f 690/533 699/544 700/539
f 518/554 519/338 511/196
f 487/555 488/298 485/300
f 749/557 748/585 746/273
f 472/192 471/191 466/269
f 356/448 351/450 353/452
f 811/339 804/27 796/312
f 443/290 444/459 455/156
f 448/95 442/466 457/96
f 446/258 447/461 452/176
f 438/223 437/178 414/224
f 814/250 813/251 789/249
f 512/558 514/548 506/272
f 288/81 287/121 283/9
f 543/31 542/596 545/32
f 517/559 518/554 510/204
f 960/61 584/368 930/62
f 140/291 132/361 130/292
f 530/179 528/154 521/267
f 488/464 487/336 479/337
f 127/37 126/40 133/38
f 483/297 482/341 474/346
f 542/274 536/595 551/182
f 851/561 844/82 836/562
f 528/154 529/223 520/225
f 535/178 534/28 526/30
f 767/137 766/577 758/563
f 492/546 487/607 482/340
f 532/151 531/150 523/289
f 484/295 483/297 475/560
f 751/127 750/126 748/534
f 536/258 537/461 550/176
f 769/332 768/333 760/331
f 499/129 494/310 495/306
f 729/530 728/531 726/462
f 540/49 541/436 546/50
f 570/565 572/579 568/566
f 764/238 771/66 763/60
f 559/191 556/192 557/190
f 603/92 627/94 621/405
f 596/404 620/406 622/567
f 643/480 642/479 640/518
f 67/389 69/351 75/80
f 637/469 639/517 638/519
f 600/514 599/572 624/570
f 598/571 623/573 624/570
f 597/568 622/567 623/573
f 285/252 286/319 282/172
f 447/188 449/600 450/177
f 619/574 611/522 608/528
f 558/197 557/190 552/198
f 765/237 764/238 756/236
f 618/437 610/605 611/522
f 557/190 556/192 554/286
f 613/232 605/231 604/526
f 806/248 807/120 799/122
f 615/478 607/477 610/521
f 616/67 608/528 609/529
f 564/327 567/328 563/562
f 787/60 785/236 772/238
f 768/136 767/137 759/135
f 567/328 566/239 562/241
f 782/563 784/135 775/137
f 808/578 809/354 801/402
f 766/577 765/237 757/575
f 303/48 304/46 299/63
f 572/579 573/329 569/330
f 810/355 811/339 803/454
f 783/575 782/563 774/577
f 568/566 569/330 566/239
f 809/354 810/355 802/353
f 846/580 847/345 839/337
f 786/67 787/60 779/66
f 780/437 786/67 778/581
f 770/581 769/332 761/437
f 537/188 538/600 549/177
f 834/582 833/587 825/583
f 737/273 736/17 734/557
f 741/326 740/185 738/19
f 835/240 834/582 826/584
f 976/61 879/368 946/221
f 952/1 33/401 32/2
f 966/435 592/445 936/443
f 830/304 829/324 821/586
f 819/454 818/353 794/355
f 375/206 374/205 372/515
f 828/562 835/240 827/561
f 845/586 846/580 838/304
f 817/402 816/377 792/578
f 816/121 815/122 791/120
f 856/144 858/146 859/145
f 849/583 850/584 842/582
f 831/337 830/304 822/580
f 300/65 299/63 293/214
f 829/324 828/562 820/82
f 847/345 848/346 840/344
f 833/587 832/588 824/172
f 850/584 851/561 843/240
f 848/172 849/583 841/587
f 852/144 854/146 855/145
f 915/55 916/56 21/21
f 999/361 1022/382 1016/362
f 996/369 998/589 3/207
f 911/55 907/56 15/21
f 1022/382 1012/395 986/396
f 914/55 908/56 28/21
f 984/6 944/61 874/394
f 27/293 918/243 907/282
f 886/364 883/371 991/589
f 41/376 925/70 909/243
f 885/364 882/371 998/589
f 34/281 912/282 906/243
f 973/5 984/6 943/4
f 1010/468 948/444 1013/395
f 9/401 949/1 891/25
f 947/364 881/371 1000/589
f 1014/365 886/364 994/369
f 1017/362 985/396 1018/398
f 35/293 917/243 908/282
f 25/401 951/1 896/25
f 1015/365 881/364 989/369
f 873/377 974/62 984/6
f 921/70 917/243 35/293
f 20/23 950/1 894/3
f 948/364 884/371 992/589
f 14/146 892/227 893/22
f 21/281 916/282 909/243
f 42/376 924/70 906/243
f 35/146 897/227 903/22
f 947/363 1017/362 1024/590
f 1002/247 1024/590 996/591
f 1025/397 994/369 8/370
f 995/398 1023/397 998/592
f 1024/590 1018/398 885/593
f 1018/398 1025/397 993/592
f 994/369 991/589 7/207
f 992/468 884/444 1012/395
f 923/71 924/70 42/376
f 987/6 928/62 574/377
f 957/4 987/6 927/5
f 1016/362 986/396 995/398
f 971/4 983/6 941/61
f 589/377 964/5 982/6
f 27/146 904/227 889/22
f 865/403 972/5 983/6
f 29/23 951/1 904/3
f 982/6 934/4 590/394
f 983/6 942/62 866/368
f 963/62 982/6 933/61
f 1021/590 995/398 882/593
f 1003/369 992/589 5/207
f 5/381 992/468 1022/382
f 988/6 938/5 860/377
f 910/20 893/22 12/228
f 902/20 903/22 30/228
f 905/20 887/22 18/228
f 1023/397 989/369 3/370
f 991/247 1021/590 990/591
f 883/363 1016/362 1021/590
f 844/82 845/586 837/324
l 880 578
l 580 880
