o Computer
v -2.5 0 3.5
v 2.5 0 3.5
v -2.5 -0 -3.5
v 2.5 -0 -3.5
v 3.5 0 2.5
v 3.5 -0 -2.5
v -3.5 0 2.5
v -3.5 -0 -2.5
v -2.5 1 3.5
v 2.5 1 3.5
v -2.5 1 -3.5
v 2.5 1 -3.5
v 3.5 1 2.5
v 3.5 1 -2.5
v -3.5 1 2.5
v -3.5 1 -2.5
v -2.25 0 3
v 2.25 0 3
v -2.25 1 3
v 2.25 1 3
v -2.25 -0 -3
v 2.25 -0 -3
v -2.25 1 -3
v 2.25 1 -3
v 3 0 2.25
v 3 -0 -2.25
v 3 1 2.25
v 3 1 -2.25
v -3 0 2.25
v -3 -0 -2.25
v -3 1 2.25
v -3 1 -2.25
v 0 0.5 -2
v -0.7654 0.5 -1.8478
v -1.4142 0.5 -1.4142
v -1.8478 0.5 -0.7654
v -2 0.5 -0
v -1.8478 0.5 0.7654
v -1.4142 0.5 1.4142
v -0.7654 0.5 1.8478
v 0 0.5 2
v 0.7654 0.5 1.8478
v 1.4142 0.5 1.4142
v 1.8478 0.5 0.7654
v 2 0.5 -0
v 1.8478 0.5 -0.7654
v 1.4142 0.5 -1.4142
v 0.7654 0.5 -1.8478
v 0 2.5 -2.25
v -0.861 2.5 -2.0787
v -1.591 2.5 -1.591
v -2.0787 2.5 -0.861
v -2.25 2.5 -0
v -2.0787 2.5 0.861
v -1.591 2.5 1.591
v -0.861 2.5 2.0787
v 0 2.5 2.25
v 0.861 2.5 2.0787
v 1.591 2.5 1.591
v 2.0787 2.5 0.861
v 2.25 2.5 -0
v 2.0787 2.5 -0.861
v 1.591 2.5 -1.591
v 0.861 2.5 -2.0787
v 0.861 1 -2.0787
v 1.591 1 -1.591
v 2.0787 1 -0.861
v 2.25 1 -0
v 2.0787 1 0.861
v 1.591 1 1.591
v 0.861 1 2.0787
v 0 1 2.25
v -0.861 1 2.0787
v -1.591 1 1.591
v -2.0787 1 0.861
v -2.25 1 -0
v -2.0787 1 -0.861
v -1.591 1 -1.591
v -0.861 1 -2.0787
v 0 1 -2.25
v 0 3 -2
v -0.7654 3 -1.8478
v -1.4142 3 -1.4142
v -1.8478 3 -0.7654
v -2 3 -0
v -1.8478 3 0.7654
v -1.4142 3 1.4142
v -0.7654 3 1.8478
v 0 3 2
v 0.7654 3 1.8478
v 1.4142 3 1.4142
v 1.8478 3 0.7654
v 2 3 -0
v 1.8478 3 -0.7654
v 1.4142 3 -1.4142
v 0.7654 3 -1.8478
v 0.861 7.5 -2.0787
v 1.591 7.5 -1.591
v 2.0787 7.5 -0.861
v 2.25 7.5 -0
v 2.0787 7.5 0.861
v 1.591 7.5 1.591
v 0.861 7.5 2.0787
v 0 7.5 2.25
v -0.861 7.5 2.0787
v -1.591 7.5 1.591
v -2.0787 7.5 0.861
v -2.25 7.5 -0
v -2.0787 7.5 -0.861
v -1.591 7.5 -1.591
v -0.861 7.5 -2.0787
v 0 7.5 -2.25
v 0.7654 6 -1.8478
v 1.4142 6 -1.4142
v 1.8478 6 -0.7654
v 2 6 -0
v 1.8478 6 0.7654
v 1.4142 6 1.4142
v 0.7654 6 1.8478
v 0 6 2
v -0.7654 6 1.8478
v -1.4142 6 1.4142
v -1.8478 6 0.7654
v -2 6 -0
v -1.8478 6 -0.7654
v -1.4142 6 -1.4142
v -0.7654 6 -1.8478
v 0 6 -2
v 0.861 6.5 -2.0787
v 1.591 6.5 -1.591
v 2.0787 6.5 -0.861
v 2.25 6.5 -0
v 2.0787 6.5 0.861
v 1.591 6.5 1.591
v 0.861 6.5 2.0787
v 0 6.5 2.25
v -0.861 6.5 2.0787
v -1.591 6.5 1.591
v -2.0787 6.5 0.861
v -2.25 6.5 -0
v -2.0787 6.5 -0.861
v -1.591 6.5 -1.591
v -0.861 6.5 -2.0787
v 0 6.5 -2.25
v 0 8 -2
v -0.7654 8 -1.8478
v -1.4142 8 -1.4142
v -1.8478 8 -0.7654
v -2 8 -0
v -1.8478 8 0.7654
v -1.4142 8 1.4142
v -0.7654 8 1.8478
v 0 8 2
v 0.7654 8 1.8478
v 1.4142 8 1.4142
v 1.8478 8 0.7654
v 2 8 -0
v 1.8478 8 -0.7654
v 1.4142 8 -1.4142
v 0.7654 8 -1.8478
v 0 8 -1.75
v -0.6697 8 -1.6168
v -1.2374 8 -1.2374
v -1.6168 8 -0.6697
v -1.75 8 -0
v -1.6168 8 0.6697
v -1.2374 8 1.2374
v -0.6697 8 1.6168
v 0 8 1.75
v 0.6697 8 1.6168
v 1.2374 8 1.2374
v 1.6168 8 0.6697
v 1.75 8 -0
v 1.6168 8 -0.6697
v 1.2374 8 -1.2374
v 0.6697 8 -1.6168
v 0 7.5 -1.75
v -0.6697 7.5 -1.6168
v -1.2374 7.5 -1.2374
v -1.6168 7.5 -0.6697
v -1.75 7.5 -0
v -1.6168 7.5 0.6697
v -1.2374 7.5 1.2374
v -0.6697 7.5 1.6168
v 0 7.5 1.75
v 0.6697 7.5 1.6168
v 1.2374 7.5 1.2374
v 1.6168 7.5 0.6697
v 1.75 7.5 -0
v 1.6168 7.5 -0.6697
v 1.2374 7.5 -1.2374
v 0.6697 7.5 -1.6168
v 1.5 5.5 3.5
v 1.5 6 3.5
v 1.5 5.5 3
v 1.5 6 3
v -1.5 5.5 3.5
v -1.5 6 3.5
v -1.5 5.5 3
v -1.5 6 3
v 2.5 1 3
v 2 1 3
v 2.5 1 3.5
v 2 1 3.5
v 2 5 3.5
v 2.5 5 3.5
v 2 5 3
v 2.5 5 3
v -2 5 3
v -2.5 5 3
v -2 5 3.5
v -2.5 5 3.5
v -2.5 1 3.5
v -2 1 3.5
v -2.5 1 3
v -2 1 3
v 1 6 3
v -1 6 3
v 1 6 3.5
v -1 6 3.5
v -1 7.25 1.875
v 1 7.25 1.875
v -1 6.75 1.875
v 1 6.75 1.875
v 1 6.75 2.75
v -1 6.75 2.75
v 1 7.25 2.75
v -1 7.25 2.75
v -1 6.5 3.5
v 1 6.5 3.5
v -1 6.5 3
v 1 6.5 3
v -1.5 0 8.5
v 1.5 0 8.5
v -1.5 0 3.5
v 1.5 0 3.5
v -1.5 1 3.5
v -1.5 1 8.5
v 1.5 1 8.5
v 1.5 1 3.5
v -1.25 1 3.5
v -1.25 1 8.5
v 1.25 1 8.5
v 1.25 1 3.5
v -1.25 2.5 3.5
v -1.25 2.5 8.5
v 1.25 2.5 8.5
v 1.25 2.5 3.5
v -1.25 1 8.375
v 1.25 1 8.375
v -1.25 2.5 8.375
v 1.25 2.5 8.375
v -1.375 1 8.375
v -1.375 2.5 8.375
v -1.25 2.625 8.375
v 1.25 2.625 8.375
v 1.375 1 8.375
v 1.375 2.5 8.375
v -1.25 2.5 8.125
v 1.25 2.5 8.125
v -1.25 1 8.125
v 1.25 1 8.125
v -1.375 1 8.125
v -1.375 2.5 8.125
v -1.25 2.625 8.125
v 1.25 2.625 8.125
v 1.375 1 8.125
v 1.375 2.5 8.125
v -0.75 2.5 7.5
v 0.75 2.5 7.5
v -0.75 2.5 4.5
v 0.75 2.5 4.5
v -0.75 3 4.5
v -0.75 3 7.5
v 0.75 3 7.5
v 0.75 3 4.5
v 1.25 2.125 6.75
v 1.25 1.375 6.75
v 1.25 2.125 5.25
v 1.25 1.375 5.25
v 1.375 2.125 5.25
v 1.375 2.125 6.75
v 1.375 1.375 6.75
v 1.375 1.375 5.25
v -1.375 2.125 6.75
v -1.375 1.375 6.75
v -1.375 2.125 5.25
v -1.375 1.375 5.25
v -1.25 2.125 5.25
v -1.25 2.125 6.75
v -1.25 1.375 6.75
v -1.25 1.375 5.25
v -1 7.5 1
v 1 7.5 1
v -1 7.5 -1
v 1 7.5 -1
v -1 7.75 -1
v -1 7.75 1
v 1 7.75 1
v 1 7.75 -1
v -0.5 7.75 0.625
v 0.5 7.75 0.625
v -0.5 7.75 0.375
v 0.5 7.75 0.375
v -0.5 8 0.375
v -0.5 8 0.625
v 0.5 8 0.625
v 0.5 8 0.375
v 0.5 8 2
v -0.5 8.25 0.625
v 0.5 8.25 0.625
v -0.5 8 2
v -0.5 8.25 2
v 0.5 8.25 2
v -0.5 6.5 3.75
v 0.5 6.5 3.75
v -0.5 6.5 3.5
v 0.5 6.5 3.5
v -0.5 3.5 3.75
v 0.5 3.5 3.75
v -0.5 3.5 3.5
v 0.5 3.5 3.5
v -0.5 3.25 4
v 0.5 3.25 4
v -0.5 3 4
v 0.5 3 4
v -0.5 3.25 7
v 0.5 3.25 7
v -0.5 3 7.25
v 0.5 3 7.25
v -0.5 7.75 -0
v 0.5 7.75 -0
v -0.5 7.75 -0.75
v 0.5 7.75 -0.75
v -0.5 8.25 -0.75
v -0.5 8.25 -0
v 0.5 8.25 -0
v 0.5 8.25 -0.75
v 0.5 8.125 -0.0625
v 0.5 7.875 -0.0625
v 0.5 8.125 -0.3125
v 0.5 7.875 -0.3125
v 1.125 8.125 -0.3125
v 1.125 8.125 -0.0625
v 1.125 7.875 -0.0625
v 1.125 7.875 -0.3125
v 0.5 7.875 -0.4375
v 0.5 8.125 -0.4375
v 1.375 7.875 -0.0625
v 1.375 7.875 -0.3125
v 1.125 7.5 -0.0625
v 1.125 7.5 -0.3125
v 1.375 7.5 -0.0625
v 1.375 7.5 -0.3125
v 0.5 8.125 -0.6875
v 0.5 7.875 -0.6875
v 0.75 8.25 -0.6875
v 0.75 8.25 -0.4375
v 0.75 8 -0.4375
v 0.75 8 -0.6875
v 1.75 8.25 -0.6875
v 1.75 8.25 -0.4375
v 1.75 8 -0.4375
v 1.75 8 -0.6875
v 2 8.25 -0.4375
v 2 8 -0.4375
v 1.75 8.25 1.3125
v 1.75 8 1.3125
v 2 8.25 1.3125
v 2 8 1.3125
v 1.75 8 1.5625
v 2 8 1.5625
v 1.75 2.875 1.3125
v 2 2.875 1.3125
v 1.75 2.875 1.5625
v 2 2.875 1.5625
v 1.75 2.625 1.5625
v 2 2.625 1.5625
v 0.75 2.875 3.5625
v 1 2.875 3.5625
v 0.75 2.625 3.5625
v 1 2.625 3.5625
v 0.75 2.875 6.8125
v 1 2.875 6.5625
v 0.75 2.625 6.8125
v 1 2.625 6.5625
v 1.75 2.875 2.0625
v 2 2.875 2.0625
v 1.75 2.625 2.0625
v 2 2.625 2.0625
v 0.4375 7.875 -0.75
v 0.1875 7.875 -0.75
v 0.1875 8.125 -0.75
v 0.4375 8.125 -0.75
v 0.1875 7.875 -1.25
v 0.4375 7.875 -1.25
v 0.1875 8.125 -1.25
v 0.4375 8.125 -1.25
v 0.1875 7.875 -1.5
v 0.4375 7.875 -1.5
v 0.1875 7.5 -1.25
v 0.4375 7.5 -1.25
v 0.1875 7.5 -1.5
v 0.4375 7.5 -1.5
v -2.0787 1.5 -0.861
v -2.0787 2 -0.861
v -1.591 2 1.591
v -1.591 1.5 1.591
v 0 2 2.25
v 0 1.5 2.25
v 2.0787 1.5 -0.861
v 2.0787 2 -0.861
v 0.861 1.5 -2.0787
v 0.861 2 -2.0787
v -0.861 2 -2.0787
v -0.861 1.5 -2.0787
v 2.25 2 -0
v 2.25 1.5 -0
v 2.0787 1.5 0.861
v 2.0787 2 0.861
v -0.861 2 2.0787
v -0.861 1.5 2.0787
v -2.25 2 -0
v -2.25 1.5 -0
v 1.591 2 -1.591
v 1.591 1.5 -1.591
v -2.0787 2 0.861
v -2.0787 1.5 0.861
v 0.861 1.5 2.0787
v 0.861 2 2.0787
v 1.591 2 1.591
v 1.591 1.5 1.591
v 0 2 -2.25
v 0 1.5 -2.25
v -1.591 1.5 -1.591
v -1.591 2 -1.591
v -1.25 1 7.875
v 1.25 1 7.875
v -1.25 2.5 7.875
v 1.25 2.5 7.875
v -1.375 1 7.875
v -1.375 2.5 7.875
v -1.25 2.625 7.875
v 1.25 2.625 7.875
v 1.375 1 7.875
v 1.375 2.5 7.875
v -1.25 2.5 7.625
v 1.25 2.5 7.625
v -1.25 1 7.625
v 1.25 1 7.625
v -1.375 1 7.625
v -1.375 2.5 7.625
v -1.25 2.625 7.625
v 1.25 2.625 7.625
v 1.375 1 7.625
v 1.375 2.5 7.625
v -1.25 1 7.375
v 1.25 1 7.375
v -1.25 2.5 7.375
v 1.25 2.5 7.375
v -1.375 1 7.375
v -1.375 2.5 7.375
v -1.25 2.625 7.375
v 1.25 2.625 7.375
v 1.375 1 7.375
v 1.375 2.5 7.375
v -1.25 2.5 7.125
v 1.25 2.5 7.125
v -1.25 1 7.125
v 1.25 1 7.125
v -1.375 1 7.125
v -1.375 2.5 7.125
v -1.25 2.625 7.125
v 1.25 2.625 7.125
v 1.375 1 7.125
v 1.375 2.5 7.125
v -1.25 1 4.875
v 1.25 1 4.875
v -1.25 2.5 4.875
v 1.25 2.5 4.875
v -1.375 1 4.875
v -1.375 2.5 4.875
v -1.25 2.625 4.875
v 1.25 2.625 4.875
v 1.375 1 4.875
v 1.375 2.5 4.875
v -1.25 2.5 4.625
v 1.25 2.5 4.625
v -1.25 1 4.625
v 1.25 1 4.625
v -1.375 1 4.625
v -1.375 2.5 4.625
v -1.25 2.625 4.625
v 1.25 2.625 4.625
v 1.375 1 4.625
v 1.375 2.5 4.625
v -1.25 1 4.375
v 1.25 1 4.375
v -1.25 2.5 4.375
v 1.25 2.5 4.375
v -1.375 1 4.375
v -1.375 2.5 4.375
v -1.25 2.625 4.375
v 1.25 2.625 4.375
v 1.375 1 4.375
v 1.375 2.5 4.375
v -1.25 2.5 4.125
v 1.25 2.5 4.125
v -1.25 1 4.125
v 1.25 1 4.125
v -1.375 1 4.125
v -1.375 2.5 4.125
v -1.25 2.625 4.125
v 1.25 2.625 4.125
v 1.375 1 4.125
v 1.375 2.5 4.125
v -1.25 1 3.875
v 1.25 1 3.875
v -1.25 2.5 3.875
v 1.25 2.5 3.875
v -1.375 1 3.875
v -1.375 2.5 3.875
v -1.25 2.625 3.875
v 1.25 2.625 3.875
v 1.375 1 3.875
v 1.375 2.5 3.875
v -1.25 2.5 3.625
v 1.25 2.5 3.625
v -1.25 1 3.625
v 1.25 1 3.625
v -1.375 1 3.625
v -1.375 2.5 3.625
v -1.25 2.625 3.625
v 1.25 2.625 3.625
v 1.375 1 3.625
v 1.375 2.5 3.625
v -1.5 5.5 -3.5
v -1.5 6 -3.5
v -1.5 5.5 -3
v -1.5 6 -3
v 1.5 5.5 -3.5
v 1.5 6 -3.5
v 1.5 5.5 -3
v 1.5 6 -3
v -2.5 1 -3
v -2 1 -3
v -2.5 1 -3.5
v -2 1 -3.5
v -2 5 -3.5
v -2.5 5 -3.5
v -2 5 -3
v -2.5 5 -3
v 2 5 -3
v 2.5 5 -3
v 2 5 -3.5
v 2.5 5 -3.5
v 2.5 1 -3.5
v 2 1 -3.5
v 2.5 1 -3
v 2 1 -3
v -1 6 -3
v 1 6 -3
v -1 6 -3.5
v 1 6 -3.5
v 1 7.25 -1.875
v -1 7.25 -1.875
v 1 6.75 -1.875
v -1 6.75 -1.875
v -1 6.75 -2.75
v 1 6.75 -2.75
v -1 7.25 -2.75
v 1 7.25 -2.75
v 1 6.5 -3.5
v -1 6.5 -3.5
v 1 6.5 -3
v -1 6.5 -3
v 3.5 5.5 -1.5
v 3.5 6 -1.5
v 3 5.5 -1.5
v 3 6 -1.5
v 3.5 5.5 1.5
v 3.5 6 1.5
v 3 5.5 1.5
v 3 6 1.5
v 3 1 -2.5
v 3 1 -2
v 3.5 1 -2.5
v 3.5 1 -2
v 3.5 5 -2
v 3.5 5 -2.5
v 3 5 -2
v 3 5 -2.5
v 3 5 2
v 3 5 2.5
v 3.5 5 2
v 3.5 5 2.5
v 3.5 1 2.5
v 3.5 1 2
v 3 1 2.5
v 3 1 2
v 3 6 -1
v 3 6 1
v 3.5 6 -1
v 3.5 6 1
v 1.875 7.25 1
v 1.875 7.25 -1
v 1.875 6.75 1
v 1.875 6.75 -1
v 2.75 6.75 -1
v 2.75 6.75 1
v 2.75 7.25 -1
v 2.75 7.25 1
v 3.5 6.5 1
v 3.5 6.5 -1
v 3 6.5 1
v 3 6.5 -1
v -3.5 5.5 1.5
v -3.5 6 1.5
v -3 5.5 1.5
v -3 6 1.5
v -3.5 5.5 -1.5
v -3.5 6 -1.5
v -3 5.5 -1.5
v -3 6 -1.5
v -3 1 2.5
v -3 1 2
v -3.5 1 2.5
v -3.5 1 2
v -3.5 5 2
v -3.5 5 2.5
v -3 5 2
v -3 5 2.5
v -3 5 -2
v -3 5 -2.5
v -3.5 5 -2
v -3.5 5 -2.5
v -3.5 1 -2.5
v -3.5 1 -2
v -3 1 -2.5
v -3 1 -2
v -3 6 1
v -3 6 -1
v -3.5 6 1
v -3.5 6 -1
v -1.875 7.25 -1
v -1.875 7.25 1
v -1.875 6.75 -1
v -1.875 6.75 1
v -2.75 6.75 1
v -2.75 6.75 -1
v -2.75 7.25 1
v -2.75 7.25 -1
v -3.5 6.5 -1
v -3.5 6.5 1
v -3 6.5 -1
v -3 6.5 1
v -0.5 7.875 -0.4375
v -0.5 8.125 -0.4375
v -0.5 8.125 -0.6875
v -0.5 7.875 -0.6875
v -0.75 8.25 -0.6875
v -0.75 8.25 -0.4375
v -0.75 8 -0.4375
v -0.75 8 -0.6875
v -1.75 8.25 -0.6875
v -1.75 8.25 -0.4375
v -1.75 8 -0.4375
v -1.75 8 -0.6875
v -2 8.25 -0.4375
v -2 8 -0.4375
v -1.75 8.25 1.3125
v -1.75 8 1.3125
v -2 8.25 1.3125
v -2 8 1.3125
v -1.75 8 1.5625
v -2 8 1.5625
v -1.75 2.875 1.3125
v -2 2.875 1.3125
v -1.75 2.875 1.5625
v -2 2.875 1.5625
v -1.75 2.625 1.5625
v -2 2.625 1.5625
v -0.75 2.875 3.5625
v -1 2.875 3.5625
v -0.75 2.625 3.5625
v -1 2.625 3.5625
v -0.75 2.875 6.8125
v -1 2.875 6.5625
v -0.75 2.625 6.8125
v -1 2.625 6.5625
v -1.75 2.875 2.0625
v -2 2.875 2.0625
v -1.75 2.625 2.0625
v -2 2.625 2.0625
v 0 0 3.5
v 0 1 3.5
v 0 0 3
v 3 0 0
v 0.875 7.5 0.875
v 0.875 7.5 -0.875
v 0 5.5 3.5
v 2.5 3 3
v -2 3 3
v 0 6.75 2.75
v -1.5 0 6
v 0 0 8.5
v -1.25 1 6
v -1.25 1.75 3.5
v 0 1 3.5
v -1.25 1.75 8.375
v 1.375 1.75 8.375
v -0.75 3 6
v 1.375 2.125 6
v -1 7.75 -0
v -0.5 7.375 2.875
v -1.375 1.75 7.875
v -1.25 1.75 7.375
v 1.375 1.75 7.375
v -1.375 1.75 4.875
v -1.25 1.75 4.375
v 1.375 1.75 4.375
v -1.375 1.75 3.875
v 0 5.5 -3.5
v -2.5 3 -3
v 2 3 -3
v -0 6.75 -2.75
v 3.5 5.5 -0
v 3 3 -2.5
v 3 3 2
v 2.75 6.75 -0
v -3.5 5.5 -0
v -3 3 2.5
v -3 3 -2
v -2.75 6.75 -0
v -0.7071 0.5 -1.7071
v 0.7071 0.5 -1.7071
v 0.7071 0.5 1.7071
v 0.8084 7.5 1.2098
v 0.8084 7.5 -1.2098
v -0.875 7.5 -0.875
v -0.6187 7.5 -0.2563
v 0 6 3
v 0 2.625 8.125
v 0 3 4.5
v -1.25 2.125 6
v 0 7.75 -1
v 0 2.625 7.125
v 0 2.625 4.125
v 0 6 -3
v 3 6 -0
v -3 6 -0
v 0 4.5 2
v 0 4.5 -2
v 0 6 3.5
v 2 3 3
v -2.5 3 3
v 1.5 0 6
v 0 1 8.5
v -1.25 1.75 8.5
v 1.25 1.75 8.375
v 0 3 7.5
v 0 7.75 1
v 0.5 7.375 2.75
v 0.5 7.375 2.875
v 1.75 8.25 0.4375
v 2 5.4375 1.3125
v 1.25 1.75 7.375
v 1.25 1.75 4.375
v 0 6 -3.5
v -2 3 -3
v 2.5 3 -3
v 3.5 6 -0
v 3 3 -2
v 3 3 2.5
v -3.5 6 -0
v -3 3 2
v -3 3 -2.5
v -1.75 8.25 0.4375
v -2 5.4375 1.3125
v 0.7654 4.5 1.8478
v -0.7654 4.5 -1.8478
v 0 -0 -3.5
v 0 1 -3.5
v -1.4142 0.5 -0
v 0 5.5 3
v 2.5 3 3.5
v -2 3 3.5
v 0 7.25 2.75
v 1.25 1 6
v 1.25 1.75 8.5
v 0 2.5 8.375
v -1.25 1.75 8.125
v 0 2.5 8.125
v -0.5 5 3.75
v -0.5 3.25 5.5
v 1.75 8 0.4375
v 1.75 5.4375 1.5625
v 0.875 2.875 5.0625
v 0.75 2.875 5.1875
v 1.25 2.875 2.8125
v 0 2.625 7.875
v 0 2.5 7.375
v -1.25 1.75 7.125
v 0 2.5 7.125
v 0 2.625 4.875
v 0 2.5 4.375
v -1.25 1.75 4.125
v 0 2.5 4.125
v 0 2.625 3.875
v 0 5.5 -3
v -2.5 3 -3.5
v 2 3 -3.5
v -0 7.25 -2.75
v 3 5.5 -0
v 3.5 3 -2.5
v 3.5 3 2
v 2.75 7.25 -0
v -3 5.5 -0
v -3.5 3 2.5
v -3.5 3 -2
v -2.75 7.25 -0
v -1.75 8 0.4375
v -1.75 5.4375 1.5625
v -0.875 2.875 5.0625
v -0.75 2.875 5.1875
v -1.25 2.875 2.8125
v 0 1 3
v 3 1 -0
v 1.7071 0.5 0.7071
v -1.7071 0.5 -0.7071
v 0 0.5 -1.4142
v 0.2929 0.5 -0.7071
v 0 6 3.5
v 0 0 3.5
v 1.375 1.75 8.125
v 0.75 3 6
v -1.25 1.375 6
v 1.375 1.375 6
v 1 7.75 -0
v -1.375 1.75 7.625
v 1.375 1.75 7.125
v -1.375 1.75 4.625
v 1.375 1.75 4.125
v -1.375 1.75 3.625
v 0 6 -3.5
v 3.5 6 -0
v -3.5 6 -0
v 1.4142 4.5 1.4142
v -1.4142 4.5 -1.4142
v 0 6 3
v 2 3 3.5
v -2.5 3 3.5
v 1.25 1.75 3.5
v 1.25 1.75 8.125
v 0.5 5 3.75
v 0.5 3.25 5.5
v 2 5.4375 1.5625
v 1 2.875 5.0625
v 1.25 1.75 7.125
v 1.25 1.75 4.125
v 0 6 -3
v -2 3 -3.5
v 2.5 3 -3.5
v 3 6 -0
v 3.5 3 -2
v 3.5 3 2.5
v -3 6 -0
v -3.5 3 2
v -3.5 3 -2.5
v -2 5.4375 1.5625
v -1 2.875 5.0625
v -1.5 2.875 2.8125
v 1.5 2.875 2.8125
v 1.8478 4.5 0.7654
v -1.8478 4.5 -0.7654
v 3.5 0 0
v 3.5 1 -0
v -3 0 0
v 0 -0 -3
v 0 6.5 3.5
v -1.5 1 6
v -1.25 2.5 6
v 0 2.5 3.5
v -1.375 1.75 8.375
v 0 2.5 7.5
v -0.75 2.5 6
v 1.25 2.125 6
v -1.375 2.125 6
v 0 7.5 1
v -1 7.5 -0
v 0.5 7.25 2.75
v -0.5 5 3.5
v -0.5 3.125 5.5
v -0.5 3 5.625
v 2 8.25 0.4375
v 0.75 2.625 5.1875
v 0.875 2.625 5.0625
v -1.25 1.75 7.875
v 1.375 1.75 7.875
v -1.375 1.75 7.375
v -1.25 1.75 4.875
v 1.375 1.75 4.875
v -1.375 1.75 4.375
v -1.25 1.75 3.875
v 1.375 1.75 3.875
v 0 6.5 -3.5
v 3.5 6.5 -0
v -3.5 6.5 -0
v -2 8.25 0.4375
v -0.875 2.625 5.0625
v -1.25 2.625 2.8125
v 1.7071 0.5 -0.7071
v -1.7071 0.5 0.7071
v 0 7.25 1.875
v 1.25 2.625 2.8125
v 0 2.625 7.625
v 0 2.625 4.625
v 0 2.625 3.625
v 0 7.25 -1.875
v 1.875 7.25 -0
v -1.875 7.25 -0
v -0.75 2.625 5.1875
v -2 4.5 -0
v 2 4.5 -0
v 0.75 2.5 6
v -1.375 1.375 6
v 1.25 1.375 6
v 1 7.5 -0
v 0.5 5 3.5
v 0.5 3 5.625
v 0.5 3.125 5.5
v 2 8 0.4375
v 1 2.625 5.0625
v 1.5 2.625 2.8125
v 1.25 1.75 7.875
v 1.25 1.75 4.875
v 1.25 1.75 3.875
v -2 8 0.4375
v -1 2.625 5.0625
v -1.5 2.625 2.8125
v 0 2.5 8.5
v -1.8478 4.5 0.7654
v 1.8478 4.5 -0.7654
v -3.5 0 0
v -3.5 1 -0
v 0 0.5 1.4142
v 0 6.5 3
v 1.5 1 6
v 0 2.625 8.375
v 0 2.5 4.5
v 0 7.5 -1
v 0 2.5 7.875
v -1.25 1.75 7.625
v 0 2.5 7.625
v 0 2.625 7.375
v 0 2.5 4.875
v -1.25 1.75 4.625
v 0 2.5 4.625
v 0 2.625 4.375
v 0 2.5 3.875
v -1.25 1.75 3.625
v 0 2.5 3.625
v 0 6.5 -3
v 3 6.5 -0
v -3 6.5 -0
v 0 1 -3
v -3 1 -0
v -0.7071 0.5 1.7071
v 0 6.75 1.875
v 1.25 2.5 6
v -1.375 1.75 8.125
v 1.375 1.75 7.625
v -1.375 1.75 7.125
v 1.375 1.75 4.625
v -1.375 1.75 4.125
v 1.375 1.75 3.625
v 0 6.75 -1.875
v 1.875 6.75 -0
v -1.875 6.75 -0
v -1.4142 4.5 1.4142
v 1.4142 4.5 -1.4142
v -0.5 7.25 2.875
v -0.5 7.25 2.75
v 1.75 5.4375 1.3125
v 1.25 1.75 7.625
v 1.25 1.75 4.625
v 1.25 1.75 3.625
v -1.75 5.4375 1.3125
v -0.7654 4.5 1.8478
v 0.7654 4.5 -1.8478
v 1.25 1.75 6
v 0 3 6
v 0 1.75 8.5
v 0 0 6
v 0 1.75 3.5
v -1.25 1.75 6
v 0 2.5 6
v 0 7.75 -0
v 0.1464 0.5 0.3536
v 1.25 0 3.5
v 1.25 1 3.5
v -1.5 0 7.25
v 1.125 0 3
v 3 -0 -1.125
v 3.5 5.5 -0.75
v -3.5 5.5 0.75
v -0.75 5.5 3.5
v 2.5 4 3
v -2 2 3
v 0.8536 0.5 -1.0607
v -1.5 0 4.75
v 0.75 0 8.5
v -1.25 1 7.25
v -0.75 3 6.75
v 3.5 2 -2
v -1.25 1.75 7.25
v 0.75 5.5 -3.5
v -2.5 4 -3
v 2 2 -3
v 3.5 5.5 0.75
v 3 4 -2.5
v 3 2 2
v -3.5 5.5 -0.75
v -3 4 2.5
v -3 2 -2
v -1.75 6.7188 1.3125
v -0.9281 7.5 0.4906
v 0.8125 2.875 4.3125
v -3.5 6 0.75
v -2 6.7188 1.3125
v 3 4 2.5
v 0.7654 3.75 1.8478
v -0.7654 3.75 -1.8478
v 0 5.25 2
v 0 3 6.75
v 0 5.25 -2
v 1.75 6.7188 1.3125
v -2 4 3
v 2 4 -3
v -0.75 6 3.5
v 2 4 3
v -2.5 2 3
v 1.5 0 4.75
v 2 4.1562 1.3125
v -3 6 0.75
v 3 6 -0.75
v 0.75 6 -3.5
v -2 4 -3
v 2.5 2 -3
v -1.125 -0 -3
v 3.5 6 0.75
v 3 4 -2
v 3 2 2.5
v -3.5 6 -0.75
v -3 4 2
v -3 2 -2.5
v 0.8125 2.625 4.3125
v -2 4.1562 1.3125
v 0 2.5 7.25
v -1.25 1 -3.5
v 1.5 0 7.25
v 1.75 6.7188 1.5625
v -2 4 3.5
v 0 0 7.25
v 0.7654 5.25 1.8478
v -0.7654 5.25 -1.8478
v 1.25 -0 -3.5
v 1.25 1 -3.5
v -0.75 3 5.25
v 3 2 -2.5
v 3 4 2
v -0.75 5.5 3
v 2.5 4 3.5
v -1.4142 3.75 1.4142
v -2 2 3.5
v 1.4142 3.75 -1.4142
v -0.7654 3.75 1.8478
v 1.25 1 4.75
v -0.5 4.25 3.75
v -1.125 1 -3
v -0.5 3.25 6.25
v 1.25 2.5 7.25
v 1.75 4.1562 1.5625
v 0.9375 2.875 5.8125
v 0.75 2.875 6
v -3.5 1 1.25
v 0.75 5.5 -3
v -2.5 4 -3.5
v 2 2 -3.5
v 2 4 -3.5
v 3 5.5 0.75
v 3.5 4 -2.5
v 3.5 2 2
v -3 5.5 -0.75
v -3.5 4 2.5
v -3.5 2 -2
v -2 2 -3.5
v -0.75 6 -3
v -1.25 1 4.75
v -1.75 4.1562 1.5625
v -0.9375 2.875 5.8125
v -0.75 2.875 6
v 1.125 1 3
v 3 1 -1.125
v 1.1464 0.5 -0.3536
v 0.75 0 3.5
v 0.75 3 5.25
v -3.5 2 2
v -2.5 4 3
v 2 6.7188 1.5625
v 0.75 0 6
v -0.75 6 -3.5
v -1.8478 3.75 -0.7654
v 0.75 6 3
v 3.5 4 2.5
v 1.4142 5.25 1.4142
v -1.4142 5.25 -1.4142
v -0.75 0 8.5
v -0.75 5.5 -3.5
v -0.75 6 3
v 2 4 3.5
v -2.5 2 3.5
v -0.5 5.75 3.5
v -0.75 0 3.5
v 0.75 2.625 4.375
v 0.5 4.25 3.75
v 0.5 3.25 6.25
v 0.75 5.5 3.5
v 2 4.1562 1.5625
v 1 2.875 5.8125
v 3 0 1.125
v -0.75 2.875 4.375
v 0.75 6 -3
v 2 3.75 -0
v -2 4 -3.5
v 2.5 2 -3.5
v 3 6 0.75
v 3.5 4 -2
v 3.5 2 2.5
v 3 5.5 -0.75
v -3 6 -0.75
v -3.5 4 2
v -3.5 2 -2.5
v -2 4.1562 1.5625
v -1 2.875 5.8125
v -1.125 0 3
v 2.5 4 -3
v 0 3.75 -2
v -2 2 -3
v 3 2 -2
v -0.75 0 6
v 1.8478 5.25 0.7654
v -1.8478 5.25 -0.7654
v 3.5 -0 -1.25
v 3.5 1 -1.25
v 2.5 2 3
v -3 -0 -1.125
v 1.125 -0 -3
v -1.5 1 7.25
v -1.25 2.5 7.25
v 0 3 5.25
v -0.75 2.5 5.25
v 1.25 1.75 7.25
v 1.25 1.75 4.75
v -0.5 4.25 3.5
v -0.5 3.1875 6.25
v -0.5 3 6.4375
v 0.75 2.625 6
v 0.9375 2.625 5.8125
v 0.7654 3.75 -1.8478
v -0.9375 2.625 5.8125
v -0.75 2.625 6
v -3 1 1.125
v 0 3.75 2
v -2 5.25 -0
v 2 5.25 -0
v -2.5 2 -3
v -3.5 0 1.25
v -1.8478 3.75 0.7654
v 0.75 2.5 5.25
v 1.8478 3.75 -0.7654
v 0.5 4.25 3.5
v -1 2.625 4.3125
v 0.5 3 6.4375
v 0.5 3.1875 6.25
v 1.5 1 7.25
v 1 2.625 5.8125
v -1.25 0 3.5
v -2 3.75 -0
v 0.75 2.5 6.75
v 0.5 5.75 3.5
v -0.75 2.625 4.375
v 0.5 3 4.8125
v -2.5 2 -3.5
v 2.5 4 -3.5
v -1 2.875 4.3125
v -1 2.625 5.8125
v -1.25 1 3.5
v 3.5 6 -0.75
v 0.5 3.0625 4.75
v 0.5 3.25 4.75
v 2 6.7188 1.3125
v 1 2.875 4.3125
v 2 2 3
v -0.5 5.75 3.75
v -0.3094 7.5 -1.0031
v -3.5 4 -2.5
v -2 6.7188 1.5625
v -1.8478 5.25 0.7654
v 0.5 5.75 3.75
v 1.8478 5.25 -0.7654
v -3.5 -0 -1.25
v 1.8478 3.75 0.7654
v -3.5 1 -1.25
v -1.4142 3.75 -1.4142
v -3 4 -2
v -3 2 2.5
v 1.5 1 4.75
v 2 2 3.5
v 0 0 4.75
v 3.5 0 1.25
v 3.5 1 1.25
v -3 0 1.125
v 1.4142 3.75 1.4142
v -2.5 4 3.5
v -1.5 1 4.75
v -1.25 2.5 4.75
v -0.75 2.5 6.75
v -0.5 3.0625 4.75
v 1.125 1 -3
v -3 1 -1.125
v 1.25 2.5 4.75
v -0.5 3 4.8125
v 0.75 6 3.5
v -0.5 3.25 4.75
v 2.5 2 3.5
v -3 2 2
v -0.5607 0.5 -1.0607
v 0.75 3 6.75
v -1.25 -0 -3.5
v -1.125 1 3
v -1.4142 5.25 1.4142
v -1.75 6.7188 1.5625
v 1.4142 5.25 -1.4142
v -1.25 1.75 4.75
v -0.8125 2.875 4.3125
v 3 1 1.125
v -3.5 2 2.5
v -3 5.5 0.75
v -3.5 4 -2
v 3.5 4 2
v 1.75 4.1562 1.3125
v -0.8125 2.625 4.3125
v 3.5 2 -2.5
v 1 2.625 4.3125
v -0.75 5.5 -3
v 0 2.5 4.75
v -1.75 4.1562 1.3125
v 1.25 1 7.25
v 0.75 2.875 4.375
v 0.75 5.5 3
v -3 4 -2.5
v -0.7654 5.25 1.8478
v 0.7654 5.25 -1.8478
v 0.875 7.5 -0
v 0.1281 7.5 -0.5656
v 0.1281 7.5 0.3094
v -0.6339 0.5 0.1768
v 0.9268 0.5 0.5303
v -0.75 0 7.25
v 0.75 0 4.75
v -0.75 0 4.75
v 0.75 0 7.25
vt -0 0.8846
vt 0.0324 0.9231
vt -0 0.9231
vt 0.4259 0.6058
vt 0.3981 0.5962
vt 0.4259 0.5962
vt 0.3102 0.0769
vt 0.2778 0.0385
vt 0.3102 0.0385
vt 0.2685 0.625
vt 0.2407 0.6058
vt 0.2685 0.6058
vt 0.4398 0.5
vt 0.4074 0.4231
vt 0.4398 0.4231
vt 0.0602 0.9904
vt 0.0972 0.9231
vt 0.0972 0.9904
vt 0.3009 0.625
vt 0.2963 0.6058
vt 0.3009 0.6058
vt 0.6019 0.0769
vt 0.5694 0.0385
vt 0.6019 0.0385
vt 0.1389 0.6346
vt 0.1759 0.5962
vt 0.1852 0.6346
vt 0.0463 0.7115
vt 0.0093 0.75
vt 0 0.7115
vt 0.9398 0.9808
vt 0.9306 1
vt 0.9306 0.9808
vt 0.9306 0.9423
vt 0.9398 0.9615
vt 0.9398 0.9423
vt 0.5648 0.9615
vt 0.5926 0.9808
vt 0.5648 0.9808
vt 0.1944 0.5962
vt 0.2407 0.6346
vt 0.2315 0.75
vt 0.1852 0.7115
vt 0.2407 0.7115
vt 0.1944 0.75
vt 0.2315 0.5962
vt 0.5694 0.6635
vt 0.5972 0.7019
vt 0.5694 0.7019
vt 0.5556 0.6923
vt 0.5278 0.7308
vt 0.5278 0.6923
vt 0.1944 0.8269
vt 0.4167 0.9038
vt 0.3796 0.8462
vt 0.4167 0.8462
vt 0.3472 0.5962
vt 0.3472 0.6058
vt 0.8194 0.9423
vt 0.8519 0.9231
vt 0.8519 0.9423
vt 0.8935 0.9615
vt 0.8935 0.9423
vt 0.3981 0.625
vt 0.3935 0.6058
vt 0.3981 0.6058
vt 0.2731 0.5577
vt 0.2477 0.5385
vt 0.2755 0.5385
vt 0.5995 0.5385
vt 0.5718 0.5577
vt 0.5718 0.5385
vt 0.0217 0.0451
vt 0.0741 0.0451
vt 0.0675 0.1051
vt 0.3056 0.5577
vt 0.2801 0.5385
vt 0.3079 0.5385
vt 0.5347 0.5385
vt 0.5069 0.5577
vt 0.5069 0.5385
vt 0.2083 0.5577
vt 0.1829 0.5385
vt 0.2106 0.5385
vt 0.2407 0.5577
vt 0.2153 0.5385
vt 0.2431 0.5385
vt 0.7037 0.6346
vt 0.6667 0.6538
vt 0.6667 0.5962
vt 0.4352 0.5577
vt 0.4097 0.5385
vt 0.4375 0.5385
vt 0.4676 0.5577
vt 0.4421 0.5385
vt 0.4699 0.5385
vt 0.3727 0.5385
vt 0.3449 0.5577
vt 0.3449 0.5385
vt 0.5671 0.5385
vt 0.5394 0.5577
vt 0.5394 0.5385
vt 0.6644 0.5385
vt 0.6366 0.5577
vt 0.6366 0.5385
vt 0.0648 0.375
vt 0.0648 0.3077
vt 0.0972 0.375
vt 0.338 0.5577
vt 0.3125 0.5385
vt 0.3403 0.5385
vt 0.4051 0.5385
vt 0.3773 0.5577
vt 0.3773 0.5385
vt 0.1759 0.5577
vt 0.1505 0.5385
vt 0.1782 0.5385
vt 0.6319 0.5385
vt 0.6042 0.5577
vt 0.6042 0.5385
vt 0.5556 0.7308
vt 0.6111 0.7308
vt 0.5694 0.7981
vt 0.6111 0.7692
vt 0.5972 0.7981
vt 0.0417 0.8269
vt 0.0602 0.8654
vt 0.0417 0.8654
vt 0.2315 0.8269
vt 0.2778 0.7308
vt 0.2407 0.6923
vt 0.2778 0.6923
vt 0.4306 0.6635
vt 0.4028 0.7019
vt 0.4028 0.6635
vt 0.8194 0.9808
vt 0.8519 0.9615
vt 0.8519 0.9808
vt 0.4444 0.7308
vt 0.3889 0.7308
vt 0.3472 0.625
vt 0.3889 0.7692
vt 0.4306 0.7981
vt 0.4028 0.7981
vt 0.8426 0.9231
vt 0.8519 0.8462
vt 0.8519 0.9231
vt 0.2778 0.7692
vt 0.2407 0.7308
vt 0.5556 0.7692
vt 0.662 0.5962
vt 0.662 0.5577
vt 0.1343 0.75
vt 0.1759 0.8269
vt 0.1343 0.8269
vt 0.2315 0.8269
vt 0.2685 0.8654
vt 0.2315 0.8654
vt 0.2963 0.6346
vt 0.2685 0.6346
vt 0.7222 0.7308
vt 0.7593 0.7692
vt 0.7222 0.7692
vt 0.2685 0.5962
vt 0.4074 0.5
vt 0.375 0.4231
vt 0.5278 0.7692
vt 0.1343 0.8269
vt 0.1528 0.8654
vt 0.1343 0.8654
vt 0.4259 0.2115
vt 0.4537 0.1538
vt 0.4537 0.2115
vt 0.4676 0.5962
vt 0.4421 0.5577
vt 0.3935 0.6346
vt 0.3472 0.6346
vt 0.162 0.8846
vt 0.8935 1
vt 0.8935 0.9808
vt 0.4259 0.9615
vt 0.4537 0.9423
vt 0.4537 0.9615
vt 0.2778 0.8077
vt 0.2407 0.7692
vt 0.6991 0.0769
vt 0.6713 0.0673
vt 0.6991 0.0673
vt 0.6343 0.0769
vt 0.6343 0.0385
vt 0.3056 0.5962
vt 0.2801 0.5577
vt 0.5741 0.9231
vt 0.6019 0.8462
vt 0.6019 0.9231
vt 0.5926 1
vt 0.6111 0.9808
vt 0.6111 1
vt 0.7037 0.6538
vt 0.7593 0.8077
vt 0.7222 0.8077
vt 0.5648 1
vt 0.3519 0.9038
vt 0.3148 0.9808
vt 0.3148 0.9038
vt 0.3935 0.5962
vt 0.2963 0.5962
vt 0.3009 0.5962
vt 0.4815 0.2115
vt 0.5093 0.1538
vt 0.5093 0.2115
vt 0.4398 0.1154
vt 0.4074 0.0769
vt 0.4398 0.0769
vt 0.2778 0.9038
vt 0.2685 0.9808
vt 0.2685 0.9038
vt 0.3981 0.6346
vt 0.2963 0.625
vt 0.3009 0.6346
vt 0.7222 0.0769
vt 0.7315 0.1058
vt 0.7222 0.1058
vt 0.3148 0.8269
vt 0.3148 0.8077
vt 0.338 0.5962
vt 0.3125 0.5577
vt 0.5972 0.6635
vt 0.5278 0.8077
vt 0.287 0.2115
vt 0.3148 0.1538
vt 0.3148 0.2115
vt 0.7315 0.0096
vt 0.7269 0.0673
vt 0.7269 0.0096
vt 0.8056 0.3269
vt 0.7593 0.3077
vt 0.8056 0.3077
vt 0.8981 0.7692
vt 0.9444 0.8462
vt 0.8981 0.8462
vt 0.6389 0.1923
vt 0.6111 0.1538
vt 0.6389 0.1538
vt 0.9306 0.9615
vt 0.5972 0.5962
vt 0.5972 0.5577
vt 0.7269 0.0769
vt 0.4491 0.8462
vt 0.4352 0.9231
vt 0.4352 0.8462
vt 0.6944 0.3077
vt 0.7222 0.3462
vt 0.6944 0.3462
vt 0.7315 0.0673
vt 0.6111 0.25
vt 0.5926 0.3077
vt 0.5926 0.25
vt 0.7407 0.0769
vt 0.75 0.1058
vt 0.7407 0.1058
vt 0.8356 0.8462
vt 0.8426 0.8654
vt 0.8287 0.8654
vt 0.4259 0.625
vt 0.7361 0.8558
vt 0.6944 0.8462
vt 0.7315 0.8462
vt 0.8426 0.9038
vt 0.8356 0.9231
vt 0.8287 0.9038
vt 0.8519 0.9038
vt 0.2407 0.6538
vt 0.2778 0.6538
vt 0.8843 0.9423
vt 0.537 0.1538
vt 0.537 0.2115
vt 0.7269 0.9135
vt 0.6852 0.9038
vt 0.7315 0.9038
vt 0.4537 0.625
vt 0.4259 0.6346
vt 0.5926 0.9615
vt 0.5648 0.9423
vt 0.5741 0.8654
vt 0.5509 0.8462
vt 0.5833 0.8462
vt 0.75 0.0769
vt 0.7593 0.1058
vt 0.6667 0.5
vt 0.6343 0.4231
vt 0.6667 0.4231
vt 0.3611 0.8269
vt 0.3611 0.9038
vt 0.5833 0.9231
vt 0.5602 0.9038
vt 0.5741 0.9038
vt 0.4769 0.9087
vt 0.4491 0.9038
vt 0.4769 0.9038
vt 0.4491 0.8654
vt 0.4699 0.8462
vt 0.4769 0.8606
vt 0.7315 0.125
vt 0.6667 0.0673
vt 0.6713 0.0096
vt 0.5278 0.6538
vt 0.7685 0.9231
vt 0.8194 0.8462
vt 0.8194 0.9231
vt 0.5324 0.5962
vt 0.5324 0.5577
vt 0.6111 0.9423
vt 0.5926 0.9423
vt 0.1944 0.9231
vt 0.1944 0.8846
vt 0.2315 0.8846
vt 0.9398 1
vt 0.7593 0.125
vt 0.6898 0.9231
vt 0.7292 0.8462
vt 0.7292 0.9231
vt 0.6991 0.0096
vt 0.6204 0.9615
vt 0.6678 0.9423
vt 0.6678 0.9615
vt 0.6019 0.9038
vt 0.4641 0.8462
vt 0.4641 0.9231
vt 0.8843 0.9231
vt 0.8935 0.9231
vt 0.8843 0.9808
vt 0.8843 0.9615
vt 0.8287 0.8462
vt 0.8287 0.9231
vt 0.6204 0.9808
vt 0.6678 0.9808
vt 0.3519 1
vt 0.3148 1
vt 0.8102 0.9423
vt 0.8102 0.9615
vt 0.537 0.5
vt 0.5046 0.4231
vt 0.537 0.4231
vt 0.8194 1
vt 0.8102 1
vt 0.8102 0.9808
vt 0.6111 0.9615
vt 0.5556 0.6538
vt 0.7222 0.125
vt 0.7315 0.1635
vt 0.7222 0.1635
vt 0.5069 1
vt 0.537 0.9808
vt 0.5069 0.9808
vt 0.3426 0.0769
vt 0.3426 0.0385
vt 0.4722 0.1154
vt 0.4722 0.0769
vt 0.4537 0.9663
vt 0.4259 0.9423
vt 0.4468 0.9231
vt 0.4537 0.9375
vt 0.8981 0.4423
vt 0.9444 0.5385
vt 0.8981 0.5385
vt 0.6111 0.9231
vt 0.5926 0.9231
vt 0.2454 0.1154
vt 0.213 0.0769
vt 0.2454 0.0769
vt 0.7593 0.2308
vt 0.8056 0.2308
vt 0.3102 0.1154
vt 0.2778 0.0769
vt 0.6852 0.9231
vt 0.7315 0.8462
vt 0.7315 0.9231
vt 0.0972 0.8654
vt 0.0602 0.9231
vt 0.1481 0.2115
vt 0.1759 0.1538
vt 0.1759 0.2115
vt 0.4074 0.1154
vt 0.375 0.0769
vt 0.6204 1
vt 0.6678 1
vt 0.375 0.0385
vt 0.8426 0.8462
vt 0.1806 0.5
vt 0.1481 0.4231
vt 0.1806 0.4231
vt 0.5694 0.0769
vt 0.537 0.0385
vt 0.9306 0.9231
vt 0 0.6346
vt 0.0463 0.6346
vt 0.1806 0.0385
vt 0.213 0.0385
vt 0.537 0.1154
vt 0.5046 0.0769
vt 0.537 0.0769
vt 0.3426 0.1538
vt 0.3426 0.2115
vt 0.7222 0.6538
vt 0.7593 0.6923
vt 0.7222 0.6923
vt 0.8981 0.6346
vt 0.9444 0.6923
vt 0.8981 0.6923
vt 0.7593 0.7308
vt 0.8519 0.8654
vt 0.5648 0.1538
vt 0.5648 0.2115
vt 0.9722 0.4423
vt 0.9722 0.5385
vt 0.6204 0.9231
vt 0.6713 0
vt 0.6991 0
vt 0.3704 0.5962
vt 0.3704 0.5577
vt 0.7407 0.125
vt 0.75 0.1635
vt 0.7407 0.1635
vt 0.0972 0.8269
vt 0.213 0.5
vt 0.213 0.4231
vt 0.5509 0.9231
vt 0.5787 0.8462
vt 0.5787 0.9231
vt 0.3426 0.5
vt 0.3102 0.4231
vt 0.3426 0.4231
vt 0.2731 0.5962
vt 0.2477 0.5577
vt 0.7315 0.0769
vt 0.2315 0.9519
vt 0.7778 0.9231
vt 0.7315 0.1731
vt 0.7222 0.1731
vt 0.2083 0.5962
vt 0.1829 0.5577
vt 0.6065 0.8462
vt 0.6065 0.9231
vt 0.4398 0.0385
vt 0.4722 0.0385
vt 0.5602 0.9231
vt 0.5741 0.8462
vt 0.3796 0.9038
vt 0.4167 0.9423
vt 0.3796 0.9423
vt 0.3704 0.2115
vt 0.3981 0.1538
vt 0.3981 0.2115
vt 0.1944 0.9519
vt 0.4167 0.9615
vt 0.1944 0.8654
vt 0.75 0.125
vt 0.7593 0.1731
vt 0.75 0.1731
vt 0.4815 0.1538
vt 0.6667 0.0096
vt 0.8519 1
vt 0.6204 0.9423
vt 0.6678 0.9231
vt 0.5694 0.1154
vt 0.7593 0.1635
vt 0.7593 0.1731
vt 0.8056 0.1731
vt 0.4306 0.7019
vt 0.7593 0.5385
vt 0.7315 0.6346
vt 0.7315 0.5385
vt 0.2454 0.0385
vt 0.2801 -0
vt 0.3079 0
vt 0.2778 0.1154
vt 0.2407 0.5962
vt 0.2153 0.5577
vt 0.2593 0.2115
vt 0.287 0.1538
vt 0.537 0.9423
vt 0.7222 0.25
vt 0.6944 0.25
vt 0.8194 0.9615
vt 0.5046 0.5
vt 0.4722 0.4231
vt 0.8056 0.4423
vt 0.7593 0.3846
vt 0.8056 0.3846
vt 0.6019 0.5
vt 0.5694 0.4231
vt 0.6019 0.4231
vt 0.4352 0.5962
vt 0.4097 0.5577
vt 0.6019 0.1154
vt 0.7627 0.9808
vt 0.7627 0.9615
vt 0.1806 0.0769
vt 0.1481 0.0385
vt 0.5046 0.1154
vt 0.5093 0.976
vt 0.537 0.9615
vt 0.5093 0.9615
vt 0.4444 0.7692
vt 0.5648 0.9231
vt 0.4028 0.5962
vt 0.4028 0.5577
vt 0.7407 0.1731
vt 0.5093 0.9423
vt 0.3519 0.6923
vt 0.3889 0.6923
vt 0.6852 0.6923
vt 0.6852 0.7308
vt 0.3426 0.3846
vt 0.3704 0.3269
vt 0.3704 0.3846
vt 0.662 0.9231
vt 0.6898 0.8462
vt 0.7037 0.5385
vt 0.6667 0.5385
vt 0.6667 0.4808
vt 0.0872 0.242
vt 0.061 0.1651
vt 0.1003 0.1764
vt 0.5 0.6538
vt 0.4722 0.6923
vt 0.4722 0.6538
vt 0.8056 0.75
vt 0.8519 0.7692
vt 0.8056 0.7692
vt 0.7153 0.9231
vt 0.7222 0.3077
vt 0.7407 0.25
vt 0.7407 0.3077
vt 0.6296 0.8654
vt 0.6574 0.8462
vt 0.6574 0.8654
vt 0.2315 0.3269
vt 0.2593 0.2692
vt 0.2593 0.3269
vt 0.5 0.6923
vt 0.4722 0.7308
vt 0.0602 0.8269
vt 0.3519 0.8077
vt 0.3148 0.7692
vt 0.3519 0.7692
vt 0.5046 0.9231
vt 0.5324 0.8462
vt 0.5324 0.9231
vt 0.7153 0.9808
vt 0.5 0.7308
vt 0.4722 0.7692
vt 0.1759 0.3269
vt 0.2037 0.2692
vt 0.2037 0.3269
vt 0.3935 0.625
vt 0.4444 0.6923
vt 0.4444 0.6538
vt 0.6481 0.7692
vt 0.102 0.4661
vt 0.0858 0.4325
vt 0.8056 0.6923
vt 0.8519 0.75
vt 0.3426 0.2692
vt 0.3704 0.2692
vt 0.0743 0.4899
vt 0.0534 0.4325
vt 0.1425 0.095
vt 0.1373 0.0995
vt 0.1264 0.0451
vt 0.1425 0.2127
vt 0.1373 0.2082
vt 0.1481 0.1538
vt 0.1024 0.2959
vt 0.1003 0.2851
vt 0.1264 0.2626
vt 0.0457 0.2959
vt 0.0479 0.2851
vt 0.0741 0.3077
vt 0.0057 0.2127
vt 0.0109 0.2082
vt 0.0217 0.2626
vt 0.0057 0.095
vt 0.0109 0.0995
vt 0 0.1538
vt 0.0457 0.0117
vt 0.0479 0.0226
vt 0.1024 0.0117
vt 0.1003 0.0226
vt 0.0741 0
vt 0.1264 0.1538
vt 0.1133 0.2195
vt 0.5069 0.9231
vt 0.4815 0.9327
vt 0.5093 0.9279
vt 0.0217 0.1538
vt 0.7778 0.8654
vt 0.7315 0.8654
vt 0.4769 0.9808
vt 0.4815 0.9712
vt 0.4537 0.6058
vt 0.4537 0.5962
vt 0.5301 0.9231
vt 0.5046 0.9135
vt 0.5324 0.9183
vt 0.0896 0.3179
vt 0.7153 0.9423
vt 0.7315 0.9231
vt 0.3981 0.3269
vt 0.4259 0.2692
vt 0.4259 0.3269
vt 0.5324 0.8654
vt 0.5046 0.8558
vt 0.5324 0.851
vt 0.0466 0.5137
vt 0.0648 0.5769
vt 0.6481 0.6923
vt 0.6481 0.7308
vt 0.1296 0.4423
vt 0.1247 0.4938
vt 0.1106 0.5375
vt 0.0896 0.5667
vt 0.04 0.5667
vt 0.019 0.5375
vt 0.0049 0.4938
vt 0 0.4423
vt 0.0049 0.3908
vt 0.019 0.3471
vt 0.02 0.3801
vt 0.0324 0.375
vt 0.1096 0.3801
vt 0.1106 0.3471
vt 0.1247 0.3908
vt 0.0972 0.5096
vt 0.0926 0.7115
vt 0.1389 0.7115
vt 0.3889 0.8077
vt 0.5301 0.8462
vt 0.522 0.9231
vt 0.6389 0.25
vt 0.6111 0.3077
vt 0.3519 0.6538
vt 0.3889 0.6538
vt 0.0926 0.6346
vt 0.1343 0.5962
vt 0.7593 0.75
vt 0.8519 0.0577
vt 0.8056 0
vt 0.8519 0
vt 0.2593 0.3846
vt 0.287 0.3269
vt 0.287 0.3846
vt 0.6852 0.8462
vt 0.6852 0.8654
vt 0.8519 0.1154
vt 0.8056 0.0577
vt 0.0093 0.5962
vt 0.1759 0.75
vt 0.6852 0.7692
vt 0.537 0.9231
vt 0.9444 0.1731
vt 0.8981 0.1154
vt 0.9444 0.1154
vt 0.2685 0.9519
vt 0.2685 0.8846
vt 0.4815 0.3846
vt 0.5093 0.3269
vt 0.5093 0.3846
vt 0.8056 0.6346
vt 0.7593 0.6346
vt 0.0324 0.8846
vt 0.162 0.9231
vt 0.3148 0.6538
vt 0.0544 0.2251
vt 0.0509 0.8269
vt 0.0093 0.8269
vt 0.3519 0.7308
vt 0.2407 0.625
vt 0.7037 0.4231
vt 0.7037 0.4423
vt 0.4769 1
vt 0.6852 0.6538
vt 0.9444 0.3077
vt 0.8981 0.2308
vt 0.9444 0.2308
vt 0.8519 0.5385
vt 0.8519 0.6346
vt 0.6111 0.6538
vt 0.6111 0.6923
vt 0.7593 0.4423
vt 0.8056 0.5385
vt 0.0509 0.75
vt 0.0926 0.8269
vt 0.7627 0.9231
vt 0.6481 0.6538
vt 0.3148 0.3269
vt 0.3148 0.3846
vt 0.7685 0.8462
vt 0.9444 0.3269
vt 0.8981 0.3077
vt 0.2778 0.9808
vt 0.2778 1
vt 0.4769 0.9231
vt 0.5046 0.8462
vt 0.6574 0.9231
vt 0.6343 0.9231
vt 0.662 0.8462
vt 0.7153 0.9615
vt 0.7627 0.9423
vt 0.6481 0.8077
vt 0.6111 0.8077
vt 0.4167 1
vt 0.4468 0.9808
vt 0.4167 0.9808
vt 0.4444 0.8077
vt 0.6944 0.9231
vt 0.537 0.3846
vt 0.5648 0.3269
vt 0.5648 0.3846
vt 0.5602 0.8654
vt 0.4537 0.2692
vt 0.4537 0.3269
vt 0.5 0.7692
vt 0.4699 0.9231
vt 0.4769 0.8654
vt 0.9444 0.75
vt 0.8981 0.75
vt 0.537 0.3269
vt 0.8056 0.8462
vt 0.7593 0.8462
vt 0.3148 0.7308
vt 0.3148 0.6923
vt 0.5 0.9231
vt 0.3426 0.3269
vt 0.2315 0.2692
vt 0.8519 0.2308
vt 0.8519 0.1731
vt 0.8981 0.0577
vt 0.9444 0.0577
vt 0.8056 0.1154
vt 0.8981 0
vt 0.9444 -0
vt 0.4815 0.9615
vt 0.0509 0.5962
vt 0.3148 0.8077
vt 0.3519 0.9808
vt 0.3611 0.9808
vt 0.6296 0.9231
vt 0.6574 0.9038
vt 0.4769 0.9231
vt 0.1481 0.3846
vt 0.1759 0.3846
vt 0.9444 0.4423
vt 0.8981 0.3846
vt 0.9444 0.3846
vt 0.9444 0.6346
vt 0.9722 0.6346
vt 0.7627 1
vt 0.4815 0.3269
vt 0.5093 0.2692
vt 0.1133 0.1107
vt 0.5648 0.2692
vt 0.5926 0.2115
vt 0.5926 0.2692
vt 0.8519 0.3846
vt 0.8519 0.3269
vt 0.2315 0.2115
vt 0.2778 0.8269
vt 0.6389 0.3077
vt 0.6667 0.3462
vt 0.6389 0.3462
vt 1 0.4423
vt 1 0.5385
vt 0.3148 0.2692
vt 0.3519 0.8269
vt 0.7778 0.8462
vt 0.7153 1
vt 0.8981 0.3269
vt 0.8519 0.3077
vt 0.537 1
vt 0.2685 0.8269
vt 0.4468 1
vt 0.4722 0.8077
vt 1 0.6346
vt 0.6852 0.8077
vt 0.6111 0.1923
vt 0.5926 0.1923
vt 0.5926 0.3269
vt 0.5926 0.3846
vt 0.3981 0.2692
vt 0.5046 0.8654
vt 0.6019 0.8654
vt 0.6296 0.8462
vt 0.4931 0.9231
vt 0.522 0.8462
vt 0.2315 0.3846
vt 0.6343 0.8462
vt 0.3981 0.3846
vt 0.4815 0.2692
vt 0.1759 0.2692
vt 0.2037 0.2115
vt 0.8519 0.6923
vt 0.4537 0.3846
vt 0.5602 0.8462
vt 0.6944 0.1923
vt 0.6667 0.25
vt 0.6667 0.1923
vt 0.8519 0.8462
vt 0.8981 0.1731
vt 0.8519 0.4423
vt 0.1481 0.3269
vt 0.1343 0.9904
vt 0.1343 0.9231
vt 0.8102 0.9231
vt 0.6713 0.0769
vt 0.4259 0.3846
vt 0.1481 0.2692
vt 0.6667 0.1538
vt 0.6944 0.1538
vt 0.5324 0.9038
vt 0.6667 0.3077
vt 0.375 0.5
vt 0.1505 0
vt 0.1782 0
vt 0.4722 0.5
vt 0.5023 0.5385
vt 0.4745 0.5385
vt 0.5394 0.3846
vt 0.5671 0.3846
vt 0.6319 0.3846
vt 0.6042 0.3846
vt 0.1829 0.3846
vt 0.2106 0.3846
vt 0.2454 0.4231
vt 0.2153 0.3846
vt 0.2431 0.3846
vt 0.2454 0.5
vt 0.6667 0.1154
vt 0.6667 0.0769
vt 0.2778 0.5
vt 0.2778 0.4231
vt 0.4259 0.1538
vt 0.2153 0.1538
vt 0.213 0.1154
vt 0.5069 0.3846
vt 0.5347 0.3846
vt 0.5995 0
vt 0.5718 -0
vt 0.6343 0.5
vt 0.4745 0.5577
vt 0.5671 0.1538
vt 0.5394 0.1538
vt 0.4745 0.1538
vt 0.5023 0.1538
vt 0.4074 0.0385
vt 0.3773 -0
vt 0.4051 -0
vt 0.3449 -0
vt 0.3727 -0
vt 0.6644 0.1538
vt 0.6343 0.1154
vt 0.375 0.1154
vt 0.4051 0.1538
vt 0.3773 0.1538
vt 0.3449 0.3846
vt 0.3727 0.3846
vt 0.3102 0.5
vt 0.5069 0
vt 0.5347 0
vt 0.2801 0.3846
vt 0.3079 0.3846
vt 0.3125 0.3846
vt 0.3403 0.3846
vt 0.6667 0.0385
vt 0.6366 -0
vt 0.6644 -0
vt 0.4421 0.3846
vt 0.4699 0.3846
vt 0.1829 -0
vt 0.2106 0
vt 0.5995 0.3846
vt 0.5718 0.3846
vt 0.5347 0.1538
vt 0.5069 0.1538
vt 0.6366 0.3846
vt 0.6644 0.3846
vt 0.2477 0.3846
vt 0.2755 0.3846
vt 0.5648 0.5962
vt 0.5648 0.5577
vt 0.5995 0.1538
vt 0.5718 0.1538
vt 0.3773 0.3846
vt 0.4051 0.3846
vt 0.5671 -0
vt 0.5394 0
vt 0.6319 0.1538
vt 0.6042 0.1538
vt 0.3796 0.8077
vt 0.4167 0.8077
vt 0.5694 0.5
vt 0.4375 0.3846
vt 0.4097 0.3846
vt 0.4097 0
vt 0.4375 -0
vt 0.4699 0.1538
vt 0.2755 -0
vt 0.2477 0
vt 0.4699 0
vt 0.4421 0
vt 0.4745 0.3846
vt 0.2801 0.1538
vt 0.3079 0.1538
vt 0.6296 0.5962
vt 0.6296 0.5577
vt 0.2037 0.1538
vt 0.3426 0.1154
vt 0.3125 0.1538
vt 0.4491 0.9231
vt 0.4769 0.8462
vt 0.3449 0.1538
vt 0.1782 0.3846
vt 0.1505 0.3846
vt 0.4375 0.1538
vt 0.4097 0.1538
vt 0.3125 0
vt 0.3403 -0
vt 0.2477 0.1538
vt 0.2153 0
vt 0.2431 0
vt 0.6319 -0
vt 0.6042 0
vt 0.1481 0.5
vt 0.1481 0.1154
vt 0.1782 0.1538
vt 0.1505 0.1538
vt 0.1829 0.1538
vt 0.1806 0.1154
vt 0.4745 0
vt 0.5046 0.0385
vt 0.3611 0.8462
vt 0.1505 0.5577
vt 0.9398 0.9231
vt 0.7407 0.1923
vt 0.1481 0.0769
vt 0.5 0.5962
vt 0.5 0.5577
vt 0.4352 0.9038
vt 0.2593 0.1538
vt 0.9444 0.7692
vt 0.3704 0.1538
vt 0.5926 0.1538
vt 0.2315 0.1538
vt 0.7315 0.4423
vt 0.7593 0.6923
vt 0.04 0.3179
vt 0.7222 0.1923
vt 0.8843 1
vt 0.537 0.2692
vt 0.7593 0.3269
vt 0.287 0.2692
vt 0.0926 0.75
vt 0.7593 0.1154
vt 0.4815 0.9423
vt 0.7269 0
vt 0.7593 0.0577
vt 0.5 0.8077
vt 0.7593 -0
vt 0.7778 0.9038
vt 0.7222 0.1538
vt 0.2037 0.3846
vt 0.6111 0.3462
vt 0.4931 0.8462
vt 0.6296 0.9038
vt 0.5 0.8462
vt 0.5046 0.9038
vt 0.6366 0.5962
vt 0.1528 0.8269
vt 0.4421 0.5962
vt 0.2407 0.8077
vt 0.2801 0.5962
vt 0.3125 0.5962
vt 0.5556 0.8077
vt 0.5718 0.5962
vt 0.4537 0.6346
vt 0.7593 0.0769
vt 0.4398 0.8462
vt 0.5069 0.5962
vt 0.4167 0.9231
vt 0.1481 0.1538
vt 0.7593 0.6538
vt 0.3449 0.5962
vt 0.2477 0.5962
vt 0.1829 0.5962
vt 0.2153 0.5962
vt 0.4097 0.5962
vt 0.3773 0.5962
vt 0.0926 0.5962
vt 0.4398 0.9231
vt 0.2431 0.1538
vt 0.6366 0.1538
vt 0.5394 0.5962
vt 0.4421 0.1538
vt 0.5023 0.3846
vt 0.6042 0.5962
vt 0.3403 0.1538
vt 0.3727 0.1538
vt 0.2755 0.1538
vt 0.2106 0.1538
vt 0.5023 0
vt 0.1505 0.5962
vt 0.4745 0.5962
s 1
f 567/1 572/2 565/3
f 899/4 440/5 935/6
f 429/7 72/8 71/9
f 842/10 481/11 719/12
f 99/13 132/14 131/15
f 221/16 788/17 914/18
f 453/19 442/20 443/21
f 435/22 79/23 78/24
f 1154/25 26/26 6/27
f 1222/28 27/29 13/30
f 1214/28 32/29 16/30
f 1000/25 18/26 2/27
f 1198/28 19/29 9/30
f 348/31 359/32 358/33
f 664/34 659/35 660/36
f 873/37 387/38 800/39
f 355/35 360/34 356/36
f 21/40 8/41 3/27
f 18/40 5/41 2/27
f 19/42 15/43 9/44
f 24/42 14/43 12/44
f 20/45 13/44 27/42
f 17/46 7/27 29/40
f 22/46 6/27 26/40
f 619/47 629/48 617/49
f 193/50 1234/51 1128/52
f 24/42 26/53 28/45
f 338/54 336/55 337/56
f 463/21 802/57 955/58
f 370/59 796/60 932/61
f 665/62 664/34 668/63
f 536/64 524/65 526/66
f 169/67 152/68 153/69
f 147/70 162/71 146/72
f 39/73 784/74 1268/75
f 170/76 153/77 154/78
f 145/79 176/80 160/81
f 167/82 150/83 151/84
f 168/85 151/86 152/87
f 242/88 233/89 1118/90
f 174/91 157/92 158/93
f 175/94 158/95 159/96
f 156/97 171/98 155/99
f 146/100 161/101 145/102
f 149/103 164/104 148/105
f 1265/106 189/107 700/108
f 171/109 154/110 155/111
f 157/112 172/113 156/114
f 166/115 149/116 150/117
f 148/118 163/119 147/120
f 194/121 205/48 206/122
f 513/19 502/20 503/21
f 195/123 208/124 207/125
f 602/126 613/127 615/128
f 18/53 27/42 25/129
f 1139/130 598/131 1093/132
f 583/133 595/134 593/135
f 367/136 895/137 765/138
f 211/134 198/139 212/140
f 747/141 463/21 955/58
f 210/142 199/143 209/144
f 305/145 304/146 303/147
f 1053/148 597/149 1139/130
f 618/121 632/124 620/150
f 181/151 164/104 165/152
f 1104/153 26/154 1004/155
f 749/156 575/157 963/158
f 844/10 527/159 961/160
f 1236/161 201/162 1156/163
f 441/11 898/164 716/12
f 100/165 133/166 132/14
f 194/121 1114/167 1234/51
f 1248/161 625/162 1217/163
f 643/168 656/169 654/170
f 1076/171 96/172 1170/173
f 1173/153 29/154 1223/155
f 191/174 174/175 175/94
f 840/10 441/11 716/12
f 743/141 260/176 793/177
f 228/2 231/128 229/127
f 225/178 230/170 232/169
f 667/179 662/33 666/180
f 973/10 467/159 803/160
f 384/181 1187/182 1130/183
f 14/43 4/41 12/44
f 493/19 482/20 483/21
f 1019/184 559/185 1049/148
f 745/186 287/187 888/188
f 405/189 78/24 77/190
f 186/191 169/192 170/76
f 319/193 1126/194 1079/195
f 389/196 375/197 377/198
f 242/88 238/199 233/89
f 1070/163 586/200 1150/201
f 693/196 826/39 911/202
f 746/203 714/204 998/205
f 252/5 258/66 256/206
f 251/207 255/208 254/20
f 1148/209 82/210 1033/211
f 62/212 417/213 412/214
f 762/215 293/216 889/217
f 260/218 266/176 268/64
f 259/159 264/219 265/220
f 401/221 396/222 395/223
f 352/221 345/222 346/223
f 839/224 294/184 928/225
f 187/226 170/227 171/109
f 537/49 551/228 549/48
f 196/150 1261/229 1114/167
f 1032/230 91/231 1224/232
f 291/233 285/234 286/235
f 1259/236 239/237 1186/238
f 1226/239 235/240 1011/241
f 358/33 355/35 348/31
f 1080/153 21/154 1050/155
f 1239/242 270/243 1190/244
f 361/62 360/34 357/245
f 179/246 162/71 163/247
f 748/141 508/176 808/177
f 713/188 279/248 887/186
f 328/249 329/250 330/251
f 362/180 357/245 358/33
f 1069/252 271/253 1162/254
f 17/129 31/45 19/42
f 281/234 280/233 279/255
f 761/256 269/257 885/258
f 404/259 399/260 400/261
f 971/10 259/159 792/160
f 307/262 308/263 311/264
f 743/141 255/21 949/58
f 353/259 350/260 349/261
f 516/64 721/4 843/265
f 971/10 253/11 884/12
f 763/266 318/267 891/268
f 305/269 306/270 310/271
f 521/11 904/164 722/12
f 306/145 303/272 301/147
f 1093/132 600/273 1022/274
f 909/137 670/275 938/61
f 742/156 231/157 947/158
f 1033/211 83/276 1215/277
f 982/278 315/279 715/280
f 455/281 985/282 972/265
f 692/283 940/284 872/37
f 320/285 326/286 322/287
f 354/288 346/289 350/260
f 750/156 615/157 964/158
f 975/10 507/159 807/160
f 108/290 141/291 140/292
f 746/203 296/293 951/294
f 321/295 323/296 319/297
f 580/150 1140/229 1046/167
f 542/139 554/142 556/140
f 1166/298 327/299 1081/300
f 1194/161 545/162 1177/163
f 328/301 1184/302 1185/303
f 344/304 345/222 349/261
f 289/305 288/306 287/187
f 1256/307 537/50 1119/52
f 309/308 306/309 307/310
f 177/311 176/80 161/312
f 692/283 682/313 694/314
f 693/196 679/197 691/38
f 1156/163 202/200 1204/201
f 566/315 569/178 568/316
f 225/316 947/158 704/317
f 1068/28 24/29 12/30
f 516/64 504/65 506/66
f 658/31 663/32 657/318
f 346/289 343/319 350/260
f 1025/184 639/185 1056/148
f 318/320 983/321 891/322
f 284/235 713/188 838/323
f 540/150 1256/229 1098/167
f 538/121 552/124 540/150
f 376/324 1044/325 1129/326
f 321/193 1079/327 1165/195
f 265/19 254/20 255/21
f 917/141 483/21 805/58
f 330/250 1167/328 1184/329
f 1096/132 640/273 1025/274
f 363/330 364/331 366/275
f 361/180 362/332 365/333
f 307/310 301/334 302/335
f 375/336 1129/326 1083/337
f 714/204 295/338 890/339
f 721/4 500/5 768/6
f 370/340 369/59 372/341
f 112/342 129/343 144/344
f 367/345 368/346 371/347
f 374/324 376/348 378/313
f 619/349 1006/52 1249/307
f 395/350 391/351 392/352
f 1192/353 683/354 1132/355
f 432/356 71/9 70/357
f 375/197 373/336 377/198
f 16/44 3/27 8/41
f 606/315 609/178 608/316
f 63/358 412/214 425/359
f 1084/360 384/181 1130/183
f 199/133 211/134 209/135
f 386/361 1168/362 1169/363
f 1232/364 883/365 1257/366
f 872/37 691/38 692/283
f 694/314 681/367 693/368
f 56/369 407/370 421/371
f 1186/238 234/372 1061/373
f 916/141 443/21 801/58
f 58/374 409/375 430/7
f 959/58 500/206 504/65
f 315/376 764/377 715/378
f 907/379 612/380 613/127
f 1189/381 86/382 1179/383
f 61/384 420/385 417/213
f 373/386 1083/337 1252/387
f 398/304 396/222 400/261
f 395/289 397/319 399/260
f 456/64 444/65 446/66
f 387/38 376/348 375/197
f 419/385 70/357 69/388
f 1049/148 557/149 1136/130
f 310/335 308/389 305/145
f 918/141 528/176 962/177
f 107/390 140/391 139/392
f 440/5 446/66 444/206
f 439/207 443/208 442/20
f 416/393 80/394 79/23
f 538/121 1098/167 1112/51
f 195/349 1128/52 1261/307
f 448/218 454/176 456/64
f 447/159 452/219 453/220
f 476/64 718/4 841/265
f 975/10 501/11 903/12
f 364/63 359/395 360/34
f 1222/28 5/396 1221/397
f 408/370 75/398 74/399
f 49/400 414/401 433/402
f 747/141 468/176 804/177
f 1224/232 92/403 1213/404
f 460/5 466/66 464/206
f 459/207 463/208 462/20
f 1204/405 204/406 1219/407
f 1227/408 708/409 1245/410
f 1097/407 547/411 1194/161
f 468/218 474/176 476/64
f 467/159 472/219 473/220
f 536/64 905/4 976/265
f 1149/405 548/406 1097/407
f 308/263 302/146 304/412
f 778/138 669/333 909/137
f 1215/277 84/413 1113/414
f 603/168 616/169 614/170
f 523/21 960/57 809/58
f 515/281 860/282 843/265
f 480/5 486/66 484/206
f 479/207 483/208 482/20
f 194/121 208/124 196/150
f 473/19 462/20 463/21
f 883/365 853/415 995/416
f 488/218 494/176 496/64
f 487/159 492/219 493/220
f 620/150 1249/229 1045/167
f 682/313 677/417 681/367
f 838/323 278/418 927/419
f 711/4 252/5 760/6
f 188/420 171/98 172/421
f 398/422 393/423 394/424
f 268/64 256/65 258/66
f 666/180 661/245 665/62
f 500/5 506/66 504/206
f 499/207 503/208 502/20
f 1009/184 215/185 1042/148
f 533/19 522/20 523/21
f 846/425 614/170 907/379
f 508/218 514/176 516/64
f 507/159 512/219 513/220
f 1089/132 560/273 1019/274
f 106/426 139/392 138/427
f 222/315 225/178 224/316
f 917/141 488/176 958/177
f 496/64 484/65 486/66
f 326/428 321/429 322/430
f 102/431 135/432 134/433
f 973/10 461/11 900/12
f 520/5 526/66 524/206
f 519/207 523/208 522/20
f 185/434 168/435 169/67
f 483/21 956/57 805/58
f 579/349 1005/52 1140/307
f 528/218 534/176 536/64
f 527/159 532/219 533/220
f 842/10 487/159 957/160
f 388/283 378/313 376/348
f 617/50 1029/51 1006/52
f 1217/163 626/200 1237/201
f 351/436 349/261 345/222
f 550/122 537/49 549/48
f 969/437 225/316 704/317
f 539/123 552/124 551/125
f 267/281 854/282 835/265
f 443/21 952/57 801/58
f 312/438 310/271 306/335
f 346/350 340/439 342/440
f 495/281 986/282 974/265
f 555/134 542/139 556/140
f 183/441 166/442 167/82
f 554/142 543/143 553/144
f 916/141 448/176 954/177
f 390/314 377/367 378/313
f 456/64 899/4 972/265
f 322/430 1165/443 1182/444
f 219/168 232/169 230/170
f 1237/405 628/406 1108/407
f 426/359 67/445 66/446
f 268/64 711/4 835/265
f 323/447 320/448 319/193
f 577/50 1199/51 1005/52
f 646/315 649/178 648/316
f 335/449 334/450 333/451
f 1134/452 94/453 1181/454
f 920/18 612/380 817/17
f 734/317 648/455 649/316
f 385/450 384/181 383/456
f 647/1 652/2 645/3
f 734/317 656/457 965/158
f 572/2 575/128 573/127
f 569/178 574/170 576/169
f 919/18 572/380 813/17
f 578/121 589/48 590/122
f 253/11 710/164 884/12
f 579/123 592/124 591/125
f 343/458 342/459 341/460
f 1170/173 81/461 1148/209
f 1214/28 8/396 1212/397
f 283/306 277/305 278/462
f 195/47 205/48 193/49
f 595/134 582/139 596/140
f 822/463 666/332 778/138
f 594/142 583/143 593/144
f 1198/28 1/396 1188/397
f 1068/28 4/396 1067/397
f 461/11 717/164 900/12
f 562/126 573/127 575/128
f 1075/132 216/273 1009/274
f 1108/407 627/411 1248/161
f 374/464 1252/465 1044/325
f 579/47 589/48 577/49
f 50/466 433/402 415/393
f 662/33 659/35 661/245
f 397/458 392/467 393/423
f 1061/373 1012/468 1273/469
f 496/64 902/4 974/265
f 726/317 568/455 569/316
f 921/18 652/380 821/17
f 1056/148 637/149 1143/130
f 833/425 230/170 880/379
f 635/134 623/133 621/470
f 612/2 615/128 613/127
f 609/178 614/170 616/169
f 908/379 652/380 653/127
f 630/122 617/49 629/48
f 1042/148 213/149 1122/130
f 619/123 632/124 631/125
f 941/471 759/472 993/473
f 422/371 74/399 73/474
f 368/345 765/138 796/463
f 902/4 480/5 936/6
f 751/156 655/157 965/158
f 635/134 622/139 636/140
f 1254/161 585/162 1070/163
f 634/142 623/143 633/144
f 71/9 41/475 42/476
f 1136/130 558/131 1089/132
f 57/477 421/371 409/375
f 501/11 720/164 903/12
f 184/478 167/479 168/85
f 1174/480 90/481 1032/230
f 1103/153 18/154 1003/155
f 847/425 654/170 908/379
f 873/37 382/482 934/284
f 840/10 447/159 953/160
f 1150/405 588/406 1015/407
f 744/483 1069/252 1161/484
f 371/347 369/485 367/136
f 730/317 608/455 609/316
f 726/317 576/457 963/158
f 402/436 400/261 396/222
f 1122/130 214/131 1075/132
f 730/317 616/457 964/158
f 652/2 655/128 653/127
f 649/178 654/170 656/169
f 572/380 906/379 813/17
f 1240/25 21/26 3/27
f 1178/25 29/26 7/27
f 97/486 130/487 129/343
f 1082/488 790/489 1163/490
f 607/1 612/2 605/3
f 110/491 143/492 142/493
f 622/139 634/142 636/140
f 1143/130 638/131 1096/132
f 476/64 464/65 466/66
f 667/330 670/275 668/331
f 665/180 669/333 666/332
f 190/494 173/495 174/91
f 403/288 395/289 399/260
f 313/438 311/334 310/335
f 642/126 653/127 655/128
f 674/340 676/341 673/59
f 51/496 415/393 436/22
f 671/345 675/347 672/346
f 678/324 682/313 680/348
f 475/281 859/282 841/265
f 1177/163 546/200 1149/201
f 1243/497 676/341 1208/498
f 788/17 229/127 880/379
f 679/197 681/198 677/336
f 428/499 76/500 75/398
f 668/63 663/395 667/331
f 64/501 425/359 414/401
f 1246/502 684/503 1196/504
f 481/11 901/164 719/12
f 1171/363 690/361 1197/182
f 596/140 584/505 594/142
f 940/284 693/368 911/506
f 189/507 172/113 173/508
f 563/168 576/169 574/170
f 218/126 229/127 231/128
f 345/304 339/509 340/439
f 1196/504 686/482 1183/510
f 934/284 389/368 390/314
f 636/140 1250/511 635/512
f 862/513 1194/161 811/514
f 217/53 947/158 232/457
f 117/515 1176/516 116/517
f 1191/518 317/519 318/320
f 758/520 706/521 1012/522
f 1105/523 999/524 832/525
f 818/526 1023/527 1094/528
f 1013/529 881/530 1159/531
f 1058/325 988/532 1258/465
f 273/533 950/534 271/535
f 855/536 1191/537 1210/538
f 1263/539 752/540 1034/541
f 895/137 366/275 365/333
f 723/542 1047/543 1017/527
f 564/544 906/379 573/127
f 1071/545 774/546 1031/547
f 795/548 1201/549 1235/550
f 674/59 822/60 672/310
f 1258/387 823/551 1100/337
f 775/552 1141/553 1054/543
f 1209/554 980/555 1242/556
f 532/219 722/12 522/20
f 534/557 809/58 524/65
f 1072/528 197/558 199/559
f 590/122 1021/560 592/124
f 700/108 1206/561 1266/562
f 1016/563 707/564 1013/529
f 874/565 1134/452 924/566
f 741/567 1267/568 1266/562
f 1028/502 380/503 379/354
f 1087/528 723/542 1017/527
f 34/569 735/570 35/571
f 48/572 736/573 33/574
f 46/575 912/576 47/577
f 44/578 829/579 45/580
f 42/581 737/582 43/583
f 40/584 968/585 41/586
f 38/587 913/588 39/73
f 36/589 830/590 37/591
f 35/571 735/570 831/592
f 47/577 1010/593 831/592
f 1192/594 910/595 1253/596
f 43/583 737/582 946/597
f 39/73 913/588 784/74
f 314/598 764/599 763/266
f 1101/360 825/600 824/601
f 525/602 937/6 518/603
f 514/557 959/58 504/65
f 1233/604 893/605 1229/606
f 190/607 700/108 189/107
f 1144/326 779/608 1058/325
f 949/58 252/206 256/65
f 312/308 983/609 982/278
f 1255/510 897/595 1057/596
f 292/418 926/323 288/306
f 1211/610 981/611 1244/612
f 1201/613 931/614 1200/615
f 1027/616 741/567 181/617
f 465/602 767/6 458/603
f 1138/618 815/514 1092/619
f 177/620 178/621 179/622
f 179/622 180/623 181/617
f 181/617 182/624 183/625
f 183/625 184/626 185/627
f 185/627 186/628 187/629
f 187/629 738/630 185/627
f 738/630 699/631 185/627
f 700/108 739/632 177/620
f 191/633 739/632 190/607
f 191/633 192/634 177/620
f 179/622 740/635 177/620
f 740/635 1206/561 177/620
f 1260/355 798/601 1028/502
f 194/121 193/49 205/48
f 1080/153 783/636 1060/637
f 195/123 196/150 208/124
f 593/638 1031/547 594/142
f 931/614 1193/639 1200/615
f 1193/640 325/286 326/428
f 14/43 1154/25 6/27
f 1035/641 274/642 761/256
f 211/134 197/470 198/139
f 801/58 440/206 444/65
f 210/142 200/505 199/143
f 595/512 1071/643 593/644
f 782/645 1050/646 1240/25
f 242/647 1159/531 238/162
f 1151/648 1002/649 705/650
f 120/651 1065/652 119/653
f 1210/538 318/654 316/655
f 543/559 1017/527 541/558
f 994/656 1270/657 1151/648
f 22/658 1067/397 4/396
f 31/659 1086/637 15/43
f 1088/619 724/660 1018/560
f 381/661 1057/596 1125/594
f 1106/662 1220/663 834/664
f 223/665 704/317 226/666
f 1027/616 1267/568 741/567
f 814/526 1020/527 1091/528
f 128/667 1066/668 127/669
f 941/471 1160/670 246/671
f 228/2 226/672 231/128
f 225/178 227/673 230/170
f 1038/545 756/546 1109/547
f 1047/543 544/505 542/139
f 1251/511 729/674 1071/643
f 946/597 999/524 1269/675
f 851/513 1236/161 786/514
f 494/557 805/58 484/65
f 24/29 1158/676 22/677
f 1104/153 877/636 1155/637
f 554/142 1195/678 556/140
f 210/142 1225/678 212/140
f 511/679 807/160 509/41
f 23/45 16/44 32/42
f 234/292 239/680 243/681
f 896/682 1260/355 1125/353
f 755/683 1219/407 851/513
f 240/684 1043/685 236/686
f 997/687 1227/408 882/688
f 631/689 1142/618 629/690
f 247/691 1059/692 941/471
f 1247/693 698/694 1131/676
f 1103/153 696/636 1001/637
f 779/608 1026/695 988/532
f 972/265 445/602 455/281
f 1041/696 851/513 1121/618
f 474/557 955/58 464/65
f 555/512 1039/643 553/644
f 207/689 1121/618 205/690
f 531/679 961/160 529/41
f 722/12 519/207 522/20
f 119/653 1116/697 118/698
f 1044/325 984/532 766/608
f 707/564 1226/239 881/530
f 763/266 309/699 314/598
f 244/700 1218/701 240/684
f 298/702 890/339 293/703
f 1081/704 856/705 795/548
f 17/658 1188/397 1/396
f 1135/618 811/514 1088/619
f 1073/619 702/660 1008/560
f 1205/706 316/654 315/376
f 688/181 1101/360 1145/183
f 797/551 1110/498 1062/497
f 561/53 963/158 576/457
f 929/707 1123/708 1191/518
f 1020/527 582/139 581/558
f 453/19 954/177 447/220
f 594/142 1115/678 596/140
f 28/659 1155/637 14/43
f 765/138 365/333 362/332
f 764/599 318/267 763/266
f 870/709 1030/710 779/608
f 632/124 1055/711 631/712
f 591/689 1138/618 589/690
f 865/513 1254/161 815/514
f 689/713 1102/714 687/715
f 1141/553 623/716 624/505
f 317/717 982/278 983/609
f 126/718 1153/719 125/720
f 23/659 1060/637 11/43
f 320/285 324/721 326/286
f 1244/612 990/722 1264/723
f 972/265 448/218 456/64
f 30/658 1212/397 8/396
f 492/219 719/12 482/20
f 1250/511 733/674 1216/643
f 321/295 325/428 323/296
f 1029/51 867/724 775/552
f 976/265 525/602 535/281
f 1167/725 327/299 1166/298
f 754/552 1120/553 1040/543
f 1185/303 1127/726 328/301
f 1245/410 241/727 1099/728
f 1229/606 323/296 325/447
f 127/669 1117/729 126/718
f 1120/553 199/716 200/505
f 773/683 1015/407 865/513
f 238/162 1002/730 233/731
f 852/732 1075/132 787/733
f 265/19 793/177 259/220
f 556/140 1090/511 555/512
f 389/196 800/39 387/38
f 894/734 1166/298 893/605
f 1152/735 924/566 1176/516
f 696/636 1188/397 695/645
f 551/689 1135/618 549/690
f 989/736 1174/480 752/540
f 1231/693 878/694 1157/676
f 731/542 1054/543 1023/527
f 757/737 1273/469 1111/738
f 633/638 1262/547 634/142
f 1116/697 874/565 1152/735
f 843/265 505/602 515/281
f 716/12 439/207 442/20
f 553/638 1147/547 554/142
f 1115/678 816/733 1251/511
f 834/664 1272/739 1124/740
f 1051/543 584/505 582/139
f 454/557 801/58 444/65
f 1111/738 1064/741 994/656
f 1124/740 1011/742 235/743
f 835/265 257/602 267/281
f 552/124 1048/711 551/712
f 1147/547 863/732 1195/678
f 673/485 938/61 674/59
f 771/546 1136/130 863/732
f 858/744 1255/510 1203/504
f 1085/714 384/181 1084/360
f 209/638 1109/547 210/142
f 1169/363 1187/182 386/361
f 1131/745 876/645 1221/397
f 1242/556 989/736 1263/539
f 703/746 1042/148 756/546
f 297/747 951/294 295/748
f 892/749 1205/750 1123/706
f 263/679 792/160 261/41
f 787/733 1009/274 703/674
f 772/552 1137/553 1051/543
f 379/354 1260/355 1028/502
f 727/542 1051/543 1020/527
f 922/751 1171/363 910/595
f 677/386 1100/337 679/336
f 1055/696 868/513 1142/618
f 124/752 1209/554 123/753
f 857/709 1202/710 1110/498
f 380/503 800/39 379/354
f 1005/52 772/552 727/542
f 248/754 1164/755 853/756
f 245/757 995/416 708/758
f 770/683 1097/407 862/513
f 863/732 1089/132 812/733
f 809/58 520/206 524/65
f 630/122 1024/560 632/124
f 1037/759 371/347 368/346
f 1036/760 781/761 1066/668
f 266/557 949/58 256/65
f 1238/762 784/74 35/571
f 832/525 1268/75 1238/762
f 823/551 1208/498 870/709
f 875/763 1189/764 923/765
f 684/503 826/39 872/37
f 991/766 1259/236 789/767
f 980/555 1077/768 989/736
f 839/224 762/215 299/769
f 1014/770 886/771 1228/772
f 11/43 1240/25 3/27
f 974/265 488/218 496/64
f 838/323 282/187 283/306
f 794/749 1210/537 1205/706
f 19/29 1146/676 17/677
f 995/416 244/773 709/774
f 1065/652 848/775 1116/697
f 704/317 231/157 226/666
f 891/322 312/699 309/308
f 596/140 1251/511 595/512
f 300/776 928/225 296/545
f 1230/693 879/694 1158/676
f 264/219 884/12 254/20
f 1199/51 864/724 772/552
f 32/29 1157/676 30/677
f 824/601 1132/355 1246/502
f 1146/745 695/645 1188/397
f 715/378 314/777 313/438
f 1253/596 686/482 685/661
f 988/778 1243/497 823/551
f 1078/779 948/780 1218/701
f 1040/543 200/505 198/139
f 1125/353 379/354 381/781
f 805/58 480/206 484/65
f 1216/545 777/546 1262/547
f 299/769 889/217 294/782
f 1168/783 799/600 896/682
f 867/724 1094/784 1141/553
f 290/248 888/188 285/234
f 685/661 1192/594 1253/596
f 708/758 709/774 241/785
f 206/122 1008/560 208/124
f 1008/560 755/786 1041/711
f 275/787 885/258 270/788
f 777/546 1143/130 869/732
f 729/746 1053/148 774/546
f 635/512 1216/643 633/644
f 550/122 538/121 537/49
f 1024/560 776/786 1055/711
f 539/123 540/150 552/124
f 1031/547 866/732 1115/678
f 843/265 508/218 516/64
f 205/690 1073/619 206/122
f 452/219 716/12 442/20
f 118/698 1152/735 117/515
f 555/134 541/470 542/139
f 1048/696 862/513 1135/618
f 554/142 544/505 543/143
f 1117/729 875/763 1153/719
f 1252/387 797/551 984/778
f 998/205 298/702 762/215
f 1095/619 732/660 1024/560
f 125/720 1175/789 124/790
f 924/566 1181/454 943/791
f 856/792 1185/303 931/614
f 1126/793 929/794 855/536
f 930/795 1233/796 1193/640
f 121/797 1034/541 120/651
f 1182/444 892/798 929/707
f 116/517 1211/610 115/799
f 955/58 460/206 464/65
f 1264/723 753/800 1036/760
f 650/666 965/158 655/157
f 471/679 803/160 469/41
f 688/181 1197/182 690/361
f 1001/637 695/645 1000/25
f 572/2 570/672 575/128
f 569/178 571/673 574/170
f 650/666 979/437 734/317
f 578/121 577/49 589/48
f 848/775 1213/404 874/565
f 579/123 580/150 592/124
f 10/43 1000/25 2/27
f 1084/360 858/744 798/601
f 1062/497 372/341 371/347
f 942/801 1074/802 980/555
f 1017/527 542/139 541/558
f 595/134 581/470 582/139
f 513/19 808/177 507/220
f 594/142 584/505 583/143
f 212/140 1063/511 211/512
f 882/688 1245/410 996/803
f 724/660 1149/201 770/786
f 732/660 1237/201 776/786
f 1266/562 1265/106 700/108
f 944/645 1223/646 1178/25
f 629/690 1095/619 630/122
f 113/804 1036/760 128/667
f 325/447 1233/604 1229/606
f 872/37 686/482 684/503
f 1235/550 324/805 323/447
f 1107/806 992/807 836/808
f 1159/531 705/809 1002/730
f 884/12 251/207 254/20
f 1086/637 944/645 1178/25
f 1112/51 861/724 769/552
f 236/686 1271/810 1106/662
f 900/12 459/207 462/20
f 612/2 610/672 615/128
f 609/178 611/673 614/170
f 1176/516 943/791 1211/610
f 630/122 618/121 617/49
f 678/464 1258/465 677/417
f 619/123 620/150 632/124
f 853/756 1078/779 244/700
f 829/579 1105/523 45/580
f 1272/739 705/650 1011/742
f 850/724 1072/784 1120/553
f 756/546 1122/130 852/732
f 635/134 621/470 622/139
f 1006/52 775/552 731/542
f 634/142 624/505 623/143
f 1063/511 703/674 1038/643
f 1119/52 769/552 723/542
f 970/811 1163/490 991/766
f 1133/553 543/716 544/505
f 990/722 1148/209 753/800
f 1261/307 701/542 785/526
f 1137/553 583/716 584/505
f 1175/812 942/801 1209/554
f 783/636 1067/397 782/645
f 815/514 1070/163 728/660
f 1266/562 1267/568 1265/106
f 1271/810 994/656 1220/663
f 984/778 1062/497 1037/759
f 566/813 813/17 571/814
f 672/345 778/138 671/136
f 776/683 1108/407 868/513
f 1202/710 368/815 370/340
f 1060/637 782/645 1240/25
f 652/2 650/672 655/128
f 649/178 651/673 654/170
f 606/813 817/17 611/814
f 976/265 528/218 536/64
f 1153/719 923/765 1175/789
f 741/567 1266/562 1206/561
f 601/53 964/158 616/457
f 634/142 1207/678 636/140
f 604/544 907/379 613/127
f 1140/307 727/542 814/526
f 614/170 817/17 907/379
f 282/187 887/186 277/816
f 897/595 1125/594 1057/596
f 861/724 1087/784 1133/553
f 943/791 1076/171 981/611
f 1267/568 699/631 1265/106
f 115/799 1244/612 114/817
f 300/776 998/205 839/224
f 923/818 1179/383 942/801
f 911/202 683/354 685/781
f 257/602 760/6 250/603
f 550/122 1018/560 552/124
f 812/733 1019/274 725/674
f 493/19 958/177 487/220
f 1246/502 1132/355 683/354
f 679/336 1144/326 680/324
f 1172/362 690/361 1171/363
f 1107/806 925/819 1180/820
f 926/323 287/187 288/306
f 592/124 1052/711 591/712
f 15/43 1178/25 7/27
f 893/605 1235/821 1229/606
f 1161/484 712/822 992/807
f 326/805 1200/615 1193/639
f 1121/618 786/514 1073/619
f 718/4 460/5 767/6
f 101/823 155/99 102/431
f 75/398 37/824 38/825
f 98/826 160/827 159/828
f 143/492 128/829 127/830
f 125/831 142/493 126/832
f 99/13 157/92 100/165
f 138/427 123/833 122/834
f 137/835 122/836 121/837
f 105/838 138/427 137/835
f 53/839 406/189 423/840
f 104/841 137/835 136/842
f 905/4 520/5 937/6
f 1015/407 587/411 1254/161
f 691/38 680/348 692/283
f 1181/454 95/843 1076/171
f 56/369 87/844 55/845
f 837/419 286/235 926/323
f 144/344 113/846 128/847
f 55/845 427/499 407/370
f 35/848 79/23 34/849
f 255/21 791/57 949/58
f 149/103 109/850 108/290
f 748/141 503/21 959/58
f 1208/498 674/340 1030/710
f 160/827 175/851 159/828
f 49/400 82/852 81/853
f 344/422 341/460 339/509
f 95/854 64/501 96/855
f 385/713 1085/714 1168/783
f 68/856 44/857 45/858
f 411/214 68/856 67/445
f 101/823 157/112 156/114
f 69/388 43/859 44/860
f 85/861 52/862 53/839
f 60/863 93/864 92/865
f 133/166 118/866 117/867
f 103/868 155/111 154/110
f 80/394 48/869 33/870
f 135/432 120/871 119/872
f 134/433 119/873 118/874
f 110/491 148/118 147/120
f 76/875 36/876 37/877
f 130/487 115/878 114/879
f 74/399 38/880 39/881
f 126/882 143/492 127/883
f 64/501 81/884 96/885
f 140/292 125/886 124/887
f 136/842 121/888 120/889
f 178/890 161/101 162/891
f 50/466 83/892 82/893
f 60/863 431/356 420/385
f 396/304 394/424 391/351
f 132/14 117/894 116/895
f 34/896 80/394 33/897
f 938/61 667/330 822/60
f 51/496 84/898 83/899
f 337/56 331/900 332/901
f 378/313 373/417 374/464
f 111/902 147/70 146/72
f 115/903 132/14 116/904
f 67/445 45/905 46/906
f 95/907 62/212 63/358
f 41/908 73/474 40/909
f 104/841 152/68 105/838
f 47/910 67/445 46/911
f 114/912 129/343 130/487
f 106/426 150/83 107/390
f 89/913 58/374 90/914
f 918/141 523/21 809/58
f 689/450 688/181 690/361
f 103/868 136/842 135/432
f 180/915 163/119 164/916
f 618/121 1045/167 1029/51
f 1179/383 87/917 1074/802
f 844/10 521/11 722/12
f 669/333 668/63 670/275
f 59/918 90/919 58/374
f 675/347 673/485 676/341
f 327/920 1127/921 1081/704
f 60/863 91/922 59/918
f 123/923 140/391 124/924
f 61/384 94/925 93/926
f 159/96 99/13 98/826
f 70/357 42/927 43/928
f 57/477 88/929 56/369
f 153/77 103/868 154/78
f 73/474 39/930 40/931
f 36/932 78/24 35/933
f 108/934 150/117 149/116
f 53/935 86/936 85/937
f 55/845 86/938 54/939
f 105/838 151/86 106/426
f 112/342 160/81 97/486
f 145/102 111/902 146/100
f 47/940 65/941 66/446
f 336/55 333/294 331/942
f 52/862 436/22 406/189
f 182/26 165/943 166/115
f 553/135 541/470 555/134
f 360/34 347/944 356/36
f 349/261 343/458 344/422
f 1026/759 675/347 1243/497
f 1022/184 599/185 1053/148
f 915/202 379/354 800/39
f 397/458 400/261 399/260
f 424/840 77/190 76/875
f 15/43 1/41 9/44
f 21/53 32/42 30/129
f 744/483 272/945 950/534
f 537/50 1112/51 1119/52
f 54/939 423/946 427/499
f 365/333 364/63 361/62
f 535/281 987/282 976/265
f 578/121 592/124 580/150
f 192/947 175/851 176/948
f 320/285 1182/194 1126/793
f 363/179 358/33 359/32
f 338/54 332/251 334/949
f 413/401 66/446 65/941
f 1030/710 672/815 1026/695
f 314/598 307/334 311/264
f 223/1 228/2 221/3
f 1077/768 89/950 1174/480
f 198/139 210/142 212/140
f 101/823 134/433 133/166
f 1099/728 237/951 1226/239
f 369/485 932/61 895/137
f 1213/404 93/952 1134/452
f 109/850 142/493 141/291
f 59/918 430/7 431/356
f 1113/414 85/953 1189/764
f 418/213 69/388 68/856
f 664/34 657/944 663/395
f 845/425 574/170 906/379
f 1074/802 88/954 1077/768
f 286/235 888/188 926/323
f 1219/407 203/411 1236/161
f 578/121 1046/167 1199/51
f 13/44 2/27 5/41
f 410/375 73/474 72/8
f 111/902 144/344 143/492
f 98/826 131/15 130/487
f 503/21 806/57 959/58
f 1257/366 245/757 1227/408
f 1101/360 871/744 1145/183
f 841/265 468/218 476/64
f 247/691 993/473 790/955
f 1092/619 728/660 1021/560
f 220/544 880/379 229/127
f 992/807 1014/770 1035/641
f 1220/663 1151/648 1272/739
f 737/582 41/586 968/585
f 324/721 1200/615 326/805
f 680/324 1058/325 678/464
f 824/601 1196/504 871/744
f 1039/545 771/546 1147/547
f 869/732 1096/132 820/733
f 864/724 1091/784 1137/553
f 841/265 465/602 475/281
f 831/592 1238/762 35/571
f 868/513 1248/161 819/514
f 644/544 908/379 653/127
f 785/526 1007/527 1072/528
f 735/570 33/574 736/573
f 246/671 1016/563 759/956
f 1164/755 789/767 1078/779
f 472/219 900/12 462/20
f 382/482 1057/596 381/661
f 188/957 699/631 738/630
f 641/53 965/158 656/457
f 1239/242 761/256 275/787
f 1109/547 852/732 1225/678
f 1091/528 581/558 583/559
f 1157/745 944/645 1212/397
f 1054/543 624/505 622/139
f 610/666 978/437 730/317
f 910/595 1183/510 1253/596
f 1158/745 782/645 1067/397
f 1232/364 991/766 1164/755
f 686/482 911/506 685/661
f 784/74 913/588 830/590
f 1052/696 865/513 1138/618
f 1142/618 819/514 1095/619
f 946/597 968/585 39/73
f 570/666 977/437 726/317
f 1018/560 770/786 1048/711
f 1100/337 870/709 1144/326
f 974/265 485/602 495/281
f 831/592 735/570 736/573
f 1241/693 697/694 1146/676
f 276/958 1161/484 1107/806
f 796/463 362/332 363/959
f 849/960 1113/414 875/763
f 1010/593 832/525 831/592
f 769/552 1133/553 1047/543
f 589/690 1092/619 590/122
f 1163/490 243/961 1259/236
f 1034/541 780/962 1065/652
f 798/601 1203/504 1028/502
f 1262/547 869/732 1207/678
f 827/963 1003/155 697/694
f 914/18 227/814 222/813
f 912/576 1105/523 832/525
f 570/666 963/158 575/157
f 813/17 574/170 571/814
f 382/482 915/506 934/284
f 451/679 953/160 449/41
f 903/12 499/207 502/20
f 719/12 479/207 482/20
f 790/955 758/520 243/681
f 646/813 821/17 651/814
f 1043/685 1111/738 1271/810
f 1273/469 706/964 1064/741
f 1090/511 725/674 1039/643
f 1171/363 939/965 910/595
f 27/29 1131/676 25/677
f 871/744 1183/510 939/965
f 1155/637 876/645 1154/25
f 114/817 1264/723 113/804
f 759/956 1013/529 242/647
f 784/74 830/590 35/571
f 284/235 927/419 280/966
f 445/602 935/6 438/603
f 227/814 880/379 230/170
f 1225/678 787/733 1063/511
f 1207/678 820/733 1250/511
f 1145/183 939/965 1197/182
f 913/588 37/591 830/590
f 485/602 936/6 478/603
f 766/608 1037/695 1202/710
f 946/597 737/582 968/585
f 1064/741 1118/967 1270/657
f 610/666 964/158 615/157
f 836/808 1035/641 1239/242
f 654/170 821/17 908/379
f 831/592 736/573 47/577
f 1195/678 812/733 1090/511
f 388/283 934/284 390/314
f 993/473 242/88 758/520
f 1007/527 198/139 197/558
f 1059/692 882/688 1160/670
f 1082/488 997/687 1059/692
f 671/136 909/137 673/485
f 491/679 957/160 489/41
f 945/636 1212/397 944/645
f 948/780 1061/373 757/737
f 688/181 1102/714 1101/360
f 1045/167 818/968 867/724
f 211/512 1038/643 209/644
f 1203/504 382/482 380/503
f 505/602 768/6 498/603
f 1160/670 996/803 1016/563
f 20/659 1001/637 10/43
f 1023/527 622/139 621/558
f 1270/657 233/969 1002/649
f 1218/701 757/737 1043/685
f 549/690 1088/619 550/122
f 877/636 1221/397 876/645
f 970/811 1257/366 997/687
f 312/308 715/280 313/970
f 473/19 804/177 467/220
f 276/958 1180/820 272/971
f 933/965 1169/363 897/595
f 1021/560 773/786 1052/711
f 208/124 1041/711 207/712
f 1110/498 370/340 372/341
f 1169/363 896/751 897/595
f 835/265 260/218 268/64
f 512/219 903/12 502/20
f 932/61 363/330 366/275
f 1123/706 315/279 317/376
f 122/972 1263/539 121/797
f 533/19 962/177 527/220
f 185/627 1267/568 1027/616
f 799/600 1084/360 798/601
f 25/658 1221/397 5/396
f 123/753 1242/556 122/972
f 701/542 1040/543 1007/527
f 1066/668 849/960 1117/729
f 274/642 1228/772 269/973
f 1094/528 621/558 623/559
f 922/682 1132/355 825/600
f 996/803 1099/728 707/564
f 1249/307 731/542 818/526
f 752/540 1032/230 780/962
f 1172/783 825/600 1102/714
f 1173/153 945/636 1086/637
f 434/402 65/941 80/394
f 1083/337 857/709 797/551
f 820/733 1025/274 733/674
f 1184/329 894/974 930/795
f 1165/195 794/975 892/749
f 1129/326 766/608 857/709
f 1098/167 810/968 861/724
f 733/746 1056/148 777/546
f 783/636 1230/693 1068/28
f 702/660 1204/201 755/786
f 810/526 1119/52 723/542
f 1185/303 930/976 931/614
f 811/514 1177/163 724/660
f 1166/298 795/977 893/605
f 1046/167 814/968 864/724
f 781/761 1215/277 849/960
f 816/733 1022/274 729/674
f 712/822 1162/254 886/771
f 836/808 1190/244 925/819
f 966/963 1050/155 879/694
f 881/530 1011/241 705/809
f 789/767 1186/238 948/780
f 780/962 1224/232 848/775
f 1114/167 785/968 850/724
f 753/800 1033/211 781/761
f 728/660 1150/201 773/786
f 1079/195 855/794 794/749
f 725/746 1049/148 771/546
f 1130/183 933/965 858/744
f 967/963 1223/155 878/694
f 981/611 1170/173 990/722
f 819/514 1217/163 732/660
f 1234/51 850/724 754/552
f 786/514 1156/163 702/660
f 828/963 1004/155 698/694
f 774/546 1139/130 866/732
f 866/732 1093/132 816/733
f 1128/52 754/552 701/542
f 696/636 1241/693 1198/28
f 695/645 1003/646 1000/25
f 945/636 1231/693 1214/28
f 877/636 1247/693 1222/28
f 876/645 1004/646 1154/25
f 567/1 570/672 572/2
f 899/4 446/66 440/5
f 429/7 410/375 72/8
f 842/10 491/679 481/11
f 99/13 100/165 132/14
f 221/16 228/380 788/17
f 453/19 452/219 442/20
f 435/22 416/393 79/23
f 1154/25 1004/646 26/26
f 1222/28 1247/693 27/29
f 1214/28 1231/693 32/29
f 1000/25 1003/646 18/26
f 1198/28 1241/693 19/29
f 348/31 347/318 359/32
f 664/34 661/245 659/35
f 873/37 388/283 387/38
f 355/35 357/245 360/34
f 21/40 30/46 8/41
f 18/40 25/46 5/41
f 19/42 31/45 15/43
f 24/42 28/45 14/43
f 20/45 10/43 13/44
f 17/46 1/41 7/27
f 22/46 4/41 6/27
f 619/47 631/228 629/48
f 193/50 194/121 1234/51
f 24/42 22/129 26/53
f 338/54 335/449 336/55
f 463/21 459/208 802/57
f 370/59 368/310 796/60
f 665/62 661/245 664/34
f 536/64 534/557 524/65
f 169/67 168/435 152/68
f 147/70 163/247 162/71
f 1268/75 999/524 946/597
f 946/597 39/73 1268/75
f 170/76 169/192 153/77
f 145/79 161/312 176/80
f 167/82 166/442 150/83
f 168/85 167/479 151/86
f 706/521 758/520 1118/90
f 758/520 242/88 1118/90
f 174/91 173/495 157/92
f 175/94 174/175 158/95
f 156/97 172/421 171/98
f 146/100 162/891 161/101
f 149/103 165/152 164/104
f 1265/106 699/631 189/107
f 171/109 170/227 154/110
f 157/112 173/508 172/113
f 166/115 165/943 149/116
f 148/118 164/916 163/119
f 513/19 512/219 502/20
f 602/126 604/544 613/127
f 18/53 20/45 27/42
f 1139/130 597/149 598/131
f 583/133 581/470 595/134
f 367/136 369/485 895/137
f 747/141 473/19 463/21
f 305/145 308/389 304/146
f 1053/148 599/185 597/149
f 618/121 630/122 632/124
f 181/151 180/978 164/104
f 1104/153 28/659 26/154
f 749/156 562/782 575/157
f 844/10 532/219 527/159
f 1236/161 203/411 201/162
f 441/11 437/478 898/164
f 100/165 101/823 133/166
f 194/121 196/150 1114/167
f 1248/161 627/411 625/162
f 643/168 641/979 656/169
f 1076/171 95/843 96/172
f 1173/153 31/659 29/154
f 191/174 190/980 174/175
f 840/10 451/679 441/11
f 743/141 266/557 260/176
f 667/179 663/32 662/33
f 973/10 472/219 467/159
f 384/181 386/361 1187/182
f 14/43 6/27 4/41
f 493/19 492/219 482/20
f 1019/184 560/981 559/185
f 745/186 289/816 287/187
f 405/189 435/22 78/24
f 186/191 185/982 169/192
f 319/193 320/448 1126/194
f 389/196 387/38 375/197
f 1070/163 585/162 586/200
f 693/196 691/38 826/39
f 746/203 297/747 714/204
f 1148/209 81/461 82/210
f 62/212 61/384 417/213
f 762/215 298/702 293/216
f 401/221 402/436 396/222
f 352/221 351/436 345/222
f 839/224 299/769 294/184
f 187/226 186/983 170/227
f 537/49 539/47 551/228
f 196/150 195/984 1261/229
f 1032/230 90/481 91/231
f 291/233 290/255 285/234
f 1259/236 243/961 239/237
f 1226/239 237/951 235/240
f 358/33 357/245 355/35
f 1080/153 23/659 21/154
f 1239/242 275/787 270/243
f 361/62 364/63 360/34
f 179/246 178/985 162/71
f 748/141 514/557 508/176
f 713/188 281/234 279/248
f 328/249 327/920 329/250
f 362/180 361/62 357/245
f 1069/252 273/533 271/253
f 17/129 29/53 31/45
f 281/234 284/235 280/233
f 761/256 274/642 269/257
f 404/259 403/288 399/260
f 971/10 264/219 259/159
f 743/141 265/19 255/21
f 353/259 354/288 350/260
f 516/64 506/66 721/4
f 971/10 263/679 253/11
f 521/11 517/478 904/164
f 306/145 305/269 303/272
f 1093/132 598/131 600/273
f 909/137 669/333 670/275
f 742/156 218/782 231/157
f 1033/211 82/210 83/276
f 455/281 450/986 985/282
f 692/283 694/314 940/284
f 354/288 352/987 346/289
f 750/156 602/782 615/157
f 975/10 512/219 507/159
f 108/290 109/850 141/291
f 746/203 300/776 296/293
f 580/150 579/984 1140/229
f 542/139 544/505 554/142
f 1194/161 547/411 545/162
f 328/301 330/988 1184/302
f 289/305 292/462 288/306
f 1256/307 539/349 537/50
f 309/308 312/699 306/309
f 177/311 192/989 176/80
f 692/283 680/348 682/313
f 693/196 681/198 679/197
f 1156/163 201/162 202/200
f 566/315 571/673 569/178
f 225/316 232/457 947/158
f 1068/28 1230/693 24/29
f 516/64 514/557 504/65
f 658/31 662/33 663/32
f 1025/184 640/981 639/185
f 318/320 317/519 983/321
f 284/235 281/234 713/188
f 540/150 539/984 1256/229
f 538/121 550/122 552/124
f 376/324 374/464 1044/325
f 321/193 319/297 1079/327
f 265/19 264/219 254/20
f 917/141 493/19 483/21
f 330/250 329/251 1167/328
f 1096/132 638/131 640/273
f 307/310 306/309 301/334
f 375/336 376/324 1129/326
f 714/204 297/747 295/338
f 721/4 506/66 500/5
f 112/342 97/486 129/343
f 619/349 617/50 1006/52
f 395/350 396/304 391/351
f 1192/353 685/781 683/354
f 432/356 429/7 71/9
f 16/44 11/43 3/27
f 606/315 611/673 609/178
f 63/358 62/212 412/214
f 199/133 197/470 211/134
f 386/361 385/990 1168/362
f 1232/364 248/754 883/365
f 872/37 826/39 691/38
f 694/314 682/313 681/367
f 56/369 55/845 407/370
f 1186/238 239/237 234/372
f 916/141 453/19 443/21
f 58/374 57/477 409/375
f 959/58 806/57 500/206
f 315/376 316/654 764/377
f 907/379 817/17 612/380
f 1189/381 85/991 86/382
f 61/384 60/863 420/385
f 373/386 375/336 1083/337
f 456/64 454/557 444/65
f 387/38 388/283 376/348
f 419/385 432/356 70/357
f 1049/148 559/185 557/149
f 310/335 311/334 308/389
f 918/141 534/557 528/176
f 107/390 108/934 140/391
f 416/393 434/402 80/394
f 538/121 540/150 1098/167
f 195/349 193/50 1128/52
f 476/64 466/66 718/4
f 975/10 511/679 501/11
f 364/63 363/331 359/395
f 1222/28 13/30 5/396
f 408/370 428/499 75/398
f 49/400 64/501 414/401
f 747/141 474/557 468/176
f 1224/232 91/231 92/403
f 1204/405 202/992 204/406
f 1227/408 245/757 708/409
f 1097/407 548/406 547/411
f 536/64 526/66 905/4
f 1149/405 546/992 548/406
f 308/263 307/389 302/146
f 778/138 666/332 669/333
f 1215/277 83/276 84/413
f 603/168 601/979 616/169
f 523/21 519/208 960/57
f 515/281 510/986 860/282
f 194/121 206/122 208/124
f 473/19 472/219 462/20
f 883/365 248/754 853/415
f 620/150 619/984 1249/229
f 682/313 678/464 677/417
f 838/323 283/306 278/418
f 711/4 258/66 252/5
f 188/420 187/993 171/98
f 398/422 397/458 393/423
f 268/64 266/557 256/65
f 666/180 662/33 661/245
f 1009/184 216/981 215/185
f 533/19 532/219 522/20
f 846/425 603/168 614/170
f 1089/132 558/131 560/273
f 106/426 107/390 139/392
f 222/315 227/673 225/178
f 917/141 494/557 488/176
f 496/64 494/557 484/65
f 326/428 325/286 321/429
f 102/431 103/868 135/432
f 973/10 471/679 461/11
f 185/434 184/994 168/435
f 483/21 479/208 956/57
f 579/349 577/50 1005/52
f 842/10 492/219 487/159
f 388/283 390/314 378/313
f 617/50 618/121 1029/51
f 1217/163 625/162 626/200
f 351/436 353/259 349/261
f 969/437 224/455 225/316
f 267/281 262/986 854/282
f 443/21 439/208 952/57
f 312/438 313/970 310/271
f 346/350 345/304 340/439
f 495/281 490/986 986/282
f 183/441 182/995 166/442
f 916/141 454/557 448/176
f 390/314 389/368 377/367
f 456/64 446/66 899/4
f 322/430 321/429 1165/443
f 219/168 217/979 232/169
f 1237/405 626/992 628/406
f 426/359 411/214 67/445
f 268/64 258/66 711/4
f 323/447 324/805 320/448
f 577/50 578/121 1199/51
f 646/315 651/673 649/178
f 335/449 338/54 334/450
f 1134/452 93/952 94/453
f 920/18 605/16 612/380
f 734/317 979/437 648/455
f 385/450 386/361 384/181
f 647/1 650/672 652/2
f 734/317 649/316 656/457
f 919/18 565/16 572/380
f 253/11 249/478 710/164
f 343/458 346/319 342/459
f 1170/173 96/172 81/461
f 1214/28 16/30 8/396
f 283/306 282/187 277/305
f 195/47 207/228 205/48
f 822/463 667/959 666/332
f 1198/28 9/30 1/396
f 1068/28 12/30 4/396
f 461/11 457/478 717/164
f 562/126 564/544 573/127
f 1075/132 214/131 216/273
f 1108/407 628/406 627/411
f 374/464 373/417 1252/465
f 579/47 591/228 589/48
f 50/466 49/400 433/402
f 662/33 658/31 659/35
f 397/458 395/319 392/467
f 1061/373 234/372 1012/468
f 496/64 486/66 902/4
f 726/317 977/437 568/455
f 921/18 645/16 652/380
f 1056/148 639/185 637/149
f 833/425 219/168 230/170
f 635/134 633/135 623/133
f 908/379 821/17 652/380
f 1042/148 215/185 213/149
f 941/471 246/671 759/472
f 422/371 408/370 74/399
f 368/345 367/136 765/138
f 902/4 486/66 480/5
f 751/156 642/782 655/157
f 1254/161 587/411 585/162
f 71/9 72/8 41/475
f 1136/130 557/149 558/131
f 57/477 56/369 421/371
f 501/11 497/478 720/164
f 184/478 183/996 167/479
f 1174/480 89/950 90/481
f 1103/153 20/659 18/154
f 847/425 643/168 654/170
f 873/37 380/503 382/482
f 840/10 452/219 447/159
f 1150/405 586/992 588/406
f 744/483 273/533 1069/252
f 371/347 372/341 369/485
f 730/317 978/437 608/455
f 726/317 569/316 576/457
f 402/436 404/259 400/261
f 1122/130 213/149 214/131
f 730/317 609/316 616/457
f 572/380 573/127 906/379
f 1240/25 1050/646 21/26
f 1178/25 1223/646 29/26
f 97/486 98/826 130/487
f 1082/488 247/691 790/489
f 607/1 610/672 612/2
f 110/491 111/902 143/492
f 622/139 624/505 634/142
f 1143/130 637/149 638/131
f 476/64 474/557 464/65
f 190/494 189/997 173/495
f 403/288 401/987 395/289
f 313/438 314/777 311/334
f 642/126 644/544 653/127
f 51/496 50/466 415/393
f 475/281 470/986 859/282
f 1177/163 545/162 546/200
f 1243/497 675/347 676/341
f 788/17 228/380 229/127
f 428/499 424/946 76/500
f 668/63 664/34 663/395
f 64/501 63/358 425/359
f 1246/502 683/354 684/503
f 481/11 477/478 901/164
f 596/140 582/139 584/505
f 940/284 694/314 693/368
f 189/507 188/998 172/113
f 563/168 561/979 576/169
f 218/126 220/544 229/127
f 345/304 344/422 339/509
f 1196/504 684/503 686/482
f 934/284 915/506 389/368
f 636/140 1207/678 1250/511
f 862/513 1097/407 1194/161
f 217/53 742/156 947/158
f 117/515 1152/735 1176/516
f 1191/518 1123/708 317/519
f 234/292 243/681 1012/522
f 243/681 758/520 1012/522
f 1105/523 1269/675 999/524
f 818/526 731/542 1023/527
f 1013/529 707/564 881/530
f 1058/325 779/608 988/532
f 273/533 744/483 950/534
f 855/536 929/794 1191/537
f 1263/539 989/736 752/540
f 895/137 932/61 366/275
f 723/542 769/552 1047/543
f 564/544 845/425 906/379
f 1071/545 729/746 774/546
f 795/548 856/705 1201/549
f 674/59 938/61 822/60
f 1258/387 988/778 823/551
f 775/552 867/724 1141/553
f 1209/554 942/801 980/555
f 532/219 844/10 722/12
f 534/557 918/141 809/58
f 1072/528 1007/527 197/558
f 590/122 1092/619 1021/560
f 700/108 177/620 1206/561
f 1016/563 996/803 707/564
f 874/565 1213/404 1134/452
f 1028/502 1203/504 380/503
f 1087/528 810/526 723/542
f 34/569 33/574 735/570
f 48/572 47/577 736/573
f 46/575 45/580 912/576
f 44/578 43/583 829/579
f 42/581 41/586 737/582
f 40/584 39/73 968/585
f 38/587 37/591 913/588
f 36/589 35/571 830/590
f 47/577 912/576 1010/593
f 1192/594 922/751 910/595
f 1101/360 1102/714 825/600
f 525/602 905/4 937/6
f 514/557 748/141 959/58
f 1233/604 894/734 893/605
f 190/607 739/632 700/108
f 1144/326 870/709 779/608
f 949/58 791/57 252/206
f 1255/510 933/965 897/595
f 292/418 837/419 926/323
f 1211/610 943/791 981/611
f 1201/613 856/792 931/614
f 740/635 181/617 741/567
f 181/617 183/625 1027/616
f 465/602 718/4 767/6
f 1138/618 865/513 815/514
f 187/629 188/957 738/630
f 191/633 177/620 739/632
f 179/622 181/617 740/635
f 740/635 741/567 1206/561
f 1260/355 799/600 798/601
f 1080/153 966/963 783/636
f 593/638 1071/545 1031/547
f 931/614 930/976 1193/639
f 1193/640 1233/796 325/286
f 14/43 1155/637 1154/25
f 1035/641 1014/770 274/642
f 801/58 952/57 440/206
f 595/512 1251/511 1071/643
f 782/645 879/999 1050/646
f 242/647 1013/529 1159/531
f 1151/648 1270/657 1002/649
f 120/651 1034/541 1065/652
f 1210/538 1191/537 318/654
f 543/559 1087/528 1017/527
f 994/656 1064/741 1270/657
f 22/658 1158/745 1067/397
f 31/659 1173/153 1086/637
f 1088/619 811/514 724/660
f 1106/662 1271/810 1220/663
f 223/665 969/437 704/317
f 814/526 727/542 1020/527
f 128/667 1036/760 1066/668
f 941/471 1059/692 1160/670
f 1038/545 703/746 756/546
f 1047/543 1133/553 544/505
f 1251/511 816/733 729/674
f 1269/675 829/579 43/583
f 43/583 946/597 1269/675
f 851/513 1219/407 1236/161
f 494/557 917/141 805/58
f 24/29 1230/693 1158/676
f 1104/153 828/963 877/636
f 554/142 1147/547 1195/678
f 210/142 1109/547 1225/678
f 511/679 975/10 807/160
f 23/45 11/43 16/44
f 896/682 799/600 1260/355
f 755/683 1204/405 1219/407
f 240/684 1218/701 1043/685
f 997/687 1257/366 1227/408
f 631/689 1055/696 1142/618
f 247/691 1082/488 1059/692
f 1247/693 828/963 698/694
f 1103/153 827/963 696/636
f 779/608 1030/710 1026/695
f 972/265 899/4 445/602
f 1041/696 755/683 851/513
f 474/557 747/141 955/58
f 555/512 1090/511 1039/643
f 207/689 1041/696 1121/618
f 531/679 844/10 961/160
f 722/12 904/164 519/207
f 119/653 1065/652 1116/697
f 1044/325 1252/465 984/532
f 707/564 1099/728 1226/239
f 763/266 891/268 309/699
f 244/700 1078/779 1218/701
f 298/702 714/204 890/339
f 1081/704 1127/921 856/705
f 17/658 1146/745 1188/397
f 1135/618 862/513 811/514
f 1073/619 786/514 702/660
f 1205/706 1210/537 316/654
f 797/551 857/709 1110/498
f 561/53 749/156 963/158
f 929/707 892/798 1123/708
f 1020/527 1051/543 582/139
f 453/19 916/141 954/177
f 594/142 1031/547 1115/678
f 28/659 1104/153 1155/637
f 765/138 895/137 365/333
f 764/599 316/655 318/267
f 870/709 1208/498 1030/710
f 632/124 1024/560 1055/711
f 591/689 1052/696 1138/618
f 865/513 1015/407 1254/161
f 689/713 1172/783 1102/714
f 1141/553 1094/784 623/716
f 317/717 315/279 982/278
f 126/718 1117/729 1153/719
f 23/659 1080/153 1060/637
f 1244/612 981/611 990/722
f 972/265 985/282 448/218
f 30/658 1157/745 1212/397
f 492/219 842/10 719/12
f 1250/511 820/733 733/674
f 1029/51 1045/167 867/724
f 976/265 905/4 525/602
f 1167/725 329/1000 327/299
f 754/552 850/724 1120/553
f 1245/410 708/409 241/727
f 1229/606 1235/821 323/296
f 127/669 1066/668 1117/729
f 1120/553 1072/784 199/716
f 773/683 1150/405 1015/407
f 238/162 1159/531 1002/730
f 852/732 1122/130 1075/132
f 265/19 743/141 793/177
f 556/140 1195/678 1090/511
f 389/196 915/202 800/39
f 894/734 1167/725 1166/298
f 1152/735 874/565 924/566
f 696/636 1198/28 1188/397
f 551/689 1048/696 1135/618
f 989/736 1077/768 1174/480
f 1231/693 967/963 878/694
f 731/542 775/552 1054/543
f 757/737 1061/373 1273/469
f 633/638 1216/545 1262/547
f 1116/697 848/775 874/565
f 843/265 721/4 505/602
f 716/12 898/164 439/207
f 553/638 1039/545 1147/547
f 1115/678 866/732 816/733
f 834/664 1220/663 1272/739
f 1051/543 1137/553 584/505
f 454/557 916/141 801/58
f 1111/738 1273/469 1064/741
f 1124/740 1272/739 1011/742
f 835/265 711/4 257/602
f 552/124 1018/560 1048/711
f 1147/547 771/546 863/732
f 673/485 909/137 938/61
f 771/546 1049/148 1136/130
f 858/744 933/965 1255/510
f 1085/714 383/715 384/181
f 209/638 1038/545 1109/547
f 1131/745 698/999 876/645
f 1242/556 980/555 989/736
f 703/746 1009/184 1042/148
f 297/747 746/203 951/294
f 892/749 794/975 1205/750
f 263/679 971/10 792/160
f 787/733 1075/132 1009/274
f 772/552 864/724 1137/553
f 727/542 772/552 1051/543
f 922/751 1172/362 1171/363
f 677/386 1258/387 1100/337
f 1055/696 776/683 868/513
f 124/752 1175/812 1209/554
f 857/709 766/608 1202/710
f 380/503 873/37 800/39
f 1005/52 1199/51 772/552
f 248/754 1232/364 1164/755
f 245/757 883/365 995/416
f 770/683 1149/405 1097/407
f 863/732 1136/130 1089/132
f 809/58 960/57 520/206
f 630/122 1095/619 1024/560
f 1037/759 1062/497 371/347
f 1036/760 753/800 781/761
f 266/557 743/141 949/58
f 1238/762 1268/75 784/74
f 832/525 999/524 1268/75
f 823/551 1243/497 1208/498
f 875/763 1113/414 1189/764
f 684/503 683/354 826/39
f 991/766 1163/490 1259/236
f 980/555 1074/802 1077/768
f 839/224 998/205 762/215
f 1014/770 712/822 886/771
f 11/43 1060/637 1240/25
f 974/265 986/282 488/218
f 838/323 713/188 282/187
f 794/749 855/794 1210/537
f 19/29 1241/693 1146/676
f 995/416 853/415 244/773
f 1065/652 780/962 848/775
f 704/317 947/158 231/157
f 891/322 983/321 312/699
f 596/140 1115/678 1251/511
f 300/776 839/224 928/225
f 1230/693 966/963 879/694
f 264/219 971/10 884/12
f 1199/51 1046/167 864/724
f 32/29 1231/693 1157/676
f 824/601 825/600 1132/355
f 1146/745 697/999 695/645
f 715/378 764/377 314/777
f 1253/596 1183/510 686/482
f 988/778 1026/759 1243/497
f 1078/779 789/767 948/780
f 1040/543 1120/553 200/505
f 1125/353 1260/355 379/354
f 805/58 956/57 480/206
f 1216/545 733/746 777/546
f 299/769 762/215 889/217
f 1168/783 1085/714 799/600
f 867/724 818/968 1094/784
f 290/248 745/186 888/188
f 708/758 995/416 709/774
f 206/122 1073/619 1008/560
f 1008/560 702/660 755/786
f 275/787 761/256 885/258
f 777/546 1056/148 1143/130
f 729/746 1022/184 1053/148
f 635/512 1250/511 1216/643
f 1024/560 732/660 776/786
f 1031/547 774/546 866/732
f 843/265 860/282 508/218
f 205/690 1121/618 1073/619
f 452/219 840/10 716/12
f 118/698 1116/697 1152/735
f 1048/696 770/683 862/513
f 1117/729 849/960 875/763
f 1252/387 1083/337 797/551
f 998/205 714/204 298/702
f 1095/619 819/514 732/660
f 125/720 1153/719 1175/789
f 924/566 1134/452 1181/454
f 856/792 1127/726 1185/303
f 1126/793 1182/194 929/794
f 930/795 894/974 1233/796
f 121/797 1263/539 1034/541
f 1182/444 1165/443 892/798
f 116/517 1176/516 1211/610
f 955/58 802/57 460/206
f 1264/723 990/722 753/800
f 650/666 734/317 965/158
f 471/679 973/10 803/160
f 688/181 1145/183 1197/182
f 1001/637 696/636 695/645
f 650/666 647/665 979/437
f 848/775 1224/232 1213/404
f 10/43 1001/637 1000/25
f 1084/360 1130/183 858/744
f 1062/497 1110/498 372/341
f 942/801 1179/383 1074/802
f 1017/527 1047/543 542/139
f 513/19 748/141 808/177
f 212/140 1225/678 1063/511
f 882/688 1227/408 1245/410
f 724/660 1177/163 1149/201
f 732/660 1217/163 1237/201
f 944/645 878/999 1223/646
f 629/690 1142/618 1095/619
f 113/804 1264/723 1036/760
f 872/37 940/284 686/482
f 1235/550 1201/549 324/805
f 1107/806 1161/484 992/807
f 1159/531 881/530 705/809
f 884/12 710/164 251/207
f 1086/637 945/636 944/645
f 1112/51 1098/167 861/724
f 236/686 1043/685 1271/810
f 900/12 717/164 459/207
f 1176/516 924/566 943/791
f 678/464 1058/325 1258/465
f 853/756 1164/755 1078/779
f 829/579 1269/675 1105/523
f 1272/739 1151/648 705/650
f 850/724 785/968 1072/784
f 756/546 1042/148 1122/130
f 1006/52 1029/51 775/552
f 1063/511 787/733 703/674
f 1119/52 1112/51 769/552
f 970/811 1082/488 1163/490
f 1133/553 1087/784 543/716
f 990/722 1170/173 1148/209
f 1261/307 1128/52 701/542
f 1137/553 1091/784 583/716
f 1175/812 923/818 942/801
f 783/636 1068/28 1067/397
f 815/514 1254/161 1070/163
f 1271/810 1111/738 994/656
f 984/778 797/551 1062/497
f 566/813 919/18 813/17
f 672/345 822/463 778/138
f 776/683 1237/405 1108/407
f 1202/710 1037/695 368/815
f 1060/637 783/636 782/645
f 606/813 920/18 817/17
f 976/265 987/282 528/218
f 1153/719 875/763 923/765
f 601/53 750/156 964/158
f 634/142 1262/547 1207/678
f 604/544 846/425 907/379
f 1140/307 1005/52 727/542
f 614/170 611/814 817/17
f 282/187 713/188 887/186
f 897/595 896/751 1125/594
f 861/724 810/968 1087/784
f 943/791 1181/454 1076/171
f 115/799 1211/610 1244/612
f 300/776 746/203 998/205
f 923/818 1189/381 1179/383
f 911/202 826/39 683/354
f 257/602 711/4 760/6
f 550/122 1088/619 1018/560
f 812/733 1089/132 1019/274
f 493/19 917/141 958/177
f 679/336 1100/337 1144/326
f 1172/362 689/990 690/361
f 1107/806 836/808 925/819
f 926/323 888/188 287/187
f 592/124 1021/560 1052/711
f 15/43 1086/637 1178/25
f 893/605 795/977 1235/821
f 1161/484 1069/252 712/822
f 1121/618 851/513 786/514
f 718/4 466/66 460/5
f 101/823 156/97 155/99
f 75/398 76/500 37/824
f 98/826 97/486 160/827
f 143/492 144/344 128/829
f 125/831 141/291 142/493
f 99/13 158/93 157/92
f 138/427 139/392 123/833
f 137/835 138/427 122/836
f 105/838 106/426 138/427
f 53/839 52/862 406/189
f 104/841 105/838 137/835
f 905/4 526/66 520/5
f 1015/407 588/406 587/411
f 691/38 679/197 680/348
f 1181/454 94/453 95/843
f 56/369 88/1001 87/844
f 837/419 291/966 286/235
f 144/344 129/343 113/846
f 55/845 54/939 427/499
f 35/848 78/24 79/23
f 255/21 251/208 791/57
f 149/103 148/105 109/850
f 748/141 513/19 503/21
f 1208/498 676/341 674/340
f 160/827 176/948 175/851
f 49/400 50/466 82/852
f 344/422 343/458 341/460
f 95/854 63/358 64/501
f 385/713 383/715 1085/714
f 68/856 69/388 44/857
f 411/214 418/213 68/856
f 101/823 100/165 157/112
f 69/388 70/357 43/859
f 85/861 84/1002 52/862
f 60/863 61/384 93/864
f 133/166 134/433 118/866
f 103/868 102/431 155/111
f 80/394 65/941 48/869
f 135/432 136/842 120/871
f 134/433 135/432 119/873
f 110/491 109/850 148/118
f 76/875 77/190 36/876
f 130/487 131/15 115/878
f 74/399 75/398 38/880
f 126/882 142/493 143/492
f 64/501 49/400 81/884
f 140/292 141/291 125/886
f 136/842 137/835 121/888
f 178/890 177/1003 161/101
f 50/466 51/496 83/892
f 60/863 59/918 431/356
f 396/304 398/422 394/424
f 132/14 133/166 117/894
f 34/896 79/23 80/394
f 938/61 670/275 667/330
f 51/496 52/862 84/898
f 337/56 336/55 331/900
f 378/313 377/367 373/417
f 111/902 110/491 147/70
f 115/903 131/15 132/14
f 67/445 68/856 45/905
f 95/907 94/1004 62/212
f 41/908 72/8 73/474
f 104/841 153/69 152/68
f 47/910 66/446 67/445
f 114/912 113/1005 129/343
f 106/426 151/84 150/83
f 89/913 57/477 58/374
f 918/141 533/19 523/21
f 689/450 687/456 688/181
f 103/868 104/841 136/842
f 180/915 179/1006 163/119
f 618/121 620/150 1045/167
f 1179/383 86/382 87/917
f 844/10 531/679 521/11
f 669/333 665/62 668/63
f 59/918 91/1007 90/919
f 675/347 671/136 673/485
f 327/920 328/249 1127/921
f 60/863 92/1008 91/922
f 123/923 139/392 140/391
f 61/384 62/212 94/925
f 159/96 158/95 99/13
f 70/357 71/9 42/927
f 57/477 89/1009 88/929
f 153/77 104/841 103/868
f 73/474 74/399 39/930
f 36/932 77/190 78/24
f 108/934 107/390 150/117
f 53/935 54/939 86/936
f 55/845 87/1010 86/938
f 105/838 152/87 151/86
f 112/342 145/79 160/81
f 145/102 112/342 111/902
f 47/940 48/1011 65/941
f 336/55 335/449 333/294
f 52/862 51/496 436/22
f 182/26 181/1012 165/943
f 553/135 543/133 541/470
f 360/34 359/395 347/944
f 349/261 350/260 343/458
f 1026/759 672/346 675/347
f 1022/184 600/981 599/185
f 915/202 381/781 379/354
f 397/458 398/422 400/261
f 424/840 405/189 77/190
f 15/43 7/27 1/41
f 21/53 23/45 32/42
f 744/483 276/958 272/945
f 537/50 538/121 1112/51
f 54/939 53/935 423/946
f 365/333 366/275 364/63
f 535/281 530/986 987/282
f 578/121 590/122 592/124
f 192/947 191/1013 175/851
f 320/285 322/448 1182/194
f 363/179 362/180 358/33
f 338/54 337/56 332/251
f 413/401 426/359 66/446
f 1030/710 674/340 672/815
f 314/598 309/777 307/334
f 223/1 226/672 228/2
f 1077/768 88/954 89/950
f 198/139 200/505 210/142
f 101/823 102/431 134/433
f 1099/728 241/727 237/951
f 369/485 370/59 932/61
f 1213/404 92/403 93/952
f 109/850 110/491 142/493
f 59/918 58/374 430/7
f 1113/414 84/413 85/953
f 418/213 419/385 69/388
f 664/34 660/36 657/944
f 845/425 563/168 574/170
f 1074/802 87/917 88/954
f 286/235 285/234 888/188
f 1219/407 204/406 203/411
f 578/121 580/150 1046/167
f 13/44 10/43 2/27
f 410/375 422/371 73/474
f 111/902 112/342 144/344
f 98/826 99/13 131/15
f 503/21 499/208 806/57
f 1257/366 883/365 245/757
f 1101/360 824/601 871/744
f 841/265 859/282 468/218
f 247/691 941/471 993/473
f 1092/619 815/514 728/660
f 220/544 833/425 880/379
f 992/807 712/822 1014/770
f 1220/663 994/656 1151/648
f 324/721 1201/613 1200/615
f 680/324 1144/326 1058/325
f 824/601 1246/502 1196/504
f 1039/545 725/746 771/546
f 869/732 1143/130 1096/132
f 864/724 814/968 1091/784
f 841/265 718/4 465/602
f 831/592 832/525 1238/762
f 868/513 1108/407 1248/161
f 644/544 847/425 908/379
f 785/526 701/542 1007/527
f 246/671 1160/670 1016/563
f 1164/755 991/766 789/767
f 472/219 973/10 900/12
f 382/482 1255/510 1057/596
f 188/957 189/107 699/631
f 641/53 751/156 965/158
f 1239/242 1035/641 761/256
f 1109/547 756/546 852/732
f 1091/528 1020/527 581/558
f 1157/745 878/999 944/645
f 1054/543 1141/553 624/505
f 610/666 607/665 978/437
f 910/595 939/965 1183/510
f 1158/745 879/999 782/645
f 1232/364 970/811 991/766
f 686/482 940/284 911/506
f 1052/696 773/683 865/513
f 1142/618 868/513 819/514
f 570/666 567/665 977/437
f 1018/560 724/660 770/786
f 1100/337 823/551 870/709
f 974/265 902/4 485/602
f 1241/693 827/963 697/694
f 276/958 744/483 1161/484
f 796/463 765/138 362/332
f 849/960 1215/277 1113/414
f 1010/593 912/576 832/525
f 769/552 861/724 1133/553
f 589/690 1138/618 1092/619
f 1163/490 790/489 243/961
f 1034/541 752/540 780/962
f 798/601 858/744 1203/504
f 1262/547 777/546 869/732
f 827/963 1103/153 1003/155
f 914/18 788/17 227/814
f 912/576 45/580 1105/523
f 570/666 726/317 963/158
f 813/17 906/379 574/170
f 382/482 381/661 915/506
f 451/679 840/10 953/160
f 903/12 720/164 499/207
f 719/12 901/164 479/207
f 790/955 993/473 758/520
f 646/813 921/18 821/17
f 1043/685 757/737 1111/738
f 1273/469 1012/468 706/964
f 1090/511 812/733 725/674
f 1171/363 1197/182 939/965
f 27/29 1247/693 1131/676
f 871/744 1196/504 1183/510
f 1155/637 877/636 876/645
f 114/817 1244/612 1264/723
f 759/956 1016/563 1013/529
f 284/235 838/323 927/419
f 445/602 899/4 935/6
f 227/814 788/17 880/379
f 1225/678 852/732 787/733
f 1207/678 869/732 820/733
f 1145/183 871/744 939/965
f 485/602 902/4 936/6
f 766/608 984/532 1037/695
f 1064/741 706/964 1118/967
f 610/666 730/317 964/158
f 836/808 992/807 1035/641
f 654/170 651/814 821/17
f 1195/678 863/732 812/733
f 388/283 873/37 934/284
f 993/473 759/472 242/88
f 1007/527 1040/543 198/139
f 1059/692 997/687 882/688
f 1082/488 970/811 997/687
f 671/136 778/138 909/137
f 491/679 842/10 957/160
f 945/636 1214/28 1212/397
f 948/780 1186/238 1061/373
f 688/181 687/715 1102/714
f 1045/167 1249/229 818/968
f 211/512 1063/511 1038/643
f 1203/504 1255/510 382/482
f 505/602 721/4 768/6
f 1160/670 882/688 996/803
f 20/659 1103/153 1001/637
f 1023/527 1054/543 622/139
f 1270/657 1118/967 233/969
f 1218/701 948/780 757/737
f 549/690 1135/618 1088/619
f 877/636 1222/28 1221/397
f 970/811 1232/364 1257/366
f 312/308 982/278 715/280
f 473/19 747/141 804/177
f 276/958 1107/806 1180/820
f 933/965 1187/182 1169/363
f 1021/560 728/660 773/786
f 208/124 1008/560 1041/711
f 1110/498 1202/710 370/340
f 1169/363 1168/362 896/751
f 835/265 854/282 260/218
f 512/219 975/10 903/12
f 932/61 796/60 363/330
f 1123/706 1205/750 315/279
f 122/972 1242/556 1263/539
f 533/19 918/141 962/177
f 1027/616 183/625 185/627
f 185/627 699/631 1267/568
f 799/600 1085/714 1084/360
f 25/658 1131/745 1221/397
f 123/753 1209/554 1242/556
f 701/542 754/552 1040/543
f 1066/668 781/761 849/960
f 274/642 1014/770 1228/772
f 1094/528 1023/527 621/558
f 922/682 1192/353 1132/355
f 996/803 1245/410 1099/728
f 1249/307 1006/52 731/542
f 752/540 1174/480 1032/230
f 1172/783 922/682 825/600
f 1173/153 967/963 945/636
f 434/402 413/401 65/941
f 1083/337 1129/326 857/709
f 820/733 1096/132 1025/274
f 1184/329 1167/328 894/974
f 1165/195 1079/327 794/975
f 1129/326 1044/325 766/608
f 1098/167 1256/229 810/968
f 733/746 1025/184 1056/148
f 783/636 966/963 1230/693
f 702/660 1156/163 1204/201
f 810/526 1256/307 1119/52
f 1185/303 1184/302 930/976
f 811/514 1194/161 1177/163
f 1166/298 1081/300 795/977
f 1046/167 1140/229 814/968
f 781/761 1033/211 1215/277
f 816/733 1093/132 1022/274
f 712/822 1069/252 1162/254
f 836/808 1239/242 1190/244
f 966/963 1080/153 1050/155
f 881/530 1226/239 1011/241
f 789/767 1259/236 1186/238
f 780/962 1032/230 1224/232
f 1114/167 1261/229 785/968
f 753/800 1148/209 1033/211
f 728/660 1070/163 1150/201
f 1079/195 1126/194 855/794
f 725/746 1019/184 1049/148
f 1130/183 1187/182 933/965
f 967/963 1173/153 1223/155
f 981/611 1076/171 1170/173
f 819/514 1248/161 1217/163
f 1234/51 1114/167 850/724
f 786/514 1236/161 1156/163
f 828/963 1104/153 1004/155
f 774/546 1053/148 1139/130
f 866/732 1139/130 1093/132
f 1128/52 1234/51 754/552
f 696/636 827/963 1241/693
f 695/645 697/999 1003/646
f 945/636 967/963 1231/693
f 877/636 828/963 1247/693
f 876/645 698/999 1004/646
o Lights
v -2.0787 1.5 -0.861
v -2.0787 2 -0.861
v -1.591 2 1.591
v -1.591 1.5 1.591
v 0 2 2.25
v 0 1.5 2.25
v 2.0787 1.5 -0.861
v 2.0787 2 -0.861
v 0.861 1.5 -2.0787
v 0.861 2 -2.0787
v -0.861 2 -2.0787
v -0.861 1.5 -2.0787
v 2.25 2 -0
v 2.25 1.5 -0
v 2.0787 1.5 0.861
v 2.0787 2 0.861
v -0.861 2 2.0787
v -0.861 1.5 2.0787
v -2.25 2 -0
v -2.25 1.5 -0
v 1.591 2 -1.591
v 1.591 1.5 -1.591
v -2.0787 2 0.861
v -2.0787 1.5 0.861
v 0.861 1.5 2.0787
v 0.861 2 2.0787
v 1.591 2 1.591
v 1.591 1.5 1.591
v 0 2 -2.25
v 0 1.5 -2.25
v -1.591 1.5 -1.591
v -1.591 2 -1.591
vt 0.5 1
vt 0.25 0
vt 0.5 0
vt 0.25 0.9966
vt 0.0001 0.0001
vt 0.25 0.0001
vt 1 1
vt 0.75 0
vt 1 0
vt 0.75 0.9966
vt 0.5 0.0001
vt 0.75 0.0001
vt 0.25 1
vt 0 0
vt 0.5 0.9966
vt 0.75 1
vt 0.9999 0.9966
vt 0.9999 0.0001
vt 0 1
vt 0.0001 0.9966
s 1
f 1294/1014 1280/1015 1295/1016
f 1299/1017 1279/1018 1298/1019
f 1292/1020 1274/1021 1293/1022
f 1289/1023 1301/1024 1288/1025
f 1281/1026 1287/1027 1280/1015
f 1300/1028 1298/1019 1301/1024
f 1302/1020 1282/1021 1303/1022
f 1296/1026 1293/1027 1297/1015
f 1290/1029 1277/1016 1291/1021
f 1284/1026 1303/1027 1285/1015
f 1276/1014 1297/1015 1277/1016
f 1283/1029 1295/1016 1282/1021
f 1278/1020 1291/1021 1279/1022
f 1305/1014 1285/1015 1304/1016
f 1294/1014 1281/1026 1280/1015
f 1286/1030 1288/1025 1287/1031
f 1275/1029 1305/1014 1304/1016
f 1283/1029 1294/1014 1295/1016
f 1284/1026 1302/1032 1303/1027
f 1290/1029 1276/1014 1277/1016
f 1305/1014 1284/1026 1285/1015
f 1278/1020 1290/1029 1291/1021
f 1296/1026 1292/1032 1293/1027
f 1276/1014 1296/1026 1297/1015
f 1281/1026 1286/1032 1287/1027
f 1289/1023 1300/1028 1301/1024
f 1300/1028 1299/1017 1298/1019
f 1286/1030 1289/1023 1288/1025
f 1302/1020 1283/1029 1282/1021
f 1292/1020 1275/1029 1274/1021
f 1299/1017 1278/1033 1279/1018
f 1275/1029 1304/1016 1274/1021
