o Arm
v 0.625 1.4375 0.6875
v 0.6875 1.4375 0.6875
v 0.625 1.4375 0.3125
v 0.6875 1.4375 0.3125
v 0.625 1.375 0.6875
v 0.6875 1.375 0.6875
v 0.625 1.375 0.3125
v 0.6875 1.375 0.3125
vt 0.6914 0.7426
vt 0.7148 0.7327
vt 0.7148 0.7426
vt 0.6914 0.7525
vt 0.7148 0.7525
vt 0.6914 0.7327
vt 0.7148 0.7228
vt 0.7148 0.7624
vt 0.6914 0.7624
vt 0.6914 0.7228
s 1
f 5/1 3/2 7/3
f 6/4 7/3 8/5
f 5/1 1/6 3/2
f 1/6 4/7 3/2
f 4/8 2/9 6/4
f 1/6 2/10 4/7
f 6/4 5/1 7/3
f 4/8 6/4 8/5
o Base
v 0.5625 1 -0.625
v 0.5625 1.625 -0.625
v 0.5625 1 -1.375
v 0.5625 1.625 -1.375
v 1.4375 1 -0.625
v 1.4375 1.625 -0.625
v 1.4375 1 -1.375
v 1.4375 1.625 -1.375
v -1.4375 1 -0.5625
v -1.4375 2 -0.5625
v -1.4375 1 -1.4375
v -1.4375 2 -1.4375
v 0.5625 1 -0.5625
v 0.5625 1.6875 -0.5625
v 0.5625 1 -1.4375
v 0.5625 1.6875 -1.4375
v -0.4375 2 -1.4375
v -0.4375 2 -0.5625
v -1.5 0 1.5
v -1.5 1 1.5
v -1.5 -0 -1.5
v -1.5 1 -1.5
v 1.5 0 1.5
v 1.5 1 1.5
v 1.5 -0 -1.5
v 1.5 1 -1.5
v -1.5 0.0625 1.4375
v -1.5 0.9375 1.4375
v -1.5 0.9375 -1.4375
v -1.5 0.0625 -1.4375
v -1.4375 0.0625 -1.5
v -1.4375 0.9375 -1.5
v 1.4375 0.9375 -1.5
v 1.4375 0.0625 -1.5
v 1.5 0.0625 -1.4375
v 1.5 0.9375 -1.4375
v 1.5 0.9375 1.4375
v 1.5 0.0625 1.4375
v 1.4375 0.0625 1.5
v 1.4375 0.9375 1.5
v -1.4375 0.9375 1.5
v -1.4375 0.0625 1.5
v -1.4375 0.0625 1.4375
v -1.4375 0.9375 1.4375
v -1.4375 0.9375 -1.4375
v -1.4375 0.0625 -1.4375
v -1.4375 0.0625 -1.4375
v -1.4375 0.9375 -1.4375
v 1.4375 0.9375 -1.4375
v 1.4375 0.0625 -1.4375
v 1.4375 0.0625 -1.4375
v 1.4375 0.9375 -1.4375
v 1.4375 0.9375 1.4375
v 1.4375 0.0625 1.4375
v 1.4375 0.0625 1.4375
v 1.4375 0.9375 1.4375
v -1.4375 0.9375 1.4375
v -1.4375 0.0625 1.4375
v -0.5625 1 1.375
v -0.5625 1.0625 1.375
v -0.5625 1 -0.375
v -0.5625 1.0625 -0.375
v -1.4375 1 1.375
v -1.4375 1.0625 1.375
v -1.4375 1 -0.375
v -1.4375 1.0625 -0.375
v -0.5625 1 1.375
v -0.5625 1.0625 1.375
v -1.4375 1 1.375
v -1.4375 1.0625 1.375
v -0.5625 1 -0.375
v -0.5625 1.0625 -0.375
v -1.4375 1 -0.375
v -1.4375 1.0625 -0.375
v -1.4375 1.0625 0.25
v -0.5625 1.0625 0.25
v -1.4375 1.0625 0.75
v -0.5625 1.0625 0.75
v -1.375 1.9375 0.25
v -0.625 1.9375 0.25
v -1.375 1.9375 0.75
v -0.625 1.9375 0.75
v -0.5625 1.0625 1.375
v -1.4375 1.0625 1.375
v -0.5625 1.0625 -0.375
v -1.4375 1.0625 -0.375
v -1.4375 1.0625 0.75
v -1.4375 1.0625 0.25
v -0.5625 1.0625 0.25
v -0.5625 1.0625 0.75
v 0.8655 1.0632 1.3517
v 0.7133 1.5829 1.1995
v 1.3517 1.0632 0.8655
v 1.1995 1.5829 0.7133
v 0.988 1.1349 1.4742
v 0.8358 1.6546 1.322
v 1.4742 1.1349 0.988
v 1.322 1.6546 0.8358
v 0.8179 1 1.2004
v 0.8179 1.4375 1.2004
v 0.9504 1 1.0679
v 0.9504 1.4375 1.0679
v 0.8621 1 1.2446
v 0.8621 1.4375 1.2446
v 0.9946 1 1.1121
v 0.9946 1.4375 1.1121
v 1.0679 1 0.9504
v 1.0679 1.4375 0.9504
v 1.2004 1 0.8179
v 1.2004 1.4375 0.8179
v 1.1121 1 0.9946
v 1.1121 1.4375 0.9946
v 1.2446 1 0.8621
v 1.2446 1.4375 0.8621
v 1.5 0.3125 -0.8125
v 1.5 0.6875 -0.8125
v 1.4375 0.3125 -0.8125
v 1.4375 0.6875 -0.8125
v 1.5 0.3125 -1.1875
v 1.5 0.6875 -1.1875
v 1.4375 0.3125 -1.1875
v 1.4375 0.6875 -1.1875
v 1.5 0.3125 1.1875
v 1.5 0.6875 1.1875
v 1.4375 0.3125 1.1875
v 1.4375 0.6875 1.1875
v 1.5 0.3125 0.8125
v 1.5 0.6875 0.8125
v 1.4375 0.3125 0.8125
v 1.4375 0.6875 0.8125
v -1.5 0.3125 0.8125
v -1.5 0.6875 0.8125
v -1.4375 0.3125 0.8125
v -1.4375 0.6875 0.8125
v -1.5 0.3125 1.1875
v -1.5 0.6875 1.1875
v -1.4375 0.3125 1.1875
v -1.4375 0.6875 1.1875
v -1.5 0.3125 -1.1875
v -1.5 0.6875 -1.1875
v -1.4375 0.3125 -1.1875
v -1.4375 0.6875 -1.1875
v -1.5 0.3125 -0.8125
v -1.5 0.6875 -0.8125
v -1.4375 0.3125 -0.8125
v -1.4375 0.6875 -0.8125
v 0.8125 0.3125 1.5
v 0.8125 0.6875 1.5
v 0.8125 0.3125 1.4375
v 0.8125 0.6875 1.4375
v 1.1875 0.3125 1.5
v 1.1875 0.6875 1.5
v 1.1875 0.3125 1.4375
v 1.1875 0.6875 1.4375
v -1.1875 0.3125 1.5
v -1.1875 0.6875 1.5
v -1.1875 0.3125 1.4375
v -1.1875 0.6875 1.4375
v -0.8125 0.3125 1.5
v -0.8125 0.6875 1.5
v -0.8125 0.3125 1.4375
v -0.8125 0.6875 1.4375
v -0.8125 0.3125 -1.5
v -0.8125 0.6875 -1.5
v -0.8125 0.3125 -1.4375
v -0.8125 0.6875 -1.4375
v -1.1875 0.3125 -1.5
v -1.1875 0.6875 -1.5
v -1.1875 0.3125 -1.4375
v -1.1875 0.6875 -1.4375
v 1.1875 0.3125 -1.5
v 1.1875 0.6875 -1.5
v 1.1875 0.3125 -1.4375
v 1.1875 0.6875 -1.4375
v 0.8125 0.3125 -1.5
v 0.8125 0.6875 -1.5
v 0.8125 0.3125 -1.4375
v 0.8125 0.6875 -1.4375
v -1.3622 1.5 0.25
v -1.3137 1.3189 0.25
v -1.1811 1.1863 0.25
v -1 1.1378 0.25
v -0.8189 1.1863 0.25
v -0.6863 1.3189 0.25
v -0.6378 1.5 0.25
v -0.6863 1.6811 0.25
v -0.8189 1.8137 0.25
v -1 1.8622 0.25
v -1.1811 1.8137 0.25
v -1.3137 1.6811 0.25
v -1.2975 1.5 -0.5
v -1.3622 1.5 -0.4375
v -1.2576 1.3513 -0.5
v -1.3137 1.3189 -0.4375
v -1.1487 1.2424 -0.5
v -1.1811 1.1863 -0.4375
v -1 1.2025 -0.5
v -1 1.1378 -0.4375
v -0.8513 1.2424 -0.5
v -0.8189 1.1863 -0.4375
v -0.7424 1.3513 -0.5
v -0.6863 1.3189 -0.4375
v -0.7025 1.5 -0.5
v -0.6378 1.5 -0.4375
v -0.7424 1.6487 -0.5
v -0.6863 1.6811 -0.4375
v -0.8513 1.7576 -0.5
v -0.8189 1.8137 -0.4375
v -1 1.7975 -0.5
v -1 1.8622 -0.4375
v -1.1487 1.7576 -0.5
v -1.1811 1.8137 -0.4375
v -1.2576 1.6487 -0.5
v -1.3137 1.6811 -0.4375
v -1.3622 1.5 0.75
v -1.3137 1.6811 0.75
v -1.1811 1.8137 0.75
v -1 1.8622 0.75
v -0.8189 1.8137 0.75
v -0.6863 1.6811 0.75
v -0.6378 1.5 0.75
v -0.6863 1.3189 0.75
v -0.8189 1.1863 0.75
v -1 1.1378 0.75
v -1.1811 1.1863 0.75
v -1.3137 1.3189 0.75
v -1.2975 1.5 1.5
v -1.3622 1.5 1.4375
v -1.2576 1.6487 1.5
v -1.3137 1.6811 1.4375
v -1.1487 1.7576 1.5
v -1.1811 1.8137 1.4375
v -1 1.7975 1.5
v -1 1.8622 1.4375
v -0.8513 1.7576 1.5
v -0.8189 1.8137 1.4375
v -0.7424 1.6487 1.5
v -0.6863 1.6811 1.4375
v -0.7025 1.5 1.5
v -0.6378 1.5 1.4375
v -0.7424 1.3513 1.5
v -0.6863 1.3189 1.4375
v -0.8513 1.2424 1.5
v -0.8189 1.1863 1.4375
v -1 1.2025 1.5
v -1 1.1378 1.4375
v -1.1487 1.2424 1.5
v -1.1811 1.1863 1.4375
v -1.2576 1.3513 1.5
v -1.3137 1.3189 1.4375
v 0.5 1 -0.1037
v 0.5 1.1875 -0.039
v 0.8018 1 -0.0228
v 0.7695 1.1875 0.0332
v 1.0228 1 0.1981
v 0.9668 1.1875 0.2305
v 1.1037 1 0.5
v 1.039 1.1875 0.5
v 1.0228 1 0.8018
v 0.9668 1.1875 0.7695
v 0.8018 1 1.0228
v 0.7695 1.1875 0.9668
v 0.5 1 1.1037
v 0.5 1.1875 1.039
v 0.1981 1 1.0228
v 0.2305 1.1875 0.9668
v -0.0228 1 0.8018
v 0.0332 1.1875 0.7695
v -0.1037 1 0.5
v -0.039 1.1875 0.5
v -0.0228 1 0.1981
v 0.0332 1.1875 0.2305
v 0.1981 1 -0.0228
v 0.2305 1.1875 0.0332
v 0.5 1 0.0838
v 0.5 1.1875 0.0191
v 0.7081 1 0.1396
v 0.7405 1.1875 0.0835
v 0.8604 1 0.2919
v 0.9165 1.1875 0.2595
v 0.9162 1 0.5
v 0.9809 1.1875 0.5
v 0.8604 1 0.7081
v 0.9165 1.1875 0.7405
v 0.7081 1 0.8604
v 0.7405 1.1875 0.9165
v 0.5 1 0.9162
v 0.5 1.1875 0.9809
v 0.2919 1 0.8604
v 0.2595 1.1875 0.9165
v 0.1396 1 0.7081
v 0.0835 1.1875 0.7405
v 0.0838 1 0.5
v 0.0191 1.1875 0.5
v 0.1396 1 0.2919
v 0.0835 1.1875 0.2595
v 0.2919 1 0.1396
v 0.2595 1.1875 0.0835
v 0.8018 1.125 -0.0228
v 0.5 1.125 -0.1037
v 1.0228 1.125 0.1981
v 1.1037 1.125 0.5
v 1.0228 1.125 0.8018
v 0.8018 1.125 1.0228
v 0.5 1.125 1.1037
v 0.1981 1.125 1.0228
v -0.0228 1.125 0.8018
v -0.1037 1.125 0.5
v -0.0228 1.125 0.1981
v 0.1981 1.125 -0.0228
v 0.7081 1.125 0.1396
v 0.5 1.125 0.0838
v 0.8604 1.125 0.2919
v 0.9162 1.125 0.5
v 0.8604 1.125 0.7081
v 0.7081 1.125 0.8604
v 0.5 1.125 0.9162
v 0.2919 1.125 0.8604
v 0.1396 1.125 0.7081
v 0.0838 1.125 0.5
v 0.1396 1.125 0.2919
v 0.2919 1.125 0.1396
v 0.5178 1.1875 -0.0412
v 0.7526 1.1875 0.0124
v 0.9409 1.1875 0.1626
v 1.0454 1.1875 0.3796
v 1.0454 1.1875 0.6204
v 0.9409 1.1875 0.8374
v 0.7526 1.1875 0.9876
v 0.5178 1.1875 1.0412
v 0.283 1.1875 0.9876
v 0.0946 1.1875 0.8374
v -0.0099 1.1875 0.6204
v -0.0099 1.1875 0.3796
v 0.0946 1.1875 0.1626
v 0.283 1.1875 0.0124
v 0.5178 2.4375 0.2929
v 0.5178 2.1446 -0
v 0.5178 1.9375 -0.0412
v 0.5178 2.4787 0.5
v 0.6076 2.4375 0.3134
v 0.6838 2.3202 0.1552
v 0.7347 2.1446 0.0495
v 0.7526 1.9375 0.0124
v 0.6797 2.4375 0.3709
v 0.817 2.3202 0.2614
v 0.9087 2.1446 0.1883
v 0.9409 1.9375 0.1626
v 0.7197 2.4375 0.4539
v 0.8909 2.3202 0.4148
v 1.0052 2.1446 0.3887
v 1.0454 1.9375 0.3796
v 0.7197 2.4375 0.5461
v 0.8909 2.3202 0.5852
v 1.0052 2.1446 0.6113
v 1.0454 1.9375 0.6204
v 0.6797 2.4375 0.6291
v 0.817 2.3202 0.7386
v 0.9087 2.1446 0.8117
v 0.9409 1.9375 0.8374
v 0.6076 2.4375 0.6866
v 0.6838 2.3202 0.8448
v 0.7347 2.1446 0.9505
v 0.7526 1.9375 0.9876
v 0.5178 2.4375 0.7071
v 0.5178 2.3202 0.8827
v 0.5178 2.1446 1
v 0.5178 1.9375 1.0412
v 0.4279 2.4375 0.6866
v 0.3517 2.3202 0.8448
v 0.3008 2.1446 0.9505
v 0.283 1.9375 0.9876
v 0.3559 2.4375 0.6291
v 0.2186 2.3202 0.7386
v 0.1269 2.1446 0.8117
v 0.0946 1.9375 0.8374
v 0.3159 2.4375 0.5461
v 0.1447 2.3202 0.5852
v 0.0303 2.1446 0.6113
v -0.0099 1.9375 0.6204
v 0.3159 2.4375 0.4539
v 0.1447 2.3202 0.4148
v 0.0303 2.1446 0.3887
v -0.0099 1.9375 0.3796
v 0.3559 2.4375 0.3709
v 0.2186 2.3202 0.2614
v 0.1269 2.1446 0.1883
v 0.0946 1.9375 0.1626
v 0.4279 2.4375 0.3134
v 0.3517 2.3202 0.1552
v 0.3008 2.1446 0.0495
v 0.283 1.9375 0.0124
v 0.5178 2.3202 0.1173
v 0.5178 1.1875 -0.0412
v 0.7526 1.1875 0.0124
v 0.9409 1.1875 0.1626
v 1.0454 1.1875 0.3796
v 1.0454 1.1875 0.6204
v 0.9409 1.1875 0.8374
v 0.7526 1.1875 0.9876
v 0.5178 1.1875 1.0412
v 0.283 1.1875 0.9876
v 0.0946 1.1875 0.8374
v -0.0099 1.1875 0.6204
v -0.0099 1.1875 0.3796
v 0.0946 1.1875 0.1626
v 0.283 1.1875 0.0124
v 0.5178 2.4375 0.2929
v 0.5178 2.1446 -0
v 0.5178 1.9375 -0.0412
v 0.5178 2.4787 0.5
v 0.6076 2.4375 0.3134
v 0.6838 2.3202 0.1552
v 0.7347 2.1446 0.0495
v 0.7526 1.9375 0.0124
v 0.6797 2.4375 0.3709
v 0.817 2.3202 0.2614
v 0.9087 2.1446 0.1883
v 0.9409 1.9375 0.1626
v 0.7197 2.4375 0.4539
v 0.8909 2.3202 0.4148
v 1.0052 2.1446 0.3887
v 1.0454 1.9375 0.3796
v 0.7197 2.4375 0.5461
v 0.8909 2.3202 0.5852
v 1.0052 2.1446 0.6113
v 1.0454 1.9375 0.6204
v 0.6797 2.4375 0.6291
v 0.817 2.3202 0.7386
v 0.9087 2.1446 0.8117
v 0.9409 1.9375 0.8374
v 0.6076 2.4375 0.6866
v 0.6838 2.3202 0.8448
v 0.7347 2.1446 0.9505
v 0.7526 1.9375 0.9876
v 0.5178 2.4375 0.7071
v 0.5178 2.3202 0.8827
v 0.5178 2.1446 1
v 0.5178 1.9375 1.0412
v 0.4279 2.4375 0.6866
v 0.3517 2.3202 0.8448
v 0.3008 2.1446 0.9505
v 0.283 1.9375 0.9876
v 0.3559 2.4375 0.6291
v 0.2186 2.3202 0.7386
v 0.1269 2.1446 0.8117
v 0.0946 1.9375 0.8374
v 0.3159 2.4375 0.5461
v 0.1447 2.3202 0.5852
v 0.0303 2.1446 0.6113
v -0.0099 1.9375 0.6204
v 0.3159 2.4375 0.4539
v 0.1447 2.3202 0.4148
v 0.0303 2.1446 0.3887
v -0.0099 1.9375 0.3796
v 0.3559 2.4375 0.3709
v 0.2186 2.3202 0.2614
v 0.1269 2.1446 0.1883
v 0.0946 1.9375 0.1626
v 0.4279 2.4375 0.3134
v 0.3517 2.3202 0.1552
v 0.3008 2.1446 0.0495
v 0.283 1.9375 0.0124
v 0.5178 2.3202 0.1173
v 1 1.375 0.375
v 1.125 1.375 0.375
v 1 1.2866 0.4116
v 1.125 1.2866 0.4116
v 1 1.25 0.5
v 1.125 1.25 0.5
v 1 1.2866 0.5884
v 1.125 1.2866 0.5884
v 1 1.375 0.625
v 1.125 1.375 0.625
v 1 1.4634 0.5884
v 1.125 1.4634 0.5884
v 1 1.5 0.5
v 1.125 1.5 0.5
v 1 1.4634 0.4116
v 1.125 1.4634 0.4116
v 1.1616 1.2866 0.375
v 1.125 1.375 0.375
v 1.25 1.25 0.375
v 1.3384 1.2866 0.375
v 1.375 1.375 0.375
v 1.3384 1.4634 0.375
v 1.25 1.5 0.375
v 1.1616 1.4634 0.375
v 1.1616 1.2866 -0.625
v 1.125 1.375 -0.625
v 1.25 1.25 -0.625
v 1.3384 1.2866 -0.625
v 1.375 1.375 -0.625
v 1.3384 1.4634 -0.625
v 1.25 1.5 -0.625
v 1.1616 1.4634 -0.625
v 1.1433 1.375 0.3933
v 1.1692 1.4634 0.4192
v 1.2317 1.5 0.4817
v 1.2942 1.4634 0.5442
v 1.3201 1.375 0.5701
v 1.2942 1.2866 0.5442
v 1.2317 1.25 0.4817
v 1.1692 1.2866 0.4192
v -0.625 1.3125 0.375
v -0.5 1.3125 0.375
v -0.625 1.2241 0.4116
v -0.5 1.2241 0.4116
v -0.625 1.1875 0.5
v -0.5 1.1875 0.5
v -0.625 1.2241 0.5884
v -0.5 1.2241 0.5884
v -0.625 1.3125 0.625
v -0.5 1.3125 0.625
v -0.625 1.4009 0.5884
v -0.5 1.4009 0.5884
v -0.625 1.4375 0.5
v -0.5 1.4375 0.5
v -0.625 1.4009 0.4116
v -0.5 1.4009 0.4116
v -0.4634 1.2241 0.375
v -0.5 1.3125 0.375
v -0.375 1.1875 0.375
v -0.2866 1.2241 0.375
v -0.25 1.3125 0.375
v -0.2866 1.4009 0.375
v -0.375 1.4375 0.375
v -0.4634 1.4009 0.375
v -0.4634 1.2241 -0.5625
v -0.5 1.3125 -0.5625
v -0.375 1.1875 -0.5625
v -0.2866 1.2241 -0.5625
v -0.25 1.3125 -0.5625
v -0.2866 1.4009 -0.5625
v -0.375 1.4375 -0.5625
v -0.4634 1.4009 -0.5625
v -0.4817 1.3125 0.3933
v -0.4558 1.4009 0.4192
v -0.3933 1.4375 0.4817
v -0.3308 1.4009 0.5442
v -0.3049 1.3125 0.5701
v -0.3308 1.2241 0.5442
v -0.3933 1.1875 0.4817
v -0.4558 1.2241 0.4192
v -0.625 1.625 0.375
v -0.5 1.625 0.375
v -0.625 1.5366 0.4116
v -0.5 1.5366 0.4116
v -0.625 1.5 0.5
v -0.5 1.5 0.5
v -0.625 1.5366 0.5884
v -0.5 1.5366 0.5884
v -0.625 1.625 0.625
v -0.5 1.625 0.625
v -0.625 1.7134 0.5884
v -0.5 1.7134 0.5884
v -0.625 1.75 0.5
v -0.5 1.75 0.5
v -0.625 1.7134 0.4116
v -0.5 1.7134 0.4116
v -0.4634 1.5366 0.375
v -0.5 1.625 0.375
v -0.375 1.5 0.375
v -0.2866 1.5366 0.375
v -0.25 1.625 0.375
v -0.2866 1.7134 0.375
v -0.375 1.75 0.375
v -0.4634 1.7134 0.375
v -0.4634 1.5366 -0.5625
v -0.5 1.625 -0.5625
v -0.375 1.5 -0.5625
v -0.2866 1.5366 -0.5625
v -0.25 1.625 -0.5625
v -0.2866 1.7134 -0.5625
v -0.375 1.75 -0.5625
v -0.4634 1.7134 -0.5625
v -0.4817 1.625 0.3933
v -0.4558 1.7134 0.4192
v -0.3933 1.75 0.4817
v -0.3308 1.7134 0.5442
v -0.3049 1.625 0.5701
v -0.3308 1.5366 0.5442
v -0.3933 1.5 0.4817
v -0.4558 1.5366 0.4192
v 1 1.625 -1.3125
v 1.221 1.625 -1.221
v 1.3125 1.625 -1
v 1.221 1.625 -0.779
v 1 1.625 -0.6875
v 0.779 1.625 -0.779
v 0.6875 1.625 -1
v 0.779 1.625 -1.221
v 1.221 1.75 -1.221
v 1 1.75 -1.3125
v 1.3125 1.75 -1
v 1.221 1.75 -0.779
v 1 1.75 -0.6875
v 0.779 1.75 -0.779
v 0.6875 1.75 -1
v 0.779 1.75 -1.221
v 1 1.6289 -1.25
v 1.1768 1.6289 -1.1768
v 1.25 1.6289 -1
v 1.1768 1.6289 -0.8232
v 1 1.6289 -0.75
v 0.8232 1.6289 -0.8232
v 0.75 1.6289 -1
v 0.8232 1.6289 -1.1768
v 1.1768 1.75 -1.1768
v 1 1.75 -1.25
v 1.25 1.75 -1
v 1.1768 1.75 -0.8232
v 1 1.75 -0.75
v 0.8232 1.75 -0.8232
v 0.75 1.75 -1
v 0.8232 1.75 -1.1768
v 1 1.75 -1.25
v 1.1768 1.75 -1.1768
v 1.25 1.75 -1
v 1.1768 1.75 -0.8232
v 1 1.75 -0.75
v 0.8232 1.75 -0.8232
v 0.75 1.75 -1
v 0.8232 1.75 -1.1768
v 0.25 1.4375 0.75
v 0.3125 1.4375 0.75
v 0.25 1.4375 0.25
v 0.3125 1.4375 0.25
v 0.6875 1.4375 0.25
v 0.75 1.4375 0.25
v 0.6875 1.4375 0.75
v 0.75 1.4375 0.75
v 0.25 1 0.75
v 0.25 1.125 0.75
v 0.25 1 0.25
v 0.25 1.125 0.25
v 0.75 1 0.75
v 0.75 1.125 0.75
v 0.75 1 0.25
v 0.75 1.125 0.25
v 0.25 1.125 0.6875
v 0.25 1.4375 0.6875
v 0.3125 1.125 0.75
v 0.3125 1.4375 0.75
v 0.3125 1.125 0.6875
v 0.3125 1.4375 0.6875
v 0.25 1.125 0.3125
v 0.25 1.4375 0.3125
v 0.3125 1.125 0.3125
v 0.3125 1.4375 0.3125
v 0.3125 1.125 0.25
v 0.3125 1.4375 0.25
v 0.6875 1.125 0.3125
v 0.6875 1.4375 0.3125
v 0.6875 1.125 0.25
v 0.6875 1.4375 0.25
v 0.75 1.125 0.3125
v 0.75 1.4375 0.3125
v 0.6875 1.125 0.75
v 0.6875 1.4375 0.75
v 0.6875 1.125 0.6875
v 0.6875 1.4375 0.6875
v 0.75 1.125 0.6875
v 0.75 1.4375 0.6875
v 0.25 1.375 0.6875
v 0.3125 1.375 0.6875
v 0.3125 1.375 0.75
v 0.25 1.375 0.3125
v 0.3125 1.375 0.25
v 0.3125 1.375 0.3125
v 0.6875 1.375 0.3125
v 0.6875 1.375 0.25
v 0.75 1.375 0.3125
v 0.6875 1.375 0.75
v 0.6875 1.375 0.6875
v 0.75 1.375 0.6875
v 0.25 1.125 0.75
v 0.25 1.4375 0.75
v 0.25 1.125 0.6875
v 0.25 1.4375 0.6875
v 0.3125 1.125 0.75
v 0.3125 1.4375 0.75
v 0.25 1.125 0.3125
v 0.25 1.4375 0.3125
v 0.25 1.125 0.25
v 0.25 1.4375 0.25
v 0.3125 1.125 0.25
v 0.3125 1.4375 0.25
v 0.6875 1.125 0.25
v 0.6875 1.4375 0.25
v 0.75 1.125 0.3125
v 0.75 1.4375 0.3125
v 0.75 1.125 0.25
v 0.75 1.4375 0.25
v 0.6875 1.125 0.75
v 0.6875 1.4375 0.75
v 0.75 1.125 0.75
v 0.75 1.4375 0.75
v 0.75 1.125 0.6875
v 0.75 1.4375 0.6875
v -0.4375 1 -0.5625
v 1.5 0.0312 -0.0312
v -0.4375 1.8438 -0.5625
v 0.0312 0.9688 -1.5
v -0.4375 1 -1.4375
v -1.5 0 0
v -1.5 0.0312 0.0312
v 0 0 1.5
v -1.4375 0.0625 -0
v -1.5 0.0625 -0
v 1.4375 0.0625 -0
v 1.5 0.0625 -0
v -0.5625 1 0.5
v -0.4375 1.8438 -1.4375
v -1.5 1 -0
v 0 1 1.5
v -0.0312 0.9688 1.5
v -1.5 0.9375 -0
v 1.5 0.9375 -0
v -1.4375 0.9375 -0
v 1.4375 0.9375 -0
v -0.5625 1.0625 0.5
v 0 -0 -1.5
v -0.0312 0.0312 -1.5
v 0 1 -1.5
v -1.5 0.9688 -0.0312
v 1.5 0 0
v 0.0312 0.0312 1.5
v 0 0.0625 -1.4375
v 0 0.0625 -1.5
v 0 0.0625 1.4375
v 0 0.0625 1.5
v -1.4375 1 0.5
v 1.5 1 -0
v 1.5 0.9688 0.0312
v 0 0.9375 -1.5
v 0 0.9375 1.5
v 0 0.9375 -1.4375
v 0 0.9375 1.4375
v -1.4375 1.0625 0.5
v 0 0 0
v 0 1 -0
v -0.75 0 1.5
v 0 1 0.75
v -1.5 -0 -0.75
v 0.75 0 1.5
v 0.75 0 0
v -0.75 1 -0
v -1.5 1 -0.75
v 0.75 1 1.5
v 0 0 0.75
v -1.5 1 0.75
v 1.5 1 0.75
v 0.75 -0 -1.5
v 0.75 1 -1.5
v 0 1 -0.75
v 0.75 1 -0
v -0.75 0 0
v -0.75 -0 -1.5
v 1.5 -0 -0.75
v 0 -0 -0.75
v -1.5 0 0.75
v 1.5 1 -0.75
v -0.75 1 -1.5
v -0.75 1 1.5
v 1.5 0 0.75
v -0.75 1 0.75
v 0.75 1 -0.75
v -0.75 1 -0.75
v 0.75 -0 -0.75
v 0.75 0 0.75
v -0.75 -0 -0.75
v -0.75 0 0.75
v 0.75 1 0.75
vt 0.4766 0.5644
vt 0.4805 0.5446
vt 0.4805 0.5644
vt 0.6797 0.8119
vt 0.6562 0.8218
vt 0.6562 0.8119
vt 0.1328 0.6634
vt 0.1523 0.6436
vt 0.1523 0.6634
vt 0.4414 0.5644
vt 0.4453 0.5446
vt 0.4453 0.5644
vt 0.8594 0.4059
vt 0.8594 0.2871
vt 0.9062 0.2871
vt 0.4336 0.5248
vt 0.4336 0.5347
vt 0.4297 0.5248
vt 0.7617 0.8119
vt 0.7617 0.7723
vt 0.7656 0.7723
vt 0.8594 1
vt 0.8594 0.8812
vt 0.9062 0.8812
vt 0.0977 0.4752
vt 0.1289 0.5941
vt 0.0977 0.5941
vt 0.2388 0.8812
vt 0.252 0.9208
vt 0.2534 0.8812
vt 0.4844 0.5347
vt 0.5 0.5545
vt 0.4844 0.5545
vt 0.7188 0.9901
vt 0.6562 0.8564
vt 0.6562 0.9901
vt 0.4531 0.5644
vt 0.4492 0.5446
vt 0.4531 0.5446
vt 0.8594 0.1683
vt 0.8594 0.0495
vt 0.9062 0.0495
vt 0.1914 0.7228
vt 0.207 0.7228
vt 0.207 0.8416
vt 0.6562 0.8317
vt 0.7188 0.8317
vt 0.7109 0.6535
vt 0.6875 0.6535
vt 0.6875 0.6436
vt 0.1328 0.6436
vt 0.4766 0.8317
vt 0.4766 0.8564
vt 0.5391 0.8812
vt 0.2383 0.7228
vt 0.2383 0.8416
vt 0.2227 0.8416
vt 0.3145 0.9208
vt 0.3027 0.9208
vt 0.3052 0.9604
vt 0.2266 0.3069
vt 0.2227 0.1683
vt 0.2266 0.1683
vt 0.3594 0.5545
vt 0.3711 0.4851
vt 0.3711 0.5545
vt 0.4141 0.3168
vt 0.4102 0.1683
vt 0.4141 0.1584
vt 0.4102 0.3069
vt 0.3672 0.3168
vt 0.2266 0.1584
vt 0.2305 0.3069
vt 0.2266 0.3168
vt 0.2305 0.1683
vt 0.2734 0.1584
vt 0.2188 0.3168
vt 0.2148 0.1683
vt 0.2188 0.1584
vt 0.2148 0.3069
vt 0.1719 0.3168
vt 0.0352 0.1683
vt 0.0312 0.1584
vt 0.0781 0.1584
vt 0.8047 0.3168
vt 0.8008 0.1683
vt 0.8047 0.1584
vt 0.8008 0.3069
vt 0.7578 0.3168
vt 0.6172 0.1584
vt 0.6211 0.3069
vt 0.6172 0.3168
vt 0.6211 0.1683
vt 0.6641 0.1584
vt 0.6094 0.3168
vt 0.6055 0.1683
vt 0.6094 0.1584
vt 0.6055 0.3069
vt 0.5625 0.3168
vt 0.4219 0.1584
vt 0.4258 0.3069
vt 0.4219 0.3168
vt 0.4258 0.1683
vt 0.4688 0.1584
vt 0.4062 0.5545
vt 0.4023 0.5743
vt 0.4023 0.5545
vt 0.4648 0.5644
vt 0.4688 0.5446
vt 0.4688 0.5644
vt 0.4648 0.3564
vt 0.4688 0.505
vt 0.4648 0.505
vt 0.4727 0.5644
vt 0.4766 0.5446
vt 0.6406 0.6535
vt 0.6172 0.6436
vt 0.6406 0.6436
vt 0 0.8614
vt 0.0117 0.7525
vt 0.0117 0.8614
vt 0.3984 0.5743
vt 0.3984 0.5545
vt 0.7461 0.5644
vt 0.7227 0.5545
vt 0.7461 0.5545
vt 0.457 0.3564
vt 0.4609 0.505
vt 0.457 0.505
vt 0.6758 0.5545
vt 0.6797 0.495
vt 0.6797 0.5545
vt 0.4258 0.5644
vt 0.4219 0.5446
vt 0.4258 0.5446
vt 0.5156 0.1782
vt 0.5156 0.1683
vt 0.2148 0.297
vt 0.125 0.3069
vt 0.125 0.297
vt 0.75 0.495
vt 0.75 0.5545
vt 0.0898 0.1485
vt 0.1797 0.0099
vt 0.1797 0.1485
vt 0.0586 0.3366
vt 0.1133 0.3267
vt 0.1133 0.3366
vt 0.3203 0.1782
vt 0.3203 0.1683
vt 0.8086 0.3069
vt 0.8047 0.3069
vt 0.8047 0.1683
vt 0.6875 0.5545
vt 0.6875 0.495
vt 0.7109 0.495
vt 0.3184 0.3119
vt 0.3203 0.3069
vt 0.3223 0.1634
vt 0.123 0.3119
vt 0.127 0.1634
vt 0.125 0.1683
vt 0.709 0.3119
vt 0.7109 0.3069
vt 0.7129 0.1634
vt 0.7109 0.1683
vt 0.5137 0.3119
vt 0.5156 0.3069
vt 0.5176 0.1634
vt 0.1055 0.8614
vt 0.1055 0.7525
vt 0.1172 0.7525
vt 0.4023 0.5248
vt 0.4062 0.5248
vt 0.4062 0.5347
vt 0.0469 0.9901
vt 0.0469 0.8812
vt 0.0586 0.8812
vt 0.2852 0.7228
vt 0.3008 0.7228
vt 0.3008 0.8416
vt 0.3169 0.8812
vt 0.3164 0.8416
vt 0.332 0.8416
vt 0.0938 0.9901
vt 0.0938 0.8812
vt 0.1055 0.8812
vt 0.2227 0.7228
vt 0.75 0.5842
vt 0.7266 0.5842
vt 0.7266 0.5743
vt 0.2739 0.9604
vt 0.2715 0.9208
vt 0.2832 0.9208
vt 0.1523 0.6832
vt 0.1328 0.6832
vt 0.1328 0.6733
vt 0.7188 0.6436
vt 0.7188 0.5842
vt 0.7227 0.5842
vt 0.9062 0.1683
vt 0.9531 0.0495
vt 0.4297 0.3564
vt 0.4336 0.3564
vt 0.4336 0.505
vt 0.3867 0.5347
vt 0.3867 0.5446
vt 0.3828 0.5446
vt 0.6484 0.5545
vt 0.6484 0.495
vt 0.6523 0.495
vt 0.0469 0.8614
vt 0.0469 0.8713
vt 0.0352 0.8713
vt 0.4688 0.3564
vt 0.4727 0.3564
vt 0.4727 0.505
vt 0.4492 0.5149
vt 0.4531 0.5149
vt 0.4531 0.5248
vt 0.1406 0.8713
vt 0.1289 0.8713
vt 0.1289 0.8614
vt 0.4844 0.5248
vt 0.5 0.505
vt 0.5 0.5248
vt 0.7969 0.8119
vt 0.7734 0.8218
vt 0.7734 0.8119
vt 0.6758 0.6436
vt 0.6797 0.5842
vt 0.6797 0.6436
vt 0.7578 0.8218
vt 0.7617 0.8218
vt 0.2266 0.604
vt 0.2227 0.4653
vt 0.2266 0.4653
vt 0.7188 0.8119
vt 0.6953 0.8218
vt 0.6953 0.8119
vt 0.4766 0.9901
vt 0.043 0.604
vt 0.043 0.4653
vt 0.3867 0.5149
vt 0.3828 0.3564
vt 0.3867 0.3564
vt 0.7109 0.5842
vt 0.7109 0.6436
vt 0.4219 0.5248
vt 0.4219 0.5347
vt 0.418 0.5347
vt 0.8125 0.7624
vt 0.8125 0.6436
vt 0.8594 0.6436
vt 0.1523 0.6931
vt 0.1328 0.6931
vt 0.9531 0.1683
vt 1 0.0495
vt 0.1523 0.7129
vt 0.5977 0.802
vt 0.6055 0.802
vt 0.6055 0.7228
vt 0.0234 0.8614
vt 0.0234 0.7525
vt 0.0352 0.7525
vt 0.2559 0.9208
vt 0.2544 0.8812
vt 0.269 0.8812
vt 0.2852 0.604
vt 0.2422 0.5149
vt 0.2852 0.5149
vt 0.2422 0.604
vt 0.2305 0.5149
vt 0.2539 0.8416
vt 0.2969 0.5149
vt 0.2969 0.604
vt 0.2422 0.4851
vt 0.2852 0.4851
vt 0.6133 0.5545
vt 0.6133 0.495
vt 0.6172 0.495
vt 0.1172 0.8614
vt 0.1289 0.7525
vt 0.1523 0.6733
vt 0.6445 0.7228
vt 0.6367 0.7228
vt 0.6367 0.802
vt 0.7344 0.8119
vt 0.7344 0.802
vt 0.7578 0.802
vt 0.0039 0.4653
vt 0.0039 0.604
vt 0.6836 0.6436
vt 0.6875 0.5842
vt 0.6758 0.6535
vt 0.6523 0.6436
vt 0.1328 0.7129
vt 0.2695 0.7228
vt 0.2695 0.8416
vt 0.3633 0.8416
vt 0.3638 0.8812
vt 0.3784 0.8812
vt 0.2183 0.9604
vt 0.2114 0.9604
vt 0.209 0.9208
vt 0.2422 0.6337
vt 0.332 0.7228
vt 0.3164 0.7228
vt 0.418 0.3564
vt 0.4219 0.505
vt 0.418 0.505
vt 0.6406 0.5545
vt 0.6445 0.495
vt 0.6445 0.5545
vt 0.7578 0.8119
vt 0.7344 0.8218
vt 0.3711 0.6337
vt 0.375 0.5644
vt 0.375 0.6337
vt 0.0703 0.8614
vt 0.082 0.7525
vt 0.082 0.8614
vt 0.4531 0.3564
vt 0.4531 0.505
vt -0 0.4653
vt 0.4219 0.3069
vt 0.418 0.1683
vt 0.4219 0.1683
vt 0.0703 0.9901
vt 0.082 0.8812
vt 0.082 0.9901
vt 0.418 0.5644
vt 0.4141 0.5446
vt 0.418 0.5446
vt 0.1055 0.9901
vt 0.1172 0.8812
vt 0.1172 0.9901
vt 0.7969 0.802
vt 0.1289 0.7327
vt 0.0977 0.7327
vt 0.0586 0.8614
vt 0.0703 0.7525
vt 0.8008 0.297
vt 0.7109 0.297
vt 0.4375 0.505
vt 0.8594 0.5248
vt 0.6445 0.5842
vt 0.6445 0.6436
vt 0.6406 0.495
vt 0.6172 0.4851
vt 0.6406 0.4851
vt 0.6172 0.5545
vt 0.8008 0.8119
vt 0.8047 0.7723
vt 0.8047 0.8119
vt 0.6523 0.7525
vt 0.6562 0.6733
vt 0.6562 0.7525
vt 0.3594 0.6337
vt 0.3711 0.5644
vt 0.3789 0.5545
vt 0.3828 0.5743
vt 0.3789 0.5743
vt 0.2539 0.7228
vt 0.1914 0.8416
vt 0.5977 0.7228
vt 0.7305 0.8218
vt 0.7344 0.7723
vt 0.7109 0.5545
vt 0.7148 0.495
vt 0.7148 0.5545
vt 0.3945 0.5545
vt 0.3945 0.5743
vt 0.5391 0.9901
vt 0.5938 0.8812
vt 0.3906 0.5248
vt 0.3906 0.5347
vt 0.395 0.8812
vt 0.3945 0.8416
vt 0.4102 0.8416
vt 0.2856 0.8812
vt 0.2871 0.9208
vt 0.2988 0.9208
vt 0.4062 0.5446
vt 0.4023 0.5446
vt 0.3438 0.6337
vt 0.3438 0.5644
vt 0.3555 0.5644
vt 0.3965 0.9208
vt 0.4082 0.9208
vt 0.1743 0.9821
vt 0.1577 0.9821
vt 0.1577 0.909
vt 0.7266 0.8119
vt 0.7266 0.7723
vt 0.7305 0.7723
vt 0.6797 0.7624
vt 0.6562 0.7624
vt 0.2402 0.9208
vt 0.3989 0.9604
vt 0.4058 0.9604
vt 0.3013 0.8812
vt 0.3477 0.7228
vt 0.1919 0.8812
vt 0.2065 0.8812
vt 0.27 0.8812
vt 0.2676 0.9208
vt 0.1172 0.8713
vt 0.1055 0.8713
vt 0.3926 0.9208
vt 0.3809 0.9208
vt 0.3794 0.8812
vt 0.2378 0.8812
vt 0.2231 0.8812
vt 0.489 0.4832
vt 0.489 0.4277
vt 0.511 0.4277
vt 0.3003 0.8812
vt 0.2852 0.8416
vt 0.3325 0.8812
vt 0.3477 0.8416
vt 0.3496 0.9208
vt 0.3481 0.8812
vt 0.3628 0.8812
vt 0.0352 0.8614
vt 0.0469 0.7525
vt 0.3613 0.9208
vt 0.4336 0.5644
vt 0.4297 0.5446
vt 0.4336 0.5446
vt 0.3719 0.4675
vt 0.3585 0.4335
vt 0.3719 0.4335
vt 0.7109 0.5644
vt 0.4219 0.5644
vt 0.1289 0.8812
vt 0.1289 0.9901
vt 0.6914 0.8218
vt 0.6953 0.7723
vt 0.125 0.1782
vt 0.0586 0.7525
vt 0.1172 1
vt 0.0117 1
vt 0 0.9901
vt 0.0117 0.9901
vt 0.0586 1
vt 0.0586 0.9901
vt 0.1406 0.9901
vt 0.1289 1
vt 0.082 1
vt 0.0234 1
vt 0.0469 1
vt 0.0352 0.9901
vt 0.0938 0.8713
vt 0.0938 0.8614
vt 0.0703 0.8713
vt 0.6445 0.802
vt 0.1406 0.7525
vt 0.1406 0.8614
vt 0.7461 0.6535
vt 0.7227 0.6436
vt 0.7461 0.6436
vt 0.0234 0.8812
vt 0.0234 0.9901
vt 0.6055 0.297
vt 0.5156 0.297
vt 0.3633 0.7228
vt 0.0938 0.7525
vt 0.6797 0.8218
vt 0.6836 0.7723
vt 0.6836 0.8218
vt 0.0938 1
vt 0.0352 1
vt 0.0234 0.8713
vt -0 0.8713
vt 0.1055 1
vt 0.1516 0.8379
vt 0.1804 0.7957
vt 0.166 0.8591
vt 0.2026 0.9604
vt 0.1958 0.9604
vt 0.1934 0.9208
vt 0.2051 0.9208
vt 0.5 0.5347
vt 0.0586 0.8713
vt 0.2246 0.9208
vt 0.2363 0.9208
vt 0.0117 0.8713
vt 0.7461 0.5842
vt 0.394 0.8812
vt 0.8594 0.7624
vt 0.9062 0.6436
vt 0.9062 0.7624
vt 0.5156 0.3168
vt 0.7109 0.1584
vt 0.4648 0.5446
vt 0 0.7525
vt 0.9531 0.2871
vt 0.7109 0.3168
vt 0.7227 0.5644
vt 0.1516 0.7957
vt 0.1577 0.7803
vt 0.166 0.7746
vt 0.1743 0.7803
vt 0.1827 0.8168
vt 0.1804 0.838
vt 0.1743 0.8534
vt 0.1577 0.8534
vt 0.1494 0.8168
vt 0.9531 0.4059
vt 1 0.2871
vt 1 0.4059
vt 0.2427 0.9604
vt 0.3433 0.9604
vt 0.3364 0.9604
vt 0.334 0.9208
vt 0.3789 0.8416
vt 0.2227 0.3069
vt 0.2188 0.3069
vt 0.2188 0.1683
vt 0.6875 0.8119
vt 0.6875 0.7723
vt 0.6914 0.7723
vt 0.4727 0.5446
vt 0.9062 0.5248
vt 0.4062 0.5743
vt 1 0.1683
vt 0.6172 0.6535
vt 0.8125 0.2871
vt 0.1516 0.9667
vt 0.1494 0.9455
vt 0.1516 0.9244
vt 0.166 0.9033
vt 0.1743 0.909
vt 0.1804 0.9244
vt 0.1827 0.9455
vt 0.1804 0.9667
vt 0.166 0.9878
vt 0.9531 0.5248
vt 1 0.5248
vt 0.75 0.5743
vt 0.6523 0.5545
vt 0.4023 0.5149
vt 0.3984 0.3564
vt 0.4023 0.3564
vt 0.6797 0.7426
vt 0.6797 0.7525
vt 0.7109 0.1782
vt 0.2227 0.604
vt 0.1836 0.4653
vt 0.7148 0.5842
vt 0.7148 0.6436
vt 0.3789 0.6832
vt 0.4336 0.5842
vt 0.4336 0.6832
vt 0.7969 0.8218
vt 0.8008 0.7723
vt 0.8008 0.8218
vt 0.6758 0.495
vt 0.6523 0.4851
vt 0.6758 0.4851
vt 0.7227 0.8119
vt 0.7461 0.495
vt 0.3867 0.5545
vt 0.3906 0.5743
vt 0.3867 0.5743
vt 0.3984 0.5149
vt 0.3945 0.3564
vt 0.4375 0.5644
vt 0.4414 0.5446
vt 0.1289 0.4752
vt 0.1836 0.604
vt 0.3159 0.8812
vt 0.2495 0.9604
vt 0.4375 0.5446
vt 0.3652 0.9208
vt 0.377 0.9208
vt 0.3945 0.7228
vt 0.4102 0.7228
vt 0.8125 0.1683
vt 0.8125 0.0495
vt 0.3833 0.9604
vt 0.4102 0.297
vt 0.2075 0.8812
vt 0.2583 0.9604
vt 0.0352 0.8812
vt 0.3457 0.9208
vt 0.9062 1
vt 0.9531 0.8812
vt 0.9531 1
vt 0.9062 0.4059
vt 0.8125 1
vt 0.9531 0.6436
vt 0.9531 0.7624
vt 1 0.7624
vt 1 0.8812
vt 1 1
vt 1 0.6436
vt 0.8125 0.5248
vt 0.4492 0.5644
vt 0.4141 0.8317
vt 0.3594 0.4851
vt 0.3203 0.3168
vt 0.125 0.3168
vt 0.5156 0.1584
vt 0.3203 0.1584
vt 0.125 0.1584
vt 0.511 0.4832
vt 0.3906 0.5149
vt 0.3906 0.3564
vt 0.3789 0.7228
vt 0.6875 0.5743
vt 0.7109 0.5743
vt 0.6406 0.5842
vt 0.6172 0.5743
vt 0.6406 0.5743
vt 0.2896 0.9604
vt 0.2964 0.9604
vt 0.2222 0.8812
vt 0.293 1
vt 0.2847 0.8812
vt 0.2808 0.9604
vt 0.2773 1
vt 0.3472 0.8812
vt 0.2651 0.9604
vt 0.2617 1
vt 0.2461 1
vt 0.2339 0.9604
vt 0.2305 1
vt 0.2271 0.9604
vt 0.2207 0.9208
vt 0.2148 1
vt 0.1992 1
vt 0.4097 0.8812
vt 0.312 0.9604
vt 0.4023 1
vt 0.3315 0.8812
vt 0.3828 0.5347
vt 0.3901 0.9604
vt 0.3867 1
vt 0.3745 0.9604
vt 0.3711 1
vt 0.3677 0.9604
vt 0.3589 0.9604
vt 0.3555 1
vt 0.3521 0.9604
vt 0.3398 1
vt 0.3184 0.9208
vt 0.3276 0.9604
vt 0.3301 0.9208
vt 0.3242 1
vt 0.3208 0.9604
vt 0.3086 1
vt 0.6523 0.6832
vt 0.6484 0.7426
vt 0.6484 0.6832
vt 0.7656 0.8119
vt 0.3906 0.5545
vt 0.2852 0.6337
vt 0.7188 0.5545
vt 0.7227 0.495
vt 0.25 0.49
vt 0.01 0.25
vt 0.25 0.01
vt 0.4062 0.5149
vt 0.3555 0.5545
vt 0.3555 0.4851
vt 0.0117 0.8812
vt 0.0312 0.3069
vt 0.0273 0.3069
vt 0.0273 0.1683
vt 0.7969 0.7723
vt 0.6758 0.5842
vt 0.7734 0.802
vt 0.4844 0.505
vt 0.418 0.3069
vt 0.6875 0.5644
vt 0.3828 0.5149
vt 0.082 0.8713
vt 0.0898 0.0099
vt 0.3828 0.5545
vt 0.2148 0.1782
vt 0.6523 0.6733
vt 0.0703 1
vt 0.1406 1
vt 0.7578 0.7723
vt 0.4375 0.3564
vt 0.0586 0.3267
vt 0.3585 0.4675
vt 0.2305 0.604
vt 0.4141 0.5644
vt 0.6797 0.7723
vt 0.6172 0.5842
vt 0.4258 0.3564
vt 0.4297 0.505
vt 0.7227 0.6535
vt -0 0.604
vt 0.4102 0.1782
vt 0.6055 0.1782
vt 0.4297 0.5644
vt 0.7188 0.8218
vt 0.0703 0.8812
vt 0.3594 0.5644
vt -0 1
vt 0.4609 0.3564
vt 0.2695 0.1485
vt 0.3594 0.0099
vt 0.3594 0.1485
vt 0.5391 0.5644
vt 0.5938 0.7228
vt 0.5391 0.7228
vt 0.7305 0.8119
vt 0.4414 0.505
vt 0.3203 0.297
vt 0.49 0.25
vt 0.6836 0.8119
vt 0.5938 0.9901
vt 0.3984 0.5248
vt 0.3945 0.5347
vt 0.3945 0.5248
vt 0.4297 0.5149
vt 0.4258 0.5248
vt 0.4258 0.5149
vt 0.3867 0.5248
vt 0.418 0.5248
vt 0.4141 0.5347
vt 0.4141 0.5248
vt 0.4336 0.5149
vt 0.3984 0.5347
vt 0.4023 0.5347
vt 0.4414 0.5248
vt 0.4375 0.5347
vt 0.4375 0.5248
vt 0.3984 0.5446
vt 0.3906 0.5446
vt 0.4492 0.5248
vt 0.3945 0.5446
vt 0.4414 0.3564
vt 0.4453 0.505
vt 0.6797 0.6733
vt 0.6562 0.6634
vt 0.6797 0.6634
vt 0.4258 0.505
vt 0.8086 0.1683
vt 0.0312 0.1683
vt 0.6914 0.8119
vt 0.3555 0.6337
vt 0.4062 0.3564
vt 0.3789 0.3564
vt 0.4648 0.5149
vt 0.4609 0.5248
vt 0.4609 0.5149
vt 0.457 0.5248
vt 0.457 0.5149
vt 0.3789 0.5248
vt 0.3789 0.5347
vt 0.4688 0.5248
vt 0.4648 0.5248
vt 0.4688 0.5149
vt 0.4375 0.5149
vt 0.4727 0.5149
vt 0.4766 0.5248
vt 0.4727 0.5248
vt 0.4727 0.5347
vt 0.4688 0.5347
vt 0.7188 0.1485
vt 0.8086 0.0099
vt 0.8086 0.1485
vt 0.4492 0.5347
vt 0.4531 0.5347
vt 0.4609 0.5347
vt 0.457 0.5347
vt 0.4648 0.5347
vt 0.4297 0.5347
vt 0.7188 0.802
vt 0.4805 0.5842
vt 0.4805 0.6832
vt 0.6055 0.703
vt 0.6367 0.703
vt 0.6289 0.1485
vt 0.7188 0.0099
vt 0.6875 0.6832
vt 0.6836 0.7426
vt 0.6836 0.6832
vt 0.4141 0.1683
vt 0.6875 0.4851
vt 0.7109 0.4851
vt 0.7734 0.8317
vt 0.5352 0.5842
vt 0.5352 0.6832
vt 0.4258 0.5347
vt 0.3828 0.5248
vt 0.4141 0.5149
vt 0.4453 0.5248
vt 0.4414 0.5149
vt 0.2305 0.297
vt 0.3789 0.5446
vt 0.418 0.5149
vt 0.4219 0.5149
vt 0.3789 0.5842
vt 0.6523 0.7426
vt 0.3747 0.4505
vt 0.3652 0.4745
vt 0.3558 0.4505
vt 0.3652 0.4265
vt 0.4197 0.4197
vt 0.0803 0.4197
vt 0.0803 0.0803
vt 0.4197 0.0803
vt 0.3789 0.5149
vt 0.4102 0.5347
vt 0.4688 0.3168
vt 0.4102 0.5248
vt 0.8125 0.4059
vt 0.6211 0.1782
vt 0.4102 0.5446
vt 0.168 0.3267
vt 0.168 0.3366
vt 0.2695 0.0099
vt 0.8008 0.1782
vt 0.4805 0.5248
vt 0.4766 0.5149
vt 0.5625 0.1584
vt 0.4453 0.5149
vt 0.4453 0.5347
vt 0.4414 0.5347
vt 0.0352 0.3069
vt 0.0312 0.3168
vt 0.6523 0.6535
vt 0.0352 0.297
vt 0.4492 0.0099
vt 0.4492 0.1485
vt 0.6211 0.297
vt 0.8125 0.8812
vt 0.1133 0.7426
vt 0.168 0.7327
vt 0.168 0.7426
vt 0.4258 0.1782
vt 0.6836 0.5842
vt 0.2305 0.1782
vt 0.4805 0.5149
vt 0.0352 0.1782
vt 0.4258 0.297
vt 0.4805 0.5347
vt 0.4766 0.5347
vt 0.4219 0.3564
vt 0.5391 0.1485
vt 0.6289 0.0099
vt 0.4141 0.9901
vt 0.5391 0.0099
vt 0.1406 0.8812
vt 0.6836 0.6733
vt 0.6836 0.7525
vt 0.4766 0.505
vt 0.6484 0.6436
vt 0.6523 0.5842
vt 0.6797 0.802
vt 0.4336 0.8218
vt 0.4805 0.8218
vt 0.6406 0.5644
vt 0.6484 0.8119
vt 0.6523 0.7723
vt 0.6523 0.8119
vt 0.3438 0.5545
vt 0.3398 0.5149
vt 0.3398 0.604
vt 0.4453 0.3564
vt 0.7188 0.495
vt 0.7578 0.1584
vt 0.1719 0.1584
vt 0.0781 0.3168
vt 0.6641 0.3168
vt 0.3672 0.1584
vt 0.2734 0.3168
vt 0.5 0.4947
vt 0.4845 0.4554
vt 0.5 0.4162
vt 0.5155 0.4554
vt 0.5352 0.4166
vt 0.546 0.428
vt 0.5505 0.4554
vt 0.546 0.4829
vt 0.5352 0.4943
vt 0.5243 0.4829
vt 0.5198 0.4554
vt 0.5243 0.428
vt 0.0977 0.3366
vt 0.1289 0.3366
vt 0.7695 0.8218
vt 0.7734 0.7723
vt 0.457 0.5644
vt 0.457 0.5446
vt 0.6367 0.8218
vt 0.6055 0.8218
vt 0.4766 0.3564
vt 0.4805 0.505
vt 0.6133 0.6436
vt 0.4609 0.5644
vt 0.4609 0.5446
vt 0.4102 0.5149
vt 0.4102 0.3564
vt 0.7227 0.4851
vt 0.7461 0.4851
vt 0.7227 0.7723
vt 0.7227 0.8218
vt 0.6836 0.5545
vt 0.6172 0.3069
vt 0.6133 0.1683
vt 0.6172 0.1683
vt 0.0586 0.7426
vt 0.1133 0.7327
vt 0.6523 0.5743
vt 0.6758 0.5743
vt 0.7695 0.7723
vt 0.7695 0.8119
vt 0.375 0.4851
vt 0.375 0.5545
vt 0.6758 0.5644
vt 0.4492 0.3564
vt 0.4492 0.505
vt 0.4141 0.3564
vt 0.4141 0.505
vt 0.4102 0.5545
vt 0.6562 0.6832
vt 0.6797 0.6832
vt 0.6133 0.3069
vt 0.6094 0.1683
vt 0.3945 0.5149
vt 0.6523 0.8218
vt 0.6562 0.7723
vt 0.6562 0.7426
vt 0.5938 0.5644
vt 0.6953 0.802
vt 0.6875 0.7426
vt 0.4141 0.3069
vt 0.7734 0.9901
vt 0.6484 0.5842
vt 0.6562 0.802
vt 0.6172 0.5644
vt 0.6484 0.7723
vt 0.3438 0.4851
vt 0 0.8812
vt 0.4805 0.3564
vt 0.6133 0.5842
vt 0.7188 0.7723
vt 0.6836 0.495
vt 0.0586 0.7327
vt 0.6523 0.5644
vt 0.4102 0.5743
vt 0.6094 0.3069
s 1
f 568/11 565/12 566/13
f 652/14 682/15 668/16
f 315/17 273/18 314/19
f 528/20 525/21 526/22
f 779/23 759/24 749/25
f 551/26 518/27 552/28
f 678/29 657/30 659/31
f 760/32 775/33 756/34
f 90/35 87/36 89/37
f 434/38 429/39 430/40
f 620/41 611/42 612/43
f 19/44 722/45 713/46
f 564/47 565/48 563/49
f 311/17 265/18 310/19
f 781/50 770/51 714/52
f 338/53 337/54 372/55
f 25/56 722/45 20/57
f 164/58 168/59 170/60
f 316/17 277/61 275/18
f 26/62 711/63 22/64
f 407/65 439/66 435/67
f 469/68 472/69 416/70
f 53/71 38/72 54/73
f 120/74 121/75 122/76
f 28/77 35/78 27/79
f 36/80 28/77 760/81
f 29/82 37/83 30/84
f 38/85 29/82 753/86
f 30/87 39/88 29/89
f 40/90 30/87 772/91
f 33/89 41/90 34/87
f 42/92 33/93 762/94
f 34/95 43/96 33/97
f 44/98 34/95 771/99
f 31/100 45/101 32/102
f 46/103 31/100 774/104
f 32/105 47/106 31/107
f 48/108 32/105 758/109
f 27/110 49/111 28/112
f 50/113 27/110 751/114
f 474/115 487/116 488/117
f 558/118 555/119 556/120
f 577/121 571/122 569/123
f 554/124 567/125 568/11
f 132/126 138/127 134/128
f 218/129 195/130 216/131
f 476/117 473/132 474/133
f 314/17 271/18 313/19
f 172/134 178/135 174/136
f 318/17 279/18 317/19
f 621/41 612/42 613/43
f 580/137 573/138 572/139
f 144/140 145/141 146/142
f 520/143 521/144 519/145
f 66/106 740/146 739/147
f 56/148 744/149 746/150
f 160/136 161/151 162/152
f 57/153 737/154 746/155
f 68/156 721/157 730/158
f 54/78 718/159 717/160
f 59/161 43/162 44/163
f 180/164 179/165 183/166
f 28/77 36/80 35/78
f 734/167 726/168 36/80
f 29/82 38/85 37/83
f 715/169 718/160 38/85
f 30/87 40/90 39/88
f 712/170 744/149 40/90
f 33/89 42/88 41/90
f 732/171 738/172 42/92
f 34/95 44/98 43/96
f 743/173 727/174 44/98
f 31/100 46/103 45/101
f 710/175 720/176 46/103
f 32/105 48/108 47/106
f 725/177 745/178 48/108
f 27/110 50/113 49/111
f 736/179 740/147 50/113
f 200/180 187/181 198/182
f 496/183 490/184 505/185
f 252/186 231/187 230/188
f 332/189 331/190 347/191
f 399/192 400/193 396/194
f 236/195 223/196 234/197
f 337/198 336/54 368/55
f 159/199 155/200 157/201
f 353/202 354/203 350/204
f 300/205 302/206 278/207
f 158/208 157/209 155/210
f 766/211 714/52 753/212
f 266/207 310/17 309/19
f 537/213 539/214 531/215
f 508/216 484/217 482/218
f 142/219 141/220 139/221
f 210/222 209/223 211/224
f 578/225 577/226 569/227
f 574/228 575/229 587/230
f 217/231 219/232 220/233
f 604/234 595/235 603/236
f 673/237 656/238 676/239
f 128/240 129/241 130/242
f 696/243 693/30 694/244
f 80/245 81/246 82/247
f 681/248 672/249 684/250
f 709/251 22/64 711/63
f 90/35 85/252 86/253
f 607/234 598/235 606/236
f 501/254 494/255 493/256
f 164/60 167/257 168/258
f 548/259 524/260 522/261
f 724/262 758/263 782/264
f 260/207 308/17 318/19
f 322/265 323/266 292/206
f 325/265 326/266 298/206
f 780/267 753/212 29/268
f 320/266 330/265 305/269
f 644/270 643/271 641/272
f 214/273 194/274 193/275
f 358/276 359/277 355/278
f 327/266 326/265 297/269
f 106/279 103/280 105/281
f 104/282 99/283 103/280
f 408/198 439/55 407/54
f 435/66 430/40 431/284
f 106/279 101/285 102/286
f 105/281 99/287 101/288
f 320/265 319/266 286/206
f 150/289 149/290 147/291
f 222/292 198/182 197/293
f 260/294 284/205 286/206
f 646/295 645/296 647/297
f 678/298 677/299 680/300
f 91/301 95/252 92/302
f 308/17 281/18 318/19
f 166/303 163/304 164/60
f 642/272 648/297 644/271
f 313/17 269/18 312/19
f 124/305 130/306 126/240
f 323/266 289/269 291/307
f 334/308 356/284 360/309
f 355/278 359/277 360/284
f 459/310 458/311 454/312
f 317/17 316/19 278/294
f 365/313 369/314 370/315
f 298/205 300/206 276/207
f 345/70 401/69 398/68
f 100/316 104/282 106/279
f 344/317 343/318 396/193
f 541/319 534/320 533/321
f 152/322 153/323 154/324
f 677/325 664/326 680/298
f 108/327 111/328 112/329
f 206/330 189/331 204/332
f 581/333 574/139 573/334
f 78/302 75/335 76/301
f 65/336 50/337 66/338
f 256/339 232/340 254/341
f 524/342 525/343 523/344
f 238/345 223/346 236/347
f 317/17 277/18 316/19
f 674/239 676/348 678/237
f 89/37 83/349 85/350
f 603/234 594/235 601/236
f 208/351 190/352 206/330
f 60/353 727/174 729/354
f 538/214 529/355 530/215
f 328/266 299/269 301/307
f 758/263 761/356 782/264
f 618/41 616/42 609/43
f 136/128 137/357 138/358
f 151/359 149/360 153/361
f 148/362 151/359 152/322
f 674/363 649/364 673/365
f 634/366 635/367 633/368
f 112/369 113/370 114/327
f 326/266 295/269 297/307
f 324/266 291/269 293/307
f 484/371 485/372 483/373
f 405/308 427/284 404/374
f 403/189 418/191 402/190
f 338/53 372/55 376/375
f 316/17 275/18 315/19
f 320/266 305/269 283/307
f 644/270 641/272 642/376
f 602/234 600/235 608/236
f 702/377 697/378 698/326
f 184/379 185/380 186/381
f 476/382 477/132 475/383
f 363/38 364/66 360/284
f 307/17 308/19 260/294
f 22/384 21/64 23/385
f 493/386 509/387 510/216
f 379/388 380/389 376/390
f 422/391 421/392 472/393
f 329/265 330/266 306/206
f 505/185 474/394 488/395
f 110/396 109/397 107/398
f 450/388 449/399 445/400
f 243/401 239/402 255/403
f 270/207 312/17 311/19
f 680/404 663/405 661/406
f 662/407 658/408 678/368
f 362/409 363/38 359/40
f 286/205 288/206 264/207
f 282/207 318/17 317/19
f 449/399 448/410 444/411
f 398/68 401/69 346/412
f 343/413 342/317 392/194
f 314/17 313/19 272/294
f 278/207 316/17 315/19
f 446/414 442/415 443/55
f 350/204 354/203 355/416
f 429/276 425/417 426/278
f 222/292 221/418 199/419
f 286/205 319/265 321/266
f 216/131 195/130 194/274
f 378/420 382/421 383/422
f 364/66 363/423 367/424
f 616/425 614/426 612/427
f 272/207 313/17 312/19
f 431/284 430/277 426/278
f 346/428 351/391 352/429
f 395/430 396/194 392/431
f 759/24 781/50 766/211
f 390/432 391/433 387/434
f 212/435 193/275 192/436
f 383/312 387/311 388/310
f 461/432 457/437 458/434
f 330/266 303/269 305/307
f 516/438 517/439 515/440
f 309/17 261/18 307/19
f 475/441 483/442 487/443
f 180/444 186/164 182/379
f 522/445 523/344 521/144
f 240/347 224/446 238/447
f 706/448 707/449 708/249
f 312/17 267/18 311/19
f 404/189 423/309 403/308
f 58/88 738/450 737/172
f 210/222 191/451 208/351
f 211/224 214/273 212/435
f 238/447 239/452 240/347
f 241/453 244/454 242/455
f 252/339 253/456 254/457
f 249/456 252/186 250/457
f 240/458 241/459 242/447
f 253/460 256/339 254/341
f 246/455 243/461 245/453
f 300/205 328/266 302/206
f 247/462 250/463 248/186
f 201/464 204/332 202/465
f 204/332 205/466 206/330
f 260/294 286/206 262/207
f 150/289 147/291 148/362
f 646/295 647/297 648/467
f 678/298 680/300 679/325
f 333/189 352/309 356/429
f 220/233 196/468 218/469
f 156/470 162/471 158/472
f 246/455 227/473 244/474
f 64/475 745/178 747/476
f 342/477 388/431 392/310
f 204/332 188/478 202/465
f 704/479 705/480 706/481
f 222/292 197/293 220/233
f 320/265 286/206 284/205
f 255/482 258/341 256/195
f 258/345 235/482 236/195
f 205/466 208/351 206/330
f 245/483 248/474 246/463
f 304/205 282/207 280/294
f 199/419 202/465 200/180
f 213/484 216/131 214/273
f 216/131 217/485 218/129
f 238/345 235/452 237/486
f 208/351 209/223 210/222
f 294/205 325/266 296/206
f 207/487 219/488 211/489
f 369/490 373/491 374/492
f 445/492 441/493 442/415
f 624/494 618/41 602/234
f 208/351 207/495 209/223
f 435/66 439/67 438/424
f 438/424 437/496 433/497
f 216/131 215/498 217/485
f 156/471 155/210 159/499
f 454/422 450/500 451/389
f 199/419 201/464 202/465
f 292/205 294/206 270/207
f 294/205 324/265 325/266
f 476/117 475/116 473/132
f 752/501 765/502 750/503
f 724/504 725/177 758/109
f 735/505 710/175 774/104
f 759/24 766/211 749/25
f 558/118 557/506 555/119
f 218/129 196/507 195/130
f 749/25 780/267 769/508
f 742/509 743/173 771/99
f 172/134 176/510 178/135
f 724/262 782/264 752/501
f 725/177 48/108 758/109
f 203/511 201/512 199/513
f 199/513 221/514 219/488
f 219/488 217/515 215/516
f 215/516 213/517 211/489
f 211/489 209/518 207/487
f 207/487 205/519 203/511
f 203/511 199/513 219/488
f 219/488 215/516 211/489
f 778/520 731/521 762/522
f 294/205 296/206 272/207
f 401/393 350/392 351/391
f 361/523 362/409 358/39
f 205/466 207/495 208/351
f 389/524 393/525 394/526
f 383/422 384/527 380/389
f 245/483 247/461 248/474
f 55/528 39/529 40/530
f 684/531 671/532 669/533
f 207/487 203/511 219/488
f 306/205 284/206 260/207
f 213/484 215/498 216/131
f 554/124 553/534 567/125
f 782/264 742/535 765/502
f 474/115 473/536 487/116
f 710/175 46/103 774/104
f 769/508 767/537 731/521
f 780/267 29/268 767/537
f 314/17 273/61 271/18
f 781/50 714/52 766/211
f 743/173 44/98 771/99
f 132/126 136/538 138/127
f 716/539 781/50 759/24
f 736/179 50/113 751/114
f 239/402 237/540 235/541
f 235/541 257/542 255/403
f 255/403 253/543 251/544
f 251/544 249/545 247/546
f 247/546 245/547 243/401
f 243/401 241/548 239/402
f 239/402 235/541 255/403
f 255/403 251/544 247/546
f 768/549 762/522 33/550
f 159/199 157/201 161/551
f 142/219 139/221 140/552
f 498/553 489/554 490/555
f 622/41 613/42 614/43
f 156/471 159/499 160/472
f 236/195 234/197 258/345
f 578/225 569/227 570/122
f 55/528 40/530 56/72
f 307/17 259/18 308/19
f 176/136 177/151 178/152
f 660/368 662/556 664/557
f 62/96 720/558 719/176
f 97/559 94/560 96/246
f 168/258 169/561 170/562
f 310/17 263/18 309/19
f 10/563 13/564 14/565
f 250/463 229/187 248/186
f 688/566 685/567 686/568
f 143/569 141/570 145/571
f 679/572 665/405 681/404
f 172/135 175/573 176/136
f 480/574 481/575 479/576
f 497/577 491/578 489/554
f 514/579 527/580 528/20
f 300/205 278/207 276/294
f 292/205 270/207 268/294
f 272/294 298/206 274/207
f 306/205 260/207 282/294
f 243/401 255/403 247/546
f 266/294 292/206 268/207
f 624/494 602/234 608/236
f 286/205 264/207 262/294
f 294/205 272/207 270/294
f 288/205 266/207 264/294
f 298/205 276/207 274/294
f 278/294 304/206 280/207
f 314/17 272/294 274/207
f 276/207 314/19 274/294
f 311/17 266/294 268/207
f 272/207 312/19 270/294
f 309/17 262/294 264/207
f 270/207 311/19 268/294
f 266/207 309/19 264/294
f 282/207 317/19 280/294
f 307/17 260/294 262/207
f 260/207 318/19 282/294
f 329/265 306/206 304/205
f 278/207 315/19 276/294
f 210/222 211/224 212/435
f 219/232 222/292 220/233
f 322/265 292/206 290/205
f 325/265 298/206 296/205
f 326/265 300/206 298/205
f 222/292 199/419 200/180
f 317/17 278/294 280/207
f 286/205 321/266 288/206
f 328/265 304/206 302/205
f 306/205 320/266 284/206
f 323/265 294/206 292/205
f 288/205 322/266 290/206
f 87/581 88/36 84/582
f 266/294 290/205 292/206
f 414/413 467/431 463/194
f 417/412 470/583 471/193
f 432/523 428/584 429/39
f 288/205 290/206 266/207
f 768/549 778/520 762/522
f 325/266 324/265 293/269
f 374/492 375/414 371/415
f 309/17 307/19 262/294
f 514/579 513/585 527/580
f 457/586 453/587 454/312
f 339/588 338/589 376/390
f 328/265 329/266 304/206
f 751/590 27/591 770/51
f 480/382 479/383 477/575
f 381/592 382/421 378/420
f 423/429 422/391 417/428
f 52/593 36/80 726/168
f 371/594 372/55 368/67
f 357/595 358/276 354/417
f 250/463 230/596 229/187
f 375/414 376/375 372/55
f 466/430 465/526 461/597
f 723/598 777/599 757/600
f 779/23 749/25 755/601
f 28/602 775/33 760/32
f 750/503 776/603 764/604
f 735/535 778/520 768/549
f 777/599 733/605 772/606
f 760/32 756/34 723/598
f 774/356 755/601 735/535
f 757/600 772/606 30/607
f 776/603 34/550 763/608
f 31/609 779/23 774/356
f 764/604 763/608 733/605
f 53/71 37/528 38/72
f 620/41 619/494 611/42
f 25/56 24/385 722/45
f 311/17 267/61 265/18
f 19/44 20/57 722/45
f 564/47 566/610 565/48
f 26/62 18/611 711/63
f 434/38 433/409 429/39
f 120/74 119/612 121/75
f 734/167 36/80 760/81
f 90/35 88/581 87/36
f 723/613 734/167 760/81
f 577/121 579/225 571/122
f 568/11 567/125 565/12
f 733/614 712/170 772/91
f 715/169 38/85 753/86
f 315/17 275/61 273/18
f 716/615 736/179 751/114
f 714/616 715/169 753/86
f 652/14 675/479 682/15
f 732/171 42/92 762/94
f 731/617 732/171 762/94
f 528/20 527/580 525/21
f 712/170 40/90 772/91
f 616/425 612/427 610/618
f 319/266 283/269 285/307
f 500/619 493/256 492/620
f 341/621 384/310 388/527
f 407/65 435/67 406/198
f 167/257 165/622 169/623
f 135/624 133/625 137/626
f 409/53 443/55 408/54
f 414/413 463/194 413/317
f 751/590 770/51 781/50
f 411/477 459/527 455/310
f 329/266 301/269 303/307
f 340/588 380/527 384/389
f 423/429 417/428 418/191
f 472/393 420/627 416/628
f 367/629 370/315 371/594
f 345/628 348/630 349/627
f 424/202 421/204 425/203
f 426/416 421/204 422/631
f 349/632 348/633 353/202
f 470/192 467/194 471/193
f 466/430 461/597 462/634
f 353/635 348/636 357/595
f 395/430 392/431 391/634
f 353/202 350/204 349/632
f 357/584 348/637 361/523
f 391/433 388/310 387/434
f 437/496 432/638 433/497
f 461/432 458/434 462/433
f 435/66 438/424 434/423
f 445/492 440/490 441/493
f 438/424 433/497 434/423
f 361/638 348/639 365/640
f 438/629 441/315 437/641
f 365/313 348/642 369/314
f 364/66 367/424 368/67
f 441/315 436/313 437/641
f 445/492 442/415 446/414
f 369/490 348/643 373/491
f 379/388 376/390 375/644
f 345/70 398/68 397/645
f 451/389 446/644 447/390
f 401/393 349/627 350/392
f 450/388 445/400 446/644
f 373/411 348/646 377/410
f 399/192 396/194 395/647
f 217/231 220/233 218/469
f 508/216 482/218 509/648
f 377/649 348/650 381/592
f 457/586 454/312 458/311
f 381/651 348/652 385/653
f 459/310 454/312 455/527
f 465/526 460/524 461/597
f 362/409 359/40 358/39
f 385/654 348/655 389/656
f 463/431 458/434 459/310
f 361/523 358/39 357/584
f 466/430 463/431 467/194
f 428/595 425/417 429/276
f 386/586 383/312 382/587
f 389/524 348/657 393/525
f 469/658 464/659 465/660
f 469/658 466/647 470/192
f 393/659 348/661 397/662
f 423/429 426/416 422/631
f 417/412 469/68 470/583
f 397/645 348/663 345/70
f 417/412 471/193 418/191
f 469/68 416/70 468/645
f 347/191 344/318 400/193
f 252/186 230/188 250/457
f 658/664 674/665 678/666
f 200/180 198/182 222/292
f 336/65 364/67 368/66
f 337/198 368/55 372/67
f 325/266 293/269 295/307
f 678/29 659/31 677/667
f 480/382 477/575 478/668
f 100/316 106/279 102/669
f 180/164 183/166 184/379
f 343/413 392/194 396/431
f 174/670 171/671 172/135
f 158/208 155/210 156/471
f 442/594 439/67 443/55
f 461/432 456/654 457/437
f 401/393 351/391 346/428
f 416/628 420/627 419/630
f 393/659 398/658 394/660
f 454/422 449/420 450/500
f 420/632 424/202 419/633
f 355/416 352/429 351/631
f 358/276 355/278 354/417
f 424/635 428/595 419/636
f 355/278 360/284 356/309
f 456/653 453/587 457/586
f 428/584 432/523 419/637
f 363/38 360/284 359/40
f 385/654 390/432 386/437
f 390/432 387/434 386/437
f 383/312 388/310 384/527
f 361/638 366/496 362/497
f 422/391 472/393 417/428
f 432/638 436/640 419/639
f 398/658 395/647 394/660
f 436/313 440/314 419/642
f 371/594 368/67 367/629
f 385/653 382/587 381/651
f 374/400 379/388 375/644
f 440/490 444/491 419/643
f 375/414 372/55 371/415
f 369/490 374/492 370/493
f 346/412 400/193 399/583
f 377/410 374/400 373/411
f 429/276 426/278 430/277
f 444/411 448/410 419/646
f 383/422 380/389 379/500
f 381/592 378/420 377/649
f 378/420 383/422 379/500
f 448/649 452/592 419/650
f 362/497 367/424 363/423
f 452/651 456/653 419/652
f 431/284 426/278 427/309
f 357/595 354/417 353/635
f 398/68 346/412 399/583
f 456/654 460/656 419/655
f 446/414 443/55 447/375
f 432/523 429/39 433/409
f 454/422 451/389 455/527
f 389/524 394/526 390/597
f 390/597 395/430 391/634
f 460/524 464/525 419/657
f 449/399 444/411 445/400
f 350/204 355/416 351/631
f 464/659 468/662 419/661
f 87/581 84/582 83/560
f 374/492 371/415 370/493
f 468/645 416/70 419/663
f 346/428 352/429 347/191
f 449/420 452/592 448/649
f 415/318 418/191 471/193
f 258/345 257/486 235/482
f 498/672 503/673 501/674
f 504/675 498/553 490/555
f 64/475 48/108 745/178
f 204/332 189/331 188/478
f 362/497 366/496 367/424
f 122/676 121/677 117/612
f 367/629 366/641 370/315
f 246/455 228/678 227/473
f 57/679 41/680 42/681
f 220/233 197/293 196/468
f 688/566 687/682 685/567
f 424/202 420/632 421/204
f 238/447 237/459 239/452
f 128/240 127/683 129/241
f 674/239 673/684 676/348
f 607/234 599/685 598/235
f 65/336 49/686 50/337
f 702/377 701/406 697/378
f 618/41 624/494 616/42
f 180/444 184/687 186/164
f 501/254 502/688 494/255
f 201/464 203/689 204/332
f 57/153 58/690 737/154
f 484/371 486/691 485/372
f 404/189 427/429 423/309
f 56/148 40/90 744/149
f 208/351 191/451 190/352
f 317/17 279/61 277/18
f 58/88 42/692 738/450
f 105/281 103/280 99/287
f 634/366 636/693 635/367
f 253/460 255/694 256/339
f 520/143 522/445 521/144
f 240/458 239/695 241/459
f 696/243 695/696 693/30
f 148/362 147/291 151/359
f 330/266 329/265 303/269
f 318/17 281/61 279/18
f 206/330 190/352 189/331
f 538/214 537/697 529/355
f 706/448 705/533 707/449
f 435/66 434/38 430/40
f 405/308 431/309 427/284
f 247/462 249/483 250/463
f 68/156 67/698 721/157
f 475/441 479/699 483/442
f 104/282 100/700 99/283
f 328/266 327/265 299/269
f 709/251 21/384 22/64
f 524/342 526/701 525/343
f 476/382 478/133 477/132
f 326/266 325/265 295/269
f 252/339 251/694 253/456
f 144/140 143/569 145/141
f 426/416 425/203 421/204
f 304/205 306/206 282/207
f 764/604 776/603 763/608
f 346/412 347/191 400/193
f 342/477 341/413 388/431
f 704/479 703/702 705/480
f 472/393 421/392 420/627
f 415/318 402/190 418/191
f 135/624 131/703 133/625
f 333/189 332/308 352/309
f 539/704 540/213 532/705
f 156/470 160/706 162/471
f 319/266 320/265 283/269
f 276/207 315/17 314/19
f 211/224 213/484 214/273
f 673/237 650/566 656/238
f 89/37 87/36 83/349
f 90/35 89/37 85/252
f 78/302 77/707 75/335
f 184/379 183/166 185/380
f 136/128 135/624 137/357
f 522/445 524/342 523/344
f 106/279 104/282 103/280
f 204/332 203/689 205/466
f 54/78 38/708 718/159
f 403/189 423/429 418/191
f 312/17 269/61 267/18
f 160/136 159/573 161/151
f 603/234 595/685 594/235
f 238/345 224/197 223/346
f 210/222 192/436 191/451
f 106/279 105/281 101/285
f 674/363 653/567 649/364
f 246/455 244/474 243/461
f 66/106 50/709 740/146
f 249/456 251/462 252/186
f 80/245 79/559 81/246
f 151/359 147/291 149/360
f 516/438 518/710 517/439
f 621/41 620/494 612/42
f 581/333 582/137 574/139
f 60/353 44/98 727/174
f 240/347 225/346 224/446
f 164/60 163/304 167/257
f 324/266 323/265 291/269
f 300/205 327/265 328/266
f 604/234 596/685 595/235
f 309/17 263/61 261/18
f 408/198 443/67 439/55
f 758/263 32/609 761/356
f 681/248 666/711 672/249
f 256/339 233/712 232/340
f 602/234 593/685 600/235
f 112/369 111/713 113/370
f 241/453 243/714 244/454
f 580/137 581/715 573/138
f 311/17 310/19 266/294
f 53/716 717/717 728/718
f 537/213 531/215 529/705
f 18/719 25/720 20/721
f 680/404 661/406 679/722
f 544/697 530/723 536/355
f 214/273 193/275 212/435
f 662/407 678/368 679/557
f 52/593 726/168 728/724
f 216/131 194/274 214/273
f 327/266 297/269 299/307
f 339/588 376/390 380/389
f 498/672 501/674 499/725
f 344/317 396/193 400/194
f 683/726 667/532 682/531
f 22/384 23/385 24/727
f 411/588 451/527 410/621
f 335/374 360/66 364/284
f 619/41 610/42 611/43
f 491/728 512/729 489/730
f 532/731 551/732 531/733
f 365/313 370/315 366/641
f 493/386 510/216 492/734
f 547/735 524/736 548/737
f 551/26 552/28 531/738
f 511/739 512/729 491/728
f 496/183 505/185 506/740
f 545/741 528/742 546/743
f 766/211 753/212 780/267
f 505/739 476/395 474/744
f 510/216 482/745 480/217
f 548/259 522/261 549/735
f 574/228 587/230 588/746
f 512/729 478/744 476/747
f 505/185 488/395 506/740
f 543/748 536/749 535/723
f 164/58 170/60 166/258
f 654/750 683/751 674/752
f 410/588 447/390 409/589
f 212/435 192/436 210/222
f 539/704 532/705 531/753
f 520/143 517/439 518/710
f 332/189 347/191 352/429
f 59/161 44/163 60/754
f 57/679 42/681 58/755
f 684/531 669/533 683/756
f 110/396 107/398 108/757
f 122/676 117/612 118/74
f 248/474 228/596 246/463
f 504/675 490/555 496/758
f 502/688 495/759 494/255
f 531/738 552/28 529/731
f 572/760 591/761 571/762
f 573/762 590/763 572/764
f 573/229 588/763 589/230
f 494/765 507/648 508/766
f 591/767 592/768 571/769
f 529/770 545/26 530/738
f 576/771 585/772 586/773
f 585/767 556/774 554/775
f 729/776 59/777 60/778
f 587/230 564/779 588/746
f 588/763 562/780 589/230
f 590/763 562/781 560/782
f 591/761 560/783 558/781
f 552/28 518/27 516/784
f 585/772 568/774 586/773
f 679/250 684/785 683/248
f 14/565 15/786 16/787
f 642/788 645/296 646/789
f 516/438 513/585 514/579
f 61/790 719/791 729/776
f 579/715 572/123 571/138
f 670/792 679/793 683/794
f 413/477 459/431 412/413
f 51/686 36/795 52/337
f 26/64 24/720 25/385
f 623/41 614/42 615/43
f 183/166 181/796 185/797
f 415/317 467/193 414/318
f 20/798 17/44 18/57
f 482/691 483/576 481/372
f 16/787 11/799 12/800
f 571/769 592/768 569/760
f 551/732 520/784 518/801
f 493/802 508/216 509/648
f 550/259 522/801 520/260
f 534/803 547/735 548/737
f 546/804 547/741 535/805
f 569/771 585/767 570/769
f 489/183 505/739 490/728
f 536/770 545/741 546/743
f 728/724 37/83 53/806
f 507/648 484/807 508/766
f 533/808 548/259 549/735
f 533/733 550/259 532/809
f 511/387 480/747 478/745
f 592/768 558/775 556/783
f 545/26 516/742 514/27
f 336/65 335/198 364/67
f 437/496 436/640 432/638
f 167/257 163/304 165/622
f 10/563 9/810 13/564
f 573/762 589/761 590/763
f 438/629 442/594 441/315
f 329/266 328/265 301/269
f 658/664 654/811 674/665
f 487/443 473/812 475/441
f 475/441 477/813 479/699
f 479/699 481/814 483/442
f 483/442 485/815 487/443
f 238/345 236/347 235/452
f 499/725 497/816 498/672
f 498/672 504/817 503/673
f 503/673 502/818 501/674
f 501/674 500/819 499/725
f 385/653 386/586 382/587
f 248/474 229/473 228/596
f 374/400 378/399 379/388
f 143/569 139/221 141/570
f 355/416 356/309 352/429
f 654/750 670/367 683/751
f 409/53 447/375 443/55
f 502/688 503/820 495/759
f 757/600 777/599 772/606
f 506/821 507/185 495/184
f 725/177 773/822 28/112
f 91/301 98/253 95/252
f 308/17 259/61 281/18
f 35/78 715/169 27/79
f 495/184 496/823 506/821
f 754/824 759/24 779/23
f 719/176 43/825 59/103
f 49/111 725/177 28/112
f 506/821 488/826 486/394
f 45/101 743/173 32/102
f 108/327 107/370 111/328
f 677/325 660/243 664/326
f 730/158 69/827 70/828
f 755/601 769/508 778/520
f 43/96 710/175 33/97
f 97/559 93/582 94/560
f 441/315 440/314 436/313
f 735/535 755/601 778/520
f 53/716 54/829 717/717
f 445/492 444/491 440/490
f 401/393 345/628 349/627
f 777/599 764/604 733/605
f 470/192 466/647 467/194
f 505/739 512/740 476/395
f 391/433 392/431 388/310
f 62/96 46/830 720/558
f 456/653 452/651 453/587
f 451/389 450/388 446/644
f 390/597 394/526 395/430
f 572/760 590/768 591/761
f 776/603 771/549 34/550
f 586/831 587/772 575/832
f 736/179 754/833 31/107
f 642/272 646/296 648/297
f 334/308 333/374 356/284
f 37/83 734/167 30/84
f 535/805 536/834 546/804
f 756/34 764/604 777/599
f 765/502 771/549 776/603
f 47/106 736/179 31/107
f 546/804 528/835 526/836
f 41/837 712/170 34/838
f 152/322 151/359 153/323
f 124/305 128/839 130/306
f 746/150 41/837 57/840
f 728/718 51/841 52/842
f 729/354 45/101 61/843
f 480/574 482/668 481/575
f 511/739 478/744 512/729
f 386/586 387/311 383/312
f 168/258 167/257 169/561
f 442/594 438/629 439/67
f 341/621 340/477 384/310
f 723/598 756/34 777/599
f 520/143 519/145 517/439
f 545/741 514/836 528/742
f 347/191 331/190 344/318
f 176/136 175/573 177/151
f 361/638 365/640 366/496
f 500/619 501/254 493/256
f 716/539 751/590 781/50
f 573/229 574/764 588/763
f 28/602 773/844 775/33
f 748/845 71/846 72/847
f 739/147 47/848 63/113
f 166/303 165/849 163/304
f 323/266 322/265 289/269
f 717/160 35/850 51/85
f 575/832 576/851 586/831
f 737/172 39/852 55/92
f 747/476 49/111 65/853
f 773/844 752/501 775/33
f 586/831 568/854 566/855
f 39/88 732/171 29/89
f 541/319 542/856 534/320
f 313/17 271/61 269/18
f 746/155 55/829 56/716
f 747/857 63/858 64/790
f 17/859 711/63 18/611
f 65/842 739/860 747/857
f 114/757 109/713 110/369
f 540/856 533/753 532/320
f 242/447 225/861 240/458
f 637/557 640/862 638/863
f 140/552 143/569 144/140
f 584/226 570/864 576/227
f 126/865 123/866 124/306
f 675/16 683/867 682/14
f 10/868 16/787 12/869
f 132/127 135/624 136/128
f 148/870 154/362 150/322
f 675/871 653/872 674/873
f 254/457 231/712 252/339
f 608/234 599/235 607/236
f 118/874 115/677 116/676
f 492/730 511/387 491/386
f 605/236 622/41 606/234
f 607/236 624/41 608/234
f 617/494 603/234 601/236
f 602/236 617/41 601/234
f 620/494 605/234 604/236
f 622/494 607/234 606/236
f 102/286 99/875 100/876
f 603/236 620/41 604/234
f 498/553 497/577 489/554
f 465/526 464/525 460/524
f 510/216 509/387 482/745
f 393/659 397/662 398/658
f 323/265 324/266 294/206
f 544/697 538/748 530/723
f 494/765 495/802 507/648
f 385/654 389/656 390/432
f 782/264 761/356 742/535
f 774/356 779/23 755/601
f 543/748 544/877 536/749
f 174/670 173/878 171/671
f 417/412 472/69 469/68
f 307/17 261/61 259/18
f 591/767 558/775 592/768
f 278/294 302/205 304/206
f 710/175 768/879 33/97
f 732/171 767/880 29/89
f 713/46 24/385 23/727
f 712/170 763/881 34/838
f 743/173 761/882 32/102
f 715/169 770/883 27/79
f 734/167 757/884 30/84
f 610/618 609/885 616/425
f 616/425 615/886 614/426
f 614/426 613/887 612/427
f 612/427 611/888 610/618
f 255/482 257/460 258/341
f 775/33 750/503 756/34
f 244/454 226/678 242/455
f 627/889 626/890 625/891
f 625/891 632/892 631/893
f 631/893 630/894 629/895
f 629/895 628/896 627/889
f 466/430 462/634 463/431
f 88/581 86/897 84/898
f 321/266 285/269 287/307
f 258/341 233/196 256/195
f 694/899 691/900 692/238
f 562/901 563/49 561/902
f 625/891 629/895 627/889
f 648/903 643/271 644/904
f 583/905 576/906 575/864
f 605/234 596/235 604/236
f 134/907 131/703 132/127
f 560/908 561/902 559/909
f 503/910 496/758 495/911
f 175/573 173/912 177/913
f 700/711 701/914 702/915
f 406/374 431/66 405/65
f 182/916 179/165 180/164
f 61/917 46/918 62/919
f 74/920 741/921 748/845
f 127/683 125/922 129/923
f 124/306 127/683 128/240
f 617/41 609/42 610/43
f 676/667 657/924 678/925
f 556/120 553/534 554/124
f 116/76 119/926 120/927
f 140/928 146/552 142/140
f 322/266 287/269 289/307
f 606/234 597/235 605/236
f 582/929 575/334 574/930
f 542/931 535/321 534/932
f 488/933 485/536 486/115
f 560/908 557/506 558/118
f 654/934 668/750 670/935
f 63/936 48/937 64/918
f 499/938 492/620 491/578
f 686/939 689/940 690/15
f 601/234 593/235 602/236
f 202/465 187/181 200/180
f 326/265 327/266 300/206
f 306/205 330/265 320/266
f 752/501 782/264 765/502
f 619/41 617/494 610/42
f 461/432 460/656 456/654
f 428/595 424/635 425/417
f 532/731 550/28 551/732
f 660/368 658/941 662/556
f 454/422 453/421 449/420
f 398/658 399/192 395/647
f 310/17 265/61 263/18
f 679/572 661/914 665/405
f 449/420 453/421 452/592
f 423/429 427/309 426/416
f 377/410 378/399 374/400
f 749/25 766/211 780/267
f 18/719 26/942 25/720
f 778/520 769/508 731/521
f 547/735 526/261 524/736
f 411/588 455/389 451/527
f 769/508 780/267 767/537
f 172/135 171/671 175/573
f 497/577 499/938 491/578
f 683/726 669/480 667/532
f 463/431 462/433 458/434
f 411/477 412/621 459/527
f 288/205 321/265 322/266
f 750/503 765/502 776/603
f 31/609 754/824 779/23
f 340/588 339/621 380/527
f 469/658 468/662 464/659
f 335/374 334/65 360/66
f 219/232 221/418 222/292
f 410/588 451/389 447/390
f 469/658 465/660 466/647
f 622/41 621/494 613/42
f 272/294 296/205 298/206
f 624/41 615/42 616/43
f 529/770 552/743 545/26
f 576/771 570/832 585/772
f 585/767 592/773 556/774
f 729/776 719/791 59/777
f 587/230 566/780 564/779
f 588/763 564/782 562/780
f 590/763 589/761 562/781
f 591/761 590/768 560/783
f 585/772 554/855 568/774
f 679/250 681/943 684/785
f 14/565 13/564 15/786
f 642/788 641/272 645/296
f 516/438 515/440 513/585
f 61/790 62/858 719/791
f 579/715 580/121 572/123
f 670/792 662/944 679/793
f 413/477 463/310 459/431
f 51/686 35/945 36/795
f 26/64 22/721 24/720
f 623/41 622/494 614/42
f 183/166 179/165 181/796
f 415/317 471/194 467/193
f 20/798 19/946 17/44
f 482/691 484/574 483/576
f 16/787 15/786 11/799
f 551/732 550/28 520/784
f 493/802 494/734 508/216
f 550/259 549/732 522/801
f 534/803 535/808 547/735
f 546/804 526/836 547/741
f 569/771 592/773 585/767
f 489/183 512/740 505/739
f 536/770 530/805 545/741
f 728/724 726/168 37/83
f 507/648 486/218 484/807
f 533/808 534/809 548/259
f 533/733 549/732 550/259
f 511/387 510/729 480/747
f 545/26 552/743 516/742
f 506/821 486/394 507/185
f 725/177 724/504 773/822
f 35/78 718/160 715/169
f 754/824 716/539 759/24
f 719/176 720/558 43/825
f 49/111 745/178 725/177
f 45/101 727/174 743/173
f 730/158 721/157 69/827
f 755/601 749/25 769/508
f 43/96 720/176 710/175
f 586/831 566/855 587/772
f 736/179 716/615 754/833
f 37/83 726/168 734/167
f 756/34 750/503 764/604
f 765/502 742/535 771/549
f 47/106 740/147 736/179
f 41/837 744/149 712/170
f 746/150 744/149 41/837
f 728/718 717/717 51/841
f 729/354 727/174 45/101
f 748/845 741/921 71/846
f 739/147 740/146 47/848
f 717/160 718/159 35/850
f 737/172 738/450 39/852
f 747/476 745/178 49/111
f 773/844 724/262 752/501
f 39/88 738/172 732/171
f 746/155 737/154 55/829
f 747/857 739/860 63/858
f 17/859 709/251 711/63
f 65/842 66/841 739/860
f 114/757 113/398 109/713
f 540/856 541/704 533/753
f 242/447 226/446 225/861
f 637/557 639/750 640/862
f 140/552 139/221 143/569
f 584/226 578/905 570/864
f 126/865 125/947 123/866
f 675/16 674/948 683/867
f 10/868 14/565 16/787
f 132/127 131/703 135/624
f 148/870 152/949 154/362
f 675/871 651/950 653/872
f 254/457 232/188 231/712
f 608/234 600/685 599/235
f 118/874 117/951 115/677
f 492/730 510/729 511/387
f 605/236 621/494 622/41
f 607/236 623/494 624/41
f 617/494 619/41 603/234
f 602/236 618/494 617/41
f 620/494 621/41 605/234
f 622/494 623/41 607/234
f 102/286 101/285 99/875
f 603/236 619/494 620/41
f 710/175 735/505 768/879
f 732/171 731/617 767/880
f 713/46 722/45 24/385
f 712/170 733/614 763/881
f 743/173 742/509 761/882
f 715/169 714/616 770/883
f 734/167 723/613 757/884
f 775/33 752/501 750/503
f 244/454 227/952 226/678
f 88/581 90/35 86/897
f 321/266 319/265 285/269
f 258/341 234/340 233/196
f 694/899 693/924 691/900
f 562/901 564/47 563/49
f 625/891 631/893 629/895
f 648/903 647/297 643/271
f 583/905 584/953 576/906
f 605/234 597/685 596/235
f 134/907 133/954 131/703
f 560/908 562/901 561/902
f 503/910 504/675 496/758
f 175/573 171/671 173/912
f 700/711 699/955 701/914
f 406/374 435/284 431/66
f 182/916 181/956 179/165
f 61/917 45/936 46/918
f 74/920 73/957 741/921
f 127/683 123/866 125/922
f 124/306 123/866 127/683
f 617/41 618/494 609/42
f 676/667 655/31 657/924
f 556/120 555/119 553/534
f 116/76 115/75 119/926
f 140/928 144/958 146/552
f 322/266 321/265 287/269
f 606/234 598/685 597/235
f 582/929 583/333 575/334
f 542/931 543/319 535/321
f 488/933 487/959 485/536
f 560/908 559/909 557/506
f 654/934 652/367 668/750
f 63/936 47/960 48/937
f 499/938 500/619 492/620
f 686/939 685/872 689/940
f 601/234 594/685 593/235
f 202/465 188/478 187/181
f 624/41 623/494 615/42
o Bit
v 0.6875 1.1875 0.5312
v 0.6875 1.1875 0.4688
v 0.6875 1.375 0.5312
v 0.6875 1.375 0.4688
v 0.625 1.1875 0.5312
v 0.625 1.1875 0.4688
v 0.625 1.375 0.5312
v 0.625 1.375 0.4688
vt 0.7188 0.7426
vt 0.7305 0.7327
vt 0.7305 0.7426
vt 0.7305 0.7624
vt 0.7188 0.7525
vt 0.7305 0.7525
vt 0.7188 0.7327
vt 0.7305 0.7228
vt 0.7188 0.7228
vt 0.7344 0.7525
vt 0.7383 0.7525
vt 0.7383 0.7624
vt 0.7188 0.7624
vt 0.7344 0.7624
s 1
f 787/961 785/962 789/963
f 786/964 788/965 790/966
f 783/965 786/963 785/966
f 787/961 783/967 785/962
f 788/967 789/968 790/962
f 788/967 787/969 789/968
f 783/965 784/961 786/963
f 787/970 788/971 784/972
f 786/964 784/973 788/965
f 787/970 784/972 783/974
o Fan
v 1 1.75 -1.2188
v 1.1894 1.6875 -1.1094
v 1.1894 1.75 -0.8906
v 1 1.6875 -0.7812
v 0.8106 1.75 -0.8906
v 1 1.6289 -1
v 0.8106 1.6875 -1.1094
v 0.9469 1.6289 -0.967
v 0.9469 1.6914 -0.967
v 0.9449 1.6289 -1.0295
v 0.9449 1.6914 -1.0295
v 0.998 1.6289 -1.0625
v 0.998 1.6914 -1.0625
v 1.0531 1.6289 -1.033
v 1.0531 1.6914 -1.033
v 1.0551 1.6289 -0.9705
v 1.0551 1.6914 -0.9705
v 1.002 1.6289 -0.9375
v 1.002 1.6914 -0.9375
vt 0.5547 0.4455
vt 0.5703 0.4455
vt 0.5625 0.4851
vt 0.5742 0.4455
vt 0.5898 0.4455
vt 0.582 0.4851
vt 0.5938 0.4455
vt 0.6094 0.4455
vt 0.6016 0.4851
vt 0.5586 0.4356
vt 0.5625 0.4158
vt 0.5625 0.4356
vt 0.5859 0.4165
vt 0.5891 0.4306
vt 0.5827 0.4306
vt 0.5664 0.4158
vt 0.5664 0.4356
vt 0.5703 0.4158
vt 0.5703 0.4356
vt 0.5422 0.37
vt 0.9578 0.37
vt 0.75 0.01
vt 0.5547 0.4356
vt 0.5586 0.4158
vt 0.5742 0.4356
vt 0.5781 0.4158
vt 0.5781 0.4356
vt 0.5547 0.4158
vt 0.75 0.49
vt 0.5742 0.4158
vt 0.5859 0.4353
vt 0.5827 0.4212
vt 0.5891 0.4212
vt 0.9578 0.13
vt 0.5422 0.13
s 1
f 794/975 793/976 796/977
f 797/978 795/979 796/980
f 792/981 791/982 796/983
f 805/984 802/985 803/986
f 807/987 803/988 799/989
f 803/986 800/990 801/991
f 801/991 798/992 799/993
f 808/994 800/995 804/996
f 807/997 804/998 805/984
f 809/999 806/1000 807/1001
f 805/984 804/998 802/985
f 807/997 806/1002 804/998
f 801/991 800/990 798/992
f 808/994 798/1003 800/995
f 809/999 808/1004 806/1000
f 803/988 801/1005 799/989
f 799/989 809/1006 807/987
f 803/986 802/985 800/990
f 799/993 798/992 808/1004
f 807/987 805/1007 803/988
f 800/995 802/1008 804/996
f 804/996 806/1009 808/994
f 799/993 808/1004 809/999
