o Blade
v 0 10.375 0.375
v 0 3.375 0.875
v 0 10.375 -0.375
v 0 3.375 -0.875
v 0 3.0625 -0
v 0 10.6875 1.875
v 0 10.6875 -1.875
v 0 10.5 0.4375
v 0 10.5 -0.4375
v 0 10.9375 1.125
v 0 10.9375 -1.125
v 0 11.0625 0.1875
v 0 11.0625 -0.1875
v 0 11.375 -0
v 0 6.2386 0.6705
v 0 5.9205 0.6932
v 0 5.2841 0.7386
v 0 4.9659 0.7614
v 0 4.3295 0.8068
v 0 4.0114 0.8295
v 0 3.8523 -0.1875
v 0 4.0114 -0.8295
v 0 4.3295 -0.8068
v 0 3.8523 0.1875
v 0 4.9659 -0.7614
v 0 5.2841 -0.7386
v 0 5.6023 -0
v 0 5.9205 -0.6932
v 0 6.2386 -0.6705
v 0 4.1705 1.1307
v 0 4.1705 -1.1307
v 0 5.125 1
v 0 5.125 -1
v 0 6.0795 0.9318
v 0 6.0795 -0.9318
v 0 3.7263 -0
v 0 5.3523 -0.125
v 0 5.3523 0.125
v 0.0625 3.125 0.0016
v 0.0625 3.375 -0.6547
v 0.0625 3.375 0.6578
v 0.0625 10.375 -0.2797
v 0.0625 10.5 -0.3266
v 0.0625 10.5 0.3297
v 0.0625 10.375 0.2828
v 0.0625 10.6875 -1.4047
v 0.0625 10.6875 1.4078
v 0.0625 10.9375 0.8453
v 0.0625 10.9375 -0.8422
v 0.0625 5.8471 -0
v 0.0625 5.5346 -0.25
v 0.0625 5.5346 0.25
v 0.0625 6.2386 0.5044
v 0.0625 6.0795 0.7004
v 0.0625 5.9205 0.5214
v 0.0625 5.2841 0.5555
v 0.0625 5.125 0.7516
v 0.0625 4.9659 0.5726
v 0.0625 4.3295 0.6067
v 0.0625 4.1705 0.8496
v 0.0625 4.0114 0.6237
v 0.0625 4.0114 -0.6206
v 0.0625 4.1705 -0.8464
v 0.0625 4.3295 -0.6036
v 0.0625 4.9659 -0.5695
v 0.0625 5.125 -0.7484
v 0.0625 5.2841 -0.5524
v 0.0625 5.9205 -0.5183
v 0.0625 6.0795 -0.6973
v 0.0625 6.2386 -0.5013
v 0.0625 3.5021 -0
v 0.0625 3.6596 0.375
v 0.0625 3.6596 -0.375
v 0.0625 11.0625 -0.0227
v -0.0625 3.125 0.0016
v -0.0625 3.375 -0.6547
v -0.0625 3.375 0.6578
v -0.0625 10.375 -0.2797
v -0.0625 10.5 -0.3266
v -0.0625 10.5 0.3297
v -0.0625 10.375 0.2828
v -0.0625 10.6875 -1.4047
v -0.0625 10.6875 1.4078
v -0.0625 10.9375 0.8453
v -0.0625 10.9375 -0.8422
v -0.0625 5.8471 -0
v -0.0625 5.5346 -0.25
v -0.0625 5.5346 0.25
v -0.0625 6.2386 0.5044
v -0.0625 6.0795 0.7004
v -0.0625 5.9205 0.5214
v -0.0625 5.2841 0.5555
v -0.0625 5.125 0.7516
v -0.0625 4.9659 0.5726
v -0.0625 4.3295 0.6067
v -0.0625 4.1705 0.8496
v -0.0625 4.0114 0.6237
v -0.0625 4.0114 -0.6206
v -0.0625 4.1705 -0.8464
v -0.0625 4.3295 -0.6036
v -0.0625 4.9659 -0.5695
v -0.0625 5.125 -0.7484
v -0.0625 5.2841 -0.5524
v -0.0625 5.9205 -0.5183
v -0.0625 6.0795 -0.6973
v -0.0625 6.2386 -0.5013
v -0.0625 3.5021 -0
v -0.0625 3.6596 0.375
v -0.0625 3.6596 -0.375
v -0.0625 11.0625 -0.0227
v -0.0625 10.5938 -0.5375
v 0.0625 4.5971 0.3125
v 0.0625 10.5938 -0.5375
v 0.0625 8.3068 -0.3905
v 0.0625 8.3068 0.3936
v 0 4.6023 0.1562
v 0.0312 4.5059 0.25
v 0.0312 4.5059 -0.25
v 0.0625 4.5971 -0.3125
v 0 8.3068 -0.5227
v -0.0312 4.5059 0.25
v -0.0625 4.5971 0.3125
v 0 4.6023 -0.1562
v -0.0312 4.5059 -0.25
v 0 8.3068 0.5227
v -0.0625 8.3068 -0.3905
v -0.0625 10.6875 0.0016
v -0.0625 8.3068 0.3936
v -0.0625 4.5971 -0.3125
v 0.0625 10.6875 0.0016
v 0 9.3409 -0.4489
v 0.0625 9.3409 -0.3351
v 0.0625 9.3409 0.3382
v 0.0625 7.2727 -0.4459
v 0.0625 7.2727 0.449
v 0 7.2727 -0.5966
v -0.0625 9.3409 -0.3351
v 0 9.3409 0.4489
v 0 7.2727 0.5966
v -0.0625 7.2727 -0.4459
v -0.0625 9.3409 0.3382
v -0.0625 7.2727 0.449
vt 0.5022 0.3064
vt 0.4694 0.2981
vt 0.4863 0.2766
vt 0.4854 0.958
vt 0.3775 0.9432
vt 0.3039 0.9135
vt 0.5016 0.3353
vt 0.5671 0.382
vt 0.4344 0.3822
vt 0.5274 0.8758
vt 0.4467 0.8909
vt 0.5333 0.8907
vt 0.4186 0.9021
vt 0.4286 0.2303
vt 0.4301 0.2683
vt 0.5566 0.0741
vt 0.5885 0.116
vt 0.5855 0.154
vt 0.5087 0.0104
vt 0.4576 0.0743
vt 0.5075 0.0554
vt 0.5396 0.8761
vt 0.6179 0.135
vt 0.6119 0.1543
vt 0.5473 0.6289
vt 0.4485 0.7525
vt 0.5374 0.7524
vt 0.4089 0.3633
vt 0.4121 0.3825
vt 0.5934 0.3629
vt 0.5891 0.3822
vt 0.4046 0.2493
vt 0.4055 0.2686
vt 0.5763 0.268
vt 0.6026 0.249
vt 0.6005 0.2682
vt 0.3941 0.1354
vt 0.4257 0.1543
vt 0.3989 0.1547
vt 0.4214 0.0404
vt 0.5946 0.0401
vt 0.546 0.186
vt 0.5566 0.0741
vt 0.4532 0.876
vt 0.4485 0.7525
vt 0.5767 0.5057
vt 0.5086 0.0032
vt 0.6233 0.0403
vt 0.5379 0.1753
vt 0.5313 0.0974
vt 0.5253 0.187
vt 0.5929 0.3442
vt 0.624 0.3631
vt 0.5069 0.0824
vt 0.4819 0.0975
vt 0.472 0.1754
vt 0.4635 0.1862
vt 0.4406 0.8763
vt 0.432 0.8912
vt 0.5572 0.5054
vt 0.6043 0.2302
vt 0.6354 0.2492
vt 0.4841 0.1871
vt 0.4099 0.3446
vt 0.433 0.3442
vt 0.5475 0.891
vt 0.6751 0.9128
vt 0.7368 0.913
vt 0.3967 0.1167
vt 0.4243 0.1164
vt 0.6157 0.1163
vt 0.655 0.1352
vt 0.6372 0.943
vt 0.6003 0.9428
vt 0.5193 0.2765
vt 0.3402 0.9436
vt 0.2418 0.9139
vt 0.4033 0.2306
vt 0.4895 0.9132
vt 0.3566 0.1358
vt 0.4636 0.9583
vt 0.4876 0.9955
vt 0.3714 0.2497
vt 0.5702 0.344
vt 0.378 0.3636
vt 0.5353 0.298
vt 0.5131 0.9582
vt 0.5379 0.1753
vt 0.546 0.186
vt 0.3923 0.0407
vt 0.5794 0.23
vt 0.4192 0.506
vt 0.4391 0.5056
vt 0.552 0.7526
vt 0.4335 0.7528
vt 0.4438 0.6291
vt 0.4532 0.876
vt 0.6003 0.9428
vt 0.4263 0.6294
vt 0.5643 0.6291
vt 0.4391 0.5056
vt 0.4438 0.6291
s 1
f 27/1 87/2 37/3
f 110/4 85/5 82/6
f 86/7 89/8 106/9
f 45/10 43/11 44/12
f 111/13 79/11 80/12
f 101/14 87/2 103/15
f 108/16 97/17 95/18
f 39/19 73/20 71/21
f 1/22 80/12 81/10
f 95/18 96/23 19/24
f 115/25 132/26 133/27
f 70/9 69/28 29/29
f 54/30 53/8 15/31
f 67/15 66/32 26/33
f 60/23 59/18 19/24
f 105/28 106/9 29/29
f 92/34 93/35 17/36
f 57/35 56/34 17/36
f 89/8 90/30 15/31
f 102/32 103/15 26/33
f 99/37 100/38 23/39
f 75/19 109/20 76/40
f 108/16 75/19 77/41
f 112/42 59/18 72/43
f 65/14 67/15 51/2
f 113/13 43/11 46/6
f 141/27 78/44 137/45
f 70/9 53/8 50/7
f 139/46 89/8 15/31
f 5/47 41/41 2/48
f 117/49 24/50 116/51
f 16/52 54/30 34/53
f 36/54 73/20 21/55
f 118/56 73/20 119/57
f 16/52 92/34 17/36
f 3/58 79/11 9/59
f 139/46 53/8 135/60
f 18/61 57/35 32/62
f 9/59 46/6 43/11
f 37/3 124/56 123/63
f 28/64 103/15 104/65
f 8/66 47/67 6/68
f 22/69 63/37 62/70
f 20/71 60/23 30/72
f 10/73 47/67 48/74
f 38/75 112/42 117/49
f 20/71 77/41 2/48
f 11/76 46/6 7/77
f 25/78 66/32 65/14
f 22/69 76/40 98/70
f 46/6 130/79 113/13
f 23/39 63/37 31/80
f 13/81 14/82 74/4
f 28/64 69/28 68/65
f 25/78 100/38 101/14
f 36/54 72/43 71/21
f 26/33 66/32 33/83
f 16/52 56/34 55/84
f 27/1 51/2 50/7
f 29/29 69/28 35/85
f 27/1 52/86 38/75
f 5/47 40/40 39/19
f 36/54 109/20 107/21
f 14/82 12/87 74/4
f 13/81 49/5 11/76
f 12/87 48/74 74/4
f 46/6 49/5 74/4
f 88/86 27/1 38/75
f 121/88 108/16 122/89
f 64/38 63/37 23/39
f 36/54 108/16 24/50
f 124/56 21/55 123/63
f 5/47 76/40 4/90
f 5/47 77/41 75/19
f 25/78 64/38 23/39
f 20/71 96/23 97/17
f 19/24 96/23 30/72
f 18/61 59/18 58/91
f 18/61 93/35 94/91
f 17/36 93/35 32/62
f 136/92 106/9 140/93
f 16/52 90/30 91/84
f 15/31 90/30 34/53
f 80/12 78/44 81/10
f 1/22 44/12 8/66
f 20/71 41/41 61/17
f 22/69 99/37 31/80
f 138/94 115/25 133/27
f 18/61 95/18 19/24
f 25/78 102/32 33/83
f 37/3 129/57 124/56
f 28/64 67/15 26/33
f 28/64 105/28 35/85
f 131/95 126/96 137/45
f 136/92 70/9 29/29
f 3/58 43/11 42/97
f 9/59 82/6 7/77
f 82/6 11/76 7/77
f 13/81 85/5 110/4
f 8/66 83/67 80/12
f 10/73 83/67 6/68
f 12/87 84/98 10/73
f 14/82 110/4 12/87
f 13/81 110/4 14/82
f 27/1 86/7 87/2
f 127/79 110/4 82/6
f 83/67 84/98 110/4
f 106/9 87/2 86/7
f 86/7 88/86 89/8
f 22/69 40/40 4/90
f 99/37 98/70 100/38
f 128/25 137/45 126/96
f 111/13 127/79 82/6
f 98/70 76/40 109/20
f 129/57 100/38 109/20
f 87/2 106/9 104/65
f 100/38 87/2 101/14
f 104/65 103/15 87/2
f 100/38 98/70 109/20
f 92/34 91/84 88/86
f 91/84 89/8 88/86
f 122/89 95/18 88/86
f 92/34 88/86 94/91
f 108/16 77/41 97/17
f 95/18 94/91 88/86
f 120/99 140/93 126/96
f 3/58 137/45 78/44
f 1/22 133/27 45/10
f 125/100 135/60 115/25
f 53/8 55/84 52/86
f 55/84 56/34 52/86
f 56/34 58/91 52/86
f 58/91 59/18 52/86
f 59/18 61/17 72/43
f 61/17 41/41 72/43
f 73/20 40/40 62/70
f 62/70 64/38 73/20
f 64/38 65/14 51/2
f 67/15 68/65 51/2
f 68/65 70/9 51/2
f 64/38 119/57 73/20
f 130/79 44/12 113/13
f 39/19 72/43 41/41
f 75/19 107/21 109/20
f 125/100 142/60 139/46
f 50/7 51/2 70/9
f 53/8 52/86 50/7
f 45/10 42/97 43/11
f 5/47 39/19 41/41
f 117/49 112/42 72/43
f 16/52 55/84 54/30
f 1/22 141/27 138/94
f 21/55 118/56 123/63
f 95/18 97/17 96/23
f 3/58 132/26 131/95
f 111/13 82/6 79/11
f 18/61 58/91 57/35
f 9/59 7/77 46/6
f 19/24 30/72 60/23
f 54/30 55/84 53/8
f 8/66 44/12 47/67
f 22/69 31/80 63/37
f 20/71 61/17 60/23
f 10/73 6/68 47/67
f 17/36 32/62 57/35
f 57/35 58/91 56/34
f 11/76 49/5 46/6
f 25/78 33/83 66/32
f 102/32 101/14 103/15
f 15/31 34/53 54/30
f 37/3 119/57 51/2
f 28/64 35/85 69/28
f 105/28 104/65 106/9
f 115/25 134/101 114/102
f 38/75 116/51 121/88
f 115/25 114/102 132/26
f 27/1 37/3 51/2
f 131/95 114/102 120/99
f 27/1 50/7 52/86
f 5/47 4/90 40/40
f 140/93 128/25 126/96
f 13/81 74/4 49/5
f 12/87 10/73 48/74
f 48/74 47/67 74/4
f 130/79 74/4 47/67
f 88/86 86/7 27/1
f 24/50 121/88 116/51
f 38/75 117/49 116/51
f 138/94 128/25 125/100
f 124/56 129/57 109/20
f 5/47 75/19 76/40
f 5/47 2/48 77/41
f 92/34 94/91 93/35
f 20/71 30/72 96/23
f 38/75 122/89 88/86
f 67/15 65/14 66/32
f 18/61 32/62 93/35
f 37/3 123/63 118/56
f 1/22 8/66 80/12
f 16/52 34/53 90/30
f 80/12 127/79 111/13
f 133/27 42/97 45/10
f 120/99 134/101 136/92
f 89/8 91/84 90/30
f 22/69 98/70 99/37
f 23/39 31/80 99/37
f 60/23 61/17 59/18
f 25/78 101/14 102/32
f 26/33 33/83 102/32
f 70/9 68/65 69/28
f 28/64 104/65 105/28
f 29/29 35/85 105/28
f 39/19 40/40 73/20
f 106/9 142/60 140/93
f 9/59 79/11 82/6
f 82/6 85/5 11/76
f 13/81 11/76 85/5
f 8/66 6/68 83/67
f 10/73 84/98 83/67
f 12/87 110/4 84/98
f 135/60 70/9 134/101
f 108/16 107/21 75/19
f 112/42 52/86 59/18
f 113/13 44/12 43/11
f 141/27 81/10 78/44
f 139/46 142/60 89/8
f 117/49 72/43 24/50
f 36/54 71/21 73/20
f 16/52 91/84 92/34
f 3/58 78/44 79/11
f 139/46 15/31 53/8
f 28/64 26/33 103/15
f 38/75 52/86 112/42
f 20/71 97/17 77/41
f 22/69 4/90 76/40
f 25/78 23/39 100/38
f 36/54 24/50 72/43
f 16/52 17/36 56/34
f 36/54 21/55 109/20
f 64/38 62/70 63/37
f 36/54 107/21 108/16
f 124/56 109/20 21/55
f 25/78 65/14 64/38
f 18/61 19/24 59/18
f 136/92 29/29 106/9
f 80/12 79/11 78/44
f 1/22 45/10 44/12
f 20/71 2/48 41/41
f 138/94 125/100 115/25
f 18/61 94/91 95/18
f 37/3 87/2 129/57
f 28/64 68/65 67/15
f 131/95 120/99 126/96
f 136/92 134/101 70/9
f 3/58 9/59 43/11
f 127/79 83/67 110/4
f 22/69 62/70 40/40
f 128/25 141/27 137/45
f 129/57 87/2 100/38
f 122/89 108/16 95/18
f 120/99 136/92 140/93
f 3/58 131/95 137/45
f 1/22 138/94 133/27
f 125/100 139/46 135/60
f 64/38 51/2 119/57
f 130/79 47/67 44/12
f 39/19 71/21 72/43
f 125/100 128/25 142/60
f 1/22 81/10 141/27
f 21/55 73/20 118/56
f 3/58 42/97 132/26
f 37/3 118/56 119/57
f 115/25 135/60 134/101
f 131/95 132/26 114/102
f 140/93 142/60 128/25
f 130/79 46/6 74/4
f 24/50 108/16 121/88
f 138/94 141/27 128/25
f 38/75 121/88 122/89
f 80/12 83/67 127/79
f 133/27 132/26 42/97
f 120/99 114/102 134/101
f 106/9 89/8 142/60
f 135/60 53/8 70/9
o GuardLeft
v 0 3.5 -0
v 0 2.875 -0
v 0 3.375 0.5
v 0 2.75 0.75
v 0 3.1875 0.5625
v 0 3 1.4375
v 0 2.5625 0.8125
v 0 2.4375 1.8125
v 0 3.4375 1.6875
v -0.0625 2.875 1.625
v -0.0625 2.5625 1.6875
v -0.0625 2.6875 0.9375
v -0.0625 2.875 0.875
v -0.0625 3 0.125
v -0.0625 3.125 0.5
v -0.0625 3.3125 0.4375
v -0.0625 3.375 0.125
v 0.0625 2.875 1.625
v 0.0625 2.5625 1.6875
v 0.0625 2.6875 0.9375
v 0.0625 2.875 0.875
v 0.0625 3 0.125
v 0.0625 3.125 0.5
v 0.0625 3.3125 0.4375
v 0.0625 3.375 0.125
vt 0.7012 0.3259
vt 0.8891 0.2596
vt 0.5038 0.2132
vt 0.2237 0.2792
vt 0.6742 0.3532
vt 0.1074 0.4925
vt 0.1217 0.2265
vt 0.5311 0.0593
vt 0.082 0.0784
vt 0.4672 0.1248
vt 0.0184 0.0173
vt 0.8891 0.2596
vt 0.5677 0.1477
vt 0.9529 0.1941
vt 0.5038 0.2132
vt 0.8986 0.4386
vt 0.9687 0.4925
vt 0.7108 0.4416
vt 0.7378 0.4143
s 1
f 157/103 156/104 155/105
f 157/103 148/106 147/107
f 151/108 148/106 152/109
f 149/110 153/111 154/112
f 150/113 152/109 153/111
f 164/114 146/115 144/116
f 164/114 163/117 146/115
f 144/116 159/118 143/119
f 159/118 145/120 143/119
f 147/107 166/121 145/120
f 163/117 164/114 165/103
f 146/115 154/112 155/105
f 149/110 161/111 150/113
f 150/113 160/109 151/108
f 146/115 156/104 144/116
f 167/118 144/116 143/119
f 145/120 167/118 143/119
f 146/115 162/112 149/110
f 148/106 165/103 147/107
f 151/108 160/109 148/106
f 160/109 162/112 163/117
f 152/109 157/103 155/105
f 154/112 152/109 155/105
f 166/121 165/103 164/114
f 158/121 159/118 156/104
f 157/103 152/109 148/106
f 149/110 150/113 153/111
f 150/113 151/108 152/109
f 146/115 155/105 156/104
f 147/107 165/103 166/121
f 144/116 156/104 159/118
f 159/118 158/121 145/120
f 154/112 153/111 152/109
f 165/103 160/109 163/117
f 158/121 147/107 145/120
f 158/121 157/103 147/107
f 158/121 156/104 157/103
f 146/115 163/117 162/112
f 149/110 162/112 161/111
f 150/113 161/111 160/109
f 146/115 149/110 154/112
f 167/118 164/114 144/116
f 145/120 166/121 167/118
f 160/109 161/111 162/112
f 148/106 160/109 165/103
f 166/121 164/114 167/118
o GuardRight
v 0 3.5 -0
v 0 2.875 -0
v 0 3.375 -0.5
v -0 2.75 -0.75
v 0 3.1875 -0.5625
v -0 3 -1.4375
v -0 2.5625 -0.8125
v -0 2.4375 -1.8125
v -0 3.4375 -1.6875
v 0.0625 2.875 -1.625
v 0.0625 2.5625 -1.6875
v 0.0625 2.6875 -0.9375
v 0.0625 2.875 -0.875
v 0.0625 3 -0.125
v 0.0625 3.125 -0.5
v 0.0625 3.3125 -0.4375
v 0.0625 3.375 -0.125
v -0.0625 2.875 -1.625
v -0.0625 2.5625 -1.6875
v -0.0625 2.6875 -0.9375
v -0.0625 2.875 -0.875
v -0.0625 3 -0.125
v -0.0625 3.125 -0.5
v -0.0625 3.3125 -0.4375
v -0.0625 3.375 -0.125
vt 0.7012 0.3259
vt 0.8891 0.2596
vt 0.5038 0.2132
vt 0.2237 0.2792
vt 0.6742 0.3532
vt 0.1074 0.4925
vt 0.1217 0.2265
vt 0.5311 0.0593
vt 0.082 0.0784
vt 0.4672 0.1248
vt 0.0184 0.0173
vt 0.5677 0.1477
vt 0.9529 0.1941
vt 0.8891 0.2596
vt 0.8986 0.4386
vt 0.9687 0.4925
vt 0.7108 0.4416
vt 0.7378 0.4143
vt 0.5038 0.2132
s 1
f 182/122 181/123 180/124
f 182/122 173/125 172/126
f 176/127 173/125 177/128
f 174/129 178/130 179/131
f 175/132 177/128 178/130
f 171/133 181/123 169/134
f 189/135 171/133 169/134
f 169/134 184/136 168/137
f 184/136 170/138 168/137
f 172/126 191/139 170/138
f 179/131 177/128 180/124
f 171/133 179/131 180/124
f 174/129 186/130 175/132
f 175/132 185/128 176/127
f 171/133 180/124 181/123
f 192/136 169/134 168/137
f 170/138 192/136 168/137
f 171/133 187/131 174/129
f 173/125 190/122 172/126
f 176/127 185/128 173/125
f 185/128 187/131 188/140
f 177/128 182/122 180/124
f 189/135 191/139 190/122
f 183/139 182/122 172/126
f 182/122 177/128 173/125
f 174/129 175/132 178/130
f 175/132 176/127 177/128
f 179/131 178/130 177/128
f 172/126 190/122 191/139
f 169/134 181/123 184/136
f 184/136 183/139 170/138
f 185/128 186/130 187/131
f 190/122 185/128 188/140
f 183/139 172/126 170/138
f 189/135 192/136 191/139
f 188/140 189/135 190/122
f 183/139 184/136 181/123
f 171/133 174/129 179/131
f 174/129 187/131 186/130
f 175/132 186/130 185/128
f 189/135 188/140 171/133
f 192/136 189/135 169/134
f 170/138 191/139 192/136
f 171/133 188/140 187/131
f 173/125 185/128 190/122
f 183/139 181/123 182/122
o Hilt
v 0 -0.5 -0.25
v 0 1.5 -0.25
v 0.125 -0.5 -0.2165
v 0.125 1.5 -0.2165
v 0.2165 -0.5 -0.125
v 0.2165 1.5 -0.125
v 0.25 -0.5 0
v 0.25 1.5 -0
v 0.2165 -0.5 0.125
v 0.2165 1.5 0.125
v 0.125 -0.5 0.2165
v 0.125 1.5 0.2165
v 0 -0.5 0.25
v 0 1.5 0.25
v -0.125 -0.5 0.2165
v -0.125 1.5 0.2165
v -0.2165 -0.5 0.125
v -0.2165 1.5 0.125
v -0.25 -0.5 0
v -0.25 1.5 -0
v -0.2165 -0.5 -0.125
v -0.2165 1.5 -0.125
v -0.125 -0.5 -0.2165
v -0.125 1.5 -0.2165
v 0 -0.5 -0.2812
v 0.1406 -0.5 -0.2436
v 0.2436 -0.5 -0.1406
v 0.2812 -0.5 0
v 0.2436 -0.5 0.1406
v 0.1406 -0.5 0.2436
v 0 -0.5 0.2812
v -0.1406 -0.5 0.2436
v -0.2436 -0.5 0.1406
v -0.2812 -0.5 0
v -0.2436 -0.5 -0.1406
v -0.1406 -0.5 -0.2436
v 0 -0.75 -0.2812
v 0.1406 -0.75 -0.2436
v 0.2436 -0.75 -0.1406
v 0.2812 -0.75 0
v 0.2436 -0.75 0.1406
v 0.1406 -0.75 0.2436
v 0 -0.75 0.2812
v -0.1406 -0.75 0.2436
v -0.2436 -0.75 0.1406
v -0.2812 -0.75 0
v -0.2436 -0.75 -0.1406
v -0.1406 -0.75 -0.2436
v 0 -0 -0.2812
v 0.1406 -0 -0.2436
v 0.2436 -0 -0.1406
v 0.2812 0 0
v 0.2436 0 0.1406
v 0.1406 0 0.2436
v 0 0 0.2812
v -0.1406 0 0.2436
v -0.2436 0 0.1406
v -0.2812 0 0
v -0.2436 -0 -0.1406
v -0.1406 -0 -0.2436
v 0 -0.125 -0.2812
v 0.1406 -0.125 -0.2436
v 0.2436 -0.125 -0.1406
v 0.2812 -0.125 0
v 0.2436 -0.125 0.1406
v 0.1406 -0.125 0.2436
v 0 -0.125 0.2812
v -0.1406 -0.125 0.2436
v -0.2436 -0.125 0.1406
v -0.2812 -0.125 0
v -0.2436 -0.125 -0.1406
v -0.1406 -0.125 -0.2436
v 0.4375 -1.2031 0.2436
v 0.4375 -1.0625 0.2812
v 0.4375 -0.9219 0.2436
v 0 -0.9512 -0.4265
v 0.4375 -0.8189 0.1406
v 0 -1.3742 -0.3421
v 0 -1.513 -0.1898
v 0.4375 -0.7812 0
v 0.4375 -0.8189 -0.1406
v 0.0949 -0.612 -0.1644
v 0.171 -0.7508 -0.2962
v 0.2133 -0.9512 -0.3694
v 0.2133 -1.1738 -0.3694
v 0.171 -1.3742 -0.2962
v 0.0949 -1.513 -0.1644
v 0.4375 -0.9219 -0.2436
v 0.1406 -1.625 -0.2436
v 0.1644 -0.612 -0.0949
v 0.2962 -0.7508 -0.171
v 0.3694 -0.9512 -0.2133
v 0.3694 -1.1738 -0.2133
v 0.2962 -1.3742 -0.171
v 0.1644 -1.513 -0.0949
v 0.2436 -1.625 -0.1406
v 0.2812 -1.625 0
v 0.1898 -0.612 0
v 0.3421 -0.7508 0
v 0.4265 -0.9512 0
v 0.4265 -1.1738 0
v 0.3421 -1.3742 0
v 0.1898 -1.513 0
v 0.2436 -1.625 0.1406
v 0.1406 -1.625 0.2436
v 0.1644 -0.612 0.0949
v 0.2962 -0.7508 0.171
v 0.3694 -0.9512 0.2133
v 0.3694 -1.1738 0.2133
v 0.2962 -1.3742 0.171
v 0.1644 -1.513 0.0949
v 0 -1.625 0.2812
v -0.1406 -1.625 0.2436
v 0.0949 -0.612 0.1644
v 0.171 -0.7508 0.2962
v 0.2133 -0.9512 0.3694
v 0.2133 -1.1738 0.3694
v 0.171 -1.3742 0.2962
v 0.0949 -1.513 0.1644
v -0.2436 -1.625 0.1406
v -0.2812 -1.625 0
v 0 -0.612 0.1898
v 0 -0.7508 0.3421
v 0 -0.9512 0.4265
v 0 -1.1738 0.4265
v 0 -1.3742 0.3421
v 0 -1.513 0.1898
v -0.2436 -1.625 -0.1406
v -0.0949 -0.612 0.1644
v -0.171 -0.7508 0.2962
v -0.2133 -0.9512 0.3694
v -0.2133 -1.1738 0.3694
v -0.171 -1.3742 0.2962
v -0.0949 -1.513 0.1644
v 0 -1.625 -0.2812
v -0.1406 -1.625 -0.2436
v -0.1644 -0.612 0.0949
v -0.2962 -0.7508 0.171
v -0.3694 -0.9512 0.2133
v -0.3694 -1.1738 0.2133
v -0.2962 -1.3742 0.171
v -0.1644 -1.513 0.0949
v -0.1406 -1.375 -0.2436
v -0.2436 -1.375 -0.1406
v -0.1898 -0.612 0
v -0.3421 -0.7508 0
v -0.4265 -0.9512 0
v -0.4265 -1.1738 0
v -0.3421 -1.3742 0
v -0.1898 -1.513 0
v -0.2812 -1.375 0
v -0.2436 -1.375 0.1406
v -0.1644 -0.612 -0.0949
v -0.2962 -0.7508 -0.171
v -0.3694 -0.9512 -0.2133
v -0.3694 -1.1738 -0.2133
v -0.2962 -1.3742 -0.171
v -0.1644 -1.513 -0.0949
v -0.1406 -1.375 0.2436
v 0 -1.375 0.2812
v -0.0949 -0.612 -0.1644
v -0.171 -0.7508 -0.2962
v -0.2133 -0.9512 -0.3694
v -0.2133 -1.1738 -0.3694
v -0.171 -1.3742 -0.2962
v -0.0949 -1.513 -0.1644
v 0.1406 -1.375 0.2436
v 0 -1.375 -0.2812
v 0 -0.612 -0.1898
v 0 -0.7508 -0.3421
v 0.2436 -1.375 0.1406
v 0 -1.1738 -0.4265
v 0.2812 -1.375 0
v 0.2436 -1.375 -0.1406
v 0.1406 -1.375 -0.2436
v 0.4375 -1.3061 0.1406
v 0.4375 -1.3438 0
v 0.4375 -1.3061 -0.1406
v 0.4375 -1.0625 -0.2812
v 0.4375 -1.2031 -0.2436
v 0.25 -1.2031 -0.2436
v 0.25 -1.0625 -0.2812
v 0.25 -1.3061 -0.1406
v 0.25 -1.3438 0
v 0.25 -1.3061 0.1406
v 0.25 -1.2031 0.2436
v 0.25 -1.0625 0.2812
v 0.25 -0.9219 0.2436
v 0.25 -0.8189 0.1406
v 0.25 -0.7812 0
v 0.25 -0.8189 -0.1406
v 0.25 -0.9219 -0.2436
v 0.4375 -1.168 -0.1827
v 0.4375 -1.0625 -0.2109
v 0.4375 -1.2452 -0.1055
v 0.4375 -1.2734 0
v 0.4375 -1.2452 0.1055
v 0.4375 -1.168 0.1827
v 0.4375 -1.0625 0.2109
v 0.4375 -0.957 0.1827
v 0.4375 -0.8798 0.1055
v 0.4375 -0.8516 0
v 0.4375 -0.8798 -0.1055
v 0.4375 -0.957 -0.1827
v 0.4688 -0.8494 0.123
v 0.4688 -0.8164 0
v 0.4688 -0.8494 -0.123
v 0.4688 -0.9395 -0.2131
v 0.4688 -1.3086 0
v 0.4688 -1.2756 0.123
v 0.4688 -1.1855 0.2131
v 0.4688 -1.0625 0.2461
v 0.4688 -0.9395 0.2131
v 0.4688 -1.0625 -0.2461
v 0.4688 -1.1855 -0.2131
v 0.4688 -1.2756 -0.123
v -0.0078 -1.2031 -0.5007
v 0.0248 -1.0625 -0.5195
v -0.0078 -0.9219 -0.5007
v -0.097 -0.8189 -0.4492
v -0.2188 -0.7812 -0.3789
v -0.3405 -0.8189 -0.3086
v -0.4297 -0.9219 -0.2571
v -0.097 -1.3061 -0.4492
v -0.2188 -1.3438 -0.3789
v -0.3405 -1.3061 -0.3086
v -0.4623 -1.0625 -0.2383
v -0.4297 -1.2031 -0.2571
v -0.3359 -1.2031 -0.0947
v -0.3686 -1.0625 -0.0759
v -0.2468 -1.3061 -0.1462
v -0.125 -1.3438 -0.2165
v -0.0032 -1.3061 -0.2868
v 0.0859 -1.2031 -0.3383
v 0.1186 -1.0625 -0.3571
v 0.0859 -0.9219 -0.3383
v -0.0032 -0.8189 -0.2868
v -0.125 -0.7812 -0.2165
v -0.2468 -0.8189 -0.1462
v -0.3359 -0.9219 -0.0947
v -0.377 -1.168 -0.2875
v -0.4014 -1.0625 -0.2734
v -0.3101 -1.2452 -0.3262
v -0.2188 -1.2734 -0.3789
v -0.1274 -1.2452 -0.4316
v -0.0605 -1.168 -0.4702
v -0.0361 -1.0625 -0.4844
v -0.0605 -0.957 -0.4702
v -0.1274 -0.8798 -0.4316
v -0.2188 -0.8516 -0.3789
v -0.3101 -0.8798 -0.3262
v -0.377 -0.957 -0.2875
v -0.1278 -0.8494 -0.4675
v -0.2344 -0.8164 -0.4059
v -0.3409 -0.8494 -0.3444
v -0.4189 -0.9395 -0.2994
v -0.2344 -1.3086 -0.4059
v -0.1278 -1.2756 -0.4675
v -0.0498 -1.1855 -0.5125
v -0.0213 -1.0625 -0.529
v -0.0498 -0.9395 -0.5125
v -0.4475 -1.0625 -0.2829
v -0.4189 -1.1855 -0.2994
v -0.3409 -1.2756 -0.3444
v -0.4297 -1.2031 0.2571
v -0.4623 -1.0625 0.2383
v -0.4297 -0.9219 0.2571
v -0.3405 -0.8189 0.3086
v -0.2188 -0.7812 0.3789
v -0.097 -0.8189 0.4492
v -0.0078 -0.9219 0.5007
v -0.3405 -1.3061 0.3086
v -0.2188 -1.3438 0.3789
v -0.097 -1.3061 0.4492
v 0.0248 -1.0625 0.5195
v -0.0078 -1.2031 0.5007
v 0.0859 -1.2031 0.3383
v 0.1186 -1.0625 0.3571
v -0.0032 -1.3061 0.2868
v -0.125 -1.3438 0.2165
v -0.2468 -1.3061 0.1462
v -0.3359 -1.2031 0.0947
v -0.3686 -1.0625 0.0759
v -0.3359 -0.9219 0.0947
v -0.2468 -0.8189 0.1462
v -0.125 -0.7812 0.2165
v -0.0032 -0.8189 0.2868
v 0.0859 -0.9219 0.3383
v -0.0605 -1.168 0.4702
v -0.0361 -1.0625 0.4844
v -0.1274 -1.2452 0.4316
v -0.2188 -1.2734 0.3789
v -0.3101 -1.2452 0.3262
v -0.377 -1.168 0.2875
v -0.4014 -1.0625 0.2734
v -0.377 -0.957 0.2875
v -0.3101 -0.8798 0.3262
v -0.2188 -0.8516 0.3789
v -0.1274 -0.8798 0.4316
v -0.0605 -0.957 0.4702
v -0.3409 -0.8494 0.3444
v -0.2344 -0.8164 0.4059
v -0.1278 -0.8494 0.4675
v -0.0498 -0.9395 0.5125
v -0.2344 -1.3086 0.4059
v -0.3409 -1.2756 0.3444
v -0.4189 -1.1855 0.2994
v -0.4475 -1.0625 0.2829
v -0.4189 -0.9395 0.2994
v -0.0213 -1.0625 0.529
v -0.0498 -1.1855 0.5125
v -0.1278 -1.2756 0.4675
v 0 1.625 -0.2812
v 0.1406 1.625 -0.2436
v 0.2436 1.625 -0.1406
v 0.2812 1.625 -0
v 0.2436 1.625 0.1406
v 0.1406 1.625 0.2436
v 0 1.625 0.2812
v -0.1406 1.625 0.2436
v -0.2436 1.625 0.1406
v -0.2812 1.625 -0
v -0.2436 1.625 -0.1406
v -0.1406 1.625 -0.2436
v 0 1.5 -0.2812
v 0.1406 1.5 -0.2436
v 0.2436 1.5 -0.1406
v 0.2812 1.5 -0
v 0.2436 1.5 0.1406
v 0.1406 1.5 0.2436
v 0 1.5 0.2812
v -0.1406 1.5 0.2436
v -0.2436 1.5 0.1406
v -0.2812 1.5 -0
v -0.2436 1.5 -0.1406
v -0.1406 1.5 -0.2436
v -0.325 2.0625 0.5
v -0.3563 1.6875 -0
v -0.325 2.3125 0.433
v 0.2829 2.0625 -0.4045
v -0.325 2.4955 0.25
v -0.325 2.5625 -0
v -0.325 2.4955 -0.25
v -0.2829 2.0625 -0.4045
v -0.3563 1.7377 0.1875
v 0.3563 1.7377 -0.1875
v -0.325 2.3125 -0.433
v -0.325 2.0625 -0.5
v 0.3563 1.6875 -0
v 0.3563 1.7377 0.1875
v 0.2829 1.8602 -0.3503
v 0.1471 1.8247 -0.4118
v 0 1.8125 -0.433
v -0.1471 1.8247 -0.4118
v -0.2829 1.8602 -0.3503
v 0.3563 1.875 0.3248
v 0.3563 2.0625 0.375
v -0.325 1.8125 -0.433
v -0.325 1.6295 -0.25
v 0.3563 2.25 0.3248
v 0.3563 2.3873 0.1875
v 0.2829 1.7122 -0.2023
v 0.1471 1.6507 -0.2378
v 0 1.6295 -0.25
v -0.1471 1.6507 -0.2378
v -0.2829 1.7122 -0.2023
v 0.3563 2.4375 -0
v 0.3563 2.3873 -0.1875
v -0.325 1.5625 -0
v -0.325 1.6295 0.25
v 0.3563 2.25 -0.3248
v 0.3563 2.0625 -0.375
v 0.2829 1.658 -0
v 0.1471 1.587 -0
v 0 1.5625 -0
v -0.1471 1.587 -0
v -0.2829 1.658 -0
v 0.3563 1.875 -0.3248
v 0.325 1.8281 -0.4059
v -0.325 1.6566 0.2344
v -0.325 1.5938 -0
v 0.325 2.0625 -0.4688
v 0.325 2.2969 -0.4059
v 0.2829 1.7122 0.2023
v 0.1471 1.6507 0.2378
v 0 1.6295 0.25
v -0.1471 1.6507 0.2378
v -0.2829 1.7122 0.2023
v 0.325 2.4684 -0.2344
v 0.325 2.5312 -0
v -0.325 1.6566 -0.2344
v -0.325 1.8281 -0.4059
v 0.325 2.4684 0.2344
v 0.325 2.2969 0.4059
v 0.2829 1.8602 0.3503
v 0.1471 1.8247 0.4118
v 0 1.8125 0.433
v -0.1471 1.8247 0.4118
v -0.2829 1.8602 0.3503
v 0.325 2.0625 0.4688
v 0.325 1.8281 0.4059
v -0.325 2.0625 -0.4688
v -0.325 2.2969 -0.4059
v 0.325 1.6566 0.2344
v 0.325 1.5938 -0
v 0.2829 2.0625 0.4045
v 0.1471 2.0625 0.4755
v 0 2.0625 0.5
v -0.1471 2.0625 0.4755
v -0.2829 2.0625 0.4045
v 0.325 1.6566 -0.2344
v 0.325 1.6295 -0.25
v -0.325 2.4684 -0.2344
v -0.325 2.5312 -0
v 0.325 1.5625 -0
v 0.325 1.6295 0.25
v 0.2829 2.2648 0.3503
v 0.1471 2.3003 0.4118
v 0 2.3125 0.433
v -0.1471 2.3003 0.4118
v -0.2829 2.2648 0.3503
v 0.325 1.8125 0.433
v 0.325 2.0625 0.5
v 0.325 2.3125 0.433
v 0.325 2.4955 0.25
v 0.325 2.5625 -0
v 0.325 2.4955 -0.25
v 0.2829 2.4128 0.2023
v 0.1471 2.4743 0.2378
v 0 2.4955 0.25
v -0.1471 2.4743 0.2378
v -0.2829 2.4128 0.2023
v 0.325 2.3125 -0.433
v 0.325 2.0625 -0.5
v -0.325 2.4684 0.2344
v -0.325 2.2969 0.4059
v 0.325 1.8125 -0.433
v 0.2625 2.0625 -0.5
v 0.2829 2.467 -0
v 0.1471 2.538 -0
v 0 2.5625 -0
v -0.1471 2.538 -0
v -0.2829 2.467 -0
v 0.2625 2.3125 -0.433
v 0.2625 2.4955 -0.25
v -0.325 2.0625 0.4688
v -0.325 1.8281 0.4059
v 0.2625 2.5625 -0
v 0.2625 2.4955 0.25
v 0.2829 2.4128 -0.2023
v 0.1471 2.4743 -0.2378
v 0 2.4955 -0.25
v -0.1471 2.4743 -0.2378
v -0.2829 2.4128 -0.2023
v 0.2625 2.3125 0.433
v 0.2625 2.0625 0.5
v -0.3563 1.875 0.3248
v -0.3563 2.0625 0.375
v 0.2625 1.8125 0.433
v 0.2625 1.6295 0.25
v 0.2829 2.2648 -0.3503
v 0.1471 2.3003 -0.4118
v 0 2.3125 -0.433
v -0.1471 2.3003 -0.4118
v -0.2829 2.2648 -0.3503
v 0.2625 1.5625 -0
v 0.2625 1.6295 -0.25
v -0.3563 2.25 0.3248
v -0.3563 2.3873 0.1875
v -0.3563 2.4375 -0
v 0.2625 1.8125 -0.433
v -0.3563 2.3873 -0.1875
v 0.1471 2.0625 -0.4755
v 0 2.0625 -0.5
v -0.1471 2.0625 -0.4755
v -0.3563 2.25 -0.3248
v -0.3563 2.0625 -0.375
v -0.3563 1.875 -0.3248
v -0.3563 1.7377 -0.1875
v -0.325 1.8125 0.433
v -0.2625 2.0625 0.5
v -0.2625 2.3125 0.433
v -0.2625 2.4955 0.25
v -0.2625 2.5625 -0
v -0.2625 2.4955 -0.25
v -0.2625 2.3125 -0.433
v -0.2625 2.0625 -0.5
v -0.2625 1.8125 -0.433
v -0.2625 1.6295 -0.25
v -0.2625 1.5625 -0
v -0.2625 1.6295 0.25
v -0.2625 1.8125 0.433
v 0.1083 2 0.45
v 0.1083 2.125 0.45
v 0 1.9375 -0.45
v 0 2.0625 0.95
v 0.1083 2 -0.45
v 0 2.1875 0.45
v 0.1083 2.125 -0.45
v -0.1083 2.125 0.45
v 0 2.1875 -0.45
v 0 2.0625 -0.95
v -0.1083 2.125 -0.45
v -0.1083 2 0.45
v -0.1083 2 -0.45
v 0 1.9375 0.45
v 0.0625 2.6 0.5
v 0.0625 2.225 0.5
v 0.0625 2.6 -0.5
v 0.0625 2.225 -0.5
v 0.0625 2.725 0.375
v 0.0625 2.725 -0.375
v 0.0625 3.475 0.25
v 0.0625 3.475 -0.25
v 0.0625 3.6625 0.5
v 0.0625 3.6625 -0.5
v 0.0625 4.0375 0.4375
v 0.0625 4.0375 -0.4375
v 0.0625 3.975 -0
v 0.0625 3.7875 0.375
v 0.0625 3.7875 -0.375
v 0.0625 3.6625 0.1875
v 0.0625 3.6625 -0.1875
v 0.125 3.725 0.4375
v 0.125 3.725 -0.4375
v 0.125 3.85 -0
v 0.125 3.5375 0.1875
v 0.125 3.5375 -0.1875
v 0.125 2.6 0.375
v 0.125 2.725 0.25
v 0.125 2.6 -0.375
v 0.125 2.725 -0.25
v 0.125 2.35 0.375
v 0.125 2.35 -0.375
v 0.125 3.725 -0
v 0.125 3.5375 0.125
v 0.125 3.5375 -0.125
v 0.125 2.7875 0.125
v 0.125 2.7875 -0.125
v 0.125 2.724 0.0625
v 0.125 2.724 -0.0625
v 0.125 2.599 0.0625
v 0.125 2.599 -0.0625
v 0.125 2.5365 -0.1875
v 0.125 2.5365 0.1875
v 0.125 2.4115 -0.3125
v 0.125 2.4115 0.3125
v 0.1875 3.6625 -0
v 0.1875 3.475 -0.125
v 0.1875 3.475 0.125
v 0.1875 2.7875 0.125
v 0.1875 2.7875 -0.125
v 0.1875 2.724 0.0625
v 0.1875 2.724 -0.0625
v 0.1875 2.599 0.0625
v 0.1875 2.599 -0.0625
v 0.1875 2.5365 -0.1875
v 0.1875 2.5365 0.1875
v 0.1875 2.4115 -0.3125
v 0.1875 2.4115 0.3125
v 0.1875 2.7875 -0
v 0.1875 2.5688 -0
v 0.2188 2.724 -0
v 0.2188 2.599 -0
v 0.2334 2.6161 -0.0141
v 0.2188 2.6058 -0.0245
v 0.1988 2.602 -0.0283
v 0.2334 2.6103 -0
v 0.2188 2.5956 -0
v 0.1988 2.5903 -0
v 0.2334 2.6161 0.0141
v 0.2188 2.6058 0.0245
v 0.1988 2.602 0.0283
v 0.2334 2.6303 0.02
v 0.2188 2.6303 0.0346
v 0.1988 2.6303 0.04
v 0.2334 2.6444 0.0141
v 0.2188 2.6547 0.0245
v 0.1988 2.6585 0.0283
v 0.2334 2.6503 -0
v 0.2188 2.6649 -0
v 0.1988 2.6702 -0
v 0.2334 2.6444 -0.0141
v 0.2188 2.6547 -0.0245
v 0.1988 2.6585 -0.0283
v 0.2387 2.6303 -0
v 0.2334 2.6303 -0.02
v 0.2188 2.6303 -0.0346
v 0.1988 2.6303 -0.04
v -0.0625 2.6 -0.5
v -0.0625 2.225 -0.5
v -0.0625 2.6 0.5
v -0.0625 2.225 0.5
v -0.0625 2.725 -0.375
v -0.0625 2.725 0.375
v -0.0625 3.475 -0.25
v -0.0625 3.475 0.25
v -0.0625 3.6625 -0.5
v -0.0625 3.6625 0.5
v -0.0625 4.0375 -0.4375
v -0.0625 4.0375 0.4375
v -0.0625 3.975 -0
v -0.0625 3.7875 -0.375
v -0.0625 3.7875 0.375
v -0.0625 3.6625 -0.1875
v -0.0625 3.6625 0.1875
v -0.125 3.725 -0.4375
v -0.125 3.725 0.4375
v -0.125 3.85 -0
v -0.125 3.5375 -0.1875
v -0.125 3.5375 0.1875
v -0.125 2.6 -0.375
v -0.125 2.725 -0.25
v -0.125 2.6 0.375
v -0.125 2.725 0.25
v -0.125 2.35 -0.375
v -0.125 2.35 0.375
v -0.125 3.725 -0
v -0.125 3.5375 -0.125
v -0.125 3.5375 0.125
v -0.125 2.7875 -0.125
v -0.125 2.7875 0.125
v -0.125 2.724 -0.0625
v -0.125 2.724 0.0625
v -0.125 2.599 -0.0625
v -0.125 2.599 0.0625
v -0.125 2.5365 0.1875
v -0.125 2.5365 -0.1875
v -0.125 2.4115 0.3125
v -0.125 2.4115 -0.3125
v -0.1875 3.6625 -0
v -0.1875 3.475 0.125
v -0.1875 3.475 -0.125
v -0.1875 2.7875 -0.125
v -0.1875 2.7875 0.125
v -0.1875 2.724 -0.0625
v -0.1875 2.724 0.0625
v -0.1875 2.599 -0.0625
v -0.1875 2.599 0.0625
v -0.1875 2.5365 0.1875
v -0.1875 2.5365 -0.1875
v -0.1875 2.4115 0.3125
v -0.1875 2.4115 -0.3125
v -0.1875 2.7875 -0
v -0.1875 2.5688 -0
v -0.2188 2.724 -0
v -0.2188 2.599 -0
v -0.2334 2.6161 0.0141
v -0.2188 2.6058 0.0245
v -0.1988 2.602 0.0283
v -0.2334 2.6103 -0
v -0.2188 2.5956 -0
v -0.1988 2.5903 -0
v -0.2334 2.6161 -0.0141
v -0.2188 2.6058 -0.0245
v -0.1988 2.602 -0.0283
v -0.2334 2.6303 -0.02
v -0.2188 2.6303 -0.0346
v -0.1988 2.6303 -0.04
v -0.2334 2.6444 -0.0141
v -0.2188 2.6547 -0.0245
v -0.1988 2.6585 -0.0283
v -0.2334 2.6503 -0
v -0.2188 2.6649 -0
v -0.1988 2.6702 -0
v -0.2334 2.6444 0.0141
v -0.2188 2.6547 0.0245
v -0.1988 2.6585 0.0283
v -0.2387 2.6303 -0
v -0.2334 2.6303 0.02
v -0.2188 2.6303 0.0346
v -0.1988 2.6303 0.04
v 0.1406 -1.625 -0.2436
v 0.2436 -1.625 -0.1406
v 0.2812 -1.625 0
v 0.2436 -1.625 0.1406
v 0.1406 -1.625 0.2436
v 0 -1.625 0.2812
v -0.1406 -1.625 0.2436
v -0.2436 -1.625 0.1406
v -0.2812 -1.625 0
v -0.2436 -1.625 -0.1406
v 0 -1.625 -0.2812
v -0.1406 -1.625 -0.2436
v 0.4375 -1.168 -0.1827
v 0.4375 -1.0625 -0.2109
v 0.4375 -1.2452 -0.1055
v 0.4375 -1.2734 0
v 0.4375 -1.2452 0.1055
v 0.4375 -1.168 0.1827
v 0.4375 -1.0625 0.2109
v 0.4375 -0.957 0.1827
v 0.4375 -0.8798 0.1055
v 0.4375 -0.8516 0
v 0.4375 -0.8798 -0.1055
v 0.4375 -0.957 -0.1827
v -0.377 -1.168 -0.2875
v -0.4014 -1.0625 -0.2734
v -0.3101 -1.2452 -0.3262
v -0.2188 -1.2734 -0.3789
v -0.1274 -1.2452 -0.4316
v -0.0605 -1.168 -0.4702
v -0.0361 -1.0625 -0.4844
v -0.0605 -0.957 -0.4702
v -0.1274 -0.8798 -0.4316
v -0.2188 -0.8516 -0.3789
v -0.3101 -0.8798 -0.3262
v -0.377 -0.957 -0.2875
v -0.0605 -1.168 0.4702
v -0.0361 -1.0625 0.4844
v -0.1274 -1.2452 0.4316
v -0.2188 -1.2734 0.3789
v -0.3101 -1.2452 0.3262
v -0.377 -1.168 0.2875
v -0.4014 -1.0625 0.2734
v -0.377 -0.957 0.2875
v -0.3101 -0.8798 0.3262
v -0.2188 -0.8516 0.3789
v -0.1274 -0.8798 0.4316
v -0.0605 -0.957 0.4702
v 0 -0.5 -0.2812
v 0.1406 -0.5 -0.2436
v 0.2436 -0.5 -0.1406
v 0.2812 -0.5 0
v 0.2436 -0.5 0.1406
v 0.1406 -0.5 0.2436
v 0 -0.5 0.2812
v -0.1406 -0.5 0.2436
v -0.2436 -0.5 0.1406
v -0.2812 -0.5 0
v -0.2436 -0.5 -0.1406
v -0.1406 -0.5 -0.2436
v 0 -0 -0.2812
v 0.1406 -0 -0.2436
v 0.2436 -0 -0.1406
v 0.2812 0 0
v 0.2436 0 0.1406
v 0.1406 0 0.2436
v 0 0 0.2812
v -0.1406 0 0.2436
v -0.2436 0 0.1406
v -0.2812 0 0
v -0.2436 -0 -0.1406
v -0.1406 -0 -0.2436
v 0 -0.125 -0.2812
v 0.1406 -0.125 -0.2436
v 0.2436 -0.125 -0.1406
v 0.2812 -0.125 0
v 0.2436 -0.125 0.1406
v 0.1406 -0.125 0.2436
v 0 -0.125 0.2812
v -0.1406 -0.125 0.2436
v -0.2436 -0.125 0.1406
v -0.2812 -0.125 0
v -0.2436 -0.125 -0.1406
v -0.1406 -0.125 -0.2436
v 0 1.5 -0.2812
v 0.1406 1.5 -0.2436
v 0.2436 1.5 -0.1406
v 0.2812 1.5 -0
v 0.2436 1.5 0.1406
v 0.1406 1.5 0.2436
v 0 1.5 0.2812
v -0.1406 1.5 0.2436
v -0.2436 1.5 0.1406
v -0.2812 1.5 -0
v -0.2436 1.5 -0.1406
v -0.1406 1.5 -0.2436
v -0.325 2.0625 0.5
v -0.325 2.3125 0.433
v -0.325 2.4955 0.25
v -0.325 2.5625 -0
v -0.325 2.4955 -0.25
v -0.325 2.3125 -0.433
v -0.325 2.0625 -0.5
v -0.325 1.8125 -0.433
v -0.325 1.6295 -0.25
v -0.325 1.5625 -0
v -0.325 1.6295 0.25
v 0.325 1.6295 -0.25
v 0.325 1.5625 -0
v 0.325 1.6295 0.25
v 0.325 1.8125 0.433
v 0.325 2.0625 0.5
v 0.325 2.3125 0.433
v 0.325 2.4955 0.25
v 0.325 2.5625 -0
v 0.325 2.4955 -0.25
v 0.325 2.3125 -0.433
v 0.325 2.0625 -0.5
v 0.325 1.8125 -0.433
v 0.2625 2.0625 -0.5
v 0.2625 2.3125 -0.433
v 0.2625 2.4955 -0.25
v 0.2625 2.5625 -0
v 0.2625 2.4955 0.25
v 0.2625 2.3125 0.433
v 0.2625 2.0625 0.5
v 0.2625 1.8125 0.433
v 0.2625 1.6295 0.25
v 0.2625 1.5625 -0
v 0.2625 1.6295 -0.25
v 0.2625 1.8125 -0.433
v -0.325 1.8125 0.433
v -0.2625 2.0625 0.5
v -0.2625 2.3125 0.433
v -0.2625 2.4955 0.25
v -0.2625 2.5625 -0
v -0.2625 2.4955 -0.25
v -0.2625 2.3125 -0.433
v -0.2625 2.0625 -0.5
v -0.2625 1.8125 -0.433
v -0.2625 1.6295 -0.25
v -0.2625 1.5625 -0
v -0.2625 1.6295 0.25
v -0.2625 1.8125 0.433
v 0 0.5 -0.25
v 0.2165 0.5 0.125
v -0.2165 0.5 0.125
v 0.125 0.5 -0.2165
v 0.125 0.5 0.2165
v -0.25 0.5 -0
v 0.2165 0.5 -0.125
v 0 0.5 0.25
v -0.2165 0.5 -0.125
v 0.25 0.5 -0
v -0.125 0.5 0.2165
v -0.125 0.5 -0.2165
vt 0.5276 0.7292
vt 0.5285 0.6182
vt 0.5603 0.674
vt 0.4957 0.3853
vt 0.5549 0.4445
vt 0.4741 0.4661
vt 0.7199 0.7336
vt 0.6977 0.6507
vt 0.7584 0.59
vt 0.6977 0.6507
vt 0.8635 0.6507
vt 0.6977 0.6951
vt 0.8028 0.59
vt 0.4957 0.3853
vt 0.5424 0.3978
vt 0.4741 0.4661
vt 0.4616 0.4195
vt 0.4316 0.6728
vt 0.4644 0.6175
vt 0.5287 0.6183
vt 0.4316 0.673
vt 0.4642 0.6176
vt 0.9103 0.5411
vt 0.9795 0.5963
vt 0.899 0.5594
vt 0.9037 0.642
vt 0.9169 0.6589
vt 0.8925 0.5798
vt 0.8949 0.6224
vt 0.8911 0.6012
vt 0.8925 0.5798
vt 0.9036 0.642
vt 0.0668 0.3121
vt 0.0419 0.3521
vt 0.0453 0.2888
vt 0.2147 0.3521
vt 0.1901 0.3122
vt 0.2117 0.2895
vt 0.1958 0.3754
vt 0.1913 0.3525
vt 0.0854 0.3752
vt 0.0786 0.5084
vt 0.0609 0.3756
vt 0.6228 0.3517
vt 0.645 0.18
vt 0.645 0.3517
vt 0.1782 0.5083
vt 0.1713 0.3751
vt 0.1958 0.3754
vt 0.8524 0.3746
vt 0.8254 0.335
vt 0.8525 0.335
vt 0.0363 0.5421
vt 0.0501 0.5542
vt 0.039 0.6062
vt 0.061 0.5681
vt 0.1635 0.5477
vt 0.2068 0.5542
vt 0.1959 0.5681
vt 0.0934 0.5477
vt 0.1284 0.572
vt 0.1284 0.5945
vt 0.1627 0.5214
vt 0.1598 0.3432
vt 0.1802 0.3223
vt 0.2179 0.6062
vt 0.2206 0.5421
vt 0.0941 0.5214
vt 0.1284 0.5533
vt 0.1513 0.5213
vt 0.1067 0.3861
vt 0.9123 0.4479
vt 0.9095 0.4449
vt 0.9122 0.446
vt 0.0768 0.3223
vt 0.0969 0.3433
vt 0.0655 0.3526
vt 0.1389 0.3538
vt 0.1391 0.3752
vt 0.6222 0.3743
vt 0.5987 0.3824
vt 0.6229 0.3732
vt 0.5997 0.383
vt 0.6122 0.3848
vt 0.2719 0.1528
vt 0.2963 0.1244
vt 0.2981 0.1511
vt 0.5835 0.5924
vt 0.6176 0.6177
vt 0.6098 0.6361
vt 0.1723 0.7136
vt 0.1473 0.6922
vt 0.1723 0.6922
vt 0.6567 0.5892
vt 0.6215 0.6145
vt 0.6484 0.5707
vt 0.6895 0.18
vt 0.7117 0.0083
vt 0.7117 0.18
vt 0.5806 0.4209
vt 0.5931 0.5721
vt 0.5792 0.5857
vt 0.7339 0.0083
vt 0.7339 0.18
vt 0.6524 0.4186
vt 0.6414 0.4226
vt 0.2473 0.6922
vt 0.2223 0.7136
vt 0.2223 0.6922
vt 0.9706 0.2806
vt 0.9813 0.2361
vt 0.9813 0.2806
vt 0.9706 0.1473
vt 0.9813 0.1028
vt 0.9813 0.1473
vt 0.9706 0.0584
vt 0.9813 0.0139
vt 0.9813 0.0584
vt 0.5913 0.574
vt 0.6221 0.4264
vt 0.6467 0.5753
vt 0.321 0.6374
vt 0.346 0.6803
vt 0.321 0.6803
vt 0.9012 0.4984
vt 0.913 0.4975
vt 0.9128 0.5099
vt 0.9256 0.4989
vt 0.9142 0.4706
vt 0.9141 0.4781
vt 0.9021 0.476
vt 0.9256 0.4763
vt 0.8853 0.2119
vt 0.9175 0.1869
vt 0.9175 0.2119
vt 0.278 0.3622
vt 0.4282 0.3408
vt 0.4068 0.3622
vt 0.2844 0.0573
vt 0.2679 0.0993
vt 0.2622 0.0594
vt 0.3102 0.5232
vt 0.3746 0.5232
vt 0.3424 0.5769
vt 0.4282 0.5232
vt 0.3853 0.491
vt 0.4175 0.5876
vt 0.4068 0.5447
vt 0.2565 0.5232
vt 0.2994 0.491
vt 0.2672 0.5876
vt 0.278 0.5447
vt 0.602 0.3875
vt 0.1284 0.572
vt 0.1284 0.5533
vt 0.15 0.386
vt 0.1802 0.3223
vt 0.4251 0.7134
vt 0.4632 0.7287
vt 0.4546 0.7434
vt 0.9706 0.5028
vt 0.9813 0.4584
vt 0.9813 0.5028
vt 0.6073 0.3854
vt 0.6303 0.3779
vt 0.6197 0.3879
vt 0.9706 0.1917
vt 0.647 0.4271
vt 0.646 0.4074
vt 0.6582 0.4236
vt 0.654 0.5942
vt 0.3233 0.1206
vt 0.326 0.1493
vt 0.5864 0.4223
vt 0.5768 0.5869
vt 0.3223 0.7136
vt 0.2973 0.6922
vt 0.3223 0.6922
vt 0.6076 0.3917
vt 0.5926 0.4052
vt 0.6021 0.3907
vt 0.8853 0.2369
vt 0.9175 0.2369
vt 0.9706 0.5028
vt 0.9706 0.4584
vt 0.9706 0.325
vt 0.9121 0.4421
vt 0.9053 0.4435
vt 0.9102 0.4378
vt 0.1973 0.6922
vt 0.278 0.3622
vt 0.4068 0.3622
vt 0.1177 0.3538
vt 0.6215 0.3902
vt 0.6247 0.3808
vt 0.6279 0.3877
vt 0.9494 0.3794
vt 0.8794 0.3606
vt 0.94 0.3444
vt 0.9238 0.405
vt 0.7199 0.6122
vt 0.8413 0.6122
vt 0.8635 0.6951
vt 0.8413 0.7336
vt 0.8028 0.7558
vt 0.7584 0.7558
vt 0.5207 0.3853
vt 0.5549 0.4195
vt 0.5424 0.4661
vt 0.5207 0.4786
vt 0.4957 0.4786
vt 0.4616 0.4445
vt 0.4616 0.4195
vt 0.4741 0.3978
vt 0.7199 0.6122
vt 0.5424 0.4661
vt 0.4616 0.4445
vt 0.1055 0.5213
vt 0.4399 0.705
vt 0.552 0.642
vt 0.5603 0.6742
vt 0.5513 0.7062
vt 0.5275 0.7293
vt 0.4952 0.7375
vt 0.4406 0.6408
vt 0.4966 0.6093
vt 0.94 0.3956
vt 0.8794 0.3794
vt 0.9238 0.335
vt 0.5519 0.6418
vt 0.5514 0.706
vt 0.4954 0.7375
vt 0.4633 0.7287
vt 0.44 0.7051
vt 0.4405 0.641
vt 0.4965 0.6093
vt 0.5339 0.3517
vt 0.5561 0.18
vt 0.5561 0.3517
vt 0.6673 0.18
vt 0.6673 0.3517
vt 0.0925 0.2347
vt 0.0623 0.1951
vt 0.1049 0.1781
vt 0.8254 0.3749
vt 0.6228 0.18
vt 0.5117 0.18
vt 0.5117 0.0083
vt 0.5339 0.0083
vt 0.2924 0.0962
vt 0.8853 0.1869
vt 0.6895 0.3517
vt 0.7117 0.3517
vt 0.1176 0.3751
vt 0.905 0.405
vt 0.4953 0.7547
vt 0.6204 0.3816
vt 0.6146 0.3831
vt 0.6098 0.3849
vt 0.6046 0.3861
vt 0.9194 0.4489
vt 0.9192 0.4448
vt 0.9236 0.4429
vt 0.5784 0.3517
vt 0.6006 0.18
vt 0.6006 0.3517
vt 0.2973 0.7136
vt 0.2723 0.7136
vt 0.4895 0.3517
vt 0.5117 0.3517
vt 0.8015 0.3746
vt 0.8258 0.4149
vt 0.5916 0.4242
vt 0.2565 0.2764
vt 0.4282 0.2764
vt 0.6631 0.5835
vt 0.8021 0.255
vt 0.8024 0.2152
vt 0.8262 0.2156
vt 0.9254 0.0385
vt 0.9254 0.0603
vt 0.9175 0.0619
vt 0.7785 0.095
vt 0.7768 0.0542
vt 0.8019 0.0532
vt 0.4547 0.7435
vt 0.6277 0.4097
vt 0.6165 0.4232
vt 0.9175 0.2119
vt 0.8853 0.2119
vt 0.8853 0.1869
vt 0.6042 0.4108
vt 0.7768 0.4564
vt 0.7772 0.4147
vt 0.8016 0.415
vt 0.5371 0.6034
vt 0.2565 0.3408
vt 0.2237 0.1843
vt 0.1991 0.1874
vt 0.1953 0.1592
vt 0.5339 0.18
vt 0.456 0.6027
vt 0.5862 0.5909
vt 0.6146 0.6332
vt 0.4673 0.3517
vt 0.4895 0.18
vt 0.1177 0.3538
vt 0.1598 0.3432
vt 0.7339 0.3517
vt 0.2473 0.7136
vt 0.6281 0.3851
vt 0.6222 0.3863
vt 0.6173 0.3878
vt 0.6121 0.3888
vt 0.1961 0.6374
vt 0.2211 0.6374
vt 0.2211 0.6803
vt 0.4558 0.6028
vt 0.5784 0.18
vt 0.9254 0.0635
vt 0.9254 0.0853
vt 0.5972 0.4262
vt 0.4145 0.6729
vt 0.4257 0.6323
vt 0.6607 0.5889
vt 0.5661 0.7146
vt 0.8265 0.1758
vt 0.8537 0.1758
vt 0.8534 0.2157
vt 0.7783 0.2546
vt 0.7512 0.2545
vt 0.7515 0.2148
vt 0.5373 0.6035
vt 0.634 0.4135
vt 0.8853 0.0369
vt 0.8853 0.0119
vt 0.9175 0.0119
vt 0.6105 0.4135
vt 0.8853 0.0369
vt 0.8854 0.0119
vt 0.9176 0.0119
vt 0.6039 0.3869
vt 0.9494 0.3606
vt 0.8888 0.3956
vt 0.8888 0.3444
vt 0.905 0.335
vt 0.9813 0.1917
vt 0.1223 0.7136
vt 0.0973 0.6922
vt 0.1223 0.6922
vt 0.6113 0.3896
vt 0.6094 0.3933
vt 0.6094 0.39
vt 0.8853 0.1369
vt 0.9175 0.1119
vt 0.9175 0.1369
vt 0.8853 0.0619
vt 0.9175 0.0369
vt 0.9175 0.0619
vt 0.6027 0.4105
vt 0.1973 0.7136
vt 0.1461 0.6374
vt 0.1711 0.6803
vt 0.1461 0.6803
vt 0.2723 0.6922
vt 0.9813 0.4139
vt 0.4673 0.18
vt 0.4895 0.0083
vt 0.9706 0.1028
vt 0.9334 0.09
vt 0.9254 0.1103
vt 0.9255 0.0885
vt 0.296 0.6374
vt 0.296 0.6803
vt 0.9813 0.325
vt 0.9706 0.3695
vt 0.6394 0.403
vt 0.2461 0.6374
vt 0.2711 0.6803
vt 0.2461 0.6803
vt 0.9813 0.5028
vt 0.9706 0.5472
vt 0.6006 0.0083
vt 0.0723 0.7136
vt 0.0473 0.6922
vt 0.0723 0.6922
vt 0.5784 0.0083
vt 0.0711 0.6374
vt 0.0961 0.6803
vt 0.0711 0.6803
vt 0.1711 0.6374
vt 0.1961 0.6803
vt 0.3472 0.7136
vt 0.3472 0.6922
vt 0.0461 0.6374
vt 0.0461 0.6803
vt 0.6064 0.3848
vt 0.9706 0.2361
vt 0.9813 0.3695
vt 0.9706 0.4139
vt 0.2711 0.6374
vt 0.2433 0.1012
vt 0.2394 0.0603
vt 0.2197 0.1308
vt 0.2211 0.1566
vt 0.2755 0.2234
vt 0.2482 0.1824
vt 0.2732 0.1813
vt 0.3867 0.1055
vt 0.3991 0.0489
vt 0.4293 0.0885
vt 0.0978 0.139
vt 0.0586 0.0839
vt 0.1014 0.0959
vt 0.6355 0.4132
vt 0.6352 0.3916
vt 0.2989 0.1808
vt 0.2994 0.2244
vt 0.0973 0.7136
vt 0.3433 0.0835
vt 0.3461 0.0374
vt 0.3706 0.0707
vt 0.6895 0.0083
vt 0.1855 0.2301
vt 0.1482 0.2001
vt 0.1741 0.1923
vt 0.2294 0.2242
vt 0.2522 0.2233
vt 0.3527 0.1149
vt 0.3174 0.0913
vt 0.2184 0.1023
vt 0.9254 0.2353
vt 0.9175 0.2369
vt 0.2704 0.127
vt 0.3261 0.1813
vt 0.3569 0.1472
vt 0.3559 0.1831
vt 0.1676 0.0569
vt 0.1357 0.1005
vt 0.1425 0.0529
vt 0.2464 0.1545
vt 0.1347 0.1364
vt 0.121 0.2129
vt 0.1388 0.1687
vt 0.1211 0.6803
vt 0.1455 0.2462
vt 0.1647 0.2363
vt 0.2451 0.1291
vt 0.092 0.0338
vt 0.1169 0.0459
vt 0.1683 0.163
vt 0.1934 0.1325
vt 0.1654 0.1023
vt 0.1927 0.1028
vt 0.8853 0.2619
vt 0.9175 0.2619
vt 0.3061 0.0535
vt 0.1473 0.7136
vt 0.3268 0.0473
vt 0.6228 0.0083
vt 0.3746 0.2377
vt 0.4329 0.1997
vt 0.3996 0.2498
vt 0.3937 0.1446
vt 0.4432 0.1418
vt 0.1921 0.0592
vt 0.2161 0.0602
vt 0.3901 0.1877
vt 0.3491 0.2307
vt 0.2071 0.2263
vt 0.5561 0.0083
vt 0.3619 0.0224
vt 0.6148 0.3945
vt 0.5991 0.4072
vt 0.3239 0.2267
vt 0.0961 0.6374
vt 0.9706 0.0139
vt 0.631 0.3768
vt 0.1656 0.1343
vt 0.8853 0.1619
vt 0.9175 0.1619
vt 0.9813 0.325
vt 0.8853 0.1119
vt 0.9175 0.0869
vt 0.6292 0.4093
vt 0.9254 0.0885
vt 0.9334 0.1088
vt 0.9254 0.1103
vt 0.9254 0.2853
vt 0.9334 0.265
vt 0.9334 0.2838
vt 0.9175 0.0369
vt 0.9254 0.1385
vt 0.9175 0.1619
vt 0.9175 0.1369
vt 0.9254 0.2135
vt 0.9333 0.2338
vt 0.9254 0.2353
vt 0.9255 0.0635
vt 0.9334 0.0838
vt 0.9255 0.0853
vt 0.9254 0.1385
vt 0.9334 0.1588
vt 0.9254 0.1603
vt 0.9254 0.1635
vt 0.9334 0.1838
vt 0.9254 0.1853
vt 0.9254 0.0135
vt 0.9254 0.0353
vt 0.9334 0.19
vt 0.9254 0.2103
vt 0.9254 0.1885
vt 0.9334 0.04
vt 0.9254 0.1135
vt 0.9334 0.1338
vt 0.9254 0.1353
vt 0.9254 0.2103
vt 0.9254 0.2885
vt 0.9333 0.3088
vt 0.9254 0.3103
vt 0.9254 0.2385
vt 0.9175 0.2869
vt 0.9254 0.3103
vt 0.9175 0.3119
vt 0.9254 0.1135
vt 0.9254 0.1635
vt 0.9254 0.1853
vt 0.9254 0.2353
vt 0.8853 0.1619
vt 0.8853 0.2869
vt 0.9175 0.2619
vt 0.9175 0.0869
vt 0.8853 0.1119
vt 0.8853 0.0869
vt 0.8853 0.2619
vt 0.8274 0.4558
vt 0.8023 0.4568
vt 0.8853 0.0619
vt 0.9175 0.1869
vt 0.8853 0.2369
vt 0.9175 0.1119
vt 0.8853 0.1369
vt 0.9254 0.2635
vt 0.9175 0.2869
vt 0.9254 0.2384
vt 0.9254 0.2384
vt 0.9334 0.2588
vt 0.9254 0.2603
vt 0.9334 0.14
vt 0.9254 0.1603
vt 0.9254 0.3103
vt 0.9334 0.1588
vt 0.9254 0.2634
vt 0.9254 0.2853
vt 0.9254 0.2603
vt 0.9334 0.24
vt 0.9334 0.115
vt 0.9254 0.1353
vt 0.9334 0.165
vt 0.9254 0.2884
vt 0.9334 0.3088
vt 0.9255 0.0385
vt 0.9334 0.0588
vt 0.9255 0.0603
vt 0.9255 0.0135
vt 0.9255 0.0353
vt 0.9175 0.3119
vt 0.8853 0.2119
vt 0.9334 0.29
vt 0.9254 0.2884
vt 0.9334 0.215
vt 0.9254 0.2134
vt 0.9334 0.015
vt 0.9334 0.0838
vt 0.9334 0.065
vt 0.9334 0.0338
vt 0.9333 0.24
vt 0.9254 0.2603
vt 0.9334 0.165
vt 0.9333 0.2838
vt 0.9254 0.2853
vt 0.9334 0.2338
vt 0.9333 0.19
vt 0.9333 0.2088
vt 0.6293 0.3853
vt 0.6324 0.3845
vt 0.8853 0.3119
vt 0.8853 0.0869
vt 0.7481 0.4551
vt 0.8026 0.095
vt 0.8268 0.1357
vt 0.8028 0.1354
vt 0.7788 0.175
vt 0.8026 0.1753
vt 0.8527 0.4141
vt 0.7501 0.3741
vt 0.7494 0.4143
vt 0.827 0.0953
vt 0.8275 0.0536
vt 0.8001 0.0067
vt 0.7777 0.3342
vt 0.7775 0.3743
vt 0.8528 0.2952
vt 0.8259 0.2554
vt 0.8531 0.2555
vt 0.8041 0.5033
vt 0.8325 0.4994
vt 0.6216 0.3817
vt 0.7442 0.4967
vt 0.7747 0.5025
vt 0.6673 0.0083
vt 0.7786 0.2148
vt 0.778 0.2944
vt 0.8016 0.3346
vt 0.1211 0.6374
vt 0.8542 0.1359
vt 0.7517 0.175
vt 0.7789 0.1351
vt 0.8853 0.2869
vt 0.5667 0.6333
vt 0.566 0.7148
vt 0.4965 0.5922
vt 0.7505 0.3342
vt 0.7499 0.0567
vt 0.7718 0.0106
vt 0.86 0.4919
vt 0.4251 0.7136
vt 0.5668 0.6336
vt 0.5773 0.6743
vt 0.5361 0.7441
vt 0.8544 0.4533
vt 0.4968 0.5922
vt 0.8256 0.2952
vt 0.4951 0.7546
vt 0.8018 0.2948
vt 0.5774 0.6741
vt 0.4145 0.6727
vt 0.4259 0.6321
vt 0.5359 0.7442
vt 0.7509 0.2943
vt 0.6288 0.3938
vt 0.645 0.0083
vt 0.8562 0.0549
vt 0.8548 0.0957
vt 0.8295 0.0075
vt 0.86 0.0132
vt 0.7515 0.0959
vt 0.9813 0.5472
vt 0.6089 0.4131
vt 0.9166 0.4459
vt 0.9235 0.4508
vt 0.9168 0.4459
vt 0.9146 0.4469
vt 0.9155 0.4445
vt 0.9123 0.4419
vt 0.9054 0.443
vt 0.9108 0.4378
vt 0.9135 0.4445
vt 0.9167 0.4478
vt 0.9166 0.4519
vt 0.9154 0.4493
vt 0.9181 0.456
vt 0.9165 0.4417
vt 0.9121 0.4479
vt 0.9125 0.4521
vt 0.9096 0.4491
vt 0.9197 0.4488
vt 0.9235 0.4428
vt 0.9236 0.4503
vt 0.9137 0.4492
vt 0.9134 0.4493
vt 0.9157 0.4492
vt 0.9168 0.4517
vt 0.9169 0.4477
vt 0.9187 0.456
vt 0.912 0.4461
vt 0.9092 0.4449
vt 0.9178 0.4378
vt 0.9152 0.4446
vt 0.9163 0.4418
vt 0.9054 0.451
vt 0.9193 0.4447
vt 0.9053 0.4509
vt 0.9143 0.4469
vt 0.918 0.4379
vt 0.9126 0.452
vt 0.9111 0.456
vt 0.9097 0.449
vt 0.9133 0.4446
vt 0.9109 0.4559
vt 0.7442 0.0181
vt 0.7518 0.1354
vt 0.9334 0.015
vt 0.9334 0.065
vt 0.9334 0.115
vt 0.9334 0.2088
vt 0.9254 0.1885
vt 0.9333 0.265
vt 0.9334 0.09
vt 0.9254 0.2634
vt 0.9333 0.2588
vt 0.9333 0.1838
vt 0.9334 0.0588
vt 0.9334 0.14
vt 0.9333 0.215
vt 0.9706 0.325
vt 0.0473 0.7136
vt 0.346 0.6374
vt 0.0484 0.1418
vt 0.4673 0.0083
vt 0.9334 0.0338
vt 0.8853 0.3119
vt 0.9334 0.1088
vt 0.9334 0.1338
vt 0.9334 0.04
vt 0.1297 0.2612
vt 0.6242 0.6388
vt 0.9333 0.29
vt 0.6292 0.6352
s 1
f 560/141 538/142 564/143
f 948/144 940/145 944/146
f 976/147 974/148 972/149
f 967/147 969/150 971/149
f 990/151 984/152 992/153
f 930/154 928/155 926/145
f 918/154 916/155 914/145
f 510/154 508/155 506/145
f 918/154 922/156 920/157
f 669/158 671/159 537/160
f 549/161 542/162 538/142
f 687/163 694/164 689/165
f 685/166 688/164 698/167
f 689/165 694/164 691/168
f 686/169 688/164 685/166
f 691/168 694/164 693/170
f 690/170 688/164 686/169
f 693/170 694/164 695/169
f 692/171 688/164 690/170
f 696/165 688/164 692/171
f 695/169 694/164 697/172
f 697/172 694/164 687/167
f 698/163 688/164 696/165
f 725/173 699/174 700/175
f 701/176 726/177 702/178
f 726/177 700/175 702/178
f 787/179 806/180 784/176
f 722/181 705/182 703/183
f 198/184 1012/185 196/186
f 706/187 724/188 704/189
f 602/190 612/191 613/192
f 707/193 716/194 709/195
f 709/195 716/194 712/196
f 715/197 717/198 713/199
f 714/200 718/201 711/202
f 715/197 718/201 720/203
f 806/180 819/204 821/205
f 789/187 800/198 803/203
f 710/206 717/198 708/207
f 713/199 717/198 710/206
f 719/208 727/209 718/201
f 720/203 727/209 729/210
f 730/211 719/208 722/181
f 766/212 764/213 763/214
f 726/177 739/215 725/173
f 820/216 804/217 822/215
f 818/218 807/188 816/219
f 751/220 739/221 738/222
f 752/223 751/220 754/224
f 284/225 277/226 276/227
f 811/228 823/229 810/230
f 519/231 506/232 507/233
f 729/234 740/235 741/236
f 1020/237 213/238 1017/239
f 730/240 742/241 728/242
f 1017/239 211/243 1014/244
f 731/245 741/236 744/246
f 246/247 257/248 245/249
f 618/250 637/251 640/252
f 626/253 663/254 630/255
f 604/256 658/257 659/258
f 825/259 836/260 824/261
f 239/262 226/263 227/264
f 745/265 755/266 753/267
f 753/267 755/266 746/268
f 754/269 756/270 747/271
f 754/269 748/272 756/270
f 384/273 273/274 280/275
f 704/276 699/277 703/278
f 279/279 286/280 287/281
f 797/200 799/194 802/208
f 715/282 714/283 711/284
f 790/285 797/283 788/286
f 709/287 712/288 707/285
f 798/282 791/289 789/290
f 710/291 708/289 713/292
f 752/223 737/293 739/221
f 808/173 782/174 783/175
f 784/176 809/177 785/178
f 809/177 783/175 785/178
f 721/217 703/183 699/174
f 805/181 788/182 786/183
f 704/189 723/180 701/176
f 789/187 807/188 787/179
f 705/182 716/194 707/193
f 790/193 799/194 792/195
f 792/195 799/194 795/196
f 798/197 800/198 796/199
f 797/200 801/294 794/202
f 798/197 801/294 803/203
f 714/200 716/194 719/208
f 788/182 799/194 790/193
f 793/206 800/198 791/207
f 796/199 800/198 793/206
f 802/208 810/295 801/294
f 803/203 810/295 812/210
f 813/211 802/208 805/181
f 720/203 731/296 724/188
f 809/177 822/215 808/173
f 726/177 723/180 738/297
f 595/298 664/299 605/300
f 608/301 651/302 652/303
f 835/304 834/305 837/306
f 540/255 678/307 679/253
f 804/217 786/183 782/174
f 827/308 816/309 814/310
f 812/311 823/229 824/261
f 276/227 364/312 268/313
f 813/314 825/259 811/315
f 261/316 248/317 249/318
f 814/310 824/261 827/308
f 747/319 732/320 734/321
f 374/322 280/275 371/323
f 672/302 683/324 684/325
f 534/252 675/326 676/250
f 856/327 860/328 857/329
f 521/248 508/330 509/249
f 828/265 838/266 836/267
f 836/267 838/266 829/268
f 837/269 839/270 830/271
f 837/269 831/272 839/270
f 839/270 828/265 830/271
f 787/331 782/277 786/332
f 704/276 705/286 706/290
f 715/282 705/286 714/283
f 798/282 797/283 794/284
f 715/282 708/289 706/290
f 792/287 795/288 790/285
f 817/333 805/181 820/216
f 793/291 791/289 796/292
f 748/334 736/335 735/336
f 878/337 883/338 879/339
f 803/203 814/296 807/188
f 1003/151 997/152 1005/153
f 899/340 895/338 891/339
f 984/152 995/150 994/341
f 994/341 993/149 984/152
f 993/149 992/153 984/152
f 992/153 991/342 990/151
f 990/151 989/343 988/344
f 988/344 987/345 986/346
f 986/346 985/147 988/344
f 985/147 984/152 988/344
f 704/189 724/188 723/180
f 960/154 949/347 950/155
f 950/155 951/348 952/145
f 952/145 953/349 954/350
f 954/350 955/351 952/145
f 955/351 956/156 952/145
f 956/156 957/352 958/353
f 958/353 959/354 956/156
f 959/354 960/154 956/156
f 798/197 803/203 800/198
f 972/149 983/153 982/342
f 982/342 981/151 980/343
f 980/343 979/344 976/147
f 979/344 978/345 976/147
f 978/345 977/346 976/147
f 976/147 975/152 974/148
f 974/148 973/355 972/149
f 960/154 952/145 956/156
f 714/200 712/196 716/194
f 971/149 996/153 961/342
f 961/342 962/151 963/343
f 963/343 964/344 965/345
f 965/345 966/346 967/147
f 967/147 968/152 969/150
f 969/150 970/355 971/149
f 982/342 976/147 972/149
f 788/182 802/208 799/194
f 963/343 965/345 967/147
f 948/144 937/347 938/155
f 938/155 939/348 940/145
f 940/145 941/356 942/350
f 942/350 943/351 940/145
f 943/351 944/146 940/145
f 944/146 945/357 946/353
f 946/353 947/354 944/146
f 947/354 948/144 944/146
f 705/182 719/208 716/194
f 926/145 925/349 936/350
f 936/350 935/351 934/156
f 934/156 933/352 932/353
f 932/353 931/354 930/154
f 930/154 929/347 928/155
f 928/155 927/348 926/145
f 926/145 936/350 934/156
f 961/342 967/147 971/149
f 813/211 811/358 802/208
f 914/145 913/349 924/350
f 924/350 923/351 922/156
f 922/156 921/357 920/157
f 920/157 919/354 918/154
f 918/154 917/347 916/155
f 916/155 915/348 914/145
f 914/145 924/350 922/156
f 510/154 514/156 512/353
f 726/177 701/176 723/180
f 506/145 505/349 516/350
f 516/350 515/351 514/156
f 514/156 513/352 512/353
f 512/353 511/354 510/154
f 510/154 509/347 508/155
f 508/155 507/348 506/145
f 506/145 516/350 514/156
f 930/154 934/156 932/353
f 720/203 729/210 731/296
f 997/152 1008/148 1007/341
f 1007/341 1006/149 1005/153
f 1005/153 1004/342 1003/151
f 1003/151 1002/343 1001/344
f 1001/344 1000/345 999/346
f 999/346 998/147 1001/344
f 998/147 997/152 1001/344
f 997/152 1007/341 1005/153
f 595/298 668/359 664/299
f 537/160 649/360 650/361
f 650/361 660/362 537/160
f 660/362 661/363 537/160
f 661/363 662/364 664/299
f 664/299 668/359 669/158
f 669/158 670/365 671/159
f 671/159 530/366 537/160
f 911/367 907/368 903/369
f 804/217 805/181 786/183
f 538/142 570/370 564/143
f 564/143 563/371 560/141
f 560/141 559/372 553/373
f 553/373 552/374 549/161
f 549/161 548/375 542/162
f 542/162 541/376 538/142
f 875/354 870/349 874/352
f 721/217 722/181 703/183
f 560/141 553/373 549/161
f 809/177 806/180 821/205
f 725/173 721/217 699/174
f 726/177 725/173 700/175
f 206/377 1013/378 204/379
f 722/181 719/208 705/182
f 196/186 1009/380 194/381
f 706/187 720/203 724/188
f 338/382 339/383 331/384
f 602/190 601/385 612/191
f 714/200 719/208 718/201
f 715/197 711/202 718/201
f 198/184 1015/386 1012/185
f 1019/387 207/388 205/389
f 719/208 728/358 727/209
f 720/203 718/201 727/209
f 279/279 278/390 286/280
f 384/273 383/391 273/274
f 726/177 738/297 739/215
f 216/392 1017/239 214/393
f 990/151 988/344 984/152
f 735/218 724/188 733/219
f 875/354 866/347 870/349
f 732/394 730/211 722/181
f 737/216 721/217 739/215
f 560/141 549/161 538/142
f 918/154 914/145 922/156
f 724/188 731/296 733/219
f 911/367 909/395 907/368
f 582/396 559/372 560/141
f 751/220 749/397 754/224
f 749/397 748/398 754/224
f 754/224 747/399 750/400
f 750/400 752/223 754/224
f 847/401 850/402 851/403
f 202/404 1018/405 200/406
f 512/317 524/407 523/408
f 210/409 1019/387 208/410
f 600/411 601/385 590/412
f 730/240 743/413 742/241
f 785/414 783/415 782/277
f 731/245 729/416 741/236
f 633/417 644/418 645/419
f 498/420 499/421 457/422
f 544/423 555/424 556/425
f 552/374 553/373 585/426
f 746/427 744/246 753/428
f 463/429 480/430 479/431
f 741/236 740/235 742/241
f 742/241 743/413 753/428
f 743/413 745/432 753/428
f 577/433 588/434 589/435
f 570/370 538/142 603/436
f 704/276 701/437 699/277
f 299/438 307/439 308/440
f 789/187 791/207 800/198
f 216/392 1020/237 1017/239
f 206/377 1016/441 1013/378
f 530/366 671/159 583/442
f 728/443 740/235 727/444
f 808/173 804/217 782/174
f 809/177 808/173 783/175
f 200/406 1015/386 198/184
f 805/181 802/208 788/182
f 208/410 1016/441 206/377
f 789/187 803/203 807/188
f 561/257 551/258 681/256
f 806/180 807/188 819/204
f 797/200 802/208 801/294
f 798/197 794/202 801/294
f 715/197 720/203 717/198
f 248/317 260/407 259/408
f 802/208 811/358 810/295
f 803/203 801/294 810/295
f 790/285 795/288 797/283
f 797/200 795/196 799/194
f 809/177 821/205 822/215
f 212/445 1011/446 210/409
f 948/144 938/155 940/145
f 734/447 722/181 737/216
f 809/177 784/176 806/180
f 815/394 813/211 805/181
f 723/180 736/448 738/297
f 214/393 1014/244 212/449
f 787/179 807/188 806/180
f 807/188 814/296 816/219
f 930/154 926/145 934/156
f 510/247 522/450 521/248
f 834/305 832/451 837/306
f 832/451 831/452 837/306
f 837/306 830/453 833/454
f 833/454 835/304 837/306
f 232/455 231/456 219/457
f 194/381 1020/237 216/392
f 541/376 542/162 596/458
f 204/379 1010/459 202/404
f 409/422 451/460 452/461
f 813/314 826/462 825/259
f 592/463 593/464 548/375
f 814/310 812/465 824/261
f 560/141 563/371 575/466
f 656/467 657/468 646/469
f 632/470 631/471 642/472
f 572/473 537/160 530/366
f 829/474 827/308 836/260
f 827/308 824/261 836/260
f 824/261 823/229 825/259
f 425/475 424/476 417/477
f 826/462 828/478 836/260
f 575/466 563/371 564/143
f 596/458 542/162 548/375
f 787/331 784/437 782/277
f 706/187 708/207 717/198
f 730/211 728/358 719/208
f 196/186 1012/185 1009/380
f 725/173 739/215 721/217
f 377/479 376/480 369/481
f 874/352 876/353 875/354
f 875/354 865/154 866/347
f 866/347 867/155 870/349
f 867/155 868/348 870/349
f 868/348 869/145 870/349
f 870/349 871/350 872/351
f 872/351 873/156 870/349
f 873/156 874/352 870/349
f 752/223 750/482 737/293
f 879/339 877/483 878/337
f 878/337 888/367 887/340
f 887/340 886/395 883/338
f 886/395 885/484 883/338
f 885/484 884/368 883/338
f 883/338 882/485 881/486
f 881/486 880/369 883/338
f 880/369 879/339 883/338
f 798/282 796/292 791/289
f 891/339 889/483 890/337
f 890/337 900/367 891/339
f 900/367 899/340 891/339
f 899/340 898/395 897/484
f 897/484 896/368 895/338
f 895/338 894/485 891/339
f 894/485 893/486 891/339
f 893/486 892/369 891/339
f 608/301 614/325 651/302
f 903/369 901/339 902/483
f 902/483 912/337 903/369
f 912/337 911/367 903/369
f 911/367 910/340 909/395
f 909/395 908/484 907/368
f 907/368 906/338 905/485
f 905/485 904/486 907/368
f 904/486 903/369 907/368
f 540/255 539/487 678/307
f 253/488 252/489 241/490
f 833/491 817/492 820/493
f 381/494 267/495 269/496
f 525/316 512/317 513/318
f 378/497 368/498 265/499
f 745/500 730/240 732/320
f 256/501 243/233 244/330
f 297/502 363/503 359/504
f 259/408 246/247 247/505
f 614/325 648/506 651/302
f 1014/507 209/508 1011/446
f 550/254 679/253 680/509
f 391/510 405/511 404/512
f 240/513 227/264 228/514
f 533/515 674/516 675/326
f 744/246 733/517 731/245
f 1011/446 207/388 1019/387
f 838/266 831/272 829/268
f 230/518 217/519 218/520
f 562/521 682/522 683/324
f 1010/459 199/523 1018/405
f 527/524 514/525 515/526
f 1013/378 201/527 1010/459
f 702/414 699/277 701/437
f 312/528 351/529 344/530
f 233/531 220/532 221/503
f 526/533 513/318 514/534
f 238/535 225/530 226/536
f 835/304 820/493 822/537
f 625/307 630/255 636/487
f 231/456 218/520 219/457
f 523/408 510/247 511/505
f 517/488 516/489 505/490
f 535/251 676/250 677/538
f 531/539 673/540 674/516
f 229/541 228/514 217/519
f 234/502 221/503 222/504
f 287/281 294/542 295/543
f 308/440 301/544 300/545
f 282/546 291/547 283/548
f 348/549 341/550 340/551
f 332/552 341/553 333/554
f 829/555 818/556 816/309
f 282/546 275/557 274/558
f 264/559 251/526 252/489
f 357/560 350/561 349/562
f 283/548 276/227 275/557
f 348/549 357/560 349/562
f 1009/380 215/563 1020/237
f 314/564 322/565 315/566
f 339/383 332/552 331/384
f 298/567 291/547 290/568
f 356/569 270/570 357/560
f 294/542 301/544 302/571
f 551/258 680/509 681/256
f 463/429 502/572 467/573
f 285/574 294/542 286/280
f 362/575 355/576 354/577
f 262/533 249/318 250/534
f 319/578 325/579 326/580
f 292/581 285/574 284/225
f 324/582 333/554 325/579
f 330/583 323/584 322/565
f 223/585 234/502 222/504
f 329/586 322/565 321/587
f 300/545 293/588 292/581
f 333/554 342/589 334/590
f 315/566 323/584 316/591
f 309/592 318/593 310/594
f 373/595 371/323 372/596
f 270/570 279/279 271/597
f 518/598 505/490 506/232
f 362/575 274/558 275/557
f 539/487 677/538 678/307
f 357/560 271/597 358/599
f 1018/405 197/600 1015/386
f 345/601 338/602 337/603
f 338/602 347/604 339/605
f 318/593 324/582 325/579
f 302/571 311/606 303/607
f 268/313 356/569 355/576
f 346/608 353/609 354/577
f 299/438 308/440 300/545
f 706/187 717/198 720/203
f 281/518 360/519 367/520
f 331/384 324/582 323/584
f 314/564 307/439 306/610
f 291/547 284/225 283/548
f 277/226 270/570 364/312
f 1016/441 203/611 1013/378
f 349/562 342/612 341/550
f 308/440 315/566 316/591
f 285/574 278/390 277/226
f 289/455 366/457 365/532
f 302/571 295/543 294/542
f 830/613 815/614 817/492
f 354/577 361/615 362/575
f 347/604 354/577 355/576
f 309/592 302/571 301/544
f 305/616 352/585 351/529
f 325/579 334/590 326/580
f 467/573 480/430 463/429
f 298/567 307/439 299/438
f 362/575 276/227 268/313
f 335/514 320/262 336/264
f 310/594 319/578 311/606
f 355/576 348/549 347/604
f 329/586 338/382 330/583
f 338/382 331/384 330/583
f 561/257 681/256 682/617
f 248/317 259/408 247/505
f 1019/387 205/389 1016/441
f 254/598 241/490 242/232
f 834/305 822/537 821/618
f 323/584 317/619 316/591
f 382/620 269/496 272/621
f 263/524 250/525 251/526
f 616/516 641/622 647/539
f 380/623 266/624 267/495
f 746/625 735/336 733/517
f 360/519 328/513 335/514
f 500/626 488/627 501/628
f 456/629 433/630 435/631
f 416/632 451/421 409/422
f 493/633 461/634 460/635
f 400/636 386/637 406/638
f 403/639 391/640 404/641
f 397/642 394/643 398/644
f 494/645 491/646 495/647
f 464/632 497/648 498/649
f 443/650 448/651 447/652
f 280/275 406/638 371/323
f 437/653 451/421 450/420
f 453/654 441/655 445/656
f 265/499 404/641 266/624
f 273/274 400/657 280/275
f 408/658 388/659 401/660
f 406/661 372/596 371/323
f 418/662 449/663 417/664
f 416/632 449/648 450/649
f 404/512 267/495 266/624
f 269/496 398/644 272/621
f 405/665 269/496 267/495
f 273/274 398/666 399/667
f 415/429 454/668 419/573
f 461/634 479/431 478/669
f 423/670 420/671 418/662
f 473/475 465/477 464/632
f 410/672 428/673 427/674
f 466/662 469/675 468/671
f 589/435 579/676 578/677
f 464/632 474/678 473/475
f 425/475 417/477 416/632
f 463/429 479/431 462/679
f 420/671 422/680 419/573
f 476/673 458/672 459/681
f 413/634 429/682 412/635
f 407/683 370/684 372/596
f 454/685 420/671 419/573
f 502/686 481/687 503/688
f 489/689 494/690 493/633
f 466/662 497/691 465/664
f 411/681 445/656 412/635
f 445/633 442/692 446/690
f 503/693 483/631 504/694
f 455/695 434/696 433/687
f 392/697 397/698 405/665
f 462/679 496/651 463/429
f 442/699 447/647 446/645
f 707/285 714/283 705/286
f 456/700 436/701 449/663
f 445/633 413/634 412/635
f 491/650 496/651 495/652
f 468/671 502/686 503/688
f 402/702 390/703 403/704
f 485/653 499/421 498/420
f 368/498 401/705 402/706
f 460/635 501/654 493/656
f 420/671 456/629 418/662
f 408/658 369/707 370/684
f 461/634 495/647 462/679
f 469/675 467/573 468/671
f 417/664 423/670 418/662
f 461/634 477/682 460/635
f 419/573 432/708 415/429
f 432/708 414/679 415/429
f 410/672 426/678 409/422
f 458/672 474/678 457/422
f 465/664 471/670 466/662
f 460/635 476/673 459/681
f 412/635 428/673 411/681
f 416/632 426/678 425/475
f 431/431 413/634 414/679
f 483/709 497/691 504/710
f 492/711 502/572 496/712
f 388/713 402/706 401/705
f 414/679 446/645 447/647
f 452/626 440/627 453/628
f 466/662 503/693 504/694
f 499/460 487/714 500/461
f 501/654 489/655 493/656
f 438/715 452/461 451/460
f 497/648 485/716 498/649
f 452/626 411/681 410/672
f 386/717 407/718 406/661
f 394/719 399/667 398/666
f 500/626 459/681 458/672
f 407/683 387/720 408/721
f 265/499 402/702 403/704
f 449/648 437/716 450/649
f 409/422 452/461 410/672
f 414/679 448/651 415/429
f 448/712 434/722 454/668
f 498/420 457/422 464/632
f 499/460 458/672 457/422
f 400/657 395/723 396/724
f 756/270 745/265 747/271
f 320/262 343/263 336/264
f 619/538 636/487 637/251
f 236/616 223/585 224/529
f 832/725 821/618 819/726
f 313/535 344/530 343/536
f 347/604 340/551 339/605
f 383/391 272/621 273/274
f 376/727 370/684 369/707
f 785/414 782/277 784/437
f 379/728 265/499 266/624
f 232/455 219/457 220/532
f 576/729 588/434 577/433
f 787/331 788/286 789/290
f 545/730 667/731 666/732
f 654/733 666/732 655/734
f 590/412 602/190 591/735
f 598/736 588/434 587/737
f 546/738 556/425 557/739
f 644/418 656/467 645/419
f 555/424 567/740 556/425
f 598/736 610/741 599/742
f 624/743 634/744 635/745
f 567/746 579/676 568/747
f 508/330 519/231 507/233
f 296/531 365/532 363/503
f 610/741 600/411 599/742
f 243/233 254/598 242/232
f 749/748 738/222 736/335
f 565/749 577/433 566/750
f 656/467 646/469 645/419
f 1012/185 193/751 1009/380
f 510/247 521/248 509/249
f 567/740 557/739 556/425
f 643/752 633/417 632/470
f 512/317 523/408 511/505
f 377/479 369/481 368/498
f 621/753 611/754 610/741
f 641/622 618/250 640/252
f 304/755 359/504 352/585
f 657/468 667/731 536/756
f 653/757 665/758 654/733
f 750/482 734/321 737/293
f 375/759 372/596 370/684
f 600/411 590/412 589/435
f 582/396 553/373 559/372
f 571/760 564/143 570/370
f 665/758 545/730 666/732
f 628/761 661/363 660/362
f 603/436 541/376 597/762
f 609/763 621/753 610/741
f 554/764 566/765 555/424
f 579/676 569/766 568/747
f 544/423 554/764 555/424
f 592/463 552/374 586/767
f 669/158 661/363 664/299
f 600/411 612/191 601/385
f 570/370 603/436 571/760
f 650/361 639/768 638/769
f 544/423 556/425 545/730
f 582/396 560/141 581/770
f 560/141 575/466 581/770
f 628/761 650/361 638/769
f 592/463 548/375 549/161
f 580/771 590/412 591/735
f 642/472 654/733 643/752
f 572/473 530/366 573/772
f 541/376 596/458 597/762
f 611/754 623/773 612/191
f 552/374 585/426 586/767
f 664/299 606/774 605/300
f 577/433 589/435 578/677
f 621/753 633/417 622/775
f 575/466 564/143 574/776
f 596/458 548/375 593/464
f 634/744 646/469 635/745
f 623/773 613/192 612/191
f 670/365 594/777 584/778
f 606/774 661/363 627/779
f 633/417 645/419 634/744
f 530/366 583/442 573/772
f 583/442 670/365 584/778
f 639/768 537/160 572/473
f 594/777 668/359 595/298
f 588/434 600/411 589/435
f 632/470 642/472 643/752
f 620/780 632/470 621/753
f 257/248 244/330 245/249
f 831/781 819/726 818/556
f 633/417 623/773 622/775
f 528/559 515/526 516/489
f 741/236 753/428 744/246
f 225/530 236/616 224/529
f 755/266 748/272 746/268
f 644/418 654/733 655/734
f 529/506 684/325 673/540
f 1015/386 195/782 1012/185
f 546/738 558/783 547/784
f 558/783 568/785 569/786
f 316/591 309/592 308/440
f 665/758 543/787 544/423
f 607/522 652/303 658/788
f 288/456 367/520 366/457
f 666/732 656/467 655/734
f 629/509 659/258 663/254
f 828/789 813/314 815/614
f 577/433 567/746 566/750
f 667/731 547/784 536/756
f 847/401 849/790 850/402
f 847/401 851/403 848/791
f 779/792 778/793 757/794
f 761/795 765/796 762/797
f 757/794 778/793 760/798
f 846/799 844/800 843/801
f 844/800 848/791 845/802
f 760/798 778/793 763/214
f 757/794 761/795 758/803
f 291/547 300/545 292/581
f 763/214 778/793 766/212
f 862/804 841/805 863/806
f 776/807 781/808 777/809
f 766/212 778/793 769/810
f 840/811 844/800 841/805
f 769/810 778/793 772/812
f 773/813 775/814 776/807
f 773/813 777/809 774/815
f 858/816 863/806 859/817
f 854/818 856/327 857/329
f 772/812 778/793 775/814
f 850/402 852/819 853/820
f 859/817 864/821 860/328
f 775/814 778/793 779/792
f 779/792 758/803 780/822
f 764/213 768/823 765/796
f 862/804 861/824 840/811
f 759/825 761/795 762/797
f 840/811 861/824 843/801
f 761/795 763/214 764/213
f 768/823 770/826 771/827
f 843/801 861/824 846/799
f 798/282 788/286 797/283
f 841/805 864/821 863/806
f 846/799 861/824 849/790
f 852/819 856/327 853/820
f 781/808 758/803 759/825
f 849/790 861/824 852/819
f 769/810 767/828 766/212
f 852/819 861/824 855/829
f 858/816 856/327 855/829
f 842/830 844/800 845/802
f 769/810 773/813 770/826
f 773/813 771/827 770/826
f 855/829 861/824 858/816
f 775/814 780/822 776/807
f 853/820 851/403 850/402
f 858/816 861/824 862/804
f 594/777 669/158 668/359
f 414/679 447/652 448/651
f 257/248 256/501 244/330
f 313/535 312/528 344/530
f 288/456 281/518 367/520
f 499/460 500/461 458/672
f 757/794 760/798 761/795
f 619/538 625/307 636/487
f 750/482 747/319 734/321
f 376/727 375/759 370/684
f 375/759 373/595 372/596
f 644/418 643/752 654/733
f 829/555 831/781 818/556
f 628/761 627/779 661/363
f 508/330 520/501 519/231
f 664/299 662/364 606/774
f 236/616 235/755 223/585
f 634/744 645/419 646/469
f 665/758 544/423 545/730
f 571/760 574/776 564/143
f 347/604 348/549 340/551
f 592/463 549/161 552/374
f 666/732 667/731 656/467
f 583/442 671/159 670/365
f 609/763 620/780 621/753
f 623/773 624/743 613/192
f 667/731 546/738 547/784
f 554/764 565/831 566/765
f 628/761 660/362 650/361
f 606/774 662/364 661/363
f 639/768 649/360 537/160
f 624/743 623/773 634/744
f 654/733 665/758 666/732
f 653/757 532/832 665/758
f 844/800 847/401 848/791
f 629/509 604/256 659/258
f 669/158 537/160 661/363
f 315/566 322/565 323/584
f 449/648 436/833 437/716
f 292/581 293/588 285/574
f 403/639 390/834 391/640
f 453/654 440/835 441/655
f 576/729 587/737 588/434
f 346/608 345/601 353/609
f 847/401 846/799 849/790
f 268/313 364/312 356/569
f 746/625 748/334 735/336
f 380/623 379/728 266/624
f 529/506 672/302 684/325
f 333/554 341/553 342/589
f 500/626 501/628 459/681
f 319/578 318/593 325/579
f 464/632 465/477 497/648
f 280/275 400/636 406/638
f 304/755 297/502 359/504
f 262/533 261/316 249/318
f 443/650 444/836 448/651
f 273/274 399/837 400/657
f 590/412 601/385 602/190
f 518/598 517/488 505/490
f 407/683 385/838 387/720
f 382/620 381/494 269/496
f 834/305 835/304 822/537
f 603/436 538/142 541/376
f 338/602 346/608 347/604
f 265/499 368/498 402/702
f 357/560 270/570 271/597
f 416/632 450/420 451/421
f 493/633 494/690 461/634
f 528/559 527/524 515/526
f 309/592 317/619 318/593
f 558/783 557/739 568/785
f 324/582 332/552 333/554
f 546/738 545/730 556/425
f 270/570 278/390 279/279
f 831/781 832/725 819/726
f 300/545 301/544 293/588
f 500/626 487/839 488/627
f 456/629 455/840 433/630
f 318/593 317/619 324/582
f 386/717 385/841 407/718
f 345/601 346/608 338/602
f 323/584 324/582 317/619
f 254/598 253/488 241/490
f 644/418 655/734 656/467
f 394/719 395/842 399/667
f 330/583 331/384 323/584
f 437/653 438/843 451/421
f 397/642 393/844 394/643
f 400/657 399/837 395/723
f 539/487 535/251 677/538
f 400/636 396/845 386/637
f 360/519 327/541 328/513
f 756/270 755/266 745/265
f 362/575 361/615 274/558
f 567/740 568/785 557/739
f 329/586 330/583 322/565
f 616/516 617/846 641/622
f 263/524 262/847 250/525
f 320/262 313/848 343/263
f 302/571 310/594 311/606
f 497/648 484/833 485/716
f 1018/405 199/523 197/600
f 265/499 403/639 404/641
f 787/331 786/332 788/286
f 373/595 374/322 371/323
f 452/626 453/628 411/681
f 223/585 235/755 234/502
f 494/645 490/699 491/646
f 243/233 255/231 254/598
f 600/411 611/754 612/191
f 291/547 299/438 300/545
f 579/676 580/771 569/766
f 620/780 631/471 632/470
f 633/417 634/744 623/773
f 749/748 751/220 738/222
f 828/789 826/462 813/314
f 607/522 608/301 652/303
f 565/749 576/729 577/433
f 761/795 764/213 765/796
f 555/424 566/765 567/740
f 283/548 284/225 276/227
f 339/383 340/849 332/552
f 348/549 349/562 341/550
f 1009/380 193/751 215/563
f 381/494 380/623 267/495
f 332/552 340/849 341/553
f 282/546 283/548 275/557
f 294/542 293/588 301/544
f 833/491 830/613 817/492
f 194/381 1009/380 1020/237
f 838/266 839/270 831/272
f 287/281 286/280 294/542
f 723/180 724/188 736/448
f 1011/446 209/508 207/388
f 200/406 1018/405 1015/386
f 230/518 229/541 217/519
f 533/515 531/539 674/516
f 240/513 239/262 227/264
f 728/443 742/241 740/235
f 744/246 746/625 733/517
f 1010/459 201/527 199/523
f 808/173 822/215 804/217
f 562/521 561/788 682/522
f 1014/507 211/850 209/508
f 388/713 389/851 402/706
f 461/634 478/669 477/682
f 416/632 409/422 426/678
f 458/672 475/674 474/678
f 501/654 488/835 489/655
f 420/671 455/840 456/629
f 410/672 427/674 426/678
f 431/431 430/669 413/634
f 466/662 468/671 503/693
f 408/658 401/660 369/707
f 417/664 424/852 423/670
f 414/679 413/634 446/645
f 214/393 1017/239 1014/244
f 463/429 496/712 502/572
f 517/488 528/559 516/489
f 734/447 732/394 722/181
f 378/497 377/479 368/498
f 231/456 230/518 218/520
f 550/254 540/255 679/253
f 234/502 233/531 221/503
f 745/500 743/413 730/240
f 314/564 321/587 322/565
f 259/408 258/450 246/247
f 391/510 392/853 405/511
f 735/218 736/448 724/188
f 614/325 615/540 648/506
f 282/546 290/568 291/547
f 526/533 525/316 513/318
f 702/414 700/415 699/277
f 551/258 550/254 680/509
f 625/307 626/253 630/255
f 527/524 526/847 514/525
f 210/409 1011/446 1019/387
f 737/216 722/181 721/217
f 308/440 309/592 301/544
f 212/445 1014/507 1011/446
f 460/635 477/682 476/673
f 452/626 439/839 440/627
f 412/635 429/682 428/673
f 461/634 494/645 495/647
f 419/573 422/680 432/708
f 465/664 472/852 471/670
f 469/675 470/680 467/573
f 492/711 482/722 502/572
f 432/708 431/431 414/679
f 438/715 439/714 452/461
f 499/460 486/715 487/714
f 483/709 484/701 497/691
f 233/531 232/455 220/532
f 531/539 529/506 673/540
f 298/567 299/438 291/547
f 238/535 237/528 225/530
f 523/408 522/450 510/247
f 357/560 358/599 350/561
f 356/569 364/312 270/570
f 835/304 833/491 820/493
f 535/251 534/252 676/250
f 229/541 240/513 228/514
f 312/528 305/616 351/529
f 525/316 524/407 512/317
f 264/559 263/524 251/526
f 362/575 268/313 355/576
f 204/379 1013/378 1010/459
f 208/410 1019/387 1016/441
f 285/574 293/588 294/542
f 1013/378 203/611 201/527
f 202/404 1010/459 1018/405
f 256/501 255/231 243/233
f 253/488 264/559 252/489
f 297/502 296/531 363/503
f 348/549 356/569 357/560
f 621/753 632/470 633/417
f 741/236 742/241 753/428
f 546/738 557/739 558/783
f 832/725 834/305 821/618
f 580/771 579/676 590/412
f 545/730 546/738 667/731
f 643/752 644/418 633/417
f 577/433 578/677 567/746
f 598/736 609/763 610/741
f 621/753 622/775 611/754
f 544/423 543/787 554/764
f 296/531 289/455 365/532
f 291/547 292/581 284/225
f 281/518 327/541 360/519
f 462/679 495/652 496/651
f 392/697 393/854 397/698
f 362/575 275/557 276/227
f 347/604 346/608 354/577
f 407/683 408/721 370/684
f 413/634 430/669 429/682
f 411/681 453/654 445/656
f 305/616 304/755 352/585
f 830/613 828/789 815/614
f 466/662 504/710 497/691
f 641/622 617/846 618/250
f 598/736 599/742 588/434
f 489/689 490/692 494/690
f 567/746 578/677 579/676
f 379/728 378/497 265/499
f 355/576 356/569 348/549
f 310/594 318/593 319/578
f 588/434 599/742 600/411
f 642/472 653/757 654/733
f 445/633 441/689 442/692
f 402/702 389/855 390/703
f 610/741 611/754 600/411
f 862/804 840/811 841/805
f 460/635 459/681 501/654
f 755/266 756/270 748/272
f 657/468 656/467 667/731
f 1016/441 205/389 203/611
f 314/564 315/566 307/439
f 582/396 585/426 553/373
f 846/799 847/401 844/800
f 707/285 712/288 714/283
f 510/154 506/145 514/156
f 817/333 815/394 805/181
f 442/699 443/646 447/647
f 747/319 745/500 732/320
f 704/276 703/278 705/286
f 298/567 306/610 307/439
f 354/577 353/609 361/615
f 329/586 337/856 338/382
f 309/592 310/594 302/571
f 899/340 897/484 895/338
f 827/308 829/555 816/309
f 502/686 482/696 481/687
f 534/252 533/515 675/326
f 715/282 706/290 705/286
f 454/685 455/695 420/671
f 982/342 980/343 976/147
f 261/316 260/407 248/317
f 748/334 749/748 736/335
f 803/203 812/210 814/296
f 349/562 350/561 342/612
f 467/573 470/680 480/430
f 878/337 887/340 883/338
f 839/270 838/266 828/265
f 368/498 369/481 401/705
f 276/227 277/226 364/312
f 961/342 963/343 967/147
f 485/653 486/843 499/421
f 491/650 492/836 496/651
f 521/248 520/501 508/330
f 672/302 562/521 683/324
f 302/571 303/607 295/543
f 308/440 307/439 315/566
f 1003/151 1001/344 997/152
f 960/154 950/155 952/145
f 445/633 446/690 413/634
f 715/282 713/292 708/289
f 374/322 384/273 280/275
f 856/327 859/817 860/328
f 812/311 810/857 823/229
f 456/700 435/709 436/701
f 289/455 288/456 366/457
f 285/574 286/280 278/390
f 670/365 669/158 594/777
f 611/754 622/775 623/773
f 468/671 467/573 502/686
f 225/530 237/528 236/616
f 420/671 421/675 422/680
f 383/391 382/620 272/621
f 650/361 649/360 639/768
f 476/673 475/674 458/672
f 776/807 780/822 781/808
f 448/712 444/711 434/722
f 335/514 328/513 320/262
f 325/579 333/554 334/590
f 316/591 317/619 309/592
f 331/384 332/552 324/582
f 840/811 843/801 844/800
f 1015/386 197/600 195/782
f 455/695 454/685 434/696
f 665/758 532/832 543/787
f 1012/185 195/782 193/751
f 503/693 481/630 483/631
f 277/226 278/390 270/570
f 604/256 607/617 658/257
f 416/632 417/477 449/648
f 423/670 421/675 420/671
f 820/216 805/181 804/217
f 461/634 462/679 479/431
f 818/218 819/204 807/188
f 408/658 387/858 388/659
f 239/262 238/848 226/263
f 273/274 272/621 398/666
f 284/225 285/574 277/226
f 1017/239 213/238 211/243
f 589/435 590/412 579/676
f 1020/237 215/563 213/238
f 466/662 471/670 469/675
f 519/231 518/598 506/232
f 405/665 397/698 269/496
f 825/259 826/462 836/260
f 406/661 407/718 372/596
f 473/475 472/476 465/477
f 751/220 752/223 739/221
f 415/429 448/712 454/668
f 766/212 767/828 764/213
f 418/662 456/700 449/663
f 626/253 629/509 663/254
f 404/512 405/511 267/495
f 811/228 825/259 823/229
f 618/250 619/538 637/251
f 410/672 411/681 428/673
f 246/247 258/450 257/248
f 464/632 457/422 474/678
f 729/234 727/859 740/235
f 269/496 397/642 398/644
f 615/540 647/539 648/506
f 773/813 772/812 775/814
f 773/813 776/807 777/809
f 858/816 862/804 863/806
f 854/818 853/820 856/327
f 850/402 849/790 852/819
f 859/817 863/806 864/821
f 779/792 757/794 758/803
f 764/213 767/828 768/823
f 759/825 758/803 761/795
f 761/795 760/798 763/214
f 768/823 767/828 770/826
f 798/282 789/290 788/286
f 841/805 842/830 864/821
f 852/819 855/829 856/327
f 781/808 780/822 758/803
f 769/810 770/826 767/828
f 858/816 859/817 856/327
f 842/830 841/805 844/800
f 769/810 772/812 773/813
f 773/813 774/815 771/827
f 775/814 779/792 780/822
f 853/820 854/818 851/403
f 615/540 616/516 647/539
