o Blade
v 0 2 -10.75
v 0 2 -9.25
v 0 7 -10.5625
v 0 7 -9.4375
v 0 11 -10.6328
v 0 11 -9.3672
v 0 15 -10
v 0.125 11 -10
v 0.125 7 -10
v 0.125 2 -10
v -0.125 11 -10
v -0.125 7 -10
v -0.125 2 -10
v 0 4.5 -10.6562
v 0 4.5 -9.3438
v 0.125 9 -10
v 0 9 -9.4023
v -0.125 9 -10
v 0 9 -10.5977
v -0.0625 13 -10
v 0 13 -10.3164
v 0 13 -9.6836
v 0.0625 13 -10
v -0.125 4.5 -10
v 0.125 4.5 -10
v 0 3.25 -10.7031
v 0 5.75 -10.6094
v 0 5.75 -9.3906
v 0 3.25 -9.2969
v 0 8 -9.4199
v 0.125 10 -10
v 0 8 -10.5801
v 0.125 8 -10
v 0 10 -9.3848
v -0.125 10 -10
v -0.0312 14 -10
v -0.125 8 -10
v 0 10 -10.6152
v 0 12 -10.4746
v -0.0938 12 -10
v 0 14 -10.1582
v 0 14 -9.8418
v 0.0938 12 -10
v -0.125 3.25 -10
v 0.125 3.25 -10
v 0 12 -9.5254
v 0.0312 14 -10
v -0.125 5.75 -10
v 0.125 5.75 -10
s 1
f 32 18 19
f 48 3 27
f 26 10 1
f 29 13 2
f 34 8 6
f 49 4 28
f 38 8 31
f 34 11 35
f 39 11 40
f 11 46 40
f 42 47 7
f 8 39 43
f 23 41 47
f 43 22 46
f 41 20 36
f 20 42 36
f 32 16 33
f 30 18 37
f 45 15 29
f 30 16 17
f 38 11 5
f 28 24 15
f 27 25 14
f 44 14 26
f 13 26 1
f 3 49 27
f 4 48 28
f 19 35 38
f 4 33 30
f 10 29 2
f 4 37 12
f 3 33 9
f 7 36 42
f 7 41 36
f 8 46 6
f 7 47 41
f 43 21 23
f 23 42 22
f 40 22 20
f 21 40 20
f 17 35 18
f 19 31 16
f 25 28 15
f 17 31 34
f 15 44 29
f 14 45 26
f 24 27 14
f 3 37 32
f 32 37 18
f 48 12 3
f 26 45 10
f 29 44 13
f 34 31 8
f 49 9 4
f 38 5 8
f 34 6 11
f 39 5 11
f 11 6 46
f 8 5 39
f 23 21 41
f 43 23 22
f 41 21 20
f 20 22 42
f 32 19 16
f 30 17 18
f 45 25 15
f 30 33 16
f 38 35 11
f 28 48 24
f 27 49 25
f 44 24 14
f 13 44 26
f 3 9 49
f 4 12 48
f 19 18 35
f 4 9 33
f 10 45 29
f 4 30 37
f 3 32 33
f 8 43 46
f 43 39 21
f 23 47 42
f 40 46 22
f 21 39 40
f 17 34 35
f 19 38 31
f 25 49 28
f 17 16 31
f 15 24 44
f 14 25 45
f 24 48 27
f 3 12 37
o Spear
v 0 -0 -0.5
v 0 1 -0.375
v 0.1913 -0 -0.4619
v 0.1435 1 -0.3465
v 0.3536 -0 -0.3536
v 0.2652 1 -0.2652
v 0.4619 -0 -0.1913
v 0.3465 1 -0.1435
v 0.5 0 0
v 0.375 1 -0
v 0.4619 0 0.1913
v 0.3465 1 0.1435
v 0.3536 0 0.3536
v 0.2652 1 0.2652
v 0.1913 0 0.4619
v 0.1435 1 0.3465
v 0 0 0.5
v 0 1 0.375
v -0.1913 0 0.4619
v -0.1435 1 0.3465
v -0.3536 0 0.3536
v -0.2652 1 0.2652
v -0.4619 0 0.1913
v -0.3465 1 0.1435
v -0.5 0 0
v -0.375 1 -0
v -0.4619 -0 -0.1913
v -0.3465 1 -0.1435
v -0.3536 -0 -0.3536
v -0.2652 1 -0.2652
v -0.1913 -0 -0.4619
v -0.1435 1 -0.3465
v 0 1 -0.25
v 0.0957 1 -0.231
v 0.1768 1 -0.1768
v 0.231 1 -0.0957
v 0.25 1 -0
v 0.231 1 0.0957
v 0.1768 1 0.1768
v 0.0957 1 0.231
v 0 1 0.25
v -0.0957 1 0.231
v -0.1768 1 0.1768
v -0.231 1 0.0957
v -0.25 1 -0
v -0.231 1 -0.0957
v -0.1768 1 -0.1768
v -0.0957 1 -0.231
v 0 4 -0.125
v 0.0478 4 -0.1155
v 0.0884 4 -0.0884
v 0.1155 4 -0.0478
v 0.125 4 -0
v 0.1155 4 0.0478
v 0.0884 4 0.0884
v 0.0478 4 0.1155
v 0 4 0.125
v -0.0478 4 0.1155
v -0.0884 4 0.0884
v -0.1155 4 0.0478
v -0.125 4 -0
v -0.1155 4 -0.0478
v -0.0884 4 -0.0884
v -0.0478 4 -0.1155
v -0.125 2 -1
v -0.125 2 1
v -0.125 1 -0.5
v -0.125 1 0.5
v -0.125 1.75 -1
v -0.125 1.75 1
v -0.125 1.5 -0.75
v -0.125 1.5 0.75
v 0.125 2 -1
v 0.125 2 1
v 0.125 1 -0.5
v 0.125 1 0.5
v 0.125 1.75 -1
v 0.125 1.75 1
v 0.125 1.5 -0.75
v 0.125 1.5 0.75
v 0 7 -0.7031
v 0 7 0.7031
v 0 11 -0.7119
v 0 11 0.7119
v 0.1875 11 -0
v 0.1875 7 -0
v -0.1875 11 -0
v -0.1875 7 -0
v 0.1875 9.2929 -0
v 0 9.597 -0.7602
v -0.1875 9.2929 -0
v 0 9.597 0.7602
v -0.1875 4.7071 -0
v 0.1875 4.7071 -0
v 0 4.3767 0.8261
v 0 4.3767 -0.8261
v 0 10.5 0.702
v -0.1875 10.5 -0
v 0.1875 10.5 -0
v 0 10.5 -0.702
v 0.1805 11.15 -0
v 0 11.15 -0.6852
v -0.1805 11.15 -0
v 0 11.15 0.6852
v 0 10.25 0.6971
v -0.1875 10.25 -0
v 0.1875 10.9 -0
v 0 10.9 -0.7099
v 0.1875 10.25 -0
v 0 10.25 -0.6971
v 0 10.9 0.7099
v -0.1875 10.9 -0
v 0.15 11.8 -0
v 0 11.8 -0.5695
v -0.1617 11.55 -0
v 0 11.55 0.614
v 0.1617 11.55 -0
v 0 11.55 -0.614
v -0.15 11.8 -0
v 0 11.8 0.5695
v -0.1435 -0 -0.3465
v -0.2652 -0 -0.2652
v -0.3465 -0 -0.1435
v -0.375 0 0
v -0.3465 0 0.1435
v -0.2652 0 0.2652
v -0.1435 0 0.3465
v 0 0 0.375
v 0 2 -0.75
v 0 2 0.75
v 0 15 -0
v 0.125 2 -0
v -0.125 2 -0
v -0.125 9.2929 -0
v 0 9.5357 -0.6071
v 0.125 9.2929 -0
v 0 9.5357 0.6071
v 0.125 4.7071 -0
v -0.125 4.7071 -0
v 0 4.4438 0.6584
v 0 4.4438 -0.6584
v 0.1435 0 0.3465
v 0.2652 0 0.2652
v 0.3465 0 0.1435
v 0.375 0 0
v 0.3465 -0 -0.1435
v 0.2652 -0 -0.2652
v 0.1435 -0 -0.3465
v 0 -0 -0.375
v -0.0508 3.2 -0.4
v 0.0508 3.2 -0.4
v -0.0521 3 -0.4
v 0.0521 3 -0.4
v 0.125 2.6 -0
v 0.0546 2.6 0.4
v -0.0546 2.6 0.4
v -0.125 2.6 -0
v -0.0546 2.6 -0.4
v 0.0546 2.6 -0.4
v -0.0533 2.8 -0.4
v 0.0533 2.8 -0.4
v 0.0533 2.8 0.4
v -0.0533 2.8 0.4
v -0.125 2.8 -0
v 0.0521 3 0.4
v -0.0521 3 0.4
v 0.0508 3.2 0.4
v -0.0508 3.2 0.4
v -0.125 3 -0
v 0.125 2.8 -0
v -0.125 3.2 -0
v 0.125 3.2 -0
v 0.125 3 -0
v 0.375 -25 0
v 0.3465 -25 0.1435
v 0.2652 -25 0.2652
v 0.1435 -25 0.3465
v -0.1435 -25 -0.3465
v 0 -25 -0.375
v -0.2652 -25 -0.2652
v -0.3465 -25 -0.1435
v -0.375 -25 0
v -0.3465 -25 0.1435
v -0.2652 -25 0.2652
v -0.1435 -25 0.3465
v 0 -25 0.375
v 0.2652 -25 -0.2652
v 0.3465 -25 -0.1435
v 0.1435 -25 -0.3465
v 0 11 -0.6328
v 0 11 0.6328
v 0.125 11 -0
v -0.125 11 -0
v 0 -0 -0.5
v 0 1 -0.375
v 0.1913 -0 -0.4619
v 0.1435 1 -0.3465
v 0.3536 -0 -0.3536
v 0.2652 1 -0.2652
v 0.4619 -0 -0.1913
v 0.3465 1 -0.1435
v 0.5 0 0
v 0.375 1 -0
v 0.4619 0 0.1913
v 0.3465 1 0.1435
v 0.3536 0 0.3536
v 0.2652 1 0.2652
v 0.1913 0 0.4619
v 0.1435 1 0.3465
v 0 0 0.5
v 0 1 0.375
v -0.1913 0 0.4619
v -0.1435 1 0.3465
v -0.3536 0 0.3536
v -0.2652 1 0.2652
v -0.4619 0 0.1913
v -0.3465 1 0.1435
v -0.5 0 0
v -0.375 1 -0
v -0.4619 -0 -0.1913
v -0.3465 1 -0.1435
v -0.3536 -0 -0.3536
v -0.2652 1 -0.2652
v -0.1913 -0 -0.4619
v -0.1435 1 -0.3465
v 0.375 -25 0
v 0.3465 -25 0.1435
v 0.2652 -25 0.2652
v 0.1435 -25 0.3465
v -0.1435 -25 -0.3465
v 0 -25 -0.375
v -0.2652 -25 -0.2652
v -0.3465 -25 -0.1435
v -0.375 -25 0
v -0.3465 -25 0.1435
v -0.2652 -25 0.2652
v -0.1435 -25 0.3465
v 0 -25 0.375
v 0.2652 -25 -0.2652
v 0.3465 -25 -0.1435
v 0.1435 -25 -0.3465
v -0.125 1.5 -0
v 0.125 1.5 -0
v 0.125 2 -0
v 0.1875 8.1464 -0
v 0 8.2985 0.7317
v -0.1875 8.1464 -0
v 0 8.2985 -0.7317
v 0.1875 5.8536 -0
v 0 5.6883 0.7646
v 0 5.6883 -0.7646
v -0.1875 5.8536 -0
v 0.0625 13 -0
v 0 13 0.3164
v -0.0625 13 -0
v 0 13 -0.3164
v -0.125 10.1464 -0
v 0.125 10.1464 -0
v -0.125 2 -0
v -0.125 3.9536 -0
v 0 3.2219 -0.7042
v 0 3.2219 0.7042
v 0.125 3.9536 -0
v 0.2652 -12.5 0.2652
v -0.1732 2.5 -0.0718
v 0.1326 2.5 0.1326
v -0.1326 2.5 -0.1326
v 0.0718 2.5 0.1732
v -0.0718 2.5 -0.1732
v 0 2.5 0.1875
v 0.0718 2.5 -0.1732
v 0 2.5 -0.1875
v -0.0718 2.5 0.1732
v 0.1326 2.5 -0.1326
v -0.1326 2.5 0.1326
v 0.1732 2.5 -0.0718
v -0.1732 2.5 0.0718
v 0.1875 2.5 -0
v -0.1875 2.5 -0
v 0.1732 2.5 0.0718
v 0 -12.5 0.375
v 0.3465 -12.5 0.1435
v 0.375 -12.5 0
v -0.1435 -12.5 0.3465
v -0.2652 -12.5 0.2652
v 0.3465 -12.5 -0.1435
v -0.3465 -12.5 -0.1435
v 0.2652 -12.5 -0.2652
v -0.3465 -12.5 0.1435
v 0.1435 -12.5 0.3465
v -0.375 -12.5 0
v 0 -12.5 -0.375
v -0.2652 -12.5 -0.2652
v -0.1435 -12.5 -0.3465
v 0.1435 -12.5 -0.3465
v 0 14 0.1582
v -0.0312 14 -0
v 0 14 -0.1582
v 0.2021 1.75 -0.0837
v 0.3465 -6.25 0.1435
v 0.2021 1.75 0.0837
v 0.2188 1.75 -0
v -0.2188 1.75 -0
v -0.2021 1.75 0.0837
v 0 -6.25 0.375
v -0.1547 1.75 0.1547
v 0.0312 14 -0
v 0.0938 12 -0
v 0 12 0.4746
v -0.0938 12 -0
v 0 12 -0.4746
v 0 1.75 -0.2188
v 0.0837 1.75 0.2021
v -0.0837 1.75 -0.2021
v -0.0837 1.75 0.2021
v 0.1547 1.75 0.1547
v -0.2021 1.75 -0.0837
v 0.2652 -6.25 0.2652
v 0.0837 1.75 -0.2021
v -0.1547 1.75 -0.1547
v 0 1.75 0.2188
v 0.1547 1.75 -0.1547
v 0.3465 -6.25 -0.1435
v 0.375 -6.25 0
v 0.1435 -6.25 -0.3465
v -0.1435 -6.25 -0.3465
v -0.1435 -6.25 0.3465
v -0.2652 -6.25 0.2652
v -0.2652 -6.25 -0.2652
v 0 -6.25 -0.375
v -0.3465 -6.25 0.1435
v -0.375 -6.25 0
v 0.1435 -6.25 0.3465
v 0.2652 -6.25 -0.2652
v -0.3465 -6.25 -0.1435
v 0.2652 -18.75 0.2652
v -0.1444 3.25 -0.0598
v 0.1105 3.25 0.1105
v -0.1105 3.25 -0.1105
v 0.0598 3.25 0.1444
v -0.0598 3.25 -0.1444
v 0 3.25 0.1562
v 0.0598 3.25 -0.1444
v 0 3.25 -0.1562
v -0.0598 3.25 0.1444
v 0.1105 3.25 -0.1105
v -0.1105 3.25 0.1105
v 0.1444 3.25 -0.0598
v -0.1444 3.25 0.0598
v 0.1563 3.25 -0
v -0.1562 3.25 -0
v 0.1444 3.25 0.0598
v 0 -18.75 0.375
v 0.3465 -18.75 0.1435
v 0.375 -18.75 0
v -0.1435 -18.75 0.3465
v -0.2652 -18.75 0.2652
v 0.3465 -18.75 -0.1435
v -0.3465 -18.75 -0.1435
v 0.2652 -18.75 -0.2652
v -0.3465 -18.75 0.1435
v 0.1435 -18.75 0.3465
v -0.375 -18.75 0
v 0 -18.75 -0.375
v -0.2652 -18.75 -0.2652
v -0.1435 -18.75 -0.3465
v 0.1435 -18.75 -0.3465
v 0.3465 -9.375 0.1435
v 0 -9.375 0.375
v 0.2652 -9.375 0.2652
v 0.3465 -9.375 -0.1435
v 0.375 -9.375 0
v 0.1435 -9.375 -0.3465
v -0.1435 -9.375 -0.3465
v -0.1435 -9.375 0.3465
v -0.2652 -9.375 0.2652
v -0.2652 -9.375 -0.2652
v 0 -9.375 -0.375
v -0.3465 -9.375 0.1435
v -0.375 -9.375 0
v 0.1435 -9.375 0.3465
v 0.2652 -9.375 -0.2652
v -0.3465 -9.375 -0.1435
v 0.2652 -21.875 0.2652
v 0 -21.875 0.375
v 0.3465 -3.125 0.1435
v 0.3465 -21.875 0.1435
v 0.375 -21.875 0
v 0 -3.125 0.375
v -0.1435 -21.875 0.3465
v -0.2652 -21.875 0.2652
v 0.3465 -21.875 -0.1435
v -0.3465 -21.875 -0.1435
v 0.2652 -21.875 -0.2652
v -0.3465 -21.875 0.1435
v 0.1435 -21.875 0.3465
v -0.375 -21.875 0
v 0 -21.875 -0.375
v -0.2652 -21.875 -0.2652
v -0.1435 -21.875 -0.3465
v 0.1435 -21.875 -0.3465
v 0.2652 -3.125 0.2652
v 0.3465 -3.125 -0.1435
v 0.375 -3.125 0
v 0.1435 -3.125 -0.3465
v -0.1435 -3.125 -0.3465
v -0.1435 -3.125 0.3465
v -0.2652 -3.125 0.2652
v -0.2652 -3.125 -0.2652
v 0 -3.125 -0.375
v -0.3465 -3.125 0.1435
v -0.375 -3.125 0
v 0.1435 -3.125 0.3465
v 0.2652 -3.125 -0.2652
v -0.3465 -3.125 -0.1435
v 0.2652 -15.625 0.2652
v 0 -15.625 0.375
v 0.3465 -15.625 0.1435
v 0.375 -15.625 0
v -0.1435 -15.625 0.3465
v -0.2652 -15.625 0.2652
v 0.3465 -15.625 -0.1435
v -0.3465 -15.625 -0.1435
v 0.2652 -15.625 -0.2652
v -0.3465 -15.625 0.1435
v 0.1435 -15.625 0.3465
v -0.375 -15.625 0
v 0 -15.625 -0.375
v -0.2652 -15.625 -0.2652
v -0.1435 -15.625 -0.3465
v 0.1435 -15.625 -0.3465
v 0.3465 -10.9375 0.1435
v 0 -10.9375 0.375
v 0.2652 -10.9375 0.2652
v 0.3465 -10.9375 -0.1435
v 0.375 -10.9375 0
v 0.1435 -10.9375 -0.3465
v -0.1435 -10.9375 -0.3465
v -0.1435 -10.9375 0.3465
v -0.2652 -10.9375 0.2652
v -0.2652 -10.9375 -0.2652
v 0 -10.9375 -0.375
v -0.3465 -10.9375 0.1435
v -0.375 -10.9375 0
v 0.1435 -10.9375 0.3465
v 0.2652 -10.9375 -0.2652
v -0.3465 -10.9375 -0.1435
v 0.2652 -23.4375 0.2652
v 0 -23.4375 0.375
v 0.3465 -4.6875 0.1435
v 0.3465 -23.4375 0.1435
v 0.375 -23.4375 0
v 0 -4.6875 0.375
v -0.1435 -23.4375 0.3465
v -0.2652 -23.4375 0.2652
v 0.3465 -23.4375 -0.1435
v -0.3465 -23.4375 -0.1435
v 0.2652 -23.4375 -0.2652
v -0.3465 -23.4375 0.1435
v 0.1435 -23.4375 0.3465
v -0.375 -23.4375 0
v 0 -23.4375 -0.375
v -0.2652 -23.4375 -0.2652
v -0.1435 -23.4375 -0.3465
v 0.1435 -23.4375 -0.3465
v 0.2652 -4.6875 0.2652
v 0.3465 -4.6875 -0.1435
v 0.375 -4.6875 0
v 0.1435 -4.6875 -0.3465
v -0.1435 -4.6875 -0.3465
v -0.1435 -4.6875 0.3465
v -0.2652 -4.6875 0.2652
v -0.2652 -4.6875 -0.2652
v 0 -4.6875 -0.375
v -0.3465 -4.6875 0.1435
v -0.375 -4.6875 0
v 0.1435 -4.6875 0.3465
v 0.2652 -4.6875 -0.2652
v -0.3465 -4.6875 -0.1435
v 0.2652 -17.1875 0.2652
v 0 -17.1875 0.375
v 0.3465 -17.1875 0.1435
v 0.375 -17.1875 0
v -0.1435 -17.1875 0.3465
v -0.2652 -17.1875 0.2652
v 0.3465 -17.1875 -0.1435
v -0.3465 -17.1875 -0.1435
v 0.2652 -17.1875 -0.2652
v -0.3465 -17.1875 0.1435
v 0.1435 -17.1875 0.3465
v -0.375 -17.1875 0
v 0 -17.1875 -0.375
v -0.2652 -17.1875 -0.2652
v -0.1435 -17.1875 -0.3465
v 0.1435 -17.1875 -0.3465
v 0.3465 -7.8125 0.1435
v 0 -7.8125 0.375
v 0.2652 -7.8125 0.2652
v 0.3465 -7.8125 -0.1435
v 0.375 -7.8125 0
v 0.1435 -7.8125 -0.3465
v -0.1435 -7.8125 -0.3465
v -0.1435 -7.8125 0.3465
v -0.2652 -7.8125 0.2652
v -0.2652 -7.8125 -0.2652
v 0 -7.8125 -0.375
v -0.3465 -7.8125 0.1435
v -0.375 -7.8125 0
v 0.1435 -7.8125 0.3465
v 0.2652 -7.8125 -0.2652
v -0.3465 -7.8125 -0.1435
v 0.2652 -20.3125 0.2652
v 0 -20.3125 0.375
v 0.3465 -1.5625 0.1435
v 0.3465 -20.3125 0.1435
v 0.375 -20.3125 0
v 0 -1.5625 0.375
v -0.1435 -20.3125 0.3465
v -0.2652 -20.3125 0.2652
v 0.3465 -20.3125 -0.1435
v -0.3465 -20.3125 -0.1435
v 0.2652 -20.3125 -0.2652
v -0.3465 -20.3125 0.1435
v 0.1435 -20.3125 0.3465
v -0.375 -20.3125 0
v 0 -20.3125 -0.375
v -0.2652 -20.3125 -0.2652
v -0.1435 -20.3125 -0.3465
v 0.1435 -20.3125 -0.3465
v 0.2652 -1.5625 0.2652
v 0.3465 -1.5625 -0.1435
v 0.375 -1.5625 0
v 0.1435 -1.5625 -0.3465
v -0.1435 -1.5625 -0.3465
v -0.1435 -1.5625 0.3465
v -0.2652 -1.5625 0.2652
v -0.2652 -1.5625 -0.2652
v 0 -1.5625 -0.375
v -0.3465 -1.5625 0.1435
v -0.375 -1.5625 0
v 0.1435 -1.5625 0.3465
v 0.2652 -1.5625 -0.2652
v -0.3465 -1.5625 -0.1435
v 0.2652 -14.0625 0.2652
v 0 -14.0625 0.375
v 0.3465 -14.0625 0.1435
v 0.375 -14.0625 0
v -0.1435 -14.0625 0.3465
v -0.2652 -14.0625 0.2652
v 0.3465 -14.0625 -0.1435
v -0.3465 -14.0625 -0.1435
v 0.2652 -14.0625 -0.2652
v -0.3465 -14.0625 0.1435
v 0.1435 -14.0625 0.3465
v -0.375 -14.0625 0
v 0 -14.0625 -0.375
v -0.2652 -14.0625 -0.2652
v -0.1435 -14.0625 -0.3465
v 0.1435 -14.0625 -0.3465
v 0.3465 -11.7188 0.1435
v 0 -11.7188 0.375
v 0.2652 -11.7188 0.2652
v 0.3465 -11.7188 -0.1435
v 0.375 -11.7188 0
v 0.1435 -11.7188 -0.3465
v -0.1435 -11.7188 -0.3465
v -0.1435 -11.7188 0.3465
v -0.2652 -11.7188 0.2652
v -0.2652 -11.7188 -0.2652
v 0 -11.7188 -0.375
v -0.3465 -11.7188 0.1435
v -0.375 -11.7188 0
v 0.1435 -11.7188 0.3465
v 0.2652 -11.7188 -0.2652
v -0.3465 -11.7188 -0.1435
v 0.2652 -24.2188 0.2652
v 0 -24.2188 0.375
v 0.3465 -5.4688 0.1435
v 0.3465 -24.2188 0.1435
v 0.375 -24.2188 0
v 0 -5.4688 0.375
v -0.1435 -24.2188 0.3465
v -0.2652 -24.2188 0.2652
v 0.3465 -24.2188 -0.1435
v -0.3465 -24.2188 -0.1435
v 0.2652 -24.2188 -0.2652
v -0.3465 -24.2188 0.1435
v 0.1435 -24.2188 0.3465
v -0.375 -24.2188 0
v 0 -24.2188 -0.375
v -0.2652 -24.2188 -0.2652
v -0.1435 -24.2188 -0.3465
v 0.1435 -24.2188 -0.3465
v 0.2652 -5.4688 0.2652
v 0.3465 -5.4688 -0.1435
v 0.375 -5.4688 0
v 0.1435 -5.4688 -0.3465
v -0.1435 -5.4688 -0.3465
v -0.1435 -5.4688 0.3465
v -0.2652 -5.4688 0.2652
v -0.2652 -5.4688 -0.2652
v 0 -5.4688 -0.375
v -0.3465 -5.4688 0.1435
v -0.375 -5.4688 0
v 0.1435 -5.4688 0.3465
v 0.2652 -5.4688 -0.2652
v -0.3465 -5.4688 -0.1435
v 0.2652 -17.9688 0.2652
v 0 -17.9688 0.375
v 0.3465 -17.9688 0.1435
v 0.375 -17.9688 0
v -0.1435 -17.9688 0.3465
v -0.2652 -17.9688 0.2652
v 0.3465 -17.9688 -0.1435
v -0.3465 -17.9688 -0.1435
v 0.2652 -17.9688 -0.2652
v -0.3465 -17.9688 0.1435
v 0.1435 -17.9688 0.3465
v -0.375 -17.9688 0
v 0 -17.9688 -0.375
v -0.2652 -17.9688 -0.2652
v -0.1435 -17.9688 -0.3465
v 0.1435 -17.9688 -0.3465
v 0.3465 -8.5938 0.1435
v 0 -8.5938 0.375
v 0.2652 -8.5938 0.2652
v 0.3465 -8.5938 -0.1435
v 0.375 -8.5938 0
v 0.1435 -8.5938 -0.3465
v -0.1435 -8.5938 -0.3465
v -0.1435 -8.5938 0.3465
v -0.2652 -8.5938 0.2652
v -0.2652 -8.5938 -0.2652
v 0 -8.5938 -0.375
v -0.3465 -8.5938 0.1435
v -0.375 -8.5938 0
v 0.1435 -8.5938 0.3465
v 0.2652 -8.5938 -0.2652
v -0.3465 -8.5938 -0.1435
v 0.2652 -21.0938 0.2652
v 0 -21.0938 0.375
v 0.3465 -2.3438 0.1435
v 0.3465 -21.0938 0.1435
v 0.375 -21.0938 0
v 0 -2.3438 0.375
v -0.1435 -21.0938 0.3465
v -0.2652 -21.0938 0.2652
v 0.3465 -21.0938 -0.1435
v -0.3465 -21.0938 -0.1435
v 0.2652 -21.0938 -0.2652
v -0.3465 -21.0938 0.1435
v 0.1435 -21.0938 0.3465
v -0.375 -21.0938 0
v 0 -21.0938 -0.375
v -0.2652 -21.0938 -0.2652
v -0.1435 -21.0938 -0.3465
v 0.1435 -21.0938 -0.3465
v 0.2652 -2.3438 0.2652
v 0.3465 -2.3438 -0.1435
v 0.375 -2.3438 0
v 0.1435 -2.3438 -0.3465
v -0.1435 -2.3438 -0.3465
v -0.1435 -2.3438 0.3465
v -0.2652 -2.3438 0.2652
v -0.2652 -2.3438 -0.2652
v 0 -2.3438 -0.375
v -0.3465 -2.3438 0.1435
v -0.375 -2.3438 0
v 0.1435 -2.3438 0.3465
v 0.2652 -2.3438 -0.2652
v -0.3465 -2.3438 -0.1435
v 0.2652 -14.8438 0.2652
v 0 -14.8438 0.375
v 0.3465 -14.8438 0.1435
v 0.375 -14.8438 0
v -0.1435 -14.8438 0.3465
v -0.2652 -14.8438 0.2652
v 0.3465 -14.8438 -0.1435
v -0.3465 -14.8438 -0.1435
v 0.2652 -14.8438 -0.2652
v -0.3465 -14.8438 0.1435
v 0.1435 -14.8438 0.3465
v -0.375 -14.8438 0
v 0 -14.8438 -0.375
v -0.2652 -14.8438 -0.2652
v -0.1435 -14.8438 -0.3465
v 0.1435 -14.8438 -0.3465
v 0.3465 -10.1562 0.1435
v 0 -10.1562 0.375
v 0.2652 -10.1562 0.2652
v 0.3465 -10.1562 -0.1435
v 0.375 -10.1562 0
v 0.1435 -10.1562 -0.3465
v -0.1435 -10.1562 -0.3465
v -0.1435 -10.1562 0.3465
v -0.2652 -10.1562 0.2652
v -0.2652 -10.1562 -0.2652
v 0 -10.1562 -0.375
v -0.3465 -10.1562 0.1435
v -0.375 -10.1562 0
v 0.1435 -10.1562 0.3465
v 0.2652 -10.1562 -0.2652
v -0.3465 -10.1562 -0.1435
v 0.2652 -22.6562 0.2652
v 0 -22.6562 0.375
v 0.3465 -3.9062 0.1435
v 0.3465 -22.6562 0.1435
v 0.375 -22.6562 0
v 0 -3.9062 0.375
v -0.1435 -22.6562 0.3465
v -0.2652 -22.6562 0.2652
v 0.3465 -22.6562 -0.1435
v -0.3465 -22.6562 -0.1435
v 0.2652 -22.6562 -0.2652
v -0.3465 -22.6562 0.1435
v 0.1435 -22.6562 0.3465
v -0.375 -22.6562 0
v 0 -22.6562 -0.375
v -0.2652 -22.6562 -0.2652
v -0.1435 -22.6562 -0.3465
v 0.1435 -22.6562 -0.3465
v 0.2652 -3.9062 0.2652
v 0.3465 -3.9062 -0.1435
v 0.375 -3.9062 0
v 0.1435 -3.9062 -0.3465
v -0.1435 -3.9062 -0.3465
v -0.1435 -3.9062 0.3465
v -0.2652 -3.9062 0.2652
v -0.2652 -3.9062 -0.2652
v 0 -3.9062 -0.375
v -0.3465 -3.9062 0.1435
v -0.375 -3.9062 0
v 0.1435 -3.9062 0.3465
v 0.2652 -3.9062 -0.2652
v -0.3465 -3.9062 -0.1435
v 0.2652 -16.4062 0.2652
v 0 -16.4062 0.375
v 0.3465 -16.4062 0.1435
v 0.375 -16.4062 0
v -0.1435 -16.4062 0.3465
v -0.2652 -16.4062 0.2652
v 0.3465 -16.4062 -0.1435
v -0.3465 -16.4062 -0.1435
v 0.2652 -16.4062 -0.2652
v -0.3465 -16.4062 0.1435
v 0.1435 -16.4062 0.3465
v -0.375 -16.4062 0
v 0 -16.4062 -0.375
v -0.2652 -16.4062 -0.2652
v -0.1435 -16.4062 -0.3465
v 0.1435 -16.4062 -0.3465
v 0.3465 -7.0312 0.1435
v 0 -7.0312 0.375
v 0.2652 -7.0312 0.2652
v 0.3465 -7.0312 -0.1435
v 0.375 -7.0312 0
v 0.1435 -7.0312 -0.3465
v -0.1435 -7.0312 -0.3465
v -0.1435 -7.0312 0.3465
v -0.2652 -7.0312 0.2652
v -0.2652 -7.0312 -0.2652
v 0 -7.0312 -0.375
v -0.3465 -7.0312 0.1435
v -0.375 -7.0312 0
v 0.1435 -7.0312 0.3465
v 0.2652 -7.0312 -0.2652
v -0.3465 -7.0312 -0.1435
v 0.2652 -19.5312 0.2652
v 0 -19.5312 0.375
v 0.3465 -0.7812 0.1435
v 0.3465 -19.5312 0.1435
v 0.375 -19.5312 0
v 0 -0.7812 0.375
v -0.1435 -19.5312 0.3465
v -0.2652 -19.5312 0.2652
v 0.3465 -19.5312 -0.1435
v -0.3465 -19.5312 -0.1435
v 0.2652 -19.5312 -0.2652
v -0.3465 -19.5312 0.1435
v 0.1435 -19.5312 0.3465
v -0.375 -19.5312 0
v 0 -19.5312 -0.375
v -0.2652 -19.5312 -0.2652
v -0.1435 -19.5312 -0.3465
v 0.1435 -19.5312 -0.3465
v 0.2652 -0.7812 0.2652
v 0.3465 -0.7812 -0.1435
v 0.375 -0.7812 0
v 0.1435 -0.7812 -0.3465
v -0.1435 -0.7812 -0.3465
v -0.1435 -0.7812 0.3465
v -0.2652 -0.7812 0.2652
v -0.2652 -0.7812 -0.2652
v 0 -0.7812 -0.375
v -0.3465 -0.7812 0.1435
v -0.375 -0.7812 0
v 0.1435 -0.7812 0.3465
v 0.2652 -0.7812 -0.2652
v -0.3465 -0.7812 -0.1435
v 0.2652 -13.2812 0.2652
v 0 -13.2812 0.375
v 0.3465 -13.2812 0.1435
v 0.375 -13.2812 0
v -0.1435 -13.2812 0.3465
v -0.2652 -13.2812 0.2652
v 0.3465 -13.2812 -0.1435
v -0.3465 -13.2812 -0.1435
v 0.2652 -13.2812 -0.2652
v -0.3465 -13.2812 0.1435
v 0.1435 -13.2812 0.3465
v -0.375 -13.2812 0
v 0 -13.2812 -0.375
v -0.2652 -13.2812 -0.2652
v -0.1435 -13.2812 -0.3465
v 0.1435 -13.2812 -0.3465
vt 0.3288 0.7113
vt 0.3327 0.6919
vt 0.3756 0.7206
vt 0.1741 0.5004
vt 0.1915 0.5317
vt 0.1741 0.5315
vt 0.5007 0.8262
vt 0.4491 0.8262
vt 0.4663 0.7918
vt 0.3904 0.8606
vt 0.4147 0.8778
vt 0.3904 0.8778
vt 0.1394 0.0019
vt 0.1568 0.0332
vt 0.1394 0.033
vt 0.341 0.5959
vt 0.3792 0.6531
vt 0.3315 0.6436
vt 0.3519 0.8606
vt 0.3519 0.8778
vt 0.122 0.0017
vt 0.122 0.0328
vt 0.4319 0.8778
vt 0.5007 0.8606
vt 0.5007 0.8778
vt 0.5351 0.7918
vt 0.4663 0.7746
vt 0.5351 0.7746
vt 0.4147 0.8606
vt 0.7687 0.4901
vt 0.8172 0.5539
vt 0.7669 0.5735
vt 0.8172 0.333
vt 0.7704 0.4067
vt 0.7666 0.3224
vt 0.8657 0.4901
vt 0.8172 0.4803
vt 0.3095 0.4693
vt 0.3583 0.4587
vt 0.3583 0.469
vt 0.3187 0.5505
vt 0.3592 0.5328
vt 0.3592 0.55
vt 0.857 0.5719
vt 0.8166 0.5579
vt 0.4079 0.5112
vt 0.3583 0.494
vt 0.4083 0.494
vt 0.3078 0.4521
vt 0.3077 0.459
vt 0.3086 0.5112
vt 0.3583 0.5112
vt 0.4088 0.4521
vt 0.3583 0.4518
vt 0.8157 0.0408
vt 0.7884 0.0818
vt 0.8157 0.0818
vt 0.7774 0.5719
vt 0.8178 0.5579
vt 0.8675 0.5735
vt 0.3583 0.494
vt 0.8178 0.5579
vt 0.3998 0.5505
vt 0.4029 0.5333
vt 0.407 0.4693
vt 0.4089 0.459
vt 0.359 0.0905
vt 0.3294 0.0267
vt 0.3424 0.0232
vt 0.8172 0.2594
vt 0.8601 0.24
vt 0.8716 0.2381
vt 0.6881 0.0775
vt 0.7156 0.0651
vt 0.7156 0.0726
vt 0.7742 0.24
vt 0.7628 0.2381
vt 0.8172 0.333
vt 0.8639 0.4067
vt 0.8172 0.4067
vt 0.8172 0.2594
vt 0.8601 0.24
vt 0.8639 0.4067
vt 0.7645 0.0408
vt 0.7884 0.0954
vt 0.7884 0.1091
vt 0.8431 0.0954
vt 0.8431 0.0818
vt 0.867 0.0408
vt 0.8431 0.1091
vt 0.8467 0.7745
vt 0.8142 0.7062
vt 0.8142 0.7745
vt 0.7818 0.7745
vt 0.8575 0.7062
vt 0.8142 0.6478
vt 0.771 0.7062
vt 0.8657 0.4901
vt 0.5768 0.0302
vt 0.5906 0.0373
vt 0.5768 0.0374
vt 0.578 0.0651
vt 0.5918 0.0726
vt 0.578 0.0726
vt 0.6468 0.0726
vt 0.6606 0.0651
vt 0.6606 0.0726
vt 0.6193 0.0603
vt 0.5918 0.0652
vt 0.6181 0.0252
vt 0.5906 0.0303
vt 0.407 0.3155
vt 0.4026 0.2645
vt 0.4069 0.2644
vt 0.6456 0.0303
vt 0.6181 0.0424
vt 0.6468 0.0652
vt 0.6193 0.0775
vt 0.3587 0.3524
vt 0.352 0.3773
vt 0.309 0.3524
vt 0.3587 0.3524
vt 0.352 0.3773
vt 0.3087 0.3524
vt 0.352 0.3773
vt 0.3586 0.3524
vt 0.4026 0.3773
vt 0.3585 0.3528
vt 0.3522 0.3769
vt 0.3097 0.3528
vt 0.3582 0.3541
vt 0.3525 0.3756
vt 0.3145 0.3541
vt 0.358 0.3549
vt 0.3527 0.3748
vt 0.3174 0.3549
vt 0.7727 0.6061
vt 0.8142 0.5895
vt 0.8157 0.1091
vt 0.3398 0.6848
vt 0.3491 0.681
vt 0.3592 0.681
vt 0.3685 0.6848
vt 0.3756 0.6919
vt 0.3795 0.7012
vt 0.3795 0.7113
vt 0.3685 0.7277
vt 0.3592 0.7316
vt 0.3491 0.7316
vt 0.3398 0.7277
vt 0.3327 0.7206
vt 0.3288 0.7012
vt 0.4491 0.9122
vt 0.4319 0.895
vt 0.2089 0.5008
vt 0.2263 0.5321
vt 0.2089 0.5319
vt 0.5695 0.8778
vt 0.5695 0.895
vt 0.5523 0.9122
vt 0.2437 0.5012
vt 0.2611 0.5325
vt 0.2437 0.5323
vt 0.4319 0.8606
vt 0.4319 0.8434
vt 0.5007 0.9122
vt 0.5523 0.8262
vt 0.5695 0.8434
vt 0.5695 0.8606
vt 0.2263 0.501
vt 0.0351 0.4988
vt 0.0525 0.5301
vt 0.0351 0.5299
vt 0.4537 0.1652
vt 0.4532 0.1138
vt 0.4597 0.1146
vt 0.8142 0.9796
vt 0.8142 0.9113
vt 0.8251 0.9113
vt 0.1568 0.7492
vt 0.1741 0.7806
vt 0.1568 0.7804
vt 0.0003 0.7474
vt 0.0177 0.7788
vt 0.0003 0.7786
vt 0.2437 0.7503
vt 0.2611 0.7816
vt 0.2437 0.7814
vt 0.0698 0.7482
vt 0.0872 0.7796
vt 0.0698 0.7794
vt 0.2089 0.7498
vt 0.2263 0.7812
vt 0.2089 0.781
vt 0.3776 0.1635
vt 0.3671 0.1132
vt 0.3737 0.1126
vt 0.3764 0.2148
vt 0.3659 0.1646
vt 0.3717 0.164
vt 0.412 0.2135
vt 0.4069 0.1624
vt 0.4127 0.1625
vt 0.3916 0.2138
vt 0.3834 0.1631
vt 0.3893 0.1628
vt 0.4362 0.1635
vt 0.4273 0.214
vt 0.4303 0.1631
vt 0.8142 0.8429
vt 0.1915 0.2516
vt 0.2089 0.2829
vt 0.1915 0.2827
vt 0.381 0.2656
vt 0.3713 0.2153
vt 0.0525 0.25
vt 0.0698 0.2813
vt 0.0525 0.2811
vt 0.4286 0.2653
vt 0.4324 0.2144
vt 0.2611 0.5014
vt 0.2784 0.5327
vt 0.8166 0.5579
vt 0.0872 0.2504
vt 0.1046 0.2817
vt 0.0872 0.2815
vt 0.3939 0.2647
vt 0.3865 0.214
vt 0.8678 0.3224
vt 0.2611 0.2524
vt 0.2784 0.2837
vt 0.2611 0.2835
vt 0.4069 0.2134
vt 0.8165 0.2554
vt 0.8678 0.3224
vt 0.8034 0.9113
vt 0.8178 0.2554
vt 0.0872 0.4994
vt 0.1046 0.5307
vt 0.0872 0.5305
vt 0.1915 0.5006
vt 0.0525 0.499
vt 0.0698 0.5303
vt 0.0698 0.4992
vt 0.3221 0.7725
vt 0.3727 0.7826
vt 0.3259 0.7919
vt 0.7676 0.1243
vt 0.7884 0.1228
vt 0.7707 0.2078
vt 0.4476 0.2159
vt 0.4478 0.1646
vt 0.8157 0.0954
vt 0.3803 0.1122
vt 0.8639 0.1243
vt 0.8431 0.1228
vt 0.8157 0.1743
vt 0.8157 0.2258
vt 0.8607 0.2078
vt 0.3814 0.2144
vt 0.4002 0.1114
vt 0.3951 0.1626
vt 0.3936 0.1116
vt 0.0003 0.4984
vt 0.0177 0.5297
vt 0.0003 0.5295
vt 0.5351 0.9466
vt 0.1568 0.5002
vt 0.1568 0.5313
vt 0.4222 0.2138
vt 0.4186 0.1626
vt 0.4245 0.1628
vt 0.6456 0.0373
vt 0.6594 0.0302
vt 0.6594 0.0374
vt 0.3539 0.1146
vt 0.3605 0.1138
vt 0.401 0.1625
vt 0.3967 0.2136
vt 0.0177 0.7476
vt 0.0351 0.779
vt 0.0177 0.4986
vt 0.3601 0.1652
vt 0.4171 0.2136
vt 0.387 0.1118
vt 0.4068 0.1114
vt 0.4135 0.1114
vt 0.4201 0.1116
vt 0.6869 0.0424
vt 0.7145 0.0302
vt 0.7145 0.0374
vt 0.4425 0.2153
vt 0.442 0.164
vt 0.4466 0.1132
vt 0.6869 0.0252
vt 0.1046 0.4996
vt 0.122 0.5309
vt 0.6881 0.0603
vt 0.4016 0.3773
vt 0.402 0.3773
vt 0.3081 0.3524
vt 0.4009 0.3769
vt 0.3962 0.3756
vt 0.3932 0.3748
vt 0.3689 0.7919
vt 0.3617 0.799
vt 0.3524 0.8028
vt 0.3424 0.8028
vt 0.3331 0.799
vt 0.3221 0.7826
vt 0.3259 0.7632
vt 0.3524 0.7522
vt 0.3331 0.7561
vt 0.3424 0.7522
vt 0.3617 0.7561
vt 0.3689 0.7632
vt 0.3727 0.7725
vt 0.3534 0.5907
vt 0.3668 0.5907
vt 0.3792 0.5959
vt 0.3887 0.6054
vt 0.3939 0.6178
vt 0.3939 0.6312
vt 0.3887 0.6436
vt 0.3668 0.6582
vt 0.3534 0.6582
vt 0.341 0.6531
vt 0.3264 0.6312
vt 0.3264 0.6178
vt 0.3315 0.6054
vt 0.4267 0.1118
vt 0.4189 0.0847
vt 0.4088 0.0151
vt 0.4223 0.0154
vt 0.3787 0.0866
vt 0.382 0.0164
vt 0.3887 0.0854
vt 0.3155 0.5333
vt 0.3988 0.0847
vt 0.4088 0.0844
vt 0.3555 0.0203
vt 0.3687 0.018
vt 0.4356 0.0164
vt 0.4289 0.0854
vt 0.3954 0.0154
vt 0.3688 0.0883
vt 0.3397 0.0962
vt 0.3041 0.0356
vt 0.3166 0.0308
vt 0.4489 0.0883
vt 0.4753 0.0232
vt 0.4587 0.0905
vt 0.4684 0.0931
vt 0.501 0.0308
vt 0.478 0.0962
vt 0.5136 0.0356
vt 0.4874 0.0998
vt 0.3493 0.0931
vt 0.4883 0.0267
vt 0.449 0.018
vt 0.4389 0.0866
vt 0.4622 0.0203
vt 0.1046 0.0015
vt 0.1046 0.0326
vt 0.4212 0.3159
vt 0.4199 0.2647
vt 0.4242 0.265
vt 0.4319 0.3168
vt 0.4329 0.2656
vt 0.4372 0.266
vt 0.3892 0.3161
vt 0.3853 0.2653
vt 0.4176 0.3157
vt 0.4156 0.2646
vt 0.4034 0.3155
vt 0.3983 0.2646
vt 0.4415 0.2665
vt 0.4248 0.3161
vt 0.3896 0.265
vt 0.3821 0.3168
vt 0.3724 0.2665
vt 0.3767 0.266
vt 0.4141 0.3156
vt 0.4113 0.2645
vt 0.3963 0.3157
vt 0.3927 0.3159
vt 0.4105 0.3155
vt 0.1915 0.0025
vt 0.2089 0.0339
vt 0.1915 0.0337
vt 0.0525 0.0009
vt 0.0698 0.0322
vt 0.0525 0.032
vt 0.0872 0.0013
vt 0.0872 0.0324
vt 0.6111 0.8606
vt 0.6495 0.8778
vt 0.6111 0.8778
vt 0.2611 0.0033
vt 0.2784 0.0347
vt 0.2611 0.0345
vt 0.0177 0.0005
vt 0.0351 0.0318
vt 0.0177 0.0316
vt 0.5867 0.8606
vt 0.5867 0.8778
vt 0.0698 0.0011
vt 0.0003 0.0003
vt 0.0003 0.0314
vt 0.1568 0.0021
vt 0.1741 0.0335
vt 0.2437 0.0031
vt 0.2437 0.0343
vt 0.0351 0.0007
vt 0.2263 0.0029
vt 0.2263 0.0341
vt 0.2089 0.0027
vt 0.0003 0.2493
vt 0.0177 0.2807
vt 0.0003 0.2805
vt 0.122 0.4998
vt 0.1394 0.5311
vt 0.1568 0.2512
vt 0.1741 0.2825
vt 0.1568 0.2823
vt 0.2437 0.2522
vt 0.2437 0.2833
vt 0.0351 0.2497
vt 0.0351 0.2809
vt 0.2263 0.252
vt 0.2263 0.2831
vt 0.0177 0.2495
vt 0.1394 0.749
vt 0.1394 0.7802
vt 0.2089 0.2518
vt 0.122 0.7488
vt 0.122 0.78
vt 0.1741 0.2514
vt 0.1394 0.5
vt 0.0698 0.2502
vt 0.0351 0.7478
vt 0.0525 0.7792
vt 0.4374 0.2148
vt 0.4018 0.2135
vt 0.44 0.1126
vt 0.3662 0.2159
vt 0.1046 0.7486
vt 0.1046 0.7798
vt 0.1046 0.2506
vt 0.122 0.2819
vt 0.4333 0.1122
vt 0.2263 0.75
vt 0.2611 0.7505
vt 0.2784 0.7818
vt 0.0872 0.7484
vt 0.0525 0.748
vt 0.1915 0.7496
vt 0.1915 0.7808
vt 0.7926 0.8429
vt 0.8359 0.8429
vt 0.1741 0.0023
vt 0.122 0.2508
vt 0.1394 0.2821
vt 0.1394 0.251
vt 0.1741 0.7494
vt 0.1741 0.874
vt 0.1915 0.9053
vt 0.1741 0.9051
vt 0.1394 0.3755
vt 0.1568 0.4068
vt 0.1394 0.4066
vt 0.122 0.3753
vt 0.122 0.4064
vt 0.1741 0.1268
vt 0.1915 0.1582
vt 0.1741 0.158
vt 0.1915 0.8742
vt 0.2089 0.9055
vt 0.0525 0.8726
vt 0.0698 0.9039
vt 0.0525 0.9037
vt 0.0872 0.873
vt 0.1046 0.9043
vt 0.0872 0.9041
vt 0.2611 0.875
vt 0.2784 0.9063
vt 0.2611 0.9061
vt 0.2263 0.8746
vt 0.2437 0.9059
vt 0.2263 0.9057
vt 0.1046 0.3751
vt 0.1046 0.4062
vt 0.1046 0.8732
vt 0.122 0.9045
vt 0.0351 0.8724
vt 0.0351 0.9035
vt 0.0698 0.3747
vt 0.0872 0.406
vt 0.0698 0.4058
vt 0.1394 0.6245
vt 0.1568 0.6559
vt 0.1394 0.6556
vt 0.1741 0.3759
vt 0.1915 0.4072
vt 0.1741 0.407
vt 0.122 0.8734
vt 0.1394 0.9047
vt 0.2089 0.3763
vt 0.2263 0.4076
vt 0.2089 0.4074
vt 0.1394 0.8736
vt 0.1568 0.9049
vt 0.0177 0.3741
vt 0.0351 0.4054
vt 0.0177 0.4052
vt 0.2263 0.3765
vt 0.2437 0.4078
vt 0.0351 0.3743
vt 0.0525 0.4056
vt 0.2437 0.3767
vt 0.2611 0.408
vt 0.1568 0.3757
vt 0.122 0.6243
vt 0.122 0.6554
vt 0.0003 0.3739
vt 0.0003 0.405
vt 0.2089 0.1272
vt 0.2263 0.1586
vt 0.2089 0.1584
vt 0.2263 0.1274
vt 0.2437 0.1588
vt 0.0351 0.1252
vt 0.0525 0.1566
vt 0.0351 0.1564
vt 0.2437 0.1276
vt 0.2611 0.159
vt 0.1568 0.1266
vt 0.1568 0.1578
vt 0.0003 0.1248
vt 0.0177 0.1562
vt 0.0003 0.156
vt 0.0698 0.1256
vt 0.0872 0.157
vt 0.0698 0.1568
vt 0.0177 0.125
vt 0.2611 0.1278
vt 0.2784 0.1592
vt 0.0872 0.1258
vt 0.1046 0.1572
vt 0.0525 0.1254
vt 0.1915 0.127
vt 0.1046 0.126
vt 0.122 0.1574
vt 0.1046 0.6241
vt 0.1046 0.6552
vt 0.0177 0.6231
vt 0.0351 0.6544
vt 0.0177 0.6542
vt 0.0177 0.8721
vt 0.0177 0.9033
vt 0.1568 0.6247
vt 0.1741 0.6561
vt 0.0003 0.6229
vt 0.0003 0.654
vt 0.0698 0.6237
vt 0.0872 0.655
vt 0.0698 0.6548
vt 0.0525 0.6235
vt 0.0525 0.6546
vt 0.1915 0.6251
vt 0.2089 0.6565
vt 0.1915 0.6563
vt 0.0872 0.6239
vt 0.2611 0.3769
vt 0.2784 0.4082
vt 0.0872 0.3749
vt 0.2611 0.6259
vt 0.2784 0.6573
vt 0.2611 0.6571
vt 0.0525 0.3745
vt 0.1915 0.3761
vt 0.2089 0.8744
vt 0.0698 0.8728
vt 0.2437 0.8748
vt 0.0003 0.8719
vt 0.0003 0.9031
vt 0.1568 0.8738
vt 0.0351 0.6233
vt 0.2263 0.6255
vt 0.2437 0.6569
vt 0.2263 0.6567
vt 0.2437 0.6257
vt 0.2089 0.6253
vt 0.122 0.1262
vt 0.1394 0.1576
vt 0.1394 0.1264
vt 0.1741 0.6249
vt 0.1741 0.6872
vt 0.1915 0.7185
vt 0.1741 0.7183
vt 0.1394 0.1887
vt 0.1568 0.22
vt 0.1394 0.2198
vt 0.122 0.1885
vt 0.122 0.2196
vt 0.2089 0.6876
vt 0.2263 0.7189
vt 0.2089 0.7187
vt 0.2437 0.688
vt 0.2611 0.7193
vt 0.2437 0.7191
vt 0.2263 0.6878
vt 0.0351 0.6856
vt 0.0525 0.7169
vt 0.0351 0.7167
vt 0.1568 0.936
vt 0.1741 0.9674
vt 0.1568 0.9672
vt 0.0003 0.9342
vt 0.0177 0.9655
vt 0.0003 0.9653
vt 0.2437 0.937
vt 0.2611 0.9684
vt 0.2437 0.9682
vt 0.0698 0.935
vt 0.0872 0.9663
vt 0.0698 0.9661
vt 0.2089 0.9366
vt 0.2263 0.968
vt 0.2089 0.9678
vt 0.1915 0.4383
vt 0.2089 0.4697
vt 0.1915 0.4695
vt 0.0525 0.4367
vt 0.0698 0.4681
vt 0.0525 0.4679
vt 0.2611 0.6882
vt 0.2784 0.7195
vt 0.0872 0.4371
vt 0.1046 0.4685
vt 0.0872 0.4683
vt 0.2611 0.4391
vt 0.2784 0.4705
vt 0.2611 0.4703
vt 0.0872 0.6862
vt 0.1046 0.7175
vt 0.0872 0.7173
vt 0.1915 0.6874
vt 0.0525 0.6858
vt 0.0698 0.7171
vt 0.0698 0.686
vt 0.0003 0.6852
vt 0.0177 0.7165
vt 0.0003 0.7163
vt 0.1568 0.687
vt 0.1568 0.7181
vt 0.0177 0.9344
vt 0.0351 0.9657
vt 0.0177 0.6854
vt 0.1046 0.6864
vt 0.122 0.7177
vt 0.1046 0.1883
vt 0.1046 0.2194
vt 0.1915 0.1893
vt 0.2089 0.2206
vt 0.1915 0.2204
vt 0.0525 0.1877
vt 0.0698 0.219
vt 0.0525 0.2188
vt 0.0872 0.1881
vt 0.0872 0.2192
vt 0.2611 0.1901
vt 0.2784 0.2214
vt 0.2611 0.2212
vt 0.0177 0.1873
vt 0.0351 0.2186
vt 0.0177 0.2184
vt 0.0698 0.1879
vt 0.0003 0.1871
vt 0.0003 0.2182
vt 0.1568 0.1889
vt 0.1741 0.2202
vt 0.2437 0.1899
vt 0.2437 0.221
vt 0.0351 0.1875
vt 0.2263 0.1897
vt 0.2263 0.2208
vt 0.2089 0.1895
vt 0.0003 0.4361
vt 0.0177 0.4675
vt 0.0003 0.4673
vt 0.122 0.6866
vt 0.1394 0.7179
vt 0.1568 0.4379
vt 0.1741 0.4693
vt 0.1568 0.4691
vt 0.2437 0.4389
vt 0.2437 0.4701
vt 0.0351 0.4365
vt 0.0351 0.4677
vt 0.2263 0.4387
vt 0.2263 0.4699
vt 0.0177 0.4363
vt 0.1394 0.9358
vt 0.1394 0.967
vt 0.2089 0.4385
vt 0.122 0.9356
vt 0.122 0.9667
vt 0.1741 0.4381
vt 0.1394 0.6868
vt 0.0698 0.4369
vt 0.0351 0.9346
vt 0.0525 0.9659
vt 0.1046 0.9354
vt 0.1046 0.9665
vt 0.1046 0.4373
vt 0.122 0.4687
vt 0.2263 0.9368
vt 0.2611 0.9372
vt 0.2784 0.9686
vt 0.0872 0.9352
vt 0.0525 0.9348
vt 0.1915 0.9364
vt 0.1915 0.9676
vt 0.1741 0.1891
vt 0.122 0.4375
vt 0.1394 0.4689
vt 0.1394 0.4377
vt 0.1741 0.9362
vt 0.1741 0.8117
vt 0.1915 0.843
vt 0.1741 0.8428
vt 0.1394 0.3132
vt 0.1568 0.3446
vt 0.1394 0.3443
vt 0.122 0.313
vt 0.122 0.3441
vt 0.1741 0.0646
vt 0.1915 0.0959
vt 0.1741 0.0957
vt 0.1915 0.8119
vt 0.2089 0.8432
vt 0.0525 0.8103
vt 0.0698 0.8416
vt 0.0525 0.8414
vt 0.0872 0.8107
vt 0.1046 0.842
vt 0.0872 0.8418
vt 0.2611 0.8127
vt 0.2784 0.844
vt 0.2611 0.8438
vt 0.2263 0.8123
vt 0.2437 0.8436
vt 0.2263 0.8434
vt 0.1046 0.3128
vt 0.1046 0.3439
vt 0.1046 0.8109
vt 0.122 0.8422
vt 0.0351 0.8101
vt 0.0351 0.8412
vt 0.0698 0.3124
vt 0.0872 0.3437
vt 0.0698 0.3435
vt 0.1394 0.5623
vt 0.1568 0.5936
vt 0.1394 0.5934
vt 0.1741 0.3136
vt 0.1915 0.345
vt 0.1741 0.3448
vt 0.122 0.8111
vt 0.1394 0.8424
vt 0.2089 0.314
vt 0.2263 0.3454
vt 0.2089 0.3452
vt 0.1394 0.8113
vt 0.1568 0.8426
vt 0.0177 0.3118
vt 0.0351 0.3431
vt 0.0177 0.3429
vt 0.2263 0.3142
vt 0.2437 0.3456
vt 0.0351 0.312
vt 0.0525 0.3433
vt 0.2437 0.3144
vt 0.2611 0.3458
vt 0.1568 0.3134
vt 0.122 0.5621
vt 0.122 0.5932
vt 0.0003 0.3116
vt 0.0003 0.3427
vt 0.2089 0.065
vt 0.2263 0.0963
vt 0.2089 0.0961
vt 0.2263 0.0652
vt 0.2437 0.0965
vt 0.0351 0.063
vt 0.0525 0.0943
vt 0.0351 0.0941
vt 0.2437 0.0654
vt 0.2611 0.0967
vt 0.1568 0.0644
vt 0.1568 0.0955
vt 0.0003 0.0626
vt 0.0177 0.0939
vt 0.0003 0.0937
vt 0.0698 0.0634
vt 0.0872 0.0947
vt 0.0698 0.0945
vt 0.0177 0.0628
vt 0.2611 0.0656
vt 0.2784 0.0969
vt 0.0872 0.0636
vt 0.1046 0.0949
vt 0.0525 0.0632
vt 0.1915 0.0648
vt 0.1046 0.0638
vt 0.122 0.0951
vt 0.1046 0.5619
vt 0.1046 0.593
vt 0.0177 0.5608
vt 0.0351 0.5922
vt 0.0177 0.592
vt 0.0177 0.8099
vt 0.0177 0.841
vt 0.1568 0.5625
vt 0.1741 0.5938
vt 0.0003 0.5606
vt 0.0003 0.5918
vt 0.0698 0.5615
vt 0.0872 0.5928
vt 0.0698 0.5926
vt 0.0525 0.5613
vt 0.0525 0.5924
vt 0.1915 0.5629
vt 0.2089 0.5942
vt 0.1915 0.594
vt 0.0872 0.5617
vt 0.2611 0.3146
vt 0.2784 0.346
vt 0.0872 0.3126
vt 0.2611 0.5637
vt 0.2784 0.595
vt 0.2611 0.5948
vt 0.0525 0.3122
vt 0.1915 0.3138
vt 0.2089 0.8121
vt 0.0698 0.8105
vt 0.2437 0.8125
vt 0.0003 0.8097
vt 0.0003 0.8408
vt 0.1568 0.8115
vt 0.0351 0.5611
vt 0.2263 0.5633
vt 0.2437 0.5946
vt 0.2263 0.5944
vt 0.2437 0.5635
vt 0.2089 0.5631
vt 0.122 0.064
vt 0.1394 0.0953
vt 0.1394 0.0642
vt 0.1741 0.5627
vt 0.2784 0.6261
vt 0.2784 0.3771
vt 0.2784 0.128
vt 0.2784 0.8752
vt 0.1915 0.9987
vt 0.1741 0.9985
vt 0.2089 0.9989
vt 0.0698 0.9973
vt 0.0525 0.9971
vt 0.1046 0.9977
vt 0.0872 0.9975
vt 0.2784 0.9997
vt 0.2611 0.9995
vt 0.2437 0.9993
vt 0.2263 0.9991
vt 0.122 0.9979
vt 0.0351 0.9969
vt 0.1394 0.9981
vt 0.1568 0.9983
vt 0.2784 0.2526
vt 0.0177 0.9967
vt 0.2784 0.5016
vt 0.2784 0.7507
vt 0.0003 0.9965
vt 0.2784 0.6884
vt 0.2784 0.4394
vt 0.2784 0.1903
vt 0.2784 0.9374
vt 0.2784 0.8129
vt 0.2784 0.0658
vt 0.2784 0.3148
vt 0.2784 0.5639
vt 0.3083 0.494
vt 0.8557 0.6061
vt 0.8157 0.1228
vt 0.4663 0.9466
vt 0.3303 0.0998
vt 0.4283 0.3164
vt 0.3856 0.3164
vt 0.3998 0.3156
vt 0.4354 0.3172
vt 0.3785 0.3172
vt 0.6495 0.8606
vt 0.2784 0.0035
s 1
f 282/1 279/2 278/3
f 337/4 614/5 623/6
f 292/7 129/8 125/9
f 129/10 119/11 121/12
f 223/13 633/14 629/15
f 273/16 257/17 265/18
f 125/19 121/12 117/20
f 224/21 629/15 628/22
f 115/23 293/24 308/25
f 124/26 117/27 116/28
f 127/29 115/23 119/11
f 297/30 140/31 139/32
f 301/33 130/34 300/35
f 295/30 138/31 141/32
f 295/36 140/31 296/37
f 151/38 136/39 152/40
f 163/41 164/42 168/43
f 140/31 186/44 183/45
f 159/46 147/47 149/48
f 157/49 136/39 132/50
f 154/51 147/47 155/52
f 160/53 136/39 161/54
f 181/55 208/56 203/57
f 184/58 140/31 183/59
f 184/44 138/31 139/60
f 154/46 148/61 146/48
f 160/49 134/39 133/50
f 186/58 138/31 185/62
f 169/63 164/42 165/64
f 153/65 136/39 133/66
f 69/67 70/68 68/69
f 159/51 148/61 158/52
f 142/70 189/71 144/72
f 151/65 134/39 132/66
f 134/39 153/38 133/50
f 163/63 166/42 167/64
f 203/73 205/74 204/75
f 190/76 142/70 145/77
f 298/78 130/79 135/80
f 143/81 190/82 145/72
f 301/33 131/83 137/80
f 189/76 143/81 144/77
f 298/78 131/34 299/35
f 178/84 209/85 201/86
f 212/87 205/88 179/89
f 179/89 211/87 214/90
f 178/84 210/85 208/56
f 358/91 241/92 357/93
f 242/92 358/91 359/93
f 360/94 242/92 359/93
f 240/95 242/92 306/96
f 239/97 241/92 307/96
f 241/92 360/94 357/93
f 297/98 138/31 294/37
f 307/96 241/92 240/95
f 215/99 216/100 214/101
f 205/102 211/103 204/104
f 210/105 207/106 208/107
f 213/108 211/103 212/109
f 220/110 216/100 217/111
f 102/112 401/113 399/114
f 199/115 221/116 220/110
f 209/117 219/118 213/108
f 155/119 158/120 154/121
f 148/122 147/123 146/124
f 156/125 161/126 157/127
f 150/128 152/129 153/130
f 164/131 166/132 165/133
f 162/134 168/135 169/136
f 184/137 183/138 306/96
f 218/139 212/87 215/90
f 279/2 280/140 290/141
f 290/141 288/142 289/143
f 289/143 275/144 278/3
f 275/144 276/145 278/3
f 276/145 277/146 278/3
f 278/3 287/147 286/148
f 286/148 285/149 284/150
f 284/150 283/151 282/1
f 282/1 281/152 279/2
f 279/2 290/141 278/3
f 290/141 289/143 278/3
f 278/3 286/148 284/150
f 284/150 282/1 278/3
f 121/153 119/154 115/23
f 341/155 615/156 619/157
f 114/158 118/159 120/160
f 293/24 129/8 292/7
f 342/161 624/162 618/163
f 123/164 127/165 129/8
f 308/25 120/160 291/166
f 128/167 126/168 122/169
f 343/170 618/163 615/156
f 334/171 616/172 617/173
f 352/174 95/175 94/176
f 180/177 346/178 345/179
f 372/180 655/181 644/182
f 381/183 652/184 653/185
f 378/186 656/187 650/188
f 354/189 654/190 630/191
f 379/192 647/193 651/194
f 364/195 92/196 91/197
f 324/198 353/199 355/200
f 325/201 351/202 348/203
f 317/204 370/205 362/206
f 363/207 321/208 361/209
f 304/210 345/179 346/178
f 131/34 294/37 295/30
f 140/31 141/60 186/44
f 416/211 669/212 672/213
f 396/214 326/215 324/198
f 405/216 658/217 661/218
f 390/219 321/208 318/220
f 336/221 621/222 624/162
f 184/58 139/32 140/31
f 184/44 185/223 138/31
f 411/224 657/225 667/226
f 389/227 319/228 317/204
f 186/58 141/32 138/31
f 143/81 300/229 298/78
f 143/81 299/35 144/77
f 408/230 668/231 664/232
f 325/201 399/114 327/233
f 142/70 188/234 189/71
f 142/70 299/235 301/33
f 345/179 302/210 356/178
f 131/83 296/37 137/80
f 347/236 304/210 346/178
f 190/76 188/237 142/70
f 339/238 611/239 622/240
f 143/81 187/234 190/82
f 344/241 619/157 614/5
f 189/76 187/237 143/81
f 333/242 610/243 616/172
f 182/55 205/88 206/57
f 330/244 622/240 610/243
f 264/245 248/246 268/247
f 310/248 199/249 190/250
f 328/251 366/252 352/174
f 222/139 211/87 219/253
f 90/254 364/195 91/197
f 201/86 199/249 178/84
f 178/84 207/56 209/85
f 311/255 217/256 179/89
f 312/257 187/258 189/259
f 322/260 355/200 364/195
f 222/139 210/85 202/86
f 87/261 365/262 88/263
f 179/89 217/256 215/90
f 181/55 204/88 179/89
f 340/264 620/265 621/266
f 215/90 212/87 179/89
f 291/166 120/160 116/267
f 335/268 623/6 612/269
f 190/250 187/258 312/257
f 311/255 216/256 189/259
f 320/270 371/271 368/272
f 200/273 201/274 202/275
f 353/199 94/276 93/277
f 214/90 216/256 179/89
f 179/89 204/88 211/87
f 310/248 200/249 178/84
f 309/257 188/258 190/250
f 350/278 315/279 365/262
f 218/139 209/85 213/253
f 380/280 649/281 652/184
f 178/84 200/249 202/86
f 182/55 207/56 178/84
f 338/282 617/173 620/265
f 178/84 202/86 210/85
f 319/228 364/195 370/205
f 326/215 352/283 353/199
f 365/262 317/204 362/206
f 323/284 348/203 371/271
f 365/262 89/285 88/263
f 351/202 87/261 86/286
f 371/271 85/287 84/288
f 222/289 215/290 214/291
f 293/24 128/167 122/169
f 327/233 350/278 351/202
f 189/259 188/258 309/257
f 314/292 369/293 366/252
f 321/208 368/272 361/209
f 366/252 96/294 95/175
f 202/275 218/295 222/289
f 308/25 121/153 115/23
f 313/296 609/297 611/239
f 208/107 206/298 203/73
f 302/210 347/236 356/178
f 130/79 294/37 135/80
f 155/119 159/299 158/120
f 148/122 149/300 147/123
f 156/125 160/301 161/126
f 150/128 151/302 152/129
f 164/131 167/303 166/132
f 162/134 163/304 168/135
f 248/246 246/305 244/306
f 244/306 274/307 272/308
f 272/308 270/309 268/247
f 268/247 266/310 264/245
f 264/245 262/311 256/312
f 262/311 260/313 256/312
f 260/313 258/314 256/312
f 256/312 254/315 252/316
f 252/316 250/317 248/246
f 248/246 244/306 272/308
f 272/308 268/247 248/246
f 369/293 318/220 363/207
f 256/312 252/316 248/246
f 273/16 243/318 245/319
f 245/319 247/320 273/16
f 247/320 249/321 273/16
f 249/321 251/322 253/323
f 253/323 255/324 249/321
f 255/324 257/17 249/321
f 257/17 259/325 265/18
f 259/325 261/326 265/18
f 261/326 263/327 265/18
f 265/18 267/328 269/329
f 269/329 271/330 273/16
f 265/18 269/329 273/16
f 368/272 84/288 83/331
f 57/332 58/333 56/334
f 65/335 62/336 63/337
f 166/42 169/41 165/338
f 61/339 58/333 59/340
f 65/335 66/341 64/342
f 57/332 54/343 55/344
f 63/337 60/345 61/339
f 69/67 66/341 67/346
f 73/347 74/348 72/349
f 51/350 80/351 81/352
f 79/353 76/354 77/355
f 77/355 74/356 75/357
f 71/358 72/349 70/68
f 79/353 80/351 78/359
f 55/344 52/360 53/361
f 53/361 50/362 51/350
f 225/363 628/22 625/364
f 98/365 392/366 393/367
f 111/368 388/369 386/370
f 107/371 396/214 394/372
f 99/373 395/374 392/366
f 103/375 387/376 401/113
f 400/377 111/368 386/370
f 388/369 113/378 390/219
f 391/379 107/371 394/372
f 109/380 400/381 398/382
f 100/383 397/384 395/374
f 387/376 105/385 389/227
f 396/214 109/380 398/382
f 157/53 134/39 156/54
f 113/378 393/367 390/219
f 389/227 106/386 391/379
f 101/387 399/114 397/384
f 238/388 639/389 642/390
f 234/391 626/392 631/393
f 226/394 625/364 637/395
f 128/396 116/397 120/398
f 230/399 638/400 634/401
f 232/402 632/403 636/404
f 126/405 120/398 118/406
f 235/407 637/395 626/392
f 122/169 118/406 114/158
f 231/408 636/404 638/409
f 237/410 635/411 633/14
f 229/412 634/401 640/413
f 233/414 631/393 632/403
f 227/415 640/413 641/416
f 228/417 641/416 639/389
f 412/418 666/419 668/420
f 331/421 613/422 609/297
f 142/70 300/35 145/77
f 407/423 665/424 663/425
f 414/426 664/232 670/427
f 130/34 296/37 297/30
f 308/25 122/169 114/158
f 406/428 661/218 662/429
f 415/430 670/427 671/431
f 410/432 662/429 666/419
f 373/433 644/182 645/434
f 413/435 671/431 669/212
f 349/436 645/434 627/437
f 409/438 672/213 665/424
f 332/439 612/269 613/422
f 402/440 667/226 658/217
f 377/441 648/442 649/281
f 386/370 316/443 314/292
f 329/444 387/376 315/279
f 400/377 314/292 328/251
f 391/379 322/260 319/228
f 392/366 323/284 320/270
f 393/367 320/270 321/208
f 394/372 324/198 322/260
f 180/177 356/178 347/236
f 369/293 97/445 96/294
f 326/215 400/381 328/446
f 316/443 390/219 318/220
f 395/374 325/201 323/284
f 315/279 389/227 317/204
f 367/447 627/437 643/448
f 385/449 659/450 657/225
f 361/209 83/331 82/451
f 348/203 86/286 85/287
f 355/200 93/277 92/196
f 375/452 650/188 647/193
f 399/114 329/444 327/233
f 180/177 345/179 356/178
f 384/453 653/454 656/187
f 363/207 82/451 97/445
f 382/455 643/448 654/190
f 376/456 630/191 648/442
f 374/457 651/194 646/458
f 180/177 347/236 346/178
f 362/206 90/254 89/285
f 357/93 305/459 302/210
f 305/459 359/93 304/210
f 359/93 303/460 304/210
f 236/461 642/390 635/411
f 303/460 357/93 302/210
f 403/462 660/463 659/450
f 404/464 663/425 660/463
f 383/465 646/458 655/181
f 463/466 710/467 719/468
f 468/469 727/470 724/471
f 467/472 724/471 723/473
f 443/474 706/475 699/476
f 454/477 715/478 710/467
f 456/479 694/480 712/481
f 462/482 707/483 718/484
f 464/485 717/486 720/487
f 455/488 714/489 711/490
f 465/491 723/473 721/492
f 451/493 691/494 707/483
f 457/495 712/481 713/496
f 466/497 731/498 722/499
f 421/500 676/501 677/502
f 473/503 736/504 729/505
f 435/506 709/507 691/494
f 477/508 735/509 733/510
f 453/511 708/512 709/507
f 474/513 726/514 730/515
f 479/516 734/517 735/509
f 470/518 725/519 726/514
f 478/520 728/521 734/517
f 471/522 729/505 727/470
f 417/523 677/502 673/524
f 476/525 730/515 732/526
f 447/527 705/528 703/529
f 449/530 704/531 705/528
f 440/532 695/533 696/534
f 448/535 698/536 704/531
f 441/537 699/476 697/538
f 446/539 700/540 702/541
f 434/542 701/543 690/544
f 444/545 696/534 700/540
f 442/546 702/547 698/536
f 445/548 689/549 701/543
f 439/550 690/544 695/533
f 450/551 703/529 706/475
f 433/552 692/553 689/549
f 419/554 673/524 675/555
f 428/556 681/557 684/558
f 460/559 713/496 716/560
f 420/561 687/562 676/501
f 429/563 684/558 685/564
f 418/565 686/566 674/567
f 424/568 674/567 680/569
f 422/570 683/571 678/572
f 430/573 675/555 686/566
f 472/574 732/575 728/521
f 475/576 721/492 731/498
f 432/577 685/578 688/579
f 469/580 722/499 725/519
f 480/581 733/510 736/504
f 459/582 711/490 715/478
f 438/583 718/484 694/480
f 458/584 720/487 714/489
f 461/585 716/560 717/586
f 452/587 719/468 708/512
f 425/588 680/569 681/557
f 423/589 682/590 679/591
f 426/592 688/579 682/590
f 427/593 679/591 683/571
f 436/594 693/595 692/553
f 437/596 697/538 693/595
f 431/597 678/572 687/562
f 559/598 806/599 815/600
f 565/601 825/602 821/603
f 564/604 821/603 820/605
f 555/606 807/607 811/608
f 554/609 816/610 810/611
f 551/612 810/611 807/607
f 553/613 808/614 809/615
f 580/616 847/617 836/618
f 589/619 844/620 845/621
f 586/622 848/623 842/624
f 566/625 846/626 822/627
f 587/628 839/629 843/630
f 608/631 861/632 864/633
f 597/634 850/635 853/636
f 560/637 813/638 816/610
f 603/639 849/640 859/641
f 600/642 860/643 856/644
f 558/645 803/646 814/647
f 550/648 811/608 806/599
f 552/649 802/650 808/614
f 546/651 814/647 802/650
f 557/652 812/653 813/654
f 548/655 815/600 804/656
f 588/657 841/658 844/620
f 556/659 809/615 812/653
f 547/660 801/661 803/646
f 561/662 820/605 817/663
f 578/664 831/665 834/666
f 567/667 818/668 823/669
f 573/670 817/663 829/671
f 570/672 830/673 826/674
f 572/675 824/676 828/677
f 562/678 829/671 818/668
f 574/679 828/677 830/680
f 569/681 827/682 825/602
f 576/683 826/674 832/684
f 568/685 823/669 824/676
f 577/686 832/684 833/687
f 575/688 833/687 831/665
f 604/689 858/690 860/691
f 545/692 805/693 801/661
f 599/694 857/695 855/696
f 606/697 856/644 862/698
f 598/699 853/636 854/700
f 607/701 862/698 863/702
f 602/703 854/700 858/690
f 581/704 836/618 837/705
f 605/706 863/702 861/632
f 563/707 837/705 819/708
f 601/709 864/633 857/695
f 549/710 804/656 805/693
f 594/711 859/641 850/635
f 585/712 840/713 841/658
f 579/714 819/708 835/715
f 593/716 851/717 849/640
f 583/718 842/624 839/629
f 592/719 845/720 848/623
f 590/721 835/715 846/626
f 584/722 822/627 840/713
f 582/723 843/630 838/724
f 571/725 834/666 827/682
f 595/726 852/727 851/717
f 596/728 855/696 852/727
f 591/729 838/724 847/617
f 527/730 774/731 783/732
f 532/733 791/734 788/735
f 531/736 788/735 787/737
f 507/738 770/739 763/740
f 518/741 779/742 774/731
f 520/743 758/744 776/745
f 526/746 771/747 782/748
f 528/749 781/750 784/751
f 519/752 778/753 775/754
f 529/755 787/737 785/756
f 515/757 755/758 771/747
f 521/759 776/745 777/760
f 530/761 795/762 786/763
f 485/764 740/765 741/766
f 537/767 800/768 793/769
f 499/770 773/771 755/758
f 541/772 799/773 797/774
f 517/775 772/776 773/771
f 538/777 790/778 794/779
f 543/780 798/781 799/773
f 534/782 789/783 790/778
f 542/784 792/785 798/781
f 535/786 793/769 791/734
f 481/787 741/766 737/788
f 540/789 794/779 796/790
f 511/791 769/792 767/793
f 513/794 768/795 769/792
f 504/796 759/797 760/798
f 512/799 762/800 768/795
f 505/801 763/740 761/802
f 510/803 764/804 766/805
f 498/806 765/807 754/808
f 508/809 760/798 764/804
f 506/810 766/811 762/800
f 509/812 753/813 765/807
f 503/814 754/808 759/797
f 514/815 767/793 770/739
f 497/816 756/817 753/813
f 483/818 737/788 739/819
f 492/820 745/821 748/822
f 524/823 777/760 780/824
f 484/825 751/826 740/765
f 493/827 748/822 749/828
f 482/829 750/830 738/831
f 488/832 738/831 744/833
f 486/834 747/835 742/836
f 494/837 739/819 750/830
f 536/838 796/839 792/785
f 539/840 785/756 795/762
f 496/841 749/842 752/843
f 533/844 786/763 789/783
f 544/845 797/774 800/768
f 523/846 775/754 779/742
f 502/847 782/748 758/744
f 522/848 784/751 778/753
f 525/849 780/824 781/850
f 516/851 783/732 772/776
f 489/852 744/833 745/821
f 487/853 746/854 743/855
f 490/856 752/843 746/854
f 491/857 743/855 747/835
f 500/858 757/859 756/817
f 501/860 761/802 757/859
f 495/861 742/836 751/826
f 751/826 422/570 431/597
f 757/859 441/537 437/596
f 756/817 437/596 436/594
f 747/835 423/589 427/593
f 746/854 432/577 426/592
f 743/855 426/592 423/589
f 745/821 424/568 425/588
f 772/776 463/466 452/587
f 781/850 460/559 461/585
f 778/753 464/485 458/584
f 758/744 462/482 438/583
f 779/742 455/488 459/582
f 800/768 477/508 480/581
f 789/783 466/497 469/580
f 752/843 429/862 432/577
f 795/762 465/491 475/576
f 792/785 476/863 472/574
f 750/830 419/554 430/573
f 742/836 427/593 422/570
f 744/833 418/565 424/568
f 738/831 430/573 418/565
f 749/828 428/556 429/563
f 740/765 431/597 420/561
f 780/824 457/495 460/559
f 748/822 425/588 428/556
f 739/819 417/523 419/554
f 753/813 436/594 433/552
f 770/739 447/527 450/551
f 759/797 434/542 439/550
f 765/807 433/552 445/548
f 762/800 446/864 442/546
f 764/804 440/532 444/545
f 754/808 445/548 434/542
f 766/805 444/545 446/539
f 761/802 443/474 441/537
f 768/795 442/546 448/535
f 760/798 439/550 440/532
f 769/792 448/535 449/530
f 767/793 449/530 447/527
f 796/790 474/513 476/525
f 737/788 421/500 417/523
f 791/734 473/503 471/522
f 798/781 472/574 478/520
f 790/778 469/580 470/518
f 799/773 478/520 479/516
f 794/779 470/518 474/513
f 773/771 452/587 453/511
f 797/774 479/516 477/508
f 755/758 453/511 435/506
f 793/769 480/581 473/503
f 741/766 420/561 421/500
f 786/763 475/576 466/497
f 777/760 456/479 457/495
f 771/747 435/506 451/493
f 785/756 467/472 465/491
f 775/754 458/584 455/488
f 784/751 461/865 464/485
f 782/748 451/493 462/482
f 776/745 438/583 456/479
f 774/731 459/582 454/477
f 763/740 450/551 443/474
f 787/737 468/469 467/472
f 788/735 471/522 468/469
f 783/732 454/477 463/466
f 847/617 197/866 196/867
f 852/727 335/268 332/439
f 851/717 332/439 331/421
f 827/682 416/211 409/438
f 838/724 198/868 197/866
f 840/713 177/869 176/870
f 846/626 192/871 191/872
f 848/623 173/873 172/874
f 839/629 171/875 170/876
f 849/640 331/421 313/296
f 835/715 193/877 192/871
f 841/658 176/870 175/878
f 850/635 339/238 330/244
f 805/693 372/180 373/433
f 857/695 344/241 337/4
f 819/708 194/879 193/877
f 861/632 343/170 341/155
f 837/705 195/880 194/879
f 858/690 334/171 338/282
f 863/702 342/161 343/170
f 854/700 333/242 334/171
f 862/698 336/221 342/161
f 855/696 337/4 335/268
f 801/661 373/433 349/436
f 860/691 338/282 340/264
f 831/665 415/430 413/435
f 833/687 414/426 415/430
f 824/676 405/216 406/428
f 832/684 408/230 414/426
f 825/602 409/438 407/423
f 830/680 410/432 412/418
f 818/668 411/224 402/440
f 828/677 406/428 410/432
f 826/674 412/881 408/230
f 829/671 385/449 411/224
f 823/669 402/440 405/216
f 834/666 413/435 416/211
f 817/663 403/462 385/449
f 803/646 349/436 367/447
f 812/653 377/441 380/280
f 844/620 175/878 174/882
f 804/656 383/465 372/180
f 813/654 380/280 381/183
f 802/650 382/455 354/189
f 808/614 354/189 376/456
f 806/599 379/192 374/457
f 814/647 367/447 382/455
f 856/644 340/883 336/221
f 859/641 313/296 339/238
f 816/610 381/884 384/453
f 853/636 330/244 333/242
f 864/633 341/155 344/241
f 843/630 170/876 198/868
f 822/627 191/872 177/869
f 842/624 172/874 171/875
f 845/621 174/882 173/885
f 836/618 196/867 195/880
f 809/615 376/456 377/441
f 807/607 378/186 375/452
f 810/611 384/453 378/186
f 811/608 375/452 379/192
f 820/605 404/464 403/462
f 821/603 407/423 404/464
f 815/600 374/457 383/465
f 687/562 550/648 559/598
f 693/595 569/681 565/601
f 692/553 565/601 564/604
f 683/571 551/612 555/606
f 682/590 560/637 554/609
f 679/591 554/609 551/612
f 681/557 552/649 553/613
f 708/512 591/729 580/616
f 717/586 588/657 589/619
f 714/489 592/719 586/622
f 694/480 590/721 566/625
f 715/478 583/718 587/628
f 736/504 605/706 608/631
f 725/519 594/711 597/634
f 688/579 557/886 560/637
f 731/498 593/716 603/639
f 728/521 604/887 600/642
f 686/566 547/660 558/645
f 678/572 555/606 550/648
f 680/569 546/651 552/649
f 674/567 558/645 546/651
f 685/564 556/659 557/652
f 676/501 559/598 548/655
f 716/560 585/712 588/657
f 684/558 553/613 556/659
f 675/555 545/692 547/660
f 689/549 564/604 561/662
f 706/475 575/688 578/664
f 695/533 562/678 567/667
f 701/543 561/662 573/670
f 698/536 574/888 570/672
f 700/540 568/685 572/675
f 690/544 573/670 562/678
f 702/541 572/675 574/679
f 697/538 571/725 569/681
f 704/531 570/672 576/683
f 696/534 567/667 568/685
f 705/528 576/683 577/686
f 703/529 577/686 575/688
f 732/526 602/703 604/689
f 673/524 549/710 545/692
f 727/470 601/709 599/694
f 734/517 600/642 606/697
f 726/514 597/634 598/699
f 735/509 606/697 607/701
f 730/515 598/699 602/703
f 709/507 580/616 581/704
f 733/510 607/701 605/706
f 691/494 581/704 563/707
f 729/505 608/631 601/709
f 677/502 548/655 549/710
f 722/499 603/639 594/711
f 713/496 584/722 585/712
f 707/483 563/707 579/714
f 721/492 595/726 593/716
f 711/490 586/622 583/718
f 720/487 589/889 592/719
f 718/484 579/714 590/721
f 712/481 566/625 584/722
f 710/467 587/628 582/723
f 699/476 578/664 571/725
f 723/473 596/728 595/726
f 724/471 599/694 596/728
f 719/468 582/723 591/729
f 655/181 518/741 527/730
f 660/463 535/786 532/733
f 659/450 532/733 531/736
f 635/411 514/815 507/738
f 646/458 523/846 518/741
f 648/442 502/847 520/743
f 654/190 515/757 526/746
f 656/187 525/890 528/749
f 647/193 522/848 519/752
f 657/225 531/736 529/755
f 643/448 499/770 515/757
f 649/281 520/743 521/759
f 658/217 539/840 530/761
f 613/422 484/825 485/764
f 665/424 544/845 537/767
f 627/437 517/775 499/770
f 669/212 543/780 541/772
f 645/434 516/851 517/775
f 666/419 534/782 538/777
f 671/431 542/784 543/780
f 662/429 533/844 534/782
f 670/427 536/838 542/784
f 663/425 537/767 535/786
f 609/297 485/764 481/787
f 668/420 538/777 540/789
f 639/389 513/794 511/791
f 641/416 512/799 513/794
f 632/403 503/814 504/796
f 640/413 506/810 512/799
f 633/14 507/738 505/801
f 638/409 508/809 510/803
f 626/392 509/812 498/806
f 636/404 504/796 508/809
f 634/401 510/891 506/810
f 637/395 497/816 509/812
f 631/393 498/806 503/814
f 642/390 511/791 514/815
f 625/364 500/858 497/816
f 611/239 481/787 483/818
f 620/265 489/852 492/820
f 652/184 521/759 524/823
f 612/269 495/861 484/825
f 621/266 492/820 493/827
f 610/243 494/837 482/829
f 616/172 482/829 488/832
f 614/5 491/857 486/834
f 622/240 483/818 494/837
f 664/232 540/892 536/838
f 667/226 529/755 539/840
f 624/162 493/893 496/841
f 661/218 530/761 533/844
f 672/213 541/772 544/845
f 651/194 519/752 523/846
f 630/191 526/746 502/847
f 650/188 528/749 522/848
f 653/185 524/823 525/849
f 644/182 527/730 516/851
f 617/173 488/832 489/852
f 615/156 490/856 487/853
f 618/163 496/841 490/856
f 619/157 487/853 491/857
f 628/22 501/860 500/858
f 629/15 505/801 501/860
f 623/6 486/834 495/861
f 337/4 344/241 614/5
f 125/9 124/26 292/7
f 124/26 128/167 292/7
f 129/10 127/29 119/11
f 223/13 237/410 633/14
f 273/16 249/321 257/17
f 125/19 129/10 121/12
f 224/21 223/13 629/15
f 115/23 123/164 293/24
f 124/26 125/9 117/27
f 127/29 123/164 115/23
f 297/30 296/37 140/31
f 301/33 137/80 130/34
f 295/30 294/37 138/31
f 295/36 141/60 140/31
f 151/38 132/50 136/39
f 163/41 167/338 164/42
f 159/46 155/52 147/47
f 157/49 161/54 136/39
f 154/51 146/894 147/47
f 160/53 133/66 136/39
f 181/55 178/84 208/56
f 154/46 158/52 148/61
f 160/49 156/54 134/39
f 169/63 168/43 164/42
f 153/65 152/40 136/39
f 69/67 71/358 70/68
f 159/51 149/894 148/61
f 151/65 150/40 134/39
f 134/39 150/40 153/38
f 163/63 162/43 166/42
f 203/73 206/298 205/74
f 298/78 300/229 130/79
f 301/33 299/235 131/83
f 298/78 135/80 131/34
f 358/91 240/95 241/92
f 242/92 240/95 358/91
f 360/94 239/97 242/92
f 183/138 186/895 306/96
f 186/895 240/95 306/96
f 185/138 184/137 307/96
f 184/137 239/97 307/96
f 241/92 239/97 360/94
f 297/98 139/60 138/31
f 240/95 186/895 307/96
f 186/895 185/138 307/96
f 215/99 217/111 216/100
f 205/102 212/109 211/103
f 210/105 209/117 207/106
f 213/108 219/118 211/103
f 220/110 221/116 216/100
f 102/112 103/375 401/113
f 199/115 200/273 221/116
f 209/117 210/105 219/118
f 306/96 242/92 239/97
f 239/97 184/137 306/96
f 218/139 213/253 212/87
f 341/155 343/170 615/156
f 293/24 123/164 129/8
f 342/161 336/221 624/162
f 308/25 114/158 120/160
f 343/170 342/161 618/163
f 334/171 333/242 616/172
f 352/174 366/252 95/175
f 372/180 383/465 655/181
f 381/183 380/280 652/184
f 378/186 384/453 656/187
f 354/189 382/455 654/190
f 379/192 375/452 647/193
f 364/195 355/200 92/196
f 324/198 326/215 353/199
f 325/201 327/233 351/202
f 317/204 319/228 370/205
f 363/207 318/220 321/208
f 304/210 303/460 345/179
f 131/34 135/80 294/37
f 416/211 413/435 669/212
f 396/214 398/382 326/215
f 405/216 402/440 658/217
f 390/219 393/367 321/208
f 336/221 340/883 621/222
f 411/224 385/449 657/225
f 389/227 391/379 319/228
f 143/81 145/72 300/229
f 143/81 298/78 299/35
f 408/230 412/881 668/231
f 325/201 397/384 399/114
f 142/70 144/72 299/235
f 345/179 303/460 302/210
f 131/83 295/36 296/37
f 347/236 305/459 304/210
f 339/238 313/296 611/239
f 344/241 341/155 619/157
f 333/242 330/244 610/243
f 182/55 179/89 205/88
f 330/244 339/238 622/240
f 264/245 256/312 248/246
f 310/248 178/84 199/249
f 328/251 314/292 366/252
f 222/139 214/90 211/87
f 90/254 370/205 364/195
f 311/255 189/259 217/256
f 189/259 216/256 312/257
f 216/256 221/896 312/257
f 322/260 324/198 355/200
f 222/139 219/253 210/85
f 87/261 350/278 365/262
f 181/55 203/57 204/88
f 340/264 338/282 620/265
f 116/267 117/897 291/166
f 117/897 121/153 291/166
f 335/268 337/4 623/6
f 221/896 200/249 312/257
f 200/249 190/250 312/257
f 311/255 179/89 216/256
f 320/270 323/284 371/271
f 200/273 199/115 201/274
f 353/199 352/283 94/276
f 310/248 190/250 200/249
f 190/250 199/249 309/257
f 199/249 220/896 309/257
f 350/278 329/444 315/279
f 218/139 201/86 209/85
f 380/280 377/441 649/281
f 182/55 206/57 207/56
f 338/282 334/171 617/173
f 319/228 322/260 364/195
f 326/215 328/446 352/283
f 365/262 315/279 317/204
f 323/284 325/201 348/203
f 365/262 362/206 89/285
f 351/202 350/278 87/261
f 371/271 348/203 85/287
f 222/289 218/295 215/290
f 293/24 292/7 128/167
f 327/233 329/444 350/278
f 220/896 217/256 309/257
f 217/256 189/259 309/257
f 314/292 316/443 369/293
f 321/208 320/270 368/272
f 366/252 369/293 96/294
f 202/275 201/274 218/295
f 308/25 291/166 121/153
f 313/296 331/421 609/297
f 208/107 207/106 206/298
f 302/210 305/459 347/236
f 130/79 297/98 294/37
f 369/293 316/443 318/220
f 368/272 371/271 84/288
f 57/332 59/340 58/333
f 65/335 64/342 62/336
f 166/42 162/43 169/41
f 61/339 60/345 58/333
f 65/335 67/346 66/341
f 57/332 56/334 54/343
f 63/337 62/336 60/345
f 69/67 68/69 66/341
f 73/347 75/898 74/348
f 51/350 50/362 80/351
f 79/353 78/359 76/354
f 77/355 76/354 74/356
f 71/358 73/347 72/349
f 79/353 81/352 80/351
f 55/344 54/343 52/360
f 53/361 52/360 50/362
f 225/363 224/21 628/22
f 98/365 99/373 392/366
f 111/368 112/899 388/369
f 107/371 108/900 396/214
f 99/373 100/383 395/374
f 103/375 104/901 387/376
f 400/377 110/902 111/368
f 388/369 112/899 113/378
f 391/379 106/386 107/371
f 109/380 110/903 400/381
f 100/383 101/387 397/384
f 387/376 104/901 105/385
f 396/214 108/900 109/380
f 157/53 132/66 134/39
f 113/378 98/365 393/367
f 389/227 105/385 106/386
f 101/387 102/112 399/114
f 238/388 228/417 639/389
f 234/391 235/407 626/392
f 226/394 225/363 625/364
f 128/396 124/904 116/397
f 230/399 231/905 638/400
f 232/402 233/414 632/403
f 126/405 128/396 120/398
f 235/407 226/394 637/395
f 122/169 126/405 118/406
f 231/408 232/402 636/404
f 237/410 236/461 635/411
f 229/412 230/399 634/401
f 233/414 234/391 631/393
f 227/415 229/412 640/413
f 228/417 227/415 641/416
f 412/418 410/432 666/419
f 331/421 332/439 613/422
f 142/70 301/33 300/35
f 407/423 409/438 665/424
f 414/426 408/230 664/232
f 130/34 137/80 296/37
f 308/25 293/24 122/169
f 406/428 405/216 661/218
f 415/430 414/426 670/427
f 410/432 406/428 662/429
f 373/433 372/180 644/182
f 413/435 415/430 671/431
f 349/436 373/433 645/434
f 409/438 416/211 672/213
f 332/439 335/268 612/269
f 402/440 411/224 667/226
f 377/441 376/456 648/442
f 386/370 388/369 316/443
f 329/444 401/113 387/376
f 400/377 386/370 314/292
f 391/379 394/372 322/260
f 392/366 395/374 323/284
f 393/367 392/366 320/270
f 394/372 396/214 324/198
f 369/293 363/207 97/445
f 326/215 398/382 400/381
f 316/443 388/369 390/219
f 395/374 397/384 325/201
f 315/279 387/376 389/227
f 367/447 349/436 627/437
f 385/449 403/462 659/450
f 361/209 368/272 83/331
f 348/203 351/202 86/286
f 355/200 353/199 93/277
f 375/452 378/186 650/188
f 399/114 401/113 329/444
f 384/453 381/884 653/454
f 363/207 361/209 82/451
f 382/455 367/447 643/448
f 376/456 354/189 630/191
f 374/457 379/192 651/194
f 362/206 370/205 90/254
f 357/93 360/94 305/459
f 305/459 360/94 359/93
f 359/93 358/91 303/460
f 236/461 238/388 642/390
f 303/460 358/91 357/93
f 403/462 404/464 660/463
f 404/464 407/423 663/425
f 383/465 374/457 646/458
f 463/466 454/477 710/467
f 468/469 471/522 727/470
f 467/472 468/469 724/471
f 443/474 450/551 706/475
f 454/477 459/582 715/478
f 456/479 438/583 694/480
f 462/482 451/493 707/483
f 464/485 461/865 717/486
f 455/488 458/584 714/489
f 465/491 467/472 723/473
f 451/493 435/506 691/494
f 457/495 456/479 712/481
f 466/497 475/576 731/498
f 421/500 420/561 676/501
f 473/503 480/581 736/504
f 435/506 453/511 709/507
f 477/508 479/516 735/509
f 453/511 452/587 708/512
f 474/513 470/518 726/514
f 479/516 478/520 734/517
f 470/518 469/580 725/519
f 478/520 472/574 728/521
f 471/522 473/503 729/505
f 417/523 421/500 677/502
f 476/525 474/513 730/515
f 447/527 449/530 705/528
f 449/530 448/535 704/531
f 440/532 439/550 695/533
f 448/535 442/546 698/536
f 441/537 443/474 699/476
f 446/539 444/545 700/540
f 434/542 445/548 701/543
f 444/545 440/532 696/534
f 442/546 446/864 702/547
f 445/548 433/552 689/549
f 439/550 434/542 690/544
f 450/551 447/527 703/529
f 433/552 436/594 692/553
f 419/554 417/523 673/524
f 428/556 425/588 681/557
f 460/559 457/495 713/496
f 420/561 431/597 687/562
f 429/563 428/556 684/558
f 418/565 430/573 686/566
f 424/568 418/565 674/567
f 422/570 427/593 683/571
f 430/573 419/554 675/555
f 472/574 476/863 732/575
f 475/576 465/491 721/492
f 432/577 429/862 685/578
f 469/580 466/497 722/499
f 480/581 477/508 733/510
f 459/582 455/488 711/490
f 438/583 462/482 718/484
f 458/584 464/485 720/487
f 461/585 460/559 716/560
f 452/587 463/466 719/468
f 425/588 424/568 680/569
f 423/589 426/592 682/590
f 426/592 432/577 688/579
f 427/593 423/589 679/591
f 436/594 437/596 693/595
f 437/596 441/537 697/538
f 431/597 422/570 678/572
f 559/598 550/648 806/599
f 565/601 569/681 825/602
f 564/604 565/601 821/603
f 555/606 551/612 807/607
f 554/609 560/637 816/610
f 551/612 554/609 810/611
f 553/613 552/649 808/614
f 580/616 591/729 847/617
f 589/619 588/657 844/620
f 586/622 592/719 848/623
f 566/625 590/721 846/626
f 587/628 583/718 839/629
f 608/631 605/706 861/632
f 597/634 594/711 850/635
f 560/637 557/886 813/638
f 603/639 593/716 849/640
f 600/642 604/887 860/643
f 558/645 547/660 803/646
f 550/648 555/606 811/608
f 552/649 546/651 802/650
f 546/651 558/645 814/647
f 557/652 556/659 812/653
f 548/655 559/598 815/600
f 588/657 585/712 841/658
f 556/659 553/613 809/615
f 547/660 545/692 801/661
f 561/662 564/604 820/605
f 578/664 575/688 831/665
f 567/667 562/678 818/668
f 573/670 561/662 817/663
f 570/672 574/888 830/673
f 572/675 568/685 824/676
f 562/678 573/670 829/671
f 574/679 572/675 828/677
f 569/681 571/725 827/682
f 576/683 570/672 826/674
f 568/685 567/667 823/669
f 577/686 576/683 832/684
f 575/688 577/686 833/687
f 604/689 602/703 858/690
f 545/692 549/710 805/693
f 599/694 601/709 857/695
f 606/697 600/642 856/644
f 598/699 597/634 853/636
f 607/701 606/697 862/698
f 602/703 598/699 854/700
f 581/704 580/616 836/618
f 605/706 607/701 863/702
f 563/707 581/704 837/705
f 601/709 608/631 864/633
f 549/710 548/655 804/656
f 594/711 603/639 859/641
f 585/712 584/722 840/713
f 579/714 563/707 819/708
f 593/716 595/726 851/717
f 583/718 586/622 842/624
f 592/719 589/889 845/720
f 590/721 579/714 835/715
f 584/722 566/625 822/627
f 582/723 587/628 843/630
f 571/725 578/664 834/666
f 595/726 596/728 852/727
f 596/728 599/694 855/696
f 591/729 582/723 838/724
f 527/730 518/741 774/731
f 532/733 535/786 791/734
f 531/736 532/733 788/735
f 507/738 514/815 770/739
f 518/741 523/846 779/742
f 520/743 502/847 758/744
f 526/746 515/757 771/747
f 528/749 525/890 781/750
f 519/752 522/848 778/753
f 529/755 531/736 787/737
f 515/757 499/770 755/758
f 521/759 520/743 776/745
f 530/761 539/840 795/762
f 485/764 484/825 740/765
f 537/767 544/845 800/768
f 499/770 517/775 773/771
f 541/772 543/780 799/773
f 517/775 516/851 772/776
f 538/777 534/782 790/778
f 543/780 542/784 798/781
f 534/782 533/844 789/783
f 542/784 536/838 792/785
f 535/786 537/767 793/769
f 481/787 485/764 741/766
f 540/789 538/777 794/779
f 511/791 513/794 769/792
f 513/794 512/799 768/795
f 504/796 503/814 759/797
f 512/799 506/810 762/800
f 505/801 507/738 763/740
f 510/803 508/809 764/804
f 498/806 509/812 765/807
f 508/809 504/796 760/798
f 506/810 510/891 766/811
f 509/812 497/816 753/813
f 503/814 498/806 754/808
f 514/815 511/791 767/793
f 497/816 500/858 756/817
f 483/818 481/787 737/788
f 492/820 489/852 745/821
f 524/823 521/759 777/760
f 484/825 495/861 751/826
f 493/827 492/820 748/822
f 482/829 494/837 750/830
f 488/832 482/829 738/831
f 486/834 491/857 747/835
f 494/837 483/818 739/819
f 536/838 540/892 796/839
f 539/840 529/755 785/756
f 496/841 493/893 749/842
f 533/844 530/761 786/763
f 544/845 541/772 797/774
f 523/846 519/752 775/754
f 502/847 526/746 782/748
f 522/848 528/749 784/751
f 525/849 524/823 780/824
f 516/851 527/730 783/732
f 489/852 488/832 744/833
f 487/853 490/856 746/854
f 490/856 496/841 752/843
f 491/857 487/853 743/855
f 500/858 501/860 757/859
f 501/860 505/801 761/802
f 495/861 486/834 742/836
f 751/826 742/836 422/570
f 757/859 761/802 441/537
f 756/817 757/859 437/596
f 747/835 743/855 423/589
f 746/854 752/843 432/577
f 743/855 746/854 426/592
f 745/821 744/833 424/568
f 772/776 783/732 463/466
f 781/850 780/824 460/559
f 778/753 784/751 464/485
f 758/744 782/748 462/482
f 779/742 775/754 455/488
f 800/768 797/774 477/508
f 789/783 786/763 466/497
f 752/843 749/842 429/862
f 795/762 785/756 465/491
f 792/785 796/839 476/863
f 750/830 739/819 419/554
f 742/836 747/835 427/593
f 744/833 738/831 418/565
f 738/831 750/830 430/573
f 749/828 748/822 428/556
f 740/765 751/826 431/597
f 780/824 777/760 457/495
f 748/822 745/821 425/588
f 739/819 737/788 417/523
f 753/813 756/817 436/594
f 770/739 767/793 447/527
f 759/797 754/808 434/542
f 765/807 753/813 433/552
f 762/800 766/811 446/864
f 764/804 760/798 440/532
f 754/808 765/807 445/548
f 766/805 764/804 444/545
f 761/802 763/740 443/474
f 768/795 762/800 442/546
f 760/798 759/797 439/550
f 769/792 768/795 448/535
f 767/793 769/792 449/530
f 796/790 794/779 474/513
f 737/788 741/766 421/500
f 791/734 793/769 473/503
f 798/781 792/785 472/574
f 790/778 789/783 469/580
f 799/773 798/781 478/520
f 794/779 790/778 470/518
f 773/771 772/776 452/587
f 797/774 799/773 479/516
f 755/758 773/771 453/511
f 793/769 800/768 480/581
f 741/766 740/765 420/561
f 786/763 795/762 475/576
f 777/760 776/745 456/479
f 771/747 755/758 435/506
f 785/756 787/737 467/472
f 775/754 778/753 458/584
f 784/751 781/750 461/865
f 782/748 771/747 451/493
f 776/745 758/744 438/583
f 774/731 779/742 459/582
f 763/740 770/739 450/551
f 787/737 788/735 468/469
f 788/735 791/734 471/522
f 783/732 774/731 454/477
f 847/617 838/724 197/866
f 852/727 855/696 335/268
f 851/717 852/727 332/439
f 827/682 834/666 416/211
f 838/724 843/630 198/868
f 840/713 822/627 177/869
f 846/626 835/715 192/871
f 848/623 845/720 173/873
f 839/629 842/624 171/875
f 849/640 851/717 331/421
f 835/715 819/708 193/877
f 841/658 840/713 176/870
f 850/635 859/641 339/238
f 805/693 804/656 372/180
f 857/695 864/633 344/241
f 819/708 837/705 194/879
f 861/632 863/702 343/170
f 837/705 836/618 195/880
f 858/690 854/700 334/171
f 863/702 862/698 342/161
f 854/700 853/636 333/242
f 862/698 856/644 336/221
f 855/696 857/695 337/4
f 801/661 805/693 373/433
f 860/691 858/690 338/282
f 831/665 833/687 415/430
f 833/687 832/684 414/426
f 824/676 823/669 405/216
f 832/684 826/674 408/230
f 825/602 827/682 409/438
f 830/680 828/677 410/432
f 818/668 829/671 411/224
f 828/677 824/676 406/428
f 826/674 830/673 412/881
f 829/671 817/663 385/449
f 823/669 818/668 402/440
f 834/666 831/665 413/435
f 817/663 820/605 403/462
f 803/646 801/661 349/436
f 812/653 809/615 377/441
f 844/620 841/658 175/878
f 804/656 815/600 383/465
f 813/654 812/653 380/280
f 802/650 814/647 382/455
f 808/614 802/650 354/189
f 806/599 811/608 379/192
f 814/647 803/646 367/447
f 856/644 860/643 340/883
f 859/641 849/640 313/296
f 816/610 813/638 381/884
f 853/636 850/635 330/244
f 864/633 861/632 341/155
f 843/630 839/629 170/876
f 822/627 846/626 191/872
f 842/624 848/623 172/874
f 845/621 844/620 174/882
f 836/618 847/617 196/867
f 809/615 808/614 376/456
f 807/607 810/611 378/186
f 810/611 816/610 384/453
f 811/608 807/607 375/452
f 820/605 821/603 404/464
f 821/603 825/602 407/423
f 815/600 806/599 374/457
f 687/562 678/572 550/648
f 693/595 697/538 569/681
f 692/553 693/595 565/601
f 683/571 679/591 551/612
f 682/590 688/579 560/637
f 679/591 682/590 554/609
f 681/557 680/569 552/649
f 708/512 719/468 591/729
f 717/586 716/560 588/657
f 714/489 720/487 592/719
f 694/480 718/484 590/721
f 715/478 711/490 583/718
f 736/504 733/510 605/706
f 725/519 722/499 594/711
f 688/579 685/578 557/886
f 731/498 721/492 593/716
f 728/521 732/575 604/887
f 686/566 675/555 547/660
f 678/572 683/571 555/606
f 680/569 674/567 546/651
f 674/567 686/566 558/645
f 685/564 684/558 556/659
f 676/501 687/562 559/598
f 716/560 713/496 585/712
f 684/558 681/557 553/613
f 675/555 673/524 545/692
f 689/549 692/553 564/604
f 706/475 703/529 575/688
f 695/533 690/544 562/678
f 701/543 689/549 561/662
f 698/536 702/547 574/888
f 700/540 696/534 568/685
f 690/544 701/543 573/670
f 702/541 700/540 572/675
f 697/538 699/476 571/725
f 704/531 698/536 570/672
f 696/534 695/533 567/667
f 705/528 704/531 576/683
f 703/529 705/528 577/686
f 732/526 730/515 602/703
f 673/524 677/502 549/710
f 727/470 729/505 601/709
f 734/517 728/521 600/642
f 726/514 725/519 597/634
f 735/509 734/517 606/697
f 730/515 726/514 598/699
f 709/507 708/512 580/616
f 733/510 735/509 607/701
f 691/494 709/507 581/704
f 729/505 736/504 608/631
f 677/502 676/501 548/655
f 722/499 731/498 603/639
f 713/496 712/481 584/722
f 707/483 691/494 563/707
f 721/492 723/473 595/726
f 711/490 714/489 586/622
f 720/487 717/486 589/889
f 718/484 707/483 579/714
f 712/481 694/480 566/625
f 710/467 715/478 587/628
f 699/476 706/475 578/664
f 723/473 724/471 596/728
f 724/471 727/470 599/694
f 719/468 710/467 582/723
f 655/181 646/458 518/741
f 660/463 663/425 535/786
f 659/450 660/463 532/733
f 635/411 642/390 514/815
f 646/458 651/194 523/846
f 648/442 630/191 502/847
f 654/190 643/448 515/757
f 656/187 653/454 525/890
f 647/193 650/188 522/848
f 657/225 659/450 531/736
f 643/448 627/437 499/770
f 649/281 648/442 520/743
f 658/217 667/226 539/840
f 613/422 612/269 484/825
f 665/424 672/213 544/845
f 627/437 645/434 517/775
f 669/212 671/431 543/780
f 645/434 644/182 516/851
f 666/419 662/429 534/782
f 671/431 670/427 542/784
f 662/429 661/218 533/844
f 670/427 664/232 536/838
f 663/425 665/424 537/767
f 609/297 613/422 485/764
f 668/420 666/419 538/777
f 639/389 641/416 513/794
f 641/416 640/413 512/799
f 632/403 631/393 503/814
f 640/413 634/401 506/810
f 633/14 635/411 507/738
f 638/409 636/404 508/809
f 626/392 637/395 509/812
f 636/404 632/403 504/796
f 634/401 638/400 510/891
f 637/395 625/364 497/816
f 631/393 626/392 498/806
f 642/390 639/389 511/791
f 625/364 628/22 500/858
f 611/239 609/297 481/787
f 620/265 617/173 489/852
f 652/184 649/281 521/759
f 612/269 623/6 495/861
f 621/266 620/265 492/820
f 610/243 622/240 494/837
f 616/172 610/243 482/829
f 614/5 619/157 491/857
f 622/240 611/239 483/818
f 664/232 668/231 540/892
f 667/226 657/225 529/755
f 624/162 621/222 493/893
f 661/218 658/217 530/761
f 672/213 669/212 541/772
f 651/194 647/193 519/752
f 630/191 654/190 526/746
f 650/188 656/187 528/749
f 653/185 652/184 524/823
f 644/182 655/181 527/730
f 617/173 616/172 488/832
f 615/156 618/163 490/856
f 618/163 624/162 496/841
f 619/157 615/156 487/853
f 628/22 629/15 501/860
f 629/15 633/14 505/801
f 623/6 614/5 486/834
