o Body
v -0.245 0 0.3689
v 0 -0.245 0.3689
v 0.245 0 0.3689
v -0.375 -0.8638 -2.375
v -0.375 -1.3638 -3.125
v -0.375 -1.3638 -2.375
v 0.375 -0.8638 -3.125
v -0.375 -0.4968 -5.625
v -0.375 -0.8638 -3.125
v 0.375 -1.3638 -2.375
v 0.375 -1.3638 -3.125
v 0.375 -0.8638 -2.375
v 0.375 -1.7468 -5.625
v -0.375 -1.7468 -5.625
v 0.375 -0.4968 -5.625
v 0.25 1.1544 -2.627
v 0.25 1.0319 -2.5045
v 0.25 0.9094 -2.627
v -0.25 0.9453 -2.5404
v -0.25 1.1544 -2.627
v -0.25 1.1185 -2.7136
v 0.25 1.1544 -2.872
v 0.25 1.0319 -2.7495
v 0.25 0.9094 -2.872
v -0.25 0.9453 -2.7854
v -0.25 1.1544 -2.872
v -0.25 1.1185 -2.9586
v -0.3125 0.9264 -2.5
v -0.3125 0.8639 -3
v -0.3125 0.8639 -2.5
v -0.25 0.9264 -3
v 0.25 0.8639 -3
v -0.25 0.8639 -3
v 0.3125 0.9264 -3
v 0.3125 0.8639 -2.5
v 0.3125 0.8639 -3
v 0.25 0.9264 -2.5
v -0.25 0.8639 -2.5
v 0.25 0.8639 -2.5
v 0.25 0.9264 -3
v 0.3125 1.0514 -3
v -0.3125 0.9264 -3
v 0.3125 1.0514 -2.5
v 0.25 1.0514 -2.5
v 0.3125 0.9264 -2.5
v -0.25 1.0514 -3
v -0.3125 1.0514 -2.5
v -0.25 1.0514 -2.5
v 0.25 1.0514 -3
v -0.25 0.9264 -2.5
v -0.3125 1.0514 -3
v 0.2691 0.9899 -0.7505
v 0.2073 0.966 -0.8083
v 0.2073 0.9899 -0.7505
v 0.2691 0.966 -0.8083
v 0.2073 0.9083 -0.8322
v 0.2691 0.8505 -0.8083
v 0.2073 0.8505 -0.8083
v 0.2073 0.8266 -0.7505
v 0.2691 0.8505 -0.6928
v 0.2073 0.8505 -0.6928
v 0.2691 0.9083 -0.6689
v 0.2073 0.9083 -0.6689
v 0.2073 0.966 -0.6928
v 0.2691 0.966 -0.6928
v 0.2958 0.9083 -0.6843
v 0.2958 0.842 -0.7505
v 0.2958 0.9083 -0.8168
v 0.2691 0.9899 -1.1588
v 0.2073 0.966 -1.2166
v 0.2073 0.9899 -1.1588
v 0.2691 0.966 -1.2166
v 0.2073 0.9083 -1.2405
v 0.2691 0.9083 -1.2405
v 0.2073 0.8505 -1.2166
v 0.2691 0.8505 -1.2166
v 0.2073 0.8266 -1.1588
v 0.2691 0.8505 -1.1011
v 0.2073 0.8505 -1.1011
v 0.2691 0.9083 -1.0772
v 0.2073 0.9083 -1.0772
v 0.2691 0.966 -1.1011
v 0.2073 0.966 -1.1011
v 0.2958 0.9083 -1.0926
v 0.2958 0.8614 -1.2057
v 0.2958 0.9083 -1.2251
v 0.2691 0.9899 -1.5671
v 0.2073 0.966 -1.6249
v 0.2073 0.9899 -1.5671
v 0.2691 0.966 -1.6249
v 0.2073 0.9083 -1.6488
v 0.2691 0.9083 -1.6488
v 0.2073 0.8505 -1.6249
v 0.2691 0.8505 -1.6249
v 0.2073 0.8266 -1.5671
v 0.2691 0.8266 -1.5671
v 0.2073 0.8505 -1.5094
v 0.2691 0.8505 -1.5094
v 0.2073 0.9083 -1.4855
v 0.2691 0.966 -1.5094
v 0.2073 0.966 -1.5094
v 0.2958 0.9083 -1.5009
v 0.2958 0.8614 -1.614
v 0.2958 0.9083 -1.6334
v 0.2073 0.9899 -1.9755
v 0.2691 0.966 -2.0332
v 0.2073 0.966 -2.0332
v 0.2691 0.9083 -2.0571
v 0.2073 0.9083 -2.0571
v 0.2073 0.8505 -2.0332
v 0.2691 0.8505 -2.0332
v 0.2073 0.8266 -1.9755
v 0.2691 0.8505 -1.9177
v 0.2073 0.8505 -1.9177
v 0.2073 0.9083 -1.8938
v 0.2691 0.9083 -1.8938
v 0.2073 0.966 -1.9177
v 0.2691 0.966 -1.9177
v 0.2958 0.9083 -1.9092
v 0.2958 0.8614 -2.0223
v 0.2958 0.9083 -2.0417
v 0.9068 -0.1974 2.4443
v 0.7843 -0.4095 2.6893
v 0.7843 -0.4095 2.1993
v 0.4812 -0.4346 2.6175
v 0.6544 -0.1345 2.6175
v 0.4812 -0.4346 2.2711
v 0.8723 -0.2186 -0.3125
v 1.0888 -0.3436 0.3125
v 1.0888 -0.3436 -0.3125
v 1.0888 -0.5936 -0.3125
v 0.8723 -0.7186 0.3125
v 0.8723 -0.7186 -0.3125
v 0.6558 -0.5936 -0.3125
v 0.8723 -0.2186 0.3125
v 1.0888 -0.5936 0.3125
v 0.6558 -0.5936 0.3125
v 0.6558 -0.3436 -0.3125
v 0.6558 -0.3436 0.3125
v -0.475 0.8134 1.8697
v -0.475 0.7509 0.3697
v -0.475 0.7509 1.8697
v -0.4125 0.8134 0.3697
v -0.4125 0.7509 1.8697
v -0.4125 0.7509 0.3697
v -0.475 0.7509 1.9322
v -0.475 0.8134 0.3697
v -0.4125 0.8134 1.8697
v -0.475 0.2509 1.9322
v -0.4125 0.7509 1.9322
v -0.4125 0.2509 1.8697
v -0.475 0.2509 1.8697
v -0.4125 0.2509 1.9322
v 0.475 0.7509 0.3697
v 0.475 0.8134 1.8697
v 0.475 0.7509 1.8697
v 0.4125 0.7509 1.8697
v 0.4125 0.8134 0.3697
v 0.4125 0.7509 0.3697
v 0.475 0.7509 1.9322
v 0.4125 0.8134 1.8697
v 0.475 0.8134 0.3697
v 0.475 0.2509 1.9322
v 0.4125 0.7509 1.9322
v 0.475 0.2509 1.8697
v 0.4125 0.2509 1.8697
v 0.4125 0.2509 1.9322
v -0.475 -0.7509 0.3697
v -0.475 -0.8134 1.8697
v -0.475 -0.7509 1.8697
v -0.4125 -0.7509 1.8697
v -0.4125 -0.8134 0.3697
v -0.4125 -0.7509 0.3697
v -0.475 -0.7509 1.9322
v -0.4125 -0.8134 1.8697
v -0.475 -0.8134 0.3697
v -0.475 -0.2509 1.9322
v -0.4125 -0.7509 1.9322
v -0.475 -0.2509 1.8697
v -0.4125 -0.2509 1.8697
v -0.4125 -0.2509 1.9322
v 0.475 -0.8134 1.8697
v 0.475 -0.7509 0.3697
v 0.475 -0.7509 1.8697
v 0.4125 -0.8134 0.3697
v 0.4125 -0.7509 1.8697
v 0.4125 -0.7509 0.3697
v 0.475 -0.7509 1.9322
v 0.475 -0.8134 0.3697
v 0.4125 -0.8134 1.8697
v 0.475 -0.2509 1.9322
v 0.4125 -0.7509 1.9322
v 0.475 -0.2509 1.8697
v 0.4125 -0.2509 1.8697
v 0.4125 -0.2509 1.9322
v 0.4739 0.6118 -0.6798
v 0.5362 0.9868 -0.6746
v 0.5362 0.6118 -0.6746
v 0.4688 0.9868 -0.6175
v 0.4688 0.6118 -0.6175
v 0.531 0.9868 -0.6123
v 0.531 0.6118 -0.6123
v 0.4739 0.9868 -0.6798
v 0.531 1.0493 -0.6123
v 0.3048 1.0493 2.1283
v 0.3048 0.9868 2.1283
v 0.4688 1.0493 -0.6175
v 0.2996 0.9868 2.1906
v 0.2425 0.9868 2.1232
v 0.2425 1.0493 2.1232
v 0.2996 0.6118 2.1906
v 0.3048 0.6118 2.1283
v 0.2373 0.9868 2.1855
v 0.2425 0.6118 2.1232
v 0.2373 0.6118 2.1855
v 0.6732 -0.5 -0.4718
v 0.3268 -0.5 -0.4718
v 0.3268 -0.5 -0.8182
v 0.3775 0.625 -0.645
v 0.5866 0.625 -0.5584
v 0.6225 0.625 -0.645
v -0.25 -0.75 -2.125
v 0.25 0.6875 -2.125
v -0.25 0.6875 -2.125
v 0.25 0.6875 -1.375
v 0.25 -0.75 -1.375
v -0.25 0.6875 -1.375
v -0.25 0.75 -2.125
v -0.25 1.0625 -2.125
v -0.25 0.75 -2.375
v -0.25 -0.75 -2.375
v 0.25 -0.75 -2.375
v 0.25 -0.75 -2.125
v 0.25 0.75 -1.375
v 0.25 1.0625 -1.9375
v 0.25 1.0625 -1.375
v 0.25 0.6875 -2.375
v -0.25 -0.75 -1.375
v -0.25 0.6875 -0.375
v 0.25 -0.75 -0.375
v -0.25 -0.75 -0.375
v 0.25 0.75 -2.125
v 0.25 1.0625 -2.125
v -0.25 0.6875 -2.375
v -0.25 0.75 -1.375
v 0.25 0.75 -0.375
v 0.25 0.6875 -0.375
v -0.25 1.0625 -1.9375
v -0.25 1.0625 -1.375
v 0.25 1.0625 -0.625
v -0.25 1.0625 -0.625
v -0.25 0.75 -0.375
v 0.25 0.75 -2.375
v 0.0446 0.0772 1.5154
v 0 0.1702 1.5154
v 0.0851 0.1474 1.5154
v 0.1474 0.0851 1.5154
v 0.0772 0.0446 1.5154
v 0.0891 0 1.5154
v 0.1702 0 1.5154
v 0.0772 -0.0446 1.5154
v 0.1474 -0.0851 1.5154
v 0.0851 -0.1474 1.5154
v 0.0446 -0.0772 1.5154
v 0 -0.1702 1.5154
v 0 -0.0891 1.5154
v -0.0851 -0.1474 1.5154
v -0.0446 -0.0772 1.5154
v -0.1474 -0.0851 1.5154
v -0.0772 -0.0446 1.5154
v -0.1702 0 1.5154
v -0.0891 0 1.5154
v -0.0772 0.0446 1.5154
v -0.1474 0.0851 1.5154
v -0.0446 0.0772 1.5154
v -0.0851 0.1474 1.5154
v 0 0.0891 1.5154
v 0 0.5995 4
v 0.3622 0.6274 4
v 0 0.7244 4
v 0.5995 0 4
v 0.6274 0.3622 4
v 0.5192 0.2997 4
v 0.6274 -0.3622 4
v 0.7244 0 4
v 0.2997 -0.5192 4
v 0 -0.7244 4
v 0.3622 -0.6274 4
v -0.2997 -0.5192 4
v 0 -0.5995 4
v -0.5192 -0.2997 4
v -0.7244 0 4
v -0.6274 -0.3622 4
v -0.5995 0 4
v -0.6274 0.3622 4
v -0.3622 0.6274 4
v -0.2997 0.5192 4
v -0.5192 0.2997 3
v -0.3622 0.6274 3
v -0.6274 0.3622 3
v 0.2997 0.5192 3
v 0.6274 0.3622 3
v 0.3622 0.6274 3
v 0.5192 -0.2997 3
v 0.3622 -0.6274 3
v 0.6274 -0.3622 3
v -0.2997 -0.5192 3
v -0.6274 -0.3622 3
v -0.3622 -0.6274 3
v 0.0504 0.0874 2
v 0 0.5995 2
v 0 0.1009 2
v 0.0874 0.0504 2
v 0.2997 0.5192 2
v 0.1009 0 2
v 0.5192 0.2997 2
v 0.5192 -0.2997 2
v 0.5995 0 2
v 0.0504 -0.0874 2
v 0.0874 -0.0504 2
v 0 -0.5995 2
v 0.2997 -0.5192 2
v -0.0504 -0.0874 2
v 0 -0.1009 2
v -0.0874 -0.0504 2
v -0.2997 -0.5192 2
v -0.5995 0 2
v -0.5192 -0.2997 2
v -0.0874 0.0504 2
v -0.1009 0 2
v -0.2997 0.5192 2
v -0.5192 0.2997 2
v -0.0504 0.0874 2
v -0.0874 0.0504 5.6114
v 0.0874 -0.0504 5.6114
v 0.0874 0.0504 5.6114
v 0.5 0.866 0.375
v 1 -0 -0.375
v 0.5 0.866 -0.375
v 0.5 -0.866 0.375
v 0.5 -0.866 -0.375
v -0.5 -0.866 -0.375
v -1 0 0.375
v -1 -0 -0.375
v -0.5 0.866 0.375
v -0.5 0.866 -0.375
v 0.5 0.866 -2.375
v 1 -0 -3.125
v 0.5 0.866 -3.125
v 1 -0 -2.375
v 0.5 -0.866 -3.125
v 0.5 -0.866 -2.375
v -0.5 -0.866 -3.125
v -0.5 -0.866 -2.375
v -1 -0 -3.125
v -0.5 0.866 -2.375
v -1 -0 -2.375
v -0.5 0.866 -3.125
v -0.48 0.6118 -0.6796
v -0.5422 0.9868 -0.6744
v -0.5422 0.6118 -0.6744
v -0.5371 0.9868 -0.6122
v -0.5371 0.6118 -0.6122
v -0.4748 0.9868 -0.6173
v -0.4748 0.6118 -0.6173
v -0.48 0.9868 -0.6796
v -0.5371 1.0493 -0.6122
v -0.4748 1.0493 -0.6173
v -0.2485 0.9868 2.1234
v -0.2434 0.9868 2.1857
v -0.2485 1.0493 2.1234
v -0.3108 0.9868 2.1285
v -0.3108 1.0493 2.1285
v -0.2485 0.6118 2.1234
v -0.3057 0.9868 2.1908
v -0.3057 0.6118 2.1908
v -0.6732 -0.5 -0.8182
v -0.255 -0.5 -0.645
v -0.3268 -0.5 -0.4718
v -0.3775 0.625 -0.645
v -0.5866 0.625 -0.7316
v -0.6225 0.625 -0.645
v -0.2073 0.9899 -0.7505
v -0.2691 0.966 -0.8083
v -0.2073 0.966 -0.8083
v -0.2691 0.9083 -0.8322
v -0.2073 0.9083 -0.8322
v -0.2691 0.8505 -0.8083
v -0.2073 0.8505 -0.8083
v -0.2073 0.8266 -0.7505
v -0.2691 0.8266 -0.7505
v -0.2073 0.8505 -0.6928
v -0.2691 0.8505 -0.6928
v -0.2073 0.9083 -0.6689
v -0.2691 0.966 -0.6928
v -0.2073 0.966 -0.6928
v -0.2958 0.9083 -0.6843
v -0.2958 0.8614 -0.7974
v -0.2958 0.9083 -0.8168
v -0.2691 0.9899 -1.1588
v -0.2073 0.966 -1.2166
v -0.2073 0.9899 -1.1588
v -0.2691 0.9083 -1.2405
v -0.2073 0.9083 -1.2405
v -0.2691 0.8505 -1.2166
v -0.2073 0.8505 -1.2166
v -0.2691 0.8266 -1.1588
v -0.2073 0.8266 -1.1588
v -0.2691 0.8505 -1.1011
v -0.2073 0.8505 -1.1011
v -0.2691 0.9083 -1.0772
v -0.2073 0.9083 -1.0772
v -0.2073 0.966 -1.1011
v -0.2958 0.9083 -1.0926
v -0.2958 0.8614 -1.2057
v -0.2958 0.9083 -1.2251
v -0.2073 0.9899 -1.5671
v -0.2691 0.966 -1.6249
v -0.2073 0.966 -1.6249
v -0.2691 0.9083 -1.6488
v -0.2073 0.9083 -1.6488
v -0.2073 0.8505 -1.6249
v -0.2691 0.8266 -1.5672
v -0.2073 0.8266 -1.5672
v -0.2073 0.8505 -1.5094
v -0.2691 0.9083 -1.4855
v -0.2073 0.9083 -1.4855
v -0.2073 0.966 -1.5094
v -0.2691 0.966 -1.5094
v -0.2958 0.9083 -1.5009
v -0.2958 0.8614 -1.614
v -0.2958 0.9083 -1.6334
v -0.2073 0.9899 -1.9755
v -0.2691 0.966 -2.0332
v -0.2073 0.966 -2.0332
v -0.2073 0.9083 -2.0571
v -0.2691 0.9083 -2.0571
v -0.2073 0.8505 -2.0332
v -0.2691 0.8266 -1.9755
v -0.2073 0.8266 -1.9755
v -0.2073 0.8505 -1.9177
v -0.2691 0.8505 -1.9177
v -0.2073 0.9083 -1.8938
v -0.2691 0.9083 -1.8938
v -0.2073 0.966 -1.9177
v -0.2691 0.966 -1.9177
v -0.2958 0.9083 -1.9092
v -0.2958 0.842 -1.9755
v -0.2958 0.9745 -1.9755
v 0.1732 -0.1732 -3.1189
v 0 -0.245 -3.1189
v -0.245 -0 -3.1189
v 0.1732 0.1732 0.3689
v 0 0.245 0.3689
v -0.1732 0.1732 0.3689
v -0.1732 -0.1732 0.3689
v 0.1732 -0.1732 0.3689
v 0.25 0.9453 -2.9586
v 0.25 1.0319 -2.9945
v 0.25 1.1185 -2.9586
v 0.25 1.1185 -2.7854
v 0.25 0.9453 -2.7854
v 0.2691 0.9083 -0.8322
v 0.2691 0.8266 -0.7505
v 0.2958 0.9551 -0.7974
v 0.2958 0.9745 -0.7505
v 0.2958 0.9551 -0.7037
v 0.2958 0.8614 -0.7037
v 0.2958 0.8614 -0.7974
v 0.2691 0.8266 -1.1588
v 0.2958 0.9551 -1.2057
v 0.2958 0.9745 -1.1588
v 0.2958 0.9551 -1.112
v 0.2958 0.8614 -1.112
v 0.2958 0.842 -1.1588
v 0.2691 0.9083 -1.4855
v 0.2958 0.9551 -1.614
v 0.2958 0.9745 -1.5671
v 0.2958 0.9551 -1.5203
v 0.2958 0.8614 -1.5203
v 0.2958 0.842 -1.5671
v 0.2691 0.9899 -1.9755
v 0.2691 0.8266 -1.9755
v 0.2958 0.9551 -2.0223
v 0.2958 0.9745 -1.9755
v 0.2958 0.9551 -1.9286
v 0.2958 0.8614 -1.9286
v 0.2958 0.842 -1.9755
v 0.6618 -0.6217 2.4443
v 0.6977 -0.5596 2.2711
v 0.8709 -0.2595 2.2711
v 0.8709 -0.2595 2.6175
v 0.6977 -0.5596 2.6175
v 0.6544 -0.1345 2.2711
v 0.5678 -0.2845 2.1993
v 0.4453 -0.4967 2.4443
v 0.5678 -0.2845 2.6893
v 0.6903 -0.0724 2.4443
v 0.5 -0.5 -0.89
v 0.6732 -0.5 -0.8182
v 0.745 -0.5 -0.645
v 0.5 -0.5 -0.4
v 0.255 -0.5 -0.645
v 0.5866 0.625 -0.7316
v 0.5 0.625 -0.7675
v 0.4134 0.625 -0.7316
v 0.4134 0.625 -0.5584
v 0.5 0.625 -0.5225
v 0.2997 0.5192 4
v 0.5192 -0.2997 4
v -0.3622 -0.6274 4
v -0.5192 0.2997 4
v -0.2997 0.5192 3
v 0.5192 0.2997 3
v 0.2997 -0.5192 3
v -0.5192 -0.2997 3
v 0.0504 0.0874 5.6114
v 0 0.1009 5.6114
v -0.0504 0.0874 5.6114
v -0.1009 0 5.6114
v 0 -0.1009 5.6114
v -0.0874 -0.0504 5.6114
v -0.0504 -0.0873 5.6114
v 0.0504 -0.0873 5.6114
v 0.1009 0 5.6114
v 1 0 0.375
v -0.5 -0.866 0.375
v -0.2434 0.6118 2.1857
v -0.3108 0.6118 2.1285
v -0.5 -0.5 -0.4
v -0.6732 -0.5 -0.4718
v -0.745 -0.5 -0.645
v -0.5 -0.5 -0.89
v -0.3268 -0.5 -0.8182
v -0.5866 0.625 -0.5584
v -0.5 0.625 -0.5225
v -0.4134 0.625 -0.5584
v -0.4134 0.625 -0.7316
v -0.5 0.625 -0.7675
v -0.2691 0.9899 -0.7505
v -0.2691 0.9083 -0.6689
v -0.2958 0.9551 -0.7974
v -0.2958 0.9745 -0.7505
v -0.2958 0.9551 -0.7037
v -0.2958 0.8614 -0.7037
v -0.2958 0.842 -0.7505
v -0.2691 0.966 -1.2166
v -0.2691 0.966 -1.1011
v -0.2958 0.9551 -1.2057
v -0.2958 0.9745 -1.1588
v -0.2958 0.9551 -1.112
v -0.2958 0.8614 -1.112
v -0.2958 0.842 -1.1588
v -0.2691 0.9899 -1.5671
v -0.2691 0.8505 -1.6249
v -0.2691 0.8505 -1.5094
v -0.2958 0.9551 -1.614
v -0.2958 0.9745 -1.5671
v -0.2958 0.9551 -1.5203
v -0.2958 0.8614 -1.5203
v -0.2958 0.842 -1.5672
v -0.2691 0.9899 -1.9755
v -0.2691 0.8505 -2.0332
v -0.2958 0.9083 -2.0417
v -0.2958 0.9551 -2.0223
v -0.2958 0.9551 -1.9286
v -0.2958 0.8614 -1.9286
v -0.2958 0.8614 -2.0223
v -0.1732 0.1732 -3.1189
v 0 0.245 -3.1189
v 0.1732 0.1732 -3.1189
v 0.245 -0 -3.1189
v -0.1732 -0.1732 -3.1189
v 0.25 0.9453 -2.7136
v 0.25 1.0319 -2.7495
v 0.25 1.1185 -2.7136
v 0.25 1.1185 -2.5404
v 0.25 0.9453 -2.5404
v -0.25 1.0319 -2.7495
v -0.25 0.9453 -2.7136
v -0.25 0.9094 -2.627
v -0.25 1.0319 -2.5045
v -0.25 1.1185 -2.5404
v -0.25 1.0319 -2.9945
v -0.25 0.9453 -2.9586
v -0.25 0.9094 -2.872
v -0.25 1.0319 -2.7495
v -0.25 1.1185 -2.7854
v 0.8767 -0.552 2.5482
v 0.5861 -0.3044 2.5934
v 0.551 -0.365 2.5746
v 0.843 -0.5917 2.4978
v 0.5252 -0.4093 2.5234
v 0.8226 -0.6015 2.429
v 0.5157 -0.4254 2.4534
v 0.8209 -0.5789 2.3601
v 0.5249 -0.4091 2.3834
v 0.8385 -0.5299 2.3097
v 0.5504 -0.3646 2.3321
v 0.8705 -0.4675 2.2913
v 0.5853 -0.304 2.3134
v 0.6204 -0.2434 2.3321
v 0.6461 -0.1991 2.3834
v 0.9085 -0.4086 2.3097
v 0.6557 -0.1829 2.4534
v 0.9422 -0.3689 2.3601
v 0.6465 -0.1993 2.5234
v 0.9626 -0.359 2.429
v 0.621 -0.2437 2.5746
v 0.9643 -0.3817 2.4978
v 0.9467 -0.4307 2.5482
v 1.1012 -0.6816 2.469
v 0.9147 -0.493 2.5666
v 1.0554 -0.7143 2.4234
v 1.0185 -0.7146 2.361
v 1.0003 -0.6825 2.2987
v 1.0058 -0.6264 2.253
v 1.0334 -0.5616 2.2363
v 1.0758 -0.5052 2.253
v 1.1216 -0.4725 2.2987
v 1.1585 -0.4721 2.361
v 1.1767 -0.5043 2.4234
v 1.1712 -0.5603 2.469
v 1.2562 -0.7711 2.3305
v 1.1436 -0.6252 2.4857
v 1.1962 -0.7956 2.2982
v 1.1397 -0.7846 2.2541
v 1.102 -0.7412 2.21
v 1.0932 -0.6769 2.1777
v 1.1156 -0.609 2.1659
v 1.1632 -0.5557 2.1777
v 1.2233 -0.5312 2.21
v 1.2797 -0.5421 2.2541
v 1.3174 -0.5856 2.2982
v 1.3262 -0.6498 2.3305
v 1.3856 -0.765 2.1471
v 1.3039 -0.7177 2.3424
v 1.3349 -0.8165 2.1425
v 1.2662 -0.836 2.13
v 1.1981 -0.8183 2.1128
v 1.1487 -0.7681 2.0957
v 1.1313 -0.6989 2.0832
v 1.2013 -0.5777 2.0832
v 1.2699 -0.5581 2.0957
v 1.3381 -0.5758 2.1128
v 1.3875 -0.626 2.13
v 1.4049 -0.6952 2.1425
v 1.3964 -0.7711 1.9321
v 1.3452 -0.8224 1.9334
v 1.2753 -0.8412 1.9369
v 1.2054 -0.8225 1.9417
v 1.1543 -0.7714 1.9465
v 1.1505 -0.6292 2.0786
v 1.1356 -0.7014 1.9499
v 1.2056 -0.5802 1.9499
v 1.2755 -0.5614 1.9465
v 1.3454 -0.5801 1.9417
v 1.3965 -0.6312 1.9369
v 1.4152 -0.7012 1.9334
v 1.361 -0.7507 1.7112
v 1.3103 -0.8023 1.7157
v 1.2416 -0.8218 1.7282
v 1.1734 -0.8041 1.7452
v 1.124 -0.7539 1.7623
v 1.1544 -0.6315 1.9512
v 1.1066 -0.6847 1.7747
v 1.1766 -0.5634 1.7747
v 1.2453 -0.5439 1.7623
v 1.3134 -0.5616 1.7452
v 1.3629 -0.6118 1.7282
v 1.3803 -0.681 1.7157
v 1.2987 -0.7148 1.4826
v 1.2483 -0.7665 1.4887
v 1.1807 -0.7867 1.5053
v 1.114 -0.7698 1.5281
v 1.0661 -0.7204 1.5508
v 1.1258 -0.615 1.7793
v 1.0497 -0.6518 1.5674
v 1.1197 -0.5306 1.5674
v 1.1873 -0.5104 1.5508
v 1.254 -0.5273 1.5281
v 1.302 -0.5767 1.5053
v 1.3183 -0.6453 1.4887
v 1.2226 -0.6708 1.2459
v 1.1724 -0.7227 1.2524
v 1.1052 -0.743 1.2703
v 1.039 -0.7265 1.2947
v 0.9915 -0.6774 1.3191
v 1.0694 -0.5823 1.5735
v 0.9755 -0.609 1.3369
v 1.0455 -0.4878 1.3369
v 1.1128 -0.4674 1.3191
v 1.179 -0.484 1.2947
v 1.2264 -0.533 1.2703
v 1.2424 -0.6014 1.2524
v 1.1445 -0.6257 1.0036
v 1.0942 -0.6775 1.0098
v 1.0267 -0.6977 1.0267
v 0.96 -0.6809 1.0497
v 0.9122 -0.6316 1.0727
v 0.9953 -0.5396 1.3435
v 0.8959 -0.563 1.0896
v 0.9659 -0.4418 1.0896
v 1.0334 -0.4216 1.0727
v 1.1 -0.4384 1.0497
v 1.1479 -0.4877 1.0267
v 1.1642 -0.5563 1.0098
v 1.0759 -0.5861 0.7601
v 1.0252 -0.6377 0.7651
v 0.9568 -0.6574 0.7789
v 0.889 -0.6399 0.7976
v 0.84 -0.5899 0.8164
v 0.9155 -0.4935 1.0958
v 0.8229 -0.5209 0.8301
v 0.8929 -0.3996 0.8301
v 0.9613 -0.3799 0.8164
v 1.029 -0.3974 0.7976
v 1.0781 -0.4474 0.7789
v 1.0952 -0.5164 0.7651
v 1.0275 -0.5582 0.5209
v 0.9765 -0.6095 0.5238
v 0.907 -0.6286 0.532
v 0.8378 -0.6103 0.5431
v 0.7873 -0.5595 0.5541
v 0.8422 -0.4512 0.8352
v 0.7691 -0.4898 0.5623
v 0.8391 -0.3686 0.5623
v 0.9086 -0.3495 0.5541
v 0.9778 -0.3678 0.5431
v 1.0283 -0.4186 0.532
v 1.0465 -0.4883 0.5238
v 1.0093 -0.5477 0.2905
v 0.9581 -0.5989 0.2905
v 0.8881 -0.6177 0.2905
v 0.8181 -0.5989 0.2905
v 0.7669 -0.5477 0.2905
v 0.7881 -0.4199 0.5652
v 0.7481 -0.4777 0.2905
v 0.8181 -0.3564 0.2905
v 0.8881 -0.3377 0.2905
v 0.9581 -0.3564 0.2905
v 1.0093 -0.4077 0.2905
v 1.0281 -0.4777 0.2905
v 0 0.245 -0.3689
v 0.1732 0.1732 -0.3689
v 0.245 -0 -0.3689
v 0.1732 -0.1732 -0.3689
v 0 -0.245 -0.3689
v -0.1732 -0.1732 -0.3689
v -0.245 -0 -0.3689
v -0.1732 0.1732 -0.3689
v 0.7145 0.4125 0
v 0.7227 0 0.2472
v 0.8251 0 0
v 0.4118 0.2377 0.3496
v 0.4755 0 0.3496
v 0.2283 0 0.2472
v 0.1977 0.1141 0.2472
v 0.1259 0 0
v 0.1977 0.1141 -0.2472
v 0.2283 0 -0.2472
v 0.4118 0.2377 -0.3496
v 0.4755 0 -0.3496
v 0.7227 0 -0.2472
v 0.4125 0.7145 0
v 0.6259 0.3613 0.2472
v 0.2377 0.4118 0.3496
v 0.1141 0.1977 0.2472
v 0.109 0.0629 0
v 0.0629 0.109 0
v 0.1141 0.1977 -0.2472
v 0.2377 0.4118 -0.3496
v 0.6259 0.3613 -0.2472
v 0 0.7227 0.2472
v 0.3613 0.6259 0.2472
v 0 0.4755 0.3496
v 0 0.2283 0.2472
v 0 0.2283 -0.2472
v 0 0.4755 -0.3496
v 0 0.7227 -0.2472
v 0.3613 0.6259 -0.2472
v 0 0.8251 0
v -0.4125 0.7145 0
v -0.2377 0.4118 0.3496
v -0.1141 0.1977 0.2472
v 0 0.1259 0
v -0.1141 0.1977 -0.2472
v -0.2377 0.4118 -0.3496
v -0.6259 0.3613 0.2472
v -0.3613 0.6259 0.2472
v -0.4118 0.2377 0.3496
v -0.109 0.0629 0
v -0.0629 0.109 0
v -0.4118 0.2377 -0.3496
v -0.6259 0.3613 -0.2472
v -0.3613 0.6259 -0.2472
v -0.8251 0 0
v -0.7145 0.4125 0
v -0.7227 0 0.2472
v -0.2283 0 0.2472
v -0.1977 0.1141 0.2472
v -0.1259 0 0
v -0.1977 0.1141 -0.2472
v -0.2283 0 -0.2472
v -0.7227 0 -0.2472
v -0.6259 -0.3613 0.2472
v -0.4755 0 0.3496
v -0.1977 -0.1141 0.2472
v -0.109 -0.0629 0
v -0.1977 -0.1141 -0.2472
v -0.4755 0 -0.3496
v -0.6259 -0.3613 -0.2472
v -0.7145 -0.4125 0
v -0.3613 -0.6259 0.2472
v -0.4118 -0.2377 0.3496
v -0.1141 -0.1977 0.2472
v -0.1141 -0.1977 -0.2472
v -0.4118 -0.2377 -0.3496
v -0.3613 -0.6259 -0.2472
v -0.4125 -0.7145 0
v 0 -0.7227 0.2472
v -0.2377 -0.4118 0.3496
v 0 -0.4755 0.3496
v 0 -0.2283 0.2472
v -0.0629 -0.109 0
v 0 -0.2283 -0.2472
v -0.2377 -0.4118 -0.3496
v 0 -0.7227 -0.2472
v 0.4125 -0.7145 0
v 0 -0.8251 0
v 0.2377 -0.4118 0.3496
v 0.1141 -0.1977 0.2472
v 0 -0.1259 0
v 0.0629 -0.109 0
v 0.1141 -0.1977 -0.2472
v 0 -0.4755 -0.3496
v 0.2377 -0.4118 -0.3496
v 0.6259 -0.3613 0.2472
v 0.3613 -0.6259 0.2472
v 0.4118 -0.2377 0.3496
v 0.1977 -0.1141 0.2472
v 0.109 -0.0629 0
v 0.4118 -0.2377 -0.3496
v 0.6259 -0.3613 -0.2472
v 0.3613 -0.6259 -0.2472
v 0.7145 -0.4125 0
v 0.1977 -0.1141 -0.2472
v 0.5 0.5 -0.89
v 0.6732 0.5 -0.8182
v 0.6732 0.5 -0.4718
v 0.5 0.5 -0.4
v 0.3268 0.5 -0.4718
v 0.255 0.5 -0.645
v 0.3268 0.5 -0.8182
v 0.745 0.5 -0.645
v 0 0.7244 3
v 0.3622 0.6274 2
v 0 0.7244 2
v 0.6274 0.3622 2
v 0.7244 0 2
v 0.7244 0 3
v 0.6274 -0.3622 2
v 0.3622 -0.6274 2
v 0 -0.7244 2
v 0 -0.7244 3
v -0.3622 -0.6274 2
v -0.6274 -0.3622 2
v -0.7244 0 2
v -0.7244 0 3
v -0.6274 0.3622 2
v 0.5995 0 3
v -0.3622 0.6274 2
v -0.3254 -0.5636 1.8036
v 0.5636 -0.3254 1.8036
v 0.4848 0 1.6375
v 0.6508 0 1.8036
v 0 -0.6508 1.8036
v 0.3254 -0.5636 1.8036
v -0.3254 0.5636 1.8036
v 0.3254 0.5636 1.8036
v 0 0.6508 1.8036
v 0.5636 0.3254 1.8036
v -0.5636 0.3254 1.8036
v -0.6508 0 1.8036
v -0.5636 -0.3254 1.8036
v 0 -0.4848 1.6375
v -0.2424 0.4199 1.6375
v -0.4199 0.2424 1.6375
v 0.2424 0.4199 1.6375
v 0 0.4848 1.6375
v -0.4199 -0.2424 1.6375
v -0.2424 -0.4199 1.6375
v 0.4199 -0.2424 1.6375
v 0.2424 -0.4199 1.6375
v 0.4199 0.2424 1.6375
v -0.4848 0 1.6375
v -0.0772 0.0446 0.2201
v -0.0891 0 0.2201
v 0 -0.0891 0.2201
v 0.0772 -0.0446 0.2201
v 0.0891 0 0.2201
v 0 0.0891 0.2201
v -0.0446 -0.0772 0.2201
v 0.0446 -0.0772 0.2201
v -0.0446 0.0772 0.2201
v 0.0772 0.0446 0.2201
v 0.0446 0.0772 0.2201
v -0.0772 -0.0446 0.2201
v 0 0.5995 3
v -0.5995 0 3
v 0 -0.5995 3
v -0.5 0.5 -0.4
v -0.745 0.5 -0.645
v -0.5 0.5 -0.89
v -0.255 0.5 -0.645
v -0.6732 0.5 -0.8182
v -0.3268 0.5 -0.4718
v -0.6732 0.5 -0.4718
v -0.3268 0.5 -0.8182
v 0.7145 0.4125 -2.75
v 0.7227 0 -2.5028
v 0.8251 0 -2.75
v 0.4118 0.2377 -2.4004
v 0.4755 0 -2.4004
v 0.2283 0 -2.5028
v 0.1977 0.1141 -2.5028
v 0.1259 0 -2.75
v 0.1977 0.1141 -2.9972
v 0.2283 0 -2.9972
v 0.4118 0.2377 -3.0996
v 0.4755 0 -3.0996
v 0.7227 0 -2.9972
v 0.4125 0.7145 -2.75
v 0.6259 0.3613 -2.5028
v 0.2377 0.4118 -2.4004
v 0.1141 0.1977 -2.5028
v 0.0629 0.109 -2.75
v 0.109 0.0629 -2.75
v 0.1141 0.1977 -2.9972
v 0.2377 0.4118 -3.0996
v 0.6259 0.3613 -2.9972
v 0 0.8251 -2.75
v 0.3613 0.6259 -2.5028
v 0 0.7227 -2.5028
v 0 0.4755 -2.4004
v 0 0.2283 -2.5028
v 0 0.2283 -2.9972
v 0 0.4755 -3.0996
v 0 0.7227 -2.9972
v 0.3613 0.6259 -2.9972
v -0.3613 0.6259 -2.5028
v -0.2377 0.4118 -2.4004
v -0.1141 0.1977 -2.5028
v 0 0.1259 -2.75
v -0.1141 0.1977 -2.9972
v -0.2377 0.4118 -3.0996
v -0.3613 0.6259 -2.9972
v -0.4125 0.7145 -2.75
v -0.6259 0.3613 -2.5028
v -0.4118 0.2377 -2.4004
v -0.1977 0.1141 -2.5028
v -0.0629 0.109 -2.75
v -0.109 0.0629 -2.75
v -0.4118 0.2377 -3.0996
v -0.6259 0.3613 -2.9972
v -0.8251 0 -2.75
v -0.7145 0.4125 -2.75
v -0.7227 0 -2.5028
v -0.2283 0 -2.5028
v -0.1259 0 -2.75
v -0.1977 0.1141 -2.9972
v -0.2283 0 -2.9972
v -0.7227 0 -2.9972
v -0.6259 -0.3613 -2.5028
v -0.4755 0 -2.4004
v -0.1977 -0.1141 -2.5028
v -0.1977 -0.1141 -2.9972
v -0.4755 0 -3.0996
v -0.6259 -0.3613 -2.9972
v -0.7145 -0.4125 -2.75
v -0.3613 -0.6259 -2.5028
v -0.4118 -0.2377 -2.4004
v -0.1141 -0.1977 -2.5028
v -0.0629 -0.109 -2.75
v -0.109 -0.0629 -2.75
v -0.1141 -0.1977 -2.9972
v -0.4118 -0.2377 -3.0996
v -0.3613 -0.6259 -2.9972
v -0.4125 -0.7145 -2.75
v 0 -0.7227 -2.5028
v -0.2377 -0.4118 -2.4004
v 0 -0.4755 -2.4004
v 0 -0.2283 -2.5028
v 0 -0.1259 -2.75
v 0 -0.4755 -3.0996
v -0.2377 -0.4118 -3.0996
v 0 -0.7227 -2.9972
v 0.4125 -0.7145 -2.75
v 0 -0.8251 -2.75
v 0.2377 -0.4118 -2.4004
v 0.1141 -0.1977 -2.5028
v 0.1141 -0.1977 -2.9972
v 0 -0.2283 -2.9972
v 0.2377 -0.4118 -3.0996
v 0.6259 -0.3613 -2.5028
v 0.3613 -0.6259 -2.5028
v 0.4118 -0.2377 -2.4004
v 0.109 -0.0629 -2.75
v 0.0629 -0.109 -2.75
v 0.4118 -0.2377 -3.0996
v 0.6259 -0.3613 -2.9972
v 0.3613 -0.6259 -2.9972
v 0.7145 -0.4125 -2.75
v 0.1977 -0.1141 -2.5028
v 0.1977 -0.1141 -2.9972
v 0 0.245 -2.3811
v -0.1732 0.1732 -2.3811
v -0.245 -0 -2.3811
v -0.1732 -0.1732 -2.3811
v 0 -0.245 -2.3811
v 0.1732 -0.1732 -2.3811
v 0.245 -0 -2.3811
v 0.1732 0.1732 -2.3811
v 0.7669 -0.4077 0.2905
v 0.4125 -0.8134 1.1197
v -0.5 -0 -3.125
v 0.5 0 0.375
v 0.4179 0.9868 0.758
v -0.475 -0.8134 1.1197
v 0.0874 0.0504 3.8057
v -0.0874 0.0504 3.8057
v 0.475 0.7509 1.1197
v -0.424 0.9868 0.7582
v 0.25 -0.433 -0.375
v 0.4125 -0.7509 1.1197
v -0.1009 0 3.8057
v -0.4125 -0.7509 1.1197
v 0.5 -0 -2.375
v 0.375 -1.5553 -4.375
v 0.475 0.8134 1.1197
v 0.1009 0 3.8057
v -0.0504 -0.0873 3.8057
v -0.3617 0.9868 0.753
v 0.4179 1.0493 0.758
v 0.25 0.433 -3.125
v -0.475 0.8134 1.1197
v -0.25 -0.433 0.375
v -0.4125 -0.8134 1.1197
v 0 -0.1009 3.8057
v 0.4125 0.7509 1.1197
v -0.375 -1.5553 -4.375
v -0.475 0.7509 1.1197
v -0.0504 0.0874 3.8057
v -0.0874 -0.0504 3.8057
v 0.4125 0.8134 1.1197
v 0.475 -0.8134 1.1197
v -0.5 -0 -0.375
v 0.0504 0.0874 3.8057
v 0.375 -0.6803 -4.375
v 0.3556 1.0493 0.7529
v -0.4125 0.8134 1.1197
v -0.424 1.0493 0.7582
v 0.3556 0.9868 0.7529
v 0.475 -0.7509 1.1197
v 0.0504 -0.0873 3.8057
v -0.475 -0.7509 1.1197
v -0.25 -0.433 -2.375
v -0.4125 0.7509 1.1197
v -0.3617 1.0493 0.753
v -0.375 -0.6803 -4.375
v 0 0.1009 3.8057
v 0.0874 -0.0504 3.8057
v 0.0874 0.0504 4.7086
v -0.1009 0 2.9029
v -0.0874 0.0504 4.7086
v 0.0874 0.0504 2.9029
v -0.1009 0 4.7086
v 0 -0.1009 2.9029
v -0.0504 -0.0874 2.9029
v 0.1009 0 4.7086
v -0.0504 -0.0873 4.7086
v 0.0504 0.0874 2.9029
v 0.0874 -0.0504 2.9029
v 0.1009 0 2.9029
v 0 -0.1009 4.7086
v 0 0.1009 2.9029
v -0.0504 0.0874 2.9029
v -0.0874 0.0504 2.9029
v -0.0504 0.0874 4.7086
v -0.0874 -0.0504 4.7086
v 0.0504 0.0874 4.7086
v 0.0504 -0.0873 4.7086
v -0.0874 -0.0504 2.9029
v 0.0504 -0.0874 2.9029
v 0 0.1009 4.7086
v 0.0874 -0.0504 4.7086
vt 0.2374 0.4632
vt 0.2284 0.4632
vt 0.2329 0.456
vt 0.137 0.7059
vt 0.21 0.6691
vt 0.21 0.7059
vt 0.4384 0.5
vt 0.4247 0.3824
vt 0.4384 0.3824
vt 0 0.3456
vt 0.0731 0.3382
vt 0.0731 0.3456
vt 0.2237 0.4706
vt 0.2192 0.4632
vt 0.2192 0.4706
vt 0.21 0.9265
vt 0.2831 0.9412
vt 0.21 0.9412
vt 0.0594 0.4118
vt 0.0457 0.4191
vt 0.0457 0.4118
vt 0.0731 0.9118
vt -0 0.9559
vt -0 0.9118
vt 0.1187 0.1105
vt 0.1187 0.1394
vt 0.1097 0.125
vt 0.2237 0.4338
vt 0.2192 0.4412
vt 0.2192 0.4338
vt 0.2237 0.4265
vt 0.2192 0.4265
vt 0.4338 0.625
vt 0.4384 0.7868
vt 0.4338 0.7868
vt 0.4429 0.625
vt 0.4475 0.7868
vt 0.4429 0.7868
vt 0.3014 0.8015
vt 0.2968 0.8603
vt 0.2968 0.8015
vt 0.0137 0.1103
vt 0.0183 0.1691
vt 0.0137 0.1691
vt 0.3105 0.7059
vt 0.3059 0.7941
vt 0.3059 0.7059
vt 0.3562 0.5
vt 0.3425 0.3824
vt 0.3562 0.3824
vt 0.2237 0.4559
vt 0.2192 0.4485
vt 0.2192 0.4559
vt 0.4429 0.9559
vt 0.4475 1
vt 0.4429 1
vt 0.3196 0.3015
vt 0.3744 0.3603
vt 0.3196 0.3603
vt 0.0731 0.8676
vt -0 0.8676
vt 0.4384 0.6176
vt 0.4338 0.5735
vt 0.4338 0.6176
vt 0.0731 0.8235
vt -0 0.8235
vt 0.3059 0.8603
vt 0.3014 0.8603
vt 0.3973 0.3824
vt 0.3836 0.5
vt 0.3836 0.3824
vt 0.3973 0.5
vt 0.4612 0.3605
vt 0.4612 0.3896
vt 0.4548 0.3648
vt 0.2237 0.4485
vt 0.4247 0.6801
vt 0.4292 0.5735
vt 0.4292 0.6801
vt 0.2192 0.4191
vt 0.2922 0.6176
vt 0.2968 0.7059
vt 0.2922 0.7059
vt 0.2361 0.4581
vt 0.4521 1
vt 0.4475 0.9559
vt 0.1187 0.14
vt 0.1187 0.169
vt 0.1123 0.1647
vt 0.0594 0.1691
vt 0.0548 0.1103
vt 0.0594 0.1103
vt 0.4429 0.9485
vt 0.4384 1
vt 0.4338 0.9559
vt 0.4384 0.9559
vt 0.137 0.3824
vt 0.1598 0.3897
vt 0.137 0.3897
vt 0.2237 0.4412
vt 0.2237 0.4191
vt 0.2831 0.9632
vt 0.21 1
vt 0.2831 1
vt 0.3973 0
vt 0.4521 0.0882
vt 0.3973 0.0882
vt 0 0.1103
vt 0.0091 0.1691
vt 0 0.1691
vt 0.4064 0.6801
vt 0.411 0.5735
vt 0.411 0.6801
vt 0.0731 0.125
vt 0.1096 0.1324
vt 0.0731 0.1324
vt 0.3014 0.6176
vt 0.3014 0.7059
vt 0.137 0.5956
vt 0.21 0.5588
vt 0.21 0.5956
vt 0.21 0.8162
vt 0.2831 0.8309
vt 0.21 0.8309
vt 0.3721 0.8385
vt 0.3779 0.8546
vt 0.3663 0.8546
vt 0.2192 0.4118
vt 0.2237 0.4118
vt 0.2831 0.8529
vt 0.2922 0.8897
vt 0.2831 0.8897
vt 0.137 0.9632
vt 0.21 0.9632
vt 0.2935 0.7978
vt 0.2968 0.7941
vt 0.0731 0.9559
vt -0 1
vt 0 0.3382
vt 0.0639 0.1103
vt 0.0594 0.0515
vt 0.0639 0.0515
vt 0.3046 0.7978
vt 0.3014 0.7941
vt 0.4566 0.1765
vt 0.5114 0.2353
vt 0.4566 0.2353
vt 0.0046 0.0074
vt -0 0.0221
vt 0 0.0074
vt 0.2968 0.6176
vt 0.2237 0.4632
vt 0.2831 0.6691
vt 0.3105 0.8015
vt 0.3059 0.8015
vt 0.2922 0.125
vt 0.3653 0.1838
vt 0.2922 0.1838
vt 0.4521 0.9559
vt 0.21 0.6324
vt 0.2831 0.6324
vt 0.21 0.8529
vt 0.21 0.8897
vt 0.3046 0.7979
vt 0.5982 0.4118
vt 0.653 0.5294
vt 0.5982 0.5294
vt 0.2831 0.5956
vt 0.2831 0.5588
vt 0.3881 1
vt 0.3836 0.8934
vt 0.3881 0.8934
vt 0.2831 0.6176
vt 0.21 0.6176
vt 0.0046 0.0294
vt 0.0411 0.0368
vt 0.0046 0.0368
vt -0 0.0515
vt 0.0046 0.0515
vt 0.4498 0.9522
vt 0.4475 0.9485
vt 0.1461 0.1691
vt 0.1644 0.3382
vt 0.1461 0.3382
vt 0.4407 0.9522
vt 0.4497 0.6213
vt 0.4475 0.625
vt 0.4475 0.6176
vt 0.4018 1
vt 0.3973 0.8934
vt 0.4018 0.8934
vt 0.8539 0.5294
vt 0.7991 0.6471
vt 0.7991 0.5294
vt 0.2922 0.8015
vt 0.2922 0.8603
vt 0.4406 0.6213
vt 0.4429 0.6176
vt 0.4429 0.5735
vt 0.4384 0.5735
vt 0.3973 0.5735
vt 0.4155 0.5
vt 0.4155 0.5735
vt 0.0457 0.4412
vt 0.0594 0.4485
vt 0.0457 0.4485
vt 0.1279 0.1691
vt 0.0457 0.0074
vt 0.0411 0.0221
vt 0.0411 0.0074
vt 0.379 0.5735
vt 0.3607 0.5
vt 0.379 0.5
vt 0.5982 0.6471
vt 0.5982 0.8824
vt 0.653 1
vt 0.5982 1
vt 0.0731 0.1691
vt 0.0731 0.1103
vt 0.4292 0.3015
vt 0.4155 0.3603
vt 0.4155 0.3015
vt 0.653 0.2941
vt 0.5982 0.2941
vt 0.2192 0.3456
vt 0.274 0.3824
vt 0.2192 0.3824
vt 0.3699 0.3824
vt -0 0.0294
vt 0.1279 0.3456
vt 0.1279 0.3824
vt 0.1142 0.3824
vt 0.3607 0.5735
vt 0.3425 0.5
vt 0.3294 0.9244
vt 0.3143 0.8705
vt 0.3321 0.9202
vt 0.0731 0.3824
vt 0.1324 0.4959
vt 0.137 0.4873
vt 0.137 0.4937
vt 0.137 0.8497
vt 0.1324 0.8418
vt 0.137 0.8434
vt 0.1324 0.9309
vt 0.137 0.9388
vt 0.1324 0.9413
vt 0.3333 0.7647
vt 0.3562 0.7794
vt 0.3333 0.7794
vt 0.1324 0.7631
vt 0.137 0.7544
vt 0.137 0.7607
vt 0.1781 0.3824
vt 0.1644 0.3456
vt 0.1324 0.8968
vt 0.137 0.8879
vt 0.137 0.8943
vt 0.137 0.7162
vt 0.1324 0.7081
vt 0.137 0.7099
vt 0.1324 0.8077
vt 0.137 0.7989
vt 0.137 0.8052
vt 0.137 0.5827
vt 0.1324 0.5745
vt 0.137 0.5763
vt 0.3321 0.9403
vt 0.3357 0.9992
vt 0.3143 0.9899
vt 0.2831 0.9265
vt 0.1324 0.6636
vt 0.137 0.6717
vt 0.1324 0.674
vt 0.2831 0.7426
vt 0.2922 0.7794
vt 0.2831 0.7794
vt 0.2831 0.8162
vt 0.2922 0.8162
vt 0.2922 1
vt 0.2922 0.6691
vt 0.137 0.6208
vt 0.1324 0.6295
vt 0.1324 0.619
vt 0.1324 0.5299
vt 0.137 0.5382
vt 0.1324 0.5404
vt 0.3393 0.9403
vt 0.3357 0.9418
vt 0.3608 0.5738
vt 0.3608 0.6323
vt 0.3451 0.5885
vt 0.3728 0.9647
vt 0.3419 0.936
vt 0.2831 0.7059
vt 0.2922 0.7059
vt 0.3608 0.6323
vt 0.3608 0.574
vt 0.3765 0.6177
vt 0.7626 0.8824
vt 0.7079 0.8315
vt 0.7626 0.7807
vt 0.7631 0.6471
vt 0.7084 0.5961
vt 0.7631 0.5452
vt 0.2928 0.9302
vt 0.2986 0.8957
vt 0.2986 0.9647
vt 0.3294 0.936
vt 0.3562 0.7941
vt 0.3571 0.8705
vt 0.3419 0.9244
vt 0.3393 0.9202
vt 0.3429 0.9302
vt 0.3728 0.8957
vt 0.3785 0.9302
vt 0.3357 0.8612
vt 0.3357 0.9186
vt 0.3562 0.75
vt 0.3333 0.7353
vt 0.3562 0.7353
vt 0.9451 0.5963
vt 0.8903 0.6472
vt 0.8903 0.5453
vt 0.3333 0.75
vt 0.2831 0.9485
vt 0.21 0.9485
vt 0.1461 0.3456
vt 0.0731 0.7794
vt -0 0.7794
vt 0.9637 0.8822
vt 0.9091 0.8315
vt 0.9637 0.7807
vt 0.4338 0.5
vt 0.125 0.1442
vt 0.4498 0.9522
vt 0.4292 0.7794
vt 0.4406 0.9522
vt 0.4498 0.6215
vt 0.2831 0.8382
vt 0.21 0.8382
vt 0.0502 0.0515
vt 0.4408 0.6214
vt 0.2922 0.3382
vt 0.2922 0.3456
vt 0.4521 0.5
vt 0.3114 0.4912
vt 0.3242 0.4414
vt 0.337 0.4499
vt 0.4521 0.6176
vt 0.4475 0.5735
vt 0.4521 0.5735
vt 0.2922 0.2426
vt 0.3973 0.1838
vt 0.3973 0.2426
vt 0.7991 0.7647
vt 0.8539 0.8824
vt 0.7991 0.8824
vt 0.21 0.7794
vt 0.4566 0.3603
vt 0.4292 0.3603
vt 0.5434 0.0882
vt 0.4521 0
vt 0.5434 0
vt 0.0046 0.1103
vt 0.2922 0.3015
vt 0.1096 0.1471
vt 0.0731 0.1397
vt 0.1096 0.1397
vt 0.5982 0.7647
vt 0.653 0.8824
vt 0.4521 0.2426
vt 0.3973 0.3015
vt 0.2192 0.1691
vt 0.2922 0.1691
vt 0.1781 0.5588
vt 0.1918 0.4706
vt 0.1918 0.5588
vt 0.21 0.7426
vt 0.6347 0.0882
vt 0.726 0
vt 0.726 0.0882
vt 0.653 0.7647
vt 0.1096 0.1618
vt 0.1096 0.1691
vt 0.1507 0.4706
vt 0.1644 0.5588
vt 0.1507 0.5588
vt 0.8539 0.6471
vt 0.2521 0.5092
vt 0.2648 0.5007
vt 0.2828 0.5296
vt 0.2775 0.5501
vt 0.2648 0.5586
vt 0.2521 0.5501
vt 0.2469 0.5296
vt 0.2775 0.5092
vt 0.1277 0.125
vt 0.125 0.1352
vt 0.1123 0.1352
vt 0.1123 0.1147
vt 0.125 0.1147
vt 0.2329 0.4705
vt 0.2297 0.4684
vt 0.2297 0.4581
vt 0.2361 0.4684
vt 0.329 0.8313
vt 0.3342 0.8108
vt 0.347 0.8023
vt 0.3597 0.8108
vt 0.365 0.8313
vt 0.3597 0.8519
vt 0.347 0.8604
vt 0.3342 0.8519
vt 0.3471 0.8021
vt 0.3599 0.8106
vt 0.3652 0.8313
vt 0.3599 0.8519
vt 0.3471 0.8604
vt 0.3343 0.8519
vt 0.329 0.8313
vt 0.3343 0.8106
vt 0.3765 0.5885
vt 0.3765 0.6177
vt 0.3451 0.6177
vt 0.3451 0.6177
vt 0.3451 0.5885
vt 0.3765 0.5885
vt 0.337 0.4912
vt 0.3242 0.4997
vt 0.3061 0.4705
vt 0.3114 0.4499
vt 0.3423 0.4705
vt 0.4676 0.3648
vt 0.4702 0.3751
vt 0.4676 0.3853
vt 0.4548 0.3853
vt 0.4522 0.3751
vt 0.3755 0.8586
vt 0.3721 0.86
vt 0.3688 0.8586
vt 0.3654 0.8492
vt 0.3663 0.8438
vt 0.3688 0.8399
vt 0.3755 0.8399
vt 0.3779 0.8438
vt 0.3788 0.8492
vt 0.7991 0.8824
vt 0.6897 0.7807
vt 0.6532 0.8824
vt 0.6901 0.5452
vt 0.6536 0.6471
vt 1.0001 0.8822
vt 0.8909 0.7807
vt 0.8545 0.8822
vt 0.9634 0.5453
vt 0.4201 1
vt 0.4155 0.8934
vt 0.4201 0.8934
vt 0.1097 0.1545
vt 0.1123 0.1442
vt 0.1277 0.1545
vt 0.125 0.1647
vt 0.6027 0.1544
vt 0.6941 0.2794
vt 0.6027 0.2574
vt 0.4384 0.125
vt 0.4566 0.1838
vt 0.4384 0.1838
vt 0.7626 0
vt 0.8174 0.0882
vt 0.7626 0.0882
vt 0.137 0.4706
vt 0.137 0.5588
vt 0.3288 0.7721
vt 0.3105 0.7941
vt 0.3105 0.7721
vt 0.3105 0.8603
vt -0 0.6471
vt 0.0731 0.6912
vt -0 0.6912
vt 0.1096 0.125
vt 0.0731 0.1176
vt 0.1096 0.1176
vt 0.1096 0.1103
vt 0.2055 0.4706
vt 0.2192 0.5588
vt 0.2055 0.5588
vt 0.4247 0.5
vt 0.411 0.3824
vt 0.137 0.8529
vt 0.0731 0.7353
vt -0 0.7353
vt 0.137 0.9833
vt 0.1324 0.9754
vt 0.137 0.9769
vt 0.1279 0.3382
vt 0.4201 0.5735
vt 0.4247 0.5735
vt 0.137 0.8897
vt 0.3059 0.6176
vt 0.3288 0.7279
vt 0.3105 0.75
vt 0.3105 0.7279
vt 0.3836 0.5735
vt 0.3881 0.7794
vt 0.3836 0.7794
vt 0.0457 0.0294
vt 0.0457 0.0221
vt 0.379 0.6801
vt 0.3836 0.6801
vt 0.2922 0.7941
vt 0.5114 0.1765
vt 0.0137 0.0515
vt 0.0457 0.0368
vt 0.0411 0.0294
vt 0.4521 0.3824
vt 0.1644 0.3824
vt 0.4338 0.6801
vt 0.4247 0.7794
vt 0.0639 0.1691
vt 0.1324 0.4854
vt 0.4703 0.9338
vt 0.4703 0.9118
vt 0.4886 0.9044
vt 0.2283 0.4632
vt 0.2283 0.4706
vt 0.4338 0.3603
vt 0.1096 0.8596
vt 0.1096 0.8301
vt 0.6941 0.1324
vt 0.0685 0.4191
vt 0.0822 0.4191
vt 0.0822 0.4265
vt 0.137 0.3971
vt 0.1598 0.3971
vt 0.1598 0.4044
vt 0.2283 0.4485
vt 0.2283 0.4559
vt 0.5799 0.625
vt 0.5616 0.6324
vt 0.5616 0.5956
vt 0.5251 1
vt 0.5068 1
vt 0.5068 0.9485
vt 0.1096 0.61
vt 0.2283 0.4265
vt 0.2283 0.4338
vt 0.5251 0.6397
vt 0.5068 0.6397
vt 0.5068 0.5882
vt 0.5616 0.9412
vt 0.5616 0.9044
vt 0.5799 0.9118
vt 0.5251 0.4338
vt 0.5434 0.4338
vt 0.5434 0.4853
vt 0.5068 0.5368
vt 0.4886 0.5294
vt 0.4886 0.4926
vt 0.3927 0.5735
vt 0.3973 0.7794
vt 0.2283 0.4412
vt 0.1005 0.4632
vt 0.1005 0.4706
vt 0.0822 0.4706
vt 0.5799 0.6544
vt 0.5799 0.6765
vt 0.5616 0.6838
vt 0.0183 0.3824
vt 0.3881 0.6801
vt 0.3881 0.5735
vt 0.1005 0.4485
vt 0.1005 0.4559
vt 0.0822 0.4559
vt 0.1598 0.4485
vt 0.1598 0.4559
vt 0.137 0.4559
vt 0.5434 0.7426
vt 0.5251 0.7426
vt 0.5251 0.6912
vt 0.1187 0.4044
vt 0.137 0.4044
vt 0.137 0.4118
vt 0.2009 0.4632
vt 0.2009 0.4706
vt 0.1781 0.4706
vt 0.0274 0.4118
vt 0.0274 0.4191
vt -0 0.4191
vt 0.137 0.4265
vt 0.137 0.4338
vt 0.1187 0.4338
vt 0.1005 0.3971
vt 0.1187 0.3971
vt 0.1598 0.4632
vt 0.137 0.4632
vt -0 0.4265
vt 0.0274 0.4265
vt 0.0274 0.4338
vt 0.1187 0.4412
vt 0.1005 0.4412
vt 0.0274 0.4044
vt -0 0.4118
vt 0.1096 0.6835
vt 0.1096 0.654
vt 0.0731 0.5588
vt 0.0731 0.6029
vt -0 0.6029
vt 0.2283 0.4118
vt 0.2283 0.4191
vt 0.0822 0.3897
vt 0.1005 0.3897
vt 0.1598 0.3824
vt 0.1781 0.3897
vt 0.1096 0.4779
vt 0.2009 0.4265
vt 0.2009 0.4338
vt 0.1781 0.4338
vt 0.1781 0.3971
vt 0.2009 0.3971
vt 0.2009 0.4044
vt 0.0731 0.4706
vt 0.0731 0.5147
vt -0 0.5147
vt 0.3881 0.7868
vt 0.0731 0.1618
vt 0.0731 0.1544
vt 0.1096 0.1544
vt 0.4018 0.7868
vt 0.3973 0.6801
vt 0.4018 0.6801
vt 0.4703 0.5221
vt 0.4703 0.5
vt 0.0913 0.4722
vt 0.0913 0.5119
vt 0.4064 0.5735
vt 0.4064 0.7794
vt 0.4018 0.7794
vt 0.4521 0.7868
vt 0.4521 0.625
vt 0.5434 0.8971
vt 0.5434 0.8456
vt 0.5616 0.8529
vt 0.5251 0.4853
vt 0.5434 0.5368
vt 0.1187 0.4632
vt 0.1187 0.4706
vt 0.1187 0.3897
vt 0.1005 0.3824
vt 0.1187 0.3824
vt 0.4886 0.6838
vt 0.4703 0.6765
vt 0.4703 0.6544
vt 0.5982 0.7721
vt 0.5799 0.7794
vt 0.5799 0.7574
vt 0.411 0.5
vt 0.4886 0.9926
vt 0.4886 0.9559
vt 0.5616 0.4412
vt 0.5434 0.5882
vt 0.5251 0.5882
vt 0.5251 0.5368
vt 0.1096 0.9917
vt 0.1096 0.9622
vt 0.137 0.8162
vt 0.3288 0.8603
vt 0.3105 0.8382
vt 0.1096 0.5074
vt 0.1644 0.4706
vt 0.5434 0.6397
vt 0.0731 0.1471
vt 0.5251 0.3824
vt 0.1781 0.4485
vt 0.1781 0.4559
vt 0.347 0.3603
vt 0.3516 0.3603
vt 0.1187 0.4265
vt 0.1005 0.4338
vt 0.0548 0.1691
vt 0.1096 0.8156
vt 0.1096 0.7861
vt 0.379 0.3603
vt 0.1781 0.4412
vt 0.2009 0.4412
vt 0.2009 0.4485
vt 0.0046 0.0221
vt 0.5982 0.9779
vt 0.5799 0.9853
vt 0.5799 0.9632
vt 0.3927 0.8934
vt 0.3973 0.7868
vt 0.1096 0.566
vt 0.1096 0.5954
vt 0.0913 0.6003
vt 0.0913 0.8259
vt 0.1096 0.7275
vt 0.1096 0.6981
vt 0.5982 0.4044
vt 0.5799 0.4191
vt 0.0913 0.9144
vt 0.1096 0.9182
vt 0.1096 0.9477
vt 0.5799 0.5515
vt 0.5799 0.5735
vt 0.5616 0.5809
vt 0.3105 0.6176
vt 0.3927 0.7868
vt 0.4201 0.3603
vt 0.4247 0.8934
vt 0.4247 1
vt 0.4247 0.7868
vt 0.4201 0.7868
vt 0.9634 0.7491
vt 0.3927 1
vt 0.4018 0.5735
vt 0.379 0.7868
vt 0.3836 0.7868
vt 0.4292 0.7868
vt 0.8909 0.9837
vt 0.379 1
vt 0.3836 1
vt 0.4338 0.9485
vt 0.6901 0.7489
vt 0.411 0.7868
vt 0.4155 0.6801
vt 0.4155 0.7868
vt 0.4201 0.6801
vt 0.4064 0.7868
vt 0.3927 0.6801
vt 0.3973 1
vt 0.6347 0
vt 0.4064 1
vt 0.411 0.8934
vt 0.411 1
vt 0.4155 1
vt 0.4384 0.9485
vt 0.4292 0.8934
vt 0.4292 1
vt 0.4064 0.8934
vt 0.4338 1
vt 0.4338 0.8934
vt 0.6897 0.9841
vt 0.4886 0.4779
vt 0.4703 0.4706
vt 0.4703 0.4485
vt 0.8538 0.6472
vt 0.8903 0.7491
vt 0.8539 0.2941
vt 0.8539 0.4118
vt 0.7991 0.4118
vt 0.0731 0.6471
vt 0.2922 0.5588
vt 0.2922 0.5956
vt 0.1096 0.7421
vt 0.1324 0.7527
vt 0.5068 0.7941
vt 0.4886 0.7868
vt 0.4886 0.75
vt 0.7997 0.6471
vt 0.1781 0.4191
vt 0.2009 0.4191
vt 0.1781 0.4118
vt 0.2009 0.4118
vt 0.137 0.4485
vt 0.1187 0.4559
vt 0.0822 0.4338
vt 0.0685 0.4338
vt 0.0594 0.4191
vt 0.0594 0.4265
vt 0.0457 0.4265
vt 0.4886 0.5809
vt 0.2329 0.4706
vt 0.2329 0.5588
vt 0.137 0.7426
vt 0.3425 0.5735
vt 0.5616 0.9559
vt 0.5616 0.9926
vt 0.5434 1
vt 0.5799 0.8309
vt 0.5616 0.8382
vt 0.5616 0.8015
vt 0.4201 0.7794
vt 0.3927 0.7794
vt 0.0913 0.7375
vt 0.0913 0.7772
vt 0.137 0.6324
vt 0.4703 0.8088
vt 0.4703 0.8309
vt 0.4521 0.8235
vt 0.1187 0.4485
vt 0.4429 0.3603
vt 0.4475 0.3603
vt 0.3105 0.8162
vt 0.3288 0.8162
vt 0.3288 0.8382
vt 0.0913 0.733
vt 0.0913 0.6933
vt 0.5434 0.9485
vt 0.0913 0.5606
vt 0.1096 0.8742
vt 0.1324 0.8863
vt 0.0913 0.7817
vt 0.0913 0.5164
vt 0.0913 0.5561
vt 0.4155 0.7794
vt 0.411 0.7794
vt 0.5251 0.8971
vt 0.5251 0.9485
vt 0.1598 0.4338
vt 0.1598 0.4412
vt 0.137 0.4412
vt 0.3288 0.6838
vt 0.3288 0.7059
vt 0.3105 0.7059
vt 0.1324 0.8522
vt 0.2922 0.3603
vt 0.5251 0.8456
vt 0.3288 0.7941
vt 0.4886 0.6985
vt 0.4886 0.7353
vt 0.4703 0.7279
vt 0.0913 0.6048
vt 0.0913 0.6445
vt 0.5068 0.8456
vt 0.4521 0.4632
vt 0.4521 0.4559
vt 0.4521 0.7721
vt 0.4521 0.7647
vt 0.4703 0.7574
vt 0.4886 0.9412
vt 0.5799 0.6029
vt 0.1187 0.4191
vt 0.137 0.4191
vt 0.5068 0.4853
vt 0.5616 0.7353
vt 0.5616 0.6985
vt 0.5799 0.7059
vt 0.5982 0.5588
vt 0.5982 0.5662
vt 0.5068 0.8971
vt 0.5982 0.9191
vt 0.5982 0.9265
vt 0.5799 0.9338
vt 0.2831 0.7206
vt 0.4703 0.4191
vt 0.4521 0.4118
vt 0.4521 0.4044
vt 0.5434 0.7941
vt 0.5251 0.7941
vt 0.4018 0.3603
vt 0.4064 0.3603
vt 0.5616 0.75
vt 0.5616 0.7868
vt 0.0913 0.9586
vt 0.0913 0.9983
vt 0.0731 1
vt 0.4886 0.8015
vt 0.4886 0.8382
vt 0.3881 0.3603
vt 0.3927 0.3603
vt -0 0.5588
vt 0.4703 0.5735
vt 0.4521 0.5662
vt 0.4521 0.5588
vt 0.0913 0.8214
vt 0.1324 0.5849
vt 0.1096 0.6395
vt 0.5982 0.8235
vt 0.5799 0.8088
vt 0.5616 0.8897
vt 0.5799 0.8603
vt 0.0457 0.4338
vt 0.0594 0.4412
vt 0.0594 0.4044
vt 0.0457 0.4044
vt 0 0.0368
vt 0.2831 0.7279
vt 0.21 0.7279
vt 0.2466 0.5588
vt 0.2192 0.3382
vt 0.0457 0.0515
vt 0.3653 0.3603
vt 0.2831 0.6103
vt 0.21 0.6103
vt 0.7991 1
vt 0.3699 0.5
vt 0.137 0.6691
vt 0.137 0.9265
vt -0 0.4632
vt 0.0274 0.4706
vt -0 0.4706
vt -0 0.4338
vt 0.0274 0.4412
vt -0 0.4412
vt 0.0274 0.4485
vt -0 0.4485
vt 0.0913 0.8701
vt 0.2009 0.4559
vt 0.1005 0.4118
vt 0.1005 0.4191
vt 0.0274 0.3897
vt -0 0.3971
vt -0 0.3897
vt 0.0274 0.3971
vt -0 0.4044
vt 0.2192 0.4044
vt 0.0274 0.3824
vt -0 0.3824
vt 0.0274 0.4632
vt 0.0457 0.4706
vt 0.0274 0.4559
vt 0.0457 0.4632
vt 0.0457 0.4559
vt 0.0685 0.4118
vt 0.1781 0.4632
vt 0.0685 0.4412
vt 0.0457 0.3971
vt 0.0457 0.3897
vt 0.0457 0.3824
vt 0.0594 0.4706
vt 0.0594 0.4632
vt 0.0594 0.3971
vt 0.0822 0.4412
vt 0.0685 0.4485
vt 0.2009 0.3897
vt 0.2192 0.3971
vt 0.0685 0.4044
vt 0.0822 0.4118
vt 0.0594 0.4559
vt 0.0594 0.3897
vt 0.0594 0.3824
vt 0.0685 0.3971
vt 0.4886 0.8529
vt 0.0913 0.649
vt 0.5616 0.4779
vt 0.5799 0.4485
vt 0.5799 0.4706
vt 0.0685 0.4559
vt 0.0822 0.4632
vt 0.0685 0.4706
vt 0.0685 0.4632
vt 0.0822 0.4485
vt 0.1781 0.4044
vt 0.0594 0.4338
vt 0.0822 0.4044
vt 0.0685 0.3897
vt 0.0822 0.3971
vt 0.0685 0.3824
vt 0.0822 0.3824
vt 0.1005 0.4044
vt -0 0.4559
vt 0.0685 0.4265
vt 0.1187 0.4118
vt 0.1598 0.4706
vt 0.1005 0.4265
vt 0.1598 0.4265
vt 0.1598 0.4191
vt 0.1598 0.4118
vt 0.1781 0.4265
vt 0.2009 0.3824
vt 0.2192 0.3897
vt 0.137 0.7794
vt 0.21 0.7206
vt 0.5068 0.7426
vt 0.5616 0.5441
vt 0.5982 0.7132
vt 0.5799 0.7279
vt 0.4703 0.7059
vt 0.4521 0.6691
vt 0.5982 0.4632
vt 0.5616 0.3897
vt 0.5799 0.3971
vt 0.4703 0.3971
vt 0.5616 0.4265
vt 0.5434 0.3824
vt 0.5982 0.875
vt 0.5799 0.8824
vt 0.5434 0.6912
vt 0.5068 0.6912
vt 0.4521 0.9191
vt 0.5982 0.5147
vt 0.5799 0.5
vt 0.5982 0.5074
vt 0.4703 0.5515
vt 0.4886 0.5441
vt 0.4703 0.8824
vt 0.4703 0.8603
vt 0.5068 0.4338
vt 0.5982 0.8162
vt 0.4521 0.8162
vt 0.5616 0.6471
vt 0.4703 0.7794
vt 0.4886 0.6471
vt 0.4521 0.9779
vt 0.4703 0.9632
vt 0.4703 0.9853
vt 0.4886 0.4412
vt 0.5982 0.9706
vt 0.5982 0.6691
vt 0.5982 0.6618
vt 0.4521 0.8676
vt 0.3105 0.6838
vt 0.9087 0.0882
vt 0.8174 0
vt 0.9087 0
vt 0.1096 0.7715
vt 0.0913 0.8656
vt 0.0913 0.6888
vt 0.1096 0.9036
vt 0.1096 0.5514
vt 0.1096 0.5219
vt 0.0913 0.9099
vt 0.0913 0.9541
vt 0.7991 0.2941
vt 0.1324 0.7972
vt 0.1324 0.7186
vt 0.1324 0.9859
vt 0.3288 0.75
vt 0.379 0.7794
vt 0.0183 0.1103
vt 0.4521 0.5147
vt 0.4886 0.3897
vt 0.5982 0.8676
vt 0.4886 0.6324
vt 0.4886 0.5956
vt 0.4886 0.4265
vt 0.5068 0.3824
vt 0.4521 0.7132
vt 0.4703 0.625
vt 0.5982 0.4559
vt 0.5982 0.6176
vt 0.5982 0.6103
vt 0.4886 0.8897
vt 0.4703 0.6029
vt 0.5616 0.4926
vt 0.5799 0.5221
vt 0.4521 0.7206
vt 0.5616 0.5294
vt 0.2466 0.4706
vt 0.0091 0.1103
vt 0.4521 0.9706
vt 0.379 0.8934
vt 0.5982 0.7206
vt 0.4521 0.9265
vt 0.4566 0.125
vt 0.9999 0.6472
vt 0.653 0.4118
vt 0.4384 0.625
vt 0.9637 0.9837
vt 0.3607 0.3603
vt 0.653 0.6471
vt 0.0411 0.0515
vt 0.8539 0.7647
vt 0.3744 0.3015
vt 0.7626 0.9841
vt 0.8539 1
vt 0.4521 0.875
vt 0.3653 0.125
vt 0.137 1
vt 0.1644 0.1691
vt 0.0502 0.1103
vt 0.2922 0.6324
vt 0.2922 0.9632
vt 0.3562 0.7647
vt 0.3285 0.9302
vt 0.3333 0.7941
vt 0.137 0.6272
vt 0.3571 0.9899
vt 0.4521 0.9485
vt 1 0.0882
vt 1 0
vt 0.7631 0.7489
vt 0.4521 0.3015
vt 0.4521 0.6618
vt 0.137 0.5318
vt 0.4566 0.3015
vt 0.2922 0.7426
vt 0.2922 0.9265
vt 0.137 0.6653
vt 0.4338 0.7794
vt 0.137 0.9324
vt 0.2922 0.8529
vt 0.4521 0.5074
vt 0.4521 0.6103
s 1
f 68/1 66/2 67/3
f 328/4 910/5 516/6
f 217/7 851/8 852/9
f 246/10 225/11 234/12
f 423/13 422/14 424/15
f 514/16 282/17 302/18
f 626/19 612/20 614/21
f 867/22 309/23 308/24
f 18/25 16/26 17/27
f 100/28 89/29 101/30
f 80/31 83/30 81/32
f 209/33 1060/34 1063/35
f 205/36 1028/37 1044/38
f 191/39 184/40 193/41
f 35/42 32/43 36/44
f 1035/45 185/46 1025/47
f 379/48 915/49 917/50
f 403/51 401/52 404/53
f 211/54 206/55 208/56
f 250/57 249/58 251/59
f 868/60 308/24 869/61
f 370/62 374/63 369/64
f 870/65 869/61 300/66
f 174/39 181/67 177/68
f 65/28 54/29 64/30
f 417/29 429/28 428/30
f 913/69 531/70 918/71
f 501/72 849/71 855/69
f 82/28 71/29 83/30
f 221/73 219/74 220/75
f 72/76 73/53 70/52
f 1093/77 323/78 1079/79
f 79/80 80/31 81/32
f 159/81 1032/82 1050/83
f 99/32 100/28 101/30
f 84/2 85/84 86/1
f 364/85 359/86 366/55
f 586/87 26/88 27/89
f 29/90 38/91 30/92
f 367/93 1033/37 1062/38
f 213/94 214/95 215/96
f 701/97 702/98 690/99
f 55/76 54/29 52/100
f 102/2 103/84 104/1
f 410/80 411/31 409/101
f 511/102 865/103 287/104
f 6/105 11/106 10/107
f 115/32 113/101 116/31
f 43/108 34/109 41/110
f 1086/111 333/112 1087/113
f 105/29 106/76 107/52
f 582/114 577/115 583/116
f 176/117 1048/47 1029/118
f 365/95 362/94 363/96
f 331/119 909/120 513/121
f 515/122 288/123 305/124
f 521/125 336/126 334/127
f 60/101 59/128 464/129
f 510/130 285/131 281/132
f 909/103 314/133 301/134
f 140/41 142/135 146/136
f 866/137 865/138 309/23
f 240/110 225/11 247/139
f 41/140 44/141 43/142
f 144/143 148/39 150/144
f 10/145 7/146 12/147
f 46/148 42/149 51/150
f 1040/118 156/136 1032/82
f 1046/118 142/151 140/117
f 155/39 160/144 156/143
f 96/13 93/14 94/152
f 162/117 1055/47 1040/118
f 149/39 142/40 152/41
f 118/28 105/29 117/30
f 157/135 164/136 161/41
f 294/153 516/6 910/5
f 75/14 74/51 76/152
f 194/154 192/67 195/155
f 241/156 226/157 240/158
f 169/136 174/41 170/41
f 214/159 206/55 212/86
f 294/153 298/160 512/161
f 295/162 869/132 292/163
f 1064/82 182/117 1056/118
f 171/164 178/39 175/144
f 57/152 56/53 463/51
f 340/165 338/166 526/167
f 433/29 446/28 445/30
f 170/41 177/68 179/40
f 182/41 184/135 188/136
f 297/168 909/120 278/169
f 186/143 190/39 192/144
f 110/14 108/51 111/152
f 388/152 387/53 389/14
f 335/170 1092/171 1096/172
f 295/173 298/160 300/174
f 38/175 37/176 50/177
f 47/178 50/177 48/179
f 408/128 409/101 407/129
f 192/144 182/41 188/136
f 201/180 197/86 204/181
f 231/182 224/183 244/184
f 203/54 199/185 207/93
f 206/186 205/187 208/188
f 517/189 1073/190 1091/191
f 348/192 347/193 350/194
f 171/195 179/40 180/196
f 210/36 209/197 213/198
f 197/199 196/62 203/200
f 1069/34 369/33 1043/35
f 128/201 129/202 130/203
f 382/73 380/74 381/75
f 622/204 633/205 621/206
f 438/14 437/51 436/53
f 237/184 233/207 232/182
f 395/28 394/32 396/30
f 142/151 1068/83 144/81
f 41/208 40/209 49/210
f 418/76 417/29 419/52
f 138/211 137/212 139/213
f 338/166 337/214 526/167
f 343/215 342/216 527/217
f 97/80 96/129 98/101
f 51/218 28/140 47/219
f 243/220 248/221 235/222
f 342/223 340/165 527/224
f 245/225 251/226 249/227
f 536/58 918/71 912/228
f 42/149 33/175 29/229
f 242/230 243/231 235/232
f 134/233 132/234 137/212
f 325/235 326/236 323/237
f 234/12 235/232 236/238
f 263/239 266/240 264/241
f 272/242 274/243 273/244
f 269/245 268/246 267/247
f 301/248 302/249 303/250
f 276/251 277/252 275/253
f 245/225 248/254 228/255
f 269/256 272/257 270/258
f 277/259 256/260 254/261
f 274/262 275/263 273/264
f 259/265 262/266 261/267
f 333/268 311/269 331/270
f 285/131 283/271 281/132
f 257/272 254/273 256/274
f 289/275 287/276 290/277
f 286/278 287/276 288/279
f 509/102 280/280 278/104
f 512/161 292/281 294/153
f 259/282 257/283 260/284
f 263/285 261/286 262/287
f 310/288 311/269 312/289
f 132/290 135/291 137/292
f 316/293 310/288 313/294
f 291/295 292/281 293/296
f 128/297 133/298 138/299
f 1027/300 1047/301 340/302
f 1057/303 1034/304 342/305
f 325/235 327/306 328/307
f 333/268 332/308 329/309
f 305/310 304/250 515/249
f 322/311 320/312 319/313
f 315/314 317/315 318/316
f 323/237 321/317 324/318
f 308/319 307/320 516/321
f 1045/322 1026/323 358/324
f 513/319 300/248 298/325
f 279/326 301/134 303/327
f 230/328 224/183 228/255
f 372/188 376/199 375/198
f 872/329 300/66 299/330
f 315/314 316/293 313/294
f 117/30 116/31 118/28
f 426/31 425/80 427/32
f 327/306 329/309 332/308
f 405/152 404/53 406/14
f 160/39 167/67 163/68
f 319/313 321/317 322/311
f 425/80 423/129 424/128
f 531/70 912/228 918/71
f 1038/331 1067/332 352/333
f 215/96 208/56 213/94
f 131/63 129/202 136/334
f 19/335 21/89 581/87
f 195/155 188/68 191/39
f 364/336 366/181 368/86
f 899/63 268/337 903/78
f 360/93 362/338 367/54
f 369/339 371/188 370/187
f 284/340 304/162 306/341
f 49/92 37/342 44/141
f 373/198 372/343 375/36
f 59/15 57/152 464/13
f 245/225 239/344 252/345
f 132/346 131/63 136/334
f 377/347 378/348 379/349
f 24/25 22/26 23/27
f 200/350 201/351 199/352
f 223/353 222/354 233/355
f 413/30 411/31 412/32
f 356/356 355/357 357/358
f 286/278 911/359 290/277
f 243/220 230/360 229/361
f 397/2 399/1 398/84
f 436/53 434/76 435/52
f 1039/362 5/363 1051/364
f 48/179 31/42 46/365
f 151/195 142/40 144/196
f 160/144 161/41 164/136
f 72/76 71/29 69/100
f 227/355 226/366 238/353
f 460/367 26/368 22/369
f 414/2 416/1 415/84
f 345/370 344/371 343/215
f 224/372 225/373 227/355
f 239/344 238/374 241/375
f 441/80 439/129 440/128
f 453/376 744/377 454/378
f 289/275 911/359 307/379
f 430/2 432/1 431/84
f 13/380 8/381 15/382
f 280/359 303/275 856/277
f 337/214 346/383 345/370
f 581/218 574/384 18/385
f 747/386 3/387 457/388
f 349/389 356/356 347/193
f 450/390 451/391 452/392
f 3/392 453/393 454/394
f 454/394 455/395 3/392
f 1/396 456/390 2/391
f 2/391 457/397 3/392
f 459/398 460/399 22/26
f 22/26 461/400 23/27
f 23/27 462/401 24/25
f 458/402 459/398 22/26
f 466/403 467/404 66/2
f 66/2 468/405 67/3
f 67/3 469/84 68/1
f 465/406 466/403 66/2
f 86/1 471/406 84/2
f 472/403 473/404 84/2
f 84/2 474/405 475/3
f 475/3 85/84 84/2
f 471/406 472/403 84/2
f 104/1 477/406 102/2
f 478/403 479/404 102/2
f 102/2 480/405 481/3
f 481/3 103/84 102/2
f 477/406 478/403 102/2
f 121/1 484/406 485/403
f 485/403 486/404 121/1
f 119/2 487/405 488/3
f 488/3 120/84 119/2
f 489/407 490/408 124/409
f 124/409 491/410 122/411
f 122/411 492/412 123/413
f 123/413 493/414 489/407
f 494/415 495/416 127/417
f 127/417 496/418 125/419
f 125/419 497/420 126/421
f 126/421 498/422 494/415
f 136/423 129/424 135/291
f 135/291 139/425 137/292
f 130/426 131/427 133/298
f 133/298 134/428 138/299
f 500/429 501/430 216/347
f 216/347 502/431 217/432
f 217/432 503/348 218/349
f 499/433 500/429 216/347
f 221/73 504/434 505/435
f 505/435 506/436 219/74
f 219/74 507/437 508/438
f 508/438 220/75 219/74
f 336/126 517/439 518/440
f 518/440 519/441 336/126
f 334/127 520/442 521/125
f 522/443 523/444 521/125
f 521/125 524/445 335/446
f 335/446 525/447 336/126
f 336/126 519/441 334/127
f 520/442 522/443 521/125
f 526/448 1027/300 340/302
f 527/449 1047/301 343/450
f 1044/38 201/181 204/93
f 341/451 1034/304 338/452
f 350/453 1038/331 352/333
f 354/454 1067/332 357/455
f 349/456 1045/322 358/324
f 520/457 1075/458 1077/459
f 379/349 530/433 377/347
f 531/429 532/430 377/347
f 377/347 533/431 534/432
f 534/432 378/348 377/347
f 530/433 531/429 377/347
f 382/73 535/434 536/435
f 536/435 537/436 380/74
f 380/74 538/437 539/438
f 539/438 381/75 380/74
f 399/1 397/2 542/406
f 543/403 397/2 544/404
f 397/2 546/3 545/405
f 546/3 397/2 398/84
f 542/406 397/2 543/403
f 416/1 414/2 549/406
f 550/403 414/2 551/404
f 414/2 553/3 552/405
f 553/3 414/2 415/84
f 549/406 414/2 550/403
f 432/1 430/2 557/406
f 558/403 430/2 559/404
f 430/2 561/3 560/405
f 561/3 430/2 431/84
f 557/406 430/2 558/403
f 564/1 449/403 565/406
f 449/403 447/2 566/404
f 447/2 448/3 567/405
f 448/3 564/1 568/84
f 452/392 569/393 570/394
f 570/394 571/395 452/392
f 572/396 450/390 452/392
f 451/391 573/397 452/392
f 452/392 571/395 572/396
f 575/398 576/399 16/26
f 16/26 577/400 17/27
f 17/27 578/401 18/25
f 574/402 575/398 16/26
f 21/89 579/460 580/461
f 580/461 581/87 21/89
f 19/335 582/462 583/463
f 583/463 20/88 19/335
f 27/89 584/460 585/461
f 585/461 586/87 27/89
f 25/335 587/462 588/463
f 588/463 26/88 25/335
f 1039/464 15/465 1059/466
f 428/30 426/31 427/32
f 912/228 379/48 917/50
f 500/70 848/228 849/71
f 232/467 222/468 231/469
f 12/470 9/471 4/472
f 748/473 457/388 2/474
f 56/53 55/76 463/51
f 376/199 370/62 375/198
f 439/13 438/14 440/15
f 122/475 494/476 498/477
f 164/155 166/478 167/67
f 392/80 391/129 390/128
f 499/433 217/432 218/349
f 302/479 857/480 303/481
f 359/86 360/56 366/55
f 17/482 19/483 578/484
f 119/2 121/1 486/404
f 201/351 198/198 197/199
f 151/154 150/67 153/155
f 112/15 111/152 483/13
f 462/484 586/219 24/485
f 434/76 433/29 435/52
f 751/486 1/487 455/488
f 502/489 850/490 851/8
f 6/382 12/470 4/472
f 871/163 317/491 304/162
f 858/492 299/330 856/493
f 266/494 267/495 268/496
f 203/54 204/181 197/86
f 98/101 99/32 97/80
f 234/12 223/497 242/230
f 1093/77 330/498 325/499
f 514/16 318/500 871/163
f 158/501 1050/45 1055/47
f 47/178 46/365 51/108
f 123/502 126/503 497/504
f 904/505 261/506 264/507
f 36/508 40/209 34/509
f 401/52 400/100 402/29
f 125/419 494/415 127/417
f 1078/510 319/505 1094/511
f 509/102 909/103 301/134
f 128/201 139/213 135/72
f 534/7 914/8 919/9
f 1064/82 187/512 1035/83
f 394/32 393/101 392/80
f 5/146 4/145 9/513
f 280/359 299/278 296/122
f 37/342 31/42 50/514
f 1025/47 189/144 1056/118
f 196/62 199/63 203/200
f 445/30 444/31 443/32
f 407/13 406/14 408/15
f 384/76 383/29 385/52
f 45/515 39/516 35/508
f 915/517 534/7 919/9
f 156/41 163/68 165/40
f 228/255 229/518 230/328
f 193/41 186/196 194/195
f 1078/519 323/78 324/63
f 903/78 270/520 908/499
f 29/90 28/140 42/521
f 263/239 265/522 266/240
f 816/523 808/524 815/525
f 76/152 85/526 475/527
f 108/51 109/53 107/52
f 914/8 539/361 538/528
f 896/529 888/530 274/243
f 1039/464 13/531 15/465
f 1023/486 1022/15 572/487
f 242/230 253/328 243/231
f 638/532 649/533 648/534
f 688/535 700/536 699/537
f 106/76 484/538 121/539
f 464/13 57/152 469/526
f 771/540 772/541 762/542
f 830/543 821/544 814/545
f 875/546 260/284 257/283
f 476/31 102/547 479/548
f 765/549 775/550 766/551
f 996/552 987/553 977/554
f 829/555 845/556 844/557
f 753/558 756/559 840/560
f 901/561 906/201 258/562
f 284/160 306/161 861/153
f 87/100 478/563 477/538
f 667/564 677/565 665/566
f 939/567 947/568 948/569
f 234/12 236/238 250/570
f 1083/571 320/572 315/561
f 669/573 668/574 656/575
f 325/235 328/307 326/236
f 705/576 704/577 692/578
f 796/579 783/580 782/581
f 675/582 687/583 686/584
f 727/585 737/586 725/587
f 592/588 589/589 591/590
f 370/187 371/188 373/198
f 684/591 695/592 683/593
f 283/271 514/16 871/163
f 664/594 676/595 675/582
f 704/577 703/596 691/597
f 590/598 613/599 611/600
f 683/593 682/601 670/602
f 594/603 592/588 593/604
f 256/274 889/605 895/606
f 422/14 555/152 420/51
f 862/607 860/608 861/609
f 390/15 391/13 388/152
f 481/610 480/611 98/101
f 654/612 666/613 664/594
f 713/614 725/254 714/615
f 886/616 265/522 263/239
f 720/617 731/618 719/619
f 712/620 724/621 723/622
f 864/623 863/624 305/625
f 1072/626 1094/511 1083/571
f 580/627 579/628 575/629
f 1058/630 1076/631 1082/632
f 924/559 925/633 1014/634
f 877/635 878/636 863/624
f 18/485 578/484 19/483
f 902/637 277/638 254/639
f 1033/37 1043/640 369/641
f 442/101 567/611 448/610
f 812/642 805/643 811/644
f 846/645 844/557 764/646
f 679/647 689/648 677/565
f 678/649 690/99 688/535
f 77/15 75/14 76/152
f 677/650 689/651 678/649
f 776/652 777/653 768/654
f 963/655 971/656 955/657
f 508/361 507/528 852/9
f 913/69 916/490 377/658
f 555/152 423/13 561/527
f 992/659 991/660 981/545
f 844/557 845/556 837/661
f 941/662 920/663 922/664
f 886/665 892/666 267/495
f 304/162 317/491 322/667
f 587/114 25/483 462/484
f 489/668 496/478 127/669
f 877/635 886/616 894/670
f 853/49 854/50 218/48
f 573/388 1019/386 1018/671
f 942/581 933/549 950/672
f 921/558 924/559 1007/560
f 16/369 576/367 21/673
f 845/556 829/555 830/674
f 717/675 716/676 704/577
f 998/555 1012/556 1011/557
f 915/49 380/677 537/678
f 672/679 683/593 671/680
f 38/91 33/681 32/43
f 274/262 888/682 887/683
f 505/58 504/684 849/71
f 718/685 717/675 705/576
f 730/686 729/687 717/675
f 234/12 242/230 235/232
f 42/149 31/688 33/175
f 1011/557 1012/556 1004/661
f 470/129 475/610 474/611
f 833/689 826/690 817/691
f 1080/692 1030/693 1073/190
f 893/694 875/695 876/696
f 868/60 870/65 883/697
f 32/516 33/175 31/688
f 890/698 889/699 256/260
f 994/700 1009/165 1002/701
f 562/100 449/563 566/548
f 885/702 891/703 892/704
f 761/705 760/706 762/707
f 899/211 904/505 264/507
f 144/708 1061/47 148/501
f 1055/47 157/476 161/46
f 1068/45 145/476 143/46
f 1096/172 1041/709 1080/692
f 850/490 220/221 508/710
f 520/457 1090/711 522/712
f 1077/459 1054/713 1090/711
f 1036/714 1093/77 1054/713
f 1083/571 319/505 320/572
f 351/715 1026/323 1045/322
f 335/170 1080/692 525/716
f 1082/632 313/201 310/717
f 11/513 1059/466 7/146
f 1049/718 1094/511 1065/719
f 1042/720 1078/519 1049/35
f 1038/331 356/721 1067/332
f 1058/630 1073/190 1030/693
f 521/722 1092/171 524/723
f 364/724 1069/34 1043/35
f 339/725 1034/304 1057/303
f 1053/726 1088/727 1031/728
f 1031/728 1074/729 1036/714
f 1058/630 1086/111 1071/730
f 1072/626 1084/731 1041/709
f 525/716 1073/190 336/732
f 13/380 1051/364 14/733
f 518/734 1089/735 519/736
f 1040/118 161/46 155/144
f 141/136 1046/118 147/144
f 519/736 1075/458 334/737
f 183/136 1056/118 189/144
f 186/708 1025/47 190/501
f 1063/35 207/738 199/724
f 1041/709 1076/631 1030/693
f 1040/118 154/151 162/117
f 1089/735 1071/730 1053/726
f 522/712 1081/739 523/740
f 517/189 1095/741 518/734
f 1050/83 156/136 157/512
f 1029/118 175/46 169/144
f 521/742 1081/739 1085/743
f 1027/300 345/744 1047/301
f 570/378 1016/377 1023/486
f 840/745 841/746 832/747
f 68/539 469/526 57/152
f 409/101 411/31 414/547
f 355/748 1026/323 353/749
f 353/750 351/751 352/752
f 860/608 859/753 302/479
f 373/36 1033/37 372/187
f 278/169 280/754 296/755
f 890/756 255/757 276/251
f 1090/711 1042/720 1081/739
f 959/758 960/759 952/760
f 434/76 437/51 564/539
f 344/761 1057/303 342/305
f 709/762 721/763 720/617
f 710/764 722/765 721/763
f 693/766 692/578 680/767
f 403/51 416/539 549/538
f 648/534 659/768 647/769
f 624/770 637/771 625/772
f 753/558 766/551 755/773
f 1086/111 1082/632 310/717
f 750/15 749/774 456/775
f 516/6 307/379 326/776
f 134/233 133/777 132/234
f 27/673 460/367 459/629
f 996/778 995/779 997/780
f 804/781 811/782 794/783
f 897/203 898/498 272/784
f 543/563 544/548 395/28
f 1022/15 1021/774 450/775
f 259/785 261/506 900/572
f 881/786 879/787 872/329
f 513/121 298/160 332/788
f 961/789 969/790 970/791
f 681/792 680/767 668/574
f 589/589 613/599 590/598
f 507/793 219/794 853/517
f 400/100 550/563 551/548
f 495/795 124/796 490/797
f 23/482 461/115 588/116
f 881/798 880/799 889/699
f 987/553 996/552 988/800
f 272/784 898/498 908/499
f 563/152 568/526 564/539
f 916/490 914/8 533/489
f 90/76 92/51 91/53
f 862/607 874/801 876/696
f 896/802 271/803 269/256
f 384/76 386/51 399/539
f 879/804 887/683 888/682
f 428/30 429/28 426/31
f 409/101 552/611 553/610
f 906/201 907/717 254/639
f 878/805 874/806 862/607
f 897/203 273/807 275/808
f 999/543 990/544 981/545
f 122/475 498/477 126/503
f 586/218 585/627 458/384
f 471/538 86/539 74/51
f 813/809 820/810 814/545
f 707/811 706/812 694/813
f 400/100 548/28 413/30
f 489/814 493/815 125/816
f 272/242 271/817 274/243
f 493/815 123/502 497/504
f 731/618 730/686 718/685
f 689/651 701/97 690/99
f 691/597 701/473 689/648
f 251/59 252/818 246/366
f 979/642 980/809 966/819
f 494/476 491/820 124/796
f 776/821 784/822 785/823
f 876/824 882/825 859/753
f 966/819 968/826 959/758
f 841/746 842/827 834/828
f 963/829 962/830 953/831
f 981/545 991/832 982/525
f 940/541 930/542 928/833
f 1096/172 1065/719 1072/626
f 676/595 688/535 687/583
f 673/834 685/835 684/591
f 998/555 1013/645 1005/836
f 788/837 779/838 778/839
f 759/840 769/841 760/706
f 797/819 813/809 806/842
f 809/843 825/844 817/845
f 516/6 291/295 293/846
f 832/847 834/848 833/849
f 795/850 798/851 783/580
f 988/800 989/810 980/809
f 855/69 221/852 220/853
f 956/854 964/855 965/850
f 873/856 877/857 864/858
f 213/198 208/188 205/187
f 383/29 540/100 395/28
f 55/76 465/538 68/539
f 791/859 807/860 800/790
f 535/861 382/862 913/69
f 964/783 978/782 973/643
f 945/652 946/653 936/654
f 863/624 862/607 306/863
f 926/864 938/865 927/866
f 267/247 892/704 891/703
f 60/101 468/611 66/547
f 879/804 883/867 870/65
f 262/266 260/868 875/695
f 876/824 875/546 895/869
f 802/870 804/781 803/871
f 1089/735 1031/728 1075/458
f 826/690 836/779 827/778
f 987/872 978/644 972/873
f 1014/746 1008/827 1009/828
f 919/9 538/793 380/794
f 420/51 419/52 421/53
f 443/32 442/101 441/80
f 623/874 634/875 622/204
f 627/876 614/21 615/877
f 28/878 38/175 50/177
f 178/155 180/478 181/67
f 386/51 385/52 387/53
f 292/163 308/271 293/16
f 746/671 453/376 3/387
f 511/879 307/379 309/880
f 22/369 588/116 461/115
f 64/30 62/31 65/28
f 157/195 165/40 166/196
f 744/377 455/488 454/378
f 1061/47 147/144 1046/118
f 1021/774 451/881 450/775
f 703/596 701/473 691/597
f 93/14 92/51 94/152
f 1020/473 573/388 451/474
f 228/255 227/882 245/225
f 285/5 302/295 282/6
f 21/673 575/629 579/628
f 281/132 304/162 510/130
f 172/501 1037/45 1048/47
f 564/1 447/2 449/403
f 43/883 37/176 45/515
f 503/346 852/9 853/517
f 169/144 1066/82 1029/118
f 857/480 856/493 303/481
f 150/144 140/41 146/136
f 62/31 61/80 60/101
f 173/81 1066/82 1037/83
f 206/187 1063/640 1028/37
f 1060/34 205/36 1044/38
f 242/230 237/184 253/328
f 854/50 505/884 848/228
f 513/121 296/885 299/886
f 355/357 354/887 357/358
f 458/384 584/628 459/629
f 287/169 305/121 288/168
f 352/752 348/192 350/194
f 368/738 1062/38 1069/34
f 249/58 235/222 248/221
f 78/101 77/128 470/129
f 360/93 368/86 366/181
f 499/888 854/50 848/228
f 1074/729 329/203 330/498
f 174/41 175/144 178/39
f 153/155 146/68 149/39
f 569/376 1016/377 570/378
f 113/101 112/128 483/129
f 327/889 298/160 910/5
f 374/352 372/188 369/350
f 301/134 316/890 514/16
f 602/891 600/892 601/893
f 609/894 610/895 607/896
f 607/896 608/897 605/898
f 884/899 867/22 868/60
f 741/52 728/900 729/687
f 680/767 667/564 668/574
f 662/901 673/834 661/902
f 598/903 597/904 599/905
f 596/906 595/907 597/904
f 857/480 881/798 858/492
f 724/621 735/908 723/622
f 600/909 599/905 601/910
f 604/911 618/912 600/892
f 606/913 619/914 604/911
f 608/897 620/915 606/913
f 1051/466 8/531 14/465
f 639/916 649/533 638/532
f 728/900 715/917 716/676
f 714/615 724/621 712/620
f 659/768 646/918 647/769
f 616/919 594/603 596/906
f 617/920 596/906 598/903
f 618/921 598/903 600/909
f 619/914 630/922 618/912
f 620/915 631/923 619/914
f 628/924 615/877 616/919
f 627/876 639/916 626/19
f 658/925 645/926 646/918
f 726/927 736/928 724/621
f 740/53 727/585 728/900
f 640/929 650/930 639/916
f 646/918 633/205 634/875
f 621/206 632/931 620/915
f 629/932 616/919 617/920
f 630/933 617/920 618/921
f 743/30 730/686 731/618
f 629/932 641/934 628/924
f 645/926 632/931 633/205
f 806/842 807/935 799/826
f 896/529 883/697 888/530
f 650/930 661/902 649/533
f 671/680 658/925 659/768
f 889/605 882/936 895/606
f 1010/937 1002/938 1015/939
f 628/924 640/929 627/876
f 644/940 631/923 632/931
f 722/765 733/80 721/763
f 655/941 653/942 643/943
f 656/575 643/943 644/940
f 657/944 644/940 645/926
f 626/19 638/532 624/770
f 610/895 621/206 608/897
f 729/687 716/676 717/675
f 711/945 722/765 710/764
f 615/877 592/588 594/603
f 647/769 634/875 635/946
f 641/934 651/947 640/929
f 642/948 652/949 641/934
f 653/950 654/612 642/948
f 665/951 666/613 654/612
f 668/574 655/941 656/575
f 652/949 663/952 651/947
f 605/898 606/913 603/953
f 603/953 604/911 602/891
f 590/598 611/600 609/894
f 589/589 590/598 591/590
f 592/588 591/590 593/604
f 594/603 593/604 595/907
f 669/573 656/575 657/944
f 654/612 664/594 652/949
f 667/564 665/566 655/941
f 677/650 678/649 666/613
f 683/593 670/602 671/680
f 681/792 668/574 669/573
f 638/532 648/534 636/954
f 717/675 704/577 705/576
f 693/766 680/767 681/792
f 676/595 687/583 675/582
f 666/613 676/595 664/594
f 648/534 647/769 636/954
f 664/594 675/582 663/952
f 718/685 705/576 706/812
f 679/647 677/565 667/564
f 704/577 691/597 692/578
f 678/649 688/535 676/595
f 727/585 725/587 715/917
f 675/582 686/584 674/955
f 705/576 692/578 693/766
f 673/834 684/591 672/679
f 684/591 683/593 672/679
f 688/535 699/537 687/583
f 694/813 681/792 682/601
f 725/254 726/927 714/615
f 692/578 679/647 680/767
f 690/99 700/536 688/535
f 689/651 690/99 678/649
f 715/917 713/956 703/596
f 672/679 671/680 660/957
f 706/812 693/766 694/813
f 707/811 694/813 695/592
f 685/835 696/958 684/591
f 696/958 695/592 684/591
f 686/584 697/959 685/835
f 687/583 698/960 686/584
f 661/902 672/679 660/957
f 713/614 714/615 702/98
f 691/597 689/648 679/647
f 695/592 682/601 683/593
f 660/957 659/768 648/534
f 613/599 623/874 611/600
f 612/20 613/599 589/589
f 698/960 709/762 697/959
f 708/961 707/811 696/958
f 697/959 708/961 696/958
f 719/619 706/812 707/811
f 700/536 711/945 699/537
f 699/537 710/764 698/960
f 649/533 660/957 648/534
f 674/955 685/835 673/834
f 739/14 737/586 727/585
f 663/952 674/955 662/901
f 712/620 723/622 711/945
f 624/770 625/772 612/20
f 710/764 721/763 709/762
f 709/762 720/617 708/961
f 720/617 719/619 708/961
f 731/618 718/685 719/619
f 730/686 717/675 718/685
f 625/772 635/946 623/874
f 682/601 669/573 670/602
f 737/962 738/963 726/927
f 702/98 712/620 700/536
f 643/943 630/922 631/923
f 670/602 657/944 658/925
f 723/622 734/128 722/765
f 636/954 635/946 637/771
f 732/32 731/618 720/617
f 721/763 732/32 720/617
f 624/770 636/954 637/771
f 742/29 729/687 730/686
f 651/947 662/901 650/930
f 630/933 642/948 629/932
f 716/676 703/596 704/577
f 88/52 87/100 90/76
f 493/815 497/504 125/816
f 321/964 515/122 322/667
f 516/6 293/846 308/965
f 958/580 959/758 951/966
f 981/545 982/525 974/842
f 761/705 762/707 763/967
f 786/968 787/969 778/839
f 759/840 760/706 761/705
f 956/837 947/839 955/969
f 952/822 946/970 945/821
f 786/971 768/654 777/653
f 1002/938 1008/972 1015/939
f 979/642 978/644 987/872
f 835/701 836/973 826/974
f 832/847 833/849 824/975
f 812/642 797/819 805/643
f 924/559 1014/634 1007/560
f 812/642 811/644 818/872
f 797/819 806/842 799/826
f 846/645 764/646 754/664
f 837/976 828/977 836/973
f 791/759 785/831 784/760
f 954/968 955/969 947/839
f 804/873 809/978 810/979
f 788/837 778/839 787/969
f 827/778 828/780 819/800
f 781/672 782/581 765/549
f 942/581 950/672 949/980
f 774/981 784/822 776/821
f 987/872 972/873 977/979
f 816/523 809/982 808/524
f 927/983 1015/984 1008/985
f 755/773 757/986 756/987
f 788/837 780/980 779/838
f 796/579 782/581 780/980
f 980/809 981/545 974/842
f 956/854 965/850 957/579
f 975/935 976/988 969/989
f 785/831 792/829 793/830
f 841/746 834/828 832/747
f 968/826 960/859 959/758
f 940/541 928/833 939/540
f 998/555 1005/836 1006/990
f 802/791 801/789 800/790
f 964/783 973/643 965/850
f 791/859 800/790 801/789
f 926/864 927/866 925/986
f 802/870 803/871 792/991
f 826/690 827/778 817/691
f 987/553 988/800 979/642
f 961/789 970/791 963/992
f 979/642 966/819 973/643
f 959/758 952/760 951/966
f 996/778 997/780 988/800
f 809/843 817/845 810/554
f 941/662 922/664 932/646
f 940/993 949/980 950/672
f 844/557 837/661 843/937
f 994/700 1002/701 1003/974
f 795/850 783/580 796/579
f 930/707 932/646 931/967
f 776/821 785/823 777/970
f 963/829 953/831 961/994
f 765/549 766/551 752/663
f 945/652 936/654 935/995
f 771/540 762/542 760/833
f 813/809 814/545 806/842
f 830/543 814/545 820/810
f 996/552 977/554 986/845
f 753/558 755/773 756/987
f 611/600 622/204 610/895
f 1014/746 1009/828 1001/747
f 804/781 794/783 803/871
f 779/569 771/567 778/568
f 774/981 783/580 790/966
f 966/819 959/758 967/851
f 960/859 969/790 961/789
f 256/274 895/606 257/272
f 994/996 983/997 993/998
f 833/996 816/997 824/998
f 992/659 981/545 990/544
f 921/558 1007/560 1005/836
f 845/556 830/674 828/977
f 998/555 1011/557 1013/645
f 1011/557 1004/661 1010/937
f 840/745 832/747 831/999
f 833/689 817/691 825/1000
f 963/655 955/657 962/370
f 827/552 810/554 817/845
f 816/523 815/525 822/832
f 829/555 844/557 846/645
f 954/1001 939/567 937/1002
f 753/558 840/560 838/836
f 939/567 948/569 940/993
f 999/543 981/545 989/810
f 808/988 802/1003 800/989
f 811/644 810/979 818/872
f 776/652 768/654 767/995
f 922/664 1011/557 932/646
f 90/76 91/53 88/52
f 897/203 275/808 905/112
f 27/673 459/629 584/628
f 495/795 490/797 127/669
f 23/482 588/116 587/114
f 213/198 205/187 210/36
f 570/378 1023/486 571/488
f 16/369 21/673 20/368
f 470/129 474/611 78/101
f 562/100 566/548 446/28
f 68/539 57/152 463/51
f 442/101 448/610 439/129
f 403/51 549/538 547/76
f 55/76 68/539 463/51
f 113/101 119/547 116/31
f 67/610 60/101 464/129
f 400/100 551/548 548/28
f 405/152 416/539 403/51
f 76/152 475/527 470/13
f 471/538 74/51 72/76
f 96/13 103/526 481/527
f 476/31 479/548 100/28
f 554/100 557/538 558/563
f 434/76 564/539 565/538
f 464/13 469/526 67/527
f 106/76 121/539 108/51
f 87/100 477/538 90/76
f 540/100 542/538 543/563
f 426/31 559/548 430/547
f 476/31 480/611 102/547
f 481/610 98/101 96/129
f 482/100 484/538 106/76
f 69/100 471/538 72/76
f 563/152 564/539 437/51
f 87/100 479/548 478/563
f 82/28 472/563 69/100
f 118/28 119/547 486/548
f 547/76 550/563 400/100
f 439/13 568/526 563/152
f 272/784 908/499 270/520
f 916/490 533/489 377/658
f 513/121 332/788 331/119
f 494/476 124/796 495/795
f 32/516 31/688 40/209
f 855/69 220/853 850/490
f 913/69 377/658 532/72
f 489/668 127/669 490/797
f 535/861 913/69 918/71
f 508/361 852/9 851/8
f 505/58 849/71 848/228
f 919/9 380/794 915/517
f 915/49 537/678 917/50
f 507/793 853/517 852/9
f 914/8 538/528 919/9
f 283/271 871/163 281/132
f 489/814 125/816 496/1004
f 862/607 861/609 306/863
f 864/623 305/625 865/893
f 863/624 306/863 305/625
f 321/964 307/379 911/359
f 383/29 395/28 396/30
f 1070/1005 7/1006 1059/1007
f 877/635 863/624 864/623
f 881/786 887/1008 879/787
f 873/856 864/858 866/137
f 868/60 883/697 884/1009
f 879/804 870/65 872/329
f 862/607 876/696 860/608
f 880/1010 859/753 882/936
f 878/805 862/607 863/624
f 876/824 859/753 860/608
f 881/786 872/329 858/492
f 988/800 980/809 979/642
f 764/646 752/663 754/664
f 885/702 866/137 867/22
f 896/802 269/256 891/1011
f 879/804 888/682 883/867
f 409/101 553/610 407/129
f 881/798 889/699 890/698
f 893/1012 878/805 894/1013
f 876/824 895/869 882/825
f 892/666 877/857 873/856
f 388/152 399/539 386/51
f 884/899 891/1011 885/1014
f 877/635 894/670 878/636
f 885/702 892/704 873/1015
f 893/694 876/696 874/801
f 353/750 352/752 354/1016
f 274/262 887/683 276/1017
f 890/698 256/260 255/1018
f 890/756 276/251 887/1008
f 886/665 267/495 265/1019
f 278/169 296/755 297/168
f 267/247 891/703 269/245
f 886/616 263/239 894/670
f 896/529 274/243 271/817
f 875/546 257/283 895/869
f 262/266 875/695 893/694
f 901/561 258/562 259/785
f 902/637 254/639 907/717
f 259/785 900/572 901/561
f 124/409 123/413 489/407
f 906/201 254/639 258/562
f 905/112 277/638 902/637
f 122/475 126/503 492/1020
f 516/6 326/776 328/4
f 860/608 302/479 861/609
f 304/162 322/667 515/122
f 1086/111 310/717 312/637
f 897/203 272/784 273/807
f 108/51 107/52 106/76
f 1033/37 369/641 372/187
f 750/15 456/775 1/487
f 586/218 458/384 24/385
f 400/100 413/30 402/29
f 251/59 246/366 250/57
f 587/114 462/484 23/482
f 853/49 218/48 503/234
f 580/627 575/629 574/384
f 77/15 76/152 470/13
f 573/388 1018/671 452/387
f 899/211 264/507 266/1021
f 370/187 373/198 375/36
f 1022/15 450/775 572/487
f 18/485 19/483 581/219
f 1068/45 143/46 1061/47
f 1087/113 329/203 1088/727
f 1083/571 315/561 1084/731
f 1084/731 313/201 1076/631
f 1023/486 572/487 571/488
f 422/14 420/51 421/53
f 1018/671 569/376 452/387
f 284/160 861/153 285/5
f 38/91 32/43 39/1022
f 390/15 388/152 389/14
f 855/69 504/861 221/862
f 853/49 506/678 854/50
f 234/12 250/570 246/10
f 850/490 508/710 851/8
f 916/490 539/710 914/8
f 913/69 381/853 916/490
f 917/50 536/884 912/228
f 543/563 395/28 540/100
f 562/100 565/538 449/563
f 384/76 399/539 542/538
f 555/152 561/527 431/526
f 391/13 398/526 388/152
f 409/101 414/547 552/611
f 60/101 66/547 62/31
f 393/101 397/547 545/611
f 411/31 551/548 414/547
f 78/101 84/547 80/31
f 121/539 111/152 108/51
f 62/31 467/548 65/28
f 407/13 415/526 405/152
f 432/539 418/76 420/51
f 483/13 120/526 488/527
f 393/101 546/610 391/129
f 104/539 94/152 92/51
f 84/547 82/28 80/31
f 556/101 430/547 560/611
f 446/28 447/547 444/31
f 555/152 432/539 420/51
f 483/129 487/611 113/101
f 52/100 465/538 55/76
f 442/101 447/547 567/611
f 482/100 486/548 485/563
f 455/395 2/391 3/392
f 90/76 104/539 92/51
f 544/548 541/31 395/28
f 65/28 466/563 52/100
f 429/28 558/563 559/548
f 86/539 76/152 74/51
f 556/101 561/610 423/129
f 922/664 1005/836 1013/645
f 823/659 816/997 822/660
f 788/854 795/850 796/579
f 759/1023 841/634 757/633
f 797/819 795/850 805/643
f 789/758 784/760 790/966
f 823/1024 832/847 824/975
f 970/1025 977/979 972/873
f 752/663 753/558 754/664
f 766/551 767/1026 755/1027
f 944/981 952/822 945/821
f 966/819 974/842 968/826
f 773/662 765/549 752/663
f 831/1028 821/1029 839/990
f 772/541 773/662 762/542
f 941/662 933/549 920/663
f 942/581 943/550 933/549
f 972/781 964/783 971/871
f 756/559 841/634 840/560
f 989/810 997/780 999/543
f 970/870 971/871 963/991
f 762/707 764/646 763/967
f 944/981 935/995 943/550
f 976/988 970/1003 969/989
f 934/551 922/664 920/663
f 1006/990 992/1024 990/1029
f 262/287 894/1013 263/285
f 967/851 973/643 966/819
f 758/864 759/866 757/986
f 929/705 930/707 931/967
f 956/837 949/980 948/838
f 957/579 942/581 949/980
f 953/823 954/1030 946/970
f 934/551 935/1026 923/1027
f 992/1024 1001/847 993/975
f 792/655 787/657 793/370
f 983/523 985/982 976/524
f 955/657 964/855 956/854
f 936/1031 923/1027 935/1026
f 933/549 934/551 920/663
f 778/568 770/1002 786/1001
f 961/994 952/760 960/759
f 986/691 995/779 996/778
f 820/810 828/780 830/543
f 797/819 789/758 798/851
f 923/773 925/986 924/987
f 814/545 815/525 806/842
f 942/581 951/966 944/981
f 847/939 834/1032 842/972
f 772/993 780/980 781/672
f 921/558 923/773 924/987
f 839/990 830/674 829/555
f 770/1033 760/833 769/1034
f 815/1035 800/989 807/935
f 831/999 838/836 840/745
f 928/833 937/1033 939/540
f 819/800 813/809 812/642
f 818/553 819/800 812/642
f 767/1026 758/1036 755/1027
f 770/350 758/1036 768/1031
f 985/843 986/845 977/554
f 1010/1037 932/646 1011/557
f 794/783 805/643 795/850
f 965/850 958/580 957/579
f 927/1023 1014/634 925/633
f 843/1037 764/646 844/557
f 993/998 991/660 992/659
f 1001/847 994/849 993/975
f 614/21 589/589 592/588
f 982/525 983/523 976/524
f 761/1038 843/1037 847/984
f 754/664 838/836 846/645
f 782/581 775/550 765/549
f 823/659 814/545 821/544
f 791/859 799/826 807/860
f 994/689 986/691 984/1000
f 793/1039 777/970 785/823
f 1002/701 995/973 1003/974
f 774/981 767/995 775/550
f 1012/556 999/674 997/977
f 838/836 829/555 846/645
f 1007/745 1006/990 1005/836
f 1007/745 1001/747 1000/999
f 835/701 833/700 834/165
f 937/350 926/1036 936/1031
f 940/541 941/662 930/542
f 974/842 975/935 968/826
f 783/580 789/758 790/966
f 954/971 936/654 946/653
f 1004/976 997/977 995/973
f 835/938 843/937 837/661
f 1006/990 999/674 998/555
f 927/840 928/706 929/705
f 931/1040 1015/984 929/1038
f 787/657 794/855 788/854
f 759/983 847/984 842/985
f 583/116 16/369 20/368
f 456/775 748/1041 2/881
f 1052/82 145/512 1068/83
f 363/96 360/56 361/54
f 35/42 34/109 45/1042
f 893/1012 874/806 878/805
f 880/1010 857/480 859/753
f 520/457 334/737 1075/458
f 536/58 535/684 918/71
f 881/786 890/756 887/1008
f 892/666 886/665 877/857
f 940/993 948/569 949/980
f 388/152 398/526 399/539
f 547/76 549/538 550/563
f 87/100 100/28 479/548
f 69/100 472/563 471/538
f 540/100 384/76 542/538
f 827/552 818/553 810/554
f 439/13 448/527 568/526
f 779/569 772/993 771/567
f 118/28 116/31 119/547
f 603/953 606/913 604/911
f 764/646 773/662 752/663
f 927/983 929/1038 1015/984
f 930/707 941/662 932/646
f 82/28 473/548 472/563
f 661/902 673/834 672/679
f 884/899 896/802 891/1011
f 916/490 381/221 539/710
f 812/642 813/809 797/819
f 922/664 1013/645 1011/557
f 913/69 382/852 381/853
f 391/13 546/527 398/526
f 426/31 429/28 559/548
f 321/964 326/776 307/379
f 611/600 623/874 622/204
f 994/996 984/1043 983/997
f 715/917 725/587 713/956
f 706/812 705/576 693/766
f 113/101 487/611 119/547
f 1085/1044 1065/719 1092/171
f 975/935 982/1035 976/988
f 482/100 485/563 484/538
f 885/702 873/1015 866/137
f 785/831 801/994 792/829
f 958/580 967/851 959/758
f 321/964 911/359 515/122
f 786/968 793/1045 787/969
f 816/523 825/1046 809/982
f 666/613 678/649 676/595
f 88/52 89/29 87/100
f 954/968 962/1045 955/969
f 968/826 975/860 960/859
f 393/101 541/31 397/547
f 853/49 219/677 506/678
f 855/69 849/71 504/861
f 67/610 468/611 60/101
f 96/13 94/152 103/526
f 835/701 837/976 836/973
f 608/897 621/206 620/915
f 285/5 861/153 302/295
f 746/671 745/587 453/376
f 178/155 171/154 180/478
f 93/14 91/53 92/51
f 600/909 598/903 599/905
f 604/911 619/914 618/912
f 228/255 224/183 227/882
f 292/163 869/132 308/271
f 386/51 384/76 385/52
f 1020/473 1019/386 573/388
f 606/913 620/915 619/914
f 609/894 611/600 610/895
f 392/80 393/101 391/129
f 500/70 499/888 848/228
f 912/228 530/888 379/48
f 439/13 563/152 438/14
f 602/891 604/911 600/892
f 301/134 314/133 316/890
f 122/475 491/820 494/476
f 232/467 233/1047 222/468
f 164/155 157/154 166/478
f 607/896 610/895 608/897
f 513/121 297/168 296/885
f 349/456 348/1048 1045/322
f 342/223 341/1049 340/165
f 51/218 42/521 28/140
f 341/451 342/305 1034/304
f 1060/34 210/1050 205/36
f 242/230 223/497 237/184
f 350/453 347/1051 1038/331
f 243/220 229/361 248/221
f 245/225 252/345 251/226
f 354/454 352/333 1067/332
f 854/50 506/1052 505/884
f 62/31 63/32 61/80
f 581/218 580/627 574/384
f 343/215 344/371 342/216
f 338/166 339/1053 337/214
f 13/380 14/733 8/381
f 503/346 217/7 852/9
f 43/883 44/1054 37/176
f 337/214 339/1053 346/383
f 138/211 134/233 137/212
f 97/80 95/128 96/129
f 747/386 746/671 3/387
f 150/144 148/39 140/41
f 360/93 367/54 368/86
f 56/53 53/52 55/76
f 1044/38 1028/37 201/181
f 349/389 358/1055 356/356
f 748/473 747/386 457/388
f 368/738 367/93 1062/38
f 249/58 236/1056 235/222
f 12/470 7/1006 9/471
f 526/448 337/1057 1027/300
f 527/449 340/302 1047/301
f 376/199 528/200 370/62
f 78/101 79/80 77/128
f 728/900 727/585 715/917
f 564/1 448/3 447/2
f 64/30 63/32 62/31
f 511/879 289/275 307/379
f 21/673 576/367 575/629
f 1051/466 1070/464 8/531
f 639/916 650/930 649/533
f 281/132 871/163 304/162
f 22/369 26/368 588/116
f 157/195 156/41 165/40
f 172/501 173/708 1037/45
f 714/615 726/927 724/621
f 806/842 815/1035 807/935
f 724/621 736/928 735/908
f 174/41 169/136 175/144
f 1074/729 1088/727 329/203
f 598/903 596/906 597/904
f 629/932 642/948 641/934
f 743/30 742/29 730/686
f 857/480 880/799 881/798
f 499/888 218/48 854/50
f 153/155 150/67 146/68
f 596/906 594/603 595/907
f 645/926 644/940 632/931
f 641/934 652/949 651/947
f 644/940 643/943 631/923
f 646/918 645/926 633/205
f 629/932 628/924 616/919
f 1010/937 1004/661 1002/938
f 653/950 665/951 654/612
f 642/948 654/612 652/949
f 628/924 641/934 640/929
f 630/933 629/932 617/920
f 621/206 633/205 632/931
f 722/765 734/128 733/80
f 647/769 646/918 634/875
f 668/574 667/564 655/941
f 729/687 728/900 716/676
f 896/529 884/1009 883/697
f 889/605 880/1010 882/936
f 711/945 723/622 722/765
f 605/898 608/897 606/913
f 652/949 664/594 663/952
f 615/877 614/21 592/588
f 671/680 670/602 658/925
f 650/930 662/901 661/902
f 610/895 622/204 621/206
f 665/951 677/650 666/613
f 656/575 655/941 643/943
f 616/919 615/877 594/603
f 741/52 740/53 728/900
f 884/899 885/1014 867/22
f 618/921 617/920 598/903
f 657/944 656/575 644/940
f 626/19 639/916 638/532
f 617/920 616/919 596/906
f 680/767 679/647 667/564
f 662/901 674/955 673/834
f 659/768 658/925 646/918
f 655/941 665/566 653/942
f 726/927 738/963 736/928
f 569/376 1017/587 1016/377
f 352/752 351/751 348/192
f 458/384 585/627 584/628
f 327/889 332/788 298/160
f 640/929 651/947 650/930
f 740/53 739/14 727/585
f 374/352 529/351 372/188
f 287/169 865/120 305/121
f 355/357 353/1058 354/887
f 113/101 114/80 112/128
f 658/925 657/944 645/926
f 620/915 632/931 631/923
f 169/144 170/136 1066/82
f 1061/47 143/46 147/144
f 703/596 713/956 701/473
f 173/81 168/151 1066/82
f 628/924 627/876 615/877
f 627/876 640/929 639/916
f 206/187 209/641 1063/640
f 1021/774 1020/1041 451/881
f 744/377 751/486 455/488
f 857/480 858/492 856/493
f 619/914 631/923 630/922
f 808/988 809/1059 802/1003
f 697/959 709/762 708/961
f 737/962 1024/227 738/963
f 562/100 434/76 565/538
f 1040/118 1055/47 161/46
f 221/73 505/435 219/74
f 96/13 95/15 93/14
f 13/380 1039/362 1051/364
f 1072/626 1083/571 1084/731
f 46/148 31/688 42/149
f 205/36 206/187 1028/37
f 141/136 1052/82 1046/118
f 401/52 547/76 400/100
f 622/204 634/875 633/205
f 582/114 17/482 577/115
f 434/76 562/100 433/29
f 904/505 900/572 261/506
f 250/57 236/1056 249/58
f 438/14 563/152 437/51
f 125/419 126/421 494/415
f 407/13 405/152 406/14
f 170/41 174/39 177/68
f 701/97 713/614 702/98
f 518/734 1095/741 1089/735
f 5/146 6/147 4/145
f 162/117 158/501 1055/47
f 295/162 300/130 869/132
f 193/41 184/40 186/196
f 1058/630 1030/693 1076/631
f 214/159 209/85 206/55
f 408/128 410/80 409/101
f 234/12 225/11 223/497
f 1031/728 1088/727 1074/729
f 1046/118 1052/82 142/151
f 241/156 238/1060 226/157
f 1080/692 1041/709 1030/693
f 1040/118 1032/82 154/151
f 866/137 864/858 865/138
f 367/93 362/181 1033/37
f 871/163 318/500 317/491
f 751/486 750/15 1/487
f 29/90 33/681 38/91
f 909/103 311/1061 314/133
f 186/708 1035/45 1025/47
f 1042/720 1079/79 1078/519
f 417/29 554/100 429/28
f 149/39 146/68 142/40
f 351/715 353/749 1026/323
f 1049/718 1078/510 1094/511
f 1040/118 155/144 156/136
f 1093/77 325/499 323/78
f 1045/322 348/1048 351/715
f 36/508 32/516 40/209
f 418/76 554/100 417/29
f 295/173 512/161 298/160
f 1064/82 183/136 187/512
f 280/359 856/277 299/278
f 433/29 562/100 446/28
f 128/201 135/72 129/202
f 47/178 48/179 46/365
f 522/712 1090/711 1081/739
f 191/39 188/68 184/40
f 231/182 222/1062 224/183
f 203/54 207/93 204/181
f 128/201 138/211 139/213
f 379/48 378/234 915/49
f 65/28 52/100 54/29
f 1041/709 1084/731 1076/631
f 1096/172 1072/626 1041/709
f 6/105 5/363 11/106
f 99/32 476/31 100/28
f 499/433 216/347 217/432
f 151/154 144/478 150/67
f 118/28 482/100 105/29
f 75/14 73/53 74/51
f 1055/47 1050/45 157/476
f 384/76 540/100 383/29
f 365/95 364/742 362/94
f 867/22 866/137 309/23
f 112/15 110/14 111/152
f 359/86 361/54 360/56
f 1086/111 312/637 333/112
f 297/168 513/121 909/120
f 156/41 160/39 163/68
f 521/742 523/740 1081/739
f 348/192 349/389 347/193
f 382/73 536/435 380/74
f 462/484 25/483 586/219
f 98/101 476/31 99/32
f 370/62 528/200 374/63
f 197/199 198/198 196/62
f 337/1057 345/744 1027/300
f 521/722 1085/1044 1092/171
f 294/153 910/5 298/160
f 403/51 547/76 401/52
f 520/457 1077/459 1090/711
f 37/342 40/1063 31/42
f 47/178 28/878 50/177
f 410/80 412/32 411/31
f 196/62 200/64 199/63
f 694/813 693/766 681/792
f 692/578 691/597 679/647
f 687/583 699/537 698/960
f 708/961 719/619 707/811
f 686/584 698/960 697/959
f 685/835 697/959 696/958
f 811/644 804/873 810/979
f 696/958 707/811 695/592
f 512/161 295/1064 292/281
f 269/256 271/803 272/257
f 319/313 324/318 321/317
f 413/30 548/28 411/31
f 291/295 294/153 292/281
f 19/335 20/88 21/89
f 215/96 211/54 208/56
f 286/278 515/122 911/359
f 509/102 279/1065 280/280
f 426/31 556/101 425/80
f 230/328 244/184 224/183
f 513/319 299/1066 300/248
f 333/268 312/289 311/269
f 323/237 326/236 321/317
f 286/278 290/277 287/276
f 327/306 330/1067 329/309
f 305/310 306/1068 304/250
f 160/39 164/155 167/67
f 315/314 320/312 317/315
f 274/262 276/1017 275/263
f 322/311 317/315 320/312
f 308/319 309/325 307/320
f 48/179 50/514 31/42
f 245/225 249/227 248/254
f 301/248 514/1066 302/249
f 372/188 529/351 376/199
f 425/80 556/101 423/129
f 259/282 258/1069 257/283
f 195/155 192/67 188/68
f 117/30 115/32 116/31
f 316/293 314/1070 310/288
f 660/957 671/680 659/768
f 742/29 741/52 729/687
f 651/947 663/952 662/901
f 698/960 710/764 709/762
f 554/100 418/76 557/538
f 1028/37 199/1071 201/181
f 674/955 686/584 685/835
f 630/933 653/950 642/948
f 1091/191 1071/730 1095/741
f 1048/47 171/476 175/46
f 1037/83 170/136 171/512
f 190/501 1056/118 182/117
f 207/738 1044/38 204/93
f 371/1050 1062/38 373/36
f 8/1072 1059/1007 15/1073
f 917/50 537/1052 536/884
f 716/676 715/917 703/596
f 670/602 669/573 657/944
f 723/622 735/908 734/128
f 1002/938 1009/1032 1008/972
f 702/98 714/615 712/620
f 954/1001 947/568 939/567
f 802/791 792/992 801/789
f 420/51 418/76 419/52
f 72/76 70/52 71/29
f 1090/711 1054/713 1042/720
f 344/761 346/1074 1057/303
f 443/32 444/31 442/101
f 1096/172 1092/171 1065/719
f 373/36 1062/38 1033/37
f 627/876 626/19 614/21
f 28/878 30/229 38/175
f 1089/735 1053/726 1031/728
f 345/744 343/450 1047/301
f 355/748 358/324 1026/323
f 623/874 635/946 634/875
f 217/7 502/489 851/8
f 441/80 442/101 439/129
f 151/195 152/41 142/40
f 227/355 225/373 226/366
f 280/359 279/379 303/275
f 224/372 223/1075 225/373
f 289/275 290/277 911/359
f 160/144 155/39 161/41
f 345/370 346/383 344/371
f 460/367 27/673 26/368
f 453/376 745/587 744/377
f 239/344 227/882 238/374
f 956/837 948/838 947/839
f 100/28 87/100 89/29
f 514/16 283/271 282/17
f 626/19 624/770 612/20
f 328/4 327/889 910/5
f 1053/726 1086/111 1087/113
f 18/25 574/402 16/26
f 68/1 465/406 66/2
f 423/13 555/152 422/14
f 246/10 247/139 225/11
f 1054/713 1079/79 1042/720
f 952/822 953/823 946/970
f 613/599 625/772 623/874
f 979/642 973/643 978/644
f 695/592 694/813 682/601
f 725/254 737/962 726/927
f 612/20 625/772 613/599
f 682/601 681/792 669/573
f 624/770 638/532 636/954
f 636/954 647/769 635/946
f 721/763 733/80 732/32
f 739/14 1024/15 737/586
f 786/971 770/1076 768/654
f 1018/671 1017/587 569/376
f 625/772 637/771 635/946
f 643/943 653/942 630/922
f 833/996 825/1043 816/997
f 1070/1005 9/471 7/1006
f 1084/731 315/561 313/201
f 476/31 98/101 480/611
f 663/952 675/582 674/955
f 411/31 548/28 551/548
f 980/809 989/810 981/545
f 649/533 661/902 660/957
f 781/672 780/980 782/581
f 827/778 836/779 828/780
f 774/981 782/581 783/580
f 690/99 702/98 700/536
f 837/976 845/556 828/977
f 788/837 796/579 780/980
f 791/759 801/994 785/831
f 804/873 802/1025 809/978
f 755/773 758/864 757/986
f 1087/113 333/112 329/203
f 699/537 711/945 710/764
f 732/32 743/30 731/618
f 960/859 975/860 969/790
f 124/409 122/411 123/413
f 1081/739 1049/35 1085/743
f 1075/458 1036/714 1077/459
f 362/181 1043/640 1033/37
f 1029/118 168/151 176/117
f 184/151 1035/83 186/81
f 5/146 1070/464 1051/466
f 148/501 1046/118 140/117
f 263/285 264/1077 261/286
f 276/251 255/757 277/252
f 1039/362 11/106 5/363
f 223/353 224/158 222/354
f 333/268 331/270 332/308
f 49/92 40/1063 37/342
f 243/220 253/1078 230/360
f 356/356 358/1055 355/357
f 289/275 511/1079 287/276
f 872/329 870/65 300/66
f 315/314 318/316 316/293
f 59/15 58/14 57/152
f 128/297 130/426 133/298
f 285/131 282/1080 283/271
f 132/290 136/423 135/291
f 436/53 437/51 434/76
f 531/70 530/888 912/228
f 257/272 258/1081 254/273
f 245/225 227/882 239/344
f 899/63 266/1082 268/337
f 24/25 458/402 22/26
f 325/235 330/1067 327/306
f 259/265 260/868 262/266
f 132/346 133/352 131/63
f 277/259 255/1018 256/260
f 269/245 270/1083 268/246
f 279/326 509/102 301/134
f 284/340 510/130 304/162
f 310/288 314/1070 311/269
f 131/63 130/203 129/202
f 405/152 403/51 404/53
f 200/350 202/188 201/351
f 335/170 1096/172 1080/692
f 586/87 25/335 26/88
f 240/110 226/218 225/11
f 1036/714 1074/729 1093/77
f 356/721 357/455 1067/332
f 10/145 11/513 7/146
f 209/33 210/1050 1060/34
f 1025/47 185/46 189/144
f 183/136 1064/82 1056/118
f 237/184 223/497 233/207
f 176/117 172/501 1048/47
f 158/501 159/708 1050/45
f 509/102 278/104 909/103
f 515/122 286/278 288/123
f 395/28 541/31 394/32
f 1029/118 1048/47 175/46
f 915/517 378/346 534/7
f 194/154 186/478 192/67
f 870/65 868/60 869/61
f 1077/459 1036/714 1054/713
f 1057/303 346/1074 339/725
f 35/42 39/1022 32/43
f 57/152 58/14 56/53
f 903/78 268/337 270/520
f 11/513 1039/464 1059/466
f 105/29 482/100 106/76
f 80/31 82/28 83/30
f 1053/726 1087/113 1088/727
f 525/716 1080/692 1073/190
f 41/140 49/92 44/141
f 335/170 524/723 1092/171
f 1083/571 1094/511 319/505
f 1058/630 1082/632 1086/111
f 142/151 1052/82 1068/83
f 72/76 74/51 73/53
f 6/382 10/381 12/470
f 858/492 872/329 299/330
f 511/102 309/134 865/103
f 521/125 335/446 336/126
f 1063/35 1060/34 207/738
f 445/30 446/28 444/31
f 159/81 154/151 1032/82
f 60/101 61/80 59/128
f 144/708 1068/45 1061/47
f 1058/630 1091/191 1073/190
f 294/153 291/295 516/6
f 174/39 178/155 181/67
f 364/724 368/738 1069/34
f 1093/77 1074/729 330/498
f 110/14 109/53 108/51
f 364/85 365/159 359/86
f 228/255 248/254 229/518
f 534/7 533/489 914/8
f 388/152 386/51 387/53
f 1069/34 371/1050 369/33
f 1078/510 324/211 319/505
f 1089/735 1095/741 1071/730
f 501/72 500/70 849/71
f 331/119 311/474 909/120
f 502/489 216/658 850/490
f 266/494 265/1019 267/495
f 55/76 53/52 54/29
f 82/28 69/100 71/29
f 1050/83 1032/82 156/136
f 29/90 30/92 28/140
f 115/32 114/80 113/101
f 171/195 170/41 179/40
f 201/351 202/188 198/198
f 302/479 859/753 857/480
f 510/130 284/1084 285/131
f 38/175 39/516 37/176
f 347/1051 356/721 1038/331
f 45/515 37/176 39/516
f 43/108 45/1042 34/109
f 79/80 78/101 80/31
f 17/482 582/114 19/483
f 514/16 316/890 318/500
f 1035/45 187/476 185/46
f 1064/82 184/151 182/117
f 1072/626 1065/719 1094/511
f 519/736 1089/735 1075/458
f 517/189 336/732 1073/190
f 913/69 532/72 531/70
f 119/2 120/84 121/1
f 123/502 492/1020 126/503
f 41/208 34/509 40/209
f 192/144 190/39 182/41
f 517/189 1091/191 1095/741
f 1082/632 1076/631 313/201
f 340/165 341/1049 338/166
f 868/60 867/22 308/24
f 1078/519 1079/79 323/78
f 339/725 338/452 1034/304
f 211/54 212/86 206/55
f 213/94 209/742 214/95
f 394/32 541/31 393/101
f 719/619 718/685 706/812
f 700/536 712/620 711/945
f 905/112 275/808 277/638
f 774/981 790/966 784/822
f 405/152 415/526 416/539
f 850/490 501/72 855/69
f 78/101 474/611 84/547
f 121/539 120/526 111/152
f 62/31 66/547 467/548
f 407/13 553/527 415/526
f 432/539 557/538 418/76
f 483/13 111/152 120/526
f 393/101 545/611 546/610
f 104/539 103/526 94/152
f 84/547 473/548 82/28
f 556/101 426/31 430/547
f 446/28 566/548 447/547
f 555/152 431/526 432/539
f 483/129 488/610 487/611
f 52/100 466/563 465/538
f 442/101 444/31 447/547
f 482/100 118/28 486/548
f 455/395 1/396 2/391
f 90/76 477/538 104/539
f 544/548 397/547 541/31
f 65/28 467/548 466/563
f 429/28 554/100 558/563
f 86/539 85/526 76/152
f 556/101 560/611 561/610
f 922/664 921/558 1005/836
f 823/659 824/998 816/997
f 788/854 794/855 795/850
f 759/1023 842/1085 841/634
f 797/819 798/851 795/850
f 789/758 791/759 784/760
f 823/1024 831/1028 832/847
f 970/1025 985/978 977/979
f 752/663 766/551 753/558
f 766/551 775/550 767/1026
f 944/981 951/966 952/822
f 966/819 980/809 974/842
f 773/662 781/672 765/549
f 831/1028 823/1024 821/1029
f 772/541 781/672 773/662
f 941/662 950/672 933/549
f 942/581 944/981 943/550
f 972/781 978/782 964/783
f 756/559 757/633 841/634
f 989/810 988/800 997/780
f 970/870 972/781 971/871
f 762/707 773/662 764/646
f 944/981 945/652 935/995
f 976/988 985/1059 970/1003
f 934/551 921/558 922/664
f 1006/990 1000/1028 992/1024
f 262/287 893/1012 894/1013
f 967/851 965/850 973/643
f 758/864 769/865 759/866
f 929/705 928/706 930/707
f 956/837 957/579 949/980
f 957/579 958/580 942/581
f 953/823 962/1039 954/1030
f 934/551 943/550 935/1026
f 992/1024 1000/1028 1001/847
f 792/655 803/656 787/657
f 983/523 984/1046 985/982
f 955/657 971/656 964/855
f 936/1031 926/1036 923/1027
f 933/549 943/550 934/551
f 778/568 771/567 770/1002
f 961/994 953/831 952/760
f 986/691 1003/690 995/779
f 820/810 819/800 828/780
f 797/819 799/826 789/758
f 923/773 926/864 925/986
f 814/545 822/832 815/525
f 942/581 958/580 951/966
f 847/939 835/938 834/1032
f 772/993 779/569 780/980
f 921/558 934/551 923/773
f 839/990 821/1029 830/674
f 770/1033 771/540 760/833
f 815/1035 808/988 800/989
f 831/999 839/990 838/836
f 928/833 938/1034 937/1033
f 819/800 820/810 813/809
f 818/553 827/552 819/800
f 767/1026 768/1031 758/1036
f 770/350 769/1086 758/1036
f 985/843 984/844 986/845
f 1010/1037 931/1040 932/646
f 794/783 811/782 805/643
f 965/850 967/851 958/580
f 927/1023 1008/1085 1014/634
f 843/1037 763/1040 764/646
f 993/998 983/997 991/660
f 1001/847 1009/848 994/849
f 614/21 612/20 589/589
f 982/525 991/832 983/523
f 761/1038 763/1040 843/1037
f 754/664 753/558 838/836
f 782/581 774/981 775/550
f 823/659 822/660 814/545
f 791/859 789/758 799/826
f 994/689 1003/690 986/691
f 793/1039 786/1030 777/970
f 1002/701 1004/976 995/973
f 774/981 776/652 767/995
f 1012/556 998/555 999/674
f 838/836 839/990 829/555
f 1007/745 1000/999 1006/990
f 1007/745 1014/746 1001/747
f 835/701 826/974 833/700
f 937/350 938/1086 926/1036
f 940/541 950/672 941/662
f 974/842 982/1035 975/935
f 783/580 798/851 789/758
f 954/971 937/1076 936/654
f 1004/976 1012/556 997/977
f 835/938 847/939 843/937
f 1006/990 990/1029 999/674
f 927/840 938/841 928/706
f 931/1040 1010/1037 1015/984
f 787/657 803/656 794/855
f 759/983 761/1038 847/984
f 583/116 577/115 16/369
f 456/775 749/774 748/1041
f 1052/82 141/136 145/512
f 363/96 362/94 360/56
f 35/42 36/44 34/109
f 1085/1044 1049/718 1065/719
f 1028/37 1063/640 199/1071
f 1091/191 1058/630 1071/730
f 1048/47 1037/45 171/476
f 1037/83 1066/82 170/136
f 190/501 1025/47 1056/118
f 207/738 1060/34 1044/38
f 371/1050 1069/34 1062/38
f 8/1072 1070/1005 1059/1007
f 1053/726 1071/730 1086/111
f 1054/713 1093/77 1079/79
f 1081/739 1042/720 1049/35
f 1075/458 1031/728 1036/714
f 362/181 364/1071 1043/640
f 1029/118 1066/82 168/151
f 184/151 1064/82 1035/83
f 5/146 9/513 1070/464
f 148/501 1061/47 1046/118
f 850/490 216/658 501/72
o Rotor
v 0.1875 0.6443 -1.375
v -0.375 0.1443 -1.375
v 0.375 0.1443 -1.375
v -0.1875 0.6443 -1.375
v -0.375 0.1443 -2.125
v 0.25 -0.1057 -1.375
v -0.25 -0.1057 -1.375
v 0 -0.5387 -1.375
v 0.1875 0.6443 -2.125
v -0.1875 0.6443 -2.125
v -0.25 -0.1057 -2.125
v 0.25 -0.1057 -2.125
v 0 -0.5387 -2.125
v 0.375 0.1443 -2.125
v 0.529 -0.1224 -1.375
v 0.154 -0.7719 -1.375
v 0.154 -0.7719 -2.125
v 0.529 -0.1224 -2.125
v -0.154 -0.7719 -1.375
v -0.529 -0.1224 -1.375
v -0.529 -0.1224 -2.125
v -0.154 -0.7719 -2.125
v 0.8683 -0.5348 -1.375
v 0.6808 -0.8595 -2.125
v 0.8683 -0.5348 -2.125
v -0.6808 -0.8595 -1.375
v -0.8683 -0.5348 -2.125
v -0.6808 -0.8595 -2.125
v -0.8683 -0.5348 -1.375
v 0.6808 -0.8595 -1.375
vt 0.1826 0.0662
vt 0.1416 0.125
vt 0.1279 0.0662
vt 0.2648 0.0368
vt 0.2374 0.125
vt 0.2374 0.0368
vt 0.3539 0.1112
vt 0.3219 0.1112
vt 0.3379 0.0666
vt 0.3014 0.0368
vt 0.3196 0.125
vt 0.3014 0.125
vt 0.3539 0.1112
vt 0.3221 0.1112
vt 0.338 0.0668
vt 0.2009 0.0368
vt 0.1735 0.0368
vt 0.137 0.0368
vt 0.2009 0.125
vt 0.1826 0.0368
vt 0.1689 0.125
vt 0.2648 0.125
vt 0.3196 0.0368
vt 0.1826 0.125
s 1
f 1101/1087 1105/1088 1110/1089
f 1126/1090 1121/1091 1119/1092
f 1102/1093 1103/1094 1104/1095
f 1116/1096 1107/1097 1117/1098
f 1107/1099 1108/1100 1109/1101
f 1106/1091 1098/1102 1100/1092
f 1111/1089 1104/1103 1112/1087
f 1124/1091 1115/1102 1122/1092
f 1099/1087 1103/1104 1102/1103
f 1101/1105 1103/1106 1098/1102
f 1101/1087 1106/1107 1105/1088
f 1115/1089 1116/1087 1125/1107
f 1114/1087 1109/1104 1108/1103
f 1125/1090 1124/1091 1122/1092
f 1116/1087 1104/1104 1103/1103
f 1114/1105 1102/1106 1111/1102
f 1118/1087 1107/1104 1109/1103
f 1097/1090 1106/1091 1100/1092
f 1110/1089 1107/1103 1101/1087
f 1099/1096 1108/1097 1110/1098
f 1097/1090 1110/1098 1105/1108
f 1097/1107 1098/1089 1099/1087
f 1118/1105 1104/1106 1115/1102
f 1126/1107 1111/1089 1112/1087
f 1112/1096 1109/1097 1113/1098
f 1126/1090 1113/1098 1120/1108
f 1117/1089 1118/1087 1124/1107
f 1121/1091 1111/1102 1119/1092
f 1113/1089 1114/1087 1121/1107
f 1124/1091 1118/1105 1115/1102
f 1126/1107 1119/1088 1111/1089
f 1121/1091 1114/1105 1111/1102
f 1112/1096 1104/1109 1109/1097
f 1116/1096 1103/1109 1107/1097
f 1097/1107 1100/1088 1098/1089
f 1106/1091 1101/1105 1098/1102
f 1126/1090 1112/1096 1113/1098
f 1126/1090 1120/1108 1121/1091
f 1114/1105 1108/1110 1102/1106
f 1101/1105 1107/1110 1103/1106
f 1110/1089 1108/1104 1107/1103
f 1125/1090 1123/1108 1124/1091
f 1117/1089 1107/1104 1118/1087
f 1115/1089 1104/1104 1116/1087
f 1113/1089 1109/1104 1114/1087
f 1111/1089 1102/1104 1104/1103
f 1118/1105 1109/1110 1104/1106
f 1125/1090 1116/1096 1117/1098
f 1099/1087 1098/1089 1103/1104
f 1099/1096 1102/1109 1108/1097
f 1121/1107 1120/1088 1113/1089
f 1097/1090 1105/1108 1106/1091
f 1097/1090 1099/1096 1110/1098
f 1125/1107 1122/1088 1115/1089
f 1124/1107 1123/1088 1117/1089
f 1125/1090 1117/1098 1123/1108
