o Cylinder
v 0 -0 -1
v 0 10 -1
v 0.5 -0 -0.866
v 0.5 10 -0.866
v 0.866 -0 -0.5
v 0.866 10 -0.5
v 1 0 0
v 1 10 -0
v 0.866 0 0.5
v 0.866 10 0.5
v 0.5 0 0.866
v 0.5 10 0.866
v 0 0 1
v 0 10 1
v -0.5 0 0.866
v -0.5 10 0.866
v -0.866 0 0.5
v -0.866 10 0.5
v -1 0 0
v -1 10 -0
v -0.866 -0 -0.5
v -0.866 10 -0.5
v -0.5 -0 -0.866
v -0.5 10 -0.866
v 0.5 5 -0.866
v 0.866 5 -0.5
v 1 5 -0
v 0.866 5 0.5
v 0.5 5 0.866
v 0 5 1
v -0.5 5 0.866
v -0.866 5 0.5
v -1 5 -0
v -0.866 5 -0.5
v -0 10 -0.5
v 0 5 -1
v -0.5 5 -0.866
v 0.25 -0 -0.433
v -0.433 10 0.25
v 0.25 0 0.433
v 1 2.5 -0
v 0.5 7.5 -0.866
v 0.866 7.5 -0.5
v 0.5 2.5 0.866
v 1 7.5 -0
v -0.866 2.5 0.5
v 0.866 7.5 0.5
v -0.866 2.5 -0.5
v 0.5 7.5 0.866
v 0.866 2.5 0.5
v 0 7.5 1
v 0 2.5 1
v -0.5 7.5 0.866
v 0 2.5 -1
v -0.866 7.5 0.5
v -1 2.5 -0
v -1 7.5 -0
v -0.5 2.5 -0.866
v -0.866 7.5 -0.5
v 0.866 2.5 -0.5
v -0.5 2.5 0.866
v 0 7.5 -1
v -0.5 7.5 -0.866
v 0.5 2.5 -0.866
v 1 3.75 -0
v 0.5 8.75 -0.866
v 0.866 8.75 -0.5
v 0.5 3.75 0.866
v 1 8.75 -0
v -0.866 3.75 0.5
v 0.866 8.75 0.5
v -0.866 3.75 -0.5
v 0.5 8.75 0.866
v 0.866 3.75 0.5
v 0 8.75 1
v 0 3.75 1
v -0.5 8.75 0.866
v 0 3.75 -1
v -0.866 8.75 0.5
v -1 3.75 -0
v -1 8.75 -0
v -0.5 3.75 -0.866
v -0.866 8.75 -0.5
v 0.866 3.75 -0.5
v -0.5 3.75 0.866
v 0 8.75 -1
v -0.5 8.75 -0.866
v 0.5 3.75 -0.866
v 1 1.25 -0
v 0.5 6.25 -0.866
v 0.866 6.25 -0.5
v 0.5 1.25 0.866
v 1 6.25 -0
v -0.866 1.25 0.5
v 0.866 6.25 0.5
v -0.866 1.25 -0.5
v 0.5 6.25 0.866
v 0.866 1.25 0.5
v 0 6.25 1
v 0 1.25 1
v -0.5 6.25 0.866
v 0 1.25 -1
v -0.866 6.25 0.5
v -1 1.25 -0
v -1 6.25 -0
v -0.5 1.25 -0.866
v -0.866 6.25 -0.5
v 0.866 1.25 -0.5
v -0.5 1.25 0.866
v 0 6.25 -1
v -0.5 6.25 -0.866
v 0.5 1.25 -0.866
s 1
f 39 35 22
f 10 73 71
f 12 75 73
f 24 86 87
f 18 81 79
f 2 66 86
f 6 69 67
f 4 67 66
f 8 71 69
f 16 79 77
f 40 38 7
f 14 77 75
f 20 83 81
f 34 82 72
f 19 38 40
f 29 76 68
f 27 74 65
f 36 88 78
f 37 78 82
f 31 70 85
f 25 84 88
f 28 68 74
f 32 80 70
f 10 35 39
f 4 35 6
f 2 24 22
f 22 20 18
f 18 16 14
f 14 12 10
f 10 8 6
f 4 2 22
f 18 39 22
f 30 85 76
f 26 65 84
f 59 111 107
f 1 38 23
f 3 5 7
f 7 9 11
f 11 13 7
f 15 17 19
f 19 21 23
f 1 3 7
f 13 40 7
f 33 72 80
f 22 87 83
f 56 96 104
f 60 89 108
f 52 109 100
f 46 104 94
f 50 92 98
f 64 108 112
f 61 94 109
f 58 102 106
f 54 112 102
f 41 98 89
f 44 100 92
f 48 106 96
f 57 107 105
f 51 101 99
f 53 103 101
f 45 95 93
f 42 91 90
f 43 93 91
f 62 90 110
f 55 105 103
f 63 110 111
f 49 99 97
f 47 97 95
f 95 29 28
f 97 30 29
f 111 36 37
f 103 33 32
f 110 25 36
f 91 27 26
f 90 26 25
f 93 28 27
f 101 32 31
f 99 31 30
f 105 34 33
f 96 23 21
f 92 13 11
f 89 9 7
f 102 3 1
f 106 1 23
f 109 17 15
f 112 5 3
f 98 11 9
f 94 19 17
f 100 15 13
f 108 7 5
f 104 21 19
f 83 63 59
f 80 48 56
f 107 37 34
f 84 41 60
f 76 61 52
f 70 56 46
f 74 44 50
f 88 60 64
f 85 46 61
f 82 54 58
f 78 64 54
f 65 50 41
f 68 52 44
f 72 58 48
f 81 59 57
f 75 53 51
f 77 55 53
f 69 47 45
f 66 43 42
f 67 45 43
f 86 42 62
f 79 57 55
f 87 62 63
f 73 51 49
f 71 49 47
f 10 12 73
f 12 14 75
f 24 2 86
f 18 20 81
f 2 4 66
f 6 8 69
f 4 6 67
f 8 10 71
f 16 18 79
f 14 16 77
f 20 22 83
f 34 37 82
f 40 15 19
f 19 23 38
f 29 30 76
f 27 28 74
f 36 25 88
f 37 36 78
f 31 32 70
f 25 26 84
f 28 29 68
f 32 33 80
f 39 14 10
f 10 6 35
f 4 22 35
f 18 14 39
f 30 31 85
f 26 27 65
f 59 63 111
f 1 7 38
f 13 15 40
f 33 34 72
f 22 24 87
f 56 48 96
f 60 41 89
f 52 61 109
f 46 56 104
f 50 44 92
f 64 60 108
f 61 46 94
f 58 54 102
f 54 64 112
f 41 50 98
f 44 52 100
f 48 58 106
f 57 59 107
f 51 53 101
f 53 55 103
f 45 47 95
f 42 43 91
f 43 45 93
f 62 42 90
f 55 57 105
f 63 62 110
f 49 51 99
f 47 49 97
f 95 97 29
f 97 99 30
f 111 110 36
f 103 105 33
f 110 90 25
f 91 93 27
f 90 91 26
f 93 95 28
f 101 103 32
f 99 101 31
f 105 107 34
f 96 106 23
f 92 100 13
f 89 98 9
f 102 112 3
f 106 102 1
f 109 94 17
f 112 108 5
f 98 92 11
f 94 104 19
f 100 109 15
f 108 89 7
f 104 96 21
f 83 87 63
f 80 72 48
f 107 111 37
f 84 65 41
f 76 85 61
f 70 80 56
f 74 68 44
f 88 84 60
f 85 70 46
f 82 78 54
f 78 88 64
f 65 74 50
f 68 76 52
f 72 82 58
f 81 83 59
f 75 77 53
f 77 79 55
f 69 71 47
f 66 67 43
f 67 69 45
f 86 66 42
f 79 81 57
f 87 86 62
f 73 75 51
f 71 73 49
