o Cube
v 0.1055 1 -1.582
v 0.1055 1 1.582
v -0.1055 1 1.582
v -0.1055 1 -1.582
v 0.1055 2.5 -1.2656
v 0.1055 2.5 1.2656
v -0.1055 2.5 1.2656
v -0.1055 2.5 -1.2656
v -1.582 1 -0.1055
v 1.582 1 -0.1055
v 1.582 1 0.1055
v -1.582 1 0.1055
v -1.2656 2.5 -0.1055
v 1.2656 2.5 -0.1055
v 1.2656 2.5 0.1055
v -1.2656 2.5 0.1055
v 0.1055 3.5 -0.6328
v 0.1055 3.5 0.6328
v -0.1055 3.5 -0.6328
v -0.1055 3.5 0.6328
v -0.6328 3.5 -0.1055
v 0.6328 3.5 -0.1055
v -0.6328 3.5 0.1055
v 0.6328 3.5 0.1055
v 0.1055 1 -0
v 0.1055 2.5 0
v 0.1055 1.75 1.4238
v -0.1055 1.75 1.4238
v -0.1055 2.5 -0
v -0.1055 1.75 -1.4238
v 0 1 -0.1055
v 0 2.5 -0.1055
v 1.4238 1.75 -0.1055
v 1.4238 1.75 0.1055
v 0 2.5 0.1055
v -1.4238 1.75 0.1055
v -0.1055 1 -0
v 0.1055 1.75 -1.4238
v -0 1 0.1055
v -1.4238 1.75 -0.1055
v 0 1.75 -0.1055
v 0.1055 1.75 0
v -0 1.75 0.1055
v -0.1055 1.75 -0
v 0.1055 1 0.791
v -0.791 1 -0.1055
v 0.791 1 -0.1055
v 0.1055 1 -0.791
v 0.791 1 0.1055
v -0.1055 1 0.791
v -0.1055 1 -0.791
v -0.791 1 0.1055
s 1
f 21 24 22
f 45 3 50
f 44 8 30
f 14 34 33
f 43 16 36
f 6 28 27
f 17 20 18
f 40 16 13
f 42 6 27
f 41 14 33
f 29 20 19
f 1 30 38
f 15 22 24
f 47 11 49
f 9 36 40
f 32 21 22
f 7 18 20
f 26 17 18
f 35 24 23
f 13 23 21
f 1 51 4
f 9 52 12
f 42 25 48
f 36 12 52
f 27 2 45
f 43 39 49
f 7 44 28
f 46 39 52
f 5 42 38
f 27 3 2
f 13 41 40
f 15 43 34
f 44 37 50
f 48 37 51
f 33 11 10
f 33 10 47
f 30 4 51
f 41 31 46
f 5 30 8
f 31 49 39
f 5 19 17
f 25 50 37
f 21 23 24
f 45 2 3
f 44 29 8
f 14 15 34
f 43 35 16
f 6 7 28
f 17 19 20
f 40 36 16
f 42 26 6
f 41 32 14
f 19 8 29
f 29 7 20
f 1 4 30
f 15 14 22
f 47 10 11
f 9 12 36
f 22 14 32
f 32 13 21
f 7 6 18
f 18 6 26
f 26 5 17
f 23 16 35
f 35 15 24
f 13 16 23
f 1 48 51
f 9 46 52
f 48 1 38
f 38 42 48
f 52 39 43
f 43 36 52
f 45 25 42
f 42 27 45
f 49 11 34
f 34 43 49
f 7 29 44
f 46 31 39
f 5 26 42
f 27 28 3
f 13 32 41
f 15 35 43
f 50 3 28
f 28 44 50
f 48 25 37
f 33 34 11
f 47 31 41
f 41 33 47
f 51 37 44
f 44 30 51
f 46 9 40
f 40 41 46
f 5 38 30
f 31 47 49
f 5 8 19
f 25 45 50
