o Cube.003_Cube.004
v 0.6718 0.375 0.6718
v 0.6718 4.5 0.6718
v 0.495 0.375 0.745
v 0.495 4.5 0.745
v 0.3182 0.375 0.6718
v 0.3182 4.5 0.6718
v 0.245 0.375 0.495
v 0.245 4.5 0.495
v 0.3182 0.375 0.3182
v 0.3182 4.5 0.3182
v 0.495 0.375 0.245
v 0.495 4.5 0.245
v 0.6718 0.375 0.3182
v 0.6718 4.5 0.3182
v 0.745 0.375 0.495
v 0.745 4.5 0.495
v 0.245 0 0.495
v 0.3182 0 0.3182
v 0.495 0 0.245
v 0.6718 0.25 0.6718
v 0.495 0.25 0.745
v 0.745 0.25 0.495
v 0.495 5 0.495
v 0.3182 0.125 0.6718
v 0.6718 0.125 0.3182
v 0.3182 0.125 -0.6718
v 0.6718 0.125 -0.3182
v 0.495 5 -0.495
v 0.495 0.25 -0.745
v 0.745 0.25 -0.495
v 0.6718 0.25 -0.6718
v 0.245 -0 -0.495
v 0.3182 -0 -0.3182
v 0.495 -0 -0.245
v 0.495 4.5 -0.745
v 0.495 0.375 -0.745
v 0.3182 4.5 -0.6718
v 0.3182 0.375 -0.6718
v 0.245 4.5 -0.495
v 0.245 0.375 -0.495
v 0.3182 4.5 -0.3182
v 0.3182 0.375 -0.3182
v 0.495 4.5 -0.245
v 0.495 0.375 -0.245
v 0.6718 4.5 -0.3182
v 0.6718 0.375 -0.3182
v 0.745 4.5 -0.495
v 0.745 0.375 -0.495
v 0.6718 4.5 -0.6718
v 0.6718 0.375 -0.6718
v -0.25 0 0.0312
v -0.5 0.25 0.0312
v -0.625 0 0.0312
v -0.6875 0.25 0.0312
v -0.25 -0 -0.0312
v -0.5 0.25 -0.0312
v -0.625 -0 -0.0312
v -0.6875 0.25 -0.0312
v -0.875 0.25 0.0312
v -0.875 0.25 -0.0312
v -0.875 1 0.0312
v -0.875 1 -0.0312
v -0.6875 1.375 0.0312
v -0.6875 1.375 -0.0312
v -0.75 1.375 0.0312
v -0.75 1.375 -0.0312
v 0.25 -0 -0.0312
v 0.5 0.25 -0.0312
v 0.625 -0 -0.0312
v 0.6875 0.25 -0.0312
v 0.25 0 0.0312
v 0.5 0.25 0.0312
v 0.625 0 0.0312
v 0.6875 0.25 0.0312
v 0.875 0.25 -0.0312
v 0.875 0.25 0.0312
v 0.875 1 -0.0312
v 0.875 1 0.0312
v 0.6875 1.375 -0.0312
v 0.6875 1.375 0.0312
v 0.75 1.375 -0.0312
v 0.75 1.375 0.0312
v 0.0312 0 0.25
v 0.0312 0.25 0.5
v 0.0312 0 0.625
v 0.0312 0.25 0.6875
v -0.0312 0 0.25
v -0.0312 0.25 0.5
v -0.0312 0 0.625
v -0.0312 0.25 0.6875
v 0.0312 0.25 0.875
v -0.0312 0.25 0.875
v 0.0312 1 0.875
v -0.0312 1 0.875
v 0.0312 1.375 0.6875
v -0.0312 1.375 0.6875
v 0.0312 1.375 0.75
v -0.0312 1.375 0.75
v -0.0312 -0 -0.25
v -0.0312 0.25 -0.5
v -0.0312 -0 -0.625
v -0.0312 0.25 -0.6875
v 0.0312 -0 -0.25
v 0.0312 0.25 -0.5
v 0.0312 -0 -0.625
v 0.0312 0.25 -0.6875
v -0.0312 0.25 -0.875
v 0.0312 0.25 -0.875
v -0.0312 1 -0.875
v 0.0312 1 -0.875
v -0.0312 1.375 -0.6875
v 0.0312 1.375 -0.6875
v -0.0312 1.375 -0.75
v 0.0312 1.375 -0.75
v 0 0.5 -0.75
v 0 1.5 -0.75
v 0.375 0.5 -0.6495
v 0.375 1.5 -0.6495
v 0.6495 0.5 -0.375
v 0.6495 1.5 -0.375
v 0.75 0.5 -0
v 0.75 1.5 -0
v 0.6495 0.5 0.375
v 0.6495 1.5 0.375
v 0.375 0.5 0.6495
v 0.375 1.5 0.6495
v 0 0.5 0.75
v 0 1.5 0.75
v -0.375 0.5 0.6495
v -0.375 1.5 0.6495
v -0.6495 0.5 0.375
v -0.6495 1.5 0.375
v -0.75 0.5 -0
v -0.75 1.5 -0
v -0.6495 0.5 -0.375
v -0.6495 1.5 -0.375
v -0.375 0.5 -0.6495
v -0.375 1.5 -0.6495
v 0 0.75 -0.6375
v 0.3187 0.75 -0.5521
v 0.5521 0.75 -0.3187
v 0.6375 0.75 -0
v 0.5521 0.75 0.3187
v 0.3187 0.75 0.5521
v 0 0.75 0.6375
v -0.3187 0.75 0.5521
v -0.5521 0.75 0.3187
v -0.6375 0.75 -0
v -0.5521 0.75 -0.3187
v -0.3187 0.75 -0.5521
v 0 0.225 -0.45
v -0.225 0.225 -0.3897
v -0.3897 0.225 -0.225
v -0.45 0.225 -0
v -0.3897 0.225 0.225
v -0.225 0.225 0.3897
v 0 0.225 0.45
v 0.225 0.225 0.3897
v 0.3897 0.225 0.225
v 0.45 0.225 -0
v 0.3897 0.225 -0.225
v 0.225 0.225 -0.3897
v -0.1913 0.675 -0.3313
v 0 0.675 -0.3825
v -0.3313 0.675 -0.1913
v -0.3825 0.675 -0
v -0.3313 0.675 0.1913
v -0.1913 0.675 0.3313
v 0 0.675 0.3825
v 0.1913 0.675 0.3313
v 0.3313 0.675 0.1913
v 0.3825 0.675 -0
v 0.3313 0.675 -0.1913
v 0.1913 0.675 -0.3313
v -0.125 0.625 -0.2165
v 0 0.625 -0.25
v -0.2165 0.625 -0.125
v -0.25 0.625 -0
v -0.2165 0.625 0.125
v -0.125 0.625 0.2165
v 0 0.625 0.25
v 0.125 0.625 0.2165
v 0.2165 0.625 0.125
v 0.25 0.625 -0
v 0.2165 0.625 -0.125
v 0.125 0.625 -0.2165
v -0.6718 0.125 -0.3182
v -0.3182 0.125 -0.6718
v -0.495 5 -0.495
v -0.745 0.25 -0.495
v -0.495 0.25 -0.745
v -0.6718 0.25 -0.6718
v -0.495 -0 -0.245
v -0.3182 -0 -0.3182
v -0.245 -0 -0.495
v -0.745 4.5 -0.495
v -0.745 0.375 -0.495
v -0.6718 4.5 -0.3182
v -0.6718 0.375 -0.3182
v -0.495 4.5 -0.245
v -0.495 0.375 -0.245
v -0.3182 4.5 -0.3182
v -0.3182 0.375 -0.3182
v -0.245 4.5 -0.495
v -0.245 0.375 -0.495
v -0.3182 4.5 -0.6718
v -0.3182 0.375 -0.6718
v -0.495 4.5 -0.745
v -0.495 0.375 -0.745
v -0.6718 4.5 -0.6718
v -0.6718 0.375 -0.6718
v -0.3182 0.125 0.6718
v -0.6718 0.125 0.3182
v -0.495 5 0.495
v -0.495 0.25 0.745
v -0.745 0.25 0.495
v -0.6718 0.25 0.6718
v -0.245 0 0.495
v -0.3182 0 0.3182
v -0.495 0 0.245
v -0.495 4.5 0.745
v -0.495 0.375 0.745
v -0.3182 4.5 0.6718
v -0.3182 0.375 0.6718
v -0.245 4.5 0.495
v -0.245 0.375 0.495
v -0.3182 4.5 0.3182
v -0.3182 0.375 0.3182
v -0.495 4.5 0.245
v -0.495 0.375 0.245
v -0.6718 4.5 0.3182
v -0.6718 0.375 0.3182
v -0.745 4.5 0.495
v -0.745 0.375 0.495
v -0.6718 4.5 0.6718
v -0.6718 0.375 0.6718
v 0.495 2.4375 0.745
v 0.3182 2.4375 0.6718
v 0.245 2.4375 0.495
v 0.3182 2.4375 0.3182
v 0.495 2.4375 0.245
v 0.6718 2.4375 0.3182
v 0.6718 2.4375 0.6718
v 0.745 2.4375 0.495
v 0.495 2.4375 -0.745
v 0.6718 2.4375 -0.6718
v 0.3182 2.4375 -0.6718
v 0.245 2.4375 -0.495
v 0.3182 2.4375 -0.3182
v 0.495 2.4375 -0.245
v 0.6718 2.4375 -0.3182
v 0.745 2.4375 -0.495
v -0.745 2.4375 -0.495
v -0.6718 2.4375 -0.6718
v -0.6718 2.4375 -0.3182
v -0.495 2.4375 -0.245
v -0.3182 2.4375 -0.3182
v -0.245 2.4375 -0.495
v -0.3182 2.4375 -0.6718
v -0.495 2.4375 -0.745
v -0.495 2.4375 0.745
v -0.6718 2.4375 0.6718
v -0.3182 2.4375 0.6718
v -0.245 2.4375 0.495
v -0.3182 2.4375 0.3182
v -0.495 2.4375 0.245
v -0.6718 2.4375 0.3182
v -0.745 2.4375 0.495
v 0.495 3.4688 0.745
v 0.6718 3.4688 -0.6718
v 0.3182 3.4688 0.6718
v 0.245 3.4688 0.495
v 0.3182 3.4688 0.3182
v 0.495 3.4688 0.245
v 0.745 1.4062 0.495
v 0.6718 3.4688 0.3182
v 0.6718 3.4688 0.6718
v 0.745 3.4688 0.495
v 0.495 3.4688 -0.245
v 0.3182 1.4062 0.3182
v 0.495 1.4062 0.245
v 0.745 3.4688 -0.495
v 0.495 1.4062 -0.745
v 0.6718 1.4062 -0.6718
v 0.3182 1.4062 -0.6718
v 0.6718 1.4062 0.3182
v 0.245 1.4062 -0.495
v 0.3182 1.4062 -0.3182
v 0.495 1.4062 -0.245
v 0.6718 1.4062 -0.3182
v 0.245 3.4688 -0.495
v 0.745 1.4062 -0.495
v 0.495 1.4062 0.745
v -0.6718 3.4688 -0.3182
v -0.745 3.4688 0.495
v -0.3182 3.4688 0.6718
v -0.6718 3.4688 -0.6718
v -0.495 3.4688 -0.745
v -0.3182 3.4688 -0.3182
v -0.3182 3.4688 -0.6718
v -0.6718 3.4688 0.6718
v -0.495 3.4688 -0.245
v -0.245 3.4688 -0.495
v -0.6718 3.4688 0.3182
v -0.495 3.4688 0.245
v -0.245 3.4688 0.495
v -0.3182 3.4688 0.3182
v -0.495 3.4688 0.745
v 0.245 1.4062 0.495
v -0.745 3.4688 -0.495
v -0.745 1.4062 -0.495
v -0.6718 1.4062 -0.6718
v -0.6718 1.4062 -0.3182
v 0.6718 1.4062 0.6718
v -0.495 1.4062 -0.245
v -0.3182 1.4062 -0.3182
v -0.245 1.4062 -0.495
v -0.3182 1.4062 -0.6718
v 0.3182 3.4688 -0.6718
v -0.495 1.4062 -0.745
v 0.3182 1.4062 0.6718
v 0.6718 3.4688 -0.3182
v -0.495 1.4062 0.745
v -0.6718 1.4062 0.6718
v -0.3182 1.4062 0.6718
v 0.495 3.4688 -0.745
v -0.245 1.4062 0.495
v -0.3182 1.4062 0.3182
v -0.495 1.4062 0.245
v -0.6718 1.4062 0.3182
v 0.3182 3.4688 -0.3182
v -0.745 1.4062 0.495
s 1
f 45 279 322
f 230 213 232
f 202 302 299
f 53 60 57
f 42 34 44
f 39 319 291
f 236 215 222
f 47 322 282
f 205 188 207
f 64 54 58
f 82 79 80
f 91 94 92
f 83 89 87
f 114 111 112
f 9 11 15
f 232 216 234
f 199 190 187
f 10 23 12
f 12 23 14
f 14 23 16
f 16 23 2
f 2 23 4
f 8 23 10
f 6 23 8
f 4 23 6
f 47 28 45
f 45 28 43
f 43 28 41
f 49 28 47
f 35 28 49
f 37 28 35
f 39 28 37
f 41 28 39
f 13 22 25
f 226 212 218
f 69 71 67
f 74 68 72
f 126 127 125
f 4 271 269
f 88 86 84
f 38 29 26
f 16 277 278
f 96 97 95
f 106 100 104
f 11 18 9
f 85 92 89
f 61 66 62
f 207 191 209
f 59 62 60
f 124 125 123
f 120 121 119
f 138 115 137
f 200 294 302
f 109 114 110
f 12 276 274
f 208 300 298
f 3 20 1
f 64 58 62
f 54 63 61
f 56 57 58
f 54 53 52
f 9 17 7
f 107 110 108
f 48 31 50
f 50 29 36
f 128 129 127
f 68 71 72
f 2 269 277
f 41 291 331
f 80 74 78
f 70 79 77
f 72 73 74
f 70 69 68
f 8 273 272
f 112 102 106
f 1 22 15
f 84 87 88
f 77 82 78
f 101 108 105
f 14 278 276
f 40 33 42
f 96 90 94
f 86 95 93
f 88 89 90
f 86 85 84
f 43 331 279
f 9 1 7
f 101 103 99
f 100 103 104
f 93 98 94
f 96 86 90
f 35 270 326
f 10 274 273
f 112 106 110
f 102 111 109
f 104 105 106
f 102 101 100
f 75 78 76
f 6 272 271
f 52 55 56
f 58 52 56
f 118 119 117
f 211 190 197
f 201 194 203
f 132 133 131
f 69 76 73
f 80 70 74
f 262 332 324
f 196 297 310
f 122 123 121
f 129 147 146
f 179 185 181
f 159 182 183
f 131 148 147
f 129 145 127
f 125 143 123
f 137 139 150
f 123 142 121
f 117 141 140
f 135 150 149
f 119 142 141
f 125 145 144
f 117 139 115
f 155 178 179
f 201 187 193
f 153 166 165
f 135 148 133
f 162 173 161
f 168 157 169
f 151 163 164
f 155 166 154
f 159 172 171
f 156 167 155
f 152 165 163
f 157 170 169
f 160 173 172
f 174 151 164
f 158 181 182
f 162 185 186
f 152 176 175
f 159 184 160
f 146 150 142
f 161 184 185
f 155 180 156
f 153 175 177
f 156 181 157
f 162 176 151
f 153 178 154
f 208 189 206
f 206 189 204
f 204 189 202
f 210 189 208
f 196 189 210
f 198 189 196
f 200 189 198
f 202 189 200
f 224 215 212
f 40 26 32
f 198 310 294
f 53 55 51
f 231 305 304
f 209 192 211
f 136 137 135
f 44 27 46
f 37 326 319
f 116 117 115
f 225 296 306
f 204 299 303
f 134 135 133
f 221 301 308
f 5 21 3
f 66 63 64
f 233 214 231
f 231 214 229
f 229 214 227
f 235 214 233
f 221 214 235
f 223 214 221
f 225 214 223
f 227 214 225
f 130 120 136
f 11 25 19
f 223 308 296
f 49 282 270
f 226 219 228
f 234 217 236
f 210 298 297
f 7 24 5
f 206 303 300
f 130 131 129
f 228 220 230
f 229 307 305
f 227 306 307
f 203 195 205
f 46 30 48
f 233 304 295
f 46 44 40
f 207 205 201
f 232 230 226
f 324 234 236
f 264 325 327
f 120 122 121
f 38 36 29
f 305 265 266
f 319 245 247
f 2 4 269
f 3 21 20
f 261 324 323
f 48 30 31
f 273 241 240
f 327 224 226
f 308 262 261
f 109 113 114
f 158 171 170
f 3 5 7
f 330 230 232
f 11 13 15
f 1 3 7
f 253 312 311
f 259 317 318
f 254 320 312
f 240 281 280
f 277 237 243
f 274 242 241
f 59 61 62
f 138 116 115
f 306 263 264
f 246 292 284
f 326 246 245
f 307 264 265
f 312 209 211
f 300 258 259
f 310 254 253
f 208 206 300
f 267 329 330
f 128 130 129
f 106 102 100
f 85 91 92
f 69 73 71
f 88 90 86
f 107 109 110
f 50 31 29
f 53 59 60
f 12 14 276
f 60 62 58
f 66 64 62
f 65 61 63
f 59 54 61
f 60 58 57
f 56 55 57
f 51 52 53
f 54 59 53
f 41 39 291
f 331 248 249
f 298 259 260
f 302 255 256
f 64 63 54
f 8 10 273
f 271 239 238
f 279 249 250
f 76 78 74
f 82 80 78
f 81 77 79
f 75 70 77
f 76 74 73
f 72 71 73
f 67 68 69
f 70 75 69
f 304 266 267
f 296 261 263
f 303 257 258
f 294 253 255
f 276 244 242
f 323 236 222
f 295 267 268
f 297 260 254
f 92 94 90
f 98 96 94
f 97 93 95
f 91 86 93
f 92 90 89
f 88 87 89
f 83 84 85
f 86 91 85
f 318 205 207
f 284 48 50
f 280 11 9
f 311 211 197
f 270 252 246
f 272 240 239
f 200 198 294
f 9 18 17
f 108 110 106
f 114 112 110
f 113 109 111
f 107 102 109
f 108 106 105
f 104 103 105
f 99 100 101
f 102 107 101
f 112 111 102
f 16 2 277
f 11 19 18
f 74 70 68
f 96 98 97
f 207 188 191
f 205 195 188
f 269 238 237
f 278 243 244
f 82 81 79
f 120 118 136
f 116 138 136
f 136 134 132
f 132 130 136
f 128 126 124
f 124 122 128
f 118 116 136
f 268 330 332
f 128 122 120
f 226 224 212
f 126 128 127
f 321 7 5
f 150 139 142
f 140 141 142
f 142 143 146
f 144 145 146
f 146 147 148
f 148 149 150
f 139 140 142
f 143 144 146
f 242 275 286
f 301 268 262
f 292 46 48
f 287 38 40
f 317 203 205
f 315 199 201
f 285 36 38
f 313 197 199
f 328 226 228
f 329 228 230
f 325 222 224
f 283 50 36
f 237 321 293
f 177 175 176
f 176 186 185
f 185 184 183
f 183 182 181
f 181 180 179
f 179 178 177
f 177 176 185
f 185 183 181
f 250 288 289
f 290 44 46
f 316 201 203
f 289 42 44
f 314 3 1
f 288 40 42
f 281 13 11
f 320 207 209
f 332 232 234
f 286 15 13
f 309 9 7
f 293 5 3
f 275 1 15
f 241 286 281
f 249 287 288
f 260 318 320
f 244 314 275
f 239 280 309
f 243 293 314
f 251 289 290
f 257 315 316
f 252 290 292
f 248 285 287
f 256 313 315
f 266 328 329
f 245 284 283
f 199 197 190
f 61 65 66
f 232 213 216
f 13 15 22
f 4 6 271
f 263 323 325
f 124 126 125
f 1 20 22
f 236 217 215
f 47 45 322
f 91 93 94
f 202 200 302
f 247 283 285
f 42 33 34
f 265 327 328
f 238 309 321
f 45 43 279
f 68 67 71
f 322 250 251
f 230 220 213
f 39 37 319
f 258 316 317
f 83 85 89
f 282 251 252
f 291 247 248
f 299 256 257
f 114 113 111
f 84 83 87
f 255 311 313
f 77 81 82
f 40 38 36
f 36 50 40
f 48 46 40
f 44 42 40
f 40 50 48
f 201 199 197
f 197 211 201
f 209 207 201
f 205 203 201
f 201 211 209
f 226 224 222
f 222 236 226
f 234 232 226
f 230 228 226
f 226 236 234
f 235 295 301
f 101 107 108
f 14 16 278
f 40 32 33
f 43 41 331
f 9 15 1
f 101 105 103
f 100 99 103
f 93 97 98
f 96 95 86
f 35 49 270
f 10 12 274
f 75 77 78
f 6 8 272
f 52 51 55
f 58 54 52
f 118 120 119
f 211 192 190
f 201 193 194
f 132 134 133
f 69 75 76
f 80 79 70
f 262 268 332
f 196 210 297
f 122 124 123
f 129 131 147
f 179 177 185
f 159 158 182
f 131 133 148
f 129 146 145
f 125 144 143
f 137 115 139
f 123 143 142
f 117 119 141
f 135 137 150
f 119 121 142
f 125 127 145
f 117 140 139
f 155 154 178
f 201 199 187
f 153 154 166
f 135 149 148
f 162 174 173
f 168 156 157
f 151 152 163
f 155 167 166
f 159 160 172
f 156 168 167
f 152 153 165
f 157 158 170
f 160 161 173
f 174 162 151
f 158 157 181
f 162 161 185
f 152 151 176
f 159 183 184
f 146 148 150
f 161 160 184
f 155 179 180
f 153 152 175
f 156 180 181
f 162 186 176
f 153 177 178
f 224 222 215
f 40 38 26
f 198 196 310
f 53 57 55
f 231 229 305
f 209 191 192
f 136 138 137
f 44 34 27
f 37 35 326
f 116 118 117
f 225 223 296
f 204 202 299
f 134 136 135
f 221 235 301
f 5 24 21
f 66 65 63
f 130 128 120
f 11 13 25
f 223 221 308
f 49 47 282
f 226 218 219
f 234 216 217
f 210 208 298
f 7 17 24
f 206 204 303
f 130 132 131
f 228 219 220
f 229 227 307
f 227 225 306
f 203 194 195
f 46 27 30
f 233 231 304
f 324 332 234
f 264 263 325
f 305 307 265
f 319 326 245
f 261 262 324
f 273 274 241
f 327 325 224
f 308 301 262
f 158 159 171
f 330 329 230
f 253 254 312
f 259 258 317
f 254 260 320
f 240 241 281
f 277 269 237
f 274 276 242
f 306 296 263
f 246 252 292
f 326 270 246
f 307 306 264
f 312 320 209
f 300 303 258
f 310 297 254
f 267 266 329
f 331 291 248
f 298 300 259
f 302 294 255
f 271 272 239
f 279 331 249
f 304 305 266
f 296 308 261
f 303 299 257
f 294 310 253
f 276 278 244
f 323 324 236
f 295 304 267
f 297 298 260
f 318 317 205
f 284 292 48
f 280 281 11
f 311 312 211
f 270 282 252
f 272 273 240
f 269 271 238
f 278 277 243
f 268 267 330
f 321 309 7
f 242 244 275
f 301 295 268
f 292 290 46
f 287 285 38
f 317 316 203
f 315 313 199
f 285 283 36
f 313 311 197
f 328 327 226
f 329 328 228
f 325 323 222
f 283 284 50
f 237 238 321
f 250 249 288
f 290 289 44
f 316 315 201
f 289 288 42
f 314 293 3
f 288 287 40
f 281 286 13
f 320 318 207
f 332 330 232
f 286 275 15
f 309 280 9
f 293 321 5
f 275 314 1
f 241 242 286
f 249 248 287
f 260 259 318
f 244 243 314
f 239 240 280
f 243 237 293
f 251 250 289
f 257 256 315
f 252 251 290
f 248 247 285
f 256 255 313
f 266 265 328
f 245 246 284
f 263 261 323
f 247 245 283
f 265 264 327
f 238 239 309
f 322 279 250
f 258 257 316
f 282 322 251
f 291 319 247
f 299 302 256
f 255 253 311
f 235 233 295
