o Circle
v 0 1.5 -0.8
v 0 3 -0
v 0.4 1.5 -0.6928
v 0.6928 1.5 -0.4
v 0.8 1.5 -0
v 0.6928 1.5 0.4
v 0.4 1.5 0.6928
v 0 1.5 0.8
v -0.4 1.5 0.6928
v -0.6928 1.5 0.4
v -0.8 1.5 -0
v -0.6928 1.5 -0.4
v -0.4 1.5 -0.6928
v 0 -0 -1
v 0.5 -0 -0.866
v 0.866 -0 -0.5
v 1 0 0
v 0.866 0 0.5
v 0.5 0 0.866
v 0 0 1
v -0.5 0 0.866
v -0.866 0 0.5
v -1 0 0
v -0.866 -0 -0.5
v -0.5 -0 -0.866
v -0.3464 2.25 -0.2
v -0.2 2.25 -0.3464
v 0 2.25 -0.4
v 0.2 2.25 -0.3464
v -0.4 2.25 -0
v -0.3464 2.25 0.2
v -0.2 2.25 0.3464
v 0 2.25 0.4
v 0.2 2.25 0.3464
v 0.3464 2.25 0.2
v 0.4 2.25 -0
v 0.3464 2.25 -0.2
v 0.45 0.75 -0.7794
v 0.25 -0 -0.433
v -0.45 0.75 0.7794
v 0.7794 0.75 -0.45
v -0.9 0.75 -0
v 0.7794 0.75 0.45
v -0.45 0.75 -0.7794
v 0 0.75 0.9
v -0.7794 0.75 0.45
v 0 0.75 -0.9
v 0.9 0.75 -0
v -0.7794 0.75 -0.45
v 0.45 0.75 0.7794
v 0.25 0 0.433
s 1
f 26 2 27
f 28 2 29
f 30 2 26
f 31 2 30
f 32 2 31
f 33 2 32
f 34 2 33
f 35 2 34
f 36 2 35
f 37 2 36
f 27 2 28
f 29 2 37
f 11 49 42
f 6 50 43
f 49 25 24
f 43 17 48
f 48 16 41
f 42 22 46
f 51 39 17
f 1 38 47
f 40 20 45
f 46 21 40
f 45 19 50
f 44 14 25
f 41 15 38
f 23 39 51
f 25 14 15
f 15 16 17
f 17 18 19
f 19 20 21
f 21 22 23
f 23 24 25
f 15 39 25
f 19 51 17
f 4 38 3
f 8 50 7
f 42 24 23
f 5 43 48
f 12 44 49
f 13 47 44
f 11 46 10
f 10 40 9
f 9 45 8
f 5 41 4
f 47 15 14
f 3 37 4
f 43 19 18
f 13 28 1
f 37 5 4
f 36 6 5
f 35 7 6
f 7 33 8
f 33 9 8
f 9 31 10
f 31 11 10
f 11 26 12
f 28 3 1
f 26 13 12
f 11 12 49
f 6 7 50
f 49 44 25
f 43 18 17
f 48 17 16
f 42 23 22
f 1 3 38
f 40 21 20
f 46 22 21
f 45 20 19
f 44 47 14
f 41 16 15
f 51 21 23
f 23 25 39
f 15 17 39
f 19 21 51
f 4 41 38
f 8 45 50
f 42 49 24
f 5 6 43
f 12 13 44
f 13 1 47
f 11 42 46
f 10 46 40
f 9 40 45
f 5 48 41
f 47 38 15
f 3 29 37
f 43 50 19
f 13 27 28
f 37 36 5
f 36 35 6
f 35 34 7
f 7 34 33
f 33 32 9
f 9 32 31
f 31 30 11
f 11 30 26
f 28 29 3
f 26 27 13
