o Circle
v -0.375 -0 -0.6495
v 0 0.25 -0.5625
v 0 3 -0
v 0.2812 0.25 -0.4871
v -0.6495 -0 -0.375
v 0.4871 0.25 -0.2812
v -0.75 0 0
v 0.5625 0.25 -0
v -0.6495 0 0.375
v 0.4871 0.25 0.2812
v -0.375 0 0.6495
v 0.2812 0.25 0.4871
v 0 0 0.75
v 0 0.25 0.5625
v 0.375 0 0.6495
v -0.2812 0.25 0.4871
v 0.6495 0 0.375
v -0.4871 0.25 0.2812
v 0.75 0 0
v -0.5625 0.25 -0
v 0.6495 -0 -0.375
v -0.4871 0.25 -0.2812
v 0.375 -0 -0.6495
v -0.2812 0.25 -0.4871
v 0 -0 -0.75
v -0.3375 0.125 -0.5846
v 0 0.125 -0.675
v -0.5846 0.125 -0.3375
v -0.675 0.125 -0
v -0.5846 0.125 0.3375
v -0.3375 0.125 0.5846
v 0 0.125 0.675
v 0.3375 0.125 0.5846
v 0.5846 0.125 0.3375
v 0.675 0.125 -0
v 0.5846 0.125 -0.3375
v 0.3375 0.125 -0.5846
v -0.2436 1.625 -0.1406
v -0.1406 1.625 -0.2436
v 0 1.625 -0.2812
v 0.1406 1.625 -0.2436
v -0.2812 1.625 -0
v -0.2436 1.625 0.1406
v -0.1406 1.625 0.2436
v 0 1.625 0.2812
v 0.1406 1.625 0.2436
v 0.2436 1.625 0.1406
v 0.2812 1.625 -0
v 0.2436 1.625 -0.1406
s 1
f 38 3 39
f 40 3 41
f 42 3 38
f 43 3 42
f 44 3 43
f 45 3 44
f 46 3 45
f 47 3 46
f 48 3 47
f 49 3 48
f 41 6 4
f 39 3 40
f 41 3 49
f 8 36 6
f 23 27 37
f 21 37 36
f 9 29 7
f 14 33 12
f 21 35 19
f 17 33 15
f 7 28 5
f 19 34 17
f 1 27 25
f 11 30 9
f 5 26 1
f 11 32 31
f 37 2 4
f 26 22 24
f 2 26 24
f 20 30 18
f 18 31 16
f 31 14 16
f 20 28 29
f 13 1 19
f 33 10 12
f 6 37 4
f 34 8 10
f 1 25 19
f 23 21 19
f 19 17 15
f 15 13 19
f 11 9 7
f 7 5 11
f 25 23 19
f 24 40 2
f 11 5 1
f 41 49 6
f 11 31 30
f 21 36 35
f 7 29 28
f 23 25 27
f 1 26 27
f 21 23 37
f 19 35 34
f 17 34 33
f 5 28 26
f 14 32 33
f 9 30 29
f 11 13 32
f 22 39 24
f 10 46 12
f 40 4 2
f 42 22 20
f 48 10 8
f 44 18 16
f 43 20 18
f 49 8 6
f 45 16 14
f 12 45 14
f 8 35 36
f 32 15 33
f 37 27 2
f 26 28 22
f 2 27 26
f 20 29 30
f 18 30 31
f 31 32 14
f 20 22 28
f 13 11 1
f 33 34 10
f 6 36 37
f 34 35 8
f 24 39 40
f 22 38 39
f 10 47 46
f 40 41 4
f 42 38 22
f 48 47 10
f 44 43 18
f 43 42 20
f 49 48 8
f 45 44 16
f 12 46 45
f 32 13 15
