o Door
v -0.125 0.9375 2.5
v 0.125 0.125 2.5
v 0.125 0.9375 2.5
v 0.125 0.125 -2.5
v 0.125 0.9375 -2.5
v -0.125 1.75 -2.5
v 0.125 1.75 -2.5
v 0.125 1.75 2.5
v 0.125 2.5625 -2.5
v 0.125 2.5625 2.5
v -0.125 3.375 2.5
v -0.125 3.375 -2.5
v 0.125 3.375 -2.5
v 0.125 3.375 2.5
v -0.125 4 -2.5
v 0.125 4 -2.5
v 0.125 4 2.5
v -0.125 -0 -2.5
v 0.125 -0 -2.5
v 0.125 0 2.5
v 0.125 0.25 -2.375
v 0.125 0.8125 -2.375
v 0.125 0.8125 2.375
v 0.125 0.25 2.375
v 0.125 1.0625 2.375
v 0.125 1.0625 -2.375
v 0.125 1.625 -2.375
v 0.125 1.625 2.375
v 0.125 1.875 2.375
v 0.125 1.875 -2.375
v 0.125 2.4375 -2.375
v 0.125 2.4375 2.375
v 0.125 2.6875 2.375
v 0.125 2.6875 -2.375
v 0.125 3.25 2.25
v 0.0625 0.25 -2.375
v 0.0625 0.75 -2.375
v 0.0625 0.75 2.375
v 0.0625 0.25 2.375
v 0.0625 1.125 2.375
v 0.0625 1.125 -2.375
v 0.0625 1.5625 -2.375
v 0.0625 1.5625 2.375
v 0.0625 1.9375 2.375
v 0.0625 1.9375 -2.375
v 0.0625 2.375 -2.375
v 0.0625 2.375 2.375
v 0.0625 2.75 2.375
v 0.0625 2.75 -2.375
v 0.0625 3.25 -2.25
v 0.0625 3.125 2.375
v 0.125 3.25 2.375
v 0.0625 3.25 2.375
v 0.125 3.125 2.375
v 0.0625 3.25 2.25
v 0.125 3.25 -2.375
v 0.125 3.25 -2.25
v 0.0625 3.25 -2.375
v 0.125 3.125 -2.375
v 0.0625 3.125 -2.375
v 0.0625 1.25 0.375
v 0.0625 1.25 -0.375
v 0.0625 1.5 -0.375
v 0.125 1.25 0.375
v 0.125 1.25 -0.375
v 0.125 1.4375 0.375
v 0.0625 1.5 0.375
v 0.125 1.4375 -0.375
v -0.125 0.125 2.5
v -0.125 0.125 -2.5
v -0.125 0.9375 -2.5
v -0.125 1.75 2.5
v -0.125 2.5625 -2.5
v -0.125 2.5625 2.5
v -0.125 4 2.5
v -0.125 0 2.5
v -0.125 0.8125 -2.375
v -0.125 0.25 2.375
v -0.125 1.0625 2.375
v -0.125 1.0625 -2.375
v -0.125 1.625 -2.375
v -0.125 1.875 2.375
v -0.125 1.875 -2.375
v -0.125 2.4375 2.375
v -0.125 2.6875 2.375
v -0.125 2.6875 -2.375
v -0.125 1.625 2.375
v -0.125 3.25 2.375
v -0.0625 3.125 2.375
v -0.0625 3.25 -2.25
v -0.0625 2.75 -2.375
v -0.0625 2.75 2.375
v -0.0625 2.375 2.375
v -0.0625 2.375 -2.375
v -0.0625 1.9375 -2.375
v -0.0625 1.9375 2.375
v -0.0625 1.5625 2.375
v -0.0625 1.5625 -2.375
v -0.0625 1.125 -2.375
v -0.0625 1.125 2.375
v -0.0625 0.25 2.375
v -0.0625 0.75 2.375
v -0.0625 0.75 -2.375
v -0.0625 0.25 -2.375
v -0.125 3.25 2.25
v -0.125 2.4375 -2.375
v -0.125 0.8125 2.375
v -0.125 0.25 -2.375
v 0.125 0 1.625
v -0.125 0 1.625
v -0.125 0 2.375
v 0.125 0 2.375
v 0.125 -0 -2.375
v -0.125 -0 -2.375
v -0.125 -0 -1.625
v 0.125 -0 -1.625
v 0.125 -0 -1.375
v -0.125 -0 -1.375
v -0.125 -0 -0.625
v 0.125 -0 -0.625
v 0.125 -0 -0.375
v -0.125 -0 -0.375
v -0.125 0 0.375
v 0.125 0 0.375
v 0.125 0 0.625
v -0.125 0 0.625
v -0.125 0 1.375
v 0.125 0 1.375
v 0.125 -0.25 1.875
v -0.125 -0.25 1.875
v -0.125 -0.25 2.125
v 0.125 -0.25 2.125
v 0.125 -0.25 -2.125
v -0.125 -0.25 -2.125
v -0.125 -0.25 -1.875
v 0.125 -0.25 -1.875
v 0.125 -0.25 -1.125
v -0.125 -0.25 -1.125
v -0.125 -0.25 -0.875
v 0.125 -0.25 -0.875
v 0.125 -0.25 -0.125
v -0.125 -0.25 -0.125
v -0.125 -0.25 0.125
v 0.125 -0.25 0.125
v 0.125 -0.25 0.875
v -0.125 -0.25 0.875
v -0.125 -0.25 1.125
v 0.125 -0.25 1.125
v -0.0625 3.25 2.375
v -0.125 3.125 2.375
v -0.0625 3.25 2.25
v -0.125 3.25 -2.375
v -0.125 3.25 -2.25
v -0.0625 3.25 -2.375
v -0.125 3.125 -2.375
v -0.0625 3.125 -2.375
v -0.0625 1.25 0.375
v -0.0625 1.25 -0.375
v -0.0625 1.5 -0.375
v -0.125 1.25 0.375
v -0.125 1.25 -0.375
v -0.125 1.4375 0.375
v -0.0625 1.5 0.375
v -0.125 1.4375 -0.375
v 0.0625 0.3125 2.125
v 0.0625 0.6875 2.125
v 0.0625 0.3125 1.625
v 0.0625 0.6875 1.625
v 0.125 0.3125 2.125
v 0.125 0.6875 2.125
v 0.125 0.3125 1.625
v 0.125 0.6875 1.625
v 0.0625 0.4375 2.125
v 0.0625 0.4375 1.625
v 0.125 0.4375 1.625
v 0.125 0.4375 2.125
v 0.25 0.4375 1.625
v 0.25 0.3125 1.625
v 0.25 0.3125 2.125
v 0.25 0.4375 2.125
v -0.0625 0.3125 2.125
v -0.0625 0.6875 2.125
v -0.0625 0.3125 1.625
v -0.0625 0.6875 1.625
v -0.125 0.3125 2.125
v -0.125 0.6875 2.125
v -0.125 0.3125 1.625
v -0.125 0.6875 1.625
v -0.0625 0.4375 2.125
v -0.0625 0.4375 1.625
v -0.125 0.4375 1.625
v -0.125 0.4375 2.125
v -0.25 0.4375 1.625
v -0.25 0.3125 1.625
v -0.25 0.3125 2.125
v -0.25 0.4375 2.125
v 0.0625 0.3125 -2.125
v 0.0625 0.6875 -2.125
v 0.0625 0.3125 -1.625
v 0.0625 0.6875 -1.625
v 0.125 0.3125 -2.125
v 0.125 0.6875 -2.125
v 0.125 0.3125 -1.625
v 0.125 0.6875 -1.625
v 0.0625 0.4375 -2.125
v 0.0625 0.4375 -1.625
v 0.125 0.4375 -1.625
v 0.125 0.4375 -2.125
v 0.25 0.4375 -1.625
v 0.25 0.3125 -1.625
v 0.25 0.3125 -2.125
v 0.25 0.4375 -2.125
v -0.0625 0.3125 -2.125
v -0.0625 0.6875 -2.125
v -0.0625 0.3125 -1.625
v -0.0625 0.6875 -1.625
v -0.125 0.3125 -2.125
v -0.125 0.6875 -2.125
v -0.125 0.3125 -1.625
v -0.125 0.6875 -1.625
v -0.0625 0.4375 -2.125
v -0.0625 0.4375 -1.625
v -0.125 0.4375 -1.625
v -0.125 0.4375 -2.125
v -0.25 0.4375 -1.625
v -0.25 0.3125 -1.625
v -0.25 0.3125 -2.125
v -0.25 0.4375 -2.125
v 0.1433 0.375 2.5
v 0.1875 0.4192 2.5
v 0.1433 0.375 -2.5
v 0.1875 0.4192 -2.5
v 0.1875 0.3308 2.5
v 0.2317 0.375 2.5
v 0.1875 0.3308 -2.5
v 0.2317 0.375 -2.5
v -0.1433 0.375 2.5
v -0.1875 0.4192 2.5
v -0.1433 0.375 -2.5
v -0.1875 0.4192 -2.5
v -0.1875 0.3308 2.5
v -0.2317 0.375 2.5
v -0.1875 0.3308 -2.5
v -0.2317 0.375 -2.5
v 0.0625 1.125 -1
v 0.0625 1.5 -1
v 0.0625 1.125 -2
v 0.0625 1.5 -2
v 0.125 1.125 -1
v 0.125 1.5 -1
v 0.125 1.125 -2
v 0.125 1.5 -2
v 0.125 1.1875 -1.0625
v 0.125 1.375 -1.0625
v 0.125 1.1875 -1.125
v 0.125 1.375 -1.125
v 0.1875 1.1875 -1.0625
v 0.1875 1.375 -1.0625
v 0.1875 1.1875 -1.125
v 0.1875 1.375 -1.125
v 0.125 1.25 -1.0625
v 0.125 1.3125 -1.0625
v 0.125 1.3125 -1.125
v 0.125 1.25 -1.125
v 0.1875 1.3125 -1.125
v 0.1875 1.25 -1.125
v 0.1875 1.3125 -1.0625
v 0.1875 1.25 -1.0625
v 0.125 1.3125 -1.625
v 0.125 1.25 -1.625
v 0.1875 1.3125 -1.625
v 0.1875 1.25 -1.625
v 0.1121 1.2812 -1.625
v 0.1562 1.3254 -1.625
v 0.1121 1.2812 -1.875
v 0.1562 1.3254 -1.875
v 0.1562 1.2371 -1.625
v 0.2004 1.2812 -1.625
v 0.1562 1.2371 -1.875
v 0.2004 1.2812 -1.875
v 0.125 1.375 -1.875
v 0.125 1.4375 -1.875
v 0.125 1.375 -1.9375
v 0.125 1.4375 -1.9375
v 0.1875 1.375 -1.875
v 0.1875 1.4375 -1.875
v 0.1875 1.375 -1.9375
v 0.1875 1.4375 -1.9375
v 0.125 1.375 -1.75
v 0.125 1.4375 -1.75
v 0.125 1.375 -1.8125
v 0.125 1.4375 -1.8125
v 0.1875 1.375 -1.75
v 0.1875 1.4375 -1.75
v 0.1875 1.375 -1.8125
v 0.1875 1.4375 -1.8125
v 0.125 1.375 -1.625
v 0.125 1.4375 -1.625
v 0.125 1.375 -1.6875
v 0.125 1.4375 -1.6875
v 0.1875 1.375 -1.625
v 0.1875 1.4375 -1.625
v 0.1875 1.375 -1.6875
v 0.1875 1.4375 -1.6875
v 0.125 1.375 -1.5
v 0.125 1.4375 -1.5
v 0.125 1.375 -1.5625
v 0.125 1.4375 -1.5625
v 0.1875 1.375 -1.5
v 0.1875 1.4375 -1.5
v 0.1875 1.375 -1.5625
v 0.1875 1.4375 -1.5625
v -0.0625 1.125 -1
v -0.0625 1.5 -1
v -0.0625 1.125 -2
v -0.0625 1.5 -2
v -0.125 1.125 -1
v -0.125 1.5 -1
v -0.125 1.125 -2
v -0.125 1.5 -2
v -0.125 1.1875 -1.0625
v -0.125 1.375 -1.0625
v -0.125 1.1875 -1.125
v -0.125 1.375 -1.125
v -0.1875 1.1875 -1.0625
v -0.1875 1.375 -1.0625
v -0.1875 1.1875 -1.125
v -0.1875 1.375 -1.125
v -0.125 1.25 -1.0625
v -0.125 1.3125 -1.0625
v -0.125 1.3125 -1.125
v -0.125 1.25 -1.125
v -0.1875 1.3125 -1.125
v -0.1875 1.25 -1.125
v -0.1875 1.3125 -1.0625
v -0.1875 1.25 -1.0625
v -0.125 1.3125 -1.625
v -0.125 1.25 -1.625
v -0.1875 1.3125 -1.625
v -0.1875 1.25 -1.625
v -0.1121 1.2812 -1.625
v -0.1562 1.3254 -1.625
v -0.1121 1.2812 -1.875
v -0.1562 1.3254 -1.875
v -0.1562 1.2371 -1.625
v -0.2004 1.2812 -1.625
v -0.1562 1.2371 -1.875
v -0.2004 1.2812 -1.875
v -0.125 1.375 -1.875
v -0.125 1.4375 -1.875
v -0.125 1.375 -1.9375
v -0.125 1.4375 -1.9375
v -0.1875 1.375 -1.875
v -0.1875 1.4375 -1.875
v -0.1875 1.375 -1.9375
v -0.1875 1.4375 -1.9375
v -0.125 1.375 -1.75
v -0.125 1.4375 -1.75
v -0.125 1.375 -1.8125
v -0.125 1.4375 -1.8125
v -0.1875 1.375 -1.75
v -0.1875 1.4375 -1.75
v -0.1875 1.375 -1.8125
v -0.1875 1.4375 -1.8125
v -0.125 1.375 -1.625
v -0.125 1.4375 -1.625
v -0.125 1.375 -1.6875
v -0.125 1.4375 -1.6875
v -0.1875 1.375 -1.625
v -0.1875 1.4375 -1.625
v -0.1875 1.375 -1.6875
v -0.1875 1.4375 -1.6875
v -0.125 1.375 -1.5
v -0.125 1.4375 -1.5
v -0.125 1.375 -1.5625
v -0.125 1.4375 -1.5625
v -0.1875 1.375 -1.5
v -0.1875 1.4375 -1.5
v -0.1875 1.375 -1.5625
v -0.1875 1.4375 -1.5625
v -0.125 0.125 -0
v 0.0625 0.25 -0
v 0.0625 1.125 -0
v -0.125 3.375 -0
v 0.0625 1.9375 -0
v 0.125 3.375 -0
v 0.0625 2.75 -0
v 0.125 4 -0
v -0.125 0 0
v 0.125 0.125 -0
v 0.125 0.9375 -0
v 0.125 0.875 0.0625
v 0.125 0.1875 -0.0625
v 0.125 1 -0.0625
v 0.125 1.75 -0
v 0.125 1.6875 0.0625
v 0.125 1.8125 -0.0625
v 0.125 2.5625 -0
v 0.125 2.5 0.0625
v 0.125 2.625 -0.0625
v 0.125 3.3125 0.0625
v 0.125 0.8125 -0
v 0.125 0.25 -0
v 0.125 1.0625 -0
v 0.125 1.625 -0
v 0.125 1.875 -0
v 0.125 2.4375 -0
v 0.125 2.6875 -0
v 0.125 3.25 -0
v -0.125 0.875 0.0625
v -0.125 0.9375 -0
v -0.125 0.1875 -0.0625
v -0.125 1 -0.0625
v -0.125 1.6875 0.0625
v -0.125 1.75 -0
v -0.125 1.8125 -0.0625
v -0.125 2.5 0.0625
v -0.125 2.5625 -0
v -0.125 2.625 -0.0625
v -0.125 3.3125 0.0625
v -0.125 3.25 -0
v -0.125 2.6875 -0
v -0.125 2.4375 -0
v -0.125 1.875 -0
v -0.125 1.625 -0
v -0.125 1.0625 -0
v -0.0625 1.9375 -0
v -0.125 0.25 -0
v -0.0625 1.125 -0
v -0.125 0.8125 -0
v -0.0625 0.25 -0
v -0.0625 2.75 -0
v 0.1433 0.375 -0
v 0.1875 0.3308 -0
v 0.2317 0.375 -0
v -0.1433 0.375 -0
v -0.1875 0.3308 -0
v -0.2317 0.375 -0
v 0.0625 0.75 -0
v 0.0625 1.5625 -0
v -0.125 4 -0
v 0.0625 2.375 -0
v 0.0625 3.25 -0
v 0.125 0 0
v 0.125 3.25 -0
v 0.0625 3.25 -0
v -0.125 3.25 -0
v -0.0625 3.25 -0
v -0.0625 2.375 -0
v -0.0625 1.5625 -0
v -0.0625 0.75 -0
v -0.0625 3.25 -0
v 0.1875 0.4192 -0
v -0.1875 0.4192 -0
v -0.125 0.125 -1.25
v 0.0625 0.25 1.1875
v 0.0625 1.125 -1.1875
v -0.125 3.375 -1.25
v 0.0625 1.9375 -1.1875
v 0.125 3.375 1.25
v 0.0625 2.75 -1.1875
v 0.125 4 1.25
v -0.125 0 1.25
v 0.125 0.125 -1.25
v 0.125 0.9375 -1.25
v 0.125 0.8438 -1.1562
v 0.125 0.2188 1.1562
v 0.125 1.0312 1.1562
v 0.125 1.75 1.25
v 0.125 1.6562 -1.1562
v 0.125 1.8438 1.1562
v 0.125 2.5625 1.25
v 0.125 2.4688 -1.1562
v 0.125 2.6562 1.1562
v 0.125 3.2812 -1.1562
v 0.125 0.8125 1.1875
v 0.125 0.25 1.1875
v 0.125 1.0625 -1.1875
v 0.125 1.625 1.1875
v 0.125 1.875 -1.1875
v 0.125 2.4375 1.1875
v 0.125 2.6875 -1.1875
v 0.125 3.25 -1.125
v -0.125 0.8438 -1.1562
v -0.125 0.9375 -1.25
v -0.125 0.2188 1.1562
v -0.125 1.0312 1.1562
v -0.125 1.6562 -1.1562
v -0.125 1.75 1.25
v -0.125 1.8438 1.1562
v -0.125 2.4688 -1.1562
v -0.125 2.5625 1.25
v -0.125 2.6562 1.1562
v -0.125 3.2812 -1.1562
v -0.125 3.25 -1.125
v -0.125 2.6875 -1.1875
v -0.125 2.4375 -1.1875
v -0.125 1.875 -1.1875
v -0.125 1.625 1.1875
v -0.125 1.0625 -1.1875
v -0.0625 1.9375 1.1875
v -0.125 0.25 -1.1875
v -0.0625 1.125 1.1875
v -0.125 0.8125 1.1875
v -0.0625 0.25 -1.1875
v -0.0625 2.75 1.1875
v -0.1875 0.3308 1.25
v 0.2317 0.375 1.25
v -0.125 4 -1.25
v 0.0625 0.75 -1.1875
v 0.0625 3.25 1.1875
v 0.1875 0.4192 1.25
v -0.0625 0.75 1.1875
v -0.0625 1.9375 -1.1875
v 0.1875 0.3308 1.25
v -0.1433 0.375 1.25
v 0.125 2.4375 -1.1875
v -0.2317 0.375 1.25
v 0.125 2.6875 1.1875
v 0.125 0.1562 -1.2812
v 0.0625 1.5625 -1.1875
v 0.125 3.25 1.125
v 0.1433 0.375 -1.25
v 0.125 4 -1.25
v 0.1875 0.3308 -1.25
v 0.0625 1.9375 1.1875
v 0.0625 2.375 -1.1875
v -0.125 0.9062 1.2812
v 0.2317 0.375 -1.25
v -0.1433 0.375 -1.25
v 0.125 0.9688 -1.2812
v 0.0625 1.125 1.1875
v -0.1875 0.3308 -1.25
v -0.125 -0 -1.25
v 0.125 3.375 -1.25
v -0.2317 0.375 -1.25
v -0.125 3.25 1.1875
v 0.0625 3.25 -1.125
v -0.0625 3.25 -1.125
v 0.125 -0 -1.25
v -0.0625 2.375 1.1875
v -0.0625 1.5625 1.1875
v -0.125 1.75 -1.25
v 0.125 3.25 1.1875
v -0.0625 3.25 1.1875
v -0.125 0.1562 -1.2812
v -0.1875 0.4192 1.25
v -0.125 1.7812 -1.2812
v -0.125 0.9688 -1.2812
v 0.0625 2.75 1.1875
v -0.125 2.5312 1.2812
v -0.125 3.375 1.25
v -0.125 2.5625 -1.25
v -0.125 0.9375 1.25
v -0.125 1.7188 1.2812
v -0.125 2.5938 -1.2812
v -0.125 3.3438 1.2812
v 0.125 1.7812 -1.2812
v -0.125 3.25 1.125
v -0.125 2.6875 1.1875
v 0.125 2.5938 -1.2812
v 0.125 2.5625 -1.25
v -0.125 2.4375 1.1875
v -0.125 1.875 1.1875
v 0.125 3.3438 1.2812
v -0.125 1.625 -1.1875
v -0.125 1.0625 1.1875
v 0.125 0.8125 -1.1875
v 0.125 1.7188 1.2812
v 0.125 2.5312 1.2812
v -0.125 0.25 1.1875
v 0.0625 0.25 -1.1875
v 0.125 0.25 -1.1875
v -0.125 0.125 1.25
v -0.0625 1.125 -1.1875
v -0.125 0.8125 -1.1875
v 0.125 1.0625 1.1875
v 0.125 0.125 1.25
v -0.0625 0.25 1.1875
v -0.0625 2.75 -1.1875
v 0.125 1.625 -1.1875
v 0.1433 0.375 1.25
v 0.125 1.875 1.1875
v 0.125 0.9062 1.2812
v 0.125 0.9375 1.25
v 0.125 1.75 -1.25
v 0.0625 0.75 1.1875
v 0.0625 1.5625 1.1875
v -0.125 4 1.25
v 0.0625 2.375 1.1875
v 0.0625 3.25 -1.1875
v 0.125 0 1.25
v 0.125 3.25 -1.1875
v 0.0625 3.25 1.125
v -0.125 3.25 -1.1875
v -0.0625 3.25 1.125
v -0.0625 2.375 -1.1875
v -0.0625 1.5625 -1.1875
v -0.0625 0.75 -1.1875
v -0.0625 3.25 -1.1875
v 0.1875 0.4192 -1.25
v -0.1875 0.4192 -1.25
vt 0.468 0.6019
vt 0.5665 0.5971
vt 0.5665 0.6019
vt 0.8719 0.6893
vt 0.8768 0.6845
vt 0.8719 0.6845
vt 0.8424 0.6893
vt 0.8621 0.6845
vt 0.8621 0.6893
vt 0.7833 0.6796
vt 0.7882 0.6748
vt 0.7882 0.6796
vt 0.4975 0.7573
vt 0.5369 0.7379
vt 0.5369 0.7573
vt 0.8966 0.7573
vt 0.9015 0.7524
vt 0.8966 0.7524
vt 0.8621 0.7379
vt 0.867 0.7087
vt 0.867 0.7379
vt 0.7931 0.7573
vt 0.798 0.7524
vt 0.798 0.7573
vt 0.8227 0.7573
vt 0.8276 0.7524
vt 0.8276 0.7573
vt 0.6847 0.7573
vt 0.6897 0.7379
vt 0.6897 0.7573
vt 0.7635 0.6408
vt 0.8621 0.6359
vt 0.7635 0.6359
vt 0.6897 0.3786
vt 0.6305 0.3738
vt 0.6897 0.3738
vt 0.8916 0.6214
vt 0.9113 0.5922
vt 0.9113 0.6214
vt 0.9212 0.6845
vt 0.8818 0.6893
vt 0.9212 0.6893
vt 0.6453 0.7573
vt 0.6847 0.7379
vt 0.7833 0.7087
vt 0.8621 0.7039
vt 0.8621 0.7087
vt 0.8916 0.6408
vt 0.5714 0.7621
vt 0.6108 0.7573
vt 0.5714 0.7573
vt 0.8768 0.7087
vt 0.9557 0.7039
vt 0.8768 0.7039
vt 0.6256 0.3786
vt 0.6305 0.3932
vt 0.6256 0.3981
vt 0.7586 0.7573
vt 0.7635 0.7379
vt 0.7586 0.7379
vt 0.8473 0.2379
vt 0.8424 0.2476
vt 0.8424 0.2379
vt 0.7833 0.7427
vt 0.8621 0.7427
vt 0.9458 0.7573
vt 0.9507 0.7524
vt 0.9458 0.7524
vt 0.4975 0.7621
vt 0.5369 0.7621
vt 0.8079 0.7621
vt 0.8128 0.7573
vt 0.8128 0.7621
vt 0.4434 0.3544
vt 0.4335 0.301
vt 0.4434 0.2913
vt 0.4335 0.3447
vt 0.3448 0.3544
vt 0.3374 0.3471
vt 0.0493 0.2913
vt 0.0591 0.3447
vt 0.0493 0.3544
vt 0.0591 0.301
vt 0.1478 0.2913
vt 0.1552 0.2985
vt 0.0591 0.3641
vt 0.1478 0.3544
vt 0.1552 0.3617
vt 0.4434 0.4175
vt 0.4335 0.3641
vt 0.4335 0.4078
vt 0.3448 0.4175
vt 0.3374 0.4102
vt 0.0591 0.4078
vt 0.0493 0.4175
vt 0.0591 0.4272
vt 0.1478 0.4175
vt 0.1552 0.4248
vt 0.4434 0.4806
vt 0.4335 0.4272
vt 0.4335 0.4709
vt 0.3448 0.4806
vt 0.3374 0.4733
vt 0.0591 0.4709
vt 0.0493 0.4806
vt 0.0591 0.4903
vt 0.1478 0.4806
vt 0.1552 0.4879
vt 0.4434 0.5437
vt 0.4335 0.4903
vt 0.4335 0.534
vt 0.3448 0.5437
vt 0.3374 0.5364
vt 0.0591 0.534
vt 0.0493 0.5437
vt 0.4089 0.0631
vt 0.4039 0.1019
vt 0.4039 0.0631
vt 0.3103 0.1505
vt 0.4039 0.1553
vt 0.3103 0.1553
vt 0.0246 0.0631
vt 0.0296 0.1019
vt 0.0246 0.1068
vt 0.6453 0.7282
vt 0.6453 0.7379
vt 0.9113 0.3738
vt 0.8916 0.3932
vt 0.8916 0.3738
vt 0.4089 0.1553
vt 0.4039 0.1165
vt 0.4089 0.1116
vt 0.6897 0.3932
vt 0.6305 0.3981
vt 0.0246 0.1116
vt 0.0296 0.1505
vt 0.0246 0.1553
vt 0.936 0.699
vt 0.9557 0.6942
vt 0.936 0.6942
vt 0.4089 0.2039
vt 0.4039 0.165
vt 0.4089 0.1602
vt 0.9113 0.4757
vt 0.8916 0.5049
vt 0.8916 0.4757
vt 0.0246 0.1602
vt 0.0296 0.199
vt 0.0246 0.2039
vt 0.1232 0.0631
vt 0.0296 0.0583
vt 0.1232 0.0583
vt 0.4089 0.2427
vt 0.4039 0.2136
vt 0.4089 0.2087
vt 0.2167 0.3786
vt 0.2759 0.3738
vt 0.2759 0.3786
vt 0.0246 0.2427
vt 0.0296 0.2136
vt 0.0296 0.2427
vt 0.8276 0.6796
vt 0.7882 0.6845
vt 0.0148 0.2573
vt 0.0049 0.2573
vt 0.0049 0.2476
vt 0.6453 0.7621
vt 0.6847 0.7621
vt 0.4286 0.2573
vt 0.4187 0.2573
vt 0.4286 0.2476
vt 0.2167 0.3932
vt 0.2118 0.3786
vt 0.2808 0.3786
vt 0.2759 0.3932
vt 0.0296 0.3544
vt 0.4581 0.1165
vt 0.5517 0.1116
vt 0.5517 0.1165
vt 0.8473 0.7573
vt 0.8522 0.7524
vt 0.8522 0.7573
vt 0.4729 0.301
vt 0.4631 0.3544
vt 0.4631 0.2913
vt 0.7611 0.3519
vt 0.8571 0.3544
vt 0.7586 0.3544
vt 0.8473 0.3447
vt 0.8571 0.2913
vt 0.5591 0.2937
vt 0.5616 0.2913
vt 0.5591 0.3568
vt 0.5616 0.3544
vt 0.4729 0.3641
vt 0.4631 0.4175
vt 0.7611 0.415
vt 0.8571 0.4175
vt 0.7586 0.4175
vt 0.8473 0.4078
vt 0.5591 0.4199
vt 0.5616 0.4175
vt 0.4729 0.4272
vt 0.4631 0.4806
vt 0.7611 0.4782
vt 0.8571 0.4806
vt 0.7586 0.4806
vt 0.8473 0.4709
vt 0.5591 0.483
vt 0.5616 0.4806
vt 0.4729 0.4903
vt 0.4631 0.5437
vt 0.7611 0.5413
vt 0.8571 0.5437
vt 0.7586 0.5437
vt 0.8473 0.534
vt 0.6946 0.3786
vt 0.4335 0.2573
vt 0.4335 0.2476
vt 0.4434 0.2573
vt 0.6158 0.7379
vt 0.6108 0.7379
vt 0.8473 0.2573
vt 0.8571 0.2476
vt 0.8571 0.2573
vt 0.1232 0.1019
vt 0.8374 0.2427
vt 0.8325 0.2136
vt 0.8374 0.2087
vt 0.4581 0.165
vt 0.5517 0.1602
vt 0.5517 0.165
vt 0.4581 0.2136
vt 0.4532 0.2427
vt 0.4532 0.2087
vt 0.8719 0.6942
vt 0.8768 0.6893
vt 0.8325 0.199
vt 0.8374 0.1602
vt 0.8374 0.2039
vt 0.5714 0.7282
vt 0.6108 0.7184
vt 0.5714 0.7184
vt 0.4532 0.2039
vt 0.4532 0.1602
vt 0.4631 0.5922
vt 0.5616 0.5437
vt 0.5616 0.5922
vt 0.8325 0.1505
vt 0.8374 0.1116
vt 0.8374 0.1553
vt 0.6453 0.7184
vt 0.6355 0.7282
vt 0.6355 0.7184
vt 0.4532 0.1553
vt 0.4532 0.1116
vt 0.7192 0.7621
vt 0.7192 0.7573
vt 0.8818 0.6796
vt 0.8768 0.6796
vt 0.4581 0.2524
vt 0.5517 0.2136
vt 0.5517 0.2524
vt 0.8325 0.1019
vt 0.8374 0.0631
vt 0.8374 0.1068
vt 0.5517 0.1019
vt 0.4581 0.0631
vt 0.5517 0.0631
vt 0.4532 0.0631
vt 0.4581 0.1019
vt 0.4532 0.1068
vt 0.4975 0.7087
vt 0.5369 0.7039
vt 0.5369 0.7087
vt 0.1232 0.1505
vt 0.0296 0.1165
vt 0.1232 0.1165
vt 0.9113 0.5583
vt 0.8916 0.5874
vt 0.8916 0.5583
vt 0.7783 0.7379
vt 0.7833 0.7379
vt 0.5369 0.7282
vt 0.5468 0.7184
vt 0.5468 0.7282
vt 0.4926 0.7573
vt 0.4975 0.7379
vt 0.1232 0.2136
vt 0.0296 0.2087
vt 0.1232 0.2087
vt 0.9113 0.3107
vt 0.931 0.2718
vt 0.931 0.3301
vt 0.5369 0.7184
vt 0.8916 0.2913
vt 0.8719 0.3301
vt 0.8719 0.2718
vt 0.4975 0.7282
vt 0.9113 0.6408
vt 0.931 0.6019
vt 0.931 0.6602
vt 0.3103 0.1019
vt 0.4039 0.1068
vt 0.3103 0.1068
vt 0.8719 0.6602
vt 0.8719 0.6019
vt 0.6305 0.3786
vt 0.931 0.5194
vt 0.931 0.5777
vt 0.8571 0.2816
vt 0.7586 0.2913
vt 0.7586 0.2816
vt 0.8916 0.5388
vt 0.8719 0.5777
vt 0.8719 0.5194
vt 0.0296 0.4175
vt 0.931 0.4369
vt 0.931 0.4951
vt 0.9113 0.3932
vt 0.8916 0.4223
vt 0.8916 0.4563
vt 0.8719 0.4951
vt 0.8719 0.4369
vt 0.0493 0.2816
vt 0.1478 0.2621
vt 0.1478 0.2816
vt 0.931 0.3544
vt 0.931 0.4126
vt 0.468 0.6165
vt 0.5665 0.6117
vt 0.5665 0.6165
vt 0.8719 0.4126
vt 0.8719 0.3544
vt 0.7143 0.7573
vt 0.7192 0.7379
vt 0.7143 0.7379
vt 0.7833 0.6845
vt 0.7833 0.6893
vt 0.7882 0.6893
vt 0.7833 0.699
vt 0.7882 0.6942
vt 0.7882 0.699
vt 0.1478 0.5922
vt 0.1478 0.5437
vt 0.6847 0.7282
vt 0.6946 0.7184
vt 0.6946 0.7282
vt 0.0148 0.2379
vt 0.0197 0.2476
vt 0.0148 0.2476
vt 0.8276 0.6893
vt 0.3054 0.2524
vt 0.3941 0.2573
vt 0.3054 0.2573
vt 0.0296 0.1116
vt 0.1232 0.1116
vt 0.0296 0.4806
vt 0.8177 0.7524
vt 0.8177 0.7573
vt 0.5665 0.7573
vt 0.5714 0.7379
vt 0.5665 0.7379
vt 0.2759 0.3981
vt 0.2167 0.3981
vt 0.8325 0.7476
vt 0.8325 0.7524
vt 0.6108 0.7282
vt 0.6207 0.7184
vt 0.0493 0.5922
vt 0.0296 0.5437
vt 0.7882 0.7573
vt 0.7931 0.7524
vt 0.0493 0.6117
vt 0.1478 0.6117
vt 0.5616 0.7282
vt 0.5517 0.2087
vt 0.8768 0.7427
vt 0.9557 0.7379
vt 0.8768 0.7379
vt 0.8227 0.2524
vt 0.734 0.2573
vt 0.734 0.2524
vt 0.6847 0.7184
vt 0.6453 0.7087
vt 0.6847 0.7087
vt 0.9113 0.5097
vt 0.9113 0.5388
vt 0.5517 0.0583
vt 0.7586 0.7282
vt 0.7685 0.7184
vt 0.7586 0.7184
vt 0.1232 0.165
vt 0.0296 0.1602
vt 0.1232 0.1602
vt 0.9212 0.6796
vt 0.8818 0.6845
vt 0.7192 0.7184
vt 0.7094 0.7282
vt 0.7192 0.7282
vt 0.0296 0.2816
vt 0.0296 0.2913
vt 0.9064 0.7476
vt 0.9015 0.7476
vt 0.3448 0.2816
vt 0.3448 0.2913
vt 0.7389 0.1068
vt 0.7389 0.1019
vt 0.9409 0.7621
vt 0.9409 0.7573
vt 0.9409 0.7524
vt 0.4581 0.1505
vt 0.5517 0.1505
vt 0.7192 0.7087
vt 0.7586 0.7039
vt 0.7192 0.7039
vt 0.9113 0.4563
vt 0.8867 0.7573
vt 0.8916 0.7524
vt 0.8867 0.7524
vt 0.5517 0.7184
vt 0.5517 0.7282
vt 0.8818 0.7573
vt 0.8818 0.7524
vt 0.8916 0.6699
vt 0.867 0.6845
vt 0.867 0.6893
vt 0.8916 0.3398
vt 0.8916 0.3107
vt 0.8374 0.6845
vt 0.8424 0.6845
vt 0.9113 0.2621
vt 0.9113 0.2913
vt 0.8621 0.6068
vt 0.7635 0.6117
vt 0.7635 0.6068
vt 0.4975 0.7184
vt 0.4877 0.7282
vt 0.4877 0.7184
vt 0.9606 0.6845
vt 0.9557 0.6893
vt 0.9606 0.6893
vt 0.8621 0.6019
vt 0.867 0.6068
vt 0.4631 0.6068
vt 0.4631 0.6019
vt 0.7783 0.6893
vt 0.1232 0.199
vt 0.0296 0.165
vt 0.3103 0.199
vt 0.4039 0.2039
vt 0.3103 0.2039
vt 0.7635 0.6311
vt 0.8621 0.6262
vt 0.7635 0.6262
vt 0.9113 0.3447
vt 0.7931 0.699
vt 0.9113 0.4272
vt 0.7783 0.6942
vt 0.7833 0.6942
vt 0.8079 0.7524
vt 0.8128 0.7476
vt 0.8128 0.7524
vt 0.1232 0.2524
vt 0.6847 0.7039
vt 0.803 0.7573
vt 0.8079 0.7573
vt 0.6404 0.7573
vt 0.7783 0.6845
vt 0.7931 0.6796
vt 0.7931 0.6748
vt 0.4187 0.2476
vt 0.4138 0.2379
vt 0.4187 0.2379
vt 0.6995 0.7184
vt 0.6995 0.7282
vt 0.4631 0.6311
vt 0.468 0.6262
vt 0.4631 0.6262
vt 0.8325 0.6845
vt 0.8325 0.6893
vt 0.867 0.6311
vt 0.867 0.6262
vt 0.8424 0.6942
vt 0.6305 0.7282
vt 0.8424 0.699
vt 0.8621 0.6942
vt 0.8621 0.699
vt 0.8621 0.6796
vt 0.468 0.6068
vt 0.5665 0.6068
vt 0.8276 0.6845
vt 0.7389 0.1553
vt 0.7389 0.1505
vt 0.8325 0.7573
vt 0.8374 0.7524
vt 0.8374 0.7573
vt 0.8818 0.6942
vt 0.9212 0.6942
vt 0.4434 0.2476
vt 0.4483 0.2379
vt 0.4483 0.2476
vt 0.5714 0.7087
vt 0.6108 0.7039
vt 0.5714 0.7039
vt 0.8276 0.7621
vt 0.8325 0.7621
vt 0.8424 0.7573
vt 0.8473 0.7524
vt 0.8473 0.7621
vt 0.8522 0.7621
vt 0.8522 0.7476
vt 0.9261 0.6845
vt 0.8571 0.7524
vt 0.8571 0.7573
vt 0.6207 0.7282
vt 0.6256 0.7184
vt 0.7833 0.7573
vt 0.7882 0.7524
vt 0.9606 0.7087
vt 0.9557 0.7087
vt 0.5566 0.7282
vt 0.5616 0.7184
vt 0.5566 0.7184
vt 0.8719 0.7379
vt 0.8719 0.7087
vt 0.7931 0.7476
vt 0.7389 0.2039
vt 0.7389 0.199
vt 0.8867 0.699
vt 0.8867 0.6942
vt 0.8818 0.6748
vt 0.8768 0.6748
vt 0.8719 0.6796
vt 0.8768 0.699
vt 0.8768 0.6942
vt 0.8867 0.7476
vt 0.8818 0.7476
vt 0.7882 0.7621
vt 0.7931 0.7621
vt 0.4434 0.2816
vt 0.4828 0.7282
vt 0.936 0.6893
vt 0.931 0.6845
vt 0.931 0.6893
vt 0.8867 0.6796
vt 0.6601 0.534
vt 0.569 0.5364
vt 0.5665 0.534
vt 0.4581 0.199
vt 0.5517 0.199
vt 0.7685 0.7282
vt 0.7734 0.7184
vt 0.9557 0.6845
vt 0.936 0.6845
vt 0.7044 0.7282
vt 0.7094 0.7184
vt 0.7044 0.7184
vt 0.9015 0.7573
vt 0.9064 0.7524
vt 0.9064 0.7573
vt 0.9113 0.7524
vt 0.9557 0.6796
vt 0.936 0.6796
vt 0.8621 0.6214
vt 0.7635 0.6214
vt 0.9015 0.7621
vt 0.9163 0.7573
vt 0.9212 0.7524
vt 0.9163 0.7524
vt 0.9212 0.7621
vt 0.9261 0.7573
vt 0.9212 0.7573
vt 0.9261 0.7476
vt 0.9212 0.7476
vt 0.931 0.7524
vt 0.9261 0.7524
vt 0.936 0.7573
vt 0.936 0.7524
vt 0.9458 0.7476
vt 0.9409 0.7476
vt 0.8768 0.7573
vt 0.8768 0.7524
vt 0.5665 0.6311
vt 0.468 0.6359
vt 0.5665 0.6359
vt 0.5419 0.7379
vt 0.5419 0.7573
vt 0.3473 0.3568
vt 0.665 0.4757
vt 0.6601 0.4806
vt 0.6453 0.2039
vt 0.6453 0.199
vt 0.7537 0.4078
vt 0.665 0.4126
vt 0.6601 0.4078
vt 0.3103 0.1116
vt 0.4039 0.1116
vt 0.2463 0.3544
vt 0.2414 0.3495
vt 0.1232 0.1553
vt 0.0296 0.1553
vt 0.2167 0.1165
vt 0.2167 0.1116
vt 0.6453 0.1165
vt 0.6453 0.1505
vt 0.4729 0.3447
vt 0.2167 0.1505
vt 0.2167 0.1553
vt 0.8473 0.4272
vt 0.7537 0.4272
vt 0.7512 0.4248
vt 0.3473 0.2937
vt 0.6552 0.2961
vt 0.6601 0.2913
vt 0.2463 0.4078
vt 0.2414 0.4126
vt 0.2463 0.4903
vt 0.2512 0.4854
vt 0.3473 0.483
vt 0.665 0.6311
vt 0.665 0.6262
vt 0.2463 0.2621
vt 0.2463 0.2816
vt 0.665 0.6019
vt 0.665 0.6068
vt 0.7537 0.534
vt 0.665 0.5388
vt 0.6601 0.4175
vt 0.3399 0.3447
vt 0.1527 0.301
vt 0.1527 0.3641
vt 0.3399 0.4078
vt 0.1527 0.4272
vt 0.3399 0.4709
vt 0.1527 0.4903
vt 0.3399 0.534
vt 0.4089 0.1068
vt 0.1453 0.415
vt 0.0296 0.0631
vt 0.8473 0.3641
vt 0.7537 0.3641
vt 0.7512 0.3617
vt 0.3103 0.1602
vt 0.4039 0.1602
vt 0.4039 0.1505
vt 0.7635 0.6019
vt 0.8621 0.5971
vt 0.2463 0.4175
vt 0.2512 0.4223
vt 0.4039 0.199
vt 0.8473 0.301
vt 0.1453 0.5413
vt 0.4039 0.2427
vt 0.5665 0.301
vt 0.6601 0.301
vt 0.0246 0.2087
vt 0.665 0.6359
vt 0.2463 0.301
vt 0.2512 0.2961
vt 0.2118 0.3981
vt 0.2808 0.3981
vt 0.5665 0.3641
vt 0.6552 0.3592
vt 0.6601 0.3641
vt 0.7389 0.165
vt 0.8325 0.1602
vt 0.8325 0.165
vt 0.6453 0.0583
vt 0.6453 0.0631
vt 0.7537 0.3447
vt 0.4729 0.4078
vt 0.5665 0.4272
vt 0.4729 0.4709
vt 0.7537 0.4709
vt 0.5665 0.4903
vt 0.4729 0.534
vt 0.8473 0.4903
vt 0.6946 0.3981
vt 0.2463 0.2913
vt 0.6453 0.1553
vt 0.8325 0.2427
vt 0.2463 0.5922
vt 0.2463 0.5437
vt 0.4581 0.2427
vt 0.6453 0.1602
vt 0.6453 0.165
vt 0.6453 0.2136
vt 0.6453 0.2524
vt 0.2167 0.2524
vt 0.2167 0.2573
vt 0.8325 0.1165
vt 0.2167 0.199
vt 0.2167 0.165
vt 0.2463 0.4806
vt 0.4581 0.1553
vt 0.665 0.5971
vt 0.8325 0.0631
vt 0.5566 0.2524
vt 0.468 0.2573
vt 0.468 0.2524
vt 0.0394 0.2524
vt 0.1281 0.2573
vt 0.0394 0.2573
vt 0.665 0.6408
vt 0.6453 0.1116
vt 0.7537 0.301
vt 0.7512 0.2985
vt 0.7389 0.1116
vt 0.7389 0.1165
vt 0.468 0.6408
vt 0.665 0.3495
vt 0.6601 0.3544
vt 0.4581 0.1068
vt 0.6601 0.4709
vt 0.6552 0.4854
vt 0.6601 0.4903
vt 0.3473 0.4199
vt 0.2463 0.4272
vt 0.468 0.6117
vt 0.2463 0.3641
vt 0.2512 0.3592
vt 0.665 0.6214
vt 0.3103 0.165
vt 0.6601 0.3447
vt 0.1453 0.4782
vt 0.2167 0.2039
vt 0.1232 0.2039
vt 0.0296 0.2039
vt 0.6453 0.1068
vt 0.6453 0.1019
vt 0.6453 0.2087
vt 0.6453 0.2573
vt 0.468 0.6311
vt 0.5665 0.6262
vt 0.2167 0.2524
vt 0.2167 0.2136
vt 0.2167 0.1019
vt 0.2167 0.1068
vt 0.6601 0.2816
vt 0.8621 0.6311
vt 0.6601 0.5437
vt 0.2167 0.0631
vt 0.665 0.6117
vt 0.665 0.6165
vt 0.3103 0.0583
vt 0.4039 0.0583
vt 0.3103 0.2087
vt 0.4039 0.2087
vt 0.2414 0.5388
vt 0.5616 0.2816
vt 0.4631 0.2816
vt 0.7389 0.1602
vt 0.7833 0.6748
vt 0.7635 0.6165
vt 0.8621 0.6117
vt 0.8621 0.6165
vt 0.7389 0.2136
vt 0.8325 0.2087
vt 0.468 0.5971
vt 0.1232 0.1068
vt 0.0296 0.1068
vt 0.569 0.3471
vt 0.3103 0.0631
vt 0.2167 0.0583
vt 0.5517 0.1068
vt 0.3399 0.3641
vt 0.1527 0.534
vt 0.2414 0.4757
vt 0.2167 0.1602
vt 0.3399 0.301
vt 0.6601 0.4272
vt 0.3399 0.4903
vt 0.1453 0.3519
vt 0.2463 0.534
vt 0.8325 0.1116
vt 0.5665 0.6408
vt 0.7635 0.5971
vt 0.6552 0.4223
vt 0.3103 0.1165
vt 0.2463 0.4709
vt 0.5566 0.2573
vt 0.1281 0.2524
vt 0.7389 0.2087
vt 0.2463 0.3447
vt 0.5665 0.3447
vt 0.3448 0.5922
vt 0.569 0.4102
vt 0.5665 0.4078
vt 0.7389 0.0583
vt 0.7389 0.0631
vt 0.2463 0.6117
vt 0.3448 0.6117
vt 0.3448 0.2621
vt 0.7537 0.4903
vt 0.7512 0.4879
vt 0.5665 0.6214
vt 0.5665 0.4709
vt 0.569 0.4733
vt 0.4581 0.2039
vt 0.3103 0.2136
vt 0.2167 0.2087
vt 0.5517 0.1553
vt 0.4039 0.2524
vt 0.7586 0.5922
vt 0.8571 0.5922
vt 0.7389 0.2524
vt 0.8325 0.2524
vt 0.6601 0.5922
vt 0.3103 0.2524
vt 0.5517 0.2039
vt 0.468 0.6214
vt 0.4434 0.2621
vt 0.4434 0.5922
vt 0.4434 0.6117
vt 0.8325 0.0583
vt 0.1527 0.4709
vt 0.1527 0.4078
vt 0.3399 0.4272
vt 0.1527 0.3447
vt 0.8818 0.7621
vt 0.8227 0.7524
vt 0.8621 0.6408
vt 0.8916 0.5922
vt 0.7833 0.7039
vt 0.6108 0.7621
vt 0.7635 0.7573
vt 0.8473 0.2476
vt 0.9507 0.7573
vt 0.6897 0.3981
vt 0.9557 0.699
vt 0.9113 0.5049
vt 0.2167 0.3738
vt 0.4581 0.1116
vt 0.6158 0.7573
vt 0.4581 0.1602
vt 0.7586 0.7621
vt 0.4975 0.7039
vt 0.9113 0.5874
vt 0.7783 0.7087
vt 0.4926 0.7379
vt 0.9113 0.4223
vt 0.0493 0.2621
vt 0.0197 0.2379
vt 0.8276 0.6942
vt 0.3941 0.2524
vt 0.8276 0.7476
vt 0.0296 0.5922
vt 0.4581 0.2087
vt 0.9557 0.7427
vt 0.8227 0.2573
vt 0.8916 0.5097
vt 0.4581 0.0583
vt 0.8325 0.1068
vt 0.9458 0.7621
vt 0.7586 0.7087
vt 0.8916 0.7573
vt 0.9113 0.6699
vt 0.9113 0.3398
vt 0.8374 0.6893
vt 0.8916 0.2621
vt 0.867 0.6019
vt 0.8916 0.3447
vt 0.7931 0.6942
vt 0.8916 0.4272
vt 0.8079 0.7476
vt 0.0296 0.2524
vt 0.6453 0.7039
vt 0.803 0.7524
vt 0.6404 0.7379
vt 0.7783 0.6796
vt 0.4138 0.2476
vt 0.6305 0.7184
vt 0.8424 0.6796
vt 0.8325 0.1553
vt 0.4434 0.2379
vt 0.6108 0.7087
vt 0.8424 0.7524
vt 0.8473 0.7476
vt 0.9261 0.6893
vt 0.6256 0.7282
vt 0.7833 0.7524
vt 0.9606 0.7379
vt 0.7882 0.7476
vt 0.8325 0.2039
vt 0.8818 0.699
vt 0.4828 0.7184
vt 0.8867 0.6748
vt 0.7734 0.7282
vt 0.9113 0.7573
vt 0.9064 0.7621
vt 0.9261 0.7621
vt 0.931 0.7573
vt 0.8867 0.7621
s 1
f 234/1 515/2 508/3
f 330/4 336/5 329/6
f 274/7 280/8 276/9
f 257/10 255/11 259/12
f 218/13 223/14 220/15
f 350/16 353/17 349/18
f 252/19 247/20 248/21
f 312/22 307/23 308/24
f 290/25 293/26 294/27
f 172/28 174/29 168/30
f 533/31 239/32 530/33
f 160/34 158/35 157/36
f 136/37 115/38 135/39
f 340/40 333/41 339/42
f 170/43 175/44 172/28
f 249/45 247/46 251/47
f 135/39 133/48 136/37
f 182/49 188/50 186/51
f 317/52 315/53 313/54
f 158/55 164/56 159/57
f 204/58 206/59 207/60
f 150/61 151/62 89/63
f 246/64 252/19 248/65
f 372/66 367/67 371/68
f 214/69 220/15 216/70
f 282/71 288/72 284/73
f 5/74 21/75 4/76
f 22/77 465/78 466/79
f 2/80 23/81 3/82
f 24/83 578/84 467/85
f 25/86 585/87 468/88
f 7/89 26/90 5/74
f 27/91 586/92 470/93
f 3/82 28/94 8/95
f 29/96 469/97 471/98
f 9/99 30/100 7/89
f 31/101 562/102 473/103
f 8/95 32/104 10/105
f 33/106 472/107 474/108
f 13/109 34/110 9/99
f 56/111 535/112 475/113
f 10/105 52/114 14/115
f 21/116 37/117 36/118
f 521/119 27/120 581/121
f 24/122 38/123 23/124
f 180/125 175/44 176/126
f 147/127 145/128 148/129
f 27/130 41/131 26/132
f 162/133 159/134 164/56
f 25/135 43/136 28/137
f 345/138 343/139 341/140
f 31/141 45/142 30/143
f 142/144 121/145 141/146
f 29/147 47/148 32/149
f 456/150 24/151 477/152
f 59/153 49/154 34/155
f 64/156 62/157 65/158
f 54/159 48/160 51/161
f 270/162 266/163 264/12
f 35/164 52/165 54/166
f 166/167 172/28 168/168
f 56/169 57/170 59/171
f 66/172 61/173 64/156
f 62/174 68/175 65/158
f 1/176 2/80 3/82
f 99/177 500/178 575/179
f 302/180 303/181 304/182
f 108/183 71/184 70/185
f 528/186 1/187 554/188
f 107/189 69/190 1/187
f 546/191 70/185 455/192
f 549/193 71/184 485/194
f 80/195 6/196 71/184
f 555/197 72/198 489/199
f 87/200 1/187 72/198
f 548/201 6/196 543/202
f 83/203 73/204 6/196
f 551/205 74/206 492/207
f 84/208 72/198 74/206
f 556/209 73/204 553/210
f 86/211 12/212 73/204
f 557/213 11/214 552/215
f 88/216 74/206 11/214
f 157/217 162/133 160/34
f 152/218 155/219 153/220
f 188/50 190/221 191/222
f 105/223 150/224 88/225
f 38/123 456/150 587/226
f 150/227 92/228 85/229
f 95/230 498/231 514/232
f 91/233 155/234 86/235
f 322/236 335/237 330/4
f 93/238 82/239 84/240
f 196/241 194/242 195/243
f 95/230 106/244 83/245
f 15/246 458/247 509/248
f 97/249 79/250 87/251
f 179/252 176/253 169/254
f 99/177 81/255 80/256
f 6/196 5/74 71/184
f 198/257 204/58 202/258
f 336/5 327/259 325/260
f 154/261 580/262 600/263
f 102/264 78/265 107/266
f 599/267 104/268 505/269
f 108/270 103/271 77/272
f 217/273 215/274 219/275
f 588/276 40/277 532/278
f 138/279 117/280 137/281
f 246/282 249/45 250/283
f 225/284 219/285 223/286
f 214/287 224/288 218/13
f 73/204 7/89 6/196
f 550/289 33/290 519/291
f 130/292 111/293 110/294
f 226/295 217/273 219/275
f 132/296 109/297 112/298
f 228/299 226/295 225/284
f 134/300 115/301 114/302
f 510/303 22/304 568/305
f 136/37 113/306 116/307
f 162/133 161/308 160/34
f 138/279 119/309 118/310
f 76/311 574/312 463/313
f 140/314 117/315 120/316
f 10/105 72/317 8/95
f 142/144 123/318 122/319
f 146/320 125/321 145/128
f 144/322 121/323 124/324
f 20/325 463/326 592/327
f 146/320 127/328 126/329
f 233/330 582/331 515/332
f 148/129 125/333 128/334
f 198/335 208/336 205/337
f 268/338 259/12 266/163
f 267/339 266/163 265/340
f 254/341 260/342 256/343
f 462/344 14/115 460/345
f 177/346 171/347 175/348
f 54/349 55/350 35/351
f 271/352 263/342 265/340
f 538/353 57/354 483/355
f 532/278 25/356 577/357
f 14/115 74/358 10/105
f 288/72 283/359 284/360
f 8/95 1/176 3/82
f 182/361 192/362 189/363
f 66/172 63/364 67/365
f 293/26 291/366 295/367
f 15/246 13/109 12/212
f 193/368 187/369 194/242
f 17/370 11/371 14/115
f 310/372 311/373 312/22
f 75/374 462/344 589/375
f 195/243 192/376 196/241
f 91/233 496/377 580/262
f 314/378 320/379 318/380
f 151/381 559/382 596/383
f 178/384 169/385 171/386
f 140/314 119/387 139/388
f 104/268 502/389 505/269
f 12/212 9/99 73/204
f 209/390 203/391 210/392
f 526/393 29/394 583/395
f 338/396 334/397 340/40
f 335/237 334/397 336/5
f 211/398 208/399 212/400
f 76/401 2/80 69/402
f 353/17 351/403 349/404
f 540/405 4/76 464/406
f 102/264 504/407 513/408
f 366/409 372/66 370/410
f 370/410 371/68 369/411
f 98/412 575/179 598/413
f 201/414 199/415 197/416
f 143/417 141/146 144/322
f 380/418 375/419 379/420
f 139/388 137/281 140/314
f 223/286 215/421 222/422
f 378/423 379/420 377/424
f 134/300 113/425 133/48
f 228/299 223/14 224/288
f 276/9 279/426 275/427
f 130/292 109/428 129/429
f 274/7 277/430 278/431
f 132/296 111/432 131/433
f 232/434 523/435 601/436
f 227/437 224/438 217/439
f 347/440 344/441 343/442
f 236/443 231/444 232/434
f 234/1 229/445 233/446
f 131/433 129/429 132/296
f 250/283 251/47 252/19
f 66/172 65/158 68/175
f 262/447 268/338 267/339
f 590/448 44/449 526/393
f 180/125 178/384 177/346
f 527/450 31/451 517/452
f 602/453 244/454 536/455
f 148/129 127/456 147/127
f 260/342 263/457 256/343
f 144/322 123/458 143/417
f 254/459 267/339 258/460
f 285/461 283/462 287/463
f 258/460 265/340 260/342
f 511/464 48/160 550/289
f 169/385 167/465 171/386
f 282/466 285/461 286/467
f 166/468 176/126 170/43
f 261/469 257/10 268/338
f 266/470 255/11 264/471
f 57/472 60/473 59/474
f 175/348 167/475 174/476
f 237/477 242/478 241/479
f 271/352 270/480 269/481
f 244/454 239/482 243/483
f 276/9 273/484 274/7
f 173/485 169/254 176/253
f 277/486 275/487 279/488
f 278/431 279/489 280/8
f 230/490 508/3 512/491
f 272/492 265/340 266/163
f 5/74 70/185 71/184
f 286/467 287/463 288/72
f 202/258 207/60 208/336
f 97/249 499/493 542/494
f 294/27 295/367 296/495
f 296/495 291/496 292/497
f 339/42 331/498 337/499
f 153/500 156/501 90/502
f 185/503 183/504 181/505
f 290/506 296/495 292/507
f 298/508 301/509 302/180
f 186/51 191/222 192/362
f 298/510 304/182 300/511
f 301/509 299/512 303/181
f 339/42 338/513 340/40
f 304/182 299/514 300/515
f 191/516 183/517 187/369
f 306/518 309/519 310/372
f 320/379 315/520 319/521
f 189/522 185/523 181/524
f 314/525 317/52 313/526
f 318/380 319/521 317/52
f 309/519 307/527 311/373
f 93/238 563/528 541/529
f 194/242 185/503 195/243
f 328/498 331/530 333/531
f 325/260 323/532 321/533
f 196/241 191/222 193/368
f 329/6 325/260 321/534
f 322/535 328/498 326/536
f 326/536 333/41 335/237
f 377/424 375/537 373/538
f 306/539 312/22 308/540
f 19/541 70/185 4/76
f 221/542 217/439 224/438
f 212/400 210/392 211/398
f 342/543 345/544 341/545
f 334/546 323/532 327/259
f 447/547 494/548 595/549
f 94/550 514/232 597/551
f 207/552 199/553 203/391
f 344/441 341/140 343/139
f 342/543 348/554 346/555
f 205/556 201/557 197/558
f 354/559 355/560 353/17
f 356/561 351/562 355/560
f 346/555 347/563 345/564
f 536/455 243/565 533/566
f 210/392 201/414 211/398
f 350/567 356/561 354/559
f 358/568 361/569 357/570
f 212/400 207/60 209/390
f 358/571 364/572 362/573
f 361/569 359/574 357/575
f 364/572 359/576 363/577
f 366/578 369/411 365/579
f 369/411 367/580 365/581
f 374/582 377/424 373/583
f 362/573 363/577 361/569
f 547/584 237/585 516/586
f 220/15 222/587 216/588
f 26/90 531/589 5/74
f 417/590 492/207 418/591
f 541/529 423/592 449/593
f 499/594 414/595 425/596
f 41/131 478/597 26/598
f 466/79 391/599 392/600
f 43/136 479/601 28/602
f 383/603 577/357 404/604
f 598/413 429/605 450/606
f 77/607 485/194 71/184
f 440/608 581/121 405/609
f 82/610 564/611 490/612
f 4/76 520/613 464/406
f 412/614 455/192 381/615
f 405/616 470/93 396/617
f 408/618 474/108 400/619
f 34/110 561/620 9/99
f 454/621 536/455 438/622
f 440/608 532/278 383/603
f 158/55 161/308 164/56
f 592/327 389/623 444/624
f 512/491 435/625 453/626
f 537/627 420/628 447/547
f 350/16 354/559 353/17
f 330/4 335/237 336/5
f 414/595 489/199 415/629
f 5/74 22/77 21/75
f 466/79 568/630 22/77
f 2/80 24/83 23/81
f 467/85 477/631 24/83
f 468/88 577/632 25/86
f 7/89 27/91 26/90
f 470/93 581/633 27/91
f 3/82 25/86 28/94
f 471/98 583/634 29/96
f 9/99 31/101 30/100
f 473/103 517/635 31/101
f 8/95 29/96 32/104
f 474/108 519/636 33/106
f 13/109 56/111 34/110
f 475/113 593/637 56/111
f 10/105 33/106 52/114
f 21/116 22/638 37/117
f 8/95 569/639 469/97
f 24/122 39/640 38/123
f 79/641 567/642 487/643
f 45/142 480/644 30/645
f 27/130 42/646 41/131
f 529/647 235/648 236/443
f 25/135 40/277 43/136
f 471/98 395/649 397/650
f 31/141 46/651 45/142
f 78/652 574/312 69/190
f 29/147 44/449 47/148
f 52/114 565/653 14/115
f 59/153 60/654 49/154
f 502/655 412/614 428/656
f 54/159 33/657 48/160
f 454/621 516/586 436/658
f 403/659 467/85 393/660
f 66/172 67/661 61/173
f 62/174 63/662 68/175
f 500/663 413/664 426/665
f 501/666 82/667 96/668
f 505/269 428/669 431/670
f 108/183 77/607 71/184
f 107/189 528/186 504/671
f 107/189 78/652 69/190
f 108/183 546/191 502/655
f 80/195 549/193 500/663
f 80/195 81/672 6/196
f 87/200 555/197 499/594
f 87/200 79/641 1/187
f 83/203 548/201 498/673
f 83/203 106/674 73/204
f 84/208 551/205 563/675
f 84/208 82/610 72/198
f 86/211 556/209 496/676
f 86/211 152/677 12/212
f 88/216 557/213 537/627
f 88/216 85/678 74/206
f 157/217 163/679 162/133
f 444/624 464/406 390/680
f 542/494 425/681 450/606
f 150/227 89/682 92/228
f 388/683 460/345 386/684
f 91/233 156/685 155/234
f 514/232 424/686 427/687
f 93/238 96/668 82/239
f 600/263 432/688 452/689
f 95/230 94/550 106/244
f 446/690 483/355 409/691
f 97/249 100/692 79/250
f 442/693 526/393 385/694
f 99/177 98/412 81/255
f 79/641 554/188 1/187
f 474/108 398/695 400/619
f 598/413 81/696 98/412
f 508/3 434/697 435/625
f 102/264 101/698 78/265
f 539/699 153/700 90/701
f 108/270 104/268 103/271
f 55/702 522/703 35/704
f 437/705 530/33 436/658
f 575/179 426/706 429/605
f 78/652 571/707 486/708
f 429/605 567/709 503/710
f 486/708 381/615 574/312
f 21/75 520/613 4/76
f 20/325 578/84 2/80
f 130/292 131/433 111/293
f 400/619 562/102 561/620
f 132/296 129/429 109/297
f 588/276 405/609 479/601
f 134/300 135/39 115/301
f 241/711 516/586 237/585
f 136/37 133/48 113/306
f 410/712 554/188 411/713
f 138/279 139/388 119/309
f 599/267 77/714 103/271
f 140/314 137/281 117/315
f 9/99 561/620 562/102
f 142/144 143/417 123/318
f 563/675 417/590 423/715
f 144/322 141/146 121/323
f 496/676 419/716 422/717
f 146/320 147/127 127/328
f 397/650 586/92 558/718
f 148/129 145/128 125/333
f 542/494 100/692 97/249
f 406/719 471/98 397/650
f 512/491 229/720 230/490
f 30/100 558/718 7/89
f 404/721 468/88 394/722
f 597/551 427/687 449/593
f 438/622 533/566 437/723
f 46/651 459/724 45/142
f 504/671 410/712 430/725
f 10/105 570/726 472/107
f 442/693 517/452 407/727
f 47/148 481/728 32/729
f 513/408 430/730 451/731
f 580/262 422/732 432/688
f 596/383 421/733 448/689
f 238/734 518/735 242/478
f 443/736 550/289 387/737
f 439/738 568/305 402/739
f 463/313 381/615 389/740
f 240/741 530/33 239/32
f 451/731 505/269 431/670
f 420/628 552/215 384/742
f 587/226 382/743 439/738
f 601/436 236/443 232/434
f 515/332 433/744 434/745
f 85/678 492/207 74/206
f 36/118 573/746 21/747
f 49/154 482/748 34/749
f 475/113 386/684 401/750
f 468/88 391/599 394/722
f 470/93 395/649 396/617
f 534/751 70/185 18/752
f 427/687 564/753 501/666
f 257/10 253/754 255/11
f 274/7 278/431 280/8
f 525/755 231/756 235/757
f 252/19 251/47 247/20
f 5/74 531/589 465/78
f 487/643 411/713 554/188
f 506/758 85/759 92/228
f 234/1 233/760 515/2
f 38/123 476/761 23/762
f 484/763 411/713 485/194
f 450/606 503/710 542/494
f 572/764 403/765 573/746
f 451/731 576/766 599/267
f 478/767 394/722 531/589
f 401/750 460/345 565/653
f 592/327 390/680 578/84
f 544/768 401/750 565/653
f 14/115 565/653 460/345
f 426/665 487/643 567/642
f 399/769 472/107 570/726
f 459/724 406/770 480/644
f 573/771 393/660 520/613
f 424/772 490/612 564/611
f 482/773 400/619 561/620
f 428/656 486/708 571/707
f 382/743 477/152 403/765
f 392/600 585/87 584/774
f 7/89 558/718 586/92
f 393/660 464/406 520/613
f 3/82 584/774 585/87
f 445/775 475/113 401/750
f 503/710 79/776 100/692
f 507/777 436/658 516/586
f 396/617 469/97 569/639
f 435/625 525/778 529/647
f 498/673 416/779 424/772
f 23/81 584/774 3/82
f 457/780 404/604 478/597
f 394/722 465/78 531/589
f 407/781 473/103 399/769
f 28/94 569/639 8/95
f 448/689 495/782 539/699
f 81/672 543/202 6/196
f 594/783 409/691 522/703
f 432/688 560/784 506/758
f 402/785 466/79 392/600
f 82/610 489/199 72/198
f 430/725 484/763 576/786
f 524/787 386/684 535/112
f 425/596 488/788 566/789
f 106/674 553/210 73/204
f 152/677 595/549 494/548
f 32/104 570/726 10/105
f 434/745 523/435 525/755
f 431/670 571/790 579/791
f 441/792 524/787 509/793
f 416/779 543/202 415/629
f 444/624 534/794 540/405
f 152/677 458/247 12/212
f 601/436 433/744 453/626
f 85/678 560/795 493/796
f 389/740 455/192 534/751
f 518/735 437/723 507/797
f 385/694 583/395 406/770
f 106/674 497/798 491/799
f 587/226 402/739 476/761
f 510/303 36/118 37/117
f 589/375 388/683 441/792
f 597/551 106/800 94/550
f 461/801 408/802 482/748
f 450/606 566/803 598/413
f 449/593 501/666 541/529
f 58/804 461/801 49/154
f 521/119 383/603 457/780
f 589/805 11/214 75/806
f 387/737 519/291 408/802
f 545/807 92/228 149/808
f 513/408 431/670 579/791
f 453/626 529/647 601/436
f 509/248 384/742 441/809
f 102/264 579/791 101/698
f 452/689 506/758 545/807
f 42/646 457/780 41/131
f 419/716 553/210 418/591
f 541/529 96/668 93/238
f 441/809 552/215 589/805
f 591/810 387/737 461/801
f 602/453 436/658 530/33
f 449/593 497/811 597/551
f 413/664 485/194 411/713
f 242/478 507/797 241/812
f 439/738 572/764 510/303
f 423/715 491/799 497/798
f 547/584 438/622 518/735
f 422/717 493/796 560/795
f 473/103 398/695 399/769
f 540/405 18/813 19/541
f 494/548 384/742 458/247
f 509/793 16/814 15/815
f 467/85 390/680 393/660
f 579/791 78/816 101/698
f 493/796 418/591 492/207
f 590/448 407/727 481/728
f 481/817 399/769 570/726
f 81/672 566/789 488/788
f 491/799 418/591 553/210
f 16/814 535/112 13/109
f 218/13 224/288 223/14
f 77/607 576/786 484/763
f 490/612 415/629 489/199
f 527/450 385/694 459/724
f 488/788 415/629 543/202
f 453/626 582/331 512/491
f 479/818 396/617 569/639
f 480/819 397/650 558/718
f 476/820 392/600 584/774
f 312/22 311/373 307/23
f 374/821 380/418 378/423
f 290/25 289/822 293/26
f 172/28 175/44 174/29
f 533/31 243/823 239/32
f 160/34 161/308 158/35
f 136/37 116/824 115/38
f 340/40 334/397 333/41
f 170/43 176/126 175/44
f 249/45 245/825 247/46
f 135/39 134/300 133/48
f 182/49 184/826 188/50
f 317/52 319/521 315/53
f 204/58 200/827 206/59
f 150/61 105/828 151/62
f 246/64 250/283 252/19
f 372/66 368/829 367/67
f 214/69 218/13 220/15
f 282/71 286/467 288/72
f 22/77 5/74 465/78
f 24/83 2/80 578/84
f 25/86 3/82 585/87
f 27/91 7/89 586/92
f 29/96 8/95 469/97
f 31/101 9/99 562/102
f 33/106 10/105 472/107
f 56/111 13/109 535/112
f 521/119 42/646 27/120
f 180/125 177/346 175/44
f 147/127 146/320 145/128
f 162/133 163/830 159/134
f 345/138 347/831 343/139
f 142/144 122/832 121/145
f 456/150 39/640 24/151
f 64/156 61/833 62/157
f 270/162 272/492 266/163
f 166/167 170/43 172/28
f 1/176 69/402 2/80
f 99/177 80/834 500/178
f 302/180 301/509 303/181
f 188/50 184/835 190/221
f 38/123 39/640 456/150
f 95/230 83/836 498/231
f 322/236 326/536 335/237
f 196/241 193/368 194/242
f 15/246 12/212 458/247
f 179/252 180/125 176/253
f 6/196 7/89 5/74
f 198/257 200/837 204/58
f 336/5 334/397 327/259
f 154/261 91/233 580/262
f 599/267 103/271 104/268
f 217/273 213/838 215/274
f 588/276 43/136 40/277
f 138/279 118/839 117/280
f 246/282 245/840 249/45
f 225/284 226/295 219/285
f 214/287 221/841 224/288
f 73/204 9/99 7/89
f 550/289 48/160 33/290
f 226/295 227/437 217/273
f 228/299 227/437 226/295
f 510/303 37/117 22/304
f 162/133 164/56 161/308
f 76/311 69/190 574/312
f 10/105 74/358 72/317
f 146/320 126/842 125/321
f 20/325 76/843 463/326
f 233/330 229/720 582/331
f 198/335 202/258 208/336
f 268/338 257/10 259/12
f 267/339 268/338 266/163
f 254/341 258/460 260/342
f 462/344 17/370 14/115
f 177/346 178/384 171/347
f 54/349 51/844 55/350
f 271/352 269/845 263/342
f 538/353 50/846 57/354
f 532/278 40/277 25/356
f 14/115 11/371 74/358
f 288/72 287/463 283/359
f 8/95 72/317 1/176
f 182/361 186/51 192/362
f 66/172 68/175 63/364
f 293/26 289/847 291/366
f 15/246 16/814 13/109
f 193/368 191/516 187/369
f 17/370 75/848 11/371
f 310/372 309/519 311/373
f 75/374 17/370 462/344
f 195/243 185/523 192/376
f 91/233 86/849 496/377
f 314/378 316/850 320/379
f 151/381 105/851 559/382
f 178/384 179/252 169/385
f 140/314 120/852 119/387
f 104/268 108/853 502/389
f 12/212 13/109 9/99
f 209/390 207/552 203/391
f 526/393 44/449 29/394
f 338/396 332/259 334/397
f 335/237 333/41 334/397
f 211/398 201/557 208/399
f 76/401 20/325 2/80
f 353/17 355/560 351/403
f 540/405 19/541 4/76
f 102/264 107/854 504/407
f 366/409 368/855 372/66
f 370/410 372/66 371/68
f 98/412 99/177 575/179
f 201/414 203/856 199/415
f 143/417 142/144 141/146
f 380/418 376/857 375/419
f 139/388 138/279 137/281
f 223/286 219/285 215/421
f 378/423 380/418 379/420
f 134/300 114/858 113/425
f 228/299 225/284 223/14
f 276/9 280/8 279/426
f 130/292 110/859 109/428
f 274/7 273/860 277/430
f 132/296 112/861 111/432
f 232/434 231/756 523/435
f 227/437 228/299 224/438
f 347/440 348/554 344/441
f 236/443 235/862 231/444
f 234/1 230/490 229/445
f 131/433 130/292 129/429
f 250/283 249/45 251/47
f 66/172 64/156 65/158
f 262/447 261/469 268/338
f 590/448 47/148 44/449
f 180/125 179/252 178/384
f 527/450 46/651 31/451
f 602/453 240/741 244/454
f 148/129 128/863 127/456
f 260/342 265/864 263/457
f 144/322 124/865 123/458
f 254/459 262/447 267/339
f 285/461 281/866 283/462
f 258/460 267/339 265/340
f 511/464 53/867 48/160
f 169/385 165/868 167/465
f 282/466 281/869 285/461
f 166/468 173/870 176/126
f 261/469 253/871 257/10
f 266/470 259/12 255/11
f 57/472 50/872 60/473
f 175/348 171/347 167/475
f 237/477 238/734 242/478
f 271/352 272/492 270/480
f 244/454 240/741 239/482
f 276/9 275/487 273/484
f 173/485 165/873 169/254
f 277/486 273/484 275/487
f 278/431 277/874 279/489
f 230/490 234/1 508/3
f 272/492 271/352 265/340
f 5/74 4/76 70/185
f 286/467 285/461 287/463
f 202/258 204/58 207/60
f 97/249 87/875 499/493
f 294/27 293/26 295/367
f 296/495 295/367 291/496
f 339/42 333/41 331/498
f 153/500 155/876 156/501
f 185/503 187/877 183/504
f 290/506 294/27 296/495
f 298/508 297/878 301/509
f 186/51 188/50 191/222
f 298/510 302/180 304/182
f 301/509 297/879 299/512
f 339/42 337/880 338/513
f 304/182 303/181 299/514
f 191/516 190/881 183/517
f 306/518 305/882 309/519
f 320/379 316/883 315/520
f 189/522 192/376 185/523
f 314/525 318/380 317/52
f 318/380 320/379 319/521
f 309/519 305/884 307/527
f 93/238 84/885 563/528
f 194/242 187/877 185/503
f 328/498 324/886 331/530
f 325/260 327/259 323/532
f 196/241 192/362 191/222
f 329/6 336/5 325/260
f 322/535 324/886 328/498
f 326/536 328/498 333/41
f 377/424 379/420 375/537
f 306/539 310/372 312/22
f 19/541 18/752 70/185
f 221/542 213/887 217/439
f 212/400 209/390 210/392
f 342/543 346/555 345/544
f 334/546 332/888 323/532
f 447/547 420/628 494/548
f 94/550 95/230 514/232
f 207/552 206/889 199/553
f 344/441 342/543 341/140
f 342/543 344/441 348/554
f 205/556 208/399 201/557
f 354/559 356/561 355/560
f 356/561 352/890 351/562
f 346/555 348/554 347/563
f 536/455 244/454 243/565
f 210/392 203/856 201/414
f 350/567 352/891 356/561
f 358/568 362/573 361/569
f 212/400 208/336 207/60
f 358/571 360/892 364/572
f 361/569 363/577 359/574
f 364/572 360/893 359/576
f 366/578 370/410 369/411
f 369/411 371/68 367/580
f 374/582 378/423 377/424
f 362/573 364/572 363/577
f 547/584 238/734 237/585
f 220/15 223/14 222/587
f 26/90 478/767 531/589
f 417/590 551/205 492/207
f 541/529 563/528 423/592
f 499/594 555/197 414/595
f 41/131 457/780 478/597
f 466/79 465/78 391/599
f 43/136 588/276 479/601
f 383/603 532/278 577/357
f 598/413 575/179 429/605
f 77/607 484/763 485/194
f 440/608 521/119 581/121
f 412/614 546/191 455/192
f 405/616 581/633 470/93
f 408/618 519/636 474/108
f 34/110 482/773 561/620
f 454/621 602/453 536/455
f 440/608 588/276 532/278
f 592/327 463/326 389/623
f 512/491 508/3 435/625
f 537/627 557/213 420/628
f 414/595 555/197 489/199
f 45/142 459/724 480/644
f 529/647 525/778 235/648
f 471/98 469/97 395/649
f 78/652 486/708 574/312
f 52/114 544/768 565/653
f 502/655 546/191 412/614
f 454/621 547/584 516/586
f 403/659 477/631 467/85
f 500/663 549/193 413/664
f 501/666 564/753 82/667
f 505/269 502/389 428/669
f 107/189 1/187 528/186
f 108/183 70/185 546/191
f 80/195 71/184 549/193
f 87/200 72/198 555/197
f 83/203 6/196 548/201
f 84/208 74/206 551/205
f 86/211 73/204 556/209
f 88/216 11/214 557/213
f 444/624 540/405 464/406
f 542/494 499/493 425/681
f 388/683 462/344 460/345
f 514/232 498/231 424/686
f 600/263 580/262 432/688
f 446/690 538/353 483/355
f 442/693 590/448 526/393
f 79/641 487/643 554/188
f 474/108 472/107 398/695
f 598/413 566/803 81/696
f 508/3 515/2 434/697
f 539/699 495/782 153/700
f 55/702 594/783 522/703
f 437/705 533/31 530/33
f 575/179 500/178 426/706
f 429/605 426/706 567/709
f 486/708 412/614 381/615
f 21/75 573/771 520/613
f 20/325 592/327 578/84
f 400/619 398/695 562/102
f 588/276 440/608 405/609
f 241/711 507/777 516/586
f 410/712 528/186 554/188
f 599/267 576/766 77/714
f 563/675 551/205 417/590
f 496/676 556/209 419/716
f 397/650 395/649 586/92
f 542/494 503/710 100/692
f 406/719 583/634 471/98
f 512/491 582/331 229/720
f 30/100 480/819 558/718
f 404/721 577/632 468/88
f 597/551 514/232 427/687
f 438/622 536/455 533/566
f 46/651 527/450 459/724
f 504/671 528/186 410/712
f 442/693 527/450 517/452
f 47/148 590/448 481/728
f 513/408 504/407 430/730
f 580/262 496/377 422/732
f 596/383 559/382 421/733
f 238/734 547/584 518/735
f 443/736 511/464 550/289
f 439/738 510/303 568/305
f 463/313 574/312 381/615
f 240/741 602/453 530/33
f 451/731 599/267 505/269
f 420/628 557/213 552/215
f 587/226 456/150 382/743
f 601/436 529/647 236/443
f 515/332 582/331 433/744
f 85/678 493/796 492/207
f 36/118 572/764 573/746
f 49/154 461/801 482/748
f 475/113 535/112 386/684
f 468/88 585/87 391/599
f 470/93 586/92 395/649
f 534/751 455/192 70/185
f 427/687 424/686 564/753
f 525/755 523/435 231/756
f 487/643 413/664 411/713
f 506/758 560/784 85/759
f 38/123 587/226 476/761
f 484/763 410/712 411/713
f 450/606 429/605 503/710
f 572/764 382/743 403/765
f 451/731 430/730 576/766
f 478/767 404/721 394/722
f 401/750 386/684 460/345
f 592/327 444/624 390/680
f 544/768 445/775 401/750
f 426/665 413/664 487/643
f 399/769 398/695 472/107
f 459/724 385/694 406/770
f 573/771 403/659 393/660
f 424/772 416/779 490/612
f 482/773 408/618 400/619
f 428/656 412/614 486/708
f 382/743 456/150 477/152
f 392/600 391/599 585/87
f 393/660 390/680 464/406
f 445/775 593/637 475/113
f 503/710 567/709 79/776
f 507/777 437/705 436/658
f 396/617 395/649 469/97
f 435/625 434/697 525/778
f 498/673 548/201 416/779
f 23/81 476/820 584/774
f 457/780 383/603 404/604
f 394/722 391/599 465/78
f 407/781 517/635 473/103
f 28/94 479/818 569/639
f 448/689 421/733 495/782
f 81/672 488/788 543/202
f 594/783 446/690 409/691
f 432/688 422/732 560/784
f 402/785 568/630 466/79
f 82/610 490/612 489/199
f 430/725 410/712 484/763
f 524/787 388/683 386/684
f 425/596 414/595 488/788
f 106/674 491/799 553/210
f 32/104 481/817 570/726
f 434/745 433/744 523/435
f 431/670 428/669 571/790
f 441/792 388/683 524/787
f 416/779 548/201 543/202
f 444/624 389/623 534/794
f 152/677 494/548 458/247
f 601/436 523/435 433/744
f 389/740 381/615 455/192
f 518/735 438/622 437/723
f 385/694 526/393 583/395
f 587/226 439/738 402/739
f 510/303 572/764 36/118
f 589/375 462/344 388/683
f 597/551 497/811 106/800
f 461/801 387/737 408/802
f 450/606 425/681 566/803
f 449/593 427/687 501/666
f 58/804 591/810 461/801
f 521/119 440/608 383/603
f 589/805 552/215 11/214
f 387/737 550/289 519/291
f 545/807 506/758 92/228
f 513/408 451/731 431/670
f 453/626 435/625 529/647
f 509/248 458/247 384/742
f 102/264 513/408 579/791
f 452/689 432/688 506/758
f 42/646 521/119 457/780
f 419/716 556/209 553/210
f 541/529 501/666 96/668
f 441/809 384/742 552/215
f 591/810 443/736 387/737
f 602/453 454/621 436/658
f 449/593 423/592 497/811
f 413/664 549/193 485/194
f 242/478 518/735 507/797
f 439/738 382/743 572/764
f 423/715 417/590 491/799
f 547/584 454/621 438/622
f 422/717 419/716 493/796
f 473/103 562/102 398/695
f 540/405 534/794 18/813
f 494/548 420/628 384/742
f 509/793 524/787 16/814
f 467/85 578/84 390/680
f 579/791 571/790 78/816
f 493/796 419/716 418/591
f 590/448 442/693 407/727
f 481/817 407/781 399/769
f 491/799 417/590 418/591
f 16/814 524/787 535/112
f 490/612 416/779 415/629
f 527/450 442/693 385/694
f 488/788 414/595 415/629
f 453/626 433/744 582/331
f 479/818 405/616 396/617
f 480/819 406/719 397/650
f 476/820 402/785 392/600
f 374/821 376/894 380/418
o Frame
v -0.375 3.625 2.5
v -0.375 4 2.5
v -0.375 3.625 -2.5
v -0.375 4 -2.5
v 0.375 3.625 2.5
v 0.375 4 2.5
v 0.375 3.625 -2.5
v 0.375 4 -2.5
v 0.125 3.625 -2.5
v -0.125 3.625 -2.5
v -0.125 4 -2.5
v 0.125 4 -2.5
v -0.125 3.625 2.5
v 0.125 3.625 2.5
v 0.125 4 2.5
v -0.125 4 2.5
v -0.25 3.5 -2.5
v -0.25 3.5 2.5
v -0.125 3.5 -2.5
v -0.125 3.5 2.5
v 0.25 3.5 2.5
v 0.25 3.5 -2.5
v 0.125 3.5 2.5
v 0.125 3.5 -2.5
v -0.5 -1 2.5
v -0.5 0 2.5
v -0.5 -1 -2.5
v 0.5 -1 2.5
v 0.5 0 2.5
v 0.5 -1 -2.5
v 0.125 -1 -2.5
v -0.125 -1 -2.5
v -0.125 -0 -2.5
v 0.125 -0 -2.5
v -0.125 -1 2.5
v 0.125 -1 2.5
v -0.125 0.0625 -2.5
v 0.125 0.0625 -2.5
v 0.125 0.0625 2.5
v -0.125 0.0625 2.5
v -0.4375 0.0625 2.5
v -0.5 -0 -2.5
v -0.4375 0.0625 -2.5
v 0.4375 0.0625 -2.5
v 0.5 -0 -2.5
v 0.4375 0.0625 2.5
v 0.125 0.0625 -1.5
v 0.125 0.0625 -0.5
v 0.125 0.0625 0.5
v 0.125 0.0625 1.5
v -0.125 0.0625 -1.5
v -0.125 0.0625 -0.5
v -0.125 0.0625 0.5
v -0.125 0.0625 1.5
v 0.125 0.0625 1.625
v -0.125 0.0625 1.625
v -0.125 0.0625 2.375
v 0.125 0.0625 2.375
v 0.125 0.0625 -2.375
v -0.125 0.0625 -2.375
v -0.125 0.0625 -1.625
v 0.125 0.0625 -1.625
v 0.125 0.0625 -1.375
v -0.125 0.0625 -1.375
v -0.125 0.0625 -0.625
v 0.125 0.0625 -0.625
v 0.125 0.0625 -0.375
v -0.125 0.0625 -0.375
v -0.125 0.0625 0.375
v 0.125 0.0625 0.375
v 0.125 0.0625 0.625
v -0.125 0.0625 0.625
v -0.125 0.0625 1.375
v 0.125 0.0625 1.375
v 0.125 0 2.5
v -0.125 0 2.5
v -0.125 -0 -1.5
v 0.125 -0 -1.5
v -0.125 -0 -0.5
v 0.125 -0 -0.5
v -0.125 0 0.5
v 0.125 0 0.5
v -0.125 0 1.5
v 0.125 0 1.5
v -0.125 0 1.625
v 0.125 0 1.625
v 0.125 0 2.375
v -0.125 0 2.375
v -0.125 -0 -2.375
v 0.125 -0 -2.375
v 0.125 -0 -1.625
v -0.125 -0 -1.625
v -0.125 -0 -1.375
v 0.125 -0 -1.375
v 0.125 -0 -0.625
v -0.125 -0 -0.625
v -0.125 -0 -0.375
v 0.125 -0 -0.375
v 0.125 0 0.375
v -0.125 0 0.375
v -0.125 0 0.625
v 0.125 0 0.625
v 0.125 0 1.375
v -0.125 0 1.375
v -0.125 -0.25 1.875
v 0.125 -0.25 1.875
v 0.125 -0.25 2.125
v -0.125 -0.25 2.125
v -0.125 -0.25 -2.125
v 0.125 -0.25 -2.125
v 0.125 -0.25 -1.875
v -0.125 -0.25 -1.875
v -0.125 -0.25 -1.125
v 0.125 -0.25 -1.125
v 0.125 -0.25 -0.875
v -0.125 -0.25 -0.875
v -0.125 -0.25 -0.125
v 0.125 -0.25 -0.125
v 0.125 -0.25 0.125
v -0.125 -0.25 0.125
v -0.125 -0.25 0.875
v 0.125 -0.25 0.875
v 0.125 -0.25 1.125
v -0.125 -0.25 1.125
v -0.375 3.625 -0
v 0.375 3.625 -0
v -0.125 4 -0
v 0.375 4 -0
v -0.125 3.625 -0
v 0.125 4 -0
v -0.25 3.5 -0
v 0.125 3.5 -0
v 0.125 3.625 -0
v -0.5 -1 0
v 0.5 -1 0
v 0.125 -1 0
v 0.2812 0.0625 1.5
v -0.125 -1 0
v -0.4375 0.0625 -0
v 0.4375 0.0625 -0
v -0.2812 0.0625 -1.5
v -0.375 4 -0
v 0.25 3.5 -0
v -0.125 3.5 -0
v -0.5 0 0
v 0.5 0 0
v 0.2812 0.0625 1
v 0.2812 0.0625 -1.5
v -0.2812 0.0625 -1
v -0.2812 0.0625 1.5
v -0.375 3.625 -1.25
v 0.375 3.625 -1.25
v -0.125 4 1.25
v 0.375 4 -1.25
v -0.125 3.625 1.25
v 0.125 4 1.25
v -0.25 3.5 1.25
v 0.125 3.5 -1.25
v 0.125 3.625 1.25
v -0.5 -1 -1.25
v 0.5 -1 -1.25
v 0.125 -1 -1.25
v 0.125 -1 1.25
v 0.4375 0.0625 -1.25
v -0.125 -1 1.25
v -0.4375 0.0625 -1.25
v 0.3594 0.0625 1.75
v 0.4375 0.0625 1.25
v -0.2812 0.0625 0.25
v 0.2812 0.0625 -0.25
v -0.125 3.625 -1.25
v -0.125 -1 -1.25
v -0.4375 0.0625 1.25
v 0.375 4 1.25
v 0.125 4 -1.25
v -0.375 3.625 1.25
v -0.375 4 1.25
v 0.25 3.5 1.25
v -0.125 4 -1.25
v 0.375 3.625 1.25
v -0.25 3.5 -1.25
v -0.3594 0.0625 -1.75
v -0.125 3.5 -1.25
v -0.3594 0.0625 0.75
v -0.5 -1 1.25
v -0.5 0 1.25
v 0.125 3.5 1.25
v 0.3594 0.0625 -0.75
v 0.5 -1 1.25
v 0.125 3.625 -1.25
v 0.5 0 1.25
v -0.375 4 -1.25
v 0.25 3.5 -1.25
v -0.125 3.5 1.25
v -0.5 -0 -1.25
v 0.5 -0 -1.25
v 0.2031 0.0625 0.25
v -0.2031 0.0625 -0.25
vt 0.3202 0.6505
vt 0.33 0.6553
vt 0.3202 0.6553
vt 0.3892 0.9951
vt 0.4187 0.9757
vt 0.4187 0.9951
vt 0.468 0.9951
vt 0.4877 0.9757
vt 0.4877 0.9951
vt 0.5813 0.9563
vt 0.6798 0.9369
vt 0.6798 0.9563
vt 0.9754 0.767
vt 0.8768 0.7767
vt 0.8768 0.767
vt 0.0542 0.9175
vt 0.0837 0.8398
vt 0.0837 0.9175
vt 0.33 0.6505
vt 0.3892 0.6553
vt 0.1429 0.9757
vt 0.133 0.9951
vt 0.133 0.9757
vt 0.6798 0.9951
vt 0.5813 0.9854
vt 0.6798 0.9854
vt 0.9754 0.8204
vt 0.9951 0.7913
vt 0.9951 0.8204
vt 0.9754 0.9369
vt 0.9951 0.9078
vt 0.9951 0.9369
vt 0.0837 0.7913
vt 0.1823 0.7621
vt 0.1823 0.7913
vt 0.0443 0.9757
vt 0.0345 0.9951
vt 0.0345 0.9757
vt 0.9852 0.7816
vt 0.9951 0.7816
vt 0.5616 0.7913
vt 0.5714 0.7816
vt 0.5813 0.7913
vt 0.0049 0.9175
vt 0.0345 0.8398
vt 0.0345 0.9175
vt 0.1823 0.8398
vt 0.1823 0.9175
vt 0.9852 0.8981
vt 0.9951 0.8981
vt 0.5616 0.9078
vt 0.5714 0.8981
vt 0.5813 0.9078
vt 0.5172 0.9951
vt 0.5271 0.9757
vt 0.5271 0.9951
vt 0.1724 0.6505
vt 0.2315 0.6553
vt 0.1724 0.6553
vt 0.5813 0.9369
vt 0.6798 0.9078
vt 0.2414 0.6505
vt 0.2512 0.6553
vt 0.2414 0.6553
vt 0.8768 0.8398
vt 0.8768 0.8204
vt 0.3695 0.9757
vt 0.3399 0.9951
vt 0.3399 0.9757
vt 0.5271 0.9175
vt 0.5517 0.9223
vt 0.5271 0.9223
vt 0.0099 0.9223
vt 0.1626 0.9466
vt 0.1626 0.9345
vt 0.2414 0.9466
vt 0.5074 0.9175
vt 0.4828 0.9223
vt 0.4778 0.9175
vt 0.0788 0.9223
vt 0.0542 0.9223
vt 0.4778 0.9515
vt 0.468 0.9466
vt 0.4778 0.9466
vt 0.3892 0.6505
vt 0.399 0.6553
vt 0.2709 0.9951
vt 0.2906 0.9757
vt 0.2906 0.9951
vt 0.3793 0.9175
vt 0.4778 0.9223
vt 0.3793 0.9223
vt 0.3695 0.9951
vt 0.3892 0.9757
vt 0.468 0.6505
vt 0.4778 0.6553
vt 0.468 0.6553
vt 0.2709 0.9757
vt 0.2414 0.9951
vt 0.2414 0.9757
vt 0.5813 0.8689
vt 0.6798 0.8398
vt 0.6798 0.8689
vt 0.399 0.6675
vt 0.0739 0.9951
vt 0.0936 0.9757
vt 0.0936 0.9951
vt 0.3103 0.6505
vt 0.3103 0.6553
vt 0.5616 0.9369
vt 0.1724 0.9951
vt 0.1921 0.9757
vt 0.1921 0.9951
vt 0.2217 0.9757
vt 0.2217 0.9951
vt 0.2512 0.9515
vt 0.2512 0.9466
vt 0.6798 0.8786
vt 0.3202 0.9951
vt 0.33 0.9757
vt 0.33 0.9951
vt 0.399 0.6505
vt 0.4089 0.6553
vt 0.4089 0.9515
vt 0.399 0.9466
vt 0.4089 0.9466
vt 0.1823 0.8107
vt 0.0837 0.6505
vt 0.0936 0.6553
vt 0.0837 0.6553
vt 0.4089 0.6505
vt 0.9754 0.7913
vt 0.8768 0.7913
vt 0.0936 0.9515
vt 0.0837 0.9466
vt 0.0936 0.9466
vt 0.2414 0.9515
vt 0.2315 0.9466
vt 0.1626 0.9515
vt 0.1527 0.9466
vt 0.8768 0.8932
vt 0.9754 0.9078
vt 0.8768 0.9078
vt 0.0837 0.8107
vt 0.3596 0.6675
vt 0.3005 0.6614
vt 0.33 0.9515
vt 0.3202 0.9466
vt 0.33 0.9466
vt 0.2315 0.6505
vt 0.1724 0.9515
vt 0.1724 0.9466
vt 0.1527 0.9515
vt 0.2512 0.6505
vt 0.0542 0.8398
vt 0.5813 0.8204
vt 0.6798 0.7913
vt 0.6798 0.8204
vt 0.5813 0.8932
vt 0.6798 0.8835
vt 0.6798 0.8932
vt 0.399 0.9515
vt 0.3892 0.9466
vt 0.1626 0.6505
vt 0.1626 0.6553
vt 0.5271 0.8398
vt 0.1232 0.9951
vt 0.5616 0.8204
vt 0.5566 0.8398
vt 0.5566 0.9175
vt 0.1823 0.6845
vt 0.0837 0.6796
vt 0.1823 0.6796
vt 0.3103 0.9515
vt 0.3103 0.9466
vt 0.5074 0.8398
vt 0.0936 0.6505
vt 0.1527 0.6553
vt 0.1527 0.6505
vt 0.2315 0.9515
vt 0.4286 0.9757
vt 0.4286 0.9951
vt 0.3202 0.9757
vt 0.4384 0.9757
vt 0.4778 0.6845
vt 0.3793 0.7621
vt 0.3793 0.6845
vt 0.468 0.9515
vt 0.4286 0.9709
vt 0.3892 0.9515
vt 0.4483 0.6311
vt 0.1232 0.9757
vt 0.1133 0.9709
vt 0.3202 0.9515
vt 0.133 0.6311
vt 0.5172 0.9757
vt 0.1921 0.9709
vt 0.2315 0.9951
vt 0.2315 0.9757
vt 0.2118 0.6311
vt 0.0739 0.9757
vt 0.0443 0.9951
vt 0.2709 0.9709
vt 0.2906 0.6311
vt 0.3498 0.9709
vt 0.468 0.9757
vt 0.4384 0.9951
vt 0.3695 0.6311
vt 0.0837 0.9223
vt 0.1823 0.9223
vt 0.1429 0.9284
vt 0.2808 0.9223
vt 0.3399 0.9284
vt 0.2808 0.8398
vt 0.2808 0.9175
vt 0.7783 0.7767
vt 0.7783 0.7913
vt 0.202 0.9345
vt 0.3005 0.9345
vt 0.2611 0.9405
vt 0.8768 0.8689
vt 0.9754 0.8398
vt 0.9754 0.8689
vt 0.7783 0.8932
vt 0.7783 0.9078
vt 0.1429 0.9951
vt 0.7783 0.9369
vt 0.7783 0.9563
vt 0.2808 0.8107
vt 0.2808 0.6796
vt 0.2611 0.6675
vt 0.8768 0.9563
vt 0.9754 0.9563
vt 0.5616 0.7816
vt 0.9754 0.8786
vt 0.7783 0.9854
vt 0.5616 0.8981
vt 0.7783 0.767
vt 0.2808 0.7621
vt 0.2808 0.7913
vt 0.7783 0.8204
vt 0.8768 0.9854
vt 0.0345 0.9223
vt 0.399 0.9345
vt 0.5074 0.9223
vt 0.3793 0.7913
vt 0.4778 0.7621
vt 0.4778 0.7913
vt 0.3793 0.8107
vt 0.3793 0.8398
vt 0.7783 0.8398
vt 0.7783 0.8689
vt 0.8768 0.9369
vt 0.7783 0.8786
vt 0.4778 0.6796
vt 0.3793 0.6796
vt 0.4187 0.6735
vt 0.1626 0.6675
vt 0.2808 0.6845
vt 0.9754 0.7767
vt 0.5813 0.9951
vt 0.9754 0.8835
vt 0.9754 0.8932
vt 0.7783 0.8835
vt 0.6798 0.7767
vt 0.4778 0.8107
vt 0.8768 0.8786
vt 0.4778 0.8398
vt 0.2217 0.6735
vt 0.9754 0.9854
vt 0.6798 0.767
vt 0.8768 0.9951
vt 0.5813 0.7767
vt 0.7783 0.9951
vt 0.0837 0.7621
vt 0.0837 0.6845
vt 0.8768 0.8835
vt 0.5813 0.8398
vt 0.4483 0.9709
vt 0.4286 0.6311
vt 0.9754 0.9951
vt 0.133 0.9709
vt 0.1133 0.6311
vt 0.5813 0.767
vt 0.2118 0.9709
vt 0.1921 0.6311
vt 0.2906 0.9709
vt 0.2709 0.6311
vt 0.3695 0.9709
vt 0.3498 0.6311
vt 0.1724 0.9757
vt 0.0049 0.8398
vt 0.4778 0.6505
vt 0.5813 0.8786
vt 0.0837 0.9515
vt 0.5813 0.8835
s 1
f 684/895 673/896 651/897
f 715/898 696/899 695/900
f 714/901 712/902 711/903
f 617/904 776/905 758/906
f 622/907 759/908 796/909
f 677/910 630/911 631/912
f 704/913 676/914 673/896
f 705/915 685/916 686/917
f 789/918 616/919 761/920
f 604/921 615/922 618/923
f 610/924 611/925 614/926
f 637/927 787/928 767/929
f 689/930 678/931 677/932
f 615/922 620/933 622/934
f 612/935 619/936 605/937
f 628/938 637/939 678/940
f 631/912 791/941 793/942
f 611/925 624/943 626/944
f 616/945 623/946 607/947
f 691/948 636/949 635/950
f 696/951 668/952 665/953
f 608/954 782/955 776/905
f 682/956 669/957 650/958
f 604/921 755/959 779/960
f 717/961 698/962 697/963
f 635/964 645/965 639/966
f 678/940 643/967 628/938
f 652/968 739/969 651/970
f 636/971 646/972 647/973
f 677/910 648/974 641/975
f 678/976 659/977 642/978
f 705/979 652/980 676/914
f 722/981 720/982 719/983
f 798/984 646/985 766/986
f 718/987 716/988 715/898
f 689/989 641/990 660/991
f 721/992 702/993 701/994
f 612/995 781/996 773/997
f 653/980 743/998 654/897
f 710/999 708/1000 707/1001
f 701/1002 651/897 672/1003
f 617/1004 607/947 608/954
f 726/1005 724/1006 723/1007
f 723/1007 704/1008 703/1009
f 699/1010 654/970 670/1011
f 785/1012 612/995 773/997
f 699/1013 682/1014 681/1015
f 686/1016 657/1017 652/980
f 687/1018 656/1019 658/1020
f 630/911 765/1021 791/941
f 636/1022 661/1023 640/1024
f 688/1025 660/991 657/1017
f 759/908 603/1026 778/1027
f 691/1028 639/1029 662/1030
f 681/1031 667/1032 654/970
f 679/1033 663/1034 653/968
f 795/1035 609/1036 754/1037
f 638/1038 767/929 765/1021
f 654/897 751/1039 800/1040
f 703/1041 655/1042 674/1043
f 761/920 617/904 758/906
f 697/1044 650/958 668/952
f 695/1045 653/968 666/1046
f 694/1047 662/1030 663/1034
f 700/1048 672/1003 669/957
f 678/940 638/1049 677/910
f 606/1050 753/1051 794/1052
f 623/1053 789/1054 780/1055
f 685/1056 675/1057 656/1019
f 680/1058 665/953 649/1059
f 636/971 634/1060 635/964
f 687/1061 686/917 685/916
f 613/1062 605/937 606/1050
f 635/964 629/1063 644/1064
f 788/1065 643/1066 775/1067
f 702/1068 670/1011 671/1069
f 647/973 633/1070 636/971
f 692/1071 664/1072 661/1023
f 693/1073 649/1059 664/1072
f 698/1074 666/1046 667/1032
f 695/900 680/1075 679/1076
f 719/983 700/1077 699/1013
f 693/1078 679/1076 680/1075
f 644/1079 762/1080 797/1081
f 690/1082 658/1020 659/977
f 690/1082 707/1083 687/1018
f 706/1084 674/1043 675/1057
f 688/1025 709/1085 689/989
f 707/1001 688/1086 687/1061
f 694/1047 711/1087 691/1028
f 683/1088 671/1069 655/1042
f 692/1071 713/1089 693/1073
f 711/903 692/1090 691/948
f 698/1074 715/1091 695/1045
f 701/994 683/1092 684/1093
f 696/951 717/1094 697/1044
f 709/1095 690/1096 689/930
f 702/1068 719/1097 699/1010
f 703/1009 684/1093 683/1092
f 700/1048 721/1098 701/1002
f 697/963 681/1015 682/1014
f 706/1084 723/1099 703/1041
f 713/1100 694/1101 693/1078
f 704/913 725/1102 705/979
f 648/1103 770/1104 769/1105
f 742/1106 766/986 790/1107
f 793/942 737/1108 748/1109
f 733/1110 778/1027 727/1111
f 749/1112 772/1113 799/1114
f 757/1115 618/1116 615/1117
f 745/1118 754/1037 728/1119
f 705/915 706/1120 685/916
f 758/906 730/1121 732/1122
f 791/941 738/1123 737/1108
f 741/1124 771/1125 751/1039
f 777/1126 610/924 614/1127
f 623/1053 782/955 607/947
f 615/922 603/1026 620/933
f 612/935 621/1128 619/936
f 622/1129 757/1115 615/1117
f 735/1130 758/906 732/1122
f 611/925 609/1036 624/943
f 616/945 625/1131 623/946
f 796/909 733/1110 746/1132
f 677/910 638/1049 630/911
f 767/929 736/1133 740/1134
f 794/1052 727/1111 744/1135
f 751/1039 771/1125 800/1040
f 792/1136 732/1122 777/1126
f 635/964 644/1064 645/965
f 678/940 642/1137 643/967
f 770/1104 749/1112 769/1105
f 646/985 640/978 649/1019
f 649/1019 750/1138 646/985
f 739/969 769/1105 749/1112
f 652/968 641/1029 648/1103
f 636/971 640/1139 646/972
f 677/910 631/912 648/974
f 774/1140 629/1141 634/1142
f 737/1108 764/1143 763/1144
f 631/912 770/1104 648/1103
f 773/997 729/1145 731/1146
f 732/1122 756/1147 777/1126
f 779/960 729/1145 744/1135
f 740/1134 762/1080 774/1140
f 746/1148 773/997 731/1146
f 653/980 639/990 645/1149
f 768/1150 751/1039 784/1151
f 643/1066 642/1024 656/1059
f 656/1059 752/1152 643/1066
f 743/998 784/1151 751/1039
f 747/1153 775/1067 741/1124
f 715/898 716/988 696/899
f 684/895 704/913 673/896
f 644/1079 768/1150 645/1149
f 622/907 620/1154 759/908
f 604/921 603/1026 615/922
f 789/918 625/1155 616/919
f 795/1035 626/1156 624/1157
f 779/960 603/1026 604/921
f 780/1055 734/1158 745/1118
f 738/1123 774/1140 764/1143
f 772/1113 650/1042 799/1114
f 780/1055 728/1119 782/955
f 742/1106 772/1113 749/1112
f 783/1159 727/1111 753/1051
f 651/970 749/1112 799/1114
f 772/1113 790/1107 750/1138
f 764/1143 634/1142 633/1160
f 796/1161 731/1146 757/1115
f 771/1125 655/958 800/1040
f 731/1146 755/959 757/1115
f 763/1144 633/1160 632/1162
f 793/942 742/1106 770/1104
f 775/1067 752/1152 786/1163
f 771/1125 786/1163 752/1152
f 766/986 750/1138 790/1107
f 748/1109 766/986 742/1106
f 611/1164 777/1126 614/1127
f 765/1021 740/1134 738/1123
f 645/1149 768/1150 784/1151
f 797/1081 736/1133 747/1153
f 776/905 728/1119 730/1121
f 746/1132 783/1159 785/1165
f 741/1124 775/1067 786/1163
f 798/984 632/1162 647/973
f 760/1166 735/1130 792/1136
f 619/1167 753/1051 605/937
f 734/1168 761/920 735/1130
f 744/1135 781/996 794/1052
f 788/1065 627/1169 628/1170
f 714/901 713/1100 712/902
f 756/1147 609/1036 610/924
f 745/1118 760/1171 795/1035
f 730/1121 754/1037 756/1147
f 704/913 705/979 676/914
f 794/1052 613/1172 606/1050
f 690/1082 710/1173 707/1083
f 747/1153 787/928 788/1065
f 688/1025 708/1174 709/1085
f 626/1175 792/1136 611/1164
f 694/1047 714/1176 711/1087
f 610/924 609/1036 611/925
f 692/1071 712/1177 713/1089
f 785/1165 619/1167 621/1178
f 698/1074 718/1179 715/1091
f 744/1135 778/1027 779/960
f 696/951 716/1180 717/1094
f 797/1081 741/1124 768/1150
f 702/1068 722/1181 719/1097
f 748/1109 763/1144 798/984
f 700/1048 720/1182 721/1098
f 617/904 608/954 776/905
f 706/1084 726/1183 723/1099
f 637/927 627/1169 787/928
f 704/913 724/1184 725/1102
f 725/1185 706/1120 705/915
f 689/930 690/1096 678/931
f 628/938 627/1186 637/939
f 631/912 630/911 791/941
f 691/948 692/1090 636/949
f 696/951 697/1044 668/952
f 608/954 607/947 782/955
f 682/956 700/1048 669/957
f 604/921 618/1116 755/959
f 717/961 718/987 698/962
f 652/968 648/1103 739/969
f 678/976 690/1082 659/977
f 705/979 686/1016 652/980
f 722/981 721/992 720/982
f 798/984 647/973 646/985
f 718/987 717/961 716/988
f 689/989 677/1187 641/990
f 721/992 722/981 702/993
f 612/995 613/1172 781/996
f 653/980 645/1149 743/998
f 710/999 709/1095 708/1000
f 701/1002 684/895 651/897
f 617/1004 616/945 607/947
f 726/1005 725/1185 724/1006
f 723/1007 724/1006 704/1008
f 699/1010 681/1031 654/970
f 785/1012 621/1188 612/995
f 699/1013 700/1077 682/1014
f 686/1016 688/1025 657/1017
f 687/1018 685/1056 656/1019
f 630/911 638/1038 765/1021
f 636/1022 692/1071 661/1023
f 688/1025 689/989 660/991
f 759/908 620/1154 603/1026
f 691/1028 635/1189 639/1029
f 681/1031 698/1074 667/1032
f 679/1033 694/1047 663/1034
f 795/1035 624/1157 609/1036
f 638/1038 637/927 767/929
f 800/1040 655/958 654/897
f 654/897 743/998 751/1039
f 703/1041 683/1088 655/1042
f 761/920 616/919 617/904
f 697/1044 682/956 650/958
f 695/1045 679/1033 653/968
f 694/1047 691/1028 662/1030
f 700/1048 701/1002 672/1003
f 678/940 637/939 638/1049
f 606/1050 605/937 753/1051
f 623/1053 625/1190 789/1054
f 685/1056 706/1084 675/1057
f 680/1058 696/951 665/953
f 636/971 633/1070 634/1060
f 687/1061 688/1086 686/917
f 613/1062 612/935 605/937
f 635/964 634/1060 629/1063
f 788/1065 628/1170 643/1066
f 702/1068 699/1010 670/1011
f 647/973 632/1162 633/1070
f 692/1071 693/1073 664/1072
f 693/1073 680/1058 649/1059
f 698/1074 695/1045 666/1046
f 695/900 696/899 680/1075
f 719/983 720/982 700/1077
f 693/1078 694/1101 679/1076
f 644/1079 629/1141 762/1080
f 690/1082 687/1018 658/1020
f 706/1084 703/1041 674/1043
f 707/1001 708/1000 688/1086
f 683/1088 702/1068 671/1069
f 711/903 712/902 692/1090
f 701/994 702/993 683/1092
f 709/1095 710/999 690/1096
f 703/1009 704/1008 684/1093
f 697/963 698/962 681/1015
f 713/1100 714/901 694/1101
f 793/942 791/941 737/1108
f 733/1110 759/908 778/1027
f 757/1115 755/959 618/1116
f 745/1118 795/1035 754/1037
f 758/906 776/905 730/1121
f 791/941 765/1021 738/1123
f 741/1124 786/1163 771/1125
f 777/1126 756/1147 610/924
f 623/1053 780/1055 782/955
f 622/1129 796/1161 757/1115
f 735/1130 761/920 758/906
f 796/909 759/908 733/1110
f 767/929 787/928 736/1133
f 794/1052 753/1051 727/1111
f 792/1136 735/1130 732/1122
f 770/1104 742/1106 749/1112
f 649/1019 650/1042 750/1138
f 739/969 648/1103 769/1105
f 774/1140 762/1080 629/1141
f 737/1108 738/1123 764/1143
f 631/912 793/942 770/1104
f 773/997 781/996 729/1145
f 732/1122 730/1121 756/1147
f 779/960 755/959 729/1145
f 740/1134 736/1133 762/1080
f 746/1148 785/1012 773/997
f 768/1150 741/1124 751/1039
f 656/1059 655/958 752/1152
f 743/998 645/1149 784/1151
f 747/1153 788/1065 775/1067
f 644/1079 797/1081 768/1150
f 795/1035 760/1171 626/1156
f 779/960 778/1027 603/1026
f 780/1055 789/1054 734/1158
f 738/1123 740/1134 774/1140
f 772/1113 750/1138 650/1042
f 780/1055 745/1118 728/1119
f 742/1106 790/1107 772/1113
f 783/1159 733/1110 727/1111
f 799/1114 650/1042 651/970
f 651/970 739/969 749/1112
f 764/1143 774/1140 634/1142
f 796/1161 746/1148 731/1146
f 771/1125 752/1152 655/958
f 731/1146 729/1145 755/959
f 763/1144 764/1143 633/1160
f 793/942 748/1109 742/1106
f 775/1067 643/1066 752/1152
f 766/986 646/985 750/1138
f 748/1109 798/984 766/986
f 611/1164 792/1136 777/1126
f 765/1021 767/929 740/1134
f 797/1081 762/1080 736/1133
f 776/905 782/955 728/1119
f 746/1132 733/1110 783/1159
f 798/984 763/1144 632/1162
f 760/1166 734/1168 735/1130
f 619/1167 783/1159 753/1051
f 734/1168 789/918 761/920
f 744/1135 729/1145 781/996
f 788/1065 787/928 627/1169
f 756/1147 754/1037 609/1036
f 745/1118 734/1158 760/1171
f 730/1121 728/1119 754/1037
f 794/1052 781/996 613/1172
f 747/1153 736/1133 787/928
f 626/1175 760/1166 792/1136
f 785/1165 783/1159 619/1167
f 744/1135 727/1111 778/1027
f 797/1081 747/1153 741/1124
f 748/1109 737/1108 763/1144
f 725/1185 726/1005 706/1120
