o Door
v 0.25 3.9598 0.0938
v 0.375 3.1473 0.0938
v 0.4375 3.2098 0.0938
v 0.4375 3.2098 -0.0938
v 0.25 4.1473 -0.0312
v 0.4375 4.1473 -0.0312
v 0.25 3.1473 -0.0938
v 0.4375 3.9598 -0.0938
v 0.25 4.1473 0.0312
v 0.4375 4.1473 0.0312
v 0.4375 3.2723 0.0938
v 0.25 3.9598 -0.0938
v 0.4375 3.9598 0.0937
v 0.25 4.0223 0.0312
v 0.4375 4.0223 -0.0312
v 0.25 3.1473 0.0938
v 0.25 4.0223 -0.0313
v 0.4375 4.0223 0.0312
v 0.4375 3.2723 -0.0938
v 0.25 3.6785 -0.8665
v 0.375 3.0561 -0.3442
v 0.4375 3.104 -0.3844
v 0.4375 2.9835 -0.5281
v 0.25 3.7418 -1.0828
v 0.4375 3.7418 -1.0828
v 0.25 2.9356 -0.4879
v 0.4375 3.558 -1.0101
v 0.375 2.9356 -0.4879
v 0.25 3.782 -1.0349
v 0.4375 3.782 -1.0349
v 0.4375 3.1519 -0.4246
v 0.25 3.558 -1.0101
v 0.4375 3.6785 -0.8665
v 0.25 3.6862 -0.9546
v 0.4375 3.646 -1.0024
v 0.25 3.0561 -0.3442
v 0.25 3.646 -1.0024
v 0.4375 3.6862 -0.9546
v 0.4375 3.0313 -0.5682
v 0.25 2.8458 -1.4213
v 0.375 2.7047 -0.6212
v 0.4375 2.7156 -0.6827
v 0.4375 2.5309 -0.7153
v 0.25 2.7553 -1.6277
v 0.4375 2.7553 -1.6277
v 0.25 2.5201 -0.6537
v 0.4375 2.6612 -1.4539
v 0.375 2.5201 -0.6537
v 0.25 2.8168 -1.6168
v 0.4375 2.8168 -1.6168
v 0.4375 2.7264 -0.7443
v 0.25 2.6612 -1.4539
v 0.4375 2.8458 -1.4213
v 0.25 2.7951 -1.4937
v 0.4375 2.7336 -1.5046
v 0.25 2.7047 -0.6212
v 0.25 2.7336 -1.5046
v 0.4375 2.7951 -1.4937
v 0.4375 2.5418 -0.7768
v 0.25 1.8513 -1.3111
v 0.375 2.2576 -0.6074
v 0.4375 2.2263 -0.6616
v 0.4375 2.0639 -0.5678
v 0.25 1.6493 -1.411
v 0.4375 1.6493 -1.411
v 0.25 2.0952 -0.5137
v 0.4375 1.6889 -1.2173
v 0.375 2.0952 -0.5137
v 0.25 1.7034 -1.4422
v 0.4375 1.7034 -1.4422
v 0.4375 2.1951 -0.7157
v 0.25 1.6889 -1.2173
v 0.4375 1.8513 -1.3111
v 0.25 1.7659 -1.334
v 0.4375 1.7118 -1.3027
v 0.25 2.2576 -0.6074
v 0.25 1.7118 -1.3027
v 0.4375 1.7659 -1.334
v 0.4375 2.0327 -0.6219
v 0.25 1.1603 -0.5874
v 0.375 1.9238 -0.3095
v 0.4375 1.8651 -0.3309
v 0.4375 1.801 -0.1547
v 0.25 0.9414 -0.534
v 0.4375 0.9414 -0.534
v 0.25 1.8597 -0.1333
v 0.4375 1.0962 -0.4112
v 0.375 1.8597 -0.1333
v 0.25 0.9628 -0.5928
v 0.4375 0.9628 -0.5928
v 0.4375 1.8064 -0.3522
v 0.25 1.0962 -0.4112
v 0.4375 1.1603 -0.5874
v 0.25 1.0802 -0.55
v 0.4375 1.0588 -0.4913
v 0.25 1.9238 -0.3095
v 0.25 1.0588 -0.4913
v 0.4375 1.0802 -0.55
v 0.4375 1.7422 -0.176
v 0.25 1.0962 0.4112
v 0.375 1.8597 0.1333
v 0.4375 1.801 0.1547
v 0.4375 1.8651 0.3309
v 0.25 0.9628 0.5928
v 0.4375 0.9628 0.5928
v 0.25 1.9238 0.3095
v 0.4375 1.1603 0.5874
v 0.375 1.9238 0.3095
v 0.25 0.9414 0.534
v 0.4375 0.9414 0.534
v 0.4375 1.7422 0.176
v 0.25 1.1603 0.5874
v 0.4375 1.0962 0.4112
v 0.25 1.0588 0.4913
v 0.4375 1.0802 0.55
v 0.25 1.8597 0.1333
v 0.25 1.0802 0.55
v 0.4375 1.0588 0.4913
v 0.4375 1.8064 0.3522
v 0.25 1.6889 1.2173
v 0.375 2.0952 0.5137
v 0.4375 2.0639 0.5678
v 0.4375 2.2263 0.6616
v 0.25 1.7034 1.4422
v 0.4375 1.7034 1.4422
v 0.25 2.2576 0.6074
v 0.4375 1.8513 1.3111
v 0.375 2.2576 0.6074
v 0.25 1.6493 1.411
v 0.4375 1.6493 1.411
v 0.4375 2.0327 0.6219
v 0.25 1.8513 1.3111
v 0.4375 1.6889 1.2173
v 0.25 1.7118 1.3027
v 0.4375 1.7659 1.334
v 0.25 2.0952 0.5137
v 0.25 1.7659 1.334
v 0.4375 1.7118 1.3027
v 0.4375 2.1951 0.7157
v 0.25 2.6612 1.4539
v 0.375 2.5201 0.6537
v 0.4375 2.5309 0.7153
v 0.4375 2.7156 0.6827
v 0.25 2.8168 1.6168
v 0.4375 2.8168 1.6168
v 0.25 2.7047 0.6212
v 0.4375 2.8458 1.4213
v 0.375 2.7047 0.6212
v 0.25 2.7553 1.6277
v 0.4375 2.7553 1.6277
v 0.4375 2.5418 0.7768
v 0.25 2.8458 1.4213
v 0.4375 2.6612 1.4539
v 0.25 2.7336 1.5046
v 0.4375 2.7951 1.4937
v 0.25 2.5201 0.6537
v 0.25 2.7951 1.4937
v 0.4375 2.7336 1.5046
v 0.4375 2.7264 0.7443
v 0.25 3.558 1.0101
v 0.375 2.9356 0.4879
v 0.4375 2.9835 0.5281
v 0.4375 3.104 0.3844
v 0.25 3.782 1.0349
v 0.4375 3.782 1.0349
v 0.25 3.0561 0.3442
v 0.4375 3.6785 0.8665
v 0.375 3.0561 0.3442
v 0.25 3.7418 1.0828
v 0.4375 3.7418 1.0828
v 0.4375 3.0313 0.5682
v 0.25 3.6785 0.8665
v 0.4375 3.558 1.0101
v 0.25 3.646 1.0024
v 0.4375 3.6862 0.9546
v 0.25 2.9356 0.4879
v 0.25 3.6862 0.9546
v 0.4375 3.646 1.0024
v 0.4375 3.1519 0.4246
v 0.375 3.1473 -0.0938
v 0.25 3.2089 -0.125
v 0.25 2.9627 -0.5514
v 0.25 3.1234 -0.3599
v 0.3125 2.869 -0.6181
v 0.25 2.2538 0.6764
v 0.25 2.0373 0.5514
v 0.25 2.7462 0.6764
v 0.25 2.5 0.7198
v 0.25 3.2089 0.125
v 0.25 3.1234 0.3599
v 0.25 2.9627 0.5514
v 0.3125 3.2089 -0.125
v 0.3125 2.9627 -0.5514
v 0.3125 3.1234 -0.3599
v 0.3125 2.901 -0.6717
v 0.3125 2.2538 0.6764
v 0.3125 2.0373 0.5514
v 0.3125 2.7462 0.6764
v 0.3125 2.5 0.7198
v 0.3125 3.2089 0.125
v 0.3125 3.1234 0.3599
v 0.3125 2.9627 0.5514
v 0.25 3.2705 -0.1358
v 0.25 3.0029 -0.5993
v 0.25 3.1775 -0.3912
v 0.25 2.869 -0.6181
v 0.25 2.2324 0.7352
v 0.25 1.9971 0.5993
v 0.25 2.7676 0.7352
v 0.25 2.5 0.7823
v 0.25 3.2705 0.1358
v 0.25 3.1775 0.3912
v 0.25 3.0029 0.5993
v 0.3125 3.2705 -0.1358
v 0.3125 3.0029 -0.5993
v 0.3125 3.1775 -0.3912
v 0.25 2.901 -0.6717
v 0.3125 2.2324 0.7352
v 0.3125 1.9971 0.5993
v 0.3125 2.7676 0.7352
v 0.3125 2.5 0.7823
v 0.3125 3.2705 0.1358
v 0.3125 3.1775 0.3912
v 0.3125 3.0029 0.5993
v 0.25 1.9554 0.4707
v 0.3125 1.9554 0.4707
v 0.25 1.9081 0.5116
v 0.3125 1.9081 0.5116
v 0.25 1.9196 0.4257
v 0.3125 1.9196 0.4257
v 0.25 1.8692 0.4627
v 0.3125 1.8692 0.4627
v 0.3125 1.8103 0.5895
v 0.25 1.8103 0.5895
v 0.3125 1.7714 0.5406
v 0.25 1.7714 0.5406
v 0.3125 2.8185 -0.6455
v 0.3125 2.8461 -0.7016
v 0.25 2.8185 -0.6455
v 0.25 2.8461 -0.7016
v 0.25 3.0205 -0.8913
v 0.3125 3.0205 -0.8913
v 0.25 2.9656 -0.9212
v 0.3125 2.9656 -0.9212
v 0.25 3.1497 -0.7503
v 0.25 3.3288 -0.9355
v 0.25 2.8249 -0.9378
v 0.25 2.8958 -1.1855
v 0.375 3.1497 -0.7503
v 0.375 3.3288 -0.9355
v 0.375 2.8249 -0.9378
v 0.375 2.8958 -1.1855
v 0.25 1.7293 0.4958
v 0.375 1.7293 0.4958
v 0.25 1.6139 0.5437
v 0.375 1.6139 0.5437
v 0.25 1.566 0.6591
v 0.375 1.566 0.6591
v 0.25 1.6139 0.7746
v 0.375 1.6139 0.7746
v 0.25 1.7293 0.8225
v 0.375 1.7293 0.8225
v 0.25 1.8448 0.7746
v 0.375 1.8448 0.7746
v 0.25 1.8927 0.6591
v 0.375 1.8927 0.6591
v 0.25 1.8448 0.5437
v 0.375 1.8448 0.5437
v 0.25 3.1473 -0.1141
v -0.4375 3.0223 -0.0921
v -0.375 4.6473 -0.25
v 0.375 4.6473 0.25
v -0.375 4.6473 0.25
v 0.25 2.9225 -0.5035
v 0.25 3.0692 -0.3286
v -0.375 3.9842 -1.5718
v 0.375 3.9842 -1.5718
v 0.375 4.3056 -1.1887
v -0.375 4.3056 -1.1887
v -0.375 2.5 -0.5303
v 0.25 2.7248 -0.6176
v -0.375 2.6267 -2.1581
v 0.375 2.6267 -2.1581
v 0.375 3.1191 -2.0712
v -0.375 3.1191 -2.0712
v 0.25 2.0775 -0.5035
v 0.25 2.2752 -0.6176
v -0.375 1.2099 -1.7346
v 0.375 1.2099 -1.7346
v 0.375 1.6429 -1.9846
v -0.375 1.6429 -1.9846
v -0.375 1.9777 -0.0921
v -0.375 0.3967 -0.4995
v 0.375 0.3967 -0.4995
v 0.375 0.5677 -0.9693
v -0.375 0.5677 -0.9693
v 0.25 1.9308 0.3286
v -0.375 2.0407 0.2652
v 0.25 1.8527 0.1141
v -0.375 0.5677 0.9693
v 0.375 0.5677 0.9693
v 0.375 0.3967 0.4995
v -0.375 0.3967 0.4995
v 0.25 2.2752 0.6176
v -0.375 2.3186 0.4984
v 0.25 2.0775 0.5035
v -0.375 2.1591 0.4063
v -0.375 1.6429 1.9846
v 0.375 1.6429 1.9846
v 0.375 1.2099 1.7346
v -0.375 1.2099 1.7346
v 0.25 2.7248 0.6176
v -0.375 2.6814 0.4984
v 0.25 2.5 0.6573
v -0.375 2.5 0.5303
v -0.375 3.1191 2.0712
v 0.375 3.1191 2.0712
v 0.375 2.6267 2.1581
v -0.375 2.6267 2.1581
v -0.375 2.9593 0.2652
v -0.375 4.3056 1.1887
v 0.375 4.3056 1.1887
v 0.375 3.9842 1.5718
v -0.375 3.9842 1.5718
v 0.375 4.6473 -0.25
v 0.25 2.5 -0.6573
v 0.25 3.1473 0.1141
v -0.375 3.0223 0.0921
v 0.25 3.0692 0.3286
v 0.25 2.9225 0.5035
v -0.375 2.8409 0.4063
v -0.375 1.9777 0.0921
v 0.25 1.8527 -0.1141
v 0.25 1.9308 -0.3286
v -0.375 2.0407 -0.2652
v -0.375 2.1591 -0.4063
v -0.375 2.3186 -0.4984
v 0.375 3.6568 -1.3786
v 0.375 4.0585 -0.8998
v 0.375 1.3432 -1.3786
v 0.375 1.8845 -1.6911
v 0.375 0.9415 0.8998
v 0.375 0.7277 0.3125
v 0.375 1.8845 1.6911
v 0.375 1.3432 1.3786
v 0.375 3.1155 1.6911
v 0.375 2.5 1.7996
v 0.375 4.2723 0.3125
v 0.375 4.0585 0.8998
v 0.375 3.6568 1.3786
v 0.375 0.7277 -0.3125
v 0.375 0.9415 -0.8998
v 0.375 4.2723 -0.3125
v 0.375 2.5 -1.7996
v 0.375 3.1155 -1.6911
v 0.375 3.412 -1.0869
v 0.375 3.7287 -0.7094
v 0.375 1.588 -1.0869
v 0.375 2.0147 -1.3333
v 0.375 1.2713 0.7094
v 0.375 1.1027 0.2464
v 0.375 2.0147 1.3333
v 0.375 1.588 1.0869
v 0.375 2.9853 1.3333
v 0.375 2.5 1.4188
v 0.375 3.8973 0.2464
v 0.375 3.7287 0.7094
v 0.375 3.412 1.0869
v 0.375 1.1027 -0.2464
v 0.375 1.2713 -0.7094
v 0.375 3.8973 -0.2464
v 0.375 2.5 -1.4188
v 0.375 2.9853 -1.3333
v 0.25 3.3304 -0.9897
v 0.25 3.6188 -0.646
v 0.25 1.6696 -0.9897
v 0.25 2.0581 -1.214
v 0.25 1.3812 0.646
v 0.25 1.2277 0.2243
v 0.25 2.0581 1.214
v 0.25 1.6696 0.9897
v 0.25 2.9419 1.214
v 0.25 2.5 1.2919
v 0.25 3.7723 0.2243
v 0.25 3.6188 0.646
v 0.25 3.3304 0.9897
v 0.25 1.2277 -0.2243
v 0.25 1.3812 -0.646
v 0.25 3.7723 -0.2243
v 0.25 2.5 -1.2919
v 0.25 2.9419 -1.214
v 0.3125 2.7593 -0.309
v 0.3125 2.8494 -0.2017
v 0.3125 2.2407 -0.309
v 0.3125 2.362 -0.3791
v 0.3125 2.1506 0.2017
v 0.3125 2.1027 0.0701
v 0.3125 2.362 0.3791
v 0.3125 2.2407 0.309
v 0.3125 2.638 0.3791
v 0.3125 2.5 0.4034
v 0.3125 2.8973 0.0701
v 0.3125 2.8494 0.2017
v 0.3125 2.7593 0.309
v 0.3125 2.1027 -0.0701
v 0.3125 2.1506 -0.2017
v 0.3125 2.8973 -0.0701
v 0.3125 2.5 -0.4034
v 0.3125 2.638 -0.3791
v -0.375 3.1155 -1.6911
v -0.375 2.5 -1.7996
v -0.375 1.3432 1.3786
v -0.375 1.8845 1.6911
v -0.375 2.5 1.7996
v -0.375 3.1155 1.6911
v -0.375 4.0585 -0.8998
v -0.375 3.6568 -1.3786
v -0.375 1.3432 -1.3786
v -0.375 0.9415 -0.8998
v -0.375 1.8845 -1.6911
v -0.375 4.2723 0.3125
v -0.375 4.2723 -0.3125
v -0.375 0.7277 -0.3125
v -0.375 0.7277 0.3125
v -0.375 0.9415 0.8998
v -0.375 3.6568 1.3786
v -0.375 4.0585 0.8998
v -0.375 2.9853 -1.3333
v -0.375 2.5 -1.4188
v -0.375 1.588 1.0869
v -0.375 2.0147 1.3333
v -0.375 2.5 1.4188
v -0.375 2.9853 1.3333
v -0.375 3.7287 -0.7094
v -0.375 3.412 -1.0869
v -0.375 1.588 -1.0869
v -0.375 1.2713 -0.7094
v -0.375 2.0147 -1.3333
v -0.375 3.8973 0.2464
v -0.375 3.8973 -0.2464
v -0.375 1.1027 -0.2464
v -0.375 1.1027 0.2464
v -0.375 1.2713 0.7094
v -0.375 3.412 1.0869
v -0.375 3.7287 0.7094
v -0.25 2.5 -0.9111
v -0.25 1.9143 0.698
v -0.25 2.1884 0.8562
v -0.25 2.5 0.9111
v -0.25 2.8116 0.8562
v -0.25 1.9143 -0.698
v -0.25 1.7109 -0.4556
v -0.25 2.1884 -0.8562
v -0.25 3.3973 0.1582
v -0.25 3.3973 -0.1582
v -0.25 1.6027 -0.1582
v -0.25 1.6027 0.1582
v -0.25 1.7109 0.4556
v -0.25 3.0857 0.698
v -0.25 3.2891 0.4556
v -0.3125 2.5 -0.7842
v -0.3125 1.9959 0.6007
v -0.3125 2.2318 0.7369
v -0.3125 2.5 0.7842
v -0.3125 2.7682 0.7369
v -0.3125 1.9959 -0.6007
v -0.3125 1.8209 -0.3921
v -0.3125 2.2318 -0.7369
v -0.3125 3.2723 0.1362
v -0.3125 3.2723 -0.1362
v -0.3125 1.7277 -0.1362
v -0.3125 1.7277 0.1362
v -0.3125 1.8209 0.3921
v -0.3125 3.0041 0.6007
v -0.3125 3.1791 0.3921
v -0.4375 2.638 -0.3791
v -0.4375 2.5 -0.4034
v -0.4375 2.2407 0.309
v -0.4375 2.362 0.3791
v -0.4375 2.5 0.4034
v -0.4375 2.638 0.3791
v -0.4375 2.8494 -0.2017
v -0.4375 2.7593 -0.309
v -0.4375 2.2407 -0.309
v -0.4375 2.1506 -0.2017
v -0.4375 2.362 -0.3791
v -0.4375 2.8973 0.0701
v -0.4375 2.8973 -0.0701
v -0.4375 2.1027 -0.0701
v -0.4375 2.1027 0.0701
v -0.4375 2.1506 0.2017
v -0.4375 2.7593 0.309
v -0.4375 2.8494 0.2017
v -0.4375 2.6814 -0.4984
v -0.4375 2.1591 0.4063
v -0.4375 2.3186 0.4984
v -0.4375 2.5 0.5303
v -0.4375 2.6814 0.4984
v -0.4375 2.9593 -0.2652
v -0.4375 2.1591 -0.4063
v -0.4375 2.0407 -0.2652
v -0.4375 2.3186 -0.4984
v -0.4375 3.0223 0.0921
v -0.4375 1.9777 -0.0921
v -0.4375 1.9777 0.0921
v -0.4375 2.0407 0.2652
v -0.4375 2.8409 0.4063
v -0.4375 2.9593 0.2652
v -0.5 2.638 -0.3791
v -0.5 2.5 -0.4034
v -0.5 2.2407 0.309
v -0.5 2.362 0.3791
v -0.5 2.5 0.4034
v -0.5 2.638 0.3791
v -0.5 2.8494 -0.2017
v -0.5 2.7593 -0.309
v -0.5 2.2407 -0.309
v -0.5 2.1506 -0.2017
v -0.5 2.362 -0.3791
v -0.5 2.8973 0.0701
v -0.5 2.8973 -0.0701
v -0.5 2.1027 -0.0701
v -0.5 2.1027 0.0701
v -0.5 2.1506 0.2017
v -0.5 2.7593 0.309
v -0.5 2.8494 0.2017
v -0.4375 2.5 -0.5303
v -0.4375 2.8409 -0.4063
v -0.375 3.0223 -0.0921
v 0.375 2.9225 -0.5035
v 0.375 3.0692 -0.3286
v 0.375 2.0775 -0.5035
v 0.375 2.2752 -0.6176
v 0.375 1.9308 0.3286
v 0.375 1.8527 0.1141
v 0.375 2.2752 0.6176
v 0.375 2.0775 0.5035
v 0.375 2.7248 0.6176
v 0.375 2.5 0.6573
v 0.375 3.1473 0.1141
v 0.375 3.0692 0.3286
v 0.375 2.9225 0.5035
v 0.375 1.8527 -0.1141
v 0.375 1.9308 -0.3286
v 0.375 3.1473 -0.1141
v 0.375 2.5 -0.6573
v 0.375 2.7248 -0.6176
v 0.375 2.8001 -0.3576
v 0.375 2.9043 -0.2334
v 0.375 2.1999 -0.3576
v 0.375 2.3403 -0.4387
v 0.375 2.0957 0.2334
v 0.375 2.0402 0.0811
v 0.375 2.3403 0.4387
v 0.375 2.1999 0.3576
v 0.375 2.6597 0.4387
v 0.375 2.5 0.4669
v 0.375 2.9598 0.0811
v 0.375 2.9043 0.2334
v 0.375 2.8001 0.3576
v 0.375 2.0402 -0.0811
v 0.375 2.0957 -0.2334
v 0.375 2.9598 -0.0811
v 0.375 2.5 -0.4669
v 0.375 2.6597 -0.4387
vt 0.5301 0.1895
vt 0.5215 0.2474
vt 0.5215 0.1789
vt 0.5673 0.1895
vt 0.5673 0.1842
vt 0.5702 0.1789
vt 0.6734 0.3684
vt 0.6905 0.3053
vt 0.6905 0.3684
vt 0.5387 0.2474
vt 0.5473 0.2526
vt 0.5387 0.2526
vt 0.6361 0.1421
vt 0.639 0.1474
vt 0.6361 0.1474
vt 0.5587 0.2474
vt 0.5501 0.2526
vt 0.5501 0.2474
vt 0.5673 0.2474
vt 0.5616 0.2526
vt 0.1003 0.0053
vt 0.106 0.0105
vt 0.1003 0.0105
vt 0.5759 0.2526
vt 0.5673 0.2526
vt 0.5587 0.2632
vt 0.5501 0.2632
vt 0.7192 0.2474
vt 0.7106 0.1895
vt 0.7192 0.1789
vt 0.596 0.1895
vt 0.596 0.1842
vt 0.5989 0.1789
vt 0.6934 0.2474
vt 0.702 0.2526
vt 0.6934 0.2526
vt 0.6504 0.1211
vt 0.6533 0.1421
vt 0.6504 0.1421
vt 0.616 0.2526
vt 0.6075 0.2632
vt 0.6075 0.2526
vt 0.6246 0.1895
vt 0.616 0.1842
vt 0.6246 0.1842
vt 0.596 0.2474
vt 0.5903 0.2526
vt 0.5874 0.2474
vt 0.384 0.1579
vt 0.3954 0.1684
vt 0.384 0.1684
vt 0.2206 0.3053
vt 0.2034 0.3684
vt 0.2034 0.3053
vt 0.7507 0.2526
vt 0.7593 0.2632
vt 0.7507 0.2632
vt 0.6447 0.1895
vt 0.6361 0.2474
vt 0.6361 0.1789
vt 0.6275 0.1789
vt 0.6819 0.1895
vt 0.6734 0.1842
vt 0.6819 0.1842
vt 0.3295 0.0053
vt 0.3352 0.0105
vt 0.3295 0.0105
vt 0.7507 0.2474
vt 0.7593 0.2526
vt 0.5301 0.1789
vt 0.5387 0.1842
vt 0.5301 0.1842
vt 0.6246 0.2474
vt 0.6189 0.2526
vt 0.616 0.2474
vt 0.6075 0.1632
vt 0.6017 0.1737
vt 0.6017 0.1632
vt 0.6075 0.2474
vt 0.7593 0.1789
vt 0.7679 0.1842
vt 0.7593 0.1842
vt 0.5759 0.2474
vt 0.5759 0.1789
vt 0.6533 0.1895
vt 0.6533 0.1842
vt 0.6562 0.1789
vt 0.7393 0.2474
vt 0.7307 0.1895
vt 0.7393 0.1895
vt 0.5788 0.2526
vt 0.5788 0.2474
vt 0.6819 0.2474
vt 0.6905 0.2526
vt 0.6819 0.2526
vt 0.6533 0.2526
vt 0.6619 0.2632
vt 0.6533 0.2632
vt 0.6533 0.2474
vt 0.6476 0.2526
vt 0.6447 0.2474
vt 0.6339 0.1631
vt 0.6387 0.1578
vt 0.6387 0.1631
vt 0.6132 0.1632
vt 0.6075 0.1737
vt 0.6504 0.2526
vt 0.6476 0.2632
vt 0.5587 0.1895
vt 0.5501 0.1789
vt 0.6848 0.1789
vt 0.0315 0.3684
vt 0.0029 0.3053
vt 0.0315 0.3053
vt 0.7106 0.2474
vt 0.7192 0.2526
vt 0.7106 0.2526
vt 0.7679 0.2474
vt 0.7593 0.1895
vt 0.7679 0.1895
vt 0.5645 0.2526
vt 0.5616 0.2632
vt 0.6762 0.2526
vt 0.6734 0.2474
vt 0.0401 0.1579
vt 0.0516 0.1684
vt 0.0401 0.1684
vt 0.6844 0.1632
vt 0.6738 0.1579
vt 0.6844 0.1579
vt 0.6218 0.2632
vt 0.6218 0.2526
vt 0.6905 0.2474
vt 0.6905 0.1789
vt 0.7106 0.1842
vt 0.7135 0.1789
vt 0.3066 0.3053
vt 0.2894 0.3684
vt 0.2894 0.3053
vt 0.616 0.1895
vt 0.702 0.2632
vt 0.6934 0.2632
vt 0.7106 0.1789
vt 0.702 0.1842
vt 0.702 0.1789
vt 0.7049 0.2526
vt 0.702 0.2474
vt 0.3868 0.0053
vt 0.3926 0.0105
vt 0.3868 0.0105
vt 0.6447 0.1842
vt 0.7479 0.2474
vt 0.7479 0.1789
vt 0.7393 0.1842
vt 0.7421 0.1789
vt 0.7765 0.3684
vt 0.7593 0.3053
vt 0.7765 0.3053
vt 0.5788 0.2632
vt 0.5874 0.2684
vt 0.5788 0.2684
vt 0.7077 0.2526
vt 0.7049 0.2632
vt 0.7765 0.2526
vt 0.7679 0.2526
vt 0.7335 0.2526
vt 0.7307 0.2474
vt 0.6476 0.1526
vt 0.6504 0.1474
vt 0.6504 0.1526
vt 0.3553 0.1579
vt 0.3668 0.1684
vt 0.3553 0.1684
vt 0.5874 0.1789
vt 0.5874 0.1842
vt 0.6075 0.1789
vt 0.7708 0.1789
vt 0.7479 0.2526
vt 0.7393 0.2526
vt 0.7479 0.2632
vt 0.7393 0.2632
vt 0.639 0.1421
vt 0.6361 0.1316
vt 0.639 0.1316
vt 0.596 0.2526
vt 0.6046 0.2632
vt 0.596 0.2632
vt 0.7622 0.2526
vt 0.7593 0.2474
vt 0.5215 0.2632
vt 0.5301 0.2684
vt 0.5215 0.2684
vt 0.5874 0.1895
vt 0.7364 0.2526
vt 0.7335 0.2632
vt 0.5473 0.2474
vt 0.5387 0.1895
vt 0.5473 0.1789
vt 0.5415 0.1789
vt 0.6447 0.1789
vt 0.6246 0.1789
vt 0.616 0.1789
vt 0.6619 0.2526
vt 0.533 0.2526
vt 0.5301 0.2474
vt 0.616 0.2684
vt 0.6075 0.2684
vt 0.5645 0.3053
vt 0.5473 0.3684
vt 0.5473 0.3053
vt 0.6905 0.2632
vt 0.6819 0.2632
vt 0.6304 0.1632
vt 0.6246 0.1737
vt 0.6246 0.1632
vt 0.3009 0.0053
vt 0.3066 0.0105
vt 0.3009 0.0105
vt 0.596 0.1737
vt 0.596 0.1632
vt 0.7593 0.2684
vt 0.7507 0.2684
vt 0.6447 0.2526
vt 0.6361 0.2632
vt 0.6361 0.2526
vt 0.6648 0.2632
vt 0.6734 0.2684
vt 0.6648 0.2684
vt 0.7307 0.1684
vt 0.7192 0.1737
vt 0.7192 0.1684
vt 0.1261 0.1579
vt 0.1375 0.1684
vt 0.1261 0.1684
vt 0.2693 0.1579
vt 0.2808 0.1684
vt 0.2693 0.1684
vt 0.212 0.1579
vt 0.2235 0.1684
vt 0.212 0.1684
vt 0.3266 0.1579
vt 0.3381 0.1684
vt 0.3266 0.1684
vt 0.7188 0.1632
vt 0.7082 0.1579
vt 0.7188 0.1579
vt 0.7077 0.1737
vt 0.7077 0.1684
vt 0.6963 0.1684
vt 0.6848 0.1737
vt 0.6848 0.1684
vt 0.6504 0.1684
vt 0.639 0.1737
vt 0.639 0.1684
vt 0.5587 0.2684
vt 0.5501 0.2684
vt 0.6733 0.1737
vt 0.6733 0.1684
vt 0.1562 0.0211
vt 0.1648 0.0263
vt 0.1562 0.0263
vt 0.6734 0.2526
vt 0.6648 0.2526
vt 0.6447 0.2684
vt 0.6361 0.2684
vt 0.6958 0.1632
vt 0.6853 0.1632
vt 0.6738 0.1632
vt 0.6614 0.1632
vt 0.6509 0.1632
vt 0.65 0.1632
vt 0.6394 0.1632
vt 0.4499 0.1421
vt 0.4413 0.1579
vt 0.4441 0.1421
vt 0.6623 0.1632
vt 0.6619 0.1684
vt 0.7073 0.1632
vt 0.6967 0.1632
vt 0.6017 0.1053
vt 0.5903 0.1421
vt 0.5903 0.1105
vt 0.7311 0.1632
vt 0.7421 0.1684
vt 0.4155 0.3684
vt 0.4327 0.3053
vt 0.4327 0.3684
vt 0.7474 0.1684
vt 0.7421 0.1737
vt 0.3926 0.1421
vt 0.3868 0.1368
vt 0.3926 0.1368
vt 0.6476 0.1421
vt 0.2149 0.0053
vt 0.2206 0.0105
vt 0.2149 0.0105
vt 0.3926 0.3684
vt 0.4155 0.3053
vt 0.7221 0.2632
vt 0.7307 0.2684
vt 0.7221 0.2684
vt 0.5473 0.2632
vt 0.5387 0.2632
vt 0.6075 0.1474
vt 0.6075 0.1053
vt 0.7424 0.1631
vt 0.6418 0.1421
vt 0.6332 0.1316
vt 0.6332 0.1421
vt 0.5845 0.1105
vt 0.7765 0.2632
vt 0.7679 0.2632
vt 0.6447 0.1211
vt 0.6447 0.1421
vt 0.7221 0.2474
vt 0.7221 0.1789
vt 0.5931 0.2632
vt 0.5931 0.2526
vt 0.5845 0.1632
vt 0.5903 0.1632
vt 0.5903 0.0895
vt 0.5845 0.0895
vt 0.5676 0.1476
vt 0.5732 0.1434
vt 0.5732 0.1725
vt 0.6476 0.1474
vt 0.1848 0.0211
vt 0.1934 0.0263
vt 0.1848 0.0263
vt 0.6394 0.1579
vt 0.65 0.1579
vt 0.6476 0.4
vt 0.6762 0.4
vt 0.3897 0.2737
vt 0.4183 0.2737
vt 0.6332 0.3053
vt 0.6046 0.3684
vt 0.6046 0.3053
vt 0.3066 0.3684
vt 0.3295 0.3053
vt 0.3295 0.3684
vt 0.1748 0.3684
vt 0.3324 0.4
vt 0.6762 0.2737
vt 0.6504 0.3053
vt 0.6476 0.2737
vt 0.5874 0.3053
vt 0.6853 0.1579
vt 0.6958 0.1579
vt 0.2464 0.2737
vt 0.2178 0.2737
vt 0.5043 0.4
vt 0.4785 0.3684
vt 0.5014 0.3684
vt 0.6476 0.1211
vt 0.0487 0.3684
vt 0.3897 0.4
vt 0.4183 0.4
vt 0.1605 0.4
vt 0.1347 0.3684
vt 0.1576 0.3684
vt 0.6046 0.2526
vt 0.2436 0.3684
vt 0.2607 0.3053
vt 0.2607 0.3684
vt 0.5301 0.2526
vt 0.5215 0.2526
vt 0.0745 0.2737
vt 0.0487 0.3053
vt 0.0458 0.2737
vt 0.0745 0.4
vt 0.0716 0.3684
vt 0.5903 0.1737
vt 0.6509 0.1579
vt 0.6614 0.1579
vt 0.1576 0.3053
vt 0.1748 0.3053
vt 0.5616 0.2737
vt 0.7335 0.2737
vt 0.7364 0.3053
vt 0.7364 0.3684
vt 0.7593 0.3684
vt 0.6734 0.3053
vt 0.0415 0.0211
vt 0.0501 0.0263
vt 0.0415 0.0263
vt 0.2808 0.0474
vt 0.2708 0.0263
vt 0.2794 0.0263
vt 0.5014 0.3053
vt 0.4756 0.2737
vt 0.5043 0.2737
vt 0.5874 0.2526
vt 0.6619 0.1737
vt 0.5616 0.4
vt 0.5874 0.3684
vt 0.5903 0.4
vt 0.3324 0.2737
vt 0.3037 0.2737
vt 0.1318 0.2737
vt 0.1605 0.2737
vt 0.2464 0.4
vt 0.2206 0.3684
vt 0.7192 0.3053
vt 0.2436 0.3053
vt 0.1547 0.1579
vt 0.1662 0.1684
vt 0.1547 0.1684
vt 0.5186 0.3053
vt 0.0888 0.3053
vt 0.0888 0.3684
vt 0.4785 0.3053
vt 0.4613 0.3684
vt 0.4613 0.3053
vt 0.7393 0.1789
vt 0.7307 0.1842
vt 0.7307 0.1789
vt 0.5645 0.3684
vt 0.192 0.1421
vt 0.1834 0.1579
vt 0.1862 0.1421
vt 0.3467 0.1316
vt 0.3209 0.1
vt 0.3438 0.1
vt 0.2923 0.1
vt 0.3181 0.1316
vt 0.2894 0.1316
vt 0.1418 0.2211
vt 0.2579 0.2368
vt 0.2321 0.2684
vt 0.235 0.2368
vt 0.3095 0.1579
vt 0.3009 0.1421
vt 0.3066 0.1421
vt 0.0989 0.0211
vt 0.404 0.2684
vt 0.3782 0.2368
vt 0.4011 0.2368
vt 0.2994 0.0211
vt 0.2292 0.1
vt 0.2034 0.1316
vt 0.2063 0.1
vt 0.2865 0.1
vt 0.2607 0.1316
vt 0.2636 0.1
vt 0.2851 0.2211
vt 0.2894 0.2684
vt 0.2636 0.2368
vt 0.2865 0.2368
vt 0.394 0.0211
vt 0.0201 0.0105
vt 0.0129 0.0211
vt 0.0143 0.0105
vt 0.5014 0.1421
vt 0.51 0.1579
vt 0.4986 0.1579
vt 0.4284 0.2211
vt 0.4126 0.1684
vt 0.4241 0.1684
vt 0.3352 0.1421
vt 0.3295 0.1421
vt 0.4871 0.2368
vt 0.4613 0.2684
vt 0.4642 0.2368
vt 0.1175 0.2684
vt 0.0917 0.2368
vt 0.1146 0.2368
vt 0.5299 0.1194
vt 0.5591 0.1504
vt 0.54 0.1707
vt 0.2292 0.2368
vt 0.2034 0.2684
vt 0.2063 0.2368
vt 0.0888 0.2684
vt 0.063 0.2368
vt 0.086 0.2368
vt 0.1948 0.1684
vt 0.1791 0.2211
vt 0.1834 0.1684
vt 0.0602 0.2684
vt 0.0344 0.2368
vt 0.0573 0.2368
vt 0.0315 0.2684
vt 0.0057 0.2368
vt 0.0287 0.2368
vt 0.3668 0.1579
vt 0.3582 0.1421
vt 0.3639 0.1421
vt 0.314 0.222
vt 0.298 0.1684
vt 0.3095 0.1684
vt 0.4542 0.0263
vt 0.447 0.0158
vt 0.4527 0.0158
vt 0.1748 0.1316
vt 0.149 0.1
vt 0.1719 0.1
vt 0.2521 0.1684
vt 0.2364 0.2211
vt 0.2407 0.1684
vt 0.0845 0.2211
vt 0.0688 0.1684
vt 0.0802 0.1684
vt 0.1089 0.1684
vt 0.0931 0.2211
vt 0.0974 0.1684
vt 0.4011 0.1
vt 0.3754 0.1316
vt 0.3782 0.1
vt 0.51 0.1684
vt 0.4943 0.2211
vt 0.4986 0.1684
vt 0.1748 0.2684
vt 0.149 0.2368
vt 0.1719 0.2368
vt 0.0229 0.1684
vt 0.0072 0.2211
vt 0.0115 0.1684
vt 0.1289 0.1421
vt 0.1375 0.1579
vt 0.3152 0.2368
vt 0.2923 0.2368
vt 0.1633 0.0105
vt 0.1576 0.0105
vt 0.4857 0.2211
vt 0.4699 0.1684
vt 0.4814 0.1684
vt 0.3868 0.1421
vt 0.5186 0.1
vt 0.4928 0.1316
vt 0.4957 0.1
vt 0.4613 0.1
vt 0.4355 0.1316
vt 0.4384 0.1
vt 0.2779 0.1421
vt 0.2722 0.1421
vt 0.457 0.2211
vt 0.4413 0.1684
vt 0.4527 0.1684
vt 0.1146 0.1
vt 0.0888 0.1316
vt 0.0917 0.1
vt 0.3653 0.0211
vt 0.3582 0.0105
vt 0.3639 0.0105
vt 0.0358 0.2211
vt 0.0501 0.0211
vt 0.043 0.0105
vt 0.0487 0.0105
vt 0.4756 0.0158
vt 0.4828 0.0263
vt 0.4742 0.0263
vt 0.0487 0.1421
vt 0.043 0.1421
vt 0.3997 0.2211
vt 0.1347 0.0105
vt 0.1275 0.0211
vt 0.1289 0.0105
vt 0.4183 0.0158
vt 0.4255 0.0263
vt 0.4169 0.0263
vt 0.0573 0.1
vt 0.0315 0.1316
vt 0.0344 0.1
vt 0.1203 0.1
vt 0.1461 0.1316
vt 0.1175 0.1316
vt 0.3725 0.2368
vt 0.3467 0.2684
vt 0.3438 0.2368
vt 0.1777 0.2368
vt 0.2006 0.2368
vt 0.0287 0.1
vt 0.0029 0.1316
vt 0.0057 0.1
vt 0.4097 0.1
vt 0.4069 0.1316
vt 0.1862 0.0105
vt 0.1934 0.0211
vt 0.2135 0.0211
vt 0.0229 0.1579
vt 0.0143 0.1421
vt 0.0201 0.1421
vt 0.2493 0.0105
vt 0.2421 0.0211
vt 0.2436 0.0105
vt 0.51 0.0158
vt 0.5029 0.0263
vt 0.5043 0.0158
vt 0.1705 0.2211
vt 0.0716 0.1421
vt 0.0802 0.1579
vt 0.0688 0.1579
vt 0.2794 0.0211
vt 0.2722 0.0105
vt 0.2779 0.0105
vt 0.1461 0.2684
vt 0.1203 0.2368
vt 0.1433 0.2368
vt 0.7197 0.1632
vt 0.3424 0.2211
vt 0.2077 0.2211
vt 0.4785 0.1421
vt 0.4699 0.1579
vt 0.4728 0.1421
vt 0.1662 0.1579
vt 0.1576 0.1421
vt 0.1633 0.1421
vt 0.2206 0.1421
vt 0.2149 0.1421
vt 0.49 0.1
vt 0.4642 0.1316
vt 0.467 0.1
vt 0.3367 0.0211
vt 0.063 0.1
vt 0.0602 0.1316
vt 0.3725 0.1
vt 0.3496 0.1
vt 0.0716 0.0105
vt 0.0788 0.0211
vt 0.0702 0.0211
vt 0.3181 0.2684
vt 0.3209 0.2368
vt 0.3711 0.2211
vt 0.351 0.2211
vt 0.4355 0.2368
vt 0.4585 0.2368
vt 0.5186 0.2684
vt 0.4928 0.2368
vt 0.5158 0.2368
vt 0.235 0.1
vt 0.2321 0.1316
vt 0.106 0.1421
vt 0.0974 0.1579
vt 0.1003 0.1421
vt 0.4212 0.1421
vt 0.4126 0.1579
vt 0.4155 0.1421
vt 0.1777 0.1
vt 0.2436 0.1421
vt 0.2521 0.1579
vt 0.2407 0.1579
vt 0.4327 0.2684
vt 0.4069 0.2368
vt 0.4298 0.2368
vt 0.5559 0.1789
vt 0.5587 0.1842
vt 0.702 0.1895
vt 0.6934 0.1789
vt 0.7765 0.2474
vt 0.4241 0.0158
vt 0.0559 0.2211
vt 0.2407 0.0474
vt 0.2521 0.0474
vt 0.255 0.0579
vt 0.1433 0.1
vt 0.3754 0.2684
vt 0.5788 0.1789
vt 0.5845 0.1789
vt 0.6046 0.1789
vt 0.7507 0.1789
vt 0.3954 0.1579
vt 0.3224 0.2211
vt 0.3066 0.1368
vt 0.6619 0.2474
vt 0.1834 0.0474
vt 0.1948 0.0474
vt 0.1977 0.0579
vt 0.2837 0.0579
vt 0.6132 0.1789
vt 0.616 0.2632
vt 0.6332 0.1789
vt 0.6791 0.2632
vt 0.6762 0.2632
vt 0.5072 0.1368
vt 0.5072 0.1421
vt 0.0115 0.1579
vt 0.4155 0.1368
vt 0.6418 0.1789
vt 0.6533 0.1211
vt 0.6619 0.1789
vt 0.6734 0.1895
vt 0.6648 0.2474
vt 0.6648 0.1789
vt 0.106 0.0053
vt 0.5587 0.1789
vt 0.5673 0.1789
vt 0.4814 0.0158
vt 0.3797 0.2211
vt 0.6504 0.1737
vt 0.0516 0.1579
vt 0.6705 0.1789
vt 0.5587 0.2526
vt 0.7765 0.1789
vt 0.0774 0.1421
vt 0.4241 0.1579
vt 0.6791 0.2526
vt 0.2708 0.0211
vt 0.1633 0.1368
vt 0.3281 0.0211
vt 0.6991 0.1789
vt 0.6046 0.2474
vt 0.6963 0.1737
vt 0.6332 0.2474
vt 0.6332 0.2526
vt 0.1504 0.2211
vt 0.6418 0.1474
vt 0.2493 0.1421
vt 0.4327 0.1
vt 0.7278 0.1789
vt 0.3352 0.0053
vt 0.5186 0.3684
vt 0.7622 0.4
vt 0.2579 0.1
vt 0.7472 0.1578
vt 0.7472 0.1631
vt 0.1289 0.0053
vt 0.1347 0.0053
vt 0.7564 0.1789
vt 0.1089 0.1579
vt 0.2235 0.1579
vt 0.0774 0.0105
vt 0.49 0.2684
vt 0.765 0.2526
vt 0.2722 0.1368
vt 0.5272 0.1789
vt 0.1361 0.0211
vt 0.5358 0.2526
vt 0.2564 0.2211
vt 0.086 0.1
vt 0.6337 0.1737
vt 0.6337 0.1684
vt 0.3467 0.3684
vt 0.0487 0.1368
vt 0.1862 0.1368
vt 0.192 0.1368
vt 0.639 0.1526
vt 0.6361 0.1526
vt 0.5845 0.1737
vt 0.0215 0.0211
vt 0.0215 0.0263
vt 0.2378 0.0579
vt 0.3653 0.0263
vt 0.3668 0.0474
vt 0.3553 0.0474
vt 0.7307 0.2526
vt 0.7221 0.2526
vt 0.4183 0.0105
vt 0.4241 0.0105
vt 0.1691 0.0579
vt 0.1662 0.0474
vt 0.1547 0.0474
vt 0.0229 0.0474
vt 0.0258 0.0579
vt 0.0086 0.0579
vt 0.3367 0.0263
vt 0.4441 0.1368
vt 0.4499 0.1368
vt 0.5903 0.2632
vt 0.7679 0.1789
vt 0.5387 0.1789
vt 0.437 0.2211
vt 0.298 0.1579
vt 0.2808 0.1579
vt 0.3567 0.0211
vt 0.2994 0.0263
vt 0.308 0.0263
vt 0.3095 0.0474
vt 0.0688 0.0474
vt 0.0802 0.0474
vt 0.0831 0.0579
vt 0.6967 0.1579
vt 0.4527 0.1579
vt 0.1991 0.2211
vt 0.4814 0.1579
vt 0.265 0.2211
vt 0.1132 0.2211
vt 0.7307 0.1737
vt 0.5788 0.1476
vt 0.5812 0.158
vt 0.5788 0.1683
vt 0.5676 0.1683
vt 0.5653 0.158
vt 0.4756 0.0105
vt 0.4814 0.0105
vt 0.0516 0.0474
vt 0.0544 0.0579
vt 0.0372 0.0579
vt 0.0774 0.1368
vt 0.6246 0.2526
vt 0.6332 0.2632
vt 0.3582 0.0053
vt 0.3639 0.0053
vt 0.1347 0.3053
vt 0.1175 0.3684
vt 0.2206 0.1368
vt 0.0716 0.0053
vt 0.0774 0.0053
vt 0.6734 0.1789
vt 0.6819 0.1789
vt 0.5874 0.2632
vt 0.7307 0.2632
vt 0.3639 0.1368
vt 0.7192 0.3684
vt 0.5043 0.0105
vt 0.51 0.0105
vt 0.1075 0.0211
vt 0.1075 0.0263
vt 0.6189 0.1737
vt 0.2178 0.4
vt 0.7417 0.1632
vt 0.7311 0.1579
vt 0.043 0.0053
vt 0.0487 0.0053
vt 0.7302 0.1632
vt 0.7197 0.1579
vt 0.341 0.0579
vt 0.0143 0.1368
vt 0.5759 0.2632
vt 0.3926 0.3053
vt 0.3754 0.3684
vt 0.6504 0.3684
vt 0.2693 0.0474
vt 0.3497 0.2369
vt 0.308 0.0211
vt 0.2937 0.2211
vt 0.1361 0.0263
vt 0.1948 0.1579
vt 0.2278 0.2211
vt 0.765 0.2632
vt 0.7622 0.2632
vt 0.6017 0.1474
vt 0.6734 0.2632
vt 0.7364 0.2632
vt 0.1648 0.0211
vt 0.7082 0.1632
vt 0.6504 0.2632
vt 0.3381 0.1579
vt 0.3926 0.0053
vt 0.6447 0.2632
vt 0.6304 0.1737
vt 0.5301 0.2632
vt 0.2206 0.0053
vt 0.3066 0.0053
vt 0.6533 0.1789
vt 0.6339 0.1578
vt 0.6189 0.2632
vt 0.6418 0.1316
vt 0.6729 0.1632
vt 0.6132 0.1737
vt 0.7474 0.1737
vt 0.596 0.1789
vt 0.0029 0.3684
vt 0.5299 0.1599
vt 0.5269 0.1504
vt 0.5258 0.1397
vt 0.5269 0.1289
vt 0.5344 0.1123
vt 0.54 0.1086
vt 0.546 0.1086
vt 0.5516 0.1123
vt 0.5562 0.1194
vt 0.5591 0.1289
vt 0.5602 0.1397
vt 0.5562 0.1599
vt 0.5516 0.167
vt 0.546 0.1707
vt 0.5344 0.167
vt 0.5645 0.2632
vt 0.7077 0.2632
vt 0.5845 0.1421
vt 0.6246 0.2632
vt 0.533 0.2632
vt 0.6332 0.3684
vt 0.7192 0.2632
vt 0.7106 0.2632
vt 0.5673 0.2632
vt 0.7302 0.1579
vt 0.7417 0.1579
vt 0.6189 0.1632
vt 0.3754 0.3053
vt 0.3467 0.3053
vt 0.1175 0.3053
vt 0.4083 0.2211
vt 0.0201 0.1368
vt 0.2493 0.1368
vt 0.2436 0.1368
vt 0.1347 0.1368
vt 0.1289 0.1368
vt 0.5143 0.2211
vt 0.5014 0.1368
vt 0.4656 0.2211
vt 0.3009 0.1368
vt 0.0645 0.2211
vt 0.0716 0.3053
vt 0.7073 0.1579
vt 0.7424 0.1578
vt 0.394 0.0263
vt 0.384 0.0474
vt 0.3854 0.0263
vt 0.0659 0.0579
vt 0.1232 0.0579
vt 0.3266 0.0474
vt 0.3281 0.0263
vt 0.298 0.0474
vt 0.1805 0.0579
vt 0.3696 0.0579
vt 0.3524 0.0579
vt 0.2264 0.0579
vt 0.2092 0.0579
vt 0.2951 0.0579
vt 0.3152 0.1
vt 0.1089 0.0474
vt 0.0989 0.0263
vt 0.2221 0.0263
vt 0.212 0.0474
vt 0.2135 0.0263
vt 0.0115 0.0474
vt 0.0129 0.0263
vt 0.1261 0.0474
vt 0.1404 0.0579
vt 0.1519 0.0579
vt 0.0401 0.0474
vt 0.7335 0.4
vt 0.2665 0.0579
vt 0.3123 0.0579
vt 0.3954 0.0474
vt 0.3811 0.0579
vt 0.0946 0.0579
vt 0.0974 0.0474
vt 0.3381 0.0474
vt 0.3238 0.0579
vt 0.3983 0.0579
vt 0.1117 0.0579
vt 0.5115 0.0263
vt 0.4456 0.0263
vt 0.2507 0.0263
vt 0.2421 0.0263
vt 0.3567 0.0263
vt 0.0702 0.0263
vt 0.1275 0.0263
vt 0.6623 0.1579
vt 0.6729 0.1579
vt 0.0788 0.0263
vt 0.1576 0.0053
vt 0.5244 0.0211
vt 0.5301 0.0737
vt 0.5244 0.1
vt 0.447 0.0105
vt 0.3854 0.0211
vt 0.702 0.2684
vt 0.6934 0.2684
vt 0.2722 0.0053
vt 0.1862 0.0053
vt 0.192 0.0105
vt 0.2436 0.0053
vt 0.5387 0.0737
vt 0.5358 0.0632
vt 0.5444 0.0211
vt 0.106 0.1368
vt 0.1003 0.1368
vt 0.4728 0.1368
vt 0.2149 0.1368
vt 0.3582 0.1368
vt 0.4212 0.1368
vt 0.0272 0.2211
vt 0.2779 0.1368
vt 0.043 0.1368
vt 0.0716 0.1368
vt 0.2235 0.0474
vt 0.1218 0.2211
vt 0.1576 0.1368
vt 0.3352 0.1368
vt 0.3295 0.1368
vt 0.5358 0.2632
vt 0.2006 0.1
vt 0.2507 0.0211
vt 0.2221 0.0211
vt 0.2493 0.0053
vt 0.2779 0.0053
vt 0.4785 0.1368
vt 0.1347 0.1421
vt 0.404 0.1316
vt 0.2607 0.2684
vt 0.0029 0.2684
vt 0.1633 0.0053
vt 0.1375 0.0474
vt 0.0143 0.0053
vt 0.0201 0.0053
vt 0.0458 0.4
vt 0.3037 0.4
vt 0.6447 0.1474
vt 0.5903 0.2737
vt 0.4756 0.4
vt 0.7622 0.2737
vt 0.1318 0.4
vt 0.4527 0.0105
vt 0.533 0.0632
vt 0.5272 0.1
vt 0.192 0.0053
vt 0.5444 0.1
vt 0.5415 0.1
vt 0.5215 0.1316
s 1
f 171/1 160/2 176/3
f 19/4 4/5 180/6
f 288/7 340/8 418/9
f 167/10 177/11 175/12
f 228/13 230/14 226/15
f 13/16 14/17 1/18
f 8/19 18/20 13/16
f 525/21 481/22 492/23
f 8/19 17/24 15/25
f 14/17 10/26 9/27
f 112/28 119/29 106/30
f 39/31 23/32 28/33
f 100/34 118/35 114/36
f 242/37 217/38 195/39
f 58/40 49/41 54/42
f 59/43 42/44 43/45
f 27/46 38/47 33/48
f 543/49 299/50 333/51
f 318/52 414/53 347/54
f 154/55 150/56 149/57
f 71/58 60/59 76/60
f 59/43 43/45 48/61
f 99/62 82/63 83/64
f 518/65 484/66 485/67
f 140/68 158/69 154/55
f 161/70 163/71 162/72
f 47/73 58/74 53/75
f 266/76 263/77 264/78
f 53/75 54/42 40/79
f 141/80 143/81 142/82
f 12/83 19/4 7/84
f 79/85 63/86 68/87
f 127/88 131/89 139/90
f 33/48 34/91 20/92
f 87/93 97/94 95/95
f 75/96 64/97 65/98
f 67/99 78/100 73/101
f 226/102 186/103 197/104
f 268/105 265/106 266/76
f 75/107 70/108 78/100
f 11/109 1/18 16/110
f 99/62 83/64 88/111
f 424/112 351/113 343/114
f 107/115 117/116 115/117
f 147/118 151/119 159/120
f 15/121 10/122 18/20
f 87/93 98/123 93/124
f 538/125 330/126 312/127
f 202/128 187/129 191/130
f 45/131 58/74 55/132
f 92/133 99/62 86/134
f 119/29 103/135 108/136
f 323/137 426/138 350/139
f 47/73 51/140 59/43
f 114/36 110/141 109/142
f 108/143 102/144 101/145
f 107/115 118/146 113/147
f 519/148 477/149 486/150
f 79/85 62/151 63/86
f 143/81 151/119 142/82
f 132/152 139/90 126/153
f 139/90 123/154 128/155
f 423/156 294/157 351/158
f 29/159 25/160 24/161
f 115/162 110/163 118/146
f 147/118 157/164 155/165
f 127/88 138/166 133/167
f 239/168 184/169 206/170
f 544/171 333/172 334/173
f 21/174 23/32 22/175
f 51/140 40/79 56/176
f 159/120 143/81 148/177
f 127/88 137/178 135/179
f 135/179 124/180 125/181
f 232/182 233/183 235/184
f 35/185 24/186 25/187
f 147/118 158/188 153/189
f 169/190 165/191 164/192
f 31/193 23/32 39/31
f 135/194 130/195 138/166
f 172/196 179/197 166/198
f 179/197 163/71 168/199
f 61/200 63/86 62/151
f 48/201 42/44 41/202
f 8/19 11/109 19/4
f 67/99 77/203 75/96
f 167/10 178/204 173/205
f 49/41 45/206 44/207
f 284/208 410/209 355/210
f 95/95 84/211 85/212
f 258/213 255/214 256/215
f 522/216 485/217 489/218
f 264/78 261/219 262/220
f 149/57 145/221 144/222
f 78/223 69/224 74/225
f 89/226 85/227 84/228
f 216/229 203/230 214/231
f 540/232 269/233 327/234
f 546/235 287/236 326/237
f 530/238 281/239 274/240
f 532/241 334/242 286/243
f 192/244 189/245 181/246
f 214/231 211/247 222/248
f 223/249 213/250 224/251
f 218/252 208/253 219/254
f 9/27 6/255 5/256
f 224/251 209/257 220/258
f 497/259 305/260 315/261
f 98/262 89/226 94/263
f 69/224 65/264 64/265
f 201/266 224/251 202/267
f 202/128 220/258 198/268
f 199/269 218/252 196/270
f 196/271 219/254 197/272
f 555/273 534/274 552/275
f 199/276 220/258 221/277
f 200/278 223/249 201/279
f 252/280 249/281 251/282
f 194/283 215/284 216/229
f 219/254 226/102 197/104
f 271/285 353/286 422/287
f 195/288 204/289 215/284
f 553/290 405/291 397/292
f 184/169 238/293 195/39
f 511/294 491/295 478/296
f 273/297 325/298 271/285
f 129/299 125/300 124/301
f 175/12 164/302 165/303
f 246/304 252/280 248/305
f 193/306 195/288 215/284
f 235/184 231/307 232/182
f 234/308 228/13 227/309
f 249/281 247/310 251/282
f 155/165 144/311 145/312
f 243/313 238/293 240/314
f 73/101 74/225 60/59
f 131/89 120/315 136/316
f 25/317 38/47 35/318
f 246/319 249/281 250/320
f 252/321 247/310 248/322
f 260/323 258/324 266/325
f 237/326 240/314 238/293
f 496/327 307/328 305/329
f 196/271 186/330 185/331
f 420/332 288/7 418/333
f 325/298 348/334 353/335
f 341/336 411/337 354/338
f 324/339 322/340 321/341
f 413/342 347/54 414/53
f 427/343 324/339 321/341
f 340/344 290/345 341/346
f 163/71 171/1 162/72
f 411/337 283/347 354/338
f 201/266 191/348 190/349
f 346/350 318/52 347/351
f 417/352 279/353 276/354
f 244/355 195/39 238/293
f 343/114 303/356 424/112
f 27/46 31/193 39/31
f 421/357 271/285 422/358
f 413/359 311/360 308/361
f 27/46 37/362 35/185
f 316/363 346/364 415/365
f 178/366 169/190 174/367
f 342/368 302/369 343/370
f 425/371 303/356 300/372
f 262/220 259/373 260/320
f 199/269 185/374 188/375
f 413/342 309/376 344/377
f 355/378 283/347 284/208
f 352/379 294/157 295/380
f 296/381 294/157 293/382
f 288/7 290/345 289/383
f 503/384 320/385 328/386
f 471/387 332/388 292/389
f 277/390 339/391 338/392
f 93/124 99/62 87/93
f 38/393 29/159 34/91
f 220/258 210/394 221/277
f 410/395 282/396 411/397
f 349/398 323/137 350/399
f 350/139 415/365 346/364
f 173/205 179/197 167/10
f 311/360 309/376 308/361
f 309/376 345/400 344/401
f 415/402 319/403 316/363
f 352/404 418/9 340/8
f 319/403 317/405 316/363
f 545/406 275/407 269/408
f 410/209 338/409 355/210
f 300/372 342/410 425/411
f 278/412 416/413 339/414
f 128/415 122/416 121/417
f 285/418 283/347 282/396
f 67/99 71/58 79/85
f 548/419 531/420 549/421
f 418/422 437/423 436/424
f 441/425 419/426 423/427
f 389/428 327/234 269/233
f 372/429 355/430 373/431
f 532/432 551/433 550/434
f 481/22 507/435 492/23
f 343/436 369/437 361/438
f 485/217 504/439 489/218
f 443/440 412/441 430/442
f 441/443 424/444 442/445
f 377/446 326/237 287/236
f 341/447 372/448 359/449
f 527/450 486/150 477/149
f 487/451 270/452 488/453
f 554/454 539/455 536/456
f 378/457 299/458 297/459
f 562/460 532/241 550/461
f 362/462 345/463 363/464
f 348/465 367/466 366/467
f 517/468 514/469 521/470
f 373/471 338/472 356/473
f 349/474 368/475 367/476
f 274/477 375/478 275/479
f 350/480 364/481 368/482
f 346/483 365/484 364/485
f 543/486 562/487 561/488
f 376/489 287/490 286/491
f 528/492 476/493 483/494
f 413/495 432/496 431/497
f 326/498 391/499 281/500
f 385/501 330/502 329/503
f 327/504 385/505 329/506
f 429/507 420/508 438/509
f 314/510 380/511 304/512
f 339/513 371/514 357/515
f 312/516 383/517 314/518
f 558/519 545/520 540/232
f 358/521 341/447 359/522
f 479/523 497/259 480/524
f 380/525 306/526 304/527
f 553/290 543/49 561/528
f 440/529 416/530 434/531
f 435/532 410/533 428/534
f 551/535 546/235 564/536
f 381/537 297/538 306/539
f 433/540 426/541 444/542
f 502/543 484/544 486/545
f 330/126 382/546 312/127
f 508/547 487/548 493/549
f 483/550 499/551 528/552
f 560/553 538/125 556/554
f 379/555 333/51 299/50
f 480/556 498/557 481/558
f 477/559 494/560 527/561
f 445/562 421/563 439/564
f 433/565 414/566 415/567
f 369/568 352/569 370/570
f 338/472 357/571 356/572
f 439/573 422/574 440/575
f 429/576 410/533 411/577
f 479/578 495/579 496/327
f 491/295 495/580 478/296
f 538/581 557/582 556/583
f 490/584 506/585 491/586
f 488/587 499/588 482/589
f 375/590 269/408 275/407
f 560/591 541/592 542/593
f 504/594 490/595 489/596
f 353/597 366/598 371/599
f 192/600 216/229 214/231
f 388/601 286/243 334/242
f 281/239 374/602 274/240
f 554/603 537/604 555/605
f 531/606 563/607 549/608
f 565/609 530/238 548/610
f 434/611 417/612 435/613
f 500/614 485/67 484/66
f 445/615 426/541 427/616
f 438/617 418/422 436/618
f 493/619 507/620 508/621
f 370/570 340/622 358/623
f 334/173 387/624 388/625
f 345/463 360/626 363/627
f 347/628 362/629 365/630
f 443/631 424/444 425/632
f 558/633 541/634 559/635
f 552/636 535/637 553/638
f 431/639 412/441 413/495
f 565/640 546/641 547/642
f 342/643 361/644 360/645
f 16/110 2/646 11/109
f 2/646 3/647 11/109
f 228/13 232/182 230/14
f 180/6 7/84 19/4
f 111/648 100/34 116/649
f 100/34 113/147 118/35
f 152/650 147/118 159/120
f 477/559 476/651 494/560
f 330/126 386/652 382/546
f 445/562 427/616 421/563
f 8/19 15/121 18/20
f 473/653 472/654 457/655
f 433/565 432/656 414/566
f 369/568 351/657 352/569
f 36/658 21/659 31/193
f 21/659 22/175 31/193
f 154/55 158/69 150/56
f 28/33 26/660 39/31
f 151/119 140/68 156/661
f 543/49 535/662 299/50
f 19/4 11/109 3/647
f 370/570 358/623 376/663
f 394/664 550/434 551/433
f 72/665 67/99 79/85
f 27/46 35/318 38/47
f 463/666 462/667 447/668
f 456/669 441/443 442/445
f 345/463 342/643 360/626
f 56/176 41/670 51/140
f 41/670 42/44 51/140
f 58/40 50/671 49/41
f 48/61 46/672 59/43
f 31/193 20/92 36/658
f 71/58 73/101 60/59
f 85/673 90/674 98/123
f 401/675 557/676 554/454
f 434/611 416/530 417/612
f 538/581 539/677 557/582
f 47/73 55/132 58/74
f 552/636 553/638 397/678
f 380/525 362/462 363/464
f 353/597 348/465 366/598
f 76/60 61/679 71/58
f 61/679 62/151 71/58
f 242/37 241/680 217/38
f 68/87 66/681 79/85
f 91/682 80/683 96/684
f 525/21 514/685 481/22
f 2/686 180/687 4/5
f 300/372 303/356 302/369
f 483/550 482/688 499/551
f 379/555 387/689 333/51
f 67/99 75/107 78/100
f 221/277 210/394 207/690
f 389/428 371/599 366/598
f 560/553 542/691 538/125
f 96/684 81/692 91/682
f 81/692 82/63 91/682
f 13/16 18/693 14/17
f 88/111 86/134 99/62
f 152/650 159/120 146/694
f 14/17 18/693 10/26
f 107/115 113/147 111/648
f 560/591 559/695 541/592
f 552/636 534/696 535/637
f 508/547 503/384 487/548
f 87/93 95/697 98/123
f 505/698 504/594 292/389
f 393/699 549/608 563/607
f 500/614 501/700 485/67
f 116/649 101/701 111/648
f 101/701 102/144 111/648
f 112/28 107/115 119/29
f 108/136 106/30 119/29
f 32/702 39/31 26/660
f 318/52 319/403 414/53
f 222/248 211/247 212/703
f 47/73 52/704 57/705
f 342/643 343/436 361/644
f 375/590 389/706 269/408
f 107/115 115/162 118/146
f 232/182 231/307 229/707
f 565/640 564/708 546/641
f 429/576 428/709 410/533
f 136/316 121/710 131/89
f 121/710 122/416 131/89
f 518/65 517/711 484/66
f 128/155 126/153 139/90
f 52/704 59/43 46/672
f 99/62 91/682 82/63
f 417/712 276/354 277/390
f 296/381 293/382 423/713
f 111/648 113/147 100/34
f 443/631 442/714 424/444
f 127/88 135/194 138/166
f 206/715 184/716 193/306
f 514/717 513/718 480/556
f 531/606 545/406 563/607
f 156/661 141/719 151/119
f 141/719 142/82 151/119
f 59/43 51/140 42/44
f 148/177 146/694 159/120
f 72/665 79/85 66/681
f 8/19 12/83 17/24
f 558/633 540/720 541/634
f 565/609 547/721 530/238
f 493/619 492/722 507/620
f 347/628 344/723 362/629
f 147/118 155/724 158/188
f 551/535 564/536 408/725
f 334/173 333/172 387/624
f 151/119 153/189 140/68
f 176/3 161/726 171/1
f 161/726 162/72 171/1
f 167/10 172/196 177/11
f 168/199 166/198 179/197
f 171/1 173/205 160/2
f 288/7 289/383 340/8
f 276/354 279/353 278/412
f 388/601 376/663 286/243
f 32/702 27/46 39/31
f 480/556 497/727 498/557
f 167/10 175/728 178/204
f 364/485 365/484 383/517
f 390/729 372/429 373/431
f 445/615 444/730 426/541
f 227/731 228/732 219/254
f 427/733 321/341 322/340
f 382/546 386/652 368/482
f 404/734 560/553 556/554
f 393/735 392/736 548/419
f 230/14 229/737 225/738
f 260/320 259/373 257/739
f 270/452 503/740 328/741
f 458/742 457/655 442/714
f 337/743 468/744 466/745
f 133/167 138/746 134/747
f 510/748 509/749 476/651
f 192/244 214/231 222/248
f 448/750 431/497 432/496
f 463/751 464/752 315/261
f 469/753 454/754 455/755
f 527/561 494/560 428/709
f 501/700 500/614 336/756
f 396/757 399/758 555/273
f 422/287 353/286 339/414
f 243/313 244/355 238/293
f 266/76 265/106 263/77
f 131/89 133/167 120/315
f 53/75 58/40 54/42
f 155/165 157/164 144/311
f 25/317 30/759 38/47
f 141/80 148/760 143/81
f 161/70 168/761 163/71
f 73/101 78/223 74/225
f 381/537 378/762 297/538
f 533/763 532/432 286/491
f 536/456 539/455 314/510
f 551/535 533/764 546/235
f 502/543 500/765 484/544
f 292/766 335/767 467/768
f 475/769 474/770 459/771
f 535/637 534/696 297/459
f 438/617 420/508 418/422
f 200/278 201/279 190/772
f 433/540 415/567 426/541
f 534/274 537/773 306/539
f 547/642 546/641 326/498
f 385/501 367/476 368/475
f 31/193 33/48 20/92
f 374/774 356/572 357/571
f 537/604 536/775 304/527
f 140/68 153/189 158/69
f 390/776 377/446 359/449
f 384/777 366/467 367/466
f 215/284 204/289 205/778
f 258/324 256/779 266/325
f 256/779 254/780 266/325
f 254/780 268/781 266/325
f 266/325 264/782 262/783
f 262/783 260/323 266/325
f 516/784 515/785 482/688
f 475/786 460/787 454/788
f 403/789 559/695 560/591
f 220/258 209/257 210/394
f 410/395 285/418 282/396
f 55/790 57/705 44/791
f 93/124 98/262 94/263
f 517/792 519/793 486/545
f 277/390 278/412 339/391
f 350/139 426/138 415/365
f 310/794 311/360 412/795
f 378/457 360/645 361/644
f 409/796 565/609 548/610
f 309/376 310/794 345/400
f 173/205 171/1 179/197
f 91/682 93/124 80/683
f 526/797 525/798 492/722
f 81/799 88/800 83/64
f 349/398 322/340 323/137
f 38/393 30/801 29/159
f 173/205 178/366 174/367
f 138/746 130/802 129/299
f 405/803 561/488 562/487
f 352/404 419/804 418/9
f 545/406 531/606 275/407
f 515/805 521/806 488/587
f 507/435 498/807 313/808
f 256/215 255/214 253/809
f 415/402 414/810 319/403
f 319/403 318/52 317/405
f 193/811 194/283 183/812
f 295/380 296/381 419/804
f 520/813 526/814 493/549
f 296/381 295/380 294/157
f 93/124 91/682 99/62
f 194/815 192/600 181/816
f 307/328 462/667 463/666
f 451/817 436/424 437/423
f 311/360 310/794 309/376
f 503/384 508/547 320/385
f 556/583 557/582 401/818
f 15/25 17/24 5/819
f 272/820 273/297 421/821
f 288/7 291/822 290/345
f 471/387 472/823 332/388
f 387/624 369/568 370/824
f 528/552 499/551 434/611
f 504/439 501/825 335/767
f 358/521 359/522 377/826
f 498/557 497/727 315/827
f 531/420 530/828 274/477
f 103/135 119/29 111/648
f 391/829 373/471 356/473
f 155/724 145/830 150/831
f 555/273 537/773 534/274
f 127/88 132/152 137/178
f 246/304 250/832 252/280
f 201/266 223/249 224/251
f 98/262 90/833 89/226
f 546/235 533/764 287/236
f 135/194 125/834 130/195
f 11/109 13/16 1/18
f 497/259 496/835 305/260
f 92/133 87/93 99/62
f 218/252 207/690 208/253
f 149/57 150/56 145/221
f 192/244 200/836 189/245
f 127/88 133/167 131/89
f 75/107 65/837 70/108
f 29/159 30/801 25/160
f 532/241 544/838 334/242
f 108/143 103/135 102/144
f 202/128 224/251 220/258
f 530/238 547/721 281/239
f 49/41 50/671 45/206
f 323/137 324/339 426/138
f 172/196 167/10 179/197
f 519/148 510/839 477/149
f 78/223 70/840 69/224
f 69/224 70/840 65/264
f 258/213 257/841 255/214
f 199/269 221/277 218/252
f 169/190 170/842 165/191
f 511/294 524/843 491/295
f 522/216 518/844 485/217
f 79/85 71/58 62/151
f 61/200 68/845 63/86
f 8/19 13/16 11/109
f 264/78 263/77 261/219
f 9/27 10/26 6/255
f 47/73 53/75 51/140
f 538/125 542/691 330/126
f 135/179 137/178 124/180
f 51/140 53/75 40/79
f 284/208 285/418 410/209
f 226/102 225/846 186/103
f 175/12 177/11 164/302
f 132/152 127/88 139/90
f 239/168 237/326 184/169
f 143/81 159/120 151/119
f 129/299 130/802 125/300
f 200/278 222/248 223/249
f 273/297 272/820 325/298
f 184/169 237/326 238/293
f 45/131 50/847 58/74
f 223/249 212/703 213/250
f 48/201 43/45 42/44
f 194/283 193/811 215/284
f 219/254 228/732 226/102
f 252/280 250/832 249/281
f 202/128 198/268 187/129
f 235/184 236/848 231/307
f 199/276 198/849 220/258
f 268/105 267/850 265/106
f 224/251 213/250 209/257
f 271/285 325/298 353/286
f 147/118 153/189 151/119
f 35/185 37/362 24/186
f 195/288 217/851 204/289
f 553/290 561/528 405/291
f 31/193 22/175 23/32
f 21/174 28/852 23/32
f 107/115 112/28 117/116
f 424/112 423/853 351/113
f 12/83 8/19 19/4
f 516/854 509/855 510/856
f 510/856 519/857 516/854
f 519/857 517/468 516/854
f 517/468 518/858 522/859
f 522/859 523/860 517/468
f 523/860 524/861 517/468
f 524/861 511/862 514/469
f 511/862 512/863 514/469
f 512/863 513/864 514/469
f 514/469 525/865 526/866
f 526/866 520/867 514/469
f 520/867 521/470 514/469
f 521/470 515/868 517/468
f 515/868 516/854 517/468
f 67/99 72/665 77/203
f 196/271 218/252 219/254
f 540/232 545/520 269/233
f 87/93 92/133 97/94
f 216/229 205/778 203/230
f 232/182 228/13 233/183
f 234/308 233/183 228/13
f 544/171 543/486 333/172
f 95/95 97/94 84/211
f 15/121 6/869 10/122
f 115/162 105/870 110/163
f 89/226 90/833 85/227
f 33/48 38/393 34/91
f 214/231 203/230 211/247
f 423/156 293/382 294/157
f 249/281 245/871 247/310
f 75/96 77/203 64/97
f 114/36 118/35 110/141
f 147/118 152/650 157/164
f 193/306 184/716 195/288
f 173/205 174/367 160/2
f 417/712 277/390 338/409
f 2/686 4/5 3/647
f 155/724 150/831 158/188
f 55/790 44/791 45/872
f 175/728 170/873 178/204
f 341/336 291/822 420/874
f 85/673 98/123 95/697
f 47/73 57/705 55/790
f 19/4 3/647 4/5
f 81/799 83/64 82/63
f 115/117 104/875 105/876
f 276/354 278/412 277/390
f 15/25 5/819 6/877
f 93/124 94/263 80/683
f 123/154 131/89 122/416
f 103/135 111/648 102/144
f 107/115 111/648 119/29
f 194/815 181/816 183/878
f 138/746 129/299 134/747
f 193/811 183/812 182/879
f 256/215 253/809 254/880
f 526/797 492/722 493/619
f 295/380 419/804 352/404
f 272/820 421/821 348/881
f 222/248 212/703 223/249
f 421/821 349/882 348/881
f 310/794 412/795 345/883
f 378/457 361/644 379/884
f 391/829 356/473 374/602
f 387/624 370/824 388/625
f 358/521 377/826 376/489
f 556/583 401/818 400/885
f 389/706 357/515 371/514
f 381/537 360/626 378/762
f 408/886 565/640 409/887
f 407/888 558/519 402/889
f 383/890 362/629 380/511
f 401/675 554/454 398/891
f 380/525 363/464 381/892
f 394/664 551/433 395/893
f 390/776 359/449 372/448
f 384/777 367/466 385/505
f 385/501 368/475 386/894
f 374/774 357/571 375/478
f 370/570 376/663 388/601
f 300/372 302/369 301/895
f 537/604 304/527 306/526
f 215/284 205/778 216/229
f 200/278 190/772 189/896
f 534/274 306/539 297/538
f 206/715 193/306 182/897
f 535/637 297/459 299/458
f 547/642 326/498 281/500
f 516/784 482/688 483/550
f 533/763 286/491 287/490
f 221/277 207/690 218/252
f 422/287 339/414 416/413
f 536/456 314/510 304/512
f 542/593 329/503 330/502
f 541/634 327/504 329/506
f 254/880 267/850 268/105
f 232/182 229/707 230/14
f 454/754 440/575 455/755
f 280/898 468/899 337/900
f 460/901 444/730 445/615
f 450/902 432/656 433/565
f 336/756 467/903 335/904
f 292/766 467/768 471/905
f 447/668 431/639 448/906
f 453/907 436/618 451/908
f 458/909 430/442 447/910
f 460/787 439/564 454/788
f 456/911 437/912 441/425
f 465/913 331/914 313/808
f 298/915 462/916 307/917
f 328/741 470/918 529/919
f 465/920 449/921 450/902
f 463/751 449/922 464/752
f 475/786 454/788 469/923
f 475/769 459/771 460/901
f 453/907 466/745 468/744
f 463/666 447/668 448/906
f 296/381 423/713 419/924
f 471/387 457/925 472/823
f 471/905 452/926 456/911
f 461/927 453/928 468/899
f 465/913 459/929 474/930
f 451/817 467/903 466/931
f 473/653 457/655 458/742
f 469/753 455/755 470/918
f 192/244 222/248 200/836
f 448/750 432/496 449/922
f 463/751 315/261 305/260
f 527/561 428/709 429/576
f 451/817 437/423 452/932
f 456/669 442/445 457/925
f 307/328 463/666 305/329
f 528/552 434/611 435/613
f 446/933 438/509 453/928
f 450/934 444/542 459/929
f 434/531 270/935 440/529
f 528/492 428/534 494/936
f 458/742 442/714 443/631
f 332/937 473/653 298/938
f 337/743 466/745 336/939
f 320/940 474/770 475/769
f 320/385 469/923 328/386
f 315/827 465/920 313/941
f 133/167 134/747 120/315
f 506/585 332/937 298/938
f 500/765 337/743 336/939
f 504/439 335/767 292/766
f 198/849 188/942 187/943
f 520/813 493/549 487/548
f 508/621 331/944 320/940
f 270/452 328/741 529/919
f 507/435 313/808 331/914
f 513/945 479/523 480/524
f 539/677 312/516 314/518
f 505/698 292/389 332/388
f 230/14 225/738 226/15
f 429/946 461/947 527/948
f 510/748 476/651 477/559
f 260/320 257/739 258/319
f 509/949 483/494 476/493
f 501/700 336/756 335/904
f 502/950 280/898 337/900
f 109/142 105/951 104/952
f 514/717 480/556 481/558
f 425/411 345/883 412/795
f 227/731 219/254 208/253
f 523/953 489/596 490/595
f 512/954 478/955 479/578
f 427/733 322/340 349/882
f 524/956 490/584 491/586
f 495/580 298/915 307/917
f 515/805 488/587 482/589
f 498/557 315/827 313/941
f 517/792 486/545 484/544
f 531/420 274/477 275/479
f 470/957 455/958 440/959
f 402/960 559/635 403/961
f 399/962 554/603 555/605
f 382/546 368/482 364/481
f 409/796 548/610 392/963
f 390/729 373/431 391/499
f 405/803 562/487 406/964
f 379/555 369/437 387/689
f 552/636 397/678 396/965
f 364/485 383/517 382/966
f 551/535 408/725 395/967
f 404/734 556/554 400/968
f 403/789 560/591 404/969
f 458/909 462/916 473/970
f 389/428 366/598 384/971
f 393/735 548/419 549/421
f 393/699 563/607 407/972
f 396/757 555/273 552/275
f 406/973 550/461 394/974
f 281/239 391/829 374/602
f 175/728 165/975 170/873
f 554/603 536/775 537/604
f 370/570 352/569 340/622
f 192/600 194/815 216/229
f 52/704 47/73 59/43
f 115/117 117/116 104/875
f 431/639 430/976 412/441
f 490/584 505/977 506/585
f 341/336 290/345 291/822
f 488/587 270/935 499/588
f 479/578 478/955 495/579
f 123/154 139/90 131/89
f 338/472 339/513 357/571
f 504/594 505/698 490/595
f 439/573 421/563 422/574
f 491/295 506/978 495/580
f 421/821 427/733 349/882
f 524/956 523/979 490/584
f 425/411 342/410 345/883
f 523/953 522/980 489/596
f 495/580 506/978 298/915
f 399/962 398/981 554/603
f 379/555 361/438 369/437
f 458/909 447/910 462/916
f 406/973 562/460 550/461
f 198/849 199/276 188/942
f 508/621 507/620 331/944
f 274/477 374/774 375/478
f 314/510 383/890 380/511
f 349/474 350/480 368/475
f 339/513 353/597 371/514
f 413/495 414/566 432/496
f 558/519 563/982 545/520
f 479/523 496/835 497/259
f 373/471 355/430 338/472
f 385/501 386/894 330/502
f 376/489 377/826 287/490
f 429/507 411/983 420/508
f 312/516 382/966 383/517
f 341/447 354/984 372/448
f 543/486 544/171 562/487
f 358/521 340/622 341/447
f 380/525 381/892 306/526
f 350/480 346/483 364/481
f 346/483 347/985 365/484
f 513/945 512/986 479/523
f 315/827 464/987 465/920
f 506/585 505/977 332/937
f 320/940 331/944 474/770
f 528/492 435/532 428/534
f 332/937 472/654 473/653
f 320/385 475/786 469/923
f 500/765 502/543 337/743
f 381/537 363/627 360/626
f 539/677 538/581 312/516
f 502/950 527/450 280/898
f 446/933 429/507 438/509
f 450/934 433/540 444/542
f 434/531 499/588 270/935
f 109/142 110/141 105/951
f 521/988 520/989 487/451
f 453/907 451/908 466/745
f 199/269 196/270 185/374
f 27/46 32/702 37/362
f 342/368 301/895 302/369
f 316/363 317/405 346/364
f 262/220 261/219 259/373
f 420/332 291/822 288/7
f 413/342 308/361 309/376
f 178/366 170/842 169/190
f 411/337 282/396 283/347
f 201/266 202/267 191/348
f 325/298 272/820 348/334
f 163/71 179/197 171/1
f 244/355 242/37 195/39
f 413/342 344/377 347/54
f 389/428 384/971 327/234
f 441/425 437/912 419/426
f 481/22 498/807 507/435
f 128/415 123/154 122/416
f 285/418 284/208 283/347
f 372/429 354/984 355/430
f 410/209 417/712 338/409
f 278/412 279/353 416/413
f 532/432 533/763 551/433
f 548/419 530/828 531/420
f 418/422 419/426 437/423
f 343/436 351/657 369/437
f 300/372 301/895 342/410
f 67/99 73/101 71/58
f 246/319 245/871 249/281
f 341/336 420/874 411/337
f 421/357 273/297 271/285
f 496/327 495/579 307/328
f 425/371 424/990 303/356
f 343/114 302/369 303/356
f 324/339 323/137 322/340
f 196/271 197/272 186/330
f 427/343 426/991 324/339
f 346/350 317/405 318/52
f 252/321 251/282 247/310
f 237/326 239/992 240/314
f 355/378 354/993 283/347
f 340/344 289/383 290/345
f 27/46 33/48 31/193
f 417/352 416/994 279/353
f 352/379 351/995 294/157
f 413/359 412/996 311/360
f 471/387 456/669 457/925
f 328/741 469/753 470/918
f 465/920 464/987 449/921
f 465/913 474/930 331/914
f 509/949 516/997 483/494
f 456/911 452/926 437/912
f 407/888 563/982 558/519
f 298/915 473/970 462/916
f 463/751 448/750 449/922
f 471/905 467/768 452/926
f 408/886 564/708 565/640
f 461/927 446/933 453/928
f 447/668 430/976 431/639
f 429/946 446/998 461/947
f 461/947 280/999 527/948
f 450/902 449/921 432/656
f 512/954 511/1000 478/955
f 460/901 459/771 444/730
f 336/756 466/931 467/903
f 453/907 438/617 436/618
f 454/754 439/573 440/575
f 541/634 540/720 327/504
f 402/960 558/633 559/635
f 542/593 541/592 329/503
f 254/880 253/809 267/850
f 280/898 461/927 468/899
f 389/706 375/590 357/515
f 458/909 443/440 430/442
f 383/890 365/630 362/629
f 460/787 445/562 439/564
f 465/913 450/934 459/929
f 451/817 452/932 467/903
f 440/959 270/1001 470/957
f 270/1001 529/1002 470/957
f 378/457 379/884 299/458
f 377/446 390/776 326/237
f 527/450 502/950 486/150
f 441/443 423/427 424/444
f 528/492 494/936 476/493
f 554/454 557/676 539/455
f 553/290 535/662 543/49
f 487/451 503/740 270/452
f 326/498 390/729 391/499
f 517/468 524/861 514/469
f 443/440 425/632 412/441
f 440/529 422/1003 416/530
f 485/217 501/825 504/439
f 327/504 384/777 385/505
f 562/460 544/838 532/241
f 435/532 417/612 410/533
f 362/462 344/723 345/463
f 348/465 349/474 367/466
f 521/988 487/451 488/453
o Frame
v -1.375 0.7277 -0.3125
v -1.375 0.3967 -0.5
v -1.375 0.7277 0.3125
v -0.625 0.7277 -0.3125
v -0.5 0.3967 -0.5
v -0.625 0.7277 0.3125
v -1.5 -0 -0.3125
v -1.5 0 0.3125
v -0.5 0 0.3125
v -1.5 0 1.1875
v -1.5 0.3967 -0.3125
v -1.5 0.3967 0.3125
v -0.5 0.3967 0.5
v -1.375 0.3967 0.5
v -1.5 0.7277 -0.3125
v -1.5 0.7277 0.3125
v -0.625 0.3967 -0.5
v -0.625 0.3967 0.5
v -1.375 0.7277 1.1875
v -1.375 0.3967 1
v -1.375 0.3967 2
v -0.625 0.7277 1.1875
v -0.625 0.3967 2
v -1.5 0 1.8125
v -0.5 0 1.1875
v -0.5 0 1.8125
v -1.5 0 2.6875
v -1.5 0.3967 1.1875
v -1.5 0.3967 1.8125
v -0.5 0.3967 1
v -0.5 0.3967 1.8125
v -0.625 0.3967 1
v -1.375 0.3967 2.5
v -1.5 0.7277 1.1875
v -1.5 0.7277 1.8125
v -0.5 0.7277 1.1875
v -0.5 0.7277 1.8125
v -0.625 0.7277 1.8125
v -1.5 0.7277 2.6875
v -1.375 0.7277 1.8125
v -1.5 0 3.3125
v -0.5 0 2.6875
v -0.5 0 3.3125
v -1.5 0 4.1875
v -1.5 0.3967 2.6875
v -1.5 0.3967 3.3125
v -0.5 0.3967 2.6875
v -0.5 0.3967 3.3125
v -0.625 0.3967 2.5
v -1.5 0.7277 3.3125
v -0.5 0.7277 2.6875
v -0.5 0.7277 3.3125
v -0.625 0.7277 2.6875
v -1.5 0.7277 4.1875
v -1.375 0.7277 2.6875
v -1.375 0.3967 3.5
v -1.375 0.7277 3.3125
v -0.625 0.3967 3.5
v -0.625 0.7277 3.3125
v -1.5 0 4.8125
v -0.5 0 4.1875
v -0.5 0 4.8125
v -1.5 0 5.6875
v -1.5 0.3967 4.1875
v -1.5 0.3967 4.8125
v -0.5 0.3967 4.1875
v -0.5 0.3967 4.8125
v -0.625 0.3967 4
v -1.5 0.7277 4.8125
v -0.5 0.7277 4.1875
v -0.5 0.7277 4.8125
v -0.625 0.7277 4.1875
v -1.5 0.7277 5.6875
v -1.375 0.7277 4.1875
v -1.375 0.3967 4
v -1.375 0.3967 5
v -1.375 0.7277 4.8125
v -0.625 0.3967 5
v -0.625 0.7277 4.8125
v -1.5 0 6.5
v -0.5 0 5.6875
v -0.5 0 6.5
v -1.5 0.3967 5.6875
v -1.5 0.3967 6.5
v -0.5 0.3967 5.6875
v -0.5 0.3967 6.5
v -0.625 0.3967 5.5
v -1.5 0.7277 6.3125
v -0.5 0.7277 5.6875
v -0.5 0.7277 6.3125
v -1.375 0.7277 5.6875
v -1.375 0.3967 5.5
v -1.375 0.3967 6.5
v -1.375 0.7277 6.3125
v -0.625 0.7277 5.6875
v -0.625 0.3967 6.5
v -0.625 0.7277 6.3125
v -1.5 -0 -2
v -1.5 -0 -1.1875
v -0.5 -0 -2
v -0.5 -0 -1.1875
v -0.5 -0 -0.3125
v -1.5 0.3967 -2
v -1.5 0.3967 -1.1875
v -0.5 0.3967 -2
v -0.5 0.3967 -1
v -0.625 0.3967 -1
v -1.5 0.7277 -1.8125
v -1.5 0.7277 -1.1875
v -0.5 0.7277 -1.8125
v -0.5 0.7277 -1.1875
v -1.375 0.7277 -1.8125
v -1.375 0.3967 -2
v -1.375 0.3967 -1
v -1.375 0.7277 -1.1875
v -0.625 0.7277 -1.8125
v -0.625 0.3967 -2
v -0.625 0.7277 -1.1875
v -0.5 0.7277 -0.3125
v -0.5 0.7277 0.3125
v -0.5 0 2.5
v -0.5 5 2.5
v -0.5 -0 -2.5
v -0.5 5 -2.5
v 0.5 0 2.5
v 0.5 5 2.5
v 0.5 -0 -2.5
v 0.5 5 -2.5
v -0.5 4.6473 -0.25
v 0.5 4.3056 -1.1887
v -0.5 2.6267 -2.1581
v 0.5 2.6267 -2.1581
v 0.5 3.1191 -2.0712
v 0.5 0.3967 0.4995
v -0.5 1.6429 1.9846
v -0.5 2.6267 2.1581
v 0.5 3.9842 1.5718
v -0.4375 4.2723 -0.3125
v 0.5 4.6473 0.25
v -0.5 4.6473 0.25
v -0.5 3.9842 -1.5718
v 0.5 3.9842 -1.5718
v -0.5 4.3056 -1.1887
v -0.4375 2.5 -1.7996
v -0.4375 3.1155 -1.6911
v -0.5 3.1191 -2.0712
v -0.5 1.2099 -1.7346
v 0.5 1.2099 -1.7346
v 0.5 1.6429 -1.9846
v -0.5 1.6429 -1.9846
v -0.5 0.7277 -0.3125
v -0.5 0.3967 -0.4995
v 0.5 0.3967 -0.4995
v 0.5 0.5677 -0.9693
v -0.5 0.5677 -0.9693
v -0.4375 0.9415 0.8998
v -0.5 0.5677 0.9693
v 0.5 0.5677 0.9693
v -0.5 0.3967 0.4995
v -0.4375 1.8845 1.6911
v -0.4375 1.3432 1.3786
v 0.5 1.6429 1.9846
v 0.5 1.2099 1.7346
v -0.5 1.2099 1.7346
v -0.4375 3.1155 1.6911
v -0.4375 2.5 1.7996
v -0.5 3.1191 2.0712
v 0.5 3.1191 2.0712
v 0.5 2.6267 2.1581
v -0.4375 4.0585 0.8998
v -0.5 4.3056 1.1887
v 0.5 4.3056 1.1887
v -0.5 3.9842 1.5718
v 0.5 4.6473 -0.25
v -0.4375 3.6568 -1.3786
v -0.4375 4.0585 -0.8998
v -0.4375 4.2723 0.3125
v -0.4375 3.6568 1.3786
v -0.5 0.7277 0.3125
v -0.4375 0.9415 -0.8998
v -0.4375 1.3432 -1.3786
v -0.4375 1.8845 -1.6911
v 0.4375 3.6568 -1.3786
v 0.4375 4.0585 -0.8998
v 0.4375 1.3432 -1.3786
v 0.4375 1.8845 -1.6911
v 0.4375 0.9415 0.8998
v 0.4375 0.7277 0.3125
v 0.4375 1.8845 1.6911
v 0.4375 1.3432 1.3786
v 0.4375 3.1155 1.6911
v 0.4375 2.5 1.7996
v 0.4375 4.2723 0.3125
v 0.4375 4.0585 0.8998
v 0.4375 3.6568 1.3786
v 0.4375 0.7277 -0.3125
v 0.4375 0.9415 -0.8998
v 0.4375 4.2723 -0.3125
v 0.4375 2.5 -1.7996
v 0.4375 3.1155 -1.6911
v -0.5 0 0
v -0.5 5 -0
v 0.5 2.5 2.5
v -0.5 2.5 -2.5
v 0.5 4.8236 -1.375
v 0.5 4.8236 -1.125
v 0.5 4.8236 1.375
v 0.5 4.0595 2.2856
v 0.5 3.8133 2.329
v 0.5 1.3133 2.329
v 0.5 0.8214 2.2423
v 0.5 0.2839 1.7347
v 0.5 0.1984 1.4997
v 0.5 0.1984 1.0003
v 0.5 0.1984 -1.4997
v 0.5 0.2839 -1.7347
v 0.5 0.8214 -2.2423
v 0.5 1.3133 -2.329
v 0.5 3.8133 -2.329
v 0.5 4.0595 -2.2856
v 0.5 5 -0
v 0.5 0 0
v 0.5 2.5 -2.5
v -0.5 4.8236 -1.375
v -0.5 4.0595 -2.2856
v -0.5 3.8133 -2.329
v -0.5 1.3133 -2.329
v -0.5 0.8214 -2.2423
v -0.5 0.2839 -1.7347
v -0.5 0.1984 -1.4997
v -0.5 0.1984 1.0003
v -0.5 0.1984 1.4997
v -0.5 0.2839 1.7347
v -0.5 0.8214 2.2423
v -0.5 1.3133 2.329
v -0.5 3.8133 2.329
v -0.5 4.0595 2.2856
v -0.5 4.8236 1.375
v -0.5 2.5 2.5
v -0.5 4.8236 -1.125
v 0.5 2.5633 2.329
v -0.5 0 1.25
v -0.5 5 1.25
v 0.5 0.0992 -0.7499
v -0.5 2.5633 -2.329
v 0.5 1.25 2.5
v -0.5 1.25 -2.5
v -0.5 0.0992 -0.7499
v -0.5 0.1984 -0.2497
v 0.5 2.5633 -2.329
v 0.5 0.1984 -0.2497
v -0.5 -0 -1.25
v -0.5 5 -1.25
v 0.5 3.75 2.5
v -0.5 3.75 -2.5
v 0.5 0.2975 0.2504
v 0.5 5 -1.25
v 0.5 -0 -1.25
v 0.5 3.75 -2.5
v -0.5 0.2975 0.2504
v -0.5 3.75 2.5
v -0.5 1.25 2.5
v -0.5 2.5633 2.329
v -0.5 0.0992 1.7501
v -0.5 4.8236 0.125
v 0.5 4.8236 0.125
v 0.5 0.0992 1.7501
v 0.5 0 1.25
v 0.5 1.25 -2.5
v 0.5 5 1.25
vt 0.0029 0.5947
vt 0.0487 0.4895
vt 0.0487 0.5947
vt 0.9628 0.7947
vt 0.9799 0.7316
vt 0.9799 0.7947
vt 0.5731 0.8053
vt 0.5559 0.7211
vt 0.5731 0.7211
vt 0.894 0.6947
vt 0.9341 0.7211
vt 0.894 0.7211
vt 0.9341 0.5789
vt 0.894 0.6632
vt 0.894 0.5789
vt 0.894 0.8632
vt 0.8653 0.8316
vt 0.894 0.8316
vt 0.6877 0.8053
vt 0.659 0.7947
vt 0.6877 0.7947
vt 0.8367 0.4842
vt 0.8138 0.5474
vt 0.8138 0.4842
vt 0.6189 0.7211
vt 0.659 0.7316
vt 0.6189 0.7316
vt 0.788 0.1316
vt 0.8052 0.0526
vt 0.8052 0.1316
vt 0.8252 0.6947
vt 0.7966 0.7211
vt 0.7966 0.6947
vt 0.7966 0.7947
vt 0.8252 0.7316
vt 0.8252 0.7947
vt 0.5731 0.5
vt 0.6046 0.4737
vt 0.596 0.5
vt 0.4585 1
vt 0.4355 0.9158
vt 0.4585 0.9158
vt 0.4069 1
vt 0.384 0.9158
vt 0.4069 0.9158
vt 0.2779 0.9105
vt 0.2206 0.9947
vt 0.2206 0.9105
vt 0.6877 0.5789
vt 0.659 0.6632
vt 0.659 0.5789
vt 0.7278 0.5789
vt 0.6877 0.6632
vt 0.9713 0.8632
vt 0.9341 0.8316
vt 0.9713 0.8316
vt 0.6332 0.5737
vt 0.616 0.5632
vt 0.6332 0.5632
vt 0.7564 0.6947
vt 0.7278 0.7211
vt 0.7278 0.6947
vt 0.6189 0.6947
vt 0.659 0.7211
vt 0.6562 0.5632
vt 0.6734 0.5
vt 0.6734 0.5632
vt 0.7335 0.5474
vt 0.7163 0.4842
vt 0.7335 0.4842
vt 0.7564 0.7316
vt 0.7564 0.7211
vt 0.6562 0.5737
vt 0.6734 0.5737
vt 0.7564 0.7947
vt 0.7278 0.8053
vt 0.7278 0.7947
vt 0.8653 0.7211
vt 0.8653 0.6947
vt 0.9341 0.8632
vt 0.2779 0.8053
vt 0.3238 0.7
vt 0.3238 0.8053
vt 0.6877 0.6947
vt 0.6934 0.5474
vt 0.7249 0.5737
vt 0.6848 0.5737
vt 0.5903 0.7316
vt 0.5903 0.7211
vt 0.8653 0.7947
vt 0.894 0.7316
vt 0.894 0.7947
vt 0.7564 0.5789
vt 0.7278 0.6632
vt 0.8252 0.6632
vt 0.7564 0.6632
vt 0.9341 0.7316
vt 0.9628 0.7316
vt 0.616 0.5
vt 0.6332 0.5
vt 0.8252 0.5789
vt 0.7966 0.6632
vt 0.7966 0.5789
vt 0.9341 0.7947
vt 0.894 0.8053
vt 0.5903 0.8053
vt 0.6189 0.7947
vt 0.6189 0.8053
vt 0.5731 0.8947
vt 0.6017 0.9684
vt 0.5731 0.9684
vt 0.7564 0.8632
vt 0.7966 0.8316
vt 0.7966 0.8632
vt 0.6934 0.4842
vt 0.7249 0.4579
vt 0.7994 0.8947
vt 0.7708 0.9684
vt 0.7708 0.8947
vt 0.702 0.0526
vt 0.6734 0.1263
vt 0.6734 0.0526
vt 0.8453 0.4579
vt 0.8252 0.8316
vt 0.8653 0.8053
vt 0.8338 0.0526
vt 0.6562 0.5
vt 0.6762 0.5474
vt 0.8252 0.8632
vt 0.7564 0.8316
vt 0.7966 0.8053
vt 0.7278 0.7316
vt 0.8252 0.8053
vt 0.9628 0.7211
vt 0.9341 0.8053
vt 0.9628 0.8053
vt 0.8252 0.7211
vt 0.8653 0.7316
vt 0.659 0.6947
vt 0.7536 0.4842
vt 0.7851 0.4579
vt 0.7765 0.4842
vt 0.7851 0.5737
vt 0.7536 0.5474
vt 0.7765 0.5474
vt 0.8539 0.5474
vt 0.8539 0.4842
vt 0.6877 0.7316
vt 0.596 0.5737
vt 0.6132 0.5632
vt 0.6132 0.5737
vt 0.9713 0.6632
vt 0.9341 0.6947
vt 0.9341 0.6632
vt 0.8653 0.8632
vt 0.5817 0.6947
vt 0.6189 0.6632
vt 0.3811 0.9158
vt 0.3582 1
vt 0.3582 0.9158
vt 0.106 0.4053
vt 0.106 0.4895
vt 0.9713 0.5789
vt 0.5731 0.5632
vt 0.5559 0.5737
vt 0.5559 0.5632
vt 0.8653 0.5789
vt 0.6132 0.5
vt 0.6877 0.7211
vt 0.5903 0.7947
vt 0.9312 0.8947
vt 0.894 0.8684
vt 0.9398 0.8684
vt 0.8453 0.5737
vt 0.8052 0.5737
vt 0.5731 0.5737
vt 0.5731 0.7947
vt 0.9799 0.7211
vt 0.9971 0.8053
vt 0.9799 0.8053
vt 0.6189 0.5789
vt 0.5817 0.6632
vt 0.5817 0.5789
vt 0.7966 0.5474
vt 0.4327 1
vt 0.4097 0.9158
vt 0.4327 0.9158
vt 0.3295 0.9158
vt 0.3066 1
vt 0.3066 0.9158
vt 0.4842 1
vt 0.4613 0.9158
vt 0.4842 0.9158
vt 0.7163 0.5474
vt 0.8653 0.6632
vt 0.7679 0.1263
vt 0.7393 0.0526
vt 0.7679 0.0526
vt 0.7364 0.5474
vt 0.8653 0.9684
vt 0.8367 0.8947
vt 0.8653 0.8947
vt 0.7564 0.8053
vt 0.51 1
vt 0.4871 0.9158
vt 0.51 0.9158
vt 0.2178 0.8521
vt 0.2264 0.8957
vt 0.1748 0.8808
vt 0.2149 0.8957
vt 0.1003 0.8957
vt 0.1088 0.8521
vt 0.1519 0.8808
vt 0.0487 0.9105
vt 0.0913 0.825
vt 0.0585 0.8313
vt 0.0684 0.7521
vt 0.0565 0.8106
vt 0.0565 0.6001
vt 0.0605 0.5586
vt 0.0838 0.5914
vt 0.0723 0.6278
vt 0.0838 0.5134
vt 0.1189 0.5373
vt 0.0946 0.5062
vt 0.1518 0.5145
vt 0.1862 0.5229
vt 0.1404 0.5229
vt 0.2321 0.5062
vt 0.2779 0.4895
vt 0.2429 0.5134
vt 0.2428 0.5914
vt 0.2078 0.5373
vt 0.2661 0.5586
vt 0.2543 0.6278
vt 0.2701 0.6001
vt 0.2701 0.8106
vt 0.2681 0.8313
vt 0.2354 0.825
vt 0.2583 0.7521
vt 0.0487 0.8053
vt 0.1175 0.5062
vt 0.0831 0.4978
vt 0.2779 0.5947
vt 0.3754 0.8957
vt 0.3839 0.8521
vt 0.4269 0.8808
vt 0.3238 0.9105
vt 0.3663 0.825
vt 0.3336 0.8313
vt 0.3434 0.7521
vt 0.3316 0.8106
vt 0.3316 0.6001
vt 0.3238 0.4895
vt 0.3356 0.5586
vt 0.3589 0.5914
vt 0.3474 0.6278
vt 0.3589 0.5134
vt 0.394 0.5373
vt 0.3696 0.5062
vt 0.5186 0.4978
vt 0.5072 0.5062
vt 0.4843 0.5062
vt 0.553 0.4895
vt 0.5179 0.5134
vt 0.5179 0.5914
vt 0.4828 0.5373
vt 0.5412 0.5586
vt 0.5294 0.6278
vt 0.5452 0.6001
vt 0.5452 0.8106
vt 0.553 0.9105
vt 0.5432 0.8313
vt 0.5105 0.825
vt 0.5334 0.7521
vt 0.4929 0.8521
vt 0.5014 0.8957
vt 0.4499 0.8808
vt 0.4499 0.5145
vt 0.4269 0.5062
vt 0.553 0.5947
vt 0.3868 0.8957
vt 0.4441 0.8957
vt 0.7536 0.8895
vt 0.7536 0.9737
vt 0.7507 0.9737
vt 0.7335 0.8947
vt 0.7507 0.8895
vt 0.7221 0.1316
vt 0.7393 0.1263
vt 0.5559 0.8895
vt 0.5559 0.9737
vt 0.6848 0.8895
vt 0.6676 0.9684
vt 0.6676 0.8947
vt 0.6877 0.8895
vt 0.7049 0.9684
vt 0.6877 0.9737
vt 0.9484 0.9737
vt 0.9484 0.8895
vt 0.8854 0.8895
vt 0.9026 0.9684
vt 0.8854 0.9737
vt 0.6562 0.0474
vt 0.6562 0.1316
vt 0.8825 0.8895
vt 0.851 0.1316
vt 0.8338 0.1316
vt 0.8195 0.8895
vt 0.8367 0.9684
vt 0.8195 0.9737
vt 0.6189 0.9737
vt 0.6017 0.8947
vt 0.6189 0.8895
vt 0.7192 0.0474
vt 0.702 0.1263
vt 0.7851 0.1316
vt 0.7851 0.0474
vt 0.6218 0.8895
vt 0.639 0.9684
vt 0.6218 0.9737
vt 0.8166 0.8895
vt 0.7994 0.9684
vt 0.9026 0.8947
vt 0.9312 0.9684
vt 0.3238 0.5947
vt 0.7335 0.9684
vt 0.7049 0.8947
vt 0.3037 1
vt 0.2808 0.9158
vt 0.3037 0.9158
vt 0.7937 0.4842
vt 0.7937 0.5474
vt 0.3553 1
vt 0.3324 0.9158
vt 0.3553 0.9158
vt 0.7966 0.7316
vt 0.6103 0.8684
vt 0.6963 0.9947
vt 0.7421 0.9947
vt 0.6304 0.9947
vt 0.6648 0.4737
vt 0.7966 0.0263
vt 0.5645 0.9947
vt 0.7622 0.9947
vt 0.6648 0.0263
vt 0.7106 0.0263
vt 0.6304 0.8684
vt 0.639 0.8947
vt 0.7421 0.8684
vt 0.6963 0.8684
vt 0.7765 0.0263
vt 0.7307 0.0263
vt 0.8739 0.8684
vt 0.8281 0.8684
vt 0.8281 0.9947
vt 0.7106 0.1526
vt 0.7622 0.8684
vt 0.808 0.8684
vt 0.894 0.9947
vt 0.7307 0.1526
vt 0.596 0.5632
vt 0.106 0.9105
vt 0.0487 0.9947
vt 0.4384 0.4895
vt 0.2779 0.7
vt 0.4957 0.4895
vt 0.0487 0.4053
vt 0.8367 0.5474
vt 0.5731 0.7316
vt 0.788 0.0474
vt 0.3811 0.9105
vt 0.4384 0.9105
vt 0.745 0.5737
vt 0.0029 0.4895
vt 0.4957 0.9105
vt 0.5452 0.7053
vt 0.5373 0.7107
vt 0.0029 0.7
vt 0.0487 0.7
vt 0.4155 0.5229
vt 0.1633 0.4053
vt 0.1633 0.4895
vt 0.553 0.7
vt 0.6762 0.4842
vt 0.2779 0.9947
vt 0.9713 0.6947
vt 0.8052 0.4579
vt 0.1633 0.9947
vt 0.1633 0.9105
vt 0.0565 0.7053
vt 0.0644 0.7107
vt 0.384 1
vt 0.6848 0.4579
vt 0.0029 0.9105
vt 0.2206 0.4895
vt 0.1977 0.4978
vt 0.2779 0.4053
vt 0.659 0.8053
vt 0.745 0.4579
vt 0.5559 0.8053
vt 0.553 0.8053
vt 0.3811 1
vt 0.4355 1
vt 0.616 0.5737
vt 0.5645 0.4737
vt 0.5559 0.5
vt 0.2206 0.4053
vt 0.1576 0.8957
vt 0.3811 0.4895
vt 0.404 0.4978
vt 0.1748 0.5062
vt 0.106 0.9947
vt 0.2623 0.7107
vt 0.0029 0.8053
vt 0.4613 0.5229
vt 0.3316 0.7053
vt 0.3395 0.7107
vt 0.2701 0.7053
vt 0.9971 0.7211
vt 0.7966 0.4842
vt 0.4097 1
vt 0.3295 1
vt 0.4613 1
vt 0.7364 0.4842
vt 0.4871 1
vt 0.7221 0.0474
vt 0.6848 0.9737
vt 0.8825 0.9737
vt 0.851 0.0474
vt 0.7192 0.1316
vt 0.8166 0.9737
vt 0.2808 1
vt 0.3324 1
vt 0.5645 0.8684
vt 0.6762 0.9947
vt 0.6246 0.4737
vt 0.8424 0.0263
vt 0.6103 0.9947
vt 0.808 0.9947
vt 0.6762 0.8684
vt 0.8739 0.9947
vt 0.6648 0.1526
vt 0.9398 0.9947
vt 0.7765 0.1526
s 1
f 827/1004 690/1005 811/1006
f 662/1007 658/1008 661/1009
f 649/1010 647/1011 651/1012
f 630/1013 638/1014 634/1015
f 646/1016 625/1017 627/1018
f 627/1019 631/1020 632/1021
f 685/1022 569/1023 571/1024
f 657/1025 643/1026 641/1027
f 674/1028 566/1029 680/1030
f 724/1031 753/1032 744/1033
f 611/1034 604/1035 610/1036
f 622/1037 618/1038 620/1039
f 679/1040 566/1041 567/1042
f 701/1043 733/1044 734/1045
f 705/1046 739/1047 704/1048
f 693/1049 818/1050 822/1051
f 574/1052 572/1053 667/1054
f 590/1055 573/1056 574/1052
f 647/1057 650/1058 651/1059
f 578/1060 571/1061 583/1062
f 594/1063 599/1064 593/1065
f 669/1066 580/1067 674/1028
f 597/1068 584/1069 587/1070
f 618/1071 598/1072 620/1073
f 605/1074 599/1064 600/1075
f 595/1076 587/1070 601/1077
f 603/1078 601/1079 587/1080
f 583/1062 595/1076 578/1060
f 630/1013 619/1081 629/1082
f 627/1019 650/1058 646/1083
f 824/1084 769/1085 820/1086
f 573/1056 593/1065 577/1087
f 588/1088 618/1089 603/1090
f 677/1091 668/1012 673/1092
f 642/1093 637/1094 639/1095
f 591/1096 575/1097 590/1055
f 610/1036 606/1098 611/1034
f 593/1065 589/1099 594/1063
f 662/1007 656/1100 659/1101
f 583/1062 568/1102 579/1103
f 608/1104 592/1105 607/1106
f 642/1094 619/1081 634/1015
f 660/1107 636/1108 644/1095
f 675/1109 683/1110 676/1111
f 636/1108 637/1093 644/1095
f 760/1112 730/1113 743/1114
f 591/1115 612/1116 607/1117
f 586/1118 620/1119 598/1072
f 748/1120 710/1121 765/1122
f 754/1123 731/1124 757/1125
f 641/1027 656/1126 657/1025
f 613/1127 635/1128 631/1020
f 761/1129 744/1033 753/1032
f 585/1130 583/1062 579/1103
f 594/1063 604/1035 600/1075
f 603/1131 586/1118 588/1088
f 629/1082 625/1017 630/1013
f 608/1132 612/1116 613/1127
f 596/1133 616/1134 612/1116
f 603/1135 584/1078 605/1080
f 607/1106 589/1099 591/1096
f 624/1039 635/1128 617/1136
f 653/1137 656/1100 638/1014
f 654/1138 662/1007 655/1139
f 615/1140 639/1141 622/1038
f 577/1087 580/1067 576/1142
f 632/1021 654/1138 650/1058
f 621/1143 639/1144 640/1145
f 613/1127 616/1134 617/1136
f 606/1098 629/1082 611/1034
f 637/1146 623/1147 633/1148
f 589/1099 610/1036 594/1063
f 660/1149 657/1025 656/1150
f 569/1023 568/1151 571/1024
f 570/1152 569/1153 684/1154
f 645/1155 648/1156 628/1157
f 608/1132 631/1020 626/1158
f 622/1038 604/1035 615/1140
f 617/1136 618/1037 624/1039
f 650/1058 655/1139 651/1059
f 669/1066 673/1092 668/1159
f 664/1160 576/1142 669/1066
f 695/1161 706/1162 707/1163
f 690/1005 807/1164 833/1165
f 647/1166 628/1157 646/1016
f 661/1009 655/1139 662/1007
f 672/1167 676/1168 683/1169
f 668/1159 664/1160 669/1066
f 640/1145 623/1147 621/1143
f 611/1034 619/1081 615/1140
f 626/1170 606/1098 608/1104
f 569/1153 567/1042 566/1171
f 568/1151 580/1067 581/1172
f 680/1030 673/1092 674/1028
f 568/1151 599/1064 584/1135
f 670/1010 681/1173 675/1109
f 750/1174 719/1175 713/1176
f 577/1087 599/1064 581/1172
f 567/1042 672/1167 679/1040
f 642/1094 638/1014 656/1100
f 643/1026 660/1177 644/1178
f 653/1137 658/1008 659/1101
f 672/1167 570/1152 671/1179
f 683/1169 679/1040 672/1167
f 625/1017 648/1156 630/1013
f 682/1180 677/1091 681/1173
f 681/1173 680/1030 683/1110
f 670/1181 663/1182 668/1183
f 667/1054 664/1160 666/1184
f 666/1184 663/1185 665/1186
f 644/1187 641/1027 643/1026
f 738/1188 737/1189 702/1190
f 714/1191 712/1192 713/1193
f 729/1194 727/1195 728/1196
f 586/1118 614/1197 588/1088
f 627/1018 609/1198 626/1170
f 721/1199 755/1200 752/1201
f 624/1202 621/1143 623/1147
f 709/1203 751/1204 764/1205
f 618/1037 602/1206 603/1078
f 724/1207 723/1208 699/1209
f 695/1210 770/1211 739/1212
f 771/1213 739/1212 770/1211
f 772/1214 737/1215 704/1216
f 737/1215 691/1217 702/1218
f 702/1218 773/1219 733/1220
f 774/1221 733/1220 773/1219
f 775/1222 690/1005 776/1223
f 776/1223 728/1224 727/1225
f 728/1224 777/1226 723/1227
f 777/1226 690/1005 778/1228
f 821/1229 718/1230 699/1231
f 780/1232 692/1233 781/1234
f 781/1234 713/1235 719/1236
f 713/1235 782/1237 714/1238
f 783/1239 714/1238 782/1237
f 784/1240 693/1049 785/1241
f 785/1241 707/1242 698/1243
f 707/1242 693/1049 695/1210
f 822/1051 771/1213 693/1049
f 819/1244 774/1221 691/1217
f 833/1165 779/1245 832/1246
f 834/1247 783/1239 692/1233
f 789/1248 708/1249 694/1250
f 708/1249 689/1251 706/1252
f 706/1252 790/1253 711/1254
f 791/1255 711/1254 790/1253
f 792/1256 688/1257 793/1258
f 793/1258 712/1259 715/1260
f 712/1259 794/1261 720/1262
f 794/1261 688/1257 795/1263
f 829/1264 797/1265 796/1266
f 797/1265 686/1267 798/1268
f 798/1268 729/1269 722/1270
f 729/1269 799/1271 700/1272
f 800/1273 700/1272 799/1271
f 801/1274 687/1275 802/1276
f 802/1276 738/1277 732/1278
f 738/1277 687/1275 736/1279
f 736/1279 803/1280 705/1281
f 820/1086 791/1255 689/1251
f 825/1282 814/1283 796/1266
f 827/1284 800/1273 686/1267
f 789/1248 805/1285 689/1251
f 705/1281 830/1286 805/1285
f 698/1287 710/1121 711/1288
f 694/1289 763/1290 739/1291
f 729/1292 755/1200 726/1293
f 702/1294 743/1114 738/1295
f 737/1296 735/1297 759/1298
f 695/1299 741/1300 708/1301
f 648/1156 653/1137 638/1014
f 712/1302 750/1174 713/1303
f 719/1304 745/1305 720/1306
f 734/1307 731/1124 701/1308
f 697/1309 709/1203 764/1205
f 761/1129 717/1310 716/1311
f 714/1312 747/1313 715/1314
f 732/1315 756/1316 733/1317
f 727/1318 725/1319 754/1123
f 722/1320 752/1201 723/1321
f 704/1322 742/1323 705/1324
f 707/1325 740/1326 748/1120
f 762/1327 746/1328 745/1305
f 834/1247 688/1257 812/1329
f 703/1330 749/1331 763/1290
f 632/1021 635/1128 636/1108
f 576/1142 573/1056 577/1087
f 720/1332 718/1333 719/1334
f 633/1148 639/1335 637/1336
f 711/1337 697/1338 698/1339
f 600/1075 620/1340 605/1074
f 760/1112 733/1341 756/1316
f 708/1342 703/1330 694/1343
f 735/1297 705/1344 742/1323
f 579/1103 584/1345 585/1130
f 699/1346 761/1129 753/1032
f 730/1113 738/1347 743/1114
f 740/1326 711/1348 710/1121
f 754/1123 734/1349 727/1350
f 704/1351 759/1298 758/1352
f 739/1353 749/1331 695/1354
f 723/1355 755/1200 728/1356
f 697/1357 751/1204 714/1358
f 709/1203 715/1359 747/1313
f 700/1360 731/1124 725/1319
f 748/1120 698/1361 707/1362
f 746/1328 720/1363 745/1305
f 721/1199 729/1364 726/1293
f 670/1010 682/1180 681/1173
f 570/1152 582/1365 569/1153
f 622/1038 620/1340 604/1035
f 608/1132 607/1117 612/1116
f 661/1009 651/1183 655/1139
f 662/1007 660/1107 656/1100
f 642/1094 634/1015 638/1014
f 611/1034 629/1082 619/1081
f 835/1366 687/1367 691/1217
f 814/1283 766/1368 796/1266
f 824/1084 788/1369 769/1085
f 660/1107 654/1138 636/1108
f 829/1264 807/1370 686/1267
f 568/1151 566/1029 580/1067
f 567/1042 582/1365 672/1167
f 690/1005 686/1371 807/1164
f 672/1167 671/1179 676/1168
f 643/1026 652/1372 660/1177
f 761/1129 716/1311 744/1033
f 617/1136 616/1134 618/1037
f 677/1091 678/1373 668/1012
f 636/1108 635/1128 637/1093
f 668/1159 663/1185 664/1160
f 647/1057 646/1083 650/1058
f 611/1034 615/1140 604/1035
f 674/1028 580/1067 566/1029
f 724/1031 699/1374 753/1032
f 680/1030 677/1091 673/1092
f 588/1088 614/1197 618/1089
f 607/1106 592/1105 589/1099
f 805/1285 818/1375 689/1251
f 596/1133 602/1206 616/1134
f 830/1286 767/1376 805/1285
f 657/1025 652/1372 643/1026
f 594/1063 610/1036 604/1035
f 650/1058 654/1138 655/1139
f 591/1096 589/1099 575/1097
f 642/1093 644/1141 637/1094
f 754/1123 725/1319 731/1124
f 637/1146 624/1377 623/1147
f 669/1066 674/1028 673/1092
f 690/1005 833/1165 832/1246
f 693/1049 820/1086 689/1251
f 796/1266 807/1370 829/1264
f 827/1004 686/1378 690/1005
f 627/1019 632/1021 650/1058
f 760/1112 756/1316 730/1113
f 803/1280 808/1379 767/1376
f 603/1078 602/1206 601/1079
f 608/1104 606/1098 592/1105
f 828/1380 701/1381 800/1273
f 642/1094 639/1141 619/1081
f 590/1055 575/1097 573/1056
f 626/1170 609/1198 606/1098
f 624/1039 637/1093 635/1128
f 653/1137 649/1181 658/1008
f 593/1065 575/1097 589/1099
f 610/1036 592/1105 606/1098
f 603/1135 587/1074 584/1078
f 647/1166 645/1155 628/1157
f 640/1145 633/1148 623/1147
f 662/1007 659/1101 658/1008
f 804/1382 811/1006 768/1383
f 717/1384 814/1283 825/1282
f 833/1165 766/1385 787/1386
f 573/1056 575/1097 593/1065
f 629/1082 609/1198 625/1017
f 804/1387 828/1380 800/1273
f 583/1062 597/1068 595/1076
f 603/1131 605/1388 586/1118
f 694/1250 805/1285 789/1248
f 585/1130 597/1068 583/1062
f 693/1049 689/1389 818/1050
f 750/1174 762/1327 719/1175
f 645/1155 649/1390 648/1156
f 613/1127 617/1136 635/1128
f 641/1027 642/1391 656/1126
f 788/1369 812/1329 769/1085
f 822/1051 767/1392 786/1393
f 768/1383 806/1394 774/1221
f 806/1394 734/1395 774/1221
f 748/1120 740/1326 710/1121
f 705/1046 694/1396 739/1047
f 569/1023 566/1029 568/1151
f 608/1132 613/1127 631/1020
f 646/1016 628/1157 625/1017
f 630/1013 648/1156 638/1014
f 586/1118 605/1397 620/1119
f 664/1160 572/1053 576/1142
f 591/1115 596/1133 612/1116
f 589/1099 592/1105 610/1036
f 632/1021 636/1108 654/1138
f 687/1398 819/1244 691/1217
f 787/1386 823/1399 809/1400
f 823/1399 688/1401 692/1233
f 685/1022 684/1402 569/1023
f 823/1399 780/1232 809/1400
f 675/1109 681/1173 683/1110
f 621/1143 622/1403 639/1144
f 649/1010 645/1404 647/1011
f 826/1405 801/1274 804/1387
f 627/1019 626/1158 631/1020
f 613/1127 612/1116 616/1134
f 615/1140 619/1081 639/1141
f 653/1137 659/1101 656/1100
f 654/1138 660/1107 662/1007
f 577/1087 581/1172 580/1067
f 606/1098 609/1198 629/1082
f 660/1149 652/1372 657/1025
f 695/1161 708/1406 706/1162
f 577/1087 593/1065 599/1064
f 701/1043 732/1407 733/1044
f 618/1071 614/1197 598/1072
f 597/1068 585/1130 584/1069
f 578/1060 685/1408 571/1061
f 672/1167 582/1365 570/1152
f 669/1066 576/1142 580/1067
f 569/1153 582/1365 567/1042
f 679/1040 680/1409 566/1041
f 568/1151 581/1172 599/1064
f 683/1169 680/1410 679/1040
f 775/1222 727/1225 734/1395
f 691/1217 774/1221 773/1219
f 692/1233 783/1239 782/1237
f 832/1246 778/1228 690/1005
f 787/1386 817/1411 823/1399
f 723/1227 778/1228 699/1231
f 811/1006 775/1222 768/1383
f 831/1412 704/1216 771/1213
f 795/1263 817/1413 813/1414
f 779/1245 816/1415 821/1229
f 786/1393 808/1416 835/1366
f 787/1386 816/1415 779/1245
f 786/1393 831/1412 771/1213
f 784/1240 698/1243 697/1417
f 835/1366 772/1214 786/1393
f 826/1418 768/1383 819/1244
f 693/1049 771/1213 770/1211
f 780/1232 719/1236 718/1230
f 595/1076 597/1068 587/1070
f 625/1017 628/1157 648/1156
f 682/1180 678/1373 677/1091
f 630/1013 634/1015 619/1081
f 583/1062 571/1061 568/1102
f 594/1063 600/1075 599/1064
f 574/1052 573/1056 572/1053
f 605/1074 584/1135 599/1064
f 622/1037 624/1340 618/1038
f 797/1265 722/1270 724/1419
f 720/1262 795/1263 717/1384
f 686/1267 800/1273 799/1271
f 814/1283 795/1263 813/1414
f 812/1329 792/1256 769/1085
f 769/1085 810/1420 791/1255
f 816/1415 809/1400 780/1232
f 813/1414 817/1413 766/1368
f 792/1256 715/1260 696/1421
f 796/1266 797/1265 724/1419
f 801/1274 732/1278 701/1381
f 810/1420 696/1421 791/1255
f 788/1369 815/1422 783/1239
f 824/1084 784/1240 788/1369
f 689/1251 791/1255 790/1253
f 815/1422 697/1417 783/1239
f 816/1415 718/1230 821/1229
f 735/1297 758/1352 759/1298
f 681/1173 677/1091 680/1030
f 670/1181 665/1423 663/1182
f 667/1054 572/1053 664/1160
f 666/1184 664/1160 663/1185
f 644/1187 642/1424 641/1027
f 738/1188 736/1425 737/1189
f 714/1191 715/1426 712/1192
f 729/1194 700/1427 727/1195
f 586/1118 598/1072 614/1197
f 627/1018 625/1017 609/1198
f 721/1199 726/1293 755/1200
f 624/1202 622/1428 621/1143
f 709/1203 747/1313 751/1204
f 618/1037 616/1134 602/1206
f 724/1207 722/1429 723/1208
f 695/1210 693/1049 770/1211
f 771/1213 704/1216 739/1212
f 772/1214 691/1217 737/1215
f 702/1218 691/1217 773/1219
f 774/1221 734/1395 733/1220
f 776/1223 690/1005 728/1224
f 728/1224 690/1005 777/1226
f 778/1228 779/1245 699/1231
f 779/1245 821/1229 699/1231
f 781/1234 692/1233 713/1235
f 713/1235 692/1233 782/1237
f 783/1239 697/1417 714/1238
f 785/1241 693/1049 707/1242
f 822/1051 786/1393 771/1213
f 819/1244 768/1383 774/1221
f 833/1165 787/1386 779/1245
f 834/1247 788/1369 783/1239
f 789/1248 689/1251 708/1249
f 706/1252 689/1251 790/1253
f 791/1255 696/1421 711/1254
f 793/1258 688/1257 712/1259
f 712/1259 688/1257 794/1261
f 829/1264 686/1267 797/1265
f 798/1268 686/1267 729/1269
f 729/1269 686/1267 799/1271
f 800/1273 701/1381 700/1272
f 802/1276 687/1275 738/1277
f 736/1279 687/1275 803/1280
f 820/1086 769/1085 791/1255
f 827/1284 804/1387 800/1273
f 705/1281 803/1280 830/1286
f 698/1287 765/1122 710/1121
f 694/1289 703/1330 763/1290
f 729/1292 728/1430 755/1200
f 702/1294 760/1112 743/1114
f 737/1296 736/1431 735/1297
f 695/1299 749/1331 741/1300
f 648/1156 649/1390 653/1137
f 712/1302 746/1328 750/1174
f 719/1304 762/1327 745/1305
f 734/1307 757/1125 731/1124
f 697/1309 696/1432 709/1203
f 761/1129 718/1433 717/1310
f 714/1312 751/1204 747/1313
f 732/1315 730/1113 756/1316
f 727/1318 700/1434 725/1319
f 722/1320 721/1199 752/1201
f 704/1322 758/1352 742/1323
f 707/1325 706/1435 740/1326
f 762/1327 750/1174 746/1328
f 834/1247 692/1233 688/1257
f 703/1330 741/1300 749/1331
f 632/1021 631/1020 635/1128
f 576/1142 572/1053 573/1056
f 720/1332 717/1436 718/1333
f 633/1148 640/1145 639/1335
f 711/1337 696/1437 697/1338
f 600/1075 604/1035 620/1340
f 760/1112 702/1438 733/1341
f 708/1342 741/1300 703/1330
f 735/1297 736/1439 705/1344
f 579/1103 568/1440 584/1345
f 699/1346 718/1441 761/1129
f 730/1113 732/1442 738/1347
f 740/1326 706/1443 711/1348
f 754/1123 757/1125 734/1349
f 704/1351 737/1444 759/1298
f 739/1353 763/1290 749/1331
f 723/1355 752/1201 755/1200
f 697/1357 764/1205 751/1204
f 709/1203 696/1445 715/1359
f 700/1360 701/1446 731/1124
f 748/1120 765/1122 698/1361
f 746/1328 712/1447 720/1363
f 721/1199 722/1448 729/1364
f 835/1366 808/1416 687/1367
f 814/1283 813/1414 766/1368
f 805/1285 767/1376 818/1375
f 830/1286 803/1280 767/1376
f 693/1049 824/1084 820/1086
f 796/1266 766/1368 807/1370
f 803/1280 687/1275 808/1379
f 828/1380 801/1274 701/1381
f 804/1382 827/1004 811/1006
f 717/1384 795/1263 814/1283
f 833/1165 807/1164 766/1385
f 804/1387 801/1274 828/1380
f 694/1250 705/1281 805/1285
f 788/1369 834/1247 812/1329
f 822/1051 818/1050 767/1392
f 768/1383 775/1222 806/1394
f 806/1394 775/1222 734/1395
f 687/1398 826/1418 819/1244
f 823/1399 817/1411 688/1401
f 823/1399 692/1233 780/1232
f 826/1405 687/1275 801/1274
f 775/1222 776/1223 727/1225
f 832/1246 779/1245 778/1228
f 787/1386 766/1385 817/1411
f 723/1227 777/1226 778/1228
f 811/1006 690/1005 775/1222
f 831/1412 772/1214 704/1216
f 795/1263 688/1257 817/1413
f 786/1393 767/1392 808/1416
f 787/1386 809/1400 816/1415
f 786/1393 772/1214 831/1412
f 784/1240 785/1241 698/1243
f 835/1366 691/1217 772/1214
f 826/1418 804/1382 768/1383
f 780/1232 781/1234 719/1236
f 797/1265 798/1268 722/1270
f 720/1262 794/1261 795/1263
f 812/1329 688/1257 792/1256
f 769/1085 792/1256 810/1420
f 792/1256 793/1258 715/1260
f 724/1419 717/1384 825/1282
f 825/1282 796/1266 724/1419
f 801/1274 802/1276 732/1278
f 810/1420 792/1256 696/1421
f 788/1369 784/1240 815/1422
f 824/1084 693/1049 784/1240
f 815/1422 784/1240 697/1417
f 816/1415 780/1232 718/1230
f 735/1297 742/1323 758/1352
o Label
v 0.3125 2.7593 -0.309
v 0.3125 2.8494 -0.2017
v 0.3125 2.2407 -0.309
v 0.3125 2.362 -0.3791
v 0.3125 2.1506 0.2017
v 0.3125 2.1027 0.0701
v 0.3125 2.362 0.3791
v 0.3125 2.2407 0.309
v 0.3125 2.638 0.3791
v 0.3125 2.5 0.4034
v 0.3125 2.8973 0.0701
v 0.3125 2.8494 0.2017
v 0.3125 2.7593 0.309
v 0.3125 2.1027 -0.0701
v 0.3125 2.1506 -0.2017
v 0.3125 2.8973 -0.0701
v 0.3125 2.5 -0.4034
v 0.3125 2.638 -0.3791
vt 0.9698 0.3264
vt 0.75 0.9397
vt 0.117 0.8264
vt 1 0.5
vt 0.9698 0.6736
vt 0.883 0.8264
vt 0.5868 1
vt 0.4132 1
vt 0.25 0.9397
vt 0.0302 0.6736
vt 0 0.5
vt 0.0302 0.3264
vt 0.117 0.1736
vt 0.25 0.0603
vt 0.75 0.0603
vt 0.4132 0
vt 0.5868 0
vt 0.883 0.1736
s 1
f 839/1449 837/1450 848/1451
f 839/1449 852/1452 853/1453
f 853/1453 836/1454 839/1449
f 836/1454 837/1450 839/1449
f 837/1450 851/1455 846/1456
f 846/1456 847/1457 837/1450
f 847/1457 848/1451 837/1450
f 848/1451 844/1458 845/1459
f 845/1459 842/1460 848/1451
f 842/1460 843/1461 848/1451
f 843/1461 840/1462 850/1463
f 840/1462 841/1464 850/1463
f 841/1464 849/1465 850/1463
f 850/1463 838/1466 839/1449
f 850/1463 839/1449 843/1461
f 839/1449 848/1451 843/1461
