o Bolts
v 0.125 2.3125 0.25
v 0.125 2.5625 0.25
v 0.125 2.3125 0.1875
v 0.125 2.5625 0.1875
v 1.5 2.3125 0.25
v 1.5 2.5625 0.25
v 1.5 2.3125 0.1875
v 1.5 2.5625 0.1875
v 0.125 2.3125 -0.25
v 0.125 2.5625 -0.25
v 0.125 2.3125 -0.1875
v 0.125 2.5625 -0.1875
v 1.5 2.3125 -0.25
v 1.5 2.5625 -0.25
v 1.5 2.3125 -0.1875
v 1.5 2.5625 -0.1875
v 0.125 0.6875 0.25
v 0.125 0.4375 0.25
v 0.125 0.6875 0.1875
v 0.125 0.4375 0.1875
v 1.5 0.6875 0.25
v 1.5 0.4375 0.25
v 1.5 0.6875 0.1875
v 1.5 0.4375 0.1875
v 0.125 0.6875 -0.25
v 0.125 0.4375 -0.25
v 0.125 0.6875 -0.1875
v 0.125 0.4375 -0.1875
v 1.5 0.6875 -0.25
v 1.5 0.4375 -0.25
v 1.5 0.6875 -0.1875
v 1.5 0.4375 -0.1875
vt 0.895 0.5046
vt 0.785 0.5138
vt 0.785 0.5046
vt 0.9 0.2844
vt 0.895 0.2477
vt 0.895 0.2844
vt 0.895 0.7248
vt 0.9 0.6881
vt 0.895 0.6881
vt 0.9 0.5046
vt 0.895 0.4679
vt 0.9 0.4679
vt 0.785 0.945
vt 0.895 0.9541
vt 0.785 0.9541
vt 0.785 0.4679
vt 0.895 0.4587
vt 0.78 0.945
vt 0.785 0.9083
vt 0.78 0.4679
vt 0.895 0.945
vt 0.9 0.9083
vt 0.9 0.945
vt 0.78 0.7248
vt 0.785 0.6881
vt 0.78 0.6881
vt 0.785 0.2936
vt 0.895 0.3303
vt 0.895 0.2936
vt 0.895 0.9083
vt 0.785 0.8991
vt 0.895 0.8991
vt 0.895 0.7339
vt 0.785 0.7706
vt 0.895 0.7706
vt 0.785 0.2844
vt 0.78 0.2477
vt 0.78 0.2844
vt 0.785 0.2477
vt 0.895 0.2385
vt 0.785 0.2385
vt 0.785 0.7248
vt 0.895 0.5505
vt 0.785 0.5505
vt 0.785 0.6789
vt 0.895 0.5138
vt 0.785 0.9908
vt 0.785 0.7339
vt 0.895 0.6789
vt 0.78 0.5046
vt 0.78 0.9083
vt 0.785 0.4587
vt 0.895 0.9908
vt 0.785 0.3303
vt 0.9 0.2477
vt 0.9 0.7248
s 1
f 10/1 16/2 14/3
f 28/4 25/5 26/6
f 22/7 23/8 21/9
f 12/10 9/11 11/12
f 2/13 8/14 4/15
f 13/16 11/17 9/11
f 4/18 1/19 2/13
f 14/3 15/20 13/16
f 6/21 7/22 8/23
f 20/24 17/25 19/26
f 32/27 27/28 28/29
f 5/30 3/31 7/32
f 24/33 19/34 23/35
f 30/36 31/37 32/38
f 2/13 5/30 6/21
f 10/1 13/16 9/11
f 29/39 27/40 31/41
f 18/42 21/9 17/25
f 16/2 11/43 15/44
f 18/42 24/33 22/7
f 21/9 19/45 17/25
f 10/1 12/46 16/2
f 26/6 29/39 30/36
f 8/14 3/47 4/15
f 10/1 14/3 13/16
f 26/6 30/36 32/27
f 18/42 20/48 24/33
f 18/42 22/7 21/9
f 30/36 29/39 31/37
f 24/33 20/48 19/34
f 29/39 25/5 27/40
f 26/6 25/5 29/39
f 21/9 23/49 19/45
f 14/3 16/50 15/20
f 5/30 1/19 3/31
f 2/13 1/19 5/30
f 4/18 3/51 1/19
f 13/16 15/52 11/17
f 16/2 12/46 11/43
f 6/21 5/30 7/22
f 12/10 10/1 9/11
f 20/24 18/42 17/25
f 8/14 7/53 3/47
f 32/27 31/54 27/28
f 2/13 6/21 8/14
f 28/4 27/55 25/5
f 22/7 24/56 23/8
f 26/6 32/27 28/29
o Bottom
v 0.375 0.6875 0.3125
v 0.375 0.75 0.3125
v 0.4375 0.6875 0.3125
v 0.4375 0.75 0.3125
v 0.375 0.6875 0.375
v 0.375 0.75 0.375
v 0.4375 0.75 0.375
v 0.4375 0.6875 0.375
v 0.125 0.75 0.4375
v 0.125 0.6875 0.4375
v 0.125 0.6875 0.5
v 0.125 0.75 0.5
v 0.375 0.4375 0.4375
v 0.4375 0.4375 0.4375
v 0.4375 0.4375 0.5
v 0.375 0.4375 0.5
v 0.4375 1 0.4375
v 0.375 1 0.4375
v 0.375 1 0.5
v 0.4375 1 0.5
v 0.6875 0.6875 0.4375
v 0.6875 0.75 0.4375
v 0.6875 0.75 0.5
v 0.6875 0.6875 0.5
v 0.5054 0.958 0.4375
v 0.5054 0.958 0.5
v 0.6455 0.8179 0.4375
v 0.6455 0.8179 0.5
v 0.6455 0.6196 0.4375
v 0.6455 0.6196 0.5
v 0.5054 0.4795 0.4375
v 0.5054 0.4795 0.5
v 0.3071 0.4795 0.4375
v 0.3071 0.4795 0.5
v 0.167 0.6196 0.4375
v 0.167 0.6196 0.5
v 0.167 0.8179 0.4375
v 0.167 0.8179 0.5
v 0.3071 0.958 0.4375
v 0.3071 0.958 0.5
v 0.5312 1.0205 0.4375
v 0.708 0.8438 0.4375
v 0.708 0.8438 0.5
v 0.5312 1.0205 0.5
v 0.708 0.5938 0.4375
v 0.708 0.5938 0.5
v 0.5312 0.417 0.4375
v 0.5312 0.417 0.5
v 0.2812 0.417 0.4375
v 0.2812 0.417 0.5
v 0.1045 0.5938 0.4375
v 0.1045 0.5938 0.5
v 0.1045 0.8438 0.4375
v 0.1045 0.8438 0.5
v 0.2812 1.0205 0.4375
v 0.2812 1.0205 0.5
v 0.375 0.6875 -0.3125
v 0.375 0.75 -0.3125
v 0.4375 0.6875 -0.3125
v 0.4375 0.75 -0.3125
v 0.375 0.6875 -0.375
v 0.375 0.75 -0.375
v 0.4375 0.75 -0.375
v 0.4375 0.6875 -0.375
v 0.125 0.75 -0.4375
v 0.125 0.6875 -0.4375
v 0.125 0.6875 -0.5
v 0.125 0.75 -0.5
v 0.375 0.4375 -0.4375
v 0.4375 0.4375 -0.4375
v 0.4375 0.4375 -0.5
v 0.375 0.4375 -0.5
v 0.4375 1 -0.4375
v 0.375 1 -0.4375
v 0.375 1 -0.5
v 0.4375 1 -0.5
v 0.6875 0.6875 -0.4375
v 0.6875 0.75 -0.4375
v 0.6875 0.75 -0.5
v 0.6875 0.6875 -0.5
v 0.5054 0.958 -0.4375
v 0.5054 0.958 -0.5
v 0.6455 0.8179 -0.4375
v 0.6455 0.8179 -0.5
v 0.6455 0.6196 -0.4375
v 0.6455 0.6196 -0.5
v 0.5054 0.4795 -0.4375
v 0.5054 0.4795 -0.5
v 0.3071 0.4795 -0.4375
v 0.3071 0.4795 -0.5
v 0.167 0.6196 -0.4375
v 0.167 0.6196 -0.5
v 0.167 0.8179 -0.4375
v 0.167 0.8179 -0.5
v 0.3071 0.958 -0.4375
v 0.3071 0.958 -0.5
v 0.5312 1.0205 -0.4375
v 0.708 0.8438 -0.4375
v 0.708 0.8438 -0.5
v 0.5312 1.0205 -0.5
v 0.708 0.5938 -0.4375
v 0.708 0.5938 -0.5
v 0.5312 0.417 -0.4375
v 0.5312 0.417 -0.5
v 0.2812 0.417 -0.4375
v 0.2812 0.417 -0.5
v 0.1045 0.5938 -0.4375
v 0.1045 0.5938 -0.5
v 0.1045 0.8438 -0.4375
v 0.1045 0.8438 -0.5
v 0.2812 1.0205 -0.4375
v 0.2812 1.0205 -0.5
vt 0.805 0.6605
vt 0.825 0.6697
vt 0.805 0.6697
vt 0.79 0.1927
vt 0.785 0.2294
vt 0.785 0.1927
vt 0.785 0.633
vt 0.78 0.6697
vt 0.78 0.633
vt 0.855 0.6514
vt 0.875 0.6605
vt 0.855 0.6605
vt 0.875 0.1651
vt 0.855 0.1743
vt 0.855 0.1651
vt 0.825 0.2018
vt 0.805 0.1927
vt 0.825 0.1927
vt 0.89 0.1835
vt 0.885 0.1468
vt 0.89 0.1468
vt 0.835 0.156
vt 0.83 0.1927
vt 0.83 0.156
vt 0.895 0.1927
vt 0.9 0.2294
vt 0.895 0.2294
vt 0.895 0.1835
vt 0.89 0.1927
vt 0.885 0.2294
vt 0.885 0.1927
vt 0.84 0.6697
vt 0.835 0.633
vt 0.84 0.633
vt 0.9 0.1468
vt 0.9 0.1835
vt 0.825 0.1376
vt 0.805 0.1284
vt 0.825 0.1284
vt 0.79 0.6239
vt 0.795 0.5872
vt 0.795 0.6239
vt 0.79 0.633
vt 0.875 0.156
vt 0.855 0.1468
vt 0.875 0.1468
vt 0.8 0.5872
vt 0.84 0.2294
vt 0.845 0.1927
vt 0.845 0.2294
vt 0.805 0.2202
vt 0.825 0.211
vt 0.825 0.2202
vt 0.89 0.5596
vt 0.895 0.5963
vt 0.89 0.5963
vt 0.895 0.633
vt 0.89 0.633
vt 0.88 0.1927
vt 0.885 0.633
vt 0.88 0.6697
vt 0.88 0.633
vt 0.835 0.1193
vt 0.83 0.1193
vt 0.845 0.5596
vt 0.85 0.5963
vt 0.845 0.5963
vt 0.885 0.6697
vt 0.84 0.5963
vt 0.84 0.5596
vt 0.885 0.5963
vt 0.845 0.156
vt 0.85 0.1927
vt 0.885 0.5596
vt 0.78 0.2294
vt 0.78 0.1927
vt 0.875 0.6697
vt 0.875 0.5596
vt 0.855 0.5688
vt 0.855 0.5596
vt 0.85 0.1193
vt 0.85 0.156
vt 0.83 0.5596
vt 0.835 0.5963
vt 0.83 0.5963
vt 0.845 0.633
vt 0.84 0.1927
vt 0.84 0.156
vt 0.85 0.2294
vt 0.835 0.2294
vt 0.835 0.1927
vt 0.805 0.1193
vt 0.825 0.1193
vt 0.78 0.156
vt 0.785 0.156
vt 0.835 0.5596
vt 0.8 0.1927
vt 0.795 0.156
vt 0.8 0.156
vt 0.805 0.6422
vt 0.825 0.6514
vt 0.805 0.6514
vt 0.875 0.2202
vt 0.855 0.2294
vt 0.855 0.2202
vt 0.85 0.6697
vt 0.845 0.6697
vt 0.88 0.5963
vt 0.88 0.5596
vt 0.825 0.6605
vt 0.795 0.6697
vt 0.8 0.633
vt 0.8 0.6697
vt 0.825 0.5872
vt 0.805 0.5963
vt 0.805 0.5872
vt 0.805 0.2294
vt 0.795 0.633
vt 0.88 0.1468
vt 0.885 0.1835
vt 0.88 0.1835
vt 0.855 0.211
vt 0.875 0.2018
vt 0.855 0.2018
vt 0.805 0.6055
vt 0.825 0.6147
vt 0.805 0.6147
vt 0.83 0.2294
vt 0.78 0.5872
vt 0.785 0.6239
vt 0.78 0.6239
vt 0.855 0.1835
vt 0.875 0.1743
vt 0.875 0.1835
vt 0.875 0.1927
vt 0.855 0.5872
vt 0.875 0.5963
vt 0.855 0.5963
vt 0.825 0.6055
vt 0.825 0.5963
vt 0.79 0.1193
vt 0.785 0.1193
vt 0.825 0.6239
vt 0.79 0.5872
vt 0.785 0.5872
vt 0.84 0.1193
vt 0.845 0.1193
vt 0.79 0.156
vt 0.855 0.6422
vt 0.875 0.633
vt 0.875 0.6422
vt 0.855 0.578
vt 0.875 0.5688
vt 0.875 0.578
vt 0.9 0.633
vt 0.895 0.6697
vt 0.795 0.1927
vt 0.9 0.5963
vt 0.825 0.6422
vt 0.805 0.633
vt 0.825 0.633
vt 0.78 0.1193
vt 0.805 0.1468
vt 0.805 0.1376
vt 0.795 0.2294
vt 0.79 0.2294
vt 0.83 0.633
vt 0.9 0.5596
vt 0.895 0.5596
vt 0.83 0.6697
vt 0.805 0.2018
vt 0.875 0.5872
vt 0.89 0.6697
vt 0.85 0.633
vt 0.805 0.156
vt 0.825 0.1468
vt 0.825 0.156
vt 0.795 0.1193
vt 0.8 0.1193
vt 0.785 0.6697
vt 0.79 0.6697
vt 0.835 0.6697
vt 0.855 0.156
vt 0.855 0.633
vt 0.9 0.1927
vt 0.8 0.2294
vt 0.895 0.1468
vt 0.805 0.211
vt 0.875 0.6514
vt 0.89 0.2294
vt 0.875 0.211
vt 0.85 0.5596
vt 0.88 0.2294
vt 0.825 0.2294
vt 0.805 0.6239
vt 0.8 0.6239
vt 0.855 0.6697
vt 0.875 0.2294
vt 0.9 0.6697
vt 0.855 0.1927
s 1
f 41/57 33/58 42/59
f 131/60 129/61 130/62
f 38/63 50/64 34/65
f 88/66 73/67 87/68
f 95/69 110/70 111/71
f 128/72 113/73 127/74
f 96/75 102/76 103/77
f 124/78 125/79 123/80
f 94/81 106/82 107/83
f 103/77 93/84 96/75
f 95/85 105/86 92/87
f 88/88 85/89 86/90
f 93/84 101/91 89/92
f 138/93 135/94 137/95
f 40/96 46/97 35/98
f 38/63 40/96 39/99
f 96/100 109/101 91/102
f 45/103 35/98 46/97
f 144/104 141/105 143/106
f 129/107 144/108 143/109
f 80/110 77/111 78/112
f 78/112 74/113 75/114
f 105/86 90/115 92/87
f 60/116 57/117 59/118
f 122/119 123/80 121/120
f 94/81 96/75 93/84
f 66/121 67/122 68/123
f 75/114 58/124 60/116
f 66/121 84/125 82/126
f 78/112 60/116 62/127
f 139/128 125/129 141/105
f 80/110 62/127 64/130
f 130/62 113/131 115/132
f 57/133 87/68 73/67
f 63/134 81/135 65/136
f 139/128 121/137 123/138
f 65/139 83/140 67/141
f 86/90 68/123 70/142
f 142/143 124/78 140/144
f 141/105 127/145 143/106
f 142/143 128/146 126/147
f 137/95 119/148 121/149
f 130/62 117/150 133/151
f 82/126 83/140 81/152
f 115/153 118/154 117/155
f 111/71 96/100 95/69
f 43/156 38/157 44/158
f 97/159 89/160 90/161
f 84/125 85/89 83/140
f 70/142 71/162 72/163
f 64/130 61/164 63/165
f 41/57 34/166 33/58
f 49/167 34/168 50/169
f 53/170 40/171 35/172
f 143/109 113/173 129/107
f 49/167 39/99 36/174
f 101/175 91/176 89/177
f 94/178 97/159 90/161
f 99/179 94/178 93/180
f 39/181 54/182 36/183
f 62/127 59/118 61/164
f 41/57 38/157 34/166
f 126/147 127/184 125/79
f 45/185 37/186 33/187
f 109/188 92/189 91/190
f 93/180 98/191 99/179
f 66/192 63/193 65/194
f 55/195 40/171 56/196
f 141/105 140/144 139/128
f 136/197 133/151 135/198
f 53/199 36/183 54/182
f 47/200 37/186 48/201
f 139/128 138/202 137/203
f 134/204 130/62 133/151
f 72/205 57/206 58/207
f 82/208 79/209 80/210
f 59/211 73/212 74/113
f 136/197 118/154 134/204
f 134/204 116/213 131/60
f 74/113 61/214 59/211
f 37/215 42/216 33/217
f 133/151 119/218 135/198
f 138/93 120/219 136/220
f 58/207 88/66 72/205
f 72/163 86/90 70/142
f 131/60 114/221 132/222
f 67/141 85/89 69/223
f 63/224 77/111 79/225
f 122/119 140/144 124/78
f 85/89 71/226 69/223
f 144/108 114/227 128/72
f 82/208 64/228 66/192
f 75/114 73/212 76/229
f 68/123 69/230 70/142
f 107/83 95/85 94/81
f 119/231 122/232 121/233
f 117/155 120/234 119/235
f 51/236 39/99 52/237
f 85/89 87/238 71/226
f 122/119 138/202 140/144
f 96/100 112/239 109/101
f 62/127 60/116 59/118
f 138/93 136/220 135/94
f 72/205 71/240 57/206
f 94/81 90/241 106/82
f 136/197 120/234 118/154
f 88/88 87/238 85/89
f 49/167 36/174 34/168
f 38/63 37/186 40/96
f 113/242 114/221 116/213
f 96/75 91/176 102/76
f 133/151 117/150 119/218
f 103/77 104/243 93/84
f 144/108 132/244 114/227
f 88/66 76/245 73/67
f 82/208 81/135 79/209
f 68/123 67/122 69/230
f 47/200 40/96 37/186
f 139/128 140/144 138/202
f 107/83 108/246 95/85
f 49/167 52/237 39/99
f 94/178 100/247 97/159
f 51/236 38/63 39/99
f 39/181 55/195 54/182
f 136/197 134/204 133/151
f 78/112 75/114 60/116
f 66/121 68/123 84/125
f 142/143 126/147 124/78
f 86/90 84/125 68/123
f 130/62 129/61 113/131
f 80/110 78/112 62/127
f 111/71 112/239 96/100
f 43/156 37/215 38/157
f 66/121 65/248 67/122
f 75/114 76/229 58/124
f 139/128 137/203 121/137
f 63/134 79/209 81/135
f 105/86 106/249 90/115
f 122/119 124/78 123/80
f 115/153 116/213 118/154
f 137/95 135/94 119/148
f 119/231 120/219 122/232
f 141/105 142/143 140/144
f 67/141 83/140 85/89
f 41/57 44/158 38/157
f 45/185 48/201 37/186
f 101/175 102/76 91/176
f 99/179 100/247 94/178
f 126/147 128/146 127/184
f 131/60 132/222 129/61
f 53/170 56/196 40/171
f 95/69 92/189 110/70
f 70/142 69/230 71/162
f 124/78 126/147 125/79
f 64/130 62/127 61/164
f 128/72 114/227 113/73
f 143/109 127/250 113/173
f 95/85 108/246 105/86
f 109/188 110/70 92/189
f 40/96 47/200 46/97
f 72/163 88/88 86/90
f 93/84 104/243 101/91
f 131/60 116/213 114/221
f 38/63 51/236 50/64
f 63/224 61/214 77/111
f 82/208 80/210 64/228
f 74/113 77/111 61/214
f 37/215 43/156 42/216
f 138/93 122/232 120/219
f 134/204 118/154 116/213
f 58/207 76/245 88/66
f 75/114 74/113 73/212
f 53/199 35/251 36/183
f 134/204 131/60 130/62
f 139/128 123/138 125/129
f 129/107 132/244 144/108
f 142/143 144/104 128/146
f 141/105 125/129 127/145
f 45/103 33/252 35/98
f 144/104 142/143 141/105
f 82/126 84/125 83/140
f 130/62 115/132 117/150
f 94/81 95/85 96/75
f 80/110 79/225 77/111
f 65/139 81/152 83/140
f 57/133 71/253 87/68
f 78/112 77/111 74/113
f 60/116 58/124 57/117
f 84/125 86/90 85/89
f 97/159 98/254 89/160
f 59/211 57/255 73/212
f 117/155 118/154 120/234
f 93/180 89/256 98/191
f 66/192 64/228 63/193
f 55/195 39/181 40/171
f 113/242 116/213 115/153
o Door_Cube.003
v 1.25 0.6875 0.0625
v -1.0625 0.6875 -0.0625
v 0.625 0.25 0.0625
v -1.25 0.6875 0.0625
v -1.25 0.6875 -0.0625
v -0.625 2.9375 0.0625
v 0.625 2.9375 0.0625
v 0.625 0.0625 0.0625
v 1.0625 0.25 -0.0625
v 1.0625 0.25 0.0625
v -1.0625 0.25 -0.0625
v -1.0625 0.25 0.0625
v 1.0625 2.75 0.0625
v -1.25 2.3125 0.0625
v -1.0625 2.75 -0.0625
v -1.0625 2.75 0.0625
v -1.0625 0.6875 0.0625
v -1.25 2.3125 -0.0625
v -1.0625 2.3125 0.0625
v 1.0625 2.75 -0.0625
v -0.625 0.6875 0.0625
v -0.625 2.3125 0.0625
v 0.625 0.6875 0.0625
v 0.625 2.3125 0.0625
v 1.0625 0.6875 0.0625
v -0.625 2.9375 -0.0625
v 1.0625 2.3125 0.0625
v -0.625 0.25 0.0625
v 1.25 0.6875 -0.0625
v 1.25 2.3125 0.0625
v 1.25 2.3125 -0.0625
v 0.625 0.0625 -0.0625
v -0.625 0.0625 0.0625
v -0.625 2.75 0.0625
v 0.625 0.25 -0.0625
v 0.625 2.75 0.0625
v 0.625 2.9375 -0.0625
v -1.0625 2.3125 -0.0625
v -0.625 0.6875 -0.0625
v -0.625 2.3125 -0.0625
v 0.625 0.6875 -0.0625
v 0.625 2.3125 -0.0625
v 1.0625 0.6875 -0.0625
v 1.0625 2.3125 -0.0625
v -0.625 0.25 -0.0625
v -0.625 0.0625 -0.0625
v -0.625 2.75 -0.0625
v 0.625 2.75 -0.0625
v -1.25 2.3125 0.125
v -1.1875 2.5625 0.125
v -1.25 2.3125 0.0625
v -1.1875 2.5625 0.0625
v 1.25 2.3125 0.125
v 1.1875 2.5625 0.125
v 1.25 2.3125 0.0625
v 1.1875 2.5625 0.0625
v -0.0625 2.3125 0.0625
v 0.0625 2.5625 0.0625
v 0.0625 2.3125 0.125
v 0.0625 2.5625 0.125
v -0.0625 2.5625 0.0625
v -0.0625 2.5625 0.125
v 0.0625 2.3125 0.0625
v -0.0625 2.3125 0.125
v -1.25 0.6875 0.125
v -1.1875 0.4375 0.125
v -1.25 0.6875 0.0625
v -1.1875 0.4375 0.0625
v 1.25 0.6875 0.125
v 1.1875 0.4375 0.125
v 1.25 0.6875 0.0625
v 1.1875 0.4375 0.0625
v -0.0625 0.6875 0.0625
v 0.0625 0.4375 0.0625
v 0.0625 0.6875 0.125
v 0.0625 0.4375 0.125
v -0.0625 0.4375 0.0625
v -0.0625 0.4375 0.125
v 0.0625 0.6875 0.0625
v -0.0625 0.6875 0.125
v -0.0625 1.75 0.125
v -0.0625 1.75 0.0625
v 0.0625 1.75 0.0625
v 0.0625 1.75 0.125
v -0.0625 1.875 0.125
v -0.0625 1.875 0.0625
v 0.0625 1.875 0.0625
v 0.0625 1.875 0.125
v -0.0625 2.9375 0.125
v -0.0625 2.9375 0.0625
v 0.0625 2.9375 0.0625
v 0.0625 2.9375 0.125
v -0.0625 1.25 0.0625
v -0.0625 1.25 0.125
v 0.0625 1.25 0.0625
v 0.0625 1.25 0.125
v -0.0625 1.125 0.0625
v -0.0625 1.125 0.125
v 0.0625 1.125 0.0625
v 0.0625 1.125 0.125
v -0.0625 0.0625 0.0625
v -0.0625 0.0625 0.125
v 0.0625 0.0625 0.0625
v 0.0625 0.0625 0.125
v 1.25 1.75 0.0625
v 1.25 1.75 0.125
v 1.25 1.875 0.0625
v 1.25 1.875 0.125
v 1.25 1.25 0.125
v 1.25 1.25 0.0625
v 1.25 1.125 0.125
v 1.25 1.125 0.0625
v -1.25 1.75 0.125
v -1.25 1.75 0.0625
v -1.25 1.875 0.125
v -1.25 1.875 0.0625
v -1.25 1.25 0.0625
v -1.25 1.25 0.125
v -1.25 1.125 0.0625
v -1.25 1.125 0.125
v -1.25 2.3125 -0.125
v -1.1875 2.5625 -0.125
v -1.25 2.3125 -0.0625
v -1.1875 2.5625 -0.0625
v 1.25 2.3125 -0.125
v 1.1875 2.5625 -0.125
v 1.25 2.3125 -0.0625
v 1.1875 2.5625 -0.0625
v -0.0625 2.3125 -0.0625
v 0.0625 2.5625 -0.0625
v 0.0625 2.3125 -0.125
v 0.0625 2.5625 -0.125
v -0.0625 2.5625 -0.0625
v -0.0625 2.5625 -0.125
v 0.0625 2.3125 -0.0625
v -0.0625 2.3125 -0.125
v -1.25 0.6875 -0.125
v -1.1875 0.4375 -0.125
v -1.25 0.6875 -0.0625
v -1.1875 0.4375 -0.0625
v 1.25 0.6875 -0.125
v 1.1875 0.4375 -0.125
v 1.25 0.6875 -0.0625
v 1.1875 0.4375 -0.0625
v -0.0625 0.6875 -0.0625
v 0.0625 0.4375 -0.0625
v 0.0625 0.6875 -0.125
v 0.0625 0.4375 -0.125
v -0.0625 0.4375 -0.0625
v -0.0625 0.4375 -0.125
v 0.0625 0.6875 -0.0625
v -0.0625 0.6875 -0.125
v -0.0625 1.75 -0.125
v -0.0625 1.75 -0.0625
v 0.0625 1.75 -0.0625
v 0.0625 1.75 -0.125
v -0.0625 1.875 -0.125
v -0.0625 1.875 -0.0625
v 0.0625 1.875 -0.0625
v 0.0625 1.875 -0.125
v -0.0625 2.9375 -0.125
v -0.0625 2.9375 -0.0625
v 0.0625 2.9375 -0.0625
v 0.0625 2.9375 -0.125
v -0.0625 1.25 -0.0625
v -0.0625 1.25 -0.125
v 0.0625 1.25 -0.0625
v 0.0625 1.25 -0.125
v -0.0625 1.125 -0.0625
v -0.0625 1.125 -0.125
v 0.0625 1.125 -0.0625
v 0.0625 1.125 -0.125
v -0.0625 0.0625 -0.0625
v -0.0625 0.0625 -0.125
v 0.0625 0.0625 -0.0625
v 0.0625 0.0625 -0.125
v 1.25 1.75 -0.0625
v 1.25 1.75 -0.125
v 1.25 1.875 -0.0625
v 1.25 1.875 -0.125
v 1.25 1.25 -0.125
v 1.25 1.25 -0.0625
v 1.25 1.125 -0.125
v 1.25 1.125 -0.0625
v -1.25 1.75 -0.125
v -1.25 1.75 -0.0625
v -1.25 1.875 -0.125
v -1.25 1.875 -0.0625
v -1.25 1.25 -0.0625
v -1.25 1.25 -0.125
v -1.25 1.125 -0.0625
v -1.25 1.125 -0.125
v 0.3125 2.1875 0.1875
v 0.3125 2.6875 0.1875
v 0.3125 2.1875 0.0625
v 0.3125 2.6875 0.0625
v 0.5 2.1875 0.1875
v 0.5 2.6875 0.1875
v 0.5 2.1875 0.0625
v 0.5 2.6875 0.0625
v 0.375 2.5625 0.25
v 0.375 2.625 0.25
v 0.375 2.5625 0.1875
v 0.375 2.625 0.1875
v 0.4375 2.5625 0.25
v 0.4375 2.625 0.25
v 0.4375 2.5625 0.1875
v 0.4375 2.625 0.1875
v 0.375 2.25 0.25
v 0.375 2.3125 0.25
v 0.375 2.25 0.1875
v 0.375 2.3125 0.1875
v 0.4375 2.25 0.25
v 0.4375 2.3125 0.25
v 0.4375 2.25 0.1875
v 0.4375 2.3125 0.1875
v 0.3125 2.1875 0.3125
v 0.3125 2.6875 0.3125
v 0.3125 2.1875 0.25
v 0.3125 2.6875 0.25
v 0.5 2.1875 0.3125
v 0.5 2.6875 0.3125
v 0.5 2.1875 0.25
v 0.5 2.6875 0.25
v 0.6875 2.1875 0.1875
v 0.6875 2.6875 0.1875
v 0.6875 2.1875 0.0625
v 0.6875 2.6875 0.0625
v 0.875 2.1875 0.1875
v 0.875 2.6875 0.1875
v 0.875 2.1875 0.0625
v 0.875 2.6875 0.0625
v 0.75 2.5625 0.25
v 0.75 2.625 0.25
v 0.75 2.5625 0.1875
v 0.75 2.625 0.1875
v 0.8125 2.5625 0.25
v 0.8125 2.625 0.25
v 0.8125 2.5625 0.1875
v 0.8125 2.625 0.1875
v 0.75 2.25 0.25
v 0.75 2.3125 0.25
v 0.75 2.25 0.1875
v 0.75 2.3125 0.1875
v 0.8125 2.25 0.25
v 0.8125 2.3125 0.25
v 0.8125 2.25 0.1875
v 0.8125 2.3125 0.1875
v 0.6875 2.1875 0.3125
v 0.6875 2.6875 0.3125
v 0.6875 2.1875 0.25
v 0.6875 2.6875 0.25
v 0.875 2.1875 0.3125
v 0.875 2.6875 0.3125
v 0.875 2.1875 0.25
v 0.875 2.6875 0.25
v 0.3125 2.1875 -0.1875
v 0.3125 2.6875 -0.1875
v 0.3125 2.1875 -0.0625
v 0.3125 2.6875 -0.0625
v 0.5 2.1875 -0.1875
v 0.5 2.6875 -0.1875
v 0.5 2.1875 -0.0625
v 0.5 2.6875 -0.0625
v 0.375 2.5625 -0.25
v 0.375 2.625 -0.25
v 0.375 2.5625 -0.1875
v 0.375 2.625 -0.1875
v 0.4375 2.5625 -0.25
v 0.4375 2.625 -0.25
v 0.4375 2.5625 -0.1875
v 0.4375 2.625 -0.1875
v 0.375 2.25 -0.25
v 0.375 2.3125 -0.25
v 0.375 2.25 -0.1875
v 0.375 2.3125 -0.1875
v 0.4375 2.25 -0.25
v 0.4375 2.3125 -0.25
v 0.4375 2.25 -0.1875
v 0.4375 2.3125 -0.1875
v 0.3125 2.1875 -0.3125
v 0.3125 2.6875 -0.3125
v 0.3125 2.1875 -0.25
v 0.3125 2.6875 -0.25
v 0.5 2.1875 -0.3125
v 0.5 2.6875 -0.3125
v 0.5 2.1875 -0.25
v 0.5 2.6875 -0.25
v 0.6875 2.1875 -0.1875
v 0.6875 2.6875 -0.1875
v 0.6875 2.1875 -0.0625
v 0.6875 2.6875 -0.0625
v 0.875 2.1875 -0.1875
v 0.875 2.6875 -0.1875
v 0.875 2.1875 -0.0625
v 0.875 2.6875 -0.0625
v 0.75 2.5625 -0.25
v 0.75 2.625 -0.25
v 0.75 2.5625 -0.1875
v 0.75 2.625 -0.1875
v 0.8125 2.5625 -0.25
v 0.8125 2.625 -0.25
v 0.8125 2.5625 -0.1875
v 0.8125 2.625 -0.1875
v 0.75 2.25 -0.25
v 0.75 2.3125 -0.25
v 0.75 2.25 -0.1875
v 0.75 2.3125 -0.1875
v 0.8125 2.25 -0.25
v 0.8125 2.3125 -0.25
v 0.8125 2.25 -0.1875
v 0.8125 2.3125 -0.1875
v 0.6875 2.1875 -0.3125
v 0.6875 2.6875 -0.3125
v 0.6875 2.1875 -0.25
v 0.6875 2.6875 -0.25
v 0.875 2.1875 -0.3125
v 0.875 2.6875 -0.3125
v 0.875 2.1875 -0.25
v 0.875 2.6875 -0.25
v 0.3125 0.8125 0.1875
v 0.3125 0.3125 0.1875
v 0.3125 0.8125 0.0625
v 0.3125 0.3125 0.0625
v 0.5 0.8125 0.1875
v 0.5 0.3125 0.1875
v 0.5 0.8125 0.0625
v 0.5 0.3125 0.0625
v 0.375 0.4375 0.25
v 0.375 0.375 0.25
v 0.375 0.4375 0.1875
v 0.375 0.375 0.1875
v 0.4375 0.4375 0.25
v 0.4375 0.375 0.25
v 0.4375 0.4375 0.1875
v 0.4375 0.375 0.1875
v 0.375 0.75 0.25
v 0.375 0.6875 0.25
v 0.375 0.75 0.1875
v 0.375 0.6875 0.1875
v 0.4375 0.75 0.25
v 0.4375 0.6875 0.25
v 0.4375 0.75 0.1875
v 0.4375 0.6875 0.1875
v 0.3125 0.8125 0.3125
v 0.3125 0.3125 0.3125
v 0.3125 0.8125 0.25
v 0.3125 0.3125 0.25
v 0.5 0.8125 0.3125
v 0.5 0.3125 0.3125
v 0.5 0.8125 0.25
v 0.5 0.3125 0.25
v 0.6875 0.8125 0.1875
v 0.6875 0.3125 0.1875
v 0.6875 0.8125 0.0625
v 0.6875 0.3125 0.0625
v 0.875 0.8125 0.1875
v 0.875 0.3125 0.1875
v 0.875 0.8125 0.0625
v 0.875 0.3125 0.0625
v 0.75 0.4375 0.25
v 0.75 0.375 0.25
v 0.75 0.4375 0.1875
v 0.75 0.375 0.1875
v 0.8125 0.4375 0.25
v 0.8125 0.375 0.25
v 0.8125 0.4375 0.1875
v 0.8125 0.375 0.1875
v 0.75 0.75 0.25
v 0.75 0.6875 0.25
v 0.75 0.75 0.1875
v 0.75 0.6875 0.1875
v 0.8125 0.75 0.25
v 0.8125 0.6875 0.25
v 0.8125 0.75 0.1875
v 0.8125 0.6875 0.1875
v 0.6875 0.8125 0.3125
v 0.6875 0.3125 0.3125
v 0.6875 0.8125 0.25
v 0.6875 0.3125 0.25
v 0.875 0.8125 0.3125
v 0.875 0.3125 0.3125
v 0.875 0.8125 0.25
v 0.875 0.3125 0.25
v 0.3125 0.8125 -0.1875
v 0.3125 0.3125 -0.1875
v 0.3125 0.8125 -0.0625
v 0.3125 0.3125 -0.0625
v 0.5 0.8125 -0.1875
v 0.5 0.3125 -0.1875
v 0.5 0.8125 -0.0625
v 0.5 0.3125 -0.0625
v 0.375 0.4375 -0.25
v 0.375 0.375 -0.25
v 0.375 0.4375 -0.1875
v 0.375 0.375 -0.1875
v 0.4375 0.4375 -0.25
v 0.4375 0.375 -0.25
v 0.4375 0.4375 -0.1875
v 0.4375 0.375 -0.1875
v 0.375 0.75 -0.25
v 0.375 0.6875 -0.25
v 0.375 0.75 -0.1875
v 0.375 0.6875 -0.1875
v 0.4375 0.75 -0.25
v 0.4375 0.6875 -0.25
v 0.4375 0.75 -0.1875
v 0.4375 0.6875 -0.1875
v 0.3125 0.8125 -0.3125
v 0.3125 0.3125 -0.3125
v 0.3125 0.8125 -0.25
v 0.3125 0.3125 -0.25
v 0.5 0.8125 -0.3125
v 0.5 0.3125 -0.3125
v 0.5 0.8125 -0.25
v 0.5 0.3125 -0.25
v 0.6875 0.8125 -0.1875
v 0.6875 0.3125 -0.1875
v 0.6875 0.8125 -0.0625
v 0.6875 0.3125 -0.0625
v 0.875 0.8125 -0.1875
v 0.875 0.3125 -0.1875
v 0.875 0.8125 -0.0625
v 0.875 0.3125 -0.0625
v 0.75 0.4375 -0.25
v 0.75 0.375 -0.25
v 0.75 0.4375 -0.1875
v 0.75 0.375 -0.1875
v 0.8125 0.4375 -0.25
v 0.8125 0.375 -0.25
v 0.8125 0.4375 -0.1875
v 0.8125 0.375 -0.1875
v 0.75 0.75 -0.25
v 0.75 0.6875 -0.25
v 0.75 0.75 -0.1875
v 0.75 0.6875 -0.1875
v 0.8125 0.75 -0.25
v 0.8125 0.6875 -0.25
v 0.8125 0.75 -0.1875
v 0.8125 0.6875 -0.1875
v 0.6875 0.8125 -0.3125
v 0.6875 0.3125 -0.3125
v 0.6875 0.8125 -0.25
v 0.6875 0.3125 -0.25
v 0.875 0.8125 -0.3125
v 0.875 0.3125 -0.3125
v 0.875 0.8125 -0.25
v 0.875 0.3125 -0.25
v 1.25 1.5 -0.0625
v -1.25 1.5 0.0625
v -1.0625 1.5 0.0625
v -0.625 1.5 0.0625
v 0.625 1.5 0.0625
v 1.0625 1.5 -0.0625
v 1.0625 1.5 0.0625
v 0.625 1.5 -0.0625
v -0.625 1.5 -0.0625
v -1.0625 1.5 -0.0625
v -1.25 1.5 -0.0625
v 1.25 1.5 0.0625
vt 0.065 0.2385
vt 0.165 0.1193
vt 0.165 0.2385
vt 0.985 0.8532
vt 0.97 0.8716
vt 0.97 0.8532
vt 0.555 0.2018
vt 0.64 0.1651
vt 0.645 0.2018
vt 0.71 0.8991
vt 0.695 0.8807
vt 0.71 0.8807
vt 0.73 0.8532
vt 0.725 0.8624
vt 0.725 0.8532
vt 0.76 0.4954
vt 0.775 0.422
vt 0.76 0.422
vt 0.95 0.7982
vt 0.955 0.8073
vt 0.95 0.8073
vt 0.535 0.4037
vt 0.45 0.367
vt 0.445 0.4037
vt 0.925 0.9725
vt 0.92 0.8991
vt 0.925 0.8991
vt 0.73 0.4954
vt 0.725 0.5046
vt 0.73 0.5046
vt 0.45 0.1651
vt 0.535 0.2018
vt 0.445 0.2018
vt 0.95 0.4862
vt 0.955 0.4954
vt 0.955 0.4862
vt 0.995 0.4954
vt 0.985 0.422
vt 0.985 0.4954
vt 0.64 0.2477
vt 0.66 0.2569
vt 0.66 0.2477
vt 0.675 0.5596
vt 0.665 0.7156
vt 0.665 0.5596
vt 0.535 0.4128
vt 0.45 0.4495
vt 0.445 0.4128
vt 0.955 0.7982
vt 0.95 0.789
vt 0.955 0.789
vt 0.665 0.7339
vt 0.675 0.8073
vt 0.665 0.8073
vt 0.725 0.5596
vt 0.73 0.5505
vt 0.725 0.5505
vt 0.71 0.9725
vt 0.72 0.8991
vt 0.72 0.9725
vt 0.56 0.9817
vt 0.555 0.9633
vt 0.56 0.9633
vt 0.03 0.055
vt 0.065 0.1193
vt 0.03 0.1193
vt 0.97 0.5413
vt 0.985 0.5229
vt 0.97 0.5229
vt 0.555 0.2477
vt 0.64 0.2569
vt 0.73 0.4495
vt 0.725 0.4587
vt 0.73 0.4587
vt 0.43 0.156
vt 0.45 0.156
vt 0.94 0.4954
vt 0.925 0.422
vt 0.925 0.4954
vt 0.535 0.1651
vt 0.535 0.156
vt 0.97 0.5138
vt 0.985 0.5138
vt 0.725 0.9633
vt 0.73 0.9541
vt 0.73 0.9633
vt 0.375 0.3578
vt 0.275 0.2385
vt 0.375 0.2385
vt 0.45 0.2569
vt 0.43 0.2477
vt 0.43 0.2569
vt 0.94 0.9725
vt 0.925 0.9817
vt 0.995 0.8532
vt 0.985 0.7798
vt 0.995 0.7798
vt 0.675 0.7156
vt 0.665 0.9817
vt 0.675 0.8257
vt 0.675 0.9817
vt 0.985 0.9725
vt 0.97 0.8991
vt 0.985 0.8991
vt 0.94 0.8532
vt 0.925 0.7798
vt 0.94 0.7798
vt 0.56 0.6422
vt 0.655 0.6514
vt 0.56 0.6514
vt 0.64 0.4495
vt 0.66 0.4587
vt 0.64 0.4587
vt 0.56 0.9174
vt 0.655 0.9083
vt 0.655 0.9174
vt 0.735 0.6147
vt 0.74 0.5413
vt 0.735 0.5413
vt 0.65 0.633
vt 0.555 0.6239
vt 0.65 0.6239
vt 0.425 0.3578
vt 0.41 0.2385
vt 0.425 0.2385
vt 0.555 0.7156
vt 0.56 0.6972
vt 0.56 0.7156
vt 0.535 0.5046
vt 0.445 0.4954
vt 0.535 0.4954
vt 0.375 0.4495
vt 0.275 0.422
vt 0.375 0.422
vt 0.555 0.211
vt 0.645 0.211
vt 0.95 0.6239
vt 0.955 0.633
vt 0.955 0.6239
vt 0.735 0.9725
vt 0.74 0.8991
vt 0.74 0.9725
vt 0.555 0.4495
vt 0.555 0.4587
vt 0.65 0.6055
vt 0.555 0.5963
vt 0.65 0.5963
vt 0.03 0.3578
vt 0.065 0.3578
vt 0.695 0.8532
vt 0.71 0.7798
vt 0.71 0.8532
vt 0.275 0.3578
vt 0.24 0.2385
vt 0.535 0.211
vt 0.45 0.2477
vt 0.535 0.2477
vt 0.005 0.2385
vt 0.015 0.1193
vt 0.015 0.2385
vt 0.73 0.8073
vt 0.725 0.8165
vt 0.725 0.8073
vt 0.555 0.3119
vt 0.645 0.3211
vt 0.645 0.3119
vt 0.685 0.8532
vt 0.695 0.7798
vt 0.555 0.4128
vt 0.645 0.4128
vt 0.065 0.422
vt 0.165 0.3578
vt 0.165 0.422
vt 0.74 0.8532
vt 0.755 0.8624
vt 0.74 0.8624
vt 0.065 0.4495
vt 0.165 0.4495
vt 0.66 0.9817
vt 0.665 0.8257
vt 0.03 0.422
vt 0.955 0.9633
vt 0.95 0.9541
vt 0.955 0.9541
vt 0.165 0.0275
vt 0.065 0.055
vt 0.065 0.0275
vt 0.68 0.8257
vt 0.68 0.9817
vt 0.445 0.3119
vt 0.535 0.3211
vt 0.535 0.3119
vt 0.45 0.4587
vt 0.43 0.4495
vt 0.64 0.3578
vt 0.66 0.367
vt 0.66 0.3578
vt 0.675 0.5505
vt 0.65 0.8257
vt 0.655 0.844
vt 0.65 0.844
vt 0.24 0.1193
vt 0.275 0.055
vt 0.275 0.1193
vt 0.95 0.9174
vt 0.955 0.9266
vt 0.95 0.9266
vt 0.655 0.9541
vt 0.655 0.9633
vt 0.65 0.8899
vt 0.555 0.8991
vt 0.555 0.8899
vt 0.955 0.844
vt 0.95 0.8349
vt 0.955 0.8349
vt 0.645 0.5046
vt 0.555 0.4954
vt 0.645 0.4954
vt 0.56 0.6881
vt 0.655 0.6972
vt 0.555 0.8532
vt 0.555 0.844
vt 0.945 0.8532
vt 0.945 0.7798
vt 0.55 0.9817
vt 0.545 0.8257
vt 0.55 0.8257
vt 0.655 0.5596
vt 0.65 0.578
vt 0.65 0.5596
vt 0.535 0.7339
vt 0.53 0.8073
vt 0.53 0.7339
vt 0.695 0.6147
vt 0.71 0.5413
vt 0.695 0.5413
vt 0.535 0.8073
vt 0.545 0.8073
vt 0.555 0.5596
vt 0.56 0.945
vt 0.655 0.9358
vt 0.655 0.945
vt 0.73 0.5688
vt 0.725 0.578
vt 0.73 0.578
vt 0.555 0.9174
vt 0.56 0.9358
vt 0.555 0.9358
vt 0.555 0.6697
vt 0.555 0.6514
vt 0.695 0.4954
vt 0.71 0.5138
vt 0.71 0.4954
vt 0.74 0.6147
vt 0.755 0.6239
vt 0.755 0.6147
vt 0.43 0.3578
vt 0.43 0.367
vt 0.73 0.9817
vt 0.725 0.9908
vt 0.725 0.9817
vt 0.535 0.9817
vt 0.53 0.8257
vt 0.535 0.8257
vt 0.725 0.5138
vt 0.73 0.5138
vt 0.535 0.367
vt 0.45 0.3578
vt 0.73 0.9358
vt 0.725 0.945
vt 0.725 0.9358
vt 0.995 0.9725
vt 0.995 0.8991
vt 0.755 0.4954
vt 0.755 0.422
vt 0.655 0.9817
vt 0.755 0.9725
vt 0.76 0.8991
vt 0.76 0.9725
vt 0.535 0.3028
vt 0.445 0.2936
vt 0.445 0.3028
vt 0.985 0.6147
vt 0.97 0.633
vt 0.985 0.633
vt 0.545 0.9908
vt 0.535 0.9908
vt 0.695 0.9725
vt 0.71 0.9908
vt 0.695 0.9908
vt 0.535 0.4587
vt 0.95 0.5596
vt 0.955 0.5688
vt 0.955 0.5596
vt 0.64 0.367
vt 0.555 0.3578
vt 0.555 0.367
vt 0.71 0.8716
vt 0.695 0.8716
vt 0.545 0.5596
vt 0.535 0.5505
vt 0.545 0.5505
vt 0.97 0.4954
vt 0.96 0.422
vt 0.96 0.4954
vt 0.545 0.9817
vt 0.73 0.844
vt 0.725 0.844
vt 0.97 0.9725
vt 0.96 0.8991
vt 0.955 0.4404
vt 0.95 0.4312
vt 0.95 0.4404
vt 0.535 0.7156
vt 0.545 0.7339
vt 0.73 0.7982
vt 0.725 0.7982
vt 0.555 0.1101
vt 0.645 0.1193
vt 0.555 0.1193
vt 0.94 0.4128
vt 0.925 0.4128
vt 0.55 0.7156
vt 0.545 0.7156
vt 0.72 0.7798
vt 0.72 0.8532
vt 0.685 0.4954
vt 0.695 0.422
vt 0.685 0.422
vt 0.015 0.055
vt 0.005 0.1193
vt 0.005 0.055
vt 0.65 0.8624
vt 0.555 0.8716
vt 0.555 0.8624
vt 0.755 0.8991
vt 0.74 0.8899
vt 0.755 0.8899
vt 0.76 0.8532
vt 0.775 0.7798
vt 0.775 0.8532
vt 0.55 0.7339
vt 0.2 0.2385
vt 0.215 0.1193
vt 0.215 0.2385
vt 0.41 0.3578
vt 0.03 0.2385
vt 0.955 0.9358
vt 0.95 0.9358
vt 0.95 0.9633
vt 0.955 0.9725
vt 0.95 0.9725
vt 0.675 0.7339
vt 0.68 0.8073
vt 0.955 0.9817
vt 0.95 0.9817
vt 0.655 0.6697
vt 0.56 0.6697
vt 0.655 0.7248
vt 0.56 0.7248
vt 0.95 0.844
vt 0.955 0.8532
vt 0.95 0.8532
vt 0.275 0.0275
vt 0.375 0.055
vt 0.94 0.8991
vt 0.665 0.9908
vt 0.95 0.8624
vt 0.955 0.8716
vt 0.95 0.8716
vt 0.92 0.9725
vt 0.905 0.8991
vt 0.65 0.8716
vt 0.65 0.8165
vt 0.555 0.8257
vt 0.555 0.8165
vt 0.68 0.5596
vt 0.955 0.8624
vt 0.96 0.7798
vt 0.97 0.7798
vt 0.66 0.7156
vt 0.66 0.5596
vt 0.985 0.7615
vt 0.71 0.422
vt 0.695 0.4037
vt 0.945 0.9725
vt 0.945 0.8991
vt 0.555 0.6055
vt 0.215 0.055
vt 0.225 0.1193
vt 0.95 0.8165
vt 0.955 0.8257
vt 0.95 0.8257
vt 0.71 0.633
vt 0.71 0.6147
vt 0.955 0.8165
vt 0.655 0.6789
vt 0.56 0.6789
vt 0.695 0.5229
vt 0.94 0.7706
vt 0.655 0.7156
vt 0.685 0.6147
vt 0.685 0.5413
vt 0.925 0.8624
vt 0.925 0.8532
vt 0.92 0.7798
vt 0.65 0.5872
vt 0.555 0.578
vt 0.92 0.8532
vt 0.905 0.7798
vt 0.73 0.6147
vt 0.725 0.6239
vt 0.73 0.6239
vt 0.655 0.6055
vt 0.655 0.6239
vt 0.73 0.6055
vt 0.725 0.6147
vt 0.725 0.633
vt 0.73 0.633
vt 0.72 0.422
vt 0.56 0.9908
vt 0.655 0.9908
vt 0.685 0.9725
vt 0.695 0.8991
vt 0.725 0.5872
vt 0.73 0.5872
vt 0.76 0.6147
vt 0.775 0.5413
vt 0.76 0.5413
vt 0.555 0.5505
vt 0.65 0.5505
vt 0.755 0.5413
vt 0.215 0.422
vt 0.225 0.3578
vt 0.225 0.422
vt 0.73 0.5596
vt 0.725 0.5688
vt 0.725 0.6055
vt 0.73 0.5963
vt 0.725 0.5963
vt 0.66 0.7339
vt 0.66 0.8073
vt 0.755 0.9817
vt 0.74 0.9817
vt 0.645 0.3028
vt 0.555 0.2936
vt 0.555 0.3028
vt 0.725 0.4862
vt 0.73 0.4771
vt 0.725 0.4771
vt 0.755 0.7798
vt 0.755 0.8532
vt 0.74 0.4128
vt 0.74 0.422
vt 0.53 0.5596
vt 0.53 0.7156
vt 0.725 0.9725
vt 0.73 0.4862
vt 0.725 0.4954
vt 0.725 0.4679
vt 0.73 0.4679
vt 0.73 0.9725
vt 0.735 0.4954
vt 0.735 0.422
vt 0.73 0.4404
vt 0.725 0.4495
vt 0.03 0.4495
vt 0.065 0.4679
vt 0.03 0.4679
vt 0.725 0.4404
vt 0.73 0.4312
vt 0.725 0.4312
vt 0.73 0.9174
vt 0.725 0.9266
vt 0.725 0.9174
vt 0.74 0.4954
vt 0.995 0.6147
vt 0.985 0.5413
vt 0.73 0.9266
vt 0.97 0.6147
vt 0.96 0.5413
vt 0.96 0.6147
vt 0.92 0.6147
vt 0.905 0.5413
vt 0.905 0.6147
vt 0.535 0.2569
vt 0.955 0.6055
vt 0.95 0.5963
vt 0.95 0.6055
vt 0.955 0.6147
vt 0.775 0.8991
vt 0.775 0.9725
vt 0.95 0.5688
vt 0.955 0.578
vt 0.95 0.5505
vt 0.2 0.4495
vt 0.165 0.4679
vt 0.95 0.6147
vt 0.755 0.5046
vt 0.945 0.6147
vt 0.94 0.5413
vt 0.94 0.6147
vt 0.76 0.7798
vt 0.445 0.1101
vt 0.535 0.1193
vt 0.445 0.1193
vt 0.925 0.6239
vt 0.94 0.6239
vt 0.925 0.5413
vt 0.94 0.5321
vt 0.925 0.5321
vt 0.925 0.6147
vt 0.92 0.5413
vt 0.64 0.156
vt 0.66 0.1651
vt 0.73 0.8349
vt 0.97 0.422
vt 0.95 0.4771
vt 0.695 0.7615
vt 0.71 0.7615
vt 0.95 0.5046
vt 0.955 0.5138
vt 0.955 0.5046
vt 0.95 0.4954
vt 0.985 0.4037
vt 0.97 0.4037
vt 0.015 0.422
vt 0.005 0.3578
vt 0.015 0.3578
vt 0.73 0.789
vt 0.95 0.4495
vt 0.955 0.4587
vt 0.955 0.4495
vt 0.945 0.4954
vt 0.94 0.422
vt 0.73 0.8624
vt 0.725 0.8716
vt 0.92 0.422
vt 0.92 0.4954
vt 0.905 0.422
vt 0.905 0.4954
vt 0.955 0.945
vt 0.675 0.9908
vt 0.2 0.3578
vt 0.215 0.3578
vt 0.55 0.5596
vt 0.375 0.1193
vt 0.41 0.1193
vt 0.725 0.789
vt 0.73 0.8165
vt 0.73 0.8257
vt 0.725 0.8257
vt 0.645 0.2936
vt 0.535 0.1101
vt 0.955 0.5505
vt 0.95 0.4587
vt 0.95 0.4679
vt 0.955 0.4679
vt 0.24 0.3578
vt 0.225 0.2385
vt 0.2 0.1193
vt 0.725 0.9083
vt 0.73 0.9083
vt 0.905 0.9725
vt 0.68 0.7339
vt 0.71 0.4037
vt 0.695 0.633
vt 0.97 0.7615
vt 0.375 0.0275
vt 0.535 0.5596
vt 0.74 0.7798
vt 0.905 0.8532
vt 0.66 0.156
vt 0.95 0.578
vt 0.555 0.5872
vt 0.165 0.0092
vt 0.74 0.7706
vt 0.445 0.211
vt 0.68 0.7156
vt 0.685 0.7798
vt 0.225 0.055
vt 0.71 0.5229
vt 0.165 0.055
vt 0.73 0.8716
vt 0.685 0.8991
vt 0.955 0.9174
vt 0.94 0.8624
vt 0.555 0.5046
vt 0.665 0.5505
vt 0.955 0.5963
vt 0.945 0.5413
vt 0.74 0.5046
vt 0.725 0.8349
vt 0.535 0.3578
vt 0.2 0.4679
vt 0.555 0.2569
vt 0.735 0.8532
vt 0.735 0.7798
vt 0.555 0.4037
vt 0.645 0.4037
vt 0.645 0.1101
vt 0.275 0.4495
vt 0.95 0.633
vt 0.95 0.5872
vt 0.955 0.5872
vt 0.55 0.8073
vt 0.555 0.6972
vt 0.445 0.5046
vt 0.005 0.422
vt 0.66 0.4495
vt 0.555 0.3211
vt 0.56 0.9083
vt 0.96 0.8532
vt 0.535 0.4495
vt 0.66 0.8257
vt 0.555 0.9817
vt 0.445 0.3211
vt 0.925 0.7706
vt 0.43 0.4587
vt 0.995 0.422
vt 0.555 0.633
vt 0.945 0.422
vt 0.655 0.8257
vt 0.24 0.055
vt 0.72 0.4954
vt 0.56 0.9541
vt 0.43 0.1651
vt 0.65 0.8991
vt 0.775 0.6147
vt 0.655 0.6881
vt 0.65 0.8532
vt 0.985 0.8716
vt 0.755 0.4128
vt 0.655 0.578
vt 0.725 0.9541
vt 0.555 0.1651
vt 0.995 0.5413
vt 0.94 0.9817
vt 0.695 0.5138
vt 0.74 0.6239
vt 0.73 0.9908
vt 0.53 0.9817
vt 0.555 0.156
vt 0.925 0.5046
vt 0.94 0.5046
vt 0.03 0.0275
vt 0.065 0.0092
vt 0.95 0.945
vt 0.755 0.7706
vt 0.985 0.8807
vt 0.97 0.9908
vt 0.72 0.5413
vt 0.95 0.9083
vt 0.955 0.9083
vt 0.955 0.9908
vt 0.95 0.9908
vt 0.2 0.055
vt 0.74 0.5321
vt 0.41 0.055
vt 0.94 0.8899
vt 0.2 0.0275
vt 0.2 0.0092
vt 0.41 0.422
vt 0.425 0.1193
vt 0.24 0.422
vt 0.655 0.8899
vt 0.655 0.8716
vt 0.2 0.422
vt 0.775 0.4954
vt 0.73 0.945
vt 0.955 0.4771
vt 0.655 0.6422
vt 0.95 0.5138
vt 0.96 0.9725
vt 0.955 0.4312
vt 0.735 0.8991
vt 0.535 0.2936
vt 0.03 0.0092
vt 0.97 0.8807
vt 0.985 0.9908
vt 0.72 0.6147
vt 0.755 0.5321
vt 0.925 0.8899
s 1
f 600/257 183/258 601/259
f 434/260 440/261 438/262
f 296/263 282/264 281/265
f 341/266 339/267 343/268
f 382/269 383/270 384/271
f 528/272 523/273 527/274
f 450/275 456/276 454/277
f 219/278 214/279 213/280
f 430/281 431/282 429/283
f 510/284 511/285 509/286
f 286/287 291/288 285/289
f 570/290 576/291 572/292
f 564/293 561/294 562/295
f 270/296 271/297 269/298
f 318/299 316/300 320/301
f 208/302 194/303 193/304
f 452/305 449/306 451/307
f 312/308 297/309 300/310
f 484/311 481/312 483/313
f 342/314 343/315 344/316
f 259/317 258/318 257/319
f 153/320 185/321 187/322
f 533/323 531/324 535/325
f 276/326 272/327 270/296
f 518/328 519/329 517/330
f 286/287 287/331 288/332
f 586/333 589/334 590/335
f 292/336 288/332 290/337
f 562/295 568/338 564/339
f 348/340 345/341 346/342
f 168/343 596/344 597/345
f 268/346 265/347 267/348
f 426/349 432/350 430/281
f 436/351 433/352 435/353
f 314/354 312/308 316/300
f 308/355 301/356 305/357
f 402/358 405/359 401/360
f 458/361 461/362 457/363
f 328/364 316/365 327/366
f 198/367 199/368 200/369
f 264/370 241/371 242/372
f 492/373 489/374 491/375
f 332/376 301/377 331/378
f 174/379 599/380 604/381
f 323/382 322/383 324/384
f 197/385 207/386 199/387
f 151/388 178/389 180/390
f 275/391 270/296 269/392
f 541/393 539/394 543/395
f 364/396 361/397 362/398
f 204/399 200/369 202/400
f 329/401 298/402 330/403
f 188/404 600/257 186/405
f 370/406 373/407 374/408
f 166/409 595/410 596/344
f 280/411 266/412 278/413
f 604/414 173/415 593/416
f 390/417 391/418 392/419
f 213/420 223/421 219/422
f 372/423 369/424 370/406
f 198/367 203/425 197/426
f 192/427 184/428 191/429
f 394/430 400/431 396/432
f 181/433 191/429 170/434
f 307/435 304/436 308/355
f 164/437 186/405 192/427
f 412/438 409/439 411/440
f 190/441 179/442 176/443
f 305/357 302/444 306/445
f 224/446 211/447 209/448
f 196/449 193/450 194/303
f 212/451 209/452 211/453
f 320/301 317/454 318/299
f 255/455 254/456 253/457
f 161/458 172/459 165/460
f 418/461 424/462 422/463
f 257/319 226/464 225/465
f 252/466 231/467 232/468
f 444/469 441/470 443/471
f 208/472 195/473 201/474
f 321/475 300/476 322/383
f 253/457 239/477 240/478
f 460/479 457/363 459/480
f 235/481 232/482 231/483
f 335/484 334/485 336/486
f 238/487 226/488 237/489
f 466/490 469/491 465/492
f 232/482 225/493 228/494
f 334/485 314/495 336/486
f 261/496 238/497 237/498
f 486/499 487/500 485/501
f 263/502 262/503 261/504
f 327/366 326/505 328/506
f 498/507 504/508 502/509
f 490/510 496/511 494/512
f 214/279 215/513 213/514
f 349/515 347/516 351/517
f 233/518 230/519 229/520
f 509/286 507/521 505/522
f 220/523 216/524 214/279
f 357/525 355/526 359/527
f 404/528 401/360 403/529
f 526/530 527/274 525/531
f 259/317 225/465 229/532
f 366/533 367/534 368/535
f 269/536 279/537 275/538
f 530/539 536/540 532/541
f 233/518 235/542 234/543
f 338/544 344/545 340/546
f 194/303 205/547 196/449
f 546/548 552/549 548/550
f 210/551 221/552 222/553
f 370/406 376/554 372/555
f 248/556 245/557 247/558
f 566/559 567/560 568/561
f 236/562 229/520 232/482
f 378/563 384/271 380/564
f 406/565 407/566 405/359
f 580/567 577/568 578/569
f 242/570 240/571 238/487
f 386/572 392/419 388/573
f 285/574 295/575 287/576
f 589/334 587/577 591/578
f 248/556 243/579 244/580
f 374/408 375/581 376/582
f 500/583 497/584 499/585
f 153/586 145/587 154/588
f 249/589 228/590 227/591
f 365/592 363/593 367/594
f 400/595 395/596 396/597
f 239/598 228/494 240/571
f 602/599 149/600 603/601
f 171/602 597/345 599/380
f 593/416 187/322 598/603
f 422/463 423/604 421/605
f 410/606 416/607 414/608
f 310/609 298/610 297/309
f 414/608 415/611 413/612
f 327/366 312/613 325/614
f 324/384 303/615 323/616
f 442/617 448/618 446/619
f 177/620 147/621 172/459
f 426/349 429/283 425/622
f 305/357 307/623 308/355
f 445/624 443/625 441/626
f 432/627 427/628 431/282
f 250/629 232/468 228/590
f 256/630 244/631 243/632
f 317/633 314/354 318/299
f 446/619 447/634 445/624
f 438/262 439/635 437/636
f 320/301 315/637 319/638
f 437/636 435/639 433/352
f 501/640 499/641 497/584
f 434/260 437/636 433/352
f 428/642 425/622 427/643
f 331/378 297/644 329/401
f 155/645 148/646 149/600
f 338/544 341/266 342/314
f 262/503 242/372 238/497
f 453/647 451/648 449/649
f 466/490 472/650 470/651
f 454/277 455/652 453/647
f 240/571 225/493 238/487
f 325/614 311/653 326/654
f 469/491 467/655 465/492
f 461/362 459/656 457/363
f 322/383 304/657 324/384
f 468/658 465/492 467/659
f 498/507 501/640 497/584
f 458/361 464/660 462/661
f 462/661 463/662 461/362
f 333/663 310/664 334/485
f 464/665 459/666 463/662
f 478/667 479/668 477/669
f 331/378 330/670 332/671
f 474/672 480/673 478/667
f 477/669 475/674 473/675
f 502/509 503/676 501/640
f 260/677 229/532 230/678
f 340/679 337/680 338/544
f 485/501 483/681 481/682
f 496/683 491/684 495/685
f 336/486 313/686 335/687
f 490/510 493/688 489/374
f 494/512 495/685 493/688
f 159/689 158/690 160/691
f 482/692 488/693 486/499
f 476/694 473/695 475/696
f 311/697 300/310 299/698
f 362/398 368/699 364/700
f 280/701 267/702 265/703
f 508/704 505/705 507/706
f 394/430 397/707 398/708
f 525/531 523/709 521/710
f 245/711 242/570 241/712
f 346/342 352/713 348/340
f 506/714 512/715 510/284
f 517/330 515/716 513/717
f 350/718 351/517 352/713
f 524/719 521/710 523/720
f 514/721 520/722 518/328
f 164/723 151/724 157/725
f 516/726 513/727 515/728
f 354/729 360/730 356/731
f 522/732 525/531 521/710
f 532/733 529/734 530/539
f 358/735 359/527 360/730
f 530/539 533/323 534/736
f 534/736 535/737 536/738
f 560/739 555/740 556/741
f 266/412 277/742 278/413
f 362/398 365/592 366/533
f 540/743 537/744 538/745
f 538/745 544/746 540/743
f 368/535 363/747 364/748
f 550/749 551/750 552/549
f 548/550 545/751 546/548
f 159/752 150/753 170/434
f 542/754 543/395 544/746
f 522/732 528/755 526/530
f 556/756 553/757 554/758
f 398/708 399/759 400/595
f 296/760 283/761 289/762
f 554/758 560/763 556/764
f 557/765 555/766 559/767
f 558/768 559/769 560/739
f 284/770 281/771 282/264
f 380/564 377/772 378/563
f 562/295 565/773 566/559
f 572/292 569/774 570/290
f 373/407 371/775 375/776
f 573/777 571/778 575/779
f 574/780 575/779 576/291
f 565/773 563/781 567/782
f 164/783 174/784 175/785
f 388/573 385/786 386/572
f 582/787 583/788 584/789
f 588/790 585/791 586/333
f 381/792 379/793 383/270
f 590/335 591/794 592/795
f 592/795 587/796 588/797
f 421/605 423/604 419/798
f 410/606 412/438 416/607
f 175/785 598/603 188/404
f 590/335 589/334 591/794
f 516/726 514/721 513/727
f 336/486 314/495 313/686
f 305/357 306/799 307/623
f 182/800 603/601 162/801
f 249/589 250/629 228/590
f 331/378 329/401 330/670
f 596/344 161/458 165/460
f 368/535 367/534 363/747
f 358/735 357/525 359/527
f 498/507 502/509 501/640
f 248/556 247/802 243/579
f 599/380 167/803 169/804
f 388/573 387/805 385/786
f 324/384 304/657 303/615
f 262/503 264/370 242/372
f 428/642 426/349 425/622
f 414/608 416/607 415/611
f 389/806 385/807 387/808
f 280/701 273/809 267/702
f 494/512 496/683 495/685
f 260/677 259/317 229/532
f 514/721 516/726 520/722
f 296/760 281/810 283/761
f 548/550 547/811 545/751
f 266/412 268/346 277/742
f 477/669 479/668 475/674
f 581/812 577/813 579/814
f 175/785 593/416 598/603
f 163/815 158/690 594/816
f 602/599 146/817 149/600
f 400/595 399/759 395/596
f 356/731 355/818 353/819
f 596/344 595/410 161/458
f 256/630 255/455 244/631
f 432/627 428/820 427/628
f 310/609 309/821 298/610
f 501/640 503/822 499/641
f 240/571 228/494 225/493
f 466/490 468/823 472/650
f 437/636 439/824 435/639
f 177/620 152/825 147/621
f 592/795 591/794 587/796
f 468/658 466/490 465/492
f 595/410 148/646 161/458
f 245/711 246/826 242/570
f 394/430 393/827 397/707
f 490/510 494/512 493/688
f 464/665 460/828 459/666
f 184/428 602/599 182/800
f 534/736 533/323 535/737
f 524/719 522/732 521/710
f 162/801 594/816 158/690
f 284/770 283/829 281/771
f 557/765 553/757 555/766
f 550/749 549/830 551/750
f 522/732 526/530 525/531
f 174/784 593/416 175/785
f 333/663 309/831 310/664
f 595/410 594/816 148/646
f 174/784 604/414 593/416
f 177/832 190/441 176/443
f 151/724 181/433 170/434
f 248/556 246/826 245/557
f 565/773 561/294 563/781
f 500/583 498/507 497/584
f 374/408 373/407 375/581
f 397/707 393/827 395/833
f 365/592 361/397 363/593
f 593/416 173/415 187/322
f 171/602 168/343 597/345
f 329/401 297/644 298/402
f 589/334 585/791 587/577
f 582/787 581/812 583/788
f 442/617 444/469 448/618
f 280/411 265/834 266/412
f 445/624 447/634 443/625
f 446/619 448/618 447/634
f 317/633 313/835 314/354
f 372/423 371/836 369/424
f 327/366 316/365 312/613
f 155/645 156/837 148/646
f 331/378 301/377 297/644
f 181/433 192/427 191/429
f 453/647 455/652 451/648
f 469/491 471/838 467/655
f 325/614 312/613 311/653
f 190/441 189/839 179/442
f 434/260 438/262 437/636
f 604/414 145/587 173/415
f 381/792 377/840 379/793
f 212/451 210/551 209/452
f 474/672 476/694 480/673
f 485/501 487/500 483/681
f 340/679 339/841 337/680
f 418/461 420/842 424/462
f 458/361 460/843 464/660
f 311/697 312/308 300/310
f 476/694 474/672 473/695
f 208/472 193/844 195/473
f 508/704 506/714 505/705
f 506/714 508/704 512/715
f 346/342 350/718 352/713
f 235/481 236/562 232/482
f 159/689 162/801 158/690
f 320/301 319/845 317/454
f 354/729 358/735 360/730
f 232/482 229/520 225/493
f 530/539 529/734 533/323
f 540/743 539/846 537/744
f 362/398 361/397 365/592
f 263/502 264/370 262/503
f 164/723 181/433 151/724
f 556/756 555/847 553/757
f 522/732 524/848 528/755
f 214/279 216/524 215/513
f 554/758 558/768 560/763
f 562/295 561/294 565/773
f 380/564 379/849 377/772
f 220/523 218/850 216/524
f 159/752 160/851 150/753
f 334/485 310/664 314/495
f 276/326 274/852 272/327
f 373/407 369/424 371/775
f 599/380 597/345 167/803
f 482/692 484/311 488/693
f 542/754 541/393 543/395
f 182/800 602/599 603/601
f 396/853 395/854 393/827
f 546/548 550/749 552/549
f 370/406 374/408 376/554
f 236/562 233/518 229/520
f 578/569 582/787 584/789
f 224/855 209/856 210/551
f 378/563 382/269 384/271
f 566/559 565/773 567/560
f 184/428 601/259 602/599
f 285/574 291/857 295/575
f 242/570 244/580 240/571
f 275/391 276/326 270/296
f 153/586 173/415 145/587
f 151/388 150/858 178/389
f 541/393 537/859 539/394
f 549/830 545/860 547/861
f 239/598 227/862 228/494
f 188/404 598/603 600/257
f 323/382 321/863 322/383
f 370/406 369/424 373/407
f 422/463 424/462 423/604
f 166/409 163/815 595/410
f 174/379 171/602 599/380
f 197/385 203/864 207/386
f 386/572 390/417 392/419
f 164/783 157/865 174/784
f 198/367 197/866 199/368
f 390/417 389/806 391/418
f 426/349 430/281 429/283
f 213/420 215/867 223/421
f 484/311 482/692 481/312
f 264/370 263/868 241/371
f 250/629 252/466 232/468
f 198/367 204/399 203/425
f 452/305 450/275 449/306
f 192/427 186/405 184/428
f 438/262 440/869 439/635
f 394/430 398/708 400/431
f 208/302 206/870 194/303
f 312/308 310/609 297/309
f 492/373 490/510 489/374
f 307/435 303/871 304/436
f 342/314 341/266 343/315
f 164/437 188/404 186/405
f 338/544 337/680 341/266
f 412/438 410/606 409/439
f 259/317 260/872 258/318
f 270/296 272/327 271/297
f 454/277 456/276 455/652
f 305/357 301/356 302/444
f 153/320 179/442 185/321
f 224/446 217/873 211/447
f 461/362 463/874 459/656
f 196/449 195/875 193/450
f 533/323 529/734 531/324
f 564/293 563/876 561/294
f 318/299 314/354 316/300
f 332/376 302/877 301/377
f 588/790 587/878 585/791
f 255/455 256/879 254/456
f 478/667 480/673 479/668
f 161/458 156/880 172/459
f 518/328 520/722 519/329
f 430/281 432/627 431/282
f 502/509 504/881 503/676
f 257/319 258/882 226/464
f 286/287 285/883 287/331
f 252/466 251/884 231/467
f 496/683 492/885 491/684
f 444/469 442/617 441/470
f 586/333 585/791 589/334
f 219/278 220/523 214/279
f 510/284 512/715 511/285
f 321/475 299/886 300/476
f 292/336 286/287 288/332
f 253/457 254/887 239/477
f 362/398 366/533 368/699
f 460/479 458/361 457/363
f 562/295 566/559 568/338
f 434/260 436/888 440/261
f 525/531 527/889 523/709
f 335/484 333/890 334/485
f 348/340 347/891 345/341
f 238/487 225/493 226/488
f 517/330 519/329 515/716
f 466/490 470/651 469/491
f 168/343 166/409 596/344
f 600/257 185/321 183/258
f 296/263 294/892 282/264
f 286/287 292/336 291/288
f 268/346 266/412 265/347
f 261/496 262/503 238/497
f 532/733 531/893 529/734
f 486/499 488/693 487/500
f 426/349 428/894 432/350
f 341/266 337/680 339/267
f 560/739 559/769 555/740
f 327/366 325/614 326/505
f 436/351 434/260 433/352
f 498/507 500/895 504/508
f 538/745 542/754 544/746
f 490/510 492/896 496/511
f 314/354 310/609 312/308
f 382/269 381/792 383/270
f 597/345 165/460 167/803
f 349/515 345/897 347/516
f 308/355 304/436 301/356
f 233/518 234/898 230/519
f 398/708 397/707 399/759
f 509/286 511/285 507/521
f 402/358 406/565 405/359
f 581/812 579/814 583/788
f 282/264 293/899 284/770
f 396/853 393/827 394/430
f 586/333 592/900 588/901
f 603/601 148/646 594/816
f 389/806 387/808 391/418
f 153/902 152/903 176/443
f 151/724 170/434 150/753
f 177/832 176/443 152/903
f 224/855 210/551 222/553
f 578/569 584/789 580/567
f 554/758 557/765 558/768
f 421/605 419/798 417/904
f 397/707 395/833 399/905
f 356/731 353/819 354/729
f 549/830 547/861 551/750
f 163/815 594/816 595/410
f 304/436 297/309 301/356
f 405/359 403/906 401/360
f 601/259 146/817 602/599
f 402/358 408/907 406/565
f 470/651 471/908 469/491
f 180/390 166/409 168/343
f 420/842 417/909 419/910
f 413/612 411/911 409/912
f 598/603 185/321 600/257
f 146/817 189/839 155/913
f 172/459 167/803 165/460
f 493/688 491/914 489/374
f 246/826 244/580 242/570
f 177/620 172/459 156/880
f 154/915 167/803 147/621
f 429/283 427/916 425/622
f 155/917 177/832 156/918
f 157/919 168/343 171/602
f 148/646 156/880 161/458
f 152/825 154/915 147/621
f 154/915 145/920 169/804
f 171/602 174/379 157/919
f 151/388 180/390 157/919
f 150/858 160/921 178/389
f 160/921 158/690 163/815
f 190/441 155/913 189/839
f 160/921 166/409 178/389
f 189/839 185/321 179/442
f 255/455 240/478 244/631
f 251/922 250/629 249/923
f 149/600 146/817 155/913
f 176/443 179/442 153/320
f 153/320 187/322 173/415
f 188/404 164/437 175/785
f 181/433 164/437 192/427
f 170/434 191/429 159/924
f 159/924 182/800 162/801
f 528/272 524/925 523/273
f 558/768 557/765 559/769
f 357/525 353/926 355/526
f 458/361 462/661 461/362
f 404/528 402/358 401/360
f 572/292 571/927 569/774
f 526/530 528/272 527/274
f 328/364 315/928 316/365
f 450/275 452/305 456/276
f 604/381 169/804 145/920
f 186/405 601/259 184/428
f 570/290 574/780 576/291
f 162/801 603/601 594/816
f 573/777 569/929 571/778
f 462/661 464/665 463/662
f 350/718 349/515 351/517
f 574/780 573/777 575/779
f 597/345 596/344 165/460
f 586/333 590/335 592/900
f 194/303 206/870 205/547
f 210/551 212/451 221/552
f 320/301 316/300 315/637
f 233/518 236/562 235/542
f 406/565 408/930 407/566
f 554/758 553/757 557/765
f 580/567 579/931 577/568
f 530/539 534/736 536/540
f 338/544 342/314 344/545
f 322/383 300/476 304/657
f 282/264 294/892 293/899
f 204/399 198/367 200/369
f 364/396 363/932 361/397
f 259/317 257/319 225/465
f 366/533 365/592 367/534
f 269/536 271/933 279/537
f 603/601 149/600 148/646
f 153/902 154/934 152/903
f 304/436 300/310 297/309
f 159/924 184/428 182/800
f 405/359 407/935 403/906
f 601/259 183/258 146/817
f 402/358 404/936 408/907
f 470/651 472/937 471/908
f 180/390 178/389 166/409
f 420/842 418/461 417/909
f 413/612 415/611 411/911
f 598/603 187/322 185/321
f 146/817 183/258 189/839
f 172/459 147/621 167/803
f 493/688 495/938 491/914
f 246/826 248/556 244/580
f 154/915 169/804 167/803
f 429/283 431/939 427/916
f 155/917 190/441 177/832
f 157/919 180/390 168/343
f 160/921 163/815 166/409
f 189/839 183/258 185/321
f 255/455 253/457 240/478
f 251/922 252/466 250/629
f 604/381 599/380 169/804
f 186/405 600/257 601/259
f 159/924 191/429 184/428
o Frame
v -1.25 0 0.125
v -1.25 0.0625 0.125
v -1.25 -0 -0.125
v 1.25 0 0.125
v 1.25 -0 -0.125
v 1.25 0.0625 -0.125
v 1.5 0.0625 -0.125
v 1.5 -0 -0.125
v 1.5 0 0.125
v 1.5 0.0625 0.125
v -1.5 -0 -0.125
v -1.5 0 0.125
v 1.25 2.9375 -0.125
v -1.25 2.9375 -0.125
v 1.5 2.9375 -0.125
v 1.5 2.9375 0.125
v -1.5 2.9375 -0.125
v 1.25 3 -0.125
v 1.25 3 0.125
v 1.5 3 -0.125
v 1.5 3 0.125
v -1.5 3 0.125
v -1.5 3 -0.125
v -0.625 -0 -0.125
v -0.625 0 0.125
v 0.625 0.0625 -0.125
v 0.625 0 0.125
v 0.625 -0 -0.125
v 1.0625 0.0625 -0.125
v 1.0625 0 0.125
v 1.0625 -0 -0.125
v -1.0625 -0 -0.125
v -1.0625 0.0625 -0.125
v -1.0625 0 0.125
v 1.5 0.6875 0.125
v 1.25 0.6875 0.125
v 1.5 0.6875 -0.125
v 1.5 2.3125 0.125
v 1.5 2.3125 -0.125
v 1.25 2.3125 0.125
v 1.25 2.3125 -0.125
v 1.5 0.25 0.125
v 1.5 0.25 -0.125
v 1.5 2.75 0.125
v 1.5 2.75 -0.125
v 1.25 2.75 0.125
v 1.25 2.75 -0.125
v -1.5 0.0625 0.125
v -1.5 0.0625 -0.125
v -1.25 0.0625 -0.125
v 1.25 2.9375 0.125
v -1.5 2.9375 0.125
v -1.25 3 0.125
v -1.25 2.9375 0.125
v -1.25 0.6875 0.125
v -1.5 0.6875 0.125
v -1.25 0.6875 -0.125
v -1.5 0.6875 -0.125
v -1.5 2.3125 0.125
v -1.5 2.3125 -0.125
v -1.5 0.25 0.125
v -1.5 0.25 -0.125
v -1.25 0.25 -0.125
v -1.5 2.75 0.125
v -1.5 2.75 -0.125
v -0.625 3 -0.125
v -0.625 2.9375 0.125
v -0.625 3 0.125
v 0.625 3 -0.125
v 0.625 2.9375 0.125
v 0.625 3 0.125
v 1.0625 3 -0.125
v 1.0625 2.9375 -0.125
v 1.0625 3 0.125
v -1.0625 2.9375 -0.125
v -1.0625 3 0.125
v -1.0625 3 -0.125
v -1.25 3 -0.125
v 1.25 0.0625 0.125
v 0.625 0.0625 0.125
v 1.0625 0.0625 0.125
v 1.25 0.6875 -0.125
v 1.25 0.25 0.125
v 1.25 0.25 -0.125
v 1.0625 0.25 -0.125
v 1.0625 0.25 0.125
v -0.625 0.0625 -0.125
v -0.625 0.0625 0.125
v -1.0625 0.0625 0.125
v -1.25 0.25 0.125
v -1.0625 0.25 -0.125
v -1.0625 0.25 0.125
v 0.625 2.9375 -0.125
v 1.0625 2.9375 0.125
v 1.0625 2.75 -0.125
v 1.0625 2.75 0.125
v -0.625 2.9375 -0.125
v -1.0625 2.9375 0.125
v -1.25 2.3125 0.125
v -1.25 2.3125 -0.125
v -1.25 2.75 0.125
v -1.25 2.75 -0.125
v -1.0625 2.75 -0.125
v -1.0625 2.75 0.125
v 1.25 0.6875 0.125
v 1.25 2.3125 0.125
v -1.25 0.6875 0.125
v -0.625 2.9375 0.125
v 0.625 2.9375 0.125
v 0.625 0.0625 0.125
v 1.0625 0.25 0.125
v -0.625 0.0625 0.125
v -1.0625 0.25 0.125
v 1.0625 2.75 0.125
v -1.25 2.3125 0.125
v -1.0625 2.75 0.125
v 1.25 0.6875 0.1875
v 1.25 2.3125 0.1875
v -1.25 0.6875 0.1875
v -0.625 2.9375 0.1875
v 0.625 2.9375 0.1875
v 0.625 0.0625 0.1875
v 1.0625 0.25 0.1875
v -0.625 0.0625 0.1875
v -1.0625 0.25 0.1875
v 1.0625 2.75 0.1875
v -1.25 2.3125 0.1875
v -1.0625 2.75 0.1875
v 1.3112 0.6749 0.125
v 1.3112 2.3251 0.125
v -1.3112 0.6749 0.125
v -0.6376 2.9987 0.125
v 0.6376 2.9987 0.125
v 0.6376 0.0013 0.125
v 1.1067 0.2058 0.125
v -0.6376 0.0013 0.125
v -1.1067 0.2058 0.125
v 1.1067 2.7942 0.125
v -1.3112 2.3251 0.125
v -1.1067 2.7942 0.125
v 1.3112 0.6749 0.1875
v 1.3112 2.3251 0.1875
v -1.3112 0.6749 0.1875
v -0.6376 2.9987 0.1875
v 0.6376 2.9987 0.1875
v 0.6376 0.0013 0.1875
v 1.1067 0.2058 0.1875
v -0.6376 0.0013 0.1875
v -1.1067 0.2058 0.1875
v 1.1067 2.7942 0.1875
v -1.3112 2.3251 0.1875
v -1.1067 2.7942 0.1875
v 1.25 0.6875 -0.125
v 1.25 2.3125 -0.125
v -1.25 0.6875 -0.125
v -0.625 2.9375 -0.125
v 0.625 2.9375 -0.125
v 0.625 0.0625 -0.125
v 1.0625 0.25 -0.125
v -0.625 0.0625 -0.125
v -1.0625 0.25 -0.125
v 1.0625 2.75 -0.125
v -1.25 2.3125 -0.125
v -1.0625 2.75 -0.125
v 1.25 0.6875 -0.1875
v 1.25 2.3125 -0.1875
v -1.25 0.6875 -0.1875
v -0.625 2.9375 -0.1875
v 0.625 2.9375 -0.1875
v 0.625 0.0625 -0.1875
v 1.0625 0.25 -0.1875
v -0.625 0.0625 -0.1875
v -1.0625 0.25 -0.1875
v 1.0625 2.75 -0.1875
v -1.25 2.3125 -0.1875
v -1.0625 2.75 -0.1875
v 1.3112 0.6749 -0.125
v 1.3112 2.3251 -0.125
v -1.3112 0.6749 -0.125
v -0.6376 2.9987 -0.125
v 0.6376 2.9987 -0.125
v 0.6376 0.0013 -0.125
v 1.1067 0.2058 -0.125
v -0.6376 0.0013 -0.125
v -1.1067 0.2058 -0.125
v 1.1067 2.7942 -0.125
v -1.3112 2.3251 -0.125
v -1.1067 2.7942 -0.125
v 1.3112 0.6749 -0.1875
v 1.3112 2.3251 -0.1875
v -1.3112 0.6749 -0.1875
v -0.6376 2.9987 -0.1875
v 0.6376 2.9987 -0.1875
v 0.6376 0.0013 -0.1875
v 1.1067 0.2058 -0.1875
v -0.6376 0.0013 -0.1875
v -1.1067 0.2058 -0.1875
v 1.1067 2.7942 -0.1875
v -1.3112 2.3251 -0.1875
v -1.1067 2.7942 -0.1875
v 1.3125 2.1875 0.1875
v 1.3125 2.6875 0.1875
v 1.3125 2.1875 0.125
v 1.3125 2.6875 0.125
v 1.5 2.1875 0.1875
v 1.5 2.6875 0.1875
v 1.5 2.1875 0.125
v 1.5 2.6875 0.125
v 1.375 2.5625 0.25
v 1.375 2.625 0.25
v 1.375 2.5625 0.1875
v 1.375 2.625 0.1875
v 1.4375 2.5625 0.25
v 1.4375 2.625 0.25
v 1.4375 2.5625 0.1875
v 1.4375 2.625 0.1875
v 1.375 2.25 0.25
v 1.375 2.3125 0.25
v 1.375 2.25 0.1875
v 1.375 2.3125 0.1875
v 1.4375 2.25 0.25
v 1.4375 2.3125 0.25
v 1.4375 2.25 0.1875
v 1.4375 2.3125 0.1875
v 1.3125 2.1875 0.3125
v 1.3125 2.6875 0.3125
v 1.3125 2.1875 0.25
v 1.3125 2.6875 0.25
v 1.5 2.1875 0.3125
v 1.5 2.6875 0.3125
v 1.5 2.1875 0.25
v 1.5 2.6875 0.25
v 1.3125 2.1875 -0.1875
v 1.3125 2.6875 -0.1875
v 1.3125 2.1875 -0.125
v 1.3125 2.6875 -0.125
v 1.5 2.1875 -0.1875
v 1.5 2.6875 -0.1875
v 1.5 2.1875 -0.125
v 1.5 2.6875 -0.125
v 1.375 2.5625 -0.25
v 1.375 2.625 -0.25
v 1.375 2.5625 -0.1875
v 1.375 2.625 -0.1875
v 1.4375 2.5625 -0.25
v 1.4375 2.625 -0.25
v 1.4375 2.5625 -0.1875
v 1.4375 2.625 -0.1875
v 1.375 2.25 -0.25
v 1.375 2.3125 -0.25
v 1.375 2.25 -0.1875
v 1.375 2.3125 -0.1875
v 1.4375 2.25 -0.25
v 1.4375 2.3125 -0.25
v 1.4375 2.25 -0.1875
v 1.4375 2.3125 -0.1875
v 1.3125 2.1875 -0.3125
v 1.3125 2.6875 -0.3125
v 1.3125 2.1875 -0.25
v 1.3125 2.6875 -0.25
v 1.5 2.1875 -0.3125
v 1.5 2.6875 -0.3125
v 1.5 2.1875 -0.25
v 1.5 2.6875 -0.25
v 1.3125 0.8125 0.1875
v 1.3125 0.3125 0.1875
v 1.3125 0.8125 0.125
v 1.3125 0.3125 0.125
v 1.5 0.8125 0.1875
v 1.5 0.3125 0.1875
v 1.5 0.8125 0.125
v 1.5 0.3125 0.125
v 1.375 0.4375 0.25
v 1.375 0.375 0.25
v 1.375 0.4375 0.1875
v 1.375 0.375 0.1875
v 1.4375 0.4375 0.25
v 1.4375 0.375 0.25
v 1.4375 0.4375 0.1875
v 1.4375 0.375 0.1875
v 1.375 0.75 0.25
v 1.375 0.6875 0.25
v 1.375 0.75 0.1875
v 1.375 0.6875 0.1875
v 1.4375 0.75 0.25
v 1.4375 0.6875 0.25
v 1.4375 0.75 0.1875
v 1.4375 0.6875 0.1875
v 1.3125 0.8125 0.3125
v 1.3125 0.3125 0.3125
v 1.3125 0.8125 0.25
v 1.3125 0.3125 0.25
v 1.5 0.8125 0.3125
v 1.5 0.3125 0.3125
v 1.5 0.8125 0.25
v 1.5 0.3125 0.25
v 1.3125 0.8125 -0.1875
v 1.3125 0.3125 -0.1875
v 1.3125 0.8125 -0.125
v 1.3125 0.3125 -0.125
v 1.5 0.8125 -0.1875
v 1.5 0.3125 -0.1875
v 1.5 0.8125 -0.125
v 1.5 0.3125 -0.125
v 1.375 0.4375 -0.25
v 1.375 0.375 -0.25
v 1.375 0.4375 -0.1875
v 1.375 0.375 -0.1875
v 1.4375 0.4375 -0.25
v 1.4375 0.375 -0.25
v 1.4375 0.4375 -0.1875
v 1.4375 0.375 -0.1875
v 1.375 0.75 -0.25
v 1.375 0.6875 -0.25
v 1.375 0.75 -0.1875
v 1.375 0.6875 -0.1875
v 1.4375 0.75 -0.25
v 1.4375 0.6875 -0.25
v 1.4375 0.75 -0.1875
v 1.4375 0.6875 -0.1875
v 1.3125 0.8125 -0.3125
v 1.3125 0.3125 -0.3125
v 1.3125 0.8125 -0.25
v 1.3125 0.3125 -0.25
v 1.5 0.8125 -0.3125
v 1.5 0.3125 -0.3125
v 1.5 0.8125 -0.25
v 1.5 0.3125 -0.25
v 1.5 1.5 -0.125
v 1.5 1.5 0.125
v 1.25 1.5 0.125
v -1.25 1.5 -0.125
v -1.5 1.5 -0.125
v -1.5 1.5 0.125
v 1.25 1.5 -0.125
v -1.25 1.5 0.125
v 1.25 1.5 0.125
v -1.25 1.5 0.125
v 1.3112 1.5 0.125
v -1.3112 1.5 0.125
v 1.25 1.5 0.1875
v -1.25 1.5 0.1875
v 1.25 1.5 -0.125
v -1.25 1.5 -0.125
v 1.3112 1.5 -0.125
v -1.3112 1.5 -0.125
v 1.25 1.5 -0.1875
v -1.25 1.5 -0.1875
v 1.3112 1.5 0.1875
v -1.3112 1.5 0.1875
v 1.3112 1.5 -0.1875
v -1.3112 1.5 -0.1875
vt 0.025 0.8532
vt 0.005 0.7339
vt 0.025 0.7339
vt 0.345 0.6147
vt 0.35 0.5505
vt 0.35 0.6147
vt 0.755 0.3761
vt 0.76 0.3028
vt 0.755 0.3028
vt 0.32 0.9541
vt 0.355 0.945
vt 0.355 0.9541
vt 0.41 0.6147
vt 0.415 0.5505
vt 0.415 0.6147
vt 0.695 0.7339
vt 0.71 0.6605
vt 0.71 0.7339
vt 0.405 0.7339
vt 0.4 0.8532
vt 0.4 0.7339
vt 0.95 0.3211
vt 0.955 0.3303
vt 0.955 0.3211
vt 0.985 0.3761
vt 0.97 0.3853
vt 0.985 0.3853
vt 0.73 0.3853
vt 0.725 0.3945
vt 0.73 0.3945
vt 0.715 0.6605
vt 0.715 0.7339
vt 0.755 0.6605
vt 0.74 0.6514
vt 0.755 0.6514
vt 0.725 0.6789
vt 0.73 0.6697
vt 0.73 0.6789
vt 0.095 0.5229
vt 0.195 0.5138
vt 0.195 0.5229
vt 0.025 0.5505
vt 0.005 0.5229
vt 0.025 0.5229
vt 0.06 0.5138
vt 0.045 0.4771
vt 0.06 0.4771
vt 0.465 0.8532
vt 0.445 0.7339
vt 0.465 0.7339
vt 0.73 0.3303
vt 0.725 0.3394
vt 0.73 0.3394
vt 0.355 0.5229
vt 0.455 0.5138
vt 0.455 0.5229
vt 0.445 0.9174
vt 0.465 0.9174
vt 0.285 0.6147
vt 0.265 0.5505
vt 0.285 0.5505
vt 0.95 0.7339
vt 0.955 0.7431
vt 0.95 0.7431
vt 0.305 0.5505
vt 0.285 0.5229
vt 0.305 0.5229
vt 0.35 0.7339
vt 0.345 0.7339
vt 0.92 0.7339
vt 0.905 0.6605
vt 0.92 0.6605
vt 0.195 0.9541
vt 0.23 0.9908
vt 0.195 0.9908
vt 0.23 0.945
vt 0.23 0.9541
vt 0.725 0.3486
vt 0.73 0.3486
vt 0.045 0.9174
vt 0.045 0.8532
vt 0.695 0.3761
vt 0.71 0.3853
vt 0.71 0.3761
vt 0.73 0.7339
vt 0.725 0.7431
vt 0.725 0.7339
vt 0.025 0.9174
vt 0.005 0.8532
vt 0.245 0.9908
vt 0.525 0.945
vt 0.505 0.9174
vt 0.525 0.9174
vt 0.49 0.5229
vt 0.505 0.5138
vt 0.505 0.5229
vt 0.06 0.9541
vt 0.095 0.945
vt 0.095 0.9541
vt 0.095 0.9908
vt 0.06 0.9908
vt 0.265 0.5138
vt 0.245 0.5229
vt 0.245 0.5138
vt 0.045 0.5229
vt 0.06 0.5229
vt 0.405 0.6147
vt 0.4 0.5505
vt 0.405 0.5505
vt 0.245 0.9174
vt 0.23 0.9174
vt 0.265 0.9541
vt 0.245 0.9541
vt 0.265 0.8532
vt 0.245 0.7339
vt 0.265 0.7339
vt 0.285 0.8532
vt 0.285 0.7339
vt 0.265 0.5229
vt 0.285 0.5138
vt 0.69 0.3761
vt 0.695 0.3028
vt 0.69 0.3028
vt 0.045 0.6147
vt 0.045 0.5505
vt 0.735 0.7339
vt 0.74 0.6605
vt 0.74 0.7339
vt 0.49 0.5138
vt 0.525 0.6147
vt 0.505 0.5505
vt 0.525 0.5505
vt 0.265 0.9174
vt 0.245 0.8532
vt 0.23 0.4771
vt 0.245 0.4771
vt 0.305 0.5138
vt 0.73 0.6972
vt 0.725 0.7064
vt 0.725 0.6972
vt 0.045 0.5138
vt 0.045 0.9541
vt 0.045 0.9908
vt 0.925 0.7339
vt 0.925 0.6605
vt 0.265 0.6147
vt 0.245 0.5505
vt 0.525 0.5138
vt 0.95 0.6789
vt 0.955 0.6881
vt 0.95 0.6881
vt 0.505 0.8532
vt 0.525 0.8532
vt 0.305 0.9541
vt 0.285 0.945
vt 0.305 0.945
vt 0.95 0.367
vt 0.955 0.3761
vt 0.955 0.367
vt 0.025 0.5138
vt 0.195 0.945
vt 0.32 0.945
vt 0.73 0.3211
vt 0.725 0.3303
vt 0.725 0.3211
vt 0.73 0.3119
vt 0.725 0.3119
vt 0.525 0.9541
vt 0.505 0.945
vt 0.49 0.5505
vt 0.265 0.4771
vt 0.95 0.3761
vt 0.955 0.3853
vt 0.045 0.945
vt 0.945 0.3761
vt 0.94 0.3028
vt 0.94 0.3761
vt 0.285 0.9174
vt 0.305 0.9174
vt 0.94 0.7339
vt 0.925 0.7431
vt 0.32 0.5505
vt 0.305 0.6147
vt 0.245 0.6147
vt 0.23 0.5505
vt 0.44 0.8532
vt 0.42 0.7339
vt 0.44 0.7339
vt 0.23 0.5229
vt 0.32 0.5229
vt 0.505 0.6147
vt 0.06 0.5505
vt 0.97 0.6605
vt 0.985 0.6514
vt 0.985 0.6605
vt 0.505 0.7339
vt 0.525 0.7339
vt 0.305 0.8532
vt 0.32 0.9174
vt 0.23 0.7339
vt 0.195 0.6972
vt 0.23 0.6972
vt 0.32 0.5138
vt 0.49 0.9174
vt 0.06 0.9174
vt 0.06 0.945
vt 0.025 0.9541
vt 0.005 0.945
vt 0.025 0.945
vt 0.49 0.945
vt 0.46 0.945
vt 0.195 0.844
vt 0.095 0.8532
vt 0.095 0.844
vt 0.025 0.9908
vt 0.195 0.8349
vt 0.095 0.8257
vt 0.195 0.8257
vt 0.34 0.8532
vt 0.335 0.9174
vt 0.335 0.8532
vt 0.695 0.6514
vt 0.71 0.6514
vt 0.955 0.6972
vt 0.95 0.6972
vt 0.305 0.7339
vt 0.725 0.7248
vt 0.73 0.7156
vt 0.73 0.7248
vt 0.71 0.7431
vt 0.695 0.7431
vt 0.265 0.945
vt 0.73 0.7431
vt 0.725 0.7523
vt 0.955 0.7064
vt 0.95 0.7064
vt 0.755 0.7339
vt 0.76 0.6605
vt 0.76 0.7339
vt 0.095 0.5138
vt 0.405 0.8532
vt 0.4 0.9174
vt 0.99 0.7339
vt 0.99 0.6605
vt 0.285 0.9541
vt 0.23 0.7615
vt 0.195 0.7706
vt 0.195 0.7615
vt 0.095 0.7523
vt 0.195 0.7431
vt 0.195 0.7523
vt 0.985 0.7339
vt 0.195 0.789
vt 0.095 0.7982
vt 0.095 0.789
vt 0.725 0.6881
vt 0.23 0.844
vt 0.195 0.8532
vt 0.755 0.7431
vt 0.74 0.7431
vt 0.71 0.3028
vt 0.39 0.6147
vt 0.395 0.5505
vt 0.395 0.6147
vt 0.955 0.6789
vt 0.95 0.6697
vt 0.955 0.6697
vt 0.715 0.3028
vt 0.245 0.945
vt 0.045 0.7339
vt 0.445 0.5505
vt 0.465 0.6147
vt 0.445 0.6147
vt 0.365 0.6147
vt 0.37 0.5505
vt 0.37 0.6147
vt 0.94 0.6514
vt 0.94 0.6605
vt 0.945 0.7339
vt 0.945 0.6605
vt 0.23 0.5138
vt 0.73 0.367
vt 0.725 0.3761
vt 0.73 0.3761
vt 0.525 0.5229
vt 0.74 0.3761
vt 0.755 0.3853
vt 0.725 0.3853
vt 0.095 0.4771
vt 0.74 0.2936
vt 0.74 0.3028
vt 0.46 0.9541
vt 0.49 0.9541
vt 0.345 0.8532
vt 0.35 0.9174
vt 0.345 0.9174
vt 0.76 0.3761
vt 0.775 0.3028
vt 0.735 0.3761
vt 0.735 0.3028
vt 0.005 0.9174
vt 0.695 0.2936
vt 0.95 0.3578
vt 0.925 0.3761
vt 0.92 0.3028
vt 0.92 0.3761
vt 0.97 0.3028
vt 0.985 0.2936
vt 0.97 0.2936
vt 0.97 0.3761
vt 0.195 0.4771
vt 0.905 0.3028
vt 0.905 0.3761
vt 0.95 0.3119
vt 0.725 0.367
vt 0.73 0.3578
vt 0.725 0.3578
vt 0.95 0.3394
vt 0.955 0.3486
vt 0.955 0.3394
vt 0.36 0.6147
vt 0.355 0.5505
vt 0.36 0.5505
vt 0.95 0.3303
vt 0.95 0.3853
vt 0.955 0.3945
vt 0.505 0.9541
vt 0.095 0.6972
vt 0.195 0.7339
vt 0.095 0.7339
vt 0.06 0.8807
vt 0.095 0.8807
vt 0.095 0.8899
vt 0.355 0.5138
vt 0.695 0.6605
vt 0.945 0.3028
vt 0.23 0.789
vt 0.23 0.7982
vt 0.195 0.7982
vt 0.715 0.3761
vt 0.99 0.3761
vt 0.99 0.3028
vt 0.985 0.3028
vt 0.23 0.8349
vt 0.195 0.7798
vt 0.925 0.3028
vt 0.95 0.3945
vt 0.025 0.6147
vt 0.005 0.6147
vt 0.005 0.5505
vt 0.23 0.8807
vt 0.23 0.8899
vt 0.195 0.8899
vt 0.95 0.7248
vt 0.955 0.7248
vt 0.955 0.7339
vt 0.775 0.6605
vt 0.73 0.6881
vt 0.465 0.5505
vt 0.23 0.8716
vt 0.195 0.8716
vt 0.195 0.8624
vt 0.35 0.8532
vt 0.355 0.6147
vt 0.71 0.2936
vt 0.74 0.3853
vt 0.41 0.7339
vt 0.41 0.8532
vt 0.44 0.9174
vt 0.42 0.9174
vt 0.42 0.8532
vt 0.965 0.3028
vt 0.94 0.7431
vt 0.095 0.8716
vt 0.095 0.8624
vt 0.23 0.7523
vt 0.36 0.8532
vt 0.36 0.9174
vt 0.355 0.9174
vt 0.195 0.8807
vt 0.34 0.9174
vt 0.095 0.6514
vt 0.195 0.6514
vt 0.195 0.6881
vt 0.06 0.789
vt 0.06 0.7798
vt 0.095 0.7798
vt 0.69 0.7339
vt 0.69 0.6605
vt 0.06 0.844
vt 0.39 0.5505
vt 0.925 0.6514
vt 0.365 0.5505
vt 0.095 0.7615
vt 0.755 0.2936
vt 0.73 0.7064
vt 0.95 0.3486
vt 0.955 0.3578
vt 0.06 0.7615
vt 0.095 0.7706
vt 0.06 0.7339
vt 0.06 0.6972
vt 0.94 0.2936
vt 0.445 0.8532
vt 0.985 0.7431
vt 0.97 0.7431
vt 0.34 0.6147
vt 0.335 0.6147
vt 0.335 0.5505
vt 0.06 0.7523
vt 0.41 0.5505
vt 0.365 0.8532
vt 0.415 0.7339
vt 0.37 0.8532
vt 0.37 0.9174
vt 0.725 0.7156
vt 0.955 0.7523
vt 0.97 0.6514
vt 0.195 0.8073
vt 0.095 0.8073
vt 0.34 0.7339
vt 0.06 0.7982
vt 0.365 0.7339
vt 0.23 0.6881
vt 0.355 0.8532
vt 0.355 0.7339
vt 0.39 0.7339
vt 0.23 0.8532
vt 0.775 0.3761
vt 0.97 0.7339
vt 0.23 0.7706
vt 0.405 0.9174
vt 0.095 0.7431
vt 0.965 0.7339
vt 0.965 0.6605
vt 0.735 0.6605
vt 0.73 0.7523
vt 0.925 0.2936
vt 0.095 0.6881
vt 0.925 0.3853
vt 0.94 0.3853
vt 0.06 0.6881
vt 0.23 0.7431
vt 0.44 0.5505
vt 0.42 0.6147
vt 0.42 0.5505
vt 0.23 0.6514
vt 0.965 0.3761
vt 0.36 0.7339
vt 0.37 0.7339
vt 0.06 0.8899
vt 0.06 0.8532
vt 0.335 0.7339
vt 0.23 0.8624
vt 0.23 0.8257
vt 0.34 0.5505
vt 0.39 0.9174
vt 0.385 0.8532
vt 0.39 0.8532
vt 0.365 0.9174
vt 0.385 0.6147
vt 0.95 0.7523
vt 0.23 0.7798
vt 0.775 0.7339
vt 0.06 0.7706
vt 0.06 0.8073
vt 0.395 0.7339
vt 0.395 0.9174
vt 0.415 0.9174
vt 0.41 0.9174
vt 0.38 0.7339
vt 0.385 0.7339
vt 0.95 0.7156
vt 0.955 0.7156
vt 0.38 0.5505
vt 0.385 0.5505
vt 0.06 0.8349
vt 0.095 0.8349
vt 0.06 0.8716
vt 0.345 0.5505
vt 0.4 0.6147
vt 0.265 0.9908
vt 0.955 0.3119
vt 0.395 0.8532
vt 0.005 0.5138
vt 0.06 0.6514
vt 0.44 0.6147
vt 0.695 0.3853
vt 0.725 0.6697
vt 0.38 0.6147
vt 0.385 0.9174
vt 0.005 0.9541
vt 0.905 0.7339
vt 0.025 0.4771
vt 0.415 0.8532
vt 0.38 0.9174
vt 0.38 0.8532
vt 0.23 0.8073
vt 0.06 0.7431
vt 0.06 0.8257
vt 0.06 0.8624
s 1
f 663/940 937/941 938/942
f 723/943 717/944 711/945
f 898/946 899/947 897/948
f 676/949 697/950 673/951
f 795/952 789/953 783/954
f 806/955 809/956 810/957
f 952/958 767/959 948/960
f 918/961 924/962 920/963
f 902/964 908/965 904/966
f 881/967 879/968 877/969
f 810/957 811/970 812/971
f 833/972 831/973 835/974
f 824/975 821/976 822/977
f 692/978 631/979 684/980
f 665/981 653/982 652/983
f 638/984 607/985 636/986
f 644/987 939/988 935/989
f 890/990 891/991 889/992
f 630/993 628/994 691/995
f 699/996 644/987 700/997
f 641/998 646/999 647/1000
f 850/1001 851/1002 849/1003
f 688/1004 611/1005 610/1006
f 723/943 942/1007 946/1008
f 868/1009 863/1010 867/1011
f 675/1012 676/1013 673/1014
f 675/1012 698/1015 678/1016
f 889/992 887/1017 885/1018
f 705/1019 663/940 703/1020
f 870/1021 876/1022 874/1023
f 818/1024 819/1025 820/1026
f 668/1027 664/1028 663/940
f 678/1016 622/1029 676/1013
f 621/1030 706/1031 669/1032
f 637/1033 607/1034 654/1035
f 680/1036 671/1037 672/1038
f 680/1036 670/1039 681/1040
f 613/1041 683/1042 608/1043
f 606/1044 638/984 693/1045
f 771/1046 765/1047 777/1048
f 650/1049 698/1015 700/1050
f 625/1051 622/1029 623/1052
f 642/1053 935/1054 934/1055
f 643/1056 934/1055 933/1057
f 614/1058 612/1059 611/1005
f 872/1060 869/1061 871/1062
f 659/1063 665/981 694/1064
f 832/1065 829/1066 830/1067
f 691/995 636/1068 637/1033
f 662/1069 667/1070 666/1071
f 648/1072 644/1073 642/1053
f 608/1043 635/1074 609/1075
f 611/1005 609/1076 610/1006
f 825/1077 823/1078 827/1079
f 652/983 605/1080 606/1044
f 657/1081 681/1040 682/1082
f 866/1083 867/1011 865/1084
f 639/1085 687/1086 646/999
f 615/1087 654/1035 607/1034
f 854/1088 860/1089 858/1090
f 669/1032 704/1091 664/1092
f 622/1093 619/1094 617/1095
f 910/1096 916/1097 912/1098
f 653/982 616/1099 652/983
f 672/1038 674/1100 675/1012
f 622/1093 677/1101 676/949
f 886/1102 892/1103 890/990
f 888/1104 885/1105 887/1106
f 627/1107 618/1108 621/1030
f 695/1109 654/1035 667/1070
f 612/1110 608/1043 609/1075
f 914/1111 915/1112 916/1097
f 658/1113 668/1027 705/1019
f 928/1114 925/1115 926/1116
f 617/1095 649/1117 651/1118
f 862/1119 868/1120 866/1083
f 688/1004 689/1121 686/1122
f 687/1086 640/1123 690/1124
f 704/1125 940/1126 936/1127
f 685/1128 608/1043 683/1042
f 685/1128 690/1124 684/980
f 633/1129 630/993 689/1121
f 667/1070 661/1130 695/1109
f 694/1064 696/1131 659/1063
f 841/1132 839/1133 837/1134
f 664/1092 936/1135 937/1136
f 693/1045 692/978 696/1131
f 637/1033 695/1109 691/995
f 651/1118 645/1137 699/1138
f 650/1049 700/1050 644/1073
f 707/1139 671/1140 708/1141
f 610/1006 635/1142 633/1129
f 698/1015 674/1100 700/1050
f 677/1101 699/1138 697/950
f 706/1031 707/1143 704/1091
f 705/1019 703/1020 708/1144
f 705/1019 702/1145 658/1113
f 626/1146 621/1147 656/1148
f 702/1145 708/1144 671/1037
f 679/1149 701/1150 707/1143
f 726/1151 716/1152 728/1153
f 627/1154 657/1081 682/1082
f 616/1099 607/985 605/1080
f 750/1155 740/1156 738/1157
f 755/1158 744/1159 743/1160
f 809/956 807/1161 811/1162
f 858/1090 859/1163 857/1164
f 645/1137 933/1057 939/1165
f 816/1166 813/1167 814/1168
f 806/955 812/1169 808/1170
f 699/1138 617/1095 651/1118
f 620/1171 650/1049 648/1072
f 817/1172 815/1173 819/1025
f 857/1164 855/1174 853/1175
f 834/1176 835/1177 836/1178
f 693/1045 629/1179 692/978
f 779/1180 768/1181 767/959
f 657/1081 656/1148 658/1113
f 840/1182 837/1134 839/1183
f 624/1184 620/1171 619/1094
f 777/1185 764/1186 776/1187
f 798/1188 788/1189 800/1190
f 649/1117 642/1053 643/1056
f 838/1191 841/1132 837/1134
f 772/1192 797/1193 773/1194
f 651/1118 643/1056 645/1137
f 822/977 828/1195 824/975
f 727/1196 714/1197 726/1151
f 830/1067 836/1198 832/1199
f 870/1021 873/1200 869/1061
f 769/1201 763/1202 757/1203
f 856/1204 853/1205 855/1206
f 694/1064 693/1045 696/1131
f 874/1023 875/1207 873/1200
f 625/1051 655/1208 620/1171
f 694/1064 652/983 606/1044
f 703/1020 938/942 940/1209
f 689/1210 640/1211 686/1212
f 745/1213 739/1214 733/1215
f 865/1084 863/1216 861/1217
f 862/1119 865/1084 861/1217
f 864/1218 861/1217 863/1219
f 657/1081 702/1145 680/1036
f 684/980 634/1220 685/1128
f 878/1221 884/1222 882/1223
f 666/1071 654/1035 653/1224
f 894/1225 900/1226 898/946
f 882/1223 883/1227 881/967
f 687/1086 685/1128 683/1042
f 629/1179 636/986 628/1228
f 897/948 895/1229 893/1230
f 670/1231 679/1149 681/1232
f 894/1225 897/948 893/1230
f 672/1038 673/1014 670/1039
f 731/1233 720/1234 732/1235
f 900/1236 895/1237 899/947
f 896/1238 893/1230 895/1239
f 656/1148 669/1240 668/1027
f 873/1200 871/1241 869/1061
f 673/951 701/1150 670/1231
f 912/1098 909/1242 910/1096
f 619/1094 648/1072 649/1117
f 930/1243 931/1244 932/1245
f 905/1246 903/1247 907/1248
f 902/964 905/1246 906/1249
f 631/979 628/1228 632/1250
f 678/1016 655/1208 623/1052
f 932/1245 927/1251 928/1252
f 920/963 917/1253 918/961
f 880/1254 877/1255 879/1256
f 921/1257 919/1258 923/1259
f 721/1260 715/1261 727/1262
f 922/1263 923/1259 924/962
f 913/1264 911/1265 915/1112
f 681/1232 618/1108 682/1266
f 674/1267 701/1268 697/1269
f 756/1270 748/1271 736/1272
f 633/1129 635/1142 632/1273
f 864/1218 862/1119 861/1217
f 666/1071 667/1070 654/1035
f 809/956 805/1274 807/1161
f 928/1114 927/1275 925/1115
f 780/1276 804/1277 796/1278
f 656/1148 621/1147 669/1240
f 629/1179 638/984 636/986
f 874/1023 876/1279 875/1207
f 904/1280 903/1281 901/1282
f 751/1283 750/1155 738/1157
f 914/1111 913/1264 915/1112
f 870/1021 874/1023 873/1200
f 780/1276 772/1192 760/1284
f 882/1223 884/1222 883/1227
f 631/979 629/1179 628/1228
f 930/1243 929/1285 931/1244
f 684/980 631/979 634/1220
f 913/1264 909/1286 911/1265
f 674/1267 671/1140 701/1268
f 660/1287 662/1288 666/1289
f 754/1290 742/1291 737/1292
f 634/1220 631/979 632/1250
f 846/1293 848/1294 852/1295
f 836/1178 835/1177 831/1296
f 822/977 826/1297 828/1195
f 689/1210 690/1298 640/1211
f 694/1064 665/981 652/983
f 830/1067 834/1176 836/1198
f 730/1299 725/1300 713/1301
f 731/1233 719/1302 720/1234
f 670/1231 701/1150 679/1149
f 657/1081 658/1113 702/1145
f 673/951 697/950 701/1150
f 721/1260 709/1303 715/1261
f 932/1245 931/1244 927/1251
f 873/1200 875/1304 871/1241
f 894/1225 896/1305 900/1226
f 956/1306 803/1307 779/1180
f 707/1308 708/1309 703/1310
f 681/1232 679/1149 618/1108
f 906/1249 905/1246 907/1311
f 862/1119 864/1312 868/1120
f 617/1095 619/1094 649/1117
f 926/1116 925/1115 929/1285
f 724/1313 712/1314 713/1301
f 800/1190 801/1315 777/1185
f 722/1316 730/1317 718/1318
f 730/1299 754/1290 749/1319
f 645/1137 643/1056 933/1057
f 858/1090 860/1089 859/1163
f 732/1235 756/1320 755/1158
f 814/1168 818/1024 820/1026
f 692/1321 684/1322 630/1323
f 778/1324 766/1325 761/1326
f 808/1327 807/1328 805/1274
f 826/1297 825/1077 827/1079
f 729/1329 728/1153 716/1152
f 830/1067 829/1066 833/972
f 856/1204 854/1088 853/1205
f 769/1201 775/1330 763/1202
f 672/1038 675/1012 673/1014
f 625/1051 623/1052 655/1208
f 865/1084 867/1331 863/1216
f 745/1213 751/1332 739/1214
f 624/1184 625/1051 620/1171
f 651/1118 649/1117 643/1056
f 774/1333 776/1187 764/1186
f 699/1138 677/1101 617/1095
f 897/948 899/1334 895/1229
f 662/1069 661/1130 667/1070
f 878/1221 880/1254 884/1222
f 825/1077 821/1335 823/1078
f 678/1016 698/1015 655/1208
f 921/1257 917/1336 919/1258
f 639/1085 640/1123 687/1086
f 912/1098 911/1337 909/1242
f 806/955 810/957 812/1169
f 775/1338 774/1333 762/1339
f 622/1093 624/1184 619/1094
f 689/1121 688/1004 610/1006
f 801/1315 800/1190 788/1189
f 699/1340 700/1341 674/1267
f 622/1093 617/1095 677/1101
f 929/1285 925/1115 927/1342
f 658/1113 656/1148 668/1027
f 630/993 632/1273 628/994
f 695/1109 637/1033 654/1035
f 699/996 645/1343 644/987
f 838/1191 840/1344 844/1345
f 704/1125 703/1310 940/1126
f 641/998 639/1085 646/999
f 612/1110 613/1041 608/1043
f 910/1096 914/1111 916/1097
f 747/1346 735/1347 741/1348
f 685/1128 634/1220 608/1043
f 775/1338 799/1349 798/1188
f 777/1048 801/1350 795/952
f 730/1317 722/1316 746/1351
f 610/1006 609/1076 635/1142
f 795/952 783/954 950/1352
f 746/1351 734/1353 742/1354
f 772/1192 773/1194 761/1326
f 627/1154 626/1146 657/1081
f 889/992 891/991 887/1017
f 816/1166 815/1355 813/1167
f 705/1019 668/1027 663/940
f 806/955 805/1274 809/956
f 849/1003 851/1002 847/1356
f 841/1132 843/1357 839/1133
f 668/1027 669/1240 664/1028
f 796/1278 784/1358 785/1359
f 954/1360 755/1158 743/1160
f 954/1360 747/1346 723/943
f 647/1000 646/999 614/1058
f 802/1361 797/1193 785/1359
f 953/1362 745/1213 733/1215
f 686/1122 641/998 647/1000
f 707/1143 706/1031 618/1108
f 646/999 687/1086 683/1042
f 880/1254 878/1221 877/1255
f 689/1363 630/1323 684/1322
f 722/1316 710/1364 941/1365
f 748/1271 749/1319 737/1292
f 951/1366 769/1201 757/1203
f 727/1196 715/1367 714/1197
f 900/1236 896/1368 895/1237
f 838/1191 842/1369 841/1132
f 694/1064 606/1044 693/1045
f 649/1117 648/1072 642/1053
f 772/1192 796/1278 797/1193
f 619/1094 620/1171 648/1072
f 703/1020 663/940 938/942
f 840/1182 838/1191 837/1134
f 777/1185 765/1370 764/1186
f 779/1180 780/1371 768/1181
f 862/1119 866/1083 865/1084
f 693/1045 638/984 629/1179
f 657/1081 626/1146 656/1148
f 798/1188 786/1372 788/1189
f 905/1246 901/1282 903/1247
f 842/1369 844/1373 843/1374
f 620/1171 655/1208 650/1049
f 832/1065 831/1375 829/1066
f 687/1086 690/1124 685/1128
f 659/1063 660/1287 665/981
f 691/995 628/994 636/1068
f 817/1172 813/1376 815/1173
f 894/1225 898/946 897/948
f 648/1072 650/1049 644/1073
f 614/1058 613/1041 612/1059
f 608/1043 634/1220 635/1074
f 896/1238 894/1225 893/1230
f 611/1005 612/1059 609/1076
f 643/1056 642/1053 934/1055
f 872/1060 870/1021 869/1061
f 857/1164 859/1163 855/1174
f 652/983 616/1099 605/1080
f 650/1049 655/1208 698/1015
f 929/1285 927/1342 931/1377
f 904/1280 901/1282 902/964
f 692/1321 630/1323 691/1378
f 724/1313 713/1301 725/1300
f 926/1116 932/1379 928/1380
f 633/1129 632/1273 630/993
f 689/1121 610/1006 633/1129
f 707/1308 703/1310 704/1125
f 695/1381 692/1321 691/1378
f 634/1220 632/1250 635/1074
f 699/1340 674/1267 697/1269
f 801/1315 788/1189 789/1382
f 695/1383 659/1384 696/1385
f 689/1363 684/1322 690/1386
f 926/1116 929/1285 930/1243
f 906/1249 907/1311 908/1387
f 826/1297 827/1079 828/1195
f 646/999 683/1042 614/1058
f 722/1316 941/1365 945/1388
f 953/1362 733/1215 943/1389
f 846/1293 852/1295 850/1001
f 686/1122 647/1000 688/1004
f 808/1327 805/1274 806/955
f 756/1270 736/1272 744/1390
f 729/1329 716/1152 717/1391
f 707/1143 618/1108 679/1149
f 748/1271 737/1292 736/1272
f 954/1360 743/1160 944/1392
f 838/1191 844/1345 842/1369
f 730/1299 713/1301 718/1393
f 722/1316 718/1318 710/1364
f 754/1290 737/1292 749/1319
f 795/952 950/1352 956/1306
f 751/1283 738/1157 739/1394
f 747/1346 741/1348 753/1395
f 814/1168 820/1026 816/1166
f 798/1188 776/1187 774/1333
f 954/1360 723/943 946/1008
f 775/1338 798/1188 774/1333
f 800/1190 777/1185 776/1187
f 778/1396 794/1397 770/1398
f 956/1306 779/1180 952/958
f 730/1317 746/1351 754/1399
f 777/1048 795/952 771/1046
f 793/1400 775/1330 769/1201
f 780/1276 796/1278 772/1192
f 732/1235 755/1158 731/1233
f 730/1299 749/1319 725/1300
f 849/1003 847/1356 845/1401
f 660/1287 666/1289 665/981
f 772/1192 761/1326 760/1284
f 746/1351 742/1354 754/1399
f 796/1278 785/1359 797/1193
f 647/1000 614/1058 611/1005
f 830/1067 833/972 834/1176
f 780/1276 760/1284 768/1402
f 774/1333 764/1186 762/1339
f 836/1178 831/1296 832/1403
f 778/1324 761/1326 773/1194
f 775/1338 762/1339 763/1404
f 802/1361 785/1359 790/1405
f 951/1366 757/1203 947/1406
f 842/1369 843/1374 841/1132
f 770/1398 766/1407 778/1396
f 803/1307 792/1408 804/1409
f 794/1397 949/1410 955/1411
f 804/1277 784/1358 796/1278
f 848/1294 845/1412 847/1413
f 799/1349 786/1372 798/1188
f 793/1400 787/1414 799/1415
f 753/1416 740/1156 752/1417
f 732/1418 712/1314 724/1313
f 725/1300 748/1271 724/1313
f 953/1362 722/1316 945/1388
f 729/1329 752/1417 728/1153
f 955/1411 770/1398 794/1397
f 727/1262 745/1213 721/1260
f 752/1417 726/1151 728/1153
f 955/1411 769/1201 951/1366
f 732/1418 748/1271 756/1270
f 729/1419 747/1346 753/1395
f 727/1196 750/1155 751/1283
f 803/1307 780/1371 779/1180
f 797/1193 778/1324 773/1194
f 657/1081 680/1036 681/1040
f 902/964 901/1282 905/1246
f 866/1083 868/1009 867/1011
f 771/1046 759/1420 765/1047
f 625/1051 624/1421 622/1029
f 920/963 919/1422 917/1253
f 615/1087 653/1224 654/1035
f 613/1041 614/1058 683/1042
f 854/1088 856/1204 860/1089
f 922/1263 921/1257 923/1259
f 669/1032 706/1031 704/1091
f 680/1036 672/1038 670/1039
f 606/1044 605/1080 638/984
f 642/1053 644/1073 935/1054
f 834/1176 833/972 835/1177
f 770/1398 758/1423 766/1407
f 653/982 615/1424 616/1099
f 926/1116 930/1243 932/1379
f 672/1038 671/1037 674/1100
f 818/1024 817/1172 819/1025
f 678/1016 623/1052 622/1029
f 695/1381 696/1425 692/1321
f 886/1102 888/1104 892/1103
f 644/987 645/1343 939/988
f 888/1104 886/1102 885/1105
f 695/1383 661/1426 659/1384
f 627/1107 682/1266 618/1108
f 638/984 605/1080 607/985
f 870/1021 872/1427 876/1022
f 621/1030 618/1108 706/1031
f 890/990 892/1103 891/991
f 692/978 629/1179 631/979
f 824/975 823/1428 821/976
f 665/981 666/1289 653/982
f 637/1033 636/1068 607/1034
f 850/1001 852/1295 851/1002
f 676/949 677/1101 697/950
f 771/1046 948/960 759/1420
f 956/1306 771/1046 795/952
f 955/1411 781/1429 793/1400
f 934/1055 640/1123 639/1085
f 723/943 729/1419 717/944
f 935/989 686/1212 640/1211
f 937/1136 661/1130 662/1069
f 940/1209 660/1287 659/1063
f 747/1346 944/1392 735/1347
f 946/1008 719/1302 731/1233
f 746/1351 943/1389 734/1353
f 664/1092 704/1091 936/1135
f 798/1188 800/1190 776/1187
f 707/1139 701/1268 671/1140
f 688/1004 647/1000 611/1005
f 881/967 883/1227 879/968
f 778/1396 802/1430 794/1397
f 705/1019 708/1144 702/1145
f 723/943 711/945 942/1007
f 626/1146 627/1431 621/1147
f 793/1400 799/1415 775/1330
f 726/1151 714/1197 716/1152
f 868/1009 864/1432 863/1010
f 902/964 906/1249 908/965
f 810/957 809/956 811/970
f 616/1099 615/1433 607/985
f 675/1012 678/1016 676/1013
f 750/1155 752/1417 740/1156
f 755/1158 756/1320 744/1159
f 675/1012 674/1100 698/1015
f 952/958 779/1180 767/959
f 918/961 922/1263 924/962
f 833/972 829/1066 831/973
f 680/1036 702/1145 671/1037
f 803/1307 791/1434 792/1408
f 795/952 801/1350 789/953
f 938/942 662/1288 660/1287
f 770/1398 947/1406 758/1423
f 721/1260 953/1362 945/1388
f 936/1127 659/1384 661/1426
f 898/946 900/1236 899/947
f 663/940 664/1028 937/941
f 945/1388 709/1303 721/1260
f 939/1165 641/998 686/1122
f 731/1233 954/1360 946/1008
f 933/1057 639/1085 641/998
f 956/1306 791/1434 803/1307
f 794/1397 790/1435 782/1436
f 794/1397 782/1436 949/1410
f 804/1277 792/1437 784/1358
f 848/1294 846/1293 845/1412
f 799/1349 787/1438 786/1372
f 793/1400 781/1429 787/1414
f 753/1416 741/1439 740/1156
f 732/1418 720/1440 712/1314
f 725/1300 749/1319 748/1271
f 953/1362 746/1351 722/1316
f 729/1329 753/1416 752/1417
f 955/1411 951/1366 770/1398
f 727/1262 751/1332 745/1213
f 752/1417 750/1155 726/1151
f 955/1411 793/1400 769/1201
f 732/1418 724/1313 748/1271
f 729/1419 723/943 747/1346
f 727/1196 726/1151 750/1155
f 803/1307 804/1409 780/1371
f 797/1193 802/1361 778/1324
f 771/1046 952/958 948/960
f 956/1306 952/958 771/1046
f 955/1411 949/1410 781/1429
f 934/1055 935/1054 640/1123
f 935/989 939/988 686/1212
f 937/1136 936/1135 661/1130
f 940/1209 938/942 660/1287
f 747/1346 954/1360 944/1392
f 946/1008 942/1007 719/1302
f 746/1351 953/1362 943/1389
f 938/942 937/941 662/1288
f 770/1398 951/1366 947/1406
f 721/1260 745/1213 953/1362
f 936/1127 940/1126 659/1384
f 945/1388 941/1365 709/1303
f 939/1165 933/1057 641/998
f 731/1233 755/1158 954/1360
f 933/1057 934/1055 639/1085
f 956/1306 950/1352 791/1434
f 794/1397 802/1430 790/1435
o Top
v 0.375 2.25 0.3125
v 0.375 2.3125 0.3125
v 0.4375 2.25 0.3125
v 0.4375 2.3125 0.3125
v 0.375 2.25 0.375
v 0.375 2.3125 0.375
v 0.4375 2.3125 0.375
v 0.4375 2.25 0.375
v 0.125 2.3125 0.4375
v 0.125 2.25 0.4375
v 0.125 2.25 0.5
v 0.125 2.3125 0.5
v 0.375 2 0.4375
v 0.4375 2 0.4375
v 0.4375 2 0.5
v 0.375 2 0.5
v 0.4375 2.5625 0.4375
v 0.375 2.5625 0.4375
v 0.375 2.5625 0.5
v 0.4375 2.5625 0.5
v 0.6875 2.25 0.4375
v 0.6875 2.3125 0.4375
v 0.6875 2.3125 0.5
v 0.6875 2.25 0.5
v 0.5054 2.5205 0.4375
v 0.5054 2.5205 0.5
v 0.6455 2.3804 0.4375
v 0.6455 2.3804 0.5
v 0.6455 2.1821 0.4375
v 0.6455 2.1821 0.5
v 0.5054 2.042 0.4375
v 0.5054 2.042 0.5
v 0.3071 2.042 0.4375
v 0.3071 2.042 0.5
v 0.167 2.1821 0.4375
v 0.167 2.1821 0.5
v 0.167 2.3804 0.4375
v 0.167 2.3804 0.5
v 0.3071 2.5205 0.4375
v 0.3071 2.5205 0.5
v 0.5312 2.583 0.4375
v 0.708 2.4062 0.4375
v 0.708 2.4062 0.5
v 0.5312 2.583 0.5
v 0.708 2.1562 0.4375
v 0.708 2.1562 0.5
v 0.5312 1.9795 0.4375
v 0.5312 1.9795 0.5
v 0.2812 1.9795 0.4375
v 0.2812 1.9795 0.5
v 0.1045 2.1562 0.4375
v 0.1045 2.1562 0.5
v 0.1045 2.4062 0.4375
v 0.1045 2.4062 0.5
v 0.2812 2.583 0.4375
v 0.2812 2.583 0.5
v 0.375 2.25 -0.3125
v 0.375 2.3125 -0.3125
v 0.4375 2.25 -0.3125
v 0.4375 2.3125 -0.3125
v 0.375 2.25 -0.375
v 0.375 2.3125 -0.375
v 0.4375 2.3125 -0.375
v 0.4375 2.25 -0.375
v 0.125 2.3125 -0.4375
v 0.125 2.25 -0.4375
v 0.125 2.25 -0.5
v 0.125 2.3125 -0.5
v 0.375 2 -0.4375
v 0.4375 2 -0.4375
v 0.4375 2 -0.5
v 0.375 2 -0.5
v 0.4375 2.5625 -0.4375
v 0.375 2.5625 -0.4375
v 0.375 2.5625 -0.5
v 0.4375 2.5625 -0.5
v 0.6875 2.25 -0.4375
v 0.6875 2.3125 -0.4375
v 0.6875 2.3125 -0.5
v 0.6875 2.25 -0.5
v 0.5054 2.5205 -0.4375
v 0.5054 2.5205 -0.5
v 0.6455 2.3804 -0.4375
v 0.6455 2.3804 -0.5
v 0.6455 2.1821 -0.4375
v 0.6455 2.1821 -0.5
v 0.5054 2.042 -0.4375
v 0.5054 2.042 -0.5
v 0.3071 2.042 -0.4375
v 0.3071 2.042 -0.5
v 0.167 2.1821 -0.4375
v 0.167 2.1821 -0.5
v 0.167 2.3804 -0.4375
v 0.167 2.3804 -0.5
v 0.3071 2.5205 -0.4375
v 0.3071 2.5205 -0.5
v 0.5312 2.583 -0.4375
v 0.708 2.4062 -0.4375
v 0.708 2.4062 -0.5
v 0.5312 2.583 -0.5
v 0.708 2.1562 -0.4375
v 0.708 2.1562 -0.5
v 0.5312 1.9795 -0.4375
v 0.5312 1.9795 -0.5
v 0.2812 1.9795 -0.4375
v 0.2812 1.9795 -0.5
v 0.1045 2.1562 -0.4375
v 0.1045 2.1562 -0.5
v 0.1045 2.4062 -0.4375
v 0.1045 2.4062 -0.5
v 0.2812 2.583 -0.4375
v 0.2812 2.583 -0.5
vt 0.805 0.8807
vt 0.825 0.8899
vt 0.805 0.8899
vt 0.79 0.4128
vt 0.785 0.4495
vt 0.785 0.4128
vt 0.805 0.8257
vt 0.825 0.8349
vt 0.805 0.8349
vt 0.855 0.8716
vt 0.875 0.8807
vt 0.855 0.8807
vt 0.785 0.8532
vt 0.78 0.8899
vt 0.78 0.8532
vt 0.825 0.422
vt 0.805 0.4128
vt 0.825 0.4128
vt 0.895 0.4128
vt 0.9 0.4495
vt 0.895 0.4495
vt 0.835 0.3761
vt 0.83 0.4128
vt 0.83 0.3761
vt 0.825 0.8716
vt 0.825 0.8807
vt 0.89 0.367
vt 0.895 0.4037
vt 0.89 0.4037
vt 0.855 0.4312
vt 0.875 0.4404
vt 0.855 0.4404
vt 0.84 0.8899
vt 0.835 0.8532
vt 0.84 0.8532
vt 0.855 0.422
vt 0.875 0.4128
vt 0.875 0.422
vt 0.825 0.3578
vt 0.805 0.3486
vt 0.825 0.3486
vt 0.795 0.8899
vt 0.79 0.8532
vt 0.795 0.8532
vt 0.79 0.844
vt 0.9 0.367
vt 0.9 0.4037
vt 0.8 0.8073
vt 0.795 0.844
vt 0.795 0.8073
vt 0.84 0.4495
vt 0.845 0.4128
vt 0.845 0.4495
vt 0.805 0.4404
vt 0.825 0.4312
vt 0.825 0.4404
vt 0.89 0.7798
vt 0.895 0.8165
vt 0.89 0.8165
vt 0.895 0.8532
vt 0.89 0.8532
vt 0.885 0.4495
vt 0.88 0.4128
vt 0.885 0.4128
vt 0.885 0.8532
vt 0.88 0.8899
vt 0.88 0.8532
vt 0.835 0.3394
vt 0.83 0.3394
vt 0.845 0.7798
vt 0.85 0.8165
vt 0.845 0.8165
vt 0.89 0.8899
vt 0.885 0.8899
vt 0.79 0.4495
vt 0.795 0.4128
vt 0.795 0.4495
vt 0.885 0.8165
vt 0.805 0.4495
vt 0.79 0.3394
vt 0.795 0.3761
vt 0.79 0.3761
vt 0.785 0.3394
vt 0.78 0.3761
vt 0.78 0.3394
vt 0.805 0.3394
vt 0.825 0.3394
vt 0.875 0.7798
vt 0.855 0.789
vt 0.855 0.7798
vt 0.84 0.3394
vt 0.825 0.8073
vt 0.805 0.8165
vt 0.805 0.8073
vt 0.785 0.3761
vt 0.83 0.8165
vt 0.83 0.8532
vt 0.845 0.8532
vt 0.835 0.4128
vt 0.835 0.4495
vt 0.78 0.4128
vt 0.78 0.4495
vt 0.875 0.8899
vt 0.84 0.8165
vt 0.835 0.7798
vt 0.84 0.7798
vt 0.8 0.4128
vt 0.8 0.3761
vt 0.855 0.3853
vt 0.875 0.3761
vt 0.875 0.3853
vt 0.805 0.8624
vt 0.805 0.8716
vt 0.855 0.4495
vt 0.835 0.8165
vt 0.85 0.8899
vt 0.845 0.8899
vt 0.885 0.7798
vt 0.88 0.8165
vt 0.88 0.7798
vt 0.78 0.8073
vt 0.785 0.844
vt 0.78 0.844
vt 0.8 0.8532
vt 0.8 0.8899
vt 0.855 0.7982
vt 0.875 0.8073
vt 0.855 0.8073
vt 0.825 0.8624
vt 0.805 0.8532
vt 0.825 0.8532
vt 0.88 0.367
vt 0.885 0.4037
vt 0.88 0.4037
vt 0.89 0.4128
vt 0.885 0.367
vt 0.855 0.367
vt 0.875 0.367
vt 0.83 0.4495
vt 0.855 0.4037
vt 0.875 0.3945
vt 0.875 0.4037
vt 0.855 0.3945
vt 0.875 0.8165
vt 0.855 0.8165
vt 0.825 0.8257
vt 0.825 0.8165
vt 0.84 0.3761
vt 0.845 0.3761
vt 0.825 0.844
vt 0.79 0.8073
vt 0.785 0.8073
vt 0.845 0.3394
vt 0.855 0.8624
vt 0.875 0.8532
vt 0.875 0.8624
vt 0.875 0.789
vt 0.875 0.7982
vt 0.9 0.8532
vt 0.895 0.8899
vt 0.85 0.4128
vt 0.85 0.4495
vt 0.9 0.7798
vt 0.895 0.7798
vt 0.83 0.7798
vt 0.805 0.367
vt 0.805 0.3578
vt 0.85 0.3761
vt 0.84 0.4128
vt 0.9 0.8165
vt 0.835 0.8899
vt 0.83 0.8899
vt 0.805 0.422
vt 0.85 0.8532
vt 0.805 0.3761
vt 0.825 0.367
vt 0.825 0.3761
vt 0.795 0.3394
vt 0.8 0.3394
vt 0.785 0.8899
vt 0.79 0.8899
vt 0.875 0.8716
vt 0.855 0.8532
vt 0.8 0.4495
vt 0.9 0.4128
vt 0.805 0.4312
vt 0.895 0.367
vt 0.89 0.4495
vt 0.825 0.4495
vt 0.88 0.4495
vt 0.875 0.4495
vt 0.8 0.844
vt 0.85 0.7798
vt 0.855 0.3761
vt 0.875 0.4312
vt 0.855 0.4128
vt 0.85 0.3394
vt 0.805 0.844
vt 0.855 0.8899
vt 0.9 0.8899
s 1
f 965/1441 957/1442 966/1443
f 1055/1444 1053/1445 1054/1446
f 963/1447 978/1448 960/1449
f 1012/1450 997/1451 1011/1452
f 962/1453 974/1454 958/1455
f 1052/1456 1037/1457 1051/1458
f 1018/1459 1030/1460 1031/1461
f 1048/1462 1049/1463 1047/1464
f 965/1441 962/1465 958/1466
f 1027/1467 1017/1468 1020/1469
f 1018/1470 1021/1471 1014/1472
f 1012/1473 1009/1474 1010/1475
f 1017/1476 1022/1477 1023/1478
f 1062/1479 1059/1480 1061/1481
f 973/1482 963/1483 960/1484
f 962/1453 964/1485 963/1483
f 1017/1468 1025/1486 1013/1487
f 969/1488 959/1489 970/1490
f 1068/1491 1065/1492 1067/1493
f 1053/1494 1068/1495 1067/1496
f 1004/1497 1001/1498 1002/1499
f 1002/1499 998/1500 999/1501
f 1029/1502 1014/1503 1016/1504
f 984/1505 981/1506 983/1507
f 1046/1508 1047/1464 1045/1509
f 1018/1459 1020/1469 1017/1468
f 990/1510 991/1511 992/1512
f 984/1505 1000/1513 982/1514
f 1056/1515 1040/1516 1038/1517
f 1002/1499 984/1505 986/1518
f 1067/1496 1037/1519 1053/1494
f 1060/1520 1042/1521 1058/1522
f 1059/1523 1041/1524 1043/1525
f 1061/1481 1043/1526 1045/1527
f 987/1528 1005/1529 989/1530
f 1062/1531 1048/1462 1046/1508
f 977/1532 964/1533 959/1534
f 1054/1446 1041/1524 1057/1535
f 991/1536 1009/1474 993/1537
f 994/1538 1012/1473 1010/1475
f 1050/1539 1068/1491 1052/1540
f 1039/1541 1053/1445 1037/1542
f 981/1543 1011/1452 997/1451
f 1008/1544 1005/1545 1006/1546
f 1039/1547 1042/1521 1041/1548
f 1035/1549 1020/1550 1019/1551
f 967/1552 962/1465 968/1553
f 1021/1471 1013/1554 1014/1472
f 1008/1544 1009/1474 1007/1555
f 994/1538 995/1556 996/1557
f 988/1558 985/1559 987/1560
f 969/1561 961/1562 957/1563
f 973/1482 958/1564 974/1565
f 965/1441 958/1466 957/1442
f 1006/1566 988/1567 990/1568
f 961/1569 966/1570 957/1571
f 1025/1572 1015/1573 1013/1574
f 1019/1575 1029/1502 1016/1504
f 1023/1478 1018/1470 1017/1476
f 1020/1469 1026/1576 1027/1467
f 986/1518 983/1507 985/1559
f 1020/1550 1033/1577 1015/1578
f 1050/1539 1051/1579 1049/1463
f 964/1485 970/1490 959/1489
f 1033/1580 1016/1581 1015/1582
f 1019/1551 1034/1583 1035/1549
f 990/1568 987/1584 989/1585
f 979/1586 964/1533 980/1587
f 1065/1492 1064/1588 1063/1589
f 1060/1520 1057/1535 1059/1523
f 977/1590 960/1449 978/1448
f 971/1591 961/1562 972/1592
f 1064/1588 1061/1593 1063/1589
f 1058/1522 1054/1446 1057/1535
f 996/1594 981/1595 982/1596
f 1006/1566 1003/1597 1004/1598
f 983/1599 997/1600 998/1500
f 1067/1493 1049/1601 1051/1602
f 1058/1522 1040/1516 1055/1444
f 1063/1589 1049/1601 1065/1492
f 987/1603 1001/1498 1003/1604
f 989/1605 1007/1555 991/1536
f 1062/1479 1044/1606 1060/1607
f 1010/1475 992/1512 994/1538
f 992/1512 1006/1546 990/1510
f 1061/1593 1047/1608 1063/1589
f 1066/1609 1048/1462 1064/1588
f 998/1500 985/1610 983/1599
f 993/1537 1011/1611 995/1612
f 1004/1497 986/1518 988/1558
f 1068/1495 1038/1613 1052/1456
f 982/1596 1012/1450 996/1594
f 999/1501 997/1600 1000/1513
f 992/1512 993/1614 994/1538
f 1031/1461 1019/1575 1018/1459
f 1043/1615 1046/1616 1045/1617
f 1041/1548 1044/1618 1043/1619
f 975/1620 963/1483 976/1621
f 1004/1497 1002/1499 986/1518
f 993/1537 1009/1474 1011/1611
f 965/1441 968/1553 962/1465
f 986/1518 984/1505 983/1507
f 1012/1450 1000/1622 997/1451
f 996/1594 995/1623 981/1595
f 1012/1473 1011/1611 1009/1474
f 1067/1493 1065/1492 1049/1601
f 962/1453 975/1620 974/1454
f 969/1561 972/1592 961/1562
f 963/1447 979/1586 978/1448
f 1037/1624 1038/1517 1040/1516
f 1018/1459 1014/1625 1030/1460
f 989/1605 1005/1545 1007/1555
f 1048/1462 1050/1539 1049/1463
f 1068/1495 1056/1626 1038/1613
f 1017/1468 1028/1627 1025/1486
f 1006/1566 1005/1529 1003/1597
f 992/1512 991/1511 993/1614
f 971/1591 964/1485 961/1562
f 1064/1588 1062/1531 1061/1593
f 1031/1461 1032/1628 1019/1575
f 961/1569 967/1552 966/1570
f 1019/1575 1032/1628 1029/1502
f 975/1620 962/1453 963/1483
f 1020/1469 1015/1573 1026/1576
f 1060/1520 1058/1522 1057/1535
f 1060/1520 1044/1618 1042/1521
f 1067/1496 1051/1629 1037/1519
f 991/1536 1007/1555 1009/1474
f 1054/1446 1039/1541 1041/1524
f 1029/1502 1030/1630 1014/1503
f 1046/1508 1048/1462 1047/1464
f 1021/1471 1022/1631 1013/1554
f 1008/1544 1010/1475 1009/1474
f 1004/1497 1003/1604 1001/1498
f 969/1488 957/1632 959/1489
f 1008/1544 1007/1555 1005/1545
f 1039/1547 1040/1516 1042/1521
f 984/1505 999/1501 1000/1513
f 990/1510 989/1633 991/1511
f 1061/1481 1059/1480 1043/1526
f 987/1528 1003/1597 1005/1529
f 1043/1615 1044/1606 1046/1616
f 1065/1492 1066/1609 1064/1588
f 1066/1609 1050/1539 1048/1462
f 1020/1550 1036/1634 1033/1577
f 964/1485 971/1591 970/1490
f 1025/1572 1026/1576 1015/1573
f 1023/1478 1024/1635 1018/1470
f 1050/1539 1052/1540 1051/1579
f 1052/1456 1038/1613 1037/1457
f 973/1482 960/1484 958/1564
f 1055/1444 1056/1515 1053/1445
f 994/1538 993/1614 995/1556
f 1027/1467 1028/1627 1017/1468
f 988/1558 986/1518 985/1559
f 962/1453 961/1562 964/1485
f 1006/1566 1004/1598 988/1567
f 1018/1470 1024/1635 1021/1471
f 1033/1580 1034/1583 1016/1581
f 973/1482 976/1621 963/1483
f 992/1512 1008/1544 1006/1546
f 1017/1476 1013/1636 1022/1477
f 1061/1593 1045/1637 1047/1608
f 1062/1479 1060/1607 1059/1480
f 998/1500 1001/1498 985/1610
f 982/1596 1000/1622 1012/1450
f 1063/1589 1047/1608 1049/1601
f 987/1603 985/1610 1001/1498
f 1062/1479 1046/1616 1044/1606
f 1058/1522 1042/1521 1040/1516
f 1010/1475 1008/1544 992/1512
f 999/1501 998/1500 997/1600
f 977/1590 959/1638 960/1449
f 1058/1522 1055/1444 1054/1446
f 1059/1523 1057/1535 1041/1524
f 1002/1499 999/1501 984/1505
f 981/1543 995/1639 1011/1452
f 1039/1541 1054/1446 1053/1445
f 984/1505 982/1514 981/1506
f 1002/1499 1001/1498 998/1500
f 967/1552 961/1569 962/1465
f 1035/1549 1036/1634 1020/1550
f 1068/1491 1066/1609 1065/1492
f 1053/1494 1056/1626 1068/1495
f 1050/1539 1066/1609 1068/1491
f 994/1538 996/1557 1012/1473
f 1056/1515 1055/1444 1040/1516
f 1018/1459 1019/1575 1020/1469
f 977/1532 980/1587 964/1533
f 1062/1531 1064/1588 1048/1462
f 983/1599 981/1640 997/1600
f 1041/1548 1042/1521 1044/1618
f 1019/1551 1016/1581 1034/1583
f 990/1568 988/1567 987/1584
f 979/1586 963/1447 964/1533
f 1037/1624 1040/1516 1039/1547
