o Plane
v 1.25 0.25 0.15
v 1.2854 0.25 0.3229
v 1.2146 0.25 0.1354
v 1.3 0.25 0.2875
v 1.2 0.25 0.1
v 1.2854 0.25 0.2521
v 1.2146 0.25 0.0646
v 1.25 0.25 0.2375
v 1.25 0.25 0.05
v 1.2146 0.25 0.2521
v 1.2854 0.25 0.0646
v 1.2 0.25 0.2875
v 1.3 0.25 0.1
v 1.2146 0.25 0.3229
v 1.2854 0.25 0.1354
v 1.25 0.25 0.3375
v 1.25 0.25 -0.0375
v 1.2854 0.25 -0.2396
v 1.2146 0.25 -0.0521
v 1.3 0.25 -0.275
v 1.2 0.25 -0.0875
v 1.2854 0.25 -0.3104
v 1.2146 0.25 -0.1229
v 1.25 0.25 -0.325
v 1.25 0.25 -0.1375
v 1.2146 0.25 -0.3104
v 1.2854 0.25 -0.1229
v 1.2 0.25 -0.275
v 1.3 0.25 -0.0875
v 1.2146 0.25 -0.2396
v 1.2854 0.25 -0.0521
v 1.25 0.25 -0.225
v -1.5 0 1.5
v 1.5 0 1.5
v -1.5 -0 -1.5
v 1.5 -0 -1.5
v -1 1 1
v 1 1 1
v -1 1 -1
v 1 1 -1
v -1.5 0.3438 -0.8438
v -1.5 0.6562 -0.8438
v -1.5 0.3438 -1.1562
v -1.5 0.6562 -1.1562
v -1.5 0.3438 1.1562
v -1.5 0.6562 1.1562
v -1.5 0.3438 0.8438
v -1.5 0.6562 0.8438
v 1.5 0.3438 1.1562
v 1.5 0.6562 1.1562
v 1.5 0.3438 0.8438
v 1.5 0.6562 0.8438
v 1.5 0.3438 -0.8438
v 1.5 0.6562 -0.8438
v 1.5 0.3438 -1.1562
v 1.5 0.6562 -1.1562
v -0.8438 0.3438 1.5
v -0.8438 0.6562 1.5
v -1.1562 0.3438 1.5
v -1.1562 0.6562 1.5
v 1.1562 0.3438 1.5
v 1.1562 0.6562 1.5
v 0.8438 0.3438 1.5
v 0.8438 0.6562 1.5
v 1.1562 0.3438 -1.5
v 1.1562 0.6562 -1.5
v 0.8438 0.3438 -1.5
v 0.8438 0.6562 -1.5
v -0.8438 0.3438 -1.5
v -0.8438 0.6562 -1.5
v -1.1562 0.3438 -1.5
v -1.1562 0.6562 -1.5
v -1.4585 8.5626 -1.4859
v -0.9872 8.6113 -1.6179
v -1.8034 8.549 -1.1357
v -1.9297 8.5741 -0.6611
v -1.8034 8.6312 -0.1893
v -1.4585 8.705 0.1533
v -0.9872 8.7757 0.275
v -0.516 8.8244 0.143
v -0.1711 8.8381 -0.2072
v -0.0448 8.813 -0.6819
v -0.1711 8.7559 -1.1537
v -0.516 8.6821 -1.4963
v -1.4702 8.5594 -1.5063
v -0.9872 8.6093 -1.6416
v -1.8238 8.5454 -1.1473
v -1.9532 8.5711 -0.6609
v -1.8238 8.6297 -0.1772
v -1.4702 8.7053 0.174
v -0.9872 8.7778 0.2986
v -0.5043 8.8277 0.1633
v -0.1507 8.8417 -0.1956
v -0.0213 8.8159 -0.6821
v -0.1507 8.7574 -1.1657
v -0.5043 8.6818 -1.5169
v -1.4765 8.6088 -1.5106
v -0.9936 8.6587 -1.6459
v -1.8301 8.5948 -1.1516
v -1.9595 8.6205 -0.6651
v -1.8301 8.6791 -0.1815
v -1.4765 8.7547 0.1697
v -0.9936 8.8272 0.2943
v -0.5106 8.8771 0.159
v -0.157 8.8911 -0.1999
v -0.0276 8.8654 -0.6864
v -0.157 8.8068 -1.17
v -0.5106 8.7312 -1.5212
v -1.2292 8.6775 -1.083
v -0.9936 8.7018 -1.149
v -1.4016 8.6707 -0.9079
v -1.4648 8.6832 -0.6706
v -1.4016 8.7118 -0.4347
v -1.2292 8.7487 -0.2634
v -0.9936 8.784 -0.2026
v -0.758 8.8084 -0.2686
v -0.5855 8.8152 -0.4437
v -0.5224 8.8027 -0.681
v -0.5855 8.7741 -0.9169
v -0.758 8.7372 -1.0882
v -1.2333 9.188 -1.0241
v -1.0566 9.2063 -1.0736
v -1.3627 9.1829 -0.8928
v -1.4101 9.1923 -0.7148
v -1.3627 9.2137 -0.5379
v -1.2333 9.2414 -0.4094
v -1.0566 9.2679 -0.3638
v -0.8799 9.2862 -0.4133
v -0.7506 9.2913 -0.5446
v -0.7032 9.2819 -0.7226
v -0.7506 9.2605 -0.8995
v -0.8799 9.2328 -1.028
v -0.8438 0.6562 1.125
v -0.8438 0.3438 1.125
v -1.1562 0.3438 1.125
v -1.1562 0.6562 1.125
v -1.125 0.6562 -0.8438
v -1.125 0.3438 -0.8438
v -1.125 0.3438 -1.1562
v -1.125 0.6562 -1.1562
v -1.125 0.6562 1.1562
v -1.125 0.3438 1.1562
v -1.125 0.3438 0.8438
v -1.125 0.6562 0.8438
v 1.125 0.6562 0.8438
v 1.125 0.3438 0.8438
v 1.125 0.3438 1.1562
v 1.125 0.6562 1.1562
v 1.125 0.6562 -1.1562
v 1.125 0.3438 -1.1562
v 1.125 0.3438 -0.8438
v 1.125 0.6562 -0.8438
v 1.1562 0.6562 1.125
v 1.1562 0.3438 1.125
v 0.8438 0.3438 1.125
v 0.8438 0.6562 1.125
v 0.8438 0.6562 -1.125
v 0.8438 0.3438 -1.125
v 1.1562 0.3438 -1.125
v 1.1562 0.6562 -1.125
v -1.1562 0.6562 -1.125
v -1.1562 0.3438 -1.125
v -0.8438 0.3438 -1.125
v -0.8438 0.6562 -1.125
v -1.8198 4.6142 0.2646
v -1.8329 4.6078 0.3
v -1.8198 4.6142 0.3354
v -1.788 4.6296 0.35
v -1.7562 4.6451 0.3354
v -1.743 4.6515 0.3
v -1.7562 4.6451 0.2646
v -1.788 4.6296 0.25
v -1.408 2.7013 -0.1354
v -1.4101 2.7158 -0.1
v -1.408 2.7013 -0.0646
v -1.403 2.6663 -0.05
v -1.3979 2.6313 -0.0646
v -1.3958 2.6168 -0.1
v -1.3979 2.6313 -0.1354
v -1.403 2.6663 -0.15
v -1.5226 2.548 -0.1354
v -1.5371 2.5459 -0.1
v -1.5226 2.548 -0.0646
v -1.4876 2.553 -0.05
v -1.4526 2.5581 -0.0646
v -1.4381 2.5602 -0.1
v -1.4526 2.5581 -0.1354
v -1.4876 2.553 -0.15
v -1.6943 4.6807 -0.3354
v -1.6964 4.6952 -0.3
v -1.6943 4.6807 -0.2646
v -1.6893 4.6457 -0.25
v -1.6842 4.6107 -0.2646
v -1.6821 4.5962 -0.3
v -1.6842 4.6107 -0.3354
v -1.6893 4.6457 -0.35
v -1.8089 4.5274 -0.3354
v -1.8234 4.5253 -0.3
v -1.8089 4.5274 -0.2646
v -1.7739 4.5324 -0.25
v -1.7389 4.5375 -0.2646
v -1.7244 4.5396 -0.3
v -1.7389 4.5375 -0.3354
v -1.7739 4.5324 -0.35
v 0.15 2.75 -1.25
v 0.1354 2.75 -1.2146
v 0.1 2.75 -1.2
v 0.0646 2.75 -1.2146
v 0.05 2.75 -1.25
v 0.0646 2.75 -1.2854
v 0.1 2.75 -1.3
v 0.1354 2.75 -1.2854
v 0.15 2.85 -1.15
v 0.1354 2.8146 -1.15
v 0.1 2.8 -1.15
v 0.0646 2.8146 -1.15
v 0.05 2.85 -1.15
v 0.0646 2.8854 -1.15
v 0.1 2.9 -1.15
v 0.1354 2.8854 -1.15
v 1.3077 1.7086 0.1563
v -0.2078 0.1155 -1.2079
v 1.3392 1.6926 0.1416
v -0.243 0.1118 -1.2225
v 1.3523 1.6859 0.1063
v -0.2784 0.1109 -1.2079
v 1.3392 1.6926 0.0709
v -0.2932 0.1133 -1.1727
v 1.3077 1.7086 0.0563
v -0.2788 0.1176 -1.1376
v 1.2761 1.7246 0.0709
v -0.2436 0.1213 -1.123
v 1.2631 1.7312 0.1063
v -0.2083 0.1222 -1.1376
v 1.2761 1.7246 0.1416
v -0.1934 0.1198 -1.1727
v 0.101 4.6244 -1.6372
v 0.3909 0.1543 -1.2079
v 0.0658 4.6207 -1.6518
v 0.3557 0.1506 -1.2225
v 0.0304 4.6198 -1.6372
v 0.3203 0.1498 -1.2079
v 0.0156 4.6223 -1.602
v 0.3055 0.1522 -1.1727
v 0.03 4.6266 -1.5668
v 0.3199 0.1565 -1.1376
v 0.0652 4.6302 -1.5523
v 0.3551 0.1602 -1.123
v 0.1005 4.6311 -1.5668
v 0.3905 0.1611 -1.1376
v 0.1154 4.6287 -1.602
v 0.4053 0.1586 -1.1727
v 0.1354 2.8854 -0.9
v 0.1 2.9 -0.9
v 0.0646 2.8854 -0.9
v 0.05 2.85 -0.9
v 0.0646 2.8146 -0.9
v 0.1 2.8 -0.9
v 0.15 2.85 -0.9
v 0.1354 2.8146 -0.9
v 0.1354 2.8854 -1.15
v 0.1 2.9 -1.15
v 0.0646 2.8854 -1.15
v 0.05 2.85 -1.15
v 0.0646 2.8146 -1.15
v 0.1 2.8 -1.15
v 0.1354 2.8146 -1.15
v 0.15 2.85 -1.15
v 0.1354 2.75 -1.2854
v 0.1354 0.25 -1.2854
v 0.1 2.75 -1.3
v 0.1 0.25 -1.3
v 0.0646 2.75 -1.2854
v 0.0646 0.25 -1.2854
v 0.05 2.75 -1.25
v 0.05 0.25 -1.25
v 0.0646 2.75 -1.2146
v 0.0646 0.25 -1.2146
v 0.1 2.75 -1.2
v 0.1 0.25 -1.2
v 0.1354 2.75 -1.2146
v 0.1354 0.25 -1.2146
v 0.15 2.75 -1.25
v 0.15 0.25 -1.25
v -0.0646 8.4487 -2.6632
v -0.0646 0.1308 -1.2079
v -0.1 8.4441 -2.6771
v -0.1 0.1294 -1.2225
v -0.1354 8.4487 -2.6632
v -0.1354 0.1308 -1.2079
v -0.15 8.4597 -2.6296
v -0.15 0.1342 -1.1727
v -0.1354 8.4708 -2.596
v -0.1354 0.1375 -1.1376
v -0.1 8.4754 -2.5821
v -0.1 0.1389 -1.123
v -0.0646 8.4708 -2.596
v -0.0646 0.1375 -1.1376
v -0.05 8.4597 -2.6296
v -0.05 0.1342 -1.1727
v -0.5106 8.7312 -1.5212
v -0.157 8.8068 -1.17
v -0.0276 8.8654 -0.6864
v -0.157 8.8911 -0.1999
v -0.5106 8.8771 0.159
v -0.9936 8.8272 0.2943
v -1.4765 8.7547 0.1697
v -1.8301 8.6791 -0.1815
v -1.9595 8.6205 -0.6651
v -1.8301 8.5948 -1.1516
v -0.9936 8.6587 -1.6459
v -1.4765 8.6088 -1.5106
v -0.5043 8.6818 -1.5169
v -0.1507 8.7574 -1.1657
v -0.0213 8.8159 -0.6821
v -0.1507 8.8417 -0.1956
v -0.5043 8.8277 0.1633
v -0.9872 8.7778 0.2986
v -1.4702 8.7053 0.174
v -1.8238 8.6297 -0.1772
v -1.9532 8.5711 -0.6609
v -1.8238 8.5454 -1.1473
v -0.9872 8.6093 -1.6416
v -1.4702 8.5594 -1.5063
v -0.8799 9.2328 -1.028
v -0.7506 9.2605 -0.8995
v -0.7032 9.2819 -0.7226
v -0.7506 9.2913 -0.5446
v -0.8799 9.2862 -0.4133
v -1.0566 9.2679 -0.3638
v -1.2333 9.2414 -0.4094
v -1.3627 9.2137 -0.5379
v -1.4101 9.1923 -0.7148
v -1.3627 9.1829 -0.8928
v -1.0566 9.2063 -1.0736
v -1.2333 9.188 -1.0241
v -0.8053 9.1078 -1.1204
v -0.6328 9.1447 -0.9491
v -0.5697 9.1733 -0.7132
v -0.6328 9.1858 -0.4758
v -0.8053 9.179 -0.3007
v -1.0409 9.1547 -0.2347
v -1.2765 9.1193 -0.2956
v -1.4489 9.0824 -0.4669
v -1.5121 9.0538 -0.7028
v -1.4489 9.0413 -0.9401
v -1.0409 9.0725 -1.1812
v -1.2765 9.0481 -1.1152
v 1.3772 2.1728 0.526
v 1.3418 2.1728 0.5113
v 1.3272 2.1728 0.476
v 1.3418 2.1728 0.4406
v 1.3772 2.1728 0.426
v 1.4125 2.1728 0.4406
v 1.4272 2.1728 0.476
v 1.4125 2.1728 0.5113
v 1.5396 2.0517 0.1434
v 1.5527 2.0451 0.108
v 1.5396 2.0517 0.0727
v 1.5081 2.0677 0.058
v 1.4765 2.0837 0.0727
v 1.4635 2.0903 0.108
v 1.4765 2.0837 0.1434
v 1.5081 2.0677 0.158
v 1.4631 1.871 -0.3408
v 1.4278 1.871 -0.3554
v 1.4131 1.871 -0.3908
v 1.4278 1.871 -0.4261
v 1.4631 1.871 -0.4408
v 1.4985 1.871 -0.4261
v 1.5131 1.871 -0.3908
v 1.4985 1.871 -0.3554
v 1.3593 2.1195 -0.0441
v 1.3739 2.1195 -0.0795
v 1.3593 2.1195 -0.1148
v 1.3239 2.1195 -0.1295
v 1.2886 2.1195 -0.1148
v 1.2739 2.1195 -0.0795
v 1.2886 2.1195 -0.0441
v 1.3239 2.1195 -0.0295
v 0.0159 0.7545 -0.9355
v -0.4553 0.7058 -0.8035
v -0.8002 0.6921 -0.4533
v -0.9265 0.7172 0.0213
v -0.8002 0.7743 0.4931
v -0.4553 0.8481 0.8357
v 0.0159 0.9189 0.9573
v 0.4871 0.9676 0.8254
v 0.832 0.9812 0.4751
v 0.9583 0.9561 0.0005
v 0.832 0.899 -0.4713
v 0.4871 0.8252 -0.8139
v -0.7007 6.654 0.413
v -0.2313 6.53 0.3024
v -0.3437 7.4099 0.226
v 0.0048 8.1762 -0.6251
v -0.411 7.937 0.1802
v -0.1367 8.3687 -0.1889
v -0.5237 8.6848 -1.4538
v -0.196 8.7549 -1.1283
v -0.0761 8.8091 -0.6801
v -0.196 8.833 -0.2292
v -0.5237 8.82 0.1035
v -0.9713 8.7738 0.2289
v -1.419 8.7066 0.1133
v -1.7467 8.6365 -0.2121
v -1.8666 8.5822 -0.6604
v -1.7467 8.5584 -1.1113
v -0.9713 8.6176 -1.5693
v -1.419 8.5713 -1.444
v 0.8102 1.8674 -0.0772
v 0.6518 2.1929 0.3475
v 0.7354 2.4534 -0.1281
v 0.6041 2.488 -0.584
v 0.5075 3.2451 -0.6498
v -0.0141 4.6938 -1.1072
v 0.1204 5.2535 0.2713
v -0.1392 5.8729 0.3993
v 0.0449 4.4308 0.5246
v 0.6333 2.5382 0.3399
v 0.1568 3.5545 0.6007
v -0.1252 8.3966 -1.1225
v 0.0035 8.4343 -0.649
v -0.4534 8.1913 -1.4537
v -0.8992 7.9214 -1.558
v -0.1497 8.5882 -1.1391
v -0.3405 7.3072 -1.3769
v -0.829 7.3717 -1.5103
v 0.1808 4.3841 -0.9772
v 0.3099 3.5812 -0.8813
v -0.0065 4.6911 -1.1497
v 0.5324 3.2461 -0.6751
v 0.629 2.489 -0.6094
v 0.7666 2.4572 -0.1298
v 0.6767 2.198 0.3695
v 0.8415 1.8713 -0.079
v -1.4585 8.5626 -1.4859
v -0.9872 8.6113 -1.6179
v -1.8034 8.549 -1.1357
v -1.9297 8.5741 -0.6611
v -1.8034 8.6312 -0.1893
v -1.4585 8.705 0.1533
v -0.9872 8.7757 0.275
v -0.516 8.8244 0.143
v -0.1711 8.8381 -0.2072
v -0.0448 8.813 -0.6819
v -0.1711 8.7559 -1.1537
v -0.516 8.6821 -1.4963
v -2.6517 6.3243 0.2646
v -1.1648 0.0737 0.2646
v -2.6649 6.3179 0.3
v -1.1793 0.0716 0.3
v -2.6517 6.3243 0.3354
v -1.1648 0.0737 0.3354
v -2.6199 6.3398 0.35
v -1.1298 0.0788 0.35
v -2.5882 6.3553 0.3354
v -1.0948 0.0839 0.3354
v -2.575 6.3617 0.3
v -1.0803 0.0859 0.3
v -2.5882 6.3553 0.2646
v -1.0948 0.0839 0.2646
v -2.6199 6.3398 0.25
v -1.1298 0.0788 0.25
v -1.3974 4.7237 -0.3354
v -1.3995 4.7382 -0.3
v -1.3974 4.7237 -0.2646
v -1.3924 4.6887 -0.25
v -1.3873 4.6537 -0.2646
v -1.3852 4.6392 -0.3
v -1.3924 4.6887 -0.35
v -1.3873 4.6537 -0.3354
v -1.6943 4.6807 -0.3354
v -1.6964 4.6952 -0.3
v -1.6943 4.6807 -0.2646
v -1.6893 4.6457 -0.25
v -1.6842 4.6107 -0.2646
v -1.6821 4.5962 -0.3
v -1.6842 4.6107 -0.3354
v -1.6893 4.6457 -0.35
v -1.8089 4.5274 -0.3354
v -1.1648 0.0737 -0.3354
v -1.8234 4.5253 -0.3
v -1.1793 0.0716 -0.3
v -1.8089 4.5274 -0.2646
v -1.1648 0.0737 -0.2646
v -1.7739 4.5324 -0.25
v -1.1298 0.0788 -0.25
v -1.7389 4.5375 -0.2646
v -1.0948 0.0839 -0.2646
v -1.7244 4.5396 -0.3
v -1.0803 0.0859 -0.3
v -1.7389 4.5375 -0.3354
v -1.0948 0.0839 -0.3354
v -1.7739 4.5324 -0.35
v -1.1298 0.0788 -0.35
v -1.1606 2.7371 -0.1354
v -1.1627 2.7516 -0.1
v -1.1606 2.7371 -0.0646
v -1.1556 2.7021 -0.05
v -1.1505 2.6671 -0.0646
v -1.1484 2.6526 -0.1
v -1.1556 2.7021 -0.15
v -1.1505 2.6671 -0.1354
v -1.408 2.7013 -0.1354
v -1.4101 2.7158 -0.1
v -1.408 2.7013 -0.0646
v -1.403 2.6663 -0.05
v -1.3979 2.6313 -0.0646
v -1.3958 2.6168 -0.1
v -1.3979 2.6313 -0.1354
v -1.403 2.6663 -0.15
v -1.5226 2.548 -0.1354
v -1.1648 0.0737 -0.1354
v -1.5371 2.5459 -0.1
v -1.1793 0.0716 -0.1
v -1.5226 2.548 -0.0646
v -1.1648 0.0737 -0.0646
v -1.4876 2.553 -0.05
v -1.1298 0.0788 -0.05
v -1.4526 2.5581 -0.0646
v -1.0948 0.0839 -0.0646
v -1.4381 2.5602 -0.1
v -1.0803 0.0859 -0.1
v -1.4526 2.5581 -0.1354
v -1.0948 0.0839 -0.1354
v -1.4876 2.553 -0.15
v -1.1298 0.0788 -0.15
v -2.3815 8.4862 0.0646
v -1.1648 0.0737 0.0646
v -2.396 8.4841 0.1
v -1.1793 0.0716 0.1
v -2.3815 8.4862 0.1354
v -1.1648 0.0737 0.1354
v -2.3465 8.4912 0.15
v -1.1298 0.0788 0.15
v -2.3115 8.4963 0.1354
v -1.0948 0.0839 0.1354
v -2.297 8.4984 0.1
v -1.0803 0.0859 0.1
v -2.3115 8.4963 0.0646
v -1.0948 0.0839 0.0646
v -2.3465 8.4912 0.05
v -1.1298 0.0788 0.05
v 0.2937 3.582 -0.8472
v 0.1659 4.3853 -0.9418
v -0.8131 7.378 -1.4617
v -0.3482 7.3099 -1.3344
v -0.1746 8.5873 -1.1138
v -0.8833 7.9277 -1.5094
v -0.461 8.1941 -1.4112
v -0.0277 8.4305 -0.6472
v -0.1501 8.3956 -1.0971
v 0.1492 3.5501 0.5612
v 0.6084 2.5331 0.318
v 0.0373 4.4263 0.4851
v -0.1469 5.8685 0.3598
v 0.1038 5.2488 0.241
v 0.4794 0.8279 -0.7714
v 0.8071 0.898 -0.4459
v 0.9271 0.9522 0.0023
v 0.8071 0.9761 0.4532
v 0.4794 0.9631 0.7859
v 0.0318 0.9169 0.9113
v -0.4158 0.8497 0.7957
v -0.7435 0.7796 0.4703
v -0.8635 0.7253 0.022
v -0.7435 0.7015 -0.4289
v -0.4158 0.7144 -0.7616
v 0.0318 0.7607 -0.887
v -0.1118 8.3737 -0.1669
v -0.4033 7.9414 0.2197
v 0.036 8.18 -0.6269
v -0.336 7.4143 0.2654
v -0.2237 6.5344 0.3419
v -0.7166 6.656 0.4591
v -0.2567 2.9237 1.0651
v -0.2224 2.9407 1.0643
v -0.1862 2.9286 1.0648
v -0.1691 2.8943 1.0665
v -0.1813 2.8581 1.0682
v -0.2155 2.8411 1.069
v -0.2518 2.8532 1.0685
v -0.2689 2.8874 1.0668
v -0.2473 2.7953 1.2067
v -0.2121 2.7984 1.2213
v -0.1768 2.8002 1.2065
v -0.1622 2.7995 1.1711
v -0.1768 2.7968 1.1359
v -0.2121 2.7936 1.1214
v -0.2473 2.7919 1.1361
v -0.2619 2.7926 1.1715
v -0.1755 6.6993 1.2908
v 0.3245 0.3318 1.3249
v -0.1402 6.7024 1.3053
v 0.3598 0.3349 1.3394
v -0.1049 6.7042 1.2906
v 0.3951 0.3366 1.3246
v -0.0903 6.7035 1.2552
v 0.4097 0.336 1.2893
v -0.1049 6.7008 1.22
v 0.3951 0.3332 1.254
v -0.1402 6.6976 1.2055
v 0.3598 0.3301 1.2395
v -0.1755 6.6959 1.2202
v 0.3245 0.3284 1.2542
v -0.1901 6.6966 1.2556
v 0.3099 0.329 1.2896
v -0.5851 4.7744 1.1119
v -0.274 0.2903 1.3269
v -0.5499 4.7775 1.1264
v -0.2387 0.2935 1.3414
v -0.5146 4.7793 1.1116
v -0.2035 0.2952 1.3266
v -0.5 4.7786 1.0763
v -0.1889 0.2945 1.2913
v -0.5146 4.7759 1.041
v -0.2035 0.2918 1.256
v -0.5499 4.7728 1.0265
v -0.2387 0.2887 1.2415
v -0.5851 4.771 1.0412
v -0.274 0.2869 1.2562
v -0.5997 4.7717 1.0766
v -0.2886 0.2876 1.2916
v -0.2567 2.9117 0.8154
v -0.2224 2.9287 0.8145
v -0.1862 2.9166 0.8151
v -0.1691 2.8824 0.8168
v -0.1813 2.8461 0.8185
v -0.2155 2.8291 0.8193
v -0.2689 2.8755 0.8171
v -0.2518 2.8412 0.8187
v -0.2567 2.9237 1.0651
v -0.2224 2.9407 1.0643
v -0.1862 2.9286 1.0648
v -0.1691 2.8943 1.0665
v -0.1813 2.8581 1.0682
v -0.2155 2.8411 1.069
v -0.2518 2.8532 1.0685
v -0.2689 2.8874 1.0668
v -0.2473 2.7953 1.2067
v -0.0745 0.3041 1.3262
v -0.2121 2.7984 1.2213
v -0.0392 0.3073 1.3407
v -0.1768 2.8002 1.2065
v -0.004 0.309 1.326
v -0.1622 2.7995 1.1711
v 0.0107 0.3083 1.2906
v -0.1768 2.7968 1.1359
v -0.004 0.3056 1.2553
v -0.2121 2.7936 1.1214
v -0.0392 0.3025 1.2408
v -0.2473 2.7919 1.1361
v -0.0745 0.3007 1.2556
v -0.2619 2.7926 1.1715
v -0.0891 0.3014 1.2909
v -0.4626 8.7879 0.9194
v 0.125 0.3179 1.3255
v -0.4274 8.791 0.9339
v 0.1603 0.3211 1.34
v -0.3921 8.7928 0.9192
v 0.1956 0.3228 1.3253
v -0.3775 8.7921 0.8838
v 0.2102 0.3221 1.2899
v -0.3921 8.7894 0.8486
v 0.1956 0.3194 1.2547
v -0.4274 8.7862 0.834
v 0.1603 0.3163 1.2402
v -0.4626 8.7845 0.8488
v 0.125 0.3146 1.2549
v -0.4772 8.7852 0.8842
v 0.1104 0.3152 1.2903
v -1.2292 8.6775 -1.083
v -0.9936 8.7018 -1.149
v -1.4016 8.6707 -0.9079
v -1.4648 8.6832 -0.6706
v -1.4016 8.7118 -0.4347
v -1.2292 8.7487 -0.2634
v -0.9936 8.784 -0.2026
v -0.758 8.8084 -0.2686
v -0.5855 8.8152 -0.4437
v -0.5224 8.8027 -0.681
v -0.5855 8.7741 -0.9169
v -0.758 8.7372 -1.0882
v -1.2765 9.0481 -1.1152
v -1.0409 9.0725 -1.1812
v -1.4489 9.0413 -0.9401
v -1.5121 9.0538 -0.7028
v -1.4489 9.0824 -0.4669
v -1.2765 9.1193 -0.2956
v -1.0409 9.1547 -0.2347
v -0.8053 9.179 -0.3007
v -0.6328 9.1858 -0.4758
v -0.5697 9.1733 -0.7132
v -0.6328 9.1447 -0.9491
v -0.8053 9.1078 -1.1204
v 0.4637 0.9514 -0.7822
v 0.7914 1.0215 -0.4567
v 0.9113 1.0758 -0.0084
v 0.7914 1.0996 0.4425
v 0.4637 1.0867 0.7752
v 0.016 1.0404 0.9005
v -0.4316 0.9732 0.785
v -0.7593 0.9031 0.4595
v -0.8793 0.8489 0.0113
v -0.7593 0.825 -0.4396
v -0.4316 0.838 -0.7723
v 0.016 0.8842 -0.8977
v -1.419 8.5713 -1.444
v -0.9713 8.6176 -1.5693
v -1.7467 8.5584 -1.1113
v -1.8666 8.5822 -0.6604
v -1.7467 8.6365 -0.2121
v -1.419 8.7066 0.1133
v -0.9713 8.7738 0.2289
v -0.5237 8.82 0.1035
v -0.196 8.833 -0.2292
v -0.0761 8.8091 -0.6801
v -0.196 8.7549 -1.1283
v -0.5237 8.6848 -1.4538
v -1.1666 6.5947 -1.2723
v -0.719 6.641 -1.3977
v -1.4943 6.5818 -0.9396
v -1.6143 6.6056 -0.4887
v -1.4943 6.6599 -0.0405
v -1.1666 6.73 0.285
v -0.719 6.7972 0.4006
v -0.2713 6.8435 0.2752
v -0.7032 6.5175 -1.3869
v -1.1508 6.4712 -1.2616
v 0.0564 6.7783 -0.9567
v -0.2713 6.7082 -1.2821
v -0.2556 6.5847 -1.2714
v -0.2183 6.7214 0.2481
v -0.2556 6.7199 0.2859
v -0.7032 6.6737 0.4113
v -1.1508 6.6065 0.2958
v -1.4785 6.5364 -0.0297
v -1.5985 6.4821 -0.478
v -1.4785 6.4583 -0.9289
v -0.1147 6.8082 -0.3615
v -0.5753 6.7448 -0.4143
v -0.2341 6.8449 0.2373
v 0.0883 6.7928 -0.8371
v -0.6619 2.6416 -0.9289
v -0.2142 2.6879 -1.0543
v -0.9896 2.6287 -0.5962
v -1.1095 2.6525 -0.1454
v -0.9896 2.7067 0.3029
v -0.6619 2.7769 0.6284
v -0.2142 2.844 0.7439
v 0.2334 2.8903 0.6185
v 0.5611 2.9033 0.2858
v -0.6461 2.5181 -0.9182
v 0.5611 2.8252 -0.6133
v 0.2334 2.7551 -0.9388
v 0.6158 2.772 0.1501
v 0.5769 2.7797 0.2965
v 0.2492 2.7668 0.6292
v -0.1985 2.7205 0.7546
v -0.6461 2.6533 0.6391
v -0.9738 2.5832 0.3136
v -1.0938 2.529 -0.1346
v -0.9738 2.5051 -0.5855
v -0.1985 2.5643 -1.0436
v 0.1694 2.8046 -0.2743
v 0.5761 2.832 -0.5572
v 0.6001 2.8955 0.1394
v 0.2492 2.6315 -0.9281
v 0.5769 2.7016 -0.6026
v 0.1851 2.6811 -0.2635
v 0.5919 2.7084 -0.5464
v 0.0721 6.6548 -0.9459
v -0.0989 6.6846 -0.3508
v 0.1041 6.6692 -0.8264
v -0.5596 6.6212 -0.4036
v -0.1354 5.6538 -1.6671
v -0.1 5.6584 -1.6532
v -0.0646 5.6538 -1.6671
v -0.05 5.6428 -1.7007
v -0.0646 5.6317 -1.7342
v -0.1 5.6271 -1.7482
v -0.1354 5.6317 -1.7342
v -0.15 5.6428 -1.7007
v -0.4507 3.8596 -1.5675
v -0.4859 3.8559 -1.5821
v -0.5212 3.855 -1.5675
v -0.5361 3.8574 -1.5323
v -0.5217 3.8617 -1.4971
v -0.4865 3.8654 -1.4825
v -0.4511 3.8663 -1.4971
v -0.4363 3.8639 -1.5323
v 1.5 0 0
v 0 -0 -1.5
v -1.5 0 0
v 0 0 1.5
v -1 1 -0
v 0 1 -1
v 1 1 -0
v 0 1 1
v 1.3636 1.2114 0.3817
v 1.3136 1.2114 0.4317
v 1.3489 1.2114 0.3464
v 1.3136 1.2114 0.3317
v 1.2782 1.2114 0.3464
v 1.2636 1.2114 0.3817
v 1.2782 1.2114 0.4171
v 1.2516 1.1847 -0.0481
v 1.237 1.1847 -0.0835
v 1.2516 1.1847 -0.1188
v 1.287 1.1847 -0.1335
v 1.3223 1.1847 -0.1188
v 1.287 1.1847 -0.0335
v 1.3223 1.1847 -0.0481
v 0.1354 1.5 -1.2146
v 0.15 1.5 -1.25
v -0.0646 7.0402 -2.1987
v -0.1354 7.0402 -2.1987
v -0.1354 7.0623 -2.1315
v -0.0646 7.0623 -2.1315
v -0.4136 6.0359 -1.2844
v -0.1811 6.0018 -1.2208
v -0.1735 5.9991 -1.2633
v -0.1609 1.5463 1.1958
v -0.1335 4.556 1.137
v -0.1688 4.5529 1.1225
v -0.0983 4.5578 1.1222
v -0.0837 4.5571 1.0869
v -0.0983 4.5544 1.0516
v -0.1688 4.5495 1.0518
v 0.0745 3.5155 1.3078
v 0.0599 3.5128 1.2726
v 0.1451 3.5204 1.3076
v 0.1597 3.5197 1.2723
v 0.1451 3.517 1.237
v 0.1098 3.5139 1.2225
v 0.0745 3.5121 1.2372
v -0.4296 2.5324 1.2194
v -0.4442 2.5297 1.1841
v -0.3943 2.5355 1.2339
v -0.3444 2.5366 1.1838
v -0.359 2.5339 1.1485
v -0.4296 2.529 1.1487
v -0.1256 1.5529 1.281
v -0.1755 1.547 1.2312
v -0.0904 1.5546 1.2662
v -0.0758 1.5539 1.2309
v -0.1256 1.5481 1.1811
v -1.2592 1.3231 -0.1
v -1.3087 1.3159 -0.05
v -1.3437 1.3109 -0.0646
v -1.3087 1.3159 -0.15
v -1.3582 1.3088 -0.1
v -1.4518 2.3056 -0.35
v -1.4169 2.3107 -0.3354
v -1.4024 2.3128 -0.3
v -1.4169 2.3107 -0.2646
v -1.4518 2.3056 -0.25
v -1.4868 2.3006 -0.2646
v -1.4868 2.3006 -0.3354
v -2.204 5.4847 0.25
v -2.1722 5.5002 0.2646
v -2.1722 5.5002 0.3354
v -2.2358 5.4693 0.3354
v -2.2489 5.4628 0.3
v -2.2358 5.4693 0.2646
v -1.4589 2.3542 0.25
v -1.4255 2.3645 0.2646
v -1.4255 2.3645 0.3354
v -1.4589 2.3542 0.35
v -1.4923 2.3439 0.3354
v -1.5061 2.3397 0.3
v -1.4923 2.3439 0.2646
v -1.7381 4.285 0.05
v -1.6887 4.2922 0.1
v -1.7381 4.285 0.15
v -1.7731 4.28 0.1354
v -1.7731 4.28 0.0646
v -1.7876 4.2779 0.1
v -1.2737 1.321 -0.1354
v 0.2459 2.3894 -1.4226
v 0.2603 2.3937 -1.3874
v 0.1754 2.3848 -1.4226
v 0.1605 2.3872 -1.3874
v 0.1749 2.3915 -1.3522
v 0.2101 2.3952 -1.3376
v 0.2455 2.3961 -1.3522
v 0.1 1.5 -1.3
v 0.1354 1.5 -1.2854
v 0.0646 1.5 -1.2854
v 0.05 1.5 -1.25
v 0.0646 1.5 -1.2146
v 0.1 1.5 -1.2
v 1.3919 1.0605 -0.2975
v 1.3566 1.0605 -0.2829
v 1.4066 1.0605 -0.3329
v 1.3566 1.0605 -0.3829
v 1.3212 1.0605 -0.3682
v 1.3066 1.0605 -0.3329
v 1.3212 1.0605 -0.2975
v -1.2451 4.6299 -0.7701
v -1.3651 4.6538 -0.3192
v -1.2451 4.708 0.1291
v -0.9174 4.7781 0.4545
v -1.0598 7.6803 0.2632
v -0.836 7.7139 0.3209
v -0.3317 5.5402 0.449
v -0.2758 5.1021 0.4871
v -0.4177 6.0314 -1.33
v -1.3018 4.6206 -0.7945
v -0.586 3.7521 0.6474
v -1.0875 7.6805 0.3062
v -0.9569 4.7766 0.4945
v -1.4281 4.6457 -0.3199
v -0.2799 5.1052 0.5299
v -0.3358 5.5434 0.4918
v -1.3018 4.7028 0.1519
v 0.5581 1.6571 -0.7117
v 0.3985 2.2032 -0.8476
v 0.322 2.261 0.713
v -0.7475 8.7579 -0.2834
v -1.419 8.6389 -0.6653
v 0.4637 1.0191 -0.0035
v -0.05 2.8885 -1.4367
v -0.0646 2.8957 -1.4023
v -0.1354 2.8957 -1.4023
v -0.15 2.8885 -1.4367
v -0.1354 2.8812 -1.4711
v -0.1 2.8782 -1.4853
v -0.0646 2.8812 -1.4711
v -0.3149 1.9918 -1.3525
v -0.3297 1.9943 -1.3173
v -0.3651 1.9934 -1.3028
v -0.4146 1.9854 -1.3525
v -0.3998 1.9829 -1.3877
v -0.3293 1.9875 -1.3877
v 1.3489 1.2114 0.4171
v 1.337 1.1847 -0.0835
v -0.1 7.0356 -2.2126
v -0.05 7.0512 -2.1651
v -0.15 7.0512 -2.1651
v -0.1 7.0669 -2.1176
v -0.3906 4.0693 -1.1743
v 0.0088 2.7272 -0.9971
v 0.2327 2.7608 -0.9393
v -0.4065 4.0631 -1.2229
v -0.6421 4.0387 -1.1569
v -0.9569 4.6342 -1.1447
v -0.1834 4.5502 1.0872
v -0.1335 4.5513 1.0371
v -0.9174 4.6429 -1.1028
v -0.6145 4.0462 -1.1116
v 0.1098 3.5187 1.3224
v -0.359 2.5372 1.2191
v -0.3943 2.5307 1.134
v -0.8519 7.7159 0.367
v -0.1609 1.5497 1.2665
v -0.0904 1.5512 1.1956
v -1.2737 1.321 -0.0646
v -1.3437 1.3109 -0.1354
v -1.5013 2.2985 -0.3
v -2.159 5.5066 0.3
v -2.204 5.4847 0.35
v -1.4117 2.3687 0.3
v -1.7032 4.2901 0.0646
v -1.7032 4.2901 0.1354
v 0.2108 2.3857 -1.4372
v 1.3919 1.0605 -0.3682
v 0.7056 1.693 -0.515
v 0.3866 2.205 -0.8093
v 0.5418 1.658 -0.6777
v -0.5583 3.7519 0.6044
v -0.3344 3.7855 0.6621
v 0.0905 2.2335 0.7362
v 0.3143 2.2566 0.6735
v 0.2403 2.7581 -0.9818
v 0.0047 2.7228 -1.0426
v -0.3504 3.7874 0.7082
v 0.0864 2.2367 0.779
v -0.2078 0.9002 -0.3854
v -0.1 2.8987 -1.3881
v -0.4003 1.9897 -1.3173
v -0.3644 1.9838 -1.4023
v 0 0 0
v 0 1 -0
v 1.5 -0 -0.75
v 0.75 -0 -1.5
v -1.5 -0 -0.75
v 0.75 0 1.5
v -1.6479 3.414 -0.3354
v -0.0152 5.1058 1.214
v -0.5074 3.65 1.095
v -0.4368 3.6549 1.0947
v -0.522 3.6507 1.1303
v -0.4222 3.6576 1.13
v 0.0201 5.1089 1.2285
v -0.0505 5.104 1.2287
v -0.5074 3.6534 1.1656
v -0.4721 3.6565 1.1801
v 0.0347 5.1116 1.2637
v -1.5634 3.4262 -0.3
v -1.6129 3.419 -0.25
v -1.5779 3.4241 -0.2646
v -1.6129 3.419 -0.35
v 0 -0 -0.75
v 0 0 0.75
v -0.75 0 0
v 0.75 0 0
v -1.051 2.6564 -0.6239
v 0.1735 3.5069 -1.5299
v -1.6234 3.4919 0.35
v -1.9928 6.3953 0.1
v -2.0773 6.3831 0.1354
v -1.656 3.4791 0.2646
v -1.656 3.4791 0.3354
v -2.0918 6.381 0.1
v -2.0773 6.3831 0.0646
v -0.2541 1.0558 -1.2626
v -0.269 1.0582 -1.2274
v -0.5206 2.3001 0.7416
v -1.4959 6.5942 -0.9407
v -0.3391 1.0469 -1.2978
v -0.15 1.5113 -1.3047
v -0.3539 1.0494 -1.2626
v -0.1354 1.5166 -1.2699
v -0.3044 1.0573 -1.2129
v -0.1354 1.506 -1.3395
v -0.2685 1.0515 -1.2978
v -0.0646 1.5166 -1.2699
v -0.4721 3.6517 1.0802
v 0.1093 3.7273 -1.0232
v -0.7138 5.7121 -1.2867
v -0.0926 3.6678 0.6117
v -0.122 3.0095 0.6992
v -0.5487 2.3722 -0.9802
v -1.5 0 0.75
v -1.5908 3.5048 0.2646
v -0.3303 6.6677 0.9857
v -0.75 0 1.5
v 0.0201 5.1123 1.2991
v -0.2065 4.3771 -1.1863
v -0.132 3.0121 0.7436
v -0.5176 5.2197 0.5376
v -0.8091 5.7161 0.4338
v 0.0134 2.4386 1.2385
v -0.0219 2.4354 1.224
v 0.0486 2.4403 1.2238
v 0.0633 2.4396 1.1884
v 0.0486 2.4369 1.1531
v -0.0219 2.432 1.1534
v -1.1682 6.7424 0.2839
v -0.1953 2.4088 -1.0792
v -0.6019 5.7237 -1.318
v 0.1995 1.9236 1.3164
v -0.05 1.5113 -1.3047
v 0.1849 1.9209 1.2811
v 0.2701 1.9285 1.3161
v -0.1 1.5038 -1.3539
v 0.2847 1.9278 1.2808
v -1.051 2.7386 0.3225
v 0.2701 1.9251 1.2455
v 0.2348 1.922 1.231
v -0.0027 3.7105 -1.0521
v -0.0646 1.506 -1.3395
v 0.1995 1.9202 1.2457
v -0.0505 5.1074 1.2993
v -0.0651 5.1047 1.2641
v -0.3518 1.4113 1.2731
v -0.3664 1.4086 1.2378
v -0.3165 1.4145 1.2876
v -0.2666 1.4155 1.2375
v -0.2813 1.4128 1.2022
v -0.2805 6.6687 0.9356
v -0.3518 1.408 1.2025
v -1.6624 3.4119 -0.3
v -0.6295 5.2029 0.5087
v 1.5 0 0.75
v -0.7061 2.67 -0.9741
v 0.1383 3.5032 -1.5445
v -1.0222 6.2285 0.4004
v -0.3395 1.0537 -1.2274
v -0.8367 5.7163 0.4768
v -0.3037 1.0478 -1.3124
v -1.2908 1.1922 -0.35
v -1.2558 1.1973 -0.3354
v -1.2413 1.1994 -0.3
v -0.4021 5.0526 -1.2294
v -1.2558 1.1973 -0.2646
v -1.2908 1.1922 -0.25
v -1.3258 1.1871 -0.2646
v -0.2024 4.3816 -1.1408
v -1.3258 1.1871 -0.3354
v -0.2452 6.6719 0.9501
v -0.3157 6.667 0.9503
v -0.1672 2.3531 0.8328
v 0.0103 1.7386 -0.9891
v -0.9886 6.2292 0.3589
v -2.0073 6.3932 0.0646
v -2.0073 6.3932 0.1354
v -1.2943 1.2165 0.25
v 0.1025 3.509 -1.4595
v -1.2601 1.2242 0.2646
v -0.4882 5.878 0.45
v -1.2601 1.2242 0.3354
v 0.0881 3.5047 -1.4947
v -1.2943 1.2165 0.35
v 0.1029 3.5023 -1.5299
v -1.3285 1.2088 0.3354
v -1.3427 1.2057 0.3
v -1.3285 1.2088 0.2646
v 0.1879 3.5112 -1.4947
v -0.2452 6.6753 1.0207
v -0.2306 6.6746 0.9854
v -1.434 2.1819 0.05
v -0.1 1.5188 -1.2555
v -0.0968 3.671 0.6544
v -1.3845 2.1891 0.1
v -0.4121 5.0472 -1.2764
v 0.3637 1.7916 -0.8979
v -1.434 2.1819 0.15
v -1.4689 2.1768 0.1354
v -1.4689 2.1768 0.0646
v -1.4834 2.1747 0.1
v -0.3157 6.6704 1.0209
v -0.2805 6.6735 1.0355
v -0.4368 3.6583 1.1654
v 0.3184 1.2718 -1.3153
v -1.5773 3.5101 0.3
v 0.3328 1.2762 -1.2801
v 0.2479 1.2673 -1.3153
v 0.233 1.2697 -1.2801
v 0.2474 1.274 -1.2449
v 0.2826 1.2777 -1.2303
v 0.318 1.2786 -1.2449
v -1.6695 3.4737 0.3
v -2.0423 6.3881 0.15
v -2.0423 6.3881 0.05
v 0.173 3.5136 -1.4595
v -1.4959 6.6722 -0.0415
v 0.1377 3.5127 -1.4449
v -1.6158 6.618 -0.4898
v -0.9943 2.6657 -0.5995
v -1.1143 2.6896 -0.1486
v -0.9943 2.7438 0.2997
v -0.6666 2.8139 0.6251
v -0.0633 4.3261 0.5242
v -1.5526 6.5848 -0.9651
v -0.6513 5.204 0.5532
v -1.2077 6.7408 0.3239
v -1.6789 6.6099 -0.4905
v -0.4983 5.8806 0.4945
v -1.5526 6.667 -0.0187
v -1.6479 3.414 -0.2646
v -1.5779 3.4241 -0.3354
v -0.05 4.2656 -1.5687
v -0.0646 4.2748 -1.5347
v -0.0615 4.3299 0.5653
v -1.1773 2.6815 -0.1493
v -0.1354 4.2748 -1.5347
v -0.15 4.2656 -1.5687
v -0.1354 4.2565 -1.6027
v -0.7061 2.8124 0.6651
v -0.1 4.2527 -1.6167
v -0.0646 4.2565 -1.6027
v -0.3756 2.9279 -1.4424
v -0.3904 2.9303 -1.4072
v -0.4258 2.9294 -1.3927
v -0.0152 5.1105 1.3139
v -0.4754 2.9214 -1.4424
v -0.4605 2.919 -1.4776
v -1.1682 6.6071 -1.2734
v -0.39 2.9235 -1.4776
v -0.1794 2.415 -1.0306
v 0.0203 1.744 -0.942
v 0.3561 1.7944 -0.8554
v -1.5908 3.5048 0.3354
v -0.6178 5.7174 -1.3666
v -0.7356 5.7052 -1.3336
v -1.2077 6.5984 -1.3153
v -0.0365 2.4327 1.1887
v 0.0134 2.4338 1.1386
v -0.6666 2.6787 -0.9322
v -0.5151 2.3803 -0.9366
v 0.2348 1.9268 1.3309
v -0.2813 1.4162 1.2729
v -0.3165 1.4097 1.1877
v -1.6234 3.4919 0.25
v -1.3403 1.185 -0.3
v -1.246 1.2273 0.3
v -1.399 2.187 0.0646
v -1.399 2.187 0.1354
v 0.2832 1.2682 -1.3298
v -0.4871 2.3008 0.7001
v -0.1513 2.3512 0.7867
v 0.1169 3.7246 -1.0657
v -0.0009 3.7069 -1.0961
v -0.5335 5.2217 0.5836
v -0.75 -0 -1.5
v -0.1 4.2785 -1.5206
v -0.461 2.9257 -1.4072
v -0.4252 2.9199 -1.4922
v 0.75 -0 -0.75
v 0.75 0 0.75
v -0.75 -0 -0.75
v -0.75 0 0.75
v 0.0473 4.3098 1.2182
v 0.0826 4.313 1.2327
v 0.012 4.3081 1.233
v 0.0972 4.3157 1.268
v -1.1764 3.6385 -0.7092
v -1.8408 5.3437 0.1
v -1.9252 5.3315 0.1354
v -1.9397 5.3294 0.1
v -1.9252 5.3315 0.0646
v -1.3705 5.612 -0.8554
v -0.6641 4.8791 -1.1991
v -0.5954 3.2055 -1.0686
v -0.2569 5.6089 1.0364
v 0.0826 4.3163 1.3034
v -0.3121 5.2042 -1.2581
v -0.9344 6.6982 0.3485
v 0.0868 1.3798 1.2893
v 0.0516 1.3767 1.2748
v 0.1221 1.3816 1.2745
v 0.1367 1.3809 1.2392
v 0.1221 1.3782 1.2039
v 0.0516 1.3733 1.2041
v -1.0428 5.7602 0.3692
v -0.3009 3.2359 -1.1511
v -0.4962 4.8965 -1.2462
v 0.262 1.1277 1.3206
v 0.2474 1.125 1.2853
v 0.3326 1.1326 1.3204
v 0.3472 1.1319 1.285
v -1.1764 3.7207 0.2372
v 0.3326 1.1292 1.2497
v 0.2973 1.126 1.2352
v 0.262 1.1243 1.25
v 0.012 4.3115 1.3036
v -0.0026 4.3088 1.2683
v -0.207 5.61 0.9863
v -0.8315 3.6521 -1.0594
v -0.9621 6.6984 0.3915
v -0.0968 3.5544 -1.0689
v -0.1717 5.6131 1.0008
v -0.2423 5.6083 1.0011
v -1.8552 5.3416 0.0646
v -1.8552 5.3416 0.1354
v -0.1717 5.6165 1.0715
v -0.1571 5.6158 1.0361
v -1.2819 1.1303 0.05
v -1.2324 1.1375 0.1
v -1.2819 1.1303 0.15
v -1.3169 1.1253 0.1354
v -1.3169 1.1253 0.0646
v -1.3313 1.1232 0.1
v -0.2423 5.6116 1.0717
v -0.207 5.6148 1.0862
v -1.8902 5.3366 0.15
v -1.8902 5.3366 0.05
v -1.3705 5.6901 0.0438
v -1.4904 5.6359 -0.4045
v -0.8689 1.6836 -0.5142
v -0.9889 1.7075 -0.0633
v -0.8689 1.7617 0.385
v -0.5412 1.8318 0.7104
v -1.678 7.5669 -1.0504
v -1.3331 7.7229 0.2386
v -1.8043 7.592 -0.5758
v -1.678 7.6491 -0.104
v -1.3027 3.6636 -0.2346
v -0.8315 3.7945 0.5798
v 0.0473 4.3146 1.3181
v -1.0428 5.625 -1.1881
v -0.0738 1.5879 -0.9588
v -0.7234 6.5446 -1.4384
v -0.7823 6.5385 -1.4219
v -1.3331 7.5805 -1.4006
v 0.037 1.374 1.2395
v 0.0868 1.375 1.1894
v -0.5412 1.6966 -0.8469
v -0.4655 1.5474 -0.8491
v 0.2973 1.1308 1.3351
v -1.2469 1.1354 0.0646
v -1.2469 1.1354 0.1354
v -0.0777 5.9017 1.2097
v -0.0424 5.9048 1.2242
v -0.113 5.9 1.2245
v -0.0278 5.9075 1.2595
v -0.9256 1.6742 -0.5386
v -2.1449 7.4469 0.1
v -2.2294 7.4346 0.1354
v -2.2439 7.4325 0.1
v -2.2294 7.4346 0.0646
v -1.6213 7.5763 -1.026
v -0.7634 6.545 -1.3742
v -0.502 1.539 -0.8919
v -0.4038 7.7264 0.9349
v -0.0424 5.9082 1.2949
v -0.1009 3.5499 -1.1144
v -0.6837 4.734 0.5191
v -0.0601 3.4973 1.1877
v -0.0953 3.4942 1.1732
v -0.0248 3.499 1.173
v -0.0102 3.4984 1.1376
v -0.0248 3.4957 1.1024
v -0.0953 3.4908 1.1026
v -1.2936 7.7245 0.1986
v -0.0897 1.5816 -1.0074
v -0.7075 6.5508 -1.3898
v 0.137 2.7196 1.3121
v 0.1224 2.7169 1.2768
v 0.2076 2.7245 1.3119
v 0.2222 2.7238 1.2765
v -0.9256 1.7564 0.4078
v 0.2076 2.7211 1.2412
v 0.1723 2.7179 1.2267
v 0.137 2.7162 1.2415
v -0.113 5.9033 1.2951
v -0.1276 5.9006 1.2598
v -0.3539 7.7275 0.8848
v -0.5807 1.6879 -0.8888
v -0.7113 4.7342 0.5621
v -0.308 5.2087 -1.2126
v -0.3186 7.7306 0.8993
v -0.3892 7.7257 0.8996
v -2.1594 7.4448 0.0646
v -2.1594 7.4448 0.1354
v -0.3186 7.734 0.97
v -0.304 7.7333 0.9346
v -1.586 3.2335 0.05
v -1.5366 3.2406 0.1
v -1.586 3.2335 0.15
v -1.621 3.2284 0.1354
v -1.621 3.2284 0.0646
v -1.6355 3.2263 0.1
v -0.3892 7.7291 0.9702
v -0.3539 7.7323 0.9847
v -2.1944 7.4397 0.15
v -2.1944 7.4397 0.05
v -1.6213 7.6544 -0.1268
v -1.7412 7.6001 -0.5751
v -1.1197 3.6478 -0.6848
v -1.2397 3.6717 -0.2339
v -1.1197 3.7259 0.2144
v -0.792 3.796 0.5398
v -1.4272 5.6027 -0.8798
v -1.0823 5.7587 0.4092
v -1.5535 5.6278 -0.4052
v -1.4272 5.6849 0.0666
v -1.0519 1.6993 -0.064
v -0.5807 1.8302 0.7504
v -0.0777 5.9065 1.3096
v -1.2936 7.5892 -1.3587
v -0.285 3.2422 -1.1025
v -0.5121 4.8902 -1.2947
v -0.6888 4.872 -1.2452
v -1.0823 5.6163 -1.23
v -0.11 3.4915 1.138
v -0.0601 3.4925 1.0879
v -0.792 3.6608 -1.0175
v -0.5648 3.2133 -1.0241
v 0.1723 2.7227 1.3266
v -1.5511 3.2385 0.0646
v -1.5511 3.2385 0.1354
vt 0.0526 0.4129
vt 0 0.3097
vt 0.0789 0.3097
vt 0.5789 0.17
vt 0.5263 0.2825
vt 0.1316 0.6194
vt 0.0987 0.6581
vt 0.0987 0.6194
vt 0.5263 0.8581
vt 0.4737 0.8645
vt 0.4737 0.8581
vt 0.1431 0.8413
vt 0.166 0.8637
vt 0.1348 0.8719
vt 0.5789 0.8581
vt 0.5263 0.8645
vt 0.3684 0.8645
vt 0.3158 0.8581
vt 0.3684 0.8581
vt 0.8421 0.8581
vt 0.7895 0.8645
vt 0.7895 0.8581
vt 0.7368 0.8645
vt 0.7368 0.8581
vt 0.8947 0.8645
vt 0.8947 0.8581
vt 0.6316 0.8645
vt 0.5789 0.8645
vt 0.6842 0.8645
vt 0.6316 0.8581
vt 0.6842 0.8581
vt 0.4211 0.8645
vt 0.4211 0.8581
vt 0.5537 0.4673
vt 0.5263 0.3782
vt 0.7763 0.9613
vt 0.7368 0.871
vt 0.7895 0.871
vt 0.3153 0.7871
vt 0.2568 0.8202
vt 0.2568 0.754
vt 0.5263 0.871
vt 0.5658 0.9613
vt 0.5395 0.9613
vt 0.3553 0.9613
vt 0.3158 0.871
vt 0.3684 0.871
vt 0.1449 0.8609
vt 0.1828 0.851
vt 0.1727 0.8882
vt 0.9474 0.871
vt 0.9079 0.9613
vt 0.8947 0.871
vt 0.8289 0.9613
vt 0.8421 0.871
vt 0.6842 0.871
vt 0.6447 0.9613
vt 0.6316 0.871
vt 0.7237 0.9613
vt 0.6974 0.9613
vt 0.5789 0.871
vt 0.6184 0.9613
vt 0.5921 0.9613
vt 0.5132 0.9613
vt 0.4737 0.871
vt 0.4342 0.9613
vt 0.4211 0.871
vt 0.0329 0.6194
vt -0 0.6581
vt -0 0.6194
vt 0.0658 0.6194
vt 0.0329 0.6581
vt 0.0658 0.6581
vt -0 0.6903
vt 0.0329 0.6903
vt 0.9474 0.7484
vt 0.9539 0.6194
vt 0.9539 0.7484
vt 0.154 0.9717
vt 0.1663 0.9968
vt 0.1663 0.9717
vt 0.2632 0.5161
vt 0.1579 0.6194
vt 0.1579 0.5161
vt 0 0.2323
vt 0.0789 0.2323
vt 0.9737 0.7484
vt 0.9803 0.6194
vt 0.9803 0.7484
vt 0.9737 0.929
vt 0.9671 0.9032
vt 0.9737 0.9032
vt 0.0741 0.8659
vt 0.0741 0.9025
vt 0.0772 0.8824
vt 0.7368 0.1056
vt 0.7632 0.2111
vt 0.7368 0.2111
vt 0.068 0.8695
vt 0.071 0.8494
vt 0.7895 0.6323
vt 0.7895 0.7227
vt 0.7632 0.5724
vt 0.3684 0.3218
vt 0.4211 0.2145
vt 0.4211 0.3218
vt 0.9737 0.8774
vt 0.9671 0.7484
vt 0.9474 0.6839
vt 0.9474 0.6194
vt 0.9868 0.8774
vt 0.9868 0.7484
vt 0.9671 0.8774
vt 0.9605 0.7097
vt 0.9671 0.7097
vt 0.9934 0.4581
vt 1 0.3742
vt 1 0.4581
vt 0.9803 0.5484
vt 0.9737 0.4387
vt 0.9803 0.4387
vt 0.9671 0.5484
vt 0.9605 0.4387
vt 0.9671 0.4387
vt 0.9934 0.1097
vt 0.9868 0.2194
vt 0.9868 0.1097
vt 0.9474 0.8129
vt 0.9539 0.8129
vt 0.0557 0.8715
vt 0.0434 0.8966
vt 0.0557 0.8966
vt 0.9934 0.6194
vt 0.9868 0.6194
vt 1 0.1097
vt 0.9934 0.2194
vt 0.9671 0.3742
vt 0.9605 0.4581
vt 0.9605 0.3742
vt 0.8421 0.5363
vt 0.8947 0.429
vt 0.8947 0.5363
vt 0.4342 0.1566
vt 0.4211 0.1073
vt 0.4211 0
vt 0.4342 0.5857
vt 0.4211 0.5363
vt 0.4211 0.429
vt 1 0.8774
vt 0.9934 0.7484
vt 1 0.7484
vt 0.068 0.9968
vt 0.0618 0.9698
vt 0.0557 0.9968
vt 0.9868 0.329
vt 0.9803 0.329
vt 0.9605 0.7484
vt 0.9605 0.8129
vt 0.4474 0.6351
vt 0.4474 0.5278
vt 0.9474 0.429
vt 0.9474 0.5363
vt 0.7368 0
vt 0.7239 0.1485
vt 0.7105 0.0868
vt 0.7368 0.7079
vt 0.9539 0.8774
vt 0.9605 0.8774
vt 0.3101 0.8062
vt 0.2958 0.8202
vt 0.2763 0.8253
vt 0.2425 0.8062
vt 0.2373 0.7871
vt 0.2425 0.768
vt 0.2763 0.7489
vt 0.2958 0.754
vt 0.3101 0.768
vt 0.5 0.4545
vt 0.5132 0.3685
vt 0.9737 0.3742
vt 0.9803 0.2903
vt 0.9803 0.3742
vt 0.9605 0.329
vt 0.9539 0.2194
vt 0.9605 0.2194
vt 0.4737 0.3133
vt 0.5 0.2979
vt 0.9868 0.2903
vt 0.9868 0.3742
vt 0.9737 0.6839
vt 0.9803 0.6839
vt 0.9737 0.4581
vt 0.9934 0.6839
vt 0.1663 0.9216
vt 0.1786 0.9467
vt 0.1786 0.9216
vt 0.9539 0.6839
vt 0.9737 0.2194
vt 0.9803 0.2194
vt 0.9868 0.6839
vt 0.9934 0.6581
vt 0.9868 0.5484
vt 0.9934 0.5484
vt 0.9671 0.8129
vt 0.3158 0.2145
vt 0.3684 0.2145
vt 0.9934 0.3742
vt 0.9868 0.4581
vt 0.9803 0.4581
vt 0.9605 0.6839
vt 1 0.5484
vt 0.9671 0.2903
vt 0.9737 0.2903
vt 0.9868 0.6581
vt 0.9605 0.2194
vt 0.9539 0.1097
vt 0.9605 0.1097
vt 0.9671 0.329
vt 0.9737 0.329
vt 0.9605 0.2903
vt 1 0.4581
vt 0.9934 0.3742
vt 1 0.3742
vt 1 0.329
vt 0.9934 0.2194
vt 1 0.2194
vt 0.9605 0.6581
vt 0.9539 0.5484
vt 0.9605 0.5484
vt 1 0.8129
vt 0.9737 0.8129
vt 0.9605 0.6258
vt 0.9539 0.7097
vt 0.9539 0.6258
vt 0.9934 0.4581
vt 0.9868 0.3742
vt 1 0.6839
vt 0.9539 0.2903
vt 0.9474 0.2065
vt 0.9539 0.2065
vt 0.125 0.7484
vt 0.1053 0.729
vt 0.1316 0.729
vt 0.6316 0.8167
vt 0.6842 0.8398
vt 0.2368 0.729
vt 0.2566 0.7484
vt 0.2434 0.7484
vt 0.0263 0.729
vt 0.0461 0.7484
vt 0.0329 0.7484
vt 0.2171 0.7484
vt 0.2105 0.729
vt 0 0.729
vt 0.0197 0.7484
vt 0.0066 0.7484
vt 0.2895 0.729
vt 0.2697 0.7484
vt 0.2632 0.729
vt 0.1842 0.729
vt 0.1645 0.7484
vt 0.1579 0.729
vt 0.9539 0.7935
vt 0.9474 0.8774
vt 0.9474 0.7935
vt 0.9671 0.6839
vt 1 0.6194
vt 0.9934 0.6839
vt 0.9671 0.6194
vt 0.9737 0.6194
vt 1 0.6839
vt 0.9803 0.6839
vt 0.9868 0.6839
vt 0.9539 0.6839
vt 0.9474 0.6839
vt 0.9671 0.6839
vt 0.9605 0.6839
vt 0.9868 0.2903
vt 0.9803 0.2065
vt 0.9868 0.2065
vt 0.7148 0.3853
vt 0.7109 0.297
vt 0.9671 0.7935
vt 0.9605 0.7935
vt 1 0.2903
vt 0.9934 0.2065
vt 1 0.2065
vt 0.9803 0.9032
vt 0.9671 0.4581
vt 0.9605 0.5419
vt 0.9803 0.929
vt 0.9934 0.6581
vt 1 0.6581
vt 0.6842 0.8188
vt 0.1294 0.9617
vt 0.1356 0.9301
vt 0.1294 0.9283
vt 0.6842 0.1737
vt 0.6316 0.1
vt 0.5263 0.5357
vt 0.1049 0.9871
vt 0.1172 0.9925
vt 0.1172 0.9876
vt 0.7895 0.7827
vt 0.7368 0.8045
vt 0.6316 0.7889
vt 0.5789 0.8074
vt 0.5789 0.1329
vt 0.1515 0.8814
vt 0.0803 0.9968
vt 0.0803 0.9743
vt 0.5263 0.7616
vt 0.9474 0.8645
vt 0.9474 0.8581
vt 0.9474 0.9032
vt 0.9539 0.929
vt 0.9474 0.929
vt 0.9934 0.8129
vt 0.5263 0.608
vt 0.7368 0.5651
vt 0.7368 0.4222
vt 1 0.1097
vt 0.9934 0
vt 1 -0
vt 0.3684 0.1073
vt 1 0.9032
vt 0.9934 0.929
vt 0.9934 0.9032
vt 0.0789 0.729
vt 0.0526 0.6903
vt 0.0789 0.6903
vt 0.1316 0.6903
vt 0.1053 0.6903
vt 0.9539 0.7677
vt 0.9605 0.7677
vt 0.9605 0.2065
vt 0.9605 0.1097
vt 0.9671 0
vt 0.9671 0.1097
vt 0.1973 0.8416
vt 0.1973 0.8365
vt 0.4868 0.2273
vt 0.5 0.1413
vt 0.1417 0.9792
vt 0.1417 0.9968
vt 0.154 0.9968
vt 0.9671 0.6581
vt 0.9605 0.4387
vt 0.9671 0.4387
vt 0.6316 0.1639
vt 0.4737 0.6266
vt 0.9737 0.6839
vt 0.9934 0.2903
vt 0.9737 0.7935
vt 0.9803 0.2903
vt 0.9737 0.2065
vt 0.9474 0
vt 0.9539 0
vt 0.9803 0.8774
vt 0.9934 0.8839
vt 0.9868 0.8968
vt 0.9868 0.8839
vt 0.9539 0.8968
vt 0.9474 0.8839
vt 0.9539 0.8839
vt 0.9474 0.8968
vt 0.9605 0.8839
vt 0.9605 0.8968
vt 1 0.8839
vt 0.9934 0.8968
vt 0.9868 0.4387
vt 0.9934 0.4387
vt 0.5263 0.7041
vt 0.3158 0.729
vt 0.2895 0.6903
vt 0.3158 0.6903
vt 0.9737 0
vt 0.9737 0.1097
vt 0.9737 0.6581
vt 0.1973 0.8389
vt 0.9803 0.4387
vt 0.9803 0.6581
vt 0.1049 0.9968
vt 0.1172 0.9968
vt 0.9934 0.8774
vt 0.0926 0.9968
vt 0.0926 0.9849
vt 0.9605 0.6581
vt 0.9539 0.6581
vt 0.0803 0.8847
vt 0.0803 0.9215
vt 0.0867 0.9055
vt 0.9605 0.9032
vt 0.9671 0.929
vt 0.9605 0.929
vt 0.9803 0.8129
vt 0.9474 0.7677
vt 0.9539 0.7097
vt 0.6842 0.2563
vt 0.2632 0.6903
vt 0.9868 0.929
vt 0.1709 0.8106
vt 0.1515 0.8106
vt 0.3158 0.8645
vt 1 0.7097
vt 0.9934 0.7097
vt 0.9539 0.1097
vt 0.9605 0
vt 0.9934 0.7677
vt 0.9868 0.7677
vt 0.1348 0.8201
vt 0.1251 0.8365
vt 0.9737 0.5419
vt 0.1786 0.9968
vt 0.1786 0.9717
vt 0.9803 0.1097
vt 0.9803 0
vt 0.1876 0.8201
vt 0.5789 0
vt 0.6316 0
vt 0.9868 0.9032
vt 0.0311 0.9968
vt 0.0434 0.9717
vt 0.0311 0.9717
vt 0.1251 0.8555
vt 0.3158 0
vt 0.3684 0
vt 1 0.929
vt 0.9868 0.5419
vt 0.9934 0.5419
vt 0.9474 0.7097
vt 0.9539 0.5419
vt 0.9737 0.7097
vt 0.9868 0.7097
vt 0.9803 0.7097
vt 0.9605 0.6194
vt 0.9803 0.5419
vt 0.9671 0.2065
vt 0.1908 0.7484
vt 1 0.8968
vt 1 0.7677
vt 0.9539 0.9032
vt 0.184 0.8581
vt 0.1661 0.8509
vt 0.9803 0.7677
vt 0.9474 0.4387
vt 0.9539 0.4387
vt 0.1876 0.8719
vt 0.1709 0.8814
vt 0.0592 0.7484
vt 0.0526 0.729
vt 0.0855 0.7484
vt 0.1382 0.7484
vt 0.3092 0.7484
vt 0.2961 0.7484
vt 0.1294 0.9968
vt 0.1294 0.9843
vt 0.1049 0.8197
vt 0.1049 0.8346
vt 0.1172 0.8369
vt 0.1234 0.8657
vt 0.1243 0.8864
vt 0.1294 0.895
vt 0.1842 0.6903
vt 0.1728 0.8804
vt 0.068 0.9698
vt 0.068 0.9427
vt 0.0741 0.9137
vt 0.071 0.9226
vt 0.0803 0.8623
vt 0.0926 0.8361
vt 0.0926 0.8274
vt 0.8947 0.1073
vt 0.9474 0.1073
vt 0.0926 0.7963
vt 0.1049 0.7963
vt 0.4605 0.4699
vt 0.4474 0.4205
vt 0.4474 0.3133
vt 0.5 0.5024
vt 0.4868 0.5406
vt 0.5263 0.1413
vt 0.5263 -0
vt 0.8421 0.1073
vt 0.8947 0
vt 0.0263 0.6903
vt 0.1579 0.6903
vt 0.8421 0.8645
vt 0.8816 0.9613
vt 0.4079 0.9613
vt 0.3816 0.9613
vt 0.2105 0.6903
vt 0.2368 0.6903
vt 0.1779 0.8456
vt 0.9671 0.5419
vt 0.9934 0.2903
vt 1 0.2903
vt 0.0557 0.9717
vt 0.0434 0.9968
vt 0.1908 0.8666
vt 0.9934 0.329
vt 0.9868 0.329
vt 1 0.329
vt 0.9803 0.329
vt 0.9737 0.4387
vt 0.9737 0.329
vt 0.9671 0.1097
vt 0.9737 0.1097
vt 0.9868 0.6581
vt 0.9868 0.4387
vt 1 0.4387
vt 0.9934 0.329
vt 0.9737 0.5484
vt 0.1663 0.8715
vt 0.1786 0.8966
vt 0.1786 0.8715
vt 0.9737 0.4581
vt 0.9671 0.5419
vt 0.9671 0.4581
vt 0.9539 0.4581
vt 0.9474 0.3742
vt 0.9539 0.3742
vt 0.9803 0.6258
vt 0.9737 0.5419
vt 0.9803 0.5419
vt 0.9539 0.329
vt 0.9539 0.329
vt 0.9474 0.2194
vt 0.9539 0.2194
vt 0.0311 0.9467
vt 0.0434 0.9216
vt 0.0311 0.9216
vt 0.9605 0.5419
vt 0.9605 0.4581
vt 1 0.4387
vt 0.154 0.9467
vt 0.1433 0.9441
vt 0.1417 0.9019
vt 0.1387 0.9054
vt 0.1417 0.923
vt 0.1325 0.8703
vt 0.1294 0.8703
vt 0.0803 0.9608
vt 0.068 0.9061
vt 0.1294 0.8457
vt 0.1264 0.831
vt 0.0618 0.9447
vt 0.4737 0.7423
vt 0.4474 0.7423
vt 0.7961 0.6323
vt 0.8421 0.7508
vt 0.4737 0
vt 0.7763 0.4669
vt 0.7632 0.4821
vt 0.7632 0.3918
vt 0.4737 0.1566
vt 0.9868 0.8129
vt 0.0649 0.9061
vt 0.1579 0.4129
vt 0.1579 0.3097
vt 0.2368 0.3097
vt 0.9803 0.1097
vt 0.9737 0.2194
vt 0.0311 0.8465
vt 0.0434 0.8214
vt 0.0311 0.8214
vt 0.7632 0.3014
vt 0.75 0.3166
vt 0.3158 0.7508
vt 0.3684 0.6435
vt 0.3684 0.7508
vt 0.0618 0.9196
vt 0.0618 0.8946
vt 0.9803 0.7935
vt 0.9737 0.7097
vt 0.9803 0.7097
vt 0.3158 0.1548
vt 0.2368 0.0774
vt 0.3158 0.0774
vt 0.9605 0.329
vt 0.068 0.8329
vt 0.0741 0.8293
vt 0.068 0.7963
vt 0.1448 0.923
vt 0.1464 0.9019
vt 0.0557 0.9467
vt 0.0557 0.9216
vt 0.154 0.8465
vt 0.1663 0.8214
vt 0.154 0.8214
vt 0.2368 0.2323
vt 0.1579 0.1548
vt 0.2368 0.1548
vt 0.2368 0
vt 0.1049 0.9806
vt 0.154 0.7963
vt 0.1525 0.8174
vt 0.1417 0.9441
vt 0.1417 0.9652
vt 0.0803 0.8293
vt 0.3684 0.5363
vt 0.9539 0.5419
vt 0.9539 0.4581
vt 0.9934 0.6258
vt 0.9868 0.5419
vt 0.9934 0.5419
vt 0.9671 0.329
vt 0.9671 0.2194
vt 0.9803 0.2194
vt 0.9868 0.1097
vt 0.9934 0.1097
vt 0.4211 0.6435
vt 0.4211 0.7508
vt 0.0526 0.5161
vt 0.9605 0.2903
vt 0.9539 0.3742
vt 0.9539 0.2903
vt 0.9474 0.5419
vt 0.9474 0.4581
vt 0.4737 0.4699
vt 0.9474 0.1097
vt 0.1417 0.8174
vt 0.151 0.8385
vt 0.9868 0.2194
vt 0.0789 0.1548
vt 0 0.0774
vt 0.0789 0.0774
vt 0.1579 0.0774
vt 0.9868 0
vt 0.9474 0.3742
vt 0.9474 0.2903
vt 0.9737 0.2903
vt 0.9671 0.3742
vt 0.9671 0.2903
vt 0.1492 0.8022
vt 0.1294 0.7963
vt 0.1387 0.821
vt 0.1417 0.7963
vt 1 0.7935
vt 0.9934 0.7097
vt 1 0.7097
vt 0.8421 0.3218
vt 0.8158 0.3613
vt 0.8224 0.271
vt 0.7895 0.271
vt 0.7895 0.3613
vt 0.0526 0.6194
vt 0.9671 0.2194
vt 0.9737 0.7677
vt 0.9803 0.6581
vt 0.1579 0.2323
vt 0.8947 0.2145
vt 0.8947 0.3218
vt 0.9539 0.6581
vt 0.0618 0.8695
vt 0.0557 0.8214
vt 0.0587 0.8329
vt 0.0557 0.7963
vt 0.8289 0.1807
vt 0.8355 0.0903
vt 0 -0
vt 0.0789 0
vt 0.9868 0.6258
vt 1 0.5419
vt 0.9539 0.4387
vt 0.1417 0.8385
vt 0.1417 0.8808
vt 0.1356 0.8668
vt 0.1356 0.8879
vt 0.154 0.8715
vt 0.1663 0.8966
vt 0.1356 0.909
vt 1 0.6581
vt 0.9934 0.7935
vt 0.9868 0.7097
vt 0.1356 0.8457
vt 0.0311 0.8966
vt 0.0434 0.8715
vt 0.0311 0.8715
vt 0.9474 0.5484
vt 0.1294 0.821
vt 1 0.6258
vt 1 0.5419
vt 0.2632 0.4129
vt 0.7895 0.0903
vt 0.7763 0.1056
vt 0.7895 -0
vt 0.9474 0.6581
vt 0.1579 0
vt 0.7895 0.4517
vt 0.8026 0.542
vt 0.7895 0.542
vt 0.9474 0.329
vt 0.9474 0.1097
vt 0.9803 0.4581
vt 0.9737 0.3742
vt 0.9803 0.3742
vt 0.9474 0.2903
vt 0.9737 0.6258
vt 0.9671 0.7097
vt 0.9671 0.6258
vt 0.9605 0.7097
vt 0.9868 0.4581
vt 0.9474 0.7097
vt 0.9474 0.6258
vt 0.1417 0.8597
vt 0.1479 0.8808
vt 0.1494 0.8597
vt 0.1172 0.7963
vt 0.1233 0.8166
vt 0.1172 0.8166
vt 0.1172 0.8562
vt 1 0.2194
vt 0.0803 0.7963
vt 0.0803 0.9384
vt 0.7368 0.3166
vt 0.9474 0.2145
vt 0.9474 0.3218
vt 0.154 0.8966
vt 0.154 0.9216
vt 0.0587 0.9332
vt 0.6842 0
vt 0.9671 0.6581
vt 0.9737 0.6581
vt 0.9671 0.7677
vt 0.1973 0.8555
vt 0.1492 0.8882
vt 0.1288 0.8767
vt 0.1171 0.8567
vt 0.1171 0.8337
vt 0.1288 0.8137
vt 0.1727 0.8022
vt 0.193 0.8137
vt 0.2048 0.8337
vt 0.2048 0.8567
vt 0.193 0.8767
vt 0.9474 0.329
vt 0.9605 0.3742
vt 0.3158 0.3097
vt 0.3158 0.2323
vt 0.1786 0.8465
vt 0.1786 0.8214
vt 0.9474 0.4581
vt 0.8092 0.4517
vt 0.3158 0.429
vt 0.3684 0.429
vt 0.9474 0.4387
vt 0.7895 0.1807
vt 0.9868 0.7935
vt 0.8947 0.7508
vt 0.9474 0.6435
vt 0.9474 0.7508
vt 0.8947 0.6435
vt 0.0557 0.8465
vt 0 0.1548
vt 0.1663 0.9467
vt 0.0434 0.7963
vt 0.9474 0.2194
vt 0.3158 0.5363
vt 0.8421 0.429
vt 0.1663 0.7963
vt 0.1786 0.7963
vt 0.0434 0.8465
vt 0.1663 0.8465
vt 0.8421 0
vt 0.8421 0.2145
vt 0.0311 0.7963
vt 0.8421 0.6435
vt 0.3158 0.1073
vt 0.0434 0.9467
vt 0.9934 0.4387
vt 0.3158 0.3218
vt 0.1316 0.6581
vt 0.75 0.9613
vt 0.3289 0.9613
vt 0.9342 0.9613
vt 0.8026 0.9613
vt 0.6711 0.9613
vt 0.4868 0.9613
vt 0.4605 0.9613
vt 0.2632 0.6194
vt 0.1118 0.7484
vt 0.2303 0.7484
vt 0.2829 0.7484
vt 0.1776 0.7484
vt 0.9474 0.5419
vt 0.2039 0.7484
vt 0.9474 0.6581
vt 0.0724 0.7484
vt 0.0987 0.7484
vt 0.1513 0.7484
vt 0.8553 0.9613
vt 0.3158 0.6435
s 1
f 40/1 36/2 987/3
f 37/1 33/2 1039/3
f 38/1 34/2 1077/3
f 420/4 554/5 421/5
f 159/6 66/7 160/8
f 80/9 91/10 79/11
f 922/12 921/13 714/14
f 81/15 92/16 80/9
f 89/17 76/18 77/19
f 73/20 86/21 74/22
f 74/22 96/23 84/24
f 87/25 73/20 75/26
f 81/15 94/27 93/28
f 95/29 82/30 83/31
f 90/32 77/19 78/33
f 96/23 83/31 84/24
f 417/34 556/35 558/34
f 143/6 48/7 144/8
f 110/36 108/37 98/38
f 122/39 125/40 129/41
f 104/42 117/43 116/44
f 113/45 100/46 101/47
f 980/48 923/49 697/50
f 100/51 111/52 99/53
f 109/54 98/38 97/55
f 107/56 118/57 106/58
f 107/56 120/59 119/60
f 105/61 118/62 117/63
f 116/64 103/65 104/42
f 91/10 78/33 79/11
f 103/65 114/66 102/67
f 163/6 70/7 164/8
f 142/68 47/69 143/70
f 133/71 57/72 134/68
f 162/68 69/69 163/70
f 160/8 68/73 157/71
f 141/71 45/72 142/68
f 70/74 71/72 72/75
f 137/71 41/72 138/68
f 66/74 67/72 68/75
f 893/76 282/77 815/78
f 140/8 42/73 137/71
f 139/6 44/7 140/8
f 138/68 43/69 139/70
f 136/8 58/73 133/71
f 156/8 62/73 153/71
f 144/8 46/73 141/71
f 148/8 52/73 145/71
f 155/6 64/7 156/8
f 146/68 49/69 147/70
f 147/6 50/7 148/8
f 145/71 51/72 146/68
f 154/68 63/69 155/70
f 149/71 55/72 150/68
f 150/68 53/69 151/70
f 153/71 61/72 154/68
f 1354/79 408/80 1295/81
f 50/74 51/72 52/75
f 152/8 56/73 149/71
f 151/6 54/7 152/8
f 64/74 61/72 62/75
f 799/82 798/83 985/84
f 1039/3 1036/85 1205/86
f 888/87 274/88 890/89
f 158/68 65/69 159/70
f 157/71 67/72 158/68
f 48/74 45/72 46/75
f 254/90 261/91 262/92
f 161/71 71/72 162/68
f 135/6 60/7 136/8
f 54/74 55/72 56/75
f 1033/93 908/94 1146/95
f 1119/96 977/97 976/98
f 973/99 1033/93 1034/100
f 1276/101 428/102 909/103
f 1235/104 1162/105 1272/106
f 643/107 957/108 844/87
f 14/77 806/109 12/110
f 519/111 851/89 850/112
f 449/113 861/114 866/115
f 1200/116 933/117 1167/118
f 1212/119 879/120 877/121
f 1257/122 949/123 826/124
f 1025/125 927/126 1023/127
f 1140/128 887/78 1138/129
f 1346/130 903/131 904/132
f 522/133 850/112 520/134
f 1115/135 926/136 1025/125
f 936/137 1165/138 931/139
f 1358/140 910/141 1347/142
f 1020/143 1352/144 386/145
f 1080/146 1348/147 913/148
f 651/149 958/150 848/151
f 404/152 905/153 405/154
f 1305/155 827/121 1304/156
f 1154/129 854/157 1004/158
f 1243/159 1080/146 1082/160
f 1347/142 914/161 1349/162
f 392/163 919/164 918/165
f 427/166 909/103 428/102
f 525/167 852/157 527/168
f 122/39 121/169 123/170
f 123/170 124/171 125/40
f 125/40 126/172 127/173
f 127/173 128/174 125/40
f 128/174 129/41 125/40
f 129/41 130/175 131/176
f 131/176 132/177 129/41
f 132/177 122/39 129/41
f 419/35 915/178 1157/179
f 983/180 1022/181 935/182
f 1331/183 1190/184 1114/185
f 1111/158 887/78 882/157
f 978/186 1116/187 915/178
f 935/182 1024/188 934/189
f 859/89 1188/190 1090/191
f 1201/192 936/137 983/180
f 858/112 1088/193 857/150
f 1215/194 1141/195 1262/196
f 856/76 1085/197 855/78
f 1304/156 1045/198 1047/199
f 859/89 1089/200 858/112
f 1093/201 1250/202 1245/203
f 998/204 839/157 838/108
f 881/108 1111/158 882/157
f 1235/104 1158/205 1060/206
f 869/207 1011/208 870/189
f 870/189 1015/209 871/182
f 871/182 1135/192 872/180
f 964/117 1176/116 869/207
f 843/78 1069/210 839/157
f 1241/211 1093/201 1245/203
f 967/87 1130/191 883/89
f 872/180 1110/212 1109/213
f 1136/214 1212/119 1259/202
f 1200/116 934/189 982/207
f 924/215 1029/216 1055/217
f 1335/218 1123/198 1336/219
f 873/137 1100/220 1110/212
f 955/76 1074/197 843/78
f 1317/221 1061/222 1062/223
f 1332/224 1191/225 1117/226
f 961/87 990/204 860/108
f 1038/227 1246/228 1218/229
f 1030/230 842/150 955/151
f 1079/231 881/108 967/87
f 1240/232 997/233 1208/234
f 1316/235 1059/236 1061/222
f 885/150 1133/237 886/151
f 1248/203 1136/214 1259/202
f 1102/238 460/239 462/240
f 328/241 341/242 340/243
f 423/244 426/245 446/30
f 347/246 336/247 335/248
f 344/249 331/250 332/251
f 347/246 325/252 337/253
f 345/254 332/255 333/256
f 346/257 336/258 348/259
f 338/260 327/261 339/262
f 1288/263 603/264 1286/265
f 894/266 365/157 895/210
f 5/267 231/268 7/133
f 937/266 349/157 802/210
f 801/190 2/269 4/270
f 803/191 4/270 6/88
f 804/200 6/88 8/134
f 811/200 27/88 25/134
f 812/191 29/270 27/88
f 362/151 231/268 233/271
f 814/266 380/157 813/210
f 360/112 227/272 229/273
f 235/274 362/76 233/275
f 223/276 364/157 221/277
f 809/237 23/133 21/267
f 1234/278 598/279 600/280
f 805/193 8/134 10/133
f 968/191 371/87 896/190
f 810/193 25/134 23/133
f 546/281 430/282 429/281
f 808/197 378/76 809/109
f 1319/283 607/168 1320/284
f 938/190 373/108 814/266
f 164/8 72/73 161/71
f 44/74 41/72 42/75
f 239/107 1010/204 1079/231
f 1237/285 602/286 604/287
f 635/288 626/90 634/92
f 1172/289 792/290 1165/138
f 499/291 506/92 507/288
f 304/61 317/16 316/28
f 295/149 819/292 942/293
f 426/245 553/294 549/245
f 548/295 821/296 822/297
f 918/165 433/298 436/299
f 419/35 417/34 418/300
f 39/1 35/2 988/3
f 426/245 447/31 446/30
f 552/301 549/302 553/303
f 417/34 557/300 418/300
f 550/304 424/305 551/305
f 573/306 552/244 423/244
f 398/307 573/306 571/307
f 437/20 425/304 428/102
f 412/308 436/299 411/299
f 551/305 426/245 549/245
f 726/14 736/309 727/309
f 403/310 397/311 404/152
f 609/113 994/158 998/204
f 397/312 571/307 572/312
f 849/76 526/77 880/78
f 88/313 75/26 76/314
f 221/277 363/78 235/274
f 423/244 553/294 422/294
f 638/315 632/316 630/317
f 578/92 585/113 586/107
f 1022/181 228/280 1024/188
f 619/149 993/318 1030/230
f 394/319 418/300 557/300
f 822/320 431/321 823/320
f 1252/322 538/323 540/324
f 1315/325 386/145 1352/144
f 847/112 646/88 648/134
f 638/326 629/327 637/328
f 691/329 678/330 679/331
f 681/332 692/242 680/333
f 671/168 1326/334 1298/335
f 1075/231 481/113 990/204
f 1019/238 236/336 1018/220
f 510/315 504/316 502/317
f 1251/337 530/338 1255/339
f 641/113 845/157 957/108
f 775/340 731/341 744/340
f 318/10 307/67 319/32
f 1084/210 482/269 1092/266
f 960/108 527/168 852/157
f 322/25 309/51 310/53
f 1083/213 226/279 1022/181
f 1132/193 248/267 1133/237
f 897/200 22/88 24/134
f 1042/342 979/343 1116/187
f 547/102 427/166 428/102
f 550/344 409/345 410/346
f 817/347 780/348 781/349
f 414/298 434/350 433/298
f 575/319 393/351 576/351
f 416/321 429/281 431/321
f 225/352 357/108 223/276
f 1236/353 600/280 602/286
f 361/150 229/273 231/268
f 1320/284 605/167 1288/263
f 813/210 379/78 808/197
f 1353/354 593/113 1319/283
f 1233/355 596/356 598/279
f 1029/216 296/357 298/358
f 175/288 182/107 183/359
f 589/360 580/361 588/362
f 580/361 587/359 588/362
f 583/363 590/364 591/365
f 203/365 194/366 202/364
f 592/367 583/363 591/365
f 585/113 584/368 592/367
f 590/369 581/370 589/360
f 1071/200 614/88 616/134
f 819/292 784/371 777/372
f 421/5 556/35 419/35
f 958/150 647/111 847/112
f 574/373 397/312 572/312
f 688/374 675/375 676/376
f 1019/238 232/239 234/240
f 1223/339 660/377 1222/378
f 848/76 654/77 824/78
f 466/90 473/91 474/92
f 939/379 285/113 817/347
f 611/107 998/204 999/231
f 767/380 770/341 755/341
f 411/299 434/350 413/350
f 845/157 653/167 824/78
f 939/379 783/381 818/382
f 7/133 229/273 9/134
f 401/383 400/384 549/302
f 313/23 311/38 301/37
f 277/385 893/151 279/149
f 402/386 552/301 398/387
f 940/388 297/167 820/389
f 1119/96 919/164 392/163
f 556/390 557/391 558/392
f 480/393 465/394 471/395
f 626/90 633/91 634/92
f 1126/396 611/107 999/231
f 541/167 1291/397 1327/334
f 862/398 172/290 861/114
f 251/168 1138/129 1111/158
f 414/298 432/399 415/399
f 675/375 685/259 673/400
f 507/288 500/401 499/291
f 960/108 516/270 853/87
f 729/402 721/403 722/402
f 320/17 309/46 321/404
f 962/405 457/385 863/406
f 497/394 512/393 505/91
f 1284/407 544/408 1251/337
f 314/29 303/58 315/27
f 1325/409 663/111 1330/410
f 506/92 497/394 505/91
f 747/411 763/412 748/412
f 510/326 501/327 509/328
f 1089/200 490/133 1088/193
f 786/413 1172/289 1201/192
f 1090/191 484/270 486/88
f 1089/200 486/88 488/134
f 1295/81 407/414 1342/415
f 1224/416 660/377 662/417
f 756/418 765/402 746/402
f 1086/109 494/77 1085/197
f 191/288 198/107 199/359
f 181/113 180/368 188/367
f 180/368 187/365 188/367
f 436/299 389/419 390/420
f 173/91 182/107 174/92
f 176/361 183/359 184/362
f 185/360 176/361 184/362
f 178/366 187/365 179/363
f 475/288 466/90 474/92
f 508/421 501/327 500/401
f 849/151 522/133 524/267
f 407/422 1341/423 1342/424
f 762/425 750/14 749/425
f 1328/409 535/111 1339/410
f 1315/325 384/426 385/427
f 470/428 477/328 478/326
f 863/406 168/429 169/430
f 1010/204 251/168 1111/158
f 962/431 171/432 862/398
f 303/58 316/28 315/27
f 1186/109 622/77 1074/197
f 866/115 166/413 865/433
f 963/434 453/359 864/435
f 1074/197 624/436 1069/210
f 1176/116 168/429 1011/208
f 1128/118 169/430 1176/116
f 1015/209 166/413 1135/192
f 1011/208 167/437 1015/209
f 1110/212 464/336 450/438
f 1109/213 450/438 452/356
f 337/253 326/439 338/260
f 445/15 423/244 446/30
f 219/92 210/359 218/288
f 189/91 204/367 197/113
f 196/368 203/365 204/367
f 194/440 201/360 202/369
f 189/91 198/107 190/92
f 192/361 199/359 200/362
f 193/370 200/362 201/360
f 216/370 207/369 215/440
f 1192/190 242/88 1130/191
f 319/32 308/47 320/17
f 547/102 425/304 550/304
f 851/89 516/270 518/88
f 1321/441 665/385 1325/409
f 1255/339 532/377 1256/378
f 479/442 470/317 478/315
f 741/443 776/444 774/443
f 725/425 737/14 726/14
f 535/111 1292/445 1339/410
f 9/134 227/272 11/88
f 225/352 15/269 13/270
f 235/274 5/110 3/77
f 223/276 1/436 15/269
f 545/282 432/399 430/282
f 1055/217 298/358 300/408
f 221/277 3/77 1/436
f 11/88 225/352 13/270
f 214/363 207/364 206/365
f 208/360 217/361 209/362
f 209/362 218/288 210/359
f 219/92 212/113 211/107
f 178/440 185/360 186/369
f 213/368 206/365 205/367
f 220/91 205/367 212/113
f 587/359 578/92 586/107
f 789/430 1169/208 1200/116
f 453/359 865/433 864/435
f 636/421 629/327 628/401
f 820/389 778/446 779/447
f 1086/237 490/133 492/267
f 844/87 646/88 846/89
f 753/448 759/449 758/448
f 725/425 739/412 738/425
f 256/401 263/288 264/421
f 267/442 258/317 266/315
f 257/327 264/421 265/328
f 258/428 265/328 266/326
f 816/157 270/269 889/108
f 259/395 267/442 268/393
f 261/91 259/395 268/393
f 255/291 262/92 263/288
f 815/78 284/436 816/157
f 134/68 59/69 135/70
f 889/108 272/270 888/87
f 60/74 57/72 58/75
f 890/89 276/134 891/112
f 891/112 278/133 892/150
f 342/329 331/450 343/451
f 341/242 330/452 342/329
f 339/262 328/453 340/243
f 346/257 333/454 334/455
f 899/237 26/133 28/267
f 898/193 24/134 26/133
f 900/197 28/110 30/77
f 895/210 366/78 900/197
f 1100/220 462/240 464/336
f 807/197 351/76 806/109
f 359/89 225/352 227/272
f 802/210 350/78 807/197
f 426/245 448/24 447/31
f 549/302 399/456 551/457
f 411/458 413/459 414/460
f 545/461 546/462 416/463
f 683/464 696/253 695/260
f 301/37 314/29 313/23
f 734/465 742/444 743/465
f 1330/410 661/359 1329/445
f 1085/197 496/436 1084/210
f 905/153 906/466 393/467
f 907/468 1103/469 393/467
f 554/470 555/471 412/472
f 909/103 823/320 431/321
f 1290/473 384/357 1351/474
f 562/475 411/458 561/476
f 1148/477 1323/478 911/479
f 574/373 393/351 395/373
f 477/328 468/401 476/421
f 433/298 434/350 436/299
f 916/480 1151/481 915/178
f 471/395 479/442 480/393
f 919/164 433/298 918/165
f 435/308 920/482 388/483
f 1322/484 383/485 1290/473
f 755/341 769/418 756/418
f 958/150 652/267 848/151
f 640/393 632/316 639/442
f 677/486 690/451 689/249
f 317/16 306/65 318/10
f 682/487 693/243 681/332
f 324/488 311/38 323/21
f 880/78 528/436 852/157
f 692/242 679/331 680/333
f 957/108 644/270 844/87
f 745/403 764/411 747/411
f 682/487 695/260 694/262
f 111/489 97/55 99/53
f 101/47 114/490 113/491
f 731/341 732/418 742/444
f 684/492 686/246 696/253
f 761/14 751/309 750/14
f 674/493 685/259 686/246
f 732/418 729/402 722/402
f 741/443 775/340 744/340
f 771/494 767/380 766/494
f 727/309 735/449 728/449
f 412/308 420/4 435/308
f 723/411 739/412 724/412
f 752/449 760/309 759/449
f 866/115 172/290 165/495
f 740/411 730/403 776/444
f 1081/496 232/287 1026/497
f 766/494 755/341 756/418
f 1279/337 658/338 1223/339
f 521/385 850/112 959/150
f 1254/416 532/377 534/417
f 475/288 468/401 467/291
f 1308/498 406/499 405/154
f 731/341 733/418 732/418
f 1134/197 248/110 250/77
f 758/448 768/500 753/448
f 746/402 754/403 745/403
f 512/393 504/316 511/442
f 749/425 763/412 762/425
f 759/449 760/309 771/494
f 723/411 730/403 740/411
f 768/500 771/494 766/494
f 677/486 688/254 676/74
f 324/488 310/53 312/55
f 850/112 518/88 520/134
f 1159/501 784/371 1160/502
f 1199/503 777/372 1159/501
f 1161/504 782/505 1163/506
f 1160/502 783/381 1161/504
f 1064/507 300/408 286/338
f 1058/508 286/338 288/377
f 896/190 372/108 894/266
f 806/237 352/150 805/193
f 1131/200 242/88 244/134
f 735/449 743/465 728/449
f 1227/407 668/357 670/358
f 941/509 289/359 818/382
f 1132/193 244/134 246/133
f 628/401 635/288 636/421
f 1071/200 618/133 1072/193
f 640/393 625/394 631/395
f 882/157 1134/197 1129/210
f 1079/231 883/89 1107/396
f 283/168 889/108 269/113
f 982/207 1024/188 1081/496
f 876/510 1334/156 1333/155
f 295/264 820/389 297/167
f 643/107 846/89 645/359
f 950/511 1306/512 1360/224
f 1214/122 879/120 1213/513
f 285/113 940/388 817/347
f 992/129 839/157 994/158
f 1249/119 825/120 827/121
f 369/112 968/191 897/200
f 461/167 861/114 463/168
f 963/434 167/437 168/429
f 1343/514 902/515 1344/516
f 958/150 648/134 650/133
f 960/108 528/436 514/269
f 1188/190 860/108 1092/266
f 1363/517 831/518 1311/519
f 1166/520 933/521 932/522
f 1201/192 935/182 1170/209
f 1219/523 953/524 833/525
f 949/123 1307/526 1359/183
f 782/505 817/347 781/349
f 1101/318 886/151 1140/230
f 1165/138 932/522 931/139
f 17/436 808/197 19/77
f 1257/122 825/120 1258/513
f 990/204 854/157 860/108
f 1156/527 981/528 925/529
f 647/111 846/89 847/112
f 1141/530 1261/531 1262/532
f 860/108 1084/210 1092/266
f 967/87 1127/266 1192/190
f 822/320 427/166 548/166
f 1311/519 832/533 1312/534
f 778/535 819/292 777/372
f 355/87 937/266 801/190
f 978/186 1148/477 911/479
f 1171/536 1296/537 1354/79
f 1170/209 934/189 1169/208
f 1230/538 1087/539 1053/540
f 1063/541 1031/542 416/463
f 395/543 393/467 397/311
f 906/466 397/311 393/467
f 1043/544 393/467 1103/469
f 424/305 438/22 448/24
f 281/167 816/157 283/168
f 269/113 888/87 271/107
f 945/545 970/546 545/461
f 1221/547 905/153 393/467
f 838/108 1069/210 1068/266
f 576/351 956/548 912/549
f 1276/101 1277/550 428/102
f 1278/551 428/102 1277/550
f 437/20 438/22 425/304
f 388/483 979/343 387/552
f 1118/553 1220/554 1041/555
f 1053/540 1087/539 821/296
f 1116/187 1157/179 915/178
f 18/269 895/210 32/436
f 1095/556 911/479 1020/143
f 243/111 1107/396 1105/557
f 1187/138 868/522 867/139
f 651/264 824/78 653/167
f 973/99 1076/558 1043/544
f 800/559 796/560 989/561
f 1027/562 929/563 1058/508
f 1143/564 1265/565 1264/566
f 1300/567 1196/568 977/97
f 1269/569 1152/570 1270/571
f 798/559 794/560 1198/561
f 904/132 1044/572 1301/573
f 1113/214 1249/119 1250/202
f 614/88 1070/190 612/270
f 1037/520 964/521 868/522
f 792/290 1166/520 1165/138
f 1299/574 1168/575 1040/576
f 793/577 1202/578 986/579
f 780/348 1156/527 1155/580
f 1194/581 974/582 564/583
f 720/418 921/13 922/12
f 456/280 1108/181 454/279
f 22/88 896/190 20/270
f 1230/538 1032/584 1216/585
f 491/149 1003/318 1001/230
f 1261/531 1051/586 1228/587
f 487/111 1003/318 489/385
f 1182/588 1263/589 1281/590
f 1203/591 984/592 1008/593
f 986/579 987/594 36/426
f 396/595 398/387 552/301
f 983/180 1028/212 1083/213
f 403/310 402/386 398/387
f 1308/498 405/154 905/153
f 1281/590 569/596 1282/597
f 1296/537 1310/598 547/599
f 547/599 550/344 410/346
f 955/151 1072/193 1186/237
f 1220/554 909/103 431/321
f 554/470 975/600 974/582
f 970/546 414/460 545/461
f 1350/601 913/148 1348/147
f 1126/396 841/112 995/557
f 1312/534 837/602 1318/603
f 840/87 1068/266 1070/190
f 293/385 941/509 819/292
f 1248/203 875/511 1211/211
f 1207/604 834/605 835/606
f 656/436 824/78 654/77
f 1164/607 924/215 930/608
f 589/360 581/370 580/361
f 580/361 579/288 587/359
f 1101/318 884/112 885/150
f 993/318 841/112 842/150
f 592/367 584/368 583/363
f 585/113 577/91 584/368
f 1023/127 928/609 1027/562
f 460/287 1104/496 458/286
f 2/269 802/210 16/436
f 1191/225 1253/610 1285/611
f 485/359 1002/557 487/111
f 797/559 795/560 1036/561
f 1270/571 1149/612 1268/613
f 782/505 1164/607 1163/506
f 352/150 804/200 805/193
f 799/559 793/560 986/561
f 800/559 797/614 37/1
f 29/270 814/266 31/269
f 485/359 1075/231 1153/396
f 1232/615 1065/616 1238/617
f 1318/603 836/618 1317/619
f 454/279 1109/213 452/356
f 19/77 809/109 21/110
f 275/111 892/150 277/385
f 551/457 409/345 550/344
f 273/359 891/112 275/111
f 915/178 1197/620 978/186
f 571/307 445/15 444/9
f 1002/557 857/150 1003/318
f 571/307 573/306 423/244
f 523/264 880/78 525/167
f 956/548 572/312 443/11
f 576/351 574/373 572/312
f 621/167 994/158 623/168
f 377/150 811/200 810/193
f 491/264 1154/129 493/167
f 1190/184 1252/621 1284/407
f 1275/622 1183/623 1282/597
f 481/113 1004/158 990/204
f 1226/611 1048/624 1225/610
f 1081/496 228/280 230/286
f 617/385 995/557 993/318
f 1007/625 988/626 1204/627
f 984/592 1204/627 1005/628
f 271/107 890/89 273/359
f 353/112 803/191 804/200
f 292/629 1027/562 290/417
f 279/264 815/78 281/167
f 786/413 1170/209 787/437
f 1238/617 1062/630 1237/631
f 354/89 801/190 803/191
f 1283/632 1054/633 1231/634
f 703/635 923/49 980/48
f 928/609 1163/506 929/563
f 458/286 1106/188 456/280
f 559/636 1174/637 570/638
f 927/126 1161/504 928/609
f 930/608 1055/217 1064/507
f 1286/639 996/640 991/641
f 886/76 1134/197 887/78
f 619/264 992/129 621/167
f 20/270 894/266 18/269
f 181/113 173/91 180/368
f 180/368 179/363 187/365
f 1242/642 947/643 1217/644
f 1163/506 930/608 929/563
f 176/361 175/288 183/359
f 185/360 177/370 176/361
f 1229/645 947/643 946/646
f 985/84 39/647 797/614
f 484/270 1092/266 482/269
f 166/413 1014/289 1135/192
f 1359/183 1046/648 1303/218
f 1338/649 1112/650 1329/445
f 989/561 1006/651 1203/591
f 1242/642 1009/652 1210/653
f 1340/335 1098/654 1137/227
f 1194/581 972/655 973/99
f 375/89 938/190 812/191
f 376/112 812/191 811/200
f 1266/656 1193/657 565/658
f 1322/484 1035/659 1297/660
f 378/151 810/193 809/237
f 1204/627 35/661 1198/662
f 1209/663 833/525 834/605
f 1108/181 872/180 1109/213
f 513/113 853/87 515/107
f 962/405 169/430 170/664
f 1106/188 871/182 1108/181
f 1014/289 867/139 873/137
f 1260/229 965/665 874/123
f 1135/192 873/137 872/180
f 1306/512 828/510 1305/155
f 1105/557 883/89 884/112
f 189/91 196/368 204/367
f 196/368 195/363 203/365
f 1275/622 1174/637 1173/666
f 12/267 805/193 10/133
f 192/361 191/288 199/359
f 193/370 192/361 200/362
f 943/667 1244/668 1091/669
f 1361/670 901/671 1343/514
f 222/438 1018/220 236/336
f 979/343 1095/556 387/552
f 1008/593 1005/628 1202/578
f 1087/539 1324/672 821/296
f 1328/409 1012/673 1291/441
f 165/495 1187/138 1014/289
f 1287/674 1000/675 996/640
f 841/112 1072/193 842/150
f 1173/666 1174/637 944/676
f 366/78 899/109 900/197
f 523/149 959/150 849/151
f 1001/128 855/78 1154/129
f 367/151 898/193 899/237
f 32/436 900/197 30/77
f 1365/512 876/510 1333/155
f 368/150 897/200 898/193
f 902/677 1345/678 1344/679
f 1244/668 1063/541 1091/669
f 208/360 216/370 217/361
f 209/362 217/361 218/288
f 1241/680 830/665 1246/228
f 1175/681 944/676 1174/637
f 213/368 214/363 206/365
f 220/91 213/368 205/367
f 784/371 818/382 783/381
f 1206/682 835/606 836/683
f 31/269 813/210 17/436
f 38/684 985/84 800/559
f 1309/685 1096/686 381/687
f 1326/334 1073/688 1094/654
f 1202/578 794/689 987/594
f 1356/690 1178/691 1177/692
f 779/447 1199/693 1156/527
f 841/112 1185/191 1071/200
f 925/529 1115/694 1029/216
f 1313/695 1184/696 1057/697
f 1303/218 1045/198 1302/219
f 954/89 999/231 840/87
f 999/231 838/108 840/87
f 932/522 1026/698 1019/238
f 1273/699 1066/700 1239/701
f 1331/183 1122/648 1335/218
f 1247/228 1012/688 1211/680
f 931/139 1019/238 1018/220
f 1239/701 1067/702 1240/232
f 1314/703 1057/697 1059/236
f 1208/234 991/704 1206/705
f 1001/230 857/150 856/151
f 1155/580 925/529 924/215
f 517/359 853/87 851/89
f 864/435 166/413 167/437
f 1030/128 843/78 992/129
f 1104/496 870/189 1106/188
f 1260/229 878/124 1214/122
f 1153/396 961/87 859/89
f 1189/497 869/207 1104/496
f 449/113 865/433 451/107
f 642/269 845/157 656/436
f 1153/396 858/112 1002/557
f 1355/706 952/707 1362/708
f 560/709 971/710 559/636
f 969/711 411/458 414/460
f 560/709 561/476 411/458
f 1175/681 970/546 945/545
f 971/710 969/711 414/460
f 970/546 559/636 971/710
f 414/460 415/712 545/461
f 856/151 1088/193 1086/237
f 238/269 1129/210 252/436
f 929/563 1064/507 1058/508
f 1334/156 1123/198 1121/199
f 981/713 1159/501 926/136
f 564/583 1193/657 1194/581
f 1346/130 904/132 972/655
f 563/714 974/582 975/600
f 1194/581 973/99 1034/100
f 393/467 394/715 557/391
f 907/468 557/391 556/390
f 412/472 562/475 563/714
f 975/600 412/472 563/714
f 1195/716 1196/568 431/321
f 1229/645 946/646 977/97
f 1210/653 1158/717 1271/718
f 951/719 1216/585 1274/720
f 1148/477 1197/620 576/351
f 443/11 912/549 956/548
f 1097/721 1221/547 1044/572
f 1243/159 1082/160 576/351
f 390/420 391/722 436/299
f 444/9 572/312 571/307
f 979/343 920/482 421/5
f 418/300 916/480 419/35
f 418/300 575/319 576/351
f 1095/556 1042/342 978/186
f 982/207 1026/497 933/117
f 1197/620 1151/481 576/351
f 1195/716 431/321 430/282
f 431/321 429/281 430/282
f 430/282 432/399 433/298
f 388/483 389/419 435/308
f 435/308 420/4 421/5
f 855/78 1084/210 854/157
f 290/417 1058/508 288/377
f 1338/649 1124/723 1125/724
f 615/111 1126/396 995/557
f 1280/322 1049/225 1226/611
f 245/385 1140/230 247/149
f 393/467 1043/544 1076/558
f 867/139 1102/238 1100/220
f 885/150 1131/200 1132/193
f 1180/185 1227/407 1279/337
f 1294/725 1016/724 1293/649
f 1043/544 908/94 973/99
f 1120/624 1254/416 1253/610
f 709/403 710/402 720/418
f 720/418 719/341 718/726
f 718/726 717/448 716/449
f 716/449 715/309 714/14
f 714/14 713/425 712/412
f 712/412 711/411 714/14
f 711/411 922/12 714/14
f 16/436 807/197 14/77
f 716/449 921/13 718/726
f 697/50 708/727 707/728
f 707/728 706/729 705/730
f 705/730 704/731 703/635
f 703/635 702/732 701/733
f 701/733 700/734 699/735
f 699/735 698/736 701/733
f 698/736 923/49 701/733
f 707/728 980/48 697/50
f 908/94 556/390 1146/95
f 732/418 722/402 742/444
f 722/402 721/403 742/444
f 721/403 723/411 742/444
f 723/411 724/412 742/444
f 724/412 725/425 742/444
f 725/425 726/14 742/444
f 726/14 727/309 742/444
f 727/309 728/449 742/444
f 728/449 743/465 742/444
f 742/444 741/443 744/340
f 744/340 731/341 742/444
f 945/545 1063/541 944/676
f 1129/210 250/77 252/436
f 1360/737 1050/184 1307/526
f 883/89 1131/200 884/112
f 1192/190 238/269 240/270
f 421/5 1116/187 979/343
f 781/349 1155/580 1164/607
f 787/437 1169/208 788/429
f 1231/634 1056/738 1232/615
f 1228/587 1097/721 904/132
f 1005/628 1198/662 794/689
f 730/403 729/402 776/444
f 729/402 733/418 776/444
f 733/418 773/341 776/444
f 773/341 775/340 776/444
f 775/340 774/443 776/444
f 776/444 734/465 735/449
f 735/449 736/309 776/444
f 736/309 737/14 776/444
f 737/14 738/425 776/444
f 738/425 739/412 776/444
f 739/412 740/411 776/444
f 34/739 1203/591 1077/740
f 756/418 746/402 766/494
f 746/402 745/403 766/494
f 745/403 747/411 766/494
f 747/411 748/412 766/494
f 748/412 749/425 766/494
f 749/425 750/14 766/494
f 750/14 751/309 766/494
f 751/309 752/449 766/494
f 752/449 753/448 766/494
f 753/448 768/500 766/494
f 766/494 767/380 755/341
f 1182/588 1362/708 1361/670
f 239/107 1107/396 241/359
f 1070/190 610/269 612/270
f 1263/589 1143/741 1264/742
f 926/136 1160/502 927/126
f 946/646 1041/555 1300/567
f 1068/266 624/436 610/269
f 171/432 1128/743 1037/520
f 387/552 1020/143 386/145
f 791/432 1167/743 1166/520
f 1301/573 1076/558 972/655
f 754/403 765/402 771/494
f 765/402 769/418 771/494
f 769/418 770/341 771/494
f 770/341 772/380 771/494
f 771/494 757/500 758/448
f 764/411 754/403 771/494
f 762/425 763/412 771/494
f 763/412 764/411 771/494
f 760/309 761/14 771/494
f 761/14 762/425 771/494
f 758/448 759/449 771/494
f 1083/213 222/438 224/356
f 1358/140 1178/691 1357/744
f 172/290 1037/520 1187/138
f 1186/237 618/133 620/267
f 243/111 1101/318 245/385
f 1350/601 914/745 917/746
f 289/359 939/379 818/382
f 780/348 820/389 779/447
f 457/385 963/434 863/406
f 1127/266 882/157 1129/210
f 954/89 1070/190 1185/191
f 461/167 962/431 862/398
f 1364/526 875/747 1332/737
f 976/98 1196/568 1195/716
f 1309/685 1035/659 1052/748
f 1077/740 1008/593 793/577
f 1028/212 931/139 1018/220
f 1091/669 1063/541 416/463
f 1289/749 1040/576 1000/675
f 416/463 822/297 821/296
f 1340/335 1017/723 1294/725
f 892/150 280/267 893/151
f 868/522 1189/698 1102/238
f 1267/750 1150/751 1269/752
f 1082/160 1080/146 913/148
f 495/168 1154/129 1004/158
f 1048/624 1224/416 1225/610
f 1149/612 912/549 1268/613
f 1272/106 1162/105 911/479
f 1278/551 1147/753 1267/750
f 296/324 1025/125 294/323
f 1265/565 1145/754 1266/656
f 247/264 1138/129 249/167
f 294/323 1023/127 292/629
f 1298/335 1124/723 1337/725
f 1293/649 1013/650 1292/445
f 789/430 1167/118 790/664
f 1356/690 1118/553 946/646
f 974/582 1034/100 1033/93
f 392/163 1096/686 1119/96
f 1033/93 554/470 974/582
f 1205/86 795/755 1007/625
f 1006/651 1007/625 984/592
f 796/560 1205/86 1006/651
f 1274/720 1021/756 1215/194
f 951/719 1215/194 901/671
f 531/107 1292/445 533/359
f 671/168 1337/725 657/113
f 566/757 1266/656 565/658
f 437/20 1267/750 439/26
f 1225/610 662/417 664/629
f 440/314 1267/750 1269/752
f 543/168 1294/725 529/113
f 599/111 1299/574 1289/749
f 381/687 1297/660 1309/685
f 1190/184 1332/737 1117/758
f 1152/570 1349/759 1350/601
f 948/760 1357/744 947/643
f 568/761 1264/742 567/762
f 1361/670 952/707 951/719
f 594/438 1232/615 608/336
f 950/747 1307/526 830/665
f 1253/610 534/417 536/629
f 531/107 1294/725 1293/649
f 1279/337 670/358 672/408
f 1280/322 666/323 668/324
f 657/113 1338/649 659/107
f 1274/720 1032/584 1171/536
f 910/141 1271/718 914/161
f 877/121 1336/219 1334/156
f 1173/666 1362/708 1183/623
f 1137/227 1214/122 1017/723
f 837/602 1206/705 836/618
f 834/605 1313/695 1314/703
f 831/518 1240/232 832/533
f 1247/228 875/747 965/665
f 874/123 1335/218 878/124
f 953/524 1239/701 831/518
f 826/124 1302/219 825/120
f 833/525 1363/517 1313/695
f 946/646 1357/744 1356/690
f 667/264 1326/334 669/167
f 991/641 1207/604 1206/682
f 1094/654 1241/680 1246/228
f 1344/679 1144/763 1143/564
f 1191/225 1333/155 1120/624
f 601/385 1289/749 1287/674
f 537/385 1291/441 539/149
f 1361/670 1142/764 1182/588
f 1049/225 1305/155 1048/624
f 1137/227 1247/228 1260/229
f 1000/675 1219/523 1209/663
f 382/765 1322/484 1297/660
f 543/168 1327/334 1340/335
f 948/760 1210/653 910/141
f 659/107 1329/445 661/359
f 949/123 1303/218 826/124
f 1052/748 1217/644 1229/645
f 1078/766 1217/644 1035/659
f 603/149 1287/674 1286/639
f 596/356 1231/634 594/438
f 606/240 1237/631 604/239
f 666/323 1225/610 664/629
f 570/638 1282/597 569/596
f 542/358 1252/621 540/357
f 1065/616 1317/619 1062/630
f 608/336 1238/617 606/240
f 441/19 1268/613 442/33
f 1285/611 536/629 538/323
f 996/640 1209/663 1207/604
f 1099/201 1211/211 1012/673
f 1056/738 1318/603 1065/616
f 1152/570 1348/147 1149/612
f 1053/540 1296/537 1032/584
f 1281/590 1183/623 1182/588
f 1281/590 568/761 569/596
f 904/132 1261/531 1228/587
f 943/667 1216/585 952/707
f 597/359 1353/354 1299/574
f 1250/202 827/121 828/510
f 440/18 1270/571 441/19
f 1264/566 566/757 567/767
f 1179/768 1277/550 1178/691
f 1177/692 1277/550 1276/101
f 1354/79 547/599 410/346
f 1054/633 1312/534 1056/738
f 1262/532 903/131 902/677
f 1125/724 1257/122 1258/513
f 1359/183 1050/184 1180/185
f 1040/576 1273/699 1219/523
f 1184/696 1311/519 1054/633
f 1142/764 1344/516 1143/741
f 1112/650 1258/513 1249/119
f 1017/723 1213/513 1016/724
f 1181/226 1306/512 1049/225
f 1333/155 1121/199 1120/624
f 1181/758 1227/407 1050/184
f 1051/586 1341/423 1308/498
f 1121/199 1256/378 1254/416
f 1180/185 1223/339 1046/648
f 1078/766 1290/473 1009/652
f 1009/652 1351/474 1158/717
f 1113/214 1329/445 1112/650
f 1339/410 1013/650 1136/214
f 1122/648 1256/378 1123/198
f 1073/673 1325/409 1093/201
f 1060/206 1351/769 1315/325
f 1099/201 1339/410 1136/214
f 1342/424 1139/770 1141/530
f 1045/198 1224/416 1047/199
f 1021/756 1342/415 1141/195
f 1325/409 1113/214 1093/201
f 1114/185 1284/407 1251/337
f 1327/334 1012/688 1098/654
f 1046/648 1222/378 1045/198
f 1057/697 1283/632 1233/355
f 1168/575 1319/283 1066/700
f 1067/702 1288/263 997/233
f 1061/222 1234/278 1236/353
f 1114/185 1255/339 1122/648
f 1298/335 1094/654 1038/227
f 1060/206 1352/144 1162/105
f 1117/226 1285/611 1252/322
f 1062/223 1236/353 1237/285
f 1066/700 1320/284 1067/702
f 1059/236 1233/355 1234/278
f 997/233 1286/265 991/704
f 966/771 1259/202 876/510
f 835/606 1314/703 1316/235
f 832/533 1208/234 837/602
f 1218/229 830/665 949/123
f 966/771 1332/224 875/511
f 836/683 1316/235 1317/221
f 878/124 1336/219 879/120
f 1259/202 877/121 876/510
f 1241/211 829/771 950/511
f 917/746 1271/772 1235/104
f 829/771 1250/202 828/510
f 827/121 1302/219 1304/156
f 901/671 1262/196 902/515
f 874/123 1364/526 1331/183
f 1147/753 1349/162 1150/751
f 1048/624 1304/156 1047/199
f 1179/768 1347/142 1147/753
f 1145/754 1345/678 1346/130
f 1038/227 1257/122 1124/723
f 1013/650 1213/513 1212/119
f 917/746 1272/106 913/148
f 1171/536 1295/81 1021/756
f 794/560 798/559 987/3
f 798/559 40/1 987/3
f 796/560 800/559 1039/3
f 800/559 37/1 1039/3
f 793/560 799/559 1077/3
f 799/559 38/1 1077/3
f 420/4 555/4 554/5
f 159/6 65/773 66/7
f 80/9 92/16 91/10
f 81/15 93/28 92/16
f 89/17 88/404 76/18
f 73/20 85/488 86/21
f 74/22 86/21 96/23
f 87/25 85/488 73/20
f 81/15 82/30 94/27
f 95/29 94/27 82/30
f 90/32 89/17 77/19
f 96/23 95/29 83/31
f 417/34 419/35 556/35
f 143/6 47/773 48/7
f 110/36 120/774 108/37
f 122/39 123/170 125/40
f 104/42 105/61 117/43
f 113/45 112/775 100/46
f 100/51 112/776 111/52
f 109/54 110/777 98/38
f 107/56 119/778 118/57
f 107/56 108/37 120/59
f 105/61 106/58 118/62
f 116/64 115/779 103/65
f 91/10 90/32 78/33
f 103/65 115/780 114/66
f 163/6 69/773 70/7
f 142/68 45/72 47/69
f 133/71 58/73 57/72
f 162/68 71/72 69/69
f 160/8 66/7 68/73
f 141/71 46/73 45/72
f 70/74 69/69 71/72
f 137/71 42/73 41/72
f 66/74 65/69 67/72
f 893/76 280/110 282/77
f 140/8 44/7 42/73
f 139/6 43/773 44/7
f 138/68 41/72 43/69
f 136/8 60/7 58/73
f 156/8 64/7 62/73
f 144/8 48/7 46/73
f 148/8 50/7 52/73
f 155/6 63/773 64/7
f 146/68 51/72 49/69
f 147/6 49/773 50/7
f 145/71 52/73 51/72
f 154/68 61/72 63/69
f 149/71 56/73 55/72
f 150/68 55/72 53/69
f 153/71 62/73 61/72
f 1354/79 410/346 408/80
f 50/74 49/69 51/72
f 152/8 54/7 56/73
f 151/6 53/773 54/7
f 64/74 63/69 61/72
f 799/82 40/781 798/83
f 1039/3 33/2 1036/85
f 888/87 272/270 274/88
f 158/68 67/72 65/69
f 157/71 68/73 67/72
f 48/74 47/69 45/72
f 254/90 253/394 261/91
f 161/71 72/73 71/72
f 135/6 59/773 60/7
f 54/74 53/69 55/72
f 1119/96 1096/686 977/97
f 973/99 908/94 1033/93
f 1118/553 1177/692 909/103
f 1177/692 1276/101 909/103
f 1235/104 1060/206 1162/105
f 643/107 641/113 957/108
f 14/77 807/197 806/109
f 519/111 517/359 851/89
f 449/113 463/168 861/114
f 1200/116 982/207 933/117
f 1212/119 1213/513 879/120
f 1257/122 1218/229 949/123
f 1025/125 926/136 927/126
f 1140/128 886/76 887/78
f 1346/130 1345/678 903/131
f 522/133 959/150 850/112
f 1115/135 981/713 926/136
f 936/137 1172/289 1165/138
f 1358/140 948/760 910/141
f 1020/143 1162/105 1352/144
f 1080/146 1149/612 1348/147
f 651/149 649/385 958/150
f 404/152 906/466 905/153
f 1305/155 828/510 827/121
f 1154/129 855/78 854/157
f 1243/159 912/549 1080/146
f 1347/142 910/141 914/161
f 427/166 823/320 909/103
f 525/167 880/78 852/157
f 1157/179 421/5 419/35
f 419/35 916/480 915/178
f 983/180 1083/213 1022/181
f 1331/183 1364/526 1190/184
f 1111/158 1138/129 887/78
f 978/186 1042/342 1116/187
f 935/182 1022/181 1024/188
f 859/89 961/87 1188/190
f 1201/192 1172/289 936/137
f 858/112 1089/200 1088/193
f 1215/194 1021/756 1141/195
f 856/76 1086/109 1085/197
f 1304/156 1302/219 1045/198
f 859/89 1090/191 1089/200
f 1093/201 1113/214 1250/202
f 998/204 994/158 839/157
f 881/108 1010/204 1111/158
f 1235/104 1271/772 1158/205
f 869/207 1176/116 1011/208
f 870/189 1011/208 1015/209
f 871/182 1015/209 1135/192
f 964/117 1128/118 1176/116
f 843/78 1074/197 1069/210
f 1241/211 1073/673 1093/201
f 967/87 1192/190 1130/191
f 872/180 873/137 1110/212
f 1136/214 1013/650 1212/119
f 1200/116 1169/208 934/189
f 924/215 925/529 1029/216
f 1335/218 1122/648 1123/198
f 873/137 867/139 1100/220
f 955/76 1186/109 1074/197
f 1317/221 1316/235 1061/222
f 1332/224 1365/512 1191/225
f 961/87 1075/231 990/204
f 1038/227 1094/654 1246/228
f 1030/230 993/318 842/150
f 1079/231 1010/204 881/108
f 1240/232 1067/702 997/233
f 1316/235 1314/703 1059/236
f 885/150 1132/193 1133/237
f 1248/203 1099/201 1136/214
f 1102/238 1189/698 460/239
f 328/241 329/782 341/242
f 423/244 422/294 426/245
f 347/246 348/259 336/247
f 344/249 343/451 331/250
f 347/246 335/783 325/252
f 345/254 344/249 332/255
f 346/257 334/784 336/258
f 338/260 326/785 327/261
f 1288/263 605/167 603/264
f 894/266 372/108 365/157
f 5/267 233/271 231/268
f 937/266 356/108 349/157
f 801/190 937/266 2/269
f 803/191 801/190 4/270
f 804/200 803/191 6/88
f 811/200 812/191 27/88
f 812/191 938/190 29/270
f 362/151 361/150 231/268
f 814/266 373/108 380/157
f 360/112 359/89 227/272
f 235/274 363/78 362/76
f 223/276 357/108 364/157
f 809/237 810/193 23/133
f 1234/278 1233/355 598/279
f 805/193 804/200 8/134
f 968/191 370/89 371/87
f 810/193 811/200 25/134
f 546/281 545/282 430/282
f 808/197 379/78 378/76
f 1319/283 593/113 607/168
f 938/190 374/87 373/108
f 164/8 70/7 72/73
f 44/74 43/69 41/72
f 239/107 237/113 1010/204
f 1237/285 1236/353 602/286
f 635/288 627/291 626/90
f 1172/289 785/495 792/290
f 499/291 498/90 506/92
f 304/61 305/42 317/16
f 295/149 293/385 819/292
f 426/245 422/294 553/294
f 548/295 547/599 821/296
f 436/299 391/722 918/165
f 391/722 392/163 918/165
f 795/560 797/559 988/3
f 797/559 39/1 988/3
f 552/301 401/383 549/302
f 417/34 558/34 557/300
f 550/304 425/304 424/305
f 573/306 396/306 552/244
f 398/307 396/306 573/306
f 412/308 435/308 436/299
f 551/305 424/305 426/245
f 726/14 737/14 736/309
f 403/310 398/387 397/311
f 609/113 623/168 994/158
f 397/312 398/307 571/307
f 849/76 524/110 526/77
f 88/313 87/25 75/26
f 221/277 364/157 363/78
f 423/244 552/244 553/294
f 638/315 639/442 632/316
f 578/92 577/91 585/113
f 1022/181 226/279 228/280
f 619/149 617/385 993/318
f 394/319 575/319 418/300
f 822/320 416/321 431/321
f 1252/322 1285/611 538/323
f 1315/325 385/427 386/145
f 847/112 846/89 646/88
f 638/326 630/428 629/327
f 691/329 690/451 678/330
f 681/332 693/243 692/242
f 671/168 669/167 1326/334
f 1075/231 483/107 481/113
f 1019/238 234/240 236/336
f 510/315 511/442 504/316
f 1251/337 544/408 530/338
f 641/113 655/168 845/157
f 775/340 773/341 731/341
f 318/10 306/65 307/67
f 1084/210 496/436 482/269
f 960/108 513/113 527/168
f 322/25 321/313 309/51
f 1083/213 224/356 226/279
f 1132/193 246/133 248/267
f 897/200 968/191 22/88
f 547/102 548/166 427/166
f 817/347 940/388 780/348
f 414/298 413/350 434/350
f 575/319 394/319 393/351
f 416/321 546/281 429/281
f 225/352 358/87 357/108
f 1236/353 1234/278 600/280
f 361/150 360/112 229/273
f 1320/284 607/168 605/167
f 813/210 380/157 379/78
f 1353/354 595/107 593/113
f 1233/355 1283/632 596/356
f 1029/216 1115/694 296/357
f 175/288 174/92 182/107
f 583/363 582/366 590/364
f 203/365 195/363 194/366
f 590/369 582/440 581/370
f 1071/200 1185/191 614/88
f 819/292 941/509 784/371
f 421/5 554/5 556/35
f 958/150 649/385 647/111
f 574/373 395/373 397/312
f 688/374 687/257 675/375
f 1019/238 1026/698 232/239
f 1223/339 658/338 660/377
f 848/76 652/110 654/77
f 466/90 465/394 473/91
f 939/379 287/107 285/113
f 611/107 609/113 998/204
f 767/380 772/380 770/341
f 411/299 436/299 434/350
f 845/157 655/168 653/167
f 939/379 782/505 783/381
f 7/133 231/268 229/273
f 313/23 323/21 311/38
f 277/385 892/150 893/151
f 402/386 401/383 552/301
f 940/388 299/168 297/167
f 1119/96 976/98 919/164
f 480/393 473/91 465/394
f 626/90 625/394 633/91
f 1126/396 613/359 611/107
f 541/167 539/264 1291/397
f 862/398 171/432 172/290
f 251/168 249/167 1138/129
f 414/298 433/298 432/399
f 675/375 687/257 685/259
f 507/288 508/421 500/401
f 960/108 514/269 516/270
f 729/402 730/403 721/403
f 320/17 308/47 309/46
f 962/405 459/149 457/385
f 497/394 503/395 512/393
f 1284/407 542/358 544/408
f 314/29 302/56 303/58
f 1325/409 665/385 663/111
f 506/92 498/90 497/394
f 747/411 764/411 763/412
f 510/326 502/428 501/327
f 1089/200 488/134 490/133
f 786/413 785/495 1172/289
f 1090/191 1188/190 484/270
f 1089/200 1090/191 486/88
f 1295/81 408/80 407/414
f 1224/416 1222/378 660/377
f 756/418 769/418 765/402
f 1086/109 492/110 494/77
f 191/288 190/92 198/107
f 436/299 435/308 389/419
f 173/91 181/113 182/107
f 178/366 186/364 187/365
f 475/288 467/291 466/90
f 508/421 509/328 501/327
f 849/151 959/150 522/133
f 407/422 406/499 1341/423
f 762/425 761/14 750/14
f 1328/409 537/385 535/111
f 1315/325 1351/769 384/426
f 470/428 469/327 477/328
f 863/406 963/434 168/429
f 1010/204 237/113 251/168
f 962/431 170/786 171/432
f 303/58 304/61 316/28
f 1186/109 620/110 622/77
f 866/115 165/495 166/413
f 963/434 455/111 453/359
f 1074/197 622/77 624/436
f 1176/116 169/430 168/429
f 1128/118 170/664 169/430
f 1015/209 167/437 166/413
f 1011/208 168/429 167/437
f 1110/212 1100/220 464/336
f 1109/213 1110/212 450/438
f 337/253 325/787 326/439
f 445/15 571/307 423/244
f 219/92 211/107 210/359
f 194/440 193/370 201/360
f 189/91 197/113 198/107
f 216/370 208/360 207/369
f 1192/190 240/270 242/88
f 319/32 307/67 308/47
f 547/102 428/102 425/304
f 851/89 853/87 516/270
f 1321/441 667/149 665/385
f 1255/339 530/338 532/377
f 479/442 472/316 470/317
f 741/443 742/444 776/444
f 725/425 738/425 737/14
f 535/111 533/359 1292/445
f 9/134 229/273 227/272
f 225/352 223/276 15/269
f 235/274 233/275 5/110
f 223/276 221/277 1/436
f 545/282 415/399 432/399
f 1055/217 1029/216 298/358
f 221/277 235/274 3/77
f 11/88 227/272 225/352
f 214/363 215/366 207/364
f 219/92 220/91 212/113
f 178/440 177/370 185/360
f 587/359 579/288 578/92
f 789/430 788/429 1169/208
f 453/359 451/107 865/433
f 636/421 637/328 629/327
f 820/389 942/788 778/446
f 1086/237 1088/193 490/133
f 844/87 644/270 646/88
f 753/448 752/449 759/449
f 725/425 724/412 739/412
f 256/401 255/291 263/288
f 267/442 260/316 258/317
f 257/327 256/401 264/421
f 258/428 257/327 265/328
f 816/157 284/436 270/269
f 259/395 260/316 267/442
f 261/91 253/394 259/395
f 255/291 254/90 262/92
f 815/78 282/77 284/436
f 134/68 57/72 59/69
f 889/108 270/269 272/270
f 60/74 59/69 57/72
f 890/89 274/88 276/134
f 891/112 276/134 278/133
f 342/329 330/789 331/450
f 341/242 329/790 330/452
f 339/262 327/791 328/453
f 346/257 345/374 333/454
f 899/237 898/193 26/133
f 898/193 897/200 24/134
f 900/197 899/109 28/110
f 895/210 365/157 366/78
f 1100/220 1102/238 462/240
f 807/197 350/78 351/76
f 359/89 358/87 225/352
f 802/210 349/157 350/78
f 426/245 424/305 448/24
f 549/302 400/384 399/456
f 683/464 684/492 696/253
f 301/37 302/56 314/29
f 734/465 776/444 742/444
f 1330/410 663/111 661/359
f 1085/197 494/77 496/436
f 907/468 908/94 1103/469
f 1290/473 383/485 384/357
f 562/475 412/472 411/458
f 1148/477 1082/160 1323/478
f 574/373 576/351 393/351
f 477/328 469/327 468/401
f 916/480 576/351 1151/481
f 471/395 472/316 479/442
f 919/164 430/282 433/298
f 435/308 421/5 920/482
f 1322/484 382/765 383/485
f 755/341 770/341 769/418
f 958/150 650/133 652/267
f 640/393 631/395 632/316
f 677/486 678/330 690/451
f 317/16 305/42 306/65
f 682/487 694/262 693/243
f 324/488 312/55 311/38
f 880/78 526/77 528/436
f 692/242 691/329 679/331
f 957/108 642/269 644/270
f 745/403 754/403 764/411
f 682/487 683/464 695/260
f 111/489 109/792 97/55
f 101/47 102/67 114/490
f 684/492 674/493 686/246
f 761/14 760/309 751/309
f 674/493 673/400 685/259
f 732/418 733/418 729/402
f 741/443 774/443 775/340
f 771/494 772/380 767/380
f 727/309 736/309 735/449
f 412/308 555/4 420/4
f 723/411 740/411 739/412
f 752/449 751/309 760/309
f 866/115 861/114 172/290
f 1081/496 230/286 232/287
f 1279/337 672/408 658/338
f 521/385 519/111 850/112
f 1254/416 1256/378 532/377
f 475/288 476/421 468/401
f 1308/498 1341/423 406/499
f 731/341 773/341 733/418
f 1134/197 1133/109 248/110
f 758/448 757/500 768/500
f 746/402 765/402 754/403
f 512/393 503/395 504/316
f 749/425 748/412 763/412
f 723/411 721/403 730/403
f 768/500 757/500 771/494
f 677/486 689/249 688/254
f 324/488 322/25 310/53
f 850/112 851/89 518/88
f 1159/501 777/372 784/371
f 1199/503 778/535 777/372
f 1161/504 783/381 782/505
f 1160/502 784/371 783/381
f 1064/507 1055/217 300/408
f 1058/508 1064/507 286/338
f 896/190 371/87 372/108
f 806/237 351/151 352/150
f 1131/200 1130/191 242/88
f 735/449 734/465 743/465
f 1227/407 1280/621 668/357
f 941/509 291/111 289/359
f 1132/193 1131/200 244/134
f 628/401 627/291 635/288
f 1071/200 616/134 618/133
f 640/393 633/91 625/394
f 882/157 887/78 1134/197
f 1079/231 967/87 883/89
f 283/168 816/157 889/108
f 982/207 934/189 1024/188
f 876/510 877/121 1334/156
f 295/264 942/788 820/389
f 643/107 844/87 846/89
f 950/511 829/771 1306/512
f 1214/122 878/124 879/120
f 285/113 299/168 940/388
f 992/129 843/78 839/157
f 1249/119 1258/513 825/120
f 369/112 370/89 968/191
f 461/167 862/398 861/114
f 963/434 864/435 167/437
f 1343/514 901/671 902/515
f 958/150 847/112 648/134
f 960/108 852/157 528/436
f 1188/190 961/87 860/108
f 1363/517 953/524 831/518
f 1166/520 1167/743 933/521
f 1201/192 983/180 935/182
f 1219/523 1273/699 953/524
f 949/123 830/665 1307/526
f 782/505 939/379 817/347
f 1101/318 885/150 886/151
f 1165/138 1166/520 932/522
f 17/436 813/210 808/197
f 1257/122 826/124 825/120
f 990/204 1004/158 854/157
f 1156/527 1199/693 981/528
f 647/111 645/359 846/89
f 1141/530 1139/770 1261/531
f 860/108 854/157 1084/210
f 967/87 881/108 1127/266
f 822/320 823/320 427/166
f 1311/519 831/518 832/533
f 778/535 942/293 819/292
f 355/87 356/108 937/266
f 978/186 1197/620 1148/477
f 1171/536 1032/584 1296/537
f 1170/209 935/182 934/189
f 1230/538 943/667 1087/539
f 906/466 404/152 397/311
f 424/305 425/304 438/22
f 281/167 815/78 816/157
f 269/113 889/108 888/87
f 545/461 416/463 1031/542
f 1031/542 945/545 545/461
f 1076/558 1044/572 393/467
f 1044/572 1221/547 393/467
f 838/108 839/157 1069/210
f 1278/551 437/20 428/102
f 388/483 920/482 979/343
f 1118/553 909/103 1220/554
f 821/296 547/599 1310/598
f 1310/598 1053/540 821/296
f 18/269 894/266 895/210
f 1095/556 978/186 911/479
f 243/111 241/359 1107/396
f 1187/138 1037/520 868/522
f 651/264 848/76 824/78
f 973/99 972/655 1076/558
f 34/739 38/684 989/561
f 38/684 800/559 989/561
f 1027/562 928/609 929/563
f 1143/564 1144/763 1265/565
f 1300/567 1041/555 1196/568
f 1269/569 1150/793 1152/570
f 35/739 39/684 1198/561
f 39/684 798/559 1198/561
f 1301/573 972/655 904/132
f 904/132 1097/721 1044/572
f 1113/214 1112/650 1249/119
f 614/88 1185/191 1070/190
f 1037/520 1128/743 964/521
f 792/290 791/432 1166/520
f 1299/574 1353/354 1168/575
f 793/577 1008/593 1202/578
f 780/348 779/447 1156/527
f 1194/581 1034/100 974/582
f 922/12 709/403 720/418
f 720/418 718/726 921/13
f 456/280 1106/188 1108/181
f 22/88 968/191 896/190
f 1230/538 1053/540 1032/584
f 491/149 489/385 1003/318
f 1261/531 1139/770 1051/586
f 487/111 1002/557 1003/318
f 1182/588 1142/764 1263/589
f 1203/591 1006/651 984/592
f 986/579 1202/578 987/594
f 983/180 936/137 1028/212
f 1097/721 1051/586 905/153
f 1051/586 1308/498 905/153
f 955/151 842/150 1072/193
f 1196/568 1041/555 431/321
f 1041/555 1220/554 431/321
f 970/546 971/710 414/460
f 1350/601 917/746 913/148
f 1126/396 954/89 841/112
f 1312/534 832/533 837/602
f 840/87 838/108 1068/266
f 293/385 291/111 941/509
f 1248/203 966/771 875/511
f 1207/604 1209/663 834/605
f 656/436 845/157 824/78
f 1164/607 1155/580 924/215
f 1101/318 1105/557 884/112
f 993/318 995/557 841/112
f 1023/127 927/126 928/609
f 460/287 1189/497 1104/496
f 2/269 937/266 802/210
f 1191/225 1120/624 1253/610
f 485/359 1153/396 1002/557
f 33/739 37/684 1036/561
f 37/684 797/559 1036/561
f 1270/571 1152/570 1149/612
f 782/505 781/349 1164/607
f 352/150 353/112 804/200
f 36/739 40/684 986/561
f 40/684 799/559 986/561
f 800/559 985/84 797/614
f 29/270 938/190 814/266
f 485/359 483/107 1075/231
f 1232/615 1056/738 1065/616
f 1318/603 837/602 836/618
f 454/279 1108/181 1109/213
f 19/77 808/197 809/109
f 275/111 891/112 892/150
f 551/457 399/456 409/345
f 273/359 890/89 891/112
f 915/178 1151/481 1197/620
f 1002/557 858/112 857/150
f 523/264 849/76 880/78
f 956/548 576/351 572/312
f 621/167 992/129 994/158
f 377/150 376/112 811/200
f 491/264 1001/128 1154/129
f 1190/184 1117/758 1252/621
f 1275/622 1173/666 1183/623
f 481/113 495/168 1004/158
f 1226/611 1049/225 1048/624
f 1081/496 1024/188 228/280
f 617/385 615/111 995/557
f 1007/625 795/755 988/626
f 984/592 1007/625 1204/627
f 271/107 888/87 890/89
f 353/112 354/89 803/191
f 292/629 1023/127 1027/562
f 279/264 893/76 815/78
f 786/413 1201/192 1170/209
f 1238/617 1065/616 1062/630
f 354/89 355/87 801/190
f 1283/632 1184/696 1054/633
f 980/48 705/730 703/635
f 703/635 701/733 923/49
f 928/609 1161/504 1163/506
f 458/286 1104/496 1106/188
f 559/636 1175/681 1174/637
f 927/126 1160/502 1161/504
f 930/608 924/215 1055/217
f 1286/639 1287/674 996/640
f 886/76 1133/109 1134/197
f 619/264 1030/128 992/129
f 20/270 896/190 894/266
f 1242/642 948/760 947/643
f 1163/506 1164/607 930/608
f 1229/645 1217/644 947/643
f 985/84 798/83 39/647
f 484/270 1188/190 1092/266
f 166/413 165/495 1014/289
f 1359/183 1180/185 1046/648
f 1338/649 1125/724 1112/650
f 989/561 796/560 1006/651
f 1242/642 1078/766 1009/652
f 1340/335 1327/334 1098/654
f 1194/581 1193/657 972/655
f 375/89 374/87 938/190
f 376/112 375/89 812/191
f 1266/656 1145/754 1193/657
f 1322/484 1078/766 1035/659
f 378/151 377/150 810/193
f 1204/627 988/626 35/661
f 1209/663 1219/523 833/525
f 1108/181 871/182 872/180
f 513/113 960/108 853/87
f 962/405 863/406 169/430
f 1106/188 870/189 871/182
f 1014/289 1187/138 867/139
f 1260/229 1247/228 965/665
f 1135/192 1014/289 873/137
f 1306/512 829/771 828/510
f 1105/557 1107/396 883/89
f 1275/622 570/638 1174/637
f 12/267 806/237 805/193
f 1091/669 1087/539 943/667
f 943/667 944/676 1244/668
f 1361/670 951/719 901/671
f 222/438 1028/212 1018/220
f 979/343 1042/342 1095/556
f 1008/593 984/592 1005/628
f 1087/539 1091/669 1324/672
f 1328/409 1099/201 1012/673
f 165/495 172/290 1187/138
f 1287/674 1289/749 1000/675
f 841/112 1071/200 1072/193
f 944/676 943/667 1355/706
f 1355/706 1173/666 944/676
f 366/78 367/76 899/109
f 523/149 521/385 959/150
f 1001/128 856/76 855/78
f 367/151 368/150 898/193
f 32/436 895/210 900/197
f 1365/512 966/771 876/510
f 368/150 369/112 897/200
f 902/677 903/131 1345/678
f 1244/668 944/676 1063/541
f 1241/680 950/747 830/665
f 1175/681 945/545 944/676
f 784/371 941/509 818/382
f 1206/682 1207/604 835/606
f 31/269 814/266 813/210
f 38/684 799/82 985/84
f 1309/685 1052/748 1096/686
f 1326/334 1321/397 1073/688
f 1202/578 1005/628 794/689
f 1356/690 1357/744 1178/691
f 779/447 778/446 1199/693
f 841/112 954/89 1185/191
f 925/529 981/528 1115/694
f 1313/695 1363/517 1184/696
f 1303/218 1046/648 1045/198
f 954/89 1126/396 999/231
f 999/231 998/204 838/108
f 932/522 933/521 1026/698
f 1273/699 1168/575 1066/700
f 1331/183 1114/185 1122/648
f 1247/228 1098/654 1012/688
f 931/139 932/522 1019/238
f 1239/701 1066/700 1067/702
f 1314/703 1313/695 1057/697
f 1208/234 997/233 991/704
f 1001/230 1003/318 857/150
f 1155/580 1156/527 925/529
f 517/359 515/107 853/87
f 864/435 865/433 166/413
f 1030/128 955/76 843/78
f 1104/496 869/207 870/189
f 1260/229 874/123 878/124
f 1153/396 1075/231 961/87
f 1189/497 964/117 869/207
f 449/113 866/115 865/433
f 642/269 957/108 845/157
f 1153/396 859/89 858/112
f 1355/706 943/667 952/707
f 560/709 969/711 971/710
f 969/711 560/709 411/458
f 1175/681 559/636 970/546
f 856/151 857/150 1088/193
f 238/269 1127/266 1129/210
f 929/563 930/608 1064/507
f 1334/156 1336/219 1123/198
f 981/713 1199/503 1159/501
f 564/583 565/658 1193/657
f 1193/657 1145/754 972/655
f 1145/754 1346/130 972/655
f 563/714 564/583 974/582
f 907/468 393/467 557/391
f 975/600 554/470 412/472
f 1096/686 1052/748 977/97
f 1052/748 1229/645 977/97
f 1210/653 1009/652 1158/717
f 951/719 952/707 1216/585
f 443/11 442/33 912/549
f 1097/721 905/153 1221/547
f 1148/477 576/351 1082/160
f 576/351 912/549 1243/159
f 444/9 443/11 572/312
f 418/300 576/351 916/480
f 982/207 1081/496 1026/497
f 919/164 976/98 430/282
f 976/98 1195/716 430/282
f 855/78 1085/197 1084/210
f 290/417 1027/562 1058/508
f 1338/649 1337/725 1124/723
f 615/111 613/359 1126/396
f 1280/322 1181/226 1049/225
f 245/385 1101/318 1140/230
f 867/139 868/522 1102/238
f 885/150 884/112 1131/200
f 1180/185 1050/184 1227/407
f 1294/725 1017/723 1016/724
f 1043/544 1103/469 908/94
f 1120/624 1121/199 1254/416
f 711/411 709/403 922/12
f 16/436 802/210 807/197
f 716/449 714/14 921/13
f 698/736 697/50 923/49
f 707/728 705/730 980/48
f 907/468 556/390 908/94
f 556/390 554/470 1146/95
f 945/545 1031/542 1063/541
f 1129/210 1134/197 250/77
f 1360/737 1181/758 1050/184
f 883/89 1130/191 1131/200
f 1192/190 1127/266 238/269
f 421/5 1157/179 1116/187
f 781/349 780/348 1155/580
f 787/437 1170/209 1169/208
f 1231/634 1054/633 1056/738
f 1228/587 1051/586 1097/721
f 1005/628 1204/627 1198/662
f 34/739 989/561 1203/591
f 1182/588 1183/623 1362/708
f 239/107 1079/231 1107/396
f 1070/190 1068/266 610/269
f 1263/589 1142/764 1143/741
f 926/136 1159/501 1160/502
f 1300/567 977/97 946/646
f 946/646 1118/553 1041/555
f 1068/266 1069/210 624/436
f 171/432 170/786 1128/743
f 387/552 1095/556 1020/143
f 791/432 790/786 1167/743
f 1301/573 1044/572 1076/558
f 1083/213 1028/212 222/438
f 1358/140 1179/768 1178/691
f 172/290 171/432 1037/520
f 1186/237 1072/193 618/133
f 243/111 1105/557 1101/318
f 1350/601 1349/759 914/745
f 289/359 287/107 939/379
f 780/348 940/388 820/389
f 457/385 455/111 963/434
f 1127/266 881/108 882/157
f 954/89 840/87 1070/190
f 461/167 459/264 962/431
f 1364/526 965/665 875/747
f 976/98 977/97 1196/568
f 1309/685 1297/660 1035/659
f 1077/740 1203/591 1008/593
f 1028/212 936/137 931/139
f 416/463 821/296 1324/672
f 1324/672 1091/669 416/463
f 1289/749 1299/574 1040/576
f 1340/335 1137/227 1017/723
f 892/150 278/133 280/267
f 868/522 964/521 1189/698
f 1267/750 1147/753 1150/751
f 913/148 911/479 1323/478
f 1323/478 1082/160 913/148
f 495/168 493/167 1154/129
f 1048/624 1047/199 1224/416
f 1080/146 912/549 1149/612
f 912/549 442/33 1268/613
f 1020/143 911/479 1162/105
f 911/479 913/148 1272/106
f 1278/551 1179/768 1147/753
f 296/324 1115/135 1025/125
f 1265/565 1144/763 1145/754
f 247/264 1140/128 1138/129
f 294/323 1025/125 1023/127
f 1298/335 1038/227 1124/723
f 1293/649 1016/724 1013/650
f 789/430 1200/116 1167/118
f 1356/690 1177/692 1118/553
f 392/163 381/687 1096/686
f 1033/93 1146/95 554/470
f 1205/86 1036/85 795/755
f 1006/651 1205/86 1007/625
f 796/560 1039/3 1205/86
f 1274/720 1171/536 1021/756
f 951/719 1274/720 1215/194
f 531/107 1293/649 1292/445
f 671/168 1298/335 1337/725
f 566/757 1265/565 1266/656
f 437/20 1278/551 1267/750
f 1225/610 1224/416 662/417
f 440/314 439/26 1267/750
f 543/168 1340/335 1294/725
f 599/111 597/359 1299/574
f 381/687 382/765 1297/660
f 1190/184 1364/526 1332/737
f 1152/570 1150/793 1349/759
f 948/760 1358/140 1357/744
f 568/761 1263/589 1264/742
f 1361/670 1362/708 952/707
f 594/438 1231/634 1232/615
f 950/747 1360/737 1307/526
f 1253/610 1254/416 534/417
f 531/107 529/113 1294/725
f 1279/337 1227/407 670/358
f 1280/322 1226/611 666/323
f 657/113 1337/725 1338/649
f 1274/720 1216/585 1032/584
f 910/141 1210/653 1271/718
f 877/121 879/120 1336/219
f 1173/666 1355/706 1362/708
f 1137/227 1260/229 1214/122
f 837/602 1208/234 1206/705
f 834/605 833/525 1313/695
f 831/518 1239/701 1240/232
f 1247/228 1211/680 875/747
f 874/123 1331/183 1335/218
f 953/524 1273/699 1239/701
f 826/124 1303/218 1302/219
f 833/525 953/524 1363/517
f 946/646 947/643 1357/744
f 667/264 1321/397 1326/334
f 991/641 996/640 1207/604
f 1094/654 1073/688 1241/680
f 1344/679 1345/678 1144/763
f 1191/225 1365/512 1333/155
f 601/385 599/111 1289/749
f 537/385 1328/409 1291/441
f 1361/670 1343/514 1142/764
f 1049/225 1306/512 1305/155
f 1137/227 1098/654 1247/228
f 1000/675 1040/576 1219/523
f 543/168 541/167 1327/334
f 948/760 1242/642 1210/653
f 659/107 1338/649 1329/445
f 949/123 1359/183 1303/218
f 1052/748 1035/659 1217/644
f 1078/766 1242/642 1217/644
f 603/149 601/385 1287/674
f 596/356 1283/632 1231/634
f 606/240 1238/617 1237/631
f 666/323 1226/611 1225/610
f 570/638 1275/622 1282/597
f 542/358 1284/407 1252/621
f 1065/616 1318/603 1317/619
f 608/336 1232/615 1238/617
f 441/19 1270/571 1268/613
f 1285/611 1253/610 536/629
f 996/640 1000/675 1209/663
f 1099/201 1248/203 1211/211
f 1056/738 1312/534 1318/603
f 1152/570 1350/601 1348/147
f 1053/540 1310/598 1296/537
f 1281/590 1282/597 1183/623
f 1281/590 1263/589 568/761
f 904/132 903/131 1261/531
f 943/667 1230/538 1216/585
f 597/359 595/107 1353/354
f 1250/202 1249/119 827/121
f 440/18 1269/569 1270/571
f 1264/566 1265/565 566/757
f 1179/768 1278/551 1277/550
f 1177/692 1178/691 1277/550
f 1354/79 1296/537 547/599
f 1054/633 1311/519 1312/534
f 1262/532 1261/531 903/131
f 1125/724 1124/723 1257/122
f 1359/183 1307/526 1050/184
f 1040/576 1168/575 1273/699
f 1184/696 1363/517 1311/519
f 1142/764 1343/514 1344/516
f 1112/650 1125/724 1258/513
f 1017/723 1214/122 1213/513
f 1181/226 1360/224 1306/512
f 1333/155 1334/156 1121/199
f 1181/758 1280/621 1227/407
f 1051/586 1139/770 1341/423
f 1121/199 1123/198 1256/378
f 1180/185 1279/337 1223/339
f 1078/766 1322/484 1290/473
f 1009/652 1290/473 1351/474
f 1113/214 1330/410 1329/445
f 1339/410 1292/445 1013/650
f 1122/648 1255/339 1256/378
f 1073/673 1321/441 1325/409
f 1060/206 1158/205 1351/769
f 1099/201 1328/409 1339/410
f 1342/424 1341/423 1139/770
f 1045/198 1222/378 1224/416
f 1021/756 1295/81 1342/415
f 1325/409 1330/410 1113/214
f 1114/185 1190/184 1284/407
f 1327/334 1291/397 1012/688
f 1046/648 1223/339 1222/378
f 1057/697 1184/696 1283/632
f 1168/575 1353/354 1319/283
f 1067/702 1320/284 1288/263
f 1061/222 1059/236 1234/278
f 1114/185 1251/337 1255/339
f 1298/335 1326/334 1094/654
f 1060/206 1315/325 1352/144
f 1117/226 1191/225 1285/611
f 1062/223 1061/222 1236/353
f 1066/700 1319/283 1320/284
f 1059/236 1057/697 1233/355
f 997/233 1288/263 1286/265
f 966/771 1248/203 1259/202
f 835/606 834/605 1314/703
f 832/533 1240/232 1208/234
f 1218/229 1246/228 830/665
f 966/771 1365/512 1332/224
f 836/683 835/606 1316/235
f 878/124 1335/218 1336/219
f 1259/202 1212/119 877/121
f 1241/211 1245/203 829/771
f 917/746 914/745 1271/772
f 829/771 1245/203 1250/202
f 827/121 825/120 1302/219
f 901/671 1215/194 1262/196
f 874/123 965/665 1364/526
f 1147/753 1347/142 1349/162
f 1048/624 1305/155 1304/156
f 1179/768 1358/140 1347/142
f 1145/754 1144/763 1345/678
f 1038/227 1218/229 1257/122
f 1013/650 1016/724 1213/513
f 917/746 1235/104 1272/106
f 1171/536 1354/79 1295/81
