o Circle
v -0.3691 0.0376 -0.2394
v -0.6394 0.0376 0.0309
v -0.7383 0.0376 0.4
v -0.6394 0.0376 0.7691
v -0.3691 0.0376 1.0394
v 0 0.0376 1.1383
v 0.3691 0.0376 1.0394
v 0.6394 0.0376 0.7691
v 0.7383 0.0376 0.4
v 0.6394 0.0376 0.0309
v 0.3691 0.0376 -0.2394
v 0 0.0376 -0.3383
v -1.3615 2.9112 -0.386
v -0.786 2.9112 -0.9615
v -1.5721 2.9112 0.4
v -1.3615 2.9112 1.186
v -0.786 2.9112 1.7615
v 0 2.9112 1.9721
v 0.786 2.9112 1.7615
v 1.3615 2.9112 1.186
v 1.5721 2.9112 0.4
v 1.3615 2.9112 -0.386
v 0.786 2.9112 -0.9615
v 0 2.9112 -1.1721
v -2.6065 14.9411 -1.1048
v -1.225 9.4202 -1.7217
v -2.45 9.4202 0.4
v -2.6065 14.9411 1.9048
v -1.225 9.4202 2.5217
v -0 14.9411 3.4097
v 1.225 9.4202 2.5217
v 2.6065 14.9411 1.9048
v 2.45 9.4202 0.4
v 2.6065 14.9411 -1.1048
v 1.225 9.4202 -1.7217
v 0 14.9411 -2.6097
v -0.3888 -0.1749 0.1755
v -0.2245 -0.1749 0.0112
v -0.449 -0.1749 0.4
v -0.3888 -0.1749 0.6245
v -0.2245 -0.1749 0.7888
v 0 -0.1749 0.849
v 0.2245 -0.1749 0.7888
v 0.3888 -0.1749 0.6245
v 0.449 -0.1749 0.4
v 0.3888 -0.1749 0.1755
v 0.2245 -0.1749 0.0112
v 0 -0.1749 -0.049
v -1.9057 6.1657 0.793
v -1.984 8.9261 1.5454
v -2.5282 12.1806 1.1524
v 0 1.4744 1.5552
v -0.5776 1.4744 -0.6004
v -1.1552 1.4744 0.4
v 1.0004 1.4744 -0.1776
v 0.5776 1.4744 1.4004
v -1.0004 1.4744 0.9776
v 0.5776 1.4744 -0.6004
v 1.0004 1.4744 0.9776
v -0.5776 1.4744 1.4004
v 0 1.4744 -0.7552
v -1.0004 1.4744 -0.1776
v 1.1552 1.4744 0.4
v 1.2932 6.1657 -1.0539
v 1.0055 6.1657 -1.3416
v 1.2932 6.1657 1.8539
v 1.984 8.9261 1.5454
v 1.9157 12.1806 2.2133
v -1.2932 6.1657 1.8539
v -1.0055 6.1657 2.1416
v 0.6125 6.1657 -1.4469
v 0 8.9261 -1.8909
v 0.6125 12.1806 -2.1657
v -1.2932 6.1657 -1.0539
v -1.984 8.9261 -0.7454
v -1.9157 12.1806 -1.4133
v 1.9057 6.1657 0.793
v 2.011 6.1657 0.4
v -0.6125 6.1657 2.2469
v -0 8.9261 2.6909
v -0.6125 12.1806 2.9657
v -0.6125 6.1657 -1.4469
v -1.0055 6.1657 -1.3416
v -1.9057 6.1657 0.007
v -2.011 6.1657 0.4
v 1.9057 6.1657 0.007
v 1.984 8.9261 -0.7454
v 2.5282 12.1806 -0.3524
v 0.6125 6.1657 2.2469
v 1.0055 6.1657 2.1416
v 1.9157 12.1806 -1.4133
v -1.9157 12.1806 2.2133
v 2.5282 12.1806 1.1524
v -0.6125 12.1806 -2.1657
v -2.5282 12.1806 -0.3524
v 0.6125 12.1806 2.9657
v -1.6727 5.9186 1.3657
v -2.1778 7.7929 0.5965
v -2.2952 11.9336 1.7251
v -2.5673 13.5609 1.5286
v 1.6727 5.9186 1.3657
v -0.8958 4.5384 1.9515
v -1.3273 4.5384 1.52
v 0.8958 4.5384 -1.1515
v 1.3273 4.5384 1.52
v 0.3062 4.5384 -1.3095
v 0.9187 10.8004 -1.9437
v 1.5703 10.8004 2.3675
v 0 5.9186 -1.5315
v 1.3273 4.5384 -0.72
v 1.2591 7.7929 -1.3878
v 1.1152 7.7929 -1.5317
v 1.2591 7.7929 2.1878
v 2.2952 11.9336 1.7251
v 2.2611 13.5609 2.0591
v -1.2591 7.7929 2.1878
v -1.1152 7.7929 2.3317
v 0.9187 7.7929 -1.5843
v 0 11.9336 -2.2503
v 0.3062 13.5609 -2.3877
v -1.2591 7.7929 -1.3878
v -2.2952 11.9336 -0.9251
v -1.5704 10.8004 -1.5675
v 2.1778 7.7929 0.5965
v 2.2305 7.7929 0.4
v -0.9187 7.7929 2.3843
v -0 11.9336 3.0503
v -0.3062 13.5609 3.1877
v -0.9187 7.7929 -1.5843
v -1.1152 7.7929 -1.5317
v -2.1778 7.7929 0.2035
v -2.2305 7.7929 0.4
v 2.1778 7.7929 0.2035
v 2.2952 11.9336 -0.9251
v 2.5673 13.5609 -0.7286
v 0.9187 7.7929 2.3843
v 1.1152 7.7929 2.3317
v -1.6336 4.5384 0.9895
v -2.4891 10.8004 0.7762
v 1.5703 10.8004 -1.5675
v -1.5704 10.8004 2.3675
v 2.4891 10.8004 0.7762
v -0.3062 13.5609 -2.3877
v -2.4891 10.8004 0.0238
v 0.9187 10.8004 2.7437
v -1.3273 4.5384 -0.72
v -1.6727 5.9186 -0.5657
v -2.2611 13.5609 -1.2591
v 1.6336 4.5384 0.9895
v 1.7915 4.5384 0.4
v -0.3062 4.5384 2.1095
v -0 5.9186 2.3315
v -0.9187 10.8004 2.7437
v -0.3062 4.5384 -1.3095
v -0.8958 4.5384 -1.1515
v -1.6336 4.5384 -0.1895
v -1.7915 4.5384 0.4
v 1.6336 4.5384 -0.1895
v 1.6727 5.9186 -0.5657
v 2.4891 10.8004 0.0238
v 0.3062 4.5384 2.1095
v 0.8958 4.5384 1.9515
v 2.2611 13.5609 -1.2591
v -2.2611 13.5609 2.0591
v 2.5673 13.5609 1.5286
v -0.9187 10.8004 -1.9437
v -2.5673 13.5609 -0.7286
v 0.3062 13.5609 3.1877
v 0.6125 9.1732 2.6063
v 0.3062 10.5534 2.8283
v 0.3062 7.5459 2.4689
v -2.217 9.1732 -0.1727
v -2.2561 10.5534 -0.5489
v -1.9448 7.5459 -0.3692
v -0.6125 9.1732 -1.8063
v -0.3062 10.5534 -2.0283
v -0.3062 7.5459 -1.6689
v 2.217 9.1732 0.9727
v 2.2561 10.5534 1.3489
v 1.9448 7.5459 1.1692
v -1.6045 9.1732 2.0336
v -1.9498 10.5534 1.8794
v -1.6386 7.5459 1.6997
v 1.6045 9.1732 -1.2336
v 1.9498 10.5534 -1.0794
v 1.6386 7.5459 -0.8997
v 2.217 9.1732 -0.1727
v 1.9448 7.5459 -0.3692
v 2.2561 10.5534 -0.5489
v -0.6125 9.1732 2.6063
v -0.3062 7.5459 2.4689
v -0.3062 10.5534 2.8283
v -1.6045 9.1732 -1.2336
v -1.6386 7.5459 -0.8997
v -1.9498 10.5534 -1.0794
v 0.6125 9.1732 -1.8063
v 0.3062 7.5459 -1.6689
v 0.3062 10.5534 -2.0283
v 1.6045 9.1732 2.0336
v 1.6386 7.5459 1.6997
v 1.9498 10.5534 1.8794
v -2.217 9.1732 0.9727
v -1.9448 7.5459 1.1692
v -2.2561 10.5534 1.3489
v -1.8283 7.4224 1.4556
v -2.3139 8.6066 0.4983
v -2.4508 13.4373 1.815
v 1.8283 7.4224 1.4556
v -0.9506 5.352 2.0466
v -1.3103 5.352 1.6869
v 0.9506 5.352 -1.2466
v 1.3103 5.352 1.6869
v 0.4594 5.352 -1.3782
v 0 7.4224 -1.7112
v 1.3103 5.352 -0.8869
v 1.242 8.6066 -1.5548
v 1.1701 8.6066 -1.6267
v 1.242 8.6066 2.3548
v 2.4508 13.4373 1.815
v -1.242 8.6066 2.3548
v -1.1701 8.6066 2.4267
v 1.0719 8.6066 -1.653
v 0 13.4373 -2.43
v -1.242 8.6066 -1.5548
v -2.4508 13.4373 -1.015
v 2.3139 8.6066 0.4983
v 2.3402 8.6066 0.4
v -1.0719 8.6066 2.453
v -0 13.4373 3.23
v -1.0719 8.6066 -1.653
v -1.1701 8.6066 -1.6267
v -2.3139 8.6066 0.3017
v -2.3402 8.6066 0.4
v 2.3139 8.6066 0.3017
v 2.4508 13.4373 -1.015
v 1.0719 8.6066 2.453
v 1.1701 8.6066 2.4267
v -1.7696 5.352 0.8913
v -1.3103 5.352 -0.8869
v -1.8283 7.4224 -0.6556
v 1.7696 5.352 0.8913
v 1.9013 5.352 0.4
v -0.4594 5.352 2.1782
v -0 7.4224 2.5112
v -0.4594 5.352 -1.3782
v -0.9506 5.352 -1.2466
v -1.7696 5.352 -0.0913
v -1.9013 5.352 0.4
v 1.7696 5.352 -0.0913
v 1.8283 7.4224 -0.6556
v 0.4594 5.352 2.1782
v 0.9506 5.352 2.0466
v 0.6125 7.6694 2.4266
v 0.1531 9.7397 2.7596
v -2.0613 7.6694 -0.0829
v -2.12 9.7397 -0.6472
v -0.6125 7.6694 -1.6266
v -0.1531 9.7397 -1.9596
v 2.0613 7.6694 0.8829
v 2.12 9.7397 1.4472
v -1.4488 7.6694 1.9437
v -1.9669 9.7397 1.7124
v 1.4488 7.6694 -1.1437
v 1.9669 9.7397 -0.9124
v 2.3726 10.6769 -0.2626
v 2.12 9.7397 -0.6472
v -0.6125 10.6769 2.786
v -0.1531 9.7397 2.7596
v -1.7601 10.6769 -1.3234
v -1.9669 9.7397 -0.9124
v 0.6125 10.6769 -1.986
v 0.1531 9.7397 -1.9596
v 1.7601 10.6769 2.1234
v 1.9669 9.7397 1.7124
v -2.3726 10.6769 1.0626
v -2.12 9.7397 1.4472
v -1.5171 4.4149 1.2759
v -2.0418 6.9793 0.6948
v -2.1396 10.4299 1.6353
v 1.5171 4.4149 1.2759
v -0.8409 3.7248 1.8565
v -1.3444 3.7248 1.353
v 0.8409 3.7248 -1.0565
v 1.3444 3.7248 1.353
v 0.1531 3.7248 -1.2408
v 0 4.4149 -1.3518
v 1.3444 3.7248 -0.553
v 1.2762 6.9793 -1.2208
v 1.0604 6.9793 -1.4366
v 1.2762 6.9793 2.0208
v 2.1396 10.4299 1.6353
v -1.2762 6.9793 2.0208
v -1.0604 6.9793 2.2366
v 0.7656 6.9793 -1.5156
v 0 10.4299 -2.0706
v -1.2762 6.9793 -1.2208
v -2.1396 10.4299 -0.8353
v 2.0418 6.9793 0.6948
v 2.1208 6.9793 0.4
v -0.7656 6.9793 2.3156
v -0 10.4299 2.8706
v -0.7656 6.9793 -1.5156
v -1.0604 6.9793 -1.4366
v -2.0418 6.9793 0.1052
v -2.1208 6.9793 0.4
v 2.0418 6.9793 0.1052
v 2.1396 10.4299 -0.8353
v 0.7656 6.9793 2.3156
v 1.0604 6.9793 2.2366
v -1.4975 3.7248 1.0878
v -1.3444 3.7248 -0.553
v -1.5171 4.4149 -0.4759
v 1.4975 3.7248 1.0878
v 1.6818 3.7248 0.4
v -0.1531 3.7248 2.0408
v -0 4.4149 2.1518
v -0.1531 3.7248 -1.2408
v -0.8409 3.7248 -1.0565
v -1.4975 3.7248 -0.2878
v -1.6818 3.7248 0.4
v 1.4975 3.7248 -0.2878
v 1.5171 4.4149 -0.4759
v 0.1531 3.7248 2.0408
v 0.8409 3.7248 1.8565
v 0.6125 10.6769 2.786
v 0.4594 11.367 2.897
v -2.3726 10.6769 -0.2626
v -2.3921 11.367 -0.4507
v -0.6125 10.6769 -1.986
v -0.4594 11.367 -2.097
v 2.3726 10.6769 1.0626
v 2.3921 11.367 1.2507
v -1.7601 10.6769 2.1234
v -1.9328 11.367 2.0463
v 1.7601 10.6769 -1.3234
v 1.9328 11.367 -1.2463
v 2.0613 7.6694 -0.0829
v 2.3921 11.367 -0.4507
v -0.6125 7.6694 2.4266
v -0.4594 11.367 2.897
v -1.4488 7.6694 -1.1437
v -1.9328 11.367 -1.2463
v 0.6125 7.6694 -1.6266
v 0.4594 11.367 -2.097
v 1.4488 7.6694 1.9437
v 1.9328 11.367 2.0463
v -2.0613 7.6694 0.8829
v -2.3921 11.367 1.2507
v -2.4117 12.0571 1.4388
v -2.4313 12.7472 1.6269
v -2.0809 8.3595 1.071
v -2.1005 9.0496 1.2591
v -2.3335 9.2967 0.6864
v -2.353 9.9868 0.8745
v 2.1055 12.0571 1.9692
v 2.2782 12.7472 1.8921
v 1.6215 8.3595 1.8666
v 1.7942 9.0496 1.7895
v 1.4147 9.2967 2.2777
v 1.5874 9.9868 2.2005
v 0.3062 12.0571 -2.208
v 0.1531 12.7472 -2.319
v 0.4594 8.3595 -1.7376
v 0.3062 9.0496 -1.8486
v 0.9187 9.2967 -1.764
v 0.7656 9.9868 -1.875
v -2.1055 12.0571 -1.1692
v -2.2782 12.7472 -1.0921
v -1.6215 8.3595 -1.0666
v -1.7942 9.0496 -0.9895
v -1.4147 9.2967 -1.4777
v -1.5874 9.9868 -1.4005
v -0.3062 12.0571 3.008
v -0.1531 12.7472 3.119
v -0.4594 8.3595 2.5376
v -0.3062 9.0496 2.6486
v -0.9187 9.2967 2.564
v -0.7656 9.9868 2.675
v 2.4117 12.0571 -0.6388
v 2.4313 12.7472 -0.8269
v 2.0809 8.3595 -0.271
v 2.1005 9.0496 -0.4591
v 2.3335 9.2967 0.1136
v 2.353 9.9868 -0.0745
v -0.4594 8.3595 -1.7376
v -0.3062 9.0496 -1.8486
v 2.0809 8.3595 1.071
v 2.1005 9.0496 1.2591
v -2.0809 8.3595 -0.271
v -2.1005 9.0496 -0.4591
v -2.3335 9.2967 0.1136
v -2.353 9.9868 -0.0745
v 0.3062 6.0422 2.2892
v 0.1531 6.7323 2.4002
v -0.3062 6.0422 -1.4892
v -0.1531 6.7323 -1.6002
v 2.3335 9.2967 0.6864
v 2.353 9.9868 0.8745
v -0.9187 9.2967 -1.764
v -0.7656 9.9868 -1.875
v -1.7892 6.0422 -0.2794
v -1.8088 6.7323 -0.4675
v 0.9187 9.2967 2.564
v 0.7656 9.9868 2.675
v 0.3062 12.0571 3.008
v 0.1531 12.7472 3.119
v -2.4117 12.0571 -0.6388
v -2.4313 12.7472 -0.8269
v -0.3062 12.0571 -2.208
v -0.1531 12.7472 -2.319
v 2.4117 12.0571 1.4388
v 2.4313 12.7472 1.6269
v -2.1055 12.0571 1.9692
v -2.2782 12.7472 1.8921
v 2.1055 12.0571 -1.1692
v 2.2782 12.7472 -1.0921
v 1.7892 6.0422 1.0794
v 1.8088 6.7323 1.2675
v 1.483 6.0422 -0.8098
v 1.6556 6.7323 -0.7327
v -1.6215 8.3595 1.8666
v -1.7942 9.0496 1.7895
v -1.4147 9.2967 2.2777
v -1.5874 9.9868 2.2005
v 1.4147 9.2967 -1.4777
v 1.5874 9.9868 -1.4005
v 1.6215 8.3595 -1.0666
v 1.7942 9.0496 -0.9895
v -1.483 6.0422 1.6098
v -1.6556 6.7323 1.5327
v 0.4594 8.3595 2.5376
v 0.3062 9.0496 2.6486
v 1.7892 6.0422 -0.2794
v 1.8088 6.7323 -0.4675
v -0.3062 6.0422 2.2892
v -0.1531 6.7323 2.4002
v -1.483 6.0422 -0.8098
v -1.6556 6.7323 -0.7327
v 0.3062 6.0422 -1.4892
v 0.1531 6.7323 -1.6002
v 1.483 6.0422 1.6098
v 1.6556 6.7323 1.5327
v -1.7892 6.0422 1.0794
v -1.8088 6.7323 1.2675
v -1.9061 8.1742 1.5005
v -2.5287 14.1892 1.8599
v 1.9061 8.1742 1.5005
v 0 8.1742 -1.801
v 2.5286 14.1892 1.8599
v 0 14.1892 -2.5198
v -2.5287 14.1892 -1.0599
v -0 14.1892 3.3198
v 2.5286 14.1892 -1.0599
v -1.9061 8.1742 -0.7005
v -0 8.1742 2.601
v 1.9061 8.1742 -0.7005
v 0.6125 6.9175 2.3367
v -1.9835 6.9175 -0.0379
v -0.6125 6.9175 -1.5368
v 1.9835 6.9175 0.8379
v -1.371 6.9175 1.8988
v 1.371 6.9175 -1.0988
v 2.4504 11.4288 -0.3075
v -0.6125 11.4288 2.8759
v -1.8379 11.4288 -1.3684
v 0.6125 11.4288 -2.0759
v 1.8379 11.4288 2.1684
v -2.4504 11.4288 1.1075
v -1.5949 5.1668 1.3208
v -2.2174 11.1817 1.6802
v 1.5949 5.1668 1.3208
v 0 5.1668 -1.4416
v 2.2174 11.1817 1.6802
v 0 11.1817 -2.1604
v -2.2174 11.1817 -0.8802
v -0 11.1817 2.9604
v 2.2174 11.1817 -0.8802
v -1.5949 5.1668 -0.5208
v -0 5.1668 2.2416
v 1.5949 5.1668 -0.5208
v 0.6125 9.925 2.6962
v -2.2948 9.925 -0.2176
v -0.6125 9.925 -1.8962
v 2.2948 9.925 1.0176
v -1.6823 9.925 2.0785
v 1.6823 9.925 -1.2785
v 2.1391 8.4213 -0.1278
v -0.6125 8.4213 2.5165
v -1.5267 8.4213 -1.1887
v 0.6125 8.4213 -1.7165
v 1.5267 8.4213 1.9887
v -2.1391 8.4213 0.9278
v -2.4895 12.809 1.4837
v -2.0226 8.2978 1.2142
v -2.4113 10.0485 0.7313
v 2.1833 12.809 2.0141
v 1.7164 8.2978 1.7446
v 1.4925 10.0485 2.3226
v 0.3062 12.809 -2.2978
v 0.3062 8.2978 -1.7587
v 0.9187 10.0485 -1.8539
v -2.1833 12.809 -1.2141
v -1.7164 8.2978 -0.9446
v -1.4925 10.0485 -1.5226
v -0.3062 12.809 3.0978
v -0.3062 8.2978 2.5587
v -0.9187 10.0485 2.6539
v 2.4895 12.809 -0.6837
v 2.0226 8.2978 -0.4142
v 2.4113 10.0485 0.0687
v -0.3062 9.8015 -1.9384
v 2.1783 9.8015 1.304
v -2.1783 9.8015 -0.504
v -2.2556 8.5448 0.1586
v 0.3062 5.2903 2.1993
v -0.3062 5.2903 -1.3993
v 2.2556 8.5448 0.6414
v -0.9187 8.5448 -1.6742
v -1.7114 5.2903 -0.2345
v 0.9187 8.5448 2.4742
v 0.3062 11.3052 2.9181
v -2.3339 11.3052 -0.5939
v -0.3062 11.3052 -2.1181
v 2.3339 11.3052 1.3939
v -2.0277 11.3052 1.9243
v 2.0277 11.3052 -1.1243
v 1.7114 5.2903 1.0345
v 1.4051 5.2903 -0.7649
v -1.872 9.8015 1.8344
v -1.3369 8.5448 2.2327
v 1.3369 8.5448 -1.4327
v 1.872 9.8015 -1.0344
v -1.4051 5.2903 1.5649
v 0.3062 9.8015 2.7384
v 1.867 6.794 -0.3243
v -0.3062 6.794 2.379
v -1.5608 6.794 -0.8547
v 0.3062 6.794 -1.579
v 1.5608 6.794 1.6547
v -1.867 6.794 1.1243
v -1.7505 6.6705 1.4107
v -2.373 12.6855 1.7701
v 1.7505 6.6705 1.4107
v 0 6.6705 -1.6213
v 2.373 12.6855 1.7701
v 0 12.6855 -2.3401
v -2.373 12.6855 -0.9701
v -0 12.6855 3.1401
v 2.373 12.6855 -0.9701
v -1.7505 6.6705 -0.6107
v -0 6.6705 2.4213
v 1.7505 6.6705 -0.6107
v 0.6125 8.4213 2.5165
v -2.1391 8.4213 -0.1278
v -0.6125 8.4213 -1.7165
v 2.1391 8.4213 0.9278
v -1.5267 8.4213 1.9887
v 1.5267 8.4213 -1.1887
v 2.2948 9.925 -0.2176
v -0.6125 9.925 2.6962
v -1.6823 9.925 -1.2785
v 0.6125 9.925 -1.8962
v 1.6823 9.925 2.0785
v -2.2948 9.925 1.0176
v -1.4393 3.663 1.231
v -2.0618 9.678 1.5904
v 1.4393 3.663 1.231
v 0 3.663 -1.2619
v 2.0618 9.678 1.5904
v 0 9.678 -1.9807
v -2.0618 9.678 -0.7904
v -0 9.678 2.7807
v 2.0618 9.678 -0.7904
v -1.4393 3.663 -0.431
v -0 3.663 2.0619
v 1.4393 3.663 -0.431
v 0.6125 11.4288 2.8759
v -2.4504 11.4288 -0.3075
v -0.6125 11.4288 -2.0759
v 2.4504 11.4288 1.1075
v -1.8379 11.4288 2.1684
v 1.8379 11.4288 -1.3684
v 1.9835 6.9175 -0.0379
v -0.6125 6.9175 2.3367
v -1.371 6.9175 -1.0988
v 0.6125 6.9175 -1.5368
v 1.371 6.9175 1.8988
v -1.9835 6.9175 0.8379
v -2.3339 11.3052 1.3939
v -2.1783 9.8015 1.304
v -2.2556 8.5448 0.6414
v 2.0277 11.3052 1.9243
v 1.872 9.8015 1.8344
v 1.3369 8.5448 2.2327
v 0.3062 11.3052 -2.1181
v 0.3062 9.8015 -1.9384
v 0.9187 8.5448 -1.6742
v -2.0277 11.3052 -1.1243
v -1.872 9.8015 -1.0344
v -1.3369 8.5448 -1.4327
v -0.3062 11.3052 2.9181
v -0.3062 9.8015 2.7384
v -0.9187 8.5448 2.4742
v 2.3339 11.3052 -0.5939
v 2.1783 9.8015 -0.504
v 2.2556 8.5448 0.1586
v -0.3062 8.2978 -1.7587
v 2.0226 8.2978 1.2142
v -2.0226 8.2978 -0.4142
v -2.4113 10.0485 0.0687
v 0.3062 6.794 2.379
v -0.3062 6.794 -1.579
v 2.4113 10.0485 0.7313
v -0.9187 10.0485 -1.8539
v -1.867 6.794 -0.3243
v 0.9187 10.0485 2.6539
v 0.3062 12.809 3.0978
v -2.4895 12.809 -0.6837
v -0.3062 12.809 -2.2978
v 2.4895 12.809 1.4837
v -2.1833 12.809 2.0141
v 2.1833 12.809 -1.2141
v 1.867 6.794 1.1243
v 1.5608 6.794 -0.8547
v -1.7164 8.2978 1.7446
v -1.4925 10.0485 2.3226
v 1.4925 10.0485 -1.5226
v 1.7164 8.2978 -0.9446
v -1.5608 6.794 1.6547
v 0.3062 8.2978 2.5587
v 1.7114 5.2903 -0.2345
v -0.3062 5.2903 2.1993
v -1.4051 5.2903 -0.7649
v 0.3062 5.2903 -1.3993
v 1.4051 5.2903 1.5649
v -1.7114 5.2903 1.0345
s 1
f 41 47 43
f 469 97 138
f 57 5 60
f 57 15 54
f 63 10 55
f 61 23 58
f 63 20 59
f 56 18 52
f 62 15 13
f 62 14 53
f 1 37 2
f 53 24 61
f 58 22 55
f 52 17 60
f 216 217 35
f 471 101 105
f 220 221 29
f 472 109 106
f 478 147 146
f 226 227 33
f 479 152 151
f 230 231 26
f 232 233 27
f 480 159 158
f 236 237 31
f 8 56 7
f 12 47 48
f 12 38 1
f 3 40 4
f 45 8 44
f 7 42 43
f 5 42 6
f 5 40 41
f 10 47 11
f 8 43 44
f 10 45 46
f 3 37 39
f 170 481 325
f 233 206 27
f 246 74 83
f 541 430 205
f 185 486 335
f 486 426 335
f 485 424 333
f 182 485 333
f 552 420 250
f 252 89 251
f 543 418 208
f 252 66 90
f 248 49 85
f 211 71 65
f 549 416 235
f 237 218 31
f 542 414 207
f 217 222 35
f 231 224 26
f 545 412 219
f 221 228 29
f 546 410 223
f 547 408 225
f 227 234 33
f 548 406 229
f 39 37 47
f 38 48 47
f 47 46 43
f 45 44 43
f 43 42 41
f 41 40 39
f 37 38 47
f 46 45 43
f 481 404 325
f 550 402 240
f 483 400 329
f 484 398 331
f 544 396 214
f 209 79 70
f 551 394 244
f 482 392 327
f 242 86 78
f 173 482 327
f 179 484 331
f 176 483 329
f 59 19 56
f 487 187 133
f 381 487 337
f 477 134 189
f 248 84 247
f 246 82 245
f 488 190 126
f 375 488 339
f 476 127 192
f 242 77 241
f 489 193 121
f 369 489 341
f 475 122 195
f 490 196 118
f 363 490 343
f 474 119 198
f 209 69 210
f 491 199 113
f 357 491 345
f 473 114 201
f 211 64 215
f 6 60 5
f 11 55 10
f 1 61 12
f 2 53 1
f 3 62 2
f 7 52 6
f 9 59 8
f 11 61 58
f 21 55 22
f 4 54 3
f 57 17 16
f 492 202 98
f 351 492 347
f 470 99 204
f 493 100 51
f 350 493 349
f 446 28 100
f 348 468 275
f 351 494 352
f 276 590 352
f 495 139 27
f 354 495 353
f 468 51 139
f 283 110 287
f 496 115 68
f 356 496 355
f 449 32 115
f 346 467 273
f 357 497 358
f 274 593 358
f 498 108 31
f 360 498 359
f 467 68 108
f 281 103 282
f 499 120 73
f 362 499 361
f 450 36 120
f 344 466 271
f 363 500 364
f 272 596 364
f 501 107 35
f 366 501 365
f 466 73 107
f 502 148 76
f 368 502 367
f 451 25 148
f 342 465 269
f 369 503 370
f 270 599 370
f 504 123 26
f 372 504 371
f 465 76 123
f 314 149 313
f 505 128 81
f 374 505 373
f 452 30 128
f 340 464 267
f 375 506 376
f 268 602 376
f 507 153 29
f 378 507 377
f 464 81 153
f 318 154 317
f 320 156 319
f 508 135 88
f 380 508 379
f 453 34 135
f 338 463 265
f 381 509 382
f 266 605 382
f 510 160 33
f 384 510 383
f 463 88 160
f 177 459 257
f 385 607 177
f 72 607 386
f 180 460 259
f 387 608 180
f 67 608 388
f 174 458 255
f 389 609 174
f 75 609 390
f 314 158 150
f 514 232 391
f 172 514 391
f 458 304 255
f 515 251 393
f 152 515 393
f 575 323 316
f 281 151 102
f 516 245 395
f 109 516 395
f 568 317 286
f 517 226 397
f 178 517 397
f 460 298 259
f 518 230 399
f 175 518 399
f 459 302 257
f 519 247 401
f 147 519 401
f 574 319 312
f 520 236 403
f 169 520 403
f 457 308 253
f 521 326 405
f 127 521 405
f 572 254 301
f 299 133 125
f 522 328 407
f 122 522 407
f 571 256 297
f 523 330 409
f 119 523 409
f 570 258 295
f 293 126 117
f 524 332 411
f 114 524 411
f 569 260 291
f 303 121 130
f 289 118 112
f 525 334 413
f 99 525 413
f 566 262 279
f 309 113 137
f 526 336 415
f 134 526 415
f 573 264 307
f 283 106 104
f 320 138 157
f 324 105 162
f 527 241 417
f 101 527 417
f 567 313 280
f 324 161 323
f 528 215 419
f 159 528 419
f 576 287 322
f 183 461 261
f 421 625 183
f 50 625 422
f 530 220 423
f 181 530 423
f 461 292 261
f 531 216 425
f 184 531 425
f 462 288 263
f 186 462 263
f 427 628 186
f 87 628 428
f 533 210 429
f 97 533 429
f 565 282 277
f 318 146 155
f 305 98 132
f 171 457 253
f 431 630 171
f 80 630 432
f 309 136 308
f 535 188 86
f 434 535 433
f 456 87 188
f 305 131 304
f 303 129 302
f 536 191 79
f 436 536 435
f 455 80 191
f 299 124 298
f 537 194 74
f 438 537 437
f 454 75 194
f 538 197 71
f 440 538 439
f 448 72 197
f 293 116 292
f 539 200 66
f 442 539 441
f 447 67 200
f 289 111 288
f 540 203 49
f 444 540 443
f 445 50 203
f 541 444 97
f 97 443 636
f 636 238 138
f 65 288 64
f 543 442 101
f 101 441 635
f 635 212 105
f 70 292 69
f 544 440 109
f 109 439 634
f 634 213 106
f 550 438 147
f 147 437 633
f 633 239 146
f 78 298 77
f 551 436 152
f 152 435 632
f 632 243 151
f 83 302 82
f 85 304 84
f 552 434 159
f 159 433 631
f 631 249 158
f 90 308 89
f 254 534 170
f 432 169 534
f 431 553 169
f 85 278 305
f 14 311 318
f 277 282 103
f 430 629 183
f 429 210 69
f 264 532 185
f 532 428 184
f 427 558 184
f 263 288 111
f 426 627 140
f 425 216 35
f 261 292 116
f 424 626 141
f 423 220 29
f 262 529 182
f 422 181 529
f 421 557 181
f 322 287 110
f 420 624 186
f 419 215 64
f 19 323 18
f 280 313 149
f 418 623 180
f 417 241 77
f 19 284 324
f 15 310 320
f 23 285 283
f 307 264 185
f 416 622 163
f 415 336 91
f 90 290 309
f 279 262 182
f 414 621 164
f 413 334 92
f 65 294 289
f 83 296 303
f 291 260 179
f 412 620 165
f 411 332 93
f 70 300 293
f 295 258 176
f 410 619 143
f 409 330 94
f 297 256 173
f 408 618 167
f 407 328 95
f 78 306 299
f 301 254 170
f 406 617 168
f 405 326 96
f 253 308 136
f 404 616 145
f 403 236 31
f 312 319 156
f 402 615 174
f 401 247 84
f 257 302 129
f 400 614 166
f 399 230 26
f 259 298 124
f 398 613 142
f 397 226 33
f 286 317 154
f 396 612 177
f 395 245 82
f 17 315 281
f 316 323 161
f 394 611 171
f 393 251 89
f 255 304 131
f 392 610 144
f 391 232 27
f 21 321 314
f 256 513 173
f 513 390 172
f 389 554 172
f 260 512 179
f 388 178 512
f 387 556 178
f 258 511 176
f 511 386 175
f 385 555 175
f 559 384 187
f 187 383 606
f 606 234 133
f 87 382 509
f 605 187 382
f 189 265 559
f 549 380 134
f 134 379 604
f 604 338 189
f 15 319 13
f 14 317 24
f 560 378 190
f 190 377 603
f 603 228 126
f 80 376 506
f 602 190 376
f 192 267 560
f 548 374 127
f 127 373 601
f 601 340 192
f 21 313 20
f 561 372 193
f 193 371 600
f 600 224 121
f 75 370 503
f 599 193 370
f 195 269 561
f 547 368 122
f 122 367 598
f 598 342 195
f 562 366 196
f 196 365 597
f 597 222 118
f 72 364 500
f 596 196 364
f 198 271 562
f 546 362 119
f 119 361 595
f 595 344 198
f 17 282 16
f 563 360 199
f 199 359 594
f 594 218 113
f 67 358 497
f 593 199 358
f 201 273 563
f 545 356 114
f 114 355 592
f 592 346 201
f 23 287 22
f 564 354 202
f 202 353 591
f 591 206 98
f 50 352 494
f 590 202 352
f 204 275 564
f 542 350 99
f 99 349 589
f 589 348 204
f 566 276 50
f 203 347 588
f 588 278 49
f 104 215 110
f 569 274 67
f 200 345 587
f 587 290 66
f 102 210 103
f 570 272 72
f 197 343 586
f 586 294 71
f 571 270 75
f 194 341 585
f 585 296 74
f 150 241 149
f 572 268 80
f 191 339 584
f 584 300 79
f 155 245 154
f 157 247 156
f 573 266 87
f 188 337 583
f 583 306 86
f 330 579 94
f 332 580 93
f 328 578 95
f 150 249 242
f 327 392 144
f 244 394 171
f 102 243 209
f 214 396 177
f 331 398 142
f 329 400 166
f 240 402 174
f 325 404 145
f 229 406 168
f 125 234 227
f 225 408 167
f 223 410 143
f 117 228 221
f 219 412 165
f 130 224 231
f 112 222 217
f 207 414 164
f 137 218 237
f 235 416 163
f 104 213 211
f 157 238 248
f 162 212 252
f 208 418 180
f 162 251 161
f 250 420 186
f 334 581 92
f 333 424 141
f 335 426 140
f 336 582 91
f 205 430 183
f 155 239 246
f 132 206 233
f 326 577 96
f 137 236 136
f 576 321 22
f 132 232 131
f 130 230 129
f 575 315 18
f 125 226 124
f 574 311 13
f 568 285 24
f 117 220 116
f 567 284 20
f 112 216 111
f 565 310 16
f 41 39 47
f 310 277 138
f 277 469 138
f 57 4 5
f 57 16 15
f 63 9 10
f 61 24 23
f 63 21 20
f 56 19 18
f 62 54 15
f 62 13 14
f 1 38 37
f 53 14 24
f 58 23 22
f 52 18 17
f 284 280 105
f 280 471 105
f 285 286 106
f 286 472 106
f 311 312 146
f 312 478 146
f 315 316 151
f 316 479 151
f 321 322 158
f 322 480 158
f 8 59 56
f 12 11 47
f 12 48 38
f 3 39 40
f 45 9 8
f 7 6 42
f 5 41 42
f 5 4 40
f 10 46 47
f 8 7 43
f 10 9 45
f 3 2 37
f 325 326 170
f 170 169 481
f 246 239 74
f 541 97 430
f 335 336 185
f 185 184 486
f 486 184 426
f 485 181 424
f 333 334 182
f 182 181 485
f 552 159 420
f 252 90 89
f 543 101 418
f 252 212 66
f 248 238 49
f 211 213 71
f 549 134 416
f 542 99 414
f 545 114 412
f 546 119 410
f 547 122 408
f 548 127 406
f 481 169 404
f 550 147 402
f 483 175 400
f 484 178 398
f 544 109 396
f 209 243 79
f 551 152 394
f 482 172 392
f 242 249 86
f 327 328 173
f 173 172 482
f 331 332 179
f 179 178 484
f 329 330 176
f 176 175 483
f 59 20 19
f 306 337 133
f 337 487 133
f 381 187 487
f 266 307 189
f 307 477 189
f 248 85 84
f 246 83 82
f 300 339 126
f 339 488 126
f 375 190 488
f 268 301 192
f 301 476 192
f 242 78 77
f 296 341 121
f 341 489 121
f 369 193 489
f 270 297 195
f 297 475 195
f 294 343 118
f 343 490 118
f 363 196 490
f 272 295 198
f 295 474 198
f 209 70 69
f 290 345 113
f 345 491 113
f 357 199 491
f 274 291 201
f 291 473 201
f 211 65 64
f 6 52 60
f 11 58 55
f 1 53 61
f 2 62 53
f 3 54 62
f 7 56 52
f 9 63 59
f 11 12 61
f 21 63 55
f 4 57 54
f 57 60 17
f 278 347 98
f 347 492 98
f 351 202 492
f 276 279 204
f 279 470 204
f 348 349 51
f 349 493 51
f 350 100 493
f 350 207 100
f 207 446 100
f 348 51 468
f 351 203 494
f 276 204 590
f 206 353 27
f 353 495 27
f 354 139 495
f 354 275 139
f 275 468 139
f 283 104 110
f 346 355 68
f 355 496 68
f 356 115 496
f 356 219 115
f 219 449 115
f 346 68 467
f 357 200 497
f 274 201 593
f 218 359 31
f 359 498 31
f 360 108 498
f 360 273 108
f 273 467 108
f 281 102 103
f 344 361 73
f 361 499 73
f 362 120 499
f 362 223 120
f 223 450 120
f 344 73 466
f 363 197 500
f 272 198 596
f 222 365 35
f 365 501 35
f 366 107 501
f 366 271 107
f 271 466 107
f 342 367 76
f 367 502 76
f 368 148 502
f 368 225 148
f 225 451 148
f 342 76 465
f 369 194 503
f 270 195 599
f 224 371 26
f 371 504 26
f 372 123 504
f 372 269 123
f 269 465 123
f 314 150 149
f 340 373 81
f 373 505 81
f 374 128 505
f 374 229 128
f 229 452 128
f 340 81 464
f 375 191 506
f 268 192 602
f 228 377 29
f 377 507 29
f 378 153 507
f 378 267 153
f 267 464 153
f 318 155 154
f 320 157 156
f 338 379 88
f 379 508 88
f 380 135 508
f 380 235 135
f 235 453 135
f 338 88 463
f 381 188 509
f 266 189 605
f 234 383 33
f 383 510 33
f 384 160 510
f 384 265 160
f 265 463 160
f 257 385 177
f 177 82 459
f 385 386 607
f 386 258 72
f 72 177 607
f 259 387 180
f 180 77 460
f 387 388 608
f 388 260 67
f 67 180 608
f 255 389 174
f 174 84 458
f 389 390 609
f 390 256 75
f 75 174 609
f 314 321 158
f 514 131 232
f 391 392 172
f 172 131 514
f 458 84 304
f 515 161 251
f 393 394 152
f 152 161 515
f 575 18 323
f 281 315 151
f 516 154 245
f 395 396 109
f 109 154 516
f 568 24 317
f 517 124 226
f 397 398 178
f 178 124 517
f 460 77 298
f 518 129 230
f 399 400 175
f 175 129 518
f 459 82 302
f 519 156 247
f 401 402 147
f 147 156 519
f 574 13 319
f 520 136 236
f 403 404 169
f 169 136 520
f 457 89 308
f 521 170 326
f 405 406 127
f 127 170 521
f 572 80 254
f 299 306 133
f 522 173 328
f 407 408 122
f 122 173 522
f 571 75 256
f 523 176 330
f 409 410 119
f 119 176 523
f 570 72 258
f 293 300 126
f 524 179 332
f 411 412 114
f 114 179 524
f 569 67 260
f 303 296 121
f 289 294 118
f 525 182 334
f 413 414 99
f 99 182 525
f 566 50 262
f 309 290 113
f 526 185 336
f 415 416 134
f 134 185 526
f 573 87 264
f 283 285 106
f 320 310 138
f 324 284 105
f 527 149 241
f 417 418 101
f 101 149 527
f 567 20 313
f 324 162 161
f 528 110 215
f 419 420 159
f 159 110 528
f 576 22 287
f 261 421 183
f 183 69 461
f 421 422 625
f 422 262 50
f 50 183 625
f 530 116 220
f 423 424 181
f 181 116 530
f 461 69 292
f 531 111 216
f 425 426 184
f 184 111 531
f 462 64 288
f 263 427 186
f 186 64 462
f 427 428 628
f 428 264 87
f 87 186 628
f 533 103 210
f 429 430 97
f 97 103 533
f 565 16 282
f 318 311 146
f 305 278 98
f 253 431 171
f 171 89 457
f 431 432 630
f 432 254 80
f 80 171 630
f 309 137 136
f 249 433 86
f 433 535 86
f 434 188 535
f 434 250 188
f 250 456 188
f 305 132 131
f 303 130 129
f 243 435 79
f 435 536 79
f 436 191 536
f 436 244 191
f 244 455 191
f 299 125 124
f 239 437 74
f 437 537 74
f 438 194 537
f 438 240 194
f 240 454 194
f 213 439 71
f 439 538 71
f 440 197 538
f 440 214 197
f 214 448 197
f 293 117 116
f 212 441 66
f 441 539 66
f 442 200 539
f 442 208 200
f 208 447 200
f 289 112 111
f 238 443 49
f 443 540 49
f 444 203 540
f 444 205 203
f 205 445 203
f 541 205 444
f 636 138 97
f 97 444 443
f 636 443 238
f 65 289 288
f 543 208 442
f 635 105 101
f 101 442 441
f 635 441 212
f 70 293 292
f 544 214 440
f 634 106 109
f 109 440 439
f 634 439 213
f 550 240 438
f 633 146 147
f 147 438 437
f 633 437 239
f 78 299 298
f 551 244 436
f 632 151 152
f 152 436 435
f 632 435 243
f 83 303 302
f 85 305 304
f 552 250 434
f 631 158 159
f 159 434 433
f 631 433 249
f 90 309 308
f 254 432 534
f 431 169 432
f 169 170 534
f 431 253 553
f 85 49 278
f 14 13 311
f 103 97 469
f 469 277 103
f 430 429 629
f 69 183 629
f 629 429 69
f 264 428 532
f 427 184 428
f 184 185 532
f 427 263 558
f 111 184 558
f 558 263 111
f 426 425 627
f 35 140 627
f 627 425 35
f 116 181 557
f 557 261 116
f 424 423 626
f 29 141 626
f 626 423 29
f 262 422 529
f 421 181 422
f 181 182 529
f 421 261 557
f 110 159 480
f 480 322 110
f 420 419 624
f 64 186 624
f 624 419 64
f 19 324 323
f 149 101 471
f 471 280 149
f 418 417 623
f 77 180 623
f 623 417 77
f 19 20 284
f 15 16 310
f 23 24 285
f 185 134 477
f 477 307 185
f 416 415 622
f 91 163 622
f 622 415 91
f 90 66 290
f 182 99 470
f 470 279 182
f 414 413 621
f 92 164 621
f 621 413 92
f 65 71 294
f 83 74 296
f 179 114 473
f 473 291 179
f 412 411 620
f 93 165 620
f 620 411 93
f 70 79 300
f 176 119 474
f 474 295 176
f 410 409 619
f 94 143 619
f 619 409 94
f 173 122 475
f 475 297 173
f 408 407 618
f 95 167 618
f 618 407 95
f 78 86 306
f 170 127 476
f 476 301 170
f 406 405 617
f 96 168 617
f 617 405 96
f 136 169 553
f 553 253 136
f 404 403 616
f 31 145 616
f 616 403 31
f 156 147 478
f 478 312 156
f 402 401 615
f 84 174 615
f 615 401 84
f 129 175 555
f 555 257 129
f 400 399 614
f 26 166 614
f 614 399 26
f 124 178 556
f 556 259 124
f 398 397 613
f 33 142 613
f 613 397 33
f 154 109 472
f 472 286 154
f 396 395 612
f 82 177 612
f 612 395 82
f 17 18 315
f 161 152 479
f 479 316 161
f 394 393 611
f 89 171 611
f 611 393 89
f 131 172 554
f 554 255 131
f 392 391 610
f 27 144 610
f 610 391 27
f 21 22 321
f 256 390 513
f 389 172 390
f 172 173 513
f 389 255 554
f 260 388 512
f 387 178 388
f 178 179 512
f 387 259 556
f 258 386 511
f 385 175 386
f 175 176 511
f 385 257 555
f 559 265 384
f 606 133 187
f 187 384 383
f 606 383 234
f 509 188 87
f 87 266 382
f 189 187 605
f 187 381 382
f 559 187 189
f 189 338 265
f 549 235 380
f 604 189 134
f 134 380 379
f 604 379 338
f 15 320 319
f 14 318 317
f 560 267 378
f 603 126 190
f 190 378 377
f 603 377 228
f 506 191 80
f 80 268 376
f 192 190 602
f 190 375 376
f 560 190 192
f 192 340 267
f 548 229 374
f 601 192 127
f 127 374 373
f 601 373 340
f 21 314 313
f 561 269 372
f 600 121 193
f 193 372 371
f 600 371 224
f 503 194 75
f 75 270 370
f 195 193 599
f 193 369 370
f 561 193 195
f 195 342 269
f 547 225 368
f 598 195 122
f 122 368 367
f 598 367 342
f 562 271 366
f 597 118 196
f 196 366 365
f 597 365 222
f 500 197 72
f 72 272 364
f 198 196 596
f 196 363 364
f 562 196 198
f 198 344 271
f 546 223 362
f 595 198 119
f 119 362 361
f 595 361 344
f 17 281 282
f 563 273 360
f 594 113 199
f 199 360 359
f 594 359 218
f 497 200 67
f 67 274 358
f 201 199 593
f 199 357 358
f 563 199 201
f 201 346 273
f 545 219 356
f 592 201 114
f 114 356 355
f 592 355 346
f 23 283 287
f 564 275 354
f 591 98 202
f 202 354 353
f 591 353 206
f 494 203 50
f 50 276 352
f 204 202 590
f 202 351 352
f 564 202 204
f 204 348 275
f 542 207 350
f 589 204 99
f 99 350 349
f 589 349 348
f 566 279 276
f 588 49 203
f 203 351 347
f 588 347 278
f 104 211 215
f 569 291 274
f 587 66 200
f 200 357 345
f 587 345 290
f 102 209 210
f 570 295 272
f 586 71 197
f 197 363 343
f 586 343 294
f 571 297 270
f 585 74 194
f 194 369 341
f 585 341 296
f 150 242 241
f 572 301 268
f 584 79 191
f 191 375 339
f 584 339 300
f 155 246 245
f 157 248 247
f 573 307 266
f 583 86 188
f 188 381 337
f 583 337 306
f 330 329 579
f 332 331 580
f 328 327 578
f 150 158 249
f 144 95 578
f 578 327 144
f 171 80 455
f 455 244 171
f 102 151 243
f 177 72 448
f 448 214 177
f 142 93 580
f 580 331 142
f 166 94 579
f 579 329 166
f 174 75 454
f 454 240 174
f 145 96 577
f 577 325 145
f 168 30 452
f 452 229 168
f 125 133 234
f 167 25 451
f 451 225 167
f 143 36 450
f 450 223 143
f 117 126 228
f 165 32 449
f 449 219 165
f 130 121 224
f 112 118 222
f 164 28 446
f 446 207 164
f 137 113 218
f 163 34 453
f 453 235 163
f 104 106 213
f 157 138 238
f 162 105 212
f 180 67 447
f 447 208 180
f 162 252 251
f 186 87 456
f 456 250 186
f 334 333 581
f 141 92 581
f 581 333 141
f 140 91 582
f 582 335 140
f 336 335 582
f 183 50 445
f 445 205 183
f 155 146 239
f 132 98 206
f 326 325 577
f 137 237 236
f 576 322 321
f 132 233 232
f 130 231 230
f 575 316 315
f 125 227 226
f 574 312 311
f 568 286 285
f 117 221 220
f 567 280 284
f 112 217 216
f 565 277 310
