o Exhaust
v 0 0.743 -0.9985
v 0 0.8151 -2.0914
v 0.3785 0.8444 -0.9985
v 0.3425 0.9068 -2.0914
v 0.6556 1.1215 -0.9985
v 0.5932 1.1575 -2.0914
v 0.757 1.5 -0.9985
v 0.6849 1.5 -2.0914
v 0.6556 1.8785 -0.9985
v 0.5932 1.8425 -2.0914
v 0.3785 2.1556 -0.9985
v 0.3425 2.0932 -2.0914
v 0 2.257 -0.9985
v 0 2.1849 -2.0914
v -0.3785 2.1556 -0.9985
v -0.3425 2.0932 -2.0914
v -0.6556 1.8785 -0.9985
v -0.5932 1.8425 -2.0914
v -0.757 1.5 -0.9985
v -0.6849 1.5 -2.0914
v -0.6556 1.1215 -0.9985
v -0.5932 1.1575 -2.0914
v -0.3785 0.8444 -0.9985
v -0.3425 0.9068 -2.0914
v 0 1.1215 -0.9985
v 0 1.4553 -3.2052
v 0.1892 1.1722 -0.9985
v 0.0224 1.4613 -3.2052
v 0.3278 1.3108 -0.9985
v 0.0387 1.4776 -3.2052
v 0.3785 1.5 -0.9985
v 0.0447 1.5 -3.2052
v 0.3278 1.6892 -0.9985
v 0.0387 1.5224 -3.2052
v 0.1892 1.8278 -0.9985
v 0.0224 1.5387 -3.2052
v 0 1.8785 -0.9985
v 0 1.5447 -3.2052
v -0.1892 1.8278 -0.9985
v -0.0224 1.5387 -3.2052
v -0.3278 1.6892 -0.9985
v -0.0387 1.5224 -3.2052
v -0.3785 1.5 -0.9985
v -0.0447 1.5 -3.2052
v -0.3278 1.3108 -0.9985
v -0.0387 1.4776 -3.2052
v -0.1892 1.1722 -0.9985
v -0.0224 1.4613 -3.2052
v 0 1.2936 -1.688
v 0.1032 1.3213 -1.688
v 0.1787 1.3968 -1.688
v 0.2064 1.5 -1.688
v 0.1787 1.6032 -1.688
v 0.1032 1.6787 -1.688
v 0 1.7064 -1.688
v -0.1032 1.6787 -1.688
v -0.1787 1.6032 -1.688
v -0.2064 1.5 -1.688
v -0.1787 1.3968 -1.688
v -0.1032 1.3213 -1.688
v 0 1.3744 -2.4466
v 0.0628 1.3913 -2.4466
v 0.1087 1.4372 -2.4466
v 0.1256 1.5 -2.4466
v 0.1087 1.5628 -2.4466
v 0.0628 1.6087 -2.4466
v 0 1.6256 -2.4466
v -0.0628 1.6087 -2.4466
v -0.1087 1.5628 -2.4466
v -0.1256 1.5 -2.4466
v -0.1087 1.4372 -2.4466
v -0.0628 1.3913 -2.4466
vt 0.75 1
vt 0.8333 0
vt 0.8333 1
vt 0.5833 1
vt 0.6667 0
vt 0.6667 1
vt 0.1667 1
vt 0.25 0
vt 0.25 1
vt 0.3333 1
vt 0.3333 0
vt 0.5 1
vt 0.5833 0
vt 0.4167 1
vt 0.5 0
vt 0 1
vt 0.0833 0
vt 0.0833 1
vt 0.9167 1
vt 0.9167 0
vt 0.3333 0.6919
vt 0.4167 0.3839
vt 0.4167 0.6919
vt 0.75 0
vt 0.4167 0
vt 1 1
vt 1 0
vt 0.0833 0.6919
vt 0.1667 0.3839
vt 0.1667 0.6919
vt 0.6667 0.3839
vt 0.25 0.3839
vt 0.3333 0.3839
vt 0.5 0.6919
vt 0.5833 0.3839
vt 0.5833 0.6919
vt 0.25 0.6919
vt 0.5 0.3839
vt 0 0.6919
vt 0.0833 0.3839
vt 0.6667 0.6919
vt 0.75 0.3839
vt 0.75 0.6919
vt 0.8333 0.6919
vt 0.8333 0.3839
vt 0.9167 0.3839
vt 0.9167 0.6919
vt 1 0.6919
vt 1 0.3839
vt 0.4167 0.5
vt 0.3333 0.5
vt 0.25 0.5
vt 0.5833 0.5
vt 0.1667 0.5
vt 0.0833 0.5
vt 0.1667 0
vt 0.8333 0.5
vt 0.9167 0.5
vt 0.6667 0.5
vt 0 0
vt 0 0.5
vt 0 0.3839
vt 0.75 0.5
vt 0.5 0.5
vt 1 0.5
s 1
f 8/1 5/2 6/3
f 12/4 9/5 10/6
f 22/7 19/8 20/9
f 18/10 19/8 17/11
f 14/12 11/13 12/4
f 16/14 13/15 14/12
f 2/16 23/17 24/18
f 4/19 5/2 3/20
f 69/21 56/22 68/23
f 10/6 7/24 8/1
f 18/10 15/25 16/14
f 2/26 3/20 1/27
f 72/28 59/29 71/30
f 53/31 35/13 33/5
f 69/21 58/32 57/33
f 67/34 54/35 66/36
f 71/30 58/32 70/37
f 68/23 55/38 67/34
f 61/39 60/40 72/28
f 66/36 53/31 65/41
f 65/41 52/42 64/43
f 63/44 52/42 51/45
f 63/44 50/46 62/47
f 61/48 50/46 49/49
f 39/50 17/11 41/51
f 41/51 19/8 43/52
f 13/15 35/53 11/13
f 45/54 23/17 47/55
f 45/54 19/8 21/56
f 7/24 29/57 5/2
f 29/57 3/20 5/2
f 27/58 1/27 3/20
f 35/53 9/5 11/13
f 28/19 61/48 26/26
f 33/59 7/24 9/5
f 47/55 1/60 25/61
f 50/46 29/2 27/20
f 39/50 13/15 15/25
f 51/45 31/24 29/2
f 59/29 43/8 58/32
f 55/38 35/13 54/35
f 31/24 53/31 33/5
f 56/22 37/15 55/38
f 56/22 41/11 39/25
f 57/33 43/8 41/11
f 49/49 27/20 25/27
f 60/40 45/56 59/29
f 49/62 47/17 60/40
f 7/24 31/63 29/57
f 33/59 31/63 7/24
f 45/54 43/52 19/8
f 13/15 37/64 35/53
f 28/19 62/47 61/48
f 35/53 33/59 9/5
f 27/58 25/65 1/27
f 47/55 23/17 1/60
f 41/51 17/11 19/8
f 45/54 21/56 23/17
f 50/46 51/45 29/2
f 29/57 27/58 3/20
f 67/34 55/38 54/35
f 53/31 54/35 35/13
f 63/44 64/43 52/42
f 66/36 54/35 53/31
f 61/48 62/47 50/46
f 61/39 49/62 60/40
f 68/23 56/22 55/38
f 39/50 15/25 17/11
f 65/41 53/31 52/42
f 63/44 51/45 50/46
f 69/21 70/37 58/32
f 71/30 59/29 58/32
f 36/4 65/41 34/6
f 42/10 68/23 40/14
f 8/1 7/24 5/2
f 34/6 64/43 32/1
f 48/18 71/30 46/7
f 42/10 70/37 69/21
f 30/3 64/43 63/44
f 40/14 67/34 38/12
f 48/18 61/39 72/28
f 28/19 63/44 62/47
f 38/12 66/36 36/4
f 46/7 70/37 44/9
f 18/10 20/9 19/8
f 12/4 11/13 9/5
f 2/16 1/60 23/17
f 4/19 6/3 5/2
f 2/26 4/19 3/20
f 10/6 9/5 7/24
f 18/10 17/11 15/25
f 72/28 60/40 59/29
f 69/21 57/33 56/22
f 16/14 15/25 13/15
f 22/7 21/56 19/8
f 14/12 13/15 11/13
f 24/18 21/56 22/7
f 39/50 37/64 13/15
f 51/45 52/42 31/24
f 59/29 45/56 43/8
f 55/38 37/15 35/13
f 31/24 52/42 53/31
f 56/22 39/25 37/15
f 56/22 57/33 41/11
f 57/33 58/32 43/8
f 49/49 50/46 27/20
f 60/40 47/17 45/56
f 49/62 25/60 47/17
f 36/4 66/36 65/41
f 42/10 69/21 68/23
f 34/6 65/41 64/43
f 48/18 72/28 71/30
f 42/10 44/9 70/37
f 30/3 32/1 64/43
f 40/14 68/23 67/34
f 48/18 26/16 61/39
f 28/19 30/3 63/44
f 38/12 67/34 66/36
f 46/7 71/30 70/37
f 24/18 23/17 21/56
o Thruster
v 0 0.3624 -0.5767
v 0 0.3624 0.8295
v 0.0804 0.3291 -0.5767
v 0.0804 0.3291 0.8295
v 0.1138 0.2487 -0.5767
v 0.1138 0.2487 0.8295
v 0.0804 0.1682 -0.5767
v 0.0804 0.1682 0.8295
v 0 0.1349 -0.5767
v 0 0.1349 0.8295
v -0.0804 0.1682 -0.5767
v -0.0804 0.1682 0.8295
v -0.1138 0.2487 -0.5767
v -0.1138 0.2487 0.8295
v -0.0804 0.3291 -0.5767
v -0.0804 0.3291 0.8295
v 0 0.3624 -0.5767
v 0.0804 0.3316 -0.5872
v 0.1138 0.2573 -0.6126
v 0.0804 0.183 -0.638
v 0 0.1522 -0.6485
v -0.0804 0.183 -0.638
v -0.1138 0.2573 -0.6126
v -0.0804 0.3316 -0.5872
v 0 0.3624 -0.5767
v 0.0804 0.3389 -0.5961
v 0.1138 0.282 -0.643
v 0.0804 0.2251 -0.6899
v 0 0.2015 -0.7093
v -0.0804 0.2251 -0.6899
v -0.1138 0.282 -0.643
v -0.0804 0.3389 -0.5961
v 0 0.3624 -0.5767
v 0.0804 0.3497 -0.6021
v 0.1138 0.3189 -0.6633
v 0.0804 0.2881 -0.7246
v 0 0.2753 -0.7499
v -0.0804 0.2881 -0.7246
v -0.1138 0.3189 -0.6633
v -0.0804 0.3497 -0.6021
v 0 0.3624 -0.5767
v 0.0804 0.3624 -0.6042
v 0.1138 0.3624 -0.6705
v 0.0804 0.3624 -0.7367
v 0 0.3624 -0.7642
v -0.0804 0.3624 -0.7367
v -0.1138 0.3624 -0.6705
v -0.0804 0.3624 -0.6042
v 0 0.7037 -0.5767
v 0.0804 0.7037 -0.6042
v 0.1138 0.7037 -0.6705
v 0.0804 0.7037 -0.7367
v 0 0.7037 -0.7642
v -0.0804 0.7037 -0.7367
v -0.1138 0.7037 -0.6705
v -0.0804 0.7037 -0.6042
v -0.9852 0.9312 -0.0142
v -0.9852 0.9312 0.8295
v -0.9738 0.8449 -0.0142
v -0.9738 0.8449 0.8295
v -1.0268 0.7758 -0.0142
v -1.0268 0.7758 0.8295
v -1.1131 0.7644 -0.0142
v -1.1131 0.7644 0.8295
v -1.1822 0.8174 -0.0142
v -1.1822 0.8174 0.8295
v -1.1936 0.9038 -0.0142
v -1.1936 0.9038 0.8295
v -1.1406 0.9728 -0.0142
v -1.1406 0.9728 0.8295
v -1.0543 0.9842 -0.0142
v -1.0543 0.9842 0.8295
v -0.9852 0.9312 -0.0142
v -0.9716 0.8462 -0.0247
v -1.0193 0.7801 -0.0501
v -1.1003 0.7718 -0.0755
v -1.1672 0.8261 -0.086
v -1.1808 0.9112 -0.0755
v -1.1331 0.9772 -0.0501
v -1.0521 0.9855 -0.0247
v -0.9852 0.9312 -0.0142
v -0.9654 0.8498 -0.0336
v -0.998 0.7925 -0.0805
v -1.0639 0.7929 -0.1274
v -1.1245 0.8508 -0.1468
v -1.1443 0.9322 -0.1274
v -1.1117 0.9895 -0.0805
v -1.0458 0.9891 -0.0336
v -0.9852 0.9312 -0.0142
v -0.956 0.8552 -0.0396
v -0.966 0.8109 -0.1008
v -1.0093 0.8244 -0.1621
v -1.0606 0.8877 -0.1874
v -1.0898 0.9637 -0.1621
v -1.0798 1.008 -0.1008
v -1.0364 0.9945 -0.0396
v -0.9852 0.9312 -0.0142
v -0.945 0.8615 -0.0417
v -0.9283 0.8327 -0.108
v -0.945 0.8615 -0.1742
v -0.9852 0.9312 -0.2017
v -1.0254 1.0009 -0.1742
v -1.0421 1.0297 -0.108
v -1.0254 1.0009 -0.0417
v -0.6896 1.1018 -0.0142
v -0.6494 1.0322 -0.0417
v -0.6327 1.0033 -0.108
v -0.6494 1.0322 -0.1742
v -0.6896 1.1018 -0.2017
v -0.7298 1.1715 -0.1742
v -0.7465 1.2004 -0.108
v -0.7298 1.1715 -0.0417
v -1.1376 1.5 -0.5767
v -1.1376 1.5 0.8295
v -1.1709 1.4196 -0.5767
v -1.1709 1.4196 0.8295
v -1.2513 1.3862 -0.5767
v -1.2513 1.3862 0.8295
v -1.3318 1.4196 -0.5767
v -1.3318 1.4196 0.8295
v -1.3651 1.5 -0.5767
v -1.3651 1.5 0.8295
v -1.3318 1.5804 -0.5767
v -1.3318 1.5804 0.8295
v -1.2513 1.6138 -0.5767
v -1.2513 1.6138 0.8295
v -1.1709 1.5804 -0.5767
v -1.1709 1.5804 0.8295
v -1.1376 1.5 -0.5767
v -1.1684 1.4196 -0.5872
v -1.2427 1.3862 -0.6126
v -1.317 1.4196 -0.638
v -1.3478 1.5 -0.6485
v -1.317 1.5804 -0.638
v -1.2427 1.6138 -0.6126
v -1.1684 1.5804 -0.5872
v -1.1376 1.5 -0.5767
v -1.1611 1.4196 -0.5961
v -1.218 1.3862 -0.643
v -1.2749 1.4196 -0.6899
v -1.2985 1.5 -0.7093
v -1.2749 1.5804 -0.6899
v -1.218 1.6138 -0.643
v -1.1611 1.5804 -0.5961
v -1.1376 1.5 -0.5767
v -1.1503 1.4196 -0.6021
v -1.1811 1.3862 -0.6633
v -1.2119 1.4196 -0.7246
v -1.2247 1.5 -0.7499
v -1.2119 1.5804 -0.7246
v -1.1811 1.6138 -0.6633
v -1.1503 1.5804 -0.6021
v -1.1376 1.5 -0.5767
v -1.1376 1.4196 -0.6042
v -1.1376 1.3862 -0.6705
v -1.1376 1.4196 -0.7367
v -1.1376 1.5 -0.7642
v -1.1376 1.5804 -0.7367
v -1.1376 1.6138 -0.6705
v -1.1376 1.5804 -0.6042
v -0.7963 1.5 -0.5767
v -0.7963 1.4196 -0.6042
v -0.7963 1.3862 -0.6705
v -0.7963 1.4196 -0.7367
v -0.7963 1.5 -0.7642
v -0.7963 1.5804 -0.7367
v -0.7963 1.6138 -0.6705
v -0.7963 1.5804 -0.6042
v -0.5688 2.4852 -0.0142
v -0.5688 2.4852 0.8295
v -0.6551 2.4738 -0.0142
v -0.6551 2.4738 0.8295
v -0.7242 2.5268 -0.0142
v -0.7242 2.5268 0.8295
v -0.7356 2.6131 -0.0142
v -0.7356 2.6131 0.8295
v -0.6826 2.6822 -0.0142
v -0.6826 2.6822 0.8295
v -0.5962 2.6936 -0.0142
v -0.5962 2.6936 0.8295
v -0.5272 2.6406 -0.0142
v -0.5272 2.6406 0.8295
v -0.5158 2.5543 -0.0142
v -0.5158 2.5543 0.8295
v -0.5688 2.4852 -0.0142
v -0.6538 2.4716 -0.0247
v -0.7199 2.5193 -0.0501
v -0.7282 2.6003 -0.0755
v -0.6739 2.6672 -0.086
v -0.5888 2.6808 -0.0755
v -0.5228 2.6331 -0.0501
v -0.5145 2.5521 -0.0247
v -0.5688 2.4852 -0.0142
v -0.6502 2.4654 -0.0336
v -0.7075 2.498 -0.0805
v -0.7071 2.5639 -0.1274
v -0.6492 2.6245 -0.1468
v -0.5678 2.6443 -0.1274
v -0.5105 2.6117 -0.0805
v -0.5109 2.5458 -0.0336
v -0.5688 2.4852 -0.0142
v -0.6448 2.456 -0.0396
v -0.6891 2.466 -0.1008
v -0.6756 2.5093 -0.1621
v -0.6123 2.5606 -0.1874
v -0.5363 2.5898 -0.1621
v -0.492 2.5798 -0.1008
v -0.5055 2.5364 -0.0396
v -0.5688 2.4852 -0.0142
v -0.6385 2.445 -0.0417
v -0.6673 2.4283 -0.108
v -0.6385 2.445 -0.1742
v -0.5688 2.4852 -0.2017
v -0.4991 2.5254 -0.1742
v -0.4703 2.5421 -0.108
v -0.4991 2.5254 -0.0417
v -0.3982 2.1896 -0.0142
v -0.4678 2.1494 -0.0417
v -0.4967 2.1327 -0.108
v -0.4678 2.1494 -0.1742
v -0.3982 2.1896 -0.2017
v -0.3285 2.2298 -0.1742
v -0.2996 2.2465 -0.108
v -0.3285 2.2298 -0.0417
v 0 2.6376 -0.5767
v 0 2.6376 0.8295
v -0.0804 2.6709 -0.5767
v -0.0804 2.6709 0.8295
v -0.1138 2.7513 -0.5767
v -0.1138 2.7513 0.8295
v -0.0804 2.8318 -0.5767
v -0.0804 2.8318 0.8295
v 0 2.8651 -0.5767
v 0 2.8651 0.8295
v 0.0804 2.8318 -0.5767
v 0.0804 2.8318 0.8295
v 0.1138 2.7513 -0.5767
v 0.1138 2.7513 0.8295
v 0.0804 2.6709 -0.5767
v 0.0804 2.6709 0.8295
v 0 2.6376 -0.5767
v -0.0804 2.6684 -0.5872
v -0.1138 2.7427 -0.6126
v -0.0804 2.817 -0.638
v 0 2.8478 -0.6485
v 0.0804 2.817 -0.638
v 0.1138 2.7427 -0.6126
v 0.0804 2.6684 -0.5872
v 0 2.6376 -0.5767
v -0.0804 2.6611 -0.5961
v -0.1138 2.718 -0.643
v -0.0804 2.7749 -0.6899
v 0 2.7985 -0.7093
v 0.0804 2.7749 -0.6899
v 0.1138 2.718 -0.643
v 0.0804 2.6611 -0.5961
v 0 2.6376 -0.5767
v -0.0804 2.6503 -0.6021
v -0.1138 2.6811 -0.6633
v -0.0804 2.7119 -0.7246
v 0 2.7247 -0.7499
v 0.0804 2.7119 -0.7246
v 0.1138 2.6811 -0.6633
v 0.0804 2.6503 -0.6021
v 0 2.6376 -0.5767
v -0.0804 2.6376 -0.6042
v -0.1138 2.6376 -0.6705
v -0.0804 2.6376 -0.7367
v 0 2.6376 -0.7642
v 0.0804 2.6376 -0.7367
v 0.1138 2.6376 -0.6705
v 0.0804 2.6376 -0.6042
v 0 2.2963 -0.5767
v -0.0804 2.2963 -0.6042
v -0.1138 2.2963 -0.6705
v -0.0804 2.2963 -0.7367
v 0 2.2963 -0.7642
v 0.0804 2.2963 -0.7367
v 0.1138 2.2963 -0.6705
v 0.0804 2.2963 -0.6042
v 0.9852 2.0688 -0.0142
v 0.9852 2.0688 0.8295
v 0.9738 2.1551 -0.0142
v 0.9738 2.1551 0.8295
v 1.0268 2.2242 -0.0142
v 1.0268 2.2242 0.8295
v 1.1131 2.2356 -0.0142
v 1.1131 2.2356 0.8295
v 1.1822 2.1826 -0.0142
v 1.1822 2.1826 0.8295
v 1.1936 2.0962 -0.0142
v 1.1936 2.0962 0.8295
v 1.1406 2.0272 -0.0142
v 1.1406 2.0272 0.8295
v 1.0543 2.0158 -0.0142
v 1.0543 2.0158 0.8295
v 0.9852 2.0688 -0.0142
v 0.9716 2.1538 -0.0247
v 1.0193 2.2199 -0.0501
v 1.1003 2.2282 -0.0755
v 1.1672 2.1739 -0.086
v 1.1808 2.0888 -0.0755
v 1.1331 2.0228 -0.0501
v 1.0521 2.0145 -0.0247
v 0.9852 2.0688 -0.0142
v 0.9654 2.1502 -0.0336
v 0.998 2.2075 -0.0805
v 1.0639 2.2071 -0.1274
v 1.1245 2.1492 -0.1468
v 1.1443 2.0678 -0.1274
v 1.1117 2.0105 -0.0805
v 1.0458 2.0109 -0.0336
v 0.9852 2.0688 -0.0142
v 0.956 2.1448 -0.0396
v 0.966 2.1891 -0.1008
v 1.0093 2.1756 -0.1621
v 1.0606 2.1123 -0.1874
v 1.0898 2.0363 -0.1621
v 1.0798 1.992 -0.1008
v 1.0364 2.0055 -0.0396
v 0.9852 2.0688 -0.0142
v 0.945 2.1385 -0.0417
v 0.9283 2.1673 -0.108
v 0.945 2.1385 -0.1742
v 0.9852 2.0688 -0.2017
v 1.0254 1.9991 -0.1742
v 1.0421 1.9703 -0.108
v 1.0254 1.9991 -0.0417
v 0.6896 1.8982 -0.0142
v 0.6494 1.9678 -0.0417
v 0.6327 1.9967 -0.108
v 0.6494 1.9678 -0.1742
v 0.6896 1.8982 -0.2017
v 0.7298 1.8285 -0.1742
v 0.7465 1.7996 -0.108
v 0.7298 1.8285 -0.0417
v 1.1376 1.5 -0.5767
v 1.1376 1.5 0.8295
v 1.1709 1.5804 -0.5767
v 1.1709 1.5804 0.8295
v 1.2513 1.6138 -0.5767
v 1.2513 1.6138 0.8295
v 1.3318 1.5804 -0.5767
v 1.3318 1.5804 0.8295
v 1.3651 1.5 -0.5767
v 1.3651 1.5 0.8295
v 1.3318 1.4196 -0.5767
v 1.3318 1.4196 0.8295
v 1.2513 1.3862 -0.5767
v 1.2513 1.3862 0.8295
v 1.1709 1.4196 -0.5767
v 1.1709 1.4196 0.8295
v 1.1376 1.5 -0.5767
v 1.1684 1.5804 -0.5872
v 1.2427 1.6138 -0.6126
v 1.317 1.5804 -0.638
v 1.3478 1.5 -0.6485
v 1.317 1.4196 -0.638
v 1.2427 1.3862 -0.6126
v 1.1684 1.4196 -0.5872
v 1.1376 1.5 -0.5767
v 1.1611 1.5804 -0.5961
v 1.218 1.6138 -0.643
v 1.2749 1.5804 -0.6899
v 1.2985 1.5 -0.7093
v 1.2749 1.4196 -0.6899
v 1.218 1.3862 -0.643
v 1.1611 1.4196 -0.5961
v 1.1376 1.5 -0.5767
v 1.1503 1.5804 -0.6021
v 1.1811 1.6138 -0.6633
v 1.2119 1.5804 -0.7246
v 1.2247 1.5 -0.7499
v 1.2119 1.4196 -0.7246
v 1.1811 1.3862 -0.6633
v 1.1503 1.4196 -0.6021
v 1.1376 1.5 -0.5767
v 1.1376 1.5804 -0.6042
v 1.1376 1.6138 -0.6705
v 1.1376 1.5804 -0.7367
v 1.1376 1.5 -0.7642
v 1.1376 1.4196 -0.7367
v 1.1376 1.3862 -0.6705
v 1.1376 1.4196 -0.6042
v 0.7963 1.5 -0.5767
v 0.7963 1.5804 -0.6042
v 0.7963 1.6138 -0.6705
v 0.7963 1.5804 -0.7367
v 0.7963 1.5 -0.7642
v 0.7963 1.4196 -0.7367
v 0.7963 1.3862 -0.6705
v 0.7963 1.4196 -0.6042
v 0.5688 0.5148 -0.0142
v 0.5688 0.5148 0.8295
v 0.6551 0.5262 -0.0142
v 0.6551 0.5262 0.8295
v 0.7242 0.4732 -0.0142
v 0.7242 0.4732 0.8295
v 0.7356 0.3869 -0.0142
v 0.7356 0.3869 0.8295
v 0.6826 0.3178 -0.0142
v 0.6826 0.3178 0.8295
v 0.5962 0.3064 -0.0142
v 0.5962 0.3064 0.8295
v 0.5272 0.3594 -0.0142
v 0.5272 0.3594 0.8295
v 0.5158 0.4457 -0.0142
v 0.5158 0.4457 0.8295
v 0.5688 0.5148 -0.0142
v 0.6538 0.5284 -0.0247
v 0.7199 0.4807 -0.0501
v 0.7282 0.3997 -0.0755
v 0.6739 0.3328 -0.086
v 0.5888 0.3192 -0.0755
v 0.5228 0.3669 -0.0501
v 0.5145 0.4479 -0.0247
v 0.5688 0.5148 -0.0142
v 0.6502 0.5346 -0.0336
v 0.7075 0.502 -0.0805
v 0.7071 0.4361 -0.1274
v 0.6492 0.3755 -0.1468
v 0.5678 0.3557 -0.1274
v 0.5105 0.3883 -0.0805
v 0.5109 0.4542 -0.0336
v 0.5688 0.5148 -0.0142
v 0.6448 0.544 -0.0396
v 0.6891 0.534 -0.1008
v 0.6756 0.4907 -0.1621
v 0.6123 0.4394 -0.1874
v 0.5363 0.4102 -0.1621
v 0.492 0.4202 -0.1008
v 0.5055 0.4636 -0.0396
v 0.5688 0.5148 -0.0142
v 0.6385 0.555 -0.0417
v 0.6673 0.5717 -0.108
v 0.6385 0.555 -0.1742
v 0.5688 0.5148 -0.2017
v 0.4991 0.4746 -0.1742
v 0.4703 0.4579 -0.108
v 0.4991 0.4746 -0.0417
v 0.3982 0.8104 -0.0142
v 0.4678 0.8506 -0.0417
v 0.4967 0.8673 -0.108
v 0.4678 0.8506 -0.1742
v 0.3982 0.8104 -0.2017
v 0.3285 0.7702 -0.1742
v 0.2996 0.7535 -0.108
v 0.3285 0.7702 -0.0417
v 0 3 0.8154
v 0 3 1.0029
v 0.75 2.799 0.8154
v 0.75 2.799 1.0029
v 1.299 2.25 0.8155
v 1.299 2.25 1.003
v 1.5 1.5 0.8155
v 1.5 1.5 1.003
v 1.299 0.75 0.8155
v 1.299 0.75 1.003
v 0.75 0.201 0.8155
v 0.75 0.201 1.003
v 0 0 0.8155
v 0 0 1.003
v -0.75 0.201 0.8155
v -0.75 0.201 1.003
v -1.299 0.75 0.8155
v -1.299 0.75 1.003
v -1.5 1.5 0.8155
v -1.5 1.5 1.003
v -1.299 2.25 0.8155
v -1.299 2.25 1.003
v -0.75 2.799 0.8154
v -0.75 2.799 1.0029
v 0 2.8092 0.7217
v 0.6546 2.6338 0.7217
v 1.1338 2.1546 0.7217
v 1.3092 1.5 0.7217
v 1.1338 0.8454 0.7217
v 0.6546 0.3662 0.7217
v 0 0.1908 0.7217
v -0.6546 0.3662 0.7217
v -1.1338 0.8454 0.7217
v -1.3092 1.5 0.7217
v -1.1338 2.1546 0.7217
v -0.6546 2.6338 0.7217
v 0 2.9062 0.7217
v 0.7031 2.7178 0.7217
v 1.2178 2.2031 0.7217
v 1.4062 1.5 0.7217
v 1.2178 0.7969 0.7217
v 0.7031 0.2822 0.7217
v 0 0.0938 0.7217
v -0.7031 0.2822 0.7217
v -1.2178 0.7969 0.7217
v -1.4062 1.5 0.7217
v -1.2178 2.2031 0.7217
v -0.7031 2.7178 0.7217
v 0 2.2446 0.253
v 0.3723 2.1448 0.253
v 0.6448 1.8723 0.253
v 0.7446 1.5 0.253
v 0.6448 1.1277 0.253
v 0.3723 0.8552 0.253
v 0 0.7554 0.253
v -0.3723 0.8552 0.253
v -0.6448 1.1277 0.253
v -0.7446 1.5 0.253
v -0.6448 1.8723 0.253
v -0.3723 2.1448 0.253
v 0 2.3416 0.253
v 0.4208 2.2289 0.253
v 0.7289 1.9208 0.253
v 0.8416 1.5 0.253
v 0.7289 1.0792 0.253
v 0.4208 0.7711 0.253
v 0 0.6584 0.253
v -0.4208 0.7711 0.253
v -0.7289 1.0792 0.253
v -0.8416 1.5 0.253
v -0.7289 1.9208 0.253
v -0.4208 2.2289 0.253
v 0 2.5251 0.4545
v 0.5126 2.3878 0.4545
v 0.8878 2.0126 0.4545
v 1.0251 1.5 0.4545
v 0.8878 0.9874 0.4545
v 0.5126 0.6122 0.4545
v 0 0.4749 0.4545
v -0.5126 0.6122 0.4545
v -0.8878 0.9874 0.4545
v -1.0251 1.5 0.4545
v -0.8878 2.0126 0.4545
v -0.5126 2.3878 0.4545
v 0 2.2598 -1.0455
v 0.3799 2.158 -1.0455
v 0.658 1.8799 -1.0455
v 0.7598 1.5 -1.0455
v 0.658 1.1201 -1.0455
v 0.3799 0.842 -1.0455
v 0 0.7402 -1.0455
v -0.3799 0.842 -1.0455
v -0.658 1.1201 -1.0455
v -0.7598 1.5 -1.0455
v -0.658 1.8799 -1.0455
v -0.3799 2.158 -1.0455
v 0 2.5251 -1.0455
v 0.5126 2.3878 -1.0455
v 0.8878 2.0126 -1.0455
v 1.0251 1.5 -1.0455
v 0.8878 0.9874 -1.0455
v 0.5126 0.6122 -1.0455
v 0 0.4749 -1.0455
v -0.5126 0.6122 -1.0455
v -0.8878 0.9874 -1.0455
v -1.0251 1.5 -1.0455
v -0.8878 2.0126 -1.0455
v -0.5126 2.3878 -1.0455
v 0 2.2598 -0.108
v 0.3799 2.158 -0.108
v 0.658 1.8799 -0.108
v 0.7598 1.5 -0.108
v 0.658 1.1201 -0.108
v 0.3799 0.842 -0.108
v 0 0.7402 -0.108
v -0.3799 0.842 -0.108
v -0.658 1.1201 -0.108
v -0.7598 1.5 -0.108
v -0.658 1.8799 -0.108
v -0.3799 2.158 -0.108
v 0 2.7084 -0.4361
v 0.6042 2.5465 -0.4361
v 1.0465 2.1042 -0.4361
v 1.2084 1.5 -0.4361
v 1.0465 0.8958 -0.4361
v 0.6042 0.4535 -0.4361
v 0 0.2916 -0.4361
v -0.6042 0.4535 -0.4361
v -1.0465 0.8958 -0.4361
v -1.2084 1.5 -0.4361
v -1.0465 2.1042 -0.4361
v -0.6042 2.5465 -0.4361
v 0.4791 2.3298 -0.5298
v 0 2.4582 -0.5298
v 0.8298 1.9791 -0.5298
v 0.9582 1.5 -0.5298
v 0.8298 1.0209 -0.5298
v 0.4791 0.6702 -0.5298
v 0 0.5418 -0.5298
v -0.4791 0.6702 -0.5298
v -0.8298 1.0209 -0.5298
v -0.9582 1.5 -0.5298
v -0.8298 1.9791 -0.5298
v -0.4791 2.3298 -0.5298
v 0.5416 2.4382 -0.5298
v 0 2.5833 -0.5298
v 0.9382 2.0416 -0.5298
v 1.0833 1.5 -0.5298
v 0.9382 0.9584 -0.5298
v 0.5416 0.5618 -0.5298
v 0 0.4167 -0.5298
v -0.5416 0.5618 -0.5298
v -0.9382 0.9584 -0.5298
v -1.0833 1.5 -0.5298
v -0.9382 2.0416 -0.5298
v -0.5416 2.4382 -0.5298
v 0 2.7084 -0.4361
v 0.6042 2.5465 -0.4361
v 1.0465 2.1042 -0.4361
v 1.2084 1.5 -0.4361
v 1.0465 0.8958 -0.4361
v 0.6042 0.4535 -0.4361
v 0 0.2916 -0.4361
v -0.6042 0.4535 -0.4361
v -1.0465 0.8958 -0.4361
v -1.2084 1.5 -0.4361
v -1.0465 2.1042 -0.4361
v -0.6042 2.5465 -0.4361
v 0.4791 2.3298 -0.5298
v 0 2.4582 -0.5298
v 0.8298 1.9791 -0.5298
v 0.9582 1.5 -0.5298
v 0.8298 1.0209 -0.5298
v 0.4791 0.6702 -0.5298
v 0 0.5418 -0.5298
v -0.4791 0.6702 -0.5298
v -0.8298 1.0209 -0.5298
v -0.9582 1.5 -0.5298
v -0.8298 1.9791 -0.5298
v -0.4791 2.3298 -0.5298
v 0.5416 2.4382 -0.5298
v 0 2.5833 -0.5298
v 0.9382 2.0416 -0.5298
v 1.0833 1.5 -0.5298
v 0.9382 0.9584 -0.5298
v 0.5416 0.5618 -0.5298
v 0 0.4167 -0.5298
v -0.5416 0.5618 -0.5298
v -0.9382 0.9584 -0.5298
v -1.0833 1.5 -0.5298
v -0.9382 2.0416 -0.5298
v -0.5416 2.4382 -0.5298
v 0.1523 0.3678 0.3225
v 0.4342 0.4433 0.3225
v 0.1167 0.5007 0.4551
v 0.3986 0.5762 0.4551
v -0.4342 0.4433 0.3225
v -0.1523 0.3678 0.3225
v -0.3986 0.5762 0.4551
v -0.1167 0.5007 0.4551
v -0.9044 0.802 0.3225
v -0.698 0.5956 0.3225
v -0.8071 0.8993 0.4551
v -0.6007 0.6929 0.4551
v -1.1322 1.3477 0.3225
v -1.0567 1.0658 0.3225
v -0.9993 1.3833 0.4551
v -0.9238 1.1014 0.4551
v -1.0567 1.9342 0.3225
v -1.1322 1.6523 0.3225
v -0.9238 1.8986 0.4551
v -0.9993 1.6167 0.4551
v -0.698 2.4044 0.3225
v -0.9044 2.198 0.3225
v -0.6007 2.3071 0.4551
v -0.8071 2.1007 0.4551
v -0.1523 2.6322 0.3225
v -0.4342 2.5567 0.3225
v -0.1167 2.4993 0.4551
v -0.3986 2.4238 0.4551
v 0.4342 2.5567 0.3225
v 0.1523 2.6322 0.3225
v 0.3986 2.4238 0.4551
v 0.1167 2.4993 0.4551
v 0.9044 2.198 0.3225
v 0.698 2.4044 0.3225
v 0.8071 2.1007 0.4551
v 0.6007 2.3071 0.4551
v 1.1322 1.6523 0.3225
v 1.0567 1.9342 0.3225
v 0.9993 1.6167 0.4551
v 0.9238 1.8986 0.4551
v 1.0567 1.0658 0.3225
v 1.1322 1.3477 0.3225
v 0.9238 1.1014 0.4551
v 0.9993 1.3833 0.4551
v 0.698 0.5956 0.3225
v 0.9044 0.802 0.3225
v 0.6007 0.6929 0.4551
v 0.8071 0.8993 0.4551
v 0.1523 0.3678 0.3225
v 0.4342 0.4433 0.3225
v 0.1167 0.5007 0.4551
v 0.3986 0.5762 0.4551
v -0.4342 0.4433 0.3225
v -0.1523 0.3678 0.3225
v -0.3986 0.5762 0.4551
v -0.1167 0.5007 0.4551
v -0.9044 0.802 0.3225
v -0.698 0.5956 0.3225
v -0.8071 0.8993 0.4551
v -0.6007 0.6929 0.4551
v -1.1322 1.3477 0.3225
v -1.0567 1.0658 0.3225
v -0.9993 1.3833 0.4551
v -0.9238 1.1014 0.4551
v -1.0567 1.9342 0.3225
v -1.1322 1.6523 0.3225
v -0.9238 1.8986 0.4551
v -0.9993 1.6167 0.4551
v -0.698 2.4044 0.3225
v -0.9044 2.198 0.3225
v -0.6007 2.3071 0.4551
v -0.8071 2.1007 0.4551
v -0.1523 2.6322 0.3225
v -0.4342 2.5567 0.3225
v -0.1167 2.4993 0.4551
v -0.3986 2.4238 0.4551
v 0.4342 2.5567 0.3225
v 0.1523 2.6322 0.3225
v 0.3986 2.4238 0.4551
v 0.1167 2.4993 0.4551
v 0.9044 2.198 0.3225
v 0.698 2.4044 0.3225
v 0.8071 2.1007 0.4551
v 0.6007 2.3071 0.4551
v 1.1322 1.6523 0.3225
v 1.0567 1.9342 0.3225
v 0.9993 1.6167 0.4551
v 0.9238 1.8986 0.4551
v 1.0567 1.0658 0.3225
v 1.1322 1.3477 0.3225
v 0.9238 1.1014 0.4551
v 0.9993 1.3833 0.4551
v 0.698 0.5956 0.3225
v 0.9044 0.802 0.3225
v 0.6007 0.6929 0.4551
v 0.8071 0.8993 0.4551
v 1.2084 1.5 0.1545
v 1.1376 1.5 0.2871
v 0.9667 1.5 0.342
v 0.9667 1.5 -0.033
v 1.1376 1.5 0.022
v 1.0465 2.1042 0.1545
v 0.9852 2.0688 0.2871
v 0.8372 1.9834 0.342
v 0.8372 1.9834 -0.033
v 0.9852 2.0688 0.022
v 0.6042 2.5465 0.1545
v 0.5688 2.4852 0.2871
v 0.4834 2.3372 0.342
v 0.4834 2.3372 -0.033
v 0.5688 2.4852 0.022
v 0 2.7084 0.1545
v 0 2.6376 0.2871
v 0 2.4667 0.342
v 0 2.4667 -0.033
v 0 2.6376 0.022
v -0.6042 2.5465 0.1545
v -0.5688 2.4852 0.2871
v -0.4834 2.3372 0.342
v -0.4834 2.3372 -0.033
v -0.5688 2.4852 0.022
v -1.0465 2.1042 0.1545
v -0.9852 2.0688 0.2871
v -0.8372 1.9834 0.342
v -0.8372 1.9834 -0.033
v -0.9852 2.0688 0.022
v -1.2084 1.5 0.1545
v -1.1376 1.5 0.2871
v -0.9667 1.5 0.342
v -0.9667 1.5 -0.033
v -1.1376 1.5 0.022
v -1.0465 0.8958 0.1545
v -0.9852 0.9312 0.2871
v -0.8372 1.0166 0.342
v -0.8372 1.0166 -0.033
v -0.9852 0.9312 0.022
v -0.6042 0.4535 0.1545
v -0.5688 0.5148 0.2871
v -0.4834 0.6628 0.342
v -0.4834 0.6628 -0.033
v -0.5688 0.5148 0.022
v 0 0.2916 0.1545
v 0 0.3624 0.2871
v 0 0.5333 0.342
v 0 0.5333 -0.033
v 0 0.3624 0.022
v 0.6042 0.4535 0.1545
v 0.5688 0.5148 0.2871
v 0.4834 0.6628 0.342
v 0.4834 0.6628 -0.033
v 0.5688 0.5148 0.022
v 1.0465 0.8958 0.1545
v 0.9852 0.9312 0.2871
v 0.8372 1.0166 0.342
v 0.8372 1.0166 -0.033
v 0.9852 0.9312 0.022
v 1.2084 1.5 -0.2955
v 1.1376 1.5 -0.1629
v 0.9667 1.5 -0.108
v 0.9667 1.5 -0.483
v 1.1376 1.5 -0.428
v 1.0465 2.1042 -0.2955
v 0.9852 2.0688 -0.1629
v 0.8372 1.9834 -0.108
v 0.8372 1.9834 -0.483
v 0.9852 2.0688 -0.428
v 0.6042 2.5465 -0.2955
v 0.5688 2.4852 -0.1629
v 0.4834 2.3372 -0.108
v 0.4834 2.3372 -0.483
v 0.5688 2.4852 -0.428
v 0 2.7084 -0.2955
v 0 2.6376 -0.1629
v 0 2.4667 -0.108
v 0 2.4667 -0.483
v 0 2.6376 -0.428
v -0.6042 2.5465 -0.2955
v -0.5688 2.4852 -0.1629
v -0.4834 2.3372 -0.108
v -0.4834 2.3372 -0.483
v -0.5688 2.4852 -0.428
v -1.0465 2.1042 -0.2955
v -0.9852 2.0688 -0.1629
v -0.8372 1.9834 -0.108
v -0.8372 1.9834 -0.483
v -0.9852 2.0688 -0.428
v -1.2084 1.5 -0.2955
v -1.1376 1.5 -0.1629
v -0.9667 1.5 -0.108
v -0.9667 1.5 -0.483
v -1.1376 1.5 -0.428
v -1.0465 0.8958 -0.2955
v -0.9852 0.9312 -0.1629
v -0.8372 1.0166 -0.108
v -0.8372 1.0166 -0.483
v -0.9852 0.9312 -0.428
v -0.6042 0.4535 -0.2955
v -0.5688 0.5148 -0.1629
v -0.4834 0.6628 -0.108
v -0.4834 0.6628 -0.483
v -0.5688 0.5148 -0.428
v 0 0.2916 -0.2955
v 0 0.3624 -0.1629
v 0 0.5333 -0.108
v 0 0.5333 -0.483
v 0 0.3624 -0.428
v 0.6042 0.4535 -0.2955
v 0.5688 0.5148 -0.1629
v 0.4834 0.6628 -0.108
v 0.4834 0.6628 -0.483
v 0.5688 0.5148 -0.428
v 1.0465 0.8958 -0.2955
v 0.9852 0.9312 -0.1629
v 0.8372 1.0166 -0.108
v 0.8372 1.0166 -0.483
v 0.9852 0.9312 -0.428
v 0 2.5251 -0.2955
v -0.8878 0.9874 -0.2955
v -1.299 1.5 1.003
v 0.5126 2.3878 -0.2955
v -1.0251 1.5 -0.2955
v 0.8878 2.0126 -0.2955
v -0.8878 2.0126 -0.2955
v 1.0251 1.5 -0.2955
v -0.5126 2.3878 -0.2955
v 0.8878 0.9874 -0.2955
v 0 2.25 1.003
v -0.6495 1.125 1.003
v 1.299 1.5 1.003
v 0.5126 0.6122 -0.2955
v 0 0.4749 -0.2955
v -0.5126 0.6122 -0.2955
v 0.3248 1.3125 1.003
vt 0.6944 0.5102
vt 0.7014 0.3265
vt 0.7014 0.5102
vt 0.625 0.102
vt 0.6181 0.0408
vt 0.625 0.0408
vt 0.7778 1
vt 0.8333 0.9592
vt 0.8333 1
vt 0.8472 0.1837
vt 0.8681 0.1633
vt 0.8681 0.1837
vt 0.6181 0.5306
vt 0.625 0.2245
vt 0.625 0.5306
vt 0.7431 0.2041
vt 0.8056 0.2245
vt 0.7431 0.2245
vt 0.6319 0.2245
vt 0.6319 0.5306
vt 0.5833 0.0408
vt 0.5764 0.102
vt 0.5764 0.0408
vt 0.6319 0.1837
vt 0.6389 0.2041
vt 0.6319 0.2041
vt 0.6319 0.1633
vt 0.6389 0.1837
vt 0.5694 0.1837
vt 0.5764 0.2041
vt 0.5694 0.2041
vt 0.5556 0.1837
vt 0.5625 0.2041
vt 0.5556 0.2041
vt 0.6528 0.1837
vt 0.6458 0.2041
vt 0.6458 0.1837
vt 0.4375 0.1837
vt 0.4444 0.2041
vt 0.4375 0.2041
vt 0.625 0.1837
vt 0.625 0.2041
vt 0.6736 0.1837
vt 0.6667 0.2041
vt 0.6667 0.1837
vt 0.9653 0.2041
vt 0.9583 0.1837
vt 0.9653 0.1837
vt 0.7361 0.2653
vt 0.7292 0.2857
vt 0.7292 0.2653
vt 0.5625 0.1633
vt 0.5625 0.1837
vt 0.6389 0.1633
vt 0.6528 0.1633
vt 0.6458 0.1633
vt 0.625 0.1633
vt 0.6736 0.1633
vt 0.6667 0.1633
vt 0.4444 0.1633
vt 0.4514 0.1837
vt 0.4444 0.1837
vt 0.6528 0.1224
vt 0.6458 0.1429
vt 0.6458 0.1224
vt 0.6319 0.1429
vt 0.5556 0.1429
vt 0.5556 0.1633
vt 0.5417 0.1429
vt 0.5347 0.1633
vt 0.5347 0.1429
vt 0.6389 0.1429
vt 0.6528 0.1429
vt 0.625 0.1429
vt 0.6736 0.1429
vt 0.6667 0.1429
vt 0.5694 0.0408
vt 0.625 0.1224
vt 0.6736 0.1224
vt 0.6667 0.1224
vt 0.6597 0.1224
vt 0.8403 0.2245
vt 0.8333 0.2041
vt 0.8403 0.2041
vt 0.8403 0.0816
vt 0.8333 0.102
vt 0.8333 0.0816
vt 0.6042 0.1224
vt 0.5972 0.1429
vt 0.5972 0.1224
vt 0.6389 0.1224
vt 0.875 0.1224
vt 0.9375 0.1429
vt 0.875 0.1429
vt 0.5625 0.102
vt 0.5556 0.0408
vt 0.5625 0.0408
vt 0.4444 0.0408
vt 0.4375 0.102
vt 0.4375 0.0408
vt 0.875 0.0816
vt 0.9375 0.102
vt 0.875 0.102
vt 0.8889 0.9592
vt 0.8889 1
vt 0.7431 0.1224
vt 0.8056 0.1429
vt 0.7431 0.1429
vt 0.9375 0.1633
vt 0.875 0.1633
vt 0.25 0.8367
vt 0.2778 0.6735
vt 0.2778 0.8367
vt 0.6042 0.102
vt 0.5972 0.0408
vt 0.6042 0.0408
vt 0.1944 0.8367
vt 0.1667 0.6735
vt 0.1944 0.6735
vt 0.6667 0.102
vt 0.6597 0.0408
vt 0.6667 0.0408
vt 0.8056 0.1633
vt 0.7431 0.1633
vt 0.6389 0.102
vt 0.6319 0.0408
vt 0.6389 0.0408
vt 0.7431 0.102
vt 0.8056 0.1224
vt 0.9444 0.9592
vt 0.9444 1
vt 0.5069 0.1837
vt 0.5139 0.2041
vt 0.5069 0.2041
vt 0.9583 0.1224
vt 0.9514 0.1429
vt 0.9514 0.1224
vt 0.7222 0.2857
vt 0.7153 0.3061
vt 0.7153 0.2857
vt 0.8194 0.0816
vt 0.8125 0.102
vt 0.8125 0.0816
vt 0.8194 0.1837
vt 0.8125 0.1633
vt 0.8194 0.1633
vt 0.8125 0.1429
vt 0.8194 0.1429
vt 0.8194 0.2041
vt 0.8125 0.1837
vt 0.9514 0.2245
vt 0.9444 0.2041
vt 0.9514 0.2041
vt 0.9514 0.0816
vt 0.9444 0.102
vt 0.9444 0.0816
vt 0.8264 0.1837
vt 0.8333 0.1837
vt 0.6806 0.2653
vt 0.6875 0.2857
vt 0.6806 0.2857
vt 0.4722 0.1633
vt 0.4653 0.1837
vt 0.4653 0.1633
vt 0.8264 0.1429
vt 0.8264 0.1633
vt 0.9583 0.2245
vt 0.9583 0.2041
vt 0.8264 0.2449
vt 0.8194 0.2245
vt 0.8264 0.2245
vt 0.5694 0.1633
vt 0.5764 0.1837
vt 0.8403 0.1633
vt 0.8333 0.1633
vt 0.6944 0.2449
vt 0.7014 0.2653
vt 0.6944 0.2653
vt 0.6111 0.1429
vt 0.6042 0.1633
vt 0.6042 0.1429
vt 0.5694 0.1429
vt 0.5764 0.1633
vt 0.8333 0.1429
vt 0.5625 0.1429
vt 0.7361 0.2449
vt 0.7292 0.2449
vt 0.6667 0.5306
vt 0.6736 0.2245
vt 0.6736 0.5306
vt 0.9722 0.1224
vt 0.9653 0.1429
vt 0.9653 0.1224
vt 0.7361 0.2245
vt 0.7292 0.2245
vt 0.5347 0.1224
vt 0.5278 0.1429
vt 0.5278 0.1224
vt 0.4444 0.1224
vt 0.4514 0.1429
vt 0.4444 0.1429
vt 0.9722 0.0816
vt 0.9653 0.102
vt 0.9653 0.0816
vt 0.5903 0.1429
vt 0.5903 0.1224
vt 0.8403 0.1429
vt 1 0.2449
vt 0.9792 0.2245
vt 1 0.2245
vt 1 0.1633
vt 0.9792 0.1429
vt 1 0.1429
vt 0.8681 0.1429
vt 0.8472 0.1224
vt 0.8681 0.1224
vt 1 0.102
vt 0.9792 0.1224
vt 0.9792 0.102
vt 0.2292 0.3878
vt 0.25 0.3469
vt 0.2292 0.3469
vt 0.7292 0.2041
vt 0.7222 0.1429
vt 0.7292 0.1429
vt 0.8472 0.1633
vt 0.8056 0.2449
vt 0.7431 0.2449
vt 0.7083 0.3265
vt 0.7083 0.5102
vt 0.0833 0.3878
vt 0.1111 0.5918
vt 0.0833 0.5918
vt 0.2222 0.8367
vt 0.25 0.6735
vt 0.1667 0.3878
vt 0.1944 0.5918
vt 0.1667 0.5918
vt 0.5903 0.5306
vt 0.5972 0.2245
vt 0.5972 0.5306
vt 0.0625 0.3469
vt 0.0833 0.3469
vt 0.6042 0.5306
vt 0.6111 0.2245
vt 0.6111 0.5306
vt 0.8194 0.102
vt 0.8125 0.1224
vt 0.5 0.1633
vt 0.5 0.1837
vt 0.5972 0.1837
vt 0.5903 0.2041
vt 0.5903 0.1837
vt 0.7361 0.6735
vt 0.7292 0.6939
vt 0.7292 0.6735
vt 0.5833 0.2041
vt 0.5833 0.1837
vt 0.6042 0.1837
vt 0.5972 0.2041
vt 0.6597 0.2041
vt 0.6597 0.1837
vt 0.6111 0.1837
vt 0.6042 0.2041
vt 0.6597 0.1429
vt 0.9514 0.1837
vt 0.5833 0.1633
vt 0.6944 0.6531
vt 0.7014 0.6735
vt 0.6944 0.6735
vt 0.7361 0.6531
vt 0.7292 0.6531
vt 0.5069 0.1633
vt 0.5139 0.1837
vt 0.5833 0.1224
vt 0.5833 0.1429
vt 0.4792 0.1429
vt 0.4722 0.1429
vt 0.4861 0.1429
vt 0.4792 0.1633
vt 0.6597 0.1633
vt 0.5764 0.1429
vt 0.5278 0.1633
vt 0.8333 0.2449
vt 0.8333 0.2245
vt 0.5347 0.102
vt 0.5278 0.0408
vt 0.5347 0.0408
vt 0.5625 0.1224
vt 0.6111 0.1224
vt 0.6319 0.1224
vt 0.5694 0.1224
vt 0.4861 0.1224
vt 0.4792 0.1224
vt 0.4375 0.1224
vt 0.4375 0.1429
vt 0.5764 0.1224
vt 0.5208 0.0408
vt 0.5139 0.102
vt 0.5139 0.0408
vt 0.4861 0.102
vt 0.4792 0.0408
vt 0.4861 0.0408
vt 0.5417 0.5306
vt 0.5486 0.2245
vt 0.5486 0.5306
vt 0.4514 0.102
vt 0.4514 0.0408
vt 0.6597 0.5306
vt 0.6667 0.2245
vt 0.6111 0.0408
vt 0.0833 0.8367
vt 0.1111 0.6735
vt 0.1111 0.8367
vt 0.6389 0.2245
vt 0.6389 0.5306
vt 0.6736 0.102
vt 0.6736 0.0408
vt 0.1944 0.3878
vt 0.2222 0.5918
vt 0.6597 0.102
vt 0.6528 0.0408
vt 0.5625 0.5306
vt 0.5694 0.2245
vt 0.5694 0.5306
vt 0.6458 0.2245
vt 0.6458 0.5306
vt 0.5069 0.102
vt 0.5069 0.0408
vt 0.6875 0.5102
vt 0.6944 0.3265
vt 0.6944 0.2857
vt 0.7014 0.3061
vt 0.6944 0.3061
vt 0.4722 0.1837
vt 0.4514 0.2041
vt 0.8194 0.2449
vt 0.8125 0.2245
vt 0.7083 0.3061
vt 0.7083 0.2857
vt 0.7014 0.2857
vt 0.9444 0.1429
vt 0.9444 0.1224
vt 0.4792 0.1837
vt 0.4722 0.2041
vt 0.9514 0.2449
vt 0.9444 0.2245
vt 0.4514 0.1633
vt 0.8264 0.102
vt 0.8264 0.0816
vt 0.7222 0.6735
vt 0.7222 0.6531
vt 0.7083 0.2653
vt 0.8264 0.2041
vt 0.4931 0.1633
vt 0.4931 0.1837
vt 0.3958 0.898
vt 0.441 0.7551
vt 0.4514 0.898
vt 0.7153 0.2245
vt 0.7083 0.2449
vt 0.7083 0.2245
vt 0.9583 0.1429
vt 0.6806 0.2449
vt 0.6875 0.2653
vt 0.9583 0.102
vt 0.7014 0.2449
vt 0.7153 0.2653
vt 0.7222 0.2449
vt 0.7153 0.2449
vt 0.9653 0.2449
vt 0.9653 0.2245
vt 0.0625 0.3878
vt 0.0417 0.3469
vt 0.0417 0.3878
vt 0.9722 0.2041
vt 0.9722 0.1837
vt 0.5556 0.1224
vt 0.7222 0.2245
vt 0.8403 0.1837
vt 0.4306 0.1224
vt 0.4306 0.1429
vt 0.7222 0.6122
vt 0.7153 0.6327
vt 0.7153 0.6122
vt 0.7014 0.2245
vt 0.7361 0.5306
vt 0.7292 0.5918
vt 0.7292 0.5306
vt 0.7014 0.5306
vt 0.6944 0.5918
vt 0.6944 0.5306
vt 0.6806 0.6735
vt 0.6875 0.6939
vt 0.6806 0.6939
vt 0.7222 0.5306
vt 0.7153 0.5918
vt 0.7153 0.5306
vt 0.7361 0.1429
vt 0.6944 0.2041
vt 0.6875 0.1429
vt 0.6944 0.1429
vt 0.7014 0.1429
vt 0.5208 0.5306
vt 0.5278 0.2245
vt 0.5278 0.5306
vt 0.5347 0.2245
vt 0.5347 0.5306
vt 0.9375 0.1224
vt 0.6458 0.102
vt 0.6458 0.0408
vt 0.5 0.0408
vt 0.4931 0.102
vt 0.4931 0.0408
vt 0.8056 0.1837
vt 0.7431 0.1837
vt 0.5833 0.5306
vt 0.5903 0.2245
vt 0.6875 0.5306
vt 0.6806 0.5918
vt 0.6806 0.5306
vt 0.7014 0.6939
vt 0.6944 0.6939
vt 0.5347 0.1837
vt 0.5278 0.2041
vt 0.5278 0.1837
vt 0.5 0.2041
vt 0.4931 0.2041
vt 0.5208 0.2041
vt 0.5208 0.1837
vt 0.5417 0.1837
vt 0.5347 0.2041
vt 0.6875 0.6735
vt 0.4861 0.1837
vt 0.4792 0.2041
vt 0.6944 0.6327
vt 0.7014 0.6531
vt 0.6111 0.1633
vt 0.5417 0.1633
vt 0.5139 0.1633
vt 0.5208 0.1633
vt 0.5486 0.1633
vt 0.6875 0.6531
vt 0.5208 0.1429
vt 0.5208 0.1224
vt 0.5069 0.1429
vt 0.4931 0.1429
vt 0.5972 0.1633
vt 0.5139 0.1429
vt 0.5 0.1429
vt 0.4375 0.1633
vt 0.4306 0.1633
vt 0.4653 0.102
vt 0.4583 0.0408
vt 0.4653 0.0408
vt 0.5 0.1224
vt 0.5486 0.1224
vt 0.5417 0.1224
vt 0.4722 0.1224
vt 0.4653 0.1429
vt 0.4653 0.1224
vt 0.5069 0.1224
vt 0.6806 0.2245
vt 0.6875 0.2449
vt 0.5139 0.1224
vt 0.3056 0.3878
vt 0.3333 0.5918
vt 0.3056 0.5918
vt 0.4722 0.5306
vt 0.4792 0.2245
vt 0.4792 0.5306
vt 0.7014 0.898
vt 0.7083 0.7143
vt 0.7083 0.898
vt 0.6111 1
vt 0.6667 0.9592
vt 0.6667 1
vt 0.5 0.5306
vt 0.5069 0.2245
vt 0.5069 0.5306
vt 0.5694 0.102
vt 0.7153 0.3265
vt 0.7153 0.5102
vt 0.5278 0.102
vt 0.6806 0.898
vt 0.6875 0.7143
vt 0.6875 0.898
vt 0.0278 0.8367
vt 0 0.6735
vt 0.0278 0.6735
vt 0.0208 0.3878
vt 0.0208 0.3469
vt 0.8056 0.2041
vt 0.7431 0.0816
vt 0.8056 0.102
vt 0.4931 0.5306
vt 0.5 0.2245
vt 0.8194 0.1224
vt 0.9514 0.102
vt 0.4653 0.2041
vt 0.7361 0.2857
vt 0.7292 0.3061
vt 0.7153 0.6735
vt 0.7083 0.6939
vt 0.7083 0.6735
vt 0.6875 0.3061
vt 0.6528 0.2041
vt 0.6806 0.3061
vt 0.7292 0.6327
vt 0.7222 0.6327
vt 0.6181 0.1633
vt 0.6181 0.1837
vt 0.7083 0.6531
vt 0.9583 0.2449
vt 0.7222 0.2653
vt 0.7083 0.6122
vt 0.7014 0.6327
vt 0.7014 0.6122
vt 0.6875 0.6327
vt 0.5486 0.1429
vt 0.7083 0.6327
vt 0.7153 0.6531
vt 0.9583 0.0816
vt 0.6944 0.2245
vt 0.6181 0.1224
vt 0.6181 0.1429
vt 0.7292 0.6122
vt 0.6944 0.6122
vt 0.2076 0.3061
vt 0.1736 0.2653
vt 0.2083 0.2653
vt 0.8403 0.1224
vt 0.8333 0.1224
vt 0.875 0.5213
vt 0.9443 0.5918
vt 0.8612 0.7329
vt 0.7153 0.2041
vt 0.7153 0.1429
vt 0.6806 0.2041
vt 0.6806 0.1429
vt 0.8681 0.2041
vt 0.8472 0.2245
vt 0.8472 0.2041
vt 0.7083 0.1429
vt 0.7083 0.2041
vt 0.8681 0.102
vt 0.8472 0.0816
vt 0.8681 0.0816
vt 0.8681 0.2449
vt 0.8681 0.2245
vt 0.7292 0.898
vt 0.7361 0.7143
vt 0.7361 0.898
vt 0.7222 0.898
vt 0.7292 0.7143
vt 0.5486 0.102
vt 0.5417 0.0408
vt 0.5486 0.0408
vt 0.5417 0.102
vt 0.4514 0.5306
vt 0.4583 0.2245
vt 0.4583 0.5306
vt 0.5556 0.5306
vt 0.5625 0.2245
vt 0.4861 0.2245
vt 0.4861 0.5306
vt 0.9444 0.1837
vt 0.4583 0.2041
vt 0.4583 0.1837
vt 0.7222 0.3061
vt 0.6181 0.2041
vt 0.9722 0.2245
vt 0.6806 0.6531
vt 0.5903 0.1633
vt 0.4583 0.1633
vt 0.4583 0.1429
vt 0.4583 0.1224
vt 0.7361 0.6327
vt 0.4931 0.1224
vt 0.2778 0.3878
vt 0.2778 0.5918
vt 0.9722 0.102
vt 0.8403 0.2449
vt 0.4875 0.0204
vt 0.5125 0.0204
vt 0.6875 0.2245
vt 0.6806 0.6122
vt 0.6806 0.6327
vt 0.8403 0.102
vt 0.4514 0.1224
vt 0.4444 0.5306
vt 0.4514 0.2245
vt 0.7292 0.5102
vt 0.7361 0.3265
vt 0.7361 0.5102
vt 0.4583 0.102
vt 0.4306 0.5306
vt 0.4375 0.2245
vt 0.4375 0.5306
vt 0.4653 0.5306
vt 0.4722 0.2245
vt 0.5417 0.2245
vt 0.6528 0.5306
vt 0.6597 0.2245
vt 0.5903 0.0408
vt 0.5833 0.102
vt 0.1389 0.6735
vt 0.1389 0.8367
vt 0.4444 0.2245
vt 0.4792 0.102
vt 0.4722 0.0408
vt 0.0556 0.3878
vt 0.0556 0.5918
vt 0.1042 0.3878
vt 0 0.5918
vt 0.0278 0.3878
vt 0.0278 0.5918
vt 0.25 0.3878
vt 0.7153 0.6939
vt 0.8125 0.2041
vt 0.4306 0.1837
vt 0.4306 0.2041
vt 0.9444 0.1633
vt 0.9514 0.1633
vt 0.7222 0.6939
vt 0.5486 0.1837
vt 0.5417 0.2041
vt 0.8264 0.1224
vt 0.9583 0.1633
vt 0.4861 0.1633
vt 0.9653 0.1633
vt 0.9722 0.1633
vt 0.9792 0.1837
vt 0.9792 0.1633
vt 0.9722 0.2449
vt 0.6875 0.6122
vt 0.7361 0.6122
vt 0.9722 0.1429
vt 0.7083 0.5918
vt 0.7083 0.5306
vt 1 0.0816
vt 0.9792 0.0816
vt 1 0.1224
vt 1 0.2041
vt 1 0.1837
vt 0 0.3469
vt 0.3438 0.1633
vt 0.316 0.1633
vt 0.3132 0.1224
vt 0.2076 0.0408
vt 0.2083 0.0816
vt 0.1736 0.0816
vt 0.1042 0.3469
vt 0.125 0.3469
vt 0.125 0.3878
vt 0.6264 0.0204
vt 0.6806 0.0408
vt 0.6792 0.0204
vt 0.6542 0.0204
vt 0.4167 0.0816
vt 0.3819 0.0816
vt 0.3826 0.0408
vt 0.1354 0.3469
vt 0.1076 0.3469
vt 0.1049 0.3061
vt 0.5556 0.551
vt 0.5556 0.5714
vt 0.5139 0.5714
vt 0.6111 0.551
vt 0.6111 0.5714
vt 0.5694 0.5714
vt 0.5 0.102
vt 0.776 0.9388
vt 0.724 0.9388
vt 0.7257 0.9184
vt 0.7222 0.2041
vt 0.6875 0.2041
vt 0.8299 0.9184
vt 0.8316 0.9388
vt 0.7795 0.9388
vt 0.9462 0.9388
vt 0.9983 0.9388
vt 1 0.9592
vt 0.2771 0.1224
vt 0.2437 0.1224
vt 0.2431 0.0816
vt 0.0556 0.6735
vt 0.4444 1
vt 0.4444 0.9592
vt 0.5 0.9592
vt 0.1035 0.0408
vt 0.1042 0.0816
vt 0.0694 0.0816
vt 0.2076 0.2245
vt 0.1667 0.3469
vt 0.1875 0.3878
vt 0.3812 0.3061
vt 0.3479 0.3061
vt 0.3472 0.2653
vt 0.1389 0.0816
vt 0.1729 0.1224
vt 0.2771 0.0408
vt 0.2437 0.0408
vt 0.2465 -0
vt 0.2424 0.0408
vt 0.0688 0.2245
vt 0.0354 0.2245
vt 0.0382 0.1837
vt 0.4583 0.0204
vt 0.4569 -0
vt 0.4319 0
vt 0.0688 0.0408
vt 0.0354 0.0408
vt 0.0382 -0
vt 0.1458 0.3469
vt 0.1458 0.3878
vt 0.3812 0.1224
vt 0.3479 0.1224
vt 0.4861 0.0204
vt 0.4847 0
vt 0.3438 0.1837
vt 0.3465 0.2245
vt 0.3132 0.2245
vt 0.7361 0.3061
vt 0.5 0.7551
vt 0.4583 0.7551
vt 0.4583 0.7347
vt 0.5556 0.7347
vt 0.5556 0.7551
vt 0.5139 0.7551
vt 0.7222 0.5918
vt 0.3507 0.7551
vt 0.3854 0.7551
vt 0.5729 0.7551
vt 0.6076 0.7551
vt 0.6181 0.898
vt 0.3889 0.9592
vt 0.3906 0.9388
vt 0.4427 0.9388
vt 0.6875 0.5918
vt 0.6667 0.7347
vt 0.6667 0.7551
vt 0.625 0.7551
vt 0.5681 0.0204
vt 0.6806 0.5102
vt 0.6806 0.3265
vt 0.6875 0.3265
vt 0.2222 0.3878
vt 0.7222 0.5102
vt 0.7222 0.3265
vt 0.7292 0.3265
vt 0.4062 0.7551
vt 0.0278 0.6122
vt 0.0278 0.6531
vt -0 0.6531
vt 0.0556 0.8367
vt 0.0833 0.6735
vt 0.1389 0.2653
vt 0.1042 0.2653
vt 0.1049 0.2245
vt 0.1743 0.0408
vt 0.1771 -0
vt 0.875 0.2041
vt 0.9375 0.2041
vt 0.9375 0.2245
vt 0.0312 -0
vt 0.034 0.0408
vt 0.0007 0.0408
vt 0.5708 0.0204
vt 0.9375 0.1837
vt 0.5958 0.0204
vt 0.3939 0.4294
vt 0.3869 0.5055
vt 0.361 0.5259
vt 0.4965 0.9184
vt 0.4983 0.9388
vt 0.4462 0.9388
vt 0.5833 0.2245
vt 0.9965 0.9184
vt 0.8889 0.3096
vt 0.8472 0.102
vt 0.6792 0
vt 0.6806 0.0204
vt 0.6528 0.0204
vt 0.6128 0.9388
vt 0.6649 0.9388
vt 0.7222 0.9592
vt 0.3785 0.1633
vt 0.3507 0.1633
vt 0.5 1
vt 0.5556 0.9592
vt 0.875 0.2245
vt 0.9375 0.2449
vt 0.416 0.1224
vt 0.4132 0.1633
vt 0.3854 0.1633
vt 0.1035 0.1224
vt 0.0701 0.1224
vt 0.1875 0.3469
vt 0.2778 0.0816
vt 0.1743 0.2245
vt 0.1771 0.1837
vt 0.1396 0.3061
vt 0.1729 0.3061
vt 0.1701 0.3469
vt 0.0701 0.0408
vt 0.0729 -0
vt 0.416 0.2245
vt 0.3826 0.2245
vt 0.3854 0.1837
vt 0.3465 0.3061
vt 0.3132 0.3061
vt 0.7347 0
vt 0.7361 0.0204
vt 0.7083 0.0204
vt 0.3438 0.3469
vt 0.316 0.3469
vt -0 0.3878
vt 0.7222 0.7143
vt 0.7205 0.9388
vt 0.6684 0.9388
vt 0.6701 0.9184
vt 0 0.6122
vt 0.7014 0.5918
vt 0.8872 0.9388
vt 0.8351 0.9388
vt 0.8368 0.9184
vt 0.6076 0.9184
vt 0.6094 0.9388
vt 0.5573 0.9388
vt 0.7014 0.2041
vt 0.5538 0.9388
vt 0.5017 0.9388
vt 0.5035 0.9184
vt 0.4444 0.5714
vt 0.4028 0.5714
vt 0.4028 0.551
vt 0.6528 0.102
vt 0.7153 0.898
vt 0.7153 0.7143
vt 0.5139 0.2245
vt 0.6111 0.7347
vt 0.6111 0.7551
vt 0.5694 0.7551
vt 0.8889 0.9177
vt 0.8335 0.874
vt 0.8889 0.874
vt 0.5764 0.5306
vt 0.5764 0.2245
vt 0.8889 0.266
vt 0.9443 0.3096
vt 0.9998 0.5918
vt 0.9443 0.874
vt 0.7083 0.0408
vt 0.7361 0.0408
vt 0.7347 0.0204
vt 0.7069 0.0204
vt 0.0833 1
vt 0.1382 0.1224
vt 0.1049 0.1224
vt 0.3118 0.3061
vt 0.309 0.3469
vt 0.2812 0.3469
vt 0.6514 0.0204
vt 0.6236 0.0204
vt 0.5069 0.898
vt 0.5174 0.7551
vt 0.5521 0.7551
vt 0.5729 0.5714
vt 0.6076 0.5714
vt 0.6181 0.7143
vt 0.3872 0.9388
vt 0.3351 0.9388
vt 0.3368 0.9184
vt 0.3958 0.7143
vt 0.4062 0.5714
vt 0.441 0.5714
vt 0.0278 1
vt 0.8125 0.2449
vt 0.0688 0.1224
vt 0.0354 0.1224
vt 0.3826 0.1224
vt 0.2083 0.3469
vt 0.2083 0.3878
vt 0.1382 0.3061
vt 0.25 1
vt 0.1389 0.3878
vt 0.1944 1
vt 0.6514 0
vt 0.6264 0
vt 0.7639 0.0408
vt 0.7375 0.0204
vt 0.5417 0.0204
vt 0.5139 0.0204
vt 0.5153 0
vt 0.625 0.0204
vt 0.5972 0.0204
vt 0.5986 0
vt 0.1396 0.1224
vt 0.1701 0.1633
vt 0.2049 0.3469
vt 0.1771 0.3469
vt 0.1743 0.3061
vt 0.4583 0.551
vt 0.5 0.551
vt 0.5 0.5714
vt 0.3889 0.5714
vt 0.3472 0.5714
vt 0.3472 0.551
vt 0.6285 0.7551
vt 0.6632 0.7551
vt 0.6736 0.898
vt 0.8335 0.3096
vt 0.5208 0.2245
vt 0.4861 0.2041
vt 0.3056 0.8367
vt 0.3056 0.6735
vt 0.3333 0.6735
vt 0.3333 1
vt 0.3333 0.9592
vt 0.6528 0.2245
vt 0.778 0.5918
vt 0.4722 0.102
vt 0.4444 0.7551
vt 0.4028 0.7551
vt 0.4028 0.7347
vt 0.2778 1
vt 0.0694 0.2653
vt 0.0347 0.2653
vt 0.2222 1
vt 0.1007 0.1633
vt 0.0729 0.1633
vt 0.1667 1
vt 0.1667 0.8367
vt 0.0347 0.0816
vt 0.1111 1
vt 0.0694 0.0816
vt 0.5556 0.2245
vt 0.8472 0.2449
vt 0.6111 0.9592
vt 0.6667 0.551
vt 0.6667 0.5714
vt 0.625 0.5714
vt 0.7361 0.5918
vt 0.3403 0.7143
vt 0.3507 0.5714
vt 0.3854 0.5714
vt 0.6285 0.5714
vt 0.6632 0.5714
vt 0.6736 0.7143
vt 0.1396 0.2245
vt 0.6944 0.7143
vt 0.3472 0.0816
vt 0.3465 0.1224
vt 0.6042 0.2245
vt 0.1354 0.1633
vt 0.1076 0.1633
vt -0 1
vt 0 0.8367
vt 0.4167 0.2653
vt 0.3819 0.2653
vt 0.6944 0.898
vt 0.2396 0.1633
vt 0.2118 0.1633
vt 0.209 0.1224
vt 0.1035 0.3061
vt 0.0701 0.3061
vt 0.0694 0.2653
vt 0.1389 1
vt 0.2424 0.1224
vt 0.4597 0.0204
vt 0.5403 0
vt 0.3889 0.7551
vt 0.3472 0.7551
vt 0.3472 0.7347
vt 0.5069 0.7143
vt 0.5174 0.5714
vt 0.5521 0.5714
vt 0.7361 0.2041
vt 0.4618 0.5714
vt 0.4965 0.5714
vt 0.4618 0.7551
vt 0.4965 0.7551
vt 0.8906 0.9388
vt 0.4653 0.2245
vt 0.9444 0.2449
vt 0.3056 1
vt 0.3333 0.8367
vt 0.875 0.1837
vt 0.0556 1
vt 0.5972 0.102
vt 0.5903 0.102
vt 0.2222 0.6735
vt 0.3889 1
vt 1 1
vt 0.875 0.2449
vt 0.5556 1
vt 0.4444 0.551
vt 0.7778 0.9592
vt 0.4514 0.7143
vt 0.9427 0.9388
vt 0.5521 0.9184
vt 0.559 0.9184
vt 0.625 0.7347
vt 0.8854 0.9184
vt 0.7743 0.9184
vt 0.7812 0.9184
vt 0.3889 0.551
vt 0.6542 0
vt 0.9479 0.9184
vt 0.3854 0.9184
vt 0.3403 0.898
vt 0.5625 0.898
vt 0.4514 0.7143
vt 0.5625 0.7143
vt 0.5625 0.898
vt 0.5139 0.7347
vt 0.5 0.7347
vt 0.7188 0.9184
vt 0.349 0.3941
vt 0.4479 0.9184
vt 0.5139 0.551
vt 0.5694 0.551
vt 0.625 0.551
vt 0.3889 0.7347
vt 0.4583 0.5714
vt 0.3125 0.0816
vt 0.3132 0.0408
vt 0.4306 0.0408
vt 0.4569 0.0204
vt 0.1007 0.3469
vt 0.0729 0.3469
vt 0.034 0.1224
vt 0.0007 0.1224
vt 0.2076 0.1224
vt 0.2049 0.1633
vt 0.1771 0.1633
vt 0.5139 0.5306
vt 0.1035 0.2245
vt 0.066 0.1633
vt 0.0382 0.1633
vt 0.1049 0.0408
vt 0.9849 0.4289
vt 0.9849 0.7548
vt 0.7929 0.7548
vt 0.7929 0.4289
vt 0.5958 0
vt 0.5694 0.0204
vt 0.1354 -0
vt 0.1382 0.0408
vt 0.3333 0.3878
vt 0.7014 0.7143
vt 0.4444 0.102
vt 0.5556 0.102
vt 0.9375 0.0816
vt 0.6806 0.7143
vt 0.5208 0.102
vt 0.4931 0.2245
vt 0.8056 0.0816
vt 0.6736 0.2041
vt 0.4444 0.7347
vt 0.5694 0.7347
vt 0.941 0.9184
vt 0.8924 0.9184
vt 0.25 0.5918
vt 0.6319 0.102
vt 0.7222 1
vt 0.4306 0.102
vt 0.1111 0.3878
vt 0.1389 0.5918
vt 0.416 0.0408
vt 0.3854 -0
vt 0.1701 -0
vt 0.1729 0.0408
vt 0.1396 0.0408
vt 0.7097 0.0204
vt 0.0312 0.1633
vt 0.0035 0.1633
vt 0.6819 0
vt 0.7639 0.0204
vt 0.7625 0
vt 0.7625 0.0204
vt 0.1354 0.1837
vt 0.1382 0.2245
vt 0.2396 -0
vt 0.209 0.0408
vt 0.3479 0.0408
vt 0.361 0.3737
vt 0.3749 0.3737
vt 0.3869 0.3941
vt 0.3939 0.4702
vt 0.3749 0.5259
vt 0.349 0.5055
vt 0.3421 0.4702
vt 0.3421 0.4294
vt 0.3118 0.2245
vt 0.3125 0.2653
vt 0.2778 0.2653
vt 0.1701 0.1837
vt 0.1729 0.2245
vt 0.5681 0
vt 0.5431 0
vt 0.3785 0.1837
vt 0.3812 0.2245
vt 0.3479 0.2245
vt 0.4847 0.0204
vt 0.6236 0
vt 0.5125 0
vt 0.6819 0.0204
vt 0.5431 0.0204
vt 0.5986 0.0204
vt 0.4319 0.0204
vt 0.5403 0.0204
vt 0.5153 0.0204
vt 0.3924 0.9184
vt 0.441 0.9184
vt 0.4875 0
vt 0.4597 0
vt 0.6632 0.9184
vt 0.6146 0.9184
vt 0.5708 0
vt 0.3507 0.1837
vt 0.7375 0
vt 0.7069 0
vt 0.7097 0
vt 0.4306 0.0204
vt 0.6181 0.102
vt 0.6111 0.102
vt 0.6181 0.2245
vt 0.2118 -0
vt 0.1007 -0
vt 0.1424 -0
vt 0.1743 0.1224
vt 0.1076 -0
vt 0.066 -0
vt 0.1424 0.1633
vt 0.0035 -0
vt 0 0.0816
vt 0.4132 -0
vt 0.3812 0.0408
vt 0.1424 0.3469
vt 0.3125 0.2653
vt 0.3465 0.0408
vt 0.316 0.1837
vt 0.2785 0.3061
vt 0.066 0.1837
vt 0.2743 -0
vt 0.2049 0.1837
vt 0.8472 0.1429
vt 0.5486 0.2041
vt 0.9792 0.2041
vt 0.7361 0.6939
vt 0.4132 0.1837
vt 0.2049 -0
vt 0.2785 0.2245
vt 0.1424 0.1837
vt 0.1076 0.1837
vt 0.0701 0.2245
vt 0.0688 0.3061
vt 0.0382 0.3469
vt 0.0354 0.3061
vt 0.3785 -0
vt 0.3507 -0
vt 0.0007 0.3061
vt -0 0.2653
vt 0.0312 0.3469
vt 0.034 0.3061
vt 0.0312 0.1837
vt 0.0007 0.2245
vt 0.0035 0.1837
vt 0.3118 0.0408
vt 0.2812 -0
vt 0.309 -0
vt 0.416 0.3061
vt 0.3854 0.3469
vt 0.3826 0.3061
vt 0.2771 0.2245
vt 0.2465 0.1837
vt 0.2743 0.1837
vt 0.2465 0.1633
vt 0.2771 0.3061
vt 0.2431 0.2653
vt 0.3118 0.1224
vt 0.2812 0.1837
vt 0.309 0.1837
vt 0.2812 0.1633
vt 0.2785 0.1224
vt 0.2785 0.0408
vt 0.3438 -0
vt 0.316 -0
vt 0.0729 0.1837
vt 0.1007 0.1837
vt 0.2465 0.3469
vt 0.2437 0.3061
vt 0.3785 0.3469
vt 0.2437 0.2245
vt 0.209 0.3061
vt 0.2396 0.3469
vt 0.2424 0.3061
vt 0.2396 0.1837
vt 0.209 0.2245
vt 0.2118 0.1837
vt 0.9792 0.2449
vt 0.4306 0.2245
vt 0.6111 0.2041
vt 0.066 0.3469
vt 0.0035 0.3469
vt 0.034 0.2245
vt 0.4132 0.3469
vt 0.2743 0.1633
vt 0.309 0.1633
vt 0.2743 0.3469
vt 0.3507 0.3469
vt 0.2118 0.3469
vt 0.2424 0.2245
s 1
f 246/66 243/67 244/68
f 122/69 113/70 114/71
f 536/72 533/73 534/74
f 182/75 173/76 174/77
f 82/78 79/79 80/80
f 142/81 139/82 140/83
f 80/80 77/84 78/85
f 229/86 236/87 228/88
f 75/89 91/90 90/91
f 90/92 99/93 98/89
f 187/94 203/95 202/96
f 191/97 205/98 204/99
f 73/100 96/101 87/102
s 0
f 73/93 90/101 89/90
s 1
f 413/103 428/104 427/105
f 77/106 92/91 91/107
f 83/108 93/109 81/110
f 496/111 503/112 495/113
f 262/114 269/115 261/116
f 203/117 212/94 211/118
s 0
f 89/119 98/102 97/93
s 1
f 89/120 104/102 96/121
f 91/122 100/89 99/106
f 94/123 101/110 93/124
f 426/125 435/126 434/127
f 105/128 120/129 112/130
f 98/131 107/119 106/92
f 212/132 221/117 220/133
f 327/134 334/135 326/136
s 0
f 97/137 106/121 105/119
s 1
f 97/138 112/121 104/129
f 99/139 108/92 107/122
f 102/140 109/124 101/141
f 236/87 227/142 228/88
f 107/143 116/131 115/139
f 110/144 117/141 109/145
f 112/146 119/138 111/128
f 167/147 174/148 166/149
f 164/150 173/151 172/152
f 223/153 230/154 222/155
s 0
f 105/156 114/129 113/137
s 1
f 470/157 467/158 468/159
f 234/160 225/161 226/162
f 451/163 458/164 450/165
f 474/166 471/167 472/168
f 534/74 531/169 532/170
f 134/171 131/172 132/173
f 468/159 465/174 466/175
f 943/176 622/177 942/178
f 240/179 231/180 232/181
f 930/182 626/183 625/184
f 128/185 119/186 120/187
f 132/173 129/188 130/189
f 124/190 115/191 116/192
f 136/193 133/194 134/171
f 532/170 529/195 530/196
f 299/197 315/198 314/199
f 482/200 491/201 490/202
f 255/203 263/204 253/205
f 135/206 149/207 148/208
f 129/209 152/210 143/211
s 0
f 131/211 145/212 129/213
s 1
f 143/214 151/215 141/209
f 477/216 486/217 475/218
f 471/219 485/220 484/221
f 160/148 167/222 159/223
f 260/224 269/225 268/226
f 432/227 439/228 431/229
s 0
f 145/230 154/211 153/213
s 1
f 145/222 160/211 152/231
f 487/232 494/218 486/233
f 150/234 157/235 149/236
f 202/237 211/238 210/94
f 168/239 169/223 176/240
f 266/241 275/242 274/243
f 214/244 221/245 213/246
f 210/247 219/248 218/237
s 0
f 153/249 162/231 161/230
s 1
f 153/223 168/231 160/240
f 211/250 220/237 219/117
f 270/251 277/116 269/252
f 84/253 81/254 82/255
f 498/256 507/257 506/258
f 278/259 285/252 277/260
f 336/261 343/262 335/263
f 442/264 451/265 450/266
f 500/267 509/268 508/269
f 224/155 231/270 223/271
s 0
f 161/272 170/240 169/249
s 1
f 505/273 520/274 512/275
f 509/276 516/277 508/278
f 172/279 179/280 171/281
f 506/282 515/283 514/284
f 755/285 754/286 753/287
f 296/288 287/289 288/290
f 181/291 172/279 173/76
f 140/83 137/292 138/293
f 244/68 241/294 242/295
f 629/296 616/297 605/298
f 944/299 623/300 943/176
f 638/301 613/302 614/303
f 200/304 197/305 198/306
f 788/296 785/307 786/308
f 196/309 193/310 194/311
f 133/312 148/313 147/207
f 315/314 324/197 323/315
f 199/316 207/317 197/318
f 363/319 373/320 361/321
f 185/318 208/322 199/323
s 0
f 185/238 202/322 201/95
s 1
f 197/324 206/325 195/316
f 85/110 94/326 83/327
f 195/328 205/329 193/324
f 104/330 111/120 103/138
f 204/133 213/118 212/97
f 488/233 495/331 487/112
s 0
f 201/248 210/323 209/238
s 1
f 208/332 209/318 216/323
f 370/333 379/334 378/335
f 374/336 381/321 373/337
f 314/338 323/339 322/197
f 224/340 225/270 232/341
f 439/342 446/227 438/343
f 438/344 445/345 437/342
f 103/141 110/346 102/330
s 0
f 210/341 217/248 209/347
s 1
f 209/270 224/332 216/341
f 328/136 335/348 327/262
f 158/349 165/236 157/350
f 351/351 342/352 343/353
f 219/354 228/247 227/250
f 222/355 229/246 221/153
f 106/356 115/137 114/131
f 218/357 227/347 226/247
f 446/358 453/342 445/359
f 443/360 452/266 451/361
s 0
f 217/362 226/341 225/347
s 1
f 341/363 348/364 340/365
f 457/366 456/367 449/368
f 308/369 305/370 306/371
f 460/372 451/163 452/373
f 86/374 83/375 84/253
f 225/376 240/179 232/181
f 929/377 628/378 937/379
f 78/85 75/380 76/381
f 121/382 120/187 113/383
f 637/384 612/385 613/302
f 127/386 118/387 119/186
f 192/388 189/389 190/390
f 76/381 73/391 74/392
f 340/365 347/393 339/394
f 248/395 245/396 246/66
f 243/397 259/398 258/399
f 431/345 438/400 430/227
f 411/127 427/401 426/104
f 139/402 149/403 137/235
f 241/205 264/404 255/405
s 0
f 241/406 258/404 257/398
s 1
f 467/202 483/407 482/408
f 421/409 430/410 419/400
f 475/411 485/412 473/216
f 434/266 443/413 442/125
f 156/152 165/414 164/415
f 375/337 382/416 374/417
s 0
f 257/242 266/405 265/406
s 1
f 264/418 265/205 272/405
f 152/419 159/209 151/222
f 316/420 325/315 324/421
f 547/422 582/423 546/424
f 273/425 288/426 280/427
f 490/258 499/428 498/200
f 268/429 277/430 276/224
f 491/268 500/200 499/431
s 0
f 265/432 274/418 273/242
s 1
f 272/426 273/433 280/418
f 272/434 279/433 271/435
f 494/436 501/232 493/437
f 744/438 741/439 743/440
f 504/441 511/113 503/442
f 220/443 229/250 228/132
f 280/444 287/435 279/425
f 168/149 175/223 167/445
f 444/446 453/361 452/447
f 392/448 399/449 391/450
s 0
f 273/451 282/426 281/432
s 1
f 393/452 408/453 400/454
f 396/455 403/456 395/457
f 359/458 373/459 372/460
f 399/461 406/462 398/463
f 281/464 296/288 288/290
f 291/465 282/466 283/467
f 284/468 291/465 283/467
f 298/469 311/470 312/471
f 312/471 309/472 310/473
f 472/168 469/474 470/157
f 118/387 125/475 117/476
f 338/477 345/478 337/479
f 130/189 143/480 144/481
f 186/482 199/483 200/304
f 394/484 401/485 393/486
f 355/335 371/487 370/488
f 96/346 103/100 95/120
f 311/489 319/490 309/491
f 303/421 317/492 316/493
f 297/491 320/494 311/495
s 0
f 297/339 314/494 313/198
s 1
f 309/496 318/497 307/489
f 357/498 372/488 371/459
f 419/499 429/500 417/409
f 378/501 387/502 386/333
f 206/503 213/324 205/245
f 319/504 326/489 318/135
s 0
f 313/505 322/495 321/339
s 1
f 320/506 321/491 328/495
f 151/236 158/214 150/419
f 318/507 325/496 317/504
f 371/508 380/335 379/498
f 329/263 344/509 336/510
f 322/511 331/505 330/338
f 324/512 333/314 332/420
f 215/246 222/513 214/154
s 0
f 321/514 330/506 329/505
s 1
f 328/509 329/348 336/506
f 323/515 332/338 331/314
f 436/447 445/516 444/517
f 462/518 453/519 454/520
f 331/521 340/511 339/515
f 334/522 341/134 333/523
f 448/524 455/525 447/526
f 330/527 339/514 338/511
f 276/528 285/529 284/429
f 279/260 286/434 278/444
s 0
f 330/510 337/514 329/530
s 1
f 633/531 608/532 609/533
f 422/534 419/535 420/536
f 356/537 353/538 354/539
f 542/540 539/541 540/542
f 304/543 301/544 302/545
f 235/546 226/162 227/142
f 242/295 255/547 256/548
f 350/549 341/363 342/352
f 362/550 359/551 360/552
f 934/553 620/554 619/555
f 747/556 746/439 745/557
f 144/481 141/558 142/81
f 138/559 135/560 136/193
f 347/393 338/477 339/394
f 306/561 303/562 304/543
f 131/563 147/212 146/313
f 483/431 492/202 491/564
f 423/400 431/565 421/228
f 251/566 261/567 249/115
f 353/568 376/569 367/570
s 0
f 353/334 370/569 369/487
s 1
f 245/225 260/399 259/571
f 87/327 95/572 85/100
f 247/226 261/571 260/573
f 383/574 390/417 382/575
f 92/576 101/106 100/577
f 320/135 327/491 319/348
s 0
f 369/502 378/570 377/334
s 1
f 376/578 377/568 384/570
f 147/414 156/563 155/312
f 486/579 493/216 485/232
f 264/580 271/205 263/433
f 386/581 393/582 385/583
f 379/584 388/333 387/508
f 326/585 333/504 325/134
f 271/252 278/580 270/434
s 0
f 377/582 386/578 385/502
s 1
f 384/586 385/587 392/578
f 495/437 502/233 494/111
f 492/269 501/431 500/588
f 403/456 394/484 395/457
f 274/589 283/432 282/241
f 108/590 117/139 116/591
f 391/592 398/575 390/448
f 386/593 395/582 394/501
f 900/594 894/595 899/596
f 162/597 171/249 170/598
f 945/599 939/600 940/601
f 287/289 294/602 286/603
f 282/466 289/604 281/605
f 408/453 399/461 400/454
f 175/606 184/607 183/608
f 285/609 294/602 293/610
f 170/611 177/612 169/613
f 169/614 184/607 176/615
f 364/616 361/617 362/618
f 366/619 363/620 364/616
f 345/621 344/622 337/623
f 352/624 343/353 344/622
f 412/625 409/626 410/627
f 194/628 191/629 192/388
f 420/536 417/630 418/631
f 125/475 116/192 117/476
f 479/218 487/632 477/331
f 263/116 270/203 262/580
f 207/245 214/316 206/513
f 484/588 493/564 492/219
f 409/228 432/633 423/634
s 0
f 409/126 426/633 425/401
s 1
f 253/115 262/635 251/203
f 469/564 484/408 483/220
f 79/577 93/107 92/636
f 503/637 510/111 502/441
f 372/638 381/498 380/458
f 208/513 215/318 207/639
s 0
f 425/413 434/634 433/126
s 1
f 425/229 440/634 432/640
f 95/124 102/327 94/346
f 148/415 157/312 156/206
f 427/516 436/127 435/103
f 441/526 456/641 448/642
f 267/529 276/243 275/430
f 382/643 389/337 381/574
f 384/575 391/587 383/449
s 0
f 433/265 442/640 441/413
s 1
f 440/641 441/229 448/640
f 440/343 447/229 439/525
f 332/644 341/515 340/512
f 634/645 609/533 610/646
f 499/647 508/258 507/268
f 166/648 173/350 165/147
f 678/365 702/649 701/650
f 275/651 284/241 283/529
f 388/652 397/584 396/653
f 163/654 172/598 171/151
s 0
f 441/655 450/641 449/265
s 1
f 414/656 411/657 412/625
f 252/658 249/659 250/660
f 461/661 452/373 453/519
f 418/662 415/663 416/664
f 424/665 421/666 422/534
f 310/473 307/667 308/369
f 88/668 85/669 86/374
f 230/670 237/671 229/86
f 937/379 627/672 935/673
f 416/664 413/674 414/656
f 464/675 455/676 456/367
f 630/677 605/298 606/678
f 781/308 784/679 783/296
f 608/680 631/681 607/682
f 804/683 801/287 802/286
f 367/416 375/684 365/568
f 376/417 383/568 375/587
f 141/235 150/685 139/214
f 415/686 429/105 428/687
f 465/331 488/688 479/689
f 465/201 482/688 481/407
f 301/315 316/199 315/492
f 365/321 374/690 363/416
f 307/691 317/692 305/496
f 154/598 163/230 162/693
f 428/517 437/103 436/686
f 146/693 155/213 154/563
s 0
f 481/428 490/689 489/201
s 1
f 481/112 496/689 488/694
f 259/430 268/397 267/225
f 430/695 437/409 429/345
f 258/243 267/406 266/397
f 497/442 512/696 504/697
f 435/361 444/125 443/516
f 380/653 389/508 388/638
f 155/151 164/693 163/414
s 0
f 489/257 498/694 497/428
s 1
f 496/696 497/112 504/694
f 216/154 223/639 215/270
f 100/591 109/122 108/576
f 509/276 518/698 517/699
f 447/359 454/343 446/524
f 502/700 509/437 501/637
f 387/701 396/501 395/584
f 111/145 118/330 110/146
f 390/702 397/574 389/592
f 335/523 342/136 334/261
s 0
f 498/697 505/257 497/703
s 1
f 405/704 396/455 397/705
f 505/706 514/284 513/707
f 508/278 515/283 507/708
f 511/709 518/698 510/710
f 520/274 511/709 512/275
f 175/606 182/75 174/77
f 800/556 797/711 798/557
f 861/712 856/713 855/714
f 843/715 839/716 834/717
f 777/718 778/719 780/720
f 685/387 684/71 708/721
f 648/722 672/723 671/724
f 809/725 864/726 868/727
f 739/438 740/296 738/308
f 891/728 886/729 885/730
f 79/577 81/106 93/107
f 495/437 503/232 502/233
f 469/564 471/202 484/408
f 574/731 586/732 587/733
s 0
f 73/100 89/572 96/101
s 1
f 73/93 75/102 90/101
f 499/647 500/256 508/258
f 166/648 174/349 173/350
f 573/734 585/735 586/736
f 338/477 346/737 345/478
f 564/738 565/739 553/740
f 287/289 295/741 294/602
f 89/119 90/121 98/102
s 0
f 89/120 97/100 104/102
s 1
f 282/466 290/742 289/604
f 551/743 563/744 564/745
f 271/252 279/116 278/580
s 0
f 105/128 113/138 120/129
s 1
f 130/189 129/188 143/480
f 561/746 560/747 527/748
f 322/511 323/514 331/505
f 97/137 98/129 106/121
s 0
f 97/138 105/120 112/121
s 1
f 324/512 325/515 333/314
f 159/350 167/236 166/419
f 850/749 845/750 844/751
f 494/436 502/579 501/232
f 934/553 619/555 618/752
f 375/337 383/321 382/416
f 156/152 157/151 165/414
f 524/753 523/754 521/755
f 272/434 280/580 279/433
f 105/156 106/130 114/129
f 828/756 824/757 819/758
f 903/759 899/596 894/595
f 717/760 719/301 720/761
f 925/762 920/763 919/764
f 829/765 834/717 835/766
f 853/767 848/768 847/769
f 848/770 844/751 839/716
f 733/308 735/296 736/679
f 883/771 878/772 877/773
f 668/774 656/775 655/776
f 823/777 818/778 817/779
f 774/780 776/781 775/720
f 864/726 865/782 860/783
f 665/774 667/784 655/785
f 922/786 923/787 918/788
f 263/116 271/115 270/203
f 251/566 262/789 261/567
f 345/621 352/624 344/622
f 581/790 582/791 570/792
s 0
f 129/209 145/215 152/210
s 1
f 131/211 146/210 145/212
f 207/245 215/324 214/316
f 208/513 216/316 215/318
f 580/793 592/794 581/795
f 399/461 407/796 406/462
f 584/797 583/798 547/422
f 247/226 249/225 261/571
f 145/230 146/231 154/211
s 0
f 145/222 153/209 160/211
s 1
f 147/414 148/693 156/563
f 592/799 591/800 555/801
f 391/592 399/574 398/575
s 0
f 168/239 161/445 169/223
s 1
f 359/458 361/498 373/459
f 525/802 559/803 558/804
f 394/484 402/805 401/485
f 153/249 154/240 162/231
s 0
f 153/223 161/222 168/231
s 1
f 323/515 324/511 332/338
f 578/806 590/807 591/808
f 712/809 688/142 687/622
f 434/266 435/265 443/413
f 250/810 249/811 247/812
f 467/202 469/201 483/407
f 637/384 636/813 612/385
f 254/814 253/815 251/816
f 547/422 583/817 582/423
f 161/272 162/239 170/240
f 935/673 627/672 626/183
f 612/818 624/819 625/820
f 606/818 618/819 619/820
f 256/548 255/547 253/815
f 651/622 652/142 676/809
f 932/821 618/752 617/822
f 613/818 625/819 626/820
f 889/823 884/824 888/825
f 843/715 838/826 837/827
f 478/828 477/829 475/830
f 817/831 818/832 813/833
f 687/180 686/142 710/834
f 635/683 634/645 610/646
f 466/175 465/174 479/835
f 651/180 675/836 674/834
f 484/588 485/431 493/564
f 386/581 394/586 393/582
f 253/115 263/567 262/635
f 632/837 634/838 636/839
s 0
f 185/318 201/317 208/322
s 1
f 185/238 187/323 202/322
f 275/651 276/589 284/241
f 678/365 677/368 702/649
f 545/840 557/841 558/842
f 186/482 185/843 199/483
f 548/844 560/747 561/746
f 945/599 941/845 939/600
f 201/248 202/332 210/323
s 0
f 208/332 201/639 209/318
s 1
f 170/611 178/846 177/612
f 696/847 708/848 707/849
f 108/590 109/143 117/139
s 0
f 224/340 217/271 225/270
s 1
f 309/496 319/692 318/497
f 567/850 566/851 539/541
f 215/246 223/245 222/513
f 210/341 218/332 217/248
s 0
f 209/270 217/639 224/332
s 1
f 151/236 159/235 158/214
f 537/852 565/739 564/738
f 866/853 861/854 860/783
f 491/268 492/258 500/200
f 522/855 521/755 543/856
f 152/419 160/214 159/209
f 316/420 317/314 325/315
f 476/857 475/830 473/858
f 268/429 269/529 277/430
f 217/362 218/340 226/341
f 810/859 811/860 866/861
f 825/862 820/863 819/758
f 765/760 766/864 768/761
f 853/767 849/865 844/751
f 903/759 898/866 897/867
f 890/868 895/869 896/870
f 828/756 823/871 822/872
f 873/873 928/874 927/875
f 919/764 920/876 915/877
f 406/462 405/704 397/705
f 694/878 706/879 705/880
f 770/760 772/301 771/781
f 921/881 916/882 915/877
f 751/883 752/556 750/557
f 731/679 732/720 730/719
f 366/619 365/884 363/620
f 175/606 176/615 184/607
f 364/616 363/620 361/617
f 565/885 566/886 554/887
s 0
f 241/205 257/204 264/404
s 1
f 241/406 243/405 258/404
f 148/415 149/414 157/312
f 332/644 333/521 341/515
f 623/819 624/820 612/888
f 396/455 404/889 403/456
f 562/890 563/891 551/892
f 92/576 93/122 101/106
f 257/242 258/418 266/405
s 0
f 264/418 257/433 265/205
s 1
f 245/225 247/397 260/399
f 607/818 619/819 620/820
f 483/431 484/200 492/202
s 0
f 273/425 281/435 288/426
s 1
f 291/465 290/742 282/466
f 555/893 567/894 568/895
f 96/346 104/327 103/100
f 265/432 266/426 274/418
s 0
f 272/426 265/435 273/433
s 1
f 284/468 292/896 291/465
f 568/897 557/898 545/899
f 617/819 618/820 606/888
f 504/441 512/111 511/113
f 588/900 589/901 577/902
f 192/388 191/629 189/389
f 127/386 126/903 118/387
f 368/904 367/905 365/884
f 243/397 245/406 259/398
f 273/451 274/427 282/426
f 302/545 301/544 299/906
f 579/907 591/908 592/909
f 540/910 538/911 931/912
f 188/913 187/914 185/843
f 616/818 628/819 617/820
f 528/915 526/916 941/845
f 522/917 542/918 939/600
f 645/919 646/920 670/921
f 646/722 647/919 671/922
f 593/923 929/377 937/379
f 829/765 830/924 825/925
f 725/719 727/720 728/781
f 915/926 916/927 911/928
f 649/387 673/929 672/721
f 649/180 650/71 674/930
f 125/475 124/190 116/192
f 492/269 493/268 501/431
f 479/218 488/217 487/632
f 545/931 581/932 592/933
s 0
f 297/491 313/490 320/494
s 1
f 297/339 299/495 314/494
f 382/643 390/336 389/337
f 267/529 268/241 276/243
f 586/934 585/935 549/936
f 206/503 214/328 213/324
f 559/937 560/938 548/939
f 264/580 272/203 271/205
f 313/505 314/506 322/495
s 0
f 320/506 313/348 321/491
s 1
f 486/579 494/411 493/216
f 385/450 393/449 400/586
f 274/589 275/451 283/432
s 0
f 329/263 337/262 344/509
s 1
f 319/504 327/496 326/489
f 539/541 566/886 565/885
f 318/507 326/691 325/496
f 321/514 322/509 330/506
s 0
f 328/509 321/262 329/348
s 1
f 371/508 372/333 380/335
f 553/940 589/941 588/942
f 595/943 934/553 932/821
f 280/444 288/434 287/435
f 354/539 353/538 367/905
f 411/127 413/126 427/401
f 139/402 150/944 149/403
f 607/682 631/681 630/677
f 220/443 221/354 229/250
f 330/510 338/509 337/514
f 819/758 820/945 815/946
f 809/725 810/859 865/947
f 762/948 764/949 763/761
f 889/823 890/950 885/730
f 599/951 943/176 942/178
f 284/468 285/609 293/610
f 639/952 638/301 614/303
f 601/953 930/182 944/299
f 673/849 661/954 660/955
f 681/956 680/920 704/957
f 702/958 712/959 700/960
f 710/961 709/962 697/963
f 830/964 835/766 836/965
f 796/440 795/556 793/557
f 900/594 901/966 896/967
f 352/624 351/351 343/353
f 900/594 895/968 894/595
f 420/536 419/535 417/630
f 609/818 621/819 622/820
s 0
f 353/568 369/684 376/569
s 1
f 353/334 355/570 370/569
f 427/516 428/125 436/127
f 503/637 511/437 510/111
f 576/969 575/970 587/971
f 378/501 379/582 387/502
f 589/972 590/973 578/974
f 403/456 402/805 394/484
f 369/502 370/578 378/570
s 0
f 376/578 369/587 377/568
s 1
f 383/574 391/337 390/417
f 591/975 590/976 554/977
f 285/609 286/603 294/602
f 530/978 941/845 945/599
f 312/471 311/470 309/472
f 558/842 557/841 521/755
f 298/469 297/979 311/470
f 377/582 378/586 386/578
s 0
f 384/586 377/449 385/587
s 1
f 419/499 430/980 429/500
f 533/73 563/891 562/890
f 938/981 621/982 620/983
f 76/381 75/380 73/391
f 528/984 527/985 525/802
f 340/365 348/364 347/393
f 248/395 247/812 245/396
f 800/556 799/883 797/711
f 421/409 431/500 430/410
f 940/601 939/600 542/918
f 74/392 73/391 87/986
f 538/911 534/987 940/601
f 942/178 622/177 621/982
f 463/988 462/518 454/520
f 612/385 636/813 635/683
f 582/989 583/990 571/991
f 684/722 683/387 707/724
f 598/992 942/178 938/981
f 883/771 879/993 874/994
f 600/995 944/299 943/176
f 825/862 826/996 821/997
f 601/953 602/998 933/999
f 813/833 818/832 814/1000
f 604/1001 937/379 935/673
f 818/778 823/777 819/1002
f 194/628 193/1003 191/629
f 87/327 96/326 95/572
f 169/614 177/1004 184/607
f 541/1005 543/856 568/895
s 0
f 409/228 425/565 432/633
s 1
f 409/126 411/634 426/633
f 634/645 633/531 609/533
f 440/343 448/227 447/229
f 572/1006 584/1007 585/1008
f 393/452 401/1009 408/453
f 554/1010 590/1011 589/1012
f 379/584 380/501 388/333
f 425/413 426/640 434/634
s 0
f 425/229 433/228 440/634
s 1
f 408/453 407/796 399/461
f 585/1013 584/1014 548/1015
f 326/585 334/507 333/504
s 0
f 441/526 449/525 456/641
s 1
f 311/489 320/497 319/490
f 527/985 560/938 559/937
f 472/168 471/167 469/474
f 433/265 434/641 442/640
s 0
f 440/641 433/525 441/229
s 1
f 303/421 305/315 317/492
f 564/745 563/744 533/73
f 894/595 889/823 893/1016
f 444/446 445/360 453/361
f 360/552 359/551 357/1017
f 121/382 128/185 120/187
f 431/345 439/409 438/400
f 530/196 529/195 527/748
f 490/258 491/257 499/428
f 441/655 442/642 450/641
f 859/1018 860/1019 855/714
f 198/306 197/305 195/1020
f 808/285 807/949 805/948
f 831/1021 826/1022 825/925
f 595/943 596/1023 936/1024
f 873/873 869/1025 924/1026
f 356/537 358/1027 357/1017
f 846/1028 841/1029 840/1030
f 885/1031 880/1032 879/1033
f 603/1034 935/673 933/999
f 845/1035 840/1030 839/716
f 894/595 895/869 890/868
f 679/368 678/519 701/1036
f 709/849 708/961 696/955
f 666/958 654/1037 664/960
f 412/625 411/657 409/626
f 162/597 163/272 171/249
f 95/124 103/110 102/327
f 583/1038 584/1039 572/1040
f 465/331 481/632 488/688
f 465/201 467/689 482/688
f 384/575 392/417 391/587
f 372/638 373/508 381/498
f 551/1041 587/1042 586/1043
f 281/464 289/1044 296/288
f 588/1045 587/1046 551/1041
f 386/593 387/583 395/582
f 481/428 482/694 490/689
s 0
f 481/112 489/331 496/689
s 1
f 320/135 328/489 327/491
f 582/1047 581/1048 545/931
f 423/400 432/410 431/565
s 0
f 497/442 505/113 512/696
s 1
f 118/387 126/903 125/475
f 521/755 557/898 568/897
f 355/335 357/334 371/487
f 489/257 490/696 498/694
s 0
f 496/696 489/113 497/112
s 1
f 357/498 359/335 372/488
f 529/195 531/169 562/1049
f 410/627 409/626 423/1050
f 392/448 400/575 399/449
f 534/987 530/978 945/599
f 475/411 486/1051 485/412
f 744/438 742/307 741/439
f 940/601 534/987 945/599
f 168/149 176/148 175/223
f 498/697 506/696 505/257
f 597/1052 938/981 936/1053
f 610/818 622/819 623/820
f 478/828 480/1054 479/835
f 594/1055 932/821 929/377
f 239/1056 238/1057 230/670
f 930/182 625/184 624/1058
f 626/819 627/820 615/888
f 254/814 251/816 252/658
f 360/552 357/1017 358/1027
f 368/904 365/884 366/619
f 250/810 247/812 248/395
f 524/753 521/755 522/855
f 934/553 618/752 932/821
f 528/984 525/802 526/1059
f 530/196 527/748 528/1060
f 476/857 473/858 474/1061
f 522/855 543/856 544/1062
f 588/900 577/902 576/1063
f 607/682 630/677 606/678
f 354/539 367/905 368/904
f 564/745 533/73 535/1064
f 553/940 588/942 552/1065
f 539/541 565/885 537/852
f 558/842 521/755 523/754
f 527/985 559/937 525/802
f 567/850 539/541 541/1005
f 525/802 558/804 523/754
f 537/852 564/738 535/1064
f 561/746 527/748 529/195
f 159/350 166/419 158/148
f 529/195 562/1049 561/1066
f 533/73 562/890 531/169
f 521/755 568/897 543/856
f 568/897 545/899 556/1067
f 555/893 568/895 556/1068
f 578/806 591/808 579/1069
f 562/890 551/892 550/1070
f 564/738 553/740 552/1071
f 551/743 564/745 552/1072
f 589/972 578/974 577/1073
f 696/847 707/849 695/1074
f 548/844 561/746 549/1075
f 559/937 548/939 547/1076
f 385/450 400/586 392/581
f 607/818 620/820 608/888
f 584/797 547/422 548/1077
f 592/799 555/801 556/1078
f 585/1013 548/1015 549/936
f 588/1045 551/1041 552/1079
f 591/975 554/977 555/801
f 554/1010 589/1012 553/940
f 582/1047 545/931 546/424
f 541/1005 568/895 567/894
f 586/934 549/936 550/1080
f 545/931 592/933 556/1081
f 551/1041 586/1043 550/1080
f 580/793 581/795 569/1082
f 581/790 570/792 569/1083
f 565/885 554/887 553/1084
f 609/818 622/820 610/888
f 632/837 636/839 640/1085
f 545/840 558/842 546/1086
f 574/731 587/733 575/1087
f 573/734 586/736 574/1088
f 572/1006 585/1008 573/1089
f 583/1038 572/1040 571/1090
f 623/819 612/888 611/818
f 576/969 587/971 588/1091
f 859/1018 854/1092 858/1093
f 643/1094 644/519 668/1095
f 760/285 758/287 757/948
f 885/1031 886/1096 881/1097
f 814/1000 815/1098 810/1099
f 840/1100 841/1101 836/1102
f 300/1103 299/906 297/979
f 888/1104 884/824 879/1033
f 820/945 821/1105 816/1106
f 829/765 824/757 828/1107
f 526/916 524/1108 522/917
f 522/917 544/1109 542/918
f 540/910 931/912 542/918
f 538/911 536/1110 534/987
f 534/987 532/1111 530/978
f 528/915 941/845 530/978
f 522/917 939/600 526/916
f 538/911 940/601 931/912
f 110/144 118/140 117/141
f 699/1112 711/962 710/1113
f 832/1114 833/1115 828/1107
f 633/531 632/1116 608/532
f 347/393 346/737 338/477
f 462/518 461/661 453/519
f 330/527 331/530 339/514
f 448/524 456/343 455/525
f 334/522 342/585 341/134
f 542/540 541/1005 539/541
f 356/537 355/1117 353/538
f 331/521 332/527 340/511
f 436/447 437/361 445/516
f 422/534 421/666 419/535
f 279/260 287/252 286/434
f 276/528 277/651 285/529
f 187/94 189/238 203/95
f 597/1052 936/1053 596/984
f 468/159 467/158 465/174
f 451/163 459/1118 458/164
f 80/80 79/79 77/84
f 234/160 233/1119 225/161
f 470/157 469/474 467/158
f 142/81 141/558 139/82
f 474/166 473/1120 471/167
f 943/176 623/300 622/177
f 594/1055 929/377 593/923
f 90/92 91/119 99/93
f 362/550 361/1121 359/551
f 131/563 133/213 147/212
f 235/546 234/160 226/162
f 144/481 143/480 141/558
f 350/549 349/1122 341/363
f 242/295 241/294 255/547
f 747/556 748/440 746/439
f 304/543 303/562 301/544
f 306/561 305/1123 303/562
f 934/553 936/1024 620/554
f 138/559 137/1124 135/560
f 83/108 94/1125 93/109
f 496/111 504/233 503/112
f 534/74 533/73 531/169
f 164/150 165/654 173/151
f 236/87 235/546 227/142
f 191/97 193/118 205/98
f 413/103 415/127 428/104
f 107/143 108/356 116/131
f 223/153 231/246 230/154
f 134/171 133/194 131/172
f 203/117 204/237 212/94
f 77/106 79/89 92/91
f 239/1056 230/670 231/180
f 410/627 423/1050 424/665
f 935/673 626/183 933/999
f 930/182 624/1058 944/299
f 478/828 479/835 477/829
f 256/548 253/815 254/814
f 463/988 454/520 455/676
f 942/178 621/982 938/981
f 938/981 620/983 936/1053
f 302/545 299/906 300/1103
f 74/392 87/986 88/668
f 188/913 185/843 186/482
f 932/821 617/822 929/377
f 606/818 619/820 607/888
f 615/818 628/820 616/888
f 626/819 615/888 614/818
f 610/818 623/820 611/888
f 612/818 625/820 613/888
f 613/818 626/820 614/888
f 582/989 571/991 570/1126
f 939/600 941/845 526/916
f 579/907 592/909 580/1127
f 549/1128 562/1049 550/1129
f 620/819 609/888 608/818
f 617/819 606/888 605/818
f 616/818 617/820 605/888
f 612/385 635/683 611/1130
f 190/390 187/914 188/913
f 123/1131 114/71 115/191
f 540/542 537/852 538/1132
f 450/165 457/1133 449/1094
f 640/1134 615/1135 616/297
f 721/780 724/301 722/760
f 524/753 525/802 523/754
f 544/1062 541/1005 542/540
f 466/175 479/835 480/1054
f 635/683 610/646 611/1130
f 813/1136 868/727 867/1137
f 837/1138 838/1139 833/1140
f 682/920 681/919 705/1141
f 669/880 670/879 658/878
f 671/849 672/848 660/847
f 179/280 178/846 170/611
f 816/1142 811/1143 810/1099
f 707/880 706/848 694/1144
f 668/879 669/1145 657/1146
f 645/956 669/1147 668/957
f 892/1148 893/1149 888/825
f 847/1150 848/770 843/1151
f 864/726 859/1018 863/1152
f 327/134 335/504 334/135
f 212/132 213/250 221/117
f 75/89 77/93 91/90
f 426/125 427/413 435/126
f 167/147 175/350 174/148
f 94/123 102/108 101/110
f 262/114 270/566 269/115
f 112/146 120/330 119/138
f 91/122 92/92 100/89
f 229/86 237/671 236/87
f 98/131 99/137 107/119
f 99/139 100/131 108/92
f 640/1085 629/1153 630/1154
f 630/1154 631/1155 632/837
f 632/837 633/1156 634/838
f 634/838 635/1157 636/839
f 636/839 637/1158 638/1159
f 638/1159 639/1160 640/1085
f 640/1085 630/1154 632/837
f 102/140 110/123 109/124
f 636/839 638/1159 640/1085
f 693/1146 705/1145 704/879
f 918/1161 914/1162 909/1163
f 715/761 716/949 714/948
f 897/1164 898/1165 893/1016
f 792/438 791/440 789/439
f 676/1113 664/1166 663/1167
f 927/1168 928/1169 923/1170
f 643/368 667/1171 665/1036
f 674/961 662/1172 661/963
f 666/784 665/959 653/1173
f 642/365 665/650 666/649
f 707/922 682/722 706/1174
f 651/622 676/809 675/1175
f 685/387 708/721 709/929
f 648/722 671/724 647/387
f 712/809 687/622 711/1175
f 684/722 707/724 708/723
f 649/180 674/930 673/1176
f 645/919 670/921 669/1141
f 710/930 685/180 709/1176
f 704/1095 679/1094 703/1177
f 679/368 701/1036 703/1171
f 702/1178 688/365 712/1179
f 702/958 700/960 690/1037
f 673/849 660/955 672/961
f 558/804 547/1180 546/1181
f 689/1173 702/784 690/1182
f 691/785 701/774 689/1183
f 666/958 664/960 676/959
f 666/784 653/1173 654/1182
f 554/1184 567/850 555/1185
f 671/880 658/1144 670/848
f 704/774 691/776 692/775
f 712/1113 699/1167 700/1166
f 674/1113 663/1112 662/1186
f 652/365 666/1178 676/1179
f 927/1168 923/1170 922/1187
f 687/180 710/834 711/836
f 651/180 674/834 650/142
f 649/387 672/721 648/71
f 646/722 671/922 670/1174
f 645/956 668/957 644/920
f 682/920 705/1141 706/921
f 681/956 704/957 705/1147
f 643/1094 668/1095 667/1177
f 643/368 665/1036 642/519
f 642/365 666/649 641/368
f 693/1146 704/879 692/1188
f 676/1113 663/1167 675/958
f 699/1112 710/1113 698/1186
f 674/961 661/963 673/962
f 709/849 696/955 697/954
f 671/849 660/847 659/1074
f 707/880 694/1144 695/1189
f 669/880 658/878 657/1190
f 668/879 657/1146 656/1188
f 668/774 655/776 667/1191
f 665/774 655/785 653/1183
f 710/961 697/963 698/1172
f 86/374 85/669 83/375
f 374/336 382/319 381/321
f 158/349 166/234 165/236
f 341/363 349/1122 348/364
f 439/342 447/345 446/227
f 308/369 307/667 305/370
f 443/360 444/264 452/266
f 438/344 446/695 445/345
f 446/358 454/344 453/342
f 222/355 230/244 229/246
f 370/333 371/502 379/334
f 929/377 617/822 628/378
f 122/69 121/1192 113/70
f 930/182 933/999 626/183
f 598/992 938/981 597/1052
f 601/953 933/999 930/182
f 136/193 135/560 133/194
f 604/1001 935/673 603/1034
f 536/72 535/1064 533/73
f 240/179 239/1056 231/180
f 595/943 936/1024 934/553
f 542/918 931/912 940/601
f 132/173 131/172 129/188
f 595/943 932/821 594/1055
f 78/85 77/84 75/380
f 488/233 496/218 495/331
f 219/354 220/357 228/247
f 106/356 107/156 115/137
f 103/141 111/124 110/346
f 460/372 459/1118 451/163
f 457/366 464/675 456/367
f 328/136 336/135 335/348
f 218/357 219/362 227/347
f 351/351 350/549 342/352
f 314/338 315/505 323/339
f 225/376 233/1193 240/179
f 600/995 943/176 599/951
f 124/190 123/1131 115/191
f 603/1034 933/999 602/998
f 593/923 937/379 604/1001
f 299/197 301/339 315/198
f 182/75 181/291 173/76
f 82/78 81/1194 79/79
f 532/170 531/169 529/195
f 599/951 942/178 598/992
f 601/953 944/299 600/995
f 128/185 127/386 119/186
f 246/66 245/396 243/67
f 762/948 763/761 761/864
f 796/440 793/557 794/439
f 760/285 757/948 759/949
f 300/1103 297/979 298/469
f 777/718 780/720 779/679
f 739/438 738/308 737/307
f 356/537 357/1017 355/1117
f 792/438 789/439 790/307
f 478/828 475/830 476/857
f 770/760 771/781 769/780
f 198/306 195/1020 196/309
f 808/285 805/948 806/287
f 717/760 720/761 718/864
f 715/761 714/948 713/864
f 406/462 397/705 398/463
f 731/679 730/719 729/718
f 639/952 614/303 615/1135
f 725/719 728/781 726/780
f 765/760 768/761 767/301
f 284/468 293/610 292/896
f 751/883 750/557 749/711
f 179/280 170/611 171/281
f 733/308 736/679 734/718
f 774/780 775/720 773/719
f 721/780 723/781 724/301
f 450/165 458/164 457/1133
f 652/365 641/622 666/1178
f 710/930 686/71 685/180
f 671/880 659/1189 658/1144
f 689/1173 701/959 702/784
f 558/804 559/803 547/1180
f 620/819 621/820 609/888
f 702/1178 677/622 688/365
f 123/1131 122/69 114/71
f 707/922 683/919 682/722
f 674/1113 675/962 663/1112
f 640/1134 639/952 615/1135
f 524/753 526/1059 525/802
f 190/390 189/389 187/914
f 704/774 703/1191 691/776
f 554/1184 566/851 567/850
f 704/1095 680/519 679/1094
f 544/1062 543/856 541/1005
f 549/1128 561/1066 562/1049
f 540/542 539/541 537/852
f 615/818 627/819 628/820
f 691/785 703/784 701/774
f 712/1113 711/958 699/1167
f 889/823 888/825 893/1149
f 847/1150 843/1151 842/1195
f 828/756 822/872 827/1196
f 903/759 894/595 898/866
f 818/778 819/1002 814/1000
f 837/1138 833/1140 832/1197
f 840/1100 836/1102 835/1198
f 829/765 835/766 830/964
f 829/765 825/925 824/757
f 900/594 896/967 895/968
f 832/1114 828/1107 827/1199
f 829/765 828/1107 833/1115
f 889/823 885/730 884/824
f 825/862 821/997 820/863
f 831/1021 825/925 830/924
f 845/1035 839/716 844/751
f 925/762 919/764 924/1026
f 823/777 817/779 822/1200
f 830/964 836/965 831/1201
f 883/771 874/994 878/772
f 859/1018 855/714 854/1092
f 816/1142 810/1099 815/1098
f 817/831 813/833 812/1202
f 813/833 814/1000 809/1203
f 809/725 865/947 864/726
f 810/859 866/861 865/947
f 813/1136 867/1137 812/1204
f 864/726 863/1152 868/1205
f 819/758 815/946 814/1000
f 866/853 860/783 865/782
f 890/868 896/870 891/1206
f 850/749 844/751 849/865
f 919/764 915/877 914/1207
f 861/712 855/714 860/1019
f 921/881 915/877 920/876
f 859/1018 858/1093 863/1208
f 814/1000 810/1099 809/1203
f 922/786 918/788 917/1209
f 915/926 911/928 910/1210
f 873/873 924/1026 928/874
f 853/767 844/751 848/768
f 883/771 877/773 882/1211
f 853/767 847/769 852/1212
f 864/726 860/783 859/1018
f 809/725 868/727 813/1136
f 903/759 897/867 902/1213
f 846/1028 840/1030 845/1035
f 848/770 839/716 843/1151
f 430/695 438/499 437/409
f 181/291 180/1214 172/279
f 500/267 501/647 509/268
f 508/278 516/277 515/283
f 416/664 415/663 413/674
f 638/301 637/384 613/302
f 244/68 243/67 241/294
f 937/379 628/378 627/672
f 154/598 155/249 163/230
f 498/256 499/703 507/257
f 442/264 443/655 451/265
f 301/315 303/197 316/199
f 307/691 318/1215 317/692
f 278/259 286/251 285/252
f 336/261 344/136 343/262
f 415/686 417/103 429/105
f 230/670 238/1057 237/671
f 629/296 640/1134 616/297
f 944/299 624/1058 623/300
f 461/661 460/372 452/373
f 435/361 436/266 444/125
f 140/83 139/82 137/292
f 224/155 232/154 231/270
f 511/709 519/1216 518/698
f 141/235 151/403 150/685
f 506/282 507/708 515/283
f 296/288 295/741 287/289
f 804/683 803/285 801/287
f 464/675 463/988 455/676
f 197/324 207/329 206/325
f 196/309 195/1020 193/310
f 630/677 629/296 605/298
f 111/145 119/141 118/330
f 160/148 168/419 167/222
f 202/237 203/248 211/238
f 502/700 510/436 509/437
f 258/243 259/242 267/406
f 471/219 473/564 485/220
f 487/232 495/216 494/218
f 447/359 455/342 454/343
f 781/308 782/718 784/679
f 363/319 374/1217 373/320
f 133/312 135/563 148/313
f 608/680 632/883 631/681
f 376/417 384/416 383/568
f 172/279 180/1214 179/280
f 755/285 756/683 754/286
f 367/416 376/690 375/684
f 843/715 834/717 838/826
f 873/873 927/875 872/1218
f 843/715 837/827 842/1219
f 918/1161 909/1163 913/1220
f 894/595 890/868 889/823
f 820/945 816/1106 815/946
f 897/1164 893/1016 892/1221
f 894/595 893/1016 898/1165
f 825/862 819/758 824/757
f 891/728 885/730 890/950
f 892/1148 888/825 887/1222
f 885/1031 879/1033 884/824
f 828/756 819/758 823/871
f 694/878 705/880 693/1190
f 885/1031 881/1097 880/1032
f 888/1104 879/1033 883/1223
f 189/118 204/96 203/98
f 880/1224 876/1225 875/1226
f 867/1227 863/1152 862/1228
f 880/1224 874/994 879/1033
f 874/994 870/1229 869/1230
f 876/1231 870/1229 875/1232
f 877/1233 873/1234 872/1235
f 873/1234 874/994 869/1230
f 919/764 918/788 923/787
f 858/1236 852/1237 857/1238
f 870/1239 926/1240 925/1241
f 924/1026 870/1239 925/1241
f 838/1139 829/765 833/1140
f 913/1242 907/1243 912/1244
f 850/749 846/1245 845/750
f 910/1246 904/1247 909/1163
f 855/1248 849/865 854/1092
f 918/1161 912/1249 917/1250
f 855/1248 851/1251 850/1252
f 915/926 909/1163 914/1162
f 858/1236 849/865 853/1253
f 862/1254 858/1093 857/1255
f 888/1104 882/1256 887/1257
f 840/1100 834/717 839/716
f 928/1169 919/764 923/1170
f 910/1246 906/1258 905/1259
f 926/1260 920/763 925/762
f 913/1242 904/1247 908/1261
f 904/1247 900/1262 899/596
f 906/1263 900/1262 905/1264
f 907/1265 903/1266 902/1267
f 903/1266 904/1247 899/596
f 520/274 519/1216 511/709
f 270/251 278/114 277/116
f 505/273 513/1268 520/274
f 405/704 404/889 396/455
f 163/654 164/597 172/598
f 200/304 199/483 197/305
f 199/316 208/325 207/317
f 252/658 251/816 249/659
f 428/517 429/516 437/103
f 255/203 264/635 263/204
f 143/214 152/685 151/215
f 146/693 147/230 155/213
f 365/321 375/320 374/690
f 482/200 483/428 491/201
f 135/206 137/312 149/207
f 259/430 260/243 268/397
f 388/652 389/701 397/584
f 788/296 787/438 785/307
f 315/314 316/338 324/197
f 414/656 413/674 411/657
f 175/606 183/608 182/75
f 84/253 83/375 81/254
f 509/276 517/699 516/277
f 505/706 506/282 514/284
f 155/151 156/598 164/693
f 266/241 267/432 275/242
f 210/247 211/347 219/248
f 100/591 101/139 109/122
f 418/662 417/1269 415/663
f 195/328 206/1270 205/329
f 85/110 95/109 94/326
f 424/665 423/1050 421/666
f 390/702 398/643 397/574
f 432/227 440/400 439/228
f 260/224 261/430 269/225
f 335/523 343/134 342/136
f 387/701 388/593 396/501
f 150/234 158/402 157/235
f 477/216 487/412 486/217
f 380/653 381/584 389/508
f 88/668 87/986 85/669
f 104/330 112/346 111/120
f 204/133 205/117 213/118
f 310/473 309/472 307/667
f 216/154 224/513 223/639
f 214/244 222/503 221/245
f 211/250 212/247 220/237
f 509/276 510/710 518/698
f 538/1132 535/1064 536/72
f 189/118 191/94 204/96
f 880/1224 881/1271 876/1225
f 867/1227 868/1205 863/1152
f 880/1224 875/1226 874/994
f 874/994 875/1232 870/1229
f 876/1231 871/1272 870/1229
f 877/1233 878/1273 873/1234
f 873/1234 878/1273 874/994
f 919/764 914/1207 918/788
f 858/1236 853/1253 852/1237
f 870/1239 871/1274 926/1240
f 924/1026 869/1025 870/1239
f 838/1139 834/717 829/765
f 913/1242 908/1261 907/1243
f 850/749 851/1275 846/1245
f 910/1246 905/1259 904/1247
f 855/1248 850/1252 849/865
f 918/1161 913/1220 912/1249
f 855/1248 856/1276 851/1251
f 915/926 910/1210 909/1163
f 858/1236 854/1092 849/865
f 862/1254 863/1208 858/1093
f 888/1104 883/1223 882/1256
f 840/1100 835/1198 834/717
f 928/1169 924/1026 919/764
f 910/1246 911/1277 906/1258
f 926/1260 921/1278 920/763
f 913/1242 909/1163 904/1247
f 904/1247 905/1264 900/1262
f 906/1263 901/1279 900/1262
f 907/1265 908/1280 903/1266
f 903/1266 908/1280 904/1247
f 538/1132 537/852 535/1064
