o Plane
v -2.5 -0 -2.5
v -2.5 0 2.5
v 2.5 -0 -2.5
v 2.5 0 2.5
v -2.3125 0.5 -2.3125
v -2.3125 0.5 2.3125
v 2.3125 0.5 -2.3125
v 2.3125 0.5 2.3125
v 0.375 0.75 -1.625
v -0.375 0.75 -1.625
v 0.375 0.5715 -2.3535
v -0.375 0.5715 -2.3535
v -0.4104 0.6244 2.3006
v -0.4782 0.7249 1.8155
v 0.58 0.6244 2.1621
v 0.5121 0.7249 1.677
v -1.0607 1.25 -1.0607
v -0.5303 0.5571 -0.2197
v -0.9799 0.7197 -0.4059
v -1.2803 0.963 -0.5303
v -1.3858 1.25 -0.574
v -0.574 0.5571 -0
v -1.0607 0.7197 -0
v -1.3858 0.963 -0
v -1.5 1.25 -0
v -0.5303 0.5571 0.2197
v -0.9799 0.7197 0.4059
v -1.2803 0.963 0.5303
v -1.3858 1.25 0.574
v -0.4059 0.5571 0.4059
v -0.75 0.7197 0.75
v -0.9799 0.963 0.9799
v -1.0607 1.25 1.0607
v -0.2197 0.5571 0.5303
v -0.4059 0.7197 0.9799
v -0.5303 0.963 1.2803
v -0.574 1.25 1.3858
v 0 0.5571 0.574
v 0 0.7197 1.0607
v 0 0.963 1.3858
v 0 1.25 1.5
v 0.2197 0.5571 0.5303
v 0.4059 0.7197 0.9799
v 0.5303 0.963 1.2803
v 0.574 1.25 1.3858
v 0.4059 0.5571 0.4059
v 0.75 0.7197 0.75
v 0.9799 0.963 0.9799
v 1.0607 1.25 1.0607
v 0.5303 0.5571 0.2197
v 0.9799 0.7197 0.4059
v 1.2803 0.963 0.5303
v 1.3858 1.25 0.574
v 0.574 0.5571 -0
v 1.3858 0.963 -0
v -0.9799 0.963 -0.9799
v -0.75 0.7197 -0.75
v -0.4059 0.5571 -0.4059
v -0.574 1.25 -1.3858
v -0.5303 0.963 -1.2803
v -0.4059 0.7197 -0.9799
v -0.2197 0.5571 -0.5303
v 0 1.25 -1.5
v 0 0.963 -1.3858
v 0 0.7197 -1.0607
v 0 0.5571 -0.574
v 0.574 1.25 -1.3858
v 0.5303 0.963 -1.2803
v 0.4059 0.7197 -0.9799
v 0.2197 0.5571 -0.5303
v 1.0607 1.25 -1.0607
v 0.9799 0.963 -0.9799
v 0.75 0.7197 -0.75
v 0.4059 0.5571 -0.4059
v 1.3858 1.25 -0.574
v 1.2803 0.963 -0.5303
v 0.9799 0.7197 -0.4059
v 0.5303 0.5571 -0.2197
v 1.5 1.25 0
v 1.0607 0.7197 -0
v 0 0.5 -0
v 0.5 0.6013 -2.232
v 0.5 0.7203 -1.7464
v -0.5 0.6013 -2.232
v -0.5 0.7203 -1.7464
v -0.3714 0.75 1.677
v 0.3714 0.75 1.573
v -0.2696 0.5992 2.4046
v 0.4732 0.5992 2.3007
v -0.1875 1.4524 -2.6979
v -0.1875 1.0881 -2.6087
v 0.1875 1.4524 -2.6979
v 0.1875 1.0881 -2.6087
v 0.1875 1.4821 -2.5765
v -0.1875 1.4821 -2.5765
v -0.1875 1.1179 -2.4873
v 0.1875 1.1179 -2.4873
v 0.3305 1.4925 2.6345
v 0.3201 1.1251 2.5599
v -0.0408 1.4925 2.6865
v -0.0513 1.1251 2.6118
v -0.0578 1.5176 2.5652
v 0.3136 1.5176 2.5133
v 0.3031 1.1502 2.4386
v -0.0682 1.1502 2.4906
v 0.7236 0.8052 -0.5468
v 0.8774 0.9026 -0.5238
v 0.5199 0.9192 -0.8735
v 0.5462 0.8075 -0.723
v 0.9723 1.25 -0.7955
v 0.9723 1.25 -0.6187
v 1.149 0.5 -0.7955
v 1.149 0.5 -0.9723
v 0.7955 0.5 -0.6187
v 0.9723 0.5 -0.6187
v -0.6187 1.25 0.9723
v -0.7955 1.25 0.9723
v -0.9723 0.5 1.149
v -0.7955 0.5 1.149
v -0.6187 0.5 0.9723
v -0.6187 0.5 0.7955
v -0.9723 0.5 0.6187
v -0.7955 0.5 0.6187
v -1.149 0.5 0.9723
v -1.149 0.5 0.7955
v -0.9723 1.25 0.6187
v -0.9723 1.25 0.7955
v -0.5462 0.8075 0.723
v -0.5199 0.9192 0.8735
v -0.8774 0.9026 0.5238
v -0.7236 0.8052 0.5468
v 0.6187 0.5 -0.7955
v 0.6187 0.5 -0.9723
v 0.7955 0.5 -1.149
v 0.9723 0.5 -1.149
v 0.7955 1.25 -0.9723
v 0.6187 1.25 -0.9723
v 0.9723 1.25 0.6187
v 0.9723 1.25 0.7955
v 1.149 0.5 0.9723
v 1.149 0.5 0.7955
v 0.9723 0.5 0.6187
v 0.7955 0.5 0.6187
v -0.5468 0.8052 -0.7236
v -0.5238 0.9026 -0.8774
v -0.8735 0.9192 -0.5199
v -0.723 0.8075 -0.5462
v -0.7955 1.25 -0.9723
v -0.6187 1.25 -0.9723
v -0.7955 0.5 -1.149
v -0.9723 0.5 -1.149
v -0.6187 0.5 -0.7955
v -0.6187 0.5 -0.9723
v -0.7955 0.5 -0.6187
v -0.9723 0.5 -0.6187
v -1.149 0.5 -0.7955
v -1.149 0.5 -0.9723
v -0.9723 1.25 -0.7955
v -0.9723 1.25 -0.6187
v 0.6187 0.5 0.9723
v 0.6187 0.5 0.7955
v 0.9723 0.5 1.149
v 0.7955 0.5 1.149
v 0.6187 1.25 0.9723
v 0.7955 1.25 0.9723
v 1.8524 1.9647 -1.5
v 1.8524 1.9647 1.5
v 2.7818 1.5955 -2.5
v 2.7818 1.5955 2.5
v 1.6678 1.5 -1.5
v 1.6678 1.5 1.5
v 2.5972 1.1308 -2.5
v 2.5972 1.1308 2.5
v -0.375 1.9217 2.2519
v -0.375 1.9687 2.1163
v -0.375 1.906 1.9872
v -0.375 1.7704 1.9402
v -0.375 1.6413 2.0029
v -0.375 1.5943 2.1385
v -0.375 1.657 2.2676
v -0.375 1.7926 2.3146
v 1.2031 1.6846 -2.5
v -0.8868 1.7265 -2.0576
v -1.6765 1.9201 -1.6799
v -1.5297 1.8733 -1.625
v -1.5285 1.6969 -1.6799
v -1.4182 1.7216 -1.8125
v -1.7499 1.8548 -1.9451
v -1.6941 1.978 -1.8125
v -1.5459 1.6814 -1.9451
v -1.5584 1.8478 -2
v -0.9363 1.8556 -2.1201
v 1.3877 2.1493 -2.5
v -1.6124 1.9772 -2.0549
v 1.8646 1.9598 2.5
v -1.4873 1.9111 -2
v 1.6508 2.0448 1.5
v -1.5646 1.6647 -2.0549
v 1.2031 1.6846 2.5
v -1.4665 2.1806 -2.1875
v 1.3877 2.1493 2.5
v -1.4455 1.9482 -2.375
v 1.2031 1.6846 1.5
v -1.5217 2.0579 -2.3201
v -2.8585 1.0252 -0.1575
v 1.8763 1.6862 1.625
v 2.1197 1.7912 1.8125
v 1.9762 1.7891 1.6799
v 1.9813 1.4427 1.8125
v 2.3298 1.3043 2.1875
v 2.4733 1.3064 2.3201
v 2.2269 1.4043 2.0549
v 2.1248 1.4448 1.9451
v 1.8784 1.5427 1.6799
v 2.2248 1.5478 2
v 2.2248 1.5478 2
v 2.3248 1.6507 2.0549
v 2.2227 1.6913 1.9451
v 2.5733 1.4093 2.375
v 2.4683 1.6528 2.1875
v 2.5712 1.5528 2.3201
v 2.5712 1.5528 -2.3201
v 2.4683 1.6528 -2.1875
v 2.5733 1.4093 -2.375
v 2.2227 1.6913 -1.9451
v 2.3248 1.6507 -2.0549
v 2.2248 1.5478 -2
v 2.2248 1.5478 -2
v 1.8784 1.5427 -1.6799
v 2.1248 1.4448 -1.9451
v 2.2269 1.4043 -2.0549
v 2.4733 1.3064 -2.3201
v 2.3298 1.3043 -2.1875
v 1.9813 1.4427 -1.8125
v 1.9762 1.7891 -1.6799
v 2.1197 1.7912 -1.8125
v 1.8763 1.6862 -1.625
v 2.7818 1.5955 -2.5
v 2.7818 1.5955 2.5
v -3.5234 1.7721 0.6817
v -2.8585 1.0252 -0.4956
v -3.2005 2.0596 2.5
v 3.1509 2.5249 -2.5
v 3.1509 2.5249 2.5
v 1.7569 3.0786 -2.5
v -3.2111 1.4214 2.5
v -3.5234 1.7721 -0.8745
v -2.8585 1.0252 0.6574
v 2.3125 0.5 2.3125
v 2.3125 0.5 1.6875
v 1.6875 0.5 1.6875
v 1.6875 0.5 2.3125
v 2.3125 1.5 2.3125
v 2.3125 1.5 1.6875
v 1.6875 1.5 1.6875
v 1.6875 1.5 2.3125
v 2.3125 0.5 -1.6875
v 2.3125 0.5 -2.3125
v 1.6875 0.5 -2.3125
v 1.6875 0.5 -1.6875
v 2.3125 1.5 -1.6875
v 2.3125 1.5 -2.3125
v 1.6875 1.5 -2.3125
v 1.6875 1.5 -1.6875
v 0.375 0.75 -2.25
v -0.375 0.75 -2.25
v 0.375 0.75 -1.75
v -0.375 0.75 -1.75
v 0.375 0.5 -2.25
v -0.375 0.5 -2.25
v 0.375 0.5 -1.75
v -0.375 0.5 -1.75
v 0.375 0.75 1.75
v -0.375 0.75 1.75
v 0.375 0.75 2.25
v -0.375 0.75 2.25
v 0.375 0.5 1.75
v -0.375 0.5 1.75
v 0.375 0.5 2.25
v -0.375 0.5 2.25
v 1.5 1.9375 1.25
v 1.4451 1.8826 1.3826
v 1.1799 1.6174 1.1174
v 1.4451 1.8826 1.1174
v 1.3125 1.75 1.0625
v 1.1799 1.6174 1.3826
v 1.3125 1.75 1.4375
v 1.125 1.5625 1.25
v 1.8125 1.9375 1.25
v 1.8125 1.8826 1.1174
v 1.8125 1.75 1.0625
v 1.8125 1.6174 1.1174
v 1.8125 1.5625 1.25
v 1.8125 1.6174 1.3826
v 1.8125 1.75 1.4375
v 1.8125 1.8826 1.3826
v 0.375 1.5 1.4221
v 0.3384 1.4116 1.4221
v 0.25 1.375 1.4221
v 0.1616 1.4116 1.4221
v 0.125 1.5 1.4221
v 0.1616 1.5884 1.4221
v 0.25 1.625 1.4221
v 0.3384 1.5884 1.4221
v -0.125 1.5 1.4221
v -0.1616 1.4116 1.4221
v -0.25 1.375 1.4221
v -0.3384 1.4116 1.4221
v -0.375 1.5 1.4221
v -0.3384 1.5884 1.4221
v -0.25 1.625 1.4221
v -0.1616 1.5884 1.4221
v 0.375 1.5 -1.375
v 0.3384 1.4116 -1.375
v 0.25 1.375 -1.375
v 0.1616 1.4116 -1.375
v 0.125 1.5 -1.375
v 0.1616 1.5884 -1.375
v 0.25 1.625 -1.375
v 0.3384 1.5884 -1.375
v -0.125 1.5 -1.375
v -0.1616 1.4116 -1.375
v -0.25 1.375 -1.375
v -0.3384 1.4116 -1.375
v -0.375 1.5 -1.375
v -0.3384 1.5884 -1.375
v -0.25 1.625 -1.375
v -0.1616 1.5884 -1.375
v -2.1115 1.6901 1.5
v -2.1115 1.6901 -1.5
v -2.8585 1.0252 2.5
v -2.8585 1.0252 -2.5
v -1.7791 1.3166 1.5
v -1.7791 1.3166 -1.5
v -2.526 0.6517 2.5
v -2.526 0.6517 -2.5
v 1.2455 2.0794 1.9451
v 1.3983 1.7334 1.9451
v 1.3229 1.7042 1.8125
v 1.4442 1.8578 2
v 1.2603 2.0735 1.6799
v 1.1546 1.9729 1.625
v 1.1845 1.8183 1.6799
v 1.3901 2.0811 1.8125
v -1.4056 1.6491 2.5
v -2.5621 1.289 -1.1904
v -2.1115 1.6901 -0.7216
v -2.1115 1.6901 -1.4419
v -1.4056 1.6491 -2.5
v -1.7381 2.0226 -2.5
v -1.4056 1.6491 -1.5
v -2.0387 1.4203 -1.625
v -2.3034 1.4356 -1.8125
v -2.1678 1.4828 -1.6799
v -2.054 1.1555 -1.8125
v -2.3341 0.9062 -2.1875
v -2.4697 0.8591 -2.3201
v -2.2716 1.0354 -2.0549
v -2.1896 1.1084 -1.9451
v -1.9915 1.2847 -1.6799
v -2.3188 1.1709 -2
v -2.3188 1.1709 -2
v -2.4479 1.2334 -2.0549
v -2.3659 1.3065 -1.9451
v -2.5989 0.9216 -2.375
v -2.5835 1.1863 -2.1875
v -2.646 1.0571 -2.3201
v -2.646 1.0571 2.3201
v -2.5835 1.1863 2.1875
v -2.5989 0.9216 2.375
v -2.3659 1.3065 1.9451
v -2.4479 1.2334 2.0549
v -2.3188 1.1709 2
v -2.3188 1.1709 2
v -1.9915 1.2847 1.6799
v -2.1896 1.1084 1.9451
v -2.2716 1.0354 2.0549
v -2.4697 0.8591 2.3201
v -2.3341 0.9062 2.1875
v -2.054 1.1555 1.8125
v -2.1678 1.4828 1.6799
v -2.3034 1.4356 1.8125
v -2.0387 1.4203 1.625
v 1.6515 2.8134 -2.5
v 1.5913 2.0684 -2.5
v -2.8585 1.0252 2.5
v -2.8585 1.0252 -2.5
v 3.1509 2.5249 -1.996
v -1.7381 2.0226 -2.5
v 2.7818 1.5955 -1.6987
v 3.1509 2.5249 1.0061
v 2.7818 1.5955 0.9342
v -3.5234 1.7721 2.5
v -3.5234 1.7721 -2.5
v 2.0827 1.8732 2.5
v -2.4029 2.7695 -2.5
v 2.7246 2.6942 2.5
v -2.3125 0.5 -2.3125
v -2.3125 0.5 -1.6875
v -1.6875 0.5 -1.6875
v -1.6875 0.5 -2.3125
v -2.3125 1.5 -2.3125
v -2.3125 1.5 -1.6875
v -1.6875 1.5 -1.6875
v -1.6875 1.5 -2.3125
v -2.3125 0.5 1.6875
v -2.3125 0.5 2.3125
v -1.6875 0.5 2.3125
v -1.6875 0.5 1.6875
v -2.3125 1.5 1.6875
v -2.3125 1.5 2.3125
v -1.6875 1.5 2.3125
v -1.6875 1.5 1.6875
v 1.8763 1.6862 1.625
v 2.1197 1.7912 1.8125
v 1.9762 1.7891 1.6799
v 1.9813 1.4427 1.8125
v 2.3298 1.3043 2.1875
v 2.4733 1.3064 2.3201
v 2.2269 1.4043 2.0549
v 2.1248 1.4448 1.9451
v 1.8784 1.5427 1.6799
v 2.2248 1.5478 2
v 2.2248 1.5478 2
v 2.3248 1.6507 2.0549
v 2.2227 1.6913 1.9451
v 2.5733 1.4093 2.375
v 2.4683 1.6528 2.1875
v 2.5712 1.5528 2.3201
v 2.5712 1.5528 -2.3201
v 2.4683 1.6528 -2.1875
v 2.5733 1.4093 -2.375
v 2.2227 1.6913 -1.9451
v 2.3248 1.6507 -2.0549
v 2.2248 1.5478 -2
v 2.2248 1.5478 -2
v 1.8784 1.5427 -1.6799
v 2.1248 1.4448 -1.9451
v 2.2269 1.4043 -2.0549
v 2.4733 1.3064 -2.3201
v 2.3298 1.3043 -2.1875
v 1.9813 1.4427 -1.8125
v 1.9762 1.7891 -1.6799
v 2.1197 1.7912 -1.8125
v 1.8763 1.6862 -1.625
v -2.0387 1.4203 -1.625
v -2.3034 1.4356 -1.8125
v -2.1678 1.4828 -1.6799
v -2.054 1.1555 -1.8125
v -2.3341 0.9062 -2.1875
v -2.4697 0.8591 -2.3201
v -2.2716 1.0354 -2.0549
v -2.1896 1.1084 -1.9451
v -1.9915 1.2847 -1.6799
v -2.3188 1.1709 -2
v -2.3188 1.1709 -2
v -2.4479 1.2334 -2.0549
v -2.3659 1.3065 -1.9451
v -2.5989 0.9216 -2.375
v -2.5835 1.1863 -2.1875
v -2.646 1.0571 -2.3201
v -2.646 1.0571 2.3201
v -2.5835 1.1863 2.1875
v -2.5989 0.9216 2.375
v -2.3659 1.3065 1.9451
v -2.4479 1.2334 2.0549
v -2.3188 1.1709 2
v -2.3188 1.1709 2
v -1.9915 1.2847 1.6799
v -2.1896 1.1084 1.9451
v -2.2716 1.0354 2.0549
v -2.4697 0.8591 2.3201
v -2.3341 0.9062 2.1875
v -2.054 1.1555 1.8125
v -2.1678 1.4828 1.6799
v -2.3034 1.4356 1.8125
v -2.0387 1.4203 1.625
v 1.8293 1.9066 1.25
v 1.758 1.8758 1.3826
v 1.4137 1.7273 1.1174
v 1.758 1.8758 1.1174
v 1.5858 1.8016 1.0625
v 1.4137 1.7273 1.3826
v 1.5858 1.8016 1.4375
v 1.3424 1.6965 1.25
v 1.0607 1.9507 -1.0607
v 1.3858 2.0801 0.574
v 1.0607 1.8863 1.0607
v -1.2368 1.9566 -2.3201
v 0 2.0362 1.5
v -1.266 1.857 -2.1875
v 0.574 1.972 1.3858
v -1.0607 1.9583 1.0607
v -1.3858 1.898 0.574
v -0.574 1.8537 1.3858
v -1.0607 2.0604 -1.0607
v -1.3858 2.038 -0.574
v -1.5 1.8879 -0
v 0.574 2.1291 -1.3858
v -0.574 2.1859 -1.3858
v 0 2.3357 -1.5
v 1.3858 1.9743 -0.574
v 1.5 1.9011 0
v 0.7955 1.9507 -0.7955
v 1.0394 2.0801 0.4305
v 0.7955 1.8863 0.7955
v 0 2.0362 1.125
v 0.4305 1.972 1.0394
v -0.7955 1.9583 0.7955
v -1.0394 1.898 0.4305
v -0.4305 1.8537 1.0394
v -0.7955 2.0604 -0.7955
v -1.0394 2.038 -0.4305
v -1.125 1.8879 -0
v 0.4305 2.1291 -1.0394
v -0.4305 2.1859 -1.0394
v 0 2.3357 -1.125
v 1.0394 1.9743 -0.4305
v 1.125 1.9011 0
v -0.7955 1.25 -0.7955
v -0.3977 0.7303 -0.1648
v -0.7349 0.8523 -0.3044
v -0.9602 1.0347 -0.3977
v -1.0394 1.25 -0.4305
v -0.4305 0.7303 -0
v -0.7955 0.8523 -0
v -1.0394 1.0347 -0
v -1.125 1.25 -0
v -0.3977 0.7303 0.1648
v -0.7349 0.8523 0.3044
v -0.9602 1.0347 0.3977
v -1.0394 1.25 0.4305
v -0.3044 0.7303 0.3044
v -0.5625 0.8523 0.5625
v -0.7349 1.0347 0.7349
v -0.7955 1.25 0.7955
v -0.1648 0.7303 0.3977
v -0.3044 0.8523 0.7349
v -0.3977 1.0347 0.9602
v -0.4305 1.25 1.0394
v 0 0.7303 0.4305
v 0 0.8523 0.7955
v 0 1.0347 1.0394
v 0 1.25 1.125
v 0.1648 0.7303 0.3977
v 0.3044 0.8523 0.7349
v 0.3977 1.0347 0.9602
v 0.4305 1.25 1.0394
v 0.3044 0.7303 0.3044
v 0.5625 0.8523 0.5625
v 0.7349 1.0347 0.7349
v 0.7955 1.25 0.7955
v 0.3977 0.7303 0.1648
v 0.7349 0.8523 0.3044
v 0.9602 1.0347 0.3977
v 1.0394 1.25 0.4305
v 0.4305 0.7303 -0
v 1.0394 1.0347 -0
v -0.7349 1.0347 -0.7349
v -0.5625 0.8523 -0.5625
v -0.3044 0.7303 -0.3044
v -0.4305 1.25 -1.0394
v -0.3977 1.0347 -0.9602
v -0.3044 0.8523 -0.7349
v -0.1648 0.7303 -0.3977
v 0 1.25 -1.125
v 0 1.0347 -1.0394
v 0 0.8523 -0.7955
v 0 0.7303 -0.4305
v 0.4305 1.25 -1.0394
v 0.3977 1.0347 -0.9602
v 0.3044 0.8523 -0.7349
v 0.1648 0.7303 -0.3977
v 0.7955 1.25 -0.7955
v 0.7349 1.0347 -0.7349
v 0.5625 0.8523 -0.5625
v 0.3044 0.7303 -0.3044
v 1.0394 1.25 -0.4305
v 0.9602 1.0347 -0.3977
v 0.7349 0.8523 -0.3044
v 0.3977 0.7303 -0.1648
v 1.125 1.25 0
v 0.7955 0.8523 -0
v 0 0.6875 -0
v 0.723 0.8075 0.5462
v 0.8735 0.9192 0.5199
v 0.5238 0.9026 0.8774
v 0.5468 0.8052 0.7236
v -0.375 2.7048 -2.1039
v 0.375 2.916 -2.1556
v 0.375 2.8513 -2.912
v 0.5 2.8973 -2.7945
v 0.5 2.9404 -2.2903
v -0.5 2.6588 -2.2213
v -0.375 2.6401 -2.8602
v -0.5 2.6157 -2.7256
v 1.4212 1.867 -1.625
v 1.4252 1.7227 -1.6799
v 1.444 1.6562 -1.8125
v 1.4343 2.0044 -1.6799
v 1.4569 2.0545 -1.8125
v 1.4757 1.988 -1.9451
v 1.4797 1.8437 -2
v 1.4666 1.7063 -1.9451
v -1.8205 1.6145 1.625
v -1.6961 1.5477 1.6799
v -1.6293 1.5337 1.8125
v -1.9295 1.6949 1.6799
v -1.9594 1.7419 1.8125
v -1.8925 1.7278 1.9451
v -1.7682 1.6611 2
v -1.6591 1.5806 1.9451
v -1.6159 2.0476 2.1875
v -1.2849 1.9138 2.3201
v -1.2234 1.8949 2.1875
v -1.414 1.9763 2
v -1.5624 2.0217 2.3201
v -1.2769 1.9208 2.0549
v -1.5544 2.0288 2.0549
v -1.4253 1.9663 2.375
v 1.1223 1.9857 2.375
v 1.0964 2.1977 2.1875
v 1.3293 2.0461 2.3201
v 1.1696 1.8242 2.3201
v 1.2959 1.715 2.1875
v 1.099 1.8523 2.0549
v 1.2363 1.9404 2
v 1.0859 2.1428 2.0549
v 0.375 1.7926 2.3146
v 0.375 1.657 2.2676
v 0.375 1.5943 2.1385
v 0.375 1.6413 2.0029
v 0.375 1.7704 1.9402
v 0.375 1.906 1.9872
v 0.375 1.9687 2.1163
v 0.375 1.9217 2.2519
v 0.8137 1.7926 2.3146
v 0.7114 1.9687 2.1163
v 0.9838 1.9217 2.2519
v 0.9173 1.657 2.2676
v 1.075 1.5943 2.1385
v 0.8414 1.6413 2.0029
v 0.9364 1.7704 1.9402
v 0.7219 1.906 1.9872
v -0.8921 1.9687 2.1163
v -0.7338 1.657 2.2676
v -0.7005 1.5943 2.1385
v -0.7887 1.7704 1.9402
v -0.8693 1.9217 2.2519
v -0.7232 1.6413 2.0029
v -0.8587 1.906 1.9872
v -0.8038 1.7926 2.3146
v 1.186 2.1621 -2.1875
v 0.976 1.9012 -2.3201
v 1.0116 1.8279 -2.1875
v 1.1854 1.9606 -2
v 1.0992 2.1375 -2.3201
v 1.0984 1.8525 -2.0549
v 1.2217 2.0889 -2.0549
v 1.0122 2.0294 -2.375
v 0.375 1.7047 -2.4319
v 0.375 1.5755 -2.3694
v 0.375 1.5284 -2.2338
v 0.375 1.5909 -2.1047
v 0.375 1.7265 -2.0576
v 0.375 1.8556 -2.1201
v 0.375 1.9028 -2.2556
v 0.375 1.8402 -2.3848
v 0.8078 1.9028 -2.2556
v 0.7089 1.5755 -2.3694
v 0.7691 1.5284 -2.2338
v 0.8816 1.7265 -2.0576
v 0.7362 1.8402 -2.3848
v 0.8407 1.5909 -2.1047
v 0.868 1.8556 -2.1201
v 0.6953 1.7047 -2.4319
v -1.1084 1.5909 -2.1047
v -0.692 1.9028 -2.2556
v -0.8309 1.7047 -2.4319
v -0.8149 1.8402 -2.3848
v -0.375 1.7047 -2.4319
v -0.375 1.5755 -2.3694
v -0.375 1.5284 -2.2338
v -0.375 1.5909 -2.1047
v -0.375 1.7265 -2.0576
v -0.375 1.8556 -2.1201
v -0.375 1.9028 -2.2556
v -0.375 1.8402 -2.3848
v -0.6695 1.5755 -2.3694
v -0.7575 1.5284 -2.2338
v 0.375 1.5 1.522
v 0.3384 1.4116 1.4979
v 0.25 1.375 1.4857
v 0.1616 1.4116 1.4927
v 0.125 1.5 1.5147
v 0.1616 1.5884 1.5388
v 0.25 1.625 1.551
v 0.3384 1.5884 1.544
v -0.125 1.5 1.5073
v -0.1616 1.4116 1.4832
v -0.25 1.375 1.471
v -0.3384 1.4116 1.478
v -0.375 1.5 1.4999
v -0.3384 1.5884 1.5241
v -0.25 1.625 1.5363
v -0.1616 1.5884 1.5293
v 0.375 1.5 -1.5541
v 0.3384 1.4116 -1.5704
v 0.25 1.375 -1.5804
v 0.1616 1.4116 -1.5782
v 0.125 1.5 -1.5652
v 0.1616 1.5884 -1.5489
v 0.25 1.625 -1.5389
v 0.3384 1.5884 -1.5411
v -0.125 1.5 -1.5764
v -0.1616 1.4116 -1.5926
v -0.25 1.375 -1.6026
v -0.3384 1.4116 -1.6005
v -0.375 1.5 -1.5875
v -0.3384 1.5884 -1.5712
v -0.25 1.625 -1.5612
v -0.1616 1.5884 -1.5633
v 1.7178 2.6417 1.25
v 1.8781 2.5375 1.4375
v 2.0213 2.5387 1.3826
v 1.7689 2.6215 1.3826
v 2.0046 2.4967 1.1174
v 2.0523 2.468 1.25
v 1.8781 2.5373 1.0625
v 1.751 2.5766 1.1174
v 2.5572 2.7347 1.2924
v 2.5489 2.7224 1.2571
v 2.5189 2.7049 1.241
v 2.485 2.6923 1.2534
v 2.4669 2.6922 1.2871
v 2.4752 2.7045 1.3224
v 2.5052 2.722 1.3385
v 2.5391 2.7346 1.3261
v 2.695 2.8536 1.2909
v 2.6574 2.7983 1.1323
v 2.5228 2.7193 1.0596
v 2.37 2.6629 1.1155
v 2.2885 2.6621 1.2672
v 2.3261 2.7175 1.4258
v 2.4607 2.7965 1.4985
v 2.6135 2.8529 1.4427
v 2.7628 2.8855 1.2949
v 2.7126 2.8118 1.0833
v 2.5331 2.7064 0.9864
v 2.3294 2.6312 1.0609
v 2.2207 2.6302 1.2632
v 2.2709 2.704 1.4748
v 2.4504 2.8093 1.5717
v 2.6541 2.8846 1.4972
v 2.6777 2.7539 1.1429
v 2.7153 2.8092 1.3016
v 2.5431 2.6749 1.0703
v 2.3903 2.6185 1.1261
v 2.3088 2.6177 1.2779
v 2.3464 2.673 1.4365
v 2.481 2.7521 1.5092
v 2.6339 2.8085 1.4533
v 2.7329 2.7673 1.094
v 2.7831 2.8411 1.3056
v 2.5534 2.662 0.9971
v 2.3497 2.5868 1.0716
v 2.241 2.5858 1.2739
v 2.2912 2.6596 1.4855
v 2.4707 2.7649 1.5824
v 2.6744 2.8401 1.5079
v 2.4675 2.7422 1.3184
v 2.4825 2.751 1.3265
v 2.3648 2.7261 1.4467
v 2.4322 2.7656 1.483
v 2.4926 2.7287 1.3318
v 2.4776 2.72 1.3237
v 2.4423 2.7434 1.4884
v 2.375 2.7039 1.452
v 2.4652 2.7256 1.2538
v 2.4562 2.7255 1.2707
v 2.3547 2.6516 1.1561
v 2.3139 2.6512 1.2319
v 2.4663 2.7033 1.276
v 2.4754 2.7034 1.2591
v 2.3241 2.629 1.2373
v 2.3648 2.6294 1.1614
v 2.5262 2.7514 1.2451
v 2.5112 2.7426 1.237
v 2.6288 2.7674 1.1168
v 2.5615 2.7279 1.0804
v 2.5214 2.7204 1.2423
v 2.5363 2.7292 1.2504
v 2.5717 2.7057 1.0858
v 2.639 2.7452 1.1221
v 2.5284 2.7679 1.3097
v 2.5375 2.768 1.2928
v 2.639 2.842 1.4074
v 2.6797 2.8423 1.3315
v 2.5476 2.7458 1.2981
v 2.5386 2.7457 1.315
v 2.6899 2.8201 1.3369
v 2.6491 2.8198 1.4127
v 2.6702 2.926 1.25
v 2.593 2.9344 1.3826
v 2.2202 2.975 1.1174
v 2.593 2.9344 1.1174
v 2.4066 2.9547 1.0625
v 2.2202 2.975 1.3826
v 2.4066 2.9547 1.4375
v 2.143 2.9834 1.25
v 2.5572 2.7347 1.2924
v 2.5489 2.7224 1.2571
v 2.5189 2.7049 1.241
v 2.485 2.6923 1.2534
v 2.4669 2.6922 1.2871
v 2.4752 2.7045 1.3224
v 2.5052 2.722 1.3385
v 2.5391 2.7346 1.3261
v 2.695 2.8536 1.2909
v 2.6574 2.7983 1.1323
v 2.5228 2.7193 1.0596
v 2.37 2.6629 1.1155
v 2.2885 2.6621 1.2672
v 2.3261 2.7175 1.4258
v 2.4607 2.7965 1.4985
v 2.6135 2.8529 1.4427
v 2.7628 2.8855 1.2949
v 2.7126 2.8118 1.0833
v 2.5331 2.7064 0.9864
v 2.3294 2.6312 1.0609
v 2.2207 2.6302 1.2632
v 2.2709 2.704 1.4748
v 2.4504 2.8093 1.5717
v 2.6541 2.8846 1.4972
v 2.6777 2.7539 1.1429
v 2.7153 2.8092 1.3016
v 2.5431 2.6749 1.0703
v 2.3903 2.6185 1.1261
v 2.3088 2.6177 1.2779
v 2.3464 2.673 1.4365
v 2.481 2.7521 1.5092
v 2.6339 2.8085 1.4533
v 2.7329 2.7673 1.094
v 2.7831 2.8411 1.3056
v 2.5534 2.662 0.9971
v 2.3497 2.5868 1.0716
v 2.241 2.5858 1.2739
v 2.2912 2.6596 1.4855
v 2.4707 2.7649 1.5824
v 2.6744 2.8401 1.5079
v 2.5083 2.8113 1.2357
v 2.5166 2.8236 1.271
v 2.4783 2.7937 1.2196
v 2.4444 2.7812 1.232
v 2.4263 2.781 1.2657
v 2.4346 2.7933 1.301
v 2.4646 2.8109 1.3171
v 2.4985 2.8234 1.3047
v 1.7178 2.6417 1.25
v 1.8059 2.4719 1.4375
v 1.931 2.4024 1.3826
v 1.7522 2.5989 1.3826
v 1.8958 2.3741 1.1174
v 1.9231 2.3256 1.25
v 1.8057 2.4718 1.0625
v 1.7146 2.5687 1.1174
v 1.8524 1.9647 0.2602
v 1.8524 1.9647 0.6499
v 2.4479 1.7281 0.4655
v 1.7162 1.6218 0.4727
v 1.8524 1.9647 -0.2446
v 1.8524 1.9647 -0.0126
v 2.557 1.6848 -0.2697
v 1.7291 1.6542 -0.1472
v 1.5534 1.5454 -1.5
v 1.2031 1.6846 -1.8443
v 1.3877 2.1493 -2.3402
v 1.7223 2.0164 -1.5
v 1.9539 1.9243 -2.0113
v 1.4455 1.5883 1.5
v 2.0878 1.8712 2.179
v -2.8585 1.0252 0.0199
v -2.6677 0.811 -0.0805
v -2.1115 1.6901 -0.3816
v -2.1115 1.6901 0.437
v -2.2555 1.562 0.2175
v -2.3608 1.4682 0.3058
v -1.7791 1.3166 0.3299
v -1.7791 1.3166 -0.1358
v -1.9227 1.478 -0.2465
v -1.8533 1.4001 -0.3868
v -1.4056 1.6491 2.0439
v -2.3553 1.4731 2.5
v -1.8247 1.276 2.5
v -2.737 1.1333 -0.7904
v -1.9821 1.5447 -0.8596
v -1.994 1.5581 -1.3537
v -1.9778 1.8091 -1.5
v -1.5265 1.7849 -1.5
v -1.7381 2.0226 -2.0902
v -0.3603 2.3844 2.6583
v 0.6308 2.4123 2.5254
v 0.563 2.5142 2.0407
v 0.4222 2.5361 1.9361
v 0.5239 2.3833 2.6633
v -0.2195 2.3624 2.7629
v -0.4281 2.4862 2.1735
v -0.3212 2.5152 2.0357
v -0.3301 3.08 3.125
v 0.657 3.0267 2.9344
v 0.5814 3.0456 2.3676
v 0.4391 3.057 2.2497
v 0.5525 3.0286 3.0999
v -0.1878 3.0686 3.2428
v -0.4057 3.0989 2.5581
v -0.3012 3.097 2.3926
v -0.3603 2.1513 2.5658
v 0.6308 2.2221 2.45
v 0.563 2.4804 2.0273
v 0.4222 2.5361 1.9361
v 0.5239 2.1486 2.5701
v -0.2195 2.0956 2.657
v -0.4281 2.4096 2.1431
v -0.3212 2.483 2.0229
v 1.0607 1.9507 -1.0607
v 1.3858 2.0801 0.574
v 1.0607 1.8863 1.0607
v 0 2.0362 1.5
v 0.574 1.972 1.3858
v -1.0607 1.9583 1.0607
v -1.3858 1.898 0.574
v -0.574 1.8537 1.3858
v -1.0607 2.0604 -1.0607
v -1.3858 2.038 -0.574
v -1.5 1.8879 -0
v 0.574 2.1291 -1.3858
v -0.574 2.1859 -1.3858
v 0 2.3357 -1.5
v 1.3858 1.9743 -0.574
v 1.5 1.9011 0
v 0.7955 1.9507 -0.7955
v 1.0394 2.0801 0.4305
v 0.7955 1.8863 0.7955
v 0 2.0362 1.125
v 0.4305 1.972 1.0394
v -0.7955 1.9583 0.7955
v -1.0394 1.898 0.4305
v -0.4305 1.8537 1.0394
v -0.7955 2.0604 -0.7955
v -1.0394 2.038 -0.4305
v -1.125 1.8879 -0
v 0.4305 2.1291 -1.0394
v -0.4305 2.1859 -1.0394
v 0 2.3357 -1.125
v 1.0394 1.9743 -0.4305
v 1.125 1.9011 0
v 2.7818 1.5955 -0.8009
v 2.7818 1.5955 -1.2401
v 2.4836 1.7139 -0.9485
v 2.4966 1.7088 -1.185
v 2.5972 1.1308 -0.7675
v 2.5972 1.1308 -1.2248
v 1.9738 1.3785 -0.9843
v 0 -0 -2.5
v -2.5 0 0
v 2.6148 1.6618 1.4828
v 2.7818 1.5955 0.8495
v -2.8585 1.0252 -1.4978
v -2.485 1.3577 0.76
v 0.4985 1.4913 2.482
v 0.375 1.833 -1.8903
v 2.3248 1.6507 -0
v 2.3965 1.6518 -0.0663
v 1.9813 1.4427 -0
v 1.9298 1.4927 0.0663
v -2.4479 1.2334 0
v -2.5157 1.2099 0.0663
v -2.054 1.1555 -0
v 0 0 2.5
v 1.692 1.5609 -0.5136
v 1.6678 1.5 -0
v -0.375 1.7274 -1.8645
v 0.5 1.7493 -2.5133
v -2.0222 1.4349 -2.375
v -1.8773 1.3864 2.3201
v -2.0121 1.4439 2.375
v 2.1712 1.7412 0.0663
v 2.3298 1.3043 -0
v 2.2227 1.6913 0
v -2.3346 1.3711 -0.0663
v -2.3341 0.9062 -0
v -2.3659 1.3065 -0
v 2.5 0 0
v 0.5 1.8303 -2.0184
v 1.8208 1.4392 0.2579
v 2.4012 2.6691 -2.5
v 2.4539 2.8018 -2.5
v 0.375 1.7114 -2.6327
v 2.1325 1.3154 0.3662
v -2.8585 1.0252 1.26
v 1.8478 1.6975 2.375
v 2.4733 1.3064 -0
v 2.4016 1.3053 0.0663
v 2.5733 1.4093 -0
v -2.5989 0.9216 -0
v -2.4697 0.8591 0
v -2.4019 0.8826 -0.0663
v -0.375 1.6058 -2.6068
v -2.2983 1.5239 -2.5
v -2.2983 1.5239 -2.2951
v -2.7978 1.0792 -1.6452
v -0.5 1.6085 -2.4788
v 1.9002 1.4077 -2.5
v -2.0839 1.5575 -2.3201
v -1.7855 1.4314 -2.2538
v 2.2269 1.4043 -0
v 2.2783 1.3543 -0.0663
v -2.2716 1.0354 -0
v -2.3029 0.9708 0.0663
v 2.4683 1.6528 -0
v -2.5835 1.1863 -0
v -2.3125 0.5 -0
v 0 0.5 -2.3125
v -0.5 1.6895 -1.9839
v -0.3853 1.5044 2.4795
v 2.5972 1.1308 0.8662
v 1.9002 1.4077 2.5
v -2.8585 1.0252 -1.3288
v 2.1248 1.4448 0
v 2.0531 1.4438 0.0663
v 2.5197 1.6028 0.0663
v 2.5712 1.5528 -0
v -2.1896 1.1084 -0
v -2.1218 1.132 -0.0663
v -2.6147 1.1217 -0.0663
v -2.646 1.0571 0
v -1.8532 1.4078 -2.3201
v -0.3463 1.6326 1.8563
v 0 0.5 2.3125
v -0.4532 1.6056 1.9945
v 1.8352 1.8452 -2.3201
v 1.8784 1.5427 0
v -1.9915 1.2847 -0
v -2.0228 1.2201 0.0663
v 1.8763 1.6862 -0
v -2.0387 1.4203 -0
v 0.6054 1.5183 2.3438
v -2.5969 0.7313 1.2098
v -2.526 0.6517 -0
v -2.1525 0.9842 1.1821
v -2.1525 0.9842 1.4149
v 2.7818 1.5955 1.7171
v 0.3968 1.6431 1.7546
v 2.3125 0.5 -0
v -3.5234 1.7721 -1.6873
v 2.1197 1.7912 -0
v 2.2248 1.5478 -0
v -2.3034 1.4356 -0
v -2.3188 1.1709 -0
v -2.5969 0.7313 -1.2902
v -1.9658 1.1504 -2.5
v -3.3672 1.5968 1.5909
v -0.2445 1.4808 2.5837
v -2.1525 0.9842 -1.3179
v -2.8585 1.0252 1.5787
v -3.5234 1.7721 1.5909
v 0.5376 1.6195 1.8588
v 1.7246 1.6038 -2.3201
v 1.9762 1.7891 0
v 2.048 1.7902 -0.0663
v -2.1678 1.4828 -0
v -2.2356 1.4592 0.0663
v 1.7928 1.7194 -2.375
v 2.2248 1.5478 -0
v -2.3188 1.1709 -0
v 0 0.5 -0
v 0 0 0
v 1.25 -0 -2.5
v -2.5 0 1.25
v 2.4683 1.6528 1.0938
v 2.7818 1.5955 0.0243
v -2.0387 1.4203 -0.8125
v -2.526 0.6517 1.25
v 2.3125 0.5 -1.1562
v -2.5969 0.7313 -0.0402
v -2.3659 1.3065 -0.9725
v 1.9813 1.4427 0.9062
v 2.3248 1.6507 -1.0275
v 2.4324 1.6523 -1.1269
v 1.9813 1.4427 -0.9062
v 1.9041 1.5177 -0.8068
v -2.4697 0.8591 -1.16
v -2.4479 1.2334 1.0275
v -2.5496 1.1981 1.1269
v -2.054 1.1555 0.9062
v 2.5712 1.5528 1.16
v 2.2526 1.3793 0.9943
v 1.25 0 2.5
v -2.6304 1.0894 -1.1932
v -2.1557 1.1202 -1.0057
v 1.6678 1.5 0.75
v 1.6678 1.5 -0.75
v 2.1969 1.7163 1.0057
v -1.25 -0 -2.5
v 2.3606 1.6512 0.9943
v 2.1455 1.7662 -0.8731
v 2.3298 1.3043 -1.0938
v 2.2227 1.6913 -0.9725
v -2.5989 0.9216 -1.1875
v -2.319 1.4034 0.8731
v -2.3341 0.9062 1.0938
v -2.3659 1.3065 0.9725
v 2.5 0 1.25
v -2.2873 1.0031 -0.9943
v -2.2017 1.471 -0.8068
v 2.2248 1.5478 1
v 2.5455 1.5778 1.1932
v -2.3188 1.1709 -1
v 2.5972 1.1308 1.6831
v 2.4733 1.3064 -1.16
v 2.3657 1.3048 -1.0606
v 2.5733 1.4093 -1.1875
v -2.5989 0.9216 1.1875
v -2.4697 0.8591 1.16
v -2.368 0.8944 1.0606
v 2.5733 1.4093 1.1875
v 0 0.5 1.1562
v 1.1562 0.5 -0
v -2.3188 1.1709 -1
v -2.5 -0 -1.25
v 2.2248 1.5478 1
v -1.1562 0.5 2.3125
v -2.2716 1.0354 -1.0275
v -2.1678 1.4828 -0.84
v 1.9556 1.4677 0.9394
v -2.054 1.1555 -0.9062
v 1.8784 1.5427 0.84
v -1.9915 1.2847 -0.84
v 0 0 1.25
v -1.25 0 0
v 2.2269 1.4043 -1.0275
v 2.3041 1.3293 -1.1269
v -2.2716 1.0354 1.0275
v -2.3185 0.9385 1.1269
v 1.25 0 0
v 2.7818 1.5955 1.6748
v 2.4683 1.6528 -1.0938
v -2.5835 1.1863 1.0938
v -2.3125 0.5 1.1562
v 1.1562 0.5 -2.3125
v -2.3125 0.5 -1.1562
v -2.3503 1.3388 -1.0057
v -2.0072 1.2524 -0.8068
v 2.5972 1.1308 0.0494
v 2.5 -0 -1.25
v 2.3248 1.6507 1.0275
v 2.1248 1.4448 -0.9725
v 2.0172 1.4432 -0.8731
v 2.494 1.6278 -1.0606
v 2.5712 1.5528 -1.16
v -2.1896 1.1084 0.9725
v -2.0879 1.1438 0.8731
v -2.5991 1.154 1.0606
v -2.646 1.0571 1.16
v 2.0121 1.7897 0.8068
v 1.9762 1.7891 0.84
v -1.1562 0.5 -2.3125
v -2.4818 1.2217 -0.9943
v 2.1197 1.7912 0.9062
v 1.1562 0.5 2.3125
v -2.3341 0.9062 -1.0938
v 2.1248 1.4448 0.9725
v 2.4374 1.3059 1.1932
v 1.8784 1.5427 -0.84
v -1.9915 1.2847 0.84
v 2.4733 1.3064 1.16
v -2.0384 1.1878 0.9394
v -1.1562 0.5 -0
v 2.0889 1.4443 1.0057
v 1.8763 1.6862 -0.8125
v -2.0387 1.4203 0.8125
v -2.526 0.6517 -1.25
v -2.4479 1.2334 -1.0275
v 1.8763 1.6862 0.8125
v 2.3125 0.5 1.1562
v 2.1197 1.7912 -0.9062
v 2.2248 1.5478 -1
v -2.4358 0.8709 -1.1932
v -2.3034 1.4356 0.9062
v -2.3188 1.1709 1
v 0 0.5 -1.1562
v -2.1525 0.9842 -0.0679
v -2.5835 1.1863 -1.0938
v -2.646 1.0571 -1.16
v -2.1896 1.1084 -0.9725
v 2.3298 1.3043 1.0938
v -1.25 0 2.5
v 2.2227 1.6913 0.9725
v 1.9762 1.7891 -0.84
v 2.0839 1.7907 -0.9394
v -2.1678 1.4828 0.84
v -2.2695 1.4474 0.9394
v 0 -0 -1.25
v -2.3034 1.4356 -0.9062
v 2.2269 1.4043 1.0275
v 2.2248 1.5478 -1
v -2.3188 1.1709 1
v 1.25 -0 -1.25
v -1.1562 0.5 -1.1562
v 1.1562 0.5 1.1562
v -1.1562 0.5 1.1562
v 1.25 0 1.25
v -1.25 -0 -1.25
v 1.1562 0.5 -1.1562
v -1.25 0 1.25
vt 0.4449 0.5693
vt 0.4788 0.5547
vt 0.4788 0.5693
vt 0.4915 0.0584
vt 0.5339 -0
vt 0.5339 0.0584
vt 0.0339 0.1022
vt -0 0.0401
vt 0.0339 0.0292
vt 0.5058 0.2044
vt 0.4576 0.2117
vt 0.4534 0.2044
vt 0.2881 0.0292
vt 0.3602 0
vt 0.3729 0.0292
vt 0.1186 0.3212
vt 0.0466 0.3504
vt 0.0339 0.3212
vt 0.384 0.3358
vt 0.3729 0.3321
vt 0.3841 0.3321
vt 0.6102 0.7497
vt 0.6186 0.8021
vt 0.6102 0.8023
vt 0.7203 0.6606
vt 0.7203 0.6898
vt 0.7119 0.6971
vt 0.7119 0.7593
vt 0.7203 0.8182
vt 0.7119 0.8214
vt 0.4195 0.7044
vt 0.3856 0.6825
vt 0.4153 0.6825
vt 0.6525 0.6898
vt 0.6525 0.6606
vt 0.661 0.6533
vt 0.5763 0.0584
vt 0.6186 -0
vt 0.6186 0.0584
vt 0.5381 0.562
vt 0.5636 0.5547
vt 0.5636 0.562
vt 0.661 -0
vt 0.661 0.0584
vt 0.5636 0.5912
vt 0.5381 0.5839
vt 0.5636 0.5839
vt 0.7458 0.1752
vt 0.7288 0.1788
vt 0.7288 0.1752
vt 0.7627 0.1861
vt 0.7458 0.1825
vt 0.7627 0.1825
vt 0.5381 0.5912
vt 0.4025 0.0292
vt 0.3856 -0
vt 0.4025 -0
vt 0.6186 0.8306
vt 0.6525 0.8351
vt 0.661 0.8341
vt 0.4619 0.0119
vt 0.4746 -0
vt 0.4746 0.0157
vt 0.4153 -0
vt 0.4153 0.0292
vt 0.3729 0
vt 0.3856 0.0292
vt 0.4449 0.012
vt 0.4322 0
vt 0.4449 0
vt 0.4322 0.0163
vt 0.4915 -0
vt 0.4619 -0
vt 0.3729 0.2482
vt 0.4068 0.3102
vt 0.3729 0.3212
vt 0.4958 0.7226
vt 0.4576 0.7599
vt 0.4576 0.7226
vt 0.0381 0.7648
vt 0 0.7685
vt 0.7373 0.1898
vt 0.7415 0.1971
vt 0.7373 0.1971
vt 0.5096 0.3609
vt 0.4966 0.3504
vt 0.5526 0.3504
vt 0.678 0.2628
vt 0.7119 0.2556
vt 0.7119 0.2628
vt 0.6202 0.4283
vt 0.645 0.4341
vt 0.5781 0.4303
vt 0.661 0.2628
vt 0.6769 0.282
vt 0.4407 0.408
vt 0.4407 0.438
vt 0.4068 0.438
vt 0.4407 0.2336
vt 0.5085 0.2488
vt 0.5085 0.2628
vt 0.4619 0.438
vt 0.3602 0.4964
vt 0.3602 0.438
vt 0.4624 0.394
vt 0.4407 0.3504
vt 0.7797 0.2336
vt 0.7352 0.2336
vt 0.4195 0.9584
vt 0.3814 0.9124
vt 0.3814 0.9597
vt 0.3814 0.7226
vt 0.4195 0.7686
vt 0.3814 0.77
vt 0.7797 0.438
vt 0.7688 0.438
vt 0.7465 0.4024
vt 0.8517 0.488
vt 0.8517 0.4964
vt 0.8008 0.4964
vt 0.2288 0.7635
vt 0.2669 0.7226
vt 0.2669 0.774
vt 0.4492 0.2117
vt 0.4068 0.2044
vt 0.572 0.562
vt 0.3941 0.5693
vt 0.4449 0.5547
vt 0.5763 -0
vt 0.1186 0.0292
vt 0.1186 0.1022
vt 0.4407 0.3942
vt 0.4068 0.3942
vt 0.7119 0.6533
vt 0.661 0.6971
vt 0.5297 0.5839
vt 0.3602 0.5693
vt 0.3941 0.5547
vt 0.5297 0.5547
vt 0.5297 0.5693
vt 0.6309 0.3893
vt 0.6617 0.3796
vt 0.7119 0.4088
vt 0.6047 0.3336
vt 0.6074 0.3274
vt 0.6922 0.3274
vt 0.5519 0.4201
vt 0.5839 0.4314
vt 0.5085 0.438
vt 0.6903 0.292
vt 0.7061 0.292
vt 0.7797 0.3212
vt 0.4407 0.2774
vt 0.3432 0.7773
vt 0.4546 0.3942
vt 0.5208 0.2336
vt 0.5424 0.2523
vt 0.4296 0.1022
vt 0.4068 0.1095
vt 0.4068 0.1022
vt 0.5201 0.3504
vt 0.4407 0.3212
vt 0.5227 0.3274
vt 0.8008 0.438
vt 0.7667 0.4964
vt 0.7465 0.438
vt 0.8008 0.4689
vt 0.8302 0.4964
vt 0.2818 0.3504
vt 0.3602 0.4179
vt 0.2818 0.4179
vt 0.4068 0.0584
vt 0.4385 0.0657
vt 0.4068 0.0657
vt 0.9779 0.073
vt 1 0.0657
vt 1 0.073
vt 0.7542 0.7554
vt 0.7203 0.6971
vt 0.7542 0.6971
vt 0.9783 0.0876
vt 1 0.0803
vt 1 0.0876
vt 0.6268 0.4088
vt 0.7119 0.438
vt 0.661 0.7656
vt 0.6525 0.6971
vt 0.7797 0.1861
vt 0.7966 0.1825
vt 0.7966 0.1861
vt 0.7966 0.1788
vt 0.7797 0.1825
vt 0.7797 0.1788
vt 0.8136 0.1898
vt 0.7966 0.1898
vt 0.8856 0.0657
vt 0.9719 0.0584
vt 0.9763 0.0657
vt 0.8305 0.1788
vt 0.8475 0.1825
vt 0.8305 0.1825
vt 0.7627 0.1788
vt 0.7458 0.1788
vt 0.7119 0.1825
vt 0.7119 0.1788
vt 0.7627 0.1898
vt 0.7797 0.1898
vt 0.8136 0.1788
vt 0.8136 0.1825
vt 0.8305 0.1898
vt 0.8475 0.1861
vt 0.8475 0.1898
vt 0.7288 0.1861
vt 0.7458 0.1898
vt 0.7288 0.1898
vt 0.7288 0.1825
vt 0.7458 0.1861
vt 0.8305 0.1861
vt 0.8136 0.1861
vt 0.7119 0.1861
vt 0.7119 0.1898
vt 0.7161 0.1898
vt 0.7203 0.2007
vt 0.7161 0.2007
vt 0.7246 0.2007
vt 0.7246 0.1898
vt 0.7119 0.2007
vt 0.7288 0.2007
vt 0.7797 0.1752
vt 0.7966 0.1752
vt 0.7585 0.1898
vt 0.7627 0.1971
vt 0.7585 0.1971
vt 0.7203 0.1898
vt 0.7542 0.7504
vt 0.7203 0.8037
vt 0.7203 0.7504
vt 0.3432 0.7226
vt 0.5295 0.3735
vt 0.4986 0.3551
vt 0.5566 0.3599
vt 0.7797 0.2663
vt 0.7797 0.3897
vt 0.7797 0.3504
vt 0.8136 0.7497
vt 0.7627 0.6971
vt 0.8136 0.6971
vt 0.6942 0.3504
vt 0.661 0.7496
vt 0.6525 0.802
vt 0.6525 0.7495
vt 0.6186 0.6971
vt 0.7119 0.7503
vt 0.7203 0.8585
vt 0.7542 0.8423
vt 0.7627 0.8391
vt 0.0763 0.7598
vt 0.0381 0.7226
vt 0.0763 0.7226
vt 0.7119 0.8634
vt 0.661 0.8022
vt 0.7119 0.8034
vt 0.3432 0.9671
vt 0.3051 0.9124
vt 0.3051 0.9758
vt 0.3051 0.786
vt 0.7542 0.8037
vt 0.7627 0.8036
vt 0.6102 0.8442
vt 0.6186 0.8491
vt 0.9213 0.0876
vt 0.8686 0.0803
vt 0.923 0.0803
vt 0.0763 0.9496
vt 0.1144 0.9124
vt 0.0763 0.9124
vt 0.9719 0.1168
vt 1 0.1095
vt 1 0.1168
vt 0.1144 0.7711
vt 0.1525 0.7607
vt 0.1907 0.7649
vt 0.4267 0.0803
vt 0.4068 0.073
vt 0.4327 0.073
vt 0.8136 0.3504
vt 0.572 0.7579
vt 0.6102 0.7685
vt 0.5843 0.4088
vt 0.5995 0.3504
vt 0.4619 0.4964
vt 0.5149 0.438
vt 0.589 0.1679
vt 0.5805 0.1606
vt 0.6419 0.1606
vt 0.5853 0.292
vt 0.5514 0.3212
vt 0.9709 0.0876
vt 0.9222 0.0803
vt 0.9758 0.0803
vt 0.6377 0.1387
vt 0.7034 0.146
vt 0.6356 0.146
vt 0.6483 0.1661
vt 0.7034 0.1679
vt 0.6462 0.1679
vt 0.8686 0.0949
vt 0.9221 0.0949
vt 0.7627 0.7558
vt 0.7627 0.8146
vt 0.7542 0.8136
vt 0.6622 0.3212
vt 0.6085 0.3504
vt 0.6068 0.3212
vt 0.8136 0.3942
vt 0.9177 0.0876
vt 0.8644 0.0876
vt 0.4068 0.0803
vt 0.3602 0.4854
vt 0.7648 0.1606
vt 0.7034 0.1606
vt 0.7076 0.1569
vt 0.6525 0.8653
vt 0.1144 0.9609
vt 0.6102 0.8273
vt 0.0466 -0
vt 0.5551 0.073
vt 0.6292 0.073
vt 0.6314 0.0748
vt 0.6759 0.438
vt 0.7392 0.4826
vt 0.6776 0.4964
vt 0.5612 0.4088
vt 0.4915 0.0292
vt 0.8136 0.4052
vt 0.7627 0.7503
vt 0.5636 0.1095
vt 0.6356 0.1077
vt 0.6335 0.1095
vt 0.572 0.1387
vt 0.6356 0.1369
vt 0.9774 0.0803
vt 0.6186 0.7496
vt 0.5466 0.0803
vt 0.6229 0.0785
vt 0.625 0.0803
vt 0.8347 0.1387
vt 0.7691 0.1387
vt 0.7712 0.1369
vt 0.5381 0.0949
vt 0.49 0.0876
vt 0.5424 0.0876
vt 0.3602 0.3504
vt 0.2881 0.3212
vt 0.6229 0.0876
vt 0.6905 0.3683
vt 0.6745 0.3691
vt 0.9683 0.0657
vt 0.8898 0.0584
vt 0.9657 0.0584
vt 0.6102 0.3212
vt 0.6056 0.292
vt 0.5661 0.4088
vt 0.5085 0.4088
vt 0.5786 0.3713
vt 0.6645 0.3504
vt 0.6285 0.3645
vt 0.4958 0.7605
vt 0.5339 0.764
vt 0.4448 0.0584
vt 0.5212 0.0657
vt 0.7712 0.1551
vt 0.8602 0.0949
vt 0.7839 0.0967
vt 0.7818 0.0949
vt 0.4308 0.4964
vt 0.2818 0.4854
vt 0.5593 0.438
vt 0.6932 0.3212
vt 0.5927 0.2724
vt 0.4961 0.3212
vt 0.4068 0.3504
vt 0.5085 0.2336
vt 0.5631 0.4964
vt 0.5085 0.4214
vt 0.7797 0.2774
vt 0.6525 0.7661
vt 0.7119 0.4169
vt 0.6102 0.7226
vt 0.6292 0.1022
vt 0.6992 0.1277
vt 0.6462 0.1241
vt 0.7034 0.1241
vt 0.4109 0.438
vt 0.7384 0.438
vt 0.5169 0.0584
vt 0.7076 0.1642
vt 0.8136 0.438
vt 0.6102 0.438
vt 0.125 0
vt 0.6956 0.3504
vt 0.6115 0.3504
vt 0.6398 0.4088
vt 0.6249 0.3975
vt 0.3051 0.7226
vt 1 0.0949
vt 0.3729 0.1752
vt 0.4068 0.2427
vt 0.7585 0.1259
vt 0.7034 0.1314
vt 0.5184 0.4191
vt 0.5124 0.4088
vt 0.5935 0.4253
vt 0.601 0.438
vt 0.4365 0.0876
vt 0.4068 0.0876
vt 0.6325 0.2628
vt 0.6949 0.3212
vt 0.5208 0.292
vt 0.7034 0.1387
vt 0.5085 0.4192
vt 0.4685 0.438
vt 0.5424 0.2628
vt 0.2034 0.3212
vt 0.125 0.3504
vt 0.7392 0.4964
vt 0.5678 0.146
vt 0.568 0.438
vt 0.4873 0.0949
vt 0.2034 0.4179
vt 0.2034 0.4854
vt 0.3602 0.5547
vt 0.2034 0.3504
vt 0.7372 0.1993
vt 0.7372 0.2022
vt 0.7348 0.2043
vt 0.7314 0.2043
vt 0.7289 0.2022
vt 0.7289 0.1993
vt 0.7314 0.1972
vt 0.7348 0.1972
vt 0.6186 0.7638
vt 0.7034 0.1022
vt 0.7754 0.1004
vt 0.7775 0.1022
vt 0.5721 0.4964
vt 0.5298 0.438
vt 0.5978 0.438
vt 0.7076 0.1058
vt 0.7585 0.1661
vt 0.5297 0.073
vt 0.4824 0.0803
vt 0.4782 0.0766
vt 0.7712 0.1168
vt 0.7034 0.1095
vt 0.7733 0.1095
vt 0.6356 0.0584
vt 0.7034 0.0657
vt 0.6335 0.0657
vt 0.6419 0.1314
vt 0.6992 0.135
vt 0.6483 0.1168
vt 0.6398 0.1296
vt 0.5932 0.1168
vt 0.589 0.1241
vt 0.7775 0.073
vt 0.7076 0.0766
vt 0.7034 0.073
vt 0.3432 0.9124
vt 0.839 0.1168
vt 0.8432 0.1095
vt 0.661 0.8685
vt 0.6441 0.1588
vt 0.7712 0.146
vt 0.6992 0.0693
vt 0.6271 0.0712
vt 0.5381 0.5547
vt 0.4377 0.0876
vt 0.2034 0.1022
vt 0.2881 0.1022
vt 0.7487 0.2336
vt 0.8475 0.1788
vt 0.8136 0.8442
vt 0.5339 0.7226
vt 0.7627 0.1588
vt 0.6992 0.1569
vt 0.601 0.2628
vt 0.7585 0.1168
vt 0.7606 0.1241
vt 0.0339 0.2482
vt 0.1186 0.1752
vt 0.1186 0.2482
vt 0.9025 0.4964
vt 0.9025 0.4797
vt 0.6102 0.6971
vt 0.8517 0.1022
vt 0.6314 0.1004
vt 0.7076 0.0985
vt 0 0.2427
vt 0.0339 0.1752
vt 0.7203 0.7576
vt 0.125 0.4854
vt 0.2034 0.5529
vt 0.125 0.5529
vt 0.8178 0.1241
vt 0.125 0.4179
vt 0.5254 0.3212
vt 0.3602 0.5529
vt 0.2818 0.5529
vt 0.2034 0.2482
vt 0.2881 0.1752
vt 0.2881 0.2482
vt 0.3861 0.3248
vt 0.3868 0.3212
vt 0.4195 0.7226
vt 0.402 0.3467
vt 0.4068 0.3431
vt 0.4068 0.3467
vt 0.1907 0.7226
vt 0.2288 0.7226
vt 0.1314 0.6204
vt 0.1398 0.6533
vt 0.1229 0.6533
vt 0.3771 0.8723
vt 0.3432 0.8942
vt 0.3475 0.8723
vt 0.4831 0.6533
vt 0.4619 0.6825
vt 0.4661 0.6533
vt 0.3814 0.7044
vt 0.2627 0.6825
vt 0.2373 0.6533
vt 0.2542 0.6533
vt 0.3051 0.7044
vt 0.0932 0.6204
vt 0.1017 0.6533
vt 0.0847 0.6533
vt 0.2288 0.7044
vt 0.2669 0.7044
vt 0.3432 0.7044
vt 0.0551 0.6204
vt 0.0636 0.6533
vt 0.0466 0.6533
vt 0.5339 0.8942
vt 0.5678 0.8723
vt 0.572 0.8942
vt 0.0339 0.8723
vt 0.0085 0.8431
vt 0.0254 0.8431
vt 0.0169 0.6204
vt 0.0254 0.6533
vt 0.0085 0.6533
vt 0.0381 0.8942
vt 0.0042 0.8723
vt 0.3517 0.8431
vt 0.3686 0.8431
vt 0.8136 0.8023
vt 0.0042 0.6825
vt 0.0339 0.6825
vt 0.4958 0.7044
vt 0.5339 0.7044
vt 0.589 0.6204
vt 0.5975 0.6533
vt 0.5805 0.6533
vt 0.1949 0.6825
vt 0.2246 0.6825
vt 0.0424 0.6825
vt 0.1144 0.7044
vt 0.0763 0.7044
vt 0.5508 0.6204
vt 0.5593 0.6533
vt 0.5424 0.6533
vt 0.1144 0.7226
vt 0.5127 0.6204
vt 0.5212 0.6533
vt 0.5042 0.6533
vt 0.0763 0.8942
vt 0.1102 0.8723
vt 0.1144 0.8942
vt 0.1102 0.6825
vt 0.4746 0.6204
vt 0.339 0.6825
vt 0.2246 0.8723
vt 0.1992 0.8431
vt 0.2161 0.8431
vt 0.5339 0.9124
vt 0.4958 0.8942
vt 0.3686 0.6533
vt 0.3475 0.6825
vt 0.3517 0.6533
vt 0.2288 0.9124
vt 0.2669 0.8942
vt 0.2669 0.9124
vt 0.4364 0.6204
vt 0.4449 0.6533
vt 0.428 0.6533
vt 0.0381 0.7044
vt 0.072 0.6825
vt 0.3008 0.6825
vt 0.2754 0.6533
vt 0.2924 0.6533
vt 0.3983 0.6204
vt 0.4068 0.6533
vt 0.3898 0.6533
vt 0.5 0.6825
vt 0.5297 0.6825
vt 0.3602 0.6204
vt 0.572 0.7044
vt 0.5381 0.6825
vt 0.5678 0.6825
vt 0.1525 0.9124
vt 0.1525 0.8942
vt 0 0.7044
vt 0.5 0.8723
vt 0.5212 0.8431
vt 0.5297 0.8723
vt 0.322 0.6204
vt 0.3305 0.6533
vt 0.3136 0.6533
vt 0.5975 0.8431
vt 0.5763 0.8723
vt 0.5805 0.8431
vt 0.4576 0.7044
vt 0.2839 0.6204
vt 0.4915 0.6825
vt 0.572 0.7226
vt 0.2458 0.6204
vt 0.2288 0.8942
vt 0.1949 0.8723
vt 0.1568 0.8723
vt 0.178 0.8431
vt 0.1864 0.8723
vt 0.2076 0.6204
vt 0.2161 0.6533
vt 0.1992 0.6533
vt 0.2712 0.6825
vt 0.1864 0.6825
vt 0.161 0.6533
vt 0.178 0.6533
vt 0.4237 0.6825
vt 0.4534 0.6825
vt 0.6102 0.7044
vt 0.1695 0.6204
vt 0.5763 0.6825
vt 0.6059 0.6825
vt 0.4542 0.073
vt 0.5297 0.1022
vt 0.4479 0.0949
vt 0.5466 0.1241
vt 0.5071 0.1314
vt 0.4957 0.1241
vt 0.5551 0.1314
vt 0.5108 0.1387
vt 0.5381 0.0803
vt 0.572 0.9477
vt 0.5339 0.9538
vt 0.5212 0.1095
vt 0.4448 0.1168
vt 0.4304 0.1095
vt 0.5466 0.1679
vt 0.5019 0.1606
vt 0.5551 0.1606
vt 0.9733 0.073
vt 0.5925 0.4088
vt 0.5636 0.1533
vt 0.4926 0.1533
vt 0.1907 0.9124
vt 0.1525 0.9504
vt 0.1907 0.9547
vt 0.4894 0.0876
vt 0.891 0.1387
vt 0.8517 0.1314
vt 0.8909 0.1314
vt 0.8771 0.1022
vt 0.9756 0.0949
vt 0.9707 0.1022
vt 0.8602 0.1241
vt 0.8934 0.1241
vt 0.8771 0.073
vt 0.8432 0.1533
vt 0.8933 0.146
vt 0.8974 0.1533
vt 0.8898 0.1168
vt 0.9664 0.1095
vt 0.9657 0.1168
vt 0.611 0.4088
vt 0.8856 0.1095
vt 0.8602 0.1679
vt 0.9 0.1606
vt 0.8999 0.1679
vt 0.8517 0.1606
vt 0.5424 0.1752
vt 0.4941 0.1679
vt 0.8644 0.1752
vt 0.8976 0.1752
vt 0.4068 0.1825
vt 0.428 0.1752
vt 0.4322 0.1825
vt 0.4322 0.2263
vt 0.4068 0.219
vt 0.4407 0.219
vt 0.4068 0.2117
vt 0.4492 0.1971
vt 0.428 0.2336
vt 0.4068 0.2263
vt 0.4068 0.1971
vt 0.4407 0.1898
vt 0.4068 0.1898
vt 0.4576 0.1971
vt 0.5072 0.1971
vt 0.3729 0.3431
vt 0.3847 0.3394
vt 0.3858 0.3431
vt 0.3729 0.3394
vt 0.3898 0.3504
vt 0.4051 0.3467
vt 0.4053 0.3504
vt 0.3729 0.3285
vt 0.385 0.3285
vt 0.4046 0.3248
vt 0.3898 0.3212
vt 0.4053 0.3212
vt 0.3729 0.3504
vt 0.3867 0.3467
vt 0.3868 0.3504
vt 0.4026 0.3321
vt 0.3898 0.3285
vt 0.4035 0.3285
vt 0.3729 0.3248
vt 0.3898 0.3394
vt 0.4025 0.3358
vt 0.4031 0.3394
vt 0.3898 0.3321
vt 0.4958 0.9502
vt 0.3898 0.3248
vt 0 0.7226
vt 0.4958 0.9124
vt 0.4576 0.9497
vt 0.3898 0.3467
vt 0.4042 0.3431
vt 0.4567 0.0657
vt 0.4974 0.1314
vt 0.5043 0.1241
vt 0.5054 0.1387
vt 0.5424 0.1168
vt 0.4897 0.1168
vt 0.5113 0.1825
vt 0.4788 0.1752
vt 0.5099 0.1752
vt 0.4998 0.1606
vt 0.7606 0.1679
vt 0.5079 0.1533
vt 0.445 0.1095
vt 0.4283 0.1022
vt 0.8911 0.1387
vt 0.8902 0.1314
vt 0.9666 0.0949
vt 0.9649 0.1022
vt 0.8871 0.1241
vt 0.889 0.146
vt 0.886 0.1533
vt 0.5018 0.1679
vt 0.9671 0.1095
vt 0.8829 0.1606
vt 0.8819 0.1679
vt 0.5169 0.1168
vt 0.8842 0.1752
vt 0.7669 0.1624
vt 0.8178 0.1679
vt 0.839 0.146
vt 0.7797 0.104
vt 0.8263 0.1314
vt 0.7627 0.1332
vt 0.6229 0.0967
vt 0.5466 0.0949
vt 0.625 0.0949
vt 0.5932 0.1752
vt 0.7839 0.0876
vt 0.8602 0.0803
vt 0.7818 0.0803
vt 0.8517 0.073
vt 0.7754 0.0748
vt 0.8136 0.1168
vt 0.8263 0.1606
vt 0.7797 0.0712
vt 0.5678 0.1168
vt 0.6356 0.1168
vt 0.7648 0.1314
vt 0.8347 0.1533
vt 0.7691 0.1533
vt 0.7733 0.0657
vt 0.839 0.0584
vt 0.8432 0.0657
vt 0.5636 0.0657
vt 0.6377 0.1533
vt 0.7839 0.0785
vt 0.572 0.1533
vt 0.5551 0.1022
vt 0.6441 0.1332
vt 0.5805 0.1314
vt 0.6271 0.104
vt 0.7712 0.0584
vt 0.6398 0.1624
vt 0.8644 0.1168
vt 0.8976 0.1168
vt 0.0381 0.9546
vt 0 0.9124
vt 0 0.9583
vt 0.4365 0.0949
vt 0.6102 0.7622
vt 0.0381 0.9124
vt 0.1525 0.7226
vt 0.517 0.4964
vt 0.3989 0.3394
vt 0.4068 0.3358
vt 0.4068 0.3394
vt 0.5424 0.2501
vt 0.1314 0.8102
vt 0.1398 0.8431
vt 0.1229 0.8431
vt 0.1907 0.8942
vt 0.4915 0.8723
vt 0.4661 0.8431
vt 0.4831 0.8431
vt 0.4068 0.8431
vt 0.3856 0.8723
vt 0.3898 0.8431
vt 0.0932 0.8102
vt 0.1017 0.8431
vt 0.0847 0.8431
vt 0.3814 0.8942
vt 0.4153 0.8723
vt 0.4195 0.8942
vt 0.4195 0.9124
vt 0.0551 0.8102
vt 0.0636 0.8431
vt 0.0466 0.8431
vt 0.1483 0.6825
vt 0.0169 0.8102
vt 0.3051 0.8942
vt 0.339 0.8723
vt 0.1907 0.7044
vt 0.3136 0.8431
vt 0.3305 0.8431
vt 0.4576 0.9124
vt 0.4576 0.8942
vt 0.589 0.8102
vt 0.0805 0.6825
vt 0.2924 0.8431
vt 0.2712 0.8723
vt 0.2754 0.8431
vt 0.5508 0.8102
vt 0.5593 0.8431
vt 0.5424 0.8431
vt 0.3771 0.6825
vt 0.5127 0.8102
vt 0.5042 0.8431
vt 0.1525 0.7044
vt 0.1186 0.6825
vt 0.0805 0.8723
vt 0.4746 0.8102
vt 0.4534 0.8723
vt 0.4237 0.8723
vt 0.4449 0.8431
vt 0.428 0.8431
vt 0.4364 0.8102
vt 0.3008 0.8723
vt 0.2288 0.9533
vt 0.3983 0.8102
vt 0.6059 0.8723
vt 0.6102 0.8942
vt 0.3602 0.8102
vt 0.072 0.8723
vt 0.0424 0.8723
vt 0.4619 0.8723
vt 0.3093 0.6825
vt 0.322 0.8102
vt 0.1483 0.8723
vt 0 0.8942
vt 0.2839 0.8102
vt 0.1186 0.8723
vt 0.572 0.9124
vt 0.2458 0.8102
vt 0.2542 0.8431
vt 0.2373 0.8431
vt 0.1568 0.6825
vt 0.2076 0.8102
vt 0.2627 0.8723
vt 0.2331 0.8723
vt 0.6102 0.9124
vt 0.1695 0.8102
vt 0.161 0.8431
vt 0.3857 0.3248
vt 0.4415 0.1168
vt 0.8136 0.7622
vt 0.3898 0.3431
vt 0.5109 0.146
vt 0.5636 0.1387
vt 0.6325 0.438
vt 1 0.1022
vt 0.6102 0.9583
vt 0.4962 0.1168
vt 0.509 0.2263
vt 0.4788 0.2336
vt 0.4746 0.2263
vt 0.4988 0.146
vt 1 0.0584
vt 0.8432 0.1387
vt 0.4068 0.0949
vt 0.4434 0.0803
vt 0.4068 0.1168
vt 0.3985 0.3321
vt 0.4068 0.3321
vt 0.4415 0.0584
vt 0.4025 0.3504
vt 0.3865 0.3212
vt 0.4068 0.3285
vt 0.4016 0.3248
vt 0.4068 0.3248
vt 0.3841 0.3285
vt 0.3729 0.3467
vt 0.3846 0.3431
vt 0.3898 0.3358
vt 0.3826 0.3321
vt 0.4025 0.3212
vt 0.4068 0.3212
vt 0.4 0.3285
vt 0.3865 0.3504
vt 0.3829 0.3394
vt 0.4005 0.3431
vt 0.386 0.3467
vt 0.5339 0.2044
vt 0.5381 0.1971
vt 0.5069 0.1898
vt 0.4746 0.1825
vt 0.4661 0.1898
vt 0.5551 0.2263
vt 0.5099 0.2336
vt 0.5551 0.1825
vt 0.5593 0.1752
vt 0.5047 0.2117
vt 0.4661 0.219
vt 0.5069 0.219
vt 0.2669 0.9637
vt 0.8842 0.1168
vt 0.5466 0.1898
vt 0.5381 0.2117
vt 0.5466 0.219
vt 0.7288 0.1971
vt 0.7331 0.1898
vt 0.7331 0.1971
vt 0.7458 0.1971
vt 0.7415 0.1898
vt 0.7119 0.1752
vt 0.5297 0.562
vt 0.572 0.5839
vt 0.7627 0.1752
vt 0.8305 0.1752
vt 0.8475 0.1752
vt 0.8136 0.1752
vt 0.75 0.1898
vt 0.75 0.1971
vt 0.7542 0.1971
vt 0 0.1077
vt 0.2034 0.0292
vt 0.2818 0
vt 0.3729 0.1022
vt 0.6102 0.2628
vt 0.6992 0.0985
vt 0.7034 0.0949
vt 0.0466 0.4179
vt 0.0466 0.4854
vt 0.6356 0.0675
vt 0 0.3102
vt 0.7034 0.0876
vt 0.7034 0.0803
vt 0.5678 0.0584
vt 0.7034 0.0584
vt 0.2034 0.6204
vt 0.125 0.6204
vt 0.4068 0.0401
vt 0.7712 0.0675
vt 0.6356 0.1551
vt 0.0466 0.5529
vt 0.0466 0.6204
vt 0.6992 0.1642
vt 0.2034 0.1752
vt 0.7712 0.1077
vt 0.4068 0.1077
vt 0.7585 0.1752
vt 0.7076 0.135
vt 0.7034 0.1533
vt 0.6992 0.0766
vt 0.6483 0.1752
vt 0.678 0.2546
vt 0.2818 0.6204
vt 0.6992 0.1058
vt 0.7034 0.1168
vt 0.7076 0.0693
vt 0.661 0.438
vt 0.3729 0.3358
vt 0.5593 0.2628
vt 0.4068 0.1752
vt 0.7034 0.1168
vt 0 0.1752
vt 0.2331 0.6825
vt 0.5381 0.8723
vt 0.4897 0.1752
vt 0.4068 0.1752
vt 0.4068 0.2336
vt 0.4962 0.1752
vt 0.8877 0.438
vt 0.398 0.3358
vt 0.3093 0.8723
vt 0.8136 0.8273
vt 0.3821 0.3358
vt 0.5593 0.2336
vt 0.7542 0.1898
vt 0.2034 0
vt 0.7034 0.1752
s 1
f 269/1 267/2 271/3
f 413/4 406/5 410/6
f 1197/7 6/8 2/9
f 723/10 480/11 485/12
f 1130/13 5/14 1/15
f 1113/16 8/17 4/18
f 713/19 320/20 714/21
f 1038/22 907/23 908/24
f 85/25 84/26 12/27
f 1008/28 596/29 595/30
f 20/31 57/32 19/33
f 13/34 14/35 86/36
f 262/37 259/38 263/39
f 91/40 95/41 90/42
f 101/40 104/41 99/42
f 254/39 251/43 255/44
f 253/37 250/38 254/39
f 94/45 93/46 92/47
f 825/48 840/49 824/50
f 834/51 849/52 850/53
f 100/46 103/45 102/54
f 139/55 162/56 140/57
f 593/58 592/59 591/60
f 131/61 122/62 130/63
f 136/55 134/64 137/65
f 163/66 165/67 164/15
f 128/68 120/69 121/70
f 158/55 151/56 157/57
f 108/71 134/64 133/69
f 125/72 130/63 122/62
f 106/61 132/70 114/73
f 129/71 119/64 120/69
f 101/40 98/47 100/46
f 1078/74 7/75 3/76
f 125/66 127/67 126/15
f 29/77 498/78 25/79
f 112/72 107/63 115/62
f 150/66 148/67 149/15
f 588/61 160/62 587/63
f 106/61 115/62 107/63
f 929/80 944/81 928/81
f 163/72 587/63 160/62
f 144/61 154/70 152/73
f 112/66 110/67 111/15
f 585/68 142/69 143/70
f 127/67 118/57 117/55
f 146/71 156/64 155/69
f 131/61 121/70 123/73
f 150/72 145/63 153/62
f 586/71 141/64 142/69
f 853/82 812/83 813/84
f 109/68 133/69 132/70
f 158/55 156/64 159/65
f 117/55 119/64 116/65
f 966/85 1146/86 967/87
f 166/88 875/89 170/90
f 874/91 980/92 870/93
f 1102/94 170/90 963/95
f 195/96 201/97 199/98
f 199/99 880/100 171/101
f 387/102 396/103 389/104
f 881/105 195/96 169/106
f 182/107 170/90 876/108
f 513/109 520/110 512/111
f 17/112 497/113 496/114
f 193/115 877/116 879/117
f 996/118 997/119 243/120
f 486/121 67/122 499/123
f 283/124 293/125 288/12
f 93/46 90/42 92/47
f 95/126 92/47 90/42
f 279/127 276/128 280/1
f 410/6 407/129 411/37
f 1197/7 1079/130 1215/131
f 1009/132 349/98 1061/133
f 256/6 249/129 253/37
f 263/39 260/43 264/44
f 255/4 252/5 256/6
f 264/4 257/5 261/6
f 10/134 11/135 9/36
f 97/136 91/40 93/46
f 404/4 401/5 405/6
f 272/137 266/138 270/127
f 271/3 268/139 272/140
f 402/37 399/38 403/39
f 887/141 969/142 329/143
f 883/144 1085/145 1048/146
f 896/147 891/148 334/149
f 1050/150 1051/151 335/152
f 88/135 87/134 89/27
f 334/101 1061/153 349/99
f 937/154 949/114 953/154
f 1010/155 350/97 1009/132
f 334/101 899/156 898/157
f 638/158 634/159 635/160
f 1028/161 336/162 1060/163
f 238/164 388/165 390/166
f 110/67 135/57 136/55
f 246/167 242/168 393/120
f 411/37 408/38 412/39
f 1084/169 1150/170 1214/171
f 277/137 275/138 279/127
f 405/6 398/129 402/37
f 403/39 400/43 404/44
f 280/1 274/2 278/3
f 269/1 266/138 265/128
f 277/140 274/2 273/139
f 633/172 642/173 632/174
f 647/175 178/176 179/177
f 1024/178 84/179 85/180
f 676/181 662/182 661/183
f 871/184 170/185 874/91
f 998/186 82/187 11/135
f 1008/28 11/135 12/27
f 827/188 843/189 828/190
f 755/191 764/192 756/193
f 748/190 741/194 740/195
f 377/196 616/197 618/198
f 758/199 767/200 766/201
f 762/202 769/52 761/203
f 760/49 767/204 759/205
f 746/206 747/188 739/207
f 756/193 770/53 762/202
f 757/208 766/201 765/209
f 742/210 751/211 743/212
f 752/213 745/214 744/215
f 761/203 768/216 760/49
f 753/217 746/206 745/214
f 750/218 741/194 749/219
f 747/188 740/195 739/207
f 751/220 744/215 743/221
f 776/222 777/223 778/224
f 795/215 798/225 796/226
f 795/221 802/224 797/227
f 792/222 793/223 794/224
f 784/222 781/227 779/221
f 774/225 771/215 773/228
f 835/191 819/229 820/230
f 856/231 815/232 816/233
f 781/228 780/226 779/215
f 799/234 802/224 800/222
f 785/223 780/226 782/225
f 787/215 790/225 788/226
f 788/226 793/223 791/234
f 933/114 950/113 949/114
f 772/226 777/223 775/234
f 1067/235 902/236 1047/237
f 496/114 59/238 17/112
f 346/239 1011/240 895/241
f 894/242 335/152 333/90
f 893/243 329/143 331/244
f 1038/245 87/246 86/247
f 958/248 172/152 168/244
f 1063/249 901/250 1025/251
f 1025/251 14/252 13/187
f 588/61 143/70 161/73
f 970/253 15/179 1047/237
f 910/254 911/255 912/256
f 488/257 45/258 49/259
f 913/260 922/261 921/262
f 516/263 566/264 517/265
f 953/154 938/266 937/154
f 911/255 918/236 919/267
f 912/256 919/267 920/268
f 929/80 943/257 945/80
f 916/269 923/23 915/270
f 784/222 785/223 786/224
f 1073/271 232/272 1068/273
f 938/266 952/123 936/123
f 139/55 141/64 138/65
f 506/274 556/275 552/276
f 648/277 176/278 177/279
f 935/78 950/113 934/113
f 927/257 942/280 943/257
f 956/281 926/280 940/281
f 925/121 955/282 939/282
f 689/283 683/284 690/285
f 936/123 941/121 925/121
f 917/250 915/270 923/23
f 335/286 893/243 331/244
f 932/287 944/288 948/287
f 884/289 895/241 205/290
f 244/291 239/102 1052/292
f 416/293 415/294 1169/295
f 999/296 1026/297 171/101
f 620/298 985/299 614/300
f 1172/301 1057/302 1131/303
f 1165/304 1069/305 1166/306
f 222/307 1073/271 1041/308
f 742/210 750/218 751/211
f 752/213 753/217 745/214
f 261/6 258/129 262/37
f 11/135 82/34 9/36
f 82/34 83/35 9/36
f 982/309 589/310 594/311
f 10/134 85/25 12/27
f 961/312 1081/313 1154/314
f 416/293 1169/295 1165/304
f 1013/315 193/115 168/244
f 87/134 16/25 89/27
f 16/25 15/26 89/27
f 620/298 986/316 985/299
f 88/135 13/34 86/36
f 222/307 224/317 1073/271
f 936/123 952/123 941/121
f 689/283 682/318 683/284
f 1214/171 1150/170 1023/319
f 1136/320 978/321 1034/322
f 917/250 909/323 915/270
f 506/274 505/324 556/275
f 938/266 954/266 952/123
f 925/121 941/121 955/282
f 956/281 942/280 926/280
f 982/309 594/311 1024/178
f 595/30 596/29 589/310
f 596/29 594/311 589/310
f 405/6 401/5 398/129
f 590/325 593/58 591/60
f 905/262 1047/237 902/236
f 6/326 1079/130 2/9
f 463/327 1148/328 1163/329
f 248/330 1062/331 240/332
f 884/289 347/333 895/241
f 108/71 137/65 134/64
f 125/72 126/334 130/63
f 751/220 752/213 744/215
f 129/71 116/65 119/64
f 335/286 894/335 893/243
f 904/268 1067/235 1053/336
f 425/337 1105/338 1156/339
f 747/188 748/190 740/195
f 112/72 111/334 107/63
f 421/340 1179/341 1172/301
f 660/181 1068/273 654/342
f 901/250 1040/343 1025/251
f 419/344 1173/345 1176/346
f 163/72 164/334 587/63
f 795/215 797/228 798/225
f 458/347 1086/348 1152/349
f 367/350 984/351 365/352
f 932/287 928/288 944/288
f 146/71 159/65 156/64
f 776/222 775/234 777/223
f 150/72 149/334 145/63
f 586/71 138/65 141/64
f 927/257 926/280 942/280
f 332/106 1028/161 1011/240
f 7/353 1155/354 3/76
f 462/344 1123/355 464/352
f 168/244 166/143 960/356
f 166/143 871/184 959/357
f 960/356 166/143 959/357
f 658/358 227/359 656/360
f 1049/361 1192/362 1050/150
f 960/356 958/248 168/244
f 868/363 167/364 869/365
f 167/364 966/85 869/365
f 957/366 959/357 873/367
f 959/357 871/184 873/367
f 873/367 869/365 957/366
f 748/190 749/219 741/194
f 931/368 946/369 947/368
f 627/370 212/371 626/173
f 1136/320 1034/322 1100/372
f 451/373 1188/374 1092/375
f 397/376 239/102 244/291
f 1214/171 1023/319 1191/377
f 1101/378 171/149 870/93
f 170/90 172/152 962/379
f 995/380 999/296 171/101
f 1119/381 173/162 171/101
f 170/90 962/379 963/95
f 1027/133 195/96 199/98
f 173/382 169/106 195/96
f 171/101 1027/153 199/99
f 199/99 203/383 880/100
f 391/384 244/291 1052/292
f 169/106 167/364 881/105
f 167/364 197/385 881/105
f 170/90 1013/386 172/152
f 170/90 875/89 876/108
f 998/186 983/387 82/187
f 755/191 763/189 764/192
f 878/388 166/143 879/117
f 166/143 168/244 879/117
f 168/244 193/115 879/117
f 495/287 41/389 490/288
f 425/337 1080/390 1105/338
f 416/293 1165/304 1166/306
f 1072/391 1201/392 1071/393
f 261/6 257/5 258/129
f 397/376 395/394 239/102
f 248/330 1065/395 1062/331
f 627/370 216/396 212/371
f 168/244 172/286 1013/315
f 1165/304 1070/397 1069/305
f 904/268 903/267 1067/235
f 1013/315 182/398 193/115
f 961/312 957/366 1081/313
f 660/181 1073/271 1068/273
f 905/262 970/253 1047/237
f 980/92 981/399 870/93
f 462/344 1164/346 1123/355
f 6/326 1149/400 1079/130
f 901/250 907/23 1040/343
f 167/364 169/106 966/85
f 1000/401 969/142 882/402
f 329/143 885/403 887/141
f 887/141 886/404 882/402
f 499/123 63/405 501/266
f 668/406 676/181 661/183
f 964/407 1150/408 1078/74
f 1091/409 974/410 975/391
f 334/149 330/364 897/411
f 330/364 348/412 897/411
f 891/148 890/413 889/414
f 630/318 637/415 629/416
f 334/149 897/411 896/147
f 961/312 995/380 963/95
f 891/148 889/414 334/149
f 333/90 1051/151 888/417
f 1083/418 1050/150 335/152
f 334/101 1064/419 336/162
f 1172/301 1029/420 1057/302
f 349/99 351/383 334/101
f 1085/145 1049/361 1048/146
f 330/364 1010/155 332/106
f 330/364 898/421 900/422
f 898/157 330/423 334/101
f 334/101 351/383 899/156
f 647/175 650/198 178/176
f 993/424 1185/425 1113/16
f 1062/331 1066/426 240/332
f 421/340 1131/303 423/427
f 392/428 391/384 1052/292
f 7/353 1084/169 1155/354
f 1026/297 1119/381 171/101
f 658/358 231/196 227/359
f 1049/361 1064/419 1192/362
f 1027/133 173/382 195/96
f 367/350 1014/429 984/351
f 981/399 1101/378 870/93
f 931/368 930/369 946/369
f 10/246 1024/178 85/180
f 163/66 162/56 165/67
f 128/68 129/71 120/69
f 1084/169 7/353 1150/170
f 1128/430 1191/377 1076/431
f 277/137 273/432 275/138
f 1054/433 1214/171 1128/430
f 733/434 732/435 731/436
f 731/436 738/437 737/438
f 737/438 736/439 735/440
f 735/440 734/441 733/434
f 916/269 924/24 923/23
f 882/402 1048/146 1000/401
f 590/325 994/442 593/58
f 1020/443 1159/444 1147/445
f 247/446 968/447 241/448
f 9/247 982/309 10/246
f 1105/338 1020/443 973/449
f 1153/450 978/321 1136/320
f 356/451 1037/452 1015/453
f 1154/314 967/87 1026/297
f 1165/304 1056/321 1070/397
f 1129/454 1018/455 1133/456
f 1207/457 976/458 1093/459
f 82/187 994/442 83/252
f 89/27 1063/249 88/135
f 1087/460 1030/461 1179/341
f 1181/462 1071/393 1201/392
f 1072/391 1189/460 1202/463
f 414/464 1137/392 422/465
f 774/225 772/226 771/215
f 1193/466 1035/467 1021/468
f 516/263 562/469 566/264
f 435/470 1088/456 434/471
f 781/228 782/225 780/226
f 913/260 914/472 922/261
f 978/321 1162/473 1034/322
f 458/347 1118/474 1086/348
f 799/234 801/223 802/224
f 977/475 1148/328 1094/476
f 785/223 783/234 780/226
f 463/327 1164/346 462/344
f 835/191 836/193 819/229
f 784/222 786/224 781/227
f 101/40 105/477 104/41
f 1014/429 202/478 984/351
f 1140/479 1130/13 1213/480
f 348/412 330/364 346/239
f 330/364 332/106 346/239
f 1028/161 895/241 1011/240
f 333/90 892/481 894/242
f 892/481 345/107 894/242
f 758/199 759/482 767/200
f 377/196 373/359 616/197
f 753/217 754/51 746/206
f 792/222 791/234 793/223
f 795/221 800/222 802/224
f 761/203 769/52 768/216
f 912/256 916/483 910/254
f 33/484 494/368 29/77
f 238/164 243/120 388/165
f 915/270 909/323 914/472
f 914/472 913/260 915/270
f 101/40 99/42 98/47
f 1078/74 1150/408 7/75
f 1106/485 1056/321 987/486
f 332/106 1010/155 1009/132
f 888/417 1050/150 889/487
f 1042/393 1180/488 1174/489
f 1098/490 1139/491 1212/492
f 245/493 996/118 384/494
f 1042/393 1091/409 975/391
f 86/495 1040/343 1038/22
f 591/60 983/387 998/186
f 450/496 1188/374 451/373
f 991/443 1125/497 1007/498
f 1170/499 979/500 1098/490
f 205/290 1060/163 883/144
f 594/311 1012/501 1024/178
f 1127/502 1178/503 1211/504
f 448/505 1115/409 1134/489
f 595/30 998/186 1008/28
f 1185/425 1128/430 1210/506
f 1048/146 1083/418 335/152
f 1060/163 1182/507 1049/361
f 1191/377 1167/508 1209/509
f 1145/510 1203/511 1208/512
f 1024/178 1012/501 84/179
f 708/513 315/76 709/514
f 21/515 498/78 497/113
f 694/516 301/517 300/518
f 486/121 75/519 71/520
f 1065/395 246/167 1062/331
f 1053/336 16/180 87/246
f 81/521 54/522 50/523
f 560/524 563/525 564/526
f 26/527 23/528 22/529
f 20/31 17/112 56/530
f 69/531 74/532 70/533
f 67/122 64/534 63/405
f 81/535 50/536 46/537
f 72/538 69/531 68/539
f 56/530 59/238 60/540
f 81/541 46/542 42/543
f 535/544 538/545 539/546
f 546/547 541/548 545/549
f 81/550 42/551 38/552
f 547/553 542/554 546/547
f 560/524 565/555 561/556
f 924/557 912/256 920/268
f 39/558 42/551 43/559
f 33/484 28/560 32/561
f 81/562 38/563 34/564
f 72/538 77/565 73/566
f 46/542 43/567 42/543
f 52/568 49/259 48/569
f 81/570 34/571 30/572
f 488/257 53/573 487/280
f 81/574 30/575 26/576
f 551/577 554/578 555/579
f 51/580 46/537 50/536
f 63/405 60/540 59/238
f 81/581 26/527 22/529
f 64/534 61/582 60/540
f 576/583 581/584 577/585
f 536/586 531/587 535/544
f 58/588 61/589 62/590
f 574/591 571/592 570/593
f 81/594 22/595 18/596
f 44/597 47/598 48/569
f 65/599 70/600 66/601
f 552/276 547/553 551/577
f 81/602 18/603 58/604
f 32/561 27/605 31/606
f 81/607 58/588 62/590
f 36/608 31/609 35/610
f 35/610 30/572 34/571
f 582/611 555/579 558/612
f 40/613 43/559 44/597
f 530/614 533/615 534/616
f 45/258 40/613 44/597
f 81/617 62/618 66/619
f 541/620 538/621 537/622
f 21/515 24/623 25/79
f 81/624 66/601 70/600
f 24/623 27/625 28/560
f 37/626 32/561 36/608
f 81/627 70/533 74/532
f 575/628 580/629 576/583
f 583/630 581/631 580/632
f 81/633 74/634 78/635
f 65/599 68/539 69/636
f 77/637 54/638 78/639
f 48/569 45/258 44/597
f 19/640 22/595 23/641
f 40/642 37/626 36/608
f 81/643 78/639 54/638
f 40/642 35/644 39/645
f 212/371 625/646 626/173
f 220/647 623/648 221/350
f 214/649 339/650 343/651
f 209/652 338/653 339/650
f 211/654 625/646 210/451
f 757/208 763/189 755/191
f 511/655 536/586 509/656
f 217/657 627/658 628/659
f 208/660 344/661 207/662
f 671/663 664/176 663/177
f 867/664 874/91 870/93
f 218/665 344/661 337/666
f 578/667 519/668 518/669
f 623/648 1001/670 219/352
f 217/657 622/158 220/647
f 604/671 234/672 599/673
f 223/674 657/675 653/676
f 599/673 229/677 598/678
f 654/342 233/679 655/663
f 225/680 603/681 602/682
f 227/683 659/684 656/685
f 872/686 869/365 873/367
f 226/687 653/676 659/684
f 235/688 601/689 600/690
f 1073/271 657/675 1041/308
f 236/691 602/682 601/689
f 655/663 231/196 658/358
f 206/692 341/693 208/660
f 147/68 155/69 154/70
f 237/694 600/690 597/695
f 296/696 281/697 282/698
f 284/699 291/700 285/701
f 285/701 292/702 283/124
f 293/125 286/703 288/12
f 281/704 290/705 284/699
f 294/706 287/707 286/703
f 295/708 282/698 287/707
f 723/10 483/709 726/710
f 317/711 712/712 711/713
f 318/714 713/19 712/712
f 323/715 718/716 717/717
f 714/21 313/718 707/719
f 495/287 33/484 37/626
f 716/720 323/721 717/722
f 315/723 710/724 709/725
f 722/726 321/727 715/728
f 707/719 314/729 708/513
f 326/730 721/731 720/732
f 721/731 328/733 722/726
f 536/586 510/734 509/656
f 715/728 322/735 716/720
f 492/80 41/736 45/258
f 532/737 514/738 510/734
f 324/739 719/740 718/716
f 356/451 198/741 358/371
f 366/647 1014/429 367/350
f 360/649 187/742 186/743
f 355/652 190/744 187/742
f 1015/453 491/285 356/451
f 206/745 343/651 342/746
f 725/747 478/748 728/749
f 354/660 189/750 353/662
f 986/316 378/272 985/299
f 1043/305 1153/450 1138/751
f 353/662 188/752 364/665
f 930/369 948/287 946/369
f 366/647 194/753 200/754
f 612/755 380/672 607/756
f 369/674 617/757 613/758
f 607/756 375/677 606/759
f 614/300 379/679 615/175
f 371/680 611/760 610/761
f 352/692 184/762 354/660
f 144/61 153/62 145/63
f 372/687 613/758 619/763
f 381/688 609/764 608/765
f 368/307 370/317 986/316
f 382/691 610/761 609/764
f 615/175 377/196 618/198
f 362/766 194/753 363/657
f 373/683 619/763 616/277
f 383/694 608/765 605/767
f 1200/768 443/769 1199/751
f 1187/474 438/347 436/770
f 1089/771 434/471 1088/456
f 442/772 1157/348 1158/773
f 1117/774 429/775 1096/776
f 1175/306 477/777 469/293
f 1122/778 440/779 432/317
f 461/779 1109/778 1194/780
f 441/781 1120/780 1121/782
f 1174/489 445/783 437/505
f 1106/485 444/784 1186/320
f 1142/785 441/781 1107/466
f 424/786 1156/339 1116/787
f 1123/355 472/775 464/352
f 437/505 1090/788 1091/409
f 1187/474 433/789 1108/790
f 1202/463 475/465 1201/392
f 1141/791 435/792 439/793
f 1094/476 466/794 1093/459
f 474/294 1161/795 1162/473
f 1099/796 461/779 1194/780
f 1190/303 470/797 468/427
f 1190/303 465/340 1112/301
f 1122/778 430/373 1160/375
f 473/798 1124/776 1125/497
f 1166/306 414/777 416/293
f 1110/799 476/800 1189/460
f 1144/801 473/798 1111/390
f 456/792 1183/791 1129/802
f 1134/489 446/783 448/505
f 1177/803 474/294 1095/295
f 598/678 237/804 597/805
f 508/806 544/807 507/808
f 922/261 909/323 917/250
f 680/809 681/416 679/478
f 971/810 83/252 994/442
f 506/274 548/811 508/806
f 503/281 53/573 79/812
f 1055/813 387/102 968/447
f 996/118 243/120 238/164
f 696/814 303/815 302/816
f 171/101 197/817 167/423
f 584/818 557/819 553/820
f 558/612 580/632 579/821
f 530/822 525/823 529/824
f 68/539 71/520 72/538
f 521/825 560/826 561/827
f 578/667 558/612 579/821
f 584/828 553/829 549/830
f 559/831 522/832 523/833
f 524/834 559/831 523/833
f 584/835 549/836 545/837
f 24/623 19/640 23/641
f 80/838 50/523 54/522
f 584/839 545/549 541/548
f 567/840 564/841 563/525
f 39/645 34/564 38/563
f 72/538 75/519 76/842
f 564/841 569/843 565/844
f 528/845 523/833 527/846
f 584/847 541/620 537/622
f 52/568 47/848 51/580
f 569/849 572/850 573/851
f 556/275 551/577 555/579
f 584/852 537/853 533/854
f 56/530 61/589 57/855
f 584/856 533/615 529/857
f 55/858 51/859 80/838
f 553/829 550/860 549/830
f 578/667 575/628 574/591
f 584/861 529/824 525/823
f 526/862 523/833 522/863
f 525/864 522/863 521/865
f 570/593 567/840 566/264
f 30/575 27/605 26/576
f 75/519 55/858 76/842
f 584/866 525/864 521/865
f 571/592 568/867 567/840
f 504/868 570/593 574/591
f 29/77 24/623 28/560
f 584/869 521/825 561/827
f 539/546 542/870 543/871
f 584/872 561/556 565/555
f 550/873 547/553 546/874
f 550/873 545/837 549/836
f 562/469 567/840 563/525
f 531/587 526/875 530/822
f 62/618 65/876 66/619
f 532/737 527/846 531/587
f 584/877 565/844 569/843
f 583/878 553/820 557/819
f 548/811 543/879 547/553
f 584/880 569/849 573/851
f 558/612 554/881 583/878
f 540/882 535/544 539/546
f 584/883 573/884 577/885
f 76/842 80/886 77/637
f 18/603 57/32 58/604
f 584/887 577/585 581/584
f 572/888 575/628 576/889
f 573/884 576/889 577/885
f 520/110 563/525 559/831
f 74/634 77/565 78/635
f 544/890 539/546 543/871
f 584/891 581/631 557/892
f 534/616 531/587 530/614
f 305/727 700/893 306/735
f 79/812 52/568 55/858
f 970/253 906/261 1063/249
f 183/894 686/159 192/753
f 504/868 578/667 518/669
f 971/895 589/310 982/309
f 514/738 524/834 513/109
f 868/363 171/149 167/364
f 519/668 556/275 505/324
f 1119/381 169/106 173/162
f 325/896 720/732 719/740
f 340/897 213/898 215/427
f 174/406 652/298 181/183
f 885/403 333/185 888/899
f 983/387 593/58 994/442
f 666/278 669/676 667/900
f 544/890 511/655 507/901
f 188/752 361/427 364/665
f 211/654 219/352 1001/670
f 340/897 218/665 337/666
f 347/333 891/148 896/147
f 940/281 955/282 956/281
f 352/745 186/743 185/902
f 651/763 175/900 176/278
f 175/900 649/757 174/406
f 727/903 478/904 481/905
f 181/183 646/300 180/182
f 190/744 361/427 191/906
f 650/198 177/907 178/176
f 603/681 230/908 604/671
f 638/158 636/909 639/648
f 637/415 636/909 629/416
f 642/173 631/284 632/174
f 640/910 631/284 641/646
f 644/659 633/911 634/159
f 303/815 698/912 304/913
f 198/741 362/396 358/371
f 357/654 984/351 202/478
f 183/914 684/174 685/172
f 674/358 665/907 664/176
f 916/483 913/260 910/254
f 512/111 562/469 516/263
f 667/900 673/675 668/406
f 947/368 935/78 931/368
f 665/279 675/684 666/278
f 921/262 910/254 913/260
f 670/342 663/177 662/182
f 689/283 681/416 682/318
f 611/760 376/908 612/755
f 678/754 686/159 687/160
f 1000/401 335/152 331/244
f 690/285 684/174 677/741
f 503/281 75/519 502/282
f 678/754 688/909 680/809
f 693/915 300/518 299/382
f 306/735 701/916 307/721
f 297/917 692/918 298/919
f 312/733 699/920 305/727
f 590/325 595/30 589/310
f 316/921 711/713 710/724
f 703/922 310/730 309/896
f 180/182 647/175 179/177
f 311/923 706/924 312/733
f 298/919 693/925 299/926
f 500/154 63/405 59/238
f 304/913 691/927 297/917
f 701/928 308/739 307/715
f 704/929 311/923 310/730
f 695/930 302/816 301/517
f 702/931 309/896 308/739
f 810/932 862/710 808/933
f 724/934 479/935 725/747
f 726/710 484/936 724/934
f 806/937 864/938 863/903
f 804/939 864/749 803/940
f 810/932 866/941 859/10
f 730/941 482/942 480/11
f 729/943 481/905 482/942
f 515/944 566/264 570/593
f 606/759 383/804 605/945
f 809/946 861/747 804/939
f 805/947 865/943 866/941
f 1143/339 467/786 471/337
f 538/545 533/854 537/853
f 808/933 860/934 809/946
f 807/948 863/903 865/943
f 845/209 830/218 829/219
f 815/949 854/950 814/951
f 798/225 799/234 796/226
f 811/952 851/953 852/214
f 824/50 839/205 823/954
f 814/951 853/82 813/84
f 101/40 102/136 105/955
f 848/216 833/217 832/213
f 731/436 735/440 733/434
f 831/220 848/216 832/213
f 787/221 794/224 789/227
f 827/188 850/53 844/192
f 820/230 837/208 835/191
f 99/42 103/956 98/47
f 826/957 841/203 825/48
f 839/482 822/958 823/959
f 830/218 847/200 831/211
f 838/199 821/960 822/958
f 811/952 858/961 818/962
f 773/227 776/222 778/224
f 817/963 856/231 816/233
f 826/957 836/193 842/202
f 858/961 817/963 818/962
f 828/190 845/209 829/219
f 1028/161 332/106 336/162
f 979/500 1132/964 1197/7
f 91/40 96/477 95/41
f 827/188 844/192 843/189
f 965/965 1151/966 1130/13
f 750/218 742/210 741/194
f 1070/397 1199/751 1069/305
f 422/465 1135/463 417/800
f 256/6 252/5 249/129
f 1071/393 1082/488 1134/489
f 158/55 157/57 156/64
f 1203/511 1104/967 964/407
f 995/380 981/968 963/95
f 1031/969 1096/776 1032/970
f 1152/349 447/772 458/347
f 1170/971 1127/502 1039/972
f 420/794 1205/459 1097/973
f 125/66 124/56 127/67
f 419/344 1126/355 427/352
f 588/61 161/73 160/62
f 8/974 1098/490 4/18
f 445/960 1199/751 443/769
f 117/55 118/57 119/64
f 1194/780 1005/975 1036/976
f 467/977 1093/459 466/794
f 1129/802 976/458 1075/978
f 150/66 151/56 148/67
f 1211/504 1022/979 1149/980
f 418/327 1173/345 419/344
f 279/127 275/138 276/128
f 5/981 1104/967 1/15
f 853/82 851/953 812/83
f 1158/773 1029/420 1030/461
f 1070/397 1186/320 1200/768
f 1009/132 350/97 349/98
f 456/470 1133/456 452/471
f 1004/975 1120/780 1122/778
f 457/793 1193/466 1168/982
f 874/91 170/185 980/92
f 8/17 1210/506 1170/971
f 1080/390 1031/969 1020/443
f 29/77 494/368 498/78
f 1103/983 415/294 426/797
f 109/68 108/71 133/69
f 1132/984 1149/980 6/985
f 966/85 169/106 1146/86
f 1213/480 1/15 1104/967
f 1044/986 1095/295 978/321
f 1039/972 1211/504 1132/984
f 1018/455 1207/787 1143/339
f 981/968 1102/94 963/95
f 452/471 1171/445 450/496
f 106/61 114/73 115/62
f 1212/492 1077/987 1145/510
f 212/371 210/451 625/646
f 220/647 622/158 623/648
f 214/649 209/652 339/650
f 209/652 213/898 338/653
f 211/654 624/910 625/646
f 1114/988 991/443 1171/445
f 1113/16 1185/425 8/17
f 217/657 216/766 627/658
f 208/660 341/693 344/661
f 1167/989 964/407 1104/967
f 1168/982 1021/468 977/475
f 218/665 207/662 344/661
f 131/61 123/73 122/62
f 219/352 221/350 623/648
f 217/657 628/659 622/158
f 604/671 230/908 234/672
f 223/674 1041/308 657/675
f 599/673 234/672 229/677
f 1068/273 233/679 654/342
f 1180/990 1069/305 1199/751
f 12/27 1012/501 1008/28
f 1182/507 1064/419 1049/361
f 226/687 223/674 653/676
f 235/688 236/691 601/689
f 1192/362 889/487 1050/150
f 236/691 225/680 602/682
f 655/663 233/679 231/196
f 990/991 1204/788 1152/349
f 393/120 1062/331 246/167
f 329/143 1000/401 331/244
f 1162/473 1033/992 1034/322
f 284/699 290/705 291/700
f 285/701 291/700 292/702
f 1016/458 1206/802 1141/791
f 977/475 1093/459 976/458
f 294/706 295/708 287/707
f 295/708 296/696 282/698
f 1035/467 1194/780 1036/976
f 825/48 841/203 840/49
f 638/158 644/659 634/159
f 756/193 764/192 770/53
f 97/136 96/955 91/40
f 94/45 97/54 93/46
f 1010/155 900/422 350/97
f 757/208 758/199 766/201
f 10/134 12/27 11/135
f 834/51 833/217 849/52
f 937/154 933/114 949/114
f 746/206 754/51 747/188
f 255/4 251/72 252/5
f 100/46 98/47 103/45
f 334/101 336/162 1061/153
f 760/49 768/216 767/204
f 264/4 260/72 257/5
f 356/451 491/285 198/741
f 366/647 200/754 204/809
f 360/649 355/652 187/742
f 355/652 359/898 190/744
f 1015/453 1037/452 489/283
f 1115/409 1058/410 1072/391
f 1176/346 1004/975 1126/355
f 354/660 184/762 189/750
f 1016/458 1097/973 1205/459
f 1018/455 1114/988 1133/456
f 353/662 189/750 188/752
f 336/382 1009/132 1061/133
f 366/647 363/657 194/753
f 612/755 376/908 380/672
f 369/674 368/307 617/757
f 607/756 380/672 375/677
f 985/299 379/679 614/300
f 1159/444 1032/970 1160/375
f 1137/392 975/391 1135/463
f 88/135 1025/251 13/187
f 372/687 369/674 613/758
f 381/688 382/691 609/764
f 1196/328 1003/993 1173/345
f 382/691 371/680 610/761
f 615/175 379/679 377/196
f 1082/990 1043/305 1138/751
f 1198/795 987/486 1103/983
f 908/557 1053/336 1038/245
f 1200/768 1186/320 444/784
f 987/486 1169/295 1103/983
f 1089/771 1147/445 431/496
f 1158/773 1090/788 442/772
f 428/798 1117/774 1080/390
f 1198/795 1057/302 989/992
f 1116/457 1016/458 1205/459
f 1034/322 1195/790 1100/372
f 1121/782 1107/466 441/781
f 1168/982 976/458 1183/791
f 1108/790 444/784 1106/485
f 439/793 1142/785 1141/791
f 1097/973 988/468 1196/328
f 1092/375 1005/975 1109/778
f 1091/409 1174/489 437/505
f 1206/454 972/455 1088/456
f 1202/463 1189/460 476/800
f 1184/462 1042/393 1137/392
f 1094/476 1148/328 463/327
f 1162/473 1095/295 474/294
f 460/781 1099/796 1193/466
f 1086/348 1059/302 992/420
f 1163/329 1036/976 1164/346
f 1115/409 1071/393 1134/489
f 1125/497 1111/390 473/798
f 975/391 1087/460 1135/463
f 1112/301 476/800 1110/799
f 471/337 1144/801 1143/339
f 1096/776 1004/975 1032/970
f 1195/790 1059/302 1118/474
f 469/293 1177/803 1175/306
f 1007/498 1092/375 1188/374
f 106/61 109/68 132/70
f 1121/782 1002/976 1003/993
f 88/135 86/36 87/134
f 454/769 1136/320 449/784
f 253/37 249/129 250/38
f 449/784 1100/372 453/789
f 1057/302 1108/790 989/992
f 431/496 1147/445 1159/444
f 887/141 882/402 969/142
f 1008/28 998/186 11/135
f 1155/354 1078/74 3/76
f 1069/305 1184/994 1166/306
f 166/88 878/995 875/89
f 424/977 1205/459 420/794
f 585/68 586/71 142/69
f 417/800 1179/341 421/340
f 1197/7 2/9 1079/130
f 973/449 1088/456 972/455
f 431/496 1160/375 430/373
f 1210/506 1076/431 1127/502
f 448/505 1204/788 1115/409
f 387/102 394/291 396/103
f 973/449 1147/445 1089/771
f 144/61 147/68 154/70
f 1077/987 1213/480 1203/511
f 1004/975 1160/375 1032/970
f 127/67 124/56 118/57
f 1043/305 1181/994 1175/306
f 454/769 1138/751 1153/450
f 426/797 1131/303 1198/795
f 95/126 94/956 92/47
f 1178/503 1151/996 1022/979
f 1110/799 1058/410 990/991
f 17/112 21/515 497/113
f 1019/997 1111/390 991/443
f 929/80 945/80 944/81
f 1209/509 5/607 1151/996
f 453/789 1100/372 1195/790
f 410/6 406/5 407/129
f 477/464 1201/392 475/465
f 1057/302 1157/348 1187/474
f 452/471 1133/456 1114/988
f 283/124 292/702 293/125
f 1076/431 1209/509 1178/503
f 974/410 1158/773 1030/461
f 486/121 71/520 67/122
f 1125/497 1006/970 1007/498
f 513/109 524/834 520/110
f 993/424 1208/512 1155/354
f 131/61 128/68 121/70
f 1113/16 1145/510 993/424
f 426/797 1198/795 1103/983
f 4/18 1212/492 1113/16
f 446/960 1138/751 454/769
f 93/46 91/40 90/42
f 1026/297 1146/86 1119/381
f 112/66 113/56 110/67
f 1208/512 964/407 1078/74
f 1130/13 1151/966 5/14
f 263/39 259/38 260/43
f 762/202 770/53 769/52
f 1116/787 972/455 1074/998
f 871/184 166/143 170/185
f 1215/131 965/965 1140/479
f 1017/999 1107/466 988/468
f 1175/306 1044/986 1043/305
f 988/468 1121/782 1003/993
f 676/181 670/342 662/182
f 139/55 165/67 162/56
f 457/793 1168/982 1183/791
f 417/800 1135/463 1087/460
f 254/39 250/38 251/43
f 158/55 148/67 151/56
f 1141/791 1017/999 1016/458
f 989/992 1106/485 987/486
f 188/752 191/906 361/427
f 1171/445 1007/498 1188/374
f 340/897 215/427 218/665
f 1102/1000 980/92 170/185
f 1084/169 993/424 1155/354
f 1086/348 990/991 1152/349
f 713/19 319/1001 320/20
f 136/55 135/57 134/64
f 1143/339 1019/997 1018/455
f 1149/400 965/965 1079/130
f 1021/468 1163/329 1148/328
f 992/420 1110/799 990/991
f 1154/314 999/296 961/312
f 638/158 635/160 636/909
f 637/415 639/648 636/909
f 642/173 641/646 631/284
f 640/910 630/318 631/284
f 644/659 643/658 633/911
f 633/172 643/370 642/173
f 198/741 196/914 362/396
f 202/478 1037/452 357/654
f 183/914 677/741 684/174
f 979/500 1215/131 1139/491
f 110/67 113/56 135/57
f 1139/491 1140/479 1077/987
f 1081/313 869/365 967/87
f 451/373 1109/778 459/317
f 411/37 407/129 408/38
f 1101/1002 995/380 171/101
f 420/794 1196/328 418/327
f 689/283 679/478 681/416
f 16/180 1047/237 15/179
f 678/754 192/753 686/159
f 1005/975 1124/776 1123/355
f 690/285 683/284 684/174
f 883/144 1060/163 1085/145
f 678/754 687/160 688/909
f 269/1 270/127 266/138
f 272/137 268/432 266/138
f 1197/7 1132/964 6/8
f 1008/28 1012/501 596/29
f 403/39 399/38 400/43
f 404/4 400/72 401/5
f 723/10 730/941 480/11
f 1038/22 1040/343 907/23
f 277/140 278/3 274/2
f 402/37 398/129 399/38
f 269/1 265/128 267/2
f 262/37 258/129 259/38
f 280/1 276/128 274/2
f 271/3 267/2 268/139
f 413/4 409/72 406/5
f 20/31 56/530 57/32
f 1059/302 1161/795 1190/303
f 724/934 484/936 479/935
f 726/710 483/709 484/936
f 429/775 1126/355 1096/776
f 1164/346 1005/975 1123/355
f 1105/338 972/455 1156/339
f 730/941 729/943 482/942
f 729/943 727/903 481/905
f 453/789 1118/474 455/770
f 1030/461 1172/301 1179/341
f 809/946 860/934 861/747
f 805/947 807/948 865/943
f 1003/993 1176/346 1173/345
f 1059/302 1112/301 992/420
f 808/933 862/710 860/934
f 807/948 806/937 863/903
f 1073/271 224/317 232/272
f 772/226 774/225 777/223
f 856/231 855/206 815/232
f 911/255 910/254 918/236
f 929/80 927/257 943/257
f 1038/245 1053/336 87/246
f 648/277 651/763 176/278
f 970/253 89/27 15/179
f 784/222 783/234 785/223
f 1063/249 906/261 901/250
f 787/215 789/228 790/225
f 912/256 911/255 919/267
f 958/248 962/379 172/152
f 139/55 140/57 141/64
f 588/61 585/68 143/70
f 1025/251 1040/343 14/252
f 788/226 790/225 793/223
f 488/257 492/80 45/258
f 346/239 332/106 1011/240
f 953/154 954/266 938/266
f 496/114 500/154 59/238
f 1067/235 903/267 902/236
f 933/114 934/113 950/113
f 935/78 951/78 950/113
f 412/39 409/43 413/44
f 171/101 173/162 1027/153
f 170/90 182/107 1013/386
f 495/287 37/626 41/389
f 425/337 428/798 1080/390
f 1072/391 1202/463 1201/392
f 499/123 67/122 63/405
f 668/406 673/675 676/181
f 964/407 1023/1003 1150/408
f 1091/409 1090/788 974/410
f 630/318 640/910 637/415
f 961/312 999/296 995/380
f 333/90 335/152 1051/151
f 1083/418 1049/361 1050/150
f 334/101 889/487 1064/419
f 1085/145 1060/163 1049/361
f 330/364 900/422 1010/155
f 993/424 1054/433 1185/425
f 421/340 1172/301 1131/303
f 10/246 982/309 1024/178
f 1128/430 1214/171 1191/377
f 1054/433 1084/169 1214/171
f 882/402 883/144 1048/146
f 590/325 971/810 994/442
f 1020/443 1031/969 1159/444
f 247/446 1055/813 968/447
f 9/247 971/895 982/309
f 1105/338 1080/390 1020/443
f 1153/450 1044/986 978/321
f 356/451 357/654 1037/452
f 1154/314 1081/313 967/87
f 1165/304 1169/295 1056/321
f 1129/454 1075/998 1018/455
f 1207/457 1075/978 976/458
f 82/187 983/387 994/442
f 89/27 970/253 1063/249
f 1087/460 974/410 1030/461
f 1181/462 1046/1004 1071/393
f 1072/391 1058/410 1189/460
f 414/464 1184/462 1137/392
f 1193/466 1099/796 1035/467
f 435/470 1206/454 1088/456
f 978/321 1095/295 1162/473
f 458/347 455/770 1118/474
f 977/475 1021/468 1148/328
f 463/327 1163/329 1164/346
f 1014/429 204/809 202/478
f 1140/479 965/965 1130/13
f 1028/161 205/290 895/241
f 33/484 493/369 494/368
f 1106/485 1186/320 1056/321
f 888/417 1051/151 1050/150
f 1042/393 1045/1004 1180/488
f 1098/490 979/500 1139/491
f 245/493 997/119 996/118
f 1042/393 1174/489 1091/409
f 86/495 14/252 1040/343
f 591/60 592/59 983/387
f 450/496 1171/445 1188/374
f 991/443 1111/390 1125/497
f 1170/499 1039/1005 979/500
f 205/290 1028/161 1060/163
f 594/311 596/29 1012/501
f 1127/502 1076/431 1178/503
f 595/30 591/60 998/186
f 1185/425 1054/433 1128/430
f 1048/146 1049/361 1083/418
f 1060/163 336/162 1182/507
f 1191/377 1023/319 1167/508
f 1145/510 1077/987 1203/511
f 708/513 314/729 315/76
f 21/515 25/79 498/78
f 694/516 695/930 301/517
f 486/121 502/282 75/519
f 1065/395 386/164 246/167
f 1053/336 1067/235 16/180
f 560/524 559/831 563/525
f 26/527 27/625 23/528
f 20/31 21/515 17/112
f 69/531 73/1006 74/532
f 67/122 68/539 64/534
f 72/538 73/1006 69/531
f 56/530 17/112 59/238
f 535/544 534/1007 538/545
f 546/547 542/554 541/548
f 547/553 543/879 542/554
f 560/524 564/526 565/555
f 924/557 916/483 912/256
f 39/558 38/552 42/551
f 33/484 29/77 28/560
f 72/538 76/842 77/565
f 46/542 47/598 43/567
f 52/568 53/573 49/259
f 488/257 49/259 53/573
f 551/577 550/860 554/578
f 51/580 47/848 46/537
f 63/405 64/534 60/540
f 64/534 65/876 61/582
f 576/583 580/629 581/584
f 536/586 532/737 531/587
f 58/588 57/855 61/589
f 574/591 575/628 571/592
f 44/597 43/567 47/598
f 65/599 69/636 70/600
f 552/276 548/811 547/553
f 32/561 28/560 27/605
f 36/608 32/561 31/609
f 35/610 31/609 30/572
f 582/611 556/275 555/579
f 40/613 39/558 43/559
f 530/614 529/857 533/615
f 45/258 41/736 40/613
f 541/620 542/870 538/621
f 21/515 20/31 24/623
f 24/623 23/528 27/625
f 37/626 33/484 32/561
f 575/628 579/821 580/629
f 583/630 557/892 581/631
f 65/599 64/534 68/539
f 77/637 80/886 54/638
f 48/569 49/259 45/258
f 19/640 18/596 22/595
f 40/642 41/389 37/626
f 40/642 36/608 35/644
f 757/208 765/209 763/189
f 511/655 540/882 536/586
f 671/663 674/358 664/176
f 867/664 872/686 874/91
f 578/667 582/611 519/668
f 623/648 621/415 1001/670
f 225/680 228/770 603/681
f 227/683 226/687 659/684
f 872/686 867/664 869/365
f 1073/271 660/181 657/675
f 206/692 342/1008 341/693
f 147/68 146/71 155/69
f 237/694 235/688 600/690
f 296/696 289/1009 281/697
f 293/125 294/706 286/703
f 281/704 289/1010 290/705
f 723/10 485/12 483/709
f 317/711 318/714 712/712
f 318/714 319/1001 713/19
f 323/715 324/739 718/716
f 714/21 320/20 313/718
f 495/287 493/369 33/484
f 716/720 322/735 323/721
f 315/723 316/921 710/724
f 722/726 328/733 321/727
f 707/719 313/718 314/729
f 326/730 327/923 721/731
f 721/731 327/923 328/733
f 536/586 532/737 510/734
f 715/728 321/727 322/735
f 492/80 490/81 41/736
f 532/737 528/845 514/738
f 324/739 325/896 719/740
f 366/647 204/809 1014/429
f 1015/453 489/283 491/285
f 206/745 214/649 343/651
f 725/747 479/935 478/748
f 986/316 370/317 378/272
f 1043/305 1044/986 1153/450
f 930/369 932/287 948/287
f 371/680 374/770 611/760
f 352/692 185/1011 184/762
f 144/61 152/73 153/62
f 620/298 617/757 986/316
f 617/757 368/307 986/316
f 362/766 196/894 194/753
f 373/683 372/687 619/763
f 383/694 381/688 608/765
f 1200/768 444/784 443/769
f 1187/474 1157/348 438/347
f 1089/771 431/496 434/471
f 442/772 438/347 1157/348
f 1175/306 1181/994 477/777
f 1122/778 1120/780 440/779
f 461/779 459/317 1109/778
f 441/781 440/779 1120/780
f 1174/489 1180/488 445/783
f 424/786 425/337 1156/339
f 1123/355 1124/776 472/775
f 437/505 442/772 1090/788
f 1187/474 436/770 433/789
f 1202/463 476/800 475/465
f 1141/791 1206/802 435/792
f 1094/476 463/327 466/794
f 474/294 470/797 1161/795
f 1190/303 1161/795 470/797
f 1190/303 468/427 465/340
f 1122/778 432/317 430/373
f 473/798 472/775 1124/776
f 1166/306 1184/994 414/777
f 456/792 457/793 1183/791
f 1134/489 1082/488 446/783
f 598/678 229/677 237/804
f 508/806 548/811 544/807
f 922/261 914/472 909/323
f 680/809 688/909 681/416
f 971/810 9/495 83/252
f 506/274 552/276 548/811
f 503/281 487/280 53/573
f 1055/813 394/291 387/102
f 238/164 385/1012 996/118
f 385/1012 384/494 996/118
f 696/814 697/1013 303/815
f 171/101 880/100 197/817
f 558/612 583/630 580/632
f 530/822 526/875 525/823
f 68/539 67/122 71/520
f 521/825 522/832 560/826
f 578/667 582/611 558/612
f 559/831 560/826 522/832
f 524/834 520/110 559/831
f 24/623 20/31 19/640
f 80/838 51/859 50/523
f 567/840 568/1014 564/841
f 39/645 35/644 34/564
f 72/538 71/520 75/519
f 564/841 568/1014 569/843
f 528/845 524/834 523/833
f 52/568 48/569 47/848
f 569/849 568/867 572/850
f 556/275 552/276 551/577
f 56/530 60/540 61/589
f 55/858 52/568 51/859
f 553/829 554/578 550/860
f 578/667 579/821 575/628
f 526/862 527/846 523/833
f 525/864 526/862 522/863
f 570/593 571/592 567/840
f 30/575 31/606 27/605
f 75/519 79/812 55/858
f 571/592 572/850 568/867
f 504/868 515/944 570/593
f 29/77 25/79 24/623
f 539/546 538/621 542/870
f 550/873 551/577 547/553
f 550/873 546/874 545/837
f 562/469 566/264 567/840
f 531/587 527/846 526/875
f 62/618 61/582 65/876
f 532/737 528/845 527/846
f 583/878 554/881 553/820
f 548/811 544/807 543/879
f 558/612 555/579 554/881
f 540/882 536/586 535/544
f 76/842 55/858 80/886
f 18/603 19/33 57/32
f 572/888 571/592 575/628
f 573/884 572/888 576/889
f 520/110 562/469 563/525
f 74/634 73/566 77/565
f 544/890 540/882 539/546
f 534/616 535/544 531/587
f 305/727 699/920 700/893
f 79/812 53/573 52/568
f 970/253 905/262 906/261
f 183/894 685/911 686/159
f 504/868 574/591 578/667
f 971/895 590/1015 589/310
f 514/738 528/845 524/834
f 868/363 870/93 171/149
f 519/668 582/611 556/275
f 1119/381 1146/86 169/106
f 325/896 326/730 720/732
f 340/897 338/653 213/898
f 174/406 649/757 652/298
f 885/403 329/143 333/185
f 983/387 592/59 593/58
f 666/278 675/684 669/676
f 544/890 540/882 511/655
f 621/415 624/910 1001/670
f 624/910 211/654 1001/670
f 347/333 884/289 891/148
f 940/281 939/282 955/282
f 352/745 360/649 186/743
f 651/763 645/758 175/900
f 175/900 645/758 649/757
f 727/903 728/938 478/904
f 181/183 652/298 646/300
f 190/744 359/898 361/427
f 650/198 648/197 177/907
f 603/681 228/770 230/908
f 303/815 697/1013 698/912
f 357/654 365/352 984/351
f 674/358 672/360 665/907
f 916/483 915/270 913/260
f 512/111 520/110 562/469
f 667/900 669/676 673/675
f 947/368 951/78 935/78
f 665/279 672/685 675/684
f 921/262 918/236 910/254
f 670/342 671/663 663/177
f 611/760 374/770 376/908
f 1000/401 1048/146 335/152
f 503/281 79/812 75/519
f 693/915 694/516 300/518
f 306/735 700/893 701/916
f 297/917 691/927 692/918
f 312/733 706/924 699/920
f 590/325 591/60 595/30
f 316/921 317/711 711/713
f 703/922 704/929 310/730
f 180/182 646/300 647/175
f 311/923 705/1016 706/924
f 298/919 692/918 693/925
f 500/154 501/266 63/405
f 304/913 698/912 691/927
f 701/928 702/931 308/739
f 704/929 705/1016 311/923
f 695/930 696/814 302/816
f 702/931 703/922 309/896
f 810/932 859/10 862/710
f 806/937 803/1017 864/938
f 804/939 861/747 864/749
f 810/932 805/947 866/941
f 515/944 517/265 566/264
f 606/759 375/677 383/804
f 1143/339 1207/787 467/786
f 538/545 534/1007 533/854
f 845/209 846/201 830/218
f 815/949 855/215 854/950
f 798/225 801/223 799/234
f 811/952 812/83 851/953
f 824/50 840/49 839/205
f 814/951 854/950 853/82
f 101/40 100/46 102/136
f 848/216 849/52 833/217
f 731/436 737/438 735/440
f 831/220 847/204 848/216
f 787/221 792/222 794/224
f 827/188 834/51 850/53
f 820/230 821/960 837/208
f 99/42 104/126 103/956
f 826/957 842/202 841/203
f 839/482 838/199 822/958
f 830/218 846/201 847/200
f 838/199 837/208 821/960
f 811/952 852/214 858/961
f 773/227 771/221 776/222
f 817/963 857/1018 856/231
f 826/957 819/229 836/193
f 858/961 857/1018 817/963
f 828/190 843/189 845/209
f 979/500 1039/1005 1132/964
f 965/965 1022/1019 1151/966
f 1070/397 1200/768 1199/751
f 422/465 1137/392 1135/463
f 1071/393 1046/1004 1082/488
f 1203/511 1213/480 1104/967
f 1031/969 1117/774 1096/776
f 1152/349 1204/788 447/772
f 1170/971 1210/506 1127/502
f 419/344 1176/346 1126/355
f 8/974 1170/499 1098/490
f 445/960 1180/990 1199/751
f 1194/780 1109/778 1005/975
f 467/977 1207/457 1093/459
f 1129/802 1183/791 976/458
f 1211/504 1178/503 1022/979
f 418/327 1196/328 1173/345
f 5/981 1167/989 1104/967
f 1158/773 1157/348 1029/420
f 1070/397 1056/321 1186/320
f 456/470 1129/454 1133/456
f 1004/975 1002/976 1120/780
f 457/793 460/781 1193/466
f 8/17 1185/425 1210/506
f 1080/390 1117/774 1031/969
f 1103/983 1169/295 415/294
f 1132/984 1211/504 1149/980
f 1213/480 1130/13 1/15
f 1044/986 1177/803 1095/295
f 1039/972 1127/502 1211/504
f 1018/455 1075/998 1207/787
f 452/471 1114/988 1171/445
f 1212/492 1139/491 1077/987
f 1114/988 1019/997 991/443
f 1167/989 1023/1003 964/407
f 1168/982 1193/466 1021/468
f 223/674 222/307 1041/308
f 1068/273 232/272 233/679
f 1180/990 1045/1020 1069/305
f 12/27 84/179 1012/501
f 1182/507 336/162 1064/419
f 1192/362 1064/419 889/487
f 990/991 1058/410 1204/788
f 393/120 1066/426 1062/331
f 329/143 969/142 1000/401
f 1162/473 1161/795 1033/992
f 1016/458 1074/978 1206/802
f 977/475 1094/476 1093/459
f 1035/467 1099/796 1194/780
f 1115/409 1204/788 1058/410
f 1176/346 1002/976 1004/975
f 1016/458 1017/999 1097/973
f 1018/455 1019/997 1114/988
f 336/382 332/106 1009/132
f 985/299 378/272 379/679
f 1159/444 1031/969 1032/970
f 1137/392 1042/393 975/391
f 88/135 1063/249 1025/251
f 1196/328 988/468 1003/993
f 1082/990 1046/1020 1043/305
f 1198/795 989/992 987/486
f 908/557 904/268 1053/336
f 987/486 1056/321 1169/295
f 428/798 429/775 1117/774
f 1198/795 1131/303 1057/302
f 1116/457 1074/978 1016/458
f 1034/322 1033/992 1195/790
f 1168/982 977/475 976/458
f 1108/790 433/789 444/784
f 439/793 441/781 1142/785
f 1097/973 1017/999 988/468
f 1092/375 1006/970 1005/975
f 1206/454 1074/998 972/455
f 1184/462 1045/1004 1042/393
f 460/781 461/779 1099/796
f 1086/348 1118/474 1059/302
f 1163/329 1035/467 1036/976
f 1115/409 1072/391 1071/393
f 975/391 974/410 1087/460
f 1112/301 465/340 476/800
f 471/337 473/798 1144/801
f 1096/776 1126/355 1004/975
f 1195/790 1033/992 1059/302
f 469/293 474/294 1177/803
f 1007/498 1006/970 1092/375
f 1121/782 1120/780 1002/976
f 454/769 1153/450 1136/320
f 449/784 1136/320 1100/372
f 1057/302 1187/474 1108/790
f 1155/354 1208/512 1078/74
f 1069/305 1045/1020 1184/994
f 424/977 1116/457 1205/459
f 417/800 1087/460 1179/341
f 973/449 1089/771 1088/456
f 431/496 1159/444 1160/375
f 1210/506 1128/430 1076/431
f 448/505 447/772 1204/788
f 973/449 1020/443 1147/445
f 1077/987 1140/479 1213/480
f 1004/975 1122/778 1160/375
f 1043/305 1046/1020 1181/994
f 426/797 423/427 1131/303
f 1178/503 1209/509 1151/996
f 1110/799 1189/460 1058/410
f 1019/997 1144/801 1111/390
f 1209/509 1167/508 5/607
f 477/464 1181/462 1201/392
f 1057/302 1029/420 1157/348
f 1076/431 1191/377 1209/509
f 974/410 1090/788 1158/773
f 1125/497 1124/776 1006/970
f 993/424 1145/510 1208/512
f 1113/16 1212/492 1145/510
f 4/18 1098/490 1212/492
f 446/960 1082/990 1138/751
f 1026/297 967/87 1146/86
f 1208/512 1203/511 964/407
f 1116/787 1156/339 972/455
f 1215/131 1079/130 965/965
f 1017/999 1142/785 1107/466
f 1175/306 1177/803 1044/986
f 988/468 1107/466 1121/782
f 1141/791 1142/785 1017/999
f 989/992 1108/790 1106/485
f 1171/445 991/443 1007/498
f 1102/1000 981/399 980/92
f 1084/169 1054/433 993/424
f 1086/348 992/420 990/991
f 1143/339 1144/801 1019/997
f 1149/400 1022/1019 965/965
f 1021/468 1035/467 1163/329
f 992/420 1112/301 1110/799
f 1154/314 1026/297 999/296
f 202/478 489/283 1037/452
f 979/500 1197/7 1215/131
f 1139/491 1215/131 1140/479
f 957/366 869/365 1081/313
f 869/365 966/85 967/87
f 451/373 1092/375 1109/778
f 1101/1002 981/968 995/380
f 420/794 1097/973 1196/328
f 16/180 1067/235 1047/237
f 1005/975 1006/970 1124/776
f 1059/302 1033/992 1161/795
f 429/775 427/352 1126/355
f 1164/346 1036/976 1005/975
f 1105/338 973/449 972/455
f 453/789 1195/790 1118/474
f 1030/461 1029/420 1172/301
f 1003/993 1002/976 1176/346
f 1059/302 1190/303 1112/301
f 412/39 408/38 409/43
