o Gun
v -0.625 1.125 0.375
v -0.625 1.75 0.375
v -0.625 1.125 -0.375
v -0.625 1.75 -0.375
v 1.125 1.125 0.375
v 1.125 1.75 0.375
v 1.125 1.125 -0.375
v 1.125 1.75 -0.375
v -0.625 1.875 0.25
v -0.625 1.875 -0.25
v 1.125 1.875 -0.25
v 1.125 1.875 0.25
v 1.125 1.125 0.3125
v 1.125 1.125 -0.3125
v 1.125 1.6875 0.3125
v 1.125 1.6875 -0.3125
v 1.125 1.8125 0.1875
v 1.125 1.8125 -0.1875
v 0.875 1.125 0.3125
v 0.875 1.125 -0.3125
v 0.875 1.6875 0.3125
v 0.875 1.6875 -0.3125
v 0.875 1.8125 0.1875
v 0.875 1.8125 -0.1875
v 0.75 1.25 -0.375
v 0.75 1.625 -0.375
v -0.25 1.25 -0.375
v -0.25 1.625 -0.375
v 0.75 1.25 -0.25
v 0.75 1.625 -0.25
v -0.25 1.25 -0.25
v -0.25 1.625 -0.25
v 0.75 1.25 0.375
v 0.75 1.625 0.375
v -0.25 1.25 0.375
v -0.25 1.625 0.375
v 0.75 1.25 0.25
v 0.75 1.625 0.25
v -0.25 1.25 0.25
v -0.25 1.625 0.25
v 0.75 1.5625 -0.3125
v -0.25 1.5625 -0.3125
v 0.75 1.5 -0.3125
v -0.25 1.5 -0.3125
v 0.75 1.4375 -0.25
v -0.25 1.4375 -0.25
v 0.75 1.375 -0.3125
v -0.25 1.375 -0.3125
v 0.75 1.3125 -0.3125
v -0.25 1.3125 -0.3125
v 0.75 1.25 -0.375
v 0.75 1.625 -0.375
v -0.25 1.25 -0.375
v -0.25 1.625 -0.375
v 0.75 1.5625 0.3125
v -0.25 1.5625 0.3125
v 0.75 1.5 0.3125
v -0.25 1.5 0.3125
v 0.75 1.4375 0.25
v -0.25 1.4375 0.25
v 0.75 1.375 0.3125
v -0.25 1.375 0.3125
v 0.75 1.3125 0.3125
v -0.25 1.3125 0.3125
v 0.75 1.25 0.375
v 0.75 1.625 0.375
v -0.25 1.25 0.375
v -0.25 1.625 0.375
v 0.875 1.2812 -0.3125
v 0.875 1.3594 -0.2916
v 0.875 1.4166 -0.2344
v 0.875 1.4375 -0.1562
v 0.875 1.4166 -0.0781
v 0.875 1.3594 -0.0209
v 0.875 1.2812 -0
v 0.875 1.2031 -0.0209
v 0.875 1.1459 -0.0781
v 0.875 1.125 -0.1562
v 0.875 1.1459 -0.2344
v 0.875 1.2031 -0.2916
v 0.875 1.2812 -0
v 0.875 1.3594 0.0209
v 0.875 1.4166 0.0781
v 0.875 1.4375 0.1562
v 0.875 1.4166 0.2344
v 0.875 1.3594 0.2916
v 0.875 1.2812 0.3125
v 0.875 1.2031 0.2916
v 0.875 1.1459 0.2344
v 0.875 1.125 0.1562
v 0.875 1.1459 0.0781
v 0.875 1.2031 0.0209
v 0.875 1.5938 -0.3125
v 0.875 1.6719 -0.2916
v 0.875 1.7291 -0.2344
v 0.875 1.75 -0.1562
v 0.875 1.7291 -0.0781
v 0.875 1.6719 -0.0209
v 0.875 1.5938 -0
v 0.875 1.5156 -0.0209
v 0.875 1.4584 -0.0781
v 0.875 1.4375 -0.1562
v 0.875 1.4584 -0.2344
v 0.875 1.5156 -0.2916
v 0.875 1.5938 -0
v 0.875 1.6719 0.0209
v 0.875 1.7291 0.0781
v 0.875 1.75 0.1562
v 0.875 1.7291 0.2344
v 0.875 1.6719 0.2916
v 0.875 1.5938 0.3125
v 0.875 1.5156 0.2916
v 0.875 1.4584 0.2344
v 0.875 1.4375 0.1562
v 0.875 1.4584 0.0781
v 0.875 1.5156 0.0209
v 1.875 1.3594 -0.2916
v 1.875 1.2812 -0.3125
v 1.875 1.4166 -0.2344
v 1.875 1.4375 -0.1562
v 1.875 1.4166 -0.0781
v 1.875 1.3594 -0.0209
v 1.875 1.2812 -0
v 1.875 1.2031 -0.0209
v 1.875 1.1459 -0.0781
v 1.875 1.125 -0.1562
v 1.875 1.1459 -0.2344
v 1.875 1.2031 -0.2916
v 1.875 1.3594 0.0209
v 1.875 1.2812 -0
v 1.875 1.4166 0.0781
v 1.875 1.4375 0.1562
v 1.875 1.4166 0.2344
v 1.875 1.3594 0.2916
v 1.875 1.2812 0.3125
v 1.875 1.2031 0.2916
v 1.875 1.1459 0.2344
v 1.875 1.125 0.1562
v 1.875 1.1459 0.0781
v 1.875 1.2031 0.0209
v 1.875 1.6719 -0.2916
v 1.875 1.5938 -0.3125
v 1.875 1.7291 -0.2344
v 1.875 1.75 -0.1562
v 1.875 1.7291 -0.0781
v 1.875 1.6719 -0.0209
v 1.875 1.5938 -0
v 1.875 1.5156 -0.0209
v 1.875 1.4584 -0.0781
v 1.875 1.4375 -0.1562
v 1.875 1.4584 -0.2344
v 1.875 1.5156 -0.2916
v 1.875 1.6719 0.0209
v 1.875 1.5938 -0
v 1.875 1.7291 0.0781
v 1.875 1.75 0.1562
v 1.875 1.7291 0.2344
v 1.875 1.6719 0.2916
v 1.875 1.5938 0.3125
v 1.875 1.5156 0.2916
v 1.875 1.4584 0.2344
v 1.875 1.4375 0.1562
v 1.875 1.4584 0.0781
v 1.875 1.5156 0.0209
v 1.875 1.2031 0.0209
v 1.875 1.1459 0.0781
v 1.875 1.125 0.1562
v 1.875 1.1459 0.2344
v 1.875 1.2031 0.2916
v 1.875 1.2812 0.3125
v 1.875 1.3594 0.2916
v 1.875 1.4166 0.2344
v 1.875 1.4375 0.1562
v 1.875 1.4166 0.0781
v 1.875 1.2812 -0
v 1.875 1.3594 0.0209
v 0.875 2.125 0.125
v 0.875 2.1083 0.1875
v 0.875 2.0625 0.2333
v 0.875 2 0.25
v 0.875 1.9375 0.2333
v 0.875 1.8917 0.1875
v 0.875 1.875 0.125
v 0.875 1.8917 0.0625
v 0.875 1.9375 0.0167
v 0.875 2 -0
v 0.9375 1.9531 0.0438
v 0.9375 2 0.0312
v 1.875 1.5156 -0.2916
v 1.875 1.4584 -0.2344
v 1.875 1.4375 -0.1562
v 1.875 1.4584 -0.0781
v 1.875 1.5156 -0.0209
v 1.875 1.5938 -0
v 1.875 1.6719 -0.0209
v 1.875 1.7291 -0.0781
v 1.875 1.75 -0.1562
v 1.875 1.7291 -0.2344
v 1.875 1.5938 -0.3125
v 1.875 1.6719 -0.2916
v 1.875 1.2031 -0.2916
v 1.875 1.1459 -0.2344
v 1.875 1.125 -0.1562
v 1.875 1.1459 -0.0781
v 1.875 1.2031 -0.0209
v 1.875 1.2812 -0
v 1.875 1.3594 -0.0209
v 1.875 1.4166 -0.0781
v 1.875 1.4375 -0.1562
v 1.875 1.4166 -0.2344
v 1.875 1.2812 -0.3125
v 1.875 1.3594 -0.2916
v 1.25 1.6523 0.0548
v 1.25 1.5938 0.0391
v 1.25 1.6952 0.0977
v 1.25 1.7109 0.1562
v 1.25 1.6952 0.2148
v 1.25 1.6523 0.2577
v 1.25 1.5938 0.2734
v 1.25 1.5352 0.2577
v 1.25 1.4923 0.2148
v 1.25 1.4766 0.1562
v 1.25 1.4923 0.0977
v 1.25 1.5352 0.0548
v 1.25 1.6523 -0.2577
v 1.25 1.5938 -0.2734
v 1.25 1.6952 -0.2148
v 1.25 1.7109 -0.1562
v 1.25 1.6952 -0.0977
v 1.25 1.6523 -0.0548
v 1.25 1.5938 -0.0391
v 1.25 1.5352 -0.0548
v 1.25 1.4923 -0.0977
v 1.25 1.4766 -0.1562
v 1.25 1.4923 -0.2148
v 1.25 1.5352 -0.2577
v 1.25 1.3398 -0.2577
v 1.25 1.2812 -0.2734
v 1.25 1.3827 -0.2148
v 1.25 1.3984 -0.1562
v 1.25 1.3827 -0.0977
v 1.25 1.3398 -0.0548
v 1.25 1.2812 -0.0391
v 1.25 1.2227 -0.0548
v 1.25 1.1798 -0.0977
v 1.25 1.1641 -0.1562
v 1.25 1.1798 -0.2148
v 1.25 1.2227 -0.2577
v 1.25 1.3398 0.0548
v 1.25 1.2812 0.0391
v 1.25 1.3827 0.0977
v 1.25 1.3984 0.1562
v 1.25 1.3827 0.2148
v 1.25 1.3398 0.2577
v 1.25 1.2812 0.2734
v 1.25 1.2227 0.2577
v 1.25 1.1798 0.2148
v 1.25 1.1641 0.1562
v 1.25 1.1798 0.0977
v 1.25 1.2227 0.0548
v -0.625 1.125 -0.25
v -0.625 1.125 0.25
v -0.625 1.75 -0.25
v -0.625 1.75 0.25
v -0.875 1.125 -0.25
v -0.875 1.125 0.25
v -0.875 1.75 -0.25
v -0.875 1.75 0.25
v -1 1.1875 -0.125
v -1 1.1875 0.125
v -1 1.3125 -0.25
v -1 1.3125 0.25
v -1 1.5625 -0.25
v -1 1.5625 0.25
v -1 1.6875 -0.125
v -1 1.6875 0.125
v -2 1.1875 -0.125
v -2 1.1875 0.125
v -2 1.3125 -0.25
v -2 1.3125 0.25
v -2 1.5625 0.25
v -2 1.5625 -0.25
v -2 1.6875 -0.125
v -2 1.6875 0.125
v -0.6875 1.375 -0.25
v -0.6875 1.5 -0.25
v -1.4375 1.375 -0.25
v -1.4375 1.5 -0.25
v -0.6875 1.5 -0.3125
v -0.6875 1.375 -0.3125
v -1.4375 1.5 -0.3125
v -1.4375 1.375 -0.3125
v -0.6875 1.375 0.3125
v -0.6875 1.5 0.3125
v -1.4375 1.375 0.3125
v -1.4375 1.5 0.3125
v -0.6875 1.5 0.25
v -0.6875 1.375 0.25
v -1.4375 1.5 0.25
v -1.4375 1.375 0.25
v -1 1.4375 0.0625
v -1 1.4817 0.0808
v -1 1.5 0.125
v -1 1.4817 0.1692
v -1 1.4375 0.1875
v -1 1.3933 0.1692
v -1 1.375 0.125
v -1 1.3933 0.0808
v -0.875 1.4375 0.0625
v -0.875 1.4817 0.0808
v -0.875 1.5 0.125
v -0.875 1.4817 0.1692
v -0.875 1.4375 0.1875
v -0.875 1.3933 0.1692
v -0.875 1.375 0.125
v -0.875 1.3933 0.0808
v -1 1.4375 -0.1875
v -1 1.4817 -0.1692
v -1 1.5 -0.125
v -1 1.4817 -0.0808
v -1 1.4375 -0.0625
v -1 1.3933 -0.0808
v -1 1.375 -0.125
v -1 1.3933 -0.1692
v -0.875 1.4375 -0.1875
v -0.875 1.4817 -0.1692
v -0.875 1.5 -0.125
v -0.875 1.4817 -0.0808
v -0.875 1.4375 -0.0625
v -0.875 1.3933 -0.0808
v -0.875 1.375 -0.125
v -0.875 1.3933 -0.1692
v -2.125 1.3125 -0.125
v -2.125 1.5625 -0.125
v -2.125 1.3125 0.125
v -2.125 1.5625 0.125
v -2 1.5625 -0.125
v -2 1.3125 -0.125
v -2 1.5625 0.125
v -2 1.3125 0.125
v -2 1.5625 -0.0625
v -2 1.5625 -0
v -2.0625 1.5625 -0.0625
v -2.0625 1.5625 -0
v -2 1.6875 -0.0625
v -2 1.6875 -0
v -2.0625 1.6875 -0.0625
v -2.0625 1.6875 -0
v -2 1.75 -0.0625
v -2 1.75 -0
v -1 1.6875 -0.0625
v -1 1.6875 -0
v -1.875 1.5625 -0.26
v -1.875 1.3125 -0.26
v -0.875 1.6875 -0.0625
v -0.875 1.6875 -0
v -0.875 1.75 -0.0625
v -0.875 1.75 -0
v -1.9375 1.3125 0.25
v -1.9375 1.5625 0.25
v -1.6875 1.3125 0.25
v -1.6875 1.5625 0.25
v -1.875 1.5 0.1875
v -1.75 1.5 0.1875
v -1.875 1.375 0.1875
v -1.75 1.375 0.1875
v -1.8125 1.5 0.2188
v -1.8567 1.4817 0.2188
v -1.875 1.4375 0.2188
v -1.8567 1.3933 0.2188
v -1.8125 1.375 0.2188
v -1.7683 1.3933 0.2188
v -1.75 1.4375 0.2188
v -1.7683 1.4817 0.2188
v -1.8125 1.4844 0.25
v -1.8456 1.4706 0.25
v -1.8125 1.3906 0.25
v -1.7794 1.4044 0.25
v -1.625 1.3125 -0.26
v -1.625 1.5625 -0.26
v 0.9375 2 0.0312
v 0.9375 1.9531 0.0438
v -0.625 2 -0
v 0.875 2 -0
v -0.625 1.9375 0.0167
v 0.875 1.9375 0.0167
v -0.625 1.8917 0.0625
v 0.875 1.8917 0.0625
v -0.625 1.875 0.125
v 0.875 1.875 0.125
v -0.625 1.8917 0.1875
v 0.875 1.8917 0.1875
v -0.625 1.9375 0.2333
v 0.875 1.9375 0.2333
v -0.625 2 0.25
v 0.875 2 0.25
v -0.625 2.0625 0.2333
v 0.875 2.0625 0.2333
v -0.625 2.1083 0.1875
v 0.875 2.1083 0.1875
v -0.625 2.125 0.125
v 0.875 2.125 0.125
v -0.625 2.1083 0.0625
v 0.875 2.1083 0.0625
v -0.625 2.0625 0.0167
v 0.875 2.0625 0.0167
v 0.9375 1.9188 0.0781
v 0.9375 1.9062 0.125
v 0.9375 1.9188 0.1719
v 0.9375 1.9531 0.2062
v 0.9375 2 0.2188
v 0.9375 2.0469 0.2062
v 0.9375 2.0812 0.1719
v 0.9375 2.0938 0.125
v 0.9375 2.0812 0.0781
v 0.9375 2.0469 0.0438
v -0.6875 2 0.0312
v -0.6875 1.9531 0.0438
v -0.6875 1.9188 0.0781
v -0.6875 1.9062 0.125
v -0.6875 1.9188 0.1719
v -0.6875 1.9531 0.2062
v -0.6875 2 0.2188
v -0.6875 2.0469 0.2062
v -0.6875 2.0812 0.1719
v -0.6875 2.0938 0.125
v -0.6875 2.0812 0.0781
v -0.6875 2.0469 0.0438
v -0.7812 1.75 0.1562
v -0.7188 1.75 0.1562
v -0.7812 1.75 0.0938
v -0.7188 1.75 0.0938
v -0.7812 1.9375 0.0938
v -0.7812 1.9375 0.1562
v -0.7188 1.9375 0.1562
v -0.7188 1.9375 0.0938
v -0.6875 1.9375 0.0625
v -0.6875 2.0625 0.0625
v -0.6875 1.9375 0.1875
v -0.6875 2.0625 0.1875
v -0.8125 1.9375 0.0625
v -0.8125 2.0625 0.0625
v -0.8125 1.9375 0.1875
v -0.8125 2.0625 0.1875
v -0.8125 2 0.1094
v -0.8125 2.011 0.114
v -0.8125 2.0156 0.125
v -0.8125 2.011 0.136
v -0.8125 2 0.1406
v -0.8125 1.989 0.136
v -0.8125 1.9844 0.125
v -0.8125 1.989 0.114
v -0.875 2 0.1094
v -0.875 2.011 0.114
v -0.875 2.0156 0.125
v -0.875 2.011 0.136
v -0.875 2 0.1406
v -0.875 1.989 0.136
v -0.875 1.9844 0.125
v -0.875 1.989 0.114
v -0.875 2 0.0625
v -0.875 2.0442 0.0808
v -0.875 2.0625 0.125
v -0.875 2.0442 0.1692
v -0.875 2 0.1875
v -0.875 1.9558 0.1692
v -0.875 1.9375 0.125
v -0.875 1.9558 0.0808
v -0.875 2 0.0781
v -0.875 2.0331 0.0919
v -0.875 2.0469 0.125
v -0.875 2.0331 0.1581
v -0.875 2 0.1719
v -0.875 1.9669 0.1581
v -0.875 1.9531 0.125
v -0.875 1.9669 0.0919
v -0.8438 2.0442 0.0808
v -0.8438 2 0.0625
v -0.8438 2.0625 0.125
v -0.8438 2.0442 0.1692
v -0.8438 2 0.1875
v -0.8438 1.9558 0.1692
v -0.8438 1.9375 0.125
v -0.8438 1.9558 0.0808
v -0.8438 2.0331 0.0919
v -0.8438 2 0.0781
v -0.8438 2.0469 0.125
v -0.8438 2.0331 0.1581
v -0.8438 2 0.1719
v -0.8438 1.9669 0.1581
v -0.8438 1.9531 0.125
v -0.8438 1.9669 0.0919
v -0.8594 2 0.1094
v -0.8594 2.011 0.114
v -0.8594 2.0156 0.125
v -0.8594 2.011 0.136
v -0.8594 2 0.1406
v -0.8594 1.989 0.136
v -0.8594 1.9844 0.125
v -0.8594 1.989 0.114
v -0.8594 2 0.0781
v -0.8594 2.0331 0.0919
v -0.8594 2.0469 0.125
v -0.8594 2.0331 0.1581
v -0.8594 2 0.1719
v -0.8594 1.9669 0.1581
v -0.8594 1.9531 0.125
v -0.8594 1.9669 0.0919
v 0.4375 1.875 -0.125
v 0.5625 1.875 -0.125
v 0.4375 1.875 -0.25
v 0.5625 1.875 -0.25
v 0.4375 1.9375 -0.25
v 0.4375 1.9375 -0.125
v 0.5625 1.9375 -0.125
v 0.5625 1.9375 -0.25
v 0.375 2.125 -0.2812
v 0.375 2.125 -0.0938
v 0.375 1.9375 -0.0938
v 0.375 1.9375 -0.2812
v 0.75 2.125 -0.2812
v 0.75 2.125 -0.0938
v 0.75 1.9375 -0.0938
v 0.75 1.9375 -0.2812
v 0.75 2.0938 -0.25
v 0.75 2.0938 -0.125
v 0.75 1.9688 -0.125
v 0.75 1.9688 -0.25
v 0.25 2.0938 -0.25
v 0.25 2.0938 -0.125
v 0.25 1.9688 -0.125
v 0.25 1.9688 -0.25
v 0.7812 2.0938 -0.25
v 0.7812 2.0938 -0.125
v 0.7812 1.9688 -0.125
v 0.7812 1.9688 -0.25
v 0.6562 2.125 -0.2913
v 0.6562 1.9375 -0.2913
v 0.4688 2.125 -0.2913
v 0.4688 1.9375 -0.2913
v 1.125 1.2812 -0.3217
v 1.125 1.2592 -0.3438
v 1.125 1.3033 -0.3438
v 1.125 1.2812 -0.3658
v 2 1.3033 -0.3438
v 2 1.2812 -0.3217
v 2 1.2592 -0.3438
v 2 1.2812 -0.3658
v 2 1.3254 -0.3438
v 2 1.2812 -0.2996
v 2 1.2371 -0.3438
v 2 1.2812 -0.3879
v 2.125 1.3254 -0.3438
v 2.125 1.2812 -0.2996
v 2.125 1.2371 -0.3438
v 2.125 1.2812 -0.3879
v 2.0312 1.3125 -0.3438
v 2.0312 1.25 -0.3438
v 2.0938 1.25 -0.3438
v 2.0938 1.3125 -0.3438
v 2.0469 1.2969 -0.2188
v 2.0469 1.2656 -0.2188
v 2.0781 1.2656 -0.2188
v 2.0781 1.2969 -0.2188
v 1.125 1.6062 -0.3217
v 1.125 1.5842 -0.3438
v 1.125 1.6283 -0.3438
v 1.125 1.6062 -0.3658
v 2 1.6283 -0.3438
v 2 1.6062 -0.3217
v 2 1.5842 -0.3438
v 2 1.6062 -0.3658
v 2 1.6504 -0.3438
v 2 1.6062 -0.2996
v 2 1.5621 -0.3438
v 2 1.6062 -0.3879
v 2.125 1.6504 -0.3438
v 2.125 1.6062 -0.2996
v 2.125 1.5621 -0.3438
v 2.125 1.6062 -0.3879
v 2.0312 1.6375 -0.3438
v 2.0312 1.575 -0.3438
v 2.0938 1.575 -0.3438
v 2.0938 1.6375 -0.3438
v 2.0469 1.6219 -0.2188
v 2.0469 1.5906 -0.2188
v 2.0781 1.5906 -0.2188
v 2.0781 1.6219 -0.2188
v 1.125 1.2812 0.3217
v 1.125 1.2592 0.3438
v 1.125 1.3033 0.3438
v 1.125 1.2812 0.3658
v 2 1.3033 0.3438
v 2 1.2812 0.3217
v 2 1.2592 0.3438
v 2 1.2812 0.3658
v 2 1.3254 0.3438
v 2 1.2812 0.2996
v 2 1.2371 0.3438
v 2 1.2812 0.3879
v 2.125 1.3254 0.3438
v 2.125 1.2812 0.2996
v 2.125 1.2371 0.3438
v 2.125 1.2812 0.3879
v 2.0312 1.3125 0.3438
v 2.0312 1.25 0.3438
v 2.0938 1.25 0.3438
v 2.0938 1.3125 0.3438
v 2.0469 1.2969 0.2188
v 2.0469 1.2656 0.2188
v 2.0781 1.2656 0.2188
v 2.0781 1.2969 0.2188
v 1.125 1.6062 0.3217
v 1.125 1.5842 0.3438
v 1.125 1.6283 0.3438
v 1.125 1.6062 0.3658
v 2 1.6283 0.3438
v 2 1.6062 0.3217
v 2 1.5842 0.3438
v 2 1.6062 0.3658
v 2 1.6504 0.3438
v 2 1.6062 0.2996
v 2 1.5621 0.3438
v 2 1.6062 0.3879
v 2.125 1.6504 0.3438
v 2.125 1.6062 0.2996
v 2.125 1.5621 0.3438
v 2.125 1.6062 0.3879
v 2.0312 1.6375 0.3438
v 2.0312 1.575 0.3438
v 2.0938 1.575 0.3438
v 2.0938 1.6375 0.3438
v 2.0469 1.6219 0.2188
v 2.0469 1.5906 0.2188
v 2.0781 1.5906 0.2188
v 2.0781 1.6219 0.2188
v -2.1719 1.4669 -0.0644
v -2.1719 1.4531 -0.0312
v -2.1719 1.4669 0.0019
v -2.1719 1.5 0.0156
v -2.1719 1.5331 0.0019
v -2.1719 1.5469 -0.0312
v -2.1719 1.5331 -0.0644
v -2.1719 1.5 -0.0781
v -2.1719 1.489 -0.0423
v -2.1719 1.4844 -0.0312
v -2.1719 1.489 -0.0202
v -2.1719 1.5 -0.0156
v -2.1719 1.511 -0.0202
v -2.1719 1.5156 -0.0312
v -2.1719 1.511 -0.0423
v -2.1719 1.5 -0.0469
v -2.1562 1.4669 -0.0644
v -2.1562 1.4531 -0.0312
v -2.1562 1.4669 0.0019
v -2.1562 1.5 0.0156
v -2.1562 1.5331 0.0019
v -2.1562 1.5469 -0.0312
v -2.1562 1.5 -0.0781
v -2.1562 1.5331 -0.0644
v -2.1562 1.4558 -0.0754
v -2.1562 1.4375 -0.0312
v -2.1562 1.4558 0.0129
v -2.1562 1.5 0.0312
v -2.1562 1.5442 0.0129
v -2.1562 1.5625 -0.0312
v -2.1562 1.5 -0.0938
v -2.1562 1.5442 -0.0754
v -2.1875 1.4669 -0.0644
v -2.1875 1.4531 -0.0312
v -2.1875 1.4669 0.0019
v -2.1875 1.5 0.0156
v -2.1875 1.5331 0.0019
v -2.1875 1.5469 -0.0312
v -2.1875 1.5331 -0.0644
v -2.1875 1.5 -0.0781
v -2.1875 1.4558 -0.0754
v -2.1875 1.4375 -0.0312
v -2.1875 1.4558 0.0129
v -2.1875 1.5 0.0312
v -2.1875 1.5442 0.0129
v -2.1875 1.5625 -0.0312
v -2.1875 1.5442 -0.0754
v -2.1875 1.5 -0.0938
v -2.1875 1.489 -0.0423
v -2.1875 1.4844 -0.0312
v -2.1875 1.489 -0.0202
v -2.1875 1.5 -0.0156
v -2.1875 1.511 -0.0202
v -2.1875 1.5156 -0.0312
v -2.1875 1.511 -0.0423
v -2.1875 1.5 -0.0469
v -2.125 1.489 -0.0423
v -2.125 1.4844 -0.0312
v -2.125 1.489 -0.0202
v -2.125 1.5 -0.0156
v -2.125 1.511 -0.0202
v -2.125 1.5156 -0.0312
v -2.125 1.511 -0.0423
v -2.125 1.5 -0.0469
v 2 1.6523 0.0548
v 2 1.5938 0.0391
v 2 1.6952 0.0977
v 2 1.7109 0.1562
v 2 1.6952 0.2148
v 2 1.6523 0.2577
v 2 1.5938 0.2734
v 2 1.5352 0.2577
v 2 1.4923 0.2148
v 2 1.4766 0.1562
v 2 1.4923 0.0977
v 2 1.5352 0.0548
v 2 1.6523 -0.2577
v 2 1.5938 -0.2734
v 2 1.6952 -0.2148
v 2 1.7109 -0.1562
v 2 1.6952 -0.0977
v 2 1.6523 -0.0548
v 2 1.5938 -0.0391
v 2 1.5352 -0.0548
v 2 1.4923 -0.0977
v 2 1.4766 -0.1562
v 2 1.4923 -0.2148
v 2 1.5352 -0.2577
v 2 1.3398 -0.2577
v 2 1.2812 -0.2734
v 2 1.3827 -0.2148
v 2 1.3984 -0.1562
v 2 1.3827 -0.0977
v 2 1.3398 -0.0548
v 2 1.2812 -0.0391
v 2 1.2227 -0.0548
v 2 1.1798 -0.0977
v 2 1.1641 -0.1562
v 2 1.1798 -0.2148
v 2 1.2227 -0.2577
v 2 1.3398 0.0548
v 2 1.2812 0.0391
v 2 1.3827 0.0977
v 2 1.3984 0.1562
v 2 1.3827 0.2148
v 2 1.3398 0.2577
v 2 1.2812 0.2734
v 2 1.2227 0.2577
v 2 1.1798 0.2148
v 2 1.1641 0.1562
v 2 1.1798 0.0977
v 2 1.2227 0.0548
v 1.25 1.6523 0.0548
v 1.25 1.5938 0.0391
v 1.25 1.6952 0.0977
v 1.25 1.7109 0.1562
v 1.25 1.6952 0.2148
v 1.25 1.6523 0.2577
v 1.25 1.5938 0.2734
v 1.25 1.5352 0.2577
v 1.25 1.4923 0.2148
v 1.25 1.4766 0.1562
v 1.25 1.4923 0.0977
v 1.25 1.5352 0.0548
v 1.25 1.6523 -0.2577
v 1.25 1.5938 -0.2734
v 1.25 1.6952 -0.2148
v 1.25 1.7109 -0.1562
v 1.25 1.6952 -0.0977
v 1.25 1.6523 -0.0548
v 1.25 1.5938 -0.0391
v 1.25 1.5352 -0.0548
v 1.25 1.4923 -0.0977
v 1.25 1.4766 -0.1562
v 1.25 1.4923 -0.2148
v 1.25 1.5352 -0.2577
v 1.25 1.3398 -0.2577
v 1.25 1.2812 -0.2734
v 1.25 1.3827 -0.2148
v 1.25 1.3984 -0.1562
v 1.25 1.3827 -0.0977
v 1.25 1.3398 -0.0548
v 1.25 1.2812 -0.0391
v 1.25 1.2227 -0.0548
v 1.25 1.1798 -0.0977
v 1.25 1.1641 -0.1562
v 1.25 1.1798 -0.2148
v 1.25 1.2227 -0.2577
v 1.25 1.3398 0.0548
v 1.25 1.2812 0.0391
v 1.25 1.3827 0.0977
v 1.25 1.3984 0.1562
v 1.25 1.3827 0.2148
v 1.25 1.3398 0.2577
v 1.25 1.2812 0.2734
v 1.25 1.2227 0.2577
v 1.25 1.1798 0.2148
v 1.25 1.1641 0.1562
v 1.25 1.1798 0.0977
v 1.25 1.2227 0.0548
v 1.875 1.6719 0.0209
v 1.875 1.5938 -0
v 1.875 1.7291 0.0781
v 1.875 1.75 0.1562
v 1.875 1.7291 0.2344
v 1.875 1.6719 0.2916
v 1.875 1.5938 0.3125
v 1.875 1.5156 0.2916
v 1.875 1.4584 0.2344
v 1.875 1.4375 0.1562
v 1.875 1.4584 0.0781
v 1.875 1.5156 0.0209
v 2 1.6523 0.0548
v 2 1.5938 0.0391
v 2 1.6952 0.0977
v 2 1.7109 0.1562
v 2 1.6952 0.2148
v 2 1.6523 0.2577
v 2 1.5938 0.2734
v 2 1.5352 0.2577
v 2 1.4923 0.2148
v 2 1.4766 0.1562
v 2 1.4923 0.0977
v 2 1.5352 0.0548
v 2 1.3398 0.0548
v 2 1.2812 0.0391
v 2 1.3827 0.0977
v 2 1.3984 0.1562
v 2 1.3827 0.2148
v 2 1.3398 0.2577
v 2 1.2812 0.2734
v 2 1.2227 0.2577
v 2 1.1798 0.2148
v 2 1.1641 0.1562
v 2 1.1798 0.0977
v 2 1.2227 0.0548
v 2 1.3398 -0.2577
v 2 1.2812 -0.2734
v 2 1.3827 -0.2148
v 2 1.3984 -0.1562
v 2 1.3827 -0.0977
v 2 1.3398 -0.0548
v 2 1.2812 -0.0391
v 2 1.2227 -0.0548
v 2 1.1798 -0.0977
v 2 1.1641 -0.1562
v 2 1.1798 -0.2148
v 2 1.2227 -0.2577
v 2 1.6523 -0.2577
v 2 1.5938 -0.2734
v 2 1.6952 -0.2148
v 2 1.7109 -0.1562
v 2 1.6952 -0.0977
v 2 1.6523 -0.0548
v 2 1.5938 -0.0391
v 2 1.5352 -0.0548
v 2 1.4923 -0.0977
v 2 1.4766 -0.1562
v 2 1.4923 -0.2148
v 2 1.5352 -0.2577
v 0.875 2.1083 0.0625
v 0.875 2.0625 0.0167
v 0.9375 1.9188 0.0781
v 0.9375 1.9062 0.125
v 0.9375 1.9188 0.1719
v 0.9375 1.9531 0.2062
v 0.9375 2 0.2188
v 0.9375 2.0469 0.2062
v 0.9375 2.0812 0.1719
v 0.9375 2.0938 0.125
v 0.9375 2.0812 0.0781
v 0.9375 2.0469 0.0438
v -0.625 2 -0
v -0.625 1.9375 0.0167
v -0.625 1.8917 0.0625
v -0.625 1.875 0.125
v -0.625 1.8917 0.1875
v -0.625 1.9375 0.2333
v -0.625 2 0.25
v -0.625 2.0625 0.2333
v -0.625 2.1083 0.1875
v -0.625 2.125 0.125
v -0.625 2.1083 0.0625
v -0.625 2.0625 0.0167
v -0.6875 2 0.0312
v -0.6875 1.9531 0.0438
v -0.6875 1.9188 0.0781
v -0.6875 1.9062 0.125
v -0.6875 1.9188 0.1719
v -0.6875 1.9531 0.2062
v -0.6875 2 0.2188
v -0.6875 2.0469 0.2062
v -0.6875 2.0812 0.1719
v -0.6875 2.0938 0.125
v -0.6875 2.0812 0.0781
v -0.6875 2.0469 0.0438
v -0.875 2 0.1094
v -0.875 2.011 0.114
v -0.875 2.0156 0.125
v -0.875 2.011 0.136
v -0.875 2 0.1406
v -0.875 1.989 0.136
v -0.875 1.9844 0.125
v -0.875 1.989 0.114
v -0.875 2 0.0781
v -0.875 2.0331 0.0919
v -0.875 2.0469 0.125
v -0.875 2.0331 0.1581
v -0.875 2 0.1719
v -0.875 1.9669 0.1581
v -0.875 1.9531 0.125
v -0.875 1.9669 0.0919
v -0.8438 2.0331 0.0919
v -0.8438 2 0.0781
v -0.8438 2.0469 0.125
v -0.8438 2.0331 0.1581
v -0.8438 2 0.1719
v -0.8438 1.9669 0.1581
v -0.8438 1.9531 0.125
v -0.8438 1.9669 0.0919
v -0.875 2 0.0625
v -0.875 2.0442 0.0808
v -0.875 2.0625 0.125
v -0.875 2.0442 0.1692
v -0.875 2 0.1875
v -0.875 1.9558 0.1692
v -0.875 1.9375 0.125
v -0.875 1.9558 0.0808
v -0.8438 2.0442 0.0808
v -0.8438 2 0.0625
v -0.8438 2.0625 0.125
v -0.8438 2.0442 0.1692
v -0.8438 2 0.1875
v -0.8438 1.9558 0.1692
v -0.8438 1.9375 0.125
v -0.8438 1.9558 0.0808
v -2.1875 1.489 -0.0423
v -2.1875 1.4844 -0.0312
v -2.1875 1.489 -0.0202
v -2.1875 1.5 -0.0156
v -2.1875 1.511 -0.0202
v -2.1875 1.5156 -0.0312
v -2.1875 1.511 -0.0423
v -2.1875 1.5 -0.0469
v -2.1562 1.4558 -0.0754
v -2.1562 1.4375 -0.0312
v -2.1562 1.4558 0.0129
v -2.1562 1.5 0.0312
v -2.1562 1.5442 0.0129
v -2.1562 1.5625 -0.0312
v -2.1562 1.5 -0.0938
v -2.1562 1.5442 -0.0754
v -2.1875 1.4558 -0.0754
v -2.1875 1.4375 -0.0312
v -2.1875 1.4558 0.0129
v -2.1875 1.5 0.0312
v -2.1875 1.5442 0.0129
v -2.1875 1.5625 -0.0312
v -2.1875 1.5442 -0.0754
v -2.1875 1.5 -0.0938
v -2.1562 1.4669 -0.0644
v -2.1562 1.4531 -0.0312
v -2.1562 1.4669 0.0019
v -2.1562 1.5 0.0156
v -2.1562 1.5331 0.0019
v -2.1562 1.5469 -0.0312
v -2.1562 1.5 -0.0781
v -2.1562 1.5331 -0.0644
v -2.1875 1.4669 -0.0644
v -2.1875 1.4531 -0.0312
v -2.1875 1.4669 0.0019
v -2.1875 1.5 0.0156
v -2.1875 1.5331 0.0019
v -2.1875 1.5469 -0.0312
v -2.1875 1.5331 -0.0644
v -2.1875 1.5 -0.0781
v -2.0625 1.5625 -0.0625
v -2.0625 1.5625 -0
v -2.0625 1.6875 -0.0625
v -2.0625 1.6875 -0
v -2 1.75 -0.0625
v -2 1.75 -0
v -0.875 1.75 -0.0625
v -0.875 1.75 -0
v -1.8125 1.5 0.1875
v -1.8567 1.4817 0.1875
v -1.875 1.4375 0.1875
v -1.8567 1.3933 0.1875
v -1.8125 1.375 0.1875
v -1.7683 1.3933 0.1875
v -1.75 1.4375 0.1875
v -1.7683 1.4817 0.1875
v -1.8125 1.5 0.2188
v -1.8567 1.4817 0.2188
v -1.875 1.4375 0.2188
v -1.8567 1.3933 0.2188
v -1.8125 1.375 0.2188
v -1.7683 1.3933 0.2188
v -1.75 1.4375 0.2188
v -1.7683 1.4817 0.2188
v 0.25 1.125 0.375
v 0.25 1.875 0.25
v 0.125 1.125 0.3438
v 0.125 1.9375 0.0167
v 0.125 1.9375 0.2333
v 0.125 2.125 0.125
v 0.25 1.75 0.375
v 0.25 1.875 -0.25
v 0.25 1.125 -0.375
v 0.125 1.125 0.2812
v 0.125 1.125 -0.3438
v 0.125 1.8917 0.0625
v 0.125 2 0.25
v 0.125 2.1083 0.0625
v 0.25 1.75 -0.375
v 0.125 1.125 -0.2812
v 0.125 1.875 0.125
v 0.125 2.0625 0.2333
v 0.125 2.0625 0.0167
v 0.125 2 -0
v 0.125 1.8917 0.1875
v 0.125 2.1083 0.1875
vt 0.7961 0.5667
vt 0.9126 0.5833
vt 0.7961 0.5833
vt 0.2816 0.9667
vt 0.3398 0.8333
vt 0.3398 1
vt 0.3786 0.4167
vt 0.4951 0.4
vt 0.4951 0.4167
vt 0.3398 0.1667
vt 0.3495 0.15
vt 0.3495 0.1667
vt 0.4951 0.9
vt 0.4757 0.9167
vt 0.4757 0.9
vt 0.0583 0.85
vt 0.068 1
vt 0.0583 1
vt 0.7864 0.6333
vt 0.6311 0.7
vt 0.6311 0.6333
vt 0.068 0.8
vt 0.0583 0.6833
vt 0.068 0.6667
vt 0.1553 -0
vt 0 0.2667
vt -0 0
vt 0.0583 0.6167
vt 0.068 0.4667
vt 0.068 0.6333
vt 0.0583 0.6333
vt 0.0583 0.6667
vt 0.8058 0.6833
vt 0.9612 0.7
vt 0.8058 0.7
vt 0.3786 0.5
vt 0.4951 0.4833
vt 0.4951 0.5
vt 0.0194 1
vt 0.3786 0.35
vt 0.4951 0.3333
vt 0.4951 0.35
vt 0.1262 0.6
vt 0.2816 0.5
vt 0.2039 0.4667
vt 0.3398 0.4667
vt 0.2039 0.6333
vt 0.8058 0.7333
vt 0.9612 0.7667
vt 0.8058 0.7667
vt 0.7961 0.55
vt 0.9126 0.5667
vt 0.3786 0.1833
vt 0.3689 0.2
vt 0.3689 0.1833
vt 0.4951 0.9667
vt 0.4757 0.9833
vt 0.4757 0.9667
vt 0.1262 0.8667
vt 0.2039 0.8333
vt 0.3398 0.6333
vt 0.2816 0.6
vt 0.2039 1
vt 0.3592 0.1333
vt 0.3495 0.1333
vt 0.3204 0.25
vt 0.3301 0.2667
vt 0.3204 0.2667
vt 0.0583 0.8333
vt 0.068 0.8333
vt 0.3786 0.4833
vt 0.4951 0.4667
vt 0.5534 0.6667
vt 0.4563 0.6
vt 0.5534 0.6
vt 0.3786 0.4333
vt 0.4951 0.4333
vt 0.1553 0.2667
vt 0.3107 -0
vt 0.3107 0.2667
vt 0.9806 0.7333
vt 0.9709 0.6667
vt 0.9806 0.6333
vt 0.7961 0.7
vt 0.7864 0.7333
vt 0.8058 0.6667
vt 0.9612 0.6833
vt 0.8835 0.9
vt 0.8932 0.8667
vt 0.8932 0.9
vt 0.3398 0.15
vt 0.3592 0.6333
vt 0.4563 0.6667
vt 0.3592 0.6667
vt 0.3398 0.2
vt 0.3301 0.1833
vt 0.3398 0.1833
vt 0.3642 0.3655
vt 0.3642 0.3012
vt 0.3729 0.3569
vt 0.3779 0.3419
vt 0.3405 0.3419
vt 0.3786 0.3833
vt 0.4951 0.3667
vt 0.4951 0.3833
vt 0.5146 0.3667
vt 0.6699 0.35
vt 0.6699 0.3667
vt 0.9612 0.7167
vt 0.8058 0.7167
vt 0.4951 0.8667
vt 0.4757 0.8833
vt 0.4757 0.8667
vt 0.8155 0.3833
vt 0.835 0.4
vt 0.8155 0.4
vt 0.5146 0.3833
vt 0.5146 0.4833
vt 0.6699 0.4667
vt 0.6699 0.4833
vt 0.466 0.8667
vt 0.3495 0.9
vt 0.3495 0.8667
vt 0.3592 0.8333
vt 0.3398 0.8
vt 0.3592 0.8
vt 0.466 0.9667
vt 0.3495 0.95
vt 0.466 0.95
vt 0.3398 0.6667
vt 0.9612 0.7333
vt 0.0194 0.6333
vt 0.0194 0.6667
vt 0.4563 0.8
vt 0.5534 0.8667
vt 0.4563 0.8667
vt 0.9612 0.6667
vt 0.3204 0.2333
vt 0.3301 0.25
vt 0.7476 0.9833
vt 0.7767 1
vt 0.7379 1
vt 0.466 0.9167
vt 0.3495 0.9167
vt 0.3592 0.5
vt 0.3981 0.5333
vt 0.3592 0.5333
vt 0.835 0.3833
vt 0.3786 0.4
vt 0.2039 0.8
vt 0.8155 0.3667
vt 0.835 0.35
vt 0.835 0.3667
vt 0.3689 0.1333
vt 0.3592 0.15
vt 0.5146 0.4667
vt 0.6699 0.45
vt 0.466 0.9
vt 0.3204 0.1833
vt 0.3301 0.2
vt 0.3204 0.2
vt 0.3786 0.45
vt 0.4951 0.45
vt 0.3301 0.2167
vt 0.3204 0.2167
vt 0.8058 0.35
vt 0.3204 0.1667
vt 0.6311 0.8
vt 0.6311 0.7333
vt 0.5534 0.95
vt 0.5825 0.9333
vt 0.5825 0.95
vt 0.3689 0.15
vt 0.3592 0.1667
vt 0.5146 0.9667
vt 0.4951 1
vt 0.6019 0.55
vt 0.5922 0.5667
vt 0.5922 0.55
vt 0.6019 0.6
vt 0.5922 0.6
vt 0.5922 0.5833
vt 0.4369 0.6
vt 0.4175 0.5833
vt 0.4175 0.5667
vt 0.4175 0.55
vt 0.4369 0.55
vt 0.3786 0.3333
vt 0.4951 0.3167
vt 0.7767 0.9333
vt 0.7379 0.9333
vt 0.7864 0.9
vt 0.5146 0.9
vt 0.4951 0.9333
vt 0.6214 0.5667
vt 0.6019 0.5667
vt 0.7379 0.6
vt 0.7767 0.6
vt 0.7476 0.95
vt 0.767 0.9833
vt 0.6796 0.45
vt 0.7961 0.4667
vt 0.6796 0.4667
vt 0.4078 0.2167
vt 0.4175 0.2
vt 0.4175 0.2167
vt 0.311 0.1446
vt 0.3198 0.1446
vt 0.3136 0.149
vt 0.3883 0.2167
vt 0.4078 0.2333
vt 0.3883 0.2333
vt 0.1068 0.45
vt 0.2233 0.2917
vt 0.2233 0.4417
vt 0.767 0.95
vt 0.3786 0.25
vt 0.3883 0.2667
vt 0.3883 0.15
vt 0.3883 0.2
vt 0.1262 0.9667
vt 0.3592 0.2167
vt 0.3495 0.2333
vt 0.3495 0.2167
vt 0.8835 0.85
vt 0.8932 0.8167
vt 0.8932 0.85
vt 0.9029 0.7667
vt 0.9612 0.8167
vt 0.9029 0.8167
vt 0.6699 0.3333
vt 0.8058 0.3333
vt 0.4175 0.5333
vt 0.3981 0.6
vt 0.0194 0.4667
vt 0.0194 0.6167
vt 0.3301 0.1667
vt 0.3107 0.15
vt 0.3107 0.1667
vt 0.3398 0.2333
vt 0.3398 0.2167
vt 0.3301 0.2333
vt 0.3301 0.1333
vt 0.3398 0.1333
vt 0.3592 0.25
vt 0.3495 0.25
vt 0.3592 0.1833
vt 0.3495 0.2
vt 0.3495 0.1833
vt 0.3592 0.2667
vt 0.9806 0.8
vt 0.3204 0.15
vt 0.6698 0.5811
vt 0.6431 0.5811
vt 0.6601 0.552
vt 0.6311 0.9333
vt 0.5146 0.9333
vt 0.7864 0.9333
vt 0.7864 1
vt 0.3786 0.4667
vt 0.3398 0.2667
vt 0.3495 0.2667
vt 0.5146 0.4333
vt 0.6699 0.4167
vt 0.6699 0.4333
vt 0.5534 0.9833
vt 0.5825 0.9667
vt 0.5825 0.9833
vt 0.9029 0.8667
vt 0.8932 0.8
vt 0.8932 0.95
vt 0.9029 0.9167
vt 0.9029 0.9667
vt 0.7864 0.8
vt 0.6311 0.8333
vt 0.9806 0.8167
vt 0.9612 0.8667
vt 0.9411 0.5993
vt 0.9336 0.5514
vt 0.9513 0.5817
vt 0.9806 0.8667
vt 0.9612 0.9167
vt 0.9806 0.9167
vt 0.9612 0.9667
vt 0.5534 1
vt 0.5825 1
vt 0.3592 0.6
vt 0.8058 0.3833
vt 0.6699 0.4
vt 0.6699 0.3833
vt 0.534 0.9667
vt 0.5534 0.9333
vt 0.5534 0.9667
vt 0.7864 0.7
vt 0.5146 0.3333
vt 0.6699 0.3167
vt 0.4951 0.9833
vt 0.4757 1
vt 0.3495 0.9667
vt 0.8058 0.3667
vt 0.8835 0.8
vt 0.8932 0.7667
vt 0.3689 0.2333
vt 0.3592 0.2333
vt 0.3204 0.1333
vt 0.3301 0.15
vt 1 0.9
vt 1 0.8667
vt 0.8738 0.35
vt 0.8544 0.3333
vt 0.8738 0.3333
vt 0.8544 0.4
vt 0.8738 0.3833
vt 0.8738 0.4
vt 0.8544 0.3833
vt 0.8544 0.35
vt 0.8738 0.3667
vt 0.8544 0.3667
vt 0.9223 0.55
vt 0.932 0.5167
vt 0.932 0.55
vt 0.8447 0.3667
vt 0.8447 0.3833
vt 0.3592 0.2
vt 0.3786 0.3167
vt 0.4951 0.3
vt 0.8835 0.95
vt 0.8932 0.9167
vt 0.4369 0.5333
vt 0.9126 0.4833
vt 0.7961 0.4833
vt 0.8155 0.35
vt 0.835 0.3333
vt 0.9223 0.4833
vt 0.932 0.45
vt 0.932 0.4833
vt 0.3689 0.2167
vt 0.8058 0.65
vt 0.3786 0.2
vt 0.3786 0.2167
vt 0.8058 0.4
vt 0.3398 0.95
vt 0.4078 0.2
vt 0.4951 0.9167
vt 0.4757 0.9333
vt 0.3398 0.25
vt 0.3883 0.1833
vt 0.4078 0.1833
vt 0.3786 0.2667
vt 0.3689 0.2667
vt 0.9126 0.5167
vt 0.9223 0.5167
vt 0.9223 0.5333
vt 0.3689 0.25
vt 0.0583 0.7833
vt 0.5146 0.35
vt 0.0583 0.4667
vt 0.4951 0.95
vt 0.4757 0.95
vt 0.5146 0.3167
vt 0.5146 0.3
vt 0.6699 0.3
vt 0.3981 0.6333
vt 0.0194 0.45
vt 0 0.4167
vt 0 0.3167
vt 0.0194 0.2833
vt 0.8835 0.8667
vt 0.1262 0.5
vt 0.2816 0.8667
vt 0.0194 0.7833
vt 0.0194 0.6833
vt 0.5146 0.4167
vt 0.5146 0.4
vt 0.9709 0.7167
vt 0.9709 0.7
vt 0.9709 0.65
vt 0.9612 0.6333
vt 0.8058 0.6333
vt 0.7961 0.65
vt 0.7961 0.6667
vt 0.7961 0.7167
vt 0.534 0.9333
vt 0.2039 0.6667
vt 0.6796 0.4833
vt 0.7961 0.5
vt 0.3542 0.3655
vt 0.3455 0.3569
vt 0.3405 0.3247
vt 0.3455 0.3098
vt 0.3542 0.3012
vt 0.3729 0.3098
vt 0.3779 0.3247
vt 0.7961 0.5333
vt 0.9126 0.5333
vt 0.9126 0.55
vt 0.5146 0.5
vt 0.7961 0.4333
vt 0.9126 0.4333
vt 0.9126 0.45
vt 0.2233 0.4583
vt 0.068 0.45
vt 0.1068 0.2833
vt 0.068 0.2833
vt 0.068 0.2667
vt 0.2233 0.275
vt 0.2039 0.2667
vt 0.9806 0.85
vt 0.8641 0.8333
vt 0.8641 0.9
vt 0.8447 0.9333
vt 0.8058 0.9333
vt 0.7864 0.8333
vt 0.8058 0.8
vt 0.8447 0.8
vt 0.6019 0.5833
vt 0.5728 0.9333
vt 0.5534 0.9
vt 0.5534 0.8333
vt 0.5728 0.8
vt 0.6117 0.8
vt 0.6311 0.9
vt 0.6117 0.9333
vt 0.5146 0.45
vt 0.6796 0.5
vt 0.7961 0.5167
vt 0.6796 0.5167
vt 0.3786 0.3667
vt 0.8155 0.3333
vt 0.4175 0.6
vt 0.9126 0.5
vt 0.6311 0.6
vt 0.7864 0.6
vt 0.6796 0.5333
vt 0.6796 0.55
vt 0.6796 0.4333
vt 0.7961 0.45
vt 0.6796 0.4
vt 0.7961 0.4167
vt 0.6796 0.4167
vt 0.4951 0.8833
vt 0.6796 0.5833
vt 0.7961 0.6
vt 0.6796 0.6
vt 0.9271 0.5929
vt 0.3786 0.2333
vt 0.3786 0.1667
vt 0.9234 0.5817
vt 0.9234 0.5689
vt 0.9271 0.5578
vt 0.9411 0.5514
vt 0.9476 0.5578
vt 0.9513 0.5689
vt 0.9476 0.5929
vt 0.9336 0.5993
vt 0.4563 0.6333
vt 0.6663 0.5581
vt 0.6698 0.5688
vt 0.6663 0.5917
vt 0.6601 0.5978
vt 0.6529 0.5978
vt 0.6467 0.5917
vt 0.6431 0.5688
vt 0.6467 0.5581
vt 0.6529 0.552
vt 0.3172 0.134
vt 0.3198 0.1383
vt 0.3172 0.149
vt 0.311 0.1383
vt 0.3136 0.134
vt 0.3689 0.1667
vt 0.3398 0.3
vt 0.3398 0.4333
vt 0.6796 0.5667
vt 0.0583 0.8
vt 0.9223 0.45
vt 0.9223 0.4167
vt 0.932 0.4167
vt 0.9126 0.4167
vt 0.9806 0.95
vt 0.4563 0.8333
vt 0.5534 0.8
vt 0.9806 0.9
vt 0.3981 0.5
vt 0.0194 0.85
vt 0.9223 0.5833
vt 0.9126 0.6
vt 0.6699 0.5
vt 0.8058 0.6
vt 0.9612 0.6
vt 0.9223 0.5
vt 0.9223 0.4667
vt 0.9126 0.4667
vt 0.9223 0.5667
vt 0.9126 0.4
vt 0.9223 0.4333
vt 0.4175 0.8
vt 0.4175 0.6667
vt 0.6214 0.5833
vt 0.6214 0.6
vt 0.9612 0.65
vt 0.3786 0.1333
vt 0.0194 0.8333
vt 0.3786 0.15
vt 0.7961 0.4
vt 0.3398 0.6
vt 0.5922 0.6667
vt 0.5922 0.8
vt 0.3398 0.9167
vt 0.6699 0.6
vt 0.6699 0.5833
vt 0.6699 0.5167
vt 0.6699 0.5667
vt 0.6699 0.5333
vt 0.3786 0.3
vt 0.9223 0.4
vt 0.8835 0.7667
vt 0.8835 0.8167
vt 0.6311 1
vt 0.9806 0.7667
vt 0.8835 0.9167
vt 0.9223 0.6
vt 0.0194 0.8
vt 0.8641 0.8667
vt 0.6214 0.55
vt 0.5146 1
vt 0.3398 0.5333
vt 0.6699 0.55
s 1
f 1001/1 391/2 1017/3
f 35/4 2/5 1/6
f 789/7 740/8 741/9
f 926/10 924/11 917/12
f 313/13 304/14 305/15
f 15/16 5/17 13/18
f 278/19 269/20 270/21
f 12/22 18/23 11/24
f 540/25 537/26 538/27
f 16/28 7/29 8/30
f 16/31 11/24 18/32
f 60/33 57/34 58/35
f 770/36 721/37 722/38
f 782/36 733/37 734/38
f 19/39 15/16 13/18
f 762/40 724/41 714/42
f 7/29 26/43 8/30
f 27/44 1005/45 3/46
f 26/43 1011/47 8/30
f 30/48 28/49 26/50
f 1009/51 393/52 1001/1
f 995/53 986/54 987/55
f 325/56 324/57 317/58
f 34/59 1003/60 2/5
f 27/44 4/61 28/62
f 35/4 997/63 5/17
f 670/64 677/11 678/65
f 685/66 694/67 686/68
f 15/69 12/22 6/70
f 769/71 720/72 721/37
f 53/43 52/44 51/62
f 265/73 263/74 261/75
f 766/76 717/9 718/77
f 790/76 741/9 742/77
f 380/78 354/79 353/80
f 28/81 48/82 27/83
f 25/19 43/84 26/85
f 753/7 704/8 705/9
f 62/86 59/87 60/33
f 534/88 525/89 526/90
f 941/91 950/65 949/11
f 35/19 58/84 36/85
f 34/81 61/82 33/83
f 4/92 261/93 263/94
f 479/95 485/96 477/97
f 249/98 257/99 250/100
f 236/101 229/102 233/99
f 224/101 217/102 221/99
f 763/103 713/104 715/105
f 117/106 69/107 70/108
f 58/35 55/109 56/110
f 315/111 306/112 307/113
f 604/114 599/115 603/116
f 174/117 821/104 176/106
f 149/118 100/119 101/120
f 288/121 285/122 286/123
f 2/124 9/125 264/126
f 297/127 296/128 294/129
f 10/130 4/92 263/94
f 56/110 38/131 40/48
f 22/132 18/32 24/133
f 268/134 262/135 264/136
f 48/137 45/33 47/86
f 137/118 88/119 89/120
f 692/138 693/139 685/66
f 366/140 359/141 361/142
f 300/122 293/143 295/144
f 41/110 32/131 30/48
f 337/145 333/146 334/147
f 579/116 574/148 575/115
f 788/149 739/105 740/8
f 998/150 2/5 1003/60
f 577/151 576/152 573/153
f 915/154 908/155 907/64
f 148/156 99/157 100/119
f 292/143 285/122 287/158
f 689/159 698/160 690/161
f 296/128 293/143 294/129
f 791/162 742/77 743/163
f 690/161 699/164 691/165
f 546/166 543/108 541/107
f 688/167 697/96 689/159
f 279/85 273/168 271/169
f 436/170 430/171 432/172
f 957/173 972/174 965/155
f 444/175 439/176 440/56
f 347/177 349/178 345/179
f 348/180 346/181 350/182
f 331/111 322/112 323/113
f 350/182 352/183 358/184
f 357/185 355/186 351/187
f 796/188 747/189 748/41
f 360/190 362/191 284/192
f 441/193 438/194 437/13
f 345/177 343/195 347/196
f 361/197 359/198 278/19
f 40/48 34/49 36/50
f 364/199 361/142 362/191
f 365/200 360/190 359/141
f 384/201 1015/202 406/203
f 376/204 367/205 368/206
f 898/207 893/208 899/209
f 377/210 368/211 371/212
f 20/213 1006/214 1012/215
f 363/216 362/191 360/190
f 369/217 371/210 368/218
f 373/53 367/219 372/220
f 33/221 6/70 34/59
f 673/222 680/223 681/224
f 935/207 940/208 934/209
f 754/76 705/9 706/77
f 533/225 528/226 525/227
f 523/228 520/229 524/230
f 291/129 290/144 292/143
f 596/166 590/231 595/232
f 338/233 335/234 333/146
f 20/235 16/28 22/236
f 455/161 446/164 454/165
f 153/106 105/107 106/108
f 478/10 485/96 486/237
f 479/95 488/164 487/160
f 494/238 501/167 493/239
f 481/240 488/164 480/241
f 481/240 490/139 489/242
f 248/101 241/102 245/99
f 661/91 654/243 662/244
f 669/155 684/12 677/11
f 465/223 474/245 466/246
f 470/247 463/248 462/249
f 463/248 472/222 464/224
f 461/12 470/247 462/249
f 664/240 655/139 656/242
f 475/250 466/246 474/245
f 670/250 679/246 671/245
f 476/155 461/12 468/11
f 519/49 532/251 520/229
f 472/222 465/223 464/224
f 649/238 642/167 650/239
f 637/252 646/239 645/238
f 416/253 411/254 407/255
f 361/142 274/256 362/191
f 442/257 440/56 438/194
f 359/141 281/258 280/259
f 792/260 743/163 744/72
f 555/116 550/148 551/115
f 931/261 922/246 923/262
f 122/263 73/264 74/265
f 794/36 745/37 746/38
f 434/266 431/267 429/268
f 525/227 524/230 521/269
f 528/270 523/228 524/230
f 527/271 522/272 523/273
f 526/90 521/269 522/272
f 282/274 275/275 273/168
f 532/276 517/277 520/229
f 426/278 420/279 424/280
f 529/281 518/282 517/277
f 530/283 519/284 518/282
f 435/285 429/268 430/286
f 336/287 333/146 335/234
f 548/288 542/289 544/290
f 443/291 437/292 439/293
f 277/294 271/169 269/20
f 140/295 91/296 92/231
f 316/297 307/298 308/57
f 289/128 288/127 286/299
f 786/40 748/41 738/42
f 778/76 729/9 730/77
f 555/288 553/151 554/114
f 601/151 603/288 602/300
f 536/301 527/302 528/270
f 913/303 906/245 905/304
f 686/305 695/306 687/252
f 545/300 544/290 543/108
f 531/307 529/281 532/308
f 583/309 586/310 582/311
f 562/312 557/313 558/314
f 612/315 607/314 611/312
f 610/316 605/317 609/318
f 298/14 294/129 293/143
f 514/319 511/320 509/321
f 777/7 728/8 729/9
f 624/148 622/322 623/323
f 628/114 626/300 625/151
f 521/269 518/282 522/272
f 964/55 970/324 971/247
f 759/325 710/326 711/189
f 535/327 526/328 527/271
f 554/114 549/153 550/148
f 636/315 631/314 635/312
f 611/310 606/309 610/316
f 585/315 584/317 581/313
f 588/318 583/309 584/317
f 355/186 352/329 351/187
f 1015/202 403/330 1010/331
f 578/114 573/153 574/148
f 556/332 551/333 552/152
f 570/166 567/108 565/107
f 576/322 574/148 573/153
f 599/323 597/153 598/322
f 516/334 510/335 512/336
f 146/263 97/264 98/265
f 961/337 968/304 969/222
f 932/91 923/65 924/11
f 49/338 48/137 47/86
f 582/314 585/315 581/313
f 635/310 630/309 634/316
f 561/315 560/317 557/313
f 372/339 377/210 371/340
f 595/341 589/290 594/288
f 299/342 295/144 296/128
f 793/71 744/72 745/37
f 580/300 578/114 579/288
f 377/210 375/343 376/204
f 312/344 303/345 304/14
f 129/106 81/107 82/108
f 119/117 70/108 71/290
f 593/300 592/107 596/166
f 628/114 623/115 627/116
f 609/318 608/313 612/315
f 559/309 562/310 558/311
f 564/318 559/309 560/317
f 633/318 632/313 636/315
f 498/238 505/167 497/239
f 666/95 660/96 668/97
f 651/238 644/167 652/239
f 508/252 499/239 500/238
f 478/10 492/306 484/91
f 484/91 491/243 483/244
f 491/67 482/346 483/261
f 667/10 653/306 661/91
f 684/12 675/247 683/249
f 496/238 503/167 495/239
f 675/247 682/248 683/249
f 647/238 640/167 648/239
f 680/223 671/245 679/246
f 475/64 468/11 467/65
f 654/67 663/346 662/261
f 375/343 372/347 367/348
f 664/240 657/164 665/241
f 666/95 657/164 658/160
f 682/248 673/222 681/224
f 667/10 660/96 659/237
f 991/217 990/349 982/350
f 62/86 61/137 59/87
f 797/106 809/104 810/42
f 877/351 889/352 888/353
f 914/354 915/350 907/250
f 15/16 6/70 5/17
f 757/71 756/260 708/72
f 12/22 17/355 18/23
f 130/356 140/295 92/231
f 16/28 14/357 7/29
f 327/194 326/358 318/359
f 139/360 138/361 90/362
f 553/151 556/332 552/152
f 647/238 639/252 640/167
f 118/356 128/295 80/231
f 340/363 339/92 336/287
f 22/364 24/365 23/366
f 23/366 21/367 22/364
f 534/88 533/368 525/89
f 27/44 25/369 7/29
f 26/43 28/62 4/61
f 212/106 833/104 834/42
f 804/156 816/72 815/163
f 928/241 927/95 919/248
f 827/163 826/77 171/263
f 2/5 36/370 34/59
f 941/91 942/244 950/65
f 5/17 33/221 35/4
f 753/7 752/149 704/8
f 666/95 665/241 657/164
f 329/13 328/344 320/14
f 781/71 780/260 732/72
f 23/371 24/372 18/23
f 328/344 327/194 319/345
f 654/67 655/139 663/346
f 1005/45 7/29 20/213
f 145/373 144/374 96/289
f 28/81 32/131 42/375
f 44/376 46/87 48/82
f 28/81 42/375 44/376
f 50/377 31/378 27/83
f 28/81 44/376 48/82
f 48/82 50/377 27/83
f 25/19 29/379 49/380
f 47/381 45/33 43/84
f 25/19 49/380 47/381
f 41/382 30/48 26/85
f 25/19 47/381 43/84
f 43/84 41/382 26/85
f 441/383 443/291 444/175
f 911/54 912/337 904/222
f 1004/384 11/24 8/30
f 404/385 1010/331 1002/386
f 35/19 39/379 64/380
f 62/381 60/33 58/84
f 35/19 64/380 62/381
f 56/382 40/48 36/85
f 35/19 62/381 58/84
f 58/84 56/382 36/85
f 34/81 38/131 55/375
f 57/376 59/87 61/82
f 34/81 55/375 57/376
f 63/377 37/378 33/83
f 34/81 57/376 61/82
f 61/82 63/377 33/83
f 524/230 520/229 517/277
f 214/100 213/98 217/102
f 213/98 215/387 217/102
f 215/387 216/388 217/102
f 217/102 218/389 221/99
f 218/389 219/390 221/99
f 219/390 220/391 221/99
f 221/99 222/392 223/393
f 223/393 224/101 221/99
f 34/59 6/70 1003/60
f 226/100 225/98 229/102
f 225/98 227/387 229/102
f 227/387 228/388 229/102
f 229/102 230/389 233/99
f 230/389 231/390 233/99
f 231/390 232/391 233/99
f 233/99 234/392 235/393
f 235/393 236/101 233/99
f 35/4 1/6 997/63
f 238/100 237/98 241/102
f 237/98 239/387 241/102
f 239/387 240/388 241/102
f 241/102 242/389 245/99
f 242/389 243/390 245/99
f 243/390 244/391 245/99
f 245/99 246/392 247/393
f 247/393 248/101 245/99
f 670/64 669/155 677/11
f 27/44 3/46 4/61
f 249/98 251/387 253/102
f 251/387 252/388 253/102
f 253/102 254/389 257/99
f 254/389 255/390 257/99
f 255/390 256/391 257/99
f 257/99 258/392 259/393
f 259/393 260/101 257/99
f 260/101 250/100 257/99
f 799/117 811/105 809/104
f 549/153 552/322 551/323
f 1014/394 397/395 395/396
f 150/397 149/118 101/120
f 1000/398 385/399 383/400
f 1012/215 1007/401 20/213
f 1005/45 20/213 1007/401
f 7/29 14/402 20/213
f 19/403 13/404 5/405
f 999/406 997/407 1/261
f 532/276 529/408 517/277
f 1/261 1006/214 999/406
f 459/305 451/243 450/306
f 838/77 837/9 208/373
f 128/295 127/360 79/296
f 277/409 278/410 280/411
f 280/411 281/412 284/192
f 284/192 283/413 282/414
f 282/414 279/415 277/409
f 976/416 975/196 973/195
f 272/417 270/418 269/419
f 269/419 271/420 273/421
f 273/421 275/275 276/422
f 276/422 274/423 272/417
f 602/332 598/152 597/153
f 147/424 146/263 98/265
f 138/397 137/118 89/120
f 208/373 837/9 836/8
f 200/106 845/104 846/42
f 402/425 1018/426 400/427
f 651/238 643/252 644/167
f 564/318 561/315 562/323
f 120/374 119/117 71/290
f 498/238 506/252 505/167
f 909/55 911/54 903/324
f 817/37 816/72 804/156
f 133/373 132/374 84/289
f 513/352 516/334 512/336
f 3/46 1007/401 1012/215
f 666/95 658/160 660/96
f 457/167 449/237 448/96
f 761/428 762/40 714/42
f 283/413 284/192 276/422
f 132/374 131/117 83/290
f 929/240 928/241 920/224
f 603/429 599/333 598/152
f 508/252 507/167 499/239
f 326/358 325/56 317/58
f 994/339 993/340 985/337
f 773/428 774/40 726/42
f 154/356 164/295 116/231
f 346/181 352/183 350/182
f 352/183 356/430 358/184
f 345/179 349/178 351/187
f 349/178 357/185 351/187
f 491/67 490/139 482/346
f 362/191 274/256 276/422
f 276/422 284/192 362/191
f 284/192 281/258 360/190
f 765/7 764/149 716/8
f 1002/386 401/431 399/351
f 270/21 272/432 361/197
f 359/198 280/433 278/19
f 270/21 361/197 278/19
f 682/248 674/324 673/222
f 398/434 1009/51 396/435
f 386/436 1016/437 384/201
f 390/438 1008/439 388/440
f 315/111 314/441 306/112
f 58/35 57/34 55/109
f 392/442 1013/443 390/444
f 426/278 428/445 420/279
f 388/440 1000/398 386/436
f 369/217 370/446 371/210
f 373/53 374/447 367/219
f 428/445 417/448 418/449
f 418/449 419/450 428/445
f 419/450 420/279 428/445
f 420/279 421/451 424/280
f 421/451 422/452 424/280
f 422/452 423/453 424/280
f 424/280 425/454 426/278
f 426/278 427/455 428/445
f 4/92 3/456 261/93
f 407/255 382/457 381/458
f 381/458 416/253 407/255
f 27/44 7/29 1005/45
f 415/459 414/460 413/461
f 413/461 412/462 415/459
f 412/462 411/254 415/459
f 411/254 410/463 407/255
f 410/463 409/464 407/255
f 409/464 408/465 407/255
f 895/466 894/467 893/208
f 893/208 900/468 899/209
f 117/106 118/356 69/107
f 898/207 897/469 895/466
f 897/469 896/470 895/466
f 123/424 122/263 74/265
f 617/300 615/108 616/107
f 628/114 624/148 623/115
f 1018/426 399/351 397/395
f 963/471 964/55 971/247
f 314/441 313/13 305/15
f 433/293 436/170 432/172
f 158/263 157/373 109/264
f 559/309 563/316 562/310
f 1012/215 262/472 261/473
f 995/53 994/339 986/54
f 30/48 32/131 28/49
f 396/435 1001/1 394/474
f 3/46 1012/215 261/473
f 685/66 693/139 694/67
f 790/76 789/7 741/9
f 400/427 1014/394 398/434
f 406/203 1010/331 404/385
f 325/56 332/297 324/57
f 1009/51 395/396 393/52
f 12/22 1003/60 6/70
f 3/46 1005/45 1007/401
f 15/69 17/475 12/22
f 265/73 267/93 263/74
f 404/385 1002/386 402/425
f 938/466 939/467 940/208
f 940/208 933/468 934/209
f 763/103 761/428 713/104
f 935/207 936/469 938/466
f 936/469 937/470 938/466
f 394/474 1017/3 392/442
f 16/31 8/30 11/24
f 278/19 277/294 269/20
f 26/43 4/61 1011/47
f 522/272 518/282 519/284
f 163/360 162/361 114/362
f 912/337 913/303 905/304
f 993/340 992/446 984/303
f 129/106 130/356 81/107
f 944/240 945/241 953/224
f 593/300 591/108 592/107
f 134/263 133/373 85/264
f 330/441 329/13 321/15
f 525/227 528/226 524/230
f 528/270 527/302 523/228
f 527/271 526/328 522/272
f 526/90 525/89 521/269
f 166/360 831/189 830/326
f 236/101 226/100 229/102
f 479/95 487/160 485/96
f 224/101 214/100 217/102
f 249/98 253/102 257/99
f 157/373 156/374 108/289
f 910/471 909/55 902/247
f 779/162 778/76 730/77
f 564/318 563/316 559/309
f 515/476 514/477 509/478
f 793/71 792/260 744/72
f 377/210 378/220 375/343
f 815/163 814/77 802/263
f 1008/439 387/479 385/399
f 916/173 910/471 901/174
f 140/295 139/360 91/296
f 277/294 279/85 271/169
f 155/117 153/106 106/108
f 165/295 832/41 831/189
f 20/213 22/364 21/367
f 312/344 311/194 303/345
f 836/8 835/105 210/117
f 22/132 16/31 18/32
f 149/118 148/156 100/119
f 48/137 46/87 45/33
f 174/117 823/105 821/104
f 43/35 44/34 42/109
f 627/429 623/333 622/152
f 764/149 763/103 715/105
f 336/287 334/147 333/146
f 530/283 531/480 519/284
f 776/149 775/103 727/105
f 801/373 813/9 812/8
f 67/59 65/370 66/4
f 633/318 629/317 632/313
f 848/8 847/105 198/117
f 692/138 700/242 693/139
f 56/110 55/109 38/131
f 366/140 365/200 359/141
f 300/122 298/158 293/143
f 667/10 659/237 653/306
f 582/314 586/312 585/315
f 787/103 785/428 737/104
f 262/134 1/481 2/124
f 456/159 448/96 447/160
f 548/288 547/341 542/289
f 443/291 441/383 437/292
f 785/428 786/40 738/42
f 824/8 823/105 174/117
f 189/295 856/41 855/189
f 599/323 600/148 597/153
f 375/343 378/220 372/347
f 41/110 42/109 32/131
f 297/127 299/299 296/128
f 268/134 266/482 262/135
f 604/114 600/148 599/115
f 594/288 589/290 591/108
f 131/117 129/106 82/108
f 830/38 829/37 168/118
f 435/285 434/266 429/268
f 529/281 530/483 518/282
f 159/424 158/263 110/265
f 626/332 622/152 621/153
f 853/37 852/72 193/156
f 635/310 631/311 630/309
f 547/232 546/166 541/107
f 337/145 338/484 333/146
f 288/121 287/158 285/122
f 137/118 136/156 88/119
f 579/116 578/114 574/148
f 60/33 59/87 57/34
f 313/13 312/344 304/14
f 770/36 769/71 721/37
f 540/25 539/78 537/26
f 19/403 999/406 1006/214
f 766/76 765/7 717/9
f 769/71 768/260 720/72
f 19/403 997/407 999/406
f 762/40 772/188 724/41
f 1001/1 393/52 391/2
f 926/10 932/91 924/11
f 782/36 781/71 733/37
f 9/125 1004/384 10/130
f 380/78 379/25 354/79
f 53/43 54/369 52/44
f 10/130 1011/47 4/61
f 7/29 25/369 26/43
f 35/4 36/370 2/5
f 789/7 788/149 740/8
f 19/39 21/485 15/16
f 812/8 799/117 800/374
f 824/8 174/117 173/374
f 885/486 872/487 873/2
f 801/373 812/8 800/374
f 787/103 737/104 739/105
f 594/288 591/108 593/300
f 162/397 113/120 114/488
f 914/354 907/250 906/245
f 756/260 707/163 708/72
f 121/373 72/289 73/264
f 687/252 696/237 688/167
f 749/428 702/42 701/104
f 771/325 722/326 723/189
f 626/332 621/153 625/151
f 151/360 102/362 103/296
f 549/153 551/323 550/148
f 1010/331 401/431 1002/386
f 31/378 25/489 27/490
f 158/263 109/264 110/265
f 163/360 114/362 115/296
f 636/315 634/322 633/318
f 144/374 95/290 96/289
f 944/240 953/224 952/223
f 299/123 298/158 300/122
f 994/339 985/337 986/54
f 120/374 71/290 72/289
f 1018/426 397/395 1014/394
f 157/373 108/289 109/264
f 126/397 77/120 78/488
f 513/352 512/336 511/320
f 761/428 714/42 713/104
f 128/295 79/296 80/231
f 127/360 78/362 79/296
f 998/150 11/24 1004/384
f 132/374 83/290 84/289
f 910/471 902/247 901/174
f 1004/384 8/30 1011/47
f 911/54 904/222 903/324
f 156/374 107/290 108/289
f 150/397 101/120 102/488
f 942/261 951/246 950/262
f 309/56 308/57 301/58
f 154/356 116/231 105/107
f 145/373 96/289 97/264
f 138/397 89/120 90/488
f 757/71 708/72 709/37
f 329/13 320/14 321/15
f 139/360 90/362 91/296
f 433/293 432/172 431/267
f 925/97 917/12 918/249
f 928/241 919/248 920/224
f 564/318 562/323 563/322
f 838/77 208/373 207/263
f 196/373 848/8 197/374
f 202/360 842/326 203/361
f 799/117 809/104 797/106
f 854/38 192/118 191/397
f 797/106 810/42 798/356
f 817/37 804/156 805/118
f 815/163 802/263 803/424
f 189/295 846/42 856/41
f 801/373 814/77 813/9
f 200/106 846/42 199/356
f 878/431 891/334 890/491
f 892/492 879/330 880/493
f 887/319 874/52 875/396
f 869/400 892/492 880/493
f 873/2 886/494 885/486
f 870/399 881/476 869/400
f 872/495 883/477 871/479
f 868/119 186/201 858/203
f 878/431 889/352 877/351
f 177/425 867/120 857/385
f 877/351 888/353 876/395
f 193/156 851/163 194/424
f 871/479 882/496 870/399
f 176/106 822/42 175/356
f 829/37 169/156 168/118
f 172/373 824/8 173/374
f 169/156 827/163 170/424
f 851/163 195/263 194/424
f 841/37 205/156 204/118
f 808/295 819/189 807/360
f 205/156 839/163 206/424
f 171/263 825/9 172/373
f 827/163 171/263 170/424
f 212/106 834/42 211/356
f 818/38 805/118 806/397
f 201/295 843/189 202/360
f 195/263 849/9 196/373
f 208/373 836/8 209/374
f 166/360 830/326 167/361
f 836/8 210/117 209/374
f 839/163 207/263 206/424
f 198/117 845/104 200/106
f 807/360 818/326 806/361
f 835/105 212/106 210/117
f 810/42 808/295 798/356
f 165/295 831/189 166/360
f 848/8 198/117 197/374
f 201/295 834/42 844/41
f 830/38 168/118 167/397
f 842/38 204/118 203/397
f 804/156 815/163 803/424
f 190/360 854/326 191/361
f 853/37 193/156 192/118
f 822/42 165/295 175/356
f 189/295 855/189 190/360
f 1017/3 389/487 1013/443
f 142/356 104/231 93/107
f 64/338 61/137 62/86
f 619/341 613/290 618/288
f 996/447 987/55 988/471
f 569/300 568/290 567/108
f 991/217 982/350 983/354
f 136/156 87/157 88/119
f 267/93 264/497 263/498
f 125/118 76/119 77/120
f 774/40 736/41 726/42
f 124/156 75/157 76/119
f 159/424 110/265 111/157
f 547/232 541/107 542/231
f 460/66 451/67 459/68
f 160/156 111/157 112/119
f 143/117 94/108 95/290
f 947/10 949/11 956/12
f 441/383 444/175 442/257
f 23/371 18/23 17/355
f 780/260 731/163 732/72
f 340/363 336/287 335/234
f 959/354 966/250 967/245
f 764/149 715/105 716/8
f 456/159 447/160 455/161
f 458/252 449/237 457/167
f 618/288 615/108 617/300
f 45/33 44/34 43/35
f 993/340 984/303 985/337
f 627/429 622/152 626/332
f 310/358 301/58 302/359
f 134/263 85/264 86/265
f 776/149 727/105 728/8
f 691/165 700/242 692/138
f 1008/439 385/399 1000/398
f 779/162 730/77 731/163
f 617/300 616/107 620/166
f 330/441 321/15 322/112
f 155/117 106/108 107/290
f 262/134 2/124 264/126
f 963/471 971/247 972/174
f 326/358 317/58 318/359
f 314/441 305/15 306/112
f 773/428 726/42 725/104
f 1002/386 399/351 1018/426
f 522/272 519/284 523/273
f 535/410 533/368 534/88
f 916/173 901/174 908/155
f 929/240 920/224 921/223
f 263/94 9/125 10/130
f 454/165 445/242 453/138
f 603/429 598/152 602/332
f 930/346 921/223 922/246
f 123/424 74/265 75/157
f 765/7 716/8 717/9
f 912/337 905/304 904/222
f 785/428 738/42 737/104
f 1000/398 383/400 1016/437
f 328/344 319/345 320/14
f 976/416 973/195 974/499
f 291/129 287/14 288/359
f 781/71 732/72 733/37
f 1014/394 395/396 1009/51
f 147/424 98/265 99/157
f 515/476 509/478 510/335
f 130/356 92/231 81/107
f 327/194 318/359 319/345
f 118/356 80/231 69/107
f 602/332 597/153 601/151
f 775/103 725/104 727/105
f 164/295 115/296 116/231
f 135/424 86/265 87/157
f 625/151 624/148 628/114
f 348/416 342/500 346/180
f 50/501 29/379 31/378
f 152/295 103/296 104/231
f 990/502 981/173 982/154
f 601/151 600/148 604/114
f 909/55 903/324 902/247
f 311/194 302/359 303/345
f 67/59 66/4 68/221
f 133/373 84/289 85/264
f 612/315 610/322 609/318
f 948/97 956/12 955/249
f 979/185 978/182 980/184
f 927/95 918/249 919/248
f 332/297 323/298 324/57
f 553/151 552/152 549/153
f 366/140 363/216 365/200
f 978/182 975/196 976/416
f 760/188 711/189 712/41
f 20/213 21/367 19/403
f 21/503 17/475 15/69
f 571/232 565/107 566/231
f 459/305 450/306 458/252
f 524/230 517/277 521/269
f 992/446 983/354 984/303
f 457/167 448/96 456/159
f 43/35 42/109 41/110
f 588/318 586/323 587/322
f 283/413 276/422 275/275
f 131/117 82/108 83/290
f 946/95 955/249 954/248
f 572/288 566/289 568/290
f 772/188 723/189 724/41
f 750/40 712/41 702/42
f 989/504 988/471 981/173
f 767/162 718/77 719/163
f 620/166 614/231 619/232
f 269/419 276/422 272/417
f 758/36 709/37 710/38
f 1013/505 387/479 1008/439
f 943/346 952/223 951/246
f 752/149 703/105 704/8
f 795/325 746/326 747/189
f 580/332 575/333 576/152
f 339/506 334/147 336/287
f 280/411 282/414 277/409
f 768/260 719/163 720/72
f 962/54 969/222 970/324
f 960/303 967/245 968/304
f 266/482 261/507 262/508
f 755/162 706/77 707/163
f 141/106 93/107 94/108
f 945/241 954/248 953/224
f 958/154 965/155 966/64
f 783/325 734/326 735/189
f 64/338 37/378 63/501
f 453/138 452/139 460/66
f 1016/437 405/493 1015/202
f 37/378 35/489 33/490
f 161/118 112/119 113/120
f 751/103 701/104 703/105
f 290/144 286/342 285/509
f 268/134 265/73 266/482
f 888/353 875/396 876/395
f 182/442 860/510 861/511
f 179/434 865/512 178/427
f 865/512 177/425 178/427
f 184/440 860/289 183/438
f 181/474 861/511 862/513
f 186/201 187/265 185/436
f 862/513 180/435 181/474
f 633/318 630/309 629/317
f 180/435 864/514 179/434
f 858/203 867/120 868/119
f 185/436 859/264 184/440
f 664/240 663/346 655/139
f 463/248 471/324 472/222
f 957/173 963/471 972/174
f 670/250 678/262 679/246
f 19/403 5/405 997/407
f 458/252 450/306 449/237
f 601/151 604/114 603/288
f 588/318 587/316 583/309
f 771/325 770/515 722/326
f 514/319 513/352 511/320
f 612/315 608/313 607/314
f 892/492 891/334 879/330
f 10/130 1004/384 1011/47
f 151/360 150/361 102/362
f 913/303 914/354 906/245
f 316/297 315/176 307/298
f 759/325 758/515 710/326
f 190/360 855/189 854/326
f 812/8 811/105 799/117
f 583/309 587/316 586/310
f 460/66 452/139 451/67
f 610/316 606/309 605/317
f 872/495 884/516 883/477
f 400/427 1018/426 1014/394
f 990/502 989/504 981/173
f 298/14 297/359 294/129
f 396/435 1009/51 1001/1
f 777/7 776/149 728/8
f 555/288 556/300 553/151
f 119/117 117/106 70/108
f 571/232 570/166 565/107
f 774/40 784/188 736/41
f 531/307 530/483 529/281
f 193/156 852/72 851/163
f 289/128 291/129 288/127
f 195/263 850/77 849/9
f 756/260 755/162 707/163
f 372/339 378/220 377/210
f 536/301 535/517 527/302
f 786/40 796/188 748/41
f 948/97 947/10 956/12
f 205/156 840/72 839/163
f 979/185 977/178 978/182
f 686/305 694/243 695/306
f 778/76 777/7 729/9
f 841/37 840/72 205/156
f 299/342 300/509 295/144
f 545/300 548/288 544/290
f 609/318 605/317 608/313
f 398/434 1014/394 1009/51
f 125/118 124/156 76/119
f 839/163 838/77 207/263
f 931/261 930/346 922/246
f 470/247 471/324 463/248
f 669/155 676/174 684/12
f 282/274 283/413 275/275
f 478/10 477/97 485/96
f 455/161 447/160 446/164
f 649/238 641/252 642/167
f 754/76 753/7 705/9
f 523/228 519/49 520/229
f 792/260 791/162 743/163
f 596/166 592/107 590/231
f 915/154 916/173 908/155
f 441/193 442/257 438/194
f 689/159 697/96 698/160
f 279/85 282/274 273/168
f 365/200 363/216 360/190
f 690/161 698/160 699/164
f 331/111 330/441 322/112
f 546/166 545/300 543/108
f 998/150 9/125 2/5
f 148/156 147/424 99/157
f 40/48 38/131 34/49
f 363/216 364/199 362/191
f 376/204 375/343 367/205
f 153/106 154/356 105/107
f 637/252 638/167 646/239
f 476/155 469/174 461/12
f 533/225 536/518 528/226
f 898/207 895/466 893/208
f 416/253 415/459 411/254
f 794/36 793/71 745/37
f 377/210 376/204 368/211
f 555/116 554/114 550/148
f 291/129 289/128 290/144
f 33/221 5/17 6/70
f 481/240 482/346 490/139
f 442/257 444/175 440/56
f 361/142 272/519 274/256
f 248/101 238/100 241/102
f 465/223 473/304 474/245
f 661/91 653/306 654/243
f 20/213 19/403 1006/214
f 519/49 531/520 532/251
f 494/238 502/252 501/167
f 472/222 473/304 465/223
f 20/235 14/357 16/28
f 122/263 121/373 73/264
f 475/250 467/262 466/246
f 673/222 672/304 680/223
f 479/95 480/241 488/164
f 461/12 469/174 470/247
f 935/207 938/466 940/208
f 481/240 489/242 488/164
f 434/266 433/293 431/267
f 338/233 340/430 335/234
f 359/141 360/190 281/258
f 388/440 1008/439 1000/398
f 808/295 820/41 819/189
f 156/374 155/117 107/290
f 162/397 161/118 113/120
f 628/114 627/288 626/300
f 580/300 577/151 578/114
f 1015/202 405/493 403/330
f 124/156 123/424 75/157
f 1010/331 403/330 401/431
f 171/263 826/77 825/9
f 309/56 316/297 308/57
f 595/341 590/289 589/290
f 535/327 534/521 526/328
f 189/295 199/356 846/42
f 556/332 555/429 551/333
f 160/156 159/424 111/157
f 355/186 356/233 352/329
f 829/37 828/72 169/156
f 925/97 926/10 917/12
f 366/140 364/199 363/216
f 932/91 931/244 923/65
f 478/10 486/237 492/306
f 392/442 1017/3 1013/443
f 585/315 588/318 584/317
f 569/300 572/288 568/290
f 810/42 820/41 808/295
f 842/38 841/37 204/118
f 136/156 135/424 87/157
f 172/373 825/9 824/8
f 561/315 564/318 560/317
f 1012/215 1006/214 262/472
f 406/203 1015/202 1010/331
f 619/341 614/289 613/290
f 964/55 962/54 970/324
f 49/338 50/501 48/137
f 201/295 844/41 843/189
f 684/12 676/174 675/247
f 570/166 569/300 567/108
f 198/117 847/105 845/104
f 196/373 849/9 848/8
f 636/315 632/313 631/314
f 31/378 29/379 25/489
f 578/114 577/151 573/153
f 835/105 833/104 212/106
f 996/447 995/53 987/55
f 636/315 635/323 634/322
f 126/397 125/118 77/120
f 576/322 575/323 574/148
f 176/106 821/104 822/42
f 127/360 126/361 78/362
f 144/374 143/117 95/290
f 516/334 515/476 510/335
f 146/263 145/373 97/264
f 871/479 883/477 882/496
f 869/400 881/476 892/492
f 267/93 268/134 264/497
f 870/399 882/496 881/476
f 978/182 977/178 975/196
f 143/117 141/106 94/108
f 402/425 1002/386 1018/426
f 612/315 611/323 610/322
f 177/425 866/488 867/120
f 169/156 828/72 827/163
f 868/119 188/157 186/201
f 299/123 297/121 298/158
f 386/436 1000/398 1016/437
f 554/114 553/151 549/153
f 618/288 613/290 615/108
f 885/486 884/522 872/487
f 152/295 151/360 103/296
f 121/373 120/374 72/289
f 624/148 621/153 622/322
f 822/42 832/41 165/295
f 263/94 264/126 9/125
f 1/261 262/472 1006/214
f 927/95 925/97 918/249
f 390/438 1013/505 1008/439
f 1017/3 391/2 389/487
f 12/22 998/150 1003/60
f 521/269 517/277 518/282
f 992/446 991/217 983/354
f 562/312 561/315 557/313
f 664/240 656/242 657/164
f 998/150 12/22 11/24
f 454/165 446/164 445/242
f 760/188 759/325 711/189
f 801/373 802/263 814/77
f 21/503 23/523 17/475
f 667/10 668/97 660/96
f 142/356 152/295 104/231
f 64/338 63/501 61/137
f 959/354 958/350 966/250
f 680/223 672/304 671/245
f 588/318 585/315 586/323
f 202/360 843/189 842/326
f 535/410 536/524 533/368
f 45/33 46/87 44/34
f 611/310 607/311 606/309
f 818/38 817/37 805/118
f 201/295 211/356 834/42
f 878/431 879/330 891/334
f 887/319 886/494 874/52
f 961/337 960/303 968/304
f 310/358 309/56 301/58
f 348/416 344/499 342/500
f 475/64 476/155 468/11
f 878/431 890/491 889/352
f 164/295 163/360 115/296
f 946/95 948/97 955/249
f 775/103 773/428 725/104
f 675/247 674/324 682/248
f 484/91 492/306 491/243
f 947/10 941/91 949/11
f 572/288 571/341 566/289
f 135/424 134/263 86/265
f 691/165 699/164 700/242
f 930/346 929/240 921/223
f 291/129 292/143 287/14
f 772/188 771/325 723/189
f 687/252 695/306 696/237
f 332/297 331/176 323/298
f 942/261 943/346 951/246
f 749/428 750/40 702/42
f 9/125 998/150 1004/384
f 873/2 874/52 886/494
f 851/163 850/77 195/263
f 625/151 621/153 624/148
f 394/474 1001/1 1017/3
f 807/360 819/189 818/326
f 496/238 504/252 503/167
f 780/260 779/162 731/163
f 601/151 597/153 600/148
f 50/501 49/338 29/379
f 311/194 310/358 302/359
f 854/38 853/37 192/118
f 791/162 790/76 742/77
f 436/170 435/292 430/171
f 345/177 341/525 343/195
f 577/151 580/332 576/152
f 444/175 443/526 439/176
f 364/199 366/140 361/142
f 688/167 696/237 697/96
f 296/128 295/144 293/143
f 788/149 787/103 739/105
f 292/143 290/144 285/122
f 796/188 795/325 747/189
f 384/201 1016/437 1015/202
f 784/188 735/189 736/41
f 750/40 760/188 712/41
f 989/504 996/447 988/471
f 767/162 766/76 718/77
f 620/166 616/107 614/231
f 269/419 273/421 276/422
f 758/36 757/71 709/37
f 1013/505 389/495 387/479
f 943/346 944/240 952/223
f 752/149 751/103 703/105
f 795/325 794/515 746/326
f 580/332 579/429 575/333
f 339/506 337/527 334/147
f 280/411 284/192 282/414
f 768/260 767/162 719/163
f 962/54 961/337 969/222
f 960/303 959/354 967/245
f 266/482 265/73 261/507
f 755/162 754/76 706/77
f 141/106 142/356 93/107
f 945/241 946/95 954/248
f 958/154 957/173 965/155
f 783/325 782/515 734/326
f 64/338 39/379 37/378
f 453/138 445/242 452/139
f 1016/437 383/400 405/493
f 37/378 39/379 35/489
f 161/118 160/156 112/119
f 751/103 749/428 701/104
f 290/144 289/128 286/342
f 268/134 267/93 265/73
f 888/353 887/319 875/396
f 182/442 183/444 860/510
f 179/434 864/514 865/512
f 865/512 866/488 177/425
f 184/440 859/264 860/289
f 181/474 182/442 861/511
f 186/201 188/157 187/265
f 862/513 863/528 180/435
f 633/318 634/316 630/309
f 180/435 863/528 864/514
f 858/203 857/385 867/120
f 185/436 187/265 859/264
f 784/188 783/325 735/189
