o Carriage
v 0.25 6.875 -0.4375
v -0.25 6.875 -0.4375
v 0.25 6.875 -0.3125
v -0.25 6.875 -0.3125
v 0.25 6.125 -0.4375
v -0.25 6.125 -0.4375
v 0.25 6.125 -0.3125
v -0.25 6.125 -0.3125
v 0.25 6.125 0.5
v -0.25 6.125 0.5
v -0.5 6.125 0.25
v -0.5 6.125 -0.25
v -0.25 6.125 -0.5
v 0.25 6.125 -0.5
v 0.5 6.125 -0.25
v 0.5 6.125 0.25
v -0.5 6 -0.25
v 0.5 6 -0.25
v -0.5 6 0.25
v 0.5 6 0.25
v 0.25 6 -0.5
v 0.25 6 0.5
v -0.25 6 -0.5
v -0.25 6 0.5
v -0.25 6.875 0.5
v -0.25 6.875 -0.5
v 0.25 6.875 0.5
v 0.25 6.875 -0.5
v 0.5 6.875 0.25
v -0.5 6.875 0.25
v 0.5 6.875 -0.25
v -0.5 6.875 -0.25
v 0.5 7 0.25
v 0.5 7 -0.25
v 0.25 7 -0.5
v -0.25 7 -0.5
v -0.5 7 -0.25
v -0.5 7 0.25
v -0.25 7 0.5
v 0.25 7 0.5
v -0.25 6.125 0.4375
v 0.25 6.125 0.4375
v -0.25 6.125 0.3125
v 0.25 6.125 0.3125
v -0.25 6.875 0.4375
v 0.25 6.875 0.4375
v -0.25 6.875 0.3125
v 0.25 6.875 0.3125
v 0 6.3125 0.3125
v -0.0312 6.3041 0.3125
v -0.0541 6.2812 0.3125
v -0.0625 6.25 0.3125
v -0.0541 6.2188 0.3125
v -0.0312 6.1959 0.3125
v 0 6.1875 0.3125
v 0.0312 6.1959 0.3125
v 0.0541 6.2188 0.3125
v 0.0625 6.25 0.3125
v 0.0541 6.2812 0.3125
v 0.0312 6.3041 0.3125
v 0 6.3125 0.25
v -0.0312 6.3041 0.25
v -0.0541 6.2812 0.25
v -0.0625 6.25 0.25
v -0.0541 6.2188 0.25
v -0.0312 6.1959 0.25
v 0 6.1875 0.25
v 0.0312 6.1959 0.25
v 0.0541 6.2188 0.25
v 0.0625 6.25 0.25
v 0.0541 6.2812 0.25
v 0.0312 6.3041 0.25
v 0.1875 6.3125 0.3125
v 0.1562 6.3041 0.3125
v 0.1334 6.2812 0.3125
v 0.125 6.25 0.3125
v 0.1334 6.2188 0.3125
v 0.1562 6.1959 0.3125
v 0.1875 6.1875 0.3125
v 0.2188 6.1959 0.3125
v 0.2416 6.2188 0.3125
v 0.25 6.25 0.3125
v 0.2416 6.2812 0.3125
v 0.2188 6.3041 0.3125
v 0.1875 6.3125 0.25
v 0.1562 6.3041 0.25
v 0.1334 6.2812 0.25
v 0.125 6.25 0.25
v 0.1334 6.2188 0.25
v 0.1562 6.1959 0.25
v 0.1875 6.1875 0.25
v 0.2188 6.1959 0.25
v 0.2416 6.2188 0.25
v 0.25 6.25 0.25
v 0.2416 6.2812 0.25
v 0.2188 6.3041 0.25
v -0.1875 6.3125 0.3125
v -0.2188 6.3041 0.3125
v -0.2416 6.2812 0.3125
v -0.25 6.25 0.3125
v -0.2416 6.2188 0.3125
v -0.2188 6.1959 0.3125
v -0.1875 6.1875 0.3125
v -0.1562 6.1959 0.3125
v -0.1334 6.2188 0.3125
v -0.125 6.25 0.3125
v -0.1334 6.2812 0.3125
v -0.1562 6.3041 0.3125
v -0.1875 6.3125 0.25
v -0.2188 6.3041 0.25
v -0.2416 6.2812 0.25
v -0.25 6.25 0.25
v -0.2416 6.2188 0.25
v -0.2188 6.1959 0.25
v -0.1875 6.1875 0.25
v -0.1562 6.1959 0.25
v -0.1334 6.2188 0.25
v -0.125 6.25 0.25
v -0.1334 6.2812 0.25
v -0.1562 6.3041 0.25
v 0 6.8125 0.3125
v -0.0312 6.8041 0.3125
v -0.0541 6.7812 0.3125
v -0.0625 6.75 0.3125
v -0.0541 6.7188 0.3125
v -0.0312 6.6959 0.3125
v 0 6.6875 0.3125
v 0.0312 6.6959 0.3125
v 0.0541 6.7188 0.3125
v 0.0625 6.75 0.3125
v 0.0541 6.7812 0.3125
v 0.0312 6.8041 0.3125
v 0 6.8125 0.25
v -0.0312 6.8041 0.25
v -0.0541 6.7812 0.25
v -0.0625 6.75 0.25
v -0.0541 6.7188 0.25
v -0.0312 6.6959 0.25
v 0 6.6875 0.25
v 0.0312 6.6959 0.25
v 0.0541 6.7188 0.25
v 0.0625 6.75 0.25
v 0.0541 6.7812 0.25
v 0.0312 6.8041 0.25
v 0.1875 6.8125 0.3125
v 0.1562 6.8041 0.3125
v 0.1334 6.7812 0.3125
v 0.125 6.75 0.3125
v 0.1334 6.7188 0.3125
v 0.1562 6.6959 0.3125
v 0.1875 6.6875 0.3125
v 0.2188 6.6959 0.3125
v 0.2416 6.7188 0.3125
v 0.25 6.75 0.3125
v 0.2416 6.7812 0.3125
v 0.2188 6.8041 0.3125
v 0.1875 6.8125 0.25
v 0.1562 6.8041 0.25
v 0.1334 6.7812 0.25
v 0.125 6.75 0.25
v 0.1334 6.7188 0.25
v 0.1562 6.6959 0.25
v 0.1875 6.6875 0.25
v 0.2188 6.6959 0.25
v 0.2416 6.7188 0.25
v 0.25 6.75 0.25
v 0.2416 6.7812 0.25
v 0.2188 6.8041 0.25
v -0.1875 6.8125 0.3125
v -0.2188 6.8041 0.3125
v -0.2416 6.7812 0.3125
v -0.25 6.75 0.3125
v -0.2416 6.7188 0.3125
v -0.2188 6.6959 0.3125
v -0.1875 6.6875 0.3125
v -0.1562 6.6959 0.3125
v -0.1334 6.7188 0.3125
v -0.125 6.75 0.3125
v -0.1334 6.7812 0.3125
v -0.1562 6.8041 0.3125
v -0.1875 6.8125 0.25
v -0.2188 6.8041 0.25
v -0.2416 6.7812 0.25
v -0.25 6.75 0.25
v -0.2416 6.7188 0.25
v -0.2188 6.6959 0.25
v -0.1875 6.6875 0.25
v -0.1562 6.6959 0.25
v -0.1334 6.7188 0.25
v -0.125 6.75 0.25
v -0.1334 6.7812 0.25
v -0.1562 6.8041 0.25
v 0 6.3125 -0.25
v -0.0312 6.3041 -0.25
v -0.0541 6.2812 -0.25
v -0.0625 6.25 -0.25
v -0.0541 6.2188 -0.25
v -0.0312 6.1959 -0.25
v 0 6.1875 -0.25
v 0.0312 6.1959 -0.25
v 0.0541 6.2188 -0.25
v 0.0625 6.25 -0.25
v 0.0541 6.2812 -0.25
v 0.0312 6.3041 -0.25
v 0 6.3125 -0.3125
v -0.0312 6.3041 -0.3125
v -0.0541 6.2812 -0.3125
v -0.0625 6.25 -0.3125
v -0.0541 6.2188 -0.3125
v -0.0312 6.1959 -0.3125
v 0 6.1875 -0.3125
v 0.0312 6.1959 -0.3125
v 0.0541 6.2188 -0.3125
v 0.0625 6.25 -0.3125
v 0.0541 6.2812 -0.3125
v 0.0312 6.3041 -0.3125
v 0.1875 6.3125 -0.25
v 0.1562 6.3041 -0.25
v 0.1334 6.2812 -0.25
v 0.125 6.25 -0.25
v 0.1334 6.2188 -0.25
v 0.1562 6.1959 -0.25
v 0.1875 6.1875 -0.25
v 0.2188 6.1959 -0.25
v 0.2416 6.2188 -0.25
v 0.25 6.25 -0.25
v 0.2416 6.2812 -0.25
v 0.2188 6.3041 -0.25
v 0.1875 6.3125 -0.3125
v 0.1562 6.3041 -0.3125
v 0.1334 6.2812 -0.3125
v 0.125 6.25 -0.3125
v 0.1334 6.2188 -0.3125
v 0.1562 6.1959 -0.3125
v 0.1875 6.1875 -0.3125
v 0.2188 6.1959 -0.3125
v 0.2416 6.2188 -0.3125
v 0.25 6.25 -0.3125
v 0.2416 6.2812 -0.3125
v 0.2188 6.3041 -0.3125
v -0.1875 6.3125 -0.25
v -0.2188 6.3041 -0.25
v -0.2416 6.2812 -0.25
v -0.25 6.25 -0.25
v -0.2416 6.2188 -0.25
v -0.2188 6.1959 -0.25
v -0.1875 6.1875 -0.25
v -0.1562 6.1959 -0.25
v -0.1334 6.2188 -0.25
v -0.125 6.25 -0.25
v -0.1334 6.2812 -0.25
v -0.1562 6.3041 -0.25
v -0.1875 6.3125 -0.3125
v -0.2188 6.3041 -0.3125
v -0.2416 6.2812 -0.3125
v -0.25 6.25 -0.3125
v -0.2416 6.2188 -0.3125
v -0.2188 6.1959 -0.3125
v -0.1875 6.1875 -0.3125
v -0.1562 6.1959 -0.3125
v -0.1334 6.2188 -0.3125
v -0.125 6.25 -0.3125
v -0.1334 6.2812 -0.3125
v -0.1562 6.3041 -0.3125
v 0 6.8125 -0.25
v -0.0312 6.8041 -0.25
v -0.0541 6.7812 -0.25
v -0.0625 6.75 -0.25
v -0.0541 6.7188 -0.25
v -0.0312 6.6959 -0.25
v 0 6.6875 -0.25
v 0.0312 6.6959 -0.25
v 0.0541 6.7188 -0.25
v 0.0625 6.75 -0.25
v 0.0541 6.7812 -0.25
v 0.0312 6.8041 -0.25
v 0 6.8125 -0.3125
v -0.0312 6.8041 -0.3125
v -0.0541 6.7812 -0.3125
v -0.0625 6.75 -0.3125
v -0.0541 6.7188 -0.3125
v -0.0312 6.6959 -0.3125
v 0 6.6875 -0.3125
v 0.0312 6.6959 -0.3125
v 0.0541 6.7188 -0.3125
v 0.0625 6.75 -0.3125
v 0.0541 6.7812 -0.3125
v 0.0312 6.8041 -0.3125
v 0.1875 6.8125 -0.25
v 0.1562 6.8041 -0.25
v 0.1334 6.7812 -0.25
v 0.125 6.75 -0.25
v 0.1334 6.7188 -0.25
v 0.1562 6.6959 -0.25
v 0.1875 6.6875 -0.25
v 0.2188 6.6959 -0.25
v 0.2416 6.7188 -0.25
v 0.25 6.75 -0.25
v 0.2416 6.7812 -0.25
v 0.2188 6.8041 -0.25
v 0.1875 6.8125 -0.3125
v 0.1562 6.8041 -0.3125
v 0.1334 6.7812 -0.3125
v 0.125 6.75 -0.3125
v 0.1334 6.7188 -0.3125
v 0.1562 6.6959 -0.3125
v 0.1875 6.6875 -0.3125
v 0.2188 6.6959 -0.3125
v 0.2416 6.7188 -0.3125
v 0.25 6.75 -0.3125
v 0.2416 6.7812 -0.3125
v 0.2188 6.8041 -0.3125
v -0.1875 6.8125 -0.25
v -0.2188 6.8041 -0.25
v -0.2416 6.7812 -0.25
v -0.25 6.75 -0.25
v -0.2416 6.7188 -0.25
v -0.2188 6.6959 -0.25
v -0.1875 6.6875 -0.25
v -0.1562 6.6959 -0.25
v -0.1334 6.7188 -0.25
v -0.125 6.75 -0.25
v -0.1334 6.7812 -0.25
v -0.1562 6.8041 -0.25
v -0.1875 6.8125 -0.3125
v -0.2188 6.8041 -0.3125
v -0.2416 6.7812 -0.3125
v -0.25 6.75 -0.3125
v -0.2416 6.7188 -0.3125
v -0.2188 6.6959 -0.3125
v -0.1875 6.6875 -0.3125
v -0.1562 6.6959 -0.3125
v -0.1334 6.7188 -0.3125
v -0.125 6.75 -0.3125
v -0.1334 6.7812 -0.3125
v -0.1562 6.8041 -0.3125
v 0 7 -0.375
v -0.1875 7 -0.3248
v -0.3248 7 -0.1875
v -0.375 7 -0
v -0.3248 7 0.1875
v -0.1875 7 0.3248
v 0 7 0.375
v 0.1875 7 0.3248
v 0.3248 7 0.1875
v 0.375 7 -0
v 0.3248 7 -0.1875
v 0.1875 7 -0.3248
v 0 7.25 -0.375
v -0.1875 7.25 -0.3248
v -0.3248 7.25 -0.1875
v -0.375 7.25 -0
v -0.3248 7.25 0.1875
v -0.1875 7.25 0.3248
v 0 7.25 0.375
v 0.1875 7.25 0.3248
v 0.3248 7.25 0.1875
v 0.375 7.25 -0
v 0.3248 7.25 -0.1875
v 0.1875 7.25 -0.3248
v 0 7.5 -0.1875
v -0.0938 7.5 -0.1624
v -0.1624 7.5 -0.0938
v -0.1875 7.5 -0
v -0.1624 7.5 0.0937
v -0.0938 7.5 0.1624
v 0 7.5 0.1875
v 0.0938 7.5 0.1624
v 0.1624 7.5 0.0937
v 0.1875 7.5 -0
v 0.1624 7.5 -0.0938
v 0.0938 7.5 -0.1624
v 0 8 -0.1875
v -0.0938 8 -0.1624
v -0.1624 8 -0.0938
v -0.1875 8 -0
v -0.1624 8 0.0937
v -0.0938 8 0.1624
v 0 8 0.1875
v 0.0938 8 0.1624
v 0.1624 8 0.0937
v 0.1875 8 -0
v 0.1624 8 -0.0938
v 0.0938 8 -0.1624
v 0 7.25 -0.375
v -0.1875 7.25 -0.3248
v -0.3248 7.25 -0.1875
v -0.375 7.25 -0
v -0.3248 7.25 0.1875
v -0.1875 7.25 0.3248
v 0 7.25 0.375
v 0.1875 7.25 0.3248
v 0.3248 7.25 0.1875
v 0.375 7.25 -0
v 0.3248 7.25 -0.1875
v 0.1875 7.25 -0.3248
v 0 7.5 -0.1875
v -0.0938 7.5 -0.1624
v -0.1624 7.5 -0.0938
v -0.1875 7.5 -0
v -0.1624 7.5 0.0937
v -0.0938 7.5 0.1624
v 0 7.5 0.1875
v 0.0938 7.5 0.1624
v 0.1624 7.5 0.0937
v 0.1875 7.5 -0
v 0.1624 7.5 -0.0938
v 0.0938 7.5 -0.1624
v 0 8 -0.1875
v -0.0938 8 -0.1624
v -0.1624 8 -0.0938
v -0.1875 8 -0
v -0.1624 8 0.0937
v -0.0938 8 0.1624
v 0 8 0.1875
v 0.0938 8 0.1624
v 0.1624 8 0.0937
v 0.1875 8 -0
v 0.1624 8 -0.0938
v 0.0938 8 -0.1624
vt 0.8125 0.7468
vt 0.7625 0.7215
vt 0.8125 0.7215
vt 0.5625 0.6076
vt 0.5687 0.6203
vt 0.5625 0.6203
vt 0.5687 0.6456
vt 0.5625 0.6329
vt 0.5687 0.6329
vt 0.5687 0.6076
vt 0.5625 0.5949
vt 0.5687 0.5949
vt 0.9125 0.7468
vt 0.8875 0.7215
vt 0.9125 0.7215
vt 0.5687 0.5443
vt 0.5625 0.5316
vt 0.5687 0.5316
vt 0.5625 0.5823
vt 0.5687 0.5823
vt 0.9625 0.7468
vt 0.9625 0.7215
vt 0.5625 0.519
vt 0.5687 0.519
vt 0.5687 0.6582
vt 0.5625 0.6456
vt 0.7125 0.6203
vt 0.7 0.519
vt 0.7125 0.519
vt 0.5625 0.5063
vt 0.5687 0.5063
vt 0.5687 0.5696
vt 0.5625 0.557
vt 0.5687 0.557
vt 0.5625 0.5696
vt 0.5625 0.5443
vt 0.7625 0.7468
vt 0.7875 0.6203
vt 0.775 0.6203
vt 0.775 0.519
vt 0.675 0.8734
vt 0.625 0.8734
vt 0.625 0.7215
vt 0.8875 0.7975
vt 0.9875 0.7975
vt 0.9875 0.8987
vt 0.9625 0.9494
vt 0.9125 0.9494
vt 0.8875 0.8987
vt 0.8125 0.4557
vt 0.7937 0.4557
vt 0.7937 0.4051
vt 0.5625 0.6582
vt 0.7875 0.519
vt 0.8875 0.6709
vt 0.8875 0.5696
vt 0.9125 0.519
vt 0.9625 0.519
vt 0.9875 0.5696
vt 0.9875 0.6709
vt 0.8375 0.7468
vt 0.7375 0.7468
vt 0.7375 0.7215
vt 0.7312 0.6203
vt 0.7188 0.6203
vt 0.7188 0.519
vt 0.8737 0.4804
vt 0.8638 0.4804
vt 0.8552 0.4704
vt 0.8503 0.4531
vt 0.8503 0.433
vt 0.8552 0.4157
vt 0.8638 0.4056
vt 0.8737 0.4056
vt 0.8823 0.4157
vt 0.8872 0.433
vt 0.8872 0.4531
vt 0.8823 0.4704
vt 0.775 0.4557
vt 0.7562 0.4051
vt 0.775 0.4051
vt 0.7312 0.519
vt 0.7188 0.4557
vt 0.7 0.4051
vt 0.7188 0.4051
vt 0.6125 0.7215
vt 0.8875 0.7468
vt 0.8375 0.7215
vt 0.6125 0.8734
vt 0.5625 0.7215
vt 0.6875 0.7215
vt 0.8125 0.4051
vt 0.8063 0.6203
vt 0.7937 0.519
vt 0.8063 0.519
vt 0.75 0.6203
vt 0.7375 0.519
vt 0.75 0.519
vt 0.9875 0.7468
vt 0.9875 0.7215
vt 0.6875 0.8734
vt 0.675 0.7215
vt 0.7562 0.4557
vt 0.7375 0.4557
vt 0.7375 0.4051
vt 0.7688 0.6203
vt 0.7562 0.519
vt 0.7688 0.519
vt 0.7 0.4557
vt 0.5625 0.8734
vt 0.7 0.6203
vt 0.7375 0.6203
vt 0.6875 0.7468
vt 0.7937 0.6203
vt 0.7562 0.6203
s 1
f 11/1 17/2 19/3
f 215/4 202/5 214/6
f 162/7 149/8 161/9
f 327/10 314/11 326/12
f 16/13 22/14 20/15
f 231/10 218/11 230/12
f 334/16 321/17 333/18
f 302/12 289/19 301/20
f 15/21 20/15 18/22
f 93/18 80/23 92/24
f 238/16 225/17 237/18
f 138/23 125/18 137/17
f 89/9 76/6 88/5
f 67/25 54/26 66/7
f 377/27 364/28 365/29
f 94/16 81/17 93/18
f 164/24 151/30 163/31
f 116/24 103/30 115/31
f 288/32 275/33 287/34
f 117/18 104/23 116/24
f 189/18 176/23 188/24
f 109/20 108/35 120/32
f 281/9 268/6 280/5
f 115/25 102/26 114/7
f 111/10 98/11 110/12
f 134/35 121/20 133/19
f 137/17 124/16 136/36
f 166/16 153/17 165/18
f 11/1 12/37 17/2
f 375/38 374/39 362/40
f 256/5 244/6 243/4
f 2/41 1/42 5/43
f 159/10 147/4 146/11
f 9/44 16/13 15/21
f 15/21 14/45 13/46
f 13/46 12/47 11/48
f 11/48 10/49 9/44
f 209/17 197/18 196/16
f 213/8 201/9 200/7
f 352/50 351/51 339/52
f 187/25 175/53 174/26
f 114/7 102/26 101/8
f 393/51 405/54 404/40
f 229/20 217/19 228/35
f 134/35 122/32 121/20
f 31/22 29/15 27/55
f 27/55 25/56 30/57
f 30/57 32/58 26/59
f 26/59 28/60 31/22
f 258/7 246/26 245/8
f 40/44 33/13 34/21
f 34/21 35/45 36/46
f 36/46 37/47 38/48
f 38/48 39/49 40/44
f 283/25 271/53 270/26
f 235/25 223/53 222/26
f 336/32 324/35 323/33
f 113/9 101/8 100/6
f 71/34 59/33 58/36
f 307/25 295/53 294/26
f 39/61 38/1 30/3
f 12/37 13/62 23/63
f 384/64 383/65 371/66
f 188/24 176/23 175/30
f 18/22 20/15 22/55
f 22/55 24/56 19/57
f 19/57 17/58 23/59
f 23/59 21/60 18/22
f 208/36 196/16 195/34
f 27/55 30/57 26/59
f 190/16 178/36 177/17
f 254/12 242/11 241/19
f 287/34 275/33 274/36
f 409/67 410/68 411/69
f 411/69 412/70 409/67
f 412/70 413/71 409/67
f 413/71 414/72 415/73
f 415/73 416/74 417/75
f 417/75 418/76 419/77
f 419/77 420/78 417/75
f 420/78 409/67 417/75
f 215/4 203/10 202/5
f 157/20 156/35 168/32
f 165/18 152/23 164/24
f 192/32 179/33 191/34
f 110/12 97/19 109/20
f 184/5 171/4 183/10
f 190/16 177/17 189/18
f 168/32 155/33 167/34
f 119/34 106/36 118/16
f 233/9 220/6 232/5
f 136/36 123/34 135/33
f 139/30 126/24 138/23
f 135/33 122/32 134/35
f 258/7 245/8 257/9
f 232/5 219/4 231/10
f 211/30 198/24 210/23
f 286/16 273/17 285/18
f 185/9 172/6 184/5
f 188/24 175/30 187/31
f 160/5 147/4 159/10
f 332/24 319/30 331/31
f 306/7 293/8 305/9
f 285/18 272/23 284/24
f 181/20 180/35 192/32
f 350/79 337/80 338/81
f 210/23 197/18 209/17
f 213/8 200/7 212/26
f 209/17 196/16 208/36
f 216/11 203/10 215/4
f 378/64 365/66 366/82
f 359/83 346/84 347/85
f 282/7 269/8 281/9
f 208/36 195/34 207/33
f 34/21 38/48 40/44
f 240/32 227/33 239/34
f 234/7 221/8 233/9
f 229/20 228/35 240/32
f 22/55 23/59 18/22
f 1/42 7/86 5/43
f 257/9 244/6 256/5
f 264/32 251/33 263/34
f 27/55 26/59 31/22
f 253/20 252/35 264/32
f 259/25 246/26 258/7
f 256/5 243/4 255/10
f 9/87 24/88 22/14
f 254/12 241/19 253/20
f 48/42 42/86 44/43
f 10/61 19/3 24/88
f 283/25 270/26 282/7
f 308/24 295/30 307/31
f 305/9 292/6 304/5
f 40/87 25/88 27/14
f 277/20 276/35 288/32
f 310/16 297/17 309/18
f 307/25 294/26 306/7
f 37/37 26/63 32/2
f 329/9 316/6 328/5
f 333/18 320/23 332/24
f 330/7 317/8 329/9
f 46/89 41/90 42/86
f 304/5 291/4 303/10
f 65/9 52/6 64/5
f 356/79 343/80 344/81
f 36/62 28/91 26/63
f 357/51 344/81 345/52
f 351/51 338/81 339/52
f 358/50 345/52 346/92
f 38/1 32/2 30/3
f 353/83 340/84 341/85
f 382/93 369/94 370/95
f 379/96 366/97 367/98
f 35/99 31/22 28/100
f 62/12 49/19 61/20
f 39/61 30/3 25/88
f 120/32 107/33 119/34
f 212/26 199/25 211/53
f 376/93 363/94 364/95
f 66/7 53/8 65/9
f 143/4 130/5 142/6
f 118/16 105/17 117/18
f 45/101 43/102 41/91
f 13/62 21/91 23/63
f 96/32 83/33 95/34
f 214/6 201/9 213/8
f 207/33 194/32 206/35
f 15/21 11/48 9/44
f 70/16 57/17 69/18
f 140/26 127/25 139/53
f 63/10 50/11 62/12
f 12/37 23/63 17/2
f 112/5 99/4 111/10
f 237/18 224/23 236/24
f 230/12 217/19 229/20
f 236/24 223/30 235/31
f 64/5 51/4 63/10
f 141/8 128/7 140/26
f 47/41 44/43 43/102
f 284/24 271/30 283/31
f 144/11 131/10 143/4
f 260/24 247/30 259/31
f 239/34 226/36 238/16
f 263/34 250/36 262/16
f 92/24 79/30 91/31
f 142/6 129/9 141/8
f 71/34 58/36 70/16
f 391/103 402/97 390/104
f 133/19 132/12 144/11
f 262/16 249/17 261/18
f 255/10 242/11 254/12
f 261/18 248/23 260/24
f 235/25 222/26 234/7
f 34/21 29/15 31/22
f 3/89 8/90 7/86
f 91/25 78/26 90/7
f 278/12 265/19 277/20
f 205/19 204/12 216/11
f 312/32 299/33 311/34
f 86/12 73/19 85/20
f 158/12 145/19 157/20
f 61/20 60/35 72/32
f 14/99 18/22 21/100
f 161/9 148/6 160/5
f 287/34 274/36 286/16
f 280/5 267/4 279/10
f 279/10 266/11 278/12
f 90/7 77/8 89/9
f 159/10 146/11 158/12
f 68/24 55/30 67/31
f 4/101 6/102 8/91
f 2/41 5/43 6/102
f 303/10 290/11 302/12
f 301/20 300/35 312/32
f 325/20 324/35 336/32
f 87/10 74/11 86/12
f 167/34 154/36 166/16
f 85/20 84/35 96/32
f 33/13 27/14 29/15
f 163/25 150/26 162/7
f 326/12 313/19 325/20
f 336/32 323/33 335/34
f 311/34 298/36 310/16
f 309/18 296/23 308/24
f 182/12 169/19 181/20
f 72/32 59/33 71/34
f 352/50 339/52 340/92
f 114/7 101/8 113/9
f 335/34 322/36 334/16
f 328/5 315/4 327/10
f 355/103 342/105 343/80
f 95/34 82/36 94/16
f 183/10 170/11 182/12
f 88/5 75/4 87/10
f 380/106 367/107 368/108
f 186/7 173/8 185/9
f 349/103 348/105 337/80
f 354/104 341/85 342/105
f 360/104 347/85 348/105
f 113/9 100/6 112/5
f 191/34 178/36 190/16
f 69/18 56/23 68/24
f 206/35 193/20 205/19
f 187/25 174/26 186/7
f 375/38 362/40 363/54
f 373/96 372/97 361/98
f 383/27 370/28 371/29
f 381/38 368/40 369/54
f 331/25 318/26 330/7
f 384/64 371/66 372/82
f 396/104 407/66 395/83
f 415/73 409/67 413/71
f 398/108 385/103 386/79
f 385/103 408/97 396/104
f 394/50 405/94 393/51
f 400/95 387/51 388/50
f 393/51 404/40 392/79
f 401/29 388/109 389/83
f 391/103 404/108 403/107
f 399/54 386/79 387/51
f 407/29 394/109 395/83
f 390/104 401/66 389/83
f 325/20 313/19 324/35
f 385/103 397/98 408/97
f 284/24 272/23 271/30
f 46/89 45/110 41/90
f 358/50 357/51 345/52
f 263/34 251/33 250/36
f 183/10 171/4 170/11
f 181/20 169/19 180/35
f 378/64 377/65 365/66
f 10/61 11/1 19/3
f 136/36 124/16 123/34
f 288/32 276/35 275/33
f 281/9 269/8 268/6
f 135/33 123/34 122/32
f 1/42 3/89 7/86
f 349/103 360/104 348/105
f 400/95 399/94 387/51
f 33/13 40/87 27/14
f 205/19 193/20 204/12
f 61/20 49/19 60/35
f 326/12 314/11 313/19
f 383/27 382/111 370/28
f 96/32 84/35 83/33
f 70/16 58/36 57/17
f 142/6 130/5 129/9
f 379/96 378/112 366/97
f 329/9 317/8 316/6
f 330/7 318/26 317/8
f 62/12 50/11 49/19
f 64/5 52/6 51/4
f 331/25 319/53 318/26
f 264/32 252/35 251/33
f 308/24 296/23 295/30
f 282/7 270/26 269/8
f 332/24 320/23 319/30
f 285/18 273/17 272/23
f 34/21 36/46 38/48
f 9/87 10/61 24/88
f 192/32 180/35 179/33
f 184/5 172/6 171/4
f 232/5 220/6 219/4
f 111/10 99/4 98/11
f 94/16 82/36 81/17
f 116/24 104/23 103/30
f 137/17 125/18 124/16
f 233/9 221/8 220/6
f 48/42 46/89 42/86
f 401/29 400/28 388/109
f 360/104 359/83 347/85
f 328/5 316/6 315/4
f 95/34 83/33 82/36
f 191/34 179/33 178/36
f 398/108 397/107 385/103
f 4/101 2/41 6/102
f 301/20 289/19 300/35
f 311/34 299/33 298/36
f 161/9 149/8 148/6
f 3/89 4/110 8/90
f 278/12 266/11 265/19
f 280/5 268/6 267/4
f 85/20 73/19 84/35
f 394/50 406/95 405/94
f 47/41 48/42 44/43
f 391/103 403/98 402/97
f 63/10 51/4 50/11
f 118/16 106/36 105/17
f 13/62 14/113 21/91
f 112/5 100/6 99/4
f 239/34 227/33 226/36
f 36/62 35/113 28/91
f 351/51 350/79 338/81
f 120/32 108/35 107/33
f 304/5 292/6 291/4
f 37/37 36/62 26/63
f 333/18 321/17 320/23
f 65/9 53/8 52/6
f 382/93 381/114 369/94
f 92/24 80/23 79/30
f 391/103 392/79 404/108
f 305/9 293/8 292/6
f 253/20 241/19 252/35
f 22/55 19/57 23/59
f 257/9 245/8 244/6
f 259/25 247/53 246/26
f 40/87 39/61 25/88
f 216/11 204/12 203/10
f 359/83 358/109 346/84
f 240/32 228/35 227/33
f 350/79 349/103 337/80
f 160/5 148/6 147/4
f 306/7 294/26 293/8
f 210/23 198/24 197/18
f 234/7 222/26 221/8
f 277/20 265/19 276/35
f 139/30 127/31 126/24
f 211/30 199/31 198/24
f 168/32 156/35 155/33
f 165/18 153/17 152/23
f 110/12 98/11 97/19
f 119/34 107/33 106/36
f 286/16 274/36 273/17
f 109/20 97/19 108/35
f 115/25 103/53 102/26
f 166/16 154/36 153/17
f 117/18 105/17 104/23
f 377/27 376/111 364/28
f 164/24 152/23 151/30
f 189/18 177/17 176/23
f 157/20 145/19 156/35
f 185/9 173/8 172/6
f 310/16 298/36 297/17
f 396/104 408/82 407/66
f 373/96 384/112 372/97
f 381/38 380/39 368/40
f 415/73 417/75 409/67
f 399/54 398/40 386/79
f 186/7 174/26 173/8
f 354/104 353/83 341/85
f 69/18 57/17 56/23
f 88/5 76/6 75/4
f 335/34 323/33 322/36
f 355/103 354/104 342/105
f 380/106 379/115 367/107
f 206/35 194/32 193/20
f 407/29 406/28 394/109
f 163/25 151/53 150/26
f 309/18 297/17 296/23
f 87/10 75/4 74/11
f 68/24 56/23 55/30
f 303/10 291/4 290/11
f 167/34 155/33 154/36
f 182/12 170/11 169/19
f 158/12 146/11 145/19
f 14/99 15/21 18/22
f 279/10 267/4 266/11
f 312/32 300/35 299/33
f 34/21 33/13 29/15
f 91/25 79/53 78/26
f 86/12 74/11 73/19
f 90/7 78/26 77/8
f 72/32 60/35 59/33
f 390/104 402/82 401/66
f 133/19 121/20 132/12
f 144/11 132/12 131/10
f 236/24 224/23 223/30
f 141/8 129/9 128/7
f 260/24 248/23 247/30
f 262/16 250/36 249/17
f 15/21 13/46 11/48
f 140/26 128/7 127/25
f 237/18 225/17 224/23
f 214/6 202/5 201/9
f 143/4 131/10 130/5
f 45/101 47/41 43/102
f 207/33 195/34 194/32
f 230/12 218/11 217/19
f 255/10 243/4 242/11
f 35/99 34/21 31/22
f 212/26 200/7 199/25
f 38/1 37/37 32/2
f 356/79 355/103 343/80
f 357/51 356/79 344/81
f 353/83 352/109 340/84
f 376/93 375/114 363/94
f 66/7 54/26 53/8
f 261/18 249/17 248/23
f 374/106 373/115 361/107
f 231/10 219/4 218/11
f 162/7 150/26 149/8
f 89/9 77/8 76/6
f 16/13 9/87 22/14
f 327/10 315/4 314/11
f 138/23 126/24 125/18
f 334/16 322/36 321/17
f 238/16 226/36 225/17
f 93/18 81/17 80/23
f 302/12 290/11 289/19
f 67/25 55/53 54/26
f 15/21 16/13 20/15
f 374/106 361/107 362/108
o Girder
v -0.5 6.125 0.3125
v -0.5 6.875 0.3125
v -0.5 6.125 -0.3125
v -0.5 6.875 -0.3125
v 0.5 6.125 0.3125
v 0.5 6.875 0.3125
v 0.5 6.125 -0.3125
v 0.5 6.875 -0.3125
v -0.5 6.1875 -0.3125
v 0.5 6.1875 -0.3125
v -0.5 6.1875 0.3125
v 0.5 6.1875 0.3125
v -0.5 6.8125 0.3125
v 0.5 6.8125 0.3125
v -0.5 6.8125 -0.3125
v 0.5 6.8125 -0.3125
v -0.5 6.1875 0.25
v 0.5 6.1875 0.25
v -0.5 6.8125 0.25
v 0.5 6.8125 0.25
v -0.5 6.1875 -0.25
v 0.5 6.1875 -0.25
v -0.5 6.8125 -0.25
v 0.5 6.8125 -0.25
vt 0.9125 0.2025
vt 0.85 0.4051
vt 0.85 0.2025
vt 0.775 0.2025
vt 0.8375 0.4051
vt 0.775 0.4051
vt 0.7688 0.2025
vt 0.7625 0.4051
vt 0.7625 0.2025
vt 0.9938 0.4051
vt 1 0.2025
vt 1 0.4051
vt 0.7 0.4051
vt 0.8375 0.2025
vt 0.8438 0.4051
vt 0.9875 0.2025
vt 0.9875 0.4051
vt 0.925 0.2025
vt 0.9125 0.4051
vt 0.9187 0.2025
vt 0.8438 0.2025
vt 0.925 0.4051
vt 0.9187 0.4051
vt 0.7688 0.4051
vt 0.9938 0.2025
vt 0.7 0.2025
s 1
f 425/116 423/117 427/118
f 444/119 441/120 443/121
f 436/122 424/123 428/124
f 433/125 426/126 422/127
f 422/128 428/124 424/123
f 442/129 429/130 441/120
f 440/131 433/125 439/132
f 429/130 427/118 423/117
f 439/132 438/133 440/131
f 425/116 421/134 423/117
f 443/121 436/122 444/119
f 432/135 421/134 425/116
f 429/130 430/136 427/118
f 437/137 431/138 432/135
f 443/121 435/139 436/122
f 439/132 437/137 438/133
f 440/131 434/140 433/125
f 442/129 430/136 429/130
f 433/125 434/140 426/126
f 432/135 431/138 421/134
f 422/128 426/141 428/124
f 444/119 442/129 441/120
f 436/122 435/139 424/123
f 437/137 432/135 438/133
o Lift
v -0.4375 4.4375 0.125
v -0.4375 4.5625 0.125
v -0.4375 4.4375 -0.125
v -0.4375 4.5625 -0.125
v 0.4375 4.4375 0.125
v 0.4375 4.5625 0.125
v 0.4375 4.4375 -0.125
v 0.4375 4.5625 -0.125
v 0.4375 4.4375 -0.0625
v 0.4375 4.1875 -0.0625
v 0.4375 4.4375 0.0625
v 0.4375 4.1875 0.0625
v -0.4375 4.4375 -0.0625
v -0.4375 4.1875 -0.0625
v -0.4375 4.4375 0.0625
v -0.4375 4.1875 0.0625
v -0.5625 4.4375 0.125
v -0.5625 4.4375 0.0625
v -0.5625 4.5625 0.125
v -0.5625 4.5625 -0.125
v -0.5625 4.4375 -0.125
v -0.5625 4.4375 -0.0625
v -0.5625 4.1875 -0.0625
v -0.5625 4.1875 0.0625
v 0.5625 4.5625 -0.125
v 0.5625 4.4375 -0.125
v 0.5625 4.4375 0.125
v 0.5625 4.4375 0.0625
v 0.5625 4.5625 0.125
v 0.5625 4.1875 0.0625
v 0.5625 4.4375 -0.0625
v 0.5625 4.1875 -0.0625
vt 0.5938 0.5823
vt 0.5938 0.557
vt 0.6 0.557
vt 0.6 0.5063
vt 0.5875 0.557
vt 0.5875 0.5063
vt 0.5813 0.5823
vt 0.5938 0.6076
vt 0.5813 0.6076
vt 0.6312 0.5823
vt 0.6375 0.6076
vt 0.6312 0.6076
vt 0.6125 0.5063
vt 0.6 0.481
vt 0.6125 0.481
vt 0.575 0.5823
vt 0.575 0.6076
vt 0.6125 0.557
vt 0.625 0.5063
vt 0.625 0.557
vt 0.6188 0.6076
vt 0.6188 0.5823
vt 0.6188 0.557
vt 0.6375 0.5823
s 1
f 464/142 465/143 466/144
f 474/145 455/146 456/147
f 465/148 448/149 447/150
f 461/151 459/152 445/153
f 468/154 458/155 460/156
f 466/157 447/150 457/158
f 462/159 460/160 459/161
f 473/142 452/162 450/149
f 472/157 449/150 455/158
f 466/144 468/154 462/159
f 474/145 472/144 455/146
f 464/142 446/162 448/149
f 463/163 445/153 446/162
f 472/144 476/154 475/159
f 463/163 466/144 462/159
f 467/145 457/146 458/147
f 470/151 453/152 451/153
f 471/148 450/149 449/150
f 476/154 456/155 454/156
f 469/163 451/153 452/162
f 473/142 475/159 469/163
f 462/159 461/164 463/163
f 461/151 462/165 459/152
f 466/144 467/145 468/154
f 472/144 474/145 476/154
f 463/163 461/151 445/153
f 469/163 470/151 451/153
f 467/145 466/144 457/146
f 463/163 464/142 466/144
f 476/154 474/145 456/155
f 466/157 465/148 447/150
f 464/142 463/163 446/162
f 475/159 470/164 469/163
f 465/148 464/142 448/149
f 473/142 471/143 472/144
f 462/159 468/154 460/160
f 470/151 475/165 453/152
f 473/142 469/163 452/162
f 468/154 467/145 458/155
f 473/142 472/144 475/159
f 472/157 471/148 449/150
f 471/148 473/142 450/149
f 475/159 476/154 454/160
f 475/159 454/160 453/161
o Main
v -0.5 0.125 1
v 0.5 0.125 1
v 0.375 1.625 0.5625
v -0.375 1.625 0.5625
v 0.375 1.625 0.9375
v -0.5 0.375 1
v 0.5 0.375 1
v -0.375 1.625 0.9375
v 0 5 -0.5
v -0.25 5 -0.433
v -0.433 5 -0.25
v -0.5 5 -0
v -0.433 5 0.25
v -0.25 5 0.433
v 0 5 0.5
v 0.25 5 0.433
v 0.433 5 0.25
v 0.5 5 -0
v 0.433 5 -0.25
v 0.25 5 -0.433
v 0 0.375 -0.5
v -0.25 0.375 -0.433
v -0.433 0.375 -0.25
v -0.5 0.375 -0
v -0.433 0.375 0.25
v -0.25 0.375 0.433
v 0 0.375 0.5
v 0.25 0.375 0.433
v 0.433 0.375 0.25
v 0.5 0.375 -0
v 0.433 0.375 -0.25
v 0.25 0.375 -0.433
v 0.5 0.125 -0.375
v 0.5 0.375 -0.375
v -0.5 0.125 -0.375
v -0.5 0.375 -0.375
v 0.375 0.125 -0.5
v 0.375 0.375 -0.5
v -0.375 0.125 -0.5
v -0.375 0.375 -0.5
v -0.375 0.875 0.9375
v 0.375 0.875 0.9375
v -0.375 1.125 0.5625
v 0.375 1.125 0.5625
v -0.4375 0.375 0.9375
v 0.4375 0.375 0.9375
v 0.4375 1.6875 0.5
v -0.4375 1.6875 0.5
v 0.4375 1.6875 0.9375
v -0.4375 1.6875 0.9375
v 0.4375 0.375 0.5
v -0.4375 0.375 0.5
v 0.25 2.875 -0.433
v 0.433 2.875 -0.25
v 0.125 1.875 -0.4665
v 0.433 2.875 0.25
v 0.25 2.875 0.433
v 0 2.875 0.5
v -0.25 2.875 0.433
v -0.433 2.875 0.25
v 0.4665 1.875 -0.125
v -0.433 2.875 -0.25
v -0.25 2.875 -0.433
v 0.4665 1.875 0.125
v 0.25 3 -0.433
v 0.433 3 -0.25
v -0.4665 1.875 0.125
v 0.433 3 0.25
v 0.25 3 0.433
v 0 3 0.5
v -0.25 3 0.433
v -0.433 3 0.25
v -0.4665 1.875 -0.125
v -0.433 3 -0.25
v -0.25 3 -0.433
v -0.125 1.875 -0.4665
v 0.2812 3 -0.4871
v 0.4871 3 -0.2812
v 0.125 2 -0.4665
v 0.4871 3 0.2812
v 0.2812 3 0.4871
v 0 3 0.5625
v -0.2812 3 0.4871
v -0.4871 3 0.2812
v 0.4665 2 -0.125
v -0.4871 3 -0.2812
v -0.2812 3 -0.4871
v 0.4665 2 0.125
v 0.2812 2.875 -0.4871
v 0.4871 2.875 -0.2812
v -0.4665 2 0.125
v 0.4871 2.875 0.2812
v 0.2812 2.875 0.4871
v 0 2.875 0.5625
v -0.2812 2.875 0.4871
v -0.4871 2.875 0.2812
v -0.4665 2 -0.125
v -0.4871 2.875 -0.2812
v -0.2812 2.875 -0.4871
v -0.125 2 -0.4665
v -0.1406 2.875 -0.5248
v -0.5248 2.875 -0.1406
v -0.5248 2.875 0.1406
v 0.5248 2.875 0.1406
v 0.5248 2.875 -0.1406
v 0.1406 2.875 -0.5248
v -0.1406 3 -0.5248
v -0.5248 3 -0.1406
v -0.5248 3 0.1406
v 0.5248 3 0.1406
v 0.5248 3 -0.1406
v 0.1406 3 -0.5248
v -0.125 3 -0.4665
v -0.4665 3 -0.125
v -0.4665 3 0.125
v 0.4665 3 0.125
v 0.4665 3 -0.125
v 0.125 3 -0.4665
v -0.125 2.875 -0.4665
v -0.4665 2.875 -0.125
v -0.4665 2.875 0.125
v 0.4665 2.875 0.125
v 0.4665 2.875 -0.125
v 0.125 2.875 -0.4665
v 0.1406 2 -0.5248
v 0.5248 2 -0.1406
v 0.5248 2 0.1406
v -0.5248 2 0.1406
v -0.5248 2 -0.1406
v -0.1406 2 -0.5248
v 0.1406 1.875 -0.5248
v 0.5248 1.875 -0.1406
v 0.5248 1.875 0.1406
v -0.5248 1.875 0.1406
v -0.5248 1.875 -0.1406
v -0.1406 1.875 -0.5248
v -0.2812 1.875 -0.4871
v -0.4871 1.875 -0.2812
v -0.4871 1.875 0.2812
v -0.2812 1.875 0.4871
v 0 1.875 0.5625
v 0.2812 1.875 0.4871
v 0.4871 1.875 0.2812
v 0.4871 1.875 -0.2812
v 0.2812 1.875 -0.4871
v -0.2812 2 -0.4871
v -0.4871 2 -0.2812
v -0.4871 2 0.2812
v -0.2812 2 0.4871
v 0 2 0.5625
v 0.2812 2 0.4871
v 0.4871 2 0.2812
v 0.4871 2 -0.2812
v 0.2812 2 -0.4871
v -0.25 2 -0.433
v -0.433 2 -0.25
v -0.433 2 0.25
v -0.25 2 0.433
v 0 2 0.5
v 0.25 2 0.433
v 0.433 2 0.25
v 0.433 2 -0.25
v 0.25 2 -0.433
v -0.25 1.875 -0.433
v -0.433 1.875 -0.25
v -0.433 1.875 0.25
v -0.25 1.875 0.433
v 0 1.875 0.5
v 0.25 1.875 0.433
v 0.433 1.875 0.25
v 0.433 1.875 -0.25
v 0.25 1.875 -0.433
v 0.25 3.875 -0.433
v 0.433 3.875 -0.25
v 0.433 3.875 0.25
v 0.25 3.875 0.433
v 0 3.875 0.5
v -0.25 3.875 0.433
v -0.433 3.875 0.25
v -0.433 3.875 -0.25
v -0.25 3.875 -0.433
v 0.25 4 -0.433
v 0.433 4 -0.25
v 0.433 4 0.25
v 0.25 4 0.433
v 0 4 0.5
v -0.25 4 0.433
v -0.433 4 0.25
v -0.433 4 -0.25
v -0.25 4 -0.433
v 0.2812 4 -0.4871
v 0.4871 4 -0.2812
v 0.4871 4 0.2812
v 0.2812 4 0.4871
v 0 4 0.5625
v -0.2812 4 0.4871
v -0.4871 4 0.2812
v -0.4871 4 -0.2812
v -0.2812 4 -0.4871
v 0.2812 3.875 -0.4871
v 0.4871 3.875 -0.2812
v 0.4871 3.875 0.2812
v 0.2812 3.875 0.4871
v 0 3.875 0.5625
v -0.2812 3.875 0.4871
v -0.4871 3.875 0.2812
v -0.4871 3.875 -0.2812
v -0.2812 3.875 -0.4871
v -0.1406 3.875 -0.5248
v -0.5248 3.875 -0.1406
v -0.5248 3.875 0.1406
v 0.5248 3.875 0.1406
v 0.5248 3.875 -0.1406
v 0.1406 3.875 -0.5248
v -0.1406 4 -0.5248
v -0.5248 4 -0.1406
v -0.5248 4 0.1406
v 0.5248 4 0.1406
v 0.5248 4 -0.1406
v 0.1406 4 -0.5248
v 0.125 4.875 -0.4665
v 0.4665 4.875 -0.125
v 0.4665 4.875 0.125
v -0.4665 4.875 0.125
v -0.4665 4.875 -0.125
v -0.125 4.875 -0.4665
v 0.125 5 -0.4665
v 0.4665 5 -0.125
v 0.4665 5 0.125
v -0.4665 5 0.125
v -0.4665 5 -0.125
v -0.125 5 -0.4665
v 0.1406 5 -0.5248
v 0.5248 5 -0.1406
v 0.5248 5 0.1406
v -0.5248 5 0.1406
v -0.5248 5 -0.1406
v -0.1406 5 -0.5248
v 0.1406 4.875 -0.5248
v 0.5248 4.875 -0.1406
v 0.5248 4.875 0.1406
v -0.5248 4.875 0.1406
v -0.5248 4.875 -0.1406
v -0.1406 4.875 -0.5248
v -0.125 4 -0.4665
v -0.2812 4.875 -0.4871
v -0.4871 4.875 -0.2812
v -0.4665 4 -0.125
v -0.4871 4.875 0.2812
v -0.2812 4.875 0.4871
v 0 4.875 0.5625
v 0.2812 4.875 0.4871
v 0.4871 4.875 0.2812
v -0.4665 4 0.125
v 0.4871 4.875 -0.2812
v 0.2812 4.875 -0.4871
v 0.4665 4 0.125
v -0.2812 5 -0.4871
v -0.4871 5 -0.2812
v 0.4665 4 -0.125
v -0.4871 5 0.2812
v -0.2812 5 0.4871
v 0 5 0.5625
v 0.2812 5 0.4871
v 0.4871 5 0.2812
v 0.125 4 -0.4665
v 0.4871 5 -0.2812
v 0.2812 5 -0.4871
v -0.125 3.875 -0.4665
v -0.25 5 -0.433
v -0.433 5 -0.25
v -0.4665 3.875 -0.125
v -0.433 5 0.25
v -0.25 5 0.433
v 0 5 0.5
v 0.25 5 0.433
v 0.433 5 0.25
v -0.4665 3.875 0.125
v 0.433 5 -0.25
v 0.25 5 -0.433
v 0.4665 3.875 0.125
v -0.25 4.875 -0.433
v -0.433 4.875 -0.25
v 0.4665 3.875 -0.125
v -0.433 4.875 0.25
v -0.25 4.875 0.433
v 0 4.875 0.5
v 0.25 4.875 0.433
v 0.433 4.875 0.25
v 0.125 3.875 -0.4665
v 0.433 4.875 -0.25
v 0.25 4.875 -0.433
v 0.25 3.9688 1
v 0.25 3.9062 1
v -0.5 3.9688 1
v -0.5 3.9062 1
v 0.25 3.9688 0.1875
v 0.25 3.9062 0.1875
v -0.5 3.9688 0.1875
v -0.5 3.9062 0.1875
v 0.25 1.9688 1
v -0.375 1.9688 1
v 0.25 1.9688 0.6875
v 0.25 2.4688 1
v -0.375 2.4688 1
v 0.25 2.4688 0.6875
v 0.25 2.9688 1
v -0.375 2.9688 1
v 0.25 2.9688 0.6875
v 0.25 3.4688 1
v -0.375 3.4688 1
v 0.25 3.4688 0.6875
v 0.25 3.9688 1
v -0.375 3.9688 1
v 0.25 3.9688 0.6875
v 0.25 4.4688 1
v -0.375 4.4688 1
v 0.25 4.4688 0.6875
v -0.4688 0.375 0.9375
v -0.4688 0.375 0.5
v -0.4688 3.9375 0.9375
v -0.4688 3.9375 0.5
v 0.125 0.875 -0.4665
v 0.4665 0.875 -0.125
v 0.4665 0.875 0.125
v -0.4665 0.875 0.125
v -0.4665 0.875 -0.125
v -0.125 0.875 -0.4665
v 0.125 1 -0.4665
v 0.4665 1 -0.125
v 0.4665 1 0.125
v -0.4665 1 0.125
v -0.4665 1 -0.125
v -0.125 1 -0.4665
v 0.1406 1 -0.5248
v 0.5248 1 -0.1406
v 0.5248 1 0.1406
v -0.5248 1 0.1406
v -0.5248 1 -0.1406
v -0.1406 1 -0.5248
v 0.1406 0.875 -0.5248
v 0.5248 0.875 -0.1406
v 0.5248 0.875 0.1406
v -0.5248 0.875 0.1406
v -0.5248 0.875 -0.1406
v -0.1406 0.875 -0.5248
v -0.2812 0.875 -0.4871
v -0.4871 0.875 -0.2812
v -0.4871 0.875 0.2812
v -0.2812 0.875 0.4871
v 0 0.875 0.5625
v 0.2812 0.875 0.4871
v 0.4871 0.875 0.2812
v 0.4871 0.875 -0.2812
v 0.2812 0.875 -0.4871
v -0.2812 1 -0.4871
v -0.4871 1 -0.2812
v -0.4871 1 0.2812
v -0.2812 1 0.4871
v 0 1 0.5625
v 0.2812 1 0.4871
v 0.4871 1 0.2812
v 0.4871 1 -0.2812
v 0.2812 1 -0.4871
v -0.25 1 -0.433
v -0.433 1 -0.25
v -0.433 1 0.25
v -0.25 1 0.433
v 0 1 0.5
v 0.25 1 0.433
v 0.433 1 0.25
v 0.433 1 -0.25
v 0.25 1 -0.433
v -0.25 0.875 -0.433
v -0.433 0.875 -0.25
v -0.433 0.875 0.25
v -0.25 0.875 0.433
v 0 0.875 0.5
v 0.25 0.875 0.433
v 0.433 0.875 0.25
v 0.433 0.875 -0.25
v 0.25 0.875 -0.433
v -0.5 2.9062 0.1875
v -0.5 2.9688 0.1875
v 0.25 2.9062 0.1875
v 0.25 2.9688 0.1875
v -0.5 2.9062 1
v -0.5 2.9688 1
v 0.25 2.9062 1
v 0.25 2.9688 1
v 0.25 1.9688 1
v 0.25 1.9062 1
v -0.5 1.9688 1
v -0.5 1.9062 1
v 0.25 1.9688 0.1875
v 0.25 1.9062 0.1875
v -0.5 1.9688 0.1875
v -0.5 1.9062 0.1875
v 0.4419 1.4375 -0.5303
v 0.4549 1.3933 -0.5174
v 0.221 1.4375 -0.3977
v 0.3094 1.4375 -0.4861
v 0.2469 1.3491 -0.3719
v 0.3352 1.3491 -0.4602
v 0.3094 1.3125 -0.3094
v 0.3977 1.3125 -0.3977
v 0.3719 1.3491 -0.2469
v 0.4602 1.3491 -0.3352
v 0.3977 1.4375 -0.221
v 0.4861 1.4375 -0.3094
v 0.3719 1.5259 -0.2469
v 0.4602 1.5259 -0.3352
v 0.3094 1.5625 -0.3094
v 0.3977 1.5625 -0.3977
v 0.2469 1.5259 -0.3719
v 0.3352 1.5259 -0.4602
v 0.4861 1.375 -0.4861
v 0.5174 1.3933 -0.4549
v 0.5303 1.4375 -0.4419
v 0.5174 1.4817 -0.4549
v 0.4861 1.5 -0.4861
v 0.4549 1.4817 -0.5174
v 0.4419 2.4375 -0.5303
v 0.4549 2.3933 -0.5174
v 0.221 2.4375 -0.3977
v 0.3094 2.4375 -0.4861
v 0.2469 2.3491 -0.3719
v 0.3352 2.3491 -0.4602
v 0.3094 2.3125 -0.3094
v 0.3977 2.3125 -0.3977
v 0.3719 2.3491 -0.2469
v 0.4602 2.3491 -0.3352
v 0.3977 2.4375 -0.221
v 0.4861 2.4375 -0.3094
v 0.3719 2.5259 -0.2469
v 0.4602 2.5259 -0.3352
v 0.3094 2.5625 -0.3094
v 0.3977 2.5625 -0.3977
v 0.2469 2.5259 -0.3719
v 0.3352 2.5259 -0.4602
v 0.4861 2.375 -0.4861
v 0.5174 2.3933 -0.4549
v 0.5303 2.4375 -0.4419
v 0.5174 2.4817 -0.4549
v 0.4861 2.5 -0.4861
v 0.4549 2.4817 -0.5174
v 0.4419 3.4375 -0.5303
v 0.4549 3.3933 -0.5174
v 0.221 3.4375 -0.3977
v 0.3094 3.4375 -0.4861
v 0.2469 3.3491 -0.3719
v 0.3352 3.3491 -0.4602
v 0.3094 3.3125 -0.3094
v 0.3977 3.3125 -0.3977
v 0.3719 3.3491 -0.2469
v 0.4602 3.3491 -0.3352
v 0.3977 3.4375 -0.221
v 0.4861 3.4375 -0.3094
v 0.3719 3.5259 -0.2469
v 0.4602 3.5259 -0.3352
v 0.3094 3.5625 -0.3094
v 0.3977 3.5625 -0.3977
v 0.2469 3.5259 -0.3719
v 0.3352 3.5259 -0.4602
v 0.4861 3.375 -0.4861
v 0.5174 3.3933 -0.4549
v 0.5303 3.4375 -0.4419
v 0.5174 3.4817 -0.4549
v 0.4861 3.5 -0.4861
v 0.4549 3.4817 -0.5174
v 0.4419 4.4375 -0.5303
v 0.4549 4.3933 -0.5174
v 0.221 4.4375 -0.3977
v 0.3094 4.4375 -0.4861
v 0.2469 4.3491 -0.3719
v 0.3352 4.3491 -0.4602
v 0.3094 4.3125 -0.3094
v 0.3977 4.3125 -0.3977
v 0.3719 4.3491 -0.2469
v 0.4602 4.3491 -0.3352
v 0.3977 4.4375 -0.221
v 0.4861 4.4375 -0.3094
v 0.3719 4.5259 -0.2469
v 0.4602 4.5259 -0.3352
v 0.3094 4.5625 -0.3094
v 0.3977 4.5625 -0.3977
v 0.2469 4.5259 -0.3719
v 0.3352 4.5259 -0.4602
v 0.4861 4.375 -0.4861
v 0.5174 4.3933 -0.4549
v 0.5303 4.4375 -0.4419
v 0.5174 4.4817 -0.4549
v 0.4861 4.5 -0.4861
v 0.4549 4.4817 -0.5174
v 0.2812 3 -0.4871
v 0.4871 3 -0.2812
v -0.4871 3 -0.2812
v -0.2812 3 -0.4871
v 0.2812 2.875 -0.4871
v 0.4871 2.875 -0.2812
v -0.4871 2.875 -0.2812
v -0.2812 2.875 -0.4871
v -0.1406 2.875 -0.5248
v -0.5248 2.875 -0.1406
v 0.5248 2.875 -0.1406
v 0.1406 2.875 -0.5248
v -0.1406 3 -0.5248
v -0.5248 3 -0.1406
v 0.5248 3 -0.1406
v 0.1406 3 -0.5248
v 0.1406 2 -0.5248
v 0.5248 2 -0.1406
v -0.5248 2 -0.1406
v -0.1406 2 -0.5248
v 0.1406 1.875 -0.5248
v 0.5248 1.875 -0.1406
v -0.5248 1.875 -0.1406
v -0.1406 1.875 -0.5248
v -0.2812 1.875 -0.4871
v -0.4871 1.875 -0.2812
v 0.4871 1.875 -0.2812
v 0.2812 1.875 -0.4871
v -0.2812 2 -0.4871
v -0.4871 2 -0.2812
v 0.4871 2 -0.2812
v 0.2812 2 -0.4871
v 0.2812 4 -0.4871
v 0.4871 4 -0.2812
v -0.4871 4 -0.2812
v -0.2812 4 -0.4871
v 0.2812 3.875 -0.4871
v 0.4871 3.875 -0.2812
v -0.4871 3.875 -0.2812
v -0.2812 3.875 -0.4871
v -0.1406 3.875 -0.5248
v -0.5248 3.875 -0.1406
v 0.5248 3.875 -0.1406
v 0.1406 3.875 -0.5248
v -0.1406 4 -0.5248
v -0.5248 4 -0.1406
v 0.5248 4 -0.1406
v 0.1406 4 -0.5248
v 0.1406 5 -0.5248
v 0.5248 5 -0.1406
v -0.5248 5 -0.1406
v -0.1406 5 -0.5248
v 0.1406 4.875 -0.5248
v 0.5248 4.875 -0.1406
v -0.5248 4.875 -0.1406
v -0.1406 4.875 -0.5248
v -0.2812 4.875 -0.4871
v -0.4871 4.875 -0.2812
v 0.4871 4.875 -0.2812
v 0.2812 4.875 -0.4871
v -0.2812 5 -0.4871
v -0.4871 5 -0.2812
v 0.4871 5 -0.2812
v 0.2812 5 -0.4871
v 0.1406 1 -0.5248
v 0.5248 1 -0.1406
v -0.5248 1 -0.1406
v -0.1406 1 -0.5248
v 0.1406 0.875 -0.5248
v 0.5248 0.875 -0.1406
v -0.5248 0.875 -0.1406
v -0.1406 0.875 -0.5248
v -0.2812 0.875 -0.4871
v -0.4871 0.875 -0.2812
v 0.4871 0.875 -0.2812
v 0.2812 0.875 -0.4871
v -0.2812 1 -0.4871
v -0.4871 1 -0.2812
v 0.4871 1 -0.2812
v 0.2812 1 -0.4871
v -0.4665 1.875 -0.125
v -0.125 1.875 -0.4665
v -0.4665 2 -0.125
v -0.125 2 -0.4665
v -0.1406 2.875 -0.5248
v -0.5248 2.875 -0.1406
v -0.1406 3 -0.5248
v -0.5248 3 -0.1406
v -0.125 3 -0.4665
v -0.4665 3 -0.125
v -0.125 2.875 -0.4665
v -0.4665 2.875 -0.125
v -0.5248 2 -0.1406
v -0.1406 2 -0.5248
v -0.5248 1.875 -0.1406
v -0.1406 1.875 -0.5248
v -0.1406 3.875 -0.5248
v -0.5248 3.875 -0.1406
v -0.1406 4 -0.5248
v -0.5248 4 -0.1406
v -0.125 4.875 -0.4665
v -0.125 5 -0.4665
v -0.1406 5 -0.5248
v -0.1406 4.875 -0.5248
v -0.125 4 -0.4665
v -0.4665 4 -0.125
v -0.125 3.875 -0.4665
v -0.4665 3.875 -0.125
v -0.4665 0.875 -0.125
v -0.125 0.875 -0.4665
v -0.4665 1 -0.125
v -0.125 1 -0.4665
v -0.5248 1 -0.1406
v -0.1406 1 -0.5248
v -0.5248 0.875 -0.1406
v -0.1406 0.875 -0.5248
v 0.125 1.875 -0.4665
v 0.4665 1.875 -0.125
v 0.125 2 -0.4665
v 0.4665 2 -0.125
v 0.5248 2.875 -0.1406
v 0.1406 2.875 -0.5248
v 0.5248 3 -0.1406
v 0.1406 3 -0.5248
v 0.4665 3 -0.125
v 0.125 3 -0.4665
v 0.4665 2.875 -0.125
v 0.125 2.875 -0.4665
v 0.1406 2 -0.5248
v 0.5248 2 -0.1406
v 0.1406 1.875 -0.5248
v 0.5248 1.875 -0.1406
v 0.5248 3.875 -0.1406
v 0.1406 3.875 -0.5248
v 0.5248 4 -0.1406
v 0.1406 4 -0.5248
v 0.4665 4 -0.125
v 0.125 4 -0.4665
v 0.4665 3.875 -0.125
v 0.125 3.875 -0.4665
v 0.125 0.875 -0.4665
v 0.4665 0.875 -0.125
v 0.125 1 -0.4665
v 0.4665 1 -0.125
v 0.1406 1 -0.5248
v 0.5248 1 -0.1406
v 0.1406 0.875 -0.5248
v 0.5248 0.875 -0.1406
v 0.125 4.875 -0.4665
v 0.4665 4.875 -0.125
v 0.125 5 -0.4665
v 0.4665 5 -0.125
v 0.1406 5 -0.5248
v 0.5248 5 -0.1406
v 0.1406 4.875 -0.5248
v 0.5248 4.875 -0.1406
v 0.4665 1.875 0.125
v -0.4665 1.875 0.125
v 0.4665 2 0.125
v -0.4665 2 0.125
v -0.5248 2.875 0.1406
v 0.5248 2.875 0.1406
v -0.5248 3 0.1406
v 0.5248 3 0.1406
v -0.4665 3 0.125
v 0.4665 3 0.125
v -0.4665 2.875 0.125
v 0.4665 2.875 0.125
v 0.5248 2 0.1406
v -0.5248 2 0.1406
v 0.5248 1.875 0.1406
v -0.5248 1.875 0.1406
v -0.5248 3.875 0.1406
v 0.5248 3.875 0.1406
v -0.5248 4 0.1406
v 0.5248 4 0.1406
v 0.4665 4.875 0.125
v -0.4665 4.875 0.125
v 0.4665 5 0.125
v -0.4665 5 0.125
v 0.5248 5 0.1406
v -0.5248 5 0.1406
v 0.5248 4.875 0.1406
v -0.5248 4.875 0.1406
v -0.4665 4 0.125
v 0.4665 4 0.125
v -0.4665 3.875 0.125
v 0.4665 3.875 0.125
v 0.4665 0.875 0.125
v -0.4665 0.875 0.125
v 0.4665 1 0.125
v -0.4665 1 0.125
v 0.5248 1 0.1406
v -0.5248 1 0.1406
v 0.5248 0.875 0.1406
v -0.5248 0.875 0.1406
v 0.4871 3 0.2812
v 0.2812 3 0.4871
v 0 3 0.5625
v -0.2812 3 0.4871
v -0.4871 3 0.2812
v 0.4871 2.875 0.2812
v 0.2812 2.875 0.4871
v 0 2.875 0.5625
v -0.2812 2.875 0.4871
v -0.4871 2.875 0.2812
v -0.5248 2.875 0.1406
v 0.5248 2.875 0.1406
v -0.5248 3 0.1406
v 0.5248 3 0.1406
v 0.5248 2 0.1406
v -0.5248 2 0.1406
v 0.5248 1.875 0.1406
v -0.5248 1.875 0.1406
v -0.4871 1.875 0.2812
v -0.2812 1.875 0.4871
v 0 1.875 0.5625
v 0.2812 1.875 0.4871
v 0.4871 1.875 0.2812
v -0.4871 2 0.2812
v -0.2812 2 0.4871
v 0 2 0.5625
v 0.2812 2 0.4871
v 0.4871 2 0.2812
v 0.4871 4 0.2812
v 0.2812 4 0.4871
v 0 4 0.5625
v -0.2812 4 0.4871
v -0.4871 4 0.2812
v 0.4871 3.875 0.2812
v 0.2812 3.875 0.4871
v 0 3.875 0.5625
v -0.2812 3.875 0.4871
v -0.4871 3.875 0.2812
v -0.5248 3.875 0.1406
v 0.5248 3.875 0.1406
v -0.5248 4 0.1406
v 0.5248 4 0.1406
v 0.5248 5 0.1406
v -0.5248 5 0.1406
v 0.5248 4.875 0.1406
v -0.5248 4.875 0.1406
v -0.4871 4.875 0.2812
v -0.2812 4.875 0.4871
v 0 4.875 0.5625
v 0.2812 4.875 0.4871
v 0.4871 4.875 0.2812
v -0.4871 5 0.2812
v -0.2812 5 0.4871
v 0 5 0.5625
v 0.2812 5 0.4871
v 0.4871 5 0.2812
v 0.5248 1 0.1406
v -0.5248 1 0.1406
v 0.5248 0.875 0.1406
v -0.5248 0.875 0.1406
v -0.4871 0.875 0.2812
v -0.2812 0.875 0.4871
v 0 0.875 0.5625
v 0.2812 0.875 0.4871
v 0.4871 0.875 0.2812
v -0.4871 1 0.2812
v -0.2812 1 0.4871
v 0 1 0.5625
v 0.2812 1 0.4871
v 0.4871 1 0.2812
v 0.4419 1.4375 -0.5303
v 0.4549 1.3933 -0.5174
v 0.3094 1.4375 -0.4861
v 0.3352 1.3491 -0.4602
v 0.3977 1.3125 -0.3977
v 0.4602 1.3491 -0.3352
v 0.4861 1.4375 -0.3094
v 0.4602 1.5259 -0.3352
v 0.3977 1.5625 -0.3977
v 0.3352 1.5259 -0.4602
v 0.4861 1.375 -0.4861
v 0.5174 1.3933 -0.4549
v 0.5303 1.4375 -0.4419
v 0.5174 1.4817 -0.4549
v 0.4861 1.5 -0.4861
v 0.4549 1.4817 -0.5174
v 0.4419 2.4375 -0.5303
v 0.4549 2.3933 -0.5174
v 0.3094 2.4375 -0.4861
v 0.3352 2.3491 -0.4602
v 0.3977 2.3125 -0.3977
v 0.4602 2.3491 -0.3352
v 0.4861 2.4375 -0.3094
v 0.4602 2.5259 -0.3352
v 0.3977 2.5625 -0.3977
v 0.3352 2.5259 -0.4602
v 0.4861 2.375 -0.4861
v 0.5174 2.3933 -0.4549
v 0.5303 2.4375 -0.4419
v 0.5174 2.4817 -0.4549
v 0.4861 2.5 -0.4861
v 0.4549 2.4817 -0.5174
v 0.4419 3.4375 -0.5303
v 0.4549 3.3933 -0.5174
v 0.3094 3.4375 -0.4861
v 0.3352 3.3491 -0.4602
v 0.3977 3.3125 -0.3977
v 0.4602 3.3491 -0.3352
v 0.4861 3.4375 -0.3094
v 0.4602 3.5259 -0.3352
v 0.3977 3.5625 -0.3977
v 0.3352 3.5259 -0.4602
v 0.4861 3.375 -0.4861
v 0.5174 3.3933 -0.4549
v 0.5303 3.4375 -0.4419
v 0.5174 3.4817 -0.4549
v 0.4861 3.5 -0.4861
v 0.4549 3.4817 -0.5174
v 0.4419 4.4375 -0.5303
v 0.4549 4.3933 -0.5174
v 0.3094 4.4375 -0.4861
v 0.3352 4.3491 -0.4602
v 0.3977 4.3125 -0.3977
v 0.4602 4.3491 -0.3352
v 0.4861 4.4375 -0.3094
v 0.4602 4.5259 -0.3352
v 0.3977 4.5625 -0.3977
v 0.3352 4.5259 -0.4602
v 0.4861 4.375 -0.4861
v 0.5174 4.3933 -0.4549
v 0.5303 4.4375 -0.4419
v 0.5174 4.4817 -0.4549
v 0.4861 4.5 -0.4861
v 0.4549 4.4817 -0.5174
v 0 5 -0.5
v -0.25 5 -0.433
v -0.433 5 -0.25
v -0.5 5 -0
v -0.433 5 0.25
v -0.25 5 0.433
v 0 5 0.5
v 0.25 5 0.433
v 0.433 5 0.25
v 0.5 5 -0
v 0.433 5 -0.25
v 0.25 5 -0.433
v -0.4688 2.1562 0.5
v -0.4688 2.1562 0.9375
v -0.433 2.6875 -0.25
v 0.5 2.6875 -0
v 0 2.6875 0.5
v -0.5 2.6875 -0
v 0.433 2.6875 -0.25
v 0 2.6875 -0.5
v 0.25 2.6875 0.433
v -0.433 2.6875 0.25
v 0.25 2.6875 -0.433
v -0.25 2.6875 -0.433
v 0.433 2.6875 0.25
v -0.25 2.6875 0.433
v -0.4688 1.2656 0.9375
v -0.4688 1.2656 0.5
v -0.4688 3.0469 0.5
v -0.4688 3.0469 0.9375
v -0.433 1.5312 -0.25
v 0.5 1.5312 -0
v 0 1.5312 0.5
v -0.5 1.5312 -0
v 0.433 1.5312 -0.25
v 0 1.5312 -0.5
v 0.25 1.5312 0.433
v -0.433 1.5312 0.25
v 0.25 1.5312 -0.433
v -0.25 1.5312 -0.433
v 0.433 1.5312 0.25
v -0.25 1.5312 0.433
v -0.433 3.8438 0.25
v 0.433 3.8438 0.25
v 0 3.8438 -0.5
v 0.25 3.8438 -0.433
v -0.5 3.8438 -0
v 0.5 3.8438 -0
v -0.25 3.8438 -0.433
v 0.25 3.8438 0.433
v -0.433 3.8438 -0.25
v 0.433 3.8438 -0.25
v -0.25 3.8438 0.433
v 0 3.8438 0.5
vt 0.8375 0.6329
vt 0.8313 0.6582
vt 0.8313 0.6329
vt 0.7937 0.6582
vt 0.7688 0.6329
vt 0.7937 0.6329
vt 0.7562 0.7089
vt 0.7438 0.6835
vt 0.7562 0.6835
vt 0.7688 0.6582
vt 0.7438 0.6329
vt 0.5375 0.7025
vt 0.5125 0.9367
vt 0.5125 0.7025
vt 0.7 0.6835
vt 0.7063 0.7089
vt 0.7 0.7089
vt 0.85 0.8228
vt 0.8875 0.9241
vt 0.85 0.9241
vt 0.8187 0.6329
vt 0.7625 0.6835
vt 0.7438 0.7215
vt 0.7438 0.7089
vt 0.4125 0.2342
vt 0.3875 0.4684
vt 0.3875 0.2342
vt 0.1313 0.7722
vt 0.05 0.7595
vt 0.125 0.7595
vt 0.125 0.6076
vt 0.0437 0.7722
vt 0.05 0.6076
vt 0.5625 0.3165
vt 0.5687 0.1646
vt 0.5687 0.3165
vt 0.65 -0
vt 0.5687 0.1519
vt 0.5687 -0
vt 0.65 0.3165
vt 0.5687 0.3291
vt 0.0875 0.4557
vt 0.225 0.2532
vt 0.225 0.4557
vt 0.65 0.1519
vt 0.3625 0.7025
vt 0.3375 0.9367
vt 0.3375 0.7025
vt 0.7188 0.6582
vt 0.7063 0.6329
vt 0.7188 0.6329
vt 0.7 0.6329
vt 0.7063 0.6582
vt 0.7 0.6582
vt 0.775 1
vt 0.775 0.9241
vt 0.65 0.1646
vt 0.4875 0.7025
vt 0.4625 0.9367
vt 0.4625 0.7025
vt 0.2625 0.2785
vt 0.2375 0.4304
vt 0.2375 0.2785
vt 0.7188 0.7089
vt 0.7063 0.6835
vt 0.7188 0.6835
vt 0.2621 0.8465
vt 0.2488 0.947
vt 0.1992 0.974
vt 0.6062 0.4557
vt 0.6 0.4557
vt 0.6 0.4304
vt 0.5813 0.4557
vt 0.5813 0.481
vt 0.575 0.481
vt 0.7937 0.6203
vt 0.5875 0.4557
vt 0.5813 0.4304
vt 0.7625 0.7089
vt 0.225 -0
vt 0.2375 0.0253
vt 0.2375 0.1772
vt 0.225 0.2025
vt 0.4375 0.2342
vt 0.4125 0.4684
vt 0.575 0.4557
vt 0.575 0.4304
vt 0.7438 0.6582
vt 0.3125 0.9367
vt 0.7937 0.6709
vt 0.7688 0.6709
vt 0.2875 0.2342
vt 0.2625 0.4684
vt 0.2625 0.2342
vt 0.7188 0.6709
vt 0.7438 0.6709
vt 0.1313 0.5063
vt 0.0437 0.5063
vt 0.5875 0.4304
vt 0.5938 0.4304
vt 0.7188 0.6203
vt 0.7438 0.6203
vt 0.7188 0.7215
vt 0.5938 0.4557
vt 0.5734 0.4843
vt 0.5734 0.503
vt 0.5641 0.503
vt 0.5875 0.481
vt 0.5625 0.4557
vt 0.5625 0.4304
vt 0.5687 0.4304
vt 0.5625 0.3291
vt 0.625 0.3291
vt 0.7688 0.6203
vt 0.6125 0.4557
vt 0.6062 0.4304
vt 0.8187 0.6203
vt 0.2258 0.7729
vt 0.8313 0.6709
vt 0.8187 0.6709
vt 0.8313 0.6203
vt 0.1762 0.947
vt 0.1629 0.9004
vt 0.1629 0.8465
vt 0.1762 0.7998
vt 0.1992 0.7729
vt 0.2488 0.7998
vt 0.2621 0.9004
vt 0.2258 0.974
vt 0.3875 0.7025
vt 0.625 0.4304
vt 0.6562 0.3291
vt 0.6562 0.4304
vt 0.175 0.7722
vt 0.175 0.5063
vt 0.2625 0.7722
vt 0.6062 0.481
vt 0.775 0.8228
vt 0.85 0.7468
vt 0.4875 0.9367
vt 0.7063 0.6709
vt 0.7063 0.7215
vt 0.2375 0.2025
vt 0.8187 0.6582
vt 0.5687 0.481
vt 0.5625 0.481
vt 0.6 0.481
vt 0.5641 0.4843
vt 0.2375 0.5063
vt 0.2375 0.4557
vt 0.4375 0.9367
vt 0.4375 0.7025
vt 0.3625 0.9367
vt 0.5625 0.7025
vt 0.5375 0.9367
vt 0.3125 0.7025
vt 0.2875 0.9367
vt 0.2875 0.7025
vt 0.5938 0.481
vt 0.225 0.5063
vt 0.5687 0.4557
vt 0 0.7722
vt 0 0.5063
vt 0.6125 0.481
vt 0.7375 0.9241
vt 0.7375 0.7722
vt 0.7 0.7215
vt 0.6562 0.5411
vt 0.7 0.5411
vt 0.0875 0.2532
vt 0.0625 0.4557
vt 0.0625 0.2532
vt 0.4125 0.9367
vt 0.4125 0.7025
vt 0.2625 0.9367
vt 0.2625 0.7025
vt 0.1313 0.8608
vt 0.6125 0.4304
vt 0.3875 0.9367
vt 0.0875 -0
vt 0.0875 0.2025
vt 0.7562 0.6709
vt 0.7562 0.7215
vt 0.7063 0.6203
vt 0.2375 0.2532
vt 0.65 0.3291
vt 0.3375 0.4684
vt 0.3125 0.4684
vt 0.8875 0.7722
vt 0.4875 0.2342
vt 0.4625 0.4684
vt 0.4625 0.2342
vt 0.3125 0
vt 0.2875 0
vt 0.4375 0.4684
vt 0.3625 0.2342
vt 0.3375 0.2342
vt 0.85 1
vt 0.2875 0.4684
vt 0.3375 0
vt 0.3125 0.2342
vt 0.5625 0.4684
vt 0.5375 0.4684
vt 0.5625 0.1646
vt 0.5625 0.2342
vt 0.5375 0.2342
vt 0.5125 0.4684
vt 0.5125 0.2342
vt 0.4875 0.4684
vt 0.6562 0.3608
vt 0.7 0.3608
vt 0.3625 0
vt 0.6562 0.1804
vt 0.7 0.1804
vt 0.2625 0
vt 0.5125 0
vt 0.4875 0
vt 0.5625 0.9367
vt 0.8375 0.6582
vt 0.2625 0.5063
vt 0.5375 0
vt 0.3625 0.4684
vt 0.775 0.7468
vt 0.4375 0
vt 0.4125 0
vt 0.4625 0
vt 0.5625 0
vt 0.3875 0
vt 0.6562 0.7215
vt 0.2625 0.4304
vt 0.6562 -0
vt 0.7 -0
vt 0.575 0.4937
vt 0.5687 0.5063
vt 0.5625 0.4937
vt 0.0875 0.5063
vt 0.0437 0.8608
s 1
f 1147/166 1151/167 1153/168
f 1168/169 1174/170 1173/171
f 989/172 996/173 993/174
f 1220/175 1214/176 1215/170
f 1346/177 495/178 1352/179
f 1193/169 1187/170 1188/171
f 1109/180 1105/181 1107/182
f 1018/172 1007/173 1014/174
f 520/183 481/184 479/185
f 1181/167 1189/186 1183/168
f 1051/187 1063/172 1065/174
f 601/172 639/188 630/189
f 1180/167 1172/186 1178/168
f 1333/190 1326/191 1342/192
f 1197/175 1203/176 1202/170
f 525/193 484/194 481/195
f 518/196 525/193 481/195
f 526/197 517/198 484/194
f 870/199 867/200 869/201
f 874/202 868/203 870/204
f 873/205 870/206 869/201
f 1080/180 1084/181 1082/182
f 482/207 510/208 512/209
f 861/210 866/200 865/203
f 1035/172 1046/173 1039/174
f 1052/180 1064/181 1054/182
f 1159/166 1163/167 1165/168
f 1343/211 488/212 1347/213
f 1232/214 1226/215 1227/216
f 1190/214 1184/215 1185/216
f 1128/217 1140/218 1130/219
f 1234/175 1228/176 1229/170
f 479/185 484/220 480/221
f 773/222 771/201 769/200
f 986/172 975/173 982/174
f 1348/223 493/224 1344/225
f 1235/169 1229/170 1230/171
f 1208/167 1200/186 1206/168
f 1079/187 1083/172 1085/174
f 513/226 516/227 514/228
f 871/222 869/201 867/200
f 772/199 769/200 771/201
f 974/229 979/230 978/231
f 1309/232 1311/233 1301/234
f 932/235 934/236 933/237
f 1294/238 1300/239 1285/240
f 855/241 828/171 827/170
f 914/242 916/238 915/243
f 1110/187 1108/244 1106/172
f 1111/187 1113/244 1115/172
f 510/208 514/228 516/227
f 516/227 512/209 510/208
f 1112/180 1118/230 1116/181
f 1087/187 1089/244 1099/172
f 511/245 515/246 513/247
f 513/247 509/248 511/245
f 1337/249 1317/250 1333/190
f 902/251 901/252 915/243
f 1169/175 1170/253 1175/176
f 1347/213 488/212 487/254
f 661/255 662/256 671/175
f 1340/257 1320/258 1336/259
f 830/231 857/260 858/261
f 525/193 526/197 484/194
f 518/196 522/262 525/193
f 526/197 521/263 517/198
f 884/235 886/236 885/237
f 938/242 937/264 935/265
f 761/266 762/267 726/176
f 710/181 743/229 755/268
f 550/188 551/268 563/229
f 886/236 888/269 887/265
f 899/270 921/271 919/272
f 1233/253 1232/214 1227/216
f 1267/273 1268/239 1262/238
f 882/274 881/275 879/276
f 1077/180 1067/230 1069/181
f 1157/217 1143/215 1145/218
f 781/275 778/277 777/278
f 1196/169 1197/175 1202/170
f 643/267 644/279 617/170
f 906/280 908/235 907/281
f 912/269 914/242 913/264
f 892/238 891/243 889/264
f 636/255 635/256 626/175
f 816/181 832/229 841/268
f 645/241 646/282 619/186
f 930/280 932/235 931/281
f 1307/283 1309/232 1301/234
f 813/167 807/284 847/285
f 646/282 540/286 609/168
f 1301/234 1302/287 1303/288
f 1303/288 1304/289 1305/290
f 1305/290 1306/291 1307/283
f 1307/283 1308/292 1309/232
f 1309/232 1310/293 1311/233
f 1311/233 1312/294 1301/234
f 1301/234 1303/288 1305/290
f 846/255 836/175 837/169
f 1317/250 1353/295 1326/191
f 860/205 863/206 864/201
f 1088/180 1100/181 1090/182
f 787/275 783/278 786/296
f 1192/175 1186/176 1187/170
f 786/296 785/297 788/298
f 1097/180 1093/181 1095/182
f 1223/167 1231/186 1225/168
f 1221/169 1215/170 1216/171
f 1098/187 1094/172 1092/174
f 522/262 523/299 525/193
f 527/300 524/301 523/299
f 774/210 769/200 770/203
f 1198/253 1204/216 1203/176
f 1289/280 1296/302 1290/235
f 1005/189 1010/231 1009/173
f 863/199 866/200 864/201
f 856/282 819/168 829/186
f 1016/172 1009/173 1012/174
f 519/303 518/304 520/183
f 872/210 867/200 868/203
f 608/230 647/260 620/231
f 648/261 607/174 621/173
f 610/215 642/266 615/216
f 862/222 864/201 866/200
f 852/266 826/176 825/216
f 1352/179 494/305 1348/223
f 814/218 843/260 808/306
f 668/229 658/188 659/268
f 822/230 850/260 823/231
f 587/181 542/268 593/307
f 655/266 681/176 682/216
f 696/172 658/188 667/189
f 712/218 749/260 706/306
f 536/266 571/176 572/216
f 671/175 663/261 672/253
f 626/175 634/261 625/253
f 764/241 727/170 763/279
f 855/241 829/186 828/171
f 581/230 530/260 566/231
f 577/230 539/260 575/231
f 743/229 756/188 755/268
f 513/308 510/208 509/248
f 759/261 719/174 723/173
f 753/285 740/169 741/309
f 1160/217 1164/218 1162/219
f 603/167 637/285 628/309
f 657/260 683/173 684/231
f 558/175 547/261 559/253
f 1289/274 1286/310 1295/311
f 1293/242 1300/239 1294/238
f 544/285 557/169 556/309
f 1278/238 1269/240 1271/251
f 1281/312 1276/269 1275/236
f 479/185 519/303 520/183
f 1222/309 1216/171 1217/186
f 793/275 789/278 792/296
f 720/230 758/260 722/231
f 875/270 895/272 893/313
f 515/314 512/209 516/315
f 1344/225 492/316 1350/317
f 651/282 688/168 678/186
f 775/205 772/206 771/201
f 649/261 690/174 676/173
f 1119/187 1123/172 1125/174
f 692/172 665/188 674/189
f 792/296 791/297 794/298
f 1260/269 1267/273 1261/242
f 1353/295 489/318 1343/211
f 588/172 541/188 553/189
f 1345/319 496/320 1346/177
f 641/261 611/174 614/173
f 1351/321 486/322 1349/323
f 1244/269 1249/312 1250/324
f 1347/213 487/254 1351/321
f 1034/189 1029/231 1030/173
f 511/325 482/207 512/209
f 1218/214 1212/215 1213/216
f 1240/326 1247/311 1241/274
f 858/261 817/174 831/173
f 1127/166 1139/167 1141/168
f 765/282 717/168 729/186
f 859/202 865/203 863/204
f 776/202 770/203 772/204
f 521/263 524/327 528/328
f 1191/253 1185/216 1186/176
f 1244/269 1251/273 1245/242
f 1274/235 1281/312 1275/236
f 1263/329 1258/235 1257/280
f 1272/326 1279/311 1273/274
f 1290/235 1297/312 1291/236
f 762/267 727/170 726/176
f 844/261 834/214 835/253
f 689/230 650/260 677/231
f 842/188 832/229 833/189
f 851/261 821/174 824/173
f 731/231 768/261 732/173
f 612/230 640/260 613/231
f 634/261 624/214 625/253
f 836/175 844/261 835/253
f 652/241 680/170 653/279
f 535/267 570/170 571/176
f 663/261 673/214 672/253
f 606/181 631/268 576/307
f 660/285 670/169 669/309
f 691/181 666/268 721/307
f 839/229 849/188 848/268
f 693/218 664/260 730/306
f 850/260 824/173 823/231
f 642/266 616/176 615/216
f 604/218 633/260 567/306
f 566/231 529/261 565/173
f 602/181 638/268 561/307
f 547/261 560/214 559/253
f 585/218 548/260 591/306
f 640/260 614/173 613/231
f 533/241 570/170 534/279
f 739/175 750/261 738/253
f 519/303 484/330 517/331
f 632/188 622/229 623/189
f 685/230 657/260 684/231
f 629/229 639/188 638/268
f 687/215 655/266 682/216
f 847/285 837/169 838/309
f 605/172 632/188 623/189
f 652/241 678/186 679/171
f 853/267 827/170 826/176
f 1258/235 1265/312 1259/236
f 1256/326 1253/240 1254/310
f 1247/329 1242/235 1241/280
f 1276/269 1283/273 1277/242
f 1240/326 1237/240 1238/310
f 1158/166 1146/167 1144/168
f 797/332 1329/333 1330/334
f 1194/309 1188/171 1189/186
f 1170/253 1176/216 1175/176
f 815/172 842/188 833/189
f 1167/309 1173/171 1172/186
f 768/261 715/174 732/173
f 1246/238 1237/240 1239/251
f 781/275 777/278 780/296
f 1078/187 1070/172 1068/174
f 483/335 477/336 478/337
f 1169/175 1175/176 1174/170
f 1246/238 1251/273 1252/239
f 1196/169 1202/170 1201/171
f 579/215 536/266 572/216
f 1077/180 1069/181 1075/182
f 709/172 756/188 744/189
f 1110/187 1106/172 1104/174
f 713/172 747/188 735/189
f 780/296 779/297 782/298
f 711/167 753/285 741/309
f 1350/317 491/338 1354/339
f 811/172 849/188 840/189
f 1233/253 1227/216 1228/176
f 656/261 686/174 683/173
f 1157/217 1145/218 1155/219
f 1120/180 1124/181 1122/182
f 701/187 713/172 719/174
f 538/261 578/174 574/173
f 1137/217 1133/218 1135/219
f 1138/166 1134/167 1132/168
f 1349/323 485/340 1345/341
f 1297/312 1292/269 1291/236
f 1294/238 1285/240 1287/251
f 1265/312 1260/269 1259/236
f 1256/326 1263/311 1257/274
f 1267/273 1262/238 1261/242
f 654/267 680/170 681/176
f 750/261 737/214 738/253
f 694/167 660/285 669/309
f 1111/187 1115/172 1117/174
f 747/188 734/229 735/189
f 584/172 550/188 562/189
f 882/274 879/276 880/326
f 554/229 541/188 542/268
f 586/167 544/285 556/309
f 716/230 767/260 731/231
f 677/231 649/261 676/173
f 645/241 617/170 644/279
f 661/255 671/175 670/169
f 643/267 617/170 616/176
f 758/260 723/173 722/231
f 714/181 746/268 708/307
f 583/181 551/268 589/307
f 764/241 729/186 728/171
f 710/181 755/268 704/307
f 813/167 847/285 838/309
f 1307/283 1301/234 1305/290
f 820/215 852/266 825/216
f 1112/180 1116/181 1114/182
f 550/188 563/229 562/189
f 529/261 582/174 565/173
f 1061/180 1057/181 1059/182
f 532/282 580/168 568/186
f 1087/187 1099/172 1101/174
f 1062/187 1058/172 1056/174
f 1071/180 1073/181 1072/182
f 523/342 526/197 525/193
f 1272/326 1269/240 1270/310
f 1273/280 1280/302 1274/235
f 1278/238 1283/273 1284/239
f 1262/238 1253/240 1255/251
f 1242/235 1249/312 1243/236
f 855/241 827/170 854/279
f 533/241 568/186 569/171
f 646/282 609/168 619/186
f 761/266 726/176 725/216
f 818/230 857/260 830/231
f 620/231 648/261 621/173
f 718/215 761/266 725/216
f 665/188 675/229 674/189
f 545/255 558/175 557/169
f 752/255 739/175 740/169
f 636/255 626/175 627/169
f 637/285 627/169 628/309
f 816/181 841/268 810/307
f 539/260 574/173 575/231
f 812/181 848/268 806/307
f 830/231 858/261 831/173
f 695/181 659/268 736/307
f 645/241 619/186 618/171
f 884/235 885/237 883/281
f 888/269 889/264 887/265
f 892/238 889/264 890/242
f 886/236 887/265 885/237
f 902/251 903/276 901/252
f 884/235 881/343 882/280
f 899/270 919/272 917/313
f 906/280 907/281 905/343
f 521/263 518/196 517/198
f 910/236 911/265 909/237
f 914/242 915/243 913/264
f 906/274 903/276 904/326
f 878/251 891/243 892/238
f 902/251 915/243 916/238
f 928/326 929/275 927/276
f 947/270 967/272 965/313
f 912/269 913/264 911/265
f 926/251 927/276 925/252
f 932/235 933/237 931/281
f 930/280 931/281 929/343
f 938/242 935/265 936/269
f 926/251 939/243 940/238
f 908/235 909/237 907/281
f 940/238 937/264 938/242
f 878/251 879/276 877/252
f 953/343 956/235 955/281
f 950/251 951/276 949/252
f 958/236 955/281 956/235
f 960/269 961/264 959/265
f 952/326 953/275 951/276
f 950/251 963/243 964/238
f 934/236 935/265 933/237
f 964/238 961/264 962/242
f 923/270 943/272 941/313
f 1048/189 1043/231 1044/173
f 960/269 957/237 958/236
f 1354/339 490/344 1353/295
f 1171/214 1177/215 1176/216
f 1006/229 1011/230 1010/231
f 1003/189 1008/231 1007/173
f 483/335 509/248 510/208
f 973/189 978/231 977/173
f 1199/214 1205/215 1204/216
f 999/229 994/230 995/231
f 1001/229 992/230 997/231
f 1148/217 1152/218 1150/219
f 1033/229 1024/230 1029/231
f 971/189 976/231 975/173
f 987/172 998/173 991/174
f 1002/189 997/231 998/173
f 1000/189 995/231 996/173
f 984/172 977/173 980/174
f 1032/189 1027/231 1028/173
f 972/229 981/230 976/231
f 1209/167 1217/186 1211/168
f 1019/172 1030/173 1023/174
f 477/345 509/248 478/346
f 1021/172 1028/173 1025/174
f 1236/309 1230/171 1231/186
f 1004/229 1013/230 1008/231
f 1050/189 1045/231 1046/173
f 1031/229 1026/230 1027/231
f 1037/172 1044/173 1041/174
f 1195/309 1201/171 1200/186
f 1049/229 1040/230 1045/231
f 1219/253 1213/216 1214/176
f 1292/269 1299/273 1293/242
f 1288/326 1285/240 1286/310
f 521/263 522/262 518/196
f 538/261 596/347 578/174
f 1120/180 1126/230 1124/181
f 584/172 590/348 550/188
f 709/172 703/348 756/188
f 1170/253 1171/214 1176/216
f 768/261 697/347 715/174
f 780/296 777/278 779/297
f 677/231 650/260 649/261
f 926/251 925/252 939/243
f 888/269 890/242 889/264
f 902/251 904/326 903/276
f 566/231 530/260 529/261
f 1128/217 1142/215 1140/218
f 642/266 643/267 616/176
f 539/260 538/261 574/173
f 581/230 599/306 530/260
f 752/255 751/256 739/175
f 928/326 930/274 929/275
f 820/215 802/349 852/266
f 513/308 514/350 510/208
f 1351/321 487/254 486/322
f 855/241 856/282 829/186
f 926/251 928/326 927/276
f 1343/211 489/318 488/212
f 1137/217 1131/215 1133/218
f 775/205 776/351 772/206
f 1318/352 1351/321 1315/353
f 657/260 656/261 683/173
f 649/261 766/347 690/174
f 520/183 518/354 481/184
f 641/261 549/347 611/174
f 1278/238 1284/239 1269/240
f 482/207 483/335 510/208
f 1332/355 1325/356 1341/357
f 499/358 1340/257 498/359
f 1341/357 1321/360 1337/249
f 1052/180 1066/230 1064/181
f 712/218 737/214 749/260
f 696/172 742/348 658/188
f 1321/360 1354/339 1317/250
f 1265/312 1266/324 1260/269
f 655/266 654/267 681/176
f 1051/187 1053/244 1063/172
f 716/230 698/306 767/260
f 822/230 804/306 850/260
f 1080/180 1086/230 1084/181
f 1338/361 1318/352 1334/362
f 479/185 481/363 484/220
f 1190/214 1182/218 1184/215
f 1232/214 1224/218 1226/215
f 1235/169 1234/175 1229/170
f 1340/257 1324/364 1320/258
f 1246/238 1245/242 1251/273
f 731/231 767/260 768/261
f 579/215 597/349 536/266
f 648/261 531/347 607/174
f 851/261 803/347 821/174
f 713/172 707/348 747/188
f 1246/238 1252/239 1237/240
f 856/282 801/286 819/168
f 656/261 748/347 686/174
f 692/172 724/348 665/188
f 1194/309 1193/169 1188/171
f 872/210 871/222 867/200
f 1078/187 1076/244 1070/172
f 1289/280 1295/329 1296/302
f 711/167 705/284 753/285
f 792/296 789/278 791/297
f 645/241 618/171 617/170
f 610/215 543/349 642/266
f 908/235 910/236 909/237
f 1337/249 1321/360 1317/250
f 910/236 912/269 911/265
f 547/261 548/260 560/214
f 906/274 905/275 903/276
f 878/251 877/252 891/243
f 1223/167 1236/309 1231/186
f 1244/269 1243/236 1249/312
f 940/238 939/243 937/264
f 668/229 667/189 658/188
f 637/285 636/255 627/169
f 529/261 600/347 582/174
f 818/230 800/306 857/260
f 604/218 624/214 633/260
f 774/210 773/222 769/200
f 1079/187 1081/244 1083/172
f 787/275 784/277 783/278
f 1221/169 1220/175 1215/170
f 1208/167 1195/309 1200/186
f 500/365 1331/366 499/358
f 1220/175 1219/253 1214/176
f 764/241 728/171 727/170
f 1180/167 1167/309 1172/186
f 577/230 595/306 539/260
f 1320/367 1346/177 1323/368
f 743/229 744/189 756/188
f 870/199 868/369 867/200
f 1336/370 1323/368 1339/371
f 1334/362 1315/353 1331/366
f 1339/371 1319/372 1335/373
f 1197/175 1198/253 1203/176
f 720/230 702/306 758/260
f 1193/169 1192/175 1187/170
f 793/275 790/277 789/278
f 1319/372 1348/223 1316/374
f 479/185 480/221 519/303
f 1168/169 1169/175 1174/170
f 1346/177 496/320 495/178
f 875/270 897/271 895/272
f 1330/334 1313/375 1314/376
f 1222/309 1221/169 1216/171
f 861/210 862/222 866/200
f 1281/312 1282/324 1276/269
f 1333/190 1317/250 1326/191
f 1335/373 1316/374 1332/355
f 501/377 1334/362 500/365
f 1314/376 1328/378 1327/379
f 1109/180 1103/230 1105/181
f 626/175 635/256 634/261
f 498/359 1336/259 497/380
f 671/175 662/256 663/261
f 873/205 874/351 870/206
f 536/266 535/267 571/176
f 1018/172 1003/189 1007/173
f 507/381 1332/355 506/382
f 1348/223 494/305 493/224
f 772/199 770/369 769/200
f 786/296 783/278 785/297
f 1198/253 1199/214 1204/216
f 871/222 873/205 869/201
f 812/181 839/229 848/268
f 758/260 759/261 723/173
f 652/241 679/171 680/170
f 836/175 845/256 844/261
f 759/261 701/347 719/174
f 634/261 633/260 624/214
f 1345/319 485/383 496/320
f 1088/180 1102/230 1100/181
f 554/229 553/189 541/188
f 694/167 733/284 660/285
f 747/188 746/268 734/229
f 586/167 592/284 544/285
f 522/262 527/300 523/299
f 714/181 734/229 746/268
f 587/181 554/229 542/268
f 1297/312 1298/324 1292/269
f 588/172 594/348 541/188
f 1256/326 1254/310 1263/311
f 814/218 834/214 843/260
f 654/267 653/279 680/170
f 1352/179 495/178 494/305
f 701/187 707/244 713/172
f 1353/295 490/344 489/318
f 612/230 552/306 640/260
f 852/266 853/267 826/176
f 1138/166 1136/384 1134/167
f 1349/323 486/322 485/340
f 750/261 749/260 737/214
f 862/222 860/205 864/201
f 583/181 563/229 551/268
f 1350/317 492/316 491/338
f 815/172 809/348 842/188
f 986/172 971/189 975/173
f 846/255 845/256 836/175
f 974/229 983/181 979/230
f 1097/180 1091/230 1093/181
f 527/300 528/385 524/301
f 508/386 1335/373 507/381
f 1323/368 1352/179 1319/372
f 753/285 752/255 740/169
f 1158/166 1156/384 1146/167
f 1322/387 1347/213 1318/352
f 608/230 537/306 647/260
f 1240/326 1239/251 1237/240
f 1315/353 1349/323 1324/364
f 1016/172 1005/189 1009/173
f 519/303 517/388 518/304
f 504/389 1333/190 503/390
f 1342/192 1322/387 1338/361
f 505/391 1337/249 504/389
f 497/392 1339/371 508/386
f 503/390 1342/192 502/393
f 544/285 545/255 557/169
f 1119/187 1121/244 1123/172
f 1316/374 1344/225 1325/356
f 1293/242 1299/273 1300/239
f 863/199 865/369 866/200
f 1324/364 1345/341 1320/258
f 1289/274 1288/326 1286/310
f 797/332 798/394 1329/333
f 1181/167 1194/309 1189/186
f 1260/269 1266/324 1267/273
f 1167/309 1168/169 1173/171
f 1005/189 1006/229 1010/231
f 483/335 482/207 477/336
f 811/172 805/348 849/188
f 764/241 765/282 729/186
f 695/181 668/229 659/268
f 513/226 515/395 516/227
f 1192/175 1191/253 1186/176
f 1098/187 1096/244 1094/172
f 1317/250 1354/339 1353/295
f 860/205 859/351 863/206
f 1327/379 796/396 795/397
f 1159/166 1161/384 1163/167
f 558/175 546/256 547/261
f 1147/166 1149/384 1151/167
f 603/167 564/284 637/285
f 1326/191 1343/211 1322/387
f 1160/217 1166/215 1164/218
f 1035/172 1050/189 1046/173
f 502/393 1338/361 501/377
f 506/382 1341/357 505/391
f 1331/366 1324/364 1340/257
f 989/172 1000/189 996/173
f 651/282 757/286 688/168
f 601/172 555/348 639/188
f 1344/225 493/224 492/316
f 1325/356 1350/317 1321/360
f 515/314 511/325 512/209
f 874/202 872/210 868/203
f 1290/235 1296/302 1297/312
f 1276/269 1282/324 1283/273
f 1256/326 1255/251 1253/240
f 1272/326 1270/310 1279/311
f 1263/329 1264/302 1258/235
f 1247/329 1248/302 1242/235
f 893/313 876/310 875/270
f 875/270 898/398 897/271
f 897/271 896/399 895/272
f 895/272 894/400 893/313
f 842/188 841/268 832/229
f 1258/235 1264/302 1265/312
f 1034/189 1033/229 1029/231
f 1274/235 1280/302 1281/312
f 652/241 651/282 678/186
f 853/267 854/279 827/170
f 511/325 477/401 482/207
f 1244/269 1250/324 1251/273
f 847/285 846/255 837/169
f 917/313 900/310 899/270
f 899/270 922/398 921/271
f 921/271 920/399 919/272
f 919/272 918/400 917/313
f 689/230 760/306 650/260
f 605/172 573/348 632/188
f 1191/253 1190/214 1185/216
f 521/263 526/197 524/327
f 687/215 754/349 655/266
f 629/229 630/189 639/188
f 776/202 774/210 770/203
f 1218/214 1210/218 1212/215
f 685/230 745/306 657/260
f 941/313 924/310 923/270
f 923/270 946/398 945/271
f 945/271 944/399 943/272
f 943/272 942/400 941/313
f 762/267 763/279 727/170
f 632/188 631/268 622/229
f 859/202 861/210 865/203
f 765/282 699/286 717/168
f 739/175 751/256 750/261
f 519/303 480/221 484/330
f 1127/166 1129/384 1139/167
f 1240/326 1238/310 1247/311
f 533/241 569/171 570/170
f 965/313 948/310 947/270
f 947/270 970/398 969/271
f 969/271 968/399 967/272
f 967/272 966/400 965/313
f 844/261 843/260 834/214
f 640/260 641/261 614/173
f 858/261 799/347 817/174
f 884/235 883/281 881/343
f 878/251 880/326 879/276
f 1242/235 1248/302 1249/312
f 660/285 661/255 670/169
f 533/241 532/282 568/186
f 691/181 675/229 666/268
f 620/231 647/260 648/261
f 1278/238 1277/242 1283/273
f 1272/326 1271/251 1269/240
f 947/270 969/271 967/272
f 523/342 524/402 526/197
f 839/229 840/189 849/188
f 1273/280 1279/329 1280/302
f 693/218 673/214 664/260
f 850/260 851/261 824/173
f 1262/238 1268/239 1253/240
f 606/181 622/229 631/268
f 718/215 700/349 761/266
f 1061/180 1055/230 1057/181
f 532/282 598/286 580/168
f 1062/187 1060/244 1058/172
f 1071/180 1074/230 1073/181
f 602/181 629/229 638/268
f 665/188 666/268 675/229
f 663/261 664/260 673/214
f 545/255 546/256 558/175
f 953/343 954/280 956/235
f 535/267 534/279 570/170
f 950/251 952/326 951/276
f 585/218 560/214 548/260
f 1234/175 1233/253 1228/176
f 773/222 775/205 771/201
f 1047/229 1042/230 1043/231
f 958/236 957/237 955/281
f 960/269 962/242 961/264
f 952/326 954/274 953/275
f 950/251 949/252 963/243
f 934/236 936/269 935/265
f 964/238 963/243 961/264
f 923/270 945/271 943/272
f 1048/189 1047/229 1043/231
f 960/269 959/265 957/237
f 1354/339 491/338 490/344
f 1171/214 1179/218 1177/215
f 1006/229 1015/181 1011/230
f 1003/189 1004/229 1008/231
f 483/335 478/346 509/248
f 973/189 974/229 978/231
f 1199/214 1207/218 1205/215
f 999/229 990/181 994/230
f 1001/229 988/181 992/230
f 1148/217 1154/215 1152/218
f 1033/229 1020/181 1024/230
f 971/189 972/229 976/231
f 987/172 1002/189 998/173
f 1002/189 1001/229 997/231
f 1000/189 999/229 995/231
f 984/172 973/189 977/173
f 1032/189 1031/229 1027/231
f 972/229 985/181 981/230
f 1209/167 1222/309 1217/186
f 1019/172 1034/189 1030/173
f 477/345 511/245 509/248
f 1021/172 1032/189 1028/173
f 1236/309 1235/169 1230/171
f 1004/229 1017/181 1013/230
f 1050/189 1049/229 1045/231
f 1031/229 1022/181 1026/230
f 1037/172 1048/189 1044/173
f 1195/309 1196/169 1201/171
f 1049/229 1036/181 1040/230
f 1219/253 1218/214 1213/216
f 1292/269 1298/324 1299/273
f 1288/326 1287/251 1285/240
f 1318/352 1347/213 1351/321
f 1332/355 1316/374 1325/356
f 499/358 1331/366 1340/257
f 1341/357 1325/356 1321/360
f 1321/360 1350/317 1354/339
f 1338/361 1322/387 1318/352
f 500/365 1334/362 1331/366
f 1320/367 1345/319 1346/177
f 1336/370 1320/367 1323/368
f 1334/362 1318/352 1315/353
f 1339/371 1323/368 1319/372
f 1319/372 1352/179 1348/223
f 1330/334 1329/333 1313/375
f 1335/373 1319/372 1316/374
f 501/377 1338/361 1334/362
f 1314/376 1313/375 1328/378
f 498/359 1340/257 1336/259
f 507/381 1335/373 1332/355
f 508/386 1339/371 1335/373
f 1323/368 1346/177 1352/179
f 1322/387 1343/211 1347/213
f 1315/353 1351/321 1349/323
f 504/389 1337/249 1333/190
f 1342/192 1326/191 1322/387
f 505/391 1341/357 1337/249
f 497/392 1336/370 1339/371
f 503/390 1333/190 1342/192
f 1316/374 1348/223 1344/225
f 1324/364 1349/323 1345/341
f 1327/379 1328/378 796/396
f 1326/191 1353/295 1343/211
f 502/393 1342/192 1338/361
f 506/382 1332/355 1341/357
f 1331/366 1315/353 1324/364
f 1325/356 1344/225 1350/317
f 1047/229 1038/181 1042/230
o Tube
v 0 5 -0.4375
v 0 6 -0.4375
v 0.2188 5 -0.3789
v 0.2188 6 -0.3789
v 0.3789 5 -0.2188
v 0.3789 6 -0.2188
v 0.4375 5 -0
v 0.4375 6 -0
v 0.3789 5 0.2188
v 0.3789 6 0.2188
v 0.2188 5 0.3789
v 0.2188 6 0.3789
v 0 5 0.4375
v 0 6 0.4375
v -0.2188 5 0.3789
v -0.2188 6 0.3789
v -0.3789 5 0.2188
v -0.3789 6 0.2188
v -0.4375 5 -0
v -0.4375 6 -0
v -0.3789 5 -0.2188
v -0.3789 6 -0.2188
v -0.2188 5 -0.3789
v -0.2188 6 -0.3789
vt 0.9 0.2025
vt 0.925 0
vt 0.925 0.2025
vt 0.875 0.2025
vt 0.9 0
vt 0.8 0.2025
vt 0.825 0
vt 0.825 0.2025
vt 0.775 0.2025
vt 0.8 0
vt 0.95 0.2025
vt 0.975 -0
vt 0.975 0.2025
vt 1 -0
vt 1 0.2025
vt 0.725 0.2025
vt 0.75 0
vt 0.75 0.2025
vt 0.95 0
vt 0.85 0
vt 0.85 0.2025
vt 0.875 0
vt 0.775 0
vt 0.725 0
vt 0.7 0.2025
vt 0.7 0
s 1
f 1364/403 1361/404 1362/405
f 1366/406 1363/407 1364/403
f 1372/408 1369/409 1370/410
f 1374/411 1371/412 1372/408
f 1364/403 1363/407 1361/404
f 1360/413 1357/414 1358/415
f 1358/415 1355/416 1356/417
f 1378/418 1375/419 1376/420
f 1362/405 1359/421 1360/413
f 1370/410 1367/422 1368/423
f 1368/423 1365/424 1366/406
f 1376/420 1373/425 1374/411
f 1368/423 1367/422 1365/424
f 1372/408 1371/412 1369/409
f 1378/418 1377/426 1375/419
f 1370/410 1369/409 1367/422
f 1366/406 1365/424 1363/407
f 1374/411 1373/425 1371/412
f 1376/420 1375/419 1373/425
f 1358/415 1357/414 1355/416
f 1362/405 1361/404 1359/421
f 1356/427 1355/428 1377/426
f 1360/413 1359/421 1357/414
f 1356/427 1377/426 1378/418
