o Cube_Cube.001
v -6.5 3 6.5
v -6.5 5 6.5
v -6.5 3 -6.5
v -6.5 5 -6.5
v 6.5 3 6.5
v 6.5 5 6.5
v 6.5 3 -6.5
v 6.5 5 -6.5
v -1.5 5 1.5
v 1.5 5 1.5
v -1.5 5 -1.5
v 1.5 5 -1.5
v 3.5 5 1.5
v 3.5 5 -1.5
v -1.5 5 -3.5
v 1.5 5 -3.5
v -3.5 5 1.5
v -3.5 5 -1.5
v -1.5 5 3.5
v 1.5 5 3.5
v -0.5 5 4.5
v 0.5 5 4.5
v -0.5 5 -4.5
v 0.5 5 -4.5
v -4.5 5 0.5
v -4.5 5 -0.5
v 4.5 5 0.5
v 4.5 5 -0.5
v -1.5 3 1.5
v 1.5 3 1.5
v -1.5 3 -1.5
v 1.5 3 -1.5
v 3.5 3 1.5
v 3.5 3 -1.5
v -1.5 3 -3.5
v 1.5 3 -3.5
v -3.5 3 1.5
v -3.5 3 -1.5
v -1.5 3 3.5
v 1.5 3 3.5
v -0.5 3 4.5
v 0.5 3 4.5
v -0.5 3 -4.5
v 0.5 3 -4.5
v -4.5 3 0.5
v -4.5 3 -0.5
v 4.5 3 0.5
v 4.5 3 -0.5
v -1.5 3.25 2
v 1.5 3.25 2
v -1.5 3.25 1.75
v 1.5 3.25 1.75
v -1.5 3.5 2
v 1.5 3.5 2
v -1.5 3.5 1.75
v 1.5 3.5 1.75
v -1.5 3.25 -1.75
v 1.5 3.25 -1.75
v -1.5 3.25 -2
v 1.5 3.25 -2
v -1.5 3.5 -1.75
v 1.5 3.5 -1.75
v -1.5 3.5 -2
v 1.5 3.5 -2
v 2 3.25 1.5
v 2 3.25 -1.5
v 1.75 3.25 1.5
v 1.75 3.25 -1.5
v 2 3.5 1.5
v 2 3.5 -1.5
v 1.75 3.5 1.5
v 1.75 3.5 -1.5
v -1.75 3.25 1.5
v -1.75 3.25 -1.5
v -2 3.25 1.5
v -2 3.25 -1.5
v -1.75 3.5 1.5
v -1.75 3.5 -1.5
v -2 3.5 1.5
v -2 3.5 -1.5
v -6.5 4 -6.5
v -6.5 3 -0
v 6.5 4 -6.5
v 0 3 -6.5
v 6.5 4 6.5
v 6.5 3 -0
v -6.5 4 6.5
v 0 3 6.5
v 1.5 4 1.5
v 1.5 3 2.5
v 1.5 4 3.5
v -3.5 5 -5.5
v -4 5 -5
v -5.5 5 -3.5
v -5 5 -4
v -5.5 5 -3
v 3 5 -5.5
v 3.5 5 -5.5
v 5.5 5 3
v 5.5 5 3.5
v 5 5 4
v 2.5 5 2.5
v 4 5 5
v 3.5 5 5.5
v -3 5 5.5
v -3.5 5 5.5
v 2.5 3 1.5
v 3.5 4 1.5
v 4.5 4 0.5
v 3.5 4 -1.5
v 1.5 4 -1.5
v 2.5 3 -1.5
v 1.5 3 -2.5
v 1.5 4 -3.5
v 0.5 4 -4.5
v -1.5 4 -3.5
v -1.5 4 -1.5
v -1.5 3 -2.5
v -2.5 3 -1.5
v -3.5 4 -1.5
v -4.5 4 -0.5
v -3.5 4 1.5
v -1.5 4 1.5
v -2.5 3 1.5
v -1.5 3 2.5
v -1.5 4 3.5
v -0.5 4 4.5
v -3 3 5.5
v -3.5 3 5.5
v 5.5 3 3
v 5.5 3 3.5
v 5 3 4
v 3.5 3 5.5
v 4 3 5
v 2.5 3 2.5
v 3 3 -5.5
v 3.5 3 -5.5
v -5.5 3 -3
v -5.5 3 -3.5
v 4 3 -5
v 5.5 3 -3.5
v 5 3 -4
v 2.5 3 -2.5
v -3.5 3 -5.5
v -4 3 -5
v -5 3 -4
v -2.5 3 -2.5
v -5.5 3 3.5
v -5 3 4
v -2.5 3 2.5
v -4 3 5
v 4 5 -5
v 5.5 5 -3.5
v 5 5 -4
v -5.5 5 3.5
v -5 5 4
v -4 5 5
v -2.5 5 2.5
v 2.5 5 -2.5
v -2.5 5 -2.5
v 0 3.5 2
v 0 3.25 2
v 0 3.5 1.75
v 0 3.5 -1.75
v 0 3.25 -1.75
v 0 3.5 -2
v 2 3.5 -0
v 2 3.25 -0
v 1.75 3.5 -0
v -1.75 3.5 -0
v -1.75 3.25 -0
v -2 3.5 -0
v 0 5 3.5
v 1.5 5 2.5
v -3.5 5 -0
v -2.5 5 1.5
v 0 5 -3.5
v -1.5 5 -2.5
v 3.5 5 -0
v 2.5 5 -1.5
v 0 5 -1.5
v -1.5 5 -0
v -6.5 5 -0
v 0 5 -6.5
v 6.5 5 -0
v 0 5 6.5
v 0.5 4 4.5
v 2.5 5 1.5
v 4.5 4 -0.5
v 1.5 5 -2.5
v -0.5 4 -4.5
v -2.5 5 -1.5
v -4.5 4 0.5
v -1.5 5 2.5
v 0 3.25 1.75
v 0 3.25 -2
v 1.75 3.25 -0
v -2 3.25 -0
v -0.5 5 4
v 0 5 1.5
v -4 5 -0.5
v 0.5 5 -4
v 4 5 0.5
v 1.5 5 -0
v 0 5 -0
v -2.5 4 1.5
v -2.5 4 -1.5
v 2.5 5 -0
v 1.5 4 -2.5
v 0 5 -2.5
v 2.5 4 1.5
v 0 5 2.5
v 6.5 4 -0
v 0 4 6.5
v -1.5 4 -2.5
v -2.5 5 -0
v 1.5 4 2.5
v 0 4 -6.5
v -6.5 4 -0
v 2.5 4 -1.5
v -1.5 4 2.5
v -6.5 3 -3.25
v 5.25 5 5.75
v 3.25 3 -6.5
v 6.5 3 -3.25
v 3.25 3 6.5
v -4.75 5 6
v -2 5 -5
v -2.75 5 -4.25
v -5 5 -2
v -4.25 5 -2.75
v -5 5 -1.25
v 1.25 5 -5
v 2 5 -5
v 5 5 1.25
v 5 5 2
v 4.25 5 2.75
v 2.75 5 4.25
v 2 5 5
v -1.25 5 5
v -2 5 5
v 5 5 6
v -5.75 5 -5.25
v 6 5 4.75
v -5 5 6
v -5 5 -6
v -1.25 3 5
v -2 3 5
v 5 3 1.25
v 5 3 2
v 4.25 3 2.75
v 2 3 5
v 2.75 3 4.25
v 1.25 3 -5
v 2 3 -5
v -5 3 -1.25
v -5 3 -2
v 2.75 3 -4.25
v 5 3 -2
v 4.25 3 -2.75
v -2 3 -5
v -2.75 3 -4.25
v -4.25 3 -2.75
v -5 3 2
v -4.25 3 2.75
v -2.75 3 4.25
v 2.75 5 -4.25
v 5 5 -2
v 4.25 5 -2.75
v -5 5 2
v -4.25 5 2.75
v -2.75 5 4.25
v 0.75 3.5 2
v -5.25 5 -5.75
v 0.75 3.25 2
v -6 5 -5
v 0.75 3.5 1.75
v 6.5 3 3.25
v 0.75 3.5 -1.75
v -6.5 3 3.25
v -6 5 -4.75
v 0.75 3.25 -1.75
v 0.75 3.5 -2
v 4.75 5 -6
v 2 3.5 -0.75
v 5 5 -6
v 2 3.25 -0.75
v -3.25 3 6.5
v 1.75 3.5 -0.75
v -1.75 3.5 -0.75
v 6 5 5
v -1.75 3.25 -0.75
v -2 3.5 -0.75
v 0.75 5 3.5
v 5.75 5 5.25
v -3.5 5 -0.75
v 0.75 5 -3.5
v -3.25 3 -6.5
v 3.5 5 -0.75
v 0.75 5 -1.5
v -1.5 5 -0.75
v -6.5 5 -3.25
v 3.25 5 -6.5
v 6.5 5 -3.25
v 3.25 5 6.5
v 0.75 3.25 1.75
v 0.75 3.25 -2
v 1.75 3.25 -0.75
v -2 3.25 -0.75
v 0.75 5 1.5
v 1.5 5 -0.75
v -4.75 3 6
v -5 3 6
v 6 3 4.75
v 6 3 5
v 5.75 3 5.25
v 5 3 6
v 5.25 3 5.75
v 4.75 3 -6
v 5 3 -6
v -6 3 -4.75
v -6 3 -5
v 5.25 3 -5.75
v 6 3 -5
v 5.75 3 -5.25
v -5 3 -6
v -5.25 3 -5.75
v -5.75 3 -5.25
v -6 3 5
v -5.75 3 5.25
v -5.25 3 5.75
v 5.25 5 -5.75
v 6 5 -5
v 5.75 5 -5.25
v -6 5 5
v -5.75 5 5.25
v -5.25 5 5.75
v -0.75 3.5 2
v -0.75 3.25 2
v -0.75 3.5 1.75
v -0.75 3.5 -1.75
v -0.75 3.25 -1.75
v -0.75 3.5 -2
v 2 3.5 0.75
v 2 3.25 0.75
v 1.75 3.5 0.75
v -1.75 3.5 0.75
v -1.75 3.25 0.75
v -2 3.5 0.75
v -0.75 5 3.5
v -3.5 5 0.75
v -0.75 5 -3.5
v 3.5 5 0.75
v -0.75 5 -1.5
v -1.5 5 0.75
v -6.5 5 3.25
v -3.25 5 -6.5
v 6.5 5 3.25
v -3.25 5 6.5
v -0.75 3.25 1.75
v -0.75 3.25 -2
v 1.75 3.25 0.75
v -2 3.25 0.75
v -0.75 5 1.5
v 1.5 5 0.75
v -0.75 5 -0
v 0.75 5 -0
v 0 5 0.75
v 0 5 -0.75
v -3.25 3 3.75
v -3.75 3 3.25
v -3.75 3 -3.25
v -3.25 3 -3.75
v 3.25 3 -3.75
v 3.75 3 -3.25
v -5.5 3 0.25
v -6 3 1.75
v -6 3 -1.5
v -0.25 3 -5.5
v -1.75 3 -6
v 1.5 3 -6
v 3.75 3 3.25
v 3.25 3 3.75
v 5.5 3 -0.25
v 6 3 -1.75
v 6 3 1.5
v 0.25 3 5.5
v 1.75 3 6
v -1.5 3 6
v -1.5 5 6
v 1.75 5 6
v 0.25 5 5.5
v 6 5 1.5
v 6 5 -1.75
v 5.5 5 -0.25
v 1.5 5 -6
v -1.75 5 -6
v -0.25 5 -5.5
v -6 5 -1.5
v -6 5 1.75
v -5.5 5 0.25
v 2.5 5 -0.75
v 2.5 5 0.75
v -0.75 5 -2.5
v 0.75 5 -2.5
v -3.75 5 -3.25
v -3.25 5 -3.75
v 3.25 5 -3.75
v 3.75 5 -3.25
v -3.25 5 3.75
v -3.75 5 3.25
v 0.75 5 2.5
v -0.75 5 2.5
v 6.5 4 -3.25
v 6.5 4 3.25
v 3.25 4 6.5
v -3.25 4 6.5
v -2.5 5 0.75
v -2.5 5 -0.75
v -3.25 4 -6.5
v 3.25 4 -6.5
v -6.5 4 3.25
v -6.5 4 -3.25
v 3.75 5 3.25
v 3.25 5 3.75
v -0.75 5 -0.75
v 0.75 5 0.75
v 0.75 5 -0.75
v -0.75 5 0.75
v -6.5 3 -4.875
v 4.875 3 -6.5
v 6.5 3 -4.875
v 4.875 3 6.5
v -3.875 5 5.75
v -1.25 5 -4.75
v -4.75 5 -1.25
v -4.75 5 -0.375
v 0.375 5 -4.75
v 1.25 5 -4.75
v 4.75 5 0.375
v 4.75 5 1.25
v 1.25 5 4.75
v -0.375 5 4.75
v -1.25 5 4.75
v 4.25 5 5.75
v 5.75 5 3.875
v -4.25 5 5.75
v -4.25 5 -5.75
v -0.375 3 4.75
v -1.25 3 4.75
v 4.75 3 0.375
v 4.75 3 1.25
v 1.25 3 4.75
v 0.375 3 -4.75
v 1.25 3 -4.75
v -4.75 3 -0.375
v -4.75 3 -1.25
v 4.75 3 -1.25
v -1.25 3 -4.75
v -4.75 3 1.25
v 4.75 5 -1.25
v -4.75 5 1.25
v -5.75 5 -4.25
v 6.5 3 1.625
v -6.5 3 1.625
v -5.75 5 -3.875
v 3.875 5 -5.75
v 4.25 5 -5.75
v -1.625 3 6.5
v 5.75 5 4.25
v -1.625 3 -6.5
v -6.5 5 -4.875
v 4.875 5 -6.5
v 6.5 5 -4.875
v 4.875 5 6.5
v -3.875 3 5.75
v -4.25 3 5.75
v 5.75 3 3.875
v 5.75 3 4.25
v 4.25 3 5.75
v 3.875 3 -5.75
v 4.25 3 -5.75
v -5.75 3 -3.875
v -5.75 3 -4.25
v 5.75 3 -4.25
v -4.25 3 -5.75
v -5.75 3 4.25
v 5.75 5 -4.25
v -5.75 5 4.25
v -6.5 5 1.625
v -1.625 5 -6.5
v 6.5 5 1.625
v -1.625 5 6.5
v -5.5 3 -1.375
v -6.25 3 0.875
v -6.25 3 -0.75
v 1.375 3 -5.5
v -0.875 3 -6.25
v 0.75 3 -6.25
v 5.5 3 1.375
v 6.25 3 -0.875
v 6.25 3 0.75
v -1.375 3 5.5
v 0.875 3 6.25
v -0.75 3 6.25
v -2.25 5 5.75
v 2.625 5 5.75
v 1.875 5 5.5
v 5.75 5 2.25
v 5.75 5 -2.625
v 5.5 5 -1.875
v 2.25 5 -5.75
v -2.625 5 -5.75
v -1.875 5 -5.5
v -5.75 5 -2.25
v -5.75 5 2.625
v -5.5 5 1.875
v 6.5 4 -4.875
v 6.5 4 1.625
v 4.875 4 6.5
v -1.625 4 6.5
v -4.875 4 -6.5
v 1.625 4 -6.5
v -6.5 4 4.875
v -6.5 4 -1.625
v -6.5 3 -1.625
v 1.625 3 -6.5
v 6.5 3 -1.625
v 1.625 3 6.5
v -5.625 5 6.25
v -2.75 5 -5.25
v -5.25 5 -2.75
v -5.25 5 -2.125
v 2.125 5 -5.25
v 2.75 5 -5.25
v 5.25 5 2.125
v 5.25 5 2.75
v 2.75 5 5.25
v -2.125 5 5.25
v -2.75 5 5.25
v 5.75 5 6.25
v 6.25 5 5.625
v -5.75 5 6.25
v -5.75 5 -6.25
v -2.125 3 5.25
v -2.75 3 5.25
v 5.25 3 2.125
v 5.25 3 2.75
v 2.75 3 5.25
v 2.125 3 -5.25
v 2.75 3 -5.25
v -5.25 3 -2.125
v -5.25 3 -2.75
v 5.25 3 -2.75
v -2.75 3 -5.25
v -5.25 3 2.75
v 5.25 5 -2.75
v -5.25 5 2.75
v -6.25 5 -5.75
v 6.5 3 4.875
v -6.5 3 4.875
v -6.25 5 -5.625
v 5.625 5 -6.25
v 5.75 5 -6.25
v -4.875 3 6.5
v 6.25 5 5.75
v -4.875 3 -6.5
v -6.5 5 -1.625
v 1.625 5 -6.5
v 6.5 5 -1.625
v 1.625 5 6.5
v -5.625 3 6.25
v -5.75 3 6.25
v 6.25 3 5.625
v 6.25 3 5.75
v 5.75 3 6.25
v 5.625 3 -6.25
v 5.75 3 -6.25
v -6.25 3 -5.625
v -6.25 3 -5.75
v 6.25 3 -5.75
v -5.75 3 -6.25
v -6.25 3 5.75
v 6.25 5 -5.75
v -6.25 5 5.75
v -6.5 5 4.875
v -4.875 5 -6.5
v 6.5 5 4.875
v -4.875 5 6.5
v -5.5 3 1.875
v -5.75 3 2.625
v -5.75 3 -2.25
v -1.875 3 -5.5
v -2.625 3 -5.75
v 2.25 3 -5.75
v 5.5 3 -1.875
v 5.75 3 -2.625
v 5.75 3 2.25
v 1.875 3 5.5
v 2.625 3 5.75
v -2.25 3 5.75
v -0.75 5 6.25
v 0.875 5 6.25
v -1.375 5 5.5
v 6.25 5 0.75
v 6.25 5 -0.875
v 5.5 5 1.375
v 0.75 5 -6.25
v -0.875 5 -6.25
v 1.375 5 -5.5
v -6.25 5 -0.75
v -6.25 5 0.875
v -5.5 5 -1.375
v 6.5 4 -1.625
v 6.5 4 4.875
v 1.625 4 6.5
v -4.875 4 6.5
v -1.625 4 -6.5
v 4.875 4 -6.5
v -6.5 4 1.625
v -6.5 4 -4.875
v -5.25 5 -0.5
v -5.25 5 1.125
v -5 5 0.375
v -5.75 5 -0.625
v -6 5 0.125
v -5.75 5 1
v -6.25 5 -4
v -6.25 5 -2.375
v -6 5 -3.125
v 0.5 5 -5.25
v -1.125 5 -5.25
v -0.375 5 -5
v 0.625 5 -5.75
v -0.125 5 -6
v -1 5 -5.75
v 4 5 -6.25
v 2.375 5 -6.25
v 3.125 5 -6
v 5.25 5 0.5
v 5.25 5 -1.125
v 5 5 -0.375
v 5.75 5 0.625
v 6 5 -0.125
v 5.75 5 -1
v 6.25 5 4
v 6.25 5 2.375
v 6 5 3.125
v -0.5 5 5.25
v 1.125 5 5.25
v 0.375 5 5
v -0.625 3 5.75
v 1 3 5.75
v 0.125 3 6
v 3.125 3 -6
v 2.375 3 -6.25
v 4 3 -6.25
v -6 3 3.375
v -6.25 3 4.125
v -6.25 3 2.5
v -3.375 3 -6
v -4.125 3 -6.25
v -2.5 3 -6.25
v 6 3 -3.375
v 6.25 3 -4.125
v 6.25 3 -2.5
v 3.375 3 6
v 4.125 3 6.25
v 2.5 3 6.25
v -5.75 3 -0.625
v -5.75 3 1
v -6 3 0.125
v 5 3 -0.375
v 5.25 3 -1.125
v 5.25 3 0.5
v -4 5 6.25
v -2.375 5 6.25
v -3.125 5 6
v 6 3 3.125
v 6.25 3 2.375
v 6.25 3 4
v 0.375 3 5
v 1.125 3 5.25
v -0.5 3 5.25
v -0.375 3 -5
v -1.125 3 -5.25
v 0.5 3 -5.25
v 0.625 3 -5.75
v -1 3 -5.75
v -0.125 3 -6
v -0.625 5 5.75
v 0.125 5 6
v 1 5 5.75
v 2.5 5 6.25
v 4.125 5 6.25
v 3.375 5 6
v 6.25 5 -2.5
v 6.25 5 -4.125
v 6 5 -3.375
v -2.5 5 -6.25
v -4.125 5 -6.25
v -3.375 5 -6
v -6.25 5 2.5
v -6.25 5 4.125
v -6 5 3.375
v -5 3 0.375
v -5.25 3 1.125
v -5.25 3 -0.5
v -6 3 -3.125
v -6.25 3 -2.375
v -6.25 3 -4
v 5.75 3 0.625
v 5.75 3 -1
v 6 3 -0.125
v -3.125 3 6
v -2.375 3 6.25
v -4 3 6.25
v -6.5 3 -5.6875
v 5.6875 3 -6.5
v 6.5 3 -5.6875
v 5.6875 3 6.5
v 6.5 3 0.8125
v -6.5 3 0.8125
v -0.8125 3 6.5
v -0.8125 3 -6.5
v -6.5 5 -5.6875
v 5.6875 5 -6.5
v 6.5 5 -5.6875
v 5.6875 5 6.5
v -6.5 5 0.8125
v -0.8125 5 -6.5
v 6.5 5 0.8125
v -0.8125 5 6.5
v -5.5 3 -2.1875
v 2.1875 3 -5.5
v 5.5 3 2.1875
v -2.1875 3 5.5
v 2.6875 5 5.5
v 5.5 5 -2.6875
v -2.6875 5 -5.5
v -5.5 5 2.6875
v 6.5 4 -5.6875
v 6.5 4 0.8125
v 5.6875 4 6.5
v -0.8125 4 6.5
v -5.6875 4 -6.5
v 0.8125 4 -6.5
v -6.5 4 5.6875
v -6.5 4 -0.8125
v -6.5 3 -2.4375
v 2.4375 3 -6.5
v 6.5 3 -2.4375
v 2.4375 3 6.5
v 6.5 3 4.0625
v -6.5 3 4.0625
v -4.0625 3 6.5
v -4.0625 3 -6.5
v -6.5 5 -2.4375
v 2.4375 5 -6.5
v 6.5 5 -2.4375
v 2.4375 5 6.5
v -6.5 5 4.0625
v -4.0625 5 -6.5
v 6.5 5 4.0625
v -4.0625 5 6.5
v -5.5 3 1.0625
v -1.0625 3 -5.5
v 5.5 3 -1.0625
v 1.0625 3 5.5
v -0.5625 5 5.5
v 5.5 5 0.5625
v 0.5625 5 -5.5
v -5.5 5 -0.5625
v 6.5 4 -2.4375
v 6.5 4 4.0625
v 2.4375 4 6.5
v -4.0625 4 6.5
v -2.4375 4 -6.5
v 4.0625 4 -6.5
v -6.5 4 2.4375
v -6.5 4 -4.0625
v -5 5 1.1875
v -6 5 0.9375
v -6 5 -2.3125
v -1.1875 5 -5
v -0.9375 5 -6
v 2.3125 5 -6
v 5 5 -1.1875
v 6 5 -0.9375
v 6 5 2.3125
v 1.1875 5 5
v 0.9375 3 6
v 3.9375 3 -6
v -6 3 2.5625
v -2.5625 3 -6
v 6 3 -2.5625
v 2.5625 3 6
v -6 3 0.9375
v 5 3 0.4375
v -2.3125 5 6
v 6 3 3.9375
v -0.4375 3 5
v 0.4375 3 -5
v -0.9375 3 -6
v 0.9375 5 6
v 4.1875 5 6
v 6 5 -4.1875
v -4.1875 5 -6
v -6 5 4.1875
v -5 3 -0.4375
v -6 3 -3.9375
v 6 3 -0.9375
v -3.9375 3 6
v -6.5 3 -4.0625
v 4.0625 3 -6.5
v 6.5 3 -4.0625
v 4.0625 3 6.5
v 6.5 3 2.4375
v -6.5 3 2.4375
v -2.4375 3 6.5
v -2.4375 3 -6.5
v -6.5 5 -4.0625
v 4.0625 5 -6.5
v 6.5 5 -4.0625
v 4.0625 5 6.5
v -6.5 5 2.4375
v -2.4375 5 -6.5
v 6.5 5 2.4375
v -2.4375 5 6.5
v -5.5 3 -0.5625
v 0.5625 3 -5.5
v 5.5 3 0.5625
v -0.5625 3 5.5
v 1.0625 5 5.5
v 5.5 5 -1.0625
v -1.0625 5 -5.5
v -5.5 5 1.0625
v 6.5 4 -4.0625
v 6.5 4 2.4375
v 4.0625 4 6.5
v -2.4375 4 6.5
v -4.0625 4 -6.5
v 2.4375 4 -6.5
v -6.5 4 4.0625
v -6.5 4 -2.4375
v -6.5 3 -0.8125
v 0.8125 3 -6.5
v 6.5 3 -0.8125
v 0.8125 3 6.5
v 6.5 3 5.6875
v -6.5 3 5.6875
v -5.6875 3 6.5
v -5.6875 3 -6.5
v -6.5 5 -0.8125
v 0.8125 5 -6.5
v 6.5 5 -0.8125
v 0.8125 5 6.5
v -6.5 5 5.6875
v -5.6875 5 -6.5
v 6.5 5 5.6875
v -5.6875 5 6.5
v -5.5 3 2.6875
v -2.6875 3 -5.5
v 5.5 3 -2.6875
v 2.6875 3 5.5
v -2.1875 5 5.5
v 5.5 5 2.1875
v 2.1875 5 -5.5
v -5.5 5 -2.1875
v 6.5 4 -0.8125
v 6.5 4 5.6875
v 0.8125 4 6.5
v -5.6875 4 6.5
v -0.8125 4 -6.5
v 5.6875 4 -6.5
v -6.5 4 0.8125
v -6.5 4 -5.6875
v -5 5 -0.4375
v -6 5 -0.6875
v -6 5 -3.9375
v 0.4375 5 -5
v 0.6875 5 -6
v 3.9375 5 -6
v 5 5 0.4375
v 6 5 0.6875
v 6 5 3.9375
v -0.4375 5 5
v -0.6875 3 6
v 2.3125 3 -6
v -6 3 4.1875
v -4.1875 3 -6
v 6 3 -4.1875
v 4.1875 3 6
v -6 3 -0.6875
v 5 3 -1.1875
v -3.9375 5 6
v 6 3 2.3125
v 1.1875 3 5
v -1.1875 3 -5
v 0.6875 3 -6
v -0.6875 5 6
v 2.5625 5 6
v 6 5 -2.5625
v -2.5625 5 -6
v -6 5 2.5625
v -5 3 1.1875
v -6 3 -2.3125
v 6 3 0.6875
v -2.3125 3 6
v -4.8125 3 6.25
v -3.1875 3 6.25
v -3.0625 3 5.75
v 6.25 3 -0.0625
v 5.75 3 -0.1875
v 5.75 3 1.4375
v -6.25 3 -4.8125
v -6.25 3 -3.1875
v -5.75 3 -3.0625
v -5.25 3 -1.3125
v -5.25 3 0.3125
v -4.75 3 0.4375
v -5.75 5 3.4375
v -6.25 5 3.3125
v -6.25 5 1.6875
v -3.4375 5 -5.75
v -3.3125 5 -6.25
v -1.6875 5 -6.25
v 5.75 5 -3.4375
v 6.25 5 -3.3125
v 6.25 5 -1.6875
v 3.4375 5 5.75
v 3.3125 5 6.25
v 1.6875 5 6.25
v 1.8125 5 5.75
v 0.1875 5 5.75
v -1.4375 5 5.75
v -0.0625 3 -6.25
v -0.1875 3 -5.75
v 1.4375 3 -5.75
v 1.3125 3 -5.25
v -0.3125 3 -5.25
v -0.4375 3 -4.75
v -1.3125 3 5.25
v 0.3125 3 5.25
v 0.4375 3 4.75
v 6.25 3 4.8125
v 6.25 3 3.1875
v 5.75 3 3.0625
v -3.0625 5 5.75
v -3.1875 5 6.25
v -4.8125 5 6.25
v 5.25 3 1.3125
v 5.25 3 -0.3125
v 4.75 3 -0.4375
v -6.25 3 0.0625
v -5.75 3 0.1875
v -5.75 3 -1.4375
v 1.6875 3 6.25
v 3.3125 3 6.25
v 3.4375 3 5.75
v 6.25 3 -1.6875
v 6.25 3 -3.3125
v 5.75 3 -3.4375
v -1.6875 3 -6.25
v -3.3125 3 -6.25
v -3.4375 3 -5.75
v -6.25 3 1.6875
v -6.25 3 3.3125
v -5.75 3 3.4375
v 4.8125 3 -6.25
v 3.1875 3 -6.25
v 3.0625 3 -5.75
v 0.0625 3 6.25
v 0.1875 3 5.75
v -1.4375 3 5.75
v 0.4375 5 4.75
v 0.3125 5 5.25
v -1.3125 5 5.25
v 5.75 5 3.0625
v 6.25 5 3.1875
v 6.25 5 4.8125
v 5.75 5 -1.8125
v 5.75 5 -0.1875
v 5.75 5 1.4375
v 4.75 5 -0.4375
v 5.25 5 -0.3125
v 5.25 5 1.3125
v 3.0625 5 -5.75
v 3.1875 5 -6.25
v 4.8125 5 -6.25
v -1.8125 5 -5.75
v -0.1875 5 -5.75
v 1.4375 5 -5.75
v -0.4375 5 -4.75
v -0.3125 5 -5.25
v 1.3125 5 -5.25
v -5.75 5 -3.0625
v -6.25 5 -3.1875
v -6.25 5 -4.8125
v -5.75 5 1.8125
v -5.75 5 0.1875
v -5.75 5 -1.4375
v -4.75 5 0.4375
v -5.25 5 0.3125
v -5.25 5 -1.3125
v -5.25 5 1.9375
v -6.25 5 0.0625
v -6.25 5 -1.5625
v -1.9375 5 -5.25
v -0.0625 5 -6.25
v 1.5625 5 -6.25
v 5.25 5 -1.9375
v 6.25 5 -0.0625
v 6.25 5 1.5625
v 1.9375 5 5.25
v 1.8125 3 5.75
v 1.5625 3 -6.25
v -6.25 3 4.9375
v -4.9375 3 -6.25
v 6.25 3 -4.9375
v 4.9375 3 6.25
v -5.75 3 1.8125
v 5.25 3 -1.9375
v -1.5625 5 6.25
v 6.25 3 1.5625
v 1.9375 3 5.25
v -1.9375 3 -5.25
v -1.8125 3 -5.75
v 0.0625 5 6.25
v 4.9375 5 6.25
v 6.25 5 -4.9375
v -4.9375 5 -6.25
v -6.25 5 4.9375
v -5.25 3 1.9375
v -6.25 3 -1.5625
v 5.75 3 -1.8125
v -1.5625 3 6.25
vt 0.8558 0.3077
vt 0.8846 0.3173
vt 0.8558 0.3173
vt 0.6154 0.5385
vt 0.6538 0.5769
vt 0.6154 0.5769
vt 0.8558 0.3365
vt 0.8846 0.3462
vt 0.8558 0.3462
vt 0.7308 0.3077
vt 0.7692 0.3462
vt 0.7308 0.3462
vt 0.6538 0.3077
vt 0.6923 0.3462
vt 0.6538 0.3462
vt 0.5 0.4231
vt 0.5385 0.3846
vt 0.5385 0.4231
vt 0.4904 0.4712
vt 0.4712 0.4519
vt 0.4808 0.4423
vt 0.4519 0.4712
vt 0.4712 0.4904
vt 0.4423 0.4808
vt 0.4663 0.4904
vt 0.5 0.5
vt 0.4904 0.0337
vt 0.4904 0.0288
vt 0.5 0
vt 0.0337 0.0096
vt 0.0288 0.0096
vt 0 -0
vt 0.0481 0.0288
vt 0.0577 0.0192
vt 0.0865 0.1442
vt 0.0577 0.0962
vt 0.1058 0.125
vt 0.0096 0.0288
vt 0.0288 0.0481
vt 0.0192 0.0577
vt 0.0096 0.4663
vt 0.0096 0.4712
vt -0 0.5
vt 0.5769 0.4231
vt 0.6154 0.3846
vt 0.6154 0.4231
vt 0.7981 0.3269
vt 0.7692 0.3173
vt 0.7981 0.3173
vt 0.6538 0.5385
vt 0.6923 0.5769
vt 0.5 0.2692
vt 0.5312 0.2308
vt 0.5312 0.2692
vt 0.5 0.1923
vt 0.5312 0.1538
vt 0.5312 0.1923
vt 0.6538 0.4615
vt 0.6923 0.5
vt 0.6538 0.5
vt 0.5 0.3462
vt 0.5385 0.3077
vt 0.5385 0.3462
vt 0.7308 0.8846
vt 0.7019 0.9231
vt 0.7019 0.8846
vt 0.5385 0.4615
vt 0.5385 0.5
vt 0.5 0.0385
vt 0.5312 0
vt 0.5312 0.0385
vt 0.8558 0.3269
vt 0.5 0.1154
vt 0.5312 0.0769
vt 0.5312 0.1154
vt 0.5769 0.8462
vt 0.5385 0.8173
vt 0.5769 0.8173
vt 0.6538 0.3846
vt 0.6923 0.4231
vt 0.6538 0.4231
vt 0.7308 0.3846
vt 0.7692 0.4231
vt 0.7308 0.4231
vt 0.5769 0.3462
vt 0.6154 0.3077
vt 0.6154 0.3462
vt 0.6154 0.4615
vt 0.6154 0.5
vt 0.0769 0.7308
vt 0.0673 0.7356
vt 0.0673 0.7019
vt 0.2308 0.9231
vt 0.2356 0.9327
vt 0.2019 0.9327
vt 0.0288 0.9904
vt 0.0481 0.9712
vt 0.0577 0.9808
vt 0.0288 0.9519
vt 0.0096 0.9712
vt 0.0192 0.9423
vt 0.1154 0.8077
vt 0.1538 0.8077
vt 0.1538 0.8462
vt 0.4231 0.7692
vt 0.4327 0.7644
vt 0.4327 0.7981
vt 0.2692 0.5769
vt 0.2644 0.5673
vt 0.2981 0.5673
vt 0.4904 0.9712
vt 0.4712 0.9519
vt 0.4808 0.9423
vt 0.4519 0.9712
vt 0.4712 0.9904
vt 0.4423 0.9808
vt 0.3077 0.8846
vt 0.3077 0.8462
vt 0.3462 0.8462
vt 0.4712 0.5481
vt 0.4904 0.5288
vt 0.4808 0.5577
vt 0.4712 0.5096
vt 0.4519 0.5288
vt 0.4423 0.5192
vt 0.3846 0.6923
vt 0.3462 0.6923
vt 0.3462 0.6538
vt 0.0481 0.5288
vt 0.0288 0.5096
vt 0.0577 0.5192
vt 0.1923 0.6154
vt 0.1923 0.6538
vt 0.1538 0.6538
vt 0.0096 0.5288
vt 0.0288 0.5481
vt 0.0192 0.5577
vt 0.4712 0.0481
vt 0.4808 0.0577
vt 0.4712 0.0096
vt 0.4519 0.0288
vt 0.4423 0.0192
vt 0.0288 0.4904
vt 0.0481 0.4712
vt 0.0577 0.4808
vt 0.0288 0.4519
vt 0.0192 0.4423
vt 0.1442 0.4135
vt 0.0962 0.4423
vt 0.125 0.3942
vt 0.3558 0.0865
vt 0.4038 0.0577
vt 0.375 0.1058
vt 0.4135 0.3558
vt 0.4423 0.4038
vt 0.3942 0.375
vt 0.7692 0.7308
vt 0.8077 0.7596
vt 0.7692 0.7596
vt 0.7308 0.4615
vt 0.7692 0.5
vt 0.7308 0.5
vt 0.8846 0.3269
vt 0.6154 0.6923
vt 0.6442 0.6538
vt 0.6442 0.6923
vt 0.7308 0.5385
vt 0.7692 0.5769
vt 0.7308 0.5769
vt 0.7692 0.3365
vt 0.7981 0.3365
vt 0.7692 0.3077
vt 0.7981 0.3077
vt 0.5769 0.5
vt 0.7692 0.3462
vt 0.7981 0.3462
vt 0.5 0.5769
vt 0.5385 0.5385
vt 0.5385 0.5769
vt 0.6731 0.8173
vt 0.6442 0.8462
vt 0.6442 0.8173
vt 0.5769 0.5769
vt 0.1442 0.9135
vt 0.125 0.8942
vt 0.3942 0.875
vt 0.375 0.8942
vt 0 0.7188
vt 0.0096 0.7212
vt 0 0.75
vt 0.351 0.9712
vt 0.3534 0.9615
vt 0.3846 0.9615
vt 0.2812 0.5
vt 0.2788 0.5096
vt 0.25 0.5
vt 0.1466 0.5385
vt 0.1442 0.5481
vt 0.1154 0.5385
vt 0.0312 0.5
vt 0.5 0.4688
vt 0.4688 0
vt 0.1923 0.1923
vt 0.1538 0.1923
vt 0.1923 0.1538
vt 0 0.0312
vt 0.1058 0.875
vt 0.0865 0.8558
vt 0.1538 0.1538
vt 0.1923 0.1154
vt 0 0.25
vt 0.0096 0.2476
vt 0.0096 0.2788
vt 0.3558 0.9135
vt 0.4712 0.649
vt 0.4615 0.6466
vt 0.4615 0.6154
vt 0.4519 0.6442
vt 0.3462 0.1923
vt 0.3077 0.1538
vt 0.3462 0.1538
vt 0.0385 0.8534
vt 0.0481 0.8558
vt 0.0385 0.8846
vt 0.2188 1
vt 0.2212 0.9904
vt 0.25 1
vt 0.1923 0.3462
vt 0.1923 0.3846
vt 0.1538 0.3462
vt 0 0.2812
vt 0.4135 0.8558
vt 0.3558 0.5865
vt 0.375 0.6058
vt 0.3558 0.9519
vt 0.149 0.5288
vt 0.3077 0.1154
vt 0 0.9688
vt 0 1
vt 0.4688 1
vt 0.5 1
vt 0.0577 0.9038
vt 0.5 0.5312
vt 0.4038 0.9423
vt 0.4423 0.5962
vt 0.0962 0.5577
vt 0.1923 0.3077
vt 0.1538 0.3077
vt 0.3077 0.1923
vt 0.3077 0.3077
vt 0.3462 0.3077
vt 0.3077 0.3462
vt 0.6442 0.9231
vt 0.6731 0.9231
vt 0.6538 0.9615
vt 0.1154 0.3077
vt 0.5 0.7812
vt 0.4904 0.7788
vt 0.5 0.75
vt 0.5385 0.7596
vt 0.5385 0.7885
vt 0.5 0.7692
vt 0.7308 0.7596
vt 0.7019 0.7885
vt 0.7019 0.7596
vt 0.0865 0.6442
vt 0.1058 0.625
vt 0.3462 0.3462
vt 0.3077 0.3846
vt 0.125 0.6058
vt 0.0288 0.851
vt 0.1442 0.5865
vt 0.7019 0.6538
vt 0.6731 0.6538
vt 0.6923 0.6154
vt 0.0481 0.1442
vt 0.0385 0.1466
vt 0.0385 0.1154
vt 0.3942 0.625
vt 0.3846 0.3077
vt 0.5 0.8077
vt 0.5192 0.8077
vt 0.5385 0.8462
vt 0.4135 0.6442
vt 0.6923 0.9615
vt 0.6923 0.9423
vt 0.7308 0.9231
vt 0.3846 0.1923
vt 0.8462 0.7692
vt 0.8269 0.7692
vt 0.8077 0.7308
vt 0.8077 0.8173
vt 0.8077 0.7885
vt 0.8462 0.8077
vt 0.6538 0.6154
vt 0.6538 0.6346
vt 0.6154 0.6538
vt 0.6731 0.7596
vt 0.6442 0.7885
vt 0.6442 0.7596
vt 0.1154 0.1923
vt 0.7308 0.8173
vt 0.7019 0.8462
vt 0.7019 0.8173
vt 0.2212 0.0096
vt 0.2188 0
vt 0.25 0
vt 0.2524 0.0096
vt 0.3558 0.0481
vt 0.3534 0.0385
vt 0.3846 0.0385
vt 0.4904 0.2212
vt 0.5 0.2188
vt 0.5 0.25
vt 0.4904 0.2524
vt 0.4519 0.3558
vt 0.4615 0.3534
vt 0.4615 0.3846
vt 0.2788 0.4904
vt 0.2476 0.4904
vt 0.1442 0.4519
vt 0.1466 0.4615
vt 0.1154 0.4615
vt 0.5769 0.6154
vt 0.6154 0.6154
vt 0.8269 0.3365
vt 0.8269 0.3462
vt 0.8269 0.3077
vt 0.8269 0.3173
vt 0.5769 0.5385
vt 0.5385 0.6154
vt 0.5 0.6154
vt 0.8269 0.3269
vt 0.7692 0.6154
vt 0.7308 0.6154
vt 0.6923 0.5385
vt 0.6731 0.6923
vt 0.7019 0.6923
vt 0.6731 0.7308
vt 0.7019 0.7308
vt 0.6154 0.7308
vt 0.6442 0.7308
vt 0.7692 0.5385
vt 0.6923 0.4615
vt 0.7692 0.7885
vt 0.7692 0.8173
vt 0.7308 0.7885
vt 0.7308 0.7308
vt 0.375 0.3942
vt 0.4038 0.4423
vt 0.3558 0.4135
vt 0.3942 0.125
vt 0.4423 0.0962
vt 0.4135 0.1442
vt 0.1058 0.375
vt 0.0577 0.4038
vt 0.0865 0.3558
vt 0.0385 0.3846
vt 0.0481 0.3558
vt 0.4615 0.1154
vt 0.4519 0.1442
vt 0.0481 0.6442
vt 0.0577 0.5962
vt 0.1538 0.6923
vt 0.1154 0.6923
vt 0.1923 0.6923
vt 0.3077 0.6538
vt 0.3077 0.6154
vt 0.3077 0.6923
vt 0.3558 0.5481
vt 0.4038 0.5577
vt 0.3462 0.8077
vt 0.3846 0.8077
vt 0.3077 0.8077
vt 0.4519 0.8558
vt 0.4423 0.9038
vt 0.3846 0.5385
vt 0.399 0.5288
vt 0.4135 0.5288
vt 0.4615 0.8846
vt 0.4712 0.899
vt 0.4712 0.9135
vt 0.1923 0.8462
vt 0.1923 0.8846
vt 0.1923 0.8077
vt 0.1442 0.9519
vt 0.0962 0.9423
vt 0.1154 0.9615
vt 0.101 0.9712
vt 0.0865 0.9712
vt 0.0385 0.6154
vt 0.0288 0.601
vt 0.0288 0.5865
vt 0.5769 0.3846
vt 0.7692 0.4615
vt 0.6923 0.3846
vt 0.5769 0.7885
vt 0.5769 0.7596
vt 0.6154 0.7885
vt 0.6154 0.7596
vt 0.6154 0.8462
vt 0.6154 0.8173
vt 0.75 0.1154
vt 0.7812 0.0769
vt 0.7812 0.1154
vt 0.75 0.1539
vt 0.7812 0.1539
vt 0.5 0.1538
vt 0.5312 0.1538
vt 0.75 0.0385
vt 0.7812 0
vt 0.7812 0.0385
vt 0.75 0.0769
vt 0.5 0.0769
vt 0.5769 0.4615
vt 0.5 0.5385
vt 0.6731 0.8846
vt 0.6442 0.8846
vt 0.6731 0.8462
vt 0.7308 0.8462
vt 0.5769 0.3077
vt 0.5 0.3846
vt 0.75 0.1923
vt 0.7812 0.1538
vt 0.7812 0.1923
vt 0.75 0.2308
vt 0.7812 0.2308
vt 0.5 0.2308
vt 0.75 0.2692
vt 0.7812 0.2692
vt 0.75 0.3077
vt 0.7812 0.3077
vt 0.5 0.3077
vt 0.5312 0.3077
vt 0.0385 0.3654
vt 0.0481 0.3317
vt 0.125 0.1058
vt 0.0962 0.0577
vt 0.1442 0.0865
vt 0.1154 0.0385
vt 0.1442 0.0481
vt 0.1346 0.0385
vt 0.1683 0.0481
vt 0.4615 0.1346
vt 0.4519 0.1683
vt 0.3558 0.4519
vt 0.3654 0.4615
vt 0.3317 0.4519
vt 0.3846 0.4615
vt 0.5 0.4615
vt 0.7692 0.3846
vt 0.6923 0.3077
vt 0.4423 0.3269
vt 0.3269 0.4423
vt 0.2981 0.4327
vt 0.2981 0.4423
vt 0.2644 0.4327
vt 0.4327 0.2019
vt 0.4423 0.2019
vt 0.4327 0.2356
vt 0.2019 0.0673
vt 0.2019 0.0577
vt 0.2356 0.0673
vt 0.1731 0.0577
vt 0.0577 0.1731
vt 0.0673 0.2981
vt 0.0577 0.2981
vt 0.0673 0.2644
vt 0.625 0.3077
vt 0.6562 0.2692
vt 0.6562 0.3077
vt 0.875 0.3077
vt 0.9062 0.2692
vt 0.9062 0.3077
vt 0.875 0.2692
vt 0.9062 0.2308
vt 0.625 0.2308
vt 0.6562 0.1923
vt 0.6562 0.2308
vt 0.875 0.2308
vt 0.9062 0.1923
vt 0.875 0.1923
vt 0.9062 0.1538
vt 0.6154 0.8846
vt 0.6154 0.9231
vt 0.625 0.0769
vt 0.6562 0.0385
vt 0.6562 0.0769
vt 0.875 0.0769
vt 0.9062 0.0385
vt 0.9062 0.0769
vt 0.875 0.0385
vt 0.9062 0
vt 0.7692 0.3269
vt 0.625 0.1539
vt 0.6562 0.1154
vt 0.6562 0.1539
vt 0.875 0.1539
vt 0.9062 0.1154
vt 0.9062 0.1539
vt 0.875 0.1154
vt 0.5769 0.7308
vt 0.5385 0.7308
vt 0.0096 0.5337
vt 0.0337 0.9904
vt 0.1731 0.9423
vt 0.0577 0.8269
vt 0.0673 0.7981
vt 0.4904 0.9663
vt 0.4663 0.5096
vt 0.4423 0.8269
vt 0.3269 0.9423
vt 0.2981 0.9327
vt 0.4423 0.6731
vt 0.4327 0.7019
vt 0.3269 0.5577
vt 0.1731 0.5577
vt 0.2019 0.5673
vt 0.0577 0.6731
vt 0.4423 0.1731
vt 0.3269 0.0577
vt 0.1731 0.4423
vt 0.0577 0.3269
vt 0.7692 0.8462
vt 0.8077 0.8462
vt 0.7308 0.6923
vt 0.7308 0.6538
vt 0.8846 0.3365
vt 0.8846 0.3077
vt 0.2692 0.4519
vt 0.2716 0.4615
vt 0.2404 0.4615
vt 0.238 0.4519
vt 0.2019 0.4327
vt 0.2043 0.4423
vt 0.3077 0.4808
vt 0.3053 0.4712
vt 0.3365 0.4712
vt 0.2764 0.4808
vt 0.274 0.4712
vt 0.1827 0.4808
vt 0.1803 0.4712
vt 0.2115 0.4712
vt 0.4038 0.4904
vt 0.4062 0.5
vt 0.375 0.5
vt 0.3726 0.4904
vt 0.3389 0.4808
vt 0.4519 0.2308
vt 0.4615 0.2284
vt 0.4615 0.2596
vt 0.4519 0.262
vt 0.4327 0.2981
vt 0.4423 0.2957
vt 0.4808 0.1923
vt 0.4712 0.1947
vt 0.4712 0.1635
vt 0.4808 0.2236
vt 0.4712 0.226
vt 0.4808 0.3173
vt 0.4712 0.3197
vt 0.4712 0.2885
vt 0.4904 0.0962
vt 0.5 0.0938
vt 0.5 0.125
vt 0.4904 0.1274
vt 0.4808 0.1611
vt 0.2308 0.0481
vt 0.2284 0.0385
vt 0.2596 0.0385
vt 0.262 0.0481
vt 0.2981 0.0673
vt 0.2957 0.0577
vt 0.1923 0.0192
vt 0.1947 0.0288
vt 0.1635 0.0288
vt 0.2236 0.0192
vt 0.226 0.0288
vt 0.3173 0.0192
vt 0.3197 0.0288
vt 0.2885 0.0288
vt 0.0962 0.0096
vt 0.0938 0
vt 0.125 0
vt 0.1274 0.0096
vt 0.1611 0.0192
vt 0.6731 0.7885
vt 0.0481 0.2692
vt 0.0385 0.2716
vt 0.0385 0.2404
vt 0.0481 0.238
vt 0.0673 0.2019
vt 0.0577 0.2043
vt 0.0288 0.726
vt 0.0385 0.7284
vt 0.0385 0.7596
vt 0.0288 0.7572
vt 0.0096 0.7837
vt 0.0192 0.7861
vt 0.0192 0.8173
vt 0.4808 0.8389
vt 0.4712 0.8365
vt 0.4808 0.8077
vt 0.4904 0.8413
vt 0.5 0.9062
vt 0.4904 0.9038
vt 0.5 0.875
vt 0.0889 0.5192
vt 0.0865 0.5288
vt 0.0913 0.5096
vt 0.1562 0.5
vt 0.1538 0.5096
vt 0.125 0.5
vt 0.4808 0.5889
vt 0.4712 0.5865
vt 0.4904 0.5913
vt 0.5 0.6562
vt 0.4904 0.6538
vt 0.5 0.625
vt 0.4111 0.9808
vt 0.4135 0.9712
vt 0.4087 0.9904
vt 0.3438 1
vt 0.3462 0.9904
vt 0.375 1
vt 0.0192 0.9111
vt 0.0288 0.9135
vt 0.0096 0.9087
vt 0 0.8438
vt 0.0096 0.8462
vt 0 0.875
vt 0.274 0.5288
vt 0.2716 0.5385
vt 0.2404 0.5385
vt 0.2428 0.5288
vt 0.2163 0.5096
vt 0.2139 0.5192
vt 0.1827 0.5192
vt 0.2957 0.9423
vt 0.2933 0.9519
vt 0.2284 0.9615
vt 0.2308 0.9519
vt 0.2596 0.9615
vt 0.0096 0.4038
vt 0 0.4062
vt 0 0.375
vt 0.0096 0.3726
vt 0.0288 0.3365
vt 0.0192 0.3389
vt 0.0192 0.3077
vt 0.1611 0.9808
vt 0.1635 0.9712
vt 0.1923 0.9808
vt 0.1587 0.9904
vt 0.0938 1
vt 0.0962 0.9904
vt 0.125 1
vt 0.0577 0.7957
vt 0.0481 0.7933
vt 0.0481 0.7308
vt 0.4423 0.7043
vt 0.4519 0.7067
vt 0.4615 0.7716
vt 0.4519 0.7692
vt 0.4615 0.7404
vt 0.4712 0.774
vt 0.4712 0.7428
vt 0.4904 0.7163
vt 0.4808 0.7139
vt 0.4808 0.6827
vt 0.0288 0.3053
vt 0.0192 0.2764
vt 0.0288 0.274
vt 0.0192 0.1827
vt 0.0288 0.1803
vt 0.0288 0.2115
vt 0.0096 0.1538
vt 0 0.1562
vt 0 0.125
vt 0.0096 0.1226
vt 0.0288 0.0865
vt 0.0192 0.0889
vt 0.3462 0.0096
vt 0.3438 0
vt 0.375 0
vt 0.3774 0.0096
vt 0.4135 0.0288
vt 0.4111 0.0192
vt 0.4904 0.3462
vt 0.5 0.3438
vt 0.5 0.375
vt 0.4904 0.3774
vt 0.4712 0.4135
vt 0.4808 0.4111
vt 0.1538 0.4904
vt 0.1226 0.4904
vt 0.0865 0.4712
vt 0.0889 0.4808
vt 0.2043 0.5577
vt 0.2067 0.5481
vt 0.2692 0.5481
vt 0.3389 0.5192
vt 0.3365 0.5288
vt 0.3077 0.5192
vt 0.3413 0.5096
vt 0.4038 0.5096
vt 0.226 0.9712
vt 0.2572 0.9712
vt 0.2837 0.9904
vt 0.2861 0.9808
vt 0.3173 0.9808
vt 0.0192 0.6611
vt 0.0288 0.6635
vt 0.0192 0.6923
vt 0.0096 0.6587
vt 0 0.5938
vt 0.0096 0.5962
vt 0 0.625
vt 0.0288 0.4135
vt 0.4712 0.0865
vt 0.3317 0.5481
vt 0.4519 0.8317
vt 0.1683 0.9519
vt 0.0481 0.6683
vt 0.625 0.1154
vt 0.625 0.0385
vt 0.6562 0
vt 0.625 0.1923
vt 0.6562 0.1538
vt 0.625 0.2692
vt 0.0192 0.4327
vt 0.0288 0.399
vt 0.0865 0.0288
vt 0.0673 0.0192
vt 0.101 0.0288
vt 0.4808 0.0673
vt 0.4712 0.101
vt 0.4135 0.4712
vt 0.4327 0.4808
vt 0.399 0.4712
vt 0.6875 0.2692
vt 0.7188 0.2308
vt 0.7188 0.2692
vt 0.6875 0.1923
vt 0.7188 0.1538
vt 0.7188 0.1923
vt 0.6875 0.0385
vt 0.7187 0
vt 0.7187 0.0385
vt 0.6875 0.1154
vt 0.7188 0.0769
vt 0.7187 0.1154
vt 0.0385 0.6346
vt 0.1346 0.9615
vt 0.4615 0.8654
vt 0.3654 0.5385
vt 0.0096 0.5649
vt 0.0192 0.5673
vt 0 0.5625
vt 0 0.5312
vt 0.0192 0.5986
vt 0.0192 0.6298
vt 0.0096 0.6274
vt 0.0288 0.6322
vt 0.2236 0.9808
vt 0.2548 0.9808
vt 0.2524 0.9904
vt 0.2885 0.9712
vt 0.1659 0.9615
vt 0.1971 0.9615
vt 0.1947 0.9712
vt 0.4351 0.5096
vt 0.4327 0.5192
vt 0.4375 0.5
vt 0.4688 0.5
vt 0.4014 0.5192
vt 0.3702 0.5192
vt 0.3726 0.5096
vt 0.3678 0.5288
vt 0.3005 0.5481
vt 0.2981 0.5577
vt 0.3029 0.5385
vt 0.3341 0.5385
vt 0.2668 0.5577
vt 0.2356 0.5577
vt 0.238 0.5481
vt 0.2332 0.5673
vt 0.2308 0.5769
vt 0.149 0.4712
vt 0.1514 0.4808
vt 0.1202 0.4808
vt 0.1178 0.4712
vt 0.0913 0.4904
vt 0.2163 0.4904
vt 0.2188 0.5
vt 0.1875 0.5
vt 0.1851 0.4904
vt 0.4712 0.351
vt 0.4808 0.3486
vt 0.4808 0.3798
vt 0.4712 0.3822
vt 0.4904 0.4087
vt 0.4904 0.2837
vt 0.5 0.2812
vt 0.5 0.3125
vt 0.4904 0.3149
vt 0.351 0.0288
vt 0.3486 0.0192
vt 0.3798 0.0192
vt 0.3822 0.0288
vt 0.4087 0.0096
vt 0.2837 0.0096
vt 0.2812 0
vt 0.3125 0
vt 0.3149 0.0096
vt 0.0288 0.149
vt 0.0192 0.1514
vt 0.0192 0.1202
vt 0.0288 0.1178
vt 0.0096 0.0913
vt 0.0096 0.2163
vt 0 0.2188
vt 0 0.1875
vt 0.0096 0.1851
vt 0.0385 0.2091
vt 0.0385 0.1779
vt 0.0288 0.2428
vt 0.0192 0.2452
vt 0.0192 0.2139
vt 0.0385 0.3341
vt 0.0385 0.3029
vt 0.4808 0.7764
vt 0.4808 0.7452
vt 0.4904 0.7476
vt 0.4712 0.7115
vt 0.4615 0.8341
vt 0.4615 0.8029
vt 0.4712 0.8053
vt 0.4519 0.8005
vt 0.4423 0.7981
vt 0.4423 0.7668
vt 0.4423 0.7356
vt 0.4519 0.738
vt 0.4327 0.7332
vt 0.4231 0.7308
vt 0.0481 0.6995
vt 0.0577 0.7019
vt 0.0385 0.6971
vt 0.0385 0.6659
vt 0.0577 0.7332
vt 0.0577 0.7644
vt 0.0481 0.762
vt 0.0673 0.7668
vt 0.0769 0.7692
vt 0.0649 0.9904
vt 0.0673 0.9808
vt 0.0625 1
vt 0.0312 1
vt 0.0986 0.9808
vt 0.1298 0.9808
vt 0.1274 0.9904
vt 0.1322 0.9712
vt 0.0192 0.4014
vt 0.0192 0.3702
vt 0.0288 0.3678
vt 0.0096 0.3413
vt 0 0.4688
vt 0 0.4375
vt 0.0096 0.4351
vt 0.1995 0.9519
vt 0.2019 0.9423
vt 0.2332 0.9423
vt 0.2644 0.9423
vt 0.262 0.9519
vt 0.2668 0.9327
vt 0.2692 0.9231
vt 0.2764 0.5192
vt 0.2452 0.5192
vt 0.2476 0.5096
vt 0.2115 0.5288
vt 0.3053 0.5288
vt 0.0096 0.8149
vt 0 0.8125
vt 0 0.7812
vt 0.0192 0.8486
vt 0.0192 0.8798
vt 0.0096 0.8774
vt 0.0288 0.8822
vt 0.3149 0.9904
vt 0.3125 1
vt 0.2812 1
vt 0.3486 0.9808
vt 0.3798 0.9808
vt 0.3774 0.9904
vt 0.3822 0.9712
vt 0.4904 0.6851
vt 0.5 0.6875
vt 0.5 0.7188
vt 0.4808 0.6514
vt 0.4808 0.6202
vt 0.4904 0.6226
vt 0.4712 0.6178
vt 0.1851 0.5096
vt 0.1514 0.5192
vt 0.1202 0.5192
vt 0.1226 0.5096
vt 0.1178 0.5288
vt 0.4904 0.9351
vt 0.4808 0.9327
vt 0.5 0.9375
vt 0.5 0.9688
vt 0.4808 0.9014
vt 0.4808 0.8702
vt 0.4904 0.8726
vt 0.4712 0.8678
vt 0.0192 0.7236
vt 0.0192 0.7548
vt 0.0096 0.7524
vt 0.0288 0.7885
vt 0.0288 0.6947
vt 0.0577 0.2668
vt 0.0577 0.2356
vt 0.0673 0.2332
vt 0.0769 0.2308
vt 0.0481 0.2067
vt 0.0481 0.3005
vt 0.0986 0.0192
vt 0.1298 0.0192
vt 0.1322 0.0288
vt 0.1587 0.0096
vt 0.0312 0
vt 0.0625 0
vt 0.0649 0.0096
vt 0.2909 0.0385
vt 0.3221 0.0385
vt 0.2572 0.0288
vt 0.2548 0.0192
vt 0.2861 0.0192
vt 0.1659 0.0385
vt 0.1971 0.0385
vt 0.2332 0.0577
vt 0.2644 0.0577
vt 0.2668 0.0673
vt 0.2692 0.0769
vt 0.2933 0.0481
vt 0.1995 0.0481
vt 0.4808 0.0986
vt 0.4808 0.1298
vt 0.4712 0.1322
vt 0.4904 0.1587
vt 0.5 0.0312
vt 0.5 0.0625
vt 0.4904 0.0649
vt 0.4615 0.2909
vt 0.4615 0.3221
vt 0.4712 0.2572
vt 0.4808 0.2548
vt 0.4808 0.2861
vt 0.4615 0.1659
vt 0.4615 0.1971
vt 0.4423 0.2332
vt 0.4423 0.2644
vt 0.4327 0.2668
vt 0.4231 0.2692
vt 0.4519 0.2933
vt 0.4519 0.1995
vt 0.4014 0.4808
vt 0.3702 0.4808
vt 0.3678 0.4712
vt 0.3413 0.4904
vt 0.4351 0.4904
vt 0.2091 0.4615
vt 0.1779 0.4615
vt 0.2428 0.4712
vt 0.2452 0.4808
vt 0.2139 0.4808
vt 0.3341 0.4615
vt 0.3029 0.4615
vt 0.2668 0.4423
vt 0.2356 0.4423
vt 0.2332 0.4327
vt 0.2308 0.4231
vt 0.2067 0.4519
vt 0.3005 0.4519
vt 0.9375 0.1154
vt 0.9688 0.0769
vt 0.9687 0.1154
vt 0.9375 0.1539
vt 0.9687 0.1539
vt 0.6875 0.1539
vt 0.7187 0.1539
vt 0.9375 0.0385
vt 0.9687 0
vt 0.9687 0.0385
vt 0.9375 0.0769
vt 0.6875 0.0769
vt 0.9375 0.1923
vt 0.9688 0.1538
vt 0.9688 0.1923
vt 0.9375 0.2308
vt 0.9688 0.2308
vt 0.6875 0.2308
vt 0.9375 0.2692
vt 0.9688 0.2692
vt 0.9375 0.3077
vt 0.9688 0.3077
vt 0.6875 0.3077
vt 0.7188 0.3077
vt 0.0769 0.2692
vt 0.2308 0.0769
vt 0.4231 0.2308
vt 0.2692 0.4231
vt 0.5625 0.3077
vt 0.5938 0.2692
vt 0.5938 0.3077
vt 0.8125 0.3077
vt 0.8438 0.2692
vt 0.8438 0.3077
vt 0.8125 0.2692
vt 0.8438 0.2308
vt 0.5625 0.2308
vt 0.5938 0.1923
vt 0.5938 0.2308
vt 0.8125 0.2308
vt 0.8438 0.1923
vt 0.8125 0.1923
vt 0.8438 0.1538
vt 0.5625 0.0769
vt 0.5937 0.0385
vt 0.5938 0.0769
vt 0.8125 0.0769
vt 0.8437 0.0385
vt 0.8438 0.0769
vt 0.8125 0.0385
vt 0.8437 0
vt 0.5625 0.1538
vt 0.5937 0.1154
vt 0.5937 0.1539
vt 0.8125 0.1539
vt 0.8437 0.1154
vt 0.8437 0.1539
vt 0.8125 0.1154
vt 0.1755 0.4519
vt 0.3438 0.5
vt 0.3125 0.5
vt 0.3101 0.4904
vt 0.4519 0.3245
vt 0.5 0.1562
vt 0.5 0.1875
vt 0.4904 0.1899
vt 0.3245 0.0481
vt 0.1562 0
vt 0.1875 0
vt 0.1899 0.0096
vt 0.0481 0.1755
vt 0.0385 0.7909
vt 0.0385 0.8221
vt 0.0288 0.8197
vt 0.4904 0.8101
vt 0.5 0.8125
vt 0.5 0.8438
vt 0.0601 0.5096
vt 0.0625 0.5
vt 0.0938 0.5
vt 0.4904 0.5601
vt 0.5 0.5625
vt 0.5 0.5938
vt 0.4399 0.9904
vt 0.4375 1
vt 0.4062 1
vt 0.0096 0.9399
vt 0 0.9375
vt 0 0.9062
vt 0.2091 0.5385
vt 0.1779 0.5385
vt 0.1803 0.5288
vt 0.3245 0.9519
vt 0.3221 0.9615
vt 0.2909 0.9615
vt 0 0.3438
vt 0 0.3125
vt 0.0096 0.3101
vt 0.1899 0.9904
vt 0.1875 1
vt 0.1562 1
vt 0.0481 0.8245
vt 0.4519 0.6755
vt 0.4615 0.6779
vt 0.4615 0.7091
vt 0.4712 0.6803
vt 0 0.0938
vt 0 0.0625
vt 0.0096 0.0601
vt 0.4062 0
vt 0.4375 0
vt 0.4399 0.0096
vt 0.5 0.4062
vt 0.5 0.4375
vt 0.4904 0.4399
vt 0.0601 0.4904
vt 0.1755 0.5481
vt 0.3101 0.5096
vt 0.3197 0.9712
vt 0.0096 0.6899
vt 0 0.6875
vt 0 0.6562
vt 0.5625 0.1154
vt 0.5625 0.0385
vt 0.5937 0
vt 0.5625 0.1923
vt 0.5938 0.1538
vt 0.5625 0.2692
vt 0.625 0.1538
vt 0.625 0
vt 0.875 0
vt 0.875 0.1538
vt 1 0.2692
vt 1 0.3077
vt 1 0.2308
vt 1 0.1923
vt 1 0.1538
vt 1 0.0385
vt 1 0.0769
vt 1 0
vt 1 0.1154
vt 1 0.1539
vt 0.75 0
vt 0.75 0.1538
vt 0.6875 0.1538
vt 0.6875 0
vt 0.9375 0
vt 0.9375 0.1538
vt 0.8125 0.1538
vt 0.8125 0
vt 0.5625 0
vt 0.5625 0.1538
s 1
f 339/1 51/2 360/3
f 45/4 121/5 193/6
f 344/7 65/8 345/9
f 125/10 123/11 221/12
f 41/13 126/14 127/15
f 111/16 112/17 220/18
f 544/19 274/20 246/21
f 243/22 559/23 276/24
f 562/25 559/23 4/26
f 563/27 564/28 8/29
f 542/30 566/31 6/32
f 295/33 566/31 291/34
f 238/35 103/36 425/37
f 541/38 223/39 242/40
f 530/41 543/42 2/43
f 110/44 48/45 189/46
f 347/47 73/48 348/49
f 46/50 120/51 121/5
f 81/52 718/53 877/54
f 83/55 719/56 875/57
f 44/58 114/59 115/60
f 89/61 90/62 217/63
f 192/64 296/65 419/66
f 117/26 118/67 215/68
f 87/69 852/70 873/71
f 51/2 340/72 360/3
f 85/73 850/74 871/75
f 194/76 350/77 413/78
f 47/79 108/80 109/81
f 345/1 67/2 362/3
f 107/82 89/83 211/84
f 91/85 42/86 187/87
f 43/88 115/60 191/89
f 41/90 449/91 450/92
f 47/93 451/94 452/95
f 575/96 316/97 315/98
f 318/99 576/100 317/101
f 40/102 90/103 135/104
f 44/105 454/106 455/107
f 46/108 456/109 457/110
f 578/111 323/112 320/113
f 325/114 581/115 324/116
f 34/117 112/118 143/119
f 327/120 582/121 326/122
f 580/123 328/124 322/125
f 35/126 118/127 147/128
f 330/129 583/130 329/131
f 37/132 124/133 150/134
f 573/135 331/136 313/137
f 332/138 564/28 286/139
f 584/140 334/141 333/142
f 585/143 336/144 335/145
f 337/146 543/42 245/147
f 271/148 156/149 411/150
f 269/151 154/152 409/153
f 229/154 93/155 407/156
f 190/157 297/158 405/159
f 42/86 127/15 187/87
f 113/160 111/161 209/162
f 338/7 49/8 339/9
f 55/163 338/7 340/72
f 188/164 353/165 403/166
f 119/167 117/168 207/169
f 63/170 341/47 343/171
f 342/49 59/172 361/173
f 116/174 43/88 191/89
f 71/163 344/7 346/72
f 59/175 343/171 361/176
f 341/47 57/48 342/49
f 48/45 109/81 189/46
f 123/177 124/178 206/179
f 67/2 346/72 362/3
f 348/49 75/172 363/173
f 75/175 349/171 363/176
f 79/170 347/47 349/171
f 366/180 355/181 429/182
f 122/183 45/4 193/6
f 135/104 251/184 382/185
f 374/186 375/187 143/119
f 724/188 505/189 88/190
f 597/191 864/192 141/193
f 846/194 496/195 82/196
f 862/197 556/198 148/199
f 585/143 858/200 2/43
f 544/19 859/201 4/26
f 584/140 728/202 8/29
f 10/203 174/204 188/205
f 541/38 729/206 6/32
f 40/102 383/207 253/208
f 188/205 102/209 13/210
f 186/211 1029/212 602/213
f 382/185 383/207 135/104
f 34/117 375/187 260/214
f 594/215 863/216 144/217
f 863/216 555/218 144/217
f 190/219 180/220 159/221
f 865/222 549/223 133/224
f 722/225 502/226 86/227
f 176/228 17/229 158/230
f 602/213 733/231 186/211
f 143/119 258/232 374/186
f 188/205 174/204 102/209
f 147/128 263/233 372/234
f 864/192 554/235 141/193
f 591/236 862/197 148/199
f 180/220 14/237 159/221
f 721/238 576/100 5/239
f 720/240 581/115 7/241
f 134/242 316/97 318/99
f 853/243 582/121 3/26
f 851/200 583/130 1/43
f 142/244 323/112 325/114
f 145/245 328/124 327/120
f 149/246 331/136 330/129
f 9/247 176/228 194/248
f 12/249 180/220 190/219
f 11/250 178/251 192/252
f 351/253 175/254 25/255
f 194/248 158/230 19/256
f 847/257 499/258 84/259
f 194/248 176/228 158/230
f 294/260 173/261 22/262
f 300/263 369/264 428/265
f 150/134 266/266 370/267
f 192/252 160/268 18/269
f 370/267 371/270 150/134
f 600/271 865/222 133/224
f 37/132 371/270 265/272
f 192/252 178/251 160/268
f 299/273 179/274 28/275
f 538/276 738/277 104/278
f 372/234 373/279 147/128
f 178/251 15/280 160/268
f 21/281 199/282 19/283
f 199/282 350/77 19/283
f 35/126 373/279 262/284
f 26/285 201/286 18/287
f 201/286 296/65 18/287
f 190/219 159/221 16/288
f 24/289 202/290 16/291
f 202/290 297/158 16/291
f 352/292 177/293 23/294
f 27/295 203/296 13/297
f 203/296 353/165 13/297
f 367/298 368/299 427/300
f 174/204 20/301 102/209
f 354/302 301/303 426/304
f 605/305 732/306 185/307
f 185/307 1013/308 605/305
f 557/309 739/310 153/311
f 608/312 855/313 184/314
f 184/314 1010/315 608/312
f 531/316 740/317 92/318
f 611/319 854/194 183/196
f 183/196 1007/320 611/319
f 558/321 741/322 155/323
f 17/324 193/6 25/325
f 172/326 290/72 293/7
f 198/327 293/7 309/9
f 292/3 198/328 309/1
f 197/329 289/47 308/49
f 206/179 37/330 122/183
f 176/331 122/183 17/324
f 9/332 206/179 176/331
f 189/46 27/58 28/88
f 279/72 165/329 282/3
f 196/327 283/7 307/9
f 169/333 285/171 289/47
f 15/330 191/89 23/4
f 282/3 196/328 307/1
f 166/326 279/72 283/7
f 207/169 11/334 192/335
f 120/51 192/335 18/275
f 38/336 207/169 120/51
f 208/337 299/273 402/338
f 204/339 402/338 311/340
f 10/341 403/166 365/342
f 163/333 273/171 277/47
f 273/171 162/327 275/176
f 209/162 12/343 190/167
f 114/59 190/167 16/336
f 36/344 209/162 114/59
f 187/87 21/79 22/45
f 210/345 352/292 404/346
f 181/347 404/346 354/302
f 12/348 405/159 300/263
f 406/349 95/350 231/351
f 93/155 406/349 407/156
f 274/20 4/26 243/22
f 408/352 152/353 267/354
f 154/152 408/352 409/153
f 334/141 8/29 332/138
f 410/355 157/356 272/357
f 156/149 410/355 411/150
f 336/144 2/43 337/146
f 157/356 106/358 540/359
f 558/321 156/149 271/148
f 557/309 154/152 269/151
f 152/353 98/360 535/361
f 546/362 151/363 266/266
f 150/134 125/364 39/365
f 150/134 124/133 125/364
f 124/133 29/366 125/364
f 149/246 148/199 556/198
f 147/128 119/367 38/368
f 147/128 118/127 119/367
f 118/127 31/369 119/367
f 553/370 146/371 263/233
f 145/245 144/217 555/218
f 143/119 113/372 36/373
f 143/119 112/118 113/372
f 112/118 32/374 113/372
f 142/244 141/193 554/235
f 551/375 140/376 258/232
f 139/377 483/378 484/379
f 137/380 481/381 482/382
f 135/104 107/383 33/384
f 135/104 90/103 107/383
f 90/103 30/385 107/383
f 134/242 133/224 549/223
f 548/386 132/387 251/184
f 131/388 478/389 479/390
f 129/391 476/392 477/393
f 191/89 24/50 23/4
f 20/394 187/87 22/45
f 211/84 10/395 188/160
f 108/80 188/160 13/344
f 33/396 211/84 108/80
f 287/173 197/329 308/49
f 109/81 13/344 27/58
f 212/397 294/260 412/398
f 200/399 412/398 310/400
f 9/401 413/78 364/402
f 213/403 848/404 870/405
f 185/406 870/405 856/407
f 6/408 871/75 860/409
f 195/329 277/47 306/49
f 214/410 849/411 872/412
f 186/413 872/412 857/404
f 2/414 873/71 861/74
f 215/68 35/415 116/174
f 178/178 116/174 15/330
f 11/416 215/68 178/178
f 216/417 351/253 418/418
f 182/419 418/418 355/181
f 11/420 419/66 301/303
f 217/63 40/421 91/85
f 174/17 91/85 20/394
f 10/422 217/63 174/17
f 115/60 16/336 24/50
f 218/423 725/424 874/425
f 184/426 874/425 731/427
f 8/428 875/57 727/53
f 219/429 723/427 876/430
f 183/431 876/430 730/432
f 4/433 877/54 726/434
f 121/5 18/275 26/295
f 290/72 171/329 292/3
f 14/415 189/46 28/88
f 540/359 105/435 539/436
f 538/276 103/36 238/35
f 424/437 101/438 237/439
f 103/36 424/437 425/37
f 223/39 6/32 295/33
f 101/438 100/440 537/441
f 537/441 99/442 536/443
f 535/361 97/444 534/445
f 532/446 96/447 533/448
f 95/350 94/449 532/446
f 531/316 93/155 229/154
f 220/18 34/394 110/44
f 180/67 110/44 14/415
f 12/450 220/18 180/67
f 127/15 19/396 21/79
f 221/12 9/451 194/82
f 126/14 194/82 19/396
f 39/452 221/12 126/14
f 285/171 168/327 287/176
f 193/6 26/295 25/325
f 275/173 195/329 306/49
f 50/172 306/49 52/48
f 70/170 287/176 66/175
f 228/453 229/154 15/280
f 18/269 230/454 436/455
f 436/455 232/456 437/457
f 439/458 233/459 438/460
f 441/461 235/462 440/463
f 13/210 236/464 441/461
f 223/39 101/438 103/36
f 102/209 425/37 424/437
f 424/437 13/210 102/209
f 239/465 238/35 20/301
f 444/466 240/467 443/468
f 78/163 292/3 74/2
f 302/469 845/470 758/471
f 356/472 844/473 762/474
f 422/475 755/476 844/473
f 303/477 843/478 759/479
f 357/480 842/481 763/476
f 420/482 757/483 842/481
f 301/303 216/417 182/419
f 355/181 176/484 9/401
f 418/418 17/485 176/484
f 359/486 841/487 829/488
f 305/489 840/490 825/491
f 416/492 817/493 840/490
f 306/49 56/494 52/48
f 358/495 839/496 828/497
f 304/498 838/499 824/500
f 414/501 816/491 838/499
f 364/402 212/397 200/399
f 310/400 174/502 10/341
f 412/398 20/503 174/502
f 66/172 308/49 68/48
f 313/137 572/504 573/135
f 315/98 574/505 575/96
f 250/506 251/184 33/384
f 40/102 252/507 453/508
f 320/113 577/509 578/111
f 322/125 579/510 580/123
f 255/511 258/232 36/373
f 34/117 259/512 458/513
f 35/126 261/514 459/515
f 257/516 263/233 38/368
f 37/132 264/517 460/518
f 248/519 266/266 39/365
f 16/288 234/520 439/458
f 268/521 269/151 14/237
f 270/522 271/148 17/229
f 19/256 241/523 444/466
f 336/144 157/356 156/149
f 158/230 411/150 410/355
f 410/355 19/256 158/230
f 334/141 152/353 154/152
f 159/221 409/153 408/352
f 408/352 16/288 159/221
f 274/20 95/350 93/155
f 160/268 407/156 406/349
f 406/349 18/269 160/268
f 300/263 210/345 181/347
f 354/302 178/524 11/420
f 404/346 15/525 178/524
f 54/170 275/176 50/175
f 277/47 54/170 56/494
f 365/342 208/337 204/339
f 311/340 180/526 12/348
f 402/338 14/527 180/526
f 283/7 62/163 64/528
f 58/2 307/1 60/529
f 289/47 70/170 72/494
f 307/9 64/528 60/8
f 62/163 282/3 58/2
f 308/49 72/494 68/48
f 74/2 309/1 76/529
f 309/9 80/528 76/8
f 293/7 78/163 80/528
f 622/530 773/531 401/532
f 401/532 1004/533 622/530
f 462/534 782/535 270/522
f 399/536 1002/537 515/538
f 879/539 625/540 399/536
f 400/541 1000/542 627/543
f 628/544 822/545 302/546
f 302/546 998/547 628/544
f 515/538 784/548 399/536
f 631/549 772/550 398/551
f 398/551 995/552 631/549
f 435/553 785/554 228/453
f 396/555 993/556 512/557
f 882/558 634/559 396/555
f 397/560 991/561 636/562
f 637/563 823/564 303/565
f 303/565 989/566 637/563
f 512/557 787/567 396/555
f 640/568 771/569 395/570
f 395/570 986/571 640/568
f 461/572 788/573 268/521
f 393/574 984/575 509/576
f 885/577 643/578 393/574
f 394/579 982/580 645/581
f 646/582 764/583 358/584
f 358/584 980/585 646/582
f 509/576 790/586 393/574
f 426/304 182/419 366/180
f 369/264 366/180 205/587
f 181/347 426/304 369/264
f 427/300 200/399 310/400
f 365/342 310/400 10/341
f 204/339 427/300 365/342
f 145/245 262/284 373/279
f 145/245 372/234 146/371
f 649/588 770/589 392/590
f 392/590 977/591 649/588
f 442/592 791/593 239/465
f 149/246 265/272 371/270
f 652/594 833/595 387/596
f 387/596 974/597 652/594
f 504/598 792/599 388/600
f 149/246 370/267 151/363
f 151/363 370/267 266/266
f 428/265 205/587 367/298
f 311/340 367/298 204/339
f 12/348 428/265 311/340
f 889/601 595/602 381/603
f 656/604 889/601 381/603
f 815/605 657/606 224/607
f 1/43 330/129 331/136
f 3/26 327/120 328/124
f 7/241 325/114 323/112
f 890/608 487/609 329/131
f 659/610 890/608 329/131
f 819/611 660/612 280/613
f 891/614 486/615 326/122
f 662/616 891/614 326/122
f 821/617 663/618 298/619
f 5/239 318/99 316/97
f 892/620 485/621 324/116
f 665/622 892/620 324/116
f 752/623 666/624 225/625
f 893/626 480/627 317/101
f 668/628 893/626 317/101
f 753/629 669/630 226/631
f 670/632 830/633 376/634
f 376/634 956/635 670/632
f 495/636 798/637 377/638
f 895/639 458/513 259/512
f 674/640 895/639 259/512
f 832/641 675/642 384/643
f 146/371 372/234 263/233
f 140/376 374/186 258/232
f 676/644 765/645 359/646
f 359/646 950/647 676/644
f 506/648 800/649 390/650
f 897/651 598/652 386/653
f 680/654 897/651 386/653
f 754/655 681/656 278/657
f 898/658 453/508 252/507
f 683/659 898/658 252/507
f 833/595 684/660 387/596
f 899/661 459/515 261/514
f 686/662 899/661 261/514
f 831/663 687/664 379/665
f 688/666 831/663 379/665
f 379/665 938/667 688/666
f 498/668 804/669 380/670
f 142/244 260/214 375/187
f 134/242 382/185 132/387
f 390/650 936/671 506/648
f 901/672 691/673 390/650
f 391/674 934/675 693/676
f 134/242 253/208 383/207
f 694/677 761/678 305/679
f 305/679 932/680 694/677
f 445/681 806/682 242/40
f 697/683 760/684 304/685
f 304/685 929/686 697/683
f 488/687 807/688 333/142
f 700/689 827/690 357/691
f 357/691 926/692 700/689
f 448/693 808/694 246/21
f 703/695 826/611 356/613
f 356/613 923/696 703/695
f 489/697 809/698 335/145
f 906/699 460/518 264/517
f 707/700 906/699 264/517
f 830/633 708/701 376/634
f 907/702 592/703 378/704
f 710/705 907/702 378/704
f 814/545 711/706 222/546
f 712/707 832/641 384/643
f 384/643 914/708 712/707
f 501/709 812/710 385/711
f 909/712 601/713 389/714
f 716/715 909/712 389/714
f 756/716 717/717 288/718
f 142/244 374/186 140/376
f 132/387 382/185 251/184
f 429/182 9/401 364/402
f 368/299 364/402 200/399
f 205/587 429/182 368/299
f 349/171 170/333 172/326
f 363/176 172/326 198/327
f 171/329 363/173 198/328
f 362/3 169/333 197/329
f 164/333 342/49 165/329
f 361/176 166/326 196/327
f 346/72 167/326 169/333
f 165/329 361/173 196/328
f 343/171 164/333 166/326
f 403/166 179/274 208/337
f 340/72 161/326 163/333
f 161/326 339/9 162/327
f 405/159 177/293 210/345
f 229/154 160/268 15/280
f 269/151 159/221 14/237
f 271/148 158/230 17/229
f 337/146 245/147 447/719
f 489/697 336/144 156/149
f 488/687 334/141 154/152
f 332/138 286/139 468/720
f 477/393 331/136 151/363
f 330/129 329/131 487/609
f 484/379 328/124 146/371
f 327/120 326/122 486/615
f 325/114 324/116 485/621
f 482/382 323/112 140/376
f 257/516 552/721 553/370
f 255/511 550/722 551/375
f 318/99 317/101 480/627
f 479/390 316/97 132/387
f 250/506 547/723 548/386
f 248/519 545/724 546/362
f 168/328 362/3 197/329
f 413/78 173/261 212/397
f 415/725 818/488 839/496
f 360/3 163/333 195/329
f 417/726 820/727 841/487
f 419/66 175/254 216/417
f 421/728 751/729 843/478
f 423/730 750/479 845/470
f 170/333 348/49 171/329
f 447/719 227/731 434/732
f 445/681 223/39 103/36
f 238/35 102/209 20/301
f 295/33 291/34 470/733
f 470/733 244/734 446/735
f 468/720 284/736 467/737
f 463/738 281/739 466/740
f 243/22 276/24 463/738
f 448/693 274/20 93/155
f 167/326 345/9 168/327
f 162/328 360/3 195/329
f 94/449 466/740 96/447
f 98/360 467/737 97/444
f 100/440 446/735 99/442
f 106/358 434/732 105/435
f 525/741 846/742 749/743
f 523/744 847/745 747/746
f 521/747 724/748 745/749
f 519/750 722/751 743/752
f 546/362 128/753 129/391
f 548/386 130/754 131/388
f 551/375 136/755 137/380
f 553/370 138/756 139/377
f 910/757 312/758 717/717
f 565/759 910/757 717/717
f 852/760 572/504 565/759
f 717/717 813/761 715/762
f 715/762 911/763 717/717
f 288/718 911/763 716/715
f 912/764 128/753 601/713
f 715/762 912/764 601/713
f 813/761 476/392 715/762
f 502/226 908/765 714/766
f 714/766 913/767 502/226
f 86/227 913/767 501/709
f 712/707 908/765 386/653
f 914/708 714/766 712/707
f 713/768 812/710 714/766
f 598/652 736/769 500/770
f 500/770 915/771 598/652
f 386/653 915/771 712/707
f 916/772 321/773 711/706
f 430/774 916/772 711/706
f 718/775 579/510 430/774
f 711/706 811/776 709/777
f 709/777 917/778 711/706
f 222/546 917/778 710/705
f 918/779 138/756 592/703
f 709/777 918/779 592/703
f 811/776 483/378 709/777
f 919/780 256/781 708/701
f 494/782 919/780 708/701
f 734/783 552/721 494/782
f 708/701 810/784 706/785
f 706/785 920/786 708/701
f 376/634 920/786 707/700
f 921/787 45/788 460/518
f 706/785 921/787 460/518
f 810/784 456/109 706/785
f 516/789 905/790 705/791
f 705/791 922/792 516/789
f 155/323 922/792 489/697
f 703/695 905/790 400/541
f 923/696 705/791 703/695
f 704/793 809/698 705/791
f 612/794 730/795 490/796
f 490/796 924/797 612/794
f 400/541 924/797 703/695
f 513/798 904/799 702/800
f 702/800 925/801 513/798
f 92/318 925/801 448/693
f 700/689 904/799 397/560
f 926/692 702/800 700/689
f 701/802 808/694 702/800
f 609/803 731/804 491/805
f 491/805 927/806 609/803
f 397/560 927/806 700/689
f 510/807 903/808 699/809
f 699/809 928/810 510/807
f 153/311 928/810 488/687
f 697/683 903/808 394/579
f 929/686 699/809 697/683
f 698/811 807/688 699/809
f 606/812 856/813 570/814
f 570/814 930/815 606/812
f 394/579 930/815 697/683
f 507/816 902/817 696/818
f 696/818 931/819 507/816
f 104/278 931/819 445/681
f 694/677 902/817 391/674
f 932/680 696/818 694/677
f 695/820 806/682 696/818
f 603/821 857/822 571/823
f 571/823 933/824 603/821
f 391/674 933/824 694/677
f 693/676 834/825 392/590
f 934/675 508/826 693/676
f 507/816 738/277 508/826
f 935/827 392/590 691/673
f 692/828 935/827 691/673
f 805/829 693/676 692/828
f 506/648 866/830 105/435
f 936/671 604/831 506/648
f 691/673 770/589 604/831
f 499/258 900/832 690/833
f 690/833 937/834 499/258
f 84/259 937/834 498/668
f 688/666 900/832 381/603
f 938/667 690/833 688/666
f 689/835 804/669 690/833
f 595/602 735/836 497/837
f 497/837 939/838 595/602
f 381/603 939/838 688/666
f 940/839 254/840 687/664
f 497/837 940/839 687/664
f 735/836 550/722 497/837
f 687/664 803/841 685/842
f 685/842 941/843 687/664
f 379/665 941/843 686/662
f 942/844 43/845 459/515
f 685/842 942/844 459/515
f 803/841 454/106 685/842
f 943/846 247/847 684/660
f 503/848 943/846 684/660
f 737/849 545/724 503/848
f 684/660 802/850 682/851
f 682/851 944/852 684/660
f 387/596 944/852 683/659
f 945/853 42/854 453/508
f 682/851 945/853 453/508
f 802/850 449/91 682/851
f 946/855 314/856 681/656
f 560/857 946/855 681/656
f 850/858 574/505 560/857
f 681/656 801/859 679/860
f 679/860 947/861 681/656
f 278/657 947/861 680/654
f 948/862 130/754 598/652
f 679/860 948/862 598/652
f 801/859 478/389 679/860
f 434/732 896/863 678/864
f 678/864 949/865 434/732
f 105/435 949/865 506/648
f 676/644 896/863 227/731
f 950/647 678/864 676/644
f 677/866 800/649 678/864
f 530/41 861/867 589/868
f 589/868 951/869 530/41
f 227/731 951/869 676/644
f 952/870 249/871 675/642
f 500/770 952/870 675/642
f 736/769 547/723 500/770
f 675/642 799/872 673/873
f 673/873 953/874 675/642
f 384/643 953/874 674/640
f 954/875 48/876 458/513
f 673/873 954/875 458/513
f 799/872 451/94 673/873
f 496/195 894/877 672/878
f 672/878 955/879 496/195
f 82/196 955/879 495/636
f 670/632 894/877 378/704
f 956/635 672/878 670/632
f 671/880 798/637 672/878
f 592/703 734/783 494/782
f 494/782 957/881 592/703
f 378/704 957/881 670/632
f 958/882 388/600 669/630
f 529/883 958/882 669/630
f 849/884 504/598 529/883
f 669/630 797/885 667/886
f 667/886 959/887 669/630
f 226/631 959/887 668/628
f 960/888 133/224 480/627
f 667/886 960/888 480/627
f 797/885 600/271 667/886
f 961/889 385/711 666/624
f 528/890 961/889 666/624
f 848/891 501/709 528/890
f 666/624 796/892 664/893
f 664/893 962/894 666/624
f 225/625 962/894 665/622
f 963/895 141/193 485/621
f 664/893 963/895 485/621
f 796/892 597/191 664/893
f 964/896 380/670 663/618
f 471/897 964/896 663/618
f 725/898 498/668 471/897
f 663/618 795/899 661/900
f 661/900 965/901 663/618
f 298/619 965/901 662/616
f 966/902 144/217 486/615
f 661/900 966/902 486/615
f 795/899 594/215 661/900
f 967/903 377/638 660/612
f 465/796 967/903 660/612
f 723/795 495/636 465/796
f 660/612 794/904 658/905
f 658/905 968/906 660/612
f 280/613 968/906 659/610
f 969/907 148/199 487/609
f 658/905 969/907 487/609
f 794/904 591/236 658/905
f 970/908 319/909 657/606
f 431/910 970/908 657/606
f 719/911 577/509 431/910
f 657/606 793/912 655/913
f 655/913 971/914 657/606
f 224/607 971/914 656/604
f 972/915 136/755 595/602
f 655/913 972/915 595/602
f 793/912 481/381 655/913
f 505/189 888/916 654/917
f 654/917 973/918 505/189
f 88/190 973/918 504/598
f 652/594 888/916 389/714
f 974/597 654/917 652/594
f 653/919 792/599 654/917
f 601/713 737/849 503/848
f 503/848 975/920 601/713
f 389/714 975/920 652/594
f 443/468 887/921 651/922
f 651/922 976/923 443/468
f 22/924 976/923 442/592
f 649/588 887/921 240/467
f 977/591 651/922 649/588
f 650/925 791/593 651/922
f 539/436 866/830 604/831
f 604/831 978/926 539/436
f 240/467 978/926 649/588
f 446/735 886/927 648/928
f 648/928 979/929 446/735
f 99/442 979/929 509/576
f 646/582 886/927 244/734
f 980/585 648/928 646/582
f 647/930 790/586 648/928
f 542/30 860/931 588/932
f 588/932 981/933 542/30
f 244/734 981/933 646/582
f 645/581 835/934 395/570
f 982/580 511/935 645/581
f 510/807 739/310 511/935
f 983/936 395/570 643/578
f 644/937 983/936 643/578
f 789/938 645/581 644/937
f 509/576 867/939 99/442
f 984/575 607/940 509/576
f 643/578 771/569 607/940
f 440/463 884/941 642/942
f 642/942 985/943 440/463
f 28/944 985/943 461/572
f 640/568 884/941 235/462
f 986/571 642/942 640/568
f 641/945 788/573 642/942
f 536/443 867/939 607/940
f 607/940 987/946 536/443
f 235/462 987/946 640/568
f 467/737 883/947 639/948
f 639/948 988/949 467/737
f 97/444 988/949 512/557
f 637/563 883/947 284/736
f 989/566 639/948 637/563
f 638/950 787/567 639/948
f 563/27 727/951 473/952
f 473/952 990/953 563/27
f 284/736 990/953 637/563
f 636/562 836/954 398/551
f 991/561 514/955 636/562
f 513/798 740/317 514/955
f 992/956 398/551 634/559
f 635/957 992/956 634/559
f 786/958 636/562 635/957
f 512/557 868/959 97/444
f 993/556 610/960 512/557
f 634/559 772/550 610/960
f 438/460 881/961 633/962
f 633/962 994/963 438/460
f 23/964 994/963 435/553
f 631/549 881/961 233/459
f 995/552 633/962 631/549
f 632/965 785/554 633/962
f 534/445 868/959 610/960
f 610/960 996/966 534/445
f 233/459 996/966 631/549
f 466/740 880/967 630/968
f 630/968 997/969 466/740
f 96/447 997/969 515/538
f 628/544 880/967 281/739
f 998/547 630/968 628/544
f 629/970 784/548 630/968
f 562/25 726/775 472/774
f 472/774 999/971 562/25
f 281/739 999/971 628/544
f 627/543 837/972 401/532
f 1000/542 517/973 627/543
f 516/789 741/322 517/973
f 1001/974 401/532 625/540
f 626/975 1001/974 625/540
f 783/976 627/543 626/975
f 515/538 869/977 96/447
f 1002/537 613/978 515/538
f 625/540 773/531 613/978
f 437/457 878/979 624/980
f 624/980 1003/981 437/457
f 25/982 1003/981 462/534
f 622/530 878/979 232/456
f 1004/533 624/980 622/530
f 623/983 782/535 624/980
f 533/448 869/977 613/978
f 613/978 1005/984 533/448
f 232/456 1005/984 622/530
f 3/26 580/123 579/510
f 7/241 578/111 577/509
f 5/239 575/96 574/505
f 1/43 573/135 572/504
f 518/985 720/986 742/987
f 474/988 742/987 728/989
f 492/990 743/752 732/991
f 520/992 721/993 744/994
f 475/995 744/994 729/986
f 493/996 745/749 733/751
f 522/997 853/998 746/999
f 587/1000 746/999 859/1001
f 569/1002 747/746 855/742
f 524/1003 851/1001 748/1004
f 586/1005 748/1004 858/1006
f 568/1007 749/743 854/1008
f 21/1009 443/468 22/924
f 27/1010 440/463 28/944
f 24/1011 438/460 23/964
f 26/1012 437/457 25/982
f 230/454 533/448 232/456
f 234/520 534/445 233/459
f 236/464 536/443 235/462
f 241/523 539/436 240/467
f 472/1013 781/1014 822/1015
f 490/1016 780/1017 826/1018
f 620/1019 819/1020 780/1017
f 473/1021 779/1022 823/1023
f 491/1024 778/1025 827/1020
f 618/1026 821/1027 778/1025
f 589/1028 777/1029 765/1030
f 571/1031 776/1032 761/1033
f 616/1034 753/1035 776/1032
f 588/1036 775/1037 764/1038
f 570/1039 774/1040 760/1041
f 614/1042 752/1033 774/1040
f 477/393 312/758 313/137
f 479/390 314/856 315/98
f 482/382 319/909 320/113
f 484/379 321/773 322/125
f 623/983 837/972 517/973
f 517/973 1006/1043 623/983
f 270/522 1006/1043 558/321
f 611/319 879/539 399/536
f 1007/320 626/975 611/319
f 612/794 783/976 626/975
f 629/970 758/1044 568/1045
f 568/1045 1008/1046 629/970
f 399/536 1008/1046 611/319
f 632/965 836/954 514/955
f 514/955 1009/1047 632/965
f 228/453 1009/1047 531/316
f 608/312 882/558 396/555
f 1010/315 635/957 608/312
f 609/803 786/958 635/957
f 638/950 759/1048 569/1049
f 569/1049 1011/1050 638/950
f 396/555 1011/1050 608/312
f 641/945 835/934 511/935
f 511/935 1012/1051 641/945
f 268/521 1012/1051 557/309
f 605/305 885/577 393/574
f 1013/308 644/937 605/305
f 606/812 789/938 644/937
f 647/930 828/1052 492/1053
f 492/1053 1014/1054 647/930
f 393/574 1014/1054 605/305
f 650/925 834/825 508/826
f 508/826 1015/1055 650/925
f 239/465 1015/1055 538/276
f 653/919 769/1056 599/1057
f 599/1057 1016/1058 653/919
f 388/600 1016/1058 600/271
f 1017/1059 381/603 499/258
f 527/1060 1017/1059 499/258
f 751/1061 656/604 527/1060
f 1018/1062 329/131 583/130
f 561/1063 1018/1062 583/130
f 755/1064 659/610 561/1063
f 1019/1065 326/122 582/121
f 567/1066 1019/1065 582/121
f 757/1067 662/616 567/1066
f 1020/1068 324/116 581/115
f 432/1069 1020/1068 581/115
f 816/1070 665/622 432/1069
f 1021/1071 317/101 576/100
f 433/1072 1021/1071 576/100
f 817/1073 668/628 433/1072
f 671/880 766/1074 590/1075
f 590/1075 1022/1076 671/880
f 377/638 1022/1076 591/236
f 1023/1077 259/512 554/235
f 596/1078 1023/1077 554/235
f 768/1079 674/640 596/1078
f 677/866 829/1080 493/1081
f 493/1081 1024/1082 677/866
f 390/650 1024/1082 602/213
f 1025/1083 386/653 502/226
f 464/1084 1025/1083 502/226
f 818/1085 680/654 464/1084
f 1026/1086 252/507 549/223
f 599/1057 1026/1086 549/223
f 769/1056 683/659 599/1057
f 1027/1087 261/514 555/218
f 593/1088 1027/1087 555/218
f 767/1089 686/662 593/1088
f 689/835 767/1089 593/1088
f 593/1088 1028/1090 689/835
f 380/670 1028/1090 594/215
f 602/213 901/672 390/650
f 1029/212 692/828 602/213
f 603/821 805/829 692/828
f 695/820 825/1091 475/1092
f 475/1092 1030/1093 695/820
f 242/40 1030/1093 541/38
f 698/811 824/1094 474/1095
f 474/1095 1031/1096 698/811
f 333/142 1031/1096 584/140
f 701/802 763/1097 587/1098
f 587/1098 1032/1099 701/802
f 246/21 1032/1099 544/19
f 704/793 762/1064 586/1063
f 586/1063 1033/1100 704/793
f 335/145 1033/1100 585/143
f 1034/1101 264/517 556/198
f 590/1075 1034/1101 556/198
f 766/1074 707/700 590/1075
f 1035/1102 378/704 496/195
f 526/1045 1035/1102 496/195
f 750/1044 710/705 526/1045
f 713/768 768/1079 596/1078
f 596/1078 1036/1103 713/768
f 385/711 1036/1103 597/191
f 1037/1104 389/714 505/189
f 469/1105 1037/1104 505/189
f 820/1106 716/715 469/1105
f 457/110 256/781 257/516
f 455/107 254/840 255/511
f 452/95 249/871 250/506
f 450/92 247/847 248/519
f 615/1107 754/1030 775/1037
f 617/1108 756/1109 777/1029
f 619/1110 815/1111 779/1022
f 621/1112 814/1023 781/1014
f 245/147 530/41 227/731
f 291/34 542/30 244/734
f 286/139 563/27 284/736
f 276/24 562/25 281/739
f 781/1014 222/477 423/730
f 779/1022 224/1113 421/728
f 777/1029 288/1114 417/726
f 775/1037 278/486 415/725
f 774/1040 225/489 414/501
f 760/1041 414/501 304/498
f 764/1038 415/725 358/495
f 776/1032 226/1115 416/492
f 761/1033 416/492 305/489
f 765/1030 417/726 359/486
f 778/1025 298/1116 420/482
f 827/1020 420/482 357/480
f 823/1023 421/728 303/477
f 780/1017 280/480 422/475
f 826/1018 422/475 356/472
f 822/1015 423/730 302/469
f 854/1008 219/429 183/431
f 858/1006 87/1117 2/1118
f 748/1004 1/1119 87/1117
f 855/742 218/423 184/426
f 859/1001 81/1120 4/1119
f 746/999 3/1121 81/1120
f 733/751 214/410 186/413
f 729/986 85/1122 6/1123
f 744/994 5/1124 85/1122
f 732/991 213/403 185/406
f 728/989 83/1125 8/1126
f 742/987 7/1123 83/1125
f 743/752 86/413 213/403
f 745/749 88/1127 214/410
f 747/746 84/1128 218/423
f 749/743 82/426 219/429
f 845/470 526/1002 525/741
f 843/478 527/1129 523/744
f 841/487 469/1130 521/747
f 839/496 464/996 519/750
f 838/499 432/995 518/985
f 824/500 518/985 474/988
f 828/497 519/750 492/990
f 840/490 433/1131 520/992
f 825/491 520/992 475/995
f 829/488 521/747 493/996
f 842/481 567/1132 522/997
f 763/476 522/997 587/1000
f 759/479 523/744 569/1002
f 844/473 561/1000 524/1003
f 762/474 524/1003 586/1005
f 758/471 525/741 568/1007
f 726/434 621/1112 472/1013
f 730/432 620/1019 490/1016
f 876/430 465/1024 620/1019
f 727/53 619/1110 473/1021
f 731/427 618/1026 491/1024
f 874/425 471/1133 618/1026
f 861/74 617/1108 589/1028
f 857/404 616/1034 571/1031
f 872/412 529/1134 616/1034
f 860/409 615/1107 588/1036
f 856/407 614/1042 570/1039
f 870/405 528/1031 614/1042
f 871/75 560/1028 615/1107
f 873/71 565/1135 617/1108
f 875/57 431/1136 619/1110
f 877/54 430/1021 621/1112
f 339/1 49/529 51/2
f 45/4 46/50 121/5
f 344/7 69/528 65/8
f 125/10 29/172 123/11
f 41/13 39/452 126/14
f 111/16 32/422 112/17
f 544/19 4/26 274/20
f 243/22 4/26 559/23
f 295/33 6/32 566/31
f 541/38 6/32 223/39
f 110/44 34/394 48/45
f 347/47 77/494 73/48
f 46/50 38/336 120/51
f 81/52 3/428 718/53
f 83/55 7/408 719/56
f 44/58 36/344 114/59
f 89/61 30/433 90/62
f 192/64 18/287 296/65
f 117/26 31/450 118/67
f 87/69 1/29 852/70
f 51/2 55/163 340/72
f 85/73 5/414 850/74
f 194/76 19/283 350/77
f 47/79 33/396 108/80
f 345/1 65/529 67/2
f 107/82 30/451 89/83
f 91/85 40/421 42/86
f 43/88 44/58 115/60
f 41/90 42/854 449/91
f 47/93 48/876 451/94
f 575/96 5/239 316/97
f 318/99 5/239 576/100
f 44/105 43/845 454/106
f 46/108 45/788 456/109
f 578/111 7/241 323/112
f 325/114 7/241 581/115
f 327/120 3/26 582/121
f 580/123 3/26 328/124
f 330/129 1/43 583/130
f 573/135 1/43 331/136
f 332/138 8/29 564/28
f 584/140 8/29 334/141
f 585/143 2/43 336/144
f 337/146 2/43 543/42
f 190/157 16/291 297/158
f 42/86 41/13 127/15
f 113/160 32/395 111/161
f 338/7 53/528 49/8
f 55/163 53/528 338/7
f 188/164 13/297 353/165
f 119/167 31/343 117/168
f 63/170 61/494 341/47
f 342/49 57/48 59/172
f 116/174 35/415 43/88
f 71/163 69/528 344/7
f 59/175 63/170 343/171
f 341/47 61/494 57/48
f 48/45 47/79 109/81
f 123/177 29/416 124/178
f 67/2 71/163 346/72
f 348/49 73/48 75/172
f 75/175 79/170 349/171
f 79/170 77/494 347/47
f 366/180 182/419 355/181
f 122/183 37/330 45/4
f 135/104 33/384 251/184
f 724/188 469/1105 505/189
f 597/191 596/1078 864/192
f 846/194 526/1045 496/195
f 862/197 590/1075 556/198
f 585/143 586/1063 858/200
f 544/19 587/1098 859/201
f 584/140 474/1095 728/202
f 541/38 475/1092 729/206
f 40/102 135/104 383/207
f 186/211 603/821 1029/212
f 34/117 143/119 375/187
f 594/215 593/1088 863/216
f 863/216 593/1088 555/218
f 865/222 599/1057 549/223
f 722/225 464/1084 502/226
f 602/213 493/1081 733/231
f 143/119 36/373 258/232
f 147/128 38/368 263/233
f 864/192 596/1078 554/235
f 591/236 590/1075 862/197
f 721/238 433/1072 576/100
f 720/240 432/1069 581/115
f 134/242 132/387 316/97
f 853/243 567/1066 582/121
f 851/200 561/1063 583/130
f 142/244 140/376 323/112
f 145/245 146/371 328/124
f 149/246 151/363 331/136
f 201/286 25/255 175/254
f 25/255 17/485 351/253
f 847/257 527/1060 499/258
f 199/282 22/262 173/261
f 22/262 20/503 294/260
f 300/263 181/347 369/264
f 150/134 39/365 266/266
f 600/271 599/1057 865/222
f 37/132 150/134 371/270
f 203/296 28/275 179/274
f 28/275 14/527 299/273
f 538/276 508/826 738/277
f 21/281 22/262 199/282
f 199/282 173/261 350/77
f 35/126 147/128 373/279
f 26/285 25/255 201/286
f 201/286 175/254 296/65
f 24/289 23/294 202/290
f 202/290 177/293 297/158
f 202/290 23/294 177/293
f 23/294 15/525 352/292
f 27/295 28/275 203/296
f 203/296 179/274 353/165
f 367/298 205/587 368/299
f 354/302 11/420 301/303
f 605/305 492/1053 732/306
f 185/307 606/812 1013/308
f 557/309 511/935 739/310
f 608/312 569/1049 855/313
f 184/314 609/803 1010/315
f 531/316 514/955 740/317
f 611/319 568/1045 854/194
f 183/196 612/794 1007/320
f 558/321 517/973 741/322
f 17/324 122/183 193/6
f 172/326 170/333 290/72
f 198/327 172/326 293/7
f 292/3 171/329 198/328
f 197/329 169/333 289/47
f 206/179 124/178 37/330
f 176/331 206/179 122/183
f 9/332 123/177 206/179
f 189/46 109/81 27/58
f 279/72 164/333 165/329
f 196/327 166/326 283/7
f 169/333 167/326 285/171
f 15/330 116/174 191/89
f 282/3 165/329 196/328
f 166/326 164/333 279/72
f 207/169 117/168 11/334
f 120/51 207/169 192/335
f 38/336 119/167 207/169
f 208/337 179/274 299/273
f 204/339 208/337 402/338
f 10/341 188/164 403/166
f 163/333 161/326 273/171
f 273/171 161/326 162/327
f 209/162 111/161 12/343
f 114/59 209/162 190/167
f 36/344 113/160 209/162
f 187/87 127/15 21/79
f 210/345 177/293 352/292
f 181/347 210/345 404/346
f 12/348 190/157 405/159
f 93/155 95/350 406/349
f 154/152 152/353 408/352
f 156/149 157/356 410/355
f 540/359 241/523 272/357
f 272/357 157/356 540/359
f 271/148 270/522 558/321
f 558/321 155/323 156/149
f 269/151 268/521 557/309
f 557/309 153/311 154/152
f 535/361 234/520 267/354
f 267/354 152/353 535/361
f 266/266 248/519 546/362
f 546/362 129/391 151/363
f 556/198 264/517 265/272
f 265/272 149/246 556/198
f 263/233 257/516 553/370
f 553/370 139/377 146/371
f 555/218 261/514 262/284
f 262/284 145/245 555/218
f 554/235 259/512 260/214
f 260/214 142/244 554/235
f 258/232 255/511 551/375
f 551/375 137/380 140/376
f 139/377 138/756 483/378
f 137/380 136/755 481/381
f 549/223 252/507 253/208
f 253/208 134/242 549/223
f 251/184 250/506 548/386
f 548/386 131/388 132/387
f 131/388 130/754 478/389
f 129/391 128/753 476/392
f 191/89 115/60 24/50
f 20/394 91/85 187/87
f 211/84 89/83 10/395
f 108/80 211/84 188/160
f 33/396 107/82 211/84
f 287/173 168/328 197/329
f 109/81 108/80 13/344
f 212/397 173/261 294/260
f 200/399 212/397 412/398
f 9/401 194/76 413/78
f 213/403 86/413 848/404
f 185/406 213/403 870/405
f 6/408 85/73 871/75
f 195/329 163/333 277/47
f 214/410 88/1127 849/411
f 186/413 214/410 872/412
f 2/414 87/69 873/71
f 215/68 118/67 35/415
f 178/178 215/68 116/174
f 11/416 117/26 215/68
f 216/417 175/254 351/253
f 182/419 216/417 418/418
f 11/420 192/64 419/66
f 217/63 90/62 40/421
f 174/17 217/63 91/85
f 10/422 89/61 217/63
f 115/60 114/59 16/336
f 218/423 84/1128 725/424
f 184/426 218/423 874/425
f 8/428 83/55 875/57
f 219/429 82/426 723/427
f 183/431 219/429 876/430
f 4/433 81/52 877/54
f 121/5 120/51 18/275
f 290/72 170/333 171/329
f 14/415 110/44 189/46
f 540/359 106/358 105/435
f 238/35 239/465 538/276
f 538/276 104/278 103/36
f 103/36 101/438 424/437
f 537/441 236/464 237/439
f 237/439 101/438 537/441
f 537/441 100/440 99/442
f 535/361 98/360 97/444
f 532/446 94/449 96/447
f 532/446 230/454 231/351
f 231/351 95/350 532/446
f 229/154 228/453 531/316
f 531/316 92/318 93/155
f 220/18 112/17 34/394
f 180/67 220/18 110/44
f 12/450 111/16 220/18
f 127/15 126/14 19/396
f 221/12 123/11 9/451
f 126/14 221/12 194/82
f 39/452 125/10 221/12
f 285/171 167/326 168/327
f 193/6 121/5 26/295
f 275/173 162/328 195/329
f 50/172 275/173 306/49
f 70/170 285/171 287/176
f 15/280 23/964 435/553
f 435/553 228/453 15/280
f 436/455 26/1012 18/269
f 18/269 231/351 230/454
f 436/455 230/454 232/456
f 439/458 234/520 233/459
f 441/461 236/464 235/462
f 441/461 27/1010 13/210
f 13/210 237/439 236/464
f 223/39 295/33 101/438
f 424/437 237/439 13/210
f 20/301 22/924 442/592
f 442/592 239/465 20/301
f 444/466 241/523 240/467
f 78/163 290/72 292/3
f 302/469 423/730 845/470
f 356/472 422/475 844/473
f 422/475 280/480 755/476
f 303/477 421/728 843/478
f 357/480 420/482 842/481
f 420/482 298/1116 757/483
f 301/303 419/66 216/417
f 355/181 418/418 176/484
f 418/418 351/253 17/485
f 359/486 417/726 841/487
f 305/489 416/492 840/490
f 416/492 226/1115 817/493
f 306/49 277/47 56/494
f 358/495 415/725 839/496
f 304/498 414/501 838/499
f 414/501 225/489 816/491
f 364/402 413/78 212/397
f 310/400 412/398 174/502
f 412/398 294/260 20/503
f 66/172 287/173 308/49
f 313/137 312/758 572/504
f 315/98 314/856 574/505
f 33/384 47/93 452/95
f 452/95 250/506 33/384
f 453/508 42/854 40/102
f 40/102 253/208 252/507
f 320/113 319/909 577/509
f 322/125 321/773 579/510
f 36/373 44/105 455/107
f 455/107 255/511 36/373
f 458/513 48/876 34/117
f 34/117 260/214 259/512
f 459/515 43/845 35/126
f 35/126 262/284 261/514
f 38/368 46/108 457/110
f 457/110 257/516 38/368
f 460/518 45/788 37/132
f 37/132 265/272 264/517
f 39/365 41/90 450/92
f 450/92 248/519 39/365
f 439/458 24/1011 16/288
f 16/288 267/354 234/520
f 14/237 28/944 461/572
f 461/572 268/521 14/237
f 17/229 25/982 462/534
f 462/534 270/522 17/229
f 444/466 21/1009 19/256
f 19/256 272/357 241/523
f 336/144 337/146 157/356
f 410/355 272/357 19/256
f 334/141 332/138 152/353
f 408/352 267/354 16/288
f 274/20 243/22 95/350
f 406/349 231/351 18/269
f 300/263 405/159 210/345
f 354/302 404/346 178/524
f 404/346 352/292 15/525
f 54/170 273/171 275/176
f 277/47 273/171 54/170
f 365/342 403/166 208/337
f 311/340 402/338 180/526
f 402/338 299/273 14/527
f 283/7 279/72 62/163
f 58/2 282/3 307/1
f 289/47 285/171 70/170
f 307/9 283/7 64/528
f 62/163 279/72 282/3
f 308/49 289/47 72/494
f 74/2 292/3 309/1
f 309/9 293/7 80/528
f 293/7 290/72 78/163
f 622/530 613/978 773/531
f 401/532 623/983 1004/533
f 462/534 624/980 782/535
f 399/536 625/540 1002/537
f 879/539 626/975 625/540
f 400/541 516/789 1000/542
f 628/544 472/774 822/545
f 302/546 629/970 998/547
f 515/538 630/968 784/548
f 631/549 610/960 772/550
f 398/551 632/965 995/552
f 435/553 633/962 785/554
f 396/555 634/559 993/556
f 882/558 635/957 634/559
f 397/560 513/798 991/561
f 637/563 473/952 823/564
f 303/565 638/950 989/566
f 512/557 639/948 787/567
f 640/568 607/940 771/569
f 395/570 641/945 986/571
f 461/572 642/942 788/573
f 393/574 643/578 984/575
f 885/577 644/937 643/578
f 394/579 510/807 982/580
f 646/582 588/932 764/583
f 358/584 647/930 980/585
f 509/576 648/928 790/586
f 426/304 301/303 182/419
f 369/264 426/304 366/180
f 181/347 354/302 426/304
f 427/300 368/299 200/399
f 365/342 427/300 310/400
f 204/339 367/298 427/300
f 145/245 373/279 372/234
f 649/588 604/831 770/589
f 392/590 650/925 977/591
f 442/592 651/922 791/593
f 652/594 503/848 833/595
f 387/596 653/919 974/597
f 504/598 654/917 792/599
f 149/246 371/270 370/267
f 428/265 369/264 205/587
f 311/340 428/265 367/298
f 12/348 300/263 428/265
f 889/601 655/913 595/602
f 656/604 655/913 889/601
f 815/605 431/910 657/606
f 890/608 658/905 487/609
f 659/610 658/905 890/608
f 819/611 465/796 660/612
f 891/614 661/900 486/615
f 662/616 661/900 891/614
f 821/617 471/897 663/618
f 892/620 664/893 485/621
f 665/622 664/893 892/620
f 752/623 528/890 666/624
f 893/626 667/886 480/627
f 668/628 667/886 893/626
f 753/629 529/883 669/630
f 670/632 494/782 830/633
f 376/634 671/880 956/635
f 495/636 672/878 798/637
f 895/639 673/873 458/513
f 674/640 673/873 895/639
f 832/641 500/770 675/642
f 676/644 589/868 765/645
f 359/646 677/866 950/647
f 506/648 678/864 800/649
f 897/651 679/860 598/652
f 680/654 679/860 897/651
f 754/655 560/857 681/656
f 898/658 682/851 453/508
f 683/659 682/851 898/658
f 833/595 503/848 684/660
f 899/661 685/842 459/515
f 686/662 685/842 899/661
f 831/663 497/837 687/664
f 688/666 497/837 831/663
f 379/665 689/835 938/667
f 498/668 690/833 804/669
f 134/242 383/207 382/185
f 390/650 691/673 936/671
f 901/672 692/828 691/673
f 391/674 507/816 934/675
f 694/677 571/823 761/678
f 305/679 695/820 932/680
f 445/681 696/818 806/682
f 697/683 570/814 760/684
f 304/685 698/811 929/686
f 488/687 699/809 807/688
f 700/689 491/805 827/690
f 357/691 701/802 926/692
f 448/693 702/800 808/694
f 703/695 490/796 826/611
f 356/613 704/793 923/696
f 489/697 705/791 809/698
f 906/699 706/785 460/518
f 707/700 706/785 906/699
f 830/633 494/782 708/701
f 907/702 709/777 592/703
f 710/705 709/777 907/702
f 814/545 430/774 711/706
f 712/707 500/770 832/641
f 384/643 713/768 914/708
f 501/709 714/766 812/710
f 909/712 715/762 601/713
f 716/715 715/762 909/712
f 756/716 565/759 717/717
f 142/244 375/187 374/186
f 429/182 355/181 9/401
f 368/299 429/182 364/402
f 205/587 366/180 429/182
f 349/171 347/47 170/333
f 363/176 349/171 172/326
f 171/329 348/49 363/173
f 362/3 346/72 169/333
f 164/333 341/47 342/49
f 361/176 343/171 166/326
f 346/72 344/7 167/326
f 165/329 342/49 361/173
f 343/171 341/47 164/333
f 403/166 353/165 179/274
f 340/72 338/7 161/326
f 161/326 338/7 339/9
f 405/159 297/158 177/293
f 229/154 407/156 160/268
f 269/151 409/153 159/221
f 271/148 411/150 158/230
f 447/719 106/358 157/356
f 157/356 337/146 447/719
f 156/149 155/323 489/697
f 489/697 335/145 336/144
f 154/152 153/311 488/687
f 488/687 333/142 334/141
f 468/720 98/360 152/353
f 152/353 332/138 468/720
f 151/363 129/391 477/393
f 477/393 313/137 331/136
f 487/609 148/199 149/246
f 149/246 330/129 487/609
f 146/371 139/377 484/379
f 484/379 322/125 328/124
f 486/615 144/217 145/245
f 145/245 327/120 486/615
f 485/621 141/193 142/244
f 142/244 325/114 485/621
f 140/376 137/380 482/382
f 482/382 320/113 323/112
f 257/516 256/781 552/721
f 255/511 254/840 550/722
f 480/627 133/224 134/242
f 134/242 318/99 480/627
f 132/387 131/388 479/390
f 479/390 315/98 316/97
f 250/506 249/871 547/723
f 248/519 247/847 545/724
f 168/328 345/1 362/3
f 413/78 350/77 173/261
f 415/725 278/486 818/488
f 360/3 340/72 163/333
f 417/726 288/1114 820/727
f 419/66 296/65 175/254
f 421/728 224/1113 751/729
f 423/730 222/477 750/479
f 170/333 347/47 348/49
f 447/719 245/147 227/731
f 103/36 104/278 445/681
f 445/681 242/40 223/39
f 238/35 425/37 102/209
f 470/733 100/440 101/438
f 101/438 295/33 470/733
f 470/733 291/34 244/734
f 468/720 286/139 284/736
f 463/738 276/24 281/739
f 463/738 94/449 95/350
f 95/350 243/22 463/738
f 93/155 92/318 448/693
f 448/693 246/21 274/20
f 167/326 344/7 345/9
f 162/328 339/1 360/3
f 94/449 463/738 466/740
f 98/360 468/720 467/737
f 100/440 470/733 446/735
f 106/358 447/719 434/732
f 525/741 526/1002 846/742
f 523/744 527/1129 847/745
f 521/747 469/1130 724/748
f 519/750 464/996 722/751
f 546/362 545/724 128/753
f 548/386 547/723 130/754
f 551/375 550/722 136/755
f 553/370 552/721 138/756
f 910/757 572/504 312/758
f 565/759 572/504 910/757
f 852/760 1/43 572/504
f 717/717 312/758 813/761
f 715/762 716/715 911/763
f 288/718 717/717 911/763
f 912/764 476/392 128/753
f 715/762 476/392 912/764
f 813/761 312/758 476/392
f 502/226 386/653 908/765
f 714/766 501/709 913/767
f 86/227 502/226 913/767
f 712/707 714/766 908/765
f 914/708 713/768 714/766
f 713/768 385/711 812/710
f 598/652 130/754 736/769
f 500/770 712/707 915/771
f 386/653 598/652 915/771
f 916/772 579/510 321/773
f 430/774 579/510 916/772
f 718/775 3/26 579/510
f 711/706 321/773 811/776
f 709/777 710/705 917/778
f 222/546 711/706 917/778
f 918/779 483/378 138/756
f 709/777 483/378 918/779
f 811/776 321/773 483/378
f 919/780 552/721 256/781
f 494/782 552/721 919/780
f 734/783 138/756 552/721
f 708/701 256/781 810/784
f 706/785 707/700 920/786
f 376/634 708/701 920/786
f 921/787 456/109 45/788
f 706/785 456/109 921/787
f 810/784 256/781 456/109
f 516/789 400/541 905/790
f 705/791 489/697 922/792
f 155/323 516/789 922/792
f 703/695 705/791 905/790
f 923/696 704/793 705/791
f 704/793 335/145 809/698
f 612/794 183/196 730/795
f 490/796 703/695 924/797
f 400/541 612/794 924/797
f 513/798 397/560 904/799
f 702/800 448/693 925/801
f 92/318 513/798 925/801
f 700/689 702/800 904/799
f 926/692 701/802 702/800
f 701/802 246/21 808/694
f 609/803 184/314 731/804
f 491/805 700/689 927/806
f 397/560 609/803 927/806
f 510/807 394/579 903/808
f 699/809 488/687 928/810
f 153/311 510/807 928/810
f 697/683 699/809 903/808
f 929/686 698/811 699/809
f 698/811 333/142 807/688
f 606/812 185/307 856/813
f 570/814 697/683 930/815
f 394/579 606/812 930/815
f 507/816 391/674 902/817
f 696/818 445/681 931/819
f 104/278 507/816 931/819
f 694/677 696/818 902/817
f 932/680 695/820 696/818
f 695/820 242/40 806/682
f 603/821 186/211 857/822
f 571/823 694/677 933/824
f 391/674 603/821 933/824
f 693/676 508/826 834/825
f 934/675 507/816 508/826
f 507/816 104/278 738/277
f 935/827 693/676 392/590
f 692/828 693/676 935/827
f 805/829 391/674 693/676
f 506/648 604/831 866/830
f 936/671 691/673 604/831
f 691/673 392/590 770/589
f 499/258 381/603 900/832
f 690/833 498/668 937/834
f 84/259 499/258 937/834
f 688/666 690/833 900/832
f 938/667 689/835 690/833
f 689/835 380/670 804/669
f 595/602 136/755 735/836
f 497/837 688/666 939/838
f 381/603 595/602 939/838
f 940/839 550/722 254/840
f 497/837 550/722 940/839
f 735/836 136/755 550/722
f 687/664 254/840 803/841
f 685/842 686/662 941/843
f 379/665 687/664 941/843
f 942/844 454/106 43/845
f 685/842 454/106 942/844
f 803/841 254/840 454/106
f 943/846 545/724 247/847
f 503/848 545/724 943/846
f 737/849 128/753 545/724
f 684/660 247/847 802/850
f 682/851 683/659 944/852
f 387/596 684/660 944/852
f 945/853 449/91 42/854
f 682/851 449/91 945/853
f 802/850 247/847 449/91
f 946/855 574/505 314/856
f 560/857 574/505 946/855
f 850/858 5/239 574/505
f 681/656 314/856 801/859
f 679/860 680/654 947/861
f 278/657 681/656 947/861
f 948/862 478/389 130/754
f 679/860 478/389 948/862
f 801/859 314/856 478/389
f 434/732 227/731 896/863
f 678/864 506/648 949/865
f 105/435 434/732 949/865
f 676/644 678/864 896/863
f 950/647 677/866 678/864
f 677/866 390/650 800/649
f 530/41 2/43 861/867
f 589/868 676/644 951/869
f 227/731 530/41 951/869
f 952/870 547/723 249/871
f 500/770 547/723 952/870
f 736/769 130/754 547/723
f 675/642 249/871 799/872
f 673/873 674/640 953/874
f 384/643 675/642 953/874
f 954/875 451/94 48/876
f 673/873 451/94 954/875
f 799/872 249/871 451/94
f 496/195 378/704 894/877
f 672/878 495/636 955/879
f 82/196 496/195 955/879
f 670/632 672/878 894/877
f 956/635 671/880 672/878
f 671/880 377/638 798/637
f 592/703 138/756 734/783
f 494/782 670/632 957/881
f 378/704 592/703 957/881
f 958/882 504/598 388/600
f 529/883 504/598 958/882
f 849/884 88/190 504/598
f 669/630 388/600 797/885
f 667/886 668/628 959/887
f 226/631 669/630 959/887
f 960/888 600/271 133/224
f 667/886 600/271 960/888
f 797/885 388/600 600/271
f 961/889 501/709 385/711
f 528/890 501/709 961/889
f 848/891 86/227 501/709
f 666/624 385/711 796/892
f 664/893 665/622 962/894
f 225/625 666/624 962/894
f 963/895 597/191 141/193
f 664/893 597/191 963/895
f 796/892 385/711 597/191
f 964/896 498/668 380/670
f 471/897 498/668 964/896
f 725/898 84/259 498/668
f 663/618 380/670 795/899
f 661/900 662/616 965/901
f 298/619 663/618 965/901
f 966/902 594/215 144/217
f 661/900 594/215 966/902
f 795/899 380/670 594/215
f 967/903 495/636 377/638
f 465/796 495/636 967/903
f 723/795 82/196 495/636
f 660/612 377/638 794/904
f 658/905 659/610 968/906
f 280/613 660/612 968/906
f 969/907 591/236 148/199
f 658/905 591/236 969/907
f 794/904 377/638 591/236
f 970/908 577/509 319/909
f 431/910 577/509 970/908
f 719/911 7/241 577/509
f 657/606 319/909 793/912
f 655/913 656/604 971/914
f 224/607 657/606 971/914
f 972/915 481/381 136/755
f 655/913 481/381 972/915
f 793/912 319/909 481/381
f 505/189 389/714 888/916
f 654/917 504/598 973/918
f 88/190 505/189 973/918
f 652/594 654/917 888/916
f 974/597 653/919 654/917
f 653/919 388/600 792/599
f 601/713 128/753 737/849
f 503/848 652/594 975/920
f 389/714 601/713 975/920
f 443/468 240/467 887/921
f 651/922 442/592 976/923
f 22/924 443/468 976/923
f 649/588 651/922 887/921
f 977/591 650/925 651/922
f 650/925 239/465 791/593
f 539/436 105/435 866/830
f 604/831 649/588 978/926
f 240/467 539/436 978/926
f 446/735 244/734 886/927
f 648/928 509/576 979/929
f 99/442 446/735 979/929
f 646/582 648/928 886/927
f 980/585 647/930 648/928
f 647/930 393/574 790/586
f 542/30 6/32 860/931
f 588/932 646/582 981/933
f 244/734 542/30 981/933
f 645/581 511/935 835/934
f 982/580 510/807 511/935
f 510/807 153/311 739/310
f 983/936 645/581 395/570
f 644/937 645/581 983/936
f 789/938 394/579 645/581
f 509/576 607/940 867/939
f 984/575 643/578 607/940
f 643/578 395/570 771/569
f 440/463 235/462 884/941
f 642/942 461/572 985/943
f 28/944 440/463 985/943
f 640/568 642/942 884/941
f 986/571 641/945 642/942
f 641/945 268/521 788/573
f 536/443 99/442 867/939
f 607/940 640/568 987/946
f 235/462 536/443 987/946
f 467/737 284/736 883/947
f 639/948 512/557 988/949
f 97/444 467/737 988/949
f 637/563 639/948 883/947
f 989/566 638/950 639/948
f 638/950 396/555 787/567
f 563/27 8/29 727/951
f 473/952 637/563 990/953
f 284/736 563/27 990/953
f 636/562 514/955 836/954
f 991/561 513/798 514/955
f 513/798 92/318 740/317
f 992/956 636/562 398/551
f 635/957 636/562 992/956
f 786/958 397/560 636/562
f 512/557 610/960 868/959
f 993/556 634/559 610/960
f 634/559 398/551 772/550
f 438/460 233/459 881/961
f 633/962 435/553 994/963
f 23/964 438/460 994/963
f 631/549 633/962 881/961
f 995/552 632/965 633/962
f 632/965 228/453 785/554
f 534/445 97/444 868/959
f 610/960 631/549 996/966
f 233/459 534/445 996/966
f 466/740 281/739 880/967
f 630/968 515/538 997/969
f 96/447 466/740 997/969
f 628/544 630/968 880/967
f 998/547 629/970 630/968
f 629/970 399/536 784/548
f 562/25 4/26 726/775
f 472/774 628/544 999/971
f 281/739 562/25 999/971
f 627/543 517/973 837/972
f 1000/542 516/789 517/973
f 516/789 155/323 741/322
f 1001/974 627/543 401/532
f 626/975 627/543 1001/974
f 783/976 400/541 627/543
f 515/538 613/978 869/977
f 1002/537 625/540 613/978
f 625/540 401/532 773/531
f 437/457 232/456 878/979
f 624/980 462/534 1003/981
f 25/982 437/457 1003/981
f 622/530 624/980 878/979
f 1004/533 623/983 624/980
f 623/983 270/522 782/535
f 533/448 96/447 869/977
f 613/978 622/530 1005/984
f 232/456 533/448 1005/984
f 518/985 432/995 720/986
f 474/988 518/985 742/987
f 492/990 519/750 743/752
f 520/992 433/1131 721/993
f 475/995 520/992 744/994
f 493/996 521/747 745/749
f 522/997 567/1132 853/998
f 587/1000 522/997 746/999
f 569/1002 523/744 747/746
f 524/1003 561/1000 851/1001
f 586/1005 524/1003 748/1004
f 568/1007 525/741 749/743
f 21/1009 444/466 443/468
f 27/1010 441/461 440/463
f 24/1011 439/458 438/460
f 26/1012 436/455 437/457
f 230/454 532/446 533/448
f 234/520 535/361 534/445
f 236/464 537/441 536/443
f 241/523 540/359 539/436
f 472/1013 621/1112 781/1014
f 490/1016 620/1019 780/1017
f 620/1019 465/1024 819/1020
f 473/1021 619/1110 779/1022
f 491/1024 618/1026 778/1025
f 618/1026 471/1133 821/1027
f 589/1028 617/1108 777/1029
f 571/1031 616/1034 776/1032
f 616/1034 529/1134 753/1035
f 588/1036 615/1107 775/1037
f 570/1039 614/1042 774/1040
f 614/1042 528/1031 752/1033
f 477/393 476/392 312/758
f 479/390 478/389 314/856
f 482/382 481/381 319/909
f 484/379 483/378 321/773
f 623/983 401/532 837/972
f 517/973 558/321 1006/1043
f 270/522 623/983 1006/1043
f 611/319 626/975 879/539
f 1007/320 612/794 626/975
f 612/794 400/541 783/976
f 629/970 302/546 758/1044
f 568/1045 611/319 1008/1046
f 399/536 629/970 1008/1046
f 632/965 398/551 836/954
f 514/955 531/316 1009/1047
f 228/453 632/965 1009/1047
f 608/312 635/957 882/558
f 1010/315 609/803 635/957
f 609/803 397/560 786/958
f 638/950 303/565 759/1048
f 569/1049 608/312 1011/1050
f 396/555 638/950 1011/1050
f 641/945 395/570 835/934
f 511/935 557/309 1012/1051
f 268/521 641/945 1012/1051
f 605/305 644/937 885/577
f 1013/308 606/812 644/937
f 606/812 394/579 789/938
f 647/930 358/584 828/1052
f 492/1053 605/305 1014/1054
f 393/574 647/930 1014/1054
f 650/925 392/590 834/825
f 508/826 538/276 1015/1055
f 239/465 650/925 1015/1055
f 653/919 387/596 769/1056
f 599/1057 600/271 1016/1058
f 388/600 653/919 1016/1058
f 1017/1059 656/604 381/603
f 527/1060 656/604 1017/1059
f 751/1061 224/607 656/604
f 1018/1062 659/610 329/131
f 561/1063 659/610 1018/1062
f 755/1064 280/613 659/610
f 1019/1065 662/616 326/122
f 567/1066 662/616 1019/1065
f 757/1067 298/619 662/616
f 1020/1068 665/622 324/116
f 432/1069 665/622 1020/1068
f 816/1070 225/625 665/622
f 1021/1071 668/628 317/101
f 433/1072 668/628 1021/1071
f 817/1073 226/631 668/628
f 671/880 376/634 766/1074
f 590/1075 591/236 1022/1076
f 377/638 671/880 1022/1076
f 1023/1077 674/640 259/512
f 596/1078 674/640 1023/1077
f 768/1079 384/643 674/640
f 677/866 359/646 829/1080
f 493/1081 602/213 1024/1082
f 390/650 677/866 1024/1082
f 1025/1083 680/654 386/653
f 464/1084 680/654 1025/1083
f 818/1085 278/657 680/654
f 1026/1086 683/659 252/507
f 599/1057 683/659 1026/1086
f 769/1056 387/596 683/659
f 1027/1087 686/662 261/514
f 593/1088 686/662 1027/1087
f 767/1089 379/665 686/662
f 689/835 379/665 767/1089
f 593/1088 594/215 1028/1090
f 380/670 689/835 1028/1090
f 602/213 692/828 901/672
f 1029/212 603/821 692/828
f 603/821 391/674 805/829
f 695/820 305/679 825/1091
f 475/1092 541/38 1030/1093
f 242/40 695/820 1030/1093
f 698/811 304/685 824/1094
f 474/1095 584/140 1031/1096
f 333/142 698/811 1031/1096
f 701/802 357/691 763/1097
f 587/1098 544/19 1032/1099
f 246/21 701/802 1032/1099
f 704/793 356/613 762/1064
f 586/1063 585/143 1033/1100
f 335/145 704/793 1033/1100
f 1034/1101 707/700 264/517
f 590/1075 707/700 1034/1101
f 766/1074 376/634 707/700
f 1035/1102 710/705 378/704
f 526/1045 710/705 1035/1102
f 750/1044 222/546 710/705
f 713/768 384/643 768/1079
f 596/1078 597/191 1036/1103
f 385/711 713/768 1036/1103
f 1037/1104 716/715 389/714
f 469/1105 716/715 1037/1104
f 820/1106 288/718 716/715
f 457/110 456/109 256/781
f 455/107 454/106 254/840
f 452/95 451/94 249/871
f 450/92 449/91 247/847
f 615/1107 560/1028 754/1030
f 617/1108 565/1135 756/1109
f 619/1110 431/1136 815/1111
f 621/1112 430/1021 814/1023
f 245/147 543/42 530/41
f 291/34 566/31 542/30
f 286/139 564/28 563/27
f 276/24 559/23 562/25
f 781/1014 814/1023 222/477
f 779/1022 815/1111 224/1113
f 777/1029 756/1109 288/1114
f 775/1037 754/1030 278/486
f 774/1040 752/1033 225/489
f 760/1041 774/1040 414/501
f 764/1038 775/1037 415/725
f 776/1032 753/1035 226/1115
f 761/1033 776/1032 416/492
f 765/1030 777/1029 417/726
f 778/1025 821/1027 298/1116
f 827/1020 778/1025 420/482
f 823/1023 779/1022 421/728
f 780/1017 819/1020 280/480
f 826/1018 780/1017 422/475
f 822/1015 781/1014 423/730
f 854/1008 749/743 219/429
f 858/1006 748/1004 87/1117
f 748/1004 851/1001 1/1119
f 855/742 747/746 218/423
f 859/1001 746/999 81/1120
f 746/999 853/998 3/1121
f 733/751 745/749 214/410
f 729/986 744/994 85/1122
f 744/994 721/993 5/1124
f 732/991 743/752 213/403
f 728/989 742/987 83/1125
f 742/987 720/986 7/1123
f 743/752 722/751 86/413
f 745/749 724/748 88/1127
f 747/746 847/745 84/1128
f 749/743 846/742 82/426
f 845/470 750/479 526/1002
f 843/478 751/729 527/1129
f 841/487 820/727 469/1130
f 839/496 818/488 464/996
f 838/499 816/491 432/995
f 824/500 838/499 518/985
f 828/497 839/496 519/750
f 840/490 817/493 433/1131
f 825/491 840/490 520/992
f 829/488 841/487 521/747
f 842/481 757/483 567/1132
f 763/476 842/481 522/997
f 759/479 843/478 523/744
f 844/473 755/476 561/1000
f 762/474 844/473 524/1003
f 758/471 845/470 525/741
f 726/434 877/54 621/1112
f 730/432 876/430 620/1019
f 876/430 723/427 465/1024
f 727/53 875/57 619/1110
f 731/427 874/425 618/1026
f 874/425 725/424 471/1133
f 861/74 873/71 617/1108
f 857/404 872/412 616/1034
f 872/412 849/411 529/1134
f 860/409 871/75 615/1107
f 856/407 870/405 614/1042
f 870/405 848/404 528/1031
f 871/75 850/74 560/1028
f 873/71 852/70 565/1135
f 875/57 719/56 431/1136
f 877/54 718/53 430/1021
