o Plane
v -1.375 0 2.5
v 1.375 0 2.5
v -1.375 -0 -2.5
v 1.375 -0 -2.5
v -1.375 0.5 2.5
v 1.375 0.5 2.5
v -1.375 0.5 -2.5
v 1.375 0.5 -2.5
v -0.125 0.5 -2.25
v 0.125 0.5 -2.25
v -0.125 0.5 -2.5
v 0.125 0.5 -2.5
v -0.125 0.5 2.5
v 0.125 0.5 2.5
v -0.125 0.5 2.25
v 0.125 0.5 2.25
v -0.125 4.5 -2.5
v -0.125 4.25 -2.25
v 0.125 4.25 -2.25
v 0.125 4.5 -2.5
v -0.125 4.25 2.25
v -0.125 4.5 2.5
v 0.125 4.5 2.5
v 0.125 4.25 2.25
v -0.6495 3.0625 1
v -0.375 3.1998 1
v 0 0.9375 0.3505
v -0.6495 2.875 1.375
v -0.5625 3.0625 1.3248
v -0.3248 3.1998 1.1875
v 0.375 1.125 0.3505
v 0.3248 0.9375 0.4375
v 0.1875 0.8002 0.6752
v -0.375 2.875 1.6495
v 0.6495 1.125 0.625
v 0.5625 0.9375 0.6752
v 0.3248 0.8002 0.8125
v -0.3248 3.0625 1.5625
v -0.1875 3.1998 1.3248
v 0.75 1.125 1
v 0.6495 0.9375 1
v 0.375 0.8002 1
v 0 2.875 1.75
v 0 3.0625 1.6495
v 0.6495 1.125 1.375
v 0.5625 0.9375 1.3248
v 0.3248 0.8002 1.1875
v 0 3.1998 1.375
v 0.375 2.875 1.6495
v 0.375 1.125 1.6495
v 0.3248 0.9375 1.5625
v 0.1875 0.8002 1.3248
v 0.3248 3.0625 1.5625
v 0.1875 3.1998 1.3248
v 0 1.125 1.75
v 0 0.9375 1.6495
v 0 0.8002 1.375
v 0.6495 2.875 1.375
v 0.5625 3.0625 1.3248
v -0.375 1.125 1.6495
v -0.3248 0.9375 1.5625
v -0.1875 0.8002 1.3248
v 0 0.75 1
v 0.3248 3.1998 1.1875
v -0.6495 1.125 1.375
v -0.5625 0.9375 1.3248
v -0.3248 0.8002 1.1875
v 0.75 2.875 1
v 0.6495 3.0625 1
v -0.75 1.125 1
v -0.6495 0.9375 1
v -0.375 0.8002 1
v 0.375 3.1998 1
v 0.6495 2.875 0.625
v -0.6495 1.125 0.625
v -0.5625 0.9375 0.6752
v -0.3248 0.8002 0.8125
v 0.5625 3.0625 0.6752
v 0.3248 3.1998 0.8125
v -0.375 1.125 0.3505
v -0.3248 0.9375 0.4375
v -0.1875 0.8002 0.6752
v 0 3.25 1
v 0.375 2.875 0.3505
v 0.3248 3.0625 0.4375
v 0.1875 3.1998 0.6752
v 0 1.125 0.25
v 0 3.0625 0.3505
v 0 0.8002 0.625
v 0 3.1998 0.625
v -0.75 2.875 1
v -0.3248 3.1998 0.8125
v -0.5625 3.0625 0.6752
v -0.6495 2.875 0.625
v -0.1875 3.1998 0.6752
v -0.3248 3.0625 0.4375
v -0.375 2.875 0.3505
v 0 2.875 0.25
v 0.3125 0.5 0.5625
v 0.2241 0.5 0.5991
v 0.1875 0.5 0.6875
v 0.2241 0.5 0.7759
v 0.3125 0.5 0.8125
v 0.4009 0.5 0.7759
v 0.4375 0.5 0.6875
v 0.4009 0.5 0.5991
v 0.3125 0.5 1.1875
v 0.2241 0.5 1.2241
v 0.1875 0.5 1.3125
v 0.2241 0.5 1.4009
v 0.3125 0.5 1.4375
v 0.4009 0.5 1.4009
v 0.4375 0.5 1.3125
v 0.4009 0.5 1.2241
v -0.3125 0.5 0.5625
v -0.4009 0.5 0.5991
v -0.4375 0.5 0.6875
v -0.4009 0.5 0.7759
v -0.3125 0.5 0.8125
v -0.2241 0.5 0.7759
v -0.1875 0.5 0.6875
v -0.2241 0.5 0.5991
v -0.3125 0.5 1.1875
v -0.4009 0.5 1.2241
v -0.4375 0.5 1.3125
v -0.4009 0.5 1.4009
v -0.3125 0.5 1.4375
v -0.2241 0.5 1.4009
v -0.1875 0.5 1.3125
v -0.2241 0.5 1.2241
v 0.3125 0.9375 0.5625
v 0.2241 0.9375 0.5991
v 0.1875 0.9375 0.6875
v 0.2241 0.9375 0.7759
v 0.3125 0.9375 0.8125
v 0.4009 0.9375 0.7759
v 0.4375 0.9375 0.6875
v 0.4009 0.9375 0.5991
v 0.3125 0.9375 1.1875
v 0.2241 0.9375 1.2241
v 0.1875 0.9375 1.3125
v 0.2241 0.9375 1.4009
v 0.3125 0.9375 1.4375
v 0.4009 0.9375 1.4009
v 0.4375 0.9375 1.3125
v 0.4009 0.9375 1.2241
v -0.3125 0.9375 0.5625
v -0.4009 0.9375 0.5991
v -0.4375 0.9375 0.6875
v -0.4009 0.9375 0.7759
v -0.3125 0.9375 0.8125
v -0.2241 0.9375 0.7759
v -0.1875 0.9375 0.6875
v -0.2241 0.9375 0.5991
v -0.3125 0.9375 1.1875
v -0.4009 0.9375 1.2241
v -0.4375 0.9375 1.3125
v -0.4009 0.9375 1.4009
v -0.3125 0.9375 1.4375
v -0.2241 0.9375 1.4009
v -0.1875 0.9375 1.3125
v -0.2241 0.9375 1.2241
v -0.0884 3.8098 0.3913
v -0.125 3.7869 0.3059
v -0.0884 3.7641 0.2205
v 0 3.7546 0.1851
v 0.0884 3.7641 0.2205
v 0.125 3.7869 0.3059
v 0.0884 3.8098 0.3913
v 0 3.8193 0.4266
v 0.7513 1.625 1.3977
v 0.6995 1.8018 1.4495
v 0.5745 1.875 1.5745
v 0.4495 1.8018 1.6995
v 0.3977 1.625 1.7513
v 0.4495 1.4482 1.6995
v 0.5745 1.375 1.5745
v 0.6995 1.4482 1.4495
v 0 3.0949 1.3793
v -0.0884 3.0854 1.4146
v -0.125 3.0625 1.5
v -0.0884 3.0396 1.5854
v 0 3.0301 1.6207
v 0.0884 3.0396 1.5854
v 0.125 3.0625 1.5
v 0.0884 3.0854 1.4146
v 0 3.8193 1.5734
v -0.0884 3.8098 1.6087
v -0.125 3.7869 1.6941
v -0.0884 3.7641 1.7795
v 0 3.7546 1.8149
v 0.0884 3.7641 1.7795
v 0.125 3.7869 1.6941
v 0.0884 3.8098 1.6087
v 0 3.8031 1.6337
v -0.0442 3.7984 1.6514
v -0.0625 3.7869 1.6941
v -0.0442 3.7755 1.7368
v 0 3.7708 1.7545
v 0.0442 3.7755 1.7368
v 0.0625 3.7869 1.6941
v 0.0442 3.7984 1.6514
v 0 4.0284 1.7588
v 0 3.0949 0.6207
v 0.0884 3.0854 0.5854
v 0.125 3.0625 0.5
v 0.0884 3.0396 0.4146
v 0 3.0301 0.3793
v -0.0884 3.0396 0.4146
v -0.125 3.0625 0.5
v -0.0884 3.0854 0.5854
v 0 3.8193 0.4266
v 0.0884 3.8098 0.3913
v 0.125 3.7869 0.3059
v 0.0884 3.7641 0.2205
v 0 3.7546 0.1851
v -0.0884 3.7641 0.2205
v -0.125 3.7869 0.3059
v -0.0884 3.8098 0.3913
v 0 3.8031 0.3663
v 0.0442 3.7984 0.3486
v 0.0625 3.7869 0.3059
v 0.0442 3.7755 0.2632
v 0 3.7708 0.2455
v -0.0442 3.7755 0.2632
v -0.0625 3.7869 0.3059
v -0.0442 3.7984 0.3486
v 0 4.0284 0.2412
v -0.1875 4.1875 1.6875
v -0.1875 4.5625 1.6875
v -0.1875 4.1875 1.3125
v -0.1875 4.5625 1.3125
v 0.1875 4.1875 1.6875
v 0.1875 4.5625 1.6875
v 0.1875 4.1875 1.3125
v 0.1875 4.5625 1.3125
v -0.125 4.5625 1.625
v 0.125 4.5625 1.625
v -0.125 4.5625 1.375
v 0.125 4.5625 1.375
v -0.125 4.625 1.375
v -0.125 4.625 1.625
v 0.125 4.625 1.625
v 0.125 4.625 1.375
v -0.1875 4.625 1.6875
v -0.1875 4.625 1.3125
v 0.1875 4.625 1.6875
v 0.1875 4.625 1.3125
v -0.1875 4.75 1.6875
v -0.1875 4.75 1.3125
v 0.1875 4.75 1.6875
v 0.1875 4.75 1.3125
v -0.125 4.75 1.625
v 0.125 4.75 1.625
v -0.125 4.75 1.375
v 0.125 4.75 1.375
v -0.125 4.8125 1.375
v -0.125 4.8125 1.625
v 0.125 4.8125 1.625
v 0.125 4.8125 1.375
v -0.1875 4.8125 1.6875
v -0.1875 4.8125 1.3125
v 0.1875 4.8125 1.6875
v 0.1875 4.8125 1.3125
v -0.1875 4.9375 1.6875
v -0.1875 4.9375 1.3125
v 0.1875 4.9375 1.6875
v 0.1875 4.9375 1.3125
v -0.125 4.9375 1.625
v 0.125 4.9375 1.625
v -0.125 4.9375 1.375
v 0.125 4.9375 1.375
v -0.125 5 1.375
v -0.125 5 1.625
v 0.125 5 1.625
v 0.125 5 1.375
v -0.1875 5 1.6875
v -0.1875 5 1.3125
v 0.1875 5 1.6875
v 0.1875 5 1.3125
v -0.1875 5.125 1.6875
v -0.1875 5.125 1.3125
v 0.1875 5.125 1.6875
v 0.1875 5.125 1.3125
v -0.125 5.125 1.375
v -0.125 5.125 1.625
v 0.125 5.125 1.625
v 0.125 5.125 1.375
v -0.125 5.1875 1.375
v -0.125 5.1875 1.625
v 0.125 5.1875 1.625
v 0.125 5.1875 1.375
v -0.0625 5.1875 1.4375
v -0.0625 5.1875 1.5625
v 0.0625 5.1875 1.5625
v 0.0625 5.1875 1.4375
v -0.0625 5.3125 1.4375
v -0.0625 5.3125 1.5625
v 0.0625 5.3125 1.5625
v 0.0625 5.3125 1.4375
v -1.5 0.3125 0.8125
v -1.5 0.6875 0.8125
v -1.5 0.3125 1.1875
v -1.5 0.6875 1.1875
v -1.375 0.3125 1.1875
v -1.375 0.3125 0.8125
v -1.375 0.6875 0.8125
v -1.375 0.6875 1.1875
v 1.5 0.3125 1.1875
v 1.5 0.6875 1.1875
v 1.5 0.3125 0.8125
v 1.5 0.6875 0.8125
v 1.375 0.3125 0.8125
v 1.375 0.3125 1.1875
v 1.375 0.6875 1.1875
v 1.375 0.6875 0.8125
v -1.375 0.6875 -0.8125
v -1.375 0.6875 -1.1875
v -1.375 0.3125 -1.1875
v -1.375 0.3125 -0.8125
v -1.5 0.6875 -0.8125
v -1.5 0.3125 -0.8125
v -1.5 0.6875 -1.1875
v -1.5 0.3125 -1.1875
v 1.375 0.6875 -1.1875
v 1.375 0.6875 -0.8125
v 1.375 0.3125 -0.8125
v 1.375 0.3125 -1.1875
v 1.5 0.6875 -1.1875
v 1.5 0.3125 -1.1875
v 1.5 0.6875 -0.8125
v 1.5 0.3125 -0.8125
v 0 4.1875 1.5312
v 0 3.8125 1.7188
v 0 4.1875 1.4688
v 0 3.8125 1.6562
v 0 4.1875 0.4688
v 0 3.8125 0.2812
v 0 4.1875 0.5312
v 0 3.8125 0.3438
v 0 4.1875 -0.4688
v 0 3.8125 -0.2812
v 0 4.1875 -0.5312
v 0 3.8125 -0.3438
v 0 4.1875 -1.5312
v 0 3.8125 -1.7188
v 0 4.1875 -1.4688
v 0 3.8125 -1.6562
v -1.375 0.5 1.125
v 1.375 0.5 1.125
v -1.375 0.5 0.875
v 1.375 0.5 0.875
v -1.375 0.625 1.125
v 1.375 0.625 1.125
v -1.375 0.625 0.875
v 1.375 0.625 0.875
v -1.375 0.5 -0.875
v 1.375 0.5 -0.875
v -1.375 0.5 -1.125
v 1.375 0.5 -1.125
v -1.375 0.625 -0.875
v 1.375 0.625 -0.875
v -1.375 0.625 -1.125
v 1.375 0.625 -1.125
v -0.1875 4.1875 0.6875
v -0.1875 4.5625 0.6875
v -0.1875 4.1875 0.3125
v -0.1875 4.5625 0.3125
v 0.1875 4.1875 0.6875
v 0.1875 4.5625 0.6875
v 0.1875 4.1875 0.3125
v 0.1875 4.5625 0.3125
v -0.125 4.5625 0.625
v 0.125 4.5625 0.625
v -0.125 4.5625 0.375
v 0.125 4.5625 0.375
v -0.125 4.625 0.375
v -0.125 4.625 0.625
v 0.125 4.625 0.625
v 0.125 4.625 0.375
v -0.1875 4.625 0.6875
v -0.1875 4.625 0.3125
v 0.1875 4.625 0.6875
v 0.1875 4.625 0.3125
v -0.1875 4.75 0.6875
v -0.1875 4.75 0.3125
v 0.1875 4.75 0.6875
v 0.1875 4.75 0.3125
v -0.125 4.75 0.625
v 0.125 4.75 0.625
v -0.125 4.75 0.375
v 0.125 4.75 0.375
v -0.125 4.8125 0.375
v -0.125 4.8125 0.625
v 0.125 4.8125 0.625
v 0.125 4.8125 0.375
v -0.1875 4.8125 0.6875
v -0.1875 4.8125 0.3125
v 0.1875 4.8125 0.6875
v 0.1875 4.8125 0.3125
v -0.1875 4.9375 0.6875
v -0.1875 4.9375 0.3125
v 0.1875 4.9375 0.6875
v 0.1875 4.9375 0.3125
v -0.125 4.9375 0.625
v 0.125 4.9375 0.625
v -0.125 4.9375 0.375
v 0.125 4.9375 0.375
v -0.125 5 0.375
v -0.125 5 0.625
v 0.125 5 0.625
v 0.125 5 0.375
v -0.1875 5 0.6875
v -0.1875 5 0.3125
v 0.1875 5 0.6875
v 0.1875 5 0.3125
v -0.1875 5.125 0.6875
v -0.1875 5.125 0.3125
v 0.1875 5.125 0.6875
v 0.1875 5.125 0.3125
v -0.125 5.125 0.375
v -0.125 5.125 0.625
v 0.125 5.125 0.625
v 0.125 5.125 0.375
v -0.125 5.1875 0.375
v -0.125 5.1875 0.625
v 0.125 5.1875 0.625
v 0.125 5.1875 0.375
v -0.0625 5.1875 0.4375
v -0.0625 5.1875 0.5625
v 0.0625 5.1875 0.5625
v 0.0625 5.1875 0.4375
v -0.0625 5.3125 0.4375
v -0.0625 5.3125 0.5625
v 0.0625 5.3125 0.5625
v 0.0625 5.3125 0.4375
v -0.1875 4.1875 -0.3125
v -0.1875 4.5625 -0.3125
v -0.1875 4.1875 -0.6875
v -0.1875 4.5625 -0.6875
v 0.1875 4.1875 -0.3125
v 0.1875 4.5625 -0.3125
v 0.1875 4.1875 -0.6875
v 0.1875 4.5625 -0.6875
v -0.125 4.5625 -0.375
v 0.125 4.5625 -0.375
v -0.125 4.5625 -0.625
v 0.125 4.5625 -0.625
v -0.125 4.625 -0.625
v -0.125 4.625 -0.375
v 0.125 4.625 -0.375
v 0.125 4.625 -0.625
v -0.1875 4.625 -0.3125
v -0.1875 4.625 -0.6875
v 0.1875 4.625 -0.3125
v 0.1875 4.625 -0.6875
v -0.1875 4.75 -0.3125
v -0.1875 4.75 -0.6875
v 0.1875 4.75 -0.3125
v 0.1875 4.75 -0.6875
v -0.125 4.75 -0.375
v 0.125 4.75 -0.375
v -0.125 4.75 -0.625
v 0.125 4.75 -0.625
v -0.125 4.8125 -0.625
v -0.125 4.8125 -0.375
v 0.125 4.8125 -0.375
v 0.125 4.8125 -0.625
v -0.1875 4.8125 -0.3125
v -0.1875 4.8125 -0.6875
v 0.1875 4.8125 -0.3125
v 0.1875 4.8125 -0.6875
v -0.1875 4.9375 -0.3125
v -0.1875 4.9375 -0.6875
v 0.1875 4.9375 -0.3125
v 0.1875 4.9375 -0.6875
v -0.125 4.9375 -0.375
v 0.125 4.9375 -0.375
v -0.125 4.9375 -0.625
v 0.125 4.9375 -0.625
v -0.125 5 -0.625
v -0.125 5 -0.375
v 0.125 5 -0.375
v 0.125 5 -0.625
v -0.1875 5 -0.3125
v -0.1875 5 -0.6875
v 0.1875 5 -0.3125
v 0.1875 5 -0.6875
v -0.1875 5.125 -0.3125
v -0.1875 5.125 -0.6875
v 0.1875 5.125 -0.3125
v 0.1875 5.125 -0.6875
v -0.125 5.125 -0.625
v -0.125 5.125 -0.375
v 0.125 5.125 -0.375
v 0.125 5.125 -0.625
v -0.125 5.1875 -0.625
v -0.125 5.1875 -0.375
v 0.125 5.1875 -0.375
v 0.125 5.1875 -0.625
v -0.0625 5.1875 -0.5625
v -0.0625 5.1875 -0.4375
v 0.0625 5.1875 -0.4375
v 0.0625 5.1875 -0.5625
v -0.0625 5.3125 -0.5625
v -0.0625 5.3125 -0.4375
v 0.0625 5.3125 -0.4375
v 0.0625 5.3125 -0.5625
v -0.1875 4.1875 -1.3125
v -0.1875 4.5625 -1.3125
v -0.1875 4.1875 -1.6875
v -0.1875 4.5625 -1.6875
v 0.1875 4.1875 -1.3125
v 0.1875 4.5625 -1.3125
v 0.1875 4.1875 -1.6875
v 0.1875 4.5625 -1.6875
v -0.125 4.5625 -1.375
v 0.125 4.5625 -1.375
v -0.125 4.5625 -1.625
v 0.125 4.5625 -1.625
v -0.125 4.625 -1.625
v -0.125 4.625 -1.375
v 0.125 4.625 -1.375
v 0.125 4.625 -1.625
v -0.1875 4.625 -1.3125
v -0.1875 4.625 -1.6875
v 0.1875 4.625 -1.3125
v 0.1875 4.625 -1.6875
v -0.1875 4.75 -1.3125
v -0.1875 4.75 -1.6875
v 0.1875 4.75 -1.3125
v 0.1875 4.75 -1.6875
v -0.125 4.75 -1.375
v 0.125 4.75 -1.375
v -0.125 4.75 -1.625
v 0.125 4.75 -1.625
v -0.125 4.8125 -1.625
v -0.125 4.8125 -1.375
v 0.125 4.8125 -1.375
v 0.125 4.8125 -1.625
v -0.1875 4.8125 -1.3125
v -0.1875 4.8125 -1.6875
v 0.1875 4.8125 -1.3125
v 0.1875 4.8125 -1.6875
v -0.1875 4.9375 -1.3125
v -0.1875 4.9375 -1.6875
v 0.1875 4.9375 -1.3125
v 0.1875 4.9375 -1.6875
v -0.125 4.9375 -1.375
v 0.125 4.9375 -1.375
v -0.125 4.9375 -1.625
v 0.125 4.9375 -1.625
v -0.125 5 -1.625
v -0.125 5 -1.375
v 0.125 5 -1.375
v 0.125 5 -1.625
v -0.1875 5 -1.3125
v -0.1875 5 -1.6875
v 0.1875 5 -1.3125
v 0.1875 5 -1.6875
v -0.1875 5.125 -1.3125
v -0.1875 5.125 -1.6875
v 0.1875 5.125 -1.3125
v 0.1875 5.125 -1.6875
v -0.125 5.125 -1.625
v -0.125 5.125 -1.375
v 0.125 5.125 -1.375
v 0.125 5.125 -1.625
v -0.125 5.1875 -1.625
v -0.125 5.1875 -1.375
v 0.125 5.1875 -1.375
v 0.125 5.1875 -1.625
v -0.0625 5.1875 -1.5625
v -0.0625 5.1875 -1.4375
v 0.0625 5.1875 -1.4375
v 0.0625 5.1875 -1.5625
v -0.0625 5.3125 -1.5625
v -0.0625 5.3125 -1.4375
v 0.0625 5.3125 -1.4375
v 0.0625 5.3125 -1.5625
v 0.0442 3.7984 1.6514
v 0.0625 3.7869 1.6941
v 0.0442 3.7755 1.7368
v 0 3.7708 1.7545
v -0.0442 3.7755 1.7368
v -0.0625 3.7869 1.6941
v -0.0442 3.7984 1.6514
v 0 3.8031 1.6337
v -0.7513 1.625 0.6023
v -0.6995 1.8018 0.5505
v -0.5745 1.875 0.4255
v -0.4495 1.8018 0.3005
v -0.3977 1.625 0.2487
v -0.4495 1.4482 0.3005
v -0.5745 1.375 0.4255
v -0.6995 1.4482 0.5505
v -0.6495 3.0625 -1
v -0.375 3.1998 -1
v 0 0.9375 -1.6495
v -0.6495 2.875 -0.625
v -0.5625 3.0625 -0.6752
v -0.3248 3.1998 -0.8125
v 0.375 1.125 -1.6495
v 0.3248 0.9375 -1.5625
v 0.1875 0.8002 -1.3248
v -0.375 2.875 -0.3505
v 0.6495 1.125 -1.375
v 0.5625 0.9375 -1.3248
v 0.3248 0.8002 -1.1875
v -0.3248 3.0625 -0.4375
v -0.1875 3.1998 -0.6752
v 0.75 1.125 -1
v 0.6495 0.9375 -1
v 0.375 0.8002 -1
v 0 2.875 -0.25
v 0 3.0625 -0.3505
v 0.6495 1.125 -0.625
v 0.5625 0.9375 -0.6752
v 0.3248 0.8002 -0.8125
v 0 3.1998 -0.625
v 0.375 2.875 -0.3505
v 0.375 1.125 -0.3505
v 0.3248 0.9375 -0.4375
v 0.1875 0.8002 -0.6752
v 0.3248 3.0625 -0.4375
v 0.1875 3.1998 -0.6752
v 0 1.125 -0.25
v 0 0.9375 -0.3505
v 0 0.8002 -0.625
v 0.6495 2.875 -0.625
v 0.5625 3.0625 -0.6752
v -0.375 1.125 -0.3505
v -0.3248 0.9375 -0.4375
v -0.1875 0.8002 -0.6752
v 0 0.75 -1
v 0.3248 3.1998 -0.8125
v -0.6495 1.125 -0.625
v -0.5625 0.9375 -0.6752
v -0.3248 0.8002 -0.8125
v 0.75 2.875 -1
v 0.6495 3.0625 -1
v -0.75 1.125 -1
v -0.6495 0.9375 -1
v -0.375 0.8002 -1
v 0.375 3.1998 -1
v 0.6495 2.875 -1.375
v -0.6495 1.125 -1.375
v -0.5625 0.9375 -1.3248
v -0.3248 0.8002 -1.1875
v 0.5625 3.0625 -1.3248
v 0.3248 3.1998 -1.1875
v -0.375 1.125 -1.6495
v -0.3248 0.9375 -1.5625
v -0.1875 0.8002 -1.3248
v 0 3.25 -1
v 0.375 2.875 -1.6495
v 0.3248 3.0625 -1.5625
v 0.1875 3.1998 -1.3248
v 0 1.125 -1.75
v 0 3.0625 -1.6495
v 0 0.8002 -1.375
v 0 3.1998 -1.375
v -0.75 2.875 -1
v -0.3248 3.1998 -1.1875
v -0.5625 3.0625 -1.3248
v -0.6495 2.875 -1.375
v -0.1875 3.1998 -1.3248
v -0.3248 3.0625 -1.5625
v -0.375 2.875 -1.6495
v 0 2.875 -1.75
v 0.3125 0.5 -1.4375
v 0.2241 0.5 -1.4009
v 0.1875 0.5 -1.3125
v 0.2241 0.5 -1.2241
v 0.3125 0.5 -1.1875
v 0.4009 0.5 -1.2241
v 0.4375 0.5 -1.3125
v 0.4009 0.5 -1.4009
v 0.3125 0.5 -0.8125
v 0.2241 0.5 -0.7759
v 0.1875 0.5 -0.6875
v 0.2241 0.5 -0.5991
v 0.3125 0.5 -0.5625
v 0.4009 0.5 -0.5991
v 0.4375 0.5 -0.6875
v 0.4009 0.5 -0.7759
v -0.3125 0.5 -1.4375
v -0.4009 0.5 -1.4009
v -0.4375 0.5 -1.3125
v -0.4009 0.5 -1.2241
v -0.3125 0.5 -1.1875
v -0.2241 0.5 -1.2241
v -0.1875 0.5 -1.3125
v -0.2241 0.5 -1.4009
v -0.3125 0.5 -0.8125
v -0.4009 0.5 -0.7759
v -0.4375 0.5 -0.6875
v -0.4009 0.5 -0.5991
v -0.3125 0.5 -0.5625
v -0.2241 0.5 -0.5991
v -0.1875 0.5 -0.6875
v -0.2241 0.5 -0.7759
v 0.3125 0.9375 -1.4375
v 0.2241 0.9375 -1.4009
v 0.1875 0.9375 -1.3125
v 0.2241 0.9375 -1.2241
v 0.3125 0.9375 -1.1875
v 0.4009 0.9375 -1.2241
v 0.4375 0.9375 -1.3125
v 0.4009 0.9375 -1.4009
v 0.3125 0.9375 -0.8125
v 0.2241 0.9375 -0.7759
v 0.1875 0.9375 -0.6875
v 0.2241 0.9375 -0.5991
v 0.3125 0.9375 -0.5625
v 0.4009 0.9375 -0.5991
v 0.4375 0.9375 -0.6875
v 0.4009 0.9375 -0.7759
v -0.3125 0.9375 -1.4375
v -0.4009 0.9375 -1.4009
v -0.4375 0.9375 -1.3125
v -0.4009 0.9375 -1.2241
v -0.3125 0.9375 -1.1875
v -0.2241 0.9375 -1.2241
v -0.1875 0.9375 -1.3125
v -0.2241 0.9375 -1.4009
v -0.3125 0.9375 -0.8125
v -0.4009 0.9375 -0.7759
v -0.4375 0.9375 -0.6875
v -0.4009 0.9375 -0.5991
v -0.3125 0.9375 -0.5625
v -0.2241 0.9375 -0.5991
v -0.1875 0.9375 -0.6875
v -0.2241 0.9375 -0.7759
v 0.5669 1.4482 1.3169
v 0.4419 1.375 1.4419
v 0.3169 1.4482 1.5669
v 0.2652 1.625 1.6187
v 0.3169 1.8018 1.5669
v 0.4419 1.875 1.4419
v 0.5669 1.8018 1.3169
v 0.6187 1.625 1.2652
v 0.7513 1.625 -0.6023
v 0.6995 1.8018 -0.5505
v 0.5745 1.875 -0.4255
v 0.4495 1.8018 -0.3005
v 0.3977 1.625 -0.2487
v 0.4495 1.4482 -0.3005
v 0.5745 1.375 -0.4255
v 0.6995 1.4482 -0.5505
v 0 3.0949 -0.6207
v -0.0884 3.0854 -0.5854
v -0.125 3.0625 -0.5
v -0.0884 3.0396 -0.4146
v 0 3.0301 -0.3793
v 0.0884 3.0396 -0.4146
v 0.125 3.0625 -0.5
v 0.0884 3.0854 -0.5854
v 0 3.8193 -0.4266
v -0.0884 3.8098 -0.3913
v -0.125 3.7869 -0.3059
v -0.0884 3.7641 -0.2205
v 0 3.7546 -0.1851
v 0.0884 3.7641 -0.2205
v 0.125 3.7869 -0.3059
v 0.0884 3.8098 -0.3913
v 0 3.8031 -0.3663
v -0.0442 3.7984 -0.3486
v -0.0625 3.7869 -0.3059
v -0.0442 3.7755 -0.2632
v 0 3.7708 -0.2455
v 0.0442 3.7755 -0.2632
v 0.0625 3.7869 -0.3059
v 0.0442 3.7984 -0.3486
v 0 4.0284 -0.2412
v 0 3.0949 -1.3793
v 0.0884 3.0854 -1.4146
v 0.125 3.0625 -1.5
v 0.0884 3.0396 -1.5854
v 0 3.0301 -1.6207
v -0.0884 3.0396 -1.5854
v -0.125 3.0625 -1.5
v -0.0884 3.0854 -1.4146
v 0 3.8193 -1.5734
v 0.0884 3.8098 -1.6087
v 0.125 3.7869 -1.6941
v 0.0884 3.7641 -1.7795
v 0 3.7546 -1.8149
v -0.0884 3.7641 -1.7795
v -0.125 3.7869 -1.6941
v -0.0884 3.8098 -1.6087
v 0 3.8031 -1.6337
v 0.0442 3.7984 -1.6514
v 0.0625 3.7869 -1.6941
v 0.0442 3.7755 -1.7368
v 0 3.7708 -1.7545
v -0.0442 3.7755 -1.7368
v -0.0625 3.7869 -1.6941
v -0.0442 3.7984 -1.6514
v 0 4.0284 -1.7588
v 0.0884 3.8098 1.6087
v 0.125 3.7869 1.6941
v 0.0884 3.7641 1.7795
v 0 3.7546 1.8149
v -0.0884 3.7641 1.7795
v -0.125 3.7869 1.6941
v -0.0884 3.8098 1.6087
v 0 3.8193 1.5734
v -0.7513 1.625 -1.3977
v -0.6995 1.8018 -1.4495
v -0.5745 1.875 -1.5745
v -0.4495 1.8018 -1.6995
v -0.3977 1.625 -1.7513
v -0.4495 1.4482 -1.6995
v -0.5745 1.375 -1.5745
v -0.6995 1.4482 -1.4495
v -0.125 0.5 -2.25
v 0.125 0.5 -2.25
v -0.125 0.5 -2.5
v 0.125 0.5 -2.5
v -0.125 0.5 2.5
v 0.125 0.5 2.5
v -0.125 0.5 2.25
v 0.125 0.5 2.25
v -0.125 4.5 -2.5
v -0.125 4.25 -2.25
v 0.125 4.25 -2.25
v 0.125 4.5 -2.5
v -0.125 4.25 2.25
v -0.125 4.5 2.5
v 0.125 4.5 2.5
v 0.125 4.25 2.25
v 0 4.1875 1.5312
v 0 3.8125 1.7188
v 0 4.1875 1.4688
v 0 3.8125 1.6562
v 0 4.1875 0.4688
v 0 3.8125 0.2812
v 0 4.1875 0.5312
v 0 3.8125 0.3438
v 0 4.1875 -0.4688
v 0 3.8125 -0.2812
v 0 4.1875 -0.5312
v 0 3.8125 -0.3438
v 0 4.1875 -1.5312
v 0 3.8125 -1.7188
v 0 4.1875 -1.4688
v 0 3.8125 -1.6562
v 0.6187 1.625 -0.7348
v 0.5669 1.8018 -0.6831
v 0.4419 1.875 -0.5581
v 0.3169 1.8018 -0.4331
v 0.2652 1.625 -0.3813
v 0.3169 1.4482 -0.4331
v 0.4419 1.375 -0.5581
v 0.5669 1.4482 -0.6831
v 0.7513 1.625 -0.6023
v 0.6995 1.8018 -0.5505
v 0.5745 1.875 -0.4255
v 0.4495 1.8018 -0.3005
v 0.3977 1.625 -0.2487
v 0.4495 1.4482 -0.3005
v 0.5745 1.375 -0.4255
v 0.6995 1.4482 -0.5505
v 0.7513 1.625 1.3977
v 0.6995 1.8018 1.4495
v 0.5745 1.875 1.5745
v 0.4495 1.8018 1.6995
v 0.3977 1.625 1.7513
v 0.4495 1.4482 1.6995
v 0.5745 1.375 1.5745
v 0.6995 1.4482 1.4495
v -0.6187 1.625 0.7348
v -0.5669 1.8018 0.6831
v -0.4419 1.875 0.5581
v -0.3169 1.8018 0.4331
v -0.2652 1.625 0.3813
v -0.3169 1.4482 0.4331
v -0.4419 1.375 0.5581
v -0.5669 1.4482 0.6831
v -0.7513 1.625 0.6023
v -0.6995 1.8018 0.5505
v -0.5745 1.875 0.4255
v -0.4495 1.8018 0.3005
v -0.3977 1.625 0.2487
v -0.4495 1.4482 0.3005
v -0.5745 1.375 0.4255
v -0.6995 1.4482 0.5505
v -0.6187 1.625 -1.2652
v -0.5669 1.8018 -1.3169
v -0.4419 1.875 -1.4419
v -0.3169 1.8018 -1.5669
v -0.2652 1.625 -1.6187
v -0.3169 1.4482 -1.5669
v -0.4419 1.375 -1.4419
v -0.5669 1.4482 -1.3169
v -0.7513 1.625 -1.3977
v -0.6995 1.8018 -1.4495
v -0.5745 1.875 -1.5745
v -0.4495 1.8018 -1.6995
v -0.3977 1.625 -1.7513
v -0.4495 1.4482 -1.6995
v -0.5745 1.375 -1.5745
v -0.6995 1.4482 -1.4495
v 0 3.8031 0.3663
v 0.0442 3.7984 0.3486
v 0.0625 3.7869 0.3059
v 0.0442 3.7755 0.2632
v 0 3.7708 0.2455
v -0.0442 3.7755 0.2632
v -0.0625 3.7869 0.3059
v -0.0442 3.7984 0.3486
v 0 3.8193 -0.4266
v -0.0884 3.8098 -0.3913
v -0.125 3.7869 -0.3059
v -0.0884 3.7641 -0.2205
v 0 3.7546 -0.1851
v 0.0884 3.7641 -0.2205
v 0.125 3.7869 -0.3059
v 0.0884 3.8098 -0.3913
v 0 3.8031 -0.3663
v -0.0442 3.7984 -0.3486
v -0.0625 3.7869 -0.3059
v -0.0442 3.7755 -0.2632
v 0 3.7708 -0.2455
v 0.0442 3.7755 -0.2632
v 0.0625 3.7869 -0.3059
v 0.0442 3.7984 -0.3486
v 0 3.8193 -1.5734
v 0.0884 3.8098 -1.6087
v 0.125 3.7869 -1.6941
v 0.0884 3.7641 -1.7795
v 0 3.7546 -1.8149
v -0.0884 3.7641 -1.7795
v -0.125 3.7869 -1.6941
v -0.0884 3.8098 -1.6087
v 0 3.8031 -1.6337
v 0.0442 3.7984 -1.6514
v 0.0625 3.7869 -1.6941
v 0.0442 3.7755 -1.7368
v 0 3.7708 -1.7545
v -0.0442 3.7755 -1.7368
v -0.0625 3.7869 -1.6941
v -0.0442 3.7984 -1.6514
v -1.375 0 0
v 0 0 2.5
v -0.125 4.5 -0
v -0.125 2.375 -2.25
v 0 0.625 1.125
v 0 0.625 -0.875
v -0.125 4.5 -0
v -0.125 2.375 -2.25
v 0.6495 2 -0.625
v 0.375 2 1.6495
v 1.375 0 0
v -0.125 4.375 0.125
v -0.125 4.25 -0
v 0.125 2.375 -2.25
v -0.125 4.375 0.125
v -0.125 4.25 -0
v 0.125 2.375 -2.25
v -0.375 2 1.6495
v -0.75 2 -1
v 0 -0 -2.5
v -0.125 2.5 -2.5
v -0.125 2.375 -2.375
v 0.125 4.25 -0
v -0.125 2.375 -2.375
v 0.125 4.25 -0
v 0 0.625 -1.125
v 0 0.625 0.875
v -0.125 2.5 -2.5
v -0.6495 2 0.625
v 0 2 1.75
v 0.6495 2 0.625
v 0.375 2 -1.6495
v 0 2 -1.75
v 0.125 2.375 -2.375
v 0.125 2.5 -2.5
v 0.125 4.5 -0
v 0.125 4.375 -0.125
v 0.125 2.375 -2.375
v 0.125 2.5 -2.5
v 0.125 4.5 -0
v 0.125 4.375 -0.125
v -0.6495 2 1.375
v -0.375 2 -1.6495
v 0.75 2 -1
v 0 0.5 2.5
v -1.375 0.5 -0
v -0.125 2.375 2.375
v -0.125 2.5 2.5
v 0 0.5 -0.875
v 0 0.5 1.125
v -0.125 2.375 2.375
v -0.125 2.5 2.5
v 0.6495 2 1.375
v 0.375 2 -0.3505
v 0.125 2.5 2.5
v 0.125 2.375 2.375
v 0.125 2.375 2.375
v 1.375 0.5 -0
v 0.125 2.5 2.5
v -0.75 2 1
v -0.375 2 -0.3505
v -0.125 2.375 2.25
v 0 0.5 -1.125
v 0 0.5 0.875
v -0.125 2.375 2.25
v 0 0.5 -2.5
v 0.375 2 0.3505
v -0.6495 2 -1.375
v 0 2 -0.25
v 0.6495 2 -1.375
v 0 2 0.25
v 0.125 2.375 2.25
v 0.125 2.375 2.25
v -0.375 2 0.3505
v 0.75 2 1
v -0.6495 2 -0.625
v 0 0 0
v 0 0.5 -0
v -1.375 -0 -1.25
v -0.125 4.5 1.25
v -0.125 3.3125 -2.25
v -0.125 4.5 -1.25
v -0.125 4.5 -1.25
v -0.125 4.5 1.25
v -0.125 3.3125 -2.25
v -0.125 1.4375 -2.25
v -0.125 1.4375 2.25
v 0.125 1.5 -2.5
v 0.125 1.4375 -2.4375
v -0.125 1.4375 2.4375
v 0 0.5 1.25
v 0.125 1.4375 2.4375
v 1.375 -0 -1.25
v -0.125 4.4375 1.3125
v -0.125 4.25 1.125
v 0.125 3.3125 -2.25
v -0.125 4.4375 1.3125
v -0.125 4.25 1.125
v 0.125 3.3125 -2.25
v 0 0.5 -1.25
v -0.125 4.25 -1.125
v 1.375 0 1.25
v 0.125 1.4375 -2.4375
v -0.125 3.5 -2.5
v -0.125 3.3125 -2.3125
v 0.125 4.25 1.125
v -0.125 3.3125 -2.3125
v 0.125 4.25 1.125
v -0.125 3.5 -2.5
v 0.125 1.4375 -2.25
v 0.125 1.4375 2.4375
v 0.125 4.5 -1.25
v 0.125 4.25 -1.125
v 0.125 3.3125 -2.3125
v 0.125 3.5 -2.5
v 0.125 4.5 1.25
v 0.125 4.3125 1.0625
v 0.125 3.3125 -2.3125
v 0.125 3.5 -2.5
v 0.125 4.5 1.25
v 0.125 4.3125 1.0625
v 0 0 1.25
v -0.125 1.4375 -2.4375
v 0.125 1.5 -2.5
v -1.375 0.5 -1.25
v -0.125 3.3125 2.3125
v -0.125 3.5 2.5
v -1.375 0 1.25
v -0.125 3.3125 2.3125
v -0.125 3.5 2.5
v -0.125 1.4375 -2.25
v -0.125 1.4375 2.4375
v 0.125 1.4375 2.25
v -1.375 0.5 1.25
v 0.125 1.5 2.5
v 0.125 1.4375 2.25
v 0.125 1.5 2.5
v 0.125 4.4375 -1.3125
v 0.125 3.5 2.5
v 0.125 3.3125 2.3125
v 0.125 3.3125 2.3125
v 1.375 0.5 -1.25
v 0.125 3.5 2.5
v 1.375 0.5 1.25
v -0.125 1.4375 -2.4375
v 0.125 1.4375 -2.25
v -0.125 1.4375 2.25
v -0.125 4.3125 -1.0625
v -0.125 3.3125 2.25
v -0.125 3.3125 2.25
v -0.125 1.5 2.5
v -0.125 1.5 -2.5
v 0.125 4.5 -1.25
v -0.125 1.5 -2.5
v 0.125 3.3125 2.25
v 0.125 3.3125 2.25
v 0 -0 -1.25
v -0.125 4.25 -1.125
v 0.125 4.25 -1.125
v -0.125 4.3125 -1.0625
v -0.125 1.5 2.5
v 0.125 4.4375 -1.3125
vt 0.5 0.1333
vt 0.5096 0.3167
vt 0.5 0.3167
vt 0.4615 0.1333
vt 0.4327 0.1833
vt 0.4327 0.1333
vt 0.4471 0.4167
vt 0.4279 0.4083
vt 0.4471 0.4083
vt 0.4471 0.5
vt 0.4279 0.4917
vt 0.4471 0.4917
vt 0.4519 0.4833
vt 0.4231 0.4667
vt 0.4519 0.4667
vt 0.3077 0.0667
vt 0.2308 0.1
vt 0.2308 0.0667
vt 0.399 0.1083
vt 0.3077 0.1
vt 0.4038 0.1
vt 0.4231 0.3583
vt 0.4519 0.3167
vt 0.4519 0.3583
vt 0.2885 0.0333
vt 0.2163 0.0417
vt 0.2163 0.125
vt 0.2885 0.1333
vt 0.2163 0.1333
vt 0.7837 0.0417
vt 0.7115 0.0333
vt 0.7837 0.0333
vt 0.7115 0.1333
vt 0.7692 0.1
vt 0.7837 0.125
vt 0.524 0.7
vt 0.5192 0.6417
vt 0.524 0.6417
vt 0.5048 0.7
vt 0.5 0.6417
vt 0.5048 0.6417
vt 0.4808 0.642
vt 0.4942 0.6517
vt 0.4998 0.675
vt 0.7837 0
vt 0.4183 0.0417
vt 0.3269 0.0333
vt 0.4135 0.0333
vt 0.5673 0.375
vt 0.5385 0.4917
vt 0.5385 0.375
vt 0.4519 0.4
vt 0.4231 0.3833
vt 0.4519 0.3833
vt 0.4231 0.25
vt 0.4327 0.2
vt 0.4327 0.25
vt 0.4471 0.375
vt 0.4279 0.3667
vt 0.4471 0.3667
vt 0.4231 0.3167
vt 0.4519 0.2667
vt 0.4279 0.375
vt 0.625 0.375
vt 0.6538 0.2583
vt 0.6538 0.375
vt 0.5096 0.7
vt 0.5096 0.6417
vt 0.4519 0.4417
vt 0.4231 0.425
vt 0.4519 0.425
vt 0.4615 0.2667
vt 0.4615 0.25
vt 0.4279 0.4167
vt 0.5288 0.7
vt 0.5288 0.6417
vt 0.5337 0.7
vt 0.5337 0.6417
vt 0.4471 0.4583
vt 0.4279 0.4583
vt 0.4615 0.2
vt 0.4279 0.45
vt 0.4471 0.45
vt 0.5 0.5
vt 0.4808 0.3167
vt 0.4231 0.4
vt 0.4231 0.4417
vt 0.4231 0.4833
vt 0.4327 0.5083
vt 0.4279 0.5
vt 0.5144 0.7
vt 0.5144 0.6417
vt 0.5962 0.1
vt 0.6923 0.0667
vt 0.5962 0.0667
vt 0.7981 0.2583
vt 0.8269 0.375
vt 0.7981 0.375
vt 0.6827 0.2583
vt 0.6827 0.375
vt 0.4423 0.525
vt 0.4423 0.5083
vt 0.5192 0.7
vt 0.2885 0
vt 0.2163 0.0333
vt 0.2163 0
vt 0.4327 0.525
vt 0.4423 0.5417
vt 0.4327 0.5417
vt 0.5962 0.375
vt 0.5673 0.4917
vt 0.4231 0.75
vt 0.3269 0.9333
vt 0.3269 0.75
vt 0.7692 0.375
vt 0.7981 0.4917
vt 0.7692 0.4917
vt 0.5433 0.6917
vt 0.5385 0.6417
vt 0.5385 0.6917
vt 0.5433 0.6417
vt 0.0385 0.75
vt -0 0.9333
vt 0 0.75
vt 0.5385 0.7
vt 0.4615 0.5667
vt 0.4615 0.75
vt 0.4712 0.2
vt 0.4808 0.5
vt 0.4712 0.3167
vt 0.8558 0.375
vt 0.8269 0.4917
vt 0.1346 0.5667
vt 0.0385 0.5
vt 0.1346 0.5
vt 0.625 0.4917
vt 0.5865 0.0333
vt 0.6731 0
vt 0.5865 0
vt 0.5096 0.4917
vt 0.5096 0.375
vt 0.0385 0.3167
vt 0.1346 0.3167
vt 0.7115 0.2583
vt 0.7115 0.375
vt 0.7404 0.2583
vt 0.7404 0.375
vt 0.6923 0.1
vt 0.7692 0.0667
vt 0.7692 0.2583
vt 0.0769 0.0667
vt 0 0.1
vt 0.0769 0.1
vt 0.5625 0.6417
vt 0.5769 0.6167
vt 0.5769 0.6417
vt 0.5481 0.6417
vt 0.5337 0.6167
vt 0.5481 0.6167
vt 0.4617 0.675
vt 0.6731 0.1333
vt 0.5817 0.125
vt 0.0721 0.1083
vt 0 0.1333
vt 0.0721 0.1333
vt 0.9279 0.0583
vt 1 0.0333
vt 0.9279 0.0333
vt 0.7837 0.1333
vt 0.601 0.0583
vt 0.6731 0.0333
vt 0.7933 0.225
vt 0.6442 0.7167
vt 0.6442 0.725
vt 0.6394 0.725
vt 0.7356 0.225
vt 0.7115 0.225
vt 0.7163 0.1833
vt 0.3269 0.1333
vt 0.4135 0.1333
vt 0.5 0.7
vt 0.4942 0.6983
vt 0.4808 0.708
vt 0.4673 0.6983
vt 0.4673 0.6517
vt 0.4615 0.1833
vt 0.4038 0.0667
vt 0.0721 0
vt 0 0
vt 0 0.0333
vt 0.4327 0.2667
vt 0.4712 0.25
vt 0.5962 0.4917
vt 0.4712 0.5
vt 0.6827 0.4917
vt 0.625 0.225
vt 0.6298 0.1833
vt 0.6442 0.1833
vt 0.8558 0.4917
vt 0.7404 0.4917
vt 0.6106 0.725
vt 0.6058 0.7167
vt 0.6154 0.7167
vt 0.4231 0.5667
vt 0.8462 0.1
vt 0.8462 0.0667
vt 0.4231 0.2
vt 0.5096 0.1333
vt 0.5962 0.725
vt 0.5913 0.725
vt 0.5865 0.7167
vt 0.8558 0
vt 0.5 0.0333
vt 0.774 0.5667
vt 0.7692 0.525
vt 0.7933 0.525
vt 0.625 0.2583
vt 0.5385 0.2583
vt 0.8269 0.2583
vt 0.7981 0.225
vt 0.7115 0.4917
vt 0.6731 0.5667
vt 0.6587 0.5667
vt 0.6538 0.525
vt 0.5096 0.2583
vt 0.5096 0.225
vt 0.5337 0.225
vt 0.6538 0.225
vt 0.0385 0.5667
vt 0.7404 0.525
vt 0.4231 0.2667
vt 0.7404 0.225
vt 0.8558 0.2583
vt 0.8269 0.225
vt 0.8317 0.1833
vt 0.8462 0.1833
vt 0.6875 0.5667
vt 0.6827 0.525
vt 0.7067 0.525
vt 0.7692 0.225
vt 0.774 0.1833
vt 0.7067 0.225
vt 0.6827 0.225
vt 0.6875 0.1833
vt 0.5865 0.5667
vt 0.5721 0.5667
vt 0.5673 0.525
vt 0.7163 0.5667
vt 0.7115 0.525
vt 0.7356 0.525
vt 0.5673 0.225
vt 0.5721 0.1833
vt 0.5865 0.1833
vt 0.7596 0.1833
vt 0.7644 0.225
vt 0.5962 0.2583
vt 0.5962 0.225
vt 0.6202 0.225
vt 0 0.0667
vt 0.8221 0.525
vt 0.7981 0.525
vt 0.5144 0.1833
vt 0.6298 0.5667
vt 0.625 0.525
vt 0.649 0.525
vt 0.6538 0.4917
vt 0.8173 0.5667
vt 0.8029 0.5667
vt 0.5385 0.225
vt 0.5433 0.1833
vt 0.5577 0.1833
vt 0.601 0.1833
vt 0.4231 0.9333
vt 0.6587 0.1833
vt 0.6731 0.1833
vt 0.5913 0.525
vt 0.8029 0.1833
vt 0.8173 0.1833
vt 0.5625 0.225
vt 0.601 0.725
vt 0.5962 0.7167
vt 0.5865 0.1333
vt 0.5337 0.525
vt 0.5096 0.525
vt 0.9231 0.0667
vt 1 0.0667
vt 0.625 0.725
vt 0.6202 0.725
vt 0.5192 0.6167
vt 0.5673 0.2583
vt 0.5913 0.225
vt 0.75 0.1333
vt 0.7452 0.1833
vt 0.8221 0.225
vt 0.7212 0.1333
vt 0.7308 0.1833
vt 0.6779 0.225
vt 0.6923 0.1333
vt 0.7019 0.1833
vt 0.5288 0.1833
vt 0.6635 0.1333
vt 0.6779 0.525
vt 0.6346 0.1333
vt 0.6058 0.1333
vt 0.6154 0.1833
vt 0.5769 0.1333
vt 0.5481 0.1333
vt 0.5192 0.1333
vt 0.851 0.225
vt 0.7885 0.1833
vt 0.8365 0.1333
vt 0.4231 1
vt 0.3269 1
vt 0.649 0.225
vt 0.8077 0.1333
vt 0.7788 0.1333
vt 0.7885 0.5667
vt 0.7596 0.5667
vt 0.75 0.6167
vt 0.7452 0.5667
vt 0.7308 0.5667
vt 0.7212 0.6167
vt 0.6442 0.5667
vt 0.7019 0.5667
vt 0.6923 0.6167
vt 0.6635 0.6167
vt 0.6346 0.6167
vt 0.6154 0.5667
vt 0.6058 0.6167
vt 0.601 0.5667
vt 0.8462 0.5667
vt 0.8269 0.525
vt 0.851 0.525
vt 0.5577 0.5667
vt 0.5433 0.5667
vt 0.5288 0.5667
vt 0.5144 0.5667
vt 0.8365 0.6167
vt 0.8317 0.5667
vt 0.8077 0.6167
vt 0.7644 0.525
vt 0.7788 0.6167
vt 0.5048 0.6167
vt 0.0721 0.0333
vt 0.5817 0.725
vt 0.5769 0.7167
vt 0.625 0.7167
vt 0.6154 0.725
vt 0.6346 0.7167
vt 0.6058 0.725
vt 0.625 0.6167
vt 0.6538 0.7167
vt 0.6442 0.6167
vt 0.6538 0.6167
vt 0.6154 0.6167
vt 0.476 0.6417
vt 0.4615 0.6167
vt 0.476 0.6167
vt 0.5913 0.7583
vt 0.601 0.7583
vt 0.6202 0.7583
vt 0.6394 0.7583
vt 0.6106 0.7583
vt 0.649 0.725
vt 0.6538 0.725
vt 0.649 0.7583
vt 0.6298 0.725
vt 0.6346 0.725
vt 0.6298 0.7583
vt 0.5817 0.7583
vt 0.5865 0.725
vt 0.5865 0.6167
vt 0.5962 0.6167
vt 0.6202 0.525
vt 0.5625 0.525
vt 0.4135 0
vt 0.5962 0.525
vt 1 0
vt 0.9279 0
vt 0.9231 0.1
vt 0.4615 0.6417
vt 0.4904 0.6417
vt 0.4904 0.6167
vt 0.5625 0.6167
vt 0.4231 0.5
vt 0.3269 0.3167
vt 0.4231 0.3167
vt 1 0.1
vt 0.1538 0.0667
vt 0.1442 0.05
vt 0.0721 0.0583
vt 0.3269 0.5667
vt 0.2308 0.5
vt 0.3269 0.5
vt 0.2308 0.3167
vt 0.1346 0.1333
vt 0.2308 0.1333
vt 0.5096 0.5
vt 0.9279 0.1083
vt 0.8558 0.05
vt 0.4808 0.1333
vt 0.4712 0.1333
vt 0.8558 0.0333
vt 0.5 0
vt 0.1442 0.0333
vt 1 0.1333
vt 0.5096 0.05
vt 0.8558 0.1167
vt 0.2308 0.9333
vt 0.2308 1
vt 0.2308 0.75
vt 0.1346 0.9333
vt 0.1346 0.75
vt 0.5 0.0667
vt 0.0385 0.9333
vt 0.1346 1
vt 0.0385 1
vt 0.0385 0.1333
vt 0.7115 0
vt 0.1442 0
vt 0.1442 0.1333
vt 0.4904 0.1167
vt 0.5 0.1
vt 0.9279 0.1333
vt 0.1442 0.1167
vt 0.8558 0.1333
vt -0 0.5667
vt 0.3269 0.1333
vt 0.4231 0.1333
vt 0.4615 0.9333
vt 0.3269 0
vt 0.1538 0.1
vt 0.2308 0.5667
vt 0.5385 0.525
s 1
f 364/1 1007/2 970/3
f 316/4 314/5 315/6
f 394/7 391/8 389/9
f 497/10 496/11 493/12
f 418/13 416/14 414/15
f 23/16 1071/17 1083/18
f 1038/19 22/20 1024/21
f 442/22 443/23 444/24
f 24/25 1083/18 1084/26
f 1070/27 21/28 1093/29
f 1058/30 19/31 1040/32
f 18/33 1048/34 1049/35
f 734/36 701/37 702/38
f 706/39 673/40 674/41
f 417/13 414/14 413/15
f 466/7 463/8 461/9
f 177/42 178/43 171/44
f 19/31 1025/45 1040/32
f 1061/46 24/47 1050/48
f 962/49 28/50 986/51
f 252/52 247/53 248/54
f 318/55 324/56 323/57
f 251/52 245/53 247/54
f 242/58 239/59 237/60
f 238/60 230/22 234/24
f 441/61 439/62 443/23
f 240/60 234/22 236/24
f 239/60 236/22 232/24
f 237/60 232/22 230/24
f 243/58 245/53 242/63
f 998/64 617/65 953/66
f 427/10 422/11 423/12
f 723/67 690/41 691/68
f 244/58 247/53 243/63
f 241/58 248/53 244/63
f 242/58 246/53 241/63
f 420/13 415/14 416/15
f 475/69 469/70 471/71
f 267/69 261/70 263/71
f 317/72 323/57 321/73
f 236/22 231/23 232/24
f 259/7 261/70 258/74
f 281/13 278/14 277/15
f 563/13 557/14 559/15
f 250/52 248/53 246/54
f 260/7 263/70 259/74
f 257/7 264/70 260/74
f 258/7 262/70 257/74
f 727/75 702/38 695/76
f 720/77 687/76 688/78
f 257/7 256/8 255/9
f 243/58 237/59 238/60
f 529/52 526/53 525/54
f 275/79 277/14 274/80
f 265/69 262/70 261/71
f 230/22 233/23 234/24
f 232/22 229/23 230/24
f 276/79 279/14 275/80
f 273/79 280/14 276/80
f 274/79 278/14 273/80
f 319/5 322/81 324/56
f 274/79 271/82 269/83
f 355/84 949/85 971/3
f 315/55 309/56 310/57
f 256/9 251/86 252/52
f 255/9 252/86 250/52
f 253/9 250/86 249/52
f 254/9 249/86 251/52
f 272/83 267/87 268/69
f 271/83 268/87 266/69
f 269/83 266/87 265/69
f 270/83 265/87 267/69
f 286/12 282/88 281/13
f 285/12 284/88 282/13
f 288/12 283/88 284/13
f 287/12 281/88 283/13
f 283/13 277/14 279/15
f 292/10 295/89 291/90
f 718/36 685/37 686/38
f 489/13 486/14 485/15
f 282/13 280/14 278/15
f 154/36 121/37 122/38
f 290/10 293/89 289/90
f 289/10 296/89 292/90
f 291/10 294/89 290/90
f 724/91 691/68 692/92
f 377/58 376/59 375/60
f 1005/49 600/50 1020/51
f 316/72 310/57 312/73
f 1027/93 828/94 1097/95
f 80/96 973/97 1018/98
f 473/69 470/70 469/71
f 730/39 697/40 698/41
f 953/66 612/99 988/100
f 578/101 573/89 574/102
f 307/55 301/56 302/57
f 733/103 700/92 701/37
f 412/79 406/82 408/83
f 156/77 123/76 124/78
f 326/55 332/56 331/57
f 304/73 301/56 303/81
f 21/104 1099/105 1093/106
f 299/107 297/108 298/109
f 300/101 295/89 296/102
f 298/101 293/89 294/102
f 275/79 269/82 270/83
f 580/101 575/89 576/102
f 459/52 453/53 455/54
f 974/110 34/111 962/49
f 292/10 287/11 288/12
f 1010/112 1069/113 1044/114
f 140/77 107/76 108/78
f 554/79 551/82 549/83
f 977/115 669/116 670/117
f 837/118 840/119 839/120
f 841/120 844/121 842/119
f 833/120 836/121 834/119
f 989/122 1/123 946/124
f 241/58 240/59 239/60
f 142/39 109/40 110/41
f 366/22 369/23 370/24
f 713/125 680/78 681/119
f 404/69 399/70 400/71
f 516/22 511/23 512/24
f 513/61 511/62 515/23
f 726/36 693/37 694/38
f 299/101 294/89 295/102
f 652/96 1012/97 987/98
f 374/60 366/22 370/24
f 396/7 390/8 392/9
f 376/60 370/22 372/24
f 375/60 372/22 368/24
f 373/60 368/22 366/24
f 379/58 381/53 378/63
f 1010/112 4/126 964/127
f 313/128 312/73 311/81
f 467/7 461/8 462/9
f 380/58 383/53 379/63
f 377/58 384/53 380/63
f 378/58 382/53 377/63
f 505/101 504/89 501/102
f 428/10 423/11 424/12
f 305/128 304/73 303/81
f 379/58 373/59 374/60
f 704/77 671/76 672/78
f 395/7 397/70 394/74
f 514/22 515/23 516/24
f 363/84 950/85 970/3
f 368/22 365/23 366/24
f 396/7 399/70 395/74
f 393/7 400/70 396/74
f 394/7 398/70 393/74
f 380/58 374/59 376/60
f 378/58 375/59 373/60
f 449/58 448/59 447/60
f 325/4 327/5 326/6
f 372/22 367/23 368/24
f 411/79 413/14 410/80
f 353/129 994/130 949/85
f 708/91 675/68 676/92
f 131/75 106/38 99/76
f 412/79 415/14 411/80
f 409/79 416/14 412/80
f 410/79 414/14 409/80
f 327/5 330/81 332/56
f 722/39 689/40 690/41
f 435/101 430/89 431/102
f 452/58 446/59 448/60
f 392/9 387/86 388/52
f 391/9 388/86 386/52
f 389/9 386/86 385/52
f 390/9 385/86 387/52
f 408/83 403/87 404/69
f 407/83 404/87 402/69
f 405/83 402/87 401/69
f 406/83 401/87 403/69
f 422/12 418/88 417/13
f 421/12 420/88 418/13
f 424/12 419/88 420/13
f 423/12 417/88 419/13
f 1004/131 94/132 973/97
f 428/10 431/89 427/90
f 716/91 683/68 684/92
f 276/79 270/82 272/83
f 1088/133 2/134 1046/135
f 388/52 383/53 384/54
f 426/10 429/89 425/90
f 425/10 432/89 428/90
f 427/10 430/89 426/90
f 49/136 974/110 954/64
f 268/69 263/70 264/71
f 553/79 552/82 551/83
f 703/75 678/38 671/76
f 244/58 238/59 240/60
f 460/52 455/53 456/54
f 153/103 120/92 121/37
f 137/103 104/92 105/37
f 450/58 447/59 445/60
f 446/60 438/22 442/24
f 411/79 405/82 406/83
f 448/60 442/22 444/24
f 447/60 444/22 440/24
f 445/60 440/22 438/24
f 451/58 453/53 450/63
f 1057/137 826/138 1045/139
f 419/13 413/14 415/15
f 522/58 519/59 517/60
f 452/58 455/53 451/63
f 449/58 456/53 452/63
f 450/58 454/53 449/63
f 540/7 534/8 536/9
f 711/75 686/38 679/76
f 409/79 408/82 407/83
f 545/69 542/70 541/71
f 444/22 439/23 440/24
f 467/7 469/70 466/74
f 721/125 688/78 689/119
f 387/52 381/53 383/54
f 484/79 478/82 480/83
f 468/7 471/70 467/74
f 465/7 472/70 468/74
f 466/7 470/70 465/74
f 709/103 676/92 677/37
f 482/79 479/82 477/83
f 521/58 520/59 519/60
f 402/69 400/70 398/71
f 426/10 421/11 422/12
f 483/79 485/14 482/80
f 451/58 445/59 446/60
f 249/52 246/53 245/54
f 986/51 91/140 1004/141
f 484/79 487/14 483/80
f 481/79 488/14 484/80
f 482/79 486/14 481/80
f 532/52 527/53 528/54
f 284/13 279/14 280/15
f 507/101 502/89 503/102
f 483/79 477/82 478/83
f 464/9 459/86 460/52
f 463/9 460/86 458/52
f 461/9 458/86 457/52
f 462/9 457/86 459/52
f 480/83 475/87 476/69
f 479/83 476/87 474/69
f 477/83 474/87 473/69
f 478/83 473/87 475/69
f 494/12 490/88 489/13
f 493/12 492/88 490/13
f 496/12 491/88 492/13
f 495/12 489/88 491/13
f 138/36 105/37 106/38
f 500/10 503/89 499/90
f 233/61 231/62 235/23
f 579/107 577/108 578/109
f 512/22 509/23 510/24
f 562/13 560/14 558/15
f 498/10 501/89 497/90
f 497/10 504/89 500/90
f 499/10 502/89 498/90
f 712/77 679/76 680/78
f 510/22 513/23 514/24
f 547/69 541/70 543/71
f 569/10 568/11 565/12
f 506/101 501/89 502/102
f 386/52 384/53 382/54
f 385/52 382/53 381/54
f 1046/135 946/142 1066/143
f 356/1 1008/2 971/3
f 518/60 510/22 514/24
f 1019/100 35/144 975/145
f 520/60 514/22 516/24
f 519/60 516/22 512/24
f 517/60 512/22 510/24
f 523/58 525/53 522/63
f 308/4 306/5 307/6
f 491/13 485/14 487/15
f 498/10 493/11 494/12
f 524/58 527/53 523/63
f 521/58 528/53 524/63
f 522/58 526/53 521/63
f 508/101 503/89 504/102
f 975/145 31/146 1011/147
f 481/79 480/82 479/83
f 490/13 488/14 486/15
f 133/125 100/78 101/119
f 539/7 541/70 538/74
f 17/148 1059/149 1048/34
f 258/7 255/8 253/9
f 555/79 549/82 550/83
f 540/7 543/70 539/74
f 537/7 544/70 540/74
f 538/7 542/70 537/74
f 476/69 471/70 472/71
f 435/107 433/108 434/109
f 537/7 536/8 535/9
f 571/10 566/11 567/12
f 329/73 332/56 330/81
f 555/79 557/14 554/80
f 87/150 1018/98 1015/115
f 531/52 525/53 527/54
f 546/69 544/70 542/71
f 556/79 559/14 555/80
f 553/79 560/14 556/80
f 554/79 558/14 553/80
f 321/73 324/56 322/81
f 468/7 462/8 464/9
f 465/7 464/8 463/9
f 539/7 533/8 534/9
f 536/9 531/86 532/52
f 535/9 532/86 530/52
f 533/9 530/86 529/52
f 534/9 529/86 531/52
f 552/83 547/87 548/69
f 551/83 548/87 546/69
f 549/83 546/87 545/69
f 550/83 545/87 547/69
f 566/12 562/88 561/13
f 565/12 564/88 562/13
f 568/12 563/88 564/13
f 567/12 561/88 563/13
f 524/58 518/59 520/60
f 572/10 575/89 571/90
f 410/79 407/82 405/83
f 728/77 695/76 696/78
f 530/52 528/53 526/54
f 474/69 472/70 470/71
f 570/10 573/89 569/90
f 569/10 576/89 572/90
f 571/10 574/89 570/90
f 492/13 487/14 488/15
f 147/75 122/38 115/76
f 1081/151 821/152 1105/153
f 572/10 567/11 568/12
f 870/154 736/155 871/156
f 885/157 876/158 877/159
f 816/43 809/44 813/160
f 826/161 1027/93 1104/162
f 719/75 694/38 687/76
f 1085/26 832/25 1100/105
f 1076/163 823/164 1091/165
f 1047/166 818/167 1054/168
f 1051/35 826/33 1029/169
f 143/67 110/41 111/68
f 325/72 331/57 329/73
f 438/22 441/23 442/24
f 150/39 117/40 118/41
f 954/64 45/65 997/66
f 1106/170 827/171 1057/137
f 341/120 344/121 343/118
f 333/120 336/121 335/118
f 337/118 340/119 338/121
f 345/118 348/119 346/121
f 81/172 80/96 87/150
f 801/173 581/174 582/175
f 388/52 387/86 383/53
f 556/79 555/80 550/82
f 604/176 608/177 609/178
f 370/22 369/61 371/23
f 21/179 1038/19 1039/180
f 137/103 136/91 104/92
f 1084/26 1099/105 24/25
f 1071/17 21/28 1070/27
f 1059/149 19/31 1058/30
f 1049/35 1025/169 18/33
f 537/7 540/74 536/8
f 158/39 157/181 125/40
f 721/125 720/77 688/78
f 131/75 138/36 106/38
f 171/44 172/182 173/183
f 173/183 174/184 171/44
f 174/184 175/160 171/44
f 175/160 176/185 171/44
f 176/185 177/42 171/44
f 327/5 328/186 330/81
f 1060/187 24/47 1061/46
f 499/10 498/90 494/11
f 363/84 361/129 950/85
f 329/73 331/57 332/56
f 555/79 554/80 549/82
f 147/75 154/36 122/38
f 238/60 237/59 230/22
f 570/10 569/90 565/11
f 240/60 238/59 234/22
f 239/60 240/59 236/22
f 237/60 239/59 232/22
f 243/58 247/54 245/53
f 492/13 491/88 487/14
f 524/58 523/63 518/59
f 136/91 135/67 103/68
f 244/58 248/54 247/53
f 241/58 246/54 248/53
f 242/58 245/54 246/53
f 514/22 513/61 515/23
f 579/107 580/101 577/108
f 258/7 257/74 255/8
f 710/36 709/103 677/37
f 368/22 367/61 365/23
f 259/7 263/71 261/70
f 986/51 28/50 91/140
f 133/125 132/77 100/78
f 1091/188 823/189 824/190
f 260/7 264/71 263/70
f 257/7 262/71 264/70
f 258/7 261/71 262/70
f 325/4 328/186 327/5
f 426/10 425/90 421/11
f 17/148 20/94 1059/149
f 259/7 258/74 253/8
f 452/58 451/63 446/59
f 275/79 279/15 277/14
f 451/58 450/63 445/59
f 476/69 475/87 471/70
f 997/66 45/65 40/99
f 276/79 280/15 279/14
f 273/79 278/15 280/14
f 274/79 277/15 278/14
f 505/101 508/107 504/89
f 249/52 250/86 246/53
f 728/77 727/75 695/76
f 317/4 320/186 319/5
f 256/9 254/8 251/86
f 255/9 256/8 252/86
f 253/9 255/8 250/86
f 254/9 253/8 249/86
f 272/83 270/82 267/87
f 271/83 272/82 268/87
f 269/83 271/82 266/87
f 270/83 269/82 265/87
f 286/12 285/11 282/88
f 285/12 288/11 284/88
f 288/12 287/11 283/88
f 287/12 286/11 281/88
f 530/52 532/86 528/53
f 292/10 296/102 295/89
f 325/72 326/191 331/57
f 305/128 308/192 304/73
f 621/136 615/193 1013/110
f 361/129 357/194 993/130
f 290/10 294/102 293/89
f 289/10 293/102 296/89
f 291/10 295/102 294/89
f 1060/187 23/16 24/47
f 491/13 489/88 485/14
f 640/195 988/100 1014/145
f 313/128 316/192 312/73
f 507/107 508/101 505/108
f 623/196 624/197 619/198
f 312/73 310/57 309/56
f 1053/34 825/148 826/33
f 508/101 507/107 503/89
f 963/131 663/199 666/132
f 98/117 84/200 1011/147
f 908/201 167/202 166/203
f 1010/112 8/204 4/126
f 714/39 713/181 681/40
f 1019/100 40/99 35/144
f 145/103 144/91 112/92
f 571/10 570/90 566/11
f 1053/34 972/205 983/206
f 467/7 466/74 461/8
f 291/10 290/90 286/11
f 1020/51 600/50 663/140
f 307/55 306/207 301/56
f 356/1 352/208 1008/2
f 711/75 718/36 686/38
f 379/58 378/63 373/59
f 907/209 906/210 169/211
f 731/67 730/39 698/41
f 326/55 327/207 332/56
f 1053/34 983/206 1063/149
f 977/115 603/146 659/150
f 1043/32 952/212 1029/45
f 967/213 1102/139 1103/137
f 662/214 660/215 668/216
f 410/79 409/80 407/82
f 954/64 50/217 45/65
f 637/218 1020/51 963/141
f 531/52 529/86 525/53
f 726/36 725/103 693/37
f 75/219 80/96 81/220
f 652/96 647/219 1012/97
f 1076/163 821/152 823/164
f 646/221 1014/145 976/147
f 703/75 710/36 678/38
f 374/60 373/59 366/22
f 516/22 515/61 511/23
f 376/60 374/59 370/22
f 375/60 376/59 372/22
f 373/60 375/59 368/22
f 379/58 383/54 381/53
f 49/136 43/193 974/110
f 308/4 305/186 306/5
f 73/222 64/223 59/224
f 380/58 384/54 383/53
f 377/58 382/54 384/53
f 378/58 381/54 382/53
f 70/225 71/226 66/227
f 716/91 715/67 683/68
f 975/145 35/144 31/146
f 612/99 617/65 618/228
f 404/69 403/87 399/70
f 395/7 399/71 397/70
f 1088/133 6/229 2/134
f 546/69 548/87 544/70
f 85/230 84/200 98/117
f 396/7 400/71 399/70
f 393/7 398/71 400/70
f 394/7 397/71 398/70
f 513/61 509/231 511/62
f 268/69 267/87 263/70
f 506/101 505/107 501/89
f 308/72 307/191 302/57
f 396/7 395/74 390/8
f 411/79 415/15 413/14
f 653/172 652/96 659/150
f 385/52 386/86 382/53
f 659/150 603/146 604/232
f 412/79 416/15 415/14
f 409/79 414/15 416/14
f 410/79 413/15 414/14
f 704/77 703/75 671/76
f 444/22 443/61 439/23
f 547/69 545/87 541/70
f 96/216 88/215 98/117
f 392/9 390/8 387/86
f 391/9 392/8 388/86
f 389/9 391/8 386/86
f 390/9 389/8 385/86
f 408/83 406/82 403/87
f 407/83 408/82 404/87
f 405/83 407/82 402/87
f 406/83 405/82 401/87
f 422/12 421/11 418/88
f 421/12 424/11 420/88
f 424/12 423/11 419/88
f 423/12 422/11 417/88
f 642/233 647/219 648/234
f 428/10 432/102 431/89
f 539/7 538/74 533/8
f 1004/131 91/199 94/132
f 648/234 649/235 644/236
f 645/237 641/238 650/239
f 426/10 430/102 429/89
f 425/10 429/102 432/89
f 427/10 431/102 430/89
f 90/214 88/215 96/216
f 372/22 371/61 367/23
f 510/22 509/61 513/23
f 521/58 524/63 520/59
f 523/58 522/63 517/59
f 554/79 553/80 551/82
f 153/103 152/91 120/92
f 81/172 27/240 89/241
f 36/242 41/243 42/244
f 446/60 445/59 438/22
f 620/245 611/246 610/247
f 448/60 446/59 442/22
f 447/60 448/59 444/22
f 445/60 447/59 440/22
f 451/58 455/54 453/53
f 440/22 439/61 437/23
f 569/10 572/90 568/11
f 434/101 433/107 429/89
f 452/58 456/54 455/53
f 449/58 454/54 456/53
f 450/58 453/54 454/53
f 140/77 139/75 107/76
f 378/58 377/63 375/59
f 1046/135 2/134 946/142
f 651/248 650/249 657/250
f 977/115 987/98 669/116
f 467/7 471/71 469/70
f 708/91 707/67 675/68
f 481/79 484/80 480/82
f 78/239 69/238 68/195
f 468/7 472/71 471/70
f 465/7 470/71 472/70
f 466/7 469/71 470/70
f 241/58 244/63 240/59
f 633/251 634/252 629/253
f 233/61 229/231 231/62
f 548/69 547/87 543/70
f 73/237 69/238 78/239
f 483/79 487/15 485/14
f 617/65 622/217 623/196
f 512/22 511/61 509/23
f 661/254 599/255 604/232
f 484/79 488/15 487/14
f 481/79 486/15 488/14
f 482/79 485/15 486/14
f 580/101 579/107 575/89
f 428/10 427/90 423/11
f 483/79 482/80 477/82
f 55/256 56/257 51/258
f 464/9 462/8 459/86
f 463/9 464/8 460/86
f 461/9 463/8 458/86
f 462/9 461/8 457/86
f 480/83 478/82 475/87
f 479/83 480/82 476/87
f 477/83 479/82 474/87
f 478/83 477/82 473/87
f 494/12 493/11 490/88
f 493/12 496/11 492/88
f 496/12 495/11 491/88
f 495/12 494/11 489/88
f 623/258 622/217 627/256
f 500/10 504/102 503/89
f 1081/151 822/259 821/152
f 974/110 43/193 34/111
f 93/260 96/261 97/116
f 638/227 643/226 644/262
f 498/10 502/102 501/89
f 497/10 501/102 504/89
f 499/10 503/102 502/89
f 377/58 380/63 376/59
f 626/263 625/264 631/265
f 507/101 506/107 502/89
f 298/101 297/107 293/89
f 59/224 58/266 68/195
f 664/267 667/268 668/261
f 276/79 275/80 270/82
f 631/265 625/264 621/136
f 299/101 298/107 294/89
f 518/60 517/59 510/22
f 299/107 300/101 297/108
f 520/60 518/59 514/22
f 519/60 520/59 516/22
f 517/60 519/59 512/22
f 523/58 527/54 525/53
f 159/67 158/39 126/41
f 138/36 137/103 105/37
f 638/269 639/270 634/271
f 524/58 528/54 527/53
f 521/58 526/54 528/53
f 522/58 525/54 526/53
f 275/79 274/80 269/82
f 435/101 434/107 430/89
f 562/13 564/88 560/14
f 51/258 56/257 57/272
f 1010/112 7/273 1069/113
f 539/7 543/71 541/70
f 387/52 385/86 381/53
f 532/52 531/86 527/53
f 46/228 47/274 42/275
f 540/7 544/71 543/70
f 537/7 542/71 544/70
f 538/7 541/71 542/70
f 142/39 141/181 109/40
f 616/276 610/247 606/111
f 284/13 283/88 279/14
f 653/220 654/277 649/278
f 304/73 302/57 301/56
f 555/79 559/15 557/14
f 156/77 155/75 123/76
f 712/77 711/75 679/76
f 637/218 638/269 633/279
f 556/79 560/15 559/14
f 553/79 558/15 560/14
f 554/79 557/15 558/14
f 733/103 732/91 700/92
f 837/118 838/121 840/119
f 490/13 492/88 488/14
f 650/239 641/238 640/195
f 536/9 534/8 531/86
f 535/9 536/8 532/86
f 533/9 535/8 530/86
f 534/9 533/8 529/86
f 552/83 550/82 547/87
f 551/83 552/82 548/87
f 549/83 551/82 546/87
f 550/83 549/82 545/87
f 566/12 565/11 562/88
f 565/12 568/11 564/88
f 568/12 567/11 563/88
f 567/12 566/11 561/88
f 300/101 299/107 295/89
f 572/10 576/102 575/89
f 61/251 62/252 57/253
f 953/66 617/65 612/99
f 647/219 652/96 653/220
f 458/52 460/86 456/53
f 570/10 574/102 573/89
f 569/10 573/102 576/89
f 571/10 575/102 574/89
f 459/52 457/86 453/53
f 316/72 315/191 310/57
f 907/280 168/281 167/202
f 578/101 577/107 573/89
f 589/44 590/182 591/183
f 591/183 592/184 593/160
f 593/160 594/185 595/42
f 595/42 596/43 589/44
f 529/52 530/86 526/53
f 743/44 744/182 745/183
f 745/183 746/184 743/44
f 236/22 235/61 231/23
f 747/160 748/185 749/42
f 749/42 750/43 747/160
f 809/44 810/182 813/160
f 810/182 811/183 813/160
f 811/183 812/184 813/160
f 813/160 814/185 815/42
f 815/42 816/43 813/160
f 1104/162 1045/282 826/161
f 29/283 25/284 91/140
f 1087/18 832/25 1085/26
f 1076/163 1105/153 821/152
f 1047/166 1068/285 820/286
f 1053/34 826/33 1051/35
f 419/13 417/88 413/14
f 926/287 925/288 917/203
f 395/7 394/74 389/8
f 1071/17 22/20 21/28
f 851/289 859/37 858/41
f 1106/170 1097/95 828/94
f 627/256 1005/49 632/290
f 640/195 1014/145 646/221
f 646/221 976/147 656/200
f 637/218 963/141 642/225
f 653/172 659/150 599/240
f 61/251 57/253 56/291
f 63/292 89/254 33/293
f 653/220 649/278 648/294
f 63/295 33/296 37/178
f 637/218 633/279 632/290
f 46/228 42/275 41/297
f 63/298 37/299 42/244
f 650/239 640/195 646/221
f 638/227 644/262 639/300
f 63/301 42/275 47/274
f 59/224 68/195 69/302
f 63/303 47/198 52/197
f 93/260 97/116 94/132
f 638/269 634/271 633/279
f 63/304 52/305 57/272
f 640/195 631/224 630/266
f 661/254 604/232 605/293
f 63/306 57/253 62/252
f 55/256 51/258 50/217
f 51/258 57/272 52/305
f 63/307 62/271 67/270
f 647/219 653/220 648/294
f 81/220 77/278 76/294
f 63/308 67/300 72/262
f 642/233 648/234 643/309
f 22/20 1060/187 1024/21
f 81/172 89/241 82/310
f 395/7 389/8 390/9
f 564/13 559/14 560/15
f 29/283 91/140 28/50
f 440/22 437/23 438/24
f 36/242 42/244 37/299
f 570/10 565/11 566/12
f 523/58 517/59 518/60
f 63/311 72/236 77/235
f 1069/113 3/312 1023/313
f 623/196 619/198 618/314
f 159/67 126/41 127/68
f 434/101 429/89 430/102
f 63/315 77/278 82/277
f 617/65 623/196 618/314
f 633/251 629/253 628/291
f 312/73 309/56 311/81
f 577/101 576/89 573/102
f 63/316 82/310 89/241
f 623/258 627/256 628/257
f 556/79 550/82 552/83
f 662/214 668/216 667/317
f 81/172 87/150 27/240
f 90/318 83/319 86/320
f 631/265 621/136 630/266
f 86/321 83/322 79/248
f 626/263 631/265 636/323
f 70/225 66/227 65/218
f 79/324 83/325 73/237
f 645/237 650/239 651/324
f 642/225 638/227 637/218
f 73/222 83/326 64/223
f 90/214 96/216 95/317
f 616/276 606/111 615/193
f 64/323 83/327 54/263
f 651/248 657/250 658/321
f 54/328 83/329 48/330
f 26/331 93/332 25/333
f 659/150 604/232 599/255
f 620/245 610/247 616/276
f 96/216 98/117 97/116
f 48/245 83/155 39/246
f 604/176 609/178 605/296
f 648/234 644/236 643/309
f 39/334 83/159 30/335
f 73/237 78/239 79/324
f 78/239 68/195 74/221
f 30/336 83/289 26/337
f 73/222 59/224 69/302
f 612/99 618/228 613/297
f 26/331 83/338 92/339
f 664/267 668/261 665/260
f 75/219 81/220 76/294
f 92/267 83/340 95/268
f 85/230 98/117 88/341
f 95/317 83/342 90/214
f 598/331 665/332 597/333
f 425/10 424/11 421/12
f 731/67 698/41 699/68
f 308/72 302/57 304/73
f 548/69 543/70 544/71
f 458/52 456/53 454/54
f 963/131 666/132 1012/97
f 98/117 1011/147 1015/115
f 705/125 672/78 673/119
f 851/289 858/41 850/343
f 507/107 505/108 506/109
f 145/103 112/92 113/37
f 317/4 319/5 318/6
f 621/136 1013/110 998/64
f 141/125 108/78 109/119
f 149/125 116/78 117/119
f 361/129 993/130 950/85
f 291/10 286/11 287/12
f 710/36 677/37 678/38
f 1091/188 824/190 1080/344
f 151/67 118/41 119/68
f 500/10 495/11 496/12
f 136/91 103/68 104/92
f 259/7 253/8 254/9
f 729/125 696/78 697/119
f 158/39 125/40 126/41
f 370/22 371/23 372/24
f 328/128 329/73 330/81
f 499/10 494/11 495/12
f 997/66 40/99 1019/100
f 1020/51 663/140 963/141
f 561/13 558/14 557/15
f 714/39 681/40 682/41
f 911/175 163/173 912/174
f 169/211 905/345 170/346
f 583/287 804/203 803/347
f 908/201 166/203 909/348
f 801/173 582/175 802/349
f 907/209 169/211 168/281
f 926/287 917/203 918/347
f 907/280 167/202 908/350
f 193/349 184/351 185/327
f 187/352 186/353 179/354
f 791/173 776/354 784/352
f 218/349 211/353 219/173
f 787/202 780/355 788/203
f 193/349 186/353 194/173
f 904/356 895/357 896/358
f 217/347 208/355 209/351
f 196/210 197/209 203/359
f 197/280 198/350 203/360
f 199/288 200/287 203/361
f 203/362 201/175 202/174
f 198/201 199/348 203/363
f 202/364 195/365 203/366
f 200/367 201/368 203/369
f 203/370 195/345 196/371
f 786/281 779/329 787/202
f 759/346 752/372 760/211
f 212/346 205/372 213/211
f 765/349 756/351 757/327
f 762/202 755/355 763/203
f 761/281 752/372 753/373
f 765/349 758/353 766/173
f 789/347 780/355 781/351
f 221/210 222/209 228/359
f 222/280 223/350 228/360
f 224/288 225/287 228/361
f 228/362 226/175 227/174
f 223/201 224/348 228/363
f 227/364 220/365 228/366
f 225/367 226/368 228/369
f 228/370 220/345 221/371
f 923/209 914/211 915/281
f 921/365 920/173 913/352
f 916/202 923/280 915/281
f 920/173 927/175 919/349
f 924/201 917/203 925/348
f 910/287 166/203 165/347
f 943/175 936/173 944/174
f 938/371 929/346 930/211
f 668/216 670/117 669/116
f 653/172 661/241 654/310
f 635/292 661/254 605/293
f 32/176 37/178 33/296
f 635/295 605/296 609/178
f 50/217 46/314 45/65
f 618/228 614/275 613/297
f 635/298 609/299 614/244
f 40/99 46/228 41/297
f 76/234 72/236 71/309
f 635/301 614/275 619/274
f 612/99 608/242 607/144
f 635/303 619/198 624/197
f 35/144 32/176 31/146
f 47/198 51/196 52/197
f 635/304 624/305 629/272
f 625/374 615/193 621/136
f 32/232 89/254 27/255
f 635/306 629/253 634/252
f 87/150 32/232 27/255
f 623/258 629/272 624/305
f 635/307 634/271 639/270
f 668/261 666/132 665/260
f 64/323 53/264 59/265
f 635/308 639/300 644/262
f 610/375 600/50 606/111
f 725/103 692/92 693/37
f 66/227 72/262 67/300
f 160/91 127/68 128/92
f 393/7 392/8 391/9
f 663/199 665/332 666/132
f 401/69 398/70 397/71
f 608/242 614/244 609/299
f 369/61 367/62 371/23
f 157/125 124/78 125/119
f 635/311 644/236 649/235
f 306/5 303/81 301/56
f 61/279 67/270 62/271
f 24/47 1039/376 1050/48
f 1013/110 606/111 1005/49
f 635/315 649/278 654/277
f 603/146 608/177 604/176
f 90/318 85/230 88/341
f 289/10 288/11 285/12
f 297/101 296/89 293/102
f 635/316 654/310 661/241
f 657/230 670/117 660/341
f 132/77 99/76 100/78
f 53/374 48/330 44/377
f 53/374 43/193 49/136
f 662/318 655/319 658/320
f 59/265 49/136 58/266
f 658/321 655/322 651/248
f 79/248 85/250 86/321
f 70/233 76/234 71/309
f 651/324 655/325 645/237
f 598/337 601/283 602/336
f 36/242 40/99 41/243
f 645/222 655/326 636/223
f 26/337 29/283 30/336
f 60/290 66/269 61/279
f 636/323 655/327 626/263
f 95/268 93/260 92/267
f 626/328 655/329 620/330
f 645/222 631/224 641/302
f 627/256 633/251 628/291
f 602/335 610/375 611/334
f 44/276 34/111 43/193
f 620/245 655/155 611/246
f 30/335 38/375 39/334
f 38/375 28/50 34/111
f 611/334 655/159 602/335
f 48/245 38/247 44/276
f 93/332 91/199 25/333
f 602/336 655/289 598/337
f 620/330 625/374 626/328
f 601/283 663/140 600/50
f 598/331 655/338 664/339
f 943/368 934/347 935/349
f 650/249 656/200 657/250
f 664/267 655/340 667/268
f 55/256 61/251 56/291
f 667/317 655/342 662/214
f 662/318 657/230 660/341
f 715/67 682/41 683/68
f 139/75 114/38 107/76
f 162/36 129/37 130/38
f 1054/168 817/378 1075/379
f 1014/145 603/146 976/147
f 538/7 535/8 533/9
f 670/117 976/147 977/115
f 988/100 607/144 1014/145
f 234/22 235/23 236/24
f 1098/380 820/286 1068/285
f 134/39 101/40 102/41
f 144/91 111/68 112/92
f 155/75 130/38 123/76
f 161/103 128/92 129/37
f 732/91 699/68 700/92
f 146/36 113/37 114/38
f 707/67 674/41 675/68
f 152/91 119/68 120/92
f 320/128 321/73 322/81
f 148/77 115/76 116/78
f 290/10 285/11 286/12
f 659/150 987/98 977/115
f 260/7 254/8 256/9
f 266/69 264/70 262/71
f 717/103 684/92 685/37
f 436/101 431/89 432/102
f 314/5 311/81 309/56
f 273/79 272/82 271/83
f 433/101 432/89 429/102
f 403/69 397/70 399/71
f 457/52 454/53 453/54
f 135/67 102/41 103/68
f 591/183 595/42 589/44
f 871/381 735/358 872/356
f 901/157 892/158 893/159
f 891/289 898/41 890/343
f 874/343 881/382 873/383
f 865/382 735/358 742/383
f 867/37 741/343 740/289
f 218/349 209/351 210/327
f 207/329 214/281 206/373
f 759/352 758/353 751/354
f 78/249 84/200 85/250
f 754/329 761/281 753/373
f 879/155 886/154 878/384
f 786/281 777/372 778/373
f 214/281 205/372 206/373
f 215/202 208/355 216/203
f 768/210 769/209 775/359
f 769/280 770/350 775/360
f 771/288 772/287 775/361
f 775/362 773/175 774/174
f 770/201 771/348 775/363
f 774/364 767/365 775/366
f 772/367 773/368 775/369
f 775/370 767/345 768/371
f 790/349 781/351 782/327
f 187/346 180/372 188/211
f 212/352 211/353 204/354
f 895/155 902/154 894/384
f 192/347 183/355 184/351
f 189/281 180/372 181/373
f 764/347 755/355 756/351
f 784/346 777/372 785/211
f 793/210 794/209 800/359
f 794/280 795/350 800/360
f 796/288 797/287 800/361
f 800/362 798/175 799/174
f 795/201 796/348 800/363
f 799/364 792/365 800/366
f 797/367 798/368 800/369
f 800/370 792/345 793/371
f 587/371 808/346 807/211
f 921/345 914/211 922/371
f 939/280 932/202 940/350
f 940/201 933/203 941/348
f 586/209 807/211 806/281
f 939/209 930/211 931/281
f 944/364 929/352 937/365
f 586/280 805/202 585/350
f 886/154 877/159 878/384
f 863/381 856/358 864/356
f 857/382 856/358 849/383
f 741/343 865/382 742/383
f 883/37 874/343 875/289
f 747/160 743/44 746/184
f 859/37 852/158 860/78
f 867/37 739/158 868/78
f 902/154 893/159 894/384
f 900/78 891/289 892/158
f 884/78 875/289 876/158
f 579/101 574/89 575/102
f 190/202 183/355 191/203
f 869/157 739/158 738/159
f 890/343 897/382 889/383
f 863/156 854/384 855/155
f 870/154 738/159 737/384
f 862/154 853/159 854/384
f 861/157 852/158 853/159
f 850/343 857/382 849/383
f 182/329 189/281 181/373
f 904/356 889/383 897/382
f 888/356 879/357 880/358
f 790/349 783/353 791/173
f 911/368 165/347 164/349
f 804/203 585/201 805/202
f 942/287 933/203 934/347
f 582/368 803/347 802/349
f 845/118 848/119 847/120
f 927/368 918/347 919/349
f 808/352 581/364 801/173
f 912/364 170/352 905/365
f 4/385 1101/386 964/387
f 1096/380 12/286 11/388
f 987/98 666/132 669/116
f 1003/389 1085/26 1001/390
f 822/259 1081/151 1055/391
f 830/20 1041/19 1028/21
f 827/31 1063/149 1062/30
f 18/161 1026/93 17/148
f 825/148 1063/149 828/94
f 1086/392 955/393 1037/394
f 1021/395 1072/396 945/397
f 970/3 359/398 363/84
f 1090/168 9/378 10/167
f 819/388 1098/380 1089/399
f 979/206 1058/30 978/400
f 970/3 362/401 364/1
f 832/47 1064/187 1065/46
f 722/39 721/181 689/40
f 829/28 1074/17 1073/27
f 598/331 664/339 665/332
f 412/79 411/80 406/82
f 1026/93 20/94 17/148
f 1069/113 7/273 3/312
f 13/152 1095/153 1034/163
f 81/220 82/277 77/278
f 640/195 641/302 631/224
f 328/128 325/192 329/73
f 949/85 350/402 354/401
f 540/7 539/74 534/8
f 642/225 643/226 638/227
f 1103/137 18/138 19/171
f 829/104 1100/105 832/25
f 705/125 704/77 672/78
f 1027/93 825/148 828/94
f 961/403 1075/379 952/212
f 21/104 24/25 1099/105
f 1000/390 1079/151 1036/391
f 1050/48 957/404 967/213
f 1016/405 1084/26 1000/390
f 1037/394 1021/395 1101/386
f 9/406 1067/399 11/388
f 1018/98 94/132 97/116
f 1033/166 10/167 12/286
f 981/407 1103/137 1082/170
f 985/407 1097/95 1106/170
f 1052/48 960/404 1042/376
f 966/408 1096/380 1067/399
f 11/388 1067/399 1096/380
f 55/256 962/49 60/290
f 990/409 1023/313 945/410
f 1022/411 1078/412 1035/413
f 1088/133 989/122 6/229
f 1028/21 984/414 1064/187
f 1089/399 817/406 819/388
f 958/403 1030/379 1090/168
f 5/415 1072/416 1/417
f 1066/143 1/418 1072/396
f 827/31 1029/45 826/419
f 1009/420 1080/344 1017/405
f 60/290 986/51 65/218
f 22/20 23/16 1060/187
f 1043/32 961/403 952/212
f 577/101 580/107 576/89
f 366/22 365/61 369/23
f 26/331 92/339 93/332
f 460/52 459/86 455/53
f 425/10 428/90 424/11
f 149/125 148/77 116/78
f 315/55 314/207 309/56
f 1005/49 606/111 600/50
f 150/39 149/181 117/40
f 561/13 562/88 558/14
f 1057/137 827/171 826/138
f 283/13 281/88 277/14
f 473/69 474/87 470/70
f 1106/170 828/94 827/171
f 438/22 437/61 441/23
f 885/157 884/78 876/158
f 522/58 521/63 519/59
f 967/213 957/404 1102/139
f 292/10 291/90 287/11
f 282/13 284/88 280/14
f 151/67 150/39 118/41
f 337/118 339/120 340/119
f 341/120 342/119 344/121
f 1047/166 820/286 818/167
f 409/79 412/80 408/82
f 572/10 571/90 567/11
f 80/96 75/219 973/97
f 489/13 490/88 486/14
f 841/120 843/118 844/121
f 21/179 22/20 1038/19
f 1073/27 1009/421 1094/29
f 959/422 1028/21 1041/19
f 1042/180 959/422 1041/19
f 49/136 997/66 58/266
f 1015/115 31/146 87/150
f 947/423 1056/95 1026/93
f 968/408 1075/424 1089/399
f 1030/424 966/408 1067/399
f 418/13 420/88 416/14
f 1104/162 951/423 959/422
f 1085/26 1017/405 1001/390
f 497/10 500/90 496/11
f 1044/114 990/409 1022/411
f 1084/26 999/389 1000/390
f 1070/27 1006/421 991/425
f 969/213 1045/139 960/404
f 18/33 17/148 1048/34
f 1051/35 952/426 968/408
f 982/400 1054/168 961/403
f 417/13 418/88 414/14
f 1061/46 967/213 981/407
f 364/1 360/208 1007/2
f 394/7 393/74 391/8
f 955/393 1066/143 1021/395
f 1065/46 984/414 985/407
f 1001/390 1080/344 1055/391
f 1056/95 981/407 1082/170
f 642/233 1012/97 647/219
f 1062/30 961/403 1043/32
f 1078/412 945/410 1072/416
f 1065/46 969/213 1052/48
f 74/221 1011/147 84/200
f 1035/413 5/415 989/122
f 999/389 1095/153 1079/151
f 6/229 946/124 2/427
f 980/414 1061/46 981/407
f 1034/163 15/164 13/152
f 1079/151 13/152 14/259
f 831/16 1074/17 830/20
f 832/47 1065/46 1052/48
f 960/1 1104/162 959/422
f 70/233 973/97 75/219
f 972/205 1068/285 983/206
f 12/286 1032/285 1033/166
f 14/259 1036/391 1079/151
f 18/161 1102/282 1092/162
f 995/425 1105/153 1076/163
f 954/64 55/256 50/217
f 964/387 1023/428 3/429
f 709/103 708/91 676/92
f 16/190 1036/391 14/259
f 154/36 153/103 121/37
f 321/73 323/57 324/56
f 1055/391 824/190 822/259
f 553/79 556/80 552/82
f 1031/188 16/190 15/189
f 244/58 243/63 238/59
f 718/36 717/103 685/37
f 627/256 1013/110 1005/49
f 7/273 964/127 3/430
f 450/58 449/63 447/59
f 411/79 410/80 405/82
f 948/426 1049/35 966/408
f 1092/162 947/423 1026/93
f 474/69 476/87 472/70
f 498/10 497/90 493/11
f 1082/170 19/171 20/94
f 826/161 825/148 1027/93
f 978/400 1090/168 1033/166
f 832/47 1042/376 829/431
f 972/205 1051/35 968/408
f 65/218 1004/141 70/225
f 829/179 1041/19 830/20
f 630/266 988/100 640/195
f 829/28 1073/27 1094/29
f 632/290 1020/51 637/218
f 992/432 1070/27 991/425
f 1101/386 945/397 1023/428
f 971/3 354/401 356/1
f 8/204 1037/394 4/385
f 8/204 1044/114 1086/392
f 1024/21 980/414 947/423
f 1002/433 1035/413 1088/133
f 1086/392 1022/411 1002/433
f 1006/420 1077/344 1031/188
f 827/31 1062/30 1043/32
f 621/136 953/66 630/266
f 20/94 1056/95 1082/170
f 971/3 351/398 355/84
f 982/400 1068/285 1047/166
f 830/20 1064/187 831/16
f 991/425 1031/165 1034/163
f 989/122 5/415 1/123
f 500/10 499/90 495/11
f 870/154 737/384 736/155
f 1059/149 20/94 19/31
f 482/79 481/80 479/82
f 484/79 483/80 478/82
f 724/91 723/67 691/68
f 719/75 726/36 694/38
f 87/150 80/96 1018/98
f 564/13 563/88 559/14
f 345/118 347/120 348/119
f 730/39 729/181 697/40
f 833/120 835/118 836/121
f 333/120 334/119 336/121
f 465/7 468/74 464/8
f 1087/18 831/16 832/25
f 169/211 906/371 905/345
f 713/125 712/77 680/78
f 977/115 976/147 603/146
f 143/67 142/39 110/41
f 141/125 140/77 108/78
f 468/7 467/74 462/8
f 380/58 379/63 374/59
f 729/125 728/77 696/78
f 583/287 584/288 804/203
f 402/69 404/87 400/70
f 911/175 164/349 163/173
f 435/107 436/101 433/108
f 353/129 349/194 994/130
f 386/52 388/86 384/53
f 449/58 452/63 448/59
f 545/69 546/87 542/70
f 265/69 266/87 262/70
f 230/22 229/61 233/23
f 267/69 265/87 261/70
f 243/58 242/63 237/59
f 441/61 437/231 439/62
f 998/64 622/217 617/65
f 232/22 231/61 229/23
f 466/7 465/74 463/8
f 734/36 733/103 701/37
f 985/407 1057/137 969/213
f 1039/180 956/422 957/1
f 706/39 705/181 673/40
f 951/423 1097/95 984/414
f 1083/18 992/432 999/389
f 316/4 313/186 314/5
f 1040/32 948/212 958/403
f 24/25 23/16 1083/18
f 1003/389 1105/153 996/432
f 995/425 1091/165 1009/421
f 442/22 441/61 443/23
f 1002/433 1046/135 955/393
f 956/422 1024/21 947/423
f 1049/35 965/205 966/408
f 1048/34 979/206 965/205
f 1015/115 97/116 98/117
f 1087/18 996/432 1074/17
f 1095/153 991/425 1034/163
f 1081/151 1001/390 1055/391
f 998/64 627/256 622/217
f 950/85 358/402 362/401
f 1062/30 983/206 982/400
f 1077/344 1000/390 1036/391
f 252/52 251/86 247/53
f 274/79 273/80 271/82
f 723/67 722/39 690/41
f 427/10 426/90 422/11
f 727/75 734/36 702/38
f 281/13 282/88 278/14
f 355/84 353/129 949/85
f 319/5 320/186 322/81
f 962/49 34/111 28/50
f 251/52 249/86 245/53
f 242/58 241/63 239/59
f 193/349 192/347 184/351
f 1093/106 1016/405 1006/420
f 317/72 318/191 323/57
f 250/52 252/86 248/53
f 720/77 719/75 687/76
f 19/31 18/419 1025/45
f 318/55 319/207 324/56
f 563/13 561/88 557/14
f 420/13 419/88 415/14
f 23/16 22/20 1071/17
f 475/69 473/87 469/70
f 257/7 260/74 256/8
f 1058/30 958/403 978/400
f 68/195 975/145 74/221
f 1073/27 996/432 995/425
f 1094/106 1017/405 1100/105
f 957/1 1092/162 1102/282
f 58/266 1019/100 68/195
f 1032/285 978/400 1033/166
f 965/205 1032/285 1096/380
f 1098/380 968/408 1089/399
f 881/382 880/358 873/383
f 187/352 194/173 186/353
f 791/173 783/353 776/354
f 218/349 210/327 211/353
f 787/202 779/329 780/355
f 193/349 185/327 186/353
f 904/356 903/381 895/357
f 217/347 216/203 208/355
f 786/281 778/373 779/329
f 759/346 751/155 752/372
f 212/346 204/155 205/372
f 765/349 764/347 756/351
f 762/202 754/329 755/355
f 761/281 760/211 752/372
f 765/349 757/327 758/353
f 789/347 788/203 780/355
f 923/209 922/210 914/211
f 921/365 928/364 920/173
f 916/202 924/350 923/280
f 920/173 928/174 927/175
f 924/201 916/202 917/203
f 910/287 909/288 166/203
f 943/175 935/349 936/173
f 938/371 937/345 929/346
f 668/216 660/215 670/117
f 653/172 599/240 661/241
f 32/176 36/177 37/178
f 50/217 51/196 46/314
f 618/228 619/274 614/275
f 40/99 45/65 46/228
f 76/234 77/235 72/236
f 612/99 613/243 608/242
f 35/144 36/177 32/176
f 47/198 46/314 51/196
f 625/374 616/377 615/193
f 32/232 33/293 89/254
f 87/150 31/146 32/232
f 623/258 628/257 629/272
f 668/261 669/116 666/132
f 64/323 54/263 53/264
f 610/375 601/434 600/50
f 725/103 724/91 692/92
f 66/227 71/226 72/262
f 160/91 159/67 127/68
f 393/7 396/74 392/8
f 663/199 597/333 665/332
f 401/69 402/87 398/70
f 608/242 613/243 614/244
f 369/61 365/231 367/62
f 157/125 156/77 124/78
f 306/5 305/186 303/81
f 61/279 66/269 67/270
f 24/47 21/431 1039/376
f 1013/110 615/193 606/111
f 603/146 607/144 608/177
f 90/318 86/320 85/230
f 289/10 292/90 288/11
f 297/101 300/107 296/89
f 657/230 656/200 670/117
f 132/77 131/75 99/76
f 53/374 54/328 48/330
f 53/374 44/377 43/193
f 59/265 53/264 49/136
f 79/248 78/249 85/250
f 70/233 75/219 76/234
f 598/337 597/284 601/283
f 36/242 35/144 40/99
f 26/337 25/284 29/283
f 60/290 65/218 66/269
f 95/268 96/261 93/260
f 645/222 636/223 631/224
f 627/256 632/290 633/251
f 602/335 601/434 610/375
f 44/276 38/247 34/111
f 30/335 29/434 38/375
f 38/375 29/434 28/50
f 48/245 39/246 38/247
f 93/332 94/132 91/199
f 620/330 616/377 625/374
f 601/283 597/284 663/140
f 943/368 942/367 934/347
f 650/249 646/221 656/200
f 55/256 60/290 61/251
f 662/318 658/320 657/230
f 715/67 714/39 682/41
f 139/75 146/36 114/38
f 162/36 161/103 129/37
f 1054/168 818/167 817/378
f 1014/145 607/144 603/146
f 538/7 537/74 535/8
f 670/117 656/200 976/147
f 988/100 612/99 607/144
f 234/22 233/61 235/23
f 1098/380 819/388 820/286
f 134/39 133/181 101/40
f 144/91 143/67 111/68
f 155/75 162/36 130/38
f 161/103 160/91 128/92
f 732/91 731/67 699/68
f 146/36 145/103 113/37
f 707/67 706/39 674/41
f 152/91 151/67 119/68
f 320/128 317/192 321/73
f 148/77 147/75 115/76
f 290/10 289/90 285/11
f 659/150 652/96 987/98
f 260/7 259/74 254/8
f 266/69 268/87 264/70
f 717/103 716/91 684/92
f 436/101 435/107 431/89
f 314/5 313/186 311/81
f 273/79 276/80 272/82
f 433/101 436/107 432/89
f 403/69 401/87 397/70
f 457/52 458/86 454/53
f 135/67 134/39 102/41
f 591/183 593/160 595/42
f 871/381 736/357 735/358
f 901/157 900/78 892/158
f 891/289 899/37 898/41
f 874/343 882/41 881/382
f 865/382 872/356 735/358
f 867/37 866/41 741/343
f 218/349 217/347 209/351
f 207/329 215/202 214/281
f 759/352 766/173 758/353
f 78/249 74/221 84/200
f 754/329 762/202 761/281
f 879/155 887/156 886/154
f 786/281 785/211 777/372
f 214/281 213/211 205/372
f 215/202 207/329 208/355
f 790/349 789/347 781/351
f 187/346 179/155 180/372
f 212/352 219/173 211/353
f 895/155 903/156 902/154
f 192/347 191/203 183/355
f 189/281 188/211 180/372
f 764/347 763/203 755/355
f 784/346 776/155 777/372
f 587/371 588/345 808/346
f 921/345 913/346 914/211
f 939/280 931/281 932/202
f 940/201 932/202 933/203
f 586/209 587/210 807/211
f 939/209 938/210 930/211
f 944/364 936/173 929/352
f 586/280 806/281 805/202
f 886/154 885/157 877/159
f 863/381 855/357 856/358
f 857/382 864/356 856/358
f 741/343 866/41 865/382
f 883/37 882/41 874/343
f 747/160 750/43 743/44
f 859/37 851/289 852/158
f 867/37 740/289 739/158
f 902/154 901/157 893/159
f 900/78 899/37 891/289
f 884/78 883/37 875/289
f 579/101 578/107 574/89
f 190/202 182/329 183/355
f 869/157 868/78 739/158
f 890/343 898/41 897/382
f 863/156 862/154 854/384
f 870/154 869/157 738/159
f 862/154 861/157 853/159
f 861/157 860/78 852/158
f 850/343 858/41 857/382
f 182/329 190/202 189/281
f 904/356 896/358 889/383
f 888/356 887/381 879/357
f 790/349 782/327 783/353
f 911/368 910/367 165/347
f 804/203 584/348 585/201
f 942/287 941/288 933/203
f 582/368 583/367 803/347
f 845/118 846/121 848/119
f 927/368 926/367 918/347
f 808/352 588/365 581/364
f 912/364 163/173 170/352
f 4/385 1037/394 1101/386
f 1096/380 1032/285 12/286
f 987/98 1012/97 666/132
f 1003/389 1087/18 1085/26
f 827/31 828/94 1063/149
f 18/161 1092/162 1026/93
f 825/148 1053/34 1063/149
f 1086/392 1002/433 955/393
f 1021/395 1066/143 1072/396
f 970/3 1007/2 359/398
f 1090/168 1030/379 9/378
f 979/206 1059/149 1058/30
f 970/3 950/85 362/401
f 832/47 831/16 1064/187
f 829/28 830/20 1074/17
f 1026/93 1056/95 20/94
f 949/85 994/130 350/402
f 1103/137 1102/139 18/138
f 829/104 1094/106 1100/105
f 961/403 1054/168 1075/379
f 1000/390 999/389 1079/151
f 1050/48 1039/376 957/404
f 1016/405 1099/105 1084/26
f 1037/394 955/393 1021/395
f 9/406 1030/424 1067/399
f 1018/98 973/97 94/132
f 1033/166 1090/168 10/167
f 981/407 967/213 1103/137
f 985/407 984/414 1097/95
f 1052/48 969/213 960/404
f 966/408 965/205 1096/380
f 55/256 974/110 962/49
f 990/409 1069/113 1023/313
f 1022/411 990/409 1078/412
f 1088/133 1035/413 989/122
f 1028/21 951/423 984/414
f 1089/399 1075/424 817/406
f 958/403 948/212 1030/379
f 5/415 1078/412 1072/416
f 1066/143 946/142 1/418
f 827/31 1043/32 1029/45
f 1009/420 1091/188 1080/344
f 60/290 962/49 986/51
f 1073/27 995/425 1009/421
f 959/422 951/423 1028/21
f 1042/180 960/1 959/422
f 49/136 954/64 997/66
f 1015/115 1011/147 31/146
f 947/423 980/414 1056/95
f 968/408 952/426 1075/424
f 1030/424 948/426 966/408
f 1104/162 1027/93 951/423
f 1085/26 1100/105 1017/405
f 1044/114 1069/113 990/409
f 1084/26 1083/18 999/389
f 1070/27 1093/29 1006/421
f 969/213 1057/137 1045/139
f 1051/35 1029/169 952/426
f 982/400 1047/166 1054/168
f 1061/46 1050/48 967/213
f 955/393 1046/135 1066/143
f 1065/46 1064/187 984/414
f 1001/390 1017/405 1080/344
f 1056/95 980/414 981/407
f 642/233 963/131 1012/97
f 1062/30 982/400 961/403
f 1078/412 990/409 945/410
f 1065/46 985/407 969/213
f 74/221 975/145 1011/147
f 1035/413 1078/412 5/415
f 999/389 992/432 1095/153
f 6/229 989/122 946/124
f 980/414 1060/187 1061/46
f 1034/163 1031/165 15/164
f 1079/151 1095/153 13/152
f 831/16 1087/18 1074/17
f 960/1 1045/282 1104/162
f 70/233 1004/131 973/97
f 972/205 1098/380 1068/285
f 995/425 996/432 1105/153
f 954/64 974/110 55/256
f 964/387 1101/386 1023/428
f 16/190 1077/344 1036/391
f 1055/391 1080/344 824/190
f 1031/188 1077/344 16/190
f 7/273 1010/112 964/127
f 948/426 1025/169 1049/35
f 1092/162 956/422 947/423
f 1082/170 1103/137 19/171
f 978/400 958/403 1090/168
f 832/47 1052/48 1042/376
f 972/205 1053/34 1051/35
f 65/218 986/51 1004/141
f 829/179 1042/180 1041/19
f 630/266 953/66 988/100
f 632/290 1005/49 1020/51
f 992/432 1071/17 1070/27
f 1101/386 1021/395 945/397
f 971/3 949/85 354/401
f 8/204 1086/392 1037/394
f 8/204 1010/112 1044/114
f 1024/21 1060/187 980/414
f 1002/433 1022/411 1035/413
f 1086/392 1044/114 1022/411
f 1006/420 1016/405 1077/344
f 621/136 998/64 953/66
f 971/3 1008/2 351/398
f 982/400 983/206 1068/285
f 830/20 1028/21 1064/187
f 991/425 1006/421 1031/165
f 985/407 1106/170 1057/137
f 1039/180 1038/19 956/422
f 951/423 1027/93 1097/95
f 1083/18 1071/17 992/432
f 1040/32 1025/45 948/212
f 1003/389 1081/151 1105/153
f 995/425 1076/163 1091/165
f 1002/433 1088/133 1046/135
f 956/422 1038/19 1024/21
f 1049/35 1048/34 965/205
f 1048/34 1059/149 979/206
f 1015/115 1018/98 97/116
f 1087/18 1003/389 996/432
f 1095/153 992/432 991/425
f 1081/151 1003/389 1001/390
f 998/64 1013/110 627/256
f 950/85 993/130 358/402
f 1062/30 1063/149 983/206
f 1077/344 1016/405 1000/390
f 1093/106 1099/105 1016/405
f 1058/30 1040/32 958/403
f 68/195 1019/100 975/145
f 1073/27 1074/17 996/432
f 1094/106 1009/420 1017/405
f 957/1 956/422 1092/162
f 58/266 997/66 1019/100
f 1032/285 979/206 978/400
f 965/205 979/206 1032/285
f 1098/380 972/205 968/408
f 881/382 888/356 880/358
